<?xml version="1.0" encoding="UTF-8" standalone="no"?>
<!DOCTYPE svg PUBLIC "-//W3C//DTD SVG 1.1//EN"
"http://www.w3.org/Graphics/SVG/1.1/DTD/svg11.dtd">
<svg viewBox="0 0 909 1147" version="1.1" xmlns="http://www.w3.org/2000/svg" xmlns:xlink="http://www.w3.org/1999/xlink">
<defs>
<clipPath id="c0_51"><path d="M577.8,941.7V715.6H803.9V941.7Z"/></clipPath>
<style type="text/css"><![CDATA[
.g0_51{
fill: #FAAF82;
}
.g1_51{
fill: none;
stroke: #0EA5DF;
stroke-width: 0.763;
stroke-miterlimit: 10;
}
.g2_51{
fill: #FCD3C1;
}
.g3_51{
fill: none;
stroke: #000;
stroke-width: 0.33;
stroke-miterlimit: 2;
}
.g4_51{
fill: #FFFCD5;
}
.g5_51{
fill: #C7EAFB;
}
.g6_51{
fill: #E0DEEF;
}
.g7_51{
fill: #E3F2E7;
}
.g8_51{
fill: #000;
}
]]></style>
</defs>
<path d="M835.8,1129.8h73.6v-51.5H835.8v51.5Z" class="g0_51"/>
<path d="M0,138.7H121.6V0H0V138.7Z" class="g0_51"/>
<path d="M215.1,992.5H372.8M215.5,1017V992.8m157.3,-.3H477.5M372.8,1017V992.8M477.1,1017V992.8m-262,24.6H372.8m-157.3,24.5v-24.1m157.3,-.4H477.5m-104.7,24.5v-24.1m104.3,24.1v-24.1m-262,24.5H372.8m-157.3,24.6v-24.2m157.3,-.4H477.5m-104.7,24.6v-24.2m104.3,24.2v-24.2m-262,24.6H372.8m0,0H477.5" class="g1_51"/>
<path fill-rule="evenodd" d="M691,716.6c61.7,0,111.6,50,111.6,111.7c0,61.6,-49.9,111.6,-111.6,111.6c-61.6,0,-111.6,-50,-111.6,-111.6c0,-61.7,50,-111.7,111.6,-111.7Z" class="g2_51"/>
<path d="M691,716.6c61.7,0,111.6,50,111.6,111.7c0,61.6,-49.9,111.6,-111.6,111.6c-61.6,0,-111.6,-50,-111.6,-111.6c0,-61.7,50,-111.7,111.6,-111.7Z" class="g3_51"/>
<path fill-rule="evenodd" d="M690.6,828.5H802.2c0,61.6,-50,111.6,-111.6,111.6Z" class="g4_51"/>
<path d="M690.6,828.5H802.2c0,61.6,-50,111.6,-111.6,111.6V828.5Z" class="g3_51"/>
<g clip-path="url(#c0_51)">
<path fill-rule="evenodd" d="M690.4,827.9V939.5c-11.7,0,-23.3,-1.8,-34.5,-5.4C597.3,915,565.2,852.1,584.3,793.4Z" class="g5_51"/>
<path d="M690.4,827.9V939.5c-11.7,0,-23.3,-1.8,-34.5,-5.4C597.3,915,565.2,852.1,584.3,793.4l106.1,34.5Z" class="g3_51"/>
</g>
<path fill-rule="evenodd" d="M691,827.9V716.3c23.5,0,46.5,7.5,65.6,21.3Z" class="g6_51"/>
<path d="M691,827.9V716.3c23.5,0,46.5,7.5,65.6,21.3L691,827.9Z" class="g3_51"/>
<path fill-rule="evenodd" d="M691,828.3l65.6,-90.4c28.9,21,46,54.6,46,90.4Z" class="g7_51"/>
<path d="M691,828.3l65.6,-90.4c28.9,21,46,54.6,46,90.4H691Z" class="g3_51"/>
<path d="M613.9,776.2c0,-2.1,.6,-3.8,1.8,-5.1c1.2,-1.2,2.7,-1.8,4.5,-1.8c1.2,0,2.3,.3,3.3,.8c1,.6,1.7,1.4,2.2,2.5c.5,1,.8,2.2,.8,3.5c0,1.3,-.3,2.5,-.8,3.6c-.6,1,-1.3,1.8,-2.3,2.3c-1,.6,-2,.9,-3.2,.9c-1.2,0,-2.3,-.3,-3.3,-.9c-1,-.6,-1.7,-1.5,-2.2,-2.5c-.5,-1,-.8,-2.1,-.8,-3.3m1.8,.1c0,1.6,.5,2.8,1.3,3.7c.9,.9,1.9,1.4,3.2,1.4c1.3,0,2.4,-.5,3.2,-1.4c.9,-.9,1.3,-2.2,1.3,-3.9c0,-1.1,-.2,-2,-.5,-2.8c-.4,-.8,-.9,-1.4,-1.6,-1.9c-.7,-.4,-1.5,-.6,-2.4,-.6c-1.2,0,-2.3,.4,-3.1,1.2c-.9,.9,-1.4,2.3,-1.4,4.3Z" class="g8_51"/>
<path d="M627.7,773.1h7.7v1.4h-3.1v8.1h-1.6v-8.1h-3Z" class="g8_51"/>
<path d="M637.3,773.1h7.5v9.5h-1.6v-8.1h-4.3v4.7c0,1.1,0,1.8,-.1,2.2c-.1,.3,-.3,.6,-.6,.9c-.3,.3,-.8,.4,-1.4,.4c-.4,0,-.8,0,-1.3,-.1v-1.3h.7c.4,0,.6,-.1,.7,-.1c.2,-.1,.3,-.2,.3,-.3c.1,-.2,.1,-.7,.1,-1.5Z" class="g8_51"/>
<path d="M647.2,773.1h1.6v7.3l4.5,-7.3H655v9.5h-1.6v-7.2l-4.5,7.2h-1.7Z" class="g8_51"/>
<path d="M656.9,773.1h1.6v1.8c0,.8,0,1.4,.1,1.7c.1,.4,.3,.7,.7,.9c.3,.3,.8,.4,1.3,.4c.6,0,1.4,-.1,2.4,-.5v-4.3h1.6v9.5H663v-3.8c-1,.3,-1.9,.5,-2.8,.5c-.7,0,-1.4,-.2,-1.9,-.6c-.6,-.4,-.9,-.8,-1.1,-1.3c-.2,-.6,-.3,-1.1,-.3,-1.8Z" class="g8_51"/>
<path d="M673.5,779.6l1.7,.2c-.3,1,-.8,1.7,-1.5,2.2c-.7,.6,-1.6,.8,-2.7,.8c-1.4,0,-2.5,-.4,-3.3,-1.2c-.8,-.9,-1.2,-2.1,-1.2,-3.6c0,-1.6,.4,-2.9,1.2,-3.8c.8,-.8,1.9,-1.3,3.2,-1.3c1.3,0,2.3,.4,3.1,1.3c.8,.9,1.2,2.1,1.2,3.7c0,.1,0,.2,0,.4h-7.1c.1,1,.4,1.8,.9,2.4c.6,.5,1.2,.8,2,.8c.6,0,1.1,-.1,1.5,-.4c.4,-.4,.8,-.8,1,-1.5M668.2,777h5.3c0,-.8,-.2,-1.4,-.6,-1.8c-.5,-.7,-1.2,-1,-2,-1c-.7,0,-1.3,.3,-1.8,.8c-.5,.5,-.8,1.1,-.9,2Z" class="g8_51"/>
<path d="M677.2,773.1h1.6v4h4.5v-4h1.6v9.5h-1.6v-4.2h-4.5v4.2h-1.6Z" class="g8_51"/>
<path d="M704.9,740.9l1.7,.5c-.4,1.4,-1,2.5,-2,3.2c-.9,.8,-2.1,1.2,-3.4,1.2c-1.5,0,-2.6,-.3,-3.5,-.9c-.9,-.6,-1.6,-1.4,-2,-2.5c-.5,-1.1,-.7,-2.3,-.7,-3.5c0,-1.4,.2,-2.6,.8,-3.6c.5,-1,1.2,-1.8,2.2,-2.3c1,-.6,2,-.8,3.2,-.8c1.3,0,2.4,.3,3.3,1c.9,.7,1.5,1.6,1.9,2.8l-1.7,.4c-.3,-.9,-.8,-1.6,-1.4,-2.1c-.5,-.4,-1.3,-.6,-2.2,-.6c-1,0,-1.8,.2,-2.5,.7c-.7,.5,-1.1,1.1,-1.4,1.9c-.3,.9,-.4,1.7,-.4,2.6c0,1.1,.1,2,.5,2.9c.3,.8,.8,1.4,1.5,1.8c.7,.5,1.4,.7,2.2,.7c1,0,1.8,-.3,2.5,-.9c.7,-.5,1.1,-1.4,1.4,-2.5Z" class="g8_51"/>
<path d="M709.3,736h7.5v9.5h-1.6v-8.1h-4.3v4.7c0,1.1,0,1.8,-.1,2.2c-.1,.3,-.3,.6,-.6,.9c-.3,.3,-.8,.4,-1.4,.4c-.3,0,-.8,0,-1.3,-.1v-1.3h.7c.4,0,.6,-.1,.8,-.1c.1,-.1,.2,-.2,.2,-.4c.1,-.1,.1,-.6,.1,-1.4Z" class="g8_51"/>
<path d="M725.4,744.4c-.6,.5,-1.1,.8,-1.7,1c-.6,.2,-1.1,.3,-1.8,.3c-1,0,-1.8,-.2,-2.4,-.7c-.5,-.5,-.8,-1.2,-.8,-2c0,-.4,.1,-.9,.3,-1.3c.2,-.3,.5,-.6,.8,-.9c.4,-.2,.8,-.4,1.2,-.5c.3,-.1,.8,-.2,1.4,-.2c1.3,-.2,2.3,-.4,2.9,-.6c0,-.2,0,-.4,0,-.4c0,-.7,-.2,-1.1,-.5,-1.4c-.4,-.4,-1,-.6,-1.8,-.6c-.7,0,-1.3,.2,-1.7,.4c-.3,.3,-.6,.8,-.8,1.5l-1.5,-.3c.1,-.6,.3,-1.2,.7,-1.6c.3,-.4,.8,-.7,1.4,-1c.6,-.2,1.3,-.3,2.1,-.3c.9,0,1.5,.1,2,.3c.5,.2,.9,.4,1.1,.7c.3,.3,.4,.7,.5,1.1c.1,.3,.1,.8,.1,1.5v2.1c0,1.5,.1,2.5,.1,2.9c.1,.4,.2,.8,.4,1.1h-1.7c-.1,-.3,-.2,-.7,-.3,-1.1m-.1,-3.6c-.6,.2,-1.5,.4,-2.6,.6c-.7,.1,-1.2,.2,-1.4,.3c-.3,.1,-.5,.3,-.7,.5c-.1,.2,-.2,.5,-.2,.8c0,.4,.2,.8,.5,1.1c.3,.2,.8,.4,1.4,.4c.6,0,1.2,-.2,1.7,-.4c.4,-.3,.8,-.7,1,-1.1c.2,-.4,.3,-.9,.3,-1.7Z" class="g8_51"/>
<path d="M736.4,732.1h1.4c-.1,.6,-.2,1.1,-.4,1.3c-.2,.3,-.5,.5,-.9,.5c-.3,.1,-1,.1,-2,.1c-1.3,0,-2.2,.2,-2.7,.4c-.5,.3,-.8,.7,-1,1.3c-.3,.5,-.4,1.2,-.4,2.1c.4,-.6,.9,-1,1.4,-1.3c.6,-.3,1.2,-.5,1.9,-.5c1.2,0,2.2,.5,3.1,1.3c.8,.9,1.2,2,1.2,3.5c0,1.1,-.2,2,-.6,2.7c-.4,.7,-.9,1.3,-1.5,1.7c-.6,.4,-1.3,.5,-2.3,.5c-1.1,0,-2,-.2,-2.6,-.7c-.7,-.5,-1.1,-1.2,-1.5,-2c-.3,-.8,-.5,-2.2,-.5,-4.2c0,-2.5,.4,-4.2,1.3,-5.1c.8,-.9,2.2,-1.3,3.9,-1.3c1.1,0,1.7,0,1.9,-.1c.1,0,.2,-.1,.3,-.2m-.1,8.6c0,-1,-.2,-1.8,-.7,-2.4c-.5,-.6,-1.1,-.9,-2,-.9c-.9,0,-1.6,.3,-2,1c-.5,.6,-.8,1.5,-.8,2.6c0,1.1,.3,2,.8,2.6c.6,.6,1.2,.8,2,.8c.8,0,1.5,-.3,2,-1c.5,-.6,.7,-1.5,.7,-2.7Z" class="g8_51"/>
<path d="M704.9,766h-1.6V755.7c-.4,.4,-.9,.8,-1.6,1.2c-.6,.3,-1.2,.6,-1.7,.8v-1.6c.9,-.4,1.7,-.9,2.4,-1.5c.7,-.6,1.2,-1.2,1.4,-1.8h1.1Z" class="g8_51"/>
<path d="M709,759.5c0,-1.5,.2,-2.8,.5,-3.7c.3,-1,.8,-1.7,1.4,-2.2c.6,-.5,1.4,-.8,2.4,-.8c.7,0,1.3,.2,1.8,.5c.6,.2,1,.6,1.4,1.2c.3,.5,.6,1.2,.8,1.9c.2,.8,.3,1.8,.3,3.1c0,1.6,-.2,2.8,-.5,3.8c-.3,.9,-.8,1.6,-1.4,2.2c-.7,.5,-1.5,.7,-2.4,.7c-1.3,0,-2.3,-.4,-3,-1.3c-.9,-1.1,-1.3,-2.9,-1.3,-5.4m1.7,0c0,2.2,.2,3.6,.7,4.3c.5,.8,1.1,1.1,1.9,1.1c.7,0,1.3,-.4,1.8,-1.1c.6,-.7,.8,-2.1,.8,-4.3c0,-2.1,-.2,-3.6,-.8,-4.3c-.5,-.7,-1.1,-1,-1.8,-1c-.8,0,-1.4,.3,-1.8,.9c-.6,.8,-.8,2.3,-.8,4.4Z" class="g8_51"/>
<path d="M719.5,756c0,-.9,.2,-1.7,.7,-2.4c.5,-.6,1.2,-.9,2.1,-.9c.8,0,1.5,.3,2,.8c.5,.6,.8,1.5,.8,2.6c0,1.1,-.3,2,-.8,2.6c-.5,.6,-1.2,.9,-2,.9c-.8,0,-1.5,-.3,-2,-.9c-.5,-.6,-.8,-1.5,-.8,-2.7m2.8,-2.2c-.4,0,-.7,.1,-1,.5c-.3,.3,-.4,1,-.4,1.9c0,.8,.1,1.4,.4,1.8c.3,.3,.6,.5,1,.5c.4,0,.7,-.2,1,-.5c.3,-.4,.4,-1,.4,-1.9c0,-.9,-.1,-1.5,-.4,-1.8c-.3,-.4,-.6,-.5,-1,-.5m0,12.7l7.2,-13.8h1.3l-7.2,13.8Zm5.7,-3.6c0,-.9,.2,-1.7,.7,-2.4c.5,-.6,1.2,-.9,2.1,-.9c.8,0,1.5,.3,2,.8c.5,.6,.8,1.5,.8,2.6c0,1.1,-.3,2,-.8,2.6c-.6,.6,-1.2,.9,-2,.9c-.8,0,-1.5,-.3,-2,-.9c-.5,-.6,-.8,-1.5,-.8,-2.7m2.8,-2.2c-.4,0,-.7,.1,-1,.5c-.3,.3,-.4,1,-.4,1.9c0,.8,.1,1.4,.4,1.8c.3,.3,.6,.5,1,.5c.4,0,.7,-.2,1,-.5c.3,-.4,.4,-1,.4,-1.9c0,-.9,-.1,-1.5,-.4,-1.8c-.3,-.4,-.6,-.5,-1,-.5Z" class="g8_51"/>
<path d="M736,797.1l1.8,.4c-.4,1.4,-1,2.5,-2,3.3c-.9,.7,-2.1,1.1,-3.5,1.1c-1.4,0,-2.5,-.3,-3.4,-.9c-.9,-.5,-1.6,-1.4,-2,-2.5c-.5,-1.1,-.7,-2.2,-.7,-3.5c0,-1.4,.2,-2.5,.8,-3.6c.5,-1,1.2,-1.8,2.2,-2.3c.9,-.5,2,-.8,3.2,-.8c1.3,0,2.4,.4,3.3,1c.9,.7,1.5,1.6,1.8,2.8l-1.7,.4c-.3,-.9,-.7,-1.6,-1.3,-2c-.6,-.5,-1.3,-.7,-2.2,-.7c-1,0,-1.8,.3,-2.5,.7c-.7,.5,-1.2,1.2,-1.4,2c-.3,.8,-.4,1.6,-.4,2.5c0,1.1,.1,2.1,.4,2.9c.4,.9,.9,1.5,1.6,1.9c.7,.4,1.4,.6,2.2,.6c1,0,1.8,-.3,2.5,-.8c.6,-.6,1.1,-1.4,1.3,-2.5Z" class="g8_51"/>
<path d="M739.7,805.3V792.2h1.5v1.2c.3,-.5,.7,-.8,1.1,-1.1c.5,-.2,1,-.4,1.6,-.4c.8,0,1.6,.3,2.2,.7c.6,.4,1.1,1,1.4,1.7c.3,.8,.5,1.6,.5,2.5c0,1,-.2,1.9,-.6,2.7c-.3,.8,-.8,1.3,-1.5,1.8c-.7,.4,-1.4,.6,-2.1,.6c-.5,0,-1,-.1,-1.4,-.4c-.5,-.2,-.8,-.5,-1.1,-.8v4.6Zm1.5,-8.3c0,1.2,.2,2.1,.7,2.7c.5,.6,1.1,.9,1.8,.9c.7,0,1.3,-.3,1.8,-.9c.6,-.7,.8,-1.6,.8,-2.9c0,-1.2,-.2,-2.1,-.7,-2.7c-.5,-.6,-1.1,-.9,-1.8,-.9c-.7,0,-1.3,.3,-1.8,1c-.6,.6,-.8,1.5,-.8,2.8Z" class="g8_51"/>
<path d="M756.4,798.6l1.7,.2c-.3,1,-.8,1.7,-1.5,2.3c-.7,.5,-1.6,.8,-2.7,.8c-1.4,0,-2.5,-.4,-3.3,-1.3c-.8,-.9,-1.2,-2.1,-1.2,-3.6c0,-1.6,.4,-2.8,1.2,-3.7c.8,-.9,1.9,-1.4,3.2,-1.4c1.3,0,2.3,.5,3.1,1.3c.8,.9,1.2,2.1,1.2,3.7c0,.1,0,.2,0,.4H751c.1,1.1,.4,1.9,.9,2.4c.5,.6,1.2,.9,2,.9c.6,0,1.1,-.2,1.5,-.5c.4,-.3,.8,-.8,1,-1.5M751.1,796h5.3c0,-.8,-.2,-1.4,-.6,-1.8c-.5,-.6,-1.2,-.9,-2,-.9c-.7,0,-1.3,.2,-1.8,.7c-.5,.5,-.8,1.2,-.9,2Z" class="g8_51"/>
<path d="M761,792.2h6.6v8.1h1v4.1h-1.3v-2.7h-7.5v2.7h-1.3v-4.1h.8c1.2,-1.5,1.7,-4.2,1.7,-8.1m1.3,1.3c-.1,3.1,-.6,5.4,-1.4,6.8H766v-6.8Z" class="g8_51"/>
<path d="M776.9,798.6l1.7,.2c-.3,1,-.8,1.7,-1.5,2.3c-.7,.5,-1.6,.8,-2.7,.8c-1.4,0,-2.5,-.4,-3.3,-1.3c-.8,-.9,-1.2,-2.1,-1.2,-3.6c0,-1.6,.4,-2.8,1.2,-3.7c.8,-.9,1.9,-1.4,3.2,-1.4c1.3,0,2.3,.5,3.1,1.3c.8,.9,1.2,2.1,1.2,3.7c0,.1,0,.2,0,.4h-7.1c.1,1.1,.4,1.9,.9,2.4c.5,.6,1.2,.9,2,.9c.6,0,1.1,-.2,1.5,-.5c.4,-.3,.8,-.8,1,-1.5M771.6,796h5.3c-.1,-.8,-.3,-1.4,-.6,-1.8c-.5,-.6,-1.2,-.9,-2,-.9c-.7,0,-1.4,.2,-1.9,.7c-.5,.5,-.7,1.2,-.8,2Z" class="g8_51"/>
<path d="M780.6,792.2h1.6v3.9h4.5v-3.9h1.6v9.5h-1.6v-4.2h-4.5v4.2h-1.6Z" class="g8_51"/>
<path d="M745.9,822.2h-1.6V811.9c-.4,.4,-.9,.7,-1.6,1.1c-.6,.4,-1.2,.6,-1.7,.8v-1.5c.9,-.5,1.7,-1,2.4,-1.6c.7,-.6,1.1,-1.2,1.4,-1.7h1.1Z" class="g8_51"/>
<path d="M750,818.7l1.7,-.1c.1,.8,.4,1.4,.9,1.8c.4,.4,1,.7,1.6,.7c.8,0,1.4,-.3,2,-.9c.5,-.6,.8,-1.4,.8,-2.4c0,-.9,-.3,-1.6,-.8,-2.1c-.5,-.6,-1.2,-.8,-2,-.8c-.5,0,-1,.1,-1.4,.3c-.4,.3,-.8,.6,-1,.9l-1.5,-.2l1.2,-6.7h6.6v1.5h-5.3l-.7,3.6c.8,-.6,1.6,-.9,2.5,-.9c1.2,0,2.1,.4,2.9,1.2c.8,.8,1.2,1.9,1.2,3.1c0,1.2,-.4,2.2,-1,3.1c-.9,1,-2,1.6,-3.5,1.6c-1.2,0,-2.2,-.4,-2.9,-1c-.8,-.7,-1.2,-1.6,-1.3,-2.7Z" class="g8_51"/>
<path d="M760.5,812.2c0,-1,.2,-1.8,.7,-2.4c.5,-.7,1.2,-1,2,-1c.9,0,1.6,.3,2.1,.9c.5,.6,.8,1.4,.8,2.6c0,1.1,-.3,1.9,-.8,2.5c-.6,.6,-1.2,.9,-2,.9c-.8,0,-1.5,-.3,-2,-.8c-.5,-.6,-.8,-1.5,-.8,-2.7m2.8,-2.3c-.4,0,-.7,.2,-1,.5c-.3,.4,-.4,1,-.4,1.9c0,.9,.1,1.5,.4,1.8c.3,.4,.6,.5,1,.5c.4,0,.7,-.1,1,-.5c.3,-.3,.4,-1,.4,-1.9c0,-.8,-.1,-1.4,-.4,-1.8c-.3,-.3,-.6,-.5,-1,-.5m0,12.7l7.2,-13.8h1.3l-7.2,13.8Zm5.7,-3.5c0,-1,.2,-1.8,.7,-2.4c.5,-.7,1.1,-1,2,-1c.9,0,1.5,.3,2.1,.9c.5,.6,.8,1.4,.8,2.6c0,1.1,-.3,1.9,-.8,2.5c-.6,.6,-1.2,.9,-2,.9c-.8,0,-1.5,-.3,-2,-.9c-.6,-.6,-.8,-1.4,-.8,-2.6m2.8,-2.3c-.4,0,-.8,.2,-1,.5c-.3,.4,-.4,1,-.4,1.9c0,.9,.1,1.5,.4,1.8c.3,.4,.6,.5,1,.5c.4,0,.7,-.1,1,-.5c.3,-.3,.4,-1,.4,-1.9c0,-.8,-.1,-1.4,-.4,-1.8c-.3,-.3,-.6,-.5,-1,-.5Z" class="g8_51"/>
<path d="M711.8,853.4h8V865H721v4.6h-1.6v-3.1h-8.6v3.1h-1.6V865h1c1.1,-1.6,1.6,-4.8,1.6,-9.7Zm6.3,1.6h-4.6v.6c0,1.2,-.1,2.7,-.3,4.6c-.2,2,-.6,3.6,-1.2,4.8h6.1Z" class="g8_51"/>
<path d="M722.4,861.8c0,-1.8,.5,-3.1,1.5,-3.9c.8,-.7,1.8,-1.1,3,-1.1c1.3,0,2.4,.5,3.2,1.3c.8,.9,1.3,2,1.3,3.6c0,1.2,-.2,2.1,-.6,2.8c-.4,.7,-.9,1.3,-1.6,1.7c-.7,.4,-1.5,.6,-2.3,.6c-1.3,0,-2.4,-.5,-3.2,-1.3c-.8,-.9,-1.3,-2.1,-1.3,-3.7m1.7,0c0,1.2,.3,2.1,.8,2.7c.5,.6,1.2,.9,2,.9c.8,0,1.5,-.3,2,-.9c.5,-.6,.8,-1.5,.8,-2.8c0,-1.1,-.3,-2,-.8,-2.6c-.5,-.6,-1.2,-.9,-2,-.9c-.8,0,-1.5,.3,-2,.9c-.5,.6,-.8,1.5,-.8,2.7Z" class="g8_51"/>
<path d="M740.2,853.1h1.4c0,.7,-.2,1.1,-.4,1.4c-.2,.2,-.5,.4,-.8,.4c-.4,.1,-1.1,.2,-2.1,.2c-1.3,0,-2.2,.1,-2.7,.3c-.5,.3,-.8,.7,-1,1.3c-.2,.5,-.3,1.3,-.4,2.1c.4,-.6,.9,-1,1.5,-1.3c.5,-.3,1.1,-.5,1.8,-.5c1.2,0,2.3,.5,3.1,1.3c.8,.9,1.2,2,1.2,3.5c0,1.1,-.2,2,-.6,2.7c-.4,.7,-.9,1.3,-1.5,1.7c-.5,.4,-1.3,.6,-2.3,.6c-1.1,0,-2,-.3,-2.6,-.8c-.6,-.5,-1.1,-1.2,-1.4,-2c-.4,-.8,-.6,-2.2,-.6,-4.2c0,-2.5,.5,-4.2,1.3,-5.1c.9,-.9,2.2,-1.3,3.9,-1.3c1.1,0,1.8,0,1.9,0c.2,-.1,.3,-.2,.3,-.3m-.1,8.7c0,-1,-.2,-1.8,-.7,-2.5c-.4,-.6,-1.1,-.9,-2,-.9c-.8,0,-1.5,.3,-2,1c-.5,.6,-.7,1.5,-.7,2.7c0,1.1,.2,1.9,.8,2.5c.5,.6,1.2,.9,1.9,.9c.8,0,1.5,-.4,2,-1.1c.5,-.6,.7,-1.5,.7,-2.6Z" class="g8_51"/>
<path d="M742.3,857h4.2v3.8h2.1c1.4,0,2.5,.2,3.1,.8c.7,.6,1,1.3,1,2.1c0,.8,-.3,1.5,-.9,2c-.7,.6,-1.6,.8,-2.8,.8h-4.1v-8.1h-2.6Zm4.2,8.2h1.7c1.1,0,1.8,-.1,2.2,-.3c.4,-.3,.7,-.7,.7,-1.2c0,-.5,-.2,-.9,-.6,-1.2c-.4,-.3,-1,-.4,-2.1,-.4h-1.9Z" class="g8_51"/>
<path d="M754.6,870.2V857h1.5v1.3c.3,-.5,.7,-.9,1.1,-1.1c.5,-.3,1,-.4,1.6,-.4c.8,0,1.5,.2,2.2,.6c.6,.5,1.1,1.1,1.4,1.8c.3,.8,.4,1.6,.4,2.5c0,1,-.1,1.9,-.5,2.6c-.3,.8,-.8,1.4,-1.5,1.8c-.7,.5,-1.4,.7,-2.1,.7c-.5,0,-1,-.2,-1.4,-.4c-.5,-.2,-.8,-.5,-1.1,-.8v4.6Zm1.5,-8.4c0,1.3,.2,2.2,.7,2.8c.5,.5,1.1,.8,1.8,.8c.7,0,1.3,-.3,1.8,-.9c.5,-.6,.8,-1.5,.8,-2.8c0,-1.2,-.2,-2.1,-.7,-2.7c-.5,-.6,-1.1,-.9,-1.8,-.9c-.7,0,-1.3,.3,-1.9,.9c-.5,.7,-.7,1.6,-.7,2.8Z" class="g8_51"/>
<path d="M727.3,885.5V887h-8.7c0,-.4,.1,-.7,.2,-1.1c.2,-.6,.6,-1.2,1.1,-1.7c.4,-.6,1.1,-1.3,2.1,-2c1.4,-1.2,2.4,-2.1,2.9,-2.8c.5,-.7,.7,-1.3,.7,-1.9c0,-.7,-.2,-1.2,-.7,-1.7c-.4,-.4,-1,-.6,-1.8,-.6c-.7,0,-1.4,.2,-1.8,.7c-.5,.4,-.7,1.1,-.7,1.9l-1.7,-.2c.1,-1.2,.6,-2.1,1.3,-2.8c.7,-.6,1.7,-1,3,-1c1.2,0,2.2,.4,3,1.1c.7,.7,1.1,1.6,1.1,2.6c0,.5,-.1,1,-.4,1.5c-.2,.5,-.5,1.1,-1,1.6c-.5,.6,-1.4,1.4,-2.5,2.4c-1,.8,-1.6,1.3,-1.9,1.6c-.2,.3,-.5,.6,-.7,.9Z" class="g8_51"/>
<path d="M729,883.6l1.7,-.2c.1,.9,.4,1.5,.9,1.9c.4,.4,1,.6,1.6,.6c.8,0,1.5,-.3,2,-.9c.5,-.5,.8,-1.3,.8,-2.3c0,-.9,-.3,-1.6,-.8,-2.2c-.5,-.5,-1.2,-.8,-2,-.8c-.5,0,-1,.2,-1.4,.4c-.4,.2,-.8,.5,-1,.9l-1.5,-.2l1.3,-6.7h6.5v1.5h-5.2l-.8,3.5c.8,-.5,1.7,-.8,2.5,-.8c1.2,0,2.1,.4,2.9,1.2c.8,.8,1.2,1.8,1.2,3.1c0,1.2,-.3,2.2,-1,3.1c-.9,1,-2,1.5,-3.5,1.5c-1.2,0,-2.1,-.3,-2.9,-1c-.8,-.6,-1.2,-1.5,-1.3,-2.6Z" class="g8_51"/>
<path d="M739.5,877.1c0,-1,.2,-1.8,.7,-2.4c.5,-.7,1.2,-1,2.1,-1c.8,0,1.5,.3,2,.9c.6,.5,.8,1.4,.8,2.6c0,1.1,-.3,1.9,-.8,2.5c-.5,.6,-1.2,.9,-2,.9c-.8,0,-1.5,-.3,-2,-.9c-.5,-.6,-.8,-1.5,-.8,-2.6m2.8,-2.3c-.4,0,-.7,.2,-1,.5c-.3,.4,-.4,1,-.4,1.9c0,.9,.2,1.4,.4,1.8c.3,.3,.6,.5,1,.5c.4,0,.8,-.2,1,-.5c.3,-.4,.4,-1,.4,-1.9c0,-.9,-.1,-1.5,-.4,-1.8c-.3,-.3,-.6,-.5,-1,-.5m0,12.7l7.2,-13.8h1.3l-7.1,13.8Zm5.7,-3.6c0,-.9,.2,-1.7,.7,-2.3c.5,-.7,1.2,-1,2.1,-1c.8,0,1.5,.3,2,.9c.5,.5,.8,1.4,.8,2.5c0,1.2,-.3,2,-.8,2.6c-.5,.6,-1.2,.9,-2,.9c-.8,0,-1.5,-.3,-2,-.9c-.5,-.6,-.8,-1.5,-.8,-2.7m2.8,-2.2c-.4,0,-.7,.2,-1,.5c-.3,.3,-.4,1,-.4,1.9c0,.8,.1,1.4,.4,1.8c.3,.3,.6,.5,1,.5c.4,0,.8,-.2,1,-.5c.3,-.4,.4,-1,.4,-1.9c0,-.9,-.1,-1.5,-.4,-1.8c-.3,-.3,-.6,-.5,-1,-.5Z" class="g8_51"/>
<path d="M617.1,854.9V841.8h2.6l3.1,9.3c.3,.8,.5,1.5,.7,1.9c.1,-.5,.4,-1.2,.7,-2.1l3.1,-9.1h2.4v13.1H628v-11l-3.8,11h-1.6l-3.8,-11.2v11.2Z" class="g8_51"/>
<path d="M632.3,845.4h1.6v3.9h4.4v-3.9h1.6v9.5h-1.6v-4.2h-4.4v4.2h-1.6Z" class="g8_51"/>
<path d="M641.8,850.1c0,-1.7,.5,-3,1.4,-3.9c.9,-.7,1.9,-1,3,-1c1.3,0,2.4,.4,3.2,1.3c.9,.8,1.3,2,1.3,3.5c0,1.2,-.2,2.2,-.6,2.9c-.3,.7,-.9,1.2,-1.6,1.6c-.7,.4,-1.4,.6,-2.3,.6c-1.3,0,-2.4,-.4,-3.2,-1.3c-.8,-.8,-1.2,-2.1,-1.2,-3.7m1.6,0c0,1.3,.3,2.2,.8,2.8c.6,.6,1.2,.9,2,.9c.8,0,1.5,-.3,2,-.9c.6,-.6,.8,-1.6,.8,-2.8c0,-1.2,-.2,-2.1,-.8,-2.7c-.5,-.6,-1.2,-.9,-2,-.9c-.8,0,-1.4,.3,-2,.9c-.5,.6,-.8,1.5,-.8,2.7Z" class="g8_51"/>
<path d="M652.6,845.4H658v1.3h-3.8v8.2h-1.6Z" class="g8_51"/>
<path d="M658.2,850.1c0,-1.7,.5,-3,1.5,-3.9c.8,-.7,1.8,-1,3,-1c1.3,0,2.4,.4,3.2,1.3c.8,.8,1.3,2,1.3,3.5c0,1.2,-.2,2.2,-.6,2.9c-.4,.7,-.9,1.2,-1.6,1.6c-.7,.4,-1.5,.6,-2.3,.6c-1.3,0,-2.4,-.4,-3.2,-1.3c-.8,-.8,-1.3,-2.1,-1.3,-3.7m1.7,0c0,1.3,.3,2.2,.8,2.8c.5,.6,1.2,.9,2,.9c.8,0,1.5,-.3,2,-.9c.5,-.6,.8,-1.6,.8,-2.8c0,-1.2,-.3,-2.1,-.8,-2.7c-.5,-.6,-1.2,-.9,-2,-.9c-.8,0,-1.5,.3,-2,.9c-.5,.6,-.8,1.5,-.8,2.7Z" class="g8_51"/>
<path d="M618.1,865.9h6.6V874h1v4.1h-1.3v-2.7h-7.5v2.7h-1.3V874h.8c1.2,-1.5,1.7,-4.2,1.7,-8.1m1.3,1.3c-.1,3.1,-.6,5.4,-1.4,6.8h5.1v-6.8Z" class="g8_51"/>
<path d="M626.9,870.6c0,-1.7,.5,-3,1.5,-3.9c.8,-.7,1.8,-1,2.9,-1c1.4,0,2.4,.4,3.3,1.2c.8,.9,1.2,2.1,1.2,3.6c0,1.2,-.2,2.2,-.6,2.9c-.3,.7,-.9,1.2,-1.6,1.6c-.7,.4,-1.4,.6,-2.3,.6c-1.3,0,-2.4,-.4,-3.2,-1.3c-.8,-.8,-1.2,-2.1,-1.2,-3.7m1.6,0c0,1.2,.3,2.1,.8,2.8c.6,.6,1.2,.9,2,.9c.8,0,1.5,-.3,2,-.9c.6,-.7,.8,-1.6,.8,-2.8c0,-1.2,-.2,-2.1,-.8,-2.7c-.5,-.6,-1.2,-.9,-2,-.9c-.8,0,-1.4,.3,-2,.9c-.5,.6,-.8,1.5,-.8,2.7Z" class="g8_51"/>
<path d="M644.6,861.9l1.5,.1c-.1,.6,-.2,1,-.5,1.3c-.2,.2,-.5,.4,-.8,.5c-.3,0,-1,.1,-2,.1c-1.3,0,-2.3,.1,-2.7,.4c-.5,.2,-.9,.6,-1.1,1.2c-.2,.6,-.3,1.3,-.3,2.2c.4,-.6,.8,-1.1,1.4,-1.4c.5,-.3,1.1,-.4,1.8,-.4c1.3,0,2.3,.4,3.1,1.3c.8,.8,1.2,2,1.2,3.4c0,1.1,-.2,2,-.6,2.8c-.4,.7,-.9,1.2,-1.4,1.6c-.6,.4,-1.4,.6,-2.3,.6c-1.2,0,-2,-.3,-2.7,-.8c-.6,-.5,-1.1,-1.2,-1.4,-2c-.3,-.8,-.5,-2.2,-.5,-4.2c0,-2.5,.4,-4.2,1.3,-5.1c.8,-.8,2.1,-1.3,3.9,-1.3c1.1,0,1.7,0,1.9,0c.1,0,.2,-.1,.2,-.3m0,8.7c0,-1,-.3,-1.8,-.7,-2.4c-.5,-.7,-1.2,-1,-2,-1c-.9,0,-1.6,.3,-2.1,1c-.5,.7,-.7,1.6,-.7,2.7c0,1.1,.3,1.9,.8,2.5c.5,.6,1.2,.9,2,.9c.8,0,1.4,-.3,1.9,-1c.5,-.7,.8,-1.6,.8,-2.7Z" class="g8_51"/>
<path d="M646.7,865.9H651v3.7h2c1.5,0,2.5,.3,3.2,.8c.6,.6,1,1.3,1,2.1c0,.8,-.3,1.5,-1,2.1c-.6,.5,-1.6,.8,-2.8,.8h-4v-8.2h-2.7Zm4.3,8.2h1.7c1,0,1.7,-.2,2.2,-.4c.4,-.3,.6,-.7,.6,-1.2c0,-.5,-.2,-.9,-.6,-1.2c-.3,-.2,-1,-.4,-2,-.4H651Z" class="g8_51"/>
<path d="M659,879V865.9h1.5v1.2c.3,-.5,.7,-.8,1.2,-1.1c.4,-.2,.9,-.3,1.6,-.3c.8,0,1.5,.2,2.1,.6c.6,.4,1.1,1,1.4,1.7c.3,.8,.5,1.6,.5,2.5c0,1,-.2,1.9,-.5,2.7c-.4,.8,-.9,1.4,-1.6,1.8c-.6,.4,-1.3,.6,-2.1,.6c-.5,0,-1,-.1,-1.4,-.4c-.4,-.2,-.8,-.5,-1.1,-.8V879Zm1.5,-8.3c0,1.2,.2,2.1,.7,2.7c.5,.6,1.1,.9,1.8,.9c.8,0,1.4,-.3,1.9,-.9c.5,-.7,.7,-1.6,.7,-2.9c0,-1.2,-.2,-2.1,-.7,-2.7c-.5,-.6,-1.1,-.9,-1.8,-.9c-.7,0,-1.3,.3,-1.8,1c-.5,.6,-.8,1.6,-.8,2.8Z" class="g8_51"/>
<path d="M624.2,892.4l1.6,-.2c.2,.9,.5,1.5,1,1.9c.4,.5,1,.7,1.6,.7c.8,0,1.4,-.3,1.9,-.8c.5,-.6,.8,-1.2,.8,-2c0,-.7,-.2,-1.3,-.7,-1.8c-.5,-.5,-1.1,-.7,-1.9,-.7c-.3,0,-.6,0,-1.1,.1l.2,-1.4c.1,0,.2,0,.2,0c.7,0,1.3,-.1,1.9,-.5c.5,-.3,.8,-.9,.8,-1.6c0,-.6,-.2,-1.1,-.6,-1.5c-.4,-.4,-.9,-.6,-1.5,-.6c-.7,0,-1.2,.2,-1.6,.6c-.4,.4,-.7,1,-.8,1.8l-1.6,-.3c.2,-1.1,.6,-1.9,1.3,-2.5c.7,-.6,1.6,-.9,2.6,-.9c.8,0,1.4,.1,2,.4c.6,.3,1.1,.8,1.4,1.3c.3,.5,.5,1.1,.5,1.7c0,.6,-.2,1.1,-.5,1.5c-.3,.5,-.7,.9,-1.3,1.1c.7,.2,1.3,.6,1.8,1.2c.4,.5,.6,1.2,.6,2.1c0,1.1,-.4,2.1,-1.2,2.9c-.9,.8,-1.9,1.2,-3.2,1.2c-1.2,0,-2.1,-.4,-2.9,-1c-.7,-.7,-1.2,-1.6,-1.3,-2.7Z" class="g8_51"/>
<path d="M634.4,889.4c0,-1.6,.2,-2.8,.5,-3.8c.3,-.9,.8,-1.6,1.4,-2.2c.6,-.5,1.4,-.7,2.4,-.7c.7,0,1.3,.1,1.8,.4c.6,.3,1,.7,1.4,1.2c.3,.6,.6,1.2,.8,2c.2,.7,.3,1.8,.3,3.1c0,1.5,-.2,2.8,-.5,3.7c-.3,1,-.8,1.7,-1.4,2.2c-.7,.5,-1.4,.8,-2.4,.8c-1.3,0,-2.3,-.5,-3,-1.4c-.9,-1.1,-1.3,-2.9,-1.3,-5.3m1.7,0c0,2.1,.2,3.6,.7,4.3c.5,.7,1.2,1.1,1.9,1.1c.7,0,1.4,-.4,1.9,-1.1c.5,-.7,.7,-2.2,.7,-4.3c0,-2.2,-.2,-3.6,-.7,-4.3c-.5,-.7,-1.2,-1.1,-1.9,-1.1c-.8,0,-1.4,.3,-1.8,1c-.6,.7,-.8,2.2,-.8,4.4Z" class="g8_51"/>
<path d="M644.9,885.9c0,-1,.2,-1.8,.7,-2.4c.5,-.7,1.2,-1,2.1,-1c.8,0,1.5,.3,2,.9c.6,.6,.8,1.4,.8,2.6c0,1.1,-.2,1.9,-.8,2.5c-.5,.6,-1.2,.9,-2,.9c-.8,0,-1.5,-.2,-2,-.8c-.5,-.6,-.8,-1.5,-.8,-2.7m2.8,-2.3c-.4,0,-.7,.2,-1,.5c-.2,.4,-.4,1,-.4,1.9c0,.9,.2,1.5,.4,1.8c.3,.4,.6,.5,1,.5c.4,0,.8,-.1,1,-.5c.3,-.3,.4,-1,.4,-1.9c0,-.8,-.1,-1.4,-.4,-1.8c-.3,-.3,-.6,-.5,-1,-.5m0,12.7l7.2,-13.8h1.3l-7.1,13.8Zm5.7,-3.5c0,-1,.2,-1.8,.7,-2.4c.5,-.7,1.2,-1,2.1,-1c.8,0,1.5,.3,2,.9c.6,.6,.8,1.4,.8,2.6c0,1.1,-.3,1.9,-.8,2.5c-.5,.6,-1.2,.9,-2,.9c-.8,0,-1.5,-.3,-2,-.9c-.5,-.5,-.8,-1.4,-.8,-2.6m2.8,-2.3c-.4,0,-.7,.2,-1,.5c-.3,.4,-.4,1,-.4,1.9c0,.9,.1,1.5,.4,1.8c.3,.4,.6,.5,1,.5c.4,0,.8,-.1,1,-.5c.3,-.3,.4,-1,.4,-1.9c0,-.8,-.1,-1.4,-.4,-1.8c-.3,-.3,-.6,-.5,-1,-.5Z" class="g8_51"/>
</svg>