<?xml version="1.0" encoding="UTF-8" standalone="no"?>
<!DOCTYPE svg PUBLIC "-//W3C//DTD SVG 1.1//EN"
"http://www.w3.org/Graphics/SVG/1.1/DTD/svg11.dtd">
<svg viewBox="0 0 909 1147" version="1.1" xmlns="http://www.w3.org/2000/svg" xmlns:xlink="http://www.w3.org/1999/xlink">
<defs>
<clipPath id="c0_30"><path d="M139.2,664.7v-18h30.2v18Z"/></clipPath>
<style type="text/css"><![CDATA[
.g0_30{
fill: #FAAF82;
}
.g1_30{
fill: none;
stroke: #000;
stroke-width: 0.763;
}
.g2_30{
fill: none;
stroke: #0EA5DF;
stroke-width: 3.055;
}
.g3_30{
fill: #D5E7F7;
}
.g4_30{
fill: #FFF6D2;
}
.g5_30{
fill: #FAE4DA;
}
.g6_30{
fill: none;
stroke: #0EA5DF;
stroke-width: 0.763;
stroke-miterlimit: 10;
}
.g7_30{
fill: #FFF1E0;
}
.g8_30{
fill: #0EA5DF;
}
.g9_30{
fill: #FFF;
}
]]></style>
</defs>
<path d="M0,1131H73.8v-51.5H0V1131Z" class="g0_30"/>
<path d="M183.4,1059.6H400" class="g1_30"/>
<path d="M73.6,166.9H835.8" class="g2_30"/>
<path d="M0,141.1H120.6V0H0V141.1Z" class="g0_30"/>
<path d="M631.6,621.5h21.2V369.6H631.6V621.5Z" class="g3_30"/>
<path d="M408.6,621.5h21.2V369.6H408.6V621.5Z" class="g4_30"/>
<path d="M184.8,622.5H206V369.6H184.8V622.5Z" class="g5_30"/>
<path d="M631.6,334.3h21.2V196.5H631.6V334.3Z" class="g3_30"/>
<path d="M408.6,334.3h21.2V196.5H408.6V334.3Z" class="g4_30"/>
<path d="M184.8,334.3H206V196.5H184.8V334.3Z" class="g5_30"/>
<path d="M235.5,442.8h28.6m-11.9,37.8h11.4M465.5,462.8h28.6m-16.2,37.8h28.6m78.7,33.5h11.4M669.2,405.2h28.6M694,443h56.5m-27.7,37.8h28.6m55.3,33.5h28.7" class="g1_30"/>
<path d="M186.6,893.6H357.3v43.3H186.6V893.6Zm170.7,0H461.7v43.3H357.3V893.6Zm104.4,0h291v43.3h-291V893.6Zm291,0h81.7v43.3H752.7V893.6Z" class="g5_30"/>
<path d="M186.6,936.9H357.3v43.3H186.6V936.9Zm170.7,0H461.7v43.3H357.3V936.9Zm104.4,0h291v43.3h-291V936.9Zm291,0h81.7v43.3H752.7V936.9Z" class="g4_30"/>
<path d="M186.6,980.2H357.3v43.3H186.6V980.2Zm170.7,0H461.7v43.3H357.3V980.2Zm104.4,0h291v43.3h-291V980.2Zm291,0h81.7v43.3H752.7V980.2Z" class="g3_30"/>
<path d="M186.2,868.6H357.3M186.6,893.2V869m170.7,-.4H461.7M357.3,893.2V869m104.4,-.4h291m-291,24.6V869m291,-.4h82m-82,24.6V869m81.7,24.2V869M186.2,893.6H357.3M186.6,936.5V894m170.7,-.4H461.7M357.3,936.5V894m104.4,-.4h291m-291,42.9V894m291,-.4h82m-82,42.9V894m81.7,42.5V894M186.2,936.9H357.3M186.6,979.8V937.3m170.7,-.4H461.7M357.3,979.8V937.3m104.4,-.4h291m-291,42.9V937.3m291,-.4h82m-82,42.9V937.3m81.7,42.5V937.3M186.2,980.2H357.3m-170.7,42.9V980.6m170.7,-.4H461.7m-104.4,42.9V980.6m104.4,-.4h291m-291,42.9V980.6m291,-.4h82m-82,42.9V980.6m81.7,42.5V980.6m-648.2,42.9H357.3m0,0H461.7m0,0h291m0,0h82" class="g6_30"/>
<path d="M183.2,819.9h651V636.6h-651V819.9Z" class="g7_30"/>
<path d="M134.3,674.1h39.6V636.6H134.3v37.5Z" class="g8_30"/>
<path clip-path="url(#c0_30)" d="M154.5,659.2c-2.1,.1,-3.8,-1.6,-3.6,-3.7c.1,-1.7,1.5,-3,3.2,-3.2c2,-.1,3.7,1.6,3.6,3.7c-.1,1.7,-1.5,3.1,-3.2,3.2m.2,2.9c-3.8,.2,-7,-2.9,-6.7,-6.7c.1,-3.2,2.7,-5.8,5.9,-6c3.8,-.2,7,2.9,6.7,6.8c-.2,3.1,-2.7,5.7,-5.9,5.9m-.4,-15.3c-5.8,0,-11,3.1,-14.9,8.2c-.3,.5,-.3,1.1,0,1.5c3.9,5.1,9.1,8.3,14.9,8.3c5.8,0,11,-3.2,14.8,-8.3c.4,-.4,.4,-1,0,-1.4c-3.8,-5.2,-9,-8.3,-14.8,-8.3Z" class="g9_30"/>
</svg>