<?xml version="1.0" encoding="UTF-8" standalone="no"?>
<!DOCTYPE svg PUBLIC "-//W3C//DTD SVG 1.1//EN"
"http://www.w3.org/Graphics/SVG/1.1/DTD/svg11.dtd">
<svg viewBox="0 0 909 1147" version="1.1" xmlns="http://www.w3.org/2000/svg" xmlns:xlink="http://www.w3.org/1999/xlink">
<defs>
<clipPath id="c0_76"><path d="M252.4,885.5V786h185v99.5Z"/></clipPath>
<clipPath id="c1_76"><path d="M185.1,1033.1V941.7h96.6v91.4Z"/></clipPath>
<clipPath id="c2_76"><path d="M362.5,1031.2V943.8H487.2v87.4Z"/></clipPath>
<clipPath id="c3_76"><path d="M140.8,479.5v-18H171v18Z"/></clipPath>
<style type="text/css"><![CDATA[
.g0_76{
fill: #B6D774;
}
.g1_76{
fill: none;
stroke: #8ED8F8;
stroke-width: 0.699;
stroke-miterlimit: 2;
}
.g2_76{
fill: none;
stroke: #ED1D24;
stroke-width: 0.699;
stroke-miterlimit: 2;
}
.g3_76{
fill: none;
stroke: #000;
stroke-width: 0.699;
stroke-miterlimit: 2;
}
.g4_76{
fill: none;
stroke: #000;
stroke-width: 0.699;
stroke-miterlimit: 2;
stroke-dasharray: 4,3;
}
.g5_76{
fill: #000;
}
.g6_76{
fill: none;
stroke: #000;
stroke-width: 0.152;
stroke-miterlimit: 2;
}
.g7_76{
fill: none;
stroke: #000;
stroke-width: 1.41;
stroke-miterlimit: 2;
}
.g8_76{
fill: #FFF;
}
.g9_76{
fill: none;
stroke: #000;
stroke-width: 0.644;
stroke-miterlimit: 2;
}
.ga_76{
fill: none;
stroke: #000;
stroke-width: 0.644;
stroke-miterlimit: 2;
stroke-dasharray: 4,2;
}
.gb_76{
fill: #FCD3C1;
}
.gc_76{
fill: none;
stroke: #000;
stroke-width: 0.615;
stroke-miterlimit: 2;
}
.gd_76{
fill: none;
stroke: #000;
stroke-width: 0.615;
stroke-miterlimit: 2;
stroke-dasharray: 4,2;
}
.ge_76{
fill: none;
stroke: #000;
stroke-width: 0.617;
stroke-miterlimit: 2;
}
.gf_76{
fill: none;
stroke: #000;
stroke-width: 0.617;
stroke-miterlimit: 2;
stroke-dasharray: 4,2;
}
.gg_76{
fill: none;
stroke: #0EA5DF;
stroke-width: 3.055;
}
.gh_76{
fill: #FFF1E0;
}
.gi_76{
fill: none;
stroke: #000;
stroke-width: 0.855;
stroke-miterlimit: 2;
}
.gj_76{
fill: none;
stroke: #00AEEF;
stroke-width: 0.855;
stroke-miterlimit: 2;
}
.gk_76{
fill: none;
stroke: #00AEEF;
stroke-width: 0.855;
stroke-miterlimit: 2;
stroke-dasharray: 5,3;
}
.gl_76{
fill: none;
stroke: #000;
stroke-width: 0.611;
stroke-miterlimit: 2;
}
.gm_76{
fill: none;
stroke: #000;
stroke-width: 0.763;
}
.gn_76{
fill: #0C4B7F;
}
.go_76{
fill: #0EA5DF;
}
.gp_76{
fill: none;
stroke: #000;
stroke-width: 0.763;
stroke-miterlimit: 2;
}
.gq_76{
fill: none;
stroke: #000;
stroke-width: 0.763;
stroke-miterlimit: 2;
stroke-dasharray: 4,3;
}
]]></style>
</defs>
<path d="M0,1131H73.8v-51.5H0V1131Z" class="g0_76"/>
<path d="M213.5,288.9H232v18.5H213.5V288.9Zm0,18.5H232v18.5H213.5V307.4Zm0,18.5H232v18.4H213.5V325.9Zm0,18.4H232v18.5H213.5V344.3Zm0,18.5H232v18.5H213.5V362.8Zm0,18.5H232v18.5H213.5V381.3Zm0,18.5H232v18.5H213.5V399.8Zm0,18.5H232v18.5H213.5V418.3ZM232,288.9h18.5v18.5H232V288.9Zm0,18.5h18.5v18.5H232V307.4Zm0,18.5h18.5v18.4H232V325.9Zm0,18.4h18.5v18.5H232V344.3Zm0,18.5h18.5v18.5H232V362.8Zm0,18.5h18.5v18.5H232V381.3Zm0,18.5h18.5v18.5H232V399.8Zm0,18.5h18.5v18.5H232V418.3ZM250.5,288.9H269v18.5H250.5V288.9Zm0,18.5H269v18.5H250.5V307.4Zm0,18.5H269v18.4H250.5V325.9Zm0,18.4H269v18.5H250.5V344.3Zm0,18.5H269v18.5H250.5V362.8Zm0,18.5H269v18.5H250.5V381.3Zm0,18.5H269v18.5H250.5V399.8Zm0,18.5H269v18.5H250.5V418.3ZM269,288.9h18.5v18.5H269V288.9Zm0,18.5h18.5v18.5H269V307.4Zm0,18.5h18.5v18.4H269V325.9Zm0,18.4h18.5v18.5H269V344.3Zm0,18.5h18.5v18.5H269V362.8Zm0,18.5h18.5v18.5H269V381.3Zm0,18.5h18.5v18.5H269V399.8Zm0,18.5h18.5v18.5H269V418.3ZM287.5,288.9H306v18.5H287.5V288.9Zm0,18.5H306v18.5H287.5V307.4Zm0,18.5H306v18.4H287.5V325.9Zm0,18.4H306v18.5H287.5V344.3Zm0,18.5H306v18.5H287.5V362.8Zm0,18.5H306v18.5H287.5V381.3Zm0,18.5H306v18.5H287.5V399.8Zm0,18.5H306v18.5H287.5V418.3ZM306,288.9h18.5v18.5H306V288.9Zm0,18.5h18.5v18.5H306V307.4Zm0,18.5h18.5v18.4H306V325.9Zm0,18.4h18.5v18.5H306V344.3Zm0,18.5h18.5v18.5H306V362.8Zm0,18.5h18.5v18.5H306V381.3Zm0,18.5h18.5v18.5H306V399.8Zm0,18.5h18.5v18.5H306V418.3ZM324.5,288.9H343v18.5H324.5V288.9Zm0,18.5H343v18.5H324.5V307.4Zm0,18.5H343v18.4H324.5V325.9Zm0,18.4H343v18.5H324.5V344.3Zm0,18.5H343v18.5H324.5V362.8Zm0,18.5H343v18.5H324.5V381.3Zm0,18.5H343v18.5H324.5V399.8Zm0,18.5H343v18.5H324.5V418.3ZM343,288.9h18.5v18.5H343V288.9Zm0,18.5h18.5v18.5H343V307.4Zm0,18.5h18.5v18.4H343V325.9Zm0,18.4h18.5v18.5H343V344.3Zm0,18.5h18.5v18.5H343V362.8Zm0,18.5h18.5v18.5H343V381.3Zm0,18.5h18.5v18.5H343V399.8Zm0,18.5h18.5v18.5H343V418.3ZM361.5,288.9H380v18.5H361.5V288.9Zm0,18.5H380v18.5H361.5V307.4Zm0,18.5H380v18.4H361.5V325.9Zm0,18.4H380v18.5H361.5V344.3Zm0,18.5H380v18.5H361.5V362.8Zm0,18.5H380v18.5H361.5V381.3Zm0,18.5H380v18.5H361.5V399.8Zm0,18.5H380v18.5H361.5V418.3ZM380,288.9h18.5v18.5H380V288.9Zm0,18.5h18.5v18.5H380V307.4Zm0,18.5h18.5v18.4H380V325.9Zm0,18.4h18.5v18.5H380V344.3Zm0,18.5h18.5v18.5H380V362.8Zm0,18.5h18.5v18.5H380V381.3Zm0,18.5h18.5v18.5H380V399.8Zm0,18.5h18.5v18.5H380V418.3ZM398.5,288.9H417v18.5H398.5V288.9Zm0,18.5H417v18.5H398.5V307.4Zm0,18.5H417v18.4H398.5V325.9Zm0,18.4H417v18.5H398.5V344.3Zm0,18.5H417v18.5H398.5V362.8Zm0,18.5H417v18.5H398.5V381.3Zm0,18.5H417v18.5H398.5V399.8Zm0,18.5H417v18.5H398.5V418.3Z" class="g1_76"/>
<path d="M232.3,381.6H398.7" class="g2_76"/>
<path d="M232.3,381.3l55,-74l111.1,74l-74,37l-92.1,-37Z" class="g3_76"/>
<path d="M287.3,307.6V382m37,36.3V381.9" class="g4_76"/>
<path fill-rule="evenodd" d="M226.5,377.8l-.8,9.2c0,.5,-.1,.8,-.1,.9c0,.2,.1,.4,.2,.5c.1,.2,.2,.3,.4,.3c.2,.1,.5,.2,.9,.2l-.1,.3h-4.4l.1,-.3h.2c.3,0,.6,-.1,.9,-.3c.1,-.1,.2,-.2,.3,-.5c.1,-.2,.1,-.6,.2,-1.2l.1,-1.4h-3.2l-1.1,1.5c-.2,.4,-.4,.6,-.5,.8c0,.1,-.1,.3,-.1,.4c0,.2,.1,.3,.2,.5c.2,.1,.4,.2,.8,.2l-.1,.3h-3.3l.1,-.3c.4,-.1,.7,-.2,1,-.4c.3,-.3,.8,-.8,1.4,-1.7l6.7,-9Zm-1.6,2.7l-3.2,4.4h2.8Z" class="g5_76"/>
<path d="M226.5,377.8l-.8,9.2c0,.5,-.1,.8,-.1,.9c0,.2,.1,.4,.2,.5c.1,.2,.2,.3,.4,.3c.2,.1,.5,.2,.9,.2l-.1,.3h-4.4l.1,-.3h.2c.3,0,.6,-.1,.9,-.3c.1,-.1,.2,-.2,.3,-.5c.1,-.2,.1,-.6,.2,-1.2l.1,-1.4h-3.2l-1.1,1.5c-.2,.4,-.4,.6,-.5,.8c0,.1,-.1,.3,-.1,.4c0,.2,.1,.3,.2,.5c.2,.1,.4,.2,.8,.2l-.1,.3h-3.3l.1,-.3c.4,-.1,.7,-.2,1,-.4c.3,-.3,.8,-.8,1.4,-1.7l6.7,-9h.2Zm-1.6,2.7l-3.2,4.4h2.8l.4,-4.4Z" class="g6_76"/>
<path fill-rule="evenodd" d="M412.8,376.8l-.8,3.6h-.3v-.9c-.1,-.3,-.1,-.6,-.2,-.9c-.1,-.2,-.3,-.4,-.5,-.6c-.2,-.2,-.4,-.4,-.7,-.5c-.3,-.1,-.6,-.1,-1,-.1c-1,0,-1.8,.2,-2.6,.8c-.9,.6,-1.6,1.6,-2.2,2.9c-.4,1,-.6,2,-.6,3.1c0,1.1,.3,1.9,.9,2.6c.7,.6,1.5,.9,2.5,.9c.7,0,1.4,-.1,2,-.5c.6,-.3,1.1,-.8,1.7,-1.6h.3c-.6,1,-1.2,1.7,-2,2.2c-.7,.4,-1.6,.6,-2.6,.6c-.9,0,-1.7,-.2,-2.4,-.5c-.7,-.4,-1.2,-.9,-1.6,-1.6c-.4,-.7,-.5,-1.5,-.5,-2.3c0,-1.2,.3,-2.4,.9,-3.5c.7,-1.1,1.6,-2.1,2.7,-2.7c1.1,-.7,2.3,-1,3.4,-1c.6,0,1.2,.1,1.9,.4c.2,.1,.5,.2,.6,.2c.1,0,.2,-.1,.3,-.1c.1,-.1,.3,-.2,.5,-.5Z" class="g5_76"/>
<path d="M412.8,376.8l-.8,3.6h-.3v-.9c-.1,-.3,-.1,-.6,-.2,-.9c-.1,-.2,-.3,-.4,-.5,-.6c-.2,-.2,-.4,-.4,-.7,-.5c-.3,-.1,-.6,-.1,-1,-.1c-1,0,-1.8,.2,-2.6,.8c-.9,.6,-1.6,1.6,-2.2,2.9c-.4,1,-.6,2,-.6,3.1c0,1.1,.3,1.9,.9,2.6c.7,.6,1.5,.9,2.5,.9c.7,0,1.4,-.1,2,-.5c.6,-.3,1.1,-.8,1.7,-1.6h.3c-.6,1,-1.2,1.7,-2,2.2c-.7,.4,-1.6,.6,-2.6,.6c-.9,0,-1.7,-.2,-2.4,-.5c-.7,-.4,-1.2,-.9,-1.6,-1.6c-.4,-.7,-.5,-1.5,-.5,-2.3c0,-1.2,.3,-2.4,.9,-3.5c.7,-1.1,1.6,-2.1,2.7,-2.7c1.1,-.7,2.3,-1,3.4,-1c.6,0,1.2,.1,1.9,.4c.2,.1,.5,.2,.6,.2c.1,0,.2,-.1,.3,-.1c.1,-.1,.3,-.2,.5,-.5h.3Z" class="g6_76"/>
<path fill-rule="evenodd" d="M320.7,422.9l.1,-.3h3.9c.7,0,1.3,.1,1.8,.3c.5,.2,.9,.5,1.2,.9c.3,.3,.4,.7,.4,1.2c0,.6,-.3,1.2,-.7,1.7c-.5,.5,-1.2,.9,-2.3,1.1c.7,.3,1.2,.6,1.5,1c.3,.4,.5,.9,.5,1.4c0,.6,-.2,1.1,-.4,1.6c-.3,.5,-.7,.9,-1.1,1.2c-.5,.2,-1,.4,-1.6,.6c-.5,.1,-1.2,.1,-2.1,.1h-4.1l.1,-.3c.4,0,.7,0,.9,-.1c.2,-.1,.3,-.2,.4,-.4c.2,-.2,.3,-.7,.5,-1.4l2,-6.7c.2,-.6,.3,-1,.3,-1.2c0,-.2,-.1,-.4,-.2,-.5c-.2,-.1,-.5,-.2,-.9,-.2c-.1,0,-.2,0,-.2,0m1.6,4.6c.4,0,.6,0,.8,0c1.1,0,2,-.2,2.5,-.7c.6,-.5,.9,-1.1,.9,-1.9c0,-.5,-.2,-1,-.6,-1.3c-.3,-.3,-.8,-.5,-1.6,-.5c-.2,0,-.4,.1,-.7,.1Zm-1.6,5.5c.6,.1,1.1,.1,1.4,.1c.8,0,1.6,-.3,2.3,-.8c.6,-.5,.9,-1.2,.9,-2.1c0,-.6,-.2,-1.2,-.6,-1.5c-.4,-.4,-1,-.6,-1.9,-.6c-.2,0,-.4,0,-.7,0Z" class="g5_76"/>
<path d="M320.7,422.9l.1,-.3h3.9c.7,0,1.3,.1,1.8,.3c.5,.2,.9,.5,1.2,.9c.3,.3,.4,.7,.4,1.2c0,.6,-.3,1.2,-.7,1.7c-.5,.5,-1.2,.9,-2.3,1.1c.7,.3,1.2,.6,1.5,1c.3,.4,.5,.9,.5,1.4c0,.6,-.2,1.1,-.4,1.6c-.3,.5,-.7,.9,-1.1,1.2c-.5,.2,-1,.4,-1.6,.6c-.5,.1,-1.2,.1,-2.1,.1h-4.1l.1,-.3c.4,0,.7,0,.9,-.1c.2,-.1,.3,-.2,.4,-.4c.2,-.2,.3,-.7,.5,-1.4l2,-6.7c.2,-.6,.3,-1,.3,-1.2c0,-.2,-.1,-.4,-.2,-.5c-.2,-.1,-.5,-.2,-.9,-.2c-.1,0,-.2,0,-.2,0Zm1.6,4.6c.4,0,.6,0,.8,0c1.1,0,2,-.2,2.5,-.7c.6,-.5,.9,-1.1,.9,-1.9c0,-.5,-.2,-1,-.6,-1.3c-.3,-.3,-.8,-.5,-1.6,-.5c-.2,0,-.4,.1,-.7,.1l-1.3,4.3Zm-1.6,5.5c.6,.1,1.1,.1,1.4,.1c.8,0,1.6,-.3,2.3,-.8c.6,-.5,.9,-1.2,.9,-2.1c0,-.6,-.2,-1.2,-.6,-1.5c-.4,-.4,-1,-.6,-1.9,-.6c-.2,0,-.4,0,-.7,0l-1.4,4.9Z" class="g6_76"/>
<path fill-rule="evenodd" d="M285.9,293.5l.1,-.3h3.6c1.5,0,2.6,.2,3.3,.5c.7,.4,1.3,.9,1.7,1.7c.5,.7,.7,1.5,.7,2.3c0,.8,-.1,1.5,-.4,2.2c-.2,.6,-.5,1.2,-.8,1.6c-.3,.4,-.8,.9,-1.5,1.4c-.6,.5,-1.3,.8,-2.1,1.1c-.7,.2,-1.7,.3,-2.8,.3H283l.1,-.3c.4,0,.7,0,.8,-.1c.3,-.1,.4,-.2,.5,-.4c.2,-.2,.4,-.7,.6,-1.4l1.9,-6.7c.2,-.5,.3,-.9,.3,-1.2c0,-.2,-.1,-.4,-.3,-.5c-.1,-.1,-.4,-.2,-.8,-.2Zm2.9,.3l-2.4,8.3c-.2,.7,-.2,1.1,-.2,1.2c0,.1,0,.2,0,.3c.1,0,.2,.1,.3,.1c.1,.1,.3,.1,.7,.1c.8,0,1.6,-.1,2.4,-.3c.7,-.2,1.3,-.4,1.8,-.8c.6,-.5,1.2,-1.2,1.6,-2.1c.4,-.9,.6,-1.9,.6,-3c0,-1.3,-.3,-2.2,-1,-2.9c-.6,-.6,-1.5,-.9,-2.6,-.9c-.3,0,-.7,0,-1.2,0Z" class="g5_76"/>
<path d="M285.9,293.5l.1,-.3h3.6c1.5,0,2.6,.2,3.3,.5c.7,.4,1.3,.9,1.7,1.7c.5,.7,.7,1.5,.7,2.3c0,.8,-.1,1.5,-.4,2.2c-.2,.6,-.5,1.2,-.8,1.6c-.3,.4,-.8,.9,-1.5,1.4c-.6,.5,-1.3,.8,-2.1,1.1c-.7,.2,-1.7,.3,-2.8,.3H283l.1,-.3c.4,0,.7,0,.8,-.1c.3,-.1,.4,-.2,.5,-.4c.2,-.2,.4,-.7,.6,-1.4l1.9,-6.7c.2,-.5,.3,-.9,.3,-1.2c0,-.2,-.1,-.4,-.3,-.5c-.1,-.1,-.4,-.2,-.8,-.2h-.2Zm2.9,.3l-2.4,8.3c-.2,.7,-.2,1.1,-.2,1.2c0,.1,0,.2,0,.3c.1,0,.2,.1,.3,.1c.1,.1,.3,.1,.7,.1c.8,0,1.6,-.1,2.4,-.3c.7,-.2,1.3,-.4,1.8,-.8c.6,-.5,1.2,-1.2,1.6,-2.1c.4,-.9,.6,-1.9,.6,-3c0,-1.3,-.3,-2.2,-1,-2.9c-.6,-.6,-1.5,-.9,-2.6,-.9c-.3,0,-.7,0,-1.2,0Z" class="g6_76"/>
<path fill-rule="evenodd" d="M321.3,365.6l.1,-.3h4c.7,0,1.3,.1,1.8,.3c.5,.2,.9,.5,1.2,.9c.2,.4,.3,.8,.3,1.2c0,.6,-.2,1.2,-.7,1.7c-.4,.5,-1.2,.9,-2.2,1.2c.7,.2,1.2,.5,1.5,1c.3,.4,.4,.8,.4,1.3c0,.6,-.1,1.1,-.4,1.6c-.3,.5,-.6,.9,-1.1,1.2c-.4,.3,-1,.5,-1.6,.6c-.4,.1,-1.1,.1,-2.1,.1h-4.1l.2,-.3c.4,0,.7,0,.8,-.1c.2,-.1,.4,-.2,.5,-.4c.1,-.2,.3,-.6,.5,-1.4l2,-6.7c.2,-.6,.3,-1,.3,-1.2c0,-.2,-.1,-.4,-.3,-.5c-.1,-.1,-.4,-.2,-.8,-.2c-.1,0,-.2,0,-.3,0m1.7,4.6c.3,.1,.6,.1,.7,.1c1.2,0,2,-.3,2.6,-.8c.5,-.5,.8,-1.1,.8,-1.8c0,-.6,-.2,-1,-.5,-1.4c-.3,-.3,-.9,-.4,-1.6,-.4c-.2,0,-.5,0,-.8,.1Zm-1.6,5.5c.6,.1,1,.1,1.3,.1c.9,0,1.7,-.2,2.3,-.7c.7,-.6,1,-1.3,1,-2.1c0,-.7,-.2,-1.2,-.6,-1.6c-.4,-.4,-1.1,-.6,-2,-.6c-.2,0,-.4,0,-.6,.1Z" class="g5_76"/>
<path d="M321.3,365.6l.1,-.3h4c.7,0,1.3,.1,1.8,.3c.5,.2,.9,.5,1.2,.9c.2,.4,.3,.8,.3,1.2c0,.6,-.2,1.2,-.7,1.7c-.4,.5,-1.2,.9,-2.2,1.2c.7,.2,1.2,.5,1.5,1c.3,.4,.4,.8,.4,1.3c0,.6,-.1,1.1,-.4,1.6c-.3,.5,-.6,.9,-1.1,1.2c-.4,.3,-1,.5,-1.6,.6c-.4,.1,-1.1,.1,-2.1,.1h-4.1l.2,-.3c.4,0,.7,0,.8,-.1c.2,-.1,.4,-.2,.5,-.4c.1,-.2,.3,-.6,.5,-1.4l2,-6.7c.2,-.6,.3,-1,.3,-1.2c0,-.2,-.1,-.4,-.3,-.5c-.1,-.1,-.4,-.2,-.8,-.2c-.1,0,-.2,0,-.3,0Zm1.7,4.6c.3,.1,.6,.1,.7,.1c1.2,0,2,-.3,2.6,-.8c.5,-.5,.8,-1.1,.8,-1.8c0,-.6,-.2,-1,-.5,-1.4c-.3,-.3,-.9,-.4,-1.6,-.4c-.2,0,-.5,0,-.8,.1l-1.2,4.2Zm-1.6,5.5c.6,.1,1,.1,1.3,.1c.9,0,1.7,-.2,2.3,-.7c.7,-.6,1,-1.3,1,-2.1c0,-.7,-.2,-1.2,-.6,-1.6c-.4,-.4,-1.1,-.6,-2,-.6c-.2,0,-.4,0,-.6,.1l-1.4,4.8Z" class="g6_76"/>
<path fill-rule="evenodd" d="M329.6,379l.7,-.4V381c0,.1,0,.2,0,.3q.1,0,.1,.1q.1,0,.3,0v.1h-1.1v-.1q.2,0,.3,0q0,-.1,.1,-.1c0,-.1,0,-.2,0,-.3v-1.5c0,-.2,0,-.4,0,-.4c0,-.1,-.1,-.1,-.1,-.1h-.1c0,0,-.1,0,-.2,0Z" class="g5_76"/>
<path d="M329.6,379l.7,-.4V381c0,.1,0,.2,0,.3q.1,0,.1,.1q.1,0,.3,0v.1h-1.1v-.1q.2,0,.3,0q0,-.1,.1,-.1c0,-.1,0,-.2,0,-.3v-1.5c0,-.2,0,-.4,0,-.4c0,-.1,-.1,-.1,-.1,-.1h-.1c0,0,-.1,0,-.2,0Z" class="g6_76"/>
<path fill-rule="evenodd" d="M283.6,385.3l.1,-.3h3.6c1.5,0,2.6,.1,3.3,.5c.8,.3,1.3,.9,1.8,1.6c.4,.8,.6,1.6,.6,2.4c0,.7,-.1,1.4,-.4,2.1c-.2,.7,-.5,1.3,-.8,1.7c-.3,.4,-.8,.8,-1.5,1.3c-.6,.5,-1.3,.9,-2.1,1.1c-.7,.3,-1.7,.4,-2.8,.4h-4.7l.1,-.3c.4,0,.7,-.1,.9,-.1c.2,-.1,.3,-.2,.4,-.4c.2,-.2,.4,-.7,.6,-1.4l1.9,-6.7c.2,-.5,.3,-1,.3,-1.3c0,-.2,-.1,-.3,-.2,-.4c-.2,-.2,-.5,-.2,-.9,-.2Zm3,.3l-2.5,8.3c-.1,.6,-.2,1,-.2,1.2q0,.1,.1,.2c0,.1,.1,.2,.2,.2c.1,0,.4,.1,.7,.1c.8,0,1.6,-.1,2.4,-.3c.7,-.2,1.3,-.4,1.8,-.8c.6,-.5,1.2,-1.2,1.6,-2.1c.4,-.9,.6,-1.9,.6,-3c0,-1.3,-.3,-2.3,-.9,-2.9c-.7,-.6,-1.6,-.9,-2.7,-.9c-.3,0,-.7,0,-1.1,0Z" class="g5_76"/>
<path d="M283.6,385.3l.1,-.3h3.6c1.5,0,2.6,.1,3.3,.5c.8,.3,1.3,.9,1.8,1.6c.4,.8,.6,1.6,.6,2.4c0,.7,-.1,1.4,-.4,2.1c-.2,.7,-.5,1.3,-.8,1.7c-.3,.4,-.8,.8,-1.5,1.3c-.6,.5,-1.3,.9,-2.1,1.1c-.7,.3,-1.7,.4,-2.8,.4h-4.7l.1,-.3c.4,0,.7,-.1,.9,-.1c.2,-.1,.3,-.2,.4,-.4c.2,-.2,.4,-.7,.6,-1.4l1.9,-6.7c.2,-.5,.3,-1,.3,-1.3c0,-.2,-.1,-.3,-.2,-.4c-.2,-.2,-.5,-.2,-.9,-.2h-.2Zm3,.3l-2.5,8.3c-.1,.6,-.2,1,-.2,1.2q0,.1,.1,.2c0,.1,.1,.2,.2,.2c.1,0,.4,.1,.7,.1c.8,0,1.6,-.1,2.4,-.3c.7,-.2,1.3,-.4,1.8,-.8c.6,-.5,1.2,-1.2,1.6,-2.1c.4,-.9,.6,-1.9,.6,-3c0,-1.3,-.3,-2.3,-.9,-2.9c-.7,-.6,-1.6,-.9,-2.7,-.9c-.3,0,-.7,0,-1.1,0Z" class="g6_76"/>
<path fill-rule="evenodd" d="M293.8,398.6l.7,-.3v2.3c0,.2,0,.3,.1,.3q0,.1,0,.1c.1,0,.2,0,.3,0v.1h-1.1V401c.2,0,.3,0,.3,0c0,0,.1,0,.1,-.1c0,0,0,-.1,0,-.3v-1.5c0,-.2,0,-.3,0,-.4l-.1,-.1H294c0,0,-.1,0,-.2,.1Z" class="g5_76"/>
<path d="M293.8,398.6l.7,-.3v2.3c0,.2,0,.3,.1,.3q0,.1,0,.1c.1,0,.2,0,.3,0v.1h-1.1V401c.2,0,.3,0,.3,0c0,0,.1,0,.1,-.1c0,0,0,-.1,0,-.3v-1.5c0,-.2,0,-.3,0,-.4l-.1,-.1H294c0,0,-.1,0,-.2,.1v-.1Z" class="g6_76"/>
<path d="M380,307.6h18.7" class="g3_76"/>
<path d="M380,303.9v7.4m18.7,-7.4v7.4" class="g7_76"/>
<path fill-rule="evenodd" d="M366.3,292l2.7,-1.3h.3v9.4c0,.6,0,1,0,1.1c.1,.2,.2,.3,.4,.4c.1,.1,.5,.1,1,.1v.3h-4.2v-.3c.5,0,.8,0,1,-.1c.1,-.1,.3,-.2,.3,-.3c.1,-.2,.1,-.6,.1,-1.2v-6c0,-.8,0,-1.4,-.1,-1.6c0,-.2,-.1,-.3,-.2,-.4c-.1,0,-.2,-.1,-.4,-.1c-.2,0,-.4,.1,-.8,.3Z" class="g5_76"/>
<path d="M366.3,292l2.7,-1.3h.3v9.4c0,.6,0,1,0,1.1c.1,.2,.2,.3,.4,.4c.1,.1,.5,.1,1,.1v.3h-4.2v-.3c.5,0,.8,0,1,-.1c.1,-.1,.3,-.2,.3,-.3c.1,-.2,.1,-.6,.1,-1.2v-6c0,-.8,0,-1.4,-.1,-1.6c0,-.2,-.1,-.3,-.2,-.4c-.1,0,-.2,-.1,-.4,-.1c-.2,0,-.4,.1,-.8,.3l-.1,-.3Z" class="g6_76"/>
<path fill-rule="evenodd" d="M382.3,300.1l2.3,-5.6h2.6v.3c-.4,0,-.7,.1,-.8,.1c-.1,.1,-.2,.2,-.3,.3c0,.1,-.1,.5,-.1,1.1v4c0,.5,0,.8,.1,1c0,.1,.2,.2,.3,.3c.2,.1,.4,.1,.8,.1v.3h-3.7v-.3c.5,0,.8,-.1,.9,-.2c.2,-.2,.3,-.6,.3,-1.2v-4.5L382,302h-.3L379,295.8v4.5c0,.5,0,.8,.1,1c0,.1,.2,.2,.3,.3c.2,.1,.4,.1,.7,.1v.3h-2.8v-.3c.5,0,.8,-.1,.9,-.2c.2,-.2,.2,-.6,.2,-1.2v-4c0,-.6,0,-.9,-.1,-1c0,-.2,-.1,-.3,-.2,-.3c-.2,-.1,-.4,-.2,-.8,-.2v-.3h2.6Z" class="g5_76"/>
<path d="M382.3,300.1l2.3,-5.6h2.6v.3c-.4,0,-.7,.1,-.8,.1c-.1,.1,-.2,.2,-.3,.3c0,.1,-.1,.5,-.1,1.1v4c0,.5,0,.8,.1,1c0,.1,.2,.2,.3,.3c.2,.1,.4,.1,.8,.1v.3h-3.7v-.3c.5,0,.8,-.1,.9,-.2c.2,-.2,.3,-.6,.3,-1.2v-4.5L382,302h-.3L379,295.8v4.5c0,.5,0,.8,.1,1c0,.1,.2,.2,.3,.3c.2,.1,.4,.1,.7,.1v.3h-2.8v-.3c.5,0,.8,-.1,.9,-.2c.2,-.2,.2,-.6,.2,-1.2v-4c0,-.6,0,-.9,-.1,-1c0,-.2,-.1,-.3,-.2,-.3c-.2,-.1,-.4,-.2,-.8,-.2v-.3h2.6l2.4,5.6Z" class="g6_76"/>
<path fill-rule="evenodd" d="M389.6,300.4c.3,0,.5,.1,.7,.3c.1,.2,.2,.4,.2,.7c0,.2,-.1,.4,-.2,.6c-.2,.2,-.4,.3,-.7,.3c-.2,0,-.4,-.1,-.6,-.3c-.2,-.2,-.3,-.4,-.3,-.6c0,-.3,.1,-.5,.3,-.7c.2,-.2,.4,-.3,.6,-.3Z" class="g5_76"/>
<path d="M389.6,300.4c.3,0,.5,.1,.7,.3c.1,.2,.2,.4,.2,.7c0,.2,-.1,.4,-.2,.6c-.2,.2,-.4,.3,-.7,.3c-.2,0,-.4,-.1,-.6,-.3c-.2,-.2,-.3,-.4,-.3,-.6c0,-.3,.1,-.5,.3,-.7c.2,-.2,.4,-.3,.6,-.3Z" class="g6_76"/>
<path fill-rule="evenodd" d="M397.7,297.4c0,1.1,.3,1.9,.8,2.6c.6,.6,1.2,.9,1.9,.9c.5,0,1,-.1,1.3,-.4c.4,-.3,.7,-.7,.9,-1.4l.3,.2c-.1,.7,-.5,1.4,-1,2c-.6,.7,-1.2,1,-2.1,1c-.9,0,-1.7,-.4,-2.3,-1.1c-.6,-.7,-1,-1.6,-1,-2.8c0,-1.3,.4,-2.3,1,-3c.7,-.7,1.5,-1.1,2.5,-1.1c.9,0,1.5,.3,2.1,.8c.5,.6,.8,1.3,.8,2.3Zm0,-.5h3.5c0,-.5,-.1,-.8,-.2,-1c-.1,-.3,-.3,-.6,-.6,-.8c-.3,-.1,-.6,-.2,-.8,-.2c-.5,0,-.9,.2,-1.3,.5c-.3,.4,-.5,.8,-.6,1.5Z" class="g5_76"/>
<path d="M397.7,297.4c0,1.1,.3,1.9,.8,2.6c.6,.6,1.2,.9,1.9,.9c.5,0,1,-.1,1.3,-.4c.4,-.3,.7,-.7,.9,-1.4l.3,.2c-.1,.7,-.5,1.4,-1,2c-.6,.7,-1.2,1,-2.1,1c-.9,0,-1.7,-.4,-2.3,-1.1c-.6,-.7,-1,-1.6,-1,-2.8c0,-1.3,.4,-2.3,1,-3c.7,-.7,1.5,-1.1,2.5,-1.1c.9,0,1.5,.3,2.1,.8c.5,.6,.8,1.3,.8,2.3h-5.2Zm0,-.5h3.5c0,-.5,-.1,-.8,-.2,-1c-.1,-.3,-.3,-.6,-.6,-.8c-.3,-.1,-.6,-.2,-.8,-.2c-.5,0,-.9,.2,-1.3,.5c-.3,.4,-.5,.8,-.6,1.5Z" class="g6_76"/>
<path fill-rule="evenodd" d="M404.7,294.5h6.6v.3c-.3,0,-.6,.1,-.7,.1c-.1,.1,-.2,.2,-.3,.3c-.1,.1,-.1,.5,-.1,1.1V300c0,.8,.1,1.3,.2,1.4c.1,.2,.4,.3,.9,.3v2.4H411c0,-.4,-.1,-.8,-.3,-1.2c-.2,-.3,-.5,-.5,-.9,-.7c-.3,-.1,-.8,-.2,-1.5,-.2h-2c-.6,0,-1,.1,-1.4,.2c-.3,.1,-.6,.3,-.8,.7c-.2,.3,-.4,.7,-.4,1.2h-.3v-2.4c.4,0,.8,-.2,1.2,-.5c.4,-.3,.7,-1,1,-2c.2,-1,.4,-2,.4,-2.9c0,-1,-.5,-1.4,-1.3,-1.5Zm1.8,.6v.4c0,2.7,-.5,4.7,-1.4,6h2.7c.5,0,.8,0,.9,-.1c.1,-.1,.1,-.4,.1,-1v-5.3Z" class="g5_76"/>
<path d="M404.7,294.5h6.6v.3c-.3,0,-.6,.1,-.7,.1c-.1,.1,-.2,.2,-.3,.3c-.1,.1,-.1,.5,-.1,1.1V300c0,.8,.1,1.3,.2,1.4c.1,.2,.4,.3,.9,.3v2.4H411c0,-.4,-.1,-.8,-.3,-1.2c-.2,-.3,-.5,-.5,-.9,-.7c-.3,-.1,-.8,-.2,-1.5,-.2h-2c-.6,0,-1,.1,-1.4,.2c-.3,.1,-.6,.3,-.8,.7c-.2,.3,-.4,.7,-.4,1.2h-.3v-2.4c.4,0,.8,-.2,1.2,-.5c.4,-.3,.7,-1,1,-2c.2,-1,.4,-2,.4,-2.9c0,-1,-.5,-1.4,-1.3,-1.5v-.3Zm1.8,.6v.4c0,2.7,-.5,4.7,-1.4,6h2.7c.5,0,.8,0,.9,-.1c.1,-.1,.1,-.4,.1,-1v-5.3h-2.3Z" class="g6_76"/>
<path fill-rule="evenodd" d="M413.8,300.4c.2,0,.5,.1,.6,.3c.2,.2,.3,.4,.3,.7c0,.2,-.1,.4,-.3,.6c-.1,.2,-.4,.3,-.6,.3c-.3,0,-.5,-.1,-.7,-.3c-.1,-.2,-.2,-.4,-.2,-.6c0,-.3,.1,-.5,.2,-.7c.2,-.2,.4,-.3,.7,-.3Z" class="g5_76"/>
<path d="M413.8,300.4c.2,0,.5,.1,.6,.3c.2,.2,.3,.4,.3,.7c0,.2,-.1,.4,-.3,.6c-.1,.2,-.4,.3,-.6,.3c-.3,0,-.5,-.1,-.7,-.3c-.1,-.2,-.2,-.4,-.2,-.6c0,-.3,.1,-.5,.2,-.7c.2,-.2,.4,-.3,.7,-.3Z" class="g6_76"/>
<path fill-rule="evenodd" d="M292.9,401.5h4.6v-6.7h-4.6v6.7Z" class="g8_76"/>
<path fill-rule="evenodd" d="M328.1,383.3h4.6v-6.5h-4.6v6.5Z" class="g8_76"/>
<path d="M391.2,822c-5.5,4.3,-4.7,7,-2.8,11m10.1,6.5c5.4,-4.2,4.7,-7,2.8,-11m10.4,46.1L437,814.2m.2,.1L309.5,863.1M412,874.3L309.6,863.1m68.5,-76.8l59.1,28.4m.1,-.3L309.4,862.8m69.1,-76.5l-69.1,76.4" class="g9_76"/>
<path fill-rule="evenodd" d="M399.8,833.1c.3,-.4,.2,-.9,-.2,-1.2c-.4,-.3,-.9,-.2,-1.2,.1c-.3,.4,-.3,1,.1,1.3c.4,.3,1,.2,1.3,-.2Z" class="g5_76"/>
<path d="M399.8,833.1c.3,-.4,.2,-.9,-.2,-1.2c-.4,-.3,-.9,-.2,-1.2,.1c-.3,.4,-.3,1,.1,1.3c.4,.3,1,.2,1.3,-.2Z" class="g6_76"/>
<path fill-rule="evenodd" d="M389.5,827.3c-.3,.4,-.2,.9,.1,1.2c.4,.3,1,.3,1.3,-.1c.3,-.4,.2,-1,-.2,-1.3c-.4,-.3,-.9,-.2,-1.2,.2Z" class="g5_76"/>
<path d="M389.5,827.3c-.3,.4,-.2,.9,.1,1.2c.4,.3,1,.3,1.3,-.1c.3,-.4,.2,-1,-.2,-1.3c-.4,-.3,-.9,-.2,-1.2,.2Z" class="g6_76"/>
<path d="M378,786.4l33.1,87.1" class="ga_76"/>
<path clip-path="url(#c0_76)" d="M310.1,862.8c-3.1,.2,-8.8,1,-9.7,3.8c-2.4,7.5,-13.1,-2.2,-12.4,5.8c.9,9.5,-29.8,5.9,-29.1,13.7m52.3,-23.3c-3.2,.3,-15.1,-2.8,-16,0c-2.4,7.5,-16.4,-2.5,-15.6,5.6c.9,9.5,-27.6,4.8,-26.8,12.6" class="g9_76"/>
<path fill-rule="evenodd" d="M391.4,808.1c.3,-.6,.6,-1,1,-1.3c.3,-.4,.8,-.5,1.4,-.5c.6,0,1.2,.2,1.5,.7c.3,.3,.4,.6,.4,1c0,.6,-.3,1.3,-1.1,1.9c.5,.2,.9,.5,1.2,.9c.2,.4,.4,.9,.4,1.4c0,.7,-.3,1.4,-.7,1.9c-.7,.7,-1.5,1.1,-2.7,1.1c-.6,0,-1,-.1,-1.2,-.3c-.2,-.1,-.3,-.3,-.3,-.4c0,-.1,.1,-.2,.2,-.3c.1,-.1,.2,-.2,.3,-.2c.1,0,.2,0,.3,.1c.1,0,.3,.1,.5,.2c.3,.1,.4,.2,.5,.2c.2,.1,.4,.1,.5,.1c.5,0,.8,-.2,1.2,-.5c.3,-.3,.4,-.7,.4,-1.2c0,-.3,0,-.6,-.2,-.9c-.1,-.3,-.2,-.5,-.3,-.6c-.2,-.1,-.5,-.3,-.8,-.4c-.3,-.2,-.6,-.2,-1,-.2h-.2v-.2c.4,-.1,.7,-.2,1,-.4c.4,-.2,.6,-.4,.8,-.7c.1,-.3,.2,-.6,.2,-.9c0,-.4,-.1,-.8,-.4,-1.1c-.3,-.2,-.6,-.4,-1,-.4c-.7,0,-1.2,.4,-1.7,1.1Z" class="g5_76"/>
<path fill-rule="evenodd" d="M398.9,810.9c0,1.2,.2,2.2,.5,2.9c.2,.6,.6,1,1,1c.3,0,.5,-.1,.7,-.3c.3,-.3,.5,-.6,.6,-1.1c.2,-.7,.3,-1.7,.3,-3c0,-1,-.1,-1.8,-.3,-2.5c-.2,-.4,-.4,-.8,-.6,-1c-.2,-.1,-.4,-.2,-.6,-.2c-.3,0,-.6,.1,-.8,.4c-.3,.3,-.5,.9,-.6,1.6c-.1,.8,-.2,1.5,-.2,2.2m-1.2,-.1c0,-1,.1,-1.8,.4,-2.5c.3,-.7,.7,-1.3,1.2,-1.6c.4,-.3,.8,-.4,1.2,-.4c.6,0,1.2,.3,1.8,1c.6,.8,.9,1.9,.9,3.3c0,1,-.1,1.9,-.4,2.6c-.3,.7,-.7,1.2,-1.1,1.5c-.4,.3,-.9,.5,-1.3,.5c-.8,0,-1.5,-.5,-2,-1.5c-.5,-.8,-.7,-1.8,-.7,-2.9Z" class="g5_76"/>
<path fill-rule="evenodd" d="M412.2,812.8c-.1,.8,-.4,1.4,-.9,1.8c-.4,.4,-.9,.6,-1.5,.6c-.7,0,-1.2,-.3,-1.7,-.8c-.5,-.6,-.7,-1.3,-.7,-2.3c0,-.9,.2,-1.6,.8,-2.2c.5,-.6,1.2,-.8,1.9,-.8c.6,0,1,.1,1.4,.4c.4,.3,.6,.6,.6,.9c0,.2,-.1,.3,-.2,.4c-.1,.1,-.2,.2,-.4,.2c-.3,0,-.5,-.1,-.6,-.3c-.1,0,-.1,-.2,-.1,-.5c-.1,-.2,-.1,-.4,-.3,-.5c-.1,-.2,-.3,-.2,-.6,-.2c-.4,0,-.8,.1,-1,.4c-.4,.5,-.5,1,-.5,1.7c0,.7,.1,1.3,.5,1.8c.3,.5,.8,.8,1.4,.8c.4,0,.7,-.1,1.1,-.4c.2,-.2,.4,-.6,.6,-1.1Z" class="g5_76"/>
<path d="M412.2,812.8c-.1,.8,-.4,1.4,-.9,1.8c-.4,.4,-.9,.6,-1.5,.6c-.7,0,-1.2,-.3,-1.7,-.8c-.5,-.6,-.7,-1.3,-.7,-2.3c0,-.9,.2,-1.6,.8,-2.2c.5,-.6,1.2,-.8,1.9,-.8c.6,0,1,.1,1.4,.4c.4,.3,.6,.6,.6,.9c0,.2,-.1,.3,-.2,.4c-.1,.1,-.2,.2,-.4,.2c-.3,0,-.5,-.1,-.6,-.3c-.1,0,-.1,-.2,-.1,-.5c-.1,-.2,-.1,-.4,-.3,-.5c-.1,-.2,-.3,-.2,-.6,-.2c-.4,0,-.8,.1,-1,.4c-.4,.5,-.5,1,-.5,1.7c0,.7,.1,1.3,.5,1.8c.3,.5,.8,.8,1.4,.8c.4,0,.7,-.1,1.1,-.4c.2,-.2,.4,-.6,.6,-1.1l.2,.1Z" class="g6_76"/>
<path fill-rule="evenodd" d="M362.1,851.4c-.3,.3,-.6,.6,-.7,1c-.2,.3,-.3,.7,-.3,1.1c0,.6,.2,1,.5,1.3c.3,.3,.6,.5,1.1,.5c.5,0,.8,-.1,1.1,-.4c.3,-.2,.4,-.5,.4,-.9c0,-.3,-.1,-.6,-.2,-.8c-.3,-.5,-.9,-1.1,-1.9,-1.8m.7,-.9c.5,-.4,.9,-.8,1,-1.1c.1,-.2,.2,-.5,.2,-.8c0,-.5,-.1,-.8,-.4,-1.1c-.2,-.2,-.6,-.4,-1,-.4c-.4,0,-.8,.2,-1,.4c-.3,.3,-.4,.5,-.4,.9c0,.2,0,.4,.1,.6c.1,.3,.3,.5,.5,.7Zm-.9,.7c-.7,-.6,-1.2,-1,-1.4,-1.3c-.1,-.4,-.2,-.7,-.2,-1.1c0,-.5,.2,-1,.6,-1.4c.4,-.4,1,-.6,1.7,-.6c.7,0,1.2,.2,1.7,.5c.4,.4,.6,.8,.6,1.3c0,.3,-.1,.7,-.3,1c-.3,.3,-.7,.7,-1.5,1.2c.8,.5,1.3,1,1.5,1.3c.3,.4,.5,.9,.5,1.4c0,.6,-.2,1.1,-.7,1.5c-.5,.4,-1.1,.6,-1.8,.6c-.8,0,-1.4,-.2,-1.9,-.7c-.4,-.4,-.5,-.9,-.5,-1.4c0,-.3,.1,-.7,.3,-1.1c.3,-.3,.7,-.8,1.4,-1.2Z" class="g5_76"/>
<path fill-rule="evenodd" d="M367.5,851.4c0,1.2,.2,2.2,.5,2.9c.2,.6,.6,.9,1,.9c.3,0,.5,-.1,.7,-.3c.3,-.2,.5,-.5,.6,-1c.2,-.7,.3,-1.7,.3,-3c0,-1,-.1,-1.8,-.3,-2.5c-.2,-.5,-.4,-.8,-.6,-1c-.2,-.1,-.4,-.2,-.6,-.2c-.3,0,-.6,.1,-.8,.4c-.3,.3,-.5,.9,-.6,1.6c-.1,.8,-.2,1.5,-.2,2.2m-1.2,-.1c0,-1,.1,-1.8,.4,-2.5c.3,-.7,.7,-1.3,1.2,-1.6c.4,-.3,.8,-.4,1.2,-.4c.6,0,1.2,.3,1.7,1c.7,.8,1,1.9,1,3.3c0,1,-.1,1.9,-.4,2.6c-.3,.7,-.7,1.2,-1.1,1.5c-.4,.3,-.9,.4,-1.3,.4c-.8,0,-1.5,-.4,-2,-1.4c-.5,-.8,-.7,-1.8,-.7,-2.9Z" class="g5_76"/>
<path fill-rule="evenodd" d="M380.8,853.3c-.1,.8,-.4,1.3,-.9,1.8c-.5,.4,-1,.6,-1.5,.6c-.7,0,-1.2,-.3,-1.7,-.9c-.5,-.5,-.8,-1.2,-.8,-2.2c0,-.9,.3,-1.6,.9,-2.2c.5,-.6,1.1,-.8,1.9,-.8c.6,0,1,.1,1.4,.4c.4,.3,.6,.6,.6,.9c0,.2,-.1,.3,-.2,.4c-.1,.1,-.3,.2,-.4,.2c-.3,0,-.5,-.1,-.6,-.3c-.1,-.1,-.1,-.2,-.1,-.5c-.1,-.2,-.1,-.4,-.3,-.5c-.1,-.2,-.3,-.2,-.6,-.2c-.4,0,-.8,.1,-1,.4c-.4,.5,-.5,1,-.5,1.7c0,.7,.1,1.3,.5,1.8c.3,.5,.8,.8,1.3,.8c.5,0,.8,-.2,1.2,-.4c.2,-.2,.4,-.6,.6,-1.1Z" class="g5_76"/>
<path fill-rule="evenodd" d="M404.1,839.2c.3,-.6,.6,-1,1,-1.3c.3,-.3,.8,-.5,1.4,-.5c.6,0,1.2,.2,1.5,.7c.3,.3,.5,.7,.5,1c0,.7,-.4,1.3,-1.2,2c.5,.2,.9,.5,1.2,.9c.2,.3,.4,.8,.4,1.3c0,.7,-.3,1.4,-.7,1.9c-.6,.7,-1.5,1.1,-2.7,1.1c-.6,0,-1,-.1,-1.2,-.2c-.2,-.2,-.3,-.3,-.3,-.5c0,-.1,.1,-.2,.2,-.3c.1,-.1,.2,-.2,.3,-.2c.1,0,.2,.1,.3,.1c.1,0,.3,.1,.5,.2c.3,.2,.5,.2,.6,.3c.1,0,.3,0,.4,0c.5,0,.9,-.1,1.2,-.5c.3,-.3,.4,-.7,.4,-1.1c0,-.4,0,-.7,-.2,-1c-.1,-.3,-.2,-.4,-.3,-.6c-.2,-.1,-.5,-.3,-.8,-.4c-.3,-.1,-.6,-.2,-.9,-.2h-.2v-.2c.3,0,.6,-.2,1,-.4c.3,-.2,.5,-.4,.7,-.7c.1,-.3,.2,-.6,.2,-.9c0,-.4,-.1,-.8,-.4,-1c-.3,-.3,-.6,-.4,-1,-.4c-.7,0,-1.2,.3,-1.6,1Z" class="g5_76"/>
<path fill-rule="evenodd" d="M411.6,842.1c0,1.1,.2,2.1,.5,2.8c.2,.7,.6,1,1.1,1c.2,0,.4,-.1,.7,-.3c.2,-.2,.4,-.6,.5,-1c.2,-.8,.3,-1.8,.3,-3.1c0,-1,-.1,-1.8,-.3,-2.4c-.1,-.5,-.3,-.9,-.6,-1.1c-.2,-.1,-.4,-.2,-.6,-.2c-.3,0,-.5,.2,-.8,.4c-.3,.4,-.5,.9,-.6,1.7c-.1,.7,-.2,1.4,-.2,2.2m-1.2,-.2c0,-1,.2,-1.8,.5,-2.5c.2,-.7,.6,-1.2,1.1,-1.6c.4,-.3,.8,-.4,1.2,-.4c.7,0,1.2,.3,1.8,1c.6,.8,.9,2,.9,3.4c0,1,-.1,1.8,-.4,2.5c-.3,.7,-.6,1.2,-1.1,1.5c-.4,.3,-.9,.5,-1.3,.5c-.8,0,-1.5,-.5,-2,-1.5c-.5,-.8,-.7,-1.8,-.7,-2.9Z" class="g5_76"/>
<path fill-rule="evenodd" d="M424.9,843.9c-.1,.8,-.4,1.4,-.9,1.8c-.4,.4,-.9,.6,-1.5,.6c-.6,0,-1.2,-.3,-1.7,-.8c-.5,-.6,-.7,-1.3,-.7,-2.3c0,-.9,.2,-1.6,.8,-2.2c.5,-.5,1.2,-.8,1.9,-.8c.6,0,1.1,.1,1.4,.4c.4,.3,.6,.6,.6,1c0,.1,-.1,.3,-.2,.4c-.1,.1,-.2,.1,-.4,.1c-.3,0,-.5,-.1,-.6,-.2c-.1,-.1,-.1,-.3,-.1,-.5c0,-.3,-.1,-.5,-.3,-.6c-.1,-.1,-.3,-.2,-.6,-.2c-.4,0,-.7,.2,-1,.5c-.3,.4,-.5,.9,-.5,1.6c0,.7,.2,1.3,.5,1.8c.3,.6,.8,.8,1.4,.8c.4,0,.7,-.1,1.1,-.4c.2,-.2,.4,-.5,.6,-1.1Z" class="g5_76"/>
<path d="M207.2,962.3l-21.6,54.3l95.8,6.4l-.1,-73.3Z" class="gb_76"/>
<path d="M185.6,1016.6l95.8,6.4l-.1,-73.3l-74.1,12.6l-21.6,54.3Zm76.8,-63.2c1.3,6.5,4,7.1,8.2,7.1M211,1018.1c0,-6.7,-2.5,-7.8,-6.6,-8.6" class="gc_76"/>
<path fill-rule="evenodd" d="M208.4,1014.5c-.1,-.5,-.6,-.8,-1.1,-.6c-.4,.1,-.7,.5,-.6,1c.1,.4,.6,.7,1.1,.6c.4,-.1,.7,-.6,.6,-1Z" class="g5_76"/>
<path d="M208.4,1014.5c-.1,-.5,-.6,-.8,-1.1,-.6c-.4,.1,-.7,.5,-.6,1c.1,.4,.6,.7,1.1,.6c.4,-.1,.7,-.6,.6,-1Z" class="g6_76"/>
<path fill-rule="evenodd" d="M265.7,956.4c.2,.4,.7,.6,1.1,.4c.4,-.2,.6,-.7,.4,-1.1c-.2,-.4,-.7,-.6,-1.1,-.4c-.4,.2,-.6,.7,-.4,1.1Z" class="g5_76"/>
<path d="M265.7,956.4c.2,.4,.7,.6,1.1,.4c.4,-.2,.6,-.7,.4,-1.1c-.2,-.4,-.7,-.6,-1.1,-.4c-.4,.2,-.6,.7,-.4,1.1Z" class="g6_76"/>
<path d="M207.7,963l73.8,60.1" class="gc_76"/>
<path d="M203.8,1017.7l3.6,-55.4m73.7,61l-12,-71.1" class="gd_76"/>
<g clip-path="url(#c1_76)">
<path fill-rule="evenodd" d="M231.3,1028.3c-.4,.3,-.7,.7,-.9,1.1c-.1,.4,-.2,.8,-.2,1.3c0,.6,.1,1.1,.5,1.5c.3,.3,.7,.5,1.3,.5c.5,0,.9,-.1,1.2,-.4c.3,-.3,.5,-.7,.5,-1.1c0,-.3,-.1,-.6,-.3,-.9c-.3,-.5,-1,-1.2,-2.1,-2m.8,-1c.6,-.6,1,-1,1.1,-1.3c.2,-.3,.3,-.6,.3,-1c0,-.5,-.2,-.9,-.5,-1.2c-.3,-.3,-.6,-.4,-1.1,-.4c-.5,0,-.9,.1,-1.2,.4c-.3,.3,-.5,.6,-.5,1c0,.3,.1,.5,.2,.8c.1,.2,.3,.4,.5,.7Zm-1.1,.7c-.8,-.6,-1.3,-1.1,-1.5,-1.5c-.2,-.4,-.3,-.8,-.3,-1.2c0,-.6,.2,-1.2,.7,-1.6c.5,-.5,1.1,-.7,2,-.7c.7,0,1.4,.2,1.9,.6c.4,.4,.7,.9,.7,1.5c0,.3,-.1,.7,-.4,1.1c-.3,.4,-.8,.8,-1.6,1.3c.8,.7,1.4,1.2,1.6,1.6c.4,.5,.6,1,.6,1.5c0,.7,-.3,1.3,-.8,1.8c-.5,.5,-1.2,.7,-2.1,.7c-.9,0,-1.6,-.3,-2.1,-.8c-.4,-.5,-.6,-1,-.6,-1.6c0,-.4,.1,-.8,.4,-1.3c.3,-.4,.8,-.9,1.5,-1.4Z" class="g5_76"/>
<path d="M231.3,1028.3c-.4,.3,-.7,.7,-.9,1.1c-.1,.4,-.2,.8,-.2,1.3c0,.6,.1,1.1,.5,1.5c.3,.3,.7,.5,1.3,.5c.5,0,.9,-.1,1.2,-.4c.3,-.3,.5,-.7,.5,-1.1c0,-.3,-.1,-.6,-.3,-.9c-.3,-.5,-1,-1.2,-2.1,-2Zm.8,-1c.6,-.6,1,-1,1.1,-1.3c.2,-.3,.3,-.6,.3,-1c0,-.5,-.2,-.9,-.5,-1.2c-.3,-.3,-.6,-.4,-1.1,-.4c-.5,0,-.9,.1,-1.2,.4c-.3,.3,-.5,.6,-.5,1c0,.3,.1,.5,.2,.8c.1,.2,.3,.4,.5,.7l1.2,1Zm-1.1,.7c-.8,-.6,-1.3,-1.1,-1.5,-1.5c-.2,-.4,-.3,-.8,-.3,-1.2c0,-.6,.2,-1.2,.7,-1.6c.5,-.5,1.1,-.7,2,-.7c.7,0,1.4,.2,1.9,.6c.4,.4,.7,.9,.7,1.5c0,.3,-.1,.7,-.4,1.1c-.3,.4,-.8,.8,-1.6,1.3c.8,.7,1.4,1.2,1.6,1.6c.4,.5,.6,1,.6,1.5c0,.7,-.3,1.3,-.8,1.8c-.5,.5,-1.2,.7,-2.1,.7c-.9,0,-1.6,-.3,-2.1,-.8c-.4,-.5,-.6,-1,-.6,-1.6c0,-.4,.1,-.8,.4,-1.3c.3,-.4,.8,-.9,1.5,-1.4Z" class="g6_76"/>
</g>
<path fill-rule="evenodd" d="M211.9,986.4c.3,-.7,.6,-1.2,1.1,-1.5c.4,-.4,.9,-.6,1.6,-.6c.7,0,1.3,.3,1.8,.8c.3,.4,.4,.8,.4,1.2c0,.7,-.4,1.5,-1.3,2.2c.6,.3,1,.6,1.3,1c.4,.5,.5,1,.5,1.6c0,.8,-.3,1.6,-.8,2.2c-.7,.8,-1.7,1.2,-3,1.2c-.7,0,-1.2,-.1,-1.4,-.2c-.2,-.2,-.3,-.4,-.3,-.6c0,-.1,0,-.2,.1,-.3c.1,-.2,.3,-.2,.4,-.2c.1,0,.3,0,.4,.1c.1,0,.3,.1,.6,.2c.2,.2,.4,.3,.6,.3c.1,0,.3,.1,.5,.1c.5,0,.9,-.2,1.3,-.6c.4,-.4,.5,-.8,.5,-1.4c0,-.3,0,-.7,-.2,-1.1c-.1,-.2,-.3,-.4,-.4,-.6c-.2,-.2,-.5,-.3,-.9,-.5c-.3,-.2,-.7,-.2,-1.1,-.2h-.2v-.2c.4,-.1,.8,-.2,1.1,-.5c.4,-.2,.7,-.5,.9,-.8c.1,-.3,.2,-.6,.2,-1c0,-.5,-.1,-.9,-.4,-1.2c-.3,-.3,-.7,-.5,-1.2,-.5c-.7,0,-1.4,.4,-1.9,1.2Z" class="g5_76"/>
<path d="M211.9,986.4c.3,-.7,.6,-1.2,1.1,-1.5c.4,-.4,.9,-.6,1.6,-.6c.7,0,1.3,.3,1.8,.8c.3,.4,.4,.8,.4,1.2c0,.7,-.4,1.5,-1.3,2.2c.6,.3,1,.6,1.3,1c.4,.5,.5,1,.5,1.6c0,.8,-.3,1.6,-.8,2.2c-.7,.8,-1.7,1.2,-3,1.2c-.7,0,-1.2,-.1,-1.4,-.2c-.2,-.2,-.3,-.4,-.3,-.6c0,-.1,0,-.2,.1,-.3c.1,-.2,.3,-.2,.4,-.2c.1,0,.3,0,.4,.1c.1,0,.3,.1,.6,.2c.2,.2,.4,.3,.6,.3c.1,0,.3,.1,.5,.1c.5,0,.9,-.2,1.3,-.6c.4,-.4,.5,-.8,.5,-1.4c0,-.3,0,-.7,-.2,-1.1c-.1,-.2,-.3,-.4,-.4,-.6c-.2,-.2,-.5,-.3,-.9,-.5c-.3,-.2,-.7,-.2,-1.1,-.2h-.2v-.2c.4,-.1,.8,-.2,1.1,-.5c.4,-.2,.7,-.5,.9,-.8c.1,-.3,.2,-.6,.2,-1c0,-.5,-.1,-.9,-.4,-1.2c-.3,-.3,-.7,-.5,-1.2,-.5c-.7,0,-1.4,.4,-1.9,1.2l-.2,-.1Z" class="g6_76"/>
<path fill-rule="evenodd" d="M266.8,985v-4.9l-3.4,4.9Zm2.5,0v1H268v2.6h-1.2V986h-4.1v-.9l4.5,-6.5h.8V985Z" class="g5_76"/>
<path d="M266.8,985v-4.9l-3.4,4.9h3.4Zm2.5,0v1H268v2.6h-1.2V986h-4.1v-.9l4.5,-6.5h.8V985h1.3Z" class="g6_76"/>
<g clip-path="url(#c1_76)">
<path fill-rule="evenodd" d="M242.7,946.7c-.1,.7,-.1,1.2,-.1,1.6c0,.5,0,1,.2,1.5c.2,.5,.4,1,.8,1.3c.2,.2,.5,.3,.9,.3c.4,0,.8,-.2,1.1,-.6c.3,-.4,.5,-.9,.5,-1.7c0,-.8,-.2,-1.5,-.5,-2.1c-.3,-.6,-.8,-.9,-1.4,-.9c-.2,0,-.4,.1,-.6,.1c-.2,.1,-.5,.3,-.9,.5m4.5,-5v.2c-.7,.1,-1.2,.2,-1.6,.4c-.4,.2,-.8,.5,-1.2,.9c-.4,.4,-.7,.8,-.9,1.3c-.3,.5,-.5,1,-.7,1.7c.7,-.5,1.4,-.7,2.1,-.7c.7,0,1.2,.3,1.7,.8c.5,.5,.8,1.2,.8,2.1c0,.8,-.3,1.5,-.8,2.2c-.6,.8,-1.4,1.2,-2.3,1.2c-.7,0,-1.3,-.2,-1.7,-.6c-1,-.9,-1.4,-2,-1.4,-3.4c0,-.9,.2,-1.7,.5,-2.5c.4,-.8,.9,-1.5,1.5,-2.1c.7,-.6,1.3,-1,1.9,-1.2c.6,-.2,1.1,-.3,1.7,-.3Z" class="g5_76"/>
<path d="M242.7,946.7c-.1,.7,-.1,1.2,-.1,1.6c0,.5,0,1,.2,1.5c.2,.5,.4,1,.8,1.3c.2,.2,.5,.3,.9,.3c.4,0,.8,-.2,1.1,-.6c.3,-.4,.5,-.9,.5,-1.7c0,-.8,-.2,-1.5,-.5,-2.1c-.3,-.6,-.8,-.9,-1.4,-.9c-.2,0,-.4,.1,-.6,.1c-.2,.1,-.5,.3,-.9,.5Zm4.5,-5v.2c-.7,.1,-1.2,.2,-1.6,.4c-.4,.2,-.8,.5,-1.2,.9c-.4,.4,-.7,.8,-.9,1.3c-.3,.5,-.5,1,-.7,1.7c.7,-.5,1.4,-.7,2.1,-.7c.7,0,1.2,.3,1.7,.8c.5,.5,.8,1.2,.8,2.1c0,.8,-.3,1.5,-.8,2.2c-.6,.8,-1.4,1.2,-2.3,1.2c-.7,0,-1.3,-.2,-1.7,-.6c-1,-.9,-1.4,-2,-1.4,-3.4c0,-.9,.2,-1.7,.5,-2.5c.4,-.8,.9,-1.5,1.5,-2.1c.7,-.6,1.3,-1,1.9,-1.2c.6,-.2,1.1,-.3,1.7,-.3h.4Z" class="g6_76"/>
</g>
<path d="M363.1,951.3l52.6,66.2l71.1,.1l-18,-73.4Z" class="gb_76"/>
<path d="M415.7,1017.5l71.1,.1l-18,-73.4l-105.7,7.1l52.6,66.2Zm-10.6,-14c5.4,-3.9,4.8,-6.5,3.1,-10.4m68.3,23.9c-1.1,-6.6,-3.8,-7.2,-8,-7.4" class="ge_76"/>
<path fill-rule="evenodd" d="M473.3,1013.9c-.2,-.4,-.7,-.6,-1.1,-.5c-.5,.2,-.7,.7,-.5,1.2c.2,.4,.7,.6,1.2,.4c.4,-.2,.6,-.7,.4,-1.1Z" class="g5_76"/>
<path d="M473.3,1013.9c-.2,-.4,-.7,-.6,-1.1,-.5c-.5,.2,-.7,.7,-.5,1.2c.2,.4,.7,.6,1.2,.4c.4,-.2,.6,-.7,.4,-1.1Z" class="g6_76"/>
<path fill-rule="evenodd" d="M406.5,999.2c.3,-.3,.2,-.8,-.1,-1.1c-.4,-.3,-.9,-.3,-1.2,0c-.3,.4,-.3,.9,.1,1.2c.3,.3,.9,.3,1.2,-.1Z" class="g5_76"/>
<path d="M406.5,999.2c.3,-.3,.2,-.8,-.1,-1.1c-.4,-.3,-.9,-.3,-1.2,0c-.3,.4,-.3,.9,.1,1.2c.3,.3,.9,.3,1.2,-.1Z" class="g6_76"/>
<path d="M415.6,1017.6l53.1,-73.2" class="ge_76"/>
<path d="M468.7,1016.9V944.4m-68.3,54.3l68,-54.6" class="gf_76"/>
<path fill-rule="evenodd" d="M385.6,990.4c.1,-.6,.1,-1.1,.1,-1.5c0,-.5,0,-1,-.2,-1.5c-.2,-.5,-.4,-1,-.7,-1.2c-.3,-.3,-.6,-.5,-1,-.5c-.4,0,-.8,.2,-1.1,.6c-.3,.4,-.5,1,-.5,1.7c0,1,.2,1.8,.7,2.4c.3,.4,.7,.6,1.1,.6c.2,0,.5,0,.8,-.1c.3,-.1,.6,-.3,.8,-.5m-4.5,5.1v-.3c.6,0,1.2,-.2,1.8,-.4c.5,-.3,1,-.8,1.5,-1.5c.5,-.7,.9,-1.5,1.1,-2.3c-.8,.4,-1.5,.7,-2.1,.7c-.7,0,-1.2,-.3,-1.7,-.8c-.5,-.5,-.8,-1.3,-.8,-2.1c0,-.9,.3,-1.7,.8,-2.3c.6,-.8,1.3,-1.2,2.3,-1.2c.8,0,1.5,.3,2.1,1c.7,.8,1,1.8,1,3c0,1.1,-.3,2.1,-.8,3c-.5,1,-1.3,1.8,-2.2,2.4c-.8,.5,-1.6,.8,-2.6,.8Z" class="g5_76"/>
<path d="M385.6,990.4c.1,-.6,.1,-1.1,.1,-1.5c0,-.5,0,-1,-.2,-1.5c-.2,-.5,-.4,-1,-.7,-1.2c-.3,-.3,-.6,-.5,-1,-.5c-.4,0,-.8,.2,-1.1,.6c-.3,.4,-.5,1,-.5,1.7c0,1,.2,1.8,.7,2.4c.3,.4,.7,.6,1.1,.6c.2,0,.5,0,.8,-.1c.3,-.1,.6,-.3,.8,-.5Zm-4.5,5.1v-.3c.6,0,1.2,-.2,1.8,-.4c.5,-.3,1,-.8,1.5,-1.5c.5,-.7,.9,-1.5,1.1,-2.3c-.8,.4,-1.5,.7,-2.1,.7c-.7,0,-1.2,-.3,-1.7,-.8c-.5,-.5,-.8,-1.3,-.8,-2.1c0,-.9,.3,-1.7,.8,-2.3c.6,-.8,1.3,-1.2,2.3,-1.2c.8,0,1.5,.3,2.1,1c.7,.8,1,1.8,1,3c0,1.1,-.3,2.1,-.8,3c-.5,1,-1.3,1.8,-2.2,2.4c-.8,.5,-1.6,.8,-2.6,.8h-.4Z" class="g6_76"/>
<path fill-rule="evenodd" d="M428.6,968.1c-.4,.3,-.7,.7,-.9,1.1c-.2,.4,-.3,.8,-.3,1.3c0,.6,.2,1.1,.5,1.5c.4,.3,.8,.5,1.3,.5c.5,0,.9,-.1,1.3,-.4c.3,-.3,.4,-.7,.4,-1.1c0,-.3,-.1,-.7,-.2,-.9c-.4,-.5,-1.1,-1.2,-2.1,-2m.8,-1.1c.6,-.5,.9,-.9,1.1,-1.2c.1,-.3,.2,-.7,.2,-1c0,-.5,-.1,-.9,-.4,-1.2c-.3,-.3,-.7,-.5,-1.2,-.5c-.5,0,-.9,.2,-1.2,.5c-.3,.3,-.4,.6,-.4,1c0,.2,0,.5,.1,.7c.2,.3,.4,.5,.6,.7Zm-1.2,.8c-.7,-.6,-1.2,-1.2,-1.5,-1.5c-.2,-.4,-.3,-.8,-.3,-1.2c0,-.7,.3,-1.2,.7,-1.7c.5,-.4,1.2,-.7,2,-.7c.8,0,1.4,.2,1.9,.7c.5,.4,.7,.9,.7,1.4c0,.4,-.1,.8,-.4,1.2c-.2,.3,-.8,.8,-1.6,1.3c.9,.7,1.4,1.2,1.7,1.5c.4,.5,.5,1.1,.5,1.6c0,.7,-.2,1.3,-.7,1.8c-.6,.5,-1.3,.7,-2.1,.7c-.9,0,-1.7,-.3,-2.2,-.9c-.4,-.4,-.6,-1,-.6,-1.5c0,-.4,.1,-.9,.4,-1.3c.3,-.4,.8,-.9,1.5,-1.4Z" class="g5_76"/>
<path d="M428.6,968.1c-.4,.3,-.7,.7,-.9,1.1c-.2,.4,-.3,.8,-.3,1.3c0,.6,.2,1.1,.5,1.5c.4,.3,.8,.5,1.3,.5c.5,0,.9,-.1,1.3,-.4c.3,-.3,.4,-.7,.4,-1.1c0,-.3,-.1,-.7,-.2,-.9c-.4,-.5,-1.1,-1.2,-2.1,-2Zm.8,-1.1c.6,-.5,.9,-.9,1.1,-1.2c.1,-.3,.2,-.7,.2,-1c0,-.5,-.1,-.9,-.4,-1.2c-.3,-.3,-.7,-.5,-1.2,-.5c-.5,0,-.9,.2,-1.2,.5c-.3,.3,-.4,.6,-.4,1c0,.2,0,.5,.1,.7c.2,.3,.4,.5,.6,.7l1.2,1Zm-1.2,.8c-.7,-.6,-1.2,-1.2,-1.5,-1.5c-.2,-.4,-.3,-.8,-.3,-1.2c0,-.7,.3,-1.2,.7,-1.7c.5,-.4,1.2,-.7,2,-.7c.8,0,1.4,.2,1.9,.7c.5,.4,.7,.9,.7,1.4c0,.4,-.1,.8,-.4,1.2c-.2,.3,-.8,.8,-1.6,1.3c.9,.7,1.4,1.2,1.7,1.5c.4,.5,.5,1.1,.5,1.6c0,.7,-.2,1.3,-.7,1.8c-.6,.5,-1.3,.7,-2.1,.7c-.9,0,-1.7,-.3,-2.2,-.9c-.4,-.4,-.6,-1,-.6,-1.5c0,-.4,.1,-.9,.4,-1.3c.3,-.4,.8,-.9,1.5,-1.4Z" class="g6_76"/>
<path fill-rule="evenodd" d="M461,986.8c0,.7,-.1,1.2,-.1,1.6c0,.5,.1,1,.3,1.5c.1,.6,.4,1,.7,1.3c.3,.2,.6,.4,.9,.4c.4,0,.8,-.2,1.2,-.6c.3,-.4,.4,-1,.4,-1.7c0,-.9,-.1,-1.6,-.4,-2.2c-.4,-.6,-.8,-.9,-1.4,-.9c-.2,0,-.4,.1,-.6,.1c-.2,.1,-.5,.3,-1,.5m4.5,-5v.3c-.6,0,-1.1,.1,-1.5,.3c-.4,.2,-.8,.5,-1.2,.9c-.4,.4,-.7,.8,-1,1.3c-.2,.5,-.5,1.1,-.6,1.7c.7,-.5,1.4,-.7,2.1,-.7c.6,0,1.2,.3,1.7,.8c.5,.6,.7,1.2,.7,2.1c0,.8,-.2,1.6,-.7,2.2c-.6,.9,-1.4,1.3,-2.4,1.3c-.7,0,-1.2,-.3,-1.7,-.7c-.9,-.9,-1.4,-2,-1.4,-3.4c0,-.8,.2,-1.7,.6,-2.5c.3,-.7,.8,-1.4,1.5,-2.1c.6,-.6,1.3,-1,1.9,-1.2c.5,-.2,1.1,-.3,1.6,-.3Z" class="g5_76"/>
<path d="M461,986.8c0,.7,-.1,1.2,-.1,1.6c0,.5,.1,1,.3,1.5c.1,.6,.4,1,.7,1.3c.3,.2,.6,.4,.9,.4c.4,0,.8,-.2,1.2,-.6c.3,-.4,.4,-1,.4,-1.7c0,-.9,-.1,-1.6,-.4,-2.2c-.4,-.6,-.8,-.9,-1.4,-.9c-.2,0,-.4,.1,-.6,.1c-.2,.1,-.5,.3,-1,.5Zm4.5,-5v.3c-.6,0,-1.1,.1,-1.5,.3c-.4,.2,-.8,.5,-1.2,.9c-.4,.4,-.7,.8,-1,1.3c-.2,.5,-.5,1.1,-.6,1.7c.7,-.5,1.4,-.7,2.1,-.7c.6,0,1.2,.3,1.7,.8c.5,.6,.7,1.2,.7,2.1c0,.8,-.2,1.6,-.7,2.2c-.6,.9,-1.4,1.3,-2.4,1.3c-.7,0,-1.2,-.3,-1.7,-.7c-.9,-.9,-1.4,-2,-1.4,-3.4c0,-.8,.2,-1.7,.6,-2.5c.3,-.7,.8,-1.4,1.5,-2.1c.6,-.6,1.3,-1,1.9,-1.2c.5,-.2,1.1,-.3,1.6,-.3h.4Z" class="g6_76"/>
<g clip-path="url(#c2_76)">
<path fill-rule="evenodd" d="M453.8,1021.3l-.6,1.2h-2.9l-.7,1.3c1.3,.2,2.3,.7,3.1,1.4c.6,.7,.9,1.5,.9,2.4c0,.5,-.1,.9,-.3,1.4c-.2,.4,-.5,.8,-.8,1.1c-.3,.3,-.7,.6,-1.1,.7c-.5,.3,-1.1,.4,-1.7,.4c-.5,0,-1,-.1,-1.2,-.3c-.3,-.2,-.4,-.4,-.4,-.6c0,-.2,0,-.3,.1,-.4c.1,-.1,.3,-.1,.4,-.1c.2,0,.3,0,.4,0c.1,.1,.2,.2,.5,.3c.3,.3,.7,.4,1.1,.4c.5,0,1,-.2,1.4,-.6c.5,-.5,.7,-1,.7,-1.6c0,-.6,-.2,-1.1,-.6,-1.7c-.4,-.5,-.9,-.9,-1.6,-1.1c-.5,-.3,-1.2,-.4,-2.1,-.4l1.9,-3.8Z" class="g5_76"/>
<path d="M453.8,1021.3l-.6,1.2h-2.9l-.7,1.3c1.3,.2,2.3,.7,3.1,1.4c.6,.7,.9,1.5,.9,2.4c0,.5,-.1,.9,-.3,1.4c-.2,.4,-.5,.8,-.8,1.1c-.3,.3,-.7,.6,-1.1,.7c-.5,.3,-1.1,.4,-1.7,.4c-.5,0,-1,-.1,-1.2,-.3c-.3,-.2,-.4,-.4,-.4,-.6c0,-.2,0,-.3,.1,-.4c.1,-.1,.3,-.1,.4,-.1c.2,0,.3,0,.4,0c.1,.1,.2,.2,.5,.3c.3,.3,.7,.4,1.1,.4c.5,0,1,-.2,1.4,-.6c.5,-.5,.7,-1,.7,-1.6c0,-.6,-.2,-1.1,-.6,-1.7c-.4,-.5,-.9,-.9,-1.6,-1.1c-.5,-.3,-1.2,-.4,-2.1,-.4l1.9,-3.8h3.5Z" class="g6_76"/>
</g>
<path d="M553.6,992.5L590,1028l67.1,-.1L597.3,934.4Z" class="gb_76"/>
<path d="M590,1028l67.1,-.1L597.3,934.4l-43.7,58.1L590,1028Zm13.7,-66.7c4.9,4.5,7.4,3.4,10.8,1m-53,65.9c-1,-6.6,-3.7,-7.2,-7.9,-7.4" class="ge_76"/>
<path fill-rule="evenodd" d="M558.4,1025.1c-.2,-.5,-.7,-.7,-1.2,-.5c-.4,.2,-.6,.7,-.4,1.1c.2,.5,.7,.7,1.1,.5c.5,-.2,.7,-.7,.5,-1.1Z" class="g5_76"/>
<path d="M558.4,1025.1c-.2,-.5,-.7,-.7,-1.2,-.5c-.4,.2,-.6,.7,-.4,1.1c.2,.5,.7,.7,1.1,.5c.5,-.2,.7,-.7,.5,-1.1Z" class="g6_76"/>
<path fill-rule="evenodd" d="M608.1,961.8c.4,.2,.9,.1,1.2,-.3c.2,-.5,0,-1,-.4,-1.2c-.4,-.2,-.9,-.1,-1.1,.3c-.3,.5,-.1,1,.3,1.2Z" class="g5_76"/>
<path d="M608.1,961.8c.4,.2,.9,.1,1.2,-.3c.2,-.5,0,-1,-.4,-1.2c-.4,-.2,-.9,-.1,-1.1,.3c-.3,.5,-.1,1,.3,1.2Z" class="g6_76"/>
<path d="M554.1,992.6l103,34.9" class="ge_76"/>
<path fill-rule="evenodd" d="M593.5,973.7l-.6,1.3H590l-.7,1.3c1.3,.2,2.3,.7,3.1,1.4c.6,.7,.9,1.4,.9,2.3c0,.5,-.1,1,-.3,1.5c-.2,.4,-.5,.8,-.8,1.1c-.3,.3,-.6,.5,-1,.7c-.6,.3,-1.2,.4,-1.7,.4c-.6,0,-1.1,-.1,-1.3,-.3c-.3,-.2,-.4,-.4,-.4,-.6c0,-.2,0,-.3,.1,-.4c.1,-.1,.3,-.1,.5,-.1c.1,0,.2,0,.3,0c.1,.1,.2,.2,.5,.3c.3,.3,.7,.4,1.1,.4c.5,0,1,-.2,1.5,-.7c.4,-.4,.6,-.9,.6,-1.5c0,-.6,-.2,-1.2,-.6,-1.7c-.4,-.5,-.9,-.9,-1.6,-1.2c-.5,-.2,-1.2,-.3,-2.1,-.3l1.9,-3.9Z" class="g5_76"/>
<path d="M593.5,973.7l-.6,1.3H590l-.7,1.3c1.3,.2,2.3,.7,3.1,1.4c.6,.7,.9,1.4,.9,2.3c0,.5,-.1,1,-.3,1.5c-.2,.4,-.5,.8,-.8,1.1c-.3,.3,-.6,.5,-1,.7c-.6,.3,-1.2,.4,-1.7,.4c-.6,0,-1.1,-.1,-1.3,-.3c-.3,-.2,-.4,-.4,-.4,-.6c0,-.2,0,-.3,.1,-.4c.1,-.1,.3,-.1,.5,-.1c.1,0,.2,0,.3,0c.1,.1,.2,.2,.5,.3c.3,.3,.7,.4,1.1,.4c.5,0,1,-.2,1.5,-.7c.4,-.4,.6,-.9,.6,-1.5c0,-.6,-.2,-1.2,-.6,-1.7c-.4,-.5,-.9,-.9,-1.6,-1.2c-.5,-.2,-1.2,-.3,-2.1,-.3l1.9,-3.9h3.5Z" class="g6_76"/>
<path d="M554.9,991.9l56,-36.1m-57.5,36.9v35.4m36.8,0H537.9" class="gf_76"/>
<path fill-rule="evenodd" d="M642.1,982l-.6,1.8h-5.8v-.2c1.7,-1.6,2.9,-2.8,3.6,-3.8c.7,-1,1,-1.9,1,-2.7c0,-.6,-.2,-1.2,-.6,-1.6c-.4,-.4,-.8,-.6,-1.3,-.6c-.5,0,-1,.2,-1.3,.5c-.4,.2,-.7,.7,-.9,1.2h-.3c.2,-.9,.5,-1.6,1,-2.1c.5,-.4,1.1,-.7,1.8,-.7c.8,0,1.5,.3,2,.8c.6,.5,.8,1.1,.8,1.8c0,.5,-.1,1,-.3,1.5c-.4,.8,-.9,1.6,-1.7,2.5c-1.2,1.3,-2,2.1,-2.3,2.4h2.6c.5,0,.9,-.1,1.1,-.1c.2,0,.4,-.1,.5,-.2c.2,-.2,.3,-.3,.5,-.5Z" class="g5_76"/>
<path d="M642.1,982l-.6,1.8h-5.8v-.2c1.7,-1.6,2.9,-2.8,3.6,-3.8c.7,-1,1,-1.9,1,-2.7c0,-.6,-.2,-1.2,-.6,-1.6c-.4,-.4,-.8,-.6,-1.3,-.6c-.5,0,-1,.2,-1.3,.5c-.4,.2,-.7,.7,-.9,1.2h-.3c.2,-.9,.5,-1.6,1,-2.1c.5,-.4,1.1,-.7,1.8,-.7c.8,0,1.5,.3,2,.8c.6,.5,.8,1.1,.8,1.8c0,.5,-.1,1,-.3,1.5c-.4,.8,-.9,1.6,-1.7,2.5c-1.2,1.3,-2,2.1,-2.3,2.4h2.6c.5,0,.9,-.1,1.1,-.1c.2,0,.4,-.1,.5,-.2c.2,-.2,.3,-.3,.5,-.5h.2Z" class="g6_76"/>
<path fill-rule="evenodd" d="M644.7,979.2c0,1.3,.2,2.4,.5,3.3c.3,.7,.7,1.1,1.2,1.1c.3,0,.6,-.2,.8,-.4c.3,-.2,.5,-.6,.7,-1.2c.2,-.8,.3,-2,.3,-3.5c0,-1.1,-.1,-2,-.3,-2.8c-.2,-.5,-.4,-.9,-.7,-1.2c-.2,-.1,-.4,-.2,-.7,-.2c-.3,0,-.6,.2,-.9,.4c-.3,.4,-.6,1.1,-.7,1.9c-.1,.9,-.2,1.7,-.2,2.6m-1.4,-.2c0,-1.1,.2,-2.1,.5,-2.9c.3,-.8,.8,-1.4,1.3,-1.8c.5,-.3,.9,-.5,1.4,-.5c.7,0,1.4,.4,2,1.2c.8,.9,1.1,2.2,1.1,3.8c0,1.2,-.1,2.2,-.5,2.9c-.3,.8,-.7,1.4,-1.2,1.8c-.5,.3,-1,.5,-1.5,.5c-.9,0,-1.7,-.5,-2.3,-1.6c-.5,-1,-.8,-2.1,-.8,-3.4Z" class="g5_76"/>
<path d="M644.7,979.2c0,1.3,.2,2.4,.5,3.3c.3,.7,.7,1.1,1.2,1.1c.3,0,.6,-.2,.8,-.4c.3,-.2,.5,-.6,.7,-1.2c.2,-.8,.3,-2,.3,-3.5c0,-1.1,-.1,-2,-.3,-2.8c-.2,-.5,-.4,-.9,-.7,-1.2c-.2,-.1,-.4,-.2,-.7,-.2c-.3,0,-.6,.2,-.9,.4c-.3,.4,-.6,1.1,-.7,1.9c-.1,.9,-.2,1.7,-.2,2.6Zm-1.4,-.2c0,-1.1,.2,-2.1,.5,-2.9c.3,-.8,.8,-1.4,1.3,-1.8c.5,-.3,.9,-.5,1.4,-.5c.7,0,1.4,.4,2,1.2c.8,.9,1.1,2.2,1.1,3.8c0,1.2,-.1,2.2,-.5,2.9c-.3,.8,-.7,1.4,-1.2,1.8c-.5,.3,-1,.5,-1.5,.5c-.9,0,-1.7,-.5,-2.3,-1.6c-.5,-1,-.8,-2.1,-.8,-3.4Z" class="g6_76"/>
<path fill-rule="evenodd" d="M615.4,1032l2.4,-1.2h.2v8.3c0,.5,0,.9,.1,1c0,.2,.1,.3,.3,.3c.1,.1,.4,.1,.9,.2v.2h-3.7v-.2c.4,-.1,.7,-.1,.9,-.2c.1,0,.2,-.1,.2,-.2c.1,-.2,.1,-.5,.1,-1.1v-5.3c0,-.7,0,-1.2,-.1,-1.4c0,-.1,0,-.2,-.1,-.3c-.1,-.1,-.2,-.1,-.4,-.1c-.1,0,-.4,0,-.7,.2Z" class="g5_76"/>
<path d="M615.4,1032l2.4,-1.2h.2v8.3c0,.5,0,.9,.1,1c0,.2,.1,.3,.3,.3c.1,.1,.4,.1,.9,.2v.2h-3.7v-.2c.4,-.1,.7,-.1,.9,-.2c.1,0,.2,-.1,.2,-.2c.1,-.2,.1,-.5,.1,-1.1v-5.3c0,-.7,0,-1.2,-.1,-1.4c0,-.1,0,-.2,-.1,-.3c-.1,-.1,-.2,-.1,-.4,-.1c-.1,0,-.4,0,-.7,.2l-.1,-.2Z" class="g6_76"/>
<path fill-rule="evenodd" d="M623,1036.2c0,1.3,.2,2.4,.5,3.3c.3,.7,.7,1,1.2,1c.3,0,.6,-.1,.9,-.3c.2,-.2,.4,-.6,.6,-1.2c.2,-.8,.3,-2,.3,-3.5c0,-1.1,-.1,-2,-.3,-2.8c-.2,-.6,-.4,-.9,-.7,-1.2c-.2,-.1,-.4,-.2,-.7,-.2c-.3,0,-.6,.1,-.9,.4c-.3,.4,-.6,1.1,-.7,1.9c-.1,.9,-.2,1.7,-.2,2.6m-1.4,-.2c0,-1.1,.2,-2.1,.5,-2.9c.3,-.8,.8,-1.4,1.4,-1.8c.4,-.3,.8,-.5,1.3,-.5c.7,0,1.4,.4,2,1.2c.8,.9,1.1,2.2,1.1,3.8c0,1.2,-.1,2.1,-.4,2.9c-.4,.8,-.8,1.4,-1.3,1.8c-.5,.3,-1,.5,-1.5,.5c-.9,0,-1.7,-.6,-2.3,-1.7c-.5,-.9,-.8,-2,-.8,-3.3Z" class="g5_76"/>
<path d="M623,1036.2c0,1.3,.2,2.4,.5,3.3c.3,.7,.7,1,1.2,1c.3,0,.6,-.1,.9,-.3c.2,-.2,.4,-.6,.6,-1.2c.2,-.8,.3,-2,.3,-3.5c0,-1.1,-.1,-2,-.3,-2.8c-.2,-.6,-.4,-.9,-.7,-1.2c-.2,-.1,-.4,-.2,-.7,-.2c-.3,0,-.6,.1,-.9,.4c-.3,.4,-.6,1.1,-.7,1.9c-.1,.9,-.2,1.7,-.2,2.6Zm-1.4,-.2c0,-1.1,.2,-2.1,.5,-2.9c.3,-.8,.8,-1.4,1.4,-1.8c.4,-.3,.8,-.5,1.3,-.5c.7,0,1.4,.4,2,1.2c.8,.9,1.1,2.2,1.1,3.8c0,1.2,-.1,2.1,-.4,2.9c-.4,.8,-.8,1.4,-1.3,1.8c-.5,.3,-1,.5,-1.5,.5c-.9,0,-1.7,-.6,-2.3,-1.7c-.5,-.9,-.8,-2,-.8,-3.3Z" class="g6_76"/>
<path fill-rule="evenodd" d="M545.7,1012.9V1008l-3.4,4.9Zm2.5,0v1h-1.3v2.6h-1.2v-2.6h-4.1v-.9l4.5,-6.5h.8v6.4Z" class="g5_76"/>
<path d="M545.7,1012.9V1008l-3.4,4.9h3.4Zm2.5,0v1h-1.3v2.6h-1.2v-2.6h-4.1v-.9l4.5,-6.5h.8v6.4h1.3Z" class="g6_76"/>
<path d="M73.6,165.4H835.8" class="gg_76"/>
<path d="M183.5,738.2h651V592.5h-651V738.2Z" class="gh_76"/>
<path fill-rule="evenodd" d="M565.4,642.2L609,632.4L637,699H534.5Z" class="g8_76"/>
<path d="M565.4,642.2L609,632.4L637,699H534.5l30.9,-56.8Z" class="gi_76"/>
<path d="M534.6,698.9L609,632.5" class="gj_76"/>
<path d="M579.8,658.6L565.2,642.3m71.3,56.3l-45,-50.3" class="gk_76"/>
<path fill-rule="evenodd" d="M528.7,699l-.7,8.1c-.1,.4,-.1,.6,-.1,.7c0,.2,0,.4,.1,.5c.1,.1,.2,.2,.4,.3c.1,0,.4,.1,.8,.1l-.1,.2h-3.8v-.2h.2c.3,0,.6,-.1,.8,-.2c.1,-.1,.2,-.3,.3,-.5c0,-.1,.1,-.5,.1,-1l.1,-1.2h-2.7l-1,1.3c-.2,.3,-.4,.5,-.4,.6c-.1,.2,-.1,.3,-.1,.4c0,.2,0,.3,.2,.4c.1,.1,.3,.2,.6,.2l-.1,.2h-2.9l.1,-.2c.4,0,.7,-.1,.9,-.4c.3,-.2,.7,-.7,1.2,-1.4l5.8,-7.9Zm-1.4,2.4l-2.8,3.8h2.4Z" class="g5_76"/>
<path fill-rule="evenodd" d="M642.9,700.1l.1,-.3h3.5c.6,0,1.1,.1,1.6,.3c.4,.2,.8,.4,1,.7c.2,.4,.3,.7,.3,1.1c0,.5,-.2,1,-.6,1.5c-.4,.4,-1,.8,-1.9,1c.5,.2,1,.5,1.3,.9c.2,.3,.4,.7,.4,1.2c0,.4,-.2,.9,-.4,1.3c-.2,.5,-.6,.8,-1,1.1c-.3,.2,-.8,.4,-1.4,.5c-.4,.1,-1,.1,-1.8,.1h-3.6l.1,-.2c.4,-.1,.7,-.1,.8,-.2c.2,0,.3,-.1,.4,-.3c.1,-.2,.3,-.6,.5,-1.2l1.7,-5.9c.1,-.5,.2,-.8,.2,-1c0,-.2,0,-.4,-.2,-.5c-.1,-.1,-.4,-.1,-.7,-.1c-.1,0,-.2,0,-.3,0m1.5,4c.3,0,.5,0,.7,0c1,0,1.7,-.2,2.2,-.6c.5,-.5,.7,-1,.7,-1.7c0,-.4,-.1,-.8,-.4,-1.1c-.3,-.3,-.8,-.4,-1.4,-.4c-.2,0,-.4,0,-.7,.1Zm-1.4,4.8c.5,.1,.9,.1,1.2,.1c.7,0,1.4,-.2,2,-.7c.6,-.4,.8,-1,.8,-1.8c0,-.6,-.1,-1.1,-.5,-1.4c-.3,-.3,-.9,-.5,-1.7,-.5c-.2,0,-.4,0,-.6,0Z" class="g5_76"/>
<path fill-rule="evenodd" d="M623.9,623.5l-.7,3.1h-.3v-.8c0,-.3,-.1,-.5,-.1,-.7c-.1,-.3,-.3,-.5,-.4,-.6c-.2,-.2,-.4,-.3,-.7,-.4c-.2,-.1,-.5,-.2,-.9,-.2c-.8,0,-1.6,.3,-2.2,.7c-.8,.6,-1.5,1.5,-1.9,2.6c-.4,.9,-.6,1.8,-.6,2.7c0,.9,.3,1.7,.8,2.3c.6,.5,1.3,.8,2.2,.8c.6,0,1.2,-.2,1.7,-.4c.6,-.3,1,-.8,1.5,-1.4h.3c-.5,.8,-1.1,1.4,-1.7,1.8c-.7,.4,-1.4,.6,-2.3,.6c-.8,0,-1.5,-.1,-2.1,-.5c-.6,-.3,-1.1,-.8,-1.4,-1.4c-.3,-.6,-.5,-1.2,-.5,-1.9c0,-1.1,.3,-2.1,.9,-3.1c.5,-1,1.3,-1.8,2.3,-2.4c1,-.5,2,-.8,3,-.8c.5,0,1,.1,1.6,.3c.2,.1,.4,.1,.5,.1c.1,0,.2,0,.3,0c.1,-.1,.3,-.2,.5,-.4Z" class="g5_76"/>
<path fill-rule="evenodd" d="M555.4,630.5l.1,-.2h3.1c1.3,0,2.3,.1,2.9,.4c.6,.3,1.1,.8,1.5,1.4c.4,.7,.6,1.4,.6,2.1c0,.7,-.1,1.3,-.3,1.9c-.3,.6,-.5,1.1,-.8,1.4c-.3,.4,-.7,.8,-1.2,1.2c-.6,.4,-1.2,.8,-1.9,1c-.7,.2,-1.5,.3,-2.5,.3h-4.1l.1,-.3c.4,0,.6,0,.8,-.1c.2,-.1,.3,-.2,.4,-.3c.1,-.2,.3,-.6,.4,-1.2l1.8,-5.9c.1,-.5,.2,-.8,.2,-1.1c0,-.2,-.1,-.3,-.2,-.4c-.1,-.1,-.4,-.2,-.7,-.2Zm2.5,.3l-2.1,7.3c-.1,.5,-.2,.9,-.2,1q0,.1,.1,.2c0,.1,.1,.1,.2,.2c.1,0,.3,0,.6,0c.7,0,1.4,-.1,2.1,-.2c.6,-.2,1.1,-.4,1.5,-.7c.6,-.5,1.1,-1.1,1.4,-1.8c.4,-.8,.6,-1.7,.6,-2.7c0,-1.1,-.3,-2,-.8,-2.5c-.6,-.5,-1.4,-.8,-2.4,-.8c-.2,0,-.6,0,-1,0Z" class="g5_76"/>
<path d="M574.2,652.8c-4,5.2,-2.6,7.6,.1,10.7m22,-9.4c4,-5.2,2.7,-7.6,0,-10.7" class="gl_76"/>
<path fill-rule="evenodd" d="M574.3,658.1c-.2,.4,0,.9,.4,1.1c.5,.2,1,0,1.1,-.4c.2,-.5,0,-1,-.4,-1.1c-.4,-.2,-.9,0,-1.1,.4Z" class="g5_76"/>
<path fill-rule="evenodd" d="M596.2,648.8c.2,-.4,0,-.9,-.4,-1.1c-.4,-.2,-.9,0,-1.1,.4c-.2,.5,0,1,.4,1.1c.5,.2,1,0,1.1,-.4Z" class="g5_76"/>
<path fill-rule="evenodd" d="M579,641.4l.1,-.3h3.5c.6,0,1.1,.1,1.6,.3c.4,.1,.8,.4,1,.7c.2,.4,.3,.7,.3,1.1c0,.5,-.2,1,-.6,1.5c-.4,.4,-1,.8,-1.9,1c.5,.2,1,.5,1.2,.8c.3,.4,.5,.8,.5,1.2c0,.5,-.2,1,-.4,1.4c-.3,.5,-.6,.8,-1,1c-.4,.3,-.8,.5,-1.4,.6c-.4,.1,-1,.1,-1.8,.1h-3.6l.1,-.3c.4,0,.7,0,.8,-.1c.2,0,.3,-.2,.4,-.3c.1,-.2,.3,-.6,.5,-1.2L580,643c.1,-.5,.2,-.9,.2,-1.1c0,-.1,0,-.3,-.2,-.4c-.1,-.1,-.4,-.1,-.7,-.1c-.1,0,-.2,0,-.3,0m1.5,4c.3,0,.5,0,.7,0c1,0,1.7,-.2,2.2,-.6c.5,-.5,.7,-1,.7,-1.7c0,-.5,-.1,-.8,-.4,-1.1c-.3,-.3,-.8,-.4,-1.5,-.4c-.1,0,-.3,0,-.6,.1Zm-1.4,4.8c.5,0,.9,.1,1.2,.1c.7,0,1.4,-.2,2,-.7c.6,-.4,.8,-1.1,.8,-1.8c0,-.6,-.1,-1.1,-.5,-1.4c-.4,-.3,-.9,-.5,-1.7,-.5c-.2,0,-.4,0,-.6,0Z" class="g5_76"/>
<path fill-rule="evenodd" d="M580,662.5l.1,-.3h3.1c1.3,0,2.3,.2,2.9,.5c.6,.3,1.1,.8,1.5,1.4c.4,.7,.6,1.4,.6,2.1c0,.6,-.1,1.3,-.4,1.9c-.2,.5,-.4,1,-.7,1.4c-.3,.3,-.7,.7,-1.3,1.2c-.5,.4,-1.1,.7,-1.8,.9c-.7,.3,-1.5,.4,-2.5,.4h-4.1l.1,-.3c.4,0,.6,-.1,.7,-.1c.2,-.1,.4,-.2,.5,-.3c.1,-.2,.3,-.6,.4,-1.2l1.8,-5.9c.1,-.5,.2,-.8,.2,-1.1c0,-.2,-.1,-.3,-.2,-.4c-.2,-.1,-.4,-.2,-.8,-.2Zm2.5,.3l-2.1,7.3c-.1,.5,-.2,.8,-.2,1c0,0,0,.1,.1,.2c0,.1,.1,.1,.2,.1c.1,.1,.3,.1,.6,.1c.7,0,1.4,-.1,2,-.2c.7,-.2,1.2,-.4,1.6,-.7c.6,-.5,1.1,-1.1,1.4,-1.9c.4,-.7,.5,-1.6,.5,-2.6c0,-1.1,-.2,-2,-.8,-2.5c-.5,-.6,-1.3,-.8,-2.3,-.8c-.3,0,-.6,0,-1,0Z" class="g5_76"/>
<path fill-rule="evenodd" d="M586.8,647.8l1.6,-.8h.1v5.5c0,.3,0,.6,.1,.7c0,0,.1,.1,.1,.2c.1,0,.3,0,.6,0v.2h-2.4v-.2c.3,0,.5,0,.6,0q.1,-.1,.2,-.2c0,-.1,0,-.3,0,-.7V649c0,-.5,0,-.8,0,-.9c0,-.1,-.1,-.2,-.1,-.2c-.1,-.1,-.2,-.1,-.3,-.1c-.1,0,-.2,0,-.4,.1Z" class="g5_76"/>
<path fill-rule="evenodd" d="M588.7,668.9l1.6,-.7h.1v5.4c0,.4,0,.6,.1,.7c0,.1,.1,.2,.2,.2c.1,.1,.3,.1,.5,.1v.2h-2.4v-.2c.3,0,.5,0,.6,-.1c.1,0,.2,-.1,.2,-.2c0,-.1,0,-.3,0,-.7v-3.5c0,-.4,0,-.7,0,-.9c0,-.1,-.1,-.2,-.1,-.2c-.1,0,-.2,-.1,-.2,-.1c-.2,0,-.3,.1,-.5,.2Z" class="g5_76"/>
<path fill-rule="evenodd" d="M724.4,642.8L768,633l28,66.6H693.5Z" class="g8_76"/>
<path d="M724.4,642.8L768,633l28,66.6H693.5l30.9,-56.8Z" class="gi_76"/>
<path d="M724.5,642.6l71.2,56.9" class="gj_76"/>
<path d="M693.6,700.1l40,-50.1m13.4,9.7l21.5,-26.8" class="gk_76"/>
<path fill-rule="evenodd" d="M687.7,699.6l-.8,8.1c0,.4,0,.6,0,.7c0,.2,0,.4,.1,.5c.1,.1,.2,.2,.3,.3c.2,0,.4,.1,.8,.1l-.1,.2h-3.8l.1,-.2h.2c.3,0,.5,-.1,.7,-.2c.2,-.1,.3,-.3,.3,-.5c.1,-.1,.1,-.5,.2,-1l.1,-1.3H683l-1,1.4c-.2,.3,-.3,.5,-.4,.6c0,.2,-.1,.3,-.1,.4c0,.2,.1,.3,.2,.4c.1,.1,.3,.2,.6,.2v.2h-2.9l.1,-.2c.3,0,.6,-.2,.9,-.4c.3,-.2,.7,-.7,1.2,-1.4l5.8,-7.9Zm-1.5,2.4l-2.8,3.8h2.5Z" class="g5_76"/>
<path fill-rule="evenodd" d="M801.9,700.7l.1,-.3h3.5c.6,0,1.1,.1,1.5,.3c.5,.2,.8,.4,1.1,.7c.2,.4,.3,.7,.3,1.1c0,.5,-.2,1,-.6,1.5c-.4,.4,-1.1,.8,-2,1c.6,.2,1,.5,1.3,.8c.3,.4,.4,.8,.4,1.2c0,.5,-.1,1,-.3,1.4c-.3,.5,-.6,.8,-1,1c-.4,.3,-.9,.5,-1.4,.6c-.4,.1,-1,.1,-1.8,.1h-3.6l.1,-.3c.4,0,.6,0,.8,-.1c.1,0,.3,-.2,.4,-.3c.1,-.2,.2,-.6,.4,-1.2l1.8,-5.9c.1,-.5,.2,-.9,.2,-1.1c0,-.1,-.1,-.3,-.2,-.4c-.1,-.1,-.4,-.1,-.8,-.1c0,0,-.1,0,-.2,0m1.5,4c.3,0,.5,0,.6,0c1,0,1.8,-.2,2.2,-.6c.5,-.5,.8,-1,.8,-1.7c0,-.5,-.2,-.8,-.5,-1.1c-.3,-.3,-.7,-.4,-1.4,-.4c-.2,0,-.4,0,-.6,.1Zm-1.5,4.8c.6,0,1,.1,1.3,.1c.7,0,1.4,-.2,1.9,-.7c.6,-.4,.9,-1.1,.9,-1.8c0,-.6,-.2,-1.1,-.5,-1.4c-.4,-.3,-1,-.5,-1.8,-.5c-.1,0,-.3,0,-.5,0Z" class="g5_76"/>
<path fill-rule="evenodd" d="M782.9,624.1l-.7,3.1h-.3v-.8c0,-.3,-.1,-.5,-.2,-.8c-.1,-.2,-.2,-.4,-.4,-.5c-.1,-.2,-.4,-.3,-.6,-.4c-.3,-.1,-.6,-.2,-.9,-.2c-.9,0,-1.6,.3,-2.2,.7c-.9,.6,-1.5,1.5,-2,2.6c-.3,.9,-.5,1.8,-.5,2.7c0,.9,.2,1.7,.8,2.2c.5,.6,1.3,.9,2.1,.9c.7,0,1.3,-.2,1.8,-.5c.5,-.3,1,-.7,1.4,-1.3h.4c-.5,.8,-1.1,1.4,-1.8,1.8c-.6,.4,-1.4,.6,-2.3,.6c-.8,0,-1.5,-.2,-2.1,-.5c-.6,-.3,-1,-.8,-1.4,-1.4c-.3,-.6,-.4,-1.2,-.4,-1.9c0,-1.1,.2,-2.1,.8,-3.1c.6,-1,1.4,-1.8,2.3,-2.4c1,-.6,2,-.8,3,-.8c.5,0,1,.1,1.6,.3c.3,.1,.5,.1,.6,.1c.1,0,.2,0,.3,0c.1,-.1,.2,-.2,.4,-.4Z" class="g5_76"/>
<path fill-rule="evenodd" d="M714.4,631.1v-.2h3.1c1.4,0,2.3,.1,3,.4c.6,.3,1.1,.8,1.5,1.4c.3,.7,.5,1.4,.5,2.1c0,.6,-.1,1.3,-.3,1.9c-.2,.6,-.5,1,-.7,1.4c-.3,.4,-.7,.8,-1.3,1.2c-.6,.4,-1.2,.8,-1.8,1c-.7,.2,-1.5,.3,-2.5,.3h-4.1l.1,-.3c.3,0,.6,0,.7,-.1c.2,-.1,.4,-.2,.4,-.3c.2,-.2,.3,-.6,.5,-1.2l1.7,-5.9c.2,-.5,.2,-.8,.2,-1.1c0,-.2,0,-.3,-.2,-.4c-.1,-.1,-.3,-.2,-.7,-.2Zm2.5,.3l-2.1,7.3c-.2,.5,-.2,.8,-.2,1c0,0,0,.1,0,.2q.1,.1,.2,.1c.2,.1,.4,.1,.6,.1c.8,0,1.5,-.1,2.1,-.2c.7,-.2,1.2,-.4,1.6,-.7c.6,-.5,1,-1.1,1.4,-1.9c.3,-.7,.5,-1.6,.5,-2.6c0,-1.1,-.2,-2,-.8,-2.5c-.5,-.6,-1.3,-.8,-2.3,-.8c-.3,0,-.6,0,-1,0Z" class="g5_76"/>
<path d="M728.2,657.5c6.3,1.8,8,-.3,10,-4.1m13.9,11c4,-5.2,2.7,-7.6,0,-10.7" class="gl_76"/>
<path fill-rule="evenodd" d="M733.1,655.5c.5,0,.9,-.4,.9,-.9c0,-.4,-.4,-.8,-.9,-.8c-.4,0,-.8,.4,-.8,.8c0,.5,.3,.9,.8,.9Z" class="g5_76"/>
<path fill-rule="evenodd" d="M752.1,659.1c.1,-.4,-.1,-.9,-.5,-1.1c-.4,-.2,-.9,0,-1.1,.5c-.2,.4,0,.9,.5,1.1c.4,.1,.9,-.1,1.1,-.5Z" class="g5_76"/>
<path fill-rule="evenodd" d="M746.4,640l-.7,8.1c-.1,.4,-.1,.6,-.1,.7c0,.2,.1,.4,.1,.5c.1,.1,.2,.2,.4,.3c.1,.1,.4,.1,.8,.1l-.1,.3H743l.1,-.3h.1c.3,0,.6,-.1,.8,-.2c.1,-.1,.2,-.3,.3,-.5c0,-.1,.1,-.5,.1,-1l.2,-1.2h-2.8l-1,1.3c-.2,.3,-.4,.5,-.4,.6c-.1,.2,-.1,.3,-.1,.4c0,.2,0,.3,.2,.4c.1,.1,.3,.2,.6,.2l-.1,.3h-2.9l.1,-.3c.4,0,.7,-.1,1,-.4c.2,-.2,.6,-.7,1.2,-1.4l5.8,-7.9Zm-1.4,2.4l-2.8,3.8h2.4Z" class="g5_76"/>
<path fill-rule="evenodd" d="M746.3,664.5l-.7,3.2h-.3v-.8c0,-.3,-.1,-.6,-.2,-.8c-.1,-.2,-.2,-.4,-.4,-.6c-.1,-.1,-.3,-.3,-.6,-.4c-.3,-.1,-.6,-.1,-.9,-.1c-.8,0,-1.6,.2,-2.2,.7c-.8,.6,-1.5,1.4,-1.9,2.5c-.4,.9,-.6,1.8,-.6,2.8c0,.9,.3,1.6,.8,2.2c.6,.6,1.3,.9,2.1,.9c.7,0,1.3,-.2,1.8,-.5c.5,-.3,1,-.7,1.5,-1.4h.3c-.5,.9,-1.1,1.5,-1.7,1.9c-.7,.4,-1.5,.6,-2.3,.6c-.8,0,-1.5,-.2,-2.2,-.5c-.6,-.4,-1,-.8,-1.3,-1.4c-.4,-.6,-.5,-1.3,-.5,-2c0,-1,.3,-2.1,.8,-3.1c.6,-1,1.4,-1.7,2.4,-2.3c1,-.6,2,-.9,3,-.9c.4,0,1,.1,1.5,.4c.3,.1,.5,.1,.6,.1c.1,0,.2,0,.3,-.1c.1,0,.2,-.2,.4,-.4Z" class="g5_76"/>
<path fill-rule="evenodd" d="M748.8,646.9l1.5,-.7h.2v5.4c0,.4,0,.6,0,.7c.1,.1,.1,.2,.2,.2c.1,.1,.3,.1,.6,.1v.2h-2.4v-.2c.3,0,.5,0,.6,-.1c.1,0,.1,-.1,.2,-.2c0,-.1,0,-.3,0,-.7v-3.5c0,-.4,0,-.7,0,-.9c-.1,-.1,-.1,-.2,-.2,-.2c0,0,-.1,-.1,-.2,-.1c-.1,0,-.3,.1,-.5,.2Z" class="g5_76"/>
<path fill-rule="evenodd" d="M746.4,671.4l1.5,-.7h.2v5.4c0,.4,0,.6,0,.7c.1,.1,.1,.2,.2,.2c.1,.1,.3,.1,.6,.1v.2h-2.4v-.2c.3,0,.5,0,.6,-.1c.1,0,.1,-.1,.2,-.2c0,-.1,0,-.3,0,-.7v-3.5c0,-.4,0,-.7,0,-.9c-.1,-.1,-.1,-.2,-.2,-.2c0,0,-.1,-.1,-.2,-.1c-.1,0,-.2,.1,-.5,.2Z" class="g5_76"/>
<path d="M73.6,745.6H835.8" class="gg_76"/>
<path d="M549.1,815h11.4m85.9,0h11.3" class="gm_76"/>
<path d="M73.6,895.2H835.8" class="gg_76"/>
<path d="M0,138.7H120.6V0H0V138.7Z" class="g0_76"/>
<path d="M134.5,630.2h39.7V592.8H134.5v37.4Z" class="gn_76"/>
<path d="M634.6,345.7H646m96.7,0h11.4M570.8,379.2h11.3m67.6,0h11.4" class="gm_76"/>
<path d="M184.8,516.4h651v-65h-651v65Z" class="gh_76"/>
<path d="M135.8,488.9h39.7V451.4H135.8v37.5Z" class="go_76"/>
<path clip-path="url(#c3_76)" d="M156.1,474c-2.1,.1,-3.8,-1.6,-3.6,-3.7c.1,-1.7,1.5,-3,3.2,-3.1c2,-.2,3.7,1.5,3.6,3.6c-.1,1.7,-1.5,3.1,-3.2,3.2m.2,2.9c-3.8,.2,-7,-2.9,-6.8,-6.7c.2,-3.2,2.8,-5.8,6,-6c3.8,-.2,7,2.9,6.7,6.8c-.2,3.1,-2.8,5.7,-5.9,5.9m-.4,-15.3c-5.8,0,-11,3.1,-14.9,8.3c-.3,.4,-.3,1,0,1.4c3.9,5.1,9.1,8.3,14.9,8.3c5.7,0,11,-3.2,14.8,-8.3c.4,-.4,.4,-1,0,-1.4c-3.8,-5.2,-9.1,-8.3,-14.8,-8.3Z" class="g8_76"/>
<path d="M232.4,649.5h14.7m106.2,0H368M233.2,701H248m107.2,0h14.7" class="gm_76"/>
<path d="M707.2,977.3l32.8,44l95.1,-.1L788.5,948.3Z" class="gb_76"/>
<path d="M740,1021.3l95.1,-.1L788.5,948.3l-81.3,29l32.8,44Zm29.1,-82.5c6,5.6,9.1,4.2,13.4,1.2M717,1021.5c-1.4,-8.1,-4.7,-8.9,-9.9,-9.2" class="gp_76"/>
<path fill-rule="evenodd" d="M713,1017.6c-.2,-.5,-.8,-.7,-1.4,-.5c-.5,.2,-.7,.9,-.5,1.4c.2,.5,.9,.8,1.4,.5c.5,-.2,.8,-.8,.5,-1.4Z" class="g5_76"/>
<path d="M713,1017.6c-.2,-.5,-.8,-.7,-1.4,-.5c-.5,.2,-.7,.9,-.5,1.4c.2,.5,.9,.8,1.4,.5c.5,-.2,.8,-.8,.5,-1.4Z" class="g6_76"/>
<path fill-rule="evenodd" d="M774.5,939.4c.6,.3,1.2,.1,1.5,-.4c.2,-.5,.1,-1.2,-.5,-1.4c-.5,-.3,-1.1,-.1,-1.4,.4c-.2,.5,-.1,1.1,.4,1.4Z" class="g5_76"/>
<path d="M774.5,939.4c.6,.3,1.2,.1,1.5,-.4c.2,-.5,.1,-1.2,-.5,-1.4c-.5,-.3,-1.1,-.1,-1.4,.4c-.2,.5,-.1,1.1,.4,1.4Z" class="g6_76"/>
<path d="M707.8,977.5l127.3,43.2" class="gp_76"/>
<path d="M708.8,976.7L778.1,932m-71.3,45.6v43.8m45.6,0H687.7M808,978.9L773.4,924.2" class="gq_76"/>
</svg>