<?xml version="1.0" encoding="UTF-8" standalone="no"?>
<!DOCTYPE svg PUBLIC "-//W3C//DTD SVG 1.1//EN"
"http://www.w3.org/Graphics/SVG/1.1/DTD/svg11.dtd">
<svg viewBox="0 0 909 1147" version="1.1" xmlns="http://www.w3.org/2000/svg" xmlns:xlink="http://www.w3.org/1999/xlink">
<defs>
<style type="text/css"><![CDATA[
.g0_95{
fill: #B6D774;
}
.g1_95{
fill: none;
stroke: #000;
stroke-width: 0.763;
}
.g2_95{
fill: none;
stroke: #0EA5DF;
stroke-width: 3.055;
}
.g3_95{
fill: #FFFAC2;
}
.g4_95{
fill: none;
stroke: #0EA5DF;
stroke-width: 0.381;
stroke-miterlimit: 10;
}
.g5_95{
fill: none;
stroke: #000;
stroke-width: 0.763;
stroke-dasharray: 8,8;
}
.g6_95{
fill: #E7EFC1;
}
.g7_95{
fill: #E8F1FA;
}
.g8_95{
fill: none;
stroke: #0EA5DF;
stroke-width: 0.763;
stroke-miterlimit: 10;
}
]]></style>
</defs>
<path d="M835.8,1131h73.6v-51.5H835.8V1131Z" class="g0_95"/>
<path d="M270,494h45.5" class="g1_95"/>
<path d="M73.6,66.5H835.8" class="g2_95"/>
<path d="M604.5,432.4h41.2m-41.2,37.7h35.4" class="g1_95"/>
<path d="M225,221.3l129.7,-.9l1.1,-89.2l-39.4,38.6l-52.5,-.4l-38.5,-39Z" class="g3_95"/>
<path d="M211.8,117.1H225m-13,12.8V117.3m13,-.2h13m-13,12.8V117.3m13,-.2h13m-13,12.8V117.3m13,-.2h13m-13,12.8V117.3m13,-.2h13m-13,12.8V117.3m13,-.2h12.9M277,129.9V117.3m12.9,-.2h13m-13,12.8V117.3m13,-.2h13m-13,12.8V117.3m13,-.2h13m-13,12.8V117.3m13,-.2h13m-13,12.8V117.3m13,-.2h13m-13,12.8V117.3m13,-.2h13.2m-13.2,12.8V117.3m13,12.6V117.3M211.8,130.1H225m-13,12.8V130.3m13,-.2h13m-13,12.8V130.3m13,-.2h13m-13,12.8V130.3m13,-.2h13m-13,12.8V130.3m13,-.2h13m-13,12.8V130.3m13,-.2h12.9M277,142.9V130.3m12.9,-.2h13m-13,12.8V130.3m13,-.2h13m-13,12.8V130.3m13,-.2h13m-13,12.8V130.3m13,-.2h13m-13,12.8V130.3m13,-.2h13m-13,12.8V130.3m13,-.2h13.2m-13.2,12.8V130.3m13,12.6V130.3M211.8,143.1H225m-13,12.8V143.3m13,-.2h13m-13,12.8V143.3m13,-.2h13m-13,12.8V143.3m13,-.2h13m-13,12.8V143.3m13,-.2h13m-13,12.8V143.3m13,-.2h12.9M277,155.9V143.3m12.9,-.2h13m-13,12.8V143.3m13,-.2h13m-13,12.8V143.3m13,-.2h13m-13,12.8V143.3m13,-.2h13m-13,12.8V143.3m13,-.2h13m-13,12.8V143.3m13,-.2h13.2m-13.2,12.8V143.3m13,12.6V143.3M211.8,156.1H225m-13,12.8V156.3m13,-.2h13m-13,12.8V156.3m13,-.2h13m-13,12.8V156.3m13,-.2h13m-13,12.8V156.3m13,-.2h13m-13,12.8V156.3m13,-.2h12.9M277,168.9V156.3m12.9,-.2h13m-13,12.8V156.3m13,-.2h13m-13,12.8V156.3m13,-.2h13m-13,12.8V156.3m13,-.2h13m-13,12.8V156.3m13,-.2h13m-13,12.8V156.3m13,-.2h13.2m-13.2,12.8V156.3m13,12.6V156.3M211.8,169.1H225m-13,12.8V169.3m13,-.2h13m-13,12.8V169.3m13,-.2h13m-13,12.8V169.3m13,-.2h13m-13,12.8V169.3m13,-.2h13m-13,12.8V169.3m13,-.2h12.9M277,181.9V169.3m12.9,-.2h13m-13,12.8V169.3m13,-.2h13m-13,12.8V169.3m13,-.2h13m-13,12.8V169.3m13,-.2h13m-13,12.8V169.3m13,-.2h13m-13,12.8V169.3m13,-.2h13.2m-13.2,12.8V169.3m13,12.6V169.3M211.8,182.1H225m-13,12.8V182.3m13,-.2h13m-13,12.8V182.3m13,-.2h13m-13,12.8V182.3m13,-.2h13m-13,12.8V182.3m13,-.2h13m-13,12.8V182.3m13,-.2h12.9M277,194.9V182.3m12.9,-.2h13m-13,12.8V182.3m13,-.2h13m-13,12.8V182.3m13,-.2h13m-13,12.8V182.3m13,-.2h13m-13,12.8V182.3m13,-.2h13m-13,12.8V182.3m13,-.2h13.2m-13.2,12.8V182.3m13,12.6V182.3M211.8,195.1H225m-13,12.8V195.3m13,-.2h13m-13,12.8V195.3m13,-.2h13m-13,12.8V195.3m13,-.2h13m-13,12.8V195.3m13,-.2h13m-13,12.8V195.3m13,-.2h12.9M277,207.9V195.3m12.9,-.2h13m-13,12.8V195.3m13,-.2h13m-13,12.8V195.3m13,-.2h13m-13,12.8V195.3m13,-.2h13m-13,12.8V195.3m13,-.2h13m-13,12.8V195.3m13,-.2h13.2m-13.2,12.8V195.3m13,12.6V195.3M211.8,208.1H225m-13,12.8V208.3m13,-.2h13m-13,12.8V208.3m13,-.2h13m-13,12.8V208.3m13,-.2h13m-13,12.8V208.3m13,-.2h13m-13,12.8V208.3m13,-.2h12.9M277,220.9V208.3m12.9,-.2h13m-13,12.8V208.3m13,-.2h13m-13,12.8V208.3m13,-.2h13m-13,12.8V208.3m13,-.2h13m-13,12.8V208.3m13,-.2h13m-13,12.8V208.3m13,-.2h13.2m-13.2,12.8V208.3m13,12.6V208.3M211.8,221.1H225m-13,12.8V221.2m13,-.1h13m-13,12.8V221.2m13,-.1h13m-13,12.8V221.2m13,-.1h13m-13,12.8V221.2m13,-.1h13m-13,12.8V221.2m13,-.1h12.9M277,233.9V221.2m12.9,-.1h13m-13,12.8V221.2m13,-.1h13m-13,12.8V221.2m13,-.1h13m-13,12.8V221.2m13,-.1h13m-13,12.8V221.2m13,-.1h13m-13,12.8V221.2m13,-.1h13.2m-13.2,12.8V221.2m13,12.7V221.2M211.8,234H225m0,0h13m0,0h13m0,0h13m0,0h13m0,0h12.9m0,0h13m0,0h13m0,0h13m0,0h13m0,0h13m0,0h13.2" class="g4_95"/>
<path d="M225,220.9H354.9l.5,-90.1l-39.7,38.5H264L225,130.4v90.9" class="g1_95"/>
<path d="M225,130.3H354.7" class="g5_95"/>
<path d="M559.5,221.3l129.7,-.9L637,182.3l52.7,-39.4l-129.5,-.2l25.1,13.2l.2,52.4Z" class="g6_95"/>
<path d="M546.3,117.1h13.2m-13,12.8V117.3m13,-.2h13m-13,12.8V117.3m13,-.2h13m-13,12.8V117.3m13,-.2h13m-13,12.8V117.3m13,-.2h13m-13,12.8V117.3m13,-.2h13m-13,12.8V117.3m13,-.2h13m-13,12.8V117.3m13,-.2h12.9m-12.9,12.8V117.3m12.9,-.2h13m-13,12.8V117.3m13,-.2h13m-13,12.8V117.3m13,-.2h13m-13,12.8V117.3m13,-.2h13.2m-13.2,12.8V117.3m13,12.6V117.3M546.3,130.1h13.2m-13,12.8V130.3m13,-.2h13m-13,12.8V130.3m13,-.2h13m-13,12.8V130.3m13,-.2h13m-13,12.8V130.3m13,-.2h13m-13,12.8V130.3m13,-.2h13m-13,12.8V130.3m13,-.2h13m-13,12.8V130.3m13,-.2h12.9m-12.9,12.8V130.3m12.9,-.2h13m-13,12.8V130.3m13,-.2h13m-13,12.8V130.3m13,-.2h13m-13,12.8V130.3m13,-.2h13.2m-13.2,12.8V130.3m13,12.6V130.3M546.3,143.1h13.2m-13,12.8V143.3m13,-.2h13m-13,12.8V143.3m13,-.2h13m-13,12.8V143.3m13,-.2h13m-13,12.8V143.3m13,-.2h13m-13,12.8V143.3m13,-.2h13m-13,12.8V143.3m13,-.2h13m-13,12.8V143.3m13,-.2h12.9m-12.9,12.8V143.3m12.9,-.2h13m-13,12.8V143.3m13,-.2h13m-13,12.8V143.3m13,-.2h13m-13,12.8V143.3m13,-.2h13.2m-13.2,12.8V143.3m13,12.6V143.3M546.3,156.1h13.2m-13,12.8V156.3m13,-.2h13m-13,12.8V156.3m13,-.2h13m-13,12.8V156.3m13,-.2h13m-13,12.8V156.3m13,-.2h13m-13,12.8V156.3m13,-.2h13m-13,12.8V156.3m13,-.2h13m-13,12.8V156.3m13,-.2h12.9m-12.9,12.8V156.3m12.9,-.2h13m-13,12.8V156.3m13,-.2h13m-13,12.8V156.3m13,-.2h13m-13,12.8V156.3m13,-.2h13.2m-13.2,12.8V156.3m13,12.6V156.3M546.3,169.1h13.2m-13,12.8V169.3m13,-.2h13m-13,12.8V169.3m13,-.2h13m-13,12.8V169.3m13,-.2h13m-13,12.8V169.3m13,-.2h13m-13,12.8V169.3m13,-.2h13m-13,12.8V169.3m13,-.2h13m-13,12.8V169.3m13,-.2h12.9m-12.9,12.8V169.3m12.9,-.2h13m-13,12.8V169.3m13,-.2h13m-13,12.8V169.3m13,-.2h13m-13,12.8V169.3m13,-.2h13.2m-13.2,12.8V169.3m13,12.6V169.3M546.3,182.1h13.2m-13,12.8V182.3m13,-.2h13m-13,12.8V182.3m13,-.2h13m-13,12.8V182.3m13,-.2h13m-13,12.8V182.3m13,-.2h13m-13,12.8V182.3m13,-.2h13m-13,12.8V182.3m13,-.2h13m-13,12.8V182.3m13,-.2h12.9m-12.9,12.8V182.3m12.9,-.2h13m-13,12.8V182.3m13,-.2h13m-13,12.8V182.3m13,-.2h13m-13,12.8V182.3m13,-.2h13.2m-13.2,12.8V182.3m13,12.6V182.3M546.3,195.1h13.2m-13,12.8V195.3m13,-.2h13m-13,12.8V195.3m13,-.2h13m-13,12.8V195.3m13,-.2h13m-13,12.8V195.3m13,-.2h13m-13,12.8V195.3m13,-.2h13m-13,12.8V195.3m13,-.2h13m-13,12.8V195.3m13,-.2h12.9m-12.9,12.8V195.3m12.9,-.2h13m-13,12.8V195.3m13,-.2h13m-13,12.8V195.3m13,-.2h13m-13,12.8V195.3m13,-.2h13.2m-13.2,12.8V195.3m13,12.6V195.3M546.3,208.1h13.2m-13,12.8V208.3m13,-.2h13m-13,12.8V208.3m13,-.2h13m-13,12.8V208.3m13,-.2h13m-13,12.8V208.3m13,-.2h13m-13,12.8V208.3m13,-.2h13m-13,12.8V208.3m13,-.2h13m-13,12.8V208.3m13,-.2h12.9m-12.9,12.8V208.3m12.9,-.2h13m-13,12.8V208.3m13,-.2h13m-13,12.8V208.3m13,-.2h13m-13,12.8V208.3m13,-.2h13.2m-13.2,12.8V208.3m13,12.6V208.3M546.3,221.1h13.2m-13,12.8V221.2m13,-.1h13m-13,12.8V221.2m13,-.1h13m-13,12.8V221.2m13,-.1h13m-13,12.8V221.2m13,-.1h13m-13,12.8V221.2m13,-.1h13m-13,12.8V221.2m13,-.1h13m-13,12.8V221.2m13,-.1h12.9m-12.9,12.8V221.2m12.9,-.1h13m-13,12.8V221.2m13,-.1h13m-13,12.8V221.2m13,-.1h13m-13,12.8V221.2m13,-.1h13.2m-13.2,12.8V221.2m13,12.7V221.2M546.3,234h13.2m0,0h13m0,0h13m0,0h13m0,0h13m0,0h13m0,0h13m0,0h12.9m0,0h13m0,0h13m0,0h13m0,0h13.2" class="g4_95"/>
<path d="M559.5,220.9H689.2L637.5,182.3l52.2,-39.4L560,142.7l25.3,13.2v52.4l-25.8,13" class="g1_95"/>
<path d="M559.5,221.3V142.5m130.1,78.8V142.5" class="g5_95"/>
<path d="M185.1,1078.3H835.8v-520H185.1v520Z" class="g7_95"/>
<path d="M73.6,558H835.8" class="g2_95"/>
<path d="M272,730.8l69.3,-35.1l17.1,-34.4l86.4,34.4l-68.5,34.2L358.6,765Z" class="g3_95"/>
<path d="M254.4,643.5h17.7m-17.3,16.9V643.9m17.3,-.4h17.4m-17.4,16.9V643.9m17.4,-.4h17.3m-17.3,16.9V643.9m17.3,-.4h17.3m-17.3,16.9V643.9m17.3,-.4h17.3m-17.3,16.9V643.9m17.3,-.4h17.3m-17.3,16.9V643.9m17.3,-.4h17.4m-17.4,16.9V643.9m17.4,-.4h17.3m-17.3,16.9V643.9m17.3,-.4h17.3m-17.3,16.9V643.9m17.3,-.4H428m-17.3,16.9V643.9m17.3,-.4h17.4M428,660.4V643.9m17.4,-.4h17.7m-17.7,16.9V643.9m17.3,16.5V643.9M254.4,660.8h17.7m-17.3,17V661.2m17.3,-.4h17.4m-17.4,17V661.2m17.4,-.4h17.3m-17.3,17V661.2m17.3,-.4h17.3m-17.3,17V661.2m17.3,-.4h17.3m-17.3,17V661.2m17.3,-.4h17.3m-17.3,17V661.2m17.3,-.4h17.4m-17.4,17V661.2m17.4,-.4h17.3m-17.3,17V661.2m17.3,-.4h17.3m-17.3,17V661.2m17.3,-.4H428m-17.3,17V661.2m17.3,-.4h17.4m-17.4,17V661.2m17.4,-.4h17.7m-17.7,17V661.2m17.3,16.6V661.2M254.4,678.1h17.7m-17.3,17V678.5m17.3,-.4h17.4m-17.4,17V678.5m17.4,-.4h17.3m-17.3,17V678.5m17.3,-.4h17.3m-17.3,17V678.5m17.3,-.4h17.3m-17.3,17V678.5m17.3,-.4h17.3m-17.3,17V678.5m17.3,-.4h17.4m-17.4,17V678.5m17.4,-.4h17.3m-17.3,17V678.5m17.3,-.4h17.3m-17.3,17V678.5m17.3,-.4H428m-17.3,17V678.5m17.3,-.4h17.4m-17.4,17V678.5m17.4,-.4h17.7m-17.7,17V678.5m17.3,16.6V678.5m-208.3,17h17.7m-17.3,16.9V695.8m17.3,-.3h17.4m-17.4,16.9V695.8m17.4,-.3h17.3m-17.3,16.9V695.8m17.3,-.3h17.3m-17.3,16.9V695.8m17.3,-.3h17.3m-17.3,16.9V695.8m17.3,-.3h17.3m-17.3,16.9V695.8m17.3,-.3h17.4m-17.4,16.9V695.8m17.4,-.3h17.3m-17.3,16.9V695.8m17.3,-.3h17.3m-17.3,16.9V695.8m17.3,-.3H428m-17.3,16.9V695.8m17.3,-.3h17.4M428,712.4V695.8m17.4,-.3h17.7m-17.7,16.9V695.8m17.3,16.6V695.8m-208.3,17h17.7m-17.3,16.9V713.2m17.3,-.4h17.4m-17.4,16.9V713.2m17.4,-.4h17.3m-17.3,16.9V713.2m17.3,-.4h17.3m-17.3,16.9V713.2m17.3,-.4h17.3m-17.3,16.9V713.2m17.3,-.4h17.3m-17.3,16.9V713.2m17.3,-.4h17.4m-17.4,16.9V713.2m17.4,-.4h17.3m-17.3,16.9V713.2m17.3,-.4h17.3m-17.3,16.9V713.2m17.3,-.4H428m-17.3,16.9V713.2m17.3,-.4h17.4M428,729.7V713.2m17.4,-.4h17.7m-17.7,16.9V713.2m17.3,16.5V713.2M254.4,730.1h17.7M254.8,747V730.5m17.3,-.4h17.4M272.1,747V730.5m17.4,-.4h17.3M289.5,747V730.5m17.3,-.4h17.3M306.8,747V730.5m17.3,-.4h17.3M324.1,747V730.5m17.3,-.4h17.3M341.4,747V730.5m17.3,-.4h17.4M358.7,747V730.5m17.4,-.4h17.3M376.1,747V730.5m17.3,-.4h17.3M393.4,747V730.5m17.3,-.4H428M410.7,747V730.5m17.3,-.4h17.4M428,747V730.5m17.4,-.4h17.7M445.4,747V730.5M462.7,747V730.5M254.4,747.4h17.7m-17.3,17V747.8m17.3,-.4h17.4m-17.4,17V747.8m17.4,-.4h17.3m-17.3,17V747.8m17.3,-.4h17.3m-17.3,17V747.8m17.3,-.4h17.3m-17.3,17V747.8m17.3,-.4h17.3m-17.3,17V747.8m17.3,-.4h17.4m-17.4,17V747.8m17.4,-.4h17.3m-17.3,17V747.8m17.3,-.4h17.3m-17.3,17V747.8m17.3,-.4H428m-17.3,17V747.8m17.3,-.4h17.4m-17.4,17V747.8m17.4,-.4h17.7m-17.7,17V747.8m17.3,16.6V747.8m-208.3,17h17.7m-17.3,16.9V765.1m17.3,-.3h17.4m-17.4,16.9V765.1m17.4,-.3h17.3m-17.3,16.9V765.1m17.3,-.3h17.3m-17.3,16.9V765.1m17.3,-.3h17.3m-17.3,16.9V765.1m17.3,-.3h17.3m-17.3,16.9V765.1m17.3,-.3h17.4m-17.4,16.9V765.1m17.4,-.3h17.3m-17.3,16.9V765.1m17.3,-.3h17.3m-17.3,16.9V765.1m17.3,-.3H428m-17.3,16.9V765.1m17.3,-.3h17.4M428,781.7V765.1m17.4,-.3h17.7m-17.7,16.9V765.1m17.3,16.6V765.1m-208.3,17h17.7m0,0h17.4m0,0h17.3m0,0h17.3m0,0h17.3m0,0h17.3m0,0h17.4m0,0h17.3m0,0h17.3m0,0H428m0,0h17.4m0,0h17.7" class="g8_95"/>
<path d="M272,730.8l68.8,-35.1l17.6,-34.4L445,695.7l-68.7,34.7L358.6,765L272,730.8Z" class="g1_95"/>
<path d="M272,1009.7v-52h86.4l35,34.2l51.9,17.2l-51.6,35.2L359,1008.8l-51.9,34.6Z" class="g3_95"/>
<path d="M254.4,939.9h17.7m-17.3,16.9V940.3m17.3,-.4h17.4m-17.4,16.9V940.3m17.4,-.4h17.3m-17.3,16.9V940.3m17.3,-.4h17.3m-17.3,16.9V940.3m17.3,-.4h17.3m-17.3,16.9V940.3m17.3,-.4h17.3m-17.3,16.9V940.3m17.3,-.4h17.4m-17.4,16.9V940.3m17.4,-.4h17.3m-17.3,16.9V940.3m17.3,-.4h17.3m-17.3,16.9V940.3m17.3,-.4H428m-17.3,16.9V940.3m17.3,-.4h17.4M428,956.8V940.3m17.4,-.4h17.7m-17.7,16.9V940.3m17.3,16.5V940.3M254.4,957.2h17.7m-17.3,17V957.6m17.3,-.4h17.4m-17.4,17V957.6m17.4,-.4h17.3m-17.3,17V957.6m17.3,-.4h17.3m-17.3,17V957.6m17.3,-.4h17.3m-17.3,17V957.6m17.3,-.4h17.3m-17.3,17V957.6m17.3,-.4h17.4m-17.4,17V957.6m17.4,-.4h17.3m-17.3,17V957.6m17.3,-.4h17.3m-17.3,17V957.6m17.3,-.4H428m-17.3,17V957.6m17.3,-.4h17.4m-17.4,17V957.6m17.4,-.4h17.7m-17.7,17V957.6m17.3,16.6V957.6M254.4,974.5h17.7m-17.3,17V974.9m17.3,-.4h17.4m-17.4,17V974.9m17.4,-.4h17.3m-17.3,17V974.9m17.3,-.4h17.3m-17.3,17V974.9m17.3,-.4h17.3m-17.3,17V974.9m17.3,-.4h17.3m-17.3,17V974.9m17.3,-.4h17.4m-17.4,17V974.9m17.4,-.4h17.3m-17.3,17V974.9m17.3,-.4h17.3m-17.3,17V974.9m17.3,-.4H428m-17.3,17V974.9m17.3,-.4h17.4m-17.4,17V974.9m17.4,-.4h17.7m-17.7,17V974.9m17.3,16.6V974.9m-208.3,17h17.7m-17.3,16.9V992.2m17.3,-.3h17.4m-17.4,16.9V992.2m17.4,-.3h17.3m-17.3,16.9V992.2m17.3,-.3h17.3m-17.3,16.9V992.2m17.3,-.3h17.3m-17.3,16.9V992.2m17.3,-.3h17.3m-17.3,16.9V992.2m17.3,-.3h17.4m-17.4,16.9V992.2m17.4,-.3h17.3m-17.3,16.9V992.2m17.3,-.3h17.3m-17.3,16.9V992.2m17.3,-.3H428m-17.3,16.9V992.2m17.3,-.3h17.4M428,1008.8V992.2m17.4,-.3h17.7m-17.7,16.9V992.2m17.3,16.6V992.2m-208.3,17h17.7m-17.3,16.9v-16.5m17.3,-.4h17.4m-17.4,16.9v-16.5m17.4,-.4h17.3m-17.3,16.9v-16.5m17.3,-.4h17.3m-17.3,16.9v-16.5m17.3,-.4h17.3m-17.3,16.9v-16.5m17.3,-.4h17.3m-17.3,16.9v-16.5m17.3,-.4h17.4m-17.4,16.9v-16.5m17.4,-.4h17.3m-17.3,16.9v-16.5m17.3,-.4h17.3m-17.3,16.9v-16.5m17.3,-.4H428m-17.3,16.9v-16.5m17.3,-.4h17.4M428,1026.1v-16.5m17.4,-.4h17.7m-17.7,16.9v-16.5m17.3,16.5v-16.5m-208.3,16.9h17.7m-17.3,16.9v-16.5m17.3,-.4h17.4m-17.4,16.9v-16.5m17.4,-.4h17.3m-17.3,16.9v-16.5m17.3,-.4h17.3m-17.3,16.9v-16.5m17.3,-.4h17.3m-17.3,16.9v-16.5m17.3,-.4h17.3m-17.3,16.9v-16.5m17.3,-.4h17.4m-17.4,16.9v-16.5m17.4,-.4h17.3m-17.3,16.9v-16.5m17.3,-.4h17.3m-17.3,16.9v-16.5m17.3,-.4H428m-17.3,16.9v-16.5m17.3,-.4h17.4M428,1043.4v-16.5m17.4,-.4h17.7m-17.7,16.9v-16.5m17.3,16.5v-16.5m-208.3,16.9h17.7m-17.3,17v-16.6m17.3,-.4h17.4m-17.4,17v-16.6m17.4,-.4h17.3m-17.3,17v-16.6m17.3,-.4h17.3m-17.3,17v-16.6m17.3,-.4h17.3m-17.3,17v-16.6m17.3,-.4h17.3m-17.3,17v-16.6m17.3,-.4h17.4m-17.4,17v-16.6m17.4,-.4h17.3m-17.3,17v-16.6m17.3,-.4h17.3m-17.3,17v-16.6m17.3,-.4H428m-17.3,17v-16.6m17.3,-.4h17.4m-17.4,17v-16.6m17.4,-.4h17.7m-17.7,17v-16.6m17.3,16.6v-16.6m-208.3,17h17.7m0,0h17.4m0,0h17.3m0,0h17.3m0,0h17.3m0,0h17.3m0,0h17.4m0,0h17.3m0,0h17.3m0,0H428m0,0h17.4m0,0h17.7" class="g8_95"/>
<path d="M272,1009.7v-52h86.4l35,34.2l51.9,17.2L393,1044.3l-34.6,-34.6l-51.3,34.2L272,1009.7Z" class="g1_95"/>
<path d="M272,861.6l51.7,-17.5l34.7,-34.5l35,34.2L445.3,861l-52.1,17.7l-34.6,34.6L323.7,878.5Z" class="g3_95"/>
<path d="M254.4,791.8h17.7m-17.3,17V792.2m17.3,-.4h17.4m-17.4,17V792.2m17.4,-.4h17.3m-17.3,17V792.2m17.3,-.4h17.3m-17.3,17V792.2m17.3,-.4h17.3m-17.3,17V792.2m17.3,-.4h17.3m-17.3,17V792.2m17.3,-.4h17.4m-17.4,17V792.2m17.4,-.4h17.3m-17.3,17V792.2m17.3,-.4h17.3m-17.3,17V792.2m17.3,-.4H428m-17.3,17V792.2m17.3,-.4h17.4m-17.4,17V792.2m17.4,-.4h17.7m-17.7,17V792.2m17.3,16.6V792.2M254.4,809.1h17.7m-17.3,17V809.5m17.3,-.4h17.4m-17.4,17V809.5m17.4,-.4h17.3m-17.3,17V809.5m17.3,-.4h17.3m-17.3,17V809.5m17.3,-.4h17.3m-17.3,17V809.5m17.3,-.4h17.3m-17.3,17V809.5m17.3,-.4h17.4m-17.4,17V809.5m17.4,-.4h17.3m-17.3,17V809.5m17.3,-.4h17.3m-17.3,17V809.5m17.3,-.4H428m-17.3,17V809.5m17.3,-.4h17.4m-17.4,17V809.5m17.4,-.4h17.7m-17.7,17V809.5m17.3,16.6V809.5m-208.3,17h17.7m-17.3,16.9V826.8m17.3,-.3h17.4m-17.4,16.9V826.8m17.4,-.3h17.3m-17.3,16.9V826.8m17.3,-.3h17.3m-17.3,16.9V826.8m17.3,-.3h17.3m-17.3,16.9V826.8m17.3,-.3h17.3m-17.3,16.9V826.8m17.3,-.3h17.4m-17.4,16.9V826.8m17.4,-.3h17.3m-17.3,16.9V826.8m17.3,-.3h17.3m-17.3,16.9V826.8m17.3,-.3H428m-17.3,16.9V826.8m17.3,-.3h17.4M428,843.4V826.8m17.4,-.3h17.7m-17.7,16.9V826.8m17.3,16.6V826.8m-208.3,17h17.7m-17.3,16.9V844.2m17.3,-.4h17.4m-17.4,16.9V844.2m17.4,-.4h17.3m-17.3,16.9V844.2m17.3,-.4h17.3m-17.3,16.9V844.2m17.3,-.4h17.3m-17.3,16.9V844.2m17.3,-.4h17.3m-17.3,16.9V844.2m17.3,-.4h17.4m-17.4,16.9V844.2m17.4,-.4h17.3m-17.3,16.9V844.2m17.3,-.4h17.3m-17.3,16.9V844.2m17.3,-.4H428m-17.3,16.9V844.2m17.3,-.4h17.4M428,860.7V844.2m17.4,-.4h17.7m-17.7,16.9V844.2m17.3,16.5V844.2M254.4,861.1h17.7m-17.3,17V861.5m17.3,-.4h17.4m-17.4,17V861.5m17.4,-.4h17.3m-17.3,17V861.5m17.3,-.4h17.3m-17.3,17V861.5m17.3,-.4h17.3m-17.3,17V861.5m17.3,-.4h17.3m-17.3,17V861.5m17.3,-.4h17.4m-17.4,17V861.5m17.4,-.4h17.3m-17.3,17V861.5m17.3,-.4h17.3m-17.3,17V861.5m17.3,-.4H428m-17.3,17V861.5m17.3,-.4h17.4m-17.4,17V861.5m17.4,-.4h17.7m-17.7,17V861.5m17.3,16.6V861.5M254.4,878.4h17.7m-17.3,17V878.8m17.3,-.4h17.4m-17.4,17V878.8m17.4,-.4h17.3m-17.3,17V878.8m17.3,-.4h17.3m-17.3,17V878.8m17.3,-.4h17.3m-17.3,17V878.8m17.3,-.4h17.3m-17.3,17V878.8m17.3,-.4h17.4m-17.4,17V878.8m17.4,-.4h17.3m-17.3,17V878.8m17.3,-.4h17.3m-17.3,17V878.8m17.3,-.4H428m-17.3,17V878.8m17.3,-.4h17.4m-17.4,17V878.8m17.4,-.4h17.7m-17.7,17V878.8m17.3,16.6V878.8m-208.3,17h17.7m-17.3,16.9V896.1m17.3,-.3h17.4m-17.4,16.9V896.1m17.4,-.3h17.3m-17.3,16.9V896.1m17.3,-.3h17.3m-17.3,16.9V896.1m17.3,-.3h17.3m-17.3,16.9V896.1m17.3,-.3h17.3m-17.3,16.9V896.1m17.3,-.3h17.4m-17.4,16.9V896.1m17.4,-.3h17.3m-17.3,16.9V896.1m17.3,-.3h17.3m-17.3,16.9V896.1m17.3,-.3H428m-17.3,16.9V896.1m17.3,-.3h17.4M428,912.7V896.1m17.4,-.3h17.7m-17.7,16.9V896.1m17.3,16.6V896.1m-208.3,17h17.7M254.8,930V913.5m17.3,-.4h17.4M272.1,930V913.5m17.4,-.4h17.3M289.5,930V913.5m17.3,-.4h17.3M306.8,930V913.5m17.3,-.4h17.3M324.1,930V913.5m17.3,-.4h17.3M341.4,930V913.5m17.3,-.4h17.4M358.7,930V913.5m17.4,-.4h17.3M376.1,930V913.5m17.3,-.4h17.3M393.4,930V913.5m17.3,-.4H428M410.7,930V913.5m17.3,-.4h17.4M428,930V913.5m17.4,-.4h17.7M445.4,930V913.5M462.7,930V913.5M254.4,930.4h17.7m0,0h17.4m0,0h17.3m0,0h17.3m0,0h17.3m0,0h17.3m0,0h17.4m0,0h17.3m0,0h17.3m0,0H428m0,0h17.4m0,0h17.7" class="g8_95"/>
<path d="M272,861.6l51.7,-17.5l34.7,-34.5l35,34.2L445.3,861l-52.1,17.7l-34.6,34.6L323.7,878.5L272,861.6Z" class="g1_95"/>
<path d="M655.9,714.8L639,679.3l34.2,-16.9l34.6,16l-17.7,36l.4,34.2l51.3,17.7l-137.9,-.4l52,-16.5Z" class="g3_95"/>
<path d="M585.9,644.6h17.7m-17.3,16.9V645m17.3,-.4H621m-17.4,16.9V645m17.4,-.4h17.3M621,661.5V645m17.3,-.4h17.3m-17.3,16.9V645m17.3,-.4h17.3m-17.3,16.9V645m17.3,-.4h17.3m-17.3,16.9V645m17.3,-.4h17.4m-17.4,16.9V645m17.4,-.4h17.3m-17.3,16.9V645m17.3,-.4h17.3m-17.3,16.9V645m17.3,-.4h17.3m-17.3,16.9V645m17.3,-.4h17.4m-17.4,16.9V645m17.4,-.4h17.7m-17.7,16.9V645m17.3,16.5V645M585.9,661.9h17.7m-17.3,16.9V662.3m17.3,-.4H621m-17.4,16.9V662.3m17.4,-.4h17.3M621,678.8V662.3m17.3,-.4h17.3m-17.3,16.9V662.3m17.3,-.4h17.3m-17.3,16.9V662.3m17.3,-.4h17.3m-17.3,16.9V662.3m17.3,-.4h17.4m-17.4,16.9V662.3m17.4,-.4h17.3m-17.3,16.9V662.3m17.3,-.4h17.3m-17.3,16.9V662.3m17.3,-.4h17.3m-17.3,16.9V662.3m17.3,-.4h17.4m-17.4,16.9V662.3m17.4,-.4h17.7m-17.7,16.9V662.3m17.3,16.5V662.3M585.9,679.2h17.7m-17.3,17V679.6m17.3,-.4H621m-17.4,17V679.6m17.4,-.4h17.3m-17.3,17V679.6m17.3,-.4h17.3m-17.3,17V679.6m17.3,-.4h17.3m-17.3,17V679.6m17.3,-.4h17.3m-17.3,17V679.6m17.3,-.4h17.4m-17.4,17V679.6m17.4,-.4h17.3m-17.3,17V679.6m17.3,-.4h17.3m-17.3,17V679.6m17.3,-.4h17.3m-17.3,17V679.6m17.3,-.4h17.4m-17.4,17V679.6m17.4,-.4h17.7m-17.7,17V679.6m17.3,16.6V679.6M585.9,696.5h17.7m-17.3,17V696.9m17.3,-.4H621m-17.4,17V696.9m17.4,-.4h17.3m-17.3,17V696.9m17.3,-.4h17.3m-17.3,17V696.9m17.3,-.4h17.3m-17.3,17V696.9m17.3,-.4h17.3m-17.3,17V696.9m17.3,-.4h17.4m-17.4,17V696.9m17.4,-.4h17.3m-17.3,17V696.9m17.3,-.4h17.3m-17.3,17V696.9m17.3,-.4h17.3m-17.3,17V696.9m17.3,-.4h17.4m-17.4,17V696.9m17.4,-.4h17.7m-17.7,17V696.9m17.3,16.6V696.9m-208.3,17h17.7m-17.3,16.9V714.2m17.3,-.3H621m-17.4,16.9V714.2m17.4,-.3h17.3M621,730.8V714.2m17.3,-.3h17.3m-17.3,16.9V714.2m17.3,-.3h17.3m-17.3,16.9V714.2m17.3,-.3h17.3m-17.3,16.9V714.2m17.3,-.3h17.4m-17.4,16.9V714.2m17.4,-.3h17.3m-17.3,16.9V714.2m17.3,-.3h17.3m-17.3,16.9V714.2m17.3,-.3h17.3m-17.3,16.9V714.2m17.3,-.3h17.4m-17.4,16.9V714.2m17.4,-.3h17.7m-17.7,16.9V714.2m17.3,16.6V714.2m-208.3,17h17.7m-17.3,16.9V731.6m17.3,-.4H621m-17.4,16.9V731.6m17.4,-.4h17.3M621,748.1V731.6m17.3,-.4h17.3m-17.3,16.9V731.6m17.3,-.4h17.3m-17.3,16.9V731.6m17.3,-.4h17.3m-17.3,16.9V731.6m17.3,-.4h17.4m-17.4,16.9V731.6m17.4,-.4h17.3m-17.3,16.9V731.6m17.3,-.4h17.3m-17.3,16.9V731.6m17.3,-.4h17.3m-17.3,16.9V731.6m17.3,-.4h17.4m-17.4,16.9V731.6m17.4,-.4h17.7m-17.7,16.9V731.6m17.3,16.5V731.6M585.9,748.5h17.7m-17.3,17V748.9m17.3,-.4H621m-17.4,17V748.9m17.4,-.4h17.3m-17.3,17V748.9m17.3,-.4h17.3m-17.3,17V748.9m17.3,-.4h17.3m-17.3,17V748.9m17.3,-.4h17.3m-17.3,17V748.9m17.3,-.4h17.4m-17.4,17V748.9m17.4,-.4h17.3m-17.3,17V748.9m17.3,-.4h17.3m-17.3,17V748.9m17.3,-.4h17.3m-17.3,17V748.9m17.3,-.4h17.4m-17.4,17V748.9m17.4,-.4h17.7m-17.7,17V748.9m17.3,16.6V748.9M585.9,765.8h17.7m-17.3,17V766.2m17.3,-.4H621m-17.4,17V766.2m17.4,-.4h17.3m-17.3,17V766.2m17.3,-.4h17.3m-17.3,17V766.2m17.3,-.4h17.3m-17.3,17V766.2m17.3,-.4h17.3m-17.3,17V766.2m17.3,-.4h17.4m-17.4,17V766.2m17.4,-.4h17.3m-17.3,17V766.2m17.3,-.4h17.3m-17.3,17V766.2m17.3,-.4h17.3m-17.3,17V766.2m17.3,-.4h17.4m-17.4,17V766.2m17.4,-.4h17.7m-17.7,17V766.2m17.3,16.6V766.2m-208.3,17h17.7m0,0H621m0,0h17.3m0,0h17.3m0,0h17.3m0,0h17.3m0,0h17.4m0,0h17.3m0,0h17.3m0,0h17.3m0,0h17.4m0,0h17.7" class="g8_95"/>
<path d="M603.2,765.9l52.2,-17.3l.2,-34.5L638.1,679.3l35.1,-16.9l34.6,16.4l-17.5,35.1l-.2,34.2l51.7,18l-138.6,-.2Z" class="g1_95"/>
<path d="M603.5,1044.8v-86h86.4l35,34.2l51.6,-34l-51.3,86.4l-34.7,-35.5l-51.9,34.6Z" class="g3_95"/>
<path d="M585.9,941h17.7m-17.3,16.9V941.4m17.3,-.4H621m-17.4,16.9V941.4M621,941h17.3M621,957.9V941.4m17.3,-.4h17.3m-17.3,16.9V941.4m17.3,-.4h17.3m-17.3,16.9V941.4m17.3,-.4h17.3m-17.3,16.9V941.4m17.3,-.4h17.4m-17.4,16.9V941.4m17.4,-.4h17.3m-17.3,16.9V941.4m17.3,-.4h17.3m-17.3,16.9V941.4m17.3,-.4h17.3m-17.3,16.9V941.4m17.3,-.4h17.4m-17.4,16.9V941.4m17.4,-.4h17.7m-17.7,16.9V941.4m17.3,16.5V941.4M585.9,958.3h17.7m-17.3,16.9V958.7m17.3,-.4H621m-17.4,16.9V958.7m17.4,-.4h17.3M621,975.2V958.7m17.3,-.4h17.3m-17.3,16.9V958.7m17.3,-.4h17.3m-17.3,16.9V958.7m17.3,-.4h17.3m-17.3,16.9V958.7m17.3,-.4h17.4m-17.4,16.9V958.7m17.4,-.4h17.3m-17.3,16.9V958.7m17.3,-.4h17.3m-17.3,16.9V958.7m17.3,-.4h17.3m-17.3,16.9V958.7m17.3,-.4h17.4m-17.4,16.9V958.7m17.4,-.4h17.7m-17.7,16.9V958.7m17.3,16.5V958.7M585.9,975.6h17.7m-17.3,17V976m17.3,-.4H621m-17.4,17V976m17.4,-.4h17.3m-17.3,17V976m17.3,-.4h17.3m-17.3,17V976m17.3,-.4h17.3m-17.3,17V976m17.3,-.4h17.3m-17.3,17V976m17.3,-.4h17.4m-17.4,17V976m17.4,-.4h17.3m-17.3,17V976m17.3,-.4h17.3m-17.3,17V976m17.3,-.4h17.3m-17.3,17V976m17.3,-.4h17.4m-17.4,17V976m17.4,-.4h17.7m-17.7,17V976m17.3,16.6V976M585.9,992.9h17.7m-17.3,17V993.3m17.3,-.4H621m-17.4,17V993.3m17.4,-.4h17.3m-17.3,17V993.3m17.3,-.4h17.3m-17.3,17V993.3m17.3,-.4h17.3m-17.3,17V993.3m17.3,-.4h17.3m-17.3,17V993.3m17.3,-.4h17.4m-17.4,17V993.3m17.4,-.4h17.3m-17.3,17V993.3m17.3,-.4h17.3m-17.3,17V993.3m17.3,-.4h17.3m-17.3,17V993.3m17.3,-.4h17.4m-17.4,17V993.3m17.4,-.4h17.7m-17.7,17V993.3m17.3,16.6V993.3m-208.3,17h17.7m-17.3,16.9v-16.6m17.3,-.3H621m-17.4,16.9v-16.6m17.4,-.3h17.3M621,1027.2v-16.6m17.3,-.3h17.3m-17.3,16.9v-16.6m17.3,-.3h17.3m-17.3,16.9v-16.6m17.3,-.3h17.3m-17.3,16.9v-16.6m17.3,-.3h17.4m-17.4,16.9v-16.6m17.4,-.3h17.3m-17.3,16.9v-16.6m17.3,-.3h17.3m-17.3,16.9v-16.6m17.3,-.3h17.3m-17.3,16.9v-16.6m17.3,-.3h17.4m-17.4,16.9v-16.6m17.4,-.3h17.7m-17.7,16.9v-16.6m17.3,16.6v-16.6m-208.3,17h17.7m-17.3,16.9V1028m17.3,-.4H621m-17.4,16.9V1028m17.4,-.4h17.3M621,1044.5V1028m17.3,-.4h17.3m-17.3,16.9V1028m17.3,-.4h17.3m-17.3,16.9V1028m17.3,-.4h17.3m-17.3,16.9V1028m17.3,-.4h17.4m-17.4,16.9V1028m17.4,-.4h17.3m-17.3,16.9V1028m17.3,-.4h17.3m-17.3,16.9V1028m17.3,-.4h17.3m-17.3,16.9V1028m17.3,-.4h17.4m-17.4,16.9V1028m17.4,-.4h17.7m-17.7,16.9V1028m17.3,16.5V1028m-208.3,16.9h17.7m-17.3,17v-16.6m17.3,-.4H621m-17.4,17v-16.6m17.4,-.4h17.3m-17.3,17v-16.6m17.3,-.4h17.3m-17.3,17v-16.6m17.3,-.4h17.3m-17.3,17v-16.6m17.3,-.4h17.3m-17.3,17v-16.6m17.3,-.4h17.4m-17.4,17v-16.6m17.4,-.4h17.3m-17.3,17v-16.6m17.3,-.4h17.3m-17.3,17v-16.6m17.3,-.4h17.3m-17.3,17v-16.6m17.3,-.4h17.4m-17.4,17v-16.6m17.4,-.4h17.7m-17.7,17v-16.6m17.3,16.6v-16.6m-208.3,16.9h17.7m0,0H621m0,0h17.3m0,0h17.3m0,0h17.3m0,0h17.3m0,0h17.4m0,0h17.3m0,0h17.3m0,0h17.3m0,0h17.4m0,0h17.7" class="g8_95"/>
<path d="M603.5,1045.6l.4,-86.8h86l35,34.2l51.6,-34.4l-52,86.8l-34.6,-34.6L638.6,1045l-35.1,.6Z" class="g1_95"/>
<path d="M655.4,810.5l18.2,35.1L777.1,810.5L724.7,913.6L706.5,879.8l-103,33.8Z" class="g3_95"/>
<path d="M585.9,792.9h17.7m-17.3,16.9V793.3m17.3,-.4H621m-17.4,16.9V793.3m17.4,-.4h17.3M621,809.8V793.3m17.3,-.4h17.3m-17.3,16.9V793.3m17.3,-.4h17.3m-17.3,16.9V793.3m17.3,-.4h17.3m-17.3,16.9V793.3m17.3,-.4h17.4m-17.4,16.9V793.3m17.4,-.4h17.3m-17.3,16.9V793.3m17.3,-.4h17.3m-17.3,16.9V793.3m17.3,-.4h17.3m-17.3,16.9V793.3m17.3,-.4h17.4m-17.4,16.9V793.3m17.4,-.4h17.7m-17.7,16.9V793.3m17.3,16.5V793.3M585.9,810.2h17.7m-17.3,17V810.6m17.3,-.4H621m-17.4,17V810.6m17.4,-.4h17.3m-17.3,17V810.6m17.3,-.4h17.3m-17.3,17V810.6m17.3,-.4h17.3m-17.3,17V810.6m17.3,-.4h17.3m-17.3,17V810.6m17.3,-.4h17.4m-17.4,17V810.6m17.4,-.4h17.3m-17.3,17V810.6m17.3,-.4h17.3m-17.3,17V810.6m17.3,-.4h17.3m-17.3,17V810.6m17.3,-.4h17.4m-17.4,17V810.6m17.4,-.4h17.7m-17.7,17V810.6m17.3,16.6V810.6M585.9,827.5h17.7m-17.3,17V827.9m17.3,-.4H621m-17.4,17V827.9m17.4,-.4h17.3m-17.3,17V827.9m17.3,-.4h17.3m-17.3,17V827.9m17.3,-.4h17.3m-17.3,17V827.9m17.3,-.4h17.3m-17.3,17V827.9m17.3,-.4h17.4m-17.4,17V827.9m17.4,-.4h17.3m-17.3,17V827.9m17.3,-.4h17.3m-17.3,17V827.9m17.3,-.4h17.3m-17.3,17V827.9m17.3,-.4h17.4m-17.4,17V827.9m17.4,-.4h17.7m-17.7,17V827.9m17.3,16.6V827.9m-208.3,17h17.7m-17.3,16.9V845.3m17.3,-.4H621m-17.4,16.9V845.3m17.4,-.4h17.3M621,861.8V845.3m17.3,-.4h17.3m-17.3,16.9V845.3m17.3,-.4h17.3m-17.3,16.9V845.3m17.3,-.4h17.3m-17.3,16.9V845.3m17.3,-.4h17.4m-17.4,16.9V845.3m17.4,-.4h17.3m-17.3,16.9V845.3m17.3,-.4h17.3m-17.3,16.9V845.3m17.3,-.4h17.3m-17.3,16.9V845.3m17.3,-.4h17.4m-17.4,16.9V845.3m17.4,-.4h17.7m-17.7,16.9V845.3m17.3,16.5V845.3M585.9,862.2h17.7m-17.3,16.9V862.6m17.3,-.4H621m-17.4,16.9V862.6m17.4,-.4h17.3M621,879.1V862.6m17.3,-.4h17.3m-17.3,16.9V862.6m17.3,-.4h17.3m-17.3,16.9V862.6m17.3,-.4h17.3m-17.3,16.9V862.6m17.3,-.4h17.4m-17.4,16.9V862.6m17.4,-.4h17.3m-17.3,16.9V862.6m17.3,-.4h17.3m-17.3,16.9V862.6m17.3,-.4h17.3m-17.3,16.9V862.6m17.3,-.4h17.4m-17.4,16.9V862.6m17.4,-.4h17.7m-17.7,16.9V862.6m17.3,16.5V862.6M585.9,879.5h17.7m-17.3,17V879.9m17.3,-.4H621m-17.4,17V879.9m17.4,-.4h17.3m-17.3,17V879.9m17.3,-.4h17.3m-17.3,17V879.9m17.3,-.4h17.3m-17.3,17V879.9m17.3,-.4h17.3m-17.3,17V879.9m17.3,-.4h17.4m-17.4,17V879.9m17.4,-.4h17.3m-17.3,17V879.9m17.3,-.4h17.3m-17.3,17V879.9m17.3,-.4h17.3m-17.3,17V879.9m17.3,-.4h17.4m-17.4,17V879.9m17.4,-.4h17.7m-17.7,17V879.9m17.3,16.6V879.9M585.9,896.8h17.7m-17.3,17V897.2m17.3,-.4H621m-17.4,17V897.2m17.4,-.4h17.3m-17.3,17V897.2m17.3,-.4h17.3m-17.3,17V897.2m17.3,-.4h17.3m-17.3,17V897.2m17.3,-.4h17.3m-17.3,17V897.2m17.3,-.4h17.4m-17.4,17V897.2m17.4,-.4h17.3m-17.3,17V897.2m17.3,-.4h17.3m-17.3,17V897.2m17.3,-.4h17.3m-17.3,17V897.2m17.3,-.4h17.4m-17.4,17V897.2m17.4,-.4h17.7m-17.7,17V897.2m17.3,16.6V897.2m-208.3,17h17.7m-17.3,16.9V914.5m17.3,-.3H621m-17.4,16.9V914.5m17.4,-.3h17.3M621,931.1V914.5m17.3,-.3h17.3m-17.3,16.9V914.5m17.3,-.3h17.3m-17.3,16.9V914.5m17.3,-.3h17.3m-17.3,16.9V914.5m17.3,-.3h17.4m-17.4,16.9V914.5m17.4,-.3h17.3m-17.3,16.9V914.5m17.3,-.3h17.3m-17.3,16.9V914.5m17.3,-.3h17.3m-17.3,16.9V914.5m17.3,-.3h17.4m-17.4,16.9V914.5m17.4,-.3h17.7m-17.7,16.9V914.5m17.3,16.6V914.5m-208.3,17h17.7m0,0H621m0,0h17.3m0,0h17.3m0,0h17.3m0,0h17.3m0,0h17.4m0,0h17.3m0,0h17.3m0,0h17.3m0,0h17.4m0,0h17.7" class="g8_95"/>
<path d="M655.9,810.3l17.3,34.8l103.7,-35L724.7,914L707.2,879.8L603.2,914L655.9,810.3Z" class="g1_95"/>
</svg>