<?xml version="1.0" encoding="UTF-8" standalone="no"?>
<!DOCTYPE svg PUBLIC "-//W3C//DTD SVG 1.1//EN"
"http://www.w3.org/Graphics/SVG/1.1/DTD/svg11.dtd">
<svg viewBox="0 0 909 1147" version="1.1" xmlns="http://www.w3.org/2000/svg" xmlns:xlink="http://www.w3.org/1999/xlink">
<defs>
<clipPath id="c0_73"><path d="M185.1,455.6V319.3h199V455.6Z"/></clipPath>
<clipPath id="c1_73"><path d="M139.8,93.1v-18h30.3v18Z"/></clipPath>
<clipPath id="c2_73"><path d="M185.1,883.2V750.6h199V883.2Z"/></clipPath>
<style type="text/css"><![CDATA[
.g0_73{
fill: #B6D774;
}
.g1_73{
fill: none;
stroke: #000;
stroke-width: 0.763;
}
.g2_73{
fill: #000;
}
.g3_73{
fill: none;
stroke: #000;
stroke-width: 0.763;
stroke-miterlimit: 2;
}
.g4_73{
fill: none;
stroke: #000;
stroke-width: 1.069;
stroke-miterlimit: 2;
}
.g5_73{
fill: none;
stroke: #000;
stroke-width: 1.069;
stroke-miterlimit: 2;
stroke-dasharray: 6,4;
}
.g6_73{
fill: #FFF;
}
.g7_73{
fill: #FFF1E0;
}
.g8_73{
fill: none;
stroke: #0EA5DF;
stroke-width: 3.055;
}
.g9_73{
fill: #E8F1FA;
}
.ga_73{
fill: #0C4B7F;
}
.gb_73{
fill: #0EA5DF;
}
.gc_73{
fill: none;
stroke: #0EA5DF;
stroke-width: 0.763;
}
.gd_73{
fill: none;
stroke: #00A651;
stroke-width: 0.763;
}
.ge_73{
fill: none;
stroke: #D82C20;
stroke-width: 0.763;
}
.gf_73{
fill: #D82C20;
}
.gg_73{
fill: #00A651;
}
.gh_73{
fill: none;
stroke: #000;
stroke-width: 0.763;
stroke-linejoin: round;
}
.gi_73{
fill: none;
stroke: #000;
stroke-width: 1.069;
stroke-linejoin: round;
}
.gj_73{
fill: none;
stroke: #D82C20;
stroke-width: 1.069;
stroke-linejoin: round;
}
.gk_73{
fill: none;
stroke: #00A651;
stroke-width: 1.069;
stroke-linejoin: round;
}
.gl_73{
fill: none;
stroke: #0EA5DF;
stroke-width: 1.069;
stroke-linejoin: round;
}
]]></style>
</defs>
<path d="M835.8,1131h73.6v-51.5H835.8V1131Z" class="g0_73"/>
<path d="M630.7,140.3V96.7M437.6,399.1H449m-11.4,37.8H449m67.5,0h11.4" class="g1_73"/>
<path fill-rule="evenodd" d="M298.4,350.6l-3.5,4.8h3Zm1.8,-2.9l-1,10.1c0,.4,0,.7,0,.9c0,.2,0,.4,.1,.5c.1,.2,.3,.3,.5,.4c.2,.1,.5,.1,.9,.1l-.1,.4h-4.7l.1,-.4h.2c.4,0,.7,0,.9,-.2c.2,-.1,.3,-.3,.4,-.6c.1,-.2,.1,-.6,.2,-1.3l.1,-1.5h-3.4l-1.3,1.7c-.2,.3,-.4,.6,-.5,.8c-.1,.1,-.1,.3,-.1,.4c0,.2,.1,.4,.2,.5c.2,.2,.5,.2,.8,.2l-.1,.4h-3.6l.1,-.4c.5,0,.8,-.1,1.2,-.4c.3,-.3,.8,-.9,1.5,-1.8l7.2,-9.8Z" class="g2_73"/>
<path fill-rule="evenodd" d="M304.9,356.3l2,-1h.2v6.9c0,.4,0,.7,0,.8c.1,.1,.1,.2,.3,.3c.1,0,.3,.1,.7,.1v.2H305v-.2c.4,0,.7,-.1,.8,-.1c.1,-.1,.2,-.2,.2,-.3c.1,-.1,.1,-.4,.1,-.8v-4.4c0,-.6,0,-1,-.1,-1.1c0,-.2,-.1,-.3,-.1,-.3c-.1,-.1,-.2,-.1,-.3,-.1c-.1,0,-.4,0,-.6,.2Z" class="g2_73"/>
<path d="M278.7,371.2c-3.8,-4.8,-3.7,-10,.2,-15.6" class="g3_73"/>
<path fill-rule="evenodd" d="M279.3,364.3c-.5,-.4,-.6,-1.1,-.2,-1.6c.4,-.5,1.1,-.6,1.6,-.2c.5,.4,.6,1.1,.2,1.6c-.4,.5,-1.1,.6,-1.6,.2Z" class="g2_73"/>
<g clip-path="url(#c0_73)">
<path fill-rule="evenodd" d="M193.7,446.2l-3.5,4.8h3Zm1.8,-3l-1,10.1c0,.5,0,.8,0,1c0,.2,0,.4,.1,.5c.1,.2,.3,.3,.5,.4c.2,.1,.5,.1,.9,.1l-.1,.3h-4.7l.1,-.3h.2c.4,0,.7,-.1,.9,-.2c.2,-.2,.3,-.3,.4,-.6c.1,-.2,.2,-.6,.2,-1.3l.2,-1.6h-3.5l-1.3,1.7c-.2,.4,-.4,.7,-.5,.8c-.1,.2,-.1,.3,-.1,.5c0,.2,.1,.3,.2,.5c.2,.1,.5,.2,.8,.2l-.1,.3h-3.6l.1,-.3c.5,0,.9,-.2,1.2,-.4c.3,-.3,.8,-.9,1.5,-1.8l7.3,-9.9Z" class="g2_73"/>
<path fill-rule="evenodd" d="M376,454.7c.7,.1,1.2,.1,1.6,.1c.9,0,1.7,-.2,2.4,-.8c.7,-.6,1.1,-1.3,1.1,-2.3c0,-.7,-.2,-1.3,-.7,-1.7c-.4,-.4,-1.1,-.6,-2.1,-.6c-.2,0,-.4,0,-.7,0Zm1.8,-6c.4,0,.7,.1,.8,.1c1.3,0,2.2,-.3,2.8,-.9c.6,-.5,.9,-1.2,.9,-2c0,-.6,-.2,-1.1,-.5,-1.4c-.4,-.4,-1,-.5,-1.8,-.5c-.2,0,-.5,0,-.8,.1Zm-1.8,-5l.1,-.3h4.3c.8,0,1.4,.1,2,.3c.6,.2,1,.5,1.3,1c.3,.4,.4,.8,.4,1.2c0,.7,-.3,1.4,-.8,1.9c-.5,.6,-1.3,1,-2.4,1.3c.7,.3,1.2,.6,1.6,1.1c.3,.4,.5,.9,.5,1.5c0,.6,-.1,1.1,-.4,1.7c-.4,.5,-.8,1,-1.2,1.3c-.5,.3,-1.1,.5,-1.8,.7c-.5,.1,-1.3,.1,-2.3,.1h-4.4l.1,-.3c.4,0,.8,-.1,.9,-.2c.3,-.1,.4,-.2,.5,-.4c.2,-.2,.4,-.7,.6,-1.5l2.2,-7.4c.2,-.6,.3,-1,.3,-1.3c0,-.2,-.1,-.4,-.3,-.5c-.2,-.1,-.5,-.2,-.9,-.2c-.1,0,-.2,0,-.3,0Z" class="g2_73"/>
</g>
<path fill-rule="evenodd" d="M255.2,319.3l-.9,3.9H254v-1c-.1,-.3,-.1,-.7,-.2,-.9c-.1,-.3,-.3,-.6,-.5,-.8c-.2,-.2,-.5,-.3,-.8,-.5c-.4,-.1,-.7,-.1,-1.1,-.1c-1.1,0,-2,.3,-2.8,.8c-1,.8,-1.8,1.8,-2.4,3.2c-.5,1.1,-.7,2.3,-.7,3.4c0,1.2,.3,2.1,1,2.8c.7,.7,1.6,1.1,2.7,1.1c.8,0,1.5,-.2,2.2,-.6c.6,-.3,1.2,-.9,1.8,-1.7h.4c-.7,1.1,-1.4,1.8,-2.2,2.3c-.8,.5,-1.7,.8,-2.9,.8c-.9,0,-1.8,-.2,-2.6,-.7c-.7,-.4,-1.3,-1,-1.7,-1.7c-.4,-.8,-.6,-1.6,-.6,-2.4c0,-1.4,.3,-2.7,1,-3.9c.7,-1.3,1.7,-2.2,3,-3c1.2,-.7,2.4,-1,3.7,-1c.6,0,1.3,.1,2,.4c.3,.1,.5,.2,.7,.2c.1,0,.3,-.1,.4,-.1c.1,-.1,.3,-.3,.5,-.5Z" class="g2_73"/>
<path d="M200.1,449H371.8L256.2,332.9L200.1,449Z" class="g4_73"/>
<path d="M200.3,449.4l85.9,-85.8" class="g5_73"/>
<path fill-rule="evenodd" d="M317.5,377.9c-.3,0,-.7,.2,-1.2,.5c-.6,.5,-1.1,1.3,-1.6,2.3c-.5,1,-.7,1.9,-.7,2.7c0,.4,.1,.7,.3,1c.2,.2,.4,.3,.7,.3c.6,0,1.4,-.5,2.1,-1.4c1,-1.3,1.6,-2.6,1.6,-4c0,-.5,-.1,-.8,-.3,-1.1c-.2,-.2,-.5,-.3,-.9,-.3m3.2,-.5l-1.7,6.1l-.2,.8c0,.1,0,.2,0,.2c0,.1,0,.2,.1,.3c0,0,.1,0,.1,0c.1,0,.2,0,.3,-.1c.3,-.2,.6,-.5,1,-1.1l.3,.2c-.4,.7,-.9,1.1,-1.3,1.5c-.4,.3,-.8,.4,-1.2,.4c-.3,0,-.5,0,-.6,-.1c-.1,-.2,-.2,-.4,-.2,-.6c0,-.3,.1,-.7,.2,-1.2l.2,-.6c-.8,1,-1.5,1.7,-2.2,2.1c-.4,.3,-.9,.4,-1.3,.4c-.5,0,-.8,-.1,-1.2,-.5c-.3,-.4,-.4,-.9,-.4,-1.5c0,-.9,.2,-1.9,.8,-3c.6,-1,1.3,-1.9,2.2,-2.5c.7,-.5,1.3,-.8,1.9,-.8c.4,0,.7,.1,.9,.3c.3,.2,.5,.5,.6,1l.3,-1.1Z" class="g2_73"/>
<path fill-rule="evenodd" d="M261.6,425.7h21.7v-23H261.6v23Z" class="g6_73"/>
<path d="M183.8,210H834.9V65H183.8V210Z" class="g7_73"/>
<path d="M636,98.3h14.7M258.6,151.7h14.7m106,0h14.8m121.1,0H530m81.2,0H626" class="g1_73"/>
<path d="M72.7,233.1H834.9" class="g8_73"/>
<path d="M184.8,647.3H835.9V499.2H184.8V647.3Z" class="g7_73"/>
<path d="M186.1,1078.3H836.8V909.4H186.1v168.9Z" class="g9_73"/>
<path d="M74.6,908.8H836.8" class="g8_73"/>
<path d="M135.9,536.9h39.6V499.4H135.9v37.5Z" class="ga_73"/>
<path d="M134.9,102.4h39.7V65H134.9v37.4Z" class="gb_73"/>
<path clip-path="url(#c1_73)" d="M155.2,87.5c-2.1,.2,-3.8,-1.5,-3.7,-3.6c.1,-1.7,1.5,-3.1,3.2,-3.2c2.1,-.1,3.8,1.6,3.7,3.6c-.2,1.7,-1.5,3.1,-3.2,3.2m.2,2.9c-3.9,.3,-7,-2.9,-6.8,-6.7c.2,-3.2,2.8,-5.7,5.9,-5.9c3.9,-.3,7,2.9,6.8,6.7c-.2,3.2,-2.8,5.7,-5.9,5.9m-.5,-15.3c-5.7,0,-11,3.2,-14.8,8.3c-.3,.4,-.3,1,0,1.4c3.8,5.2,9.1,8.3,14.8,8.3c5.8,0,11,-3.1,14.9,-8.3c.3,-.4,.3,-1,0,-1.4c-3.9,-5.1,-9.1,-8.3,-14.9,-8.3Z" class="g6_73"/>
<path d="M233.2,569.8H248m-14.8,45.6H271" class="gc_73"/>
<path d="M372.7,569.8h14.7m-14.7,45.6h37.8" class="gd_73"/>
<path d="M529.9,569.8h14.7m-14.7,45.6h37.8" class="ge_73"/>
<path d="M715.6,604.9l-2.3,8c1,-1.5,1.8,-2.5,2.3,-3c.6,-.5,1.1,-.7,1.6,-.7c.3,0,.5,0,.7,.2c.2,.2,.3,.4,.3,.7c0,.4,-.1,.8,-.3,1.4l-1,3.4c-.1,.4,-.2,.6,-.2,.7c0,.1,.1,.1,.1,.2c.1,0,.1,.1,.2,.1c0,0,.1,-.1,.2,-.2c.3,-.2,.6,-.5,.9,-1l.3,.2c-.2,.3,-.4,.6,-.8,1c-.3,.3,-.6,.5,-.8,.7c-.3,.1,-.5,.2,-.7,.2c-.2,0,-.3,-.1,-.5,-.2c-.1,-.1,-.2,-.3,-.2,-.5c0,-.3,.1,-.7,.3,-1.4l1,-3.2c.1,-.4,.2,-.8,.2,-1c0,-.1,-.1,-.2,-.1,-.3c-.1,0,-.2,-.1,-.3,-.1c-.2,0,-.4,.1,-.6,.2c-.3,.2,-.8,.7,-1.2,1.3c-.2,.2,-.6,.8,-1.4,2c-.2,.4,-.4,.8,-.5,1.3l-.5,1.7H711l2.7,-9.4l.3,-1c0,-.2,-.1,-.3,-.2,-.4c-.1,-.1,-.2,-.2,-.4,-.2c-.1,0,-.2,.1,-.5,.1h-.1v-.3Z" class="gb_73"/>
<path d="M746.5,567.2l-2.3,8c1,-1.5,1.8,-2.5,2.4,-3c.5,-.5,1.1,-.7,1.6,-.7c.2,0,.5,0,.6,.2c.2,.2,.3,.5,.3,.8c0,.3,-.1,.7,-.2,1.3l-1,3.4c-.2,.4,-.2,.6,-.2,.7q0,.1,0,.2c.1,0,.1,.1,.2,.1c.1,0,.2,-.1,.2,-.2c.4,-.2,.7,-.5,1,-1l.2,.2c-.2,.3,-.4,.6,-.7,1c-.4,.3,-.7,.5,-.9,.7c-.2,.1,-.5,.2,-.6,.2c-.2,0,-.4,-.1,-.5,-.2c-.2,-.1,-.2,-.3,-.2,-.5c0,-.2,.1,-.7,.3,-1.4l.9,-3.2c.1,-.4,.2,-.8,.2,-1c0,-.1,0,-.2,-.1,-.3c-.1,0,-.2,-.1,-.3,-.1c-.1,0,-.3,.1,-.5,.2c-.4,.2,-.8,.7,-1.3,1.3c-.1,.2,-.6,.8,-1.3,2c-.3,.4,-.4,.8,-.6,1.3l-.5,1.7h-1.3l2.8,-9.4l.2,-1c0,-.2,0,-.3,-.1,-.4c-.2,-.1,-.3,-.2,-.5,-.2c-.1,0,-.2,.1,-.4,.1h-.2v-.3Z" class="gf_73"/>
<path d="M715.6,575.9l-2.3,8c1,-1.5,1.7,-2.5,2.3,-3c.6,-.5,1.1,-.8,1.6,-.8c.3,0,.5,.1,.6,.3c.2,.2,.3,.4,.3,.7c0,.4,-.1,.8,-.2,1.3l-1,3.5c-.1,.4,-.2,.6,-.2,.7c0,0,0,.1,.1,.2c0,0,.1,0,.1,0c.1,0,.2,0,.3,-.1c.3,-.2,.6,-.5,.9,-1l.2,.2c-.1,.3,-.4,.6,-.7,.9c-.4,.4,-.6,.6,-.9,.8c-.2,.1,-.4,.2,-.6,.2c-.2,0,-.4,-.1,-.5,-.2c-.1,-.2,-.2,-.3,-.2,-.5c0,-.3,.1,-.7,.3,-1.4l.9,-3.3c.1,-.4,.2,-.7,.2,-.9c0,-.1,0,-.2,-.1,-.3c-.1,-.1,-.2,-.1,-.3,-.1c-.1,0,-.3,.1,-.5,.2c-.4,.2,-.8,.7,-1.3,1.3c-.1,.1,-.6,.8,-1.3,2c-.2,.4,-.4,.8,-.6,1.3l-.5,1.7H711l2.7,-9.4l.3,-1c0,-.2,-.1,-.3,-.2,-.4c-.1,-.1,-.3,-.2,-.4,-.2c-.1,0,-.3,0,-.5,.1h-.2v-.3Z" class="gg_73"/>
<path d="M725.6,614.1l-1,3.5l-.1,.5c0,0,0,.1,0,.1q0,.1,0,.2c0,0,.1,0,.1,0q.1,0,.2,-.1c.1,-.1,.3,-.3,.5,-.6l.2,.1c-.2,.4,-.5,.7,-.7,.9c-.3,.1,-.5,.2,-.7,.2c-.2,0,-.3,0,-.4,-.1c0,-.1,-.1,-.2,-.1,-.3c0,-.2,.1,-.4,.1,-.7l.1,-.4c-.4,.6,-.8,1,-1.2,1.3c-.3,.2,-.6,.2,-.8,.2c-.3,0,-.5,-.1,-.7,-.3c-.2,-.2,-.3,-.5,-.3,-.8c0,-.6,.2,-1.2,.5,-1.8c.4,-.6,.8,-1.1,1.3,-1.5c.4,-.3,.8,-.4,1.1,-.4c.3,0,.4,0,.6,.2c.1,.1,.2,.2,.3,.5l.2,-.6Zm-1.9,.3c-.2,0,-.4,.1,-.7,.3c-.3,.3,-.6,.7,-.9,1.3c-.3,.6,-.4,1.1,-.4,1.6c0,.2,0,.4,.2,.5c.1,.2,.2,.2,.4,.2c.3,0,.8,-.2,1.2,-.8c.6,-.8,.9,-1.5,.9,-2.3c0,-.3,-.1,-.5,-.2,-.6c-.1,-.2,-.3,-.2,-.5,-.2Z" class="gb_73"/>
<path d="M755.7,580c-.4,.4,-.8,.7,-1.1,.9c-.4,.2,-.8,.3,-1.2,.3c-.5,0,-.9,-.1,-1.2,-.4c-.2,-.3,-.4,-.6,-.4,-1.1c0,-.5,.2,-1.1,.5,-1.6c.3,-.5,.7,-.9,1.2,-1.2c.5,-.4,1,-.5,1.4,-.5c.4,0,.7,.1,.9,.2c.2,.2,.3,.4,.3,.6c0,.2,-.1,.4,-.2,.6c-.1,.1,-.2,.1,-.4,.1c-.1,0,-.2,0,-.3,-.1c0,0,-.1,-.1,-.1,-.2c0,-.1,.1,-.2,.1,-.2c0,-.1,.1,-.1,.1,-.2c.1,-.1,.2,-.1,.2,-.2c0,0,0,-.1,0,-.1q0,-.1,-.1,-.2c-.1,0,-.2,-.1,-.4,-.1c-.4,0,-.7,.1,-1,.4c-.4,.2,-.6,.6,-.9,1c-.3,.5,-.4,1.1,-.4,1.6c0,.4,.1,.7,.3,.9c.2,.2,.5,.3,.8,.3c.3,0,.6,-.1,.8,-.2c.3,-.2,.6,-.4,.9,-.8Z" class="gf_73"/>
<path d="M723.6,582.4l-1,3.6c.3,-.4,.6,-.6,.9,-.7c.2,-.2,.5,-.2,.8,-.2c.3,0,.7,.1,.9,.3c.2,.3,.4,.6,.4,1.1c0,.5,-.2,1.1,-.5,1.7c-.3,.5,-.7,.9,-1.2,1.3c-.5,.3,-1,.4,-1.5,.4c-.5,0,-1,-.2,-1.6,-.6l1.6,-5.4c.1,-.5,.2,-.7,.2,-.8q0,-.1,-.1,-.2c-.1,0,-.2,-.1,-.3,-.1c-.1,0,-.2,0,-.4,.1v-.2Zm-2,7c.4,.2,.7,.3,.9,.3c.3,0,.7,-.1,1,-.4c.3,-.2,.6,-.6,.8,-1.1c.3,-.5,.4,-1.1,.4,-1.6c0,-.3,-.1,-.6,-.2,-.8c-.2,-.1,-.4,-.2,-.6,-.2c-.3,0,-.6,.1,-.9,.4c-.4,.2,-.6,.6,-.7,1Z" class="gg_73"/>
<path d="M751.1,620.5c-.5,-6.2,-5.1,-10.4,-11.6,-9.8M719.7,573.4c4,-4.7,3.8,-10.9,-1.2,-15.1m30.6,30.6c2.6,5.6,8.4,7.9,14.3,5.1" class="gh_73"/>
<path fill-rule="evenodd" d="M744.4,616.6c-.2,-.1,-.3,-.3,-.2,-.4c0,-.2,.2,-.2,.4,-.1c.2,.1,.3,.3,.2,.4c0,.1,-.2,.2,-.4,.1Z" class="g2_73"/>
<path d="M744.4,616.6c-.2,-.1,-.3,-.3,-.2,-.4c0,-.2,.2,-.2,.4,-.1c.2,.1,.3,.3,.2,.4c0,.1,-.2,.2,-.4,.1Z" class="gi_73"/>
<path fill-rule="evenodd" d="M717.7,565.9c0,-.2,0,-.4,.2,-.5c.1,0,.3,.1,.4,.3c0,.2,0,.4,-.2,.4c-.1,.1,-.3,0,-.4,-.2Z" class="g2_73"/>
<path d="M717.7,565.9c0,-.2,0,-.4,.2,-.5c.1,0,.3,.1,.4,.3c0,.2,0,.4,-.2,.4c-.1,.1,-.3,0,-.4,-.2Z" class="gi_73"/>
<path fill-rule="evenodd" d="M756.7,590.2c.2,0,.4,.2,.4,.3c0,.2,-.2,.3,-.4,.2c-.2,0,-.4,-.1,-.4,-.3c0,-.1,.2,-.2,.4,-.2Z" class="g2_73"/>
<path d="M756.7,590.2c.2,0,.4,.2,.4,.3c0,.2,-.2,.3,-.4,.2c-.2,0,-.4,-.1,-.4,-.3c0,-.1,.2,-.2,.4,-.2Z" class="gi_73"/>
<path d="M662.6,621.1h112" class="gj_73"/>
<path d="M663.5,621.1l77.7,-89.7m32.1,89.2L710.4,566.2" class="gk_73"/>
<path d="M740.7,532.3l33.5,88.8m-110.3,-.2l96.7,-36.4" class="gl_73"/>
<path d="M769.5,567.6l-1.6,5.6l-.2,.8c0,0,0,.1,0,.1c0,.1,0,.2,0,.3q.1,0,.2,0c.1,0,.2,0,.3,-.1c.2,-.1,.5,-.5,.8,-1l.3,.2c-.4,.6,-.7,1,-1.1,1.3c-.4,.3,-.8,.5,-1.2,.5c-.2,0,-.4,-.1,-.5,-.2c-.1,-.1,-.2,-.3,-.2,-.5c0,-.3,.1,-.6,.2,-1.1l.2,-.6c-.7,.9,-1.4,1.6,-2,2c-.4,.2,-.8,.4,-1.3,.4c-.4,0,-.7,-.2,-1,-.5c-.3,-.4,-.4,-.8,-.4,-1.4c0,-.9,.2,-1.8,.8,-2.7c.5,-1,1.1,-1.8,1.9,-2.4c.7,-.4,1.3,-.7,1.8,-.7c.4,0,.6,.1,.9,.3c.2,.2,.4,.5,.5,.9l.3,-1Zm-3,.5c-.3,0,-.7,.1,-1.1,.5c-.5,.4,-1,1.1,-1.5,2c-.4,.9,-.6,1.8,-.6,2.5c0,.4,.1,.7,.3,.9c.2,.2,.4,.3,.6,.3c.6,0,1.3,-.4,2,-1.3c.9,-1.2,1.4,-2.4,1.4,-3.6c0,-.5,-.1,-.8,-.3,-1c-.2,-.2,-.4,-.3,-.8,-.3Z" class="gb_73"/>
<path d="M727.1,631.1c-.6,.6,-1.1,1.2,-1.7,1.5c-.6,.3,-1.2,.4,-1.9,.4c-.7,0,-1.3,-.2,-1.8,-.6c-.4,-.4,-.6,-1,-.6,-1.8c0,-.8,.2,-1.6,.7,-2.4c.4,-.9,1.1,-1.5,1.9,-2c.8,-.5,1.5,-.8,2.3,-.8c.6,0,1,.2,1.3,.4c.3,.2,.5,.6,.5,.9c0,.4,-.1,.6,-.3,.9c-.2,.2,-.4,.3,-.6,.3c-.2,0,-.3,-.1,-.4,-.2c-.1,-.1,-.2,-.2,-.2,-.4c0,-.1,0,-.2,.1,-.3c0,-.1,.1,-.2,.2,-.3c.1,-.1,.2,-.2,.2,-.3c.1,0,.1,-.1,.1,-.2c0,-.1,-.1,-.2,-.2,-.2c-.1,-.1,-.4,-.2,-.6,-.2c-.6,0,-1.1,.2,-1.6,.6c-.6,.3,-1,.9,-1.4,1.6c-.4,.8,-.7,1.7,-.7,2.5c0,.6,.2,1,.5,1.3c.3,.3,.8,.5,1.3,.5c.4,0,.9,-.1,1.3,-.3c.4,-.2,.8,-.6,1.4,-1.1Z" class="gf_73"/>
<path d="M692.8,565.5l-1.6,5.7c.5,-.5,.9,-.9,1.3,-1.1c.4,-.2,.8,-.3,1.3,-.3c.6,0,1.1,.2,1.4,.6c.4,.4,.6,.9,.6,1.6c0,.9,-.2,1.8,-.7,2.6c-.5,.9,-1.2,1.6,-1.9,2.1c-.8,.5,-1.5,.7,-2.3,.7c-.8,0,-1.7,-.3,-2.5,-.9l2.5,-8.6c.2,-.7,.3,-1.1,.3,-1.2c0,-.1,-.1,-.2,-.2,-.3c-.1,-.1,-.3,-.1,-.5,-.1c-.1,0,-.3,0,-.6,0V566Zm-3.2,11.1c.6,.3,1,.4,1.4,.4c.5,0,1,-.1,1.5,-.5c.6,-.4,1,-1,1.4,-1.8c.4,-.8,.6,-1.7,.6,-2.5c0,-.5,-.2,-.9,-.4,-1.2c-.3,-.3,-.6,-.4,-.9,-.4c-.5,0,-1,.2,-1.5,.6c-.5,.4,-.8,1,-1,1.7Z" class="gg_73"/>
<path d="M740,532.6v88.6" class="gj_73"/>
<path d="M72.7,672.5H834.9" class="g8_73"/>
<path d="M682.3,762.8h11.3m-11.3,37.8h11.3m-11.3,37.8h11.3" class="g1_73"/>
<path d="M293.1,798.7c3.8,-4.7,3.7,-9.9,-.2,-15.5" class="g3_73"/>
<path fill-rule="evenodd" d="M292.5,791.9c.5,-.4,.6,-1.1,.2,-1.6c-.4,-.5,-1.1,-.6,-1.6,-.2c-.5,.4,-.5,1.1,-.2,1.6c.4,.4,1.1,.5,1.6,.2Z" class="g2_73"/>
<g clip-path="url(#c2_73)">
<path fill-rule="evenodd" d="M193.7,873.8l-3.5,4.8h3Zm1.8,-3l-1,10.1c0,.5,0,.8,0,.9c0,.3,0,.5,.1,.6c.1,.2,.3,.3,.5,.4c.2,.1,.5,.1,.9,.1l-.1,.3h-4.7l.1,-.3h.2c.4,0,.7,-.1,.9,-.3c.2,-.1,.3,-.3,.4,-.5c.1,-.2,.2,-.6,.2,-1.3l.2,-1.6h-3.5l-1.3,1.7c-.2,.4,-.4,.7,-.5,.8c-.1,.2,-.1,.3,-.1,.5c0,.2,.1,.3,.2,.5c.2,.1,.5,.2,.8,.2l-.1,.3h-3.6l.1,-.3c.5,0,.9,-.2,1.2,-.4c.3,-.3,.8,-.9,1.5,-1.8l7.3,-9.9Z" class="g2_73"/>
<path fill-rule="evenodd" d="M376,882.3c.7,.1,1.2,.1,1.6,.1c.9,0,1.7,-.3,2.4,-.8c.7,-.6,1.1,-1.3,1.1,-2.3c0,-.7,-.2,-1.3,-.7,-1.7c-.4,-.4,-1.1,-.6,-2.1,-.6c-.2,0,-.4,0,-.7,0Zm1.8,-6c.4,0,.7,0,.8,0c1.3,0,2.2,-.2,2.8,-.8c.6,-.5,.9,-1.2,.9,-2c0,-.6,-.2,-1.1,-.5,-1.4c-.4,-.4,-1,-.5,-1.8,-.5c-.2,0,-.5,0,-.8,.1Zm-1.8,-5l.1,-.4h4.3c.8,0,1.4,.2,2,.4c.6,.2,1,.5,1.3,.9c.3,.4,.4,.9,.4,1.3c0,.7,-.3,1.4,-.8,1.9c-.5,.6,-1.3,1,-2.4,1.3c.7,.2,1.2,.6,1.6,1.1c.3,.4,.5,.9,.5,1.5c0,.6,-.1,1.1,-.4,1.7c-.4,.5,-.8,1,-1.2,1.3c-.5,.3,-1.1,.5,-1.8,.6c-.5,.1,-1.3,.2,-2.3,.2h-4.4l.1,-.3c.4,-.1,.8,-.1,.9,-.2c.3,-.1,.4,-.2,.5,-.4c.2,-.2,.4,-.7,.6,-1.5l2.2,-7.4c.2,-.6,.3,-1,.3,-1.3c0,-.2,-.1,-.4,-.3,-.5c-.2,-.1,-.5,-.2,-.9,-.2c-.1,0,-.2,0,-.3,0Z" class="g2_73"/>
<path fill-rule="evenodd" d="M331.8,750.6l-.9,3.9h-.3l-.1,-1c0,-.3,-.1,-.7,-.2,-.9c-.1,-.3,-.2,-.6,-.5,-.8c-.2,-.2,-.4,-.3,-.8,-.4c-.3,-.2,-.7,-.2,-1.1,-.2c-1,0,-2,.3,-2.8,.9c-1,.7,-1.8,1.8,-2.4,3.1c-.4,1.1,-.7,2.3,-.7,3.4c0,1.2,.4,2.1,1,2.8c.7,.7,1.6,1.1,2.7,1.1c.9,0,1.6,-.2,2.2,-.6c.7,-.3,1.3,-.9,1.8,-1.7h.5c-.7,1.1,-1.4,1.8,-2.2,2.3c-.8,.5,-1.8,.8,-2.9,.8c-1,0,-1.9,-.2,-2.6,-.7c-.8,-.4,-1.4,-.9,-1.8,-1.7c-.4,-.8,-.6,-1.6,-.6,-2.4c0,-1.4,.4,-2.6,1.1,-3.9c.7,-1.2,1.7,-2.2,2.9,-2.9c1.3,-.8,2.5,-1.1,3.8,-1.1c.6,0,1.2,.1,1.9,.4c.4,.1,.6,.2,.7,.2c.2,0,.3,-.1,.4,-.1c.1,-.1,.3,-.2,.6,-.5Z" class="g2_73"/>
</g>
<path d="M371.8,876.6H200.1L315.6,760.5l56.2,116.1Z" class="g4_73"/>
<path d="M371.5,877L285.6,791.1" class="g5_73"/>
</svg>