<?xml version="1.0" encoding="UTF-8" standalone="no"?>
<!DOCTYPE svg PUBLIC "-//W3C//DTD SVG 1.1//EN"
"http://www.w3.org/Graphics/SVG/1.1/DTD/svg11.dtd">
<svg viewBox="0 0 909 1147" version="1.1" xmlns="http://www.w3.org/2000/svg" xmlns:xlink="http://www.w3.org/1999/xlink">
<defs>
<clipPath id="c0_63"><path d="M187.8,850.1V719.5H395.4V850.1Z"/></clipPath>
<clipPath id="c1_63"><path d="M408.5,905.1V719.5H559.8V905.1Z"/></clipPath>
<clipPath id="c2_63"><path d="M630,854.2V719.5H837V854.2Z"/></clipPath>
<clipPath id="c3_63"><path d="M185.1,629.6V520.1H315.8V629.6Z"/></clipPath>
<style type="text/css"><![CDATA[
.g0_63{
fill: #B6D774;
}
.g1_63{
fill: #FFEFCF;
}
.g2_63{
fill: #000;
}
.g3_63{
fill: #00AEEF;
}
.g4_63{
fill: #ED1D24;
}
.g5_63{
fill: #00A651;
}
.g6_63{
fill: none;
stroke: #000;
stroke-width: 0.694;
stroke-miterlimit: 2;
}
.g7_63{
fill: none;
stroke: #000;
stroke-width: 0.972;
stroke-miterlimit: 2;
}
.g8_63{
fill: none;
stroke: #000;
stroke-width: 0.972;
stroke-miterlimit: 2;
stroke-dasharray: 5,3;
}
.g9_63{
fill: none;
stroke: #ED1D24;
stroke-width: 0.972;
stroke-miterlimit: 2;
}
.ga_63{
fill: none;
stroke: #00AEEF;
stroke-width: 0.972;
stroke-miterlimit: 2;
}
.gb_63{
fill: none;
stroke: #00A651;
stroke-width: 0.972;
stroke-miterlimit: 2;
}
.gc_63{
fill: none;
stroke: #000;
stroke-width: 0.7;
stroke-miterlimit: 2;
}
.gd_63{
fill: none;
stroke: #000;
stroke-width: 0.98;
stroke-miterlimit: 2;
}
.ge_63{
fill: none;
stroke: #000;
stroke-width: 0.98;
stroke-miterlimit: 2;
stroke-dasharray: 5,3;
}
.gf_63{
fill: none;
stroke: #00AEEF;
stroke-width: 0.98;
stroke-miterlimit: 2;
}
.gg_63{
fill: none;
stroke: #00A651;
stroke-width: 0.98;
stroke-miterlimit: 2;
}
.gh_63{
fill: none;
stroke: #ED1D24;
stroke-width: 0.98;
stroke-miterlimit: 2;
}
.gi_63{
fill: none;
stroke: #000;
stroke-width: 0.689;
stroke-miterlimit: 2;
}
.gj_63{
fill: none;
stroke: #000;
stroke-width: 0.965;
stroke-miterlimit: 2;
}
.gk_63{
fill: none;
stroke: #000;
stroke-width: 0.965;
stroke-miterlimit: 2;
stroke-dasharray: 5,3;
}
.gl_63{
fill: none;
stroke: #00A651;
stroke-width: 0.965;
stroke-miterlimit: 2;
}
.gm_63{
fill: none;
stroke: #ED1D24;
stroke-width: 0.965;
stroke-miterlimit: 2;
}
.gn_63{
fill: none;
stroke: #00AEEF;
stroke-width: 0.965;
stroke-miterlimit: 2;
}
.go_63{
fill: none;
stroke: #00AEEF;
stroke-width: 0.763;
stroke-miterlimit: 2;
}
.gp_63{
fill: none;
stroke: #000;
stroke-width: 1.069;
stroke-miterlimit: 2;
}
.gq_63{
fill: #FFF1E0;
}
.gr_63{
fill: none;
stroke: #0EA5DF;
stroke-width: 3.055;
}
.gs_63{
fill: #E8F1FA;
}
.gt_63{
fill: #0EA5DF;
}
.gu_63{
fill: none;
stroke: #000;
stroke-width: 0.763;
stroke-miterlimit: 2;
}
.gv_63{
fill: none;
stroke: #ED1D24;
stroke-width: 0.763;
stroke-miterlimit: 2;
}
.gw_63{
fill: none;
stroke: #00A651;
stroke-width: 0.763;
stroke-miterlimit: 2;
}
.gx_63{
fill: none;
stroke: #ED1D24;
stroke-width: 1.069;
stroke-linejoin: round;
}
.gy_63{
fill: none;
stroke: #00A651;
stroke-width: 1.069;
stroke-linejoin: round;
}
.gz_63{
fill: none;
stroke: #000;
stroke-width: 1.069;
stroke-linejoin: round;
}
.g10_63{
fill: none;
stroke: #0095DA;
stroke-width: 1.069;
stroke-linejoin: round;
}
.g11_63{
fill: #0095DA;
}
.g12_63{
fill: none;
stroke: #000;
stroke-width: 0.763;
stroke-linejoin: round;
}
.g13_63{
fill: none;
stroke: #00AEEF;
stroke-width: 1.069;
stroke-linejoin: round;
}
]]></style>
</defs>
<path d="M835.8,1131h73.6v-51.5H835.8V1131Z" class="g0_63"/>
<path d="M204.9,826.3L340.8,773.6l42.5,52.7Z" class="g1_63"/>
<path fill-rule="evenodd" d="M198.5,828.4l-.8,9.2c-.1,.5,-.1,.7,-.1,.9c0,.2,0,.4,.1,.5c.1,.1,.3,.3,.4,.3c.2,.1,.5,.2,.9,.2l-.1,.3h-4.3l.1,-.3h.2c.3,0,.6,-.1,.8,-.3c.2,-.1,.3,-.3,.4,-.5c0,-.2,.1,-.6,.2,-1.2l.1,-1.4h-3.2l-1.1,1.5c-.2,.4,-.4,.6,-.5,.8c0,.1,-.1,.3,-.1,.4c0,.2,.1,.3,.2,.4c.2,.2,.4,.2,.7,.3v.3h-3.3l.1,-.3c.4,-.1,.7,-.2,1,-.5c.4,-.2,.8,-.8,1.4,-1.6l6.6,-9Zm-1.6,2.7l-3.2,4.4h2.8Z" class="g2_63"/>
<path clip-path="url(#c0_63)" fill-rule="evenodd" d="M389.3,828.7l.1,-.3h4c.6,0,1.2,.1,1.8,.3c.5,.2,.9,.5,1.1,.9c.3,.3,.4,.7,.4,1.1c0,.7,-.2,1.3,-.7,1.8c-.4,.5,-1.2,.9,-2.2,1.1c.6,.3,1.1,.6,1.5,1c.3,.4,.4,.9,.4,1.4c0,.5,-.1,1.1,-.4,1.6c-.3,.5,-.6,.9,-1.1,1.1c-.4,.3,-1,.5,-1.6,.7c-.4,.1,-1.1,.1,-2.1,.1h-4l.1,-.3c.4,0,.7,-.1,.9,-.1c.2,-.1,.3,-.2,.4,-.4c.1,-.2,.3,-.7,.5,-1.4l2,-6.7c.2,-.6,.3,-1,.3,-1.2c0,-.2,-.1,-.4,-.3,-.5c-.1,-.1,-.4,-.2,-.8,-.2c-.1,0,-.2,0,-.3,0m1.7,4.6c.3,0,.6,0,.8,0c1.1,0,1.9,-.2,2.5,-.7c.5,-.5,.8,-1.1,.8,-1.9c0,-.5,-.2,-1,-.5,-1.3c-.3,-.3,-.9,-.5,-1.6,-.5c-.2,0,-.5,.1,-.8,.1Zm-1.6,5.5c.6,.1,1,.1,1.4,.1c.8,0,1.6,-.3,2.2,-.8c.7,-.5,1,-1.2,1,-2.1c0,-.6,-.2,-1.2,-.6,-1.5c-.4,-.4,-1.1,-.6,-2,-.6c-.1,0,-.4,0,-.6,0Z" class="g2_63"/>
<path fill-rule="evenodd" d="M344.3,832.4l-.8,3.6h-.3l-.1,-.9c0,-.3,-.1,-.6,-.2,-.9c-.1,-.3,-.2,-.5,-.4,-.7c-.2,-.2,-.4,-.3,-.7,-.4c-.3,-.1,-.7,-.2,-1,-.2c-1,0,-1.9,.3,-2.6,.8c-.9,.7,-1.6,1.7,-2.2,2.9c-.4,1.1,-.6,2.1,-.6,3.2c0,1,.3,1.9,.9,2.5c.6,.7,1.5,1,2.5,1c.7,0,1.4,-.2,2,-.5c.6,-.4,1.1,-.9,1.6,-1.6h.4c-.6,1,-1.3,1.7,-2,2.1c-.7,.5,-1.6,.7,-2.6,.7c-.9,0,-1.7,-.2,-2.4,-.6c-.7,-.3,-1.2,-.9,-1.6,-1.6c-.3,-.7,-.5,-1.4,-.5,-2.2c0,-1.2,.3,-2.4,.9,-3.5c.7,-1.2,1.6,-2.1,2.7,-2.7c1.1,-.7,2.3,-1,3.4,-1c.5,0,1.1,.1,1.8,.4c.3,.1,.5,.1,.6,.1c.2,0,.3,0,.4,0c.1,-.1,.2,-.3,.5,-.5Z" class="g2_63"/>
<path fill-rule="evenodd" d="M326.6,798.3l-2.3,7.9c1,-1.5,1.8,-2.5,2.3,-3c.6,-.5,1.1,-.7,1.6,-.7c.3,0,.5,.1,.6,.3c.2,.1,.3,.4,.3,.7c0,.3,-.1,.8,-.2,1.3l-1,3.4c-.1,.5,-.2,.7,-.2,.7c0,.1,0,.2,.1,.2c0,.1,.1,.1,.1,.1c.1,0,.2,0,.3,-.1c.3,-.3,.6,-.6,.9,-1l.2,.1c-.1,.3,-.4,.6,-.7,1c-.4,.3,-.6,.6,-.9,.7c-.2,.1,-.4,.2,-.6,.2c-.2,0,-.4,-.1,-.5,-.2c-.1,-.1,-.2,-.3,-.2,-.5c0,-.2,.1,-.7,.3,-1.3l.9,-3.3c.1,-.4,.2,-.7,.2,-1c0,-.1,0,-.2,-.1,-.2c-.1,-.1,-.2,-.1,-.3,-.1c-.1,0,-.3,0,-.5,.2c-.4,.2,-.8,.6,-1.3,1.2c-.1,.2,-.5,.9,-1.3,2.1c-.2,.4,-.4,.8,-.5,1.2l-.6,1.7H322l2.7,-9.4l.3,-1c0,-.1,-.1,-.2,-.2,-.4c-.1,-.1,-.2,-.1,-.4,-.1c-.1,0,-.3,0,-.5,0l-.1,.1v-.4Z" class="g3_63"/>
<path fill-rule="evenodd" d="M251.4,756.5l-2.3,8c1,-1.5,1.8,-2.5,2.3,-3c.6,-.5,1.1,-.8,1.6,-.8c.3,0,.5,.1,.7,.3c.1,.2,.2,.4,.2,.7c0,.4,0,.8,-.2,1.4l-1,3.4c-.1,.4,-.2,.6,-.2,.7q0,.1,.1,.2c0,0,.1,0,.2,0c0,0,.1,0,.2,-.1c.3,-.2,.6,-.5,.9,-1l.3,.2c-.2,.3,-.5,.6,-.8,.9c-.3,.4,-.6,.6,-.8,.8c-.3,.1,-.5,.2,-.7,.2c-.2,0,-.3,-.1,-.5,-.2c-.1,-.2,-.2,-.3,-.2,-.5c0,-.3,.1,-.7,.3,-1.4l1,-3.2c.1,-.5,.1,-.8,.1,-1c0,-.1,0,-.2,-.1,-.3c0,0,-.1,-.1,-.2,-.1c-.2,0,-.4,.1,-.6,.2c-.3,.2,-.8,.7,-1.2,1.3c-.2,.2,-.6,.8,-1.3,2c-.3,.4,-.5,.8,-.6,1.3l-.5,1.7h-1.2l2.6,-9.4l.3,-1c0,-.2,0,-.3,-.2,-.4c-.1,-.1,-.2,-.2,-.4,-.2c-.1,0,-.2,0,-.4,.1h-.2V757Z" class="g4_63"/>
<path fill-rule="evenodd" d="M382.2,782.1l-2.3,8c1,-1.5,1.7,-2.5,2.3,-3c.6,-.5,1.1,-.7,1.6,-.7c.2,0,.5,.1,.6,.2c.2,.2,.3,.5,.3,.8c0,.3,-.1,.8,-.2,1.3l-1,3.4c-.1,.4,-.2,.6,-.2,.7q0,.1,.1,.2c0,0,.1,.1,.1,.1c.1,0,.2,-.1,.3,-.2c.3,-.2,.6,-.5,.9,-1l.2,.2c-.2,.3,-.4,.6,-.7,1c-.4,.3,-.6,.5,-.9,.7c-.2,.1,-.4,.2,-.6,.2c-.2,0,-.4,-.1,-.5,-.2c-.1,-.1,-.2,-.3,-.2,-.5c0,-.3,.1,-.7,.3,-1.4l.9,-3.2c.1,-.4,.2,-.8,.2,-1c0,-.1,0,-.2,-.1,-.3c-.1,0,-.2,-.1,-.3,-.1c-.1,0,-.3,.1,-.5,.2c-.4,.2,-.8,.7,-1.3,1.3c-.1,.2,-.5,.8,-1.3,2c-.2,.4,-.4,.8,-.5,1.3l-.6,1.7h-1.2l2.7,-9.4l.3,-1c0,-.2,-.1,-.3,-.2,-.4c-.1,-.1,-.3,-.2,-.4,-.2c-.1,0,-.3,.1,-.5,.1h-.1v-.3Z" class="g5_63"/>
<path fill-rule="evenodd" d="M350,755.8l-.8,3.6h-.3v-.9c-.1,-.3,-.1,-.6,-.2,-.8c-.1,-.3,-.3,-.5,-.5,-.7c-.2,-.2,-.4,-.3,-.7,-.4c-.3,-.2,-.6,-.2,-1,-.2c-1,0,-1.8,.3,-2.5,.8c-1,.7,-1.7,1.6,-2.2,2.9c-.4,1,-.7,2.1,-.7,3.1c0,1.1,.3,1.9,1,2.6c.6,.6,1.4,1,2.4,1c.8,0,1.4,-.2,2,-.6c.6,-.3,1.1,-.8,1.7,-1.5h.3c-.6,.9,-1.2,1.6,-1.9,2.1c-.8,.4,-1.6,.7,-2.7,.7c-.9,0,-1.7,-.2,-2.4,-.6c-.6,-.4,-1.2,-.9,-1.5,-1.6c-.4,-.7,-.6,-1.4,-.6,-2.2c0,-1.2,.3,-2.4,1,-3.6c.6,-1.1,1.5,-2,2.6,-2.7c1.2,-.6,2.3,-1,3.4,-1c.6,0,1.2,.2,1.9,.4c.2,.1,.5,.2,.6,.2c.1,0,.2,0,.3,-.1c.1,0,.3,-.2,.5,-.5Z" class="g2_63"/>
<path fill-rule="evenodd" d="M346.1,842l1.8,-.9h.2v6.3c0,.4,0,.7,0,.8c0,.1,.1,.1,.2,.2c.1,0,.3,.1,.7,.1v.2h-2.8v-.2c.4,0,.6,-.1,.7,-.1c.1,-.1,.2,-.1,.2,-.2c0,-.1,.1,-.4,.1,-.8v-4c0,-.6,-.1,-.9,-.1,-1.1c0,-.1,-.1,-.2,-.1,-.2c-.1,-.1,-.2,-.1,-.3,-.1c-.1,0,-.3,.1,-.5,.2Z" class="g2_63"/>
<path fill-rule="evenodd" d="M335.1,811.4c-.4,.5,-.8,.8,-1.1,1c-.4,.2,-.8,.3,-1.3,.3c-.5,0,-.9,-.1,-1.2,-.4c-.2,-.3,-.4,-.7,-.4,-1.2c0,-.5,.2,-1.1,.5,-1.6c.3,-.6,.7,-1,1.2,-1.3c.5,-.4,1.1,-.5,1.6,-.5c.4,0,.7,0,.8,.2c.2,.2,.3,.4,.3,.6c0,.2,0,.4,-.2,.6c-.1,.1,-.2,.2,-.3,.2c-.2,0,-.2,-.1,-.3,-.1c-.1,-.1,-.1,-.2,-.1,-.3q0,-.1,0,-.2c0,-.1,.1,-.1,.2,-.2q.1,-.1,.1,-.2c0,0,.1,-.1,.1,-.1c0,-.1,-.1,-.1,-.1,-.2c-.1,-.1,-.3,-.1,-.5,-.1c-.3,0,-.7,.1,-1,.4c-.4,.2,-.7,.6,-.9,1.1c-.3,.5,-.5,1.1,-.5,1.6c0,.4,.1,.7,.3,.9c.2,.2,.5,.3,.9,.3c.3,0,.6,0,.8,-.2c.3,-.1,.6,-.4,.9,-.7Z" class="g3_63"/>
<path fill-rule="evenodd" d="M260.9,765.9l-1.1,3.7l-.1,.5q0,.1,0,.1q0,.1,0,.2c0,0,.1,0,.1,0q.1,0,.2,-.1c.1,-.1,.3,-.3,.6,-.6l.2,.1c-.3,.4,-.6,.7,-.8,.9c-.3,.2,-.5,.3,-.7,.3c-.2,0,-.3,-.1,-.4,-.1c-.1,-.1,-.1,-.2,-.1,-.4c0,-.1,0,-.4,.1,-.7l.1,-.4c-.5,.6,-.9,1.1,-1.3,1.3c-.3,.2,-.6,.3,-.8,.3c-.3,0,-.5,-.1,-.7,-.3c-.2,-.3,-.3,-.6,-.3,-1c0,-.5,.2,-1.1,.5,-1.8c.4,-.6,.8,-1.1,1.3,-1.5c.4,-.3,.8,-.5,1.2,-.5c.2,0,.4,.1,.6,.2c.1,.1,.2,.3,.3,.6l.2,-.7Zm-2,.3c-.2,0,-.5,.1,-.7,.3c-.4,.3,-.7,.8,-1,1.4c-.3,.6,-.4,1.2,-.4,1.7c0,.2,0,.4,.2,.5c.1,.2,.2,.3,.4,.3c.4,0,.8,-.3,1.3,-.9c.6,-.8,.9,-1.6,.9,-2.4c0,-.3,-.1,-.6,-.2,-.7c-.1,-.1,-.3,-.2,-.5,-.2Z" class="g4_63"/>
<path fill-rule="evenodd" d="M389.6,788.7l-1.1,3.8c.4,-.4,.7,-.6,.9,-.8c.3,-.1,.6,-.2,.9,-.2c.4,0,.7,.2,.9,.4c.3,.3,.4,.6,.4,1.1c0,.6,-.1,1.2,-.5,1.8c-.3,.5,-.7,1,-1.2,1.3c-.5,.3,-1,.5,-1.5,.5c-.6,0,-1.1,-.2,-1.7,-.6l1.6,-5.7c.2,-.5,.2,-.7,.2,-.8c0,-.1,0,-.2,-.1,-.2c0,-.1,-.2,-.1,-.3,-.1c-.1,0,-.2,0,-.4,0V789Zm-2.1,7.3c.4,.2,.7,.3,1,.3c.3,0,.6,-.1,1,-.3c.3,-.2,.6,-.6,.8,-1.2c.3,-.6,.4,-1.1,.4,-1.7c0,-.3,-.1,-.6,-.2,-.8c-.2,-.2,-.4,-.3,-.6,-.3c-.3,0,-.7,.2,-1,.5c-.3,.2,-.5,.6,-.7,1.1Z" class="g5_63"/>
<path d="M352.2,826c-1.5,-7.7,-5.7,-10.7,-12.9,-9.7m25.6,-40.2c7.1,-3,9.2,-7.7,6.8,-14.6M302.4,728.6c-5.8,5.2,-6.2,10.3,-1.7,16" class="g6_63"/>
<path fill-rule="evenodd" d="M346.3,822.5c0,-.3,-.3,-.6,-.7,-.5c-.3,.1,-.5,.4,-.4,.7c0,.3,.4,.5,.7,.5c.3,-.1,.5,-.4,.4,-.7Z" class="g2_63"/>
<path d="M346.3,822.5c0,-.3,-.3,-.6,-.7,-.5c-.3,.1,-.5,.4,-.4,.7c0,.3,.4,.5,.7,.5c.3,-.1,.5,-.4,.4,-.7Z" class="g7_63"/>
<path fill-rule="evenodd" d="M367.1,769.6c.3,-.1,.5,-.5,.3,-.8c-.1,-.3,-.4,-.4,-.7,-.3c-.3,.1,-.5,.5,-.3,.8c.1,.3,.4,.4,.7,.3Z" class="g2_63"/>
<path d="M367.1,769.6c.3,-.1,.5,-.5,.3,-.8c-.1,-.3,-.4,-.4,-.7,-.3c-.3,.1,-.5,.5,-.3,.8c.1,.3,.4,.4,.7,.3Z" class="g7_63"/>
<path fill-rule="evenodd" d="M302.4,735.4c-.2,.2,-.2,.6,0,.8c.2,.3,.6,.3,.8,.1c.2,-.2,.3,-.6,0,-.8c-.2,-.3,-.5,-.3,-.8,-.1Z" class="g2_63"/>
<path d="M302.4,735.4c-.2,.2,-.2,.6,0,.8c.2,.3,.6,.3,.8,.1c.2,-.2,.3,-.6,0,-.8c-.2,-.3,-.5,-.3,-.8,-.1Z" class="g7_63"/>
<path fill-rule="evenodd" d="M357.6,743.1l.1,-.3h4c.6,0,1.2,.1,1.7,.3c.5,.2,.9,.5,1.2,.8c.2,.4,.4,.8,.4,1.2c0,.7,-.3,1.2,-.7,1.8c-.5,.5,-1.2,.9,-2.3,1.1c.7,.2,1.2,.6,1.5,1c.3,.4,.5,.9,.5,1.4c0,.5,-.2,1,-.4,1.6c-.3,.5,-.7,.8,-1.1,1.1c-.5,.3,-1,.5,-1.6,.6c-.5,.1,-1.2,.2,-2.1,.2h-4.1l.2,-.3c.4,0,.7,-.1,.8,-.1c.2,-.1,.4,-.3,.5,-.4c.1,-.2,.3,-.7,.5,-1.4l2,-6.8c.1,-.5,.2,-.9,.2,-1.2c0,-.2,0,-.3,-.2,-.5c-.1,-.1,-.4,-.1,-.8,-.1c-.1,0,-.2,0,-.3,0m1.6,4.6c.4,0,.7,0,.8,0c1.1,0,2,-.3,2.5,-.7c.6,-.5,.9,-1.2,.9,-1.9c0,-.6,-.2,-1,-.5,-1.3c-.4,-.3,-.9,-.5,-1.7,-.5c-.2,0,-.4,0,-.7,.1Zm-1.6,5.5c.6,0,1.1,.1,1.4,.1c.9,0,1.6,-.3,2.3,-.8c.6,-.5,1,-1.2,1,-2.1c0,-.7,-.2,-1.2,-.7,-1.6c-.4,-.3,-1,-.5,-1.9,-.5c-.2,0,-.4,0,-.6,0Z" class="g2_63"/>
<path fill-rule="evenodd" d="M368.1,752.1l1.7,-.9h.2v6.3c0,.4,0,.7,.1,.8c0,.1,.1,.2,.2,.2c.1,.1,.3,.1,.7,.1v.2h-2.8v-.2c.3,0,.6,0,.7,-.1c.1,0,.1,-.1,.2,-.2c0,-.1,0,-.4,0,-.8v-4c0,-.5,0,-.9,0,-1c0,-.2,-.1,-.2,-.2,-.3c0,0,-.1,-.1,-.2,-.1c-.1,0,-.3,.1,-.6,.2Z" class="g2_63"/>
<path fill-rule="evenodd" d="M324.9,723.8l-.8,9.3c0,.4,-.1,.7,-.1,.8c0,.2,.1,.4,.2,.5c.1,.2,.2,.3,.4,.4c.2,0,.5,.1,.9,.1l-.1,.3H321l.1,-.3h.2c.4,0,.7,-.1,.9,-.2c.1,-.2,.3,-.3,.3,-.6c.1,-.1,.2,-.5,.2,-1.2l.1,-1.4h-3.1l-1.1,1.6c-.3,.3,-.4,.6,-.5,.7c-.1,.2,-.1,.3,-.1,.4c0,.2,.1,.3,.2,.5c.1,.1,.4,.2,.7,.2l-.1,.3h-3.3l.1,-.3c.4,0,.8,-.2,1.1,-.4c.3,-.3,.8,-.8,1.4,-1.7l6.6,-9Zm-1.6,2.7l-3.2,4.4h2.8Z" class="g2_63"/>
<path fill-rule="evenodd" d="M329.5,733.4l1.7,-.9h.2v6.3c0,.4,0,.7,.1,.8c0,.1,.1,.2,.2,.2c.1,.1,.3,.1,.7,.1v.2h-2.8v-.2c.3,0,.6,0,.7,-.1c.1,0,.1,-.1,.2,-.2c0,-.1,0,-.3,0,-.8v-4c0,-.5,0,-.9,0,-1c-.1,-.1,-.1,-.2,-.2,-.3c0,0,-.1,-.1,-.2,-.1c-.1,0,-.3,.1,-.6,.2Z" class="g2_63"/>
<path d="M339.3,772.8L298,722.6" class="g8_63"/>
<path d="M383.2,826.2L339.3,772.8M309.4,737.5L202.7,826.8" class="g9_63"/>
<path d="M203.4,826.2H383.2" class="ga_63"/>
<path d="M340.1,773.5L203.4,826.2" class="gb_63"/>
<path clip-path="url(#c0_63)" d="M396.7,751.9l-56.6,21.8" class="g8_63"/>
<path d="M360.9,766.9l22.3,59" class="gb_63"/>
<path d="M339.2,773.6v52.9" class="ga_63"/>
<path clip-path="url(#c1_63)" fill-rule="evenodd" d="M416.4,864.8l-3.2,4.4H416ZM418,862l-.8,9.3c-.1,.4,-.1,.7,-.1,.8c0,.3,0,.4,.1,.5c.1,.2,.3,.3,.4,.4c.2,.1,.5,.1,.9,.1v.3h-4.4l.1,-.3h.1c.4,0,.7,-.1,.9,-.2c.2,-.1,.3,-.3,.4,-.5c0,-.2,.1,-.6,.2,-1.2l.1,-1.4h-3.2l-1.1,1.5c-.3,.3,-.4,.6,-.5,.7c-.1,.2,-.1,.3,-.1,.4c0,.2,.1,.4,.2,.5c.1,.1,.4,.2,.7,.2l-.1,.3h-3.3l.1,-.3c.4,0,.8,-.1,1.1,-.4c.3,-.3,.8,-.8,1.4,-1.6l6.6,-9.1Z" class="g2_63"/>
<path fill-rule="evenodd" d="M497.1,877.4c.5,0,1,.1,1.3,.1c.9,0,1.7,-.3,2.3,-.8c.7,-.5,1,-1.2,1,-2.1c0,-.6,-.2,-1.2,-.6,-1.6c-.4,-.3,-1.1,-.5,-2,-.5c-.2,0,-.4,0,-.6,0Zm1.6,-5.5c.3,0,.6,0,.7,0c1.2,0,2,-.2,2.6,-.7c.5,-.5,.8,-1.1,.8,-1.9c0,-.6,-.2,-1,-.5,-1.3c-.3,-.3,-.9,-.5,-1.6,-.5c-.2,0,-.5,.1,-.8,.1ZM497,867.3l.1,-.3h4c.7,0,1.3,.1,1.8,.3c.5,.2,.9,.5,1.2,.9c.2,.3,.3,.7,.3,1.1c0,.7,-.2,1.3,-.7,1.8c-.4,.5,-1.2,.9,-2.2,1.1c.7,.3,1.2,.6,1.5,1c.3,.4,.5,.9,.5,1.4c0,.5,-.2,1.1,-.5,1.6c-.3,.5,-.6,.9,-1.1,1.1c-.4,.3,-1,.5,-1.6,.7c-.4,0,-1.1,.1,-2.1,.1h-4.1l.1,-.3c.5,0,.8,-.1,.9,-.1c.2,-.1,.4,-.3,.5,-.4c.1,-.2,.3,-.7,.5,-1.4l2,-6.8c.2,-.5,.3,-.9,.3,-1.2c0,-.2,-.1,-.3,-.3,-.4c-.1,-.2,-.4,-.2,-.8,-.2c-.1,0,-.2,0,-.3,0Z" class="g2_63"/>
<path fill-rule="evenodd" d="M547.3,867.5l-.8,3.6h-.3v-.9c0,-.3,-.1,-.6,-.2,-.9c-.1,-.2,-.2,-.5,-.4,-.6c-.2,-.2,-.5,-.4,-.8,-.5c-.3,-.1,-.6,-.1,-1,-.1c-1,0,-1.8,.2,-2.6,.8c-.9,.6,-1.6,1.6,-2.2,2.9c-.4,1,-.6,2,-.6,3.1c0,1.1,.3,1.9,.9,2.6c.7,.6,1.5,.9,2.5,.9c.7,0,1.4,-.2,2,-.5c.6,-.3,1.2,-.8,1.7,-1.6h.4c-.6,1,-1.3,1.7,-2,2.2c-.8,.4,-1.7,.6,-2.7,.6c-.9,0,-1.7,-.2,-2.4,-.5c-.7,-.4,-1.2,-1,-1.6,-1.6c-.4,-.7,-.6,-1.5,-.6,-2.3c0,-1.2,.4,-2.4,1,-3.5c.7,-1.1,1.6,-2.1,2.7,-2.7c1.1,-.7,2.3,-1,3.4,-1c.6,0,1.2,.1,1.9,.4c.3,.1,.5,.2,.6,.2c.1,0,.2,-.1,.4,-.1c.1,-.1,.2,-.2,.4,-.5Z" class="g2_63"/>
<path fill-rule="evenodd" d="M434.8,820c.6,.1,1.1,.1,1.4,.1c.9,0,1.6,-.2,2.3,-.8c.7,-.5,1,-1.2,1,-2.1c0,-.6,-.2,-1.1,-.6,-1.5c-.4,-.4,-1.1,-.6,-2,-.6c-.2,0,-.4,0,-.6,0Zm1.7,-5.5c.3,0,.6,0,.7,0c1.2,0,2,-.2,2.6,-.7c.5,-.5,.8,-1.1,.8,-1.9c0,-.5,-.2,-1,-.5,-1.3c-.3,-.3,-.9,-.4,-1.6,-.4c-.2,0,-.5,0,-.8,0Zm-1.7,-4.6l.1,-.3h4c.6,0,1.2,.1,1.8,.3c.5,.2,.9,.5,1.1,.9c.3,.4,.4,.7,.4,1.2c0,.6,-.2,1.2,-.7,1.7c-.4,.5,-1.2,.9,-2.2,1.1c.6,.3,1.1,.6,1.5,1c.3,.5,.4,.9,.4,1.4c0,.6,-.1,1.1,-.4,1.6c-.3,.5,-.6,.9,-1.1,1.2c-.4,.2,-1,.4,-1.6,.6c-.4,.1,-1.1,.1,-2.1,.1h-4.1l.1,-.3c.5,0,.7,0,.9,-.1c.2,-.1,.4,-.2,.5,-.4c.1,-.2,.3,-.7,.5,-1.4l2,-6.7c.2,-.6,.2,-1,.2,-1.2c0,-.2,0,-.4,-.2,-.5c-.1,-.1,-.4,-.2,-.8,-.2c-.1,0,-.2,0,-.3,0Z" class="g2_63"/>
<path fill-rule="evenodd" d="M552.2,790l-2.3,8c1,-1.5,1.7,-2.5,2.3,-3c.6,-.5,1.1,-.7,1.6,-.7c.3,0,.5,0,.7,.2c.1,.2,.2,.4,.2,.7c0,.4,0,.8,-.2,1.4l-1,3.4c-.1,.4,-.2,.6,-.2,.7q0,.1,.1,.2c0,0,.1,0,.1,0c.1,0,.2,0,.3,-.1c.3,-.2,.6,-.5,.9,-1l.3,.2c-.2,.3,-.5,.6,-.8,.9c-.3,.4,-.6,.6,-.9,.8c-.2,.1,-.4,.2,-.6,.2c-.2,0,-.4,-.1,-.5,-.2c-.1,-.2,-.2,-.3,-.2,-.5c0,-.3,.1,-.7,.3,-1.4l.9,-3.2c.2,-.5,.2,-.8,.2,-1c0,-.1,0,-.2,-.1,-.3c0,0,-.1,-.1,-.2,-.1c-.2,0,-.4,.1,-.6,.2c-.4,.2,-.8,.7,-1.3,1.3c-.1,.2,-.5,.8,-1.3,2c-.2,.4,-.4,.8,-.6,1.3l-.5,1.7h-1.2l2.7,-9.4l.3,-1c0,-.2,-.1,-.3,-.2,-.4c-.1,-.1,-.3,-.2,-.4,-.2c-.1,0,-.3,.1,-.5,.1h-.2v-.3Z" class="g3_63"/>
<path fill-rule="evenodd" d="M448.4,876.7l-2.3,7.9c1,-1.5,1.7,-2.5,2.3,-3c.5,-.5,1.1,-.7,1.6,-.7c.3,0,.5,.1,.6,.3c.2,.1,.3,.4,.3,.7c0,.3,-.1,.8,-.2,1.3l-1,3.4c-.1,.4,-.2,.7,-.2,.7c0,.1,0,.2,.1,.2c0,.1,.1,.1,.1,.1c.1,0,.2,-.1,.3,-.1c.3,-.3,.6,-.6,.9,-1l.2,.1c-.1,.3,-.4,.6,-.7,1c-.4,.3,-.6,.6,-.9,.7c-.2,.1,-.4,.2,-.6,.2c-.2,0,-.4,-.1,-.5,-.2c-.1,-.1,-.2,-.3,-.2,-.5c0,-.2,.1,-.7,.3,-1.3l.9,-3.3c.1,-.4,.2,-.7,.2,-1c0,-.1,0,-.2,-.1,-.2c-.1,-.1,-.2,-.1,-.3,-.1c-.1,0,-.3,0,-.5,.2c-.4,.2,-.8,.6,-1.3,1.2c-.1,.2,-.6,.9,-1.3,2.1c-.2,.4,-.4,.8,-.6,1.2l-.5,1.7h-1.2l2.7,-9.4l.3,-1c0,-.1,-.1,-.3,-.2,-.4c-.1,-.1,-.3,-.1,-.5,-.1c0,0,-.2,0,-.4,0l-.2,.1v-.4Z" class="g4_63"/>
<path fill-rule="evenodd" d="M478.7,825.8l-2,7.1c.9,-1.3,1.6,-2.2,2.1,-2.6c.5,-.5,.9,-.7,1.4,-.7c.2,0,.4,.1,.6,.2c.1,.2,.2,.4,.2,.7c0,.3,0,.7,-.2,1.2l-.9,3.1c-.1,.3,-.2,.5,-.2,.6c0,0,.1,.1,.1,.1q.1,.1,.2,.1c0,0,.1,0,.2,-.1c.3,-.2,.5,-.5,.8,-.9l.2,.2c-.1,.2,-.4,.5,-.7,.8c-.3,.3,-.5,.5,-.7,.7c-.2,.1,-.4,.1,-.6,.1c-.2,0,-.3,0,-.4,-.1c-.2,-.1,-.2,-.3,-.2,-.5c0,-.2,.1,-.6,.2,-1.2l.9,-2.9c.1,-.4,.2,-.7,.2,-.9c0,-.1,-.1,-.2,-.1,-.2c-.1,-.1,-.2,-.1,-.3,-.1c-.1,0,-.3,0,-.5,.1c-.3,.2,-.7,.6,-1.1,1.2c-.1,.1,-.5,.8,-1.2,1.8c-.2,.4,-.4,.7,-.5,1.2l-.5,1.5h-1.1l2.4,-8.5l.3,-.9c0,-.1,-.1,-.2,-.2,-.3c-.1,-.1,-.2,-.2,-.4,-.2c0,0,-.2,0,-.4,.1h-.1v-.3Z" class="g5_63"/>
<path fill-rule="evenodd" d="M559.4,719.5l-.9,3.6h-.3v-.9c0,-.4,-.1,-.7,-.2,-.9c-.1,-.3,-.2,-.5,-.4,-.7c-.2,-.2,-.5,-.3,-.8,-.4c-.3,-.1,-.6,-.2,-1,-.2c-.9,0,-1.8,.3,-2.5,.8c-1,.7,-1.7,1.7,-2.2,2.9c-.5,1,-.7,2.1,-.7,3.1c0,1.1,.3,2,1,2.6c.6,.7,1.4,1,2.4,1c.8,0,1.4,-.2,2,-.5c.6,-.4,1.2,-.9,1.7,-1.6h.4c-.6,1,-1.3,1.7,-2,2.1c-.8,.5,-1.6,.7,-2.7,.7c-.9,0,-1.7,-.2,-2.4,-.6c-.7,-.4,-1.2,-.9,-1.6,-1.6c-.3,-.7,-.5,-1.4,-.5,-2.2c0,-1.2,.3,-2.4,1,-3.5c.6,-1.2,1.5,-2.1,2.6,-2.8c1.2,-.6,2.3,-.9,3.5,-.9c.5,0,1.1,.1,1.8,.3c.3,.2,.5,.2,.6,.2c.2,0,.3,0,.4,-.1c.1,0,.2,-.2,.5,-.4Z" class="g2_63"/>
<path fill-rule="evenodd" d="M549.2,877.1l1.8,-.9h.2v6.3c0,.4,0,.7,0,.8c0,.1,.1,.2,.2,.2c.1,.1,.4,.1,.7,.1v.2h-2.8v-.2c.4,0,.6,0,.7,-.1c.1,0,.2,-.1,.2,-.2c0,-.1,.1,-.4,.1,-.8v-4c0,-.5,-.1,-.9,-.1,-1c0,-.2,-.1,-.2,-.1,-.3c-.1,0,-.2,-.1,-.3,-.1c-.1,0,-.3,.1,-.5,.2Z" class="g2_63"/>
<path fill-rule="evenodd" d="M446,819l1.8,-.9h.1v6.2c0,.5,.1,.7,.1,.8c0,.1,.1,.2,.2,.2c.1,.1,.3,.1,.7,.1v.2h-2.8v-.2c.3,0,.6,0,.7,0c.1,-.1,.1,-.2,.2,-.3c0,0,0,-.3,0,-.8v-4c0,-.5,0,-.8,0,-1c0,-.1,-.1,-.2,-.1,-.3c-.1,0,-.2,0,-.3,0c-.1,0,-.3,0,-.6,.1Z" class="g2_63"/>
<path clip-path="url(#c1_63)" fill-rule="evenodd" d="M560.8,803.2c-.4,.4,-.8,.8,-1.2,1c-.4,.2,-.8,.3,-1.2,.3c-.5,0,-.9,-.2,-1.2,-.4c-.3,-.3,-.4,-.7,-.4,-1.2c0,-.6,.1,-1.1,.4,-1.7c.3,-.5,.8,-.9,1.3,-1.3c.5,-.3,1,-.5,1.5,-.5c.4,0,.7,.1,.9,.3c.2,.1,.3,.3,.3,.6c0,.2,0,.4,-.2,.6c-.1,.1,-.2,.1,-.4,.1c-.1,0,-.2,0,-.2,-.1c-.1,0,-.2,-.1,-.2,-.2c0,-.1,.1,-.2,.1,-.2c0,-.1,.1,-.2,.2,-.2c0,-.1,.1,-.2,.1,-.2q0,-.1,0,-.1c0,-.1,0,-.2,-.1,-.2c-.1,-.1,-.2,-.1,-.4,-.1c-.4,0,-.7,.1,-1.1,.3c-.3,.3,-.6,.6,-.9,1.1c-.3,.6,-.4,1.1,-.4,1.7c0,.4,.1,.7,.3,.9c.2,.2,.5,.3,.9,.3c.2,0,.5,-.1,.8,-.2c.3,-.2,.6,-.4,.9,-.8Z" class="g3_63"/>
<path fill-rule="evenodd" d="M455.9,886.3c-.2,0,-.4,.2,-.7,.4c-.4,.3,-.7,.7,-1,1.3c-.3,.7,-.4,1.2,-.4,1.7c0,.2,0,.4,.2,.6c.1,.1,.2,.2,.4,.2c.4,0,.8,-.3,1.3,-.9c.6,-.8,.9,-1.6,.9,-2.4c0,-.3,0,-.5,-.2,-.7c-.1,-.1,-.2,-.2,-.5,-.2m2,-.2l-1.1,3.7l-.1,.5v.1c0,0,0,.1,0,.1q.1,.1,.2,.1c0,0,.1,0,.1,-.1c.2,-.1,.4,-.3,.6,-.7l.2,.2c-.3,.3,-.5,.6,-.8,.8c-.3,.2,-.5,.3,-.7,.3c-.2,0,-.3,0,-.4,-.1c-.1,-.1,-.1,-.2,-.1,-.3c0,-.2,0,-.4,.1,-.7l.1,-.4c-.4,.6,-.9,1,-1.3,1.3c-.3,.1,-.5,.2,-.8,.2c-.3,0,-.5,-.1,-.7,-.3c-.2,-.2,-.3,-.5,-.3,-.9c0,-.6,.2,-1.2,.5,-1.8c.4,-.7,.8,-1.2,1.3,-1.6c.5,-.3,.9,-.4,1.2,-.4c.3,0,.4,0,.6,.1c.1,.1,.2,.3,.3,.6l.2,-.6Z" class="g4_63"/>
<path fill-rule="evenodd" d="M483.6,838.3c.3,.2,.6,.3,.8,.3c.3,0,.6,-.1,.9,-.3c.4,-.3,.6,-.6,.9,-1.1c.2,-.5,.3,-1,.3,-1.5c0,-.3,-.1,-.6,-.2,-.7c-.2,-.2,-.4,-.3,-.6,-.3c-.3,0,-.6,.1,-.9,.4c-.2,.2,-.5,.6,-.6,1Zm1.9,-6.6l-1,3.4c.3,-.3,.6,-.6,.8,-.7c.3,-.1,.5,-.2,.8,-.2c.3,0,.6,.2,.9,.4c.2,.2,.3,.6,.3,1c0,.5,-.1,1,-.4,1.5c-.3,.6,-.7,1,-1.2,1.3c-.4,.3,-.9,.4,-1.3,.4c-.5,0,-1,-.2,-1.6,-.5l1.5,-5.2c.2,-.4,.2,-.6,.2,-.7q0,-.1,-.1,-.2c0,0,-.2,-.1,-.3,-.1c-.1,0,-.2,0,-.3,.1V832Z" class="g5_63"/>
<path fill-rule="evenodd" d="M497.6,886.6l-3.3,4.4h2.8Zm1.6,-2.7l-.9,9.2c0,.5,0,.7,0,.9c0,.2,0,.4,.1,.5c.1,.1,.2,.2,.4,.3c.2,.1,.5,.1,.9,.1l-.1,.3h-4.3v-.3h.2c.4,0,.7,0,.9,-.2c.2,-.1,.3,-.3,.4,-.5c0,-.2,.1,-.6,.1,-1.2l.2,-1.4h-3.2l-1.1,1.5c-.3,.4,-.5,.6,-.5,.8c-.1,.1,-.1,.3,-.1,.4c0,.2,0,.3,.2,.4c.1,.2,.4,.2,.7,.2l-.1,.3h-3.3l.1,-.3c.4,0,.8,-.1,1.1,-.4c.3,-.2,.7,-.8,1.4,-1.6l6.6,-9Z" class="g2_63"/>
<path fill-rule="evenodd" d="M503.7,893.5l1.8,-.9h.2v6.3c0,.4,0,.6,.1,.7c0,.1,.1,.2,.2,.3c.1,0,.3,.1,.7,.1v.2h-2.8V900c.3,0,.5,-.1,.7,-.1q.1,-.1,.2,-.2c0,-.1,0,-.4,0,-.8v-4c0,-.6,0,-.9,0,-1.1c-.1,-.1,-.1,-.2,-.2,-.2c0,-.1,-.1,-.1,-.2,-.1c-.1,0,-.3,0,-.6,.2Z" class="g2_63"/>
<path fill-rule="evenodd" d="M539.7,723L424.8,861.4l68,.7Z" class="g1_63"/>
<path d="M552.2,861C552,853.2,548.3,849.6,541,849.5m-65.6,29.7c-2.3,7.4,0,12.1,6.8,14.6M445.1,837.5c6.9,3.7,11.9,2.4,15.7,-3.8" class="gc_63"/>
<path fill-rule="evenodd" d="M451.6,835.2c.3,.1,.6,0,.8,-.2c.1,-.3,0,-.7,-.3,-.8c-.2,-.2,-.6,-.1,-.8,.2c-.1,.3,0,.6,.3,.8Z" class="g2_63"/>
<path d="M451.6,835.2c.3,.1,.6,0,.8,-.2c.1,-.3,0,-.7,-.3,-.8c-.2,-.2,-.6,-.1,-.8,.2c-.1,.3,0,.6,.3,.8Z" class="gd_63"/>
<path fill-rule="evenodd" d="M478.9,885c-.1,.4,.1,.7,.4,.8c.3,.1,.7,-.1,.8,-.4c.1,-.3,-.1,-.6,-.4,-.7c-.3,-.1,-.7,0,-.8,.3Z" class="g2_63"/>
<path d="M478.9,885c-.1,.4,.1,.7,.4,.8c.3,.1,.7,-.1,.8,-.4c.1,-.3,-.1,-.6,-.4,-.7c-.3,-.1,-.7,0,-.8,.3Z" class="gd_63"/>
<path fill-rule="evenodd" d="M547,856.7c0,-.3,-.3,-.6,-.6,-.6c-.4,0,-.6,.3,-.6,.6c0,.3,.3,.6,.6,.6c.3,0,.6,-.3,.6,-.6Z" class="g2_63"/>
<path d="M547,856.7c0,-.3,-.3,-.6,-.6,-.6c-.4,0,-.6,.3,-.6,.6c0,.3,.3,.6,.6,.6c.3,0,.6,-.3,.6,-.6Z" class="gd_63"/>
<path d="M494.4,861.4h65.3" class="ge_63"/>
<path d="M540.8,860.7L540.7,721M425,861.5l69.4,-.1" class="gf_63"/>
<path d="M540.8,721.9L425,861.5" class="gg_63"/>
<path d="M493.3,861.5L540.8,721.9" class="gh_63"/>
<path d="M479.2,903.2L493,862.4" class="ge_63"/>
<path d="M486.7,882.5L425.2,861.6" class="gh_63"/>
<path d="M493.9,860.8L453.1,827.1" class="gg_63"/>
<path fill-rule="evenodd" d="M478.8,826.8l-2.3,8c1,-1.5,1.7,-2.5,2.3,-3c.6,-.5,1.1,-.7,1.6,-.7c.3,0,.5,.1,.7,.3c.1,.1,.2,.4,.2,.7c0,.3,-.1,.8,-.2,1.3l-1,3.4c-.1,.4,-.2,.7,-.2,.7q0,.1,.1,.2c0,0,.1,.1,.1,.1c.1,0,.2,-.1,.3,-.1c.3,-.3,.6,-.6,.9,-1l.3,.1c-.2,.3,-.5,.6,-.8,1c-.3,.3,-.6,.6,-.9,.7c-.2,.1,-.4,.2,-.6,.2c-.2,0,-.4,-.1,-.5,-.2c-.1,-.1,-.2,-.3,-.2,-.5c0,-.2,.1,-.7,.3,-1.3l.9,-3.3c.2,-.4,.2,-.7,.2,-1c0,-.1,0,-.2,-.1,-.2q-.1,-.1,-.3,-.1c-.1,0,-.3,0,-.5,.1c-.4,.3,-.8,.7,-1.3,1.3c-.1,.2,-.6,.9,-1.3,2.1c-.2,.3,-.4,.8,-.6,1.2l-.5,1.7h-1.2l2.7,-9.4l.3,-1c0,-.1,-.1,-.3,-.2,-.4c-.1,-.1,-.3,-.1,-.4,-.1c-.1,0,-.3,0,-.5,0h-.2v-.3Z" class="g5_63"/>
<path fill-rule="evenodd" d="M484.2,840.8c.3,.2,.6,.3,.9,.3c.3,0,.7,-.2,1,-.4c.4,-.2,.7,-.6,.9,-1.2c.3,-.5,.4,-1.1,.4,-1.7c0,-.3,-.1,-.6,-.2,-.8c-.2,-.1,-.4,-.2,-.6,-.2c-.4,0,-.7,.1,-1,.4c-.4,.2,-.6,.6,-.7,1.1Zm2.1,-7.4l-1.1,3.8c.4,-.4,.7,-.6,.9,-.8c.3,-.1,.6,-.2,.8,-.2c.4,0,.8,.2,1,.4c.3,.3,.4,.7,.4,1.1c0,.6,-.2,1.2,-.5,1.8c-.3,.6,-.8,1,-1.3,1.3c-.5,.4,-1,.5,-1.5,.5c-.5,0,-1.1,-.2,-1.7,-.6L485,835c.1,-.5,.2,-.7,.2,-.8c0,-.1,0,-.2,-.1,-.2c-.1,-.1,-.2,-.1,-.4,-.1c0,0,-.2,0,-.3,0v-.2Z" class="g5_63"/>
<path fill-rule="evenodd" d="M677.1,801.3l-.8,9.2c-.1,.4,-.1,.7,-.1,.8c0,.3,0,.4,.1,.5c.1,.2,.3,.3,.4,.4c.2,.1,.5,.1,.9,.1l-.1,.3h-4.3l.1,-.3h.2c.3,0,.6,-.1,.8,-.2c.2,-.1,.3,-.3,.4,-.5c.1,-.2,.1,-.6,.2,-1.2L675,809h-3.1l-1.1,1.5c-.3,.3,-.5,.6,-.5,.7c-.1,.2,-.1,.3,-.1,.5c0,.1,.1,.3,.2,.4c.1,.1,.4,.2,.7,.2l-.1,.3h-3.2v-.3c.4,0,.8,-.1,1.1,-.4c.3,-.3,.8,-.8,1.4,-1.6l6.5,-9Zm-1.6,2.7l-3.2,4.4h2.8Z" class="g2_63"/>
<path fill-rule="evenodd" d="M829.6,800.5l.1,-.3h3.9c.7,0,1.3,.1,1.8,.3c.5,.2,.9,.5,1.1,.9c.3,.4,.4,.7,.4,1.2c0,.6,-.2,1.2,-.7,1.7c-.4,.5,-1.2,.9,-2.2,1.1c.7,.3,1.2,.6,1.5,1c.3,.4,.4,.9,.4,1.4c0,.5,-.1,1.1,-.4,1.6c-.3,.5,-.6,.9,-1.1,1.1c-.4,.3,-.9,.5,-1.5,.6c-.5,.1,-1.2,.2,-2.1,.2h-4l.1,-.3c.4,0,.7,-.1,.8,-.1c.2,-.1,.4,-.3,.5,-.4c.1,-.2,.3,-.7,.5,-1.4l2,-6.7c.1,-.6,.2,-1,.2,-1.2c0,-.2,0,-.4,-.2,-.5c-.1,-.1,-.4,-.2,-.8,-.2c-.1,0,-.2,0,-.3,0m1.6,4.6c.4,0,.6,0,.8,0c1.1,0,2,-.2,2.5,-.7c.5,-.5,.8,-1.1,.8,-1.9c0,-.5,-.1,-1,-.5,-1.3c-.3,-.3,-.8,-.4,-1.6,-.4c-.2,0,-.4,0,-.7,.1Zm-1.6,5.5c.6,0,1.1,.1,1.4,.1c.9,0,1.6,-.3,2.2,-.8c.7,-.5,1,-1.2,1,-2.1c0,-.6,-.2,-1.2,-.6,-1.5c-.4,-.4,-1,-.6,-1.9,-.6c-.2,0,-.4,0,-.7,0Z" class="g2_63"/>
<path fill-rule="evenodd" d="M678.2,836.7l.2,-.3h3.9c.6,0,1.2,.1,1.7,.3c.5,.2,.9,.5,1.2,.8c.2,.4,.4,.8,.4,1.2c0,.6,-.3,1.2,-.7,1.7c-.5,.5,-1.2,.9,-2.2,1.2c.6,.2,1.1,.6,1.4,1c.3,.4,.5,.8,.5,1.3c0,.6,-.2,1.1,-.4,1.6c-.3,.5,-.7,.9,-1.1,1.2c-.4,.2,-1,.5,-1.6,.6c-.4,.1,-1.1,.1,-2.1,.1h-4l.1,-.3c.4,0,.7,0,.9,-.1c.2,-.1,.4,-.2,.4,-.4c.2,-.2,.3,-.6,.6,-1.4l1.9,-6.7c.2,-.6,.3,-1,.3,-1.2c0,-.2,-.1,-.3,-.2,-.5c-.2,-.1,-.5,-.1,-.9,-.1c-.1,0,-.2,0,-.3,0m1.7,4.6c.3,0,.6,0,.7,0c1.2,0,2,-.3,2.5,-.8c.6,-.5,.9,-1.1,.9,-1.8c0,-.6,-.2,-1,-.5,-1.3c-.4,-.3,-.9,-.5,-1.6,-.5c-.2,0,-.5,0,-.8,.1Zm-1.6,5.4c.6,.1,1,.1,1.4,.1c.8,0,1.5,-.2,2.2,-.7c.6,-.6,1,-1.3,1,-2.1c0,-.7,-.2,-1.2,-.6,-1.6c-.4,-.4,-1.1,-.6,-2,-.6c-.1,0,-.4,0,-.6,.1Z" class="g2_63"/>
<path fill-rule="evenodd" d="M656.8,802.2l-.8,3.6h-.3v-.9c0,-.4,-.1,-.7,-.2,-.9c-.1,-.3,-.3,-.5,-.4,-.7c-.2,-.2,-.5,-.3,-.8,-.4c-.3,-.1,-.6,-.2,-1,-.2c-.9,0,-1.8,.3,-2.5,.8c-.9,.7,-1.6,1.7,-2.2,2.9c-.4,1,-.6,2.1,-.6,3.1c0,1.1,.3,1.9,.9,2.6c.6,.6,1.4,.9,2.4,.9c.8,0,1.5,-.1,2,-.5c.6,-.3,1.2,-.8,1.7,-1.5h.3c-.5,.9,-1.2,1.6,-1.9,2.1c-.7,.4,-1.6,.6,-2.6,.6c-.9,0,-1.7,-.1,-2.4,-.5c-.7,-.4,-1.2,-.9,-1.6,-1.6c-.3,-.7,-.5,-1.4,-.5,-2.2c0,-1.2,.3,-2.4,1,-3.6c.6,-1.1,1.5,-2,2.6,-2.6c1.1,-.7,2.2,-1,3.4,-1c.5,0,1.1,.1,1.8,.4c.3,.1,.5,.1,.6,.1c.1,0,.2,0,.3,-.1c.1,0,.3,-.2,.5,-.4Z" class="g2_63"/>
<path fill-rule="evenodd" d="M644.2,756.2l-2.3,8c1,-1.5,1.7,-2.5,2.3,-3c.5,-.5,1.1,-.7,1.6,-.7c.2,0,.4,0,.6,.2c.2,.2,.3,.4,.3,.7c0,.4,-.1,.8,-.3,1.4l-.9,3.4c-.2,.4,-.2,.6,-.2,.7c0,0,0,.1,0,.1q.1,.1,.2,.1c.1,0,.2,0,.2,-.1c.3,-.2,.7,-.6,1,-1l.2,.2c-.2,.3,-.4,.6,-.8,.9c-.3,.4,-.6,.6,-.8,.7c-.2,.2,-.4,.2,-.6,.2c-.2,0,-.4,0,-.5,-.2c-.1,-.1,-.2,-.2,-.2,-.4c0,-.3,.1,-.7,.3,-1.4l.9,-3.2c.1,-.5,.2,-.8,.2,-1c0,-.1,0,-.2,-.1,-.3c-.1,0,-.2,-.1,-.3,-.1c-.1,0,-.3,.1,-.5,.2c-.4,.2,-.8,.7,-1.3,1.3c-.1,.2,-.5,.8,-1.3,2c-.2,.4,-.4,.8,-.5,1.3l-.5,1.6h-1.3l2.7,-9.3l.3,-1c0,-.1,-.1,-.3,-.2,-.4c-.1,-.1,-.2,-.1,-.4,-.1c-.1,0,-.3,0,-.5,0h-.1v-.3Z" class="g3_63"/>
<path fill-rule="evenodd" d="M766.7,823.8l-2.3,7.9c1,-1.5,1.8,-2.5,2.3,-3c.6,-.5,1.1,-.7,1.6,-.7c.2,0,.5,.1,.6,.2c.2,.2,.3,.5,.3,.8c0,.3,-.1,.8,-.2,1.3l-1,3.4c-.1,.4,-.2,.6,-.2,.7q0,.1,.1,.2c0,0,.1,0,.1,0c.1,0,.2,0,.3,-.1c.3,-.2,.6,-.5,.9,-1l.2,.2c-.2,.3,-.4,.6,-.7,.9c-.4,.4,-.7,.6,-.9,.8c-.2,.1,-.4,.2,-.6,.2c-.2,0,-.4,-.1,-.5,-.2c-.1,-.2,-.2,-.3,-.2,-.5c0,-.3,.1,-.7,.3,-1.4l.9,-3.2c.1,-.4,.2,-.8,.2,-1c0,-.1,0,-.2,-.1,-.3c-.1,0,-.2,-.1,-.3,-.1c-.1,0,-.3,.1,-.5,.2c-.4,.3,-.8,.7,-1.3,1.3c-.1,.2,-.5,.8,-1.3,2c-.2,.4,-.4,.8,-.5,1.3l-.5,1.7h-1.2l2.6,-9.4l.3,-1c0,-.1,-.1,-.3,-.2,-.4c-.1,-.1,-.2,-.1,-.4,-.1c-.1,0,-.2,0,-.4,0h-.2v-.3Z" class="g5_63"/>
<path fill-rule="evenodd" d="M689.2,845.7l1.8,-.9h.2V851c0,.4,0,.7,0,.8c.1,.1,.2,.2,.3,.2c.1,.1,.3,.1,.6,.1v.2h-2.7v-.2c.3,0,.5,0,.6,-.1c.1,0,.2,-.1,.2,-.2c.1,-.1,.1,-.3,.1,-.8v-4c0,-.5,0,-.8,0,-1c-.1,-.1,-.1,-.2,-.2,-.2q-.1,-.1,-.2,-.1c-.2,0,-.3,0,-.6,.1Z" class="g2_63"/>
<path fill-rule="evenodd" d="M658.6,811.7l1.8,-.8h.2v6.2c0,.4,0,.7,0,.8c.1,.1,.1,.2,.2,.2c.1,.1,.4,.1,.7,.1v.2h-2.8v-.2c.4,0,.6,0,.7,-.1c.1,0,.2,-.1,.2,-.2c.1,-.1,.1,-.4,.1,-.8v-4c0,-.5,0,-.9,-.1,-1c0,-.1,0,-.2,-.1,-.3c-.1,0,-.2,-.1,-.2,-.1c-.2,0,-.4,.1,-.6,.2Z" class="g2_63"/>
<path fill-rule="evenodd" d="M652.6,769.3c-.3,.5,-.7,.8,-1.1,1c-.4,.2,-.8,.4,-1.2,.4c-.5,0,-.9,-.2,-1.2,-.5c-.3,-.3,-.4,-.7,-.4,-1.2c0,-.5,.1,-1.1,.4,-1.6c.3,-.5,.7,-1,1.3,-1.3c.5,-.3,1,-.5,1.5,-.5c.4,0,.7,.1,.9,.2c.2,.2,.3,.4,.3,.7c0,.2,-.1,.4,-.2,.5c-.1,.2,-.3,.2,-.4,.2c-.1,0,-.2,0,-.3,-.1c-.1,-.1,-.1,-.2,-.1,-.3c0,0,0,-.1,0,-.2c.1,0,.1,-.1,.2,-.2c.1,0,.1,-.1,.2,-.1q0,-.1,0,-.2c0,0,0,-.1,-.1,-.1c-.1,-.1,-.3,-.2,-.5,-.2c-.3,0,-.7,.2,-1,.4c-.3,.3,-.6,.6,-.9,1.1c-.3,.5,-.4,1.1,-.4,1.7c0,.3,.1,.6,.3,.8c.2,.3,.5,.4,.8,.4c.3,0,.6,-.1,.9,-.2c.2,-.2,.5,-.4,.9,-.8Z" class="g3_63"/>
<path fill-rule="evenodd" d="M774.1,830.3l-1.1,3.8c.3,-.4,.6,-.7,.9,-.8c.3,-.1,.5,-.2,.8,-.2c.4,0,.7,.1,1,.4c.2,.3,.4,.6,.4,1.1c0,.6,-.2,1.2,-.5,1.7c-.4,.6,-.8,1.1,-1.3,1.4c-.5,.3,-1,.5,-1.5,.5c-.5,0,-1.1,-.2,-1.6,-.6l1.6,-5.7c.1,-.5,.2,-.7,.2,-.8c0,-.1,0,-.2,-.1,-.2c-.1,-.1,-.2,-.1,-.4,-.1c0,0,-.1,0,-.3,0v-.2Zm-2.1,7.3c.3,.2,.7,.3,.9,.3c.3,0,.7,-.1,1,-.3c.3,-.3,.6,-.7,.9,-1.2c.2,-.6,.4,-1.1,.4,-1.7c0,-.3,-.1,-.6,-.3,-.8c-.1,-.2,-.3,-.3,-.6,-.3c-.3,0,-.6,.2,-.9,.4c-.4,.3,-.6,.7,-.7,1.2Z" class="g5_63"/>
<path fill-rule="evenodd" d="M712.1,730.4l-.8,9.2c-.1,.5,-.1,.7,-.1,.9c0,.2,.1,.4,.1,.5c.1,.1,.3,.2,.5,.3c.1,.1,.4,.1,.8,.1v.3h-4.4l.1,-.3h.2c.4,0,.7,0,.9,-.2c.1,-.1,.2,-.3,.3,-.5c.1,-.2,.2,-.6,.2,-1.2l.1,-1.4h-3.1l-1.1,1.5c-.3,.4,-.4,.6,-.5,.8c-.1,.1,-.1,.3,-.1,.4c0,.2,.1,.3,.2,.4c.2,.2,.4,.2,.7,.2l-.1,.3h-3.2l.1,-.3c.4,0,.7,-.1,1,-.4c.3,-.2,.8,-.8,1.4,-1.6l6.5,-9Zm-1.6,2.7l-3.2,4.4h2.8Z" class="g2_63"/>
<path fill-rule="evenodd" d="M716.6,740l1.8,-.9h.2v6.2c0,.5,0,.7,0,.8c0,.1,.1,.2,.2,.3c.1,0,.3,0,.7,0v.2h-2.8v-.2c.4,0,.6,0,.7,0c.1,-.1,.2,-.2,.2,-.3c0,0,.1,-.3,.1,-.8v-3.9c0,-.6,-.1,-.9,-.1,-1.1c0,-.1,-.1,-.2,-.1,-.2c-.1,-.1,-.2,-.1,-.3,-.1c-.1,0,-.3,0,-.5,.2Z" class="g2_63"/>
<path fill-rule="evenodd" d="M824.4,796.2L659.1,731.8l20.7,64.3Z" class="g1_63"/>
<path fill-rule="evenodd" d="M655.3,723.2l-.8,3.6h-.3v-.9c0,-.3,-.1,-.6,-.2,-.8c-.1,-.3,-.2,-.5,-.4,-.7c-.2,-.2,-.5,-.3,-.8,-.4c-.3,-.2,-.6,-.2,-1,-.2c-.9,0,-1.8,.3,-2.5,.8c-.9,.7,-1.6,1.6,-2.1,2.9c-.5,1,-.7,2,-.7,3.1c0,1.1,.3,1.9,.9,2.6c.7,.6,1.5,.9,2.5,.9c.7,0,1.4,-.2,1.9,-.5c.6,-.3,1.2,-.9,1.7,-1.6h.4c-.6,1,-1.3,1.7,-2,2.1c-.7,.5,-1.6,.7,-2.6,.7c-.9,0,-1.7,-.2,-2.4,-.5c-.7,-.4,-1.2,-1,-1.6,-1.6c-.3,-.7,-.5,-1.5,-.5,-2.3c0,-1.2,.3,-2.3,1,-3.5c.6,-1.1,1.5,-2,2.6,-2.7c1.1,-.6,2.2,-1,3.4,-1c.5,0,1.1,.2,1.8,.4c.3,.1,.5,.2,.6,.2c.1,0,.2,0,.3,-.1c.1,0,.3,-.2,.5,-.5Z" class="g2_63"/>
<path d="M687.9,743.4c-1.4,7.6,1.4,11.9,8.4,13.6m-37.9,28.2c-7.7,.1,-11.3,3.7,-11.5,11m52.5,55.6c7.2,-2.7,9.4,-7.3,7.3,-14.3" class="gi_63"/>
<path fill-rule="evenodd" d="M692,748.7c-.1,.3,.2,.7,.5,.7c.3,.1,.6,-.1,.7,-.5c0,-.3,-.2,-.6,-.5,-.6c-.3,-.1,-.6,.1,-.7,.4Z" class="g2_63"/>
<path d="M692,748.7c-.1,.3,.2,.7,.5,.7c.3,.1,.6,-.1,.7,-.5c0,-.3,-.2,-.6,-.5,-.6c-.3,-.1,-.6,.1,-.7,.4Z" class="gj_63"/>
<path fill-rule="evenodd" d="M654,790.3c-.3,0,-.6,.3,-.6,.6c0,.4,.3,.6,.6,.6c.4,0,.6,-.3,.6,-.6c0,-.3,-.3,-.6,-.6,-.6Z" class="g2_63"/>
<path d="M654,790.3c-.3,0,-.6,.3,-.6,.6c0,.4,.3,.6,.6,.6c.4,0,.6,-.3,.6,-.6c0,-.3,-.3,-.6,-.6,-.6Z" class="gj_63"/>
<path fill-rule="evenodd" d="M701.8,845.5c.3,-.1,.5,-.5,.4,-.8c-.1,-.3,-.5,-.4,-.8,-.3c-.3,.1,-.4,.4,-.3,.7c.1,.3,.4,.5,.7,.4Z" class="g2_63"/>
<path d="M701.8,845.5c.3,-.1,.5,-.5,.4,-.8c-.1,-.3,-.5,-.4,-.8,-.3c-.3,.1,-.4,.4,-.3,.7c.1,.3,.4,.5,.7,.4Z" class="gj_63"/>
<path clip-path="url(#c2_63)" d="M680.9,797.4l19.5,58.5" class="gk_63"/>
<path d="M659.1,732l21.8,65.4M696.1,841L826.6,796.6" class="gl_63"/>
<path d="M825.7,796.9L659.1,732" class="gm_63"/>
<path d="M680.5,796.5l145.2,.4" class="gn_63"/>
<path clip-path="url(#c2_63)" d="M625.5,796.3l54.1,.2" class="gk_63"/>
<path d="M658.8,796.9l.2,-64.6" class="gn_63"/>
<path d="M681.3,796.7L700,747.6" class="gm_63"/>
<path fill-rule="evenodd" d="M701.1,768.1l-2.3,7.9c1,-1.5,1.8,-2.5,2.3,-3c.6,-.4,1.1,-.7,1.6,-.7c.3,0,.5,.1,.7,.3c.1,.2,.2,.4,.2,.7c0,.4,-.1,.8,-.2,1.3l-1,3.4c-.1,.4,-.2,.7,-.2,.7q0,.1,.1,.2c0,0,.1,.1,.1,.1c.1,0,.2,-.1,.3,-.1c.3,-.3,.6,-.6,.9,-1l.3,.1c-.2,.3,-.5,.6,-.8,1c-.3,.3,-.6,.6,-.9,.7c-.2,.1,-.4,.2,-.6,.2c-.2,0,-.3,-.1,-.5,-.2c-.1,-.1,-.2,-.3,-.2,-.5c0,-.2,.1,-.7,.3,-1.3l1,-3.3c.1,-.4,.1,-.7,.1,-1c0,-.1,0,-.2,-.1,-.2c0,-.1,-.1,-.1,-.2,-.1c-.2,0,-.4,0,-.6,.2c-.3,.2,-.7,.6,-1.2,1.2c-.2,.2,-.6,.9,-1.3,2.1c-.2,.4,-.4,.8,-.6,1.2l-.5,1.7h-1.2l2.6,-9.3l.3,-1.1c0,-.1,0,-.2,-.1,-.3c-.2,-.1,-.3,-.2,-.5,-.2c-.1,0,-.2,0,-.4,.1h-.2v-.3Z" class="g4_63"/>
<path fill-rule="evenodd" d="M710.5,777.5l-1.1,3.6l-.1,.5q0,.1,0,.2c0,0,0,.1,.1,.1c0,0,0,.1,.1,.1c0,0,.1,-.1,.1,-.1c.2,-.1,.4,-.4,.6,-.7l.2,.1c-.3,.4,-.5,.7,-.8,.9c-.2,.2,-.5,.3,-.7,.3c-.2,0,-.3,0,-.3,-.1c-.1,-.1,-.2,-.2,-.2,-.4c0,-.1,.1,-.4,.2,-.7l.1,-.4c-.5,.7,-.9,1.1,-1.3,1.3c-.3,.2,-.6,.3,-.9,.3c-.2,0,-.5,-.1,-.6,-.3c-.2,-.2,-.3,-.5,-.3,-.9c0,-.6,.1,-1.2,.5,-1.9c.3,-.6,.8,-1.1,1.3,-1.5c.4,-.3,.8,-.4,1.2,-.4c.2,0,.4,0,.5,.1c.2,.1,.3,.3,.3,.6l.2,-.6Zm-1.9,.2c-.3,0,-.5,.1,-.8,.4c-.3,.3,-.7,.7,-.9,1.3c-.3,.6,-.5,1.2,-.5,1.7c0,.2,.1,.4,.2,.6c.1,.1,.3,.2,.4,.2c.4,0,.9,-.3,1.3,-.9c.6,-.8,.9,-1.6,.9,-2.4c0,-.3,0,-.5,-.1,-.7c-.2,-.1,-.3,-.2,-.5,-.2Z" class="g4_63"/>
<path d="M185.5,629.1V520.5m21.7,108.6V520.5m21.6,108.6V520.5m21.7,108.6V520.5m21.6,108.6V520.5m21.7,108.6V520.5m21.6,108.6V520.5m-129.9,0h130m-130,21.6h130m-130,21.7h130m-130,21.6h130m-130,21.7h130m-130,21.7h130" class="go_63"/>
<path fill-rule="evenodd" d="M265.7,527.2l-.9,3.9h-.3v-1c-.1,-.3,-.1,-.7,-.2,-.9c-.2,-.3,-.3,-.6,-.5,-.8c-.2,-.2,-.5,-.3,-.8,-.5c-.4,-.1,-.7,-.1,-1.1,-.1c-1.1,0,-2,.3,-2.8,.8c-1.1,.8,-1.9,1.8,-2.4,3.2c-.5,1.1,-.8,2.3,-.8,3.4c0,1.2,.4,2.1,1.1,2.8c.7,.7,1.6,1.1,2.7,1.1c.8,0,1.5,-.2,2.2,-.6c.6,-.3,1.2,-.9,1.8,-1.7h.4c-.7,1.1,-1.4,1.8,-2.2,2.3c-.8,.5,-1.7,.8,-2.9,.8c-1,0,-1.8,-.2,-2.6,-.7c-.8,-.4,-1.3,-1,-1.7,-1.7c-.4,-.8,-.6,-1.6,-.6,-2.4c0,-1.4,.3,-2.6,1,-3.9c.7,-1.3,1.7,-2.2,2.9,-3c1.3,-.7,2.5,-1,3.8,-1c.6,0,1.2,.1,2,.4c.3,.1,.5,.2,.7,.2c.1,0,.2,-.1,.4,-.1c.1,-.1,.2,-.3,.5,-.5Z" class="g2_63"/>
<path fill-rule="evenodd" d="M259.9,611.1L259,615h-.3l-.1,-1c0,-.3,-.1,-.6,-.2,-.9c-.1,-.3,-.2,-.5,-.5,-.8c-.2,-.2,-.4,-.3,-.8,-.4c-.3,-.2,-.7,-.2,-1.1,-.2c-1,0,-2,.3,-2.8,.9c-1,.7,-1.8,1.8,-2.4,3.1c-.4,1.1,-.7,2.3,-.7,3.4c0,1.2,.4,2.1,1,2.9c.7,.7,1.6,1,2.7,1c.9,0,1.6,-.2,2.2,-.6c.7,-.3,1.3,-.9,1.8,-1.7h.5c-.7,1.1,-1.4,1.9,-2.2,2.3c-.8,.5,-1.8,.8,-2.9,.8c-1,0,-1.9,-.2,-2.6,-.6c-.8,-.5,-1.4,-1,-1.8,-1.8c-.4,-.7,-.6,-1.5,-.6,-2.4c0,-1.3,.4,-2.6,1.1,-3.9c.7,-1.2,1.7,-2.2,2.9,-2.9c1.3,-.8,2.5,-1.1,3.8,-1.1c.6,0,1.2,.1,1.9,.4c.4,.1,.6,.2,.7,.2c.2,0,.3,0,.4,-.1c.1,-.1,.3,-.2,.6,-.5Z" class="g2_63"/>
<path fill-rule="evenodd" d="M200,612.6l-3.5,4.8h3Zm1.7,-2.9l-.9,10c0,.5,0,.8,0,1c0,.2,0,.4,.1,.5c.1,.2,.3,.3,.4,.4c.2,.1,.6,.1,1,.1l-.1,.4h-4.8l.1,-.4h.3c.3,0,.7,-.1,.9,-.2c.2,-.1,.3,-.3,.4,-.6c.1,-.2,.1,-.6,.2,-1.3l.1,-1.5H196l-1.3,1.6c-.3,.4,-.4,.7,-.5,.9c-.1,.1,-.1,.3,-.1,.4c0,.2,.1,.4,.2,.5c.2,.1,.4,.2,.8,.2l-.1,.4h-3.6l.1,-.4c.4,0,.8,-.1,1.2,-.4c.3,-.3,.8,-.9,1.5,-1.8l7.2,-9.8Z" class="g2_63"/>
<path fill-rule="evenodd" d="M300.6,621.7c.7,.1,1.2,.2,1.5,.2c1,0,1.8,-.3,2.5,-.9c.7,-.5,1.1,-1.3,1.1,-2.3c0,-.7,-.2,-1.3,-.7,-1.7c-.4,-.4,-1.1,-.6,-2.1,-.6c-.2,0,-.4,0,-.7,0Zm1.8,-5.9c.4,0,.7,0,.8,0c1.3,0,2.2,-.3,2.8,-.8c.6,-.6,.9,-1.2,.9,-2.1c0,-.6,-.2,-1,-.5,-1.4c-.4,-.3,-1,-.5,-1.8,-.5c-.2,0,-.5,0,-.8,.1Zm-1.8,-5.1l.1,-.3H305c.8,0,1.4,.1,2,.3c.5,.3,1,.6,1.3,1c.2,.4,.4,.8,.4,1.3c0,.7,-.3,1.3,-.8,1.9c-.5,.5,-1.3,.9,-2.4,1.2c.7,.3,1.2,.7,1.6,1.1c.3,.5,.5,1,.5,1.5c0,.6,-.2,1.2,-.5,1.7c-.3,.6,-.7,1,-1.2,1.3c-.4,.3,-1,.5,-1.7,.7c-.5,.1,-1.3,.1,-2.3,.1h-4.5l.2,-.3c.4,0,.7,-.1,.9,-.1c.2,-.1,.4,-.3,.5,-.4c.2,-.3,.4,-.8,.6,-1.6l2.2,-7.3c.2,-.7,.2,-1.1,.2,-1.3c0,-.3,0,-.4,-.2,-.6c-.2,-.1,-.5,-.2,-.9,-.2c-.1,0,-.2,0,-.3,0Z" class="g2_63"/>
<path d="M250.9,542.1v65.5m-44.2,-.3h87.7L250.9,542.1l-44.2,65.2Z" class="gp_63"/>
<path clip-path="url(#c3_63)" fill-rule="evenodd" d="M261.1,620.5l2.5,-1.2h.2v8.5c0,.6,.1,.9,.1,1.1c.1,.1,.2,.2,.3,.3c.2,.1,.5,.1,.9,.1v.3h-3.8v-.3c.5,0,.8,0,.9,-.1c.2,-.1,.3,-.2,.3,-.3c.1,-.1,.1,-.5,.1,-1.1v-5.5c0,-.7,0,-1.2,-.1,-1.4c0,-.1,-.1,-.3,-.1,-.3c-.1,-.1,-.2,-.1,-.4,-.1c-.2,0,-.4,0,-.7,.2Z" class="g2_63"/>
<path d="M185.1,218.3H835.8V63.8H185.1V218.3Z" class="gq_63"/>
<path d="M73.6,232.6H835.8M73.6,417.4H835.8M73.6,640.5H835.8" class="gr_63"/>
<path d="M185.1,1080.6H835.8v-164H185.1v164Z" class="gs_63"/>
<path d="M73.6,912.8H835.8" class="gr_63"/>
<path d="M135.8,101.3h39.7V63.8H135.8v37.5Z" class="gt_63"/>
<path fill-rule="evenodd" d="M212.2,192.2l-.9,10.1c-.1,.5,-.1,.8,-.1,1c0,.2,.1,.4,.1,.5c.2,.2,.3,.3,.5,.4c.2,.1,.5,.1,1,.1l-.1,.4h-4.8l.1,-.4h.2c.4,0,.7,-.1,1,-.2c.1,-.1,.3,-.3,.4,-.6c0,-.2,.1,-.6,.2,-1.3l.1,-1.5h-3.5l-1.2,1.6c-.3,.4,-.5,.7,-.5,.9c-.1,.1,-.1,.3,-.1,.4c0,.2,0,.4,.2,.5c.1,.1,.4,.2,.8,.2l-.1,.4h-3.6l.1,-.4c.4,0,.8,-.1,1.1,-.4c.4,-.3,.9,-.9,1.5,-1.8l7.3,-9.9Zm-1.8,3l-3.5,4.8H210Z" class="g2_63"/>
<path fill-rule="evenodd" d="M339.8,193.9l.1,-.3h4.4c.7,0,1.3,.1,1.9,.3c.6,.3,1,.6,1.3,1c.3,.4,.4,.8,.4,1.3c0,.7,-.2,1.3,-.7,1.9c-.5,.5,-1.4,1,-2.5,1.2c.7,.3,1.3,.7,1.6,1.1c.4,.5,.5,1,.5,1.5c0,.6,-.1,1.2,-.4,1.7c-.3,.6,-.7,1,-1.2,1.3c-.5,.3,-1.1,.5,-1.8,.7c-.5,.1,-1.2,.1,-2.3,.1h-4.4l.1,-.3c.5,0,.8,-.1,.9,-.1c.3,-.1,.4,-.3,.6,-.4c.1,-.3,.3,-.8,.5,-1.6L341,196c.2,-.7,.3,-1.1,.3,-1.3c0,-.3,-.1,-.4,-.3,-.6c-.1,-.1,-.4,-.2,-.9,-.2c-.1,0,-.2,0,-.3,0m1.8,5.1c.4,0,.7,0,.9,0c1.2,0,2.1,-.3,2.7,-.8c.6,-.6,.9,-1.2,.9,-2.1c0,-.6,-.1,-1,-.5,-1.4c-.4,-.3,-1,-.5,-1.8,-.5c-.2,0,-.5,0,-.8,.1Zm-1.7,5.9c.6,.1,1.1,.2,1.5,.2c.9,0,1.7,-.3,2.4,-.9c.8,-.5,1.1,-1.3,1.1,-2.2c0,-.8,-.2,-1.4,-.6,-1.8c-.5,-.4,-1.2,-.6,-2.2,-.6c-.2,0,-.4,0,-.7,0Z" class="g2_63"/>
<path fill-rule="evenodd" d="M315.1,72.1l-.9,3.9h-.3V75c-.1,-.4,-.1,-.7,-.2,-1c-.1,-.2,-.3,-.5,-.5,-.7c-.2,-.2,-.5,-.4,-.8,-.5c-.4,-.1,-.7,-.1,-1.1,-.1c-1.1,0,-2,.2,-2.8,.8c-1.1,.8,-1.9,1.8,-2.4,3.2c-.5,1.1,-.7,2.2,-.7,3.4c0,1.2,.3,2.1,1,2.8c.7,.7,1.6,1.1,2.7,1.1c.8,0,1.5,-.2,2.2,-.6c.6,-.4,1.2,-.9,1.8,-1.7h.4c-.7,1.1,-1.4,1.8,-2.2,2.3c-.8,.5,-1.7,.7,-2.9,.7c-.9,0,-1.8,-.2,-2.6,-.6c-.8,-.4,-1.3,-1,-1.7,-1.7c-.4,-.8,-.6,-1.6,-.6,-2.5c0,-1.3,.3,-2.6,1,-3.8c.7,-1.3,1.7,-2.3,3,-3c1.2,-.7,2.4,-1,3.7,-1c.6,0,1.3,.1,2,.4c.3,.1,.5,.2,.7,.2c.1,0,.3,-.1,.4,-.1c.1,-.1,.2,-.3,.5,-.5Z" class="g2_63"/>
<path fill-rule="evenodd" d="M306.4,197.3l-.9,3.9h-.4v-1c0,-.4,-.1,-.7,-.2,-1c-.1,-.2,-.3,-.5,-.5,-.7c-.2,-.2,-.5,-.4,-.8,-.5c-.3,-.1,-.7,-.1,-1.1,-.1c-1.1,0,-2,.2,-2.8,.8c-1,.8,-1.8,1.8,-2.4,3.2c-.5,1.1,-.7,2.2,-.7,3.4c0,1.2,.3,2.1,1,2.8c.7,.7,1.6,1.1,2.7,1.1c.8,0,1.6,-.2,2.2,-.6c.7,-.4,1.3,-.9,1.8,-1.7h.4c-.6,1.1,-1.3,1.8,-2.1,2.3c-.8,.5,-1.8,.7,-2.9,.7c-1,0,-1.9,-.2,-2.6,-.6c-.8,-.4,-1.4,-1,-1.8,-1.7c-.4,-.8,-.6,-1.6,-.6,-2.5c0,-1.3,.4,-2.6,1.1,-3.8c.7,-1.3,1.7,-2.3,2.9,-3c1.2,-.7,2.5,-1,3.7,-1c.6,0,1.3,.1,2,.4c.4,.1,.6,.2,.7,.2c.2,0,.3,-.1,.4,-.1c.1,-.1,.3,-.3,.5,-.5Z" class="g2_63"/>
<path fill-rule="evenodd" d="M337.5,147.3l-.9,10.1c0,.4,0,.7,0,.9c0,.2,0,.4,.1,.5c.1,.2,.3,.3,.4,.4c.2,.1,.6,.1,1,.1l-.1,.4h-4.8l.1,-.4h.2c.4,0,.8,0,1,-.2c.2,-.1,.3,-.3,.4,-.6c.1,-.2,.1,-.6,.2,-1.3l.1,-1.5h-3.4l-1.3,1.7c-.3,.3,-.4,.6,-.5,.8c-.1,.1,-.1,.3,-.1,.4c0,.2,.1,.4,.2,.5c.2,.2,.4,.2,.8,.2l-.1,.4h-3.6l.1,-.4c.4,0,.8,-.1,1.2,-.4c.3,-.3,.8,-.9,1.5,-1.8l7.2,-9.8Zm-1.7,2.9l-3.5,4.8h3Z" class="g2_63"/>
<path fill-rule="evenodd" d="M244.8,121.4l.1,-.3h4.4c.7,0,1.3,.1,1.9,.3c.6,.2,1,.6,1.3,1c.3,.4,.4,.8,.4,1.2c0,.7,-.3,1.4,-.8,1.9c-.5,.6,-1.3,1,-2.4,1.3c.7,.3,1.3,.6,1.6,1.1c.3,.4,.5,.9,.5,1.5c0,.6,-.1,1.2,-.4,1.7c-.4,.6,-.8,1,-1.2,1.3c-.5,.3,-1.1,.5,-1.8,.7c-.5,.1,-1.3,.1,-2.3,.1h-4.4l.1,-.3c.4,0,.8,-.1,.9,-.2c.3,-.1,.4,-.2,.5,-.4c.2,-.2,.4,-.7,.6,-1.5l2.2,-7.4c.2,-.6,.3,-1,.3,-1.3c0,-.2,-.1,-.4,-.3,-.5c-.2,-.1,-.5,-.2,-.9,-.2c-.1,0,-.2,0,-.3,0m1.8,5c.4,.1,.7,.1,.9,.1c1.2,0,2.1,-.3,2.7,-.9c.6,-.5,.9,-1.2,.9,-2c0,-.6,-.2,-1.1,-.5,-1.4c-.4,-.4,-1,-.5,-1.8,-.5c-.2,0,-.5,0,-.8,.1Zm-1.8,6c.7,.1,1.2,.1,1.6,.1c.9,0,1.7,-.2,2.4,-.8c.8,-.6,1.1,-1.3,1.1,-2.3c0,-.7,-.2,-1.3,-.7,-1.7c-.4,-.4,-1.1,-.6,-2.1,-.6c-.2,0,-.4,0,-.7,0Z" class="g2_63"/>
<path d="M215.6,193l85,-108.4L333.1,193H215.6Z" class="gu_63"/>
<path d="M299.9,84.7V192.3" class="gv_63"/>
<path d="M265.2,129.5c3.9,3.4,4.5,7.3,1.7,11.7m48.4,20.6c-1.2,-5,.6,-8.5,5.4,-10.4m-20.1,32.9c5.1,.7,7.7,3.7,7.8,8.9" class="gu_63"/>
<path fill-rule="evenodd" d="M265.7,134.3c.5,.4,.6,1,.2,1.5c-.3,.5,-1,.6,-1.5,.2c-.4,-.3,-.5,-1,-.2,-1.5c.4,-.4,1,-.5,1.5,-.2Z" class="g2_63"/>
<path fill-rule="evenodd" d="M317.7,157.7c-.2,-.6,.1,-1.2,.7,-1.4c.6,-.2,1.2,.1,1.4,.7c.1,.5,-.2,1.1,-.7,1.3c-.6,.2,-1.2,-.1,-1.4,-.6Z" class="g2_63"/>
<path fill-rule="evenodd" d="M303.6,188c.6,.1,1.1,.6,1,1.2c0,.6,-.5,1,-1.1,1c-.6,-.1,-1,-.6,-1,-1.2c0,-.5,.6,-1,1.1,-1Z" class="g2_63"/>
<path d="M216.5,192.6L323.2,159.5" class="go_63"/>
<path d="M260.6,136.2l72.6,56.5" class="gw_63"/>
<path fill-rule="evenodd" d="M250.4,161.5l-2.5,8.7c1,-1.6,1.9,-2.7,2.5,-3.2c.6,-.6,1.2,-.8,1.7,-.8c.3,0,.6,.1,.8,.3c.2,.2,.2,.4,.2,.7c0,.4,0,.9,-.2,1.5l-1.1,3.7c-.1,.5,-.2,.7,-.2,.8q0,.1,.1,.2c0,0,.1,.1,.1,.1c.1,0,.2,-.1,.3,-.1c.4,-.3,.7,-.7,1,-1.1l.3,.1c-.2,.3,-.5,.7,-.8,1.1c-.4,.4,-.7,.6,-1,.8c-.2,.1,-.5,.2,-.7,.2c-.2,0,-.4,-.1,-.5,-.2c-.1,-.2,-.2,-.4,-.2,-.6c0,-.2,.1,-.7,.3,-1.4l1,-3.6c.2,-.5,.2,-.8,.2,-1.1c0,-.1,0,-.2,-.1,-.3c-.1,0,-.2,-.1,-.3,-.1c-.2,0,-.3,.1,-.6,.2c-.4,.3,-.8,.7,-1.4,1.4c-.1,.2,-.6,1,-1.4,2.3c-.3,.4,-.5,.8,-.6,1.3l-.6,1.9h-1.3L248.3,164l.3,-1.1c0,-.1,0,-.3,-.2,-.4c-.1,-.1,-.3,-.2,-.4,-.2c-.2,0,-.3,0,-.5,.1h-.2v-.3Z" class="g2_63"/>
<path fill-rule="evenodd" d="M285.8,135.9l-2.6,8.7c1.1,-1.6,2,-2.7,2.6,-3.3c.6,-.5,1.2,-.8,1.7,-.8c.3,0,.6,.1,.7,.3c.2,.2,.3,.5,.3,.8c0,.4,-.1,.9,-.2,1.4l-1.1,3.8c-.2,.5,-.2,.7,-.2,.7c0,.1,0,.2,.1,.3c0,0,.1,0,.1,0c.1,0,.2,0,.3,-.1c.3,-.2,.7,-.6,1,-1.1l.3,.2c-.2,.3,-.5,.7,-.9,1c-.3,.4,-.6,.7,-.9,.8c-.3,.2,-.5,.2,-.7,.2c-.2,0,-.4,0,-.5,-.2c-.2,-.1,-.2,-.3,-.2,-.5c0,-.3,.1,-.8,.3,-1.5l1,-3.6c.1,-.4,.2,-.8,.2,-1c0,-.1,0,-.2,-.1,-.3c-.1,-.1,-.2,-.1,-.3,-.1c-.2,0,-.4,.1,-.6,.2c-.4,.2,-.9,.7,-1.4,1.4c-.1,.2,-.6,.9,-1.4,2.2c-.3,.4,-.5,.9,-.6,1.4l-.6,1.8h-1.4l3,-10.2l.3,-1.1c0,-.2,-.1,-.3,-.2,-.4c-.1,-.2,-.3,-.2,-.5,-.2c-.1,0,-.2,0,-.5,0l-.1,.1v-.4Z" class="g2_63"/>
<path fill-rule="evenodd" d="M289.2,113l-2.5,8.7c1.1,-1.7,2,-2.7,2.6,-3.3c.6,-.5,1.2,-.8,1.7,-.8c.3,0,.5,.1,.7,.3c.2,.2,.3,.5,.3,.8c0,.4,-.1,.9,-.2,1.4l-1.1,3.8c-.2,.4,-.2,.7,-.2,.7c0,.1,0,.2,0,.2c.1,.1,.2,.1,.2,.1c.1,0,.2,0,.3,-.1c.3,-.3,.7,-.6,1,-1.1l.3,.2c-.2,.3,-.5,.6,-.9,1c-.3,.4,-.6,.7,-.9,.8c-.3,.2,-.5,.2,-.7,.2c-.2,0,-.4,0,-.5,-.2c-.2,-.1,-.3,-.3,-.3,-.5c0,-.3,.2,-.8,.4,-1.5l1,-3.6c.1,-.4,.2,-.8,.2,-1q0,-.2,-.1,-.3c-.1,-.1,-.2,-.1,-.3,-.1c-.2,0,-.4,0,-.6,.2c-.4,.2,-.9,.7,-1.4,1.4c-.2,.2,-.6,.9,-1.4,2.2c-.3,.4,-.5,.9,-.7,1.4l-.5,1.8h-1.4l3,-10.2l.3,-1.1c0,-.2,-.1,-.3,-.2,-.5c-.1,-.1,-.3,-.1,-.5,-.1c-.1,0,-.2,0,-.5,0l-.2,.1v-.4Z" class="g2_63"/>
<path fill-rule="evenodd" d="M292.5,146l-1.2,4.2c.4,-.4,.7,-.7,1,-.9c.3,-.1,.6,-.2,.9,-.2c.4,0,.8,.2,1.1,.4c.3,.3,.4,.7,.4,1.2c0,.7,-.2,1.3,-.6,1.9c-.3,.7,-.8,1.2,-1.3,1.5c-.6,.4,-1.1,.6,-1.7,.6c-.6,0,-1.2,-.3,-1.8,-.7l1.8,-6.3c.1,-.4,.2,-.7,.2,-.8c0,-.1,0,-.2,-.1,-.2c-.1,-.1,-.2,-.2,-.4,-.2c-.1,0,-.2,.1,-.4,.1v-.2Zm-2.3,8c.4,.3,.7,.4,1,.4c.4,0,.7,-.2,1.1,-.4c.4,-.3,.7,-.7,1,-1.3c.3,-.6,.4,-1.2,.4,-1.8c0,-.4,-.1,-.7,-.3,-.9c-.1,-.2,-.4,-.3,-.6,-.3c-.4,0,-.7,.1,-1.1,.4c-.3,.3,-.6,.7,-.7,1.3Z" class="g2_63"/>
<path fill-rule="evenodd" d="M260.1,172l-1.2,4.1l-.1,.5q0,.1,0,.2c0,0,0,.1,0,.1q.1,.1,.2,.1c0,0,.1,-.1,.2,-.1c.1,-.1,.3,-.4,.6,-.7l.2,.1c-.3,.4,-.6,.7,-.9,1c-.3,.2,-.5,.3,-.8,.3c-.1,0,-.3,-.1,-.4,-.2c0,0,-.1,-.2,-.1,-.3c0,-.2,.1,-.5,.1,-.8l.2,-.4c-.6,.6,-1,1.1,-1.5,1.4c-.3,.2,-.6,.3,-.9,.3c-.3,0,-.5,-.1,-.7,-.4c-.3,-.2,-.4,-.6,-.4,-1c0,-.6,.2,-1.3,.6,-2c.4,-.7,.9,-1.2,1.5,-1.7c.4,-.3,.8,-.5,1.3,-.5c.2,0,.4,.1,.6,.2c.1,.2,.2,.4,.3,.7l.2,-.7Zm-2.1,.3c-.3,0,-.6,.2,-.8,.4c-.5,.3,-.8,.8,-1.1,1.5c-.3,.7,-.5,1.3,-.5,1.8c0,.3,.1,.5,.2,.6c.1,.2,.3,.3,.5,.3c.4,0,.9,-.3,1.4,-1c.7,-.8,1,-1.7,1,-2.6c0,-.3,-.1,-.6,-.2,-.7c-.1,-.2,-.3,-.3,-.5,-.3Z" class="g2_63"/>
<path fill-rule="evenodd" d="M296.7,128.9c-.4,.5,-.8,.9,-1.2,1.1c-.5,.2,-.9,.3,-1.4,.3c-.5,0,-1,-.1,-1.3,-.4c-.3,-.4,-.5,-.8,-.5,-1.3c0,-.6,.2,-1.2,.5,-1.8c.4,-.6,.8,-1.1,1.4,-1.5c.6,-.3,1.2,-.5,1.7,-.5c.4,0,.8,.1,1,.3c.2,.1,.3,.4,.3,.6c0,.3,-.1,.5,-.2,.7c-.1,.1,-.3,.2,-.4,.2c-.2,0,-.3,-.1,-.3,-.2c-.1,0,-.2,-.1,-.2,-.3c0,0,.1,-.1,.1,-.2c0,0,.1,-.1,.2,-.2q.1,-.1,.1,-.2c.1,0,.1,-.1,.1,-.1c0,-.1,-.1,-.2,-.1,-.2c-.2,-.1,-.3,-.1,-.5,-.1c-.4,0,-.8,.1,-1.2,.4c-.4,.2,-.7,.6,-1,1.1c-.3,.7,-.5,1.3,-.5,1.9c0,.4,.2,.7,.4,.9c.2,.3,.5,.4,.9,.4c.3,0,.6,-.1,.9,-.2c.3,-.2,.7,-.5,1.1,-.9Z" class="g2_63"/>
<path fill-rule="evenodd" d="M254.4,130.8l1.9,-1h.2v6.9c0,.4,.1,.7,.1,.8c0,.1,.1,.2,.2,.3c.2,0,.4,.1,.8,.1v.2h-3.1v-.2c.4,0,.6,-.1,.8,-.1c.1,-.1,.1,-.2,.2,-.3c0,-.1,.1,-.4,.1,-.8v-4.4c0,-.6,-.1,-1,-.1,-1.1c0,-.2,-.1,-.3,-.2,-.3c0,-.1,-.1,-.1,-.2,-.1c-.2,0,-.4,0,-.6,.2Z" class="g2_63"/>
<path fill-rule="evenodd" d="M308.2,206.1l2,-.9h.2V212c0,.5,0,.7,0,.9c.1,.1,.1,.2,.3,.2c.1,.1,.3,.1,.7,.1v.2h-3.1v-.2c.4,0,.7,0,.8,-.1c.1,0,.2,-.1,.2,-.2c.1,-.1,.1,-.4,.1,-.9v-4.4c0,-.5,0,-.9,-.1,-1.1c0,-.1,-.1,-.2,-.1,-.3c-.1,0,-.2,-.1,-.3,-.1c-.1,0,-.3,.1,-.6,.2Z" class="g2_63"/>
<path fill-rule="evenodd" d="M342.3,157.1l2,-1h.2V163c0,.4,0,.7,0,.8c.1,.1,.1,.2,.2,.3c.2,0,.4,.1,.8,.1v.2h-3.1v-.2c.4,0,.7,-.1,.8,-.1c.1,-.1,.2,-.2,.2,-.3c0,-.1,.1,-.3,.1,-.8v-4.4c0,-.6,0,-1,-.1,-1.1c0,-.2,-.1,-.3,-.1,-.3c-.1,-.1,-.2,-.1,-.3,-.1c-.2,0,-.4,.1,-.6,.2Z" class="g2_63"/>
<path d="M300.1,327.1l-99.3,57.3" class="gx_63"/>
<path d="M333.1,384.4l-33,-57.3" class="gy_63"/>
<path d="M200.8,384.4H333.1" class="gz_63"/>
<path d="M299.9,327.4v57" class="g10_63"/>
<path d="M195.3,379.1l-.9,9.2c0,.5,-.1,.8,-.1,.9c0,.2,.1,.4,.2,.5c.1,.2,.2,.3,.4,.4c.2,0,.5,.1,.9,.1l-.1,.3h-4.4l.1,-.3h.2c.4,0,.6,-.1,.9,-.3c.1,-.1,.2,-.2,.3,-.5c.1,-.1,.2,-.5,.2,-1.2l.1,-1.4H190l-1.2,1.5c-.2,.4,-.4,.6,-.5,.8c0,.1,-.1,.3,-.1,.4c0,.2,.1,.3,.3,.5c.1,.1,.3,.2,.7,.2l-.1,.3h-3.3l.1,-.3c.4,0,.7,-.2,1,-.4c.3,-.3,.8,-.8,1.4,-1.7l6.7,-9Zm-1.7,2.7l-3.2,4.4h2.8Z" class="g2_63"/>
<path d="M340.2,379.3l.1,-.3h4c.7,0,1.3,.1,1.8,.3c.5,.2,.9,.5,1.2,.8c.2,.4,.3,.8,.3,1.2c0,.7,-.2,1.2,-.7,1.8c-.4,.5,-1.2,.9,-2.2,1.1c.7,.3,1.2,.6,1.5,1c.3,.4,.4,.9,.4,1.4c0,.5,-.1,1.1,-.4,1.6c-.3,.5,-.6,.9,-1.1,1.1c-.4,.3,-1,.5,-1.6,.7c-.4,0,-1.1,.1,-2.1,.1h-4.1l.1,-.3c.5,0,.8,-.1,.9,-.1c.2,-.1,.4,-.3,.5,-.4c.1,-.2,.3,-.7,.5,-1.4l2,-6.8c.2,-.5,.2,-.9,.2,-1.2c0,-.2,0,-.3,-.2,-.4c-.1,-.2,-.4,-.2,-.8,-.2c-.1,0,-.2,0,-.3,0m1.7,4.6c.3,0,.6,0,.7,0c1.2,0,2,-.2,2.6,-.7c.5,-.5,.8,-1.2,.8,-1.9c0,-.6,-.2,-1,-.5,-1.3c-.3,-.3,-.9,-.5,-1.6,-.5c-.2,0,-.5,0,-.8,.1Zm-1.6,5.5c.5,0,1,.1,1.3,.1c.9,0,1.7,-.3,2.3,-.8c.7,-.5,1,-1.2,1,-2.1c0,-.6,-.2,-1.2,-.6,-1.6c-.4,-.3,-1.1,-.5,-2,-.5c-.2,0,-.4,0,-.6,0Z" class="g2_63"/>
<path d="M318.2,318.5l-.9,3.6H317v-.9c0,-.3,-.1,-.6,-.2,-.9c-.1,-.2,-.2,-.4,-.4,-.6c-.2,-.2,-.5,-.4,-.8,-.5c-.3,-.1,-.6,-.1,-1,-.1c-1,0,-1.8,.2,-2.6,.8c-.9,.6,-1.6,1.6,-2.2,2.9c-.4,1,-.6,2,-.6,3.1c0,1.1,.3,1.9,.9,2.6c.7,.6,1.5,.9,2.5,.9c.7,0,1.4,-.1,2,-.5c.6,-.3,1.2,-.8,1.7,-1.5h.4c-.6,.9,-1.3,1.6,-2,2.1c-.8,.4,-1.7,.6,-2.7,.6c-.9,0,-1.7,-.1,-2.4,-.5c-.7,-.4,-1.2,-.9,-1.6,-1.6c-.4,-.7,-.5,-1.5,-.5,-2.3c0,-1.2,.3,-2.3,.9,-3.5c.7,-1.1,1.6,-2.1,2.7,-2.7c1.2,-.7,2.3,-1,3.4,-1c.6,0,1.2,.1,1.9,.4c.3,.1,.5,.2,.6,.2c.1,0,.3,-.1,.4,-.1c.1,-.1,.2,-.2,.4,-.5Z" class="g2_63"/>
<path d="M245.3,336.2l-2.3,8c1,-1.5,1.8,-2.5,2.3,-3c.6,-.5,1.1,-.7,1.6,-.7c.3,0,.5,0,.7,.2c.1,.2,.2,.4,.2,.7c0,.4,0,.8,-.2,1.4l-1,3.4c-.1,.4,-.2,.6,-.2,.7q0,.1,.1,.2c0,0,.1,.1,.1,.1c.1,0,.2,-.1,.3,-.2c.3,-.2,.6,-.5,.9,-1l.3,.2c-.2,.3,-.5,.6,-.8,1c-.3,.3,-.6,.5,-.9,.7c-.2,.1,-.4,.2,-.6,.2c-.2,0,-.4,-.1,-.5,-.2c-.1,-.1,-.2,-.3,-.2,-.5c0,-.3,.1,-.7,.3,-1.4l.9,-3.2c.2,-.5,.2,-.8,.2,-1c0,-.1,0,-.2,-.1,-.3c0,0,-.1,-.1,-.2,-.1c-.2,0,-.4,.1,-.6,.2c-.4,.2,-.8,.7,-1.3,1.3c-.1,.2,-.5,.8,-1.3,2c-.2,.4,-.4,.8,-.6,1.3l-.5,1.7h-1.2l2.7,-9.4l.3,-1c0,-.2,-.1,-.3,-.2,-.4c-.1,-.1,-.3,-.2,-.4,-.2c-.1,0,-.3,.1,-.5,.1h-.2v-.3Z" class="g4_63"/>
<path d="M286.1,357l-2.3,8c1,-1.5,1.7,-2.5,2.3,-3c.6,-.5,1.1,-.7,1.6,-.7c.3,0,.5,.1,.7,.2c.1,.2,.2,.5,.2,.8c0,.3,-.1,.8,-.2,1.3l-1,3.4c-.1,.4,-.2,.7,-.2,.7q0,.1,.1,.2c0,0,.1,.1,.1,.1c.1,0,.2,-.1,.3,-.1c.3,-.3,.6,-.6,.9,-1l.3,.1c-.2,.3,-.5,.6,-.8,1c-.4,.3,-.6,.6,-.9,.7c-.2,.1,-.4,.2,-.6,.2c-.2,0,-.4,-.1,-.5,-.2c-.1,-.1,-.2,-.3,-.2,-.5c0,-.2,.1,-.7,.3,-1.3l.9,-3.3c.2,-.4,.2,-.8,.2,-1c0,-.1,0,-.2,-.1,-.3c-.1,0,-.1,-.1,-.3,-.1c-.1,0,-.3,.1,-.5,.2c-.4,.3,-.8,.7,-1.3,1.3c-.1,.2,-.6,.9,-1.3,2.1c-.2,.3,-.4,.8,-.6,1.2l-.5,1.7h-1.2l2.7,-9.4l.3,-1c0,-.2,-.1,-.3,-.2,-.4c-.1,-.1,-.3,-.2,-.4,-.2c-.1,0,-.3,.1,-.5,.1h-.2v-.3Z" class="g11_63"/>
<path d="M323.6,340.2l-2.3,7.9c1,-1.5,1.8,-2.5,2.4,-2.9c.5,-.5,1.1,-.8,1.6,-.8c.2,0,.4,.1,.6,.3c.2,.2,.3,.4,.3,.7c0,.4,-.1,.8,-.2,1.3l-1,3.5c-.2,.4,-.2,.6,-.2,.7c0,0,0,.1,0,.1q.1,.1,.2,.1q.1,0,.2,-.1c.4,-.2,.7,-.6,1,-1l.2,.2c-.2,.3,-.4,.6,-.8,.9c-.3,.4,-.6,.6,-.8,.7c-.2,.2,-.5,.2,-.6,.2c-.2,0,-.4,0,-.5,-.2c-.2,-.1,-.2,-.2,-.2,-.4c0,-.3,.1,-.7,.3,-1.4l.9,-3.3c.1,-.4,.2,-.7,.2,-.9c0,-.2,-.1,-.2,-.1,-.3c-.1,-.1,-.2,-.1,-.3,-.1c-.1,0,-.3,.1,-.5,.2c-.4,.2,-.8,.6,-1.3,1.3c-.2,.1,-.6,.8,-1.3,2c-.3,.4,-.5,.8,-.6,1.3l-.5,1.6H319l2.7,-9.3l.3,-1.1c0,-.1,0,-.2,-.1,-.3c-.2,-.1,-.3,-.2,-.5,-.2c-.1,0,-.2,0,-.4,0l-.2,.1v-.3Z" class="g5_63"/>
<path d="M255.3,345.4l-1,3.5l-.1,.5c-.1,0,-.1,.1,-.1,.1c0,.1,.1,.1,.1,.2h.1c0,0,.1,0,.2,-.1c.1,-.1,.3,-.3,.5,-.6l.2,.1c-.3,.4,-.5,.7,-.8,.9c-.2,.1,-.4,.2,-.7,.2c-.1,0,-.2,0,-.3,-.1c-.1,-.1,-.1,-.2,-.1,-.3c0,-.2,0,-.4,.1,-.7l.1,-.4c-.4,.6,-.9,1,-1.2,1.3c-.3,.2,-.6,.2,-.8,.2c-.3,0,-.5,-.1,-.7,-.3c-.2,-.2,-.3,-.5,-.3,-.8c0,-.6,.2,-1.2,.5,-1.8c.3,-.6,.8,-1.1,1.3,-1.5c.4,-.3,.8,-.4,1.1,-.4c.2,0,.4,0,.5,.2c.2,.1,.3,.2,.4,.5l.2,-.6Zm-1.9,.3c-.2,0,-.4,.1,-.7,.3c-.3,.3,-.7,.7,-.9,1.3c-.3,.6,-.5,1.1,-.5,1.6c0,.2,.1,.4,.2,.5c.1,.2,.3,.2,.4,.2c.4,0,.8,-.2,1.3,-.8c.6,-.8,.9,-1.5,.9,-2.3c0,-.3,-.1,-.5,-.2,-.6c-.1,-.2,-.3,-.2,-.5,-.2Z" class="g4_63"/>
<path d="M295.2,369.8c-.4,.4,-.7,.7,-1.1,.9c-.4,.2,-.8,.3,-1.2,.3c-.5,0,-.9,-.1,-1.1,-.4c-.3,-.3,-.5,-.6,-.5,-1.1c0,-.5,.2,-1.1,.5,-1.6c.3,-.5,.7,-.9,1.2,-1.2c.5,-.3,1,-.5,1.5,-.5c.4,0,.6,.1,.8,.2c.2,.2,.3,.4,.3,.6c0,.2,-.1,.4,-.2,.6c-.1,.1,-.2,.1,-.4,.1c-.1,0,-.2,0,-.2,-.1c-.1,0,-.1,-.1,-.1,-.2q0,-.1,0,-.2c0,-.1,.1,-.1,.2,-.2q.1,-.1,.1,-.2v-.1q0,-.1,-.1,-.2c-.1,0,-.2,-.1,-.4,-.1c-.3,0,-.7,.1,-1,.4c-.3,.2,-.6,.6,-.9,1c-.2,.5,-.4,1.1,-.4,1.6c0,.4,.1,.7,.3,.9c.2,.2,.5,.3,.8,.3c.3,0,.6,-.1,.8,-.2c.3,-.2,.6,-.4,.9,-.8Z" class="g11_63"/>
<path d="M331.7,346.6l-1,3.7c.3,-.4,.6,-.6,.9,-.8c.2,-.1,.5,-.2,.7,-.2c.4,0,.7,.2,1,.4c.2,.3,.3,.6,.3,1.1c0,.5,-.1,1.1,-.4,1.6c-.4,.6,-.8,1,-1.3,1.3c-.4,.3,-.9,.5,-1.4,.5c-.5,0,-1,-.2,-1.6,-.6l1.6,-5.5c.1,-.4,.2,-.6,.2,-.7c0,-.1,-.1,-.2,-.1,-.2c-.1,-.1,-.2,-.1,-.4,-.1c0,0,-.2,0,-.3,0v-.2Zm-2,7.1c.3,.2,.6,.3,.9,.3c.3,0,.6,-.2,1,-.4c.3,-.2,.6,-.6,.8,-1.1c.3,-.5,.4,-1.1,.4,-1.6c0,-.4,-.1,-.6,-.3,-.8c-.1,-.2,-.3,-.3,-.5,-.3c-.3,0,-.7,.2,-1,.4c-.3,.3,-.5,.7,-.6,1.1Z" class="g5_63"/>
<path d="M290.4,332.7c3.3,5.3,9.3,7,14.8,3.5m6,47.8c-.5,-6.2,-5.1,-10.4,-11.6,-9.8" class="g12_63"/>
<path fill-rule="evenodd" d="M296.4,332.7c.3,0,.4,.2,.4,.3c0,.2,-.1,.3,-.4,.3c-.2,0,-.3,-.1,-.3,-.3c0,-.1,.1,-.3,.3,-.3Z" class="g2_63"/>
<path d="M296.4,332.7c.3,0,.4,.2,.4,.3c0,.2,-.1,.3,-.4,.3c-.2,0,-.3,-.1,-.3,-.3c0,-.1,.1,-.3,.3,-.3Z" class="gz_63"/>
<path fill-rule="evenodd" d="M304.5,380.1c-.2,-.1,-.3,-.3,-.2,-.4c.1,-.1,.3,-.2,.5,-.1c.1,.1,.2,.3,.2,.4c-.1,.2,-.3,.2,-.5,.1Z" class="g2_63"/>
<path d="M304.5,380.1c-.2,-.1,-.3,-.3,-.2,-.4c.1,-.1,.3,-.2,.5,-.1c.1,.1,.2,.3,.2,.4c-.1,.2,-.3,.2,-.5,.1Z" class="gz_63"/>
<path d="M643.8,381.9l-.9,9.2c0,.4,0,.7,0,.9c0,.2,0,.4,.1,.5c.1,.1,.2,.2,.4,.3c.2,.1,.5,.1,.9,.1l-.1,.3h-4.4l.1,-.3h.2c.4,0,.7,0,.9,-.2c.1,-.1,.3,-.3,.3,-.5c.1,-.2,.2,-.6,.2,-1.2l.2,-1.4h-3.2l-1.2,1.5c-.2,.4,-.4,.6,-.5,.8c0,.1,0,.2,0,.4c0,.2,0,.3,.2,.4c.1,.2,.3,.2,.7,.2l-.1,.3h-3.3l.1,-.3c.4,0,.7,-.1,1.1,-.4c.3,-.2,.7,-.8,1.3,-1.6l6.7,-9Zm-1.7,2.7l-3.2,4.4h2.8Z" class="g2_63"/>
<path d="M764.9,383.5l.1,-.3h4c.7,0,1.3,.1,1.8,.3c.5,.2,.9,.5,1.2,.9c.2,.4,.4,.8,.4,1.2c0,.6,-.3,1.2,-.7,1.7c-.5,.5,-1.2,.9,-2.3,1.2c.7,.2,1.2,.5,1.5,1c.3,.4,.5,.8,.5,1.3c0,.6,-.2,1.1,-.5,1.6c-.2,.5,-.6,.9,-1,1.2c-.5,.3,-1,.5,-1.7,.6c-.4,.1,-1.1,.1,-2.1,.1h-4l.1,-.3c.4,0,.7,0,.8,-.1c.3,-.1,.4,-.2,.5,-.3c.1,-.3,.3,-.7,.5,-1.5l2,-6.7c.2,-.6,.3,-1,.3,-1.2c0,-.2,-.1,-.4,-.2,-.5c-.2,-.1,-.5,-.2,-.9,-.2c-.1,0,-.2,0,-.3,0m1.7,4.6c.4,.1,.6,.1,.8,.1c1.1,0,2,-.3,2.5,-.8c.6,-.5,.8,-1.1,.8,-1.8c0,-.6,-.1,-1,-.5,-1.4c-.3,-.3,-.8,-.4,-1.6,-.4c-.2,0,-.4,0,-.7,.1Zm-1.6,5.5c.6,.1,1,.1,1.4,.1c.8,0,1.6,-.2,2.2,-.7c.7,-.5,1,-1.2,1,-2.1c0,-.7,-.2,-1.2,-.6,-1.6c-.4,-.4,-1,-.6,-2,-.6c-.1,0,-.3,0,-.6,.1Z" class="g2_63"/>
<path d="M648.3,317.3l-.9,3.6h-.3V320c0,-.3,-.1,-.6,-.2,-.9c-.1,-.2,-.2,-.4,-.4,-.6c-.2,-.2,-.5,-.4,-.8,-.5c-.3,-.1,-.6,-.1,-1,-.1c-1,0,-1.8,.2,-2.6,.8c-.9,.7,-1.6,1.6,-2.2,2.9c-.4,1,-.6,2,-.6,3.1c0,1.1,.3,1.9,.9,2.6c.7,.6,1.5,.9,2.5,.9c.8,0,1.4,-.1,2,-.5c.6,-.3,1.2,-.8,1.7,-1.5h.4c-.6,.9,-1.3,1.6,-2,2.1c-.8,.4,-1.7,.7,-2.7,.7c-.9,0,-1.7,-.2,-2.4,-.6c-.7,-.4,-1.2,-.9,-1.6,-1.6c-.4,-.7,-.5,-1.5,-.5,-2.3c0,-1.2,.3,-2.3,.9,-3.5c.7,-1.1,1.6,-2,2.7,-2.7c1.2,-.7,2.3,-1,3.5,-1c.5,0,1.1,.1,1.8,.4c.3,.1,.5,.2,.6,.2c.1,0,.3,-.1,.4,-.1c.1,-.1,.2,-.2,.4,-.5Z" class="g2_63"/>
<path d="M672.5,358.5l-2.3,8c1,-1.5,1.8,-2.5,2.3,-3c.6,-.5,1.1,-.7,1.6,-.7c.3,0,.5,.1,.7,.3c.2,.1,.2,.4,.2,.7c0,.3,0,.8,-.2,1.3l-1,3.4c-.1,.5,-.2,.7,-.2,.7c0,.1,0,.2,.1,.2c0,.1,.1,.1,.1,.1c.1,0,.2,0,.3,-.1c.3,-.3,.6,-.6,.9,-1l.3,.1c-.2,.3,-.5,.6,-.8,1c-.3,.3,-.6,.6,-.9,.7c-.2,.1,-.4,.2,-.6,.2c-.2,0,-.4,-.1,-.5,-.2c-.1,-.1,-.2,-.3,-.2,-.5c0,-.2,.1,-.7,.3,-1.3l1,-3.3c.1,-.4,.1,-.7,.1,-1c0,-.1,0,-.2,-.1,-.2c0,-.1,-.1,-.1,-.2,-.1c-.2,0,-.4,0,-.6,.1c-.3,.3,-.8,.7,-1.3,1.3c-.1,.2,-.5,.9,-1.3,2.1c-.2,.4,-.4,.8,-.5,1.2l-.6,1.7h-1.2l2.7,-9.4l.3,-1c0,-.1,-.1,-.3,-.2,-.4c-.1,-.1,-.3,-.1,-.4,-.1c-.1,0,-.3,0,-.5,0h-.1V359Z" class="g4_63"/>
<path d="M636.5,348.4l-2.3,8c1,-1.5,1.8,-2.5,2.3,-3c.6,-.5,1.1,-.8,1.6,-.8c.3,0,.5,.1,.7,.3c.1,.2,.2,.4,.2,.7c0,.4,0,.8,-.2,1.3l-1,3.5c-.1,.4,-.2,.6,-.2,.7c0,0,0,.1,.1,.2c0,0,.1,0,.1,0c.1,0,.2,0,.3,-.1c.3,-.2,.6,-.6,.9,-1l.3,.2c-.2,.3,-.5,.6,-.8,.9c-.3,.4,-.6,.6,-.9,.8c-.2,.1,-.4,.2,-.6,.2c-.2,0,-.4,-.1,-.5,-.2c-.1,-.2,-.2,-.3,-.2,-.5c0,-.3,.1,-.7,.3,-1.4l.9,-3.3c.2,-.4,.2,-.7,.2,-.9c0,-.1,0,-.2,-.1,-.3c0,-.1,-.1,-.1,-.2,-.1c-.2,0,-.4,.1,-.6,.2c-.4,.2,-.8,.6,-1.3,1.3c-.1,.1,-.5,.8,-1.3,2c-.2,.4,-.4,.8,-.5,1.3l-.6,1.7h-1.2l2.7,-9.4l.3,-1c0,-.2,-.1,-.3,-.2,-.4c-.1,-.1,-.3,-.2,-.4,-.2c-.1,0,-.3,0,-.5,.1h-.1v-.3Z" class="g11_63"/>
<path d="M700.6,387l-2.3,8c1,-1.5,1.7,-2.5,2.3,-3c.5,-.5,1.1,-.7,1.6,-.7c.3,0,.5,.1,.6,.2c.2,.2,.3,.5,.3,.8c0,.3,-.1,.8,-.2,1.3l-1,3.4c-.2,.4,-.2,.7,-.2,.7q0,.1,.1,.2c0,0,.1,.1,.1,.1c.1,0,.2,-.1,.3,-.1c.3,-.3,.6,-.6,.9,-1l.2,.1c-.1,.3,-.4,.6,-.7,1c-.4,.3,-.6,.6,-.9,.7c-.2,.1,-.4,.2,-.6,.2c-.2,0,-.4,-.1,-.5,-.2c-.1,-.1,-.2,-.3,-.2,-.5c0,-.2,.1,-.7,.3,-1.3l.9,-3.3c.1,-.4,.2,-.7,.2,-1c0,-.1,0,-.2,-.1,-.2c-.1,-.1,-.2,-.1,-.3,-.1c-.1,0,-.3,0,-.5,.1c-.4,.3,-.8,.7,-1.3,1.3c-.1,.2,-.6,.9,-1.3,2.1c-.2,.3,-.4,.8,-.6,1.2l-.5,1.7H696l2.7,-9.4l.3,-1c0,-.1,-.1,-.3,-.2,-.4c-.1,-.1,-.3,-.1,-.5,-.1c-.1,0,-.2,0,-.4,0h-.2v-.3Z" class="g5_63"/>
<path d="M682.5,367.7l-1,3.6l-.1,.4q-.1,.1,-.1,.2c0,0,.1,.1,.1,.1c0,0,.1,0,.1,0c0,0,.1,0,.2,0c.1,-.1,.3,-.3,.5,-.7l.2,.2c-.2,.3,-.5,.6,-.7,.8c-.3,.2,-.5,.3,-.8,.3c-.1,0,-.2,-.1,-.3,-.1c-.1,-.1,-.1,-.2,-.1,-.4c0,-.1,0,-.4,.1,-.6l.1,-.4c-.4,.6,-.9,1,-1.2,1.2c-.3,.2,-.6,.3,-.8,.3c-.3,0,-.5,-.1,-.7,-.3c-.2,-.3,-.3,-.5,-.3,-.9c0,-.6,.2,-1.2,.5,-1.8c.4,-.6,.8,-1.1,1.3,-1.4c.4,-.3,.8,-.5,1.1,-.5c.2,0,.4,.1,.6,.2c.1,.1,.2,.3,.3,.5l.2,-.6Zm-1.9,.3c-.2,0,-.4,.1,-.7,.3c-.3,.3,-.6,.7,-.9,1.3c-.3,.6,-.4,1.1,-.4,1.6c0,.2,0,.4,.1,.6c.2,.1,.3,.2,.4,.2c.4,0,.8,-.3,1.3,-.9c.6,-.7,.9,-1.5,.9,-2.3c0,-.3,-.1,-.5,-.2,-.6c-.1,-.1,-.3,-.2,-.5,-.2Z" class="g4_63"/>
<path d="M645.6,361.2c-.4,.4,-.7,.7,-1.1,.9c-.4,.2,-.8,.3,-1.2,.3c-.5,0,-.8,-.1,-1.1,-.4c-.3,-.3,-.4,-.7,-.4,-1.1c0,-.6,.1,-1.1,.4,-1.6c.3,-.5,.7,-.9,1.2,-1.3c.5,-.3,1,-.4,1.5,-.4c.4,0,.7,0,.8,.2c.2,.2,.3,.4,.3,.6c0,.2,0,.4,-.2,.5c-.1,.2,-.2,.2,-.3,.2c-.1,0,-.2,0,-.3,-.1q-.1,-.1,-.1,-.2c0,-.1,0,-.2,0,-.2c0,-.1,.1,-.2,.2,-.2c.1,-.1,.1,-.2,.1,-.2c.1,0,.1,-.1,.1,-.1c0,-.1,-.1,-.1,-.1,-.2c-.1,-.1,-.3,-.1,-.5,-.1c-.3,0,-.6,.1,-1,.4c-.3,.2,-.6,.5,-.8,1c-.3,.5,-.5,1.1,-.5,1.6c0,.3,.1,.6,.3,.8c.2,.2,.5,.3,.9,.3c.2,0,.5,0,.8,-.2c.2,-.1,.5,-.3,.8,-.7Z" class="g11_63"/>
<path d="M708.6,393.5l-1,3.6c.3,-.3,.6,-.6,.9,-.7c.2,-.1,.5,-.2,.8,-.2c.3,0,.6,.1,.9,.4c.2,.2,.4,.6,.4,1c0,.6,-.2,1.1,-.5,1.7c-.3,.6,-.7,1,-1.2,1.3c-.5,.3,-1,.5,-1.5,.5c-.5,0,-1,-.2,-1.6,-.6l1.6,-5.5c.1,-.4,.2,-.7,.2,-.7c0,-.1,0,-.2,-.1,-.2c-.1,-.1,-.2,-.1,-.3,-.1c-.1,0,-.2,0,-.4,0v-.2Zm-2,7c.4,.2,.7,.3,.9,.3c.3,0,.6,-.1,1,-.3c.3,-.2,.6,-.6,.8,-1.2c.3,-.5,.4,-1,.4,-1.6c0,-.3,-.1,-.5,-.2,-.7c-.2,-.2,-.4,-.3,-.6,-.3c-.3,0,-.6,.1,-1,.4c-.3,.3,-.5,.6,-.6,1.1Z" class="g5_63"/>
<path d="M663.1,384.1c-.5,-6.2,-5.1,-10.4,-11.6,-9.8m14.8,-40.6c-2.8,5.6,-1,11.5,4.9,14.4" class="g12_63"/>
<path fill-rule="evenodd" d="M656.4,380.2c-.2,-.1,-.3,-.3,-.2,-.5c.1,-.1,.3,-.1,.5,0c.1,0,.2,.2,.2,.4c-.1,.1,-.3,.2,-.5,.1Z" class="g2_63"/>
<path d="M656.4,380.2c-.2,-.1,-.3,-.3,-.2,-.5c.1,-.1,.3,-.1,.5,0c.1,0,.2,.2,.2,.4c-.1,.1,-.3,.2,-.5,.1Z" class="gz_63"/>
<path fill-rule="evenodd" d="M670,340.5c.1,.2,.1,.4,0,.5c-.1,.1,-.3,0,-.4,-.2c-.2,-.2,-.1,-.4,0,-.4c.1,-.1,.3,0,.4,.1Z" class="g2_63"/>
<path d="M670,340.5c.1,.2,.1,.4,0,.5c-.1,.1,-.3,0,-.4,-.2c-.2,-.2,-.1,-.4,0,-.4c.1,-.1,.3,0,.4,.1Z" class="gz_63"/>
<path d="M651.3,324.6v59.8" class="g13_63"/>
<path d="M651.3,384.4h109" class="gy_63"/>
<path d="M651.3,325.1L760,384.6" class="gz_63"/>
<path d="M651.1,384.7l25.1,-45.9" class="gx_63"/>
<path d="M418.4,381.6l-.9,9.3c0,.4,0,.7,0,.8c0,.2,0,.4,.1,.5c.1,.2,.2,.3,.4,.4c.2,.1,.5,.1,.9,.1l-.1,.3h-4.4l.1,-.3h.2c.4,0,.7,-.1,.9,-.2c.1,-.1,.3,-.3,.4,-.6c0,-.1,.1,-.5,.1,-1.2l.2,-1.4h-3.2l-1.2,1.6c-.2,.3,-.4,.6,-.4,.7c-.1,.2,-.1,.3,-.1,.4c0,.2,0,.4,.2,.5c.1,.1,.4,.2,.7,.2l-.1,.3h-3.3l.1,-.3c.4,0,.8,-.2,1.1,-.4c.3,-.3,.7,-.8,1.3,-1.6l6.7,-9.1Zm-1.6,2.7l-3.3,4.4h2.8Z" class="g2_63"/>
<path d="M539.5,383.3l.2,-.3h3.9c.7,0,1.3,.1,1.8,.3c.5,.2,.9,.5,1.2,.9c.3,.3,.4,.7,.4,1.1c0,.7,-.3,1.3,-.7,1.8c-.5,.5,-1.2,.9,-2.3,1.1c.7,.3,1.2,.6,1.5,1c.3,.4,.5,.9,.5,1.4c0,.5,-.2,1.1,-.4,1.6c-.3,.5,-.7,.9,-1.1,1.1c-.5,.3,-1,.5,-1.6,.7c-.5,.1,-1.2,.1,-2.1,.1h-4.1l.1,-.3c.4,0,.7,-.1,.9,-.1c.2,-.1,.3,-.2,.4,-.4c.1,-.2,.3,-.7,.5,-1.4l2,-6.8c.2,-.5,.3,-.9,.3,-1.2c0,-.2,-.1,-.3,-.2,-.4c-.2,-.2,-.5,-.2,-.9,-.2c-.1,0,-.2,0,-.3,0m1.7,4.6c.4,0,.6,0,.8,0c1.1,0,2,-.2,2.5,-.7c.6,-.5,.9,-1.1,.9,-1.9c0,-.6,-.2,-1,-.6,-1.3c-.3,-.3,-.8,-.5,-1.6,-.5c-.2,0,-.4,.1,-.7,.1Zm-1.6,5.5c.6,.1,1,.1,1.4,.1c.8,0,1.6,-.3,2.2,-.8c.7,-.5,1,-1.2,1,-2.1c0,-.6,-.2,-1.2,-.6,-1.5c-.4,-.4,-1,-.6,-1.9,-.6c-.2,0,-.4,0,-.7,0Z" class="g2_63"/>
<path d="M552.9,317.8l-.8,3.6h-.3v-.9c-.1,-.3,-.1,-.6,-.2,-.9c-.1,-.2,-.3,-.4,-.5,-.6c-.2,-.2,-.4,-.4,-.7,-.5c-.3,-.1,-.7,-.1,-1,-.1c-1,0,-1.9,.2,-2.6,.8c-.9,.6,-1.7,1.6,-2.2,2.9c-.4,1,-.6,2,-.6,3.1c0,1.1,.3,1.9,.9,2.6c.6,.6,1.4,.9,2.5,.9c.7,0,1.4,-.1,2,-.5c.6,-.3,1.1,-.8,1.6,-1.5h.4c-.6,.9,-1.2,1.6,-2,2.1c-.7,.4,-1.6,.6,-2.6,.6c-.9,0,-1.7,-.1,-2.4,-.5c-.7,-.4,-1.3,-.9,-1.6,-1.6c-.4,-.7,-.6,-1.5,-.6,-2.3c0,-1.2,.4,-2.3,1,-3.5c.7,-1.1,1.5,-2.1,2.7,-2.7c1.1,-.7,2.3,-1,3.4,-1c.6,0,1.2,.1,1.8,.4c.3,.1,.5,.2,.7,.2c.1,0,.2,-.1,.3,-.1c.1,-.1,.3,-.2,.5,-.5Z" class="g2_63"/>
<path d="M481.3,387.3l-2.3,8c1,-1.5,1.8,-2.5,2.3,-3c.6,-.5,1.1,-.8,1.6,-.8c.3,0,.5,.1,.7,.3c.1,.2,.2,.4,.2,.7c0,.4,0,.8,-.2,1.3l-1,3.5c-.1,.4,-.2,.6,-.2,.7c0,0,0,.1,.1,.1c0,.1,.1,.1,.1,.1c.1,0,.2,0,.3,-.1c.3,-.2,.6,-.6,.9,-1l.3,.2c-.2,.3,-.5,.6,-.8,.9c-.3,.4,-.6,.6,-.9,.7c-.2,.2,-.4,.2,-.6,.2c-.2,0,-.4,0,-.5,-.1c-.1,-.2,-.2,-.3,-.2,-.5c0,-.3,.1,-.7,.3,-1.4l1,-3.3c.1,-.4,.1,-.7,.1,-.9c0,-.1,0,-.2,-.1,-.3c0,-.1,-.1,-.1,-.2,-.1c-.2,0,-.4,.1,-.6,.2c-.4,.2,-.8,.6,-1.3,1.3c-.1,.1,-.5,.8,-1.3,2c-.2,.4,-.4,.8,-.5,1.3l-.6,1.7h-1.2l2.7,-9.4l.3,-1.1c0,-.1,-.1,-.2,-.2,-.3c-.1,-.1,-.3,-.2,-.4,-.2c-.1,0,-.3,0,-.5,.1h-.1v-.3Z" class="g4_63"/>
<path d="M544.6,347.6l-2.3,8c1,-1.5,1.8,-2.5,2.3,-3c.6,-.5,1.1,-.7,1.6,-.7c.3,0,.5,.1,.7,.3c.2,.1,.3,.4,.3,.7c0,.3,-.1,.8,-.3,1.3l-1,3.4c-.1,.5,-.2,.7,-.2,.7c0,.1,.1,.2,.1,.2q.1,.1,.2,.1c0,0,.1,0,.2,-.1c.3,-.3,.6,-.6,.9,-1l.3,.1c-.2,.3,-.4,.6,-.8,1c-.3,.3,-.6,.6,-.8,.7c-.3,.1,-.5,.2,-.7,.2c-.2,0,-.3,-.1,-.5,-.2c-.1,-.1,-.2,-.3,-.2,-.5c0,-.2,.1,-.7,.3,-1.3l1,-3.3c.1,-.4,.2,-.7,.2,-1c0,-.1,-.1,-.2,-.1,-.2c-.1,-.1,-.2,-.1,-.3,-.1c-.2,0,-.4,0,-.6,.1c-.3,.3,-.8,.7,-1.2,1.3c-.2,.2,-.6,.9,-1.4,2.1c-.2,.4,-.4,.8,-.5,1.2l-.5,1.7H540l2.7,-9.4l.3,-1c0,-.1,0,-.3,-.2,-.4c-.1,-.1,-.2,-.1,-.4,-.1c-.1,0,-.2,0,-.4,0h-.2v-.3Z" class="g11_63"/>
<path d="M508.4,353.6l-2.3,8c1,-1.5,1.7,-2.5,2.3,-3c.5,-.5,1.1,-.8,1.6,-.8c.3,0,.5,.1,.6,.3c.2,.2,.3,.4,.3,.7c0,.4,-.1,.8,-.2,1.3l-1,3.5c-.1,.4,-.2,.6,-.2,.7c0,0,0,.1,.1,.2c0,0,.1,0,.1,0c.1,0,.2,0,.3,-.1c.3,-.2,.6,-.5,.9,-1l.2,.2c-.1,.3,-.4,.6,-.7,.9c-.4,.4,-.6,.6,-.9,.8c-.2,.1,-.4,.2,-.6,.2c-.2,0,-.4,-.1,-.5,-.2c-.1,-.2,-.2,-.3,-.2,-.5c0,-.3,.1,-.7,.3,-1.4l.9,-3.3c.1,-.4,.2,-.7,.2,-.9c0,-.1,0,-.2,-.1,-.3c-.1,-.1,-.2,-.1,-.3,-.1c-.1,0,-.3,.1,-.5,.2c-.4,.2,-.8,.7,-1.3,1.3c-.1,.1,-.6,.8,-1.3,2c-.2,.4,-.4,.8,-.6,1.3l-.5,1.7h-1.2l2.7,-9.4l.3,-1c0,-.2,-.1,-.3,-.2,-.4c-.1,-.1,-.3,-.2,-.4,-.2c-.1,0,-.3,0,-.5,.1h-.2v-.3Z" class="g5_63"/>
<path d="M491.3,396.5l-1,3.5l-.1,.5c-.1,0,-.1,.1,-.1,.1c0,0,.1,.1,.1,.1c0,.1,.1,.1,.1,.1c0,0,.1,0,.2,-.1c.1,-.1,.3,-.3,.5,-.6l.2,.1c-.2,.4,-.5,.6,-.7,.8c-.3,.2,-.5,.3,-.8,.3c-.1,0,-.2,0,-.3,-.1c-.1,-.1,-.1,-.2,-.1,-.3c0,-.2,0,-.4,.1,-.7l.1,-.4c-.4,.6,-.9,1,-1.2,1.3c-.3,.1,-.6,.2,-.8,.2c-.3,0,-.5,-.1,-.7,-.3c-.2,-.2,-.3,-.5,-.3,-.9c0,-.5,.2,-1.1,.5,-1.7c.3,-.6,.8,-1.1,1.3,-1.5c.4,-.3,.8,-.4,1.1,-.4c.2,0,.4,0,.5,.1c.2,.1,.3,.3,.4,.6l.2,-.6Zm-1.9,.2c-.2,0,-.4,.1,-.7,.3c-.3,.3,-.7,.8,-.9,1.4c-.3,.5,-.4,1.1,-.4,1.5c0,.3,0,.5,.1,.6c.1,.1,.3,.2,.4,.2c.4,0,.8,-.3,1.3,-.8c.6,-.8,.9,-1.5,.9,-2.3c0,-.3,-.1,-.5,-.2,-.7c-.1,-.1,-.3,-.2,-.5,-.2Z" class="g4_63"/>
<path d="M553.7,360.4c-.3,.4,-.7,.8,-1.1,1c-.3,.2,-.7,.3,-1.1,.3c-.5,0,-.9,-.2,-1.2,-.4c-.3,-.3,-.4,-.7,-.4,-1.2c0,-.5,.1,-1,.4,-1.5c.3,-.6,.7,-1,1.2,-1.3c.5,-.3,1,-.5,1.5,-.5c.4,0,.7,.1,.9,.3c.2,.1,.3,.3,.3,.5c0,.3,-.1,.4,-.2,.6c-.1,.1,-.3,.2,-.4,.2c-.1,0,-.2,-.1,-.3,-.1c-.1,-.1,-.1,-.2,-.1,-.3q0,-.1,.1,-.2c0,0,0,-.1,.1,-.2q.1,-.1,.2,-.1q0,-.1,0,-.2c0,0,0,-.1,-.1,-.1c-.1,-.1,-.3,-.1,-.4,-.1c-.4,0,-.7,.1,-1,.3c-.4,.3,-.7,.6,-.9,1c-.3,.6,-.4,1.1,-.4,1.6c0,.4,.1,.7,.3,.9c.2,.2,.4,.3,.8,.3c.3,0,.5,-.1,.8,-.2c.3,-.1,.5,-.4,.9,-.7Z" class="g11_63"/>
<path d="M516.4,360.1l-1,3.6c.3,-.4,.6,-.6,.9,-.7c.2,-.2,.5,-.2,.8,-.2c.3,0,.7,.1,.9,.3c.2,.3,.4,.6,.4,1.1c0,.5,-.2,1.1,-.5,1.7c-.3,.5,-.7,.9,-1.2,1.3c-.5,.3,-1,.4,-1.5,.4c-.5,0,-1,-.2,-1.6,-.6l1.6,-5.4c.1,-.5,.2,-.7,.2,-.8q0,-.1,-.1,-.2c-.1,0,-.2,-.1,-.3,-.1c-.1,0,-.2,0,-.4,.1v-.2Zm-2,7c.4,.2,.7,.3,.9,.3c.3,0,.7,-.1,1,-.4c.3,-.2,.6,-.6,.8,-1.1c.3,-.5,.4,-1.1,.4,-1.6c0,-.3,-.1,-.6,-.2,-.8c-.2,-.1,-.4,-.2,-.6,-.2c-.3,0,-.6,.1,-.9,.4c-.4,.2,-.6,.6,-.7,1Z" class="g5_63"/>
<path d="M523.2,384.3c.6,-6.2,5.2,-10.4,11.7,-9.8M519.6,333.8c2.7,5.6,1,11.6,-4.9,14.4" class="g12_63"/>
<path fill-rule="evenodd" d="M530,380.4c.2,-.1,.2,-.3,.2,-.4c-.1,-.2,-.3,-.2,-.5,-.1c-.2,.1,-.3,.3,-.2,.4c.1,.2,.3,.2,.5,.1Z" class="g2_63"/>
<path d="M530,380.4c.2,-.1,.2,-.3,.2,-.4c-.1,-.2,-.3,-.2,-.5,-.1c-.2,.1,-.3,.3,-.2,.4c.1,.2,.3,.2,.5,.1Z" class="gz_63"/>
<path fill-rule="evenodd" d="M515.8,340.6c-.1,.2,0,.4,.1,.5c.1,.1,.3,0,.4,-.2c.1,-.1,.1,-.3,0,-.4c-.2,-.1,-.3,0,-.5,.1Z" class="g2_63"/>
<path d="M515.8,340.6c-.1,.2,0,.4,.1,.5c.1,.1,.3,0,.4,-.2c.1,-.1,.1,-.3,0,-.4c-.2,-.1,-.3,0,-.5,.1Z" class="gz_63"/>
<path d="M534.7,324.4v59.7" class="g13_63"/>
<path d="M534.7,384.1h-109" class="gx_63"/>
<path d="M534.7,324.9L425.9,384.3" class="gz_63"/>
<path d="M534.9,384.5l-25.1,-46" class="gy_63"/>
</svg>