<?xml version="1.0" encoding="UTF-8" standalone="no"?>
<!DOCTYPE svg PUBLIC "-//W3C//DTD SVG 1.1//EN"
"http://www.w3.org/Graphics/SVG/1.1/DTD/svg11.dtd">
<svg viewBox="0 0 909 1147" version="1.1" xmlns="http://www.w3.org/2000/svg" xmlns:xlink="http://www.w3.org/1999/xlink">
<defs>
<style type="text/css"><![CDATA[
.g0_137{
fill: #DCE5C9;
}
.g1_137{
fill: none;
stroke: #000;
stroke-width: 0.728;
}
.g2_137{
fill: none;
stroke: #0EA5DF;
stroke-width: 0.763;
stroke-miterlimit: 10;
}
.g3_137{
fill: none;
stroke: #000;
stroke-width: 0.763;
}
]]></style>
</defs>
<path d="M835.8,1131h73.6v-51.5H835.8V1131Z" class="g0_137"/>
<path d="M235.6,230.8h10.8m21.6,0h10.9m27.7,0h10.8m-64,42.1h10.8m57.4,0h10.8m58.6,0h10.8m57.9,0h10.8M291.7,319.7h10.8m21.6,0h10.8m21.6,0h10.9m-114,37.8h10.8m57.4,0h10.8m58.6,0h10.8m-63,46.8h10.8m49.1,0h10.8M253.2,442.1h16.5m51.7,0h16.5m52.9,0h16.5m61.4,0h16.5M247.8,515.3h10.8m40,0h10.8m16.6,0h10.9m-6.4,37.8H347m53.1,0H411m48.7,0h10.8m1.4,46.8h10.8M238.6,636.5h10.9m17.4,36.7h10.8m36.4,0h10.8m5.8,37.8h10.9m58.5,0H411m57.9,0h10.8m-71.6,77H419m23.7,0h10.8M253.4,875.3h10.8m57.4,0h10.8m58.6,0h10.8m57.9,0h10.8m-241,77h10.8m172,0h10.8" class="g1_137"/>
<path d="M563,748.6h76.2m-75.9,46.5V749m75.9,-.4h58.9m-58.9,46.5V749m58.9,-.4H835.8M698.1,795.1V749m137.3,46.1V749M563,795.5h76.2m-75.9,43.2V795.9m75.9,-.4h58.9m-58.9,43.2V795.9m58.9,-.4H835.8M698.1,838.7V795.9m137.3,42.8V795.9M563,839.1h76.2m-75.9,43.6V839.5m75.9,-.4h58.9m-58.9,43.6V839.5m58.9,-.4H835.8M698.1,882.7V839.5m137.3,43.2V839.5M563,883.1h76.2m-75.9,29.5V883.4m75.9,-.3h58.9m-58.9,29.5V883.4m58.9,-.3H835.8M698.1,912.6V883.4m137.3,29.2V883.4M563,913h76.2m0,0h58.9m0,0H835.8" class="g2_137"/>
<path d="M761.2,817.6H772m-10.8,43.6H772M597.5,1001.6h10.8" class="g1_137"/>
<path d="M630.6,1001.6h11.3m77.7,0h11.3" class="g3_137"/>
<path d="M600.5,1043.7h10.9m25.2,0h10.9m25.3,0h10.8" class="g1_137"/>
<path d="M513,305.7h26M513.4,349V306.1m25.6,-.4H676.5M539,349V306.1m-25.6,85.8V349M539,391.9V349M676.5,305.7h24.3m-24.3,42.9V306.1m24.3,-.4H835.4M700.8,348.6V306.1M835,348.6V306.1M676.1,349h24.7m-24.3,42.9V349.4m24.3,-.4H835.4M700.8,391.9V349.4M835,391.9V349.4M513,392.3h26m-25.6,43.3V392.7m25.6,-.4H676.5M539,435.6V392.7m-25.6,85.8V435.6M539,478.5V435.6m-26,43.3h26m0,0H676.5m0,-86.6h24.3m-24.3,42.9V392.7m24.3,-.4H835.4M700.8,435.2V392.7M835,435.2V392.7M676.1,435.6h24.7m-24.3,42.9V436m24.3,-.4H835.4M700.8,478.5V436M835,478.5V436M676.5,478.9h24.3m0,0H835.4" class="g2_137"/>
<path d="M555.7,354.4h10.8m22.9,0h10.8m22.6,0h16.6m21.2,0h10.9M728.4,326h10.9m38.7,0h10.9m18.9,0h10.9M711.3,369.3h10.9m32.7,0h10.8m18.6,0h10.9m12.8,0h10.9M555.7,441h10.8m16.1,0h10.9m51.5,0h10.8m72.6,-28.4h10.9m38.7,0h10.9m-80.6,43.3h10.8m12.8,0h10.9m12.8,0h10.9m47.9,0h10.8" class="g1_137"/>
</svg>