<?xml version="1.0" encoding="UTF-8" standalone="no"?>
<!DOCTYPE svg PUBLIC "-//W3C//DTD SVG 1.1//EN"
"http://www.w3.org/Graphics/SVG/1.1/DTD/svg11.dtd">
<svg viewBox="0 0 909 1147" version="1.1" xmlns="http://www.w3.org/2000/svg" xmlns:xlink="http://www.w3.org/1999/xlink">
<defs>
<clipPath id="c0_28"><path d="M140,699.4v-18h30.3v18Z"/></clipPath>
<style type="text/css"><![CDATA[
.g0_28{
fill: #FAAF82;
}
.g1_28{
fill: none;
stroke: #000;
stroke-width: 0.763;
}
.g2_28{
fill: none;
stroke: #0EA5DF;
stroke-width: 3.055;
}
.g3_28{
fill: #FFF1E0;
}
.g4_28{
fill: #0C4B7F;
}
.g5_28{
fill: #0EA5DF;
}
.g6_28{
fill: #FFF;
}
.g7_28{
fill: none;
stroke: #D82C20;
stroke-width: 0.763;
}
.g8_28{
fill: none;
stroke: #0EA5DF;
stroke-width: 0.763;
}
]]></style>
</defs>
<path d="M0,1131H73.8v-51.5H0V1131Z" class="g0_28"/>
<path d="M185.6,232.7h28.6m75.8,0h28.6M185.5,364.1h28.7m75.8,0h28.6m-70.3,62.8h28.6M204.8,820.7h28.6m142.2,0h28.6m135.7,0h28.6m139.8,0H737M204.8,882h28.6m142.2,0h28.6m135.7,0h28.6m139.8,0H737M256.9,1011.2h28.7m113.6,0h28.6m-161.5,42.1h28.6m120.3,0h33.6m14,0h39.7" class="g1_28"/>
<path d="M73.6,166.9H835.8M73.6,296H835.8" class="g2_28"/>
<path d="M187.1,608.5h648V464.2h-648V608.5Z" class="g3_28"/>
<path d="M388.5,526.9h39.1" class="g1_28"/>
<path d="M187.1,761.1h648V671.3h-648v89.8Z" class="g3_28"/>
<path d="M260.1,731.1h39.1" class="g1_28"/>
<path d="M73.6,776.7H835.8M73.6,914.2H835.8" class="g2_28"/>
<path d="M0,141.1H120.6V0H0V141.1Z" class="g0_28"/>
<path d="M135.1,501.9h39.6V464.4H135.1v37.5Z" class="g4_28"/>
<path d="M135.1,708.7h39.6V671.3H135.1v37.4Z" class="g5_28"/>
<path clip-path="url(#c0_28)" d="M155.3,693.8c-2,.1,-3.7,-1.5,-3.6,-3.6c.1,-1.7,1.5,-3.1,3.2,-3.2c2.1,-.1,3.8,1.6,3.6,3.6c-.1,1.7,-1.5,3.1,-3.2,3.2m.2,2.9c-3.8,.3,-7,-2.9,-6.7,-6.7c.2,-3.2,2.7,-5.7,5.9,-5.9c3.8,-.3,7,2.9,6.8,6.7c-.2,3.2,-2.8,5.7,-6,5.9m-.4,-15.3c-5.8,0,-11,3.2,-14.8,8.3c-.4,.4,-.4,1,0,1.4c3.8,5.2,9,8.3,14.8,8.3c5.8,0,11,-3.1,14.9,-8.3c.3,-.4,.3,-1,0,-1.4c-3.9,-5.1,-9.1,-8.3,-14.9,-8.3Z" class="g6_28"/>
<path d="M660.7,520.4h39.1" class="g7_28"/>
<path d="M538.4,491.9c0,0,-18.3,0,-18.3,18.4v68.6c0,0,0,18.4,18.3,18.4H806.3c0,0,18.3,0,18.3,-18.4V510.3c0,0,0,-18.4,-18.3,-18.4H538.4Z" class="g8_28"/>
<path d="M282.8,646h28.6m74.8,0h28.7" class="g1_28"/>
<path d="M73.6,622.2H835.8" class="g2_28"/>
<path d="M601.1,715.4h39.1m50.2,0h39.1" class="g1_28"/>
<path d="M538.4,685.7c0,0,-18.3,0,-18.3,18.3v20c0,0,0,18.3,18.3,18.3H806.3c0,0,18.3,0,18.3,-18.3V704c0,0,0,-18.3,-18.3,-18.3H538.4Z" class="g8_28"/>
</svg>