<?xml version="1.0" encoding="UTF-8" standalone="no"?>
<!DOCTYPE svg PUBLIC "-//W3C//DTD SVG 1.1//EN"
"http://www.w3.org/Graphics/SVG/1.1/DTD/svg11.dtd">
<svg viewBox="0 0 909 1147" version="1.1" xmlns="http://www.w3.org/2000/svg" xmlns:xlink="http://www.w3.org/1999/xlink">
<defs>
<clipPath id="c0_60"><path d="M185.1,306V165.3H390.5V306Z"/></clipPath>
<clipPath id="c1_60"><path d="M209,511.4V408.7H345.5V511.4Z"/></clipPath>
<clipPath id="c2_60"><path d="M232,610.3V536.8h90.6v73.5Z"/></clipPath>
<clipPath id="c3_60"><path d="M183.5,797.3V681.2H312.9V797.3Z"/></clipPath>
<clipPath id="c4_60"><path d="M409.2,788V689.5h129V788Z"/></clipPath>
<style type="text/css"><![CDATA[
.g0_60{
fill: #B6D774;
}
.g1_60{
fill: #FFF1E0;
}
.g2_60{
fill: none;
stroke: #0EA5DF;
stroke-width: 0.763;
}
.g3_60{
fill: #D82C20;
}
.g4_60{
fill: #00AEEF;
}
.g5_60{
fill: #00A651;
}
.g6_60{
fill: none;
stroke: #000;
stroke-width: 0.763;
stroke-miterlimit: 2;
}
.g7_60{
fill: none;
stroke: #000;
stroke-width: 1.069;
stroke-miterlimit: 2;
}
.g8_60{
fill: none;
stroke: #0EA5DF;
stroke-width: 3.055;
}
.g9_60{
fill: #FFF;
}
.ga_60{
fill: none;
stroke: #2E3092;
stroke-width: 0.763;
stroke-miterlimit: 2;
}
.gb_60{
fill: #2E3092;
}
.gc_60{
fill: #000;
}
.gd_60{
fill: #0C4B7F;
}
.ge_60{
fill: #0EA5DF;
}
]]></style>
</defs>
<path d="M0,1131H73.8v-51.5H0V1131Z" class="g0_60"/>
<path d="M184.8,521h651V404.1h-651V521Z" class="g1_60"/>
<path d="M203.8,315.2c0,0,-18.3,0,-18.3,18.4v43.1c0,0,0,18.3,18.3,18.3H371.9c0,0,18.3,0,18.3,-18.3V333.6c0,0,0,-18.4,-18.3,-18.4H203.8Z" class="g2_60"/>
<path fill-rule="evenodd" d="M193.7,288.3l-3.5,4.7h3Zm1.8,-3l-1,10.1c0,.4,0,.7,0,.9c0,.2,0,.4,.1,.5c.1,.2,.3,.3,.5,.4c.2,.1,.5,.2,.9,.2l-.1,.3h-4.7l.1,-.3h.2c.4,0,.7,-.1,.9,-.3c.2,-.1,.3,-.3,.4,-.6c.1,-.1,.2,-.6,.2,-1.3l.2,-1.5h-3.5l-1.3,1.7c-.2,.3,-.4,.6,-.5,.8c-.1,.1,-.1,.3,-.1,.4c0,.2,.1,.4,.2,.5c.2,.2,.5,.2,.8,.3l-.1,.3h-3.6l.1,-.3c.5,-.1,.9,-.2,1.2,-.5c.3,-.3,.8,-.9,1.5,-1.8l7.3,-9.8Z" class="g3_60"/>
<path clip-path="url(#c0_60)" fill-rule="evenodd" d="M382.4,295.4c.7,.1,1.2,.1,1.6,.1c.9,0,1.7,-.3,2.4,-.8c.8,-.6,1.1,-1.4,1.1,-2.3c0,-.8,-.2,-1.3,-.7,-1.7c-.4,-.5,-1.1,-.7,-2.1,-.7c-.2,0,-.4,0,-.7,.1Zm1.8,-6c.4,0,.7,0,.9,0c1.2,0,2.1,-.3,2.7,-.8c.6,-.5,.9,-1.2,.9,-2c0,-.6,-.2,-1.1,-.5,-1.5c-.4,-.3,-1,-.5,-1.8,-.5c-.2,0,-.5,.1,-.8,.1Zm-1.8,-5l.1,-.4h4.4c.7,0,1.3,.1,1.9,.4c.6,.2,1,.5,1.3,.9c.3,.4,.4,.8,.4,1.3c0,.7,-.3,1.3,-.8,1.9c-.5,.6,-1.3,1,-2.4,1.2c.7,.3,1.3,.7,1.6,1.1c.3,.5,.5,1,.5,1.5c0,.6,-.1,1.2,-.4,1.8c-.4,.5,-.8,.9,-1.2,1.2c-.5,.3,-1.1,.6,-1.8,.7c-.5,.1,-1.3,.2,-2.3,.2h-4.4l.1,-.4c.4,0,.8,0,.9,-.1c.3,-.1,.4,-.2,.5,-.4c.2,-.2,.4,-.8,.6,-1.6l2.2,-7.3c.2,-.6,.3,-1.1,.3,-1.3c0,-.2,-.1,-.4,-.3,-.5c-.1,-.2,-.5,-.2,-.9,-.2c-.1,0,-.2,0,-.3,0Z" class="g4_60"/>
<path fill-rule="evenodd" d="M337.1,165.3l-.9,4h-.3v-1c-.1,-.4,-.1,-.7,-.2,-1c-.1,-.3,-.3,-.5,-.5,-.7c-.2,-.2,-.5,-.4,-.8,-.5c-.4,-.1,-.7,-.2,-1.1,-.2c-1.1,0,-2,.3,-2.8,.9c-1,.8,-1.8,1.8,-2.4,3.2c-.5,1.1,-.7,2.2,-.7,3.4c0,1.2,.3,2.1,1,2.8c.7,.7,1.6,1.1,2.7,1.1c.8,0,1.5,-.2,2.2,-.6c.6,-.4,1.2,-.9,1.8,-1.7h.4c-.6,1,-1.4,1.8,-2.2,2.3c-.8,.5,-1.7,.7,-2.8,.7c-1,0,-1.9,-.2,-2.7,-.6c-.7,-.4,-1.3,-1,-1.7,-1.7c-.4,-.8,-.6,-1.6,-.6,-2.5c0,-1.3,.3,-2.6,1,-3.8c.7,-1.3,1.7,-2.3,3,-3c1.2,-.7,2.4,-1.1,3.7,-1.1c.6,0,1.3,.2,2,.5c.3,.1,.6,.1,.7,.1c.1,0,.3,0,.4,0c.1,-.1,.3,-.3,.5,-.6Z" class="g5_60"/>
<path d="M355.9,289.6c-.3,-9.4,2.5,-13.2,9.8,-18M328.9,195.4c-8.8,2.9,-13.3,1.4,-19.9,-4.3m-88,82c8,4.7,9.9,9.1,10.1,17.8" class="g6_60"/>
<path d="M201.8,290.4H374.1L322.7,179.7L201.8,290.4Z" class="g7_60"/>
<path clip-path="url(#c0_60)" fill-rule="evenodd" d="M295.5,303.9c-.6,.7,-1.3,1.3,-1.9,1.6c-.6,.4,-1.3,.5,-2,.5c-.9,0,-1.5,-.2,-2,-.7c-.5,-.5,-.7,-1.1,-.7,-1.9c0,-.9,.3,-1.8,.8,-2.7c.5,-.9,1.2,-1.6,2,-2.1c.9,-.6,1.7,-.9,2.6,-.9c.6,0,1.1,.2,1.4,.4c.3,.3,.5,.6,.5,1c0,.4,-.1,.7,-.3,1c-.2,.2,-.4,.3,-.7,.3c-.1,0,-.3,-.1,-.4,-.2c-.1,-.1,-.2,-.3,-.2,-.4c0,-.2,0,-.3,.1,-.4c0,-.1,.1,-.2,.2,-.3c.2,-.1,.3,-.2,.3,-.3q0,-.1,0,-.2c0,-.1,0,-.2,-.1,-.3c-.2,-.1,-.4,-.2,-.8,-.2c-.5,0,-1.1,.2,-1.7,.6c-.6,.5,-1.1,1,-1.5,1.8c-.5,.9,-.7,1.8,-.7,2.8c0,.6,.2,1,.5,1.4c.4,.4,.8,.5,1.4,.5c.5,0,.9,-.1,1.4,-.3c.5,-.2,1,-.7,1.5,-1.3Z" class="g5_60"/>
<path fill-rule="evenodd" d="M363.9,224.9c-.4,0,-.8,.2,-1.2,.5c-.6,.5,-1.2,1.3,-1.7,2.3c-.4,1,-.7,1.9,-.7,2.7c0,.4,.1,.7,.3,1c.2,.2,.5,.3,.7,.3c.7,0,1.4,-.5,2.2,-1.4c1,-1.3,1.5,-2.6,1.5,-4c0,-.5,-.1,-.8,-.3,-1.1c-.2,-.2,-.5,-.3,-.8,-.3m3.2,-.5l-1.8,6.1l-.2,.8c0,.1,0,.2,0,.2c0,.1,0,.2,.1,.3c0,0,.1,.1,.2,.1c0,0,.2,-.1,.3,-.2c.2,-.2,.5,-.5,.9,-1.1l.3,.2c-.4,.7,-.8,1.1,-1.3,1.5c-.4,.3,-.8,.5,-1.2,.5c-.2,0,-.4,-.1,-.5,-.2c-.2,-.2,-.2,-.4,-.2,-.6c0,-.3,0,-.7,.2,-1.2l.1,-.6c-.7,1,-1.5,1.7,-2.1,2.1c-.5,.3,-.9,.5,-1.4,.5c-.4,0,-.8,-.2,-1.1,-.6c-.3,-.3,-.5,-.8,-.5,-1.5c0,-.9,.3,-1.9,.9,-3c.5,-1,1.2,-1.9,2.1,-2.5c.7,-.5,1.4,-.8,2,-.8c.3,0,.6,.1,.9,.3c.2,.2,.4,.5,.5,1l.3,-1Z" class="g3_60"/>
<path fill-rule="evenodd" d="M255.2,225.1c.6,.3,1.2,.5,1.6,.5c.5,0,1.1,-.2,1.7,-.6c.5,-.4,1,-1,1.4,-1.9c.4,-.9,.6,-1.9,.6,-2.8c0,-.5,-.1,-1,-.4,-1.3c-.2,-.3,-.6,-.5,-.9,-.5c-.6,0,-1.1,.3,-1.7,.7c-.5,.5,-.9,1.1,-1.1,1.9Zm3.5,-12l-1.8,6.2c.6,-.6,1.1,-1,1.5,-1.3c.5,-.2,.9,-.3,1.4,-.3c.6,0,1.2,.2,1.6,.7c.4,.4,.6,1,.6,1.7c0,1,-.3,1.9,-.8,2.9c-.6,.9,-1.2,1.7,-2.1,2.2c-.8,.5,-1.6,.8,-2.4,.8c-.9,0,-1.8,-.3,-2.8,-1l2.7,-9.4c.2,-.7,.3,-1.1,.3,-1.2c0,-.2,0,-.3,-.1,-.4c-.1,-.1,-.3,-.1,-.6,-.1c-.1,0,-.3,0,-.6,0v-.3Z" class="g4_60"/>
<path fill-rule="evenodd" d="M244.3,276.4c-.4,-1.3,-.8,-2.1,-1.3,-2.6c-.5,-.5,-1,-.7,-1.5,-.7c-.6,0,-1.1,.3,-1.5,.9c-.4,.7,-.6,1.7,-.6,3.1c0,.8,.1,1.5,.3,1.9c.1,.5,.4,.9,.7,1.1c.4,.3,.7,.4,1.1,.4c.5,0,.9,-.2,1.3,-.6c.5,-.6,1,-1.8,1.5,-3.5m1,-3.7h1.5l-1.1,4c-.1,.3,-.2,.7,-.4,1.2c.2,1,.4,1.5,.5,1.7c.2,.3,.5,.5,.8,.5c.3,0,.5,-.1,.7,-.3c.2,-.2,.3,-.5,.4,-.9h.3c0,.8,-.2,1.4,-.5,1.7c-.3,.4,-.6,.5,-1,.5c-.3,0,-.6,-.1,-.9,-.4c-.3,-.3,-.5,-.9,-.7,-1.8c-.3,.5,-.5,.9,-.8,1.1c-.4,.4,-.7,.7,-1.1,.9c-.5,.2,-.9,.2,-1.5,.2c-1.3,0,-2.2,-.4,-2.9,-1.3c-.6,-.9,-.9,-1.9,-.9,-3c0,-1.3,.4,-2.3,1.1,-3.2c.7,-.8,1.6,-1.2,2.6,-1.2c.6,0,1.2,.2,1.8,.6c.5,.5,.9,1.2,1.4,2.4Z" class="g3_60"/>
<path fill-rule="evenodd" d="M343.6,278.9c.6,.5,1.1,.7,1.5,.9c.3,.2,.7,.2,1,.2c.6,0,1.1,-.2,1.5,-.7c.4,-.5,.6,-1.3,.6,-2.4c0,-.7,-.1,-1.3,-.3,-1.8c-.2,-.5,-.5,-1.1,-1,-1.7c-.4,.2,-.8,.2,-1.1,.2c-.3,0,-.6,0,-.7,-.1c-.2,-.1,-.2,-.2,-.2,-.4c0,-.1,0,-.2,.1,-.3c.1,-.1,.3,-.1,.6,-.1c.3,0,.7,.1,1.3,.2c.4,-.8,.6,-1.6,.6,-2.3c0,-.8,-.2,-1.4,-.5,-1.8c-.4,-.4,-.9,-.6,-1.4,-.6c-.7,0,-1.2,.3,-1.6,.9c-.3,.4,-.4,1,-.4,1.9Zm0,.8v1.5c0,.9,-.1,2,-.3,3.1h-1.6c.2,-.7,.3,-1.2,.3,-1.5c.1,-.8,.1,-1.4,.1,-1.8v-9.2c0,-1.1,.2,-1.8,.4,-2.4c.2,-.5,.6,-.9,1.1,-1.3c.6,-.3,1.2,-.5,2,-.5c1.1,0,1.9,.3,2.5,.9c.7,.6,1,1.2,1,2c0,.5,-.1,1,-.4,1.5c-.2,.4,-.6,.8,-1.2,1.2c1.6,.7,2.4,1.9,2.4,3.5c0,.7,-.2,1.4,-.5,2c-.3,.6,-.8,1.1,-1.4,1.4c-.6,.4,-1.2,.5,-1.8,.5c-.4,0,-.8,0,-1.2,-.2c-.4,-.1,-.8,-.4,-1.4,-.7Z" class="g4_60"/>
<path fill-rule="evenodd" d="M320.7,205.6h1.5c-.1,.2,-.6,1.2,-1.5,3.1c-.3,.7,-.6,1.3,-.8,1.7c0,.2,-.1,.3,-.2,.5l-1,2.2c0,.4,0,.8,.1,1.1c0,.3,0,.6,0,.9c0,.8,-.1,1.4,-.2,1.8c-.1,.4,-.2,.6,-.3,.7c-.2,.1,-.3,.2,-.5,.2c-.2,0,-.3,-.1,-.5,-.3c-.1,-.2,-.2,-.4,-.2,-.6c0,-.5,.1,-1,.3,-1.6c.1,-.6,.4,-1.3,.8,-2c-.5,-3.1,-.8,-4.9,-1.1,-5.6c-.2,-.6,-.6,-.9,-1,-.9c-.3,0,-.5,.1,-.7,.2c-.2,.2,-.3,.6,-.4,1.2h-.3c0,-.2,0,-.3,0,-.4c0,-.8,.1,-1.5,.5,-1.9c.2,-.3,.5,-.4,.9,-.4c.4,0,.7,.1,.9,.3c.3,.3,.6,.9,.8,2c.4,1.3,.6,2.7,.8,4.3l.8,-2.7c.3,-1.2,.8,-2.4,1.3,-3.8Z" class="g5_60"/>
<path d="M73.6,632.6H835.8" class="g8_60"/>
<path fill-rule="evenodd" d="M244.5,497.9L277.9,415l33.5,83.2Z" class="g9_60"/>
<path d="M244.5,497.9L277.9,415l33.5,83.2l-66.9,-.3Zm63.5,-10c-4.5,2.4,-6.5,5.7,-5.9,10.1M248,487.9c4.6,2.4,6.6,5.7,6,10.1" class="ga_60"/>
<path clip-path="url(#c1_60)" fill-rule="evenodd" d="M254.1,503.3c-.3,0,-.6,.1,-.9,.3c-.3,.2,-.6,.5,-.8,1c-.2,.5,-.3,1.1,-.3,1.8c0,1.2,.2,2.3,.7,3.1c.5,.9,1.1,1.3,1.9,1.3c.6,0,1,-.2,1.4,-.7c.4,-.5,.6,-1.3,.6,-2.5c0,-1.4,-.3,-2.6,-1,-3.4c-.4,-.6,-.9,-.9,-1.6,-.9m.3,-.5c1.2,0,2.2,.4,3,1.4c.6,.8,.9,1.7,.9,2.7c0,.8,-.1,1.5,-.5,2.3c-.3,.7,-.8,1.3,-1.4,1.7c-.7,.4,-1.3,.6,-2.1,.6c-1.2,0,-2.2,-.5,-2.9,-1.5c-.7,-.9,-1,-1.8,-1,-2.8c0,-.8,.2,-1.5,.6,-2.3c.4,-.7,.9,-1.3,1.5,-1.6c.6,-.4,1.2,-.5,1.9,-.5Z" class="gb_60"/>
<path fill-rule="evenodd" d="M267,508.1c-.2,1.1,-.7,1.9,-1.3,2.5c-.7,.6,-1.4,.8,-2.2,.8c-.9,0,-1.7,-.3,-2.4,-1.1c-.7,-.8,-1,-1.9,-1,-3.2c0,-1.3,.4,-2.3,1.1,-3.1c.8,-.8,1.7,-1.2,2.8,-1.2c.8,0,1.4,.2,2,.6c.5,.4,.7,.9,.7,1.3c0,.3,0,.4,-.2,.6c-.1,.1,-.3,.2,-.6,.2c-.3,0,-.6,-.1,-.8,-.4c-.1,-.1,-.2,-.3,-.2,-.7c0,-.3,-.1,-.6,-.3,-.8c-.3,-.2,-.5,-.2,-.9,-.2c-.6,0,-1.1,.2,-1.5,.6c-.4,.6,-.7,1.4,-.7,2.3c0,1,.3,1.9,.7,2.6c.5,.8,1.2,1.2,2,1.2c.6,0,1.1,-.2,1.6,-.6c.3,-.3,.6,-.8,.9,-1.5Z" class="gb_60"/>
<path fill-rule="evenodd" d="M270.7,506.7h3.6v-1.8c0,-.5,-.1,-.8,-.1,-1c-.1,-.2,-.2,-.3,-.3,-.4c-.2,-.1,-.5,-.2,-.9,-.2V503h4v.3c-.4,0,-.7,.1,-.8,.2c-.2,0,-.3,.2,-.4,.3c0,.2,-.1,.6,-.1,1.1v4.4c0,.5,.1,.8,.1,1c0,.2,.2,.3,.3,.4c.2,.1,.5,.2,.9,.2v.3h-4v-.3c.5,0,.8,-.1,1,-.3c.2,-.2,.3,-.6,.3,-1.3v-2.1h-3.6v2.1c0,.5,0,.8,.1,1c0,.2,.1,.3,.3,.4c.2,.1,.5,.2,.9,.2v.3h-4v-.3c.5,0,.9,-.1,1,-.3c.2,-.2,.2,-.7,.2,-1.3v-4.4c0,-.5,0,-.8,0,-1c-.1,-.2,-.2,-.3,-.4,-.4c-.1,-.1,-.4,-.2,-.8,-.2V503h4v.3c-.4,0,-.7,.1,-.9,.2c-.1,0,-.2,.2,-.3,.3c-.1,.2,-.1,.6,-.1,1.1Z" class="gb_60"/>
<path clip-path="url(#c1_60)" fill-rule="evenodd" d="M281.7,503.3c-.3,0,-.6,.1,-1,.3c-.3,.2,-.5,.5,-.7,1c-.2,.5,-.3,1.1,-.3,1.8c0,1.2,.2,2.3,.7,3.1c.5,.9,1.1,1.3,1.9,1.3c.5,0,1,-.2,1.4,-.7c.4,-.5,.6,-1.3,.6,-2.5c0,-1.4,-.4,-2.6,-1,-3.4c-.4,-.6,-.9,-.9,-1.6,-.9m.3,-.5c1.2,0,2.2,.4,3,1.4c.6,.8,.9,1.7,.9,2.7c0,.8,-.2,1.5,-.5,2.3c-.4,.7,-.8,1.3,-1.5,1.7c-.6,.4,-1.3,.6,-2,.6c-1.3,0,-2.2,-.5,-3,-1.5c-.6,-.9,-.9,-1.8,-.9,-2.8c0,-.8,.2,-1.5,.6,-2.3c.3,-.7,.8,-1.3,1.4,-1.6c.6,-.4,1.3,-.5,2,-.5Z" class="gb_60"/>
<path fill-rule="evenodd" d="M289.7,510.5c.3,.1,.6,.1,1.1,.1c.7,0,1.2,-.1,1.5,-.4c.4,-.4,.6,-.8,.6,-1.2c0,-.6,-.3,-1,-.7,-1.3c-.5,-.3,-1.1,-.4,-1.9,-.4c-.2,0,-.4,0,-.6,0Zm0,-3.8c.2,0,.4,0,.5,0c.8,0,1.4,-.2,1.7,-.5c.4,-.3,.6,-.7,.6,-1.1c0,-.6,-.2,-.9,-.6,-1.2c-.3,-.2,-.9,-.3,-1.7,-.3h-.5Zm2.6,.2c1.5,.3,2.3,1,2.3,2.1c0,.7,-.3,1.3,-1,1.6c-.6,.4,-1.5,.6,-2.6,.6h-4v-.3c.5,0,.8,-.1,1,-.3c.1,-.2,.2,-.7,.2,-1.3v-4.4c0,-.6,0,-1,-.1,-1.1c-.1,-.1,-.2,-.2,-.3,-.3c-.1,-.1,-.4,-.2,-.8,-.2V503h3.8c.7,0,1.3,.1,1.7,.2c.5,.1,.8,.3,1.1,.6c.3,.4,.5,.8,.5,1.3c0,.9,-.6,1.5,-1.8,1.8Z" class="gb_60"/>
<path fill-rule="evenodd" d="M300.2,509.4v-3.1c-.9,.4,-1.5,.6,-1.8,.8c-.4,.2,-.8,.5,-1,.8c-.2,.3,-.3,.6,-.3,.9c0,.5,.2,.8,.4,1.1c.3,.3,.6,.4,.9,.4c.5,0,1,-.3,1.8,-.9m0,.6c-.9,.7,-1.4,1,-1.6,1.1c-.3,.2,-.7,.3,-1,.3c-.6,0,-1.1,-.2,-1.4,-.6c-.4,-.4,-.6,-.9,-.6,-1.5c0,-.4,.1,-.8,.3,-1.1c.2,-.4,.7,-.8,1.3,-1.1c.6,-.4,1.6,-.8,3,-1.3v-.4c0,-.8,-.1,-1.3,-.4,-1.6c-.3,-.3,-.6,-.5,-1.1,-.5c-.4,0,-.7,.1,-.9,.3c-.3,.2,-.4,.4,-.4,.7l.1,.5c0,.3,-.1,.5,-.3,.7c-.1,.1,-.3,.2,-.5,.2c-.2,0,-.4,-.1,-.6,-.2c-.1,-.2,-.2,-.4,-.2,-.7c0,-.5,.3,-1,.8,-1.4c.5,-.4,1.3,-.6,2.2,-.6c.8,0,1.4,.1,1.8,.3c.4,.2,.6,.5,.8,.9c.1,.3,.2,.8,.2,1.6v2.8c0,.7,0,1.2,0,1.4c0,.2,.1,.3,.2,.3c0,.1,.1,.1,.2,.1c.1,0,.2,0,.2,0c.2,-.1,.4,-.3,.8,-.7v.5c-.7,.9,-1.3,1.4,-1.9,1.4c-.3,0,-.6,-.1,-.7,-.3c-.2,-.2,-.3,-.6,-.3,-1.1Z" class="gb_60"/>
<path clip-path="url(#c1_60)" fill-rule="evenodd" d="M212.8,457.2c-.6,0,-1.1,.2,-1.4,.7c-.4,.5,-.6,1.3,-.6,2.3c0,1.5,.2,2.6,.8,3.3c.5,.8,1.1,1.1,1.7,1.1c.7,0,1.1,-.2,1.5,-.8c.4,-.5,.5,-1.3,.5,-2.4c0,-1.2,-.2,-2.2,-.7,-3c-.4,-.8,-1,-1.2,-1.8,-1.2m-3.1,1.9c.6,-1.7,1.8,-2.5,3.4,-2.5c1.2,0,2.1,.4,2.8,1.2c.7,.9,1.1,1.9,1.1,3c0,1.1,-.4,2.1,-1.1,3.1c-.7,.9,-1.7,1.3,-3,1.3c-1.2,0,-2.2,-.5,-2.9,-1.5c-.7,-1.1,-1,-2.4,-1,-3.9c0,-1.2,.2,-2.3,.5,-3.3c.4,-1,.7,-1.8,1.1,-2.3c.4,-.5,.8,-.9,1.3,-1.1c.5,-.3,1.4,-.4,2.7,-.4c.9,0,1.5,0,1.7,-.1c.1,0,.3,-.1,.5,-.3h.4c-.2,.5,-.5,1,-.8,1.2c-.2,.3,-.5,.4,-.9,.5c-.3,.1,-.9,.2,-1.7,.2c-.9,0,-1.5,.1,-1.9,.2c-.3,.1,-.7,.4,-1,.8c-.4,.4,-.7,1,-.9,1.7c-.2,.7,-.3,1.4,-.3,2.2Z" class="gb_60"/>
<path fill-rule="evenodd" d="M219.3,459.4h3.8c0,-.6,0,-.9,-.1,-1.1c-.2,-.4,-.4,-.6,-.7,-.8c-.3,-.2,-.6,-.3,-.9,-.3c-.5,0,-1,.2,-1.4,.6c-.4,.3,-.6,.9,-.7,1.6m0,.5c0,1.2,.3,2.2,.9,2.8c.6,.7,1.3,1.1,2.1,1.1c.6,0,1,-.2,1.4,-.5c.4,-.3,.8,-.8,1,-1.5l.3,.2c-.1,.8,-.5,1.6,-1.1,2.2c-.6,.7,-1.3,1,-2.2,1c-1,0,-1.9,-.3,-2.6,-1.1c-.7,-.8,-1,-1.8,-1,-3.1c0,-1.4,.3,-2.5,1.1,-3.3c.7,-.8,1.6,-1.2,2.7,-1.2c.9,0,1.6,.3,2.2,1c.6,.6,.9,1.4,.9,2.4Z" class="gb_60"/>
<path fill-rule="evenodd" d="M229,457.4v.5c0,2.9,-.6,5.1,-1.6,6.5h3c.6,0,.9,0,1,-.1c0,-.1,.1,-.5,.1,-1v-5.9Zm-2,-.6h7.2v.3c-.4,0,-.7,.1,-.8,.2c-.1,0,-.2,.1,-.3,.3c-.1,.1,-.1,.5,-.1,1.1v4.1c0,.8,0,1.4,.2,1.5c.1,.2,.5,.3,1,.4v2.6h-.3c0,-.5,-.2,-.9,-.4,-1.3c-.2,-.4,-.5,-.6,-.9,-.8c-.4,-.1,-1,-.2,-1.7,-.2h-2.1c-.7,0,-1.2,.1,-1.6,.2c-.3,.1,-.6,.3,-.9,.7c-.2,.4,-.4,.8,-.4,1.4h-.4v-2.6c.5,-.1,1,-.2,1.4,-.6c.4,-.4,.7,-1.1,1,-2.2c.3,-1.1,.5,-2.1,.5,-3.2c0,-1,-.5,-1.5,-1.4,-1.6Z" class="gb_60"/>
<path fill-rule="evenodd" d="M237.5,459v3.1c0,.7,0,1.1,0,1.3c.1,.3,.3,.6,.7,.9c.3,.3,.7,.4,1.2,.4c.6,0,1.1,-.2,1.4,-.7c.5,-.6,.8,-1.5,.8,-2.6c0,-1.2,-.3,-2.2,-.9,-2.8c-.3,-.5,-.8,-.7,-1.3,-.7c-.3,0,-.6,0,-.9,.2c-.2,.1,-.5,.4,-1,.9m-2.9,-1.4l2.5,-1h.4v1.9c.4,-.7,.8,-1.2,1.2,-1.5c.5,-.3,.9,-.4,1.4,-.4c.8,0,1.5,.3,2,.9c.7,.8,1.1,1.8,1.1,3.1c0,1.4,-.4,2.6,-1.3,3.5c-.6,.8,-1.5,1.1,-2.5,1.1c-.4,0,-.8,0,-1.1,-.1c-.3,-.1,-.5,-.3,-.8,-.6V467c0,.6,0,.9,.1,1.1c0,.1,.2,.3,.3,.4c.2,0,.5,.1,1,.1v.3h-4.3v-.3h.2c.3,0,.6,-.1,.8,-.2c.1,-.1,.2,-.2,.3,-.3c0,-.2,.1,-.5,.1,-1.1v-7.8c0,-.5,0,-.9,-.1,-1c0,-.1,-.1,-.3,-.2,-.3c-.1,-.1,-.3,-.1,-.4,-.1c-.2,0,-.4,0,-.6,.1Z" class="gb_60"/>
<path fill-rule="evenodd" d="M248.1,457.1c-.3,0,-.6,.1,-1,.3c-.3,.2,-.5,.5,-.7,1c-.2,.5,-.3,1.1,-.3,1.8c0,1.2,.2,2.2,.7,3.1c.5,.9,1.1,1.3,1.9,1.3c.5,0,1,-.2,1.4,-.7c.4,-.5,.6,-1.3,.6,-2.5c0,-1.4,-.4,-2.6,-1,-3.4c-.4,-.6,-1,-.9,-1.6,-.9m.3,-.5c1.2,0,2.2,.4,3,1.4c.6,.8,.9,1.7,.9,2.7c0,.8,-.2,1.5,-.5,2.3c-.4,.7,-.8,1.3,-1.5,1.7c-.6,.4,-1.3,.5,-2,.5c-1.3,0,-2.2,-.4,-3,-1.4c-.6,-.9,-.9,-1.8,-.9,-2.8c0,-.8,.2,-1.5,.6,-2.3c.3,-.7,.8,-1.3,1.4,-1.6c.6,-.4,1.3,-.5,2,-.5Z" class="gb_60"/>
<path fill-rule="evenodd" d="M306,457.2c-.6,0,-1,.2,-1.4,.7c-.4,.5,-.6,1.3,-.6,2.3c0,1.5,.3,2.6,.8,3.3c.5,.8,1.1,1.1,1.8,1.1c.6,0,1.1,-.2,1.4,-.8c.4,-.5,.6,-1.3,.6,-2.4c0,-1.2,-.3,-2.2,-.7,-3c-.5,-.8,-1.1,-1.2,-1.9,-1.2m-3.1,1.9c.7,-1.7,1.8,-2.5,3.5,-2.5c1.1,0,2,.4,2.8,1.2c.7,.9,1,1.9,1,3c0,1.1,-.3,2.1,-1.1,3.1c-.7,.9,-1.7,1.3,-2.9,1.3c-1.3,0,-2.3,-.5,-3,-1.5c-.6,-1.1,-1,-2.4,-1,-3.9c0,-1.2,.2,-2.3,.6,-3.3c.3,-1,.7,-1.8,1,-2.3c.4,-.5,.9,-.9,1.4,-1.1c.5,-.3,1.4,-.4,2.6,-.4c.9,0,1.5,0,1.7,-.1c.2,0,.4,-.1,.5,-.3h.4c-.2,.5,-.5,1,-.7,1.2c-.3,.3,-.6,.4,-.9,.5c-.4,.1,-.9,.2,-1.8,.2c-.9,0,-1.5,.1,-1.8,.2c-.4,.1,-.7,.4,-1.1,.8c-.4,.4,-.7,1,-.9,1.7c-.2,.7,-.3,1.4,-.3,2.2Z" class="gb_60"/>
<path fill-rule="evenodd" d="M312.6,459.4h3.8c-.1,-.6,-.1,-.9,-.2,-1.1c-.2,-.4,-.4,-.6,-.7,-.8c-.3,-.2,-.6,-.3,-.9,-.3c-.5,0,-.9,.2,-1.3,.6c-.4,.3,-.7,.9,-.7,1.6m0,.5c0,1.2,.3,2.2,.9,2.8c.6,.7,1.3,1.1,2.1,1.1c.5,0,1,-.2,1.4,-.5c.4,-.3,.7,-.8,1,-1.5l.2,.2c-.1,.8,-.4,1.6,-1.1,2.2c-.6,.7,-1.3,1,-2.2,1c-1,0,-1.8,-.3,-2.5,-1.1c-.7,-.8,-1.1,-1.8,-1.1,-3.1c0,-1.4,.4,-2.5,1.1,-3.3c.7,-.8,1.6,-1.2,2.7,-1.2c.9,0,1.7,.3,2.3,1c.5,.6,.8,1.4,.8,2.4Z" class="gb_60"/>
<path fill-rule="evenodd" d="M322.2,457.4v.5c0,2.9,-.5,5.1,-1.6,6.5h3c.6,0,.9,0,1,-.1c.1,-.1,.1,-.5,.1,-1v-5.9Zm-2,-.6h7.2v.3c-.4,0,-.6,.1,-.8,.2c-.1,0,-.2,.1,-.3,.3c-.1,.1,-.1,.5,-.1,1.1v4.1c0,.8,.1,1.4,.2,1.5c.2,.2,.5,.3,1,.4v2.6h-.3c0,-.5,-.1,-.9,-.4,-1.3c-.2,-.4,-.5,-.6,-.9,-.8c-.4,-.1,-.9,-.2,-1.7,-.2H322c-.7,0,-1.2,.1,-1.5,.2c-.4,.1,-.7,.3,-1,.7c-.2,.4,-.4,.8,-.4,1.4h-.4v-2.6c.5,-.1,1,-.2,1.4,-.6c.4,-.4,.7,-1.1,1,-2.2c.3,-1.1,.5,-2.1,.5,-3.2c0,-1,-.5,-1.5,-1.4,-1.6Z" class="gb_60"/>
<path fill-rule="evenodd" d="M330.7,459v3.1c0,.7,0,1.1,.1,1.3c.1,.3,.3,.6,.6,.9c.3,.3,.7,.4,1.2,.4c.6,0,1.1,-.2,1.5,-.7c.5,-.6,.7,-1.5,.7,-2.6c0,-1.2,-.3,-2.2,-.8,-2.8c-.4,-.5,-.9,-.7,-1.4,-.7c-.3,0,-.6,0,-.8,.2c-.3,.1,-.6,.4,-1.1,.9m-2.9,-1.4l2.6,-1h.3v1.9c.4,-.7,.8,-1.2,1.3,-1.5c.4,-.3,.8,-.4,1.3,-.4c.8,0,1.5,.3,2.1,.9c.7,.8,1,1.8,1,3.1c0,1.4,-.4,2.6,-1.2,3.5c-.7,.8,-1.5,1.1,-2.6,1.1c-.4,0,-.8,0,-1.1,-.1c-.2,-.1,-.5,-.3,-.8,-.6V467c0,.6,0,.9,.1,1.1c.1,.1,.2,.3,.4,.4c.1,0,.4,.1,.9,.1v.3h-4.3v-.3h.2c.3,0,.6,-.1,.8,-.2c.2,-.1,.3,-.2,.3,-.3c.1,-.2,.1,-.5,.1,-1.1v-7.8c0,-.5,0,-.9,-.1,-1c0,-.1,-.1,-.3,-.2,-.3c-.1,-.1,-.2,-.1,-.4,-.1c-.2,0,-.3,0,-.6,.1Z" class="gb_60"/>
<path clip-path="url(#c1_60)" fill-rule="evenodd" d="M341.3,457.1c-.3,0,-.6,.1,-.9,.3c-.4,.2,-.6,.5,-.8,1c-.2,.5,-.3,1.1,-.3,1.8c0,1.2,.2,2.2,.7,3.1c.5,.9,1.1,1.3,1.9,1.3c.6,0,1,-.2,1.4,-.7c.4,-.5,.6,-1.3,.6,-2.5c0,-1.4,-.3,-2.6,-1,-3.4c-.4,-.6,-.9,-.9,-1.6,-.9m.3,-.5c1.2,0,2.2,.4,3,1.4c.6,.8,.9,1.7,.9,2.7c0,.8,-.1,1.5,-.5,2.3c-.3,.7,-.8,1.3,-1.4,1.7c-.7,.4,-1.3,.5,-2.1,.5c-1.2,0,-2.2,-.4,-2.9,-1.4c-.7,-.9,-1,-1.8,-1,-2.8c0,-.8,.2,-1.5,.6,-2.3c.4,-.7,.9,-1.3,1.5,-1.6c.6,-.4,1.2,-.5,1.9,-.5Z" class="gb_60"/>
<path fill-rule="evenodd" d="M235.8,495.3l-3.5,4.8h3Zm1.8,-3l-.9,10.1c-.1,.5,-.1,.8,-.1,1c0,.2,0,.4,.1,.5c.1,.2,.3,.3,.5,.4c.2,.1,.5,.1,1,.1l-.1,.3h-4.8l.1,-.3h.2c.4,0,.7,-.1,.9,-.2c.2,-.2,.3,-.3,.4,-.6c.1,-.2,.2,-.6,.2,-1.3l.2,-1.5h-3.5l-1.2,1.6c-.3,.4,-.5,.7,-.6,.8c0,.2,-.1,.4,-.1,.5c0,.2,.1,.4,.3,.5c.1,.1,.4,.2,.7,.2l-.1,.3h-3.6l.1,-.3c.5,0,.9,-.2,1.2,-.4c.3,-.3,.8,-.9,1.5,-1.8l7.3,-9.9Z" class="gc_60"/>
<path fill-rule="evenodd" d="M320,506.6c.6,.1,1.1,.2,1.5,.2c.9,0,1.8,-.3,2.5,-.9c.7,-.5,1.1,-1.3,1.1,-2.2c0,-.8,-.3,-1.4,-.7,-1.8c-.4,-.4,-1.2,-.6,-2.2,-.6c-.1,0,-.4,0,-.7,0Zm1.8,-5.9c.4,0,.6,0,.8,0c1.2,0,2.2,-.3,2.8,-.8c.6,-.6,.9,-1.2,.9,-2.1c0,-.6,-.2,-1,-.6,-1.4c-.3,-.3,-.9,-.5,-1.7,-.5c-.3,0,-.5,0,-.9,.1Zm-1.9,-5.1l.2,-.3h4.3c.7,0,1.4,.1,2,.3c.5,.3,.9,.6,1.2,1c.3,.4,.5,.8,.5,1.3c0,.7,-.3,1.3,-.8,1.9c-.5,.5,-1.3,1,-2.5,1.2c.8,.3,1.3,.7,1.7,1.1c.3,.5,.5,1,.5,1.5c0,.6,-.2,1.2,-.5,1.7c-.3,.6,-.7,1,-1.2,1.3c-.5,.3,-1.1,.5,-1.7,.7c-.5,.1,-1.3,.1,-2.3,.1h-4.5l.1,-.3c.5,0,.8,-.1,1,-.1c.2,-.1,.4,-.3,.5,-.4c.1,-.3,.3,-.8,.6,-1.6l2.1,-7.3c.2,-.7,.3,-1.1,.3,-1.3c0,-.3,-.1,-.4,-.2,-.6c-.2,-.1,-.5,-.2,-1,-.2c-.1,0,-.2,0,-.3,0Z" class="gc_60"/>
<path fill-rule="evenodd" d="M296.7,408.7l-.9,3.9h-.3v-1c-.1,-.3,-.1,-.7,-.3,-.9c-.1,-.3,-.2,-.6,-.4,-.8c-.3,-.2,-.5,-.3,-.9,-.4c-.3,-.2,-.6,-.2,-1,-.2c-1.1,0,-2,.3,-2.8,.9c-1.1,.7,-1.9,1.8,-2.4,3.1c-.5,1.1,-.8,2.3,-.8,3.4c0,1.2,.4,2.1,1.1,2.8c.7,.7,1.5,1.1,2.6,1.1c.9,0,1.6,-.2,2.3,-.6c.6,-.3,1.2,-.9,1.8,-1.7h.4c-.7,1.1,-1.4,1.8,-2.2,2.3c-.8,.5,-1.8,.8,-2.9,.8c-1,0,-1.8,-.2,-2.6,-.7c-.8,-.4,-1.4,-.9,-1.7,-1.7c-.4,-.8,-.7,-1.6,-.7,-2.4c0,-1.4,.4,-2.6,1.1,-3.9c.7,-1.2,1.7,-2.2,2.9,-2.9c1.3,-.8,2.5,-1.1,3.8,-1.1c.6,0,1.2,.1,2,.4c.3,.1,.5,.2,.7,.2c.1,0,.2,-.1,.3,-.1c.2,-.1,.3,-.2,.6,-.5Z" class="gc_60"/>
<path fill-rule="evenodd" d="M261.4,487.1c-.4,-1.2,-.8,-2.1,-1.3,-2.5c-.5,-.5,-1,-.8,-1.5,-.8c-.6,0,-1.1,.3,-1.5,1c-.4,.6,-.6,1.7,-.6,3.1c0,.8,.1,1.4,.3,1.9c.1,.5,.4,.9,.7,1.1c.4,.3,.7,.4,1.1,.4c.5,0,.9,-.2,1.3,-.6c.5,-.6,1,-1.8,1.5,-3.6m1,-3.7h1.5l-1.1,4.1c-.1,.3,-.2,.7,-.4,1.2c.2,.9,.4,1.5,.5,1.7c.2,.3,.5,.5,.8,.5c.3,0,.5,-.1,.7,-.3c.2,-.2,.3,-.5,.4,-1h.3c0,.9,-.2,1.5,-.5,1.8c-.3,.3,-.6,.5,-1,.5c-.3,0,-.6,-.1,-.9,-.4c-.3,-.3,-.5,-.9,-.7,-1.9c-.3,.6,-.6,1,-.8,1.2c-.4,.4,-.7,.7,-1.1,.8c-.5,.2,-.9,.3,-1.5,.3c-1.3,0,-2.2,-.4,-2.9,-1.3c-.6,-.9,-.9,-1.9,-.9,-3c0,-1.3,.4,-2.4,1.1,-3.2c.7,-.8,1.6,-1.2,2.6,-1.2c.6,0,1.2,.2,1.8,.6c.5,.4,.9,1.2,1.4,2.3Z" class="gc_60"/>
<path fill-rule="evenodd" d="M296.7,487.1c-.3,-1.2,-.7,-2.1,-1.3,-2.5c-.5,-.5,-1,-.8,-1.5,-.8c-.6,0,-1.1,.3,-1.5,1c-.4,.6,-.5,1.7,-.5,3.1c0,.8,0,1.4,.2,1.9c.2,.5,.4,.9,.8,1.1c.3,.3,.7,.4,1,.4c.5,0,.9,-.2,1.3,-.6c.5,-.6,1,-1.8,1.5,-3.6m1.1,-3.7h1.5l-1.2,4.1c-.1,.3,-.2,.7,-.4,1.2c.3,.9,.4,1.5,.5,1.7c.3,.3,.5,.5,.9,.5c.2,0,.4,-.1,.6,-.3c.2,-.2,.4,-.5,.4,-1h.4c-.1,.9,-.3,1.5,-.6,1.8c-.2,.3,-.6,.5,-.9,.5c-.4,0,-.7,-.1,-1,-.4c-.2,-.3,-.5,-.9,-.7,-1.9c-.3,.6,-.5,1,-.8,1.2c-.3,.4,-.7,.7,-1.1,.8c-.4,.2,-.9,.3,-1.4,.3c-1.3,0,-2.3,-.4,-2.9,-1.3c-.7,-.9,-1,-1.9,-1,-3c0,-1.3,.4,-2.4,1.1,-3.2c.8,-.8,1.6,-1.2,2.6,-1.2c.7,0,1.3,.2,1.8,.6c.5,.4,1,1.2,1.4,2.3Z" class="gc_60"/>
<path d="M184.8,619.6h651V530.5h-651v89.1Z" class="g1_60"/>
<path fill-rule="evenodd" d="M240.6,595.6l-3.6,4.7h3.1Zm1.7,-3l-.9,10.1c0,.4,-.1,.8,-.1,.9c0,.2,.1,.4,.2,.6c.1,.1,.2,.3,.4,.3c.2,.1,.6,.2,1,.2l-.1,.3H238l.1,-.3h.2c.4,0,.7,-.1,1,-.3c.2,-.1,.3,-.3,.4,-.6c.1,-.1,.1,-.6,.2,-1.3L240,601h-3.4l-1.3,1.7c-.3,.4,-.4,.6,-.5,.8c-.1,.1,-.1,.3,-.1,.4c0,.2,.1,.4,.2,.5c.2,.2,.4,.3,.8,.3l-.1,.3H232l.1,-.3c.4,-.1,.8,-.2,1.2,-.5c.3,-.3,.8,-.8,1.5,-1.8l7.2,-9.8Z" class="gc_60"/>
<path fill-rule="evenodd" d="M314.6,604.3c.6,.1,1.1,.2,1.5,.2c.9,0,1.8,-.3,2.5,-.9c.7,-.5,1.1,-1.3,1.1,-2.3c0,-.7,-.3,-1.3,-.7,-1.7c-.5,-.4,-1.2,-.6,-2.2,-.6c-.2,0,-.4,0,-.7,0Zm1.8,-5.9c.3,0,.6,0,.8,0c1.2,0,2.2,-.3,2.8,-.8c.6,-.6,.9,-1.2,.9,-2.1c0,-.6,-.2,-1.1,-.6,-1.4c-.3,-.3,-.9,-.5,-1.8,-.5c-.2,0,-.4,0,-.8,.1Zm-1.9,-5.1l.2,-.3H319c.7,0,1.4,.1,1.9,.3c.6,.3,1,.6,1.3,1c.3,.4,.4,.8,.4,1.3c0,.7,-.2,1.3,-.7,1.9c-.5,.5,-1.3,.9,-2.5,1.2c.8,.3,1.3,.6,1.6,1.1c.4,.5,.6,1,.6,1.5c0,.6,-.2,1.2,-.5,1.7c-.3,.6,-.7,1,-1.2,1.3c-.5,.3,-1.1,.5,-1.8,.7c-.4,.1,-1.2,.1,-2.2,.1h-4.5l.1,-.3c.5,0,.8,-.1,1,-.1c.2,-.1,.4,-.3,.5,-.4c.1,-.3,.3,-.8,.6,-1.6l2.1,-7.3c.2,-.7,.3,-1.1,.3,-1.4c0,-.2,-.1,-.4,-.2,-.5c-.2,-.1,-.5,-.2,-1,-.2c-.1,0,-.2,0,-.3,0Z" class="gc_60"/>
<path fill-rule="evenodd" d="M298,536.8l-.9,3.9h-.4v-1c0,-.3,-.1,-.7,-.2,-.9c-.1,-.3,-.3,-.6,-.5,-.8c-.2,-.2,-.5,-.3,-.8,-.5c-.3,-.1,-.7,-.1,-1.1,-.1c-1.1,0,-2,.3,-2.8,.8c-1,.8,-1.8,1.8,-2.4,3.2c-.5,1.1,-.7,2.3,-.7,3.4c0,1.2,.3,2.1,1,2.8c.7,.7,1.6,1.1,2.7,1.1c.8,0,1.6,-.2,2.2,-.6c.7,-.3,1.3,-.9,1.8,-1.7h.4c-.6,1.1,-1.3,1.8,-2.1,2.3c-.8,.5,-1.8,.8,-2.9,.8c-1,0,-1.9,-.2,-2.7,-.7c-.7,-.4,-1.3,-1,-1.7,-1.7c-.4,-.8,-.6,-1.6,-.6,-2.4c0,-1.4,.4,-2.6,1.1,-3.9c.7,-1.3,1.6,-2.2,2.9,-3c1.2,-.7,2.5,-1,3.7,-1c.6,0,1.3,.1,2,.4c.3,.1,.6,.2,.7,.2c.2,0,.3,-.1,.4,-.1c.1,-.1,.3,-.2,.5,-.5Z" class="gc_60"/>
<path fill-rule="evenodd" d="M277.9,546.6l29.8,51.6H248.1Z" class="g9_60"/>
<path d="M277.9,546.6l29.8,51.6H248.1l29.8,-51.6ZM304,592.4c-2.4,1.3,-3.5,3.1,-3.2,5.4m-20,-45.6c-2.3,1.4,-4.4,1.5,-6.3,0m-23.2,40.2c2.4,1.3,3.5,3.1,3.2,5.4" class="ga_60"/>
<path fill-rule="evenodd" d="M279.5,564.9c-.4,-1.3,-.8,-2.1,-1.3,-2.6c-.5,-.5,-1,-.7,-1.5,-.7c-.6,0,-1.1,.3,-1.5,.9c-.4,.7,-.6,1.7,-.6,3.1c0,.8,.1,1.5,.3,2c.1,.4,.4,.8,.7,1.1c.4,.2,.7,.3,1.1,.3c.5,0,.9,-.2,1.3,-.6c.5,-.6,1,-1.7,1.5,-3.5m1,-3.7H282l-1.1,4c-.1,.3,-.2,.7,-.4,1.3c.2,.9,.4,1.4,.5,1.6c.2,.3,.5,.5,.8,.5c.3,0,.5,-.1,.7,-.3c.2,-.2,.3,-.5,.4,-.9h.4c-.1,.8,-.3,1.4,-.6,1.8c-.3,.3,-.6,.5,-1,.5c-.3,0,-.6,-.2,-.9,-.5c-.3,-.3,-.5,-.9,-.7,-1.8c-.3,.5,-.5,.9,-.8,1.2c-.3,.3,-.7,.6,-1.1,.8c-.5,.2,-.9,.3,-1.4,.3c-1.4,0,-2.3,-.5,-3,-1.4c-.6,-.8,-.9,-1.8,-.9,-3c0,-1.3,.4,-2.3,1.1,-3.1c.7,-.9,1.6,-1.3,2.6,-1.3c.6,0,1.2,.2,1.8,.7c.5,.4,1,1.1,1.4,2.3Z" class="gc_60"/>
<path fill-rule="evenodd" d="M264.2,590.5c-.3,-1.3,-.7,-2.1,-1.2,-2.6c-.6,-.5,-1.1,-.7,-1.6,-.7c-.6,0,-1.1,.3,-1.4,.9c-.4,.7,-.6,1.7,-.6,3.1c0,.8,.1,1.5,.2,2c.2,.4,.4,.8,.8,1.1c.3,.2,.7,.3,1,.3c.5,0,.9,-.2,1.3,-.6c.5,-.6,1,-1.7,1.5,-3.5m1.1,-3.7h1.5l-1.2,4.1c-.1,.2,-.2,.6,-.4,1.2c.3,.9,.4,1.4,.6,1.6c.2,.3,.4,.5,.8,.5c.2,0,.4,-.1,.6,-.3c.2,-.2,.4,-.5,.4,-.9h.4c-.1,.8,-.3,1.4,-.6,1.8c-.2,.3,-.6,.5,-.9,.5c-.4,0,-.7,-.2,-.9,-.5c-.3,-.3,-.6,-.9,-.8,-1.8c-.3,.5,-.5,.9,-.8,1.2c-.3,.3,-.7,.6,-1.1,.8c-.4,.2,-.9,.3,-1.4,.3c-1.3,0,-2.3,-.5,-2.9,-1.4c-.6,-.8,-.9,-1.8,-.9,-2.9c0,-1.4,.3,-2.4,1,-3.2c.8,-.9,1.6,-1.3,2.6,-1.3c.7,0,1.3,.2,1.8,.7c.5,.4,1,1.1,1.4,2.3Z" class="gc_60"/>
<path fill-rule="evenodd" d="M293.7,590.3c-.3,-1.2,-.7,-2.1,-1.2,-2.5c-.5,-.5,-1,-.8,-1.6,-.8c-.5,0,-1,.3,-1.4,1c-.4,.6,-.6,1.7,-.6,3.1c0,.8,.1,1.4,.3,1.9c.1,.5,.4,.8,.7,1.1c.3,.3,.7,.4,1.1,.4c.4,0,.9,-.2,1.2,-.6c.6,-.6,1.1,-1.8,1.5,-3.6m1.1,-3.7h1.5l-1.2,4.1c0,.3,-.2,.7,-.3,1.2c.2,.9,.4,1.5,.5,1.7c.2,.3,.5,.5,.8,.5c.2,0,.5,-.1,.7,-.3c.2,-.2,.3,-.5,.4,-1h.3c-.1,.9,-.2,1.5,-.5,1.8c-.3,.3,-.6,.5,-1,.5c-.3,0,-.6,-.1,-.9,-.4c-.3,-.3,-.5,-.9,-.8,-1.9c-.2,.6,-.5,1,-.7,1.2c-.4,.4,-.8,.7,-1.2,.8c-.4,.2,-.9,.3,-1.4,.3c-1.3,0,-2.3,-.4,-2.9,-1.3c-.6,-.9,-.9,-1.9,-.9,-3c0,-1.3,.3,-2.4,1.1,-3.2c.7,-.8,1.6,-1.2,2.5,-1.2c.7,0,1.3,.2,1.8,.6c.6,.4,1,1.2,1.4,2.3Z" class="gc_60"/>
<path clip-path="url(#c2_60)" fill-rule="evenodd" d="M278.6,602.4c-.4,0,-.8,.2,-1.2,.6c-.6,.5,-1.2,1.2,-1.6,2.2c-.5,1,-.7,1.9,-.7,2.7c0,.4,.1,.8,.3,1c.2,.2,.4,.3,.7,.3c.6,0,1.3,-.4,2.1,-1.4c1,-1.3,1.5,-2.6,1.5,-3.9c0,-.5,-.1,-.9,-.3,-1.1c-.2,-.3,-.4,-.4,-.8,-.4m3.2,-.4l-1.7,6l-.2,.8c-.1,.1,-.1,.2,-.1,.2c0,.1,.1,.2,.1,.3q.1,.1,.2,.1c.1,0,.2,-.1,.3,-.2c.2,-.1,.5,-.5,.9,-1l.3,.2c-.4,.6,-.8,1.1,-1.2,1.4c-.5,.3,-.9,.5,-1.2,.5c-.3,0,-.5,-.1,-.6,-.2c-.1,-.1,-.2,-.3,-.2,-.6c0,-.3,.1,-.6,.2,-1.1l.2,-.7c-.8,1,-1.5,1.7,-2.2,2.1c-.5,.3,-.9,.5,-1.4,.5c-.4,0,-.8,-.2,-1.1,-.6c-.3,-.3,-.5,-.8,-.5,-1.4c0,-1,.3,-2,.9,-3.1c.6,-1,1.3,-1.8,2.2,-2.5c.6,-.5,1.3,-.7,1.9,-.7c.4,0,.7,.1,.9,.3c.2,.1,.4,.5,.6,.9l.3,-1Z" class="gc_60"/>
<path fill-rule="evenodd" d="M303.4,566.8c-.3,0,-.7,.2,-1.2,.5c-.6,.5,-1.1,1.3,-1.6,2.3c-.5,1,-.7,1.9,-.7,2.7c0,.4,.1,.7,.3,1c.2,.2,.4,.3,.7,.3c.6,0,1.4,-.5,2.1,-1.4c1,-1.3,1.5,-2.6,1.5,-4c0,-.5,-.1,-.8,-.3,-1.1c-.1,-.2,-.4,-.3,-.8,-.3m3.2,-.5l-1.7,6.1l-.2,.8c0,.1,0,.2,0,.2c0,.1,0,.2,.1,.3c0,0,.1,0,.1,0c.1,0,.2,0,.3,-.1c.3,-.2,.6,-.5,1,-1.1l.3,.2c-.4,.7,-.9,1.1,-1.3,1.5c-.4,.3,-.8,.4,-1.2,.4c-.3,0,-.5,0,-.6,-.2c-.1,-.1,-.2,-.3,-.2,-.5c0,-.3,.1,-.7,.2,-1.2l.2,-.6c-.8,1,-1.5,1.7,-2.2,2.1c-.4,.3,-.9,.4,-1.3,.4c-.5,0,-.9,-.1,-1.2,-.5c-.3,-.4,-.4,-.9,-.4,-1.5c0,-.9,.2,-1.9,.8,-3c.6,-1,1.3,-1.9,2.2,-2.5c.7,-.5,1.3,-.8,1.9,-.8c.4,0,.7,.1,.9,.3c.3,.2,.5,.5,.6,1l.3,-1.1Z" class="gc_60"/>
<path fill-rule="evenodd" d="M253.5,568.2c-.3,0,-.7,.2,-1.2,.5c-.6,.6,-1.1,1.3,-1.6,2.3c-.5,1,-.7,1.9,-.7,2.7c0,.4,.1,.7,.3,1c.2,.2,.4,.3,.7,.3c.6,0,1.3,-.5,2.1,-1.4c1,-1.3,1.5,-2.6,1.5,-3.9c0,-.6,-.1,-.9,-.3,-1.1c-.1,-.3,-.4,-.4,-.8,-.4m3.2,-.5l-1.7,6.1l-.2,.8c0,.1,0,.2,0,.2c0,.1,0,.2,0,.3c.1,0,.2,.1,.2,.1c.1,0,.2,-.1,.3,-.2c.3,-.2,.6,-.5,1,-1.1l.3,.3c-.4,.6,-.9,1,-1.3,1.4c-.4,.3,-.8,.5,-1.2,.5c-.3,0,-.5,-.1,-.6,-.2c-.1,-.2,-.2,-.3,-.2,-.6c0,-.3,.1,-.7,.2,-1.1l.2,-.7c-.8,1,-1.5,1.7,-2.2,2.1c-.4,.3,-.9,.5,-1.3,.5c-.5,0,-.9,-.2,-1.2,-.6c-.3,-.3,-.4,-.8,-.4,-1.5c0,-.9,.2,-1.9,.8,-3c.6,-1,1.3,-1.9,2.2,-2.5c.7,-.5,1.3,-.8,1.9,-.8c.4,0,.7,.1,.9,.3c.3,.2,.5,.5,.6,1l.3,-1Z" class="gc_60"/>
<path d="M249.7,697.6L297.6,776H201.7l48,-78.4Z" class="g6_60"/>
<path clip-path="url(#c3_60)" fill-rule="evenodd" d="M192.1,775.4l-3.5,4.8h3Zm1.8,-2.9l-.9,10.1c-.1,.4,-.1,.7,-.1,.9c0,.2,0,.4,.1,.5c.1,.2,.3,.3,.5,.4c.2,.1,.5,.1,1,.1l-.1,.4h-4.8l.1,-.4h.2c.4,0,.7,0,.9,-.2c.2,-.1,.3,-.3,.4,-.6c.1,-.2,.2,-.6,.2,-1.3l.2,-1.5h-3.5l-1.2,1.7c-.3,.3,-.5,.6,-.6,.8c0,.1,-.1,.3,-.1,.4c0,.2,.1,.4,.3,.5c.1,.2,.4,.2,.7,.2l-.1,.4h-3.6l.1,-.4c.5,0,.9,-.1,1.2,-.4c.3,-.3,.8,-.9,1.5,-1.8l7.3,-9.8Z" class="gc_60"/>
<path fill-rule="evenodd" d="M304.8,784.7c.7,.1,1.2,.1,1.5,.1c1,0,1.8,-.3,2.5,-.8c.7,-.6,1.1,-1.4,1.1,-2.3c0,-.7,-.2,-1.3,-.7,-1.7c-.4,-.4,-1.1,-.7,-2.1,-.7c-.2,0,-.5,.1,-.7,.1Zm1.8,-6c.4,0,.6,0,.8,0c1.3,0,2.2,-.2,2.8,-.8c.6,-.5,.9,-1.2,.9,-2c0,-.6,-.2,-1.1,-.6,-1.5c-.3,-.3,-.9,-.5,-1.7,-.5c-.2,0,-.5,.1,-.9,.1Zm-1.8,-5l.1,-.4h4.3c.7,0,1.4,.1,2,.4c.5,.2,1,.5,1.2,.9c.3,.4,.5,.9,.5,1.3c0,.7,-.3,1.3,-.8,1.9c-.5,.6,-1.3,1,-2.5,1.2c.8,.3,1.3,.7,1.7,1.1c.3,.5,.5,1,.5,1.5c0,.6,-.2,1.2,-.5,1.8c-.3,.5,-.7,.9,-1.2,1.2c-.5,.4,-1,.6,-1.7,.7c-.5,.1,-1.3,.2,-2.3,.2h-4.5l.1,-.4c.5,0,.8,0,1,-.1c.2,-.1,.4,-.2,.5,-.4c.1,-.2,.3,-.7,.6,-1.6l2.2,-7.3c.1,-.6,.2,-1.1,.2,-1.3c0,-.2,-.1,-.4,-.2,-.5c-.2,-.2,-.5,-.2,-1,-.2q-.1,0,-.2,0Z" class="gc_60"/>
<path fill-rule="evenodd" d="M265.6,681.2l-.9,3.9h-.4v-1c0,-.3,-.1,-.6,-.2,-.9c-.1,-.3,-.3,-.5,-.5,-.7c-.2,-.3,-.5,-.4,-.8,-.5c-.3,-.1,-.7,-.2,-1.1,-.2c-1.1,0,-2,.3,-2.8,.9c-1,.7,-1.8,1.8,-2.4,3.1c-.5,1.2,-.7,2.3,-.7,3.4c0,1.2,.3,2.2,1,2.9c.7,.7,1.6,1,2.7,1c.8,0,1.6,-.2,2.2,-.5c.7,-.4,1.3,-1,1.8,-1.8h.4c-.6,1.1,-1.3,1.9,-2.1,2.3c-.8,.5,-1.8,.8,-2.9,.8c-1,0,-1.9,-.2,-2.6,-.6c-.8,-.5,-1.4,-1,-1.8,-1.8c-.4,-.7,-.6,-1.5,-.6,-2.4c0,-1.3,.4,-2.6,1.1,-3.9c.7,-1.2,1.7,-2.2,2.9,-2.9c1.2,-.7,2.5,-1.1,3.7,-1.1c.6,0,1.3,.1,2,.4c.4,.1,.6,.2,.7,.2c.2,0,.3,0,.4,-.1c.1,-.1,.3,-.2,.5,-.5Z" class="gc_60"/>
<path fill-rule="evenodd" d="M191.3,729.6c.4,-.9,.8,-1.5,1.4,-1.9c.5,-.5,1.1,-.7,1.9,-.7c1,0,1.8,.3,2.3,1c.4,.4,.6,.9,.6,1.5c0,.8,-.6,1.8,-1.7,2.7c.7,.3,1.3,.7,1.7,1.3c.4,.5,.6,1.1,.6,1.9c0,1,-.4,1.9,-1,2.7c-.9,1,-2.2,1.5,-3.8,1.5c-.8,0,-1.4,-.1,-1.7,-.3c-.3,-.2,-.4,-.4,-.4,-.7c0,-.1,0,-.3,.2,-.4c.1,-.1,.3,-.2,.5,-.2c.1,0,.3,0,.4,.1c.1,0,.4,.1,.7,.3c.4,.2,.6,.3,.8,.3c.2,.1,.4,.1,.7,.1c.6,0,1.1,-.2,1.6,-.7c.4,-.5,.6,-1,.6,-1.7c0,-.4,-.1,-.9,-.3,-1.3c-.1,-.4,-.3,-.6,-.5,-.8c-.2,-.2,-.6,-.4,-1,-.6c-.5,-.2,-.9,-.3,-1.4,-.3h-.3v-.3c.5,-.1,.9,-.2,1.4,-.5c.5,-.3,.8,-.6,1.1,-1c.2,-.4,.3,-.9,.3,-1.3c0,-.6,-.2,-1.1,-.6,-1.5c-.4,-.4,-.9,-.6,-1.4,-.6c-1,0,-1.7,.5,-2.4,1.5Z" class="gc_60"/>
<path fill-rule="evenodd" d="M200.6,742.4V742c.6,-.2,1.1,-.5,1.4,-.9c.3,-.4,.5,-.9,.5,-1.4c0,-.1,0,-.2,-.1,-.2c0,-.1,-.1,-.1,-.1,-.1c-.1,0,-.2,0,-.4,.2c-.1,0,-.3,0,-.4,0c-.3,0,-.5,0,-.7,-.2c-.1,-.2,-.2,-.4,-.2,-.7c0,-.3,.1,-.6,.3,-.8c.2,-.2,.5,-.3,.8,-.3c.4,0,.8,.2,1.1,.5c.3,.4,.4,.8,.4,1.4c0,.6,-.2,1.2,-.6,1.7c-.4,.5,-1.1,.9,-2,1.2Z" class="gc_60"/>
<path fill-rule="evenodd" d="M209.6,734.9v-6l-4.3,6Zm3.1,0v1.3h-1.6v3.2h-1.5v-3.2h-5.1V735l5.6,-8h1v7.9Z" class="gc_60"/>
<path fill-rule="evenodd" d="M287.5,729.8c.4,-.8,.8,-1.4,1.3,-1.9c.6,-.4,1.2,-.6,2,-.6c1,0,1.7,.3,2.2,.9c.4,.5,.6,1,.6,1.5c0,.9,-.5,1.8,-1.6,2.8c.7,.3,1.3,.7,1.7,1.2c.3,.6,.5,1.2,.5,1.9c0,1.1,-.3,2,-1,2.8c-.8,1,-2.1,1.5,-3.8,1.5c-.8,0,-1.3,-.1,-1.6,-.3c-.3,-.2,-.5,-.4,-.5,-.7c0,-.2,.1,-.3,.2,-.4c.2,-.2,.4,-.2,.6,-.2c.1,0,.3,0,.4,0c.1,.1,.3,.2,.7,.4c.4,.2,.6,.3,.7,.3c.3,.1,.5,.1,.7,.1c.7,0,1.2,-.2,1.6,-.7c.5,-.5,.7,-1,.7,-1.7c0,-.4,-.1,-.9,-.3,-1.4c-.2,-.3,-.3,-.5,-.5,-.7c-.3,-.3,-.6,-.5,-1.1,-.7c-.4,-.2,-.9,-.3,-1.3,-.3h-.3v-.2c.4,-.1,.9,-.3,1.4,-.5c.5,-.3,.8,-.7,1,-1c.2,-.4,.3,-.9,.3,-1.3c0,-.7,-.1,-1.2,-.5,-1.5c-.4,-.4,-.9,-.6,-1.5,-.6c-.9,0,-1.7,.5,-2.3,1.5Z" class="gc_60"/>
<path fill-rule="evenodd" d="M296.7,742.7v-.4c.7,-.2,1.1,-.5,1.5,-.9c.3,-.4,.5,-.9,.5,-1.4c0,-.1,-.1,-.2,-.1,-.3c0,0,-.1,0,-.1,0c-.1,0,-.2,0,-.5,.1c-.1,.1,-.2,.1,-.3,.1c-.3,0,-.5,-.1,-.7,-.2c-.2,-.2,-.3,-.5,-.3,-.8c0,-.3,.2,-.5,.4,-.7c.2,-.2,.5,-.3,.8,-.3c.4,0,.7,.1,1,.5c.4,.3,.5,.8,.5,1.4c0,.6,-.2,1.1,-.6,1.7c-.5,.5,-1.1,.9,-2.1,1.2Z" class="gc_60"/>
<path fill-rule="evenodd" d="M305.8,735.2v-6l-4.3,6Zm3.1,0v1.3h-1.7v3.2h-1.4v-3.2h-5.2v-1.2l5.7,-8h.9v7.9Z" class="gc_60"/>
<path fill-rule="evenodd" d="M238.1,784.4c.3,-.8,.8,-1.4,1.3,-1.9c.5,-.4,1.2,-.7,2,-.7c1,0,1.7,.4,2.2,1c.4,.5,.6,1,.6,1.5c0,.9,-.5,1.8,-1.7,2.7c.8,.3,1.4,.8,1.7,1.3c.4,.5,.6,1.2,.6,1.9c0,1.1,-.3,2,-1,2.7c-.9,1,-2.1,1.5,-3.8,1.5c-.8,0,-1.4,-.1,-1.7,-.3c-.2,-.2,-.4,-.4,-.4,-.6c0,-.2,.1,-.3,.2,-.5c.2,-.1,.3,-.2,.5,-.2c.2,0,.3,.1,.5,.1c.1,0,.3,.1,.7,.3c.3,.2,.6,.3,.7,.4c.2,0,.5,.1,.7,.1c.6,0,1.2,-.3,1.6,-.7c.5,-.5,.7,-1.1,.7,-1.7c0,-.5,-.1,-.9,-.3,-1.4c-.2,-.3,-.4,-.6,-.5,-.7c-.3,-.3,-.6,-.5,-1.1,-.7c-.4,-.2,-.9,-.3,-1.4,-.3h-.3v-.3c.5,0,1,-.2,1.5,-.5c.4,-.2,.8,-.6,1,-1c.2,-.4,.3,-.8,.3,-1.3c0,-.6,-.2,-1.1,-.6,-1.5c-.3,-.3,-.8,-.5,-1.4,-.5c-.9,0,-1.7,.5,-2.3,1.5Z" class="gc_60"/>
<path clip-path="url(#c3_60)" fill-rule="evenodd" d="M247.3,797.3v-.4c.6,-.2,1.1,-.5,1.4,-1c.4,-.4,.5,-.8,.5,-1.3c0,-.1,0,-.2,0,-.3c-.1,0,-.1,-.1,-.2,-.1c0,0,-.2,.1,-.4,.2c-.1,.1,-.2,.1,-.3,.1c-.3,0,-.6,-.1,-.7,-.3c-.2,-.1,-.3,-.4,-.3,-.7c0,-.3,.1,-.5,.3,-.7c.3,-.3,.5,-.4,.9,-.4c.4,0,.7,.2,1,.6c.3,.3,.5,.8,.5,1.3c0,.6,-.2,1.2,-.7,1.7c-.4,.6,-1.1,1,-2,1.3Z" class="gc_60"/>
<path fill-rule="evenodd" d="M256.3,789.8v-6.1l-4.2,6.1Zm3.1,0V791h-1.6v3.2h-1.5V791h-5.1v-1.1l5.6,-8.1h1v8Z" class="gc_60"/>
<path clip-path="url(#c4_60)" fill-rule="evenodd" d="M415.6,711.6l1.1,9.8l7.1,-9.8h3v.4c-.7,0,-1.1,.1,-1.2,.1c-.2,.1,-.4,.2,-.5,.5c-.2,.2,-.4,.6,-.6,1.3l-2.2,7.7c-.1,.5,-.2,.8,-.2,1.1c0,.2,.1,.4,.2,.5c.3,.2,.6,.2,1.1,.2h.2l-.1,.4h-5.1l.1,-.4h.3c.4,0,.8,0,1,-.2c.2,0,.4,-.2,.5,-.5c.1,-.3,.4,-.8,.6,-1.8l2,-7l-7.1,9.9h-.3l-1.2,-9.9l-2.1,7.5c-.2,.7,-.3,1.1,-.3,1.3c0,.2,.1,.4,.2,.5c.2,.1,.6,.2,1.2,.2l-.1,.4h-4l.1,-.4h.3c.5,0,1,-.1,1.2,-.4c.2,-.2,.4,-.7,.6,-1.4l2.7,-9c-.2,-.3,-.4,-.4,-.6,-.5c-.2,0,-.5,-.1,-1,-.1l.1,-.4Z" class="gc_60"/>
<path fill-rule="evenodd" d="M471.8,775.6l3.7,9.5l2,-7.1c.2,-.6,.3,-1.1,.3,-1.4c0,-.2,-.1,-.4,-.2,-.5c-.2,-.1,-.5,-.2,-.9,-.2c-.1,0,-.2,0,-.2,0l.1,-.3h3.9l-.1,.3c-.5,0,-.8,0,-1,.1c-.2,.1,-.4,.3,-.6,.5c-.2,.3,-.4,.8,-.6,1.5l-2.8,10h-.3L471,777.7l-2.1,7.6c-.2,.6,-.3,1,-.3,1.3c0,.2,.1,.4,.2,.5c.2,.1,.5,.2,1.1,.3l-.1,.3H466l.1,-.3c.5,0,.8,-.1,1,-.2c.2,-.1,.4,-.2,.5,-.4c.2,-.2,.4,-.7,.6,-1.5l2.4,-8.4c-.2,-.4,-.5,-.6,-.7,-.8c-.3,-.1,-.7,-.2,-1.3,-.2l.1,-.3Z" class="gc_60"/>
<path d="M431,719.9l31.1,56.5m-.1,-.1l75.9,-78.9m-107,22.7L538.1,697.6" class="g6_60"/>
<path fill-rule="evenodd" d="M464.4,692.1c.3,-.8,.8,-1.5,1.3,-1.9c.5,-.4,1.2,-.7,2,-.7c.9,0,1.7,.3,2.2,1c.4,.4,.6,1,.6,1.5c0,.9,-.6,1.8,-1.7,2.7c.8,.3,1.3,.7,1.7,1.3c.4,.5,.6,1.2,.6,1.9c0,1,-.3,2,-1,2.7c-.9,1,-2.1,1.5,-3.8,1.5c-.8,0,-1.4,-.1,-1.7,-.3c-.3,-.2,-.4,-.4,-.4,-.6c0,-.2,.1,-.4,.2,-.5c.1,-.1,.3,-.2,.5,-.2c.2,0,.3,0,.5,.1c.1,0,.3,.1,.7,.3c.3,.2,.6,.3,.7,.4c.2,0,.4,.1,.7,.1c.6,0,1.1,-.3,1.6,-.8c.4,-.4,.7,-1,.7,-1.6c0,-.5,-.1,-1,-.3,-1.4c-.2,-.3,-.4,-.6,-.6,-.8c-.2,-.2,-.6,-.4,-1,-.6c-.5,-.2,-.9,-.3,-1.4,-.3h-.3v-.3c.5,0,1,-.2,1.4,-.5c.5,-.3,.9,-.6,1.1,-1c.2,-.4,.3,-.8,.3,-1.3c0,-.6,-.2,-1.1,-.6,-1.5c-.4,-.4,-.8,-.6,-1.4,-.6c-.9,0,-1.7,.5,-2.3,1.5Z" class="gc_60"/>
<path fill-rule="evenodd" d="M473.6,705v-.4c.6,-.2,1.1,-.5,1.4,-1c.4,-.4,.5,-.8,.5,-1.3c0,-.1,0,-.2,0,-.3q-.1,-.1,-.2,-.1c0,0,-.2,.1,-.4,.2c-.1,0,-.2,.1,-.3,.1c-.3,0,-.6,-.1,-.7,-.3c-.2,-.2,-.3,-.4,-.3,-.7c0,-.3,.1,-.6,.3,-.8c.3,-.2,.5,-.3,.9,-.3c.3,0,.7,.2,1,.5c.3,.4,.5,.8,.5,1.4c0,.6,-.3,1.2,-.7,1.7c-.4,.5,-1.1,1,-2,1.3Z" class="gc_60"/>
<path fill-rule="evenodd" d="M483.7,695.9c.1,-.7,.2,-1.4,.2,-1.8c0,-.6,-.1,-1.2,-.3,-1.9c-.2,-.7,-.5,-1.2,-.9,-1.6c-.3,-.3,-.7,-.5,-1.2,-.5c-.5,0,-1,.2,-1.4,.7c-.4,.5,-.6,1.2,-.6,2.2c0,1.2,.3,2.2,.8,2.9c.4,.5,.9,.8,1.4,.8c.3,0,.6,-.1,1,-.2c.4,-.1,.7,-.3,1,-.6m-5.5,6.3v-.4c.7,0,1.5,-.2,2.1,-.5c.7,-.4,1.3,-1,2,-1.8c.6,-.9,1,-1.9,1.3,-2.9c-1,.6,-1.8,.9,-2.6,.9c-.8,0,-1.6,-.3,-2.2,-1c-.6,-.7,-.9,-1.5,-.9,-2.6c0,-1.1,.3,-2,.9,-2.9c.8,-1,1.7,-1.5,2.9,-1.5c1,0,1.9,.4,2.6,1.3c.8,1,1.3,2.2,1.3,3.7c0,1.4,-.4,2.6,-1,3.8c-.7,1.2,-1.6,2.2,-2.8,2.9c-.9,.7,-2,1,-3.1,1Z" class="gc_60"/>
<path fill-rule="evenodd" d="M504.7,744.4c.4,-.8,.8,-1.4,1.3,-1.9c.6,-.4,1.2,-.6,2,-.6c1,0,1.7,.3,2.2,.9c.4,.5,.6,1,.6,1.5c0,.9,-.5,1.8,-1.6,2.8c.7,.2,1.3,.7,1.7,1.2c.3,.6,.5,1.2,.5,1.9c0,1.1,-.3,2,-1,2.8c-.8,1,-2.1,1.5,-3.8,1.5c-.8,0,-1.3,-.1,-1.6,-.3c-.3,-.2,-.5,-.5,-.5,-.7c0,-.2,.1,-.3,.2,-.5c.2,-.1,.4,-.2,.6,-.2c.1,0,.3,.1,.4,.1c.1,0,.3,.2,.7,.3c.4,.2,.6,.3,.7,.4c.3,0,.5,.1,.7,.1c.7,0,1.2,-.3,1.6,-.7c.5,-.5,.7,-1.1,.7,-1.7c0,-.5,-.1,-.9,-.3,-1.4c-.2,-.3,-.3,-.6,-.5,-.7c-.3,-.3,-.6,-.5,-1.1,-.7c-.4,-.2,-.9,-.3,-1.3,-.3h-.3v-.3c.4,0,.9,-.2,1.4,-.5c.5,-.2,.8,-.6,1,-1c.2,-.4,.3,-.8,.3,-1.3c0,-.6,-.1,-1.1,-.5,-1.5c-.4,-.3,-.9,-.5,-1.5,-.5c-.9,0,-1.7,.5,-2.3,1.5Z" class="gc_60"/>
<path fill-rule="evenodd" d="M513.9,757.3v-.4c.7,-.2,1.1,-.5,1.5,-.9c.3,-.5,.5,-.9,.5,-1.4c0,-.1,-.1,-.2,-.1,-.3c0,0,-.1,-.1,-.1,-.1c-.1,0,-.2,.1,-.5,.2c-.1,.1,-.2,.1,-.3,.1c-.3,0,-.5,-.1,-.7,-.3c-.2,-.1,-.3,-.4,-.3,-.7c0,-.3,.2,-.5,.4,-.7c.2,-.2,.5,-.3,.8,-.3c.4,0,.7,.1,1,.5c.4,.3,.5,.8,.5,1.3c0,.6,-.2,1.2,-.6,1.7c-.5,.6,-1.1,1,-2.1,1.3Z" class="gc_60"/>
<path fill-rule="evenodd" d="M524.1,748.3c.1,-.8,.1,-1.4,.1,-1.9c0,-.6,-.1,-1.2,-.3,-1.9c-.2,-.7,-.5,-1.2,-.8,-1.5c-.4,-.4,-.8,-.6,-1.2,-.6c-.6,0,-1,.3,-1.4,.8c-.4,.4,-.6,1.1,-.6,2.1c0,1.2,.2,2.2,.8,2.9c.3,.5,.8,.8,1.4,.8c.3,0,.6,-.1,1,-.2c.3,-.1,.7,-.3,1,-.5m-5.6,6.2v-.3c.8,0,1.5,-.2,2.2,-.6c.6,-.3,1.3,-.9,1.9,-1.8c.6,-.9,1.1,-1.8,1.3,-2.9c-.9,.6,-1.8,.9,-2.5,.9c-.9,0,-1.6,-.3,-2.2,-1c-.6,-.6,-.9,-1.5,-.9,-2.6c0,-1.1,.3,-2,.9,-2.8c.7,-1,1.7,-1.5,2.9,-1.5c1,0,1.8,.4,2.5,1.2c.9,1,1.3,2.3,1.3,3.8c0,1.3,-.3,2.6,-1,3.7c-.6,1.2,-1.6,2.2,-2.7,2.9c-1,.7,-2,1,-3.2,1Z" class="gc_60"/>
<path fill-rule="evenodd" d="M426.4,759l-.8,2.4h-7.2V761c2.1,-1.9,3.6,-3.5,4.4,-4.7c.9,-1.2,1.3,-2.3,1.3,-3.3c0,-.8,-.2,-1.4,-.7,-1.9c-.5,-.5,-1,-.8,-1.7,-.8c-.6,0,-1.1,.2,-1.6,.6c-.5,.3,-.8,.8,-1,1.5h-.4c.2,-1.1,.6,-2,1.2,-2.6c.6,-.5,1.4,-.8,2.3,-.8c1,0,1.8,.3,2.5,.9c.6,.6,1,1.4,1,2.3c0,.6,-.2,1.2,-.5,1.8c-.4,1,-1.1,2,-2.1,3.1c-1.5,1.6,-2.4,2.6,-2.8,2.9h3.2c.6,0,1.1,0,1.3,-.1c.3,0,.5,-.1,.7,-.3c.2,-.1,.4,-.3,.6,-.6Z" class="gc_60"/>
<path fill-rule="evenodd" d="M428.1,764.4V764c.7,-.2,1.1,-.5,1.5,-.9c.3,-.5,.5,-.9,.5,-1.4c0,-.1,0,-.2,-.1,-.3c0,0,-.1,-.1,-.1,-.1c-.1,0,-.2,.1,-.5,.2c-.1,.1,-.2,.1,-.3,.1c-.3,0,-.5,-.1,-.7,-.3c-.2,-.1,-.3,-.4,-.3,-.7c0,-.3,.2,-.5,.4,-.7c.2,-.2,.5,-.3,.8,-.3c.4,0,.7,.1,1.1,.5c.3,.3,.4,.8,.4,1.3c0,.7,-.2,1.2,-.6,1.8c-.5,.5,-1.1,.9,-2.1,1.2Z" class="gc_60"/>
<path fill-rule="evenodd" d="M432.7,751.5c.3,-.8,.8,-1.4,1.3,-1.9c.5,-.4,1.2,-.6,2,-.6c.9,0,1.7,.3,2.2,.9c.4,.5,.6,1,.6,1.5c0,.9,-.6,1.8,-1.7,2.8c.8,.3,1.3,.7,1.7,1.2c.4,.6,.6,1.2,.6,1.9c0,1.1,-.3,2,-1,2.8c-.9,1,-2.1,1.5,-3.8,1.5c-.8,0,-1.4,-.1,-1.7,-.3c-.3,-.2,-.4,-.5,-.4,-.7c0,-.2,.1,-.3,.2,-.4c.1,-.2,.3,-.2,.5,-.2c.2,0,.3,0,.5,0c.1,.1,.3,.2,.7,.4c.3,.1,.6,.3,.7,.3c.2,.1,.4,.1,.7,.1c.6,0,1.1,-.2,1.6,-.7c.4,-.5,.7,-1,.7,-1.7c0,-.5,-.1,-.9,-.3,-1.4c-.2,-.3,-.4,-.6,-.6,-.7c-.2,-.3,-.6,-.5,-1,-.7c-.5,-.2,-.9,-.3,-1.4,-.3h-.3v-.2c.5,-.1,1,-.3,1.4,-.6c.5,-.2,.9,-.6,1.1,-1c.2,-.4,.3,-.8,.3,-1.3c0,-.6,-.2,-1.1,-.6,-1.4c-.4,-.4,-.8,-.6,-1.4,-.6c-.9,0,-1.7,.5,-2.3,1.5Z" class="gc_60"/>
<path fill-rule="evenodd" d="M796.1,786.3c-.6,0,-1.2,.2,-1.8,.5c-.6,.3,-1.1,.8,-1.7,1.4c-.6,.7,-1.1,1.6,-1.5,2.7c-.5,1.3,-.8,2.6,-.8,3.8c0,.8,.2,1.6,.6,2.2c.5,.7,1.1,1,2,1c.6,0,1.1,-.1,1.6,-.4c.6,-.3,1.1,-.7,1.7,-1.4c.7,-.8,1.3,-1.9,1.8,-3.1c.4,-1.3,.7,-2.5,.7,-3.6c0,-.8,-.2,-1.5,-.7,-2.1c-.4,-.6,-1.1,-1,-1.9,-1m-3.4,12.2l-2.3,1.8c.4,0,.7,-.1,1,-.1c.3,0,.6,.1,.8,.1c.3,0,.8,.1,1.7,.3c.8,.2,1.5,.3,2.1,.3c.7,0,1.3,-.1,1.7,-.3c.5,-.3,.9,-.7,1.4,-1.2l.3,.2c-.6,.8,-1.4,1.5,-2.2,1.9c-.8,.4,-1.7,.6,-2.7,.6c-.5,0,-1.2,-.2,-2.1,-.4c-1.4,-.3,-2.3,-.4,-2.9,-.4c-.2,0,-.4,0,-.5,0c-.1,.1,-.3,.1,-.6,.3l-.2,-.3l3.7,-2.9c-1.2,-.1,-2,-.6,-2.6,-1.5c-.6,-.8,-.9,-1.7,-.9,-2.7c0,-1.3,.4,-2.6,1.2,-4c.8,-1.4,1.8,-2.5,3,-3.3c1.3,-.7,2.5,-1.1,3.7,-1.1c.9,0,1.6,.1,2.2,.5c.7,.4,1.1,.9,1.5,1.6c.3,.7,.5,1.4,.5,2.1c0,1.3,-.4,2.7,-1.2,4.1c-.8,1.4,-1.7,2.5,-2.9,3.2c-1.2,.8,-2.4,1.1,-3.7,1.2Z" class="gc_60"/>
<path fill-rule="evenodd" d="M702.1,684.9l-1.4,4.8h1.1c.8,0,1.4,-.1,1.8,-.4c.4,-.2,.7,-.7,.9,-1.3h.4l-1.3,4.4h-.3c.1,-.4,.1,-.7,.1,-1c0,-.2,0,-.4,-.1,-.6c-.1,-.2,-.3,-.3,-.5,-.3c-.2,-.1,-.5,-.2,-1.1,-.2h-1.2l-1.1,4.1c-.2,.3,-.2,.6,-.2,.8c0,.2,.1,.3,.2,.5c.1,0,.4,.1,.8,.1h1c1.2,0,2.1,-.2,2.8,-.6c.7,-.4,1.4,-1.2,1.9,-2.2h.4l-1.2,3.4h-9.4l.1,-.3c.5,-.1,.8,-.1,1,-.2c.2,-.1,.4,-.2,.5,-.4c.2,-.2,.4,-.7,.6,-1.5l2.1,-7.3c.2,-.6,.3,-1.1,.3,-1.4c0,-.2,-.1,-.4,-.3,-.5c-.1,-.2,-.4,-.2,-.9,-.2h-.2l.1,-.3h8.7l-.7,2.9h-.3c0,-.3,0,-.5,0,-.7c0,-.3,-.1,-.6,-.2,-.8c-.2,-.3,-.5,-.5,-.9,-.6c-.3,-.1,-1,-.2,-2,-.2Z" class="gc_60"/>
<path d="M783,789.3L700.1,705.4m-46.3,31.2l46.5,-31.5m-47.1,31.3l130.3,52.9" class="g6_60"/>
<path fill-rule="evenodd" d="M669.2,711.9l-.9,2.3h-7.1v-.3c2.1,-1.9,3.6,-3.5,4.4,-4.7c.9,-1.2,1.3,-2.4,1.3,-3.4c0,-.7,-.2,-1.4,-.7,-1.9c-.5,-.5,-1,-.7,-1.7,-.7c-.6,0,-1.1,.2,-1.6,.5c-.5,.4,-.8,.9,-1,1.6h-.4c.2,-1.2,.6,-2,1.2,-2.6c.6,-.6,1.4,-.9,2.3,-.9c1,0,1.8,.3,2.5,1c.6,.6,.9,1.4,.9,2.2c0,.6,-.1,1.2,-.4,1.9c-.4,.9,-1.1,1.9,-2.1,3c-1.5,1.6,-2.4,2.6,-2.8,3h3.2c.6,0,1.1,-.1,1.3,-.1c.3,-.1,.5,-.2,.7,-.3c.2,-.1,.4,-.4,.6,-.6Z" class="gc_60"/>
<path fill-rule="evenodd" d="M746.8,731v-6l-4.2,6Zm3.1,0v1.3h-1.6v3.2h-1.5v-3.2h-5.1v-1.1l5.6,-8.1h1V731Z" class="gc_60"/>
<path fill-rule="evenodd" d="M751.5,738.6v-.4c.7,-.2,1.1,-.5,1.5,-1c.3,-.4,.5,-.9,.5,-1.3c0,-.1,0,-.2,-.1,-.3c0,-.1,-.1,-.1,-.1,-.1c-.1,0,-.2,.1,-.5,.2c-.1,0,-.2,.1,-.3,.1c-.3,0,-.5,-.1,-.7,-.3c-.2,-.2,-.3,-.4,-.3,-.7c0,-.3,.2,-.6,.4,-.8c.2,-.2,.5,-.3,.8,-.3c.4,0,.7,.2,1,.5c.4,.4,.5,.8,.5,1.4c0,.6,-.2,1.2,-.6,1.7c-.5,.5,-1.1,1,-2.1,1.3Z" class="gc_60"/>
<path fill-rule="evenodd" d="M763.5,733.2l-.8,2.3h-7.2v-.3c2.1,-1.9,3.6,-3.5,4.5,-4.7c.8,-1.2,1.3,-2.4,1.3,-3.4c0,-.7,-.3,-1.4,-.7,-1.9c-.5,-.5,-1.1,-.7,-1.7,-.7c-.6,0,-1.2,.2,-1.6,.5c-.5,.4,-.9,.9,-1.1,1.6h-.3c.1,-1.2,.5,-2,1.1,-2.6c.7,-.6,1.4,-.9,2.4,-.9c.9,0,1.8,.3,2.4,1c.7,.6,1,1.4,1,2.2c0,.6,-.1,1.2,-.4,1.9c-.5,.9,-1.2,1.9,-2.2,3c-1.5,1.6,-2.4,2.6,-2.8,3h3.2c.7,0,1.1,-.1,1.4,-.1c.2,-.1,.5,-.2,.7,-.3c.2,-.1,.4,-.4,.5,-.6Z" class="gc_60"/>
<path fill-rule="evenodd" d="M701.1,766.6l-.7,1.5h-3.6l-.8,1.6c1.6,.3,2.8,.9,3.8,1.8c.8,.8,1.1,1.8,1.1,2.9c0,.6,-.1,1.2,-.3,1.7c-.3,.6,-.6,1,-1,1.4c-.4,.4,-.9,.7,-1.3,1c-.7,.3,-1.4,.4,-2.1,.4c-.8,0,-1.3,-.1,-1.6,-.3c-.4,-.3,-.5,-.5,-.5,-.8c0,-.2,0,-.4,.2,-.5c.1,-.1,.3,-.2,.5,-.2c.1,0,.3,0,.4,.1c.1,0,.3,.2,.6,.4c.4,.3,.9,.4,1.4,.4c.7,0,1.3,-.2,1.8,-.8c.5,-.5,.8,-1.1,.8,-1.9c0,-.7,-.3,-1.4,-.7,-2.1c-.5,-.6,-1.1,-1.1,-2,-1.4c-.6,-.3,-1.5,-.4,-2.6,-.5l2.3,-4.7Z" class="gc_60"/>
<path d="M0,138.7H120.6V0H0V138.7Z" class="g0_60"/>
<path d="M135.8,441.7h39.7V404.3H135.8v37.4Z" class="gd_60"/>
<path d="M135.8,568.1h39.7V530.7H135.8v37.4Z" class="gd_60"/>
<path d="M184.8,1078.3h651V958.9h-651v119.4Z" class="g1_60"/>
<path d="M135.8,996.4h39.7V958.9H135.8v37.5Z" class="ge_60"/>
</svg>