<?xml version="1.0" encoding="UTF-8" standalone="no"?>
<!DOCTYPE svg PUBLIC "-//W3C//DTD SVG 1.1//EN"
"http://www.w3.org/Graphics/SVG/1.1/DTD/svg11.dtd">
<svg viewBox="0 0 909 1147" version="1.1" xmlns="http://www.w3.org/2000/svg" xmlns:xlink="http://www.w3.org/1999/xlink">
<defs>
<style type="text/css"><![CDATA[
.g0_96{
fill: #B6D774;
}
.g1_96{
fill: none;
stroke: #0EA5DF;
stroke-width: 3.055;
}
.g2_96{
fill: #E7EFC1;
}
.g3_96{
fill: #F0F5EE;
}
.g4_96{
fill: #E1F4FD;
}
.g5_96{
fill: #FEE4D2;
}
.g6_96{
fill: #FFFCD5;
}
.g7_96{
fill: none;
stroke: #000;
stroke-width: 0.763;
}
.g8_96{
fill: none;
stroke: #000;
stroke-width: 1.145;
}
.g9_96{
fill: none;
stroke: #000;
stroke-width: 1.069;
stroke-linejoin: round;
stroke-dasharray: 6,4;
}
.ga_96{
fill: none;
stroke: #000;
stroke-width: 1.069;
stroke-linejoin: round;
}
.gb_96{
fill: none;
stroke: #000;
stroke-width: 0.763;
stroke-linejoin: round;
}
.gc_96{
fill: #CA6E6B;
stroke: #000;
stroke-width: 1.069;
stroke-linejoin: round;
}
.gd_96{
fill: #000;
}
.ge_96{
fill: none;
stroke: #000;
stroke-width: 0.33;
stroke-linejoin: round;
}
.gf_96{
fill: none;
stroke: #000;
stroke-width: 0.763;
stroke-dasharray: 10,10;
}
]]></style>
</defs>
<path d="M0,1131H73.8v-51.5H0V1131Z" class="g0_96"/>
<path d="M0,138.7H120.6V0H0V138.7Z" class="g0_96"/>
<path d="M73.6,166.9H835.8" class="g1_96"/>
<path d="M336.7,337.1v37.2H471.3V297.4H376.6Z" class="g2_96"/>
<path d="M336.9,565.6h77.8V509H336.9v56.6Z" class="g3_96"/>
<path d="M415.2,564.8h56.1V509.3H415.2v55.5Z" class="g4_96"/>
<path d="M336.7,507.8H471.3V375.4H336.7V507.8Z" class="g5_96"/>
<path d="M185.6,564.8H336.1V337.5H185.6V564.8Z" class="g6_96"/>
<path d="M336.4,336.5V565.6m0,-190.8h136m-136,133.9H472.2m-57.4,0v56.1" class="g7_96"/>
<path d="M185.7,336.9V565.7L471.6,565V297.6l-94.9,-.2l-40.1,39.5H185.7Z" class="g8_96"/>
<path d="M667,592.2h64.8" class="g7_96"/>
<path d="M73.6,666.3H835.8" class="g1_96"/>
<path fill-rule="evenodd" d="M234.3,1047.7H413.7L478.2,940.6L200.6,875.9Z" class="g2_96"/>
<path d="M413.2,1047.7h64.1" class="g9_96"/>
<path d="M234.8,1047.7H413.2" class="ga_96"/>
<path d="M234.6,1048L271.3,892.1" class="g9_96"/>
<path d="M477.9,941.2L200.6,876m0,.2L235,1047.6M477.9,941.1l-64.4,106.3" class="ga_96"/>
<path d="M477.6,941.1v106.7" class="g9_96"/>
<path d="M459.9,1047.2c.8,-9.5,7.8,-15.8,17.7,-14.9" class="gb_96"/>
<path fill-rule="evenodd" d="M281,944.2H404.2v71.3H281V944.2Z" class="gc_96"/>
<path d="M267.9,909.6c-9.1,-2.8,-13.8,-11,-10.8,-20.4" class="gb_96"/>
<path fill-rule="evenodd" d="M263.7,896.7c.5,0,1,.5,1,1c0,.6,-.5,1,-1,1c-.6,0,-1,-.4,-1,-1c0,-.5,.4,-1,1,-1Z" class="gd_96"/>
<path d="M263.7,896.7c.5,0,1,.5,1,1c0,.6,-.5,1,-1,1c-.6,0,-1,-.4,-1,-1c0,-.5,.4,-1,1,-1Z" class="ge_96"/>
<path fill-rule="evenodd" d="M469.8,1041c.5,0,1,.4,1,1c0,.5,-.5,1,-1,1c-.6,0,-1,-.5,-1,-1c0,-.6,.4,-1,1,-1Z" class="gd_96"/>
<path d="M469.8,1041c.5,0,1,.4,1,1c0,.5,-.5,1,-1,1c-.6,0,-1,-.5,-1,-1c0,-.6,.4,-1,1,-1Z" class="ge_96"/>
<path d="M602.4,909.2h51.2m21.2,0H726" class="g7_96"/>
<path d="M233.9,1047.6L477.2,941.9" class="gf_96"/>
</svg>