<?xml version="1.0" encoding="UTF-8" standalone="no"?>
<!DOCTYPE svg PUBLIC "-//W3C//DTD SVG 1.1//EN"
"http://www.w3.org/Graphics/SVG/1.1/DTD/svg11.dtd">
<svg viewBox="0 0 909 1147" version="1.1" xmlns="http://www.w3.org/2000/svg" xmlns:xlink="http://www.w3.org/1999/xlink">
<defs>
<clipPath id="c0_43"><path d="M532.7,355.4V79.7H809.9V355.4Z"/></clipPath>
<clipPath id="c1_43"><path d="M138.1,395.1v-18h30.3v18Z"/></clipPath>
<style type="text/css"><![CDATA[
.g0_43{
fill: #FAAF82;
}
.g1_43{
fill: #D2E288;
}
.g2_43{
fill: none;
stroke: #485E88;
stroke-width: 1.551;
stroke-miterlimit: 2;
}
.g3_43{
fill: #F9AA8F;
}
.g4_43{
fill: #AFDFE4;
}
.g5_43{
fill: none;
stroke: #000;
stroke-width: 0.775;
stroke-miterlimit: 2;
}
.g6_43{
fill: #C7C4E2;
}
.g7_43{
fill: #FFF9AE;
}
.g8_43{
fill: none;
stroke: #000;
stroke-width: 1.551;
stroke-miterlimit: 2;
}
.g9_43{
fill: #000;
}
.ga_43{
fill: none;
stroke: #0EA5DF;
stroke-width: 3.055;
}
.gb_43{
fill: #FFF1E0;
}
.gc_43{
fill: #0EA5DF;
}
.gd_43{
fill: #FFF;
}
.ge_43{
fill: none;
stroke: #9CCCEE;
stroke-width: 0.763;
stroke-linejoin: round;
}
.gf_43{
fill: none;
stroke: #0EA5DF;
stroke-width: 0.763;
stroke-linejoin: round;
}
.gg_43{
fill: none;
stroke: #000;
stroke-width: 0.763;
stroke-linejoin: round;
}
.gh_43{
fill: #0EA5DF;
stroke: #0EA5DF;
stroke-width: 1.069;
stroke-linejoin: round;
}
.gi_43{
fill: #E8F1FA;
}
.gj_43{
fill: none;
stroke: #D1D3D4;
stroke-width: 0.763;
stroke-linejoin: round;
}
.gk_43{
fill: none;
stroke: #939598;
stroke-width: 0.763;
stroke-linejoin: round;
}
.gl_43{
fill: #FCD3C1;
stroke: #FCD3C1;
stroke-width: 1.069;
stroke-linejoin: round;
}
]]></style>
</defs>
<path d="M835.8,1129.8h73.6v-51.5H835.8v51.5Z" class="g0_43"/>
<path fill-rule="evenodd" d="M671.3,80.5c75.9,0,137.8,61.5,137.8,137c0,75.5,-61.9,137.1,-137.8,137.1C595.4,354.6,533.5,293,533.5,217.5c0,-75.5,61.9,-137,137.8,-137Z" class="g1_43"/>
<path d="M671.3,80.5c75.9,0,137.8,61.5,137.8,137c0,75.5,-61.9,137.1,-137.8,137.1C595.4,354.6,533.5,293,533.5,217.5c0,-75.5,61.9,-137,137.8,-137Z" class="g2_43"/>
<g clip-path="url(#c0_43)">
<path fill-rule="evenodd" d="M798.8,267.7L669.4,216.6L641.8,350.9c72.8,14.3,129.1,-21.4,157,-83.2Z" class="g3_43"/>
<path fill-rule="evenodd" d="M553.4,148.7l118.1,66.2L726.8,92.1c-73.7,-28,-138.9,-.2,-173.4,56.6Z" class="g4_43"/>
<path d="M553.4,148.7l118.1,66.2L726.8,92.1c-73.7,-28,-138.9,-.2,-173.4,56.6Z" class="g5_43"/>
<path fill-rule="evenodd" d="M642.3,350.9L670.7,214.2L552,149.9c-51.6,102.6,19.6,189.8,90.3,201Z" class="g6_43"/>
<path fill-rule="evenodd" d="M729.1,92.3L669.9,215.4l138.5,.5C813,178,783.5,117.5,729.1,92.3Z" class="g7_43"/>
</g>
<path d="M670.2,215.5l-118,-66.7m117.3,68L727.9,91.9M670.6,216.5l128.6,51.2m-129,-51.9L643,352.1M670.5,216.2H809.4" class="g8_43"/>
<path fill-rule="evenodd" d="M646.3,124.9l-.8,2.4h-7.3V127c2.2,-2,3.7,-3.6,4.5,-4.8c.9,-1.2,1.3,-2.3,1.3,-3.4c0,-.7,-.2,-1.4,-.7,-1.9c-.5,-.5,-1,-.7,-1.7,-.7c-.6,0,-1.1,.1,-1.6,.5c-.5,.3,-.9,.9,-1.1,1.5h-.3c.1,-1.1,.5,-1.9,1.1,-2.5c.7,-.6,1.4,-.9,2.4,-.9c1,0,1.8,.3,2.5,.9c.7,.7,1,1.4,1,2.3c0,.6,-.2,1.2,-.4,1.9c-.5,.9,-1.2,2,-2.2,3.1c-1.5,1.6,-2.5,2.6,-2.9,2.9h3.3c.6,0,1.1,0,1.3,0c.3,-.1,.5,-.2,.8,-.3c.2,-.2,.4,-.4,.5,-.7Z" class="g9_43"/>
<path fill-rule="evenodd" d="M652.6,122.8v-6.1l-4.3,6.1Zm3.2,0v1.3h-1.7v3.2h-1.5v-3.2h-5.2v-1.2l5.7,-8.1h1v8Z" class="g9_43"/>
<path fill-rule="evenodd" d="M668.7,121.7c-.3,0,-.6,.2,-.8,.5c-.3,.4,-.4,1.2,-.4,2.4c0,1.1,.1,1.8,.4,2.2c.2,.3,.5,.5,.8,.5c.2,0,.5,-.2,.7,-.5c.3,-.4,.4,-1.2,.4,-2.3c0,-1.1,-.1,-1.9,-.4,-2.3c-.2,-.4,-.4,-.5,-.7,-.5m0,-.5c.4,0,.8,.1,1.2,.4c.5,.3,.8,.7,1,1.2c.3,.5,.4,1.1,.4,1.7c0,1.1,-.3,1.9,-.8,2.5c-.5,.5,-1.1,.8,-1.8,.8c-.5,0,-.9,-.1,-1.3,-.4c-.4,-.3,-.7,-.7,-1,-1.2c-.2,-.5,-.3,-1,-.3,-1.7c0,-.6,.1,-1.2,.3,-1.7c.3,-.6,.6,-.9,1,-1.2c.4,-.3,.8,-.4,1.3,-.4m-9,-5.9c-.3,0,-.6,.1,-.8,.5c-.3,.4,-.4,1.1,-.4,2.3c0,.8,.1,1.5,.2,1.9c.1,.3,.3,.6,.5,.8c.1,.1,.3,.1,.5,.1c.3,0,.5,-.1,.7,-.4c.3,-.5,.5,-1.3,.5,-2.4c0,-1.1,-.2,-1.9,-.5,-2.4c-.2,-.3,-.4,-.4,-.7,-.4m0,-.5c.9,0,1.5,.3,1.9,1c.5,.6,.7,1.4,.7,2.3c0,1,-.2,1.9,-.7,2.4c-.6,.6,-1.2,.9,-1.9,.9c-.5,0,-.9,-.1,-1.3,-.4c-.4,-.3,-.7,-.7,-1,-1.2c-.2,-.5,-.3,-1.1,-.3,-1.7c0,-.6,.1,-1.2,.3,-1.8c.3,-.5,.6,-.9,1,-1.1c.5,-.3,.9,-.4,1.3,-.4m9.4,0l-9,13h-.8l9,-13Z" class="g9_43"/>
<path fill-rule="evenodd" d="M637.4,144.6c-.3,1.1,-.7,2,-1.4,2.6c-.6,.6,-1.3,.8,-2.1,.8c-1,0,-1.8,-.3,-2.5,-1.1c-.7,-.8,-1.1,-1.9,-1.1,-3.2c0,-1.3,.4,-2.4,1.2,-3.2c.8,-.8,1.7,-1.2,2.8,-1.2c.8,0,1.5,.2,2,.6c.6,.4,.8,.9,.8,1.4c0,.2,0,.4,-.2,.5c-.1,.2,-.4,.2,-.6,.2c-.4,0,-.6,-.1,-.8,-.3c-.1,-.1,-.2,-.4,-.2,-.7c-.1,-.4,-.2,-.7,-.4,-.9c-.2,-.1,-.5,-.2,-.9,-.2c-.6,0,-1.1,.2,-1.4,.6c-.5,.6,-.8,1.4,-.8,2.4c0,1,.3,1.8,.8,2.6c.4,.8,1.1,1.1,1.9,1.1c.6,0,1.2,-.2,1.6,-.6c.4,-.2,.7,-.7,1,-1.5Z" class="g9_43"/>
<path fill-rule="evenodd" d="M640.9,141.8v3.1c0,.6,0,1.1,0,1.3c.1,.3,.3,.6,.7,.9c.3,.3,.7,.4,1.2,.4c.6,0,1.1,-.2,1.5,-.7c.5,-.6,.7,-1.5,.7,-2.6c0,-1.3,-.3,-2.2,-.8,-2.9c-.4,-.5,-.9,-.7,-1.4,-.7c-.3,0,-.6,.1,-.9,.2c-.2,.1,-.5,.4,-1,1M638,140.3l2.5,-1h.4v1.9c.4,-.7,.8,-1.2,1.3,-1.5c.4,-.3,.8,-.4,1.3,-.4c.9,0,1.6,.3,2.1,.9c.7,.8,1,1.9,1,3.2c0,1.4,-.4,2.6,-1.2,3.5c-.7,.8,-1.5,1.1,-2.6,1.1c-.4,0,-.8,0,-1.1,-.1c-.3,-.1,-.5,-.3,-.8,-.6v2.5c0,.6,0,1,.1,1.1c0,.2,.2,.3,.3,.4c.2,.1,.5,.1,1,.1v.3h-4.4v-.3h.2c.4,0,.7,0,.9,-.2c.1,0,.2,-.1,.3,-.3c0,-.1,.1,-.5,.1,-1.1V142c0,-.6,-.1,-.9,-.1,-1.1c-.1,-.1,-.1,-.2,-.3,-.3c-.1,-.1,-.2,-.1,-.4,-.1c-.1,0,-.3,0,-.5,.1Z" class="g9_43"/>
<path fill-rule="evenodd" d="M649.3,142.1h3.8c0,-.5,-.1,-.9,-.2,-1.1c-.1,-.3,-.4,-.6,-.7,-.8c-.3,-.2,-.6,-.3,-.9,-.3c-.5,0,-.9,.2,-1.3,.6c-.4,.4,-.7,.9,-.7,1.6m0,.5c0,1.3,.3,2.2,.9,2.9c.6,.7,1.3,1.1,2.1,1.1c.5,0,1,-.2,1.4,-.5c.4,-.3,.8,-.8,1,-1.5l.3,.2c-.1,.8,-.5,1.6,-1.1,2.2c-.6,.7,-1.4,1,-2.3,1c-1,0,-1.9,-.3,-2.6,-1.1c-.7,-.8,-1,-1.8,-1,-3.1c0,-1.5,.3,-2.6,1.1,-3.3c.7,-.8,1.6,-1.2,2.7,-1.2c.9,0,1.7,.3,2.3,.9c.6,.6,.9,1.4,.9,2.4Z" class="g9_43"/>
<path fill-rule="evenodd" d="M659,140.1v.5c0,3,-.5,5.2,-1.6,6.6h3.1c.5,0,.9,0,1,-.1c0,-.1,.1,-.5,.1,-1.1v-5.9Zm-2,-.6h7.4v.4c-.5,0,-.7,0,-.9,.1c-.1,.1,-.2,.2,-.3,.3c-.1,.1,-.1,.5,-.1,1.2v4.1c0,.8,.1,1.3,.2,1.5c.2,.2,.5,.3,1.1,.4v2.6H664c0,-.5,-.1,-.9,-.4,-1.3c-.2,-.4,-.5,-.6,-.9,-.8c-.4,-.1,-1,-.2,-1.7,-.2h-2.2c-.6,0,-1.2,0,-1.5,.2c-.4,.1,-.7,.3,-1,.7c-.2,.4,-.4,.8,-.4,1.4h-.4v-2.6c.5,-.1,1,-.3,1.4,-.6c.4,-.4,.7,-1.1,1.1,-2.2c.3,-1.1,.4,-2.2,.4,-3.2c0,-1.1,-.5,-1.6,-1.4,-1.6Z" class="g9_43"/>
<path fill-rule="evenodd" d="M667.9,143.2h3.6v-1.7c0,-.6,0,-.9,0,-1.1c-.1,-.1,-.2,-.3,-.3,-.4c-.2,-.1,-.5,-.1,-.9,-.1v-.4h4v.4c-.4,0,-.6,0,-.8,.1c-.2,.1,-.3,.2,-.4,.3c0,.2,-.1,.6,-.1,1.2v4.3c0,.6,.1,.9,.1,1.1c.1,.2,.2,.3,.3,.4c.2,.1,.5,.2,.9,.2v.3h-4v-.3c.5,0,.8,-.1,1,-.3c.2,-.2,.2,-.6,.2,-1.4v-2h-3.6v2c0,.6,.1,.9,.1,1.1c.1,.2,.2,.3,.3,.4c.2,.1,.5,.2,.9,.2v.3h-4v-.3c.5,0,.9,-.1,1,-.3c.2,-.2,.2,-.7,.2,-1.4v-4.3c0,-.6,0,-.9,0,-1.1c-.1,-.2,-.2,-.3,-.4,-.4c-.1,-.1,-.4,-.1,-.8,-.1v-.4h4v.4c-.4,0,-.6,0,-.8,.1c-.2,.1,-.3,.2,-.4,.3c0,.2,-.1,.6,-.1,1.2Z" class="g9_43"/>
<path fill-rule="evenodd" d="M677.9,145.2l3.6,-4.1c0,-.5,-.1,-.8,-.3,-1c-.1,-.1,-.4,-.2,-.8,-.2v-.4h3.9v.4c-.4,0,-.7,0,-.8,.1c-.2,.1,-.3,.2,-.4,.3c-.1,.1,-.1,.5,-.1,1.2v4.3c0,.7,0,1.1,.1,1.2c.1,.1,.2,.2,.3,.3c.2,.1,.4,.2,.9,.2v.3h-4.1v-.3c.5,0,.9,-.1,1.1,-.3c.1,-.2,.2,-.6,.2,-1.4V142l-3.6,4.1c0,.5,.1,.9,.2,1.1c.2,.2,.4,.3,.9,.3v.3h-3.9v-.3c.6,0,.9,-.1,1.1,-.3c.1,-.2,.2,-.7,.2,-1.4v-4.3c0,-.7,0,-1.1,-.1,-1.2c-.1,-.1,-.2,-.2,-.3,-.3c-.1,-.1,-.4,-.1,-.9,-.1v-.4h4.1v.4c-.4,0,-.7,0,-.8,.1c-.2,.1,-.3,.2,-.4,.3c-.1,.1,-.1,.5,-.1,1.2Z" class="g9_43"/>
<path fill-rule="evenodd" d="M584.1,224.9c.4,-.9,.8,-1.5,1.3,-2c.6,-.4,1.2,-.6,2,-.6c1,0,1.8,.3,2.3,.9c.4,.5,.6,1,.6,1.6c0,.8,-.5,1.8,-1.7,2.7c.8,.3,1.4,.7,1.7,1.3c.4,.5,.6,1.2,.6,1.9c0,1.1,-.3,2,-1,2.8c-.9,1,-2.2,1.5,-3.8,1.5c-.9,0,-1.4,-.1,-1.7,-.3c-.3,-.2,-.5,-.4,-.5,-.7c0,-.1,.1,-.3,.2,-.4c.2,-.2,.3,-.2,.5,-.2c.2,0,.4,0,.5,0c.1,.1,.3,.2,.7,.4c.4,.2,.6,.3,.8,.3c.2,.1,.4,.1,.7,.1c.6,0,1.1,-.2,1.6,-.7c.5,-.5,.7,-1,.7,-1.7c0,-.5,-.1,-.9,-.3,-1.4c-.2,-.3,-.4,-.6,-.6,-.8c-.2,-.2,-.6,-.4,-1,-.6c-.5,-.2,-.9,-.3,-1.4,-.3H586v-.3c.5,0,.9,-.2,1.4,-.5c.5,-.3,.9,-.6,1.1,-1c.2,-.4,.3,-.8,.3,-1.3c0,-.6,-.2,-1.1,-.6,-1.5c-.4,-.4,-.9,-.6,-1.4,-.6c-1,0,-1.8,.5,-2.4,1.5Z" class="g9_43"/>
<path fill-rule="evenodd" d="M594.9,228.9c0,1.7,.2,3.1,.7,4.2c.3,.9,.8,1.3,1.5,1.3c.3,0,.7,-.1,1,-.4c.4,-.3,.6,-.8,.8,-1.5c.3,-1,.4,-2.5,.4,-4.4c0,-1.4,-.1,-2.5,-.4,-3.5c-.2,-.7,-.5,-1.1,-.8,-1.4c-.3,-.2,-.6,-.3,-.9,-.3c-.5,0,-.8,.1,-1.1,.5c-.5,.5,-.8,1.3,-.9,2.4c-.2,1,-.3,2.1,-.3,3.1m-1.8,-.2c0,-1.4,.3,-2.6,.7,-3.6c.4,-1,1,-1.8,1.7,-2.2c.5,-.4,1.1,-.6,1.7,-.6c.9,0,1.8,.4,2.5,1.4c.9,1.2,1.4,2.8,1.4,4.8c0,1.5,-.2,2.7,-.6,3.7c-.4,1,-.9,1.7,-1.6,2.1c-.6,.5,-1.2,.7,-1.8,.7c-1.2,0,-2.2,-.7,-3,-2.1c-.6,-1.1,-1,-2.5,-1,-4.2Z" class="g9_43"/>
<path fill-rule="evenodd" d="M614,229.2c-.3,0,-.5,.1,-.7,.5c-.3,.4,-.4,1.2,-.4,2.4c0,1,.1,1.8,.4,2.2c.2,.3,.4,.5,.7,.5c.3,0,.5,-.2,.8,-.5c.3,-.5,.4,-1.2,.4,-2.3c0,-1.1,-.1,-1.9,-.4,-2.4c-.2,-.3,-.5,-.4,-.8,-.4m0,-.5c.4,0,.9,.1,1.3,.4c.4,.3,.8,.7,1,1.2c.2,.5,.3,1.1,.3,1.7c0,1.1,-.2,1.9,-.7,2.4c-.6,.6,-1.2,.9,-1.9,.9c-.4,0,-.8,-.2,-1.2,-.4c-.5,-.3,-.8,-.7,-1,-1.2c-.3,-.5,-.4,-1.1,-.4,-1.7c0,-.6,.1,-1.2,.4,-1.7c.2,-.6,.5,-1,1,-1.2c.4,-.3,.8,-.4,1.2,-.4m-8.9,-6c-.4,0,-.6,.2,-.9,.6c-.2,.4,-.3,1.1,-.3,2.3c0,.8,0,1.4,.2,1.9c.1,.3,.2,.6,.5,.8c.1,.1,.2,.1,.4,.1c.3,0,.6,-.1,.8,-.5c.3,-.4,.4,-1.2,.4,-2.3c0,-1.1,-.1,-1.9,-.4,-2.4c-.2,-.3,-.5,-.5,-.7,-.5m0,-.5c.8,0,1.4,.4,1.9,1.1c.4,.6,.7,1.4,.7,2.3c0,1,-.3,1.8,-.8,2.4c-.5,.6,-1.1,.9,-1.8,.9c-.5,0,-1,-.2,-1.4,-.4c-.4,-.3,-.7,-.7,-.9,-1.2c-.2,-.5,-.4,-1.1,-.4,-1.7c0,-.7,.2,-1.2,.4,-1.8c.2,-.5,.6,-.9,1,-1.2c.4,-.2,.8,-.4,1.3,-.4m9.3,0l-9,13.1h-.8l9,-13.1Z" class="g9_43"/>
<path fill-rule="evenodd" d="M582.5,247.6v.5c0,2.9,-.5,5.1,-1.6,6.6H584c.5,0,.9,-.1,1,-.2c0,0,.1,-.4,.1,-1v-5.9Zm-2,-.6h7.4v.3c-.5,0,-.7,.1,-.9,.2c-.1,0,-.2,.1,-.3,.3c-.1,.1,-.1,.5,-.1,1.1V253c0,.9,.1,1.4,.2,1.6c.2,.2,.5,.3,1.1,.3v2.7h-.4c0,-.5,-.1,-1,-.4,-1.3c-.2,-.4,-.5,-.6,-.9,-.8c-.4,-.2,-1,-.2,-1.7,-.2h-2.2c-.6,0,-1.2,0,-1.5,.2c-.4,.1,-.7,.3,-1,.7c-.2,.4,-.4,.8,-.4,1.4H579v-2.7c.5,0,1,-.2,1.4,-.5c.4,-.4,.7,-1.1,1.1,-2.2c.3,-1.1,.4,-2.2,.4,-3.3c0,-1,-.5,-1.5,-1.4,-1.6Z" class="g9_43"/>
<path fill-rule="evenodd" d="M592.6,247.3c-.3,0,-.6,.1,-.9,.3c-.4,.2,-.6,.5,-.8,1c-.2,.5,-.3,1.1,-.3,1.9c0,1.2,.2,2.2,.7,3.1c.5,.8,1.1,1.3,1.9,1.3c.6,0,1.1,-.3,1.5,-.7c.3,-.5,.5,-1.3,.5,-2.5c0,-1.5,-.3,-2.7,-.9,-3.5c-.5,-.6,-1,-.9,-1.7,-.9m.3,-.5c1.3,0,2.3,.4,3.1,1.4c.6,.8,.9,1.7,.9,2.8c0,.7,-.2,1.5,-.5,2.2c-.4,.8,-.9,1.4,-1.5,1.8c-.6,.3,-1.3,.5,-2.1,.5c-1.2,0,-2.2,-.5,-3,-1.5c-.6,-.8,-.9,-1.7,-.9,-2.8c0,-.7,.2,-1.5,.6,-2.2c.3,-.8,.8,-1.3,1.5,-1.7c.6,-.4,1.2,-.5,1.9,-.5Z" class="g9_43"/>
<path fill-rule="evenodd" d="M602.2,247.4c-.7,0,-1.2,.2,-1.5,.7c-.4,.5,-.6,1.3,-.6,2.4c0,1.4,.2,2.5,.8,3.3c.5,.7,1.1,1.1,1.8,1.1c.6,0,1.1,-.3,1.5,-.8c.3,-.5,.5,-1.3,.5,-2.5c0,-1.2,-.2,-2.2,-.7,-3c-.5,-.8,-1.1,-1.2,-1.8,-1.2m-3.3,2c.7,-1.8,1.9,-2.6,3.6,-2.6c1.1,0,2.1,.4,2.8,1.2c.7,.9,1.1,1.9,1.1,3c0,1.1,-.4,2.2,-1.1,3.1c-.8,1,-1.8,1.4,-3,1.4c-1.3,0,-2.3,-.5,-3,-1.6c-.7,-1,-1,-2.3,-1,-3.9c0,-1.2,.2,-2.3,.5,-3.3c.4,-1.1,.7,-1.8,1.1,-2.3c.4,-.6,.8,-.9,1.4,-1.2c.5,-.2,1.4,-.3,2.7,-.3c.9,0,1.4,-.1,1.6,-.1c.2,-.1,.4,-.2,.6,-.4h.3c-.2,.6,-.4,1,-.7,1.3c-.3,.2,-.6,.4,-.9,.5c-.3,.1,-.9,.1,-1.8,.2c-.9,0,-1.5,.1,-1.8,.2c-.4,.1,-.7,.4,-1.1,.8c-.4,.4,-.7,1,-.9,1.7c-.2,.7,-.3,1.4,-.4,2.3Z" class="g9_43"/>
<path fill-rule="evenodd" d="M609.9,249.3v3c0,.7,.1,1.2,.1,1.4c.1,.3,.3,.6,.6,.9c.4,.3,.8,.4,1.3,.4c.6,0,1.1,-.2,1.5,-.7c.4,-.6,.7,-1.5,.7,-2.6c0,-1.3,-.3,-2.3,-.8,-2.9c-.4,-.5,-.9,-.7,-1.4,-.7c-.3,0,-.6,0,-.9,.2c-.2,.1,-.6,.4,-1.1,1M607,247.8l2.6,-1h.3v1.9c.5,-.7,.9,-1.2,1.3,-1.5c.5,-.3,.9,-.4,1.4,-.4c.8,0,1.5,.3,2.1,.9c.7,.8,1,1.9,1,3.1c0,1.5,-.4,2.6,-1.2,3.6c-.7,.7,-1.6,1.1,-2.6,1.1c-.4,0,-.8,0,-1.2,-.2c-.2,-.1,-.5,-.2,-.8,-.5v2.5c0,.6,.1,.9,.1,1.1c.1,.2,.2,.3,.4,.4c.2,.1,.5,.1,.9,.1v.3H607v-.3h.2c.3,0,.6,-.1,.9,-.2c.1,-.1,.2,-.2,.2,-.3c.1,-.2,.1,-.5,.1,-1.1v-7.9c0,-.5,0,-.8,-.1,-1c0,-.1,-.1,-.2,-.2,-.3c-.1,-.1,-.2,-.1,-.4,-.1c-.2,0,-.3,0,-.6,.1Z" class="g9_43"/>
<path fill-rule="evenodd" d="M619.5,252.7l3.6,-4.1c0,-.5,-.1,-.8,-.2,-1c-.2,-.2,-.5,-.3,-.9,-.3V247h3.9v.3c-.4,0,-.7,.1,-.8,.2c-.2,0,-.3,.1,-.4,.3c0,.1,-.1,.5,-.1,1.1v4.4c0,.7,.1,1.1,.1,1.2c.1,.1,.2,.2,.3,.3c.2,.1,.5,.1,.9,.1v.4h-4v-.4c.5,0,.8,0,1,-.2c.1,-.2,.2,-.7,.2,-1.4v-3.9l-3.6,4.2c0,.5,.1,.8,.2,1c.2,.2,.5,.3,.9,.3v.4h-3.8v-.4c.5,0,.8,-.1,1,-.3c.2,-.1,.2,-.6,.2,-1.3v-4.4c0,-.6,0,-1,-.1,-1.1c0,-.1,-.1,-.2,-.3,-.3c-.1,-.1,-.4,-.2,-.8,-.2V247h4v.3c-.4,0,-.7,.1,-.8,.2c-.2,0,-.3,.1,-.4,.3c0,.1,-.1,.5,-.1,1.1Z" class="g9_43"/>
<path fill-rule="evenodd" d="M709.5,274.7l-.9,2.3h-7.2v-.3c2.1,-1.9,3.6,-3.5,4.5,-4.7c.9,-1.3,1.3,-2.4,1.3,-3.4c0,-.8,-.2,-1.4,-.7,-1.9c-.5,-.5,-1.1,-.8,-1.7,-.8c-.7,0,-1.2,.2,-1.7,.5c-.5,.4,-.8,.9,-1,1.6h-.4c.2,-1.1,.6,-2,1.2,-2.6c.6,-.6,1.4,-.9,2.3,-.9c1,0,1.9,.4,2.5,1c.7,.6,1,1.4,1,2.3c0,.6,-.1,1.2,-.4,1.8c-.4,1,-1.2,2,-2.2,3.1c-1.5,1.7,-2.4,2.6,-2.8,3h3.2c.7,0,1.1,0,1.4,-.1c.3,0,.5,-.1,.7,-.3c.2,-.1,.4,-.3,.6,-.6Z" class="g9_43"/>
<path fill-rule="evenodd" d="M718.8,274.7l-.9,2.3h-7.2v-.3c2.1,-1.9,3.6,-3.5,4.5,-4.7c.9,-1.3,1.3,-2.4,1.3,-3.4c0,-.8,-.2,-1.4,-.7,-1.9c-.5,-.5,-1.1,-.8,-1.7,-.8c-.6,0,-1.2,.2,-1.7,.5c-.5,.4,-.8,.9,-1,1.6H711c.2,-1.1,.6,-2,1.2,-2.6c.6,-.6,1.4,-.9,2.3,-.9c1,0,1.9,.4,2.5,1c.7,.6,1.1,1.4,1.1,2.3c0,.6,-.2,1.2,-.5,1.8c-.4,1,-1.2,2,-2.2,3.1c-1.5,1.7,-2.4,2.6,-2.8,3h3.2c.7,0,1.1,0,1.4,-.1c.3,0,.5,-.1,.7,-.3c.2,-.1,.4,-.3,.6,-.6Z" class="g9_43"/>
<path fill-rule="evenodd" d="M731.8,271.4c-.3,0,-.5,.2,-.7,.5c-.3,.5,-.4,1.2,-.4,2.4c0,1.1,.1,1.9,.4,2.3c.2,.3,.4,.4,.7,.4c.3,0,.5,-.1,.8,-.5c.3,-.4,.4,-1.1,.4,-2.2c0,-1.2,-.1,-1.9,-.4,-2.4c-.2,-.3,-.5,-.5,-.8,-.5m0,-.4c.4,0,.9,.1,1.3,.4c.4,.2,.8,.6,1,1.2c.2,.5,.3,1,.3,1.7c0,1,-.2,1.8,-.7,2.4c-.6,.6,-1.2,.9,-1.9,.9c-.4,0,-.8,-.2,-1.2,-.5c-.5,-.2,-.8,-.6,-1,-1.1c-.3,-.5,-.4,-1.1,-.4,-1.7c0,-.7,.1,-1.3,.4,-1.8c.2,-.5,.5,-.9,1,-1.1c.4,-.3,.8,-.4,1.2,-.4m-8.9,-6c-.4,0,-.6,.2,-.9,.6c-.2,.3,-.3,1.1,-.3,2.2c0,.9,0,1.5,.2,2c.1,.3,.2,.5,.5,.7c.1,.1,.2,.2,.4,.2c.3,0,.6,-.2,.8,-.5c.3,-.4,.4,-1.2,.4,-2.3c0,-1.2,-.1,-2,-.4,-2.4c-.2,-.3,-.5,-.5,-.7,-.5m0,-.5c.8,0,1.4,.3,1.9,1c.4,.7,.7,1.5,.7,2.3c0,1.1,-.3,1.9,-.8,2.5c-.5,.5,-1.1,.8,-1.8,.8c-.5,0,-1,-.1,-1.4,-.4c-.4,-.2,-.7,-.6,-.9,-1.1c-.2,-.5,-.4,-1.1,-.4,-1.8c0,-.6,.2,-1.2,.4,-1.7c.2,-.5,.6,-.9,1,-1.2c.4,-.3,.8,-.4,1.3,-.4m9.3,0l-9,13.1h-.8l9,-13.1Z" class="g9_43"/>
<path fill-rule="evenodd" d="M676.5,295.4l2.6,-6.1h2.8v.3c-.4,0,-.7,.1,-.9,.1c-.1,.1,-.2,.2,-.3,.3c-.1,.2,-.1,.5,-.1,1.2v4.4c0,.6,0,.9,.1,1.1c.1,.2,.2,.3,.3,.4c.2,.1,.5,.1,.9,.1v.3h-4.1v-.3c.5,0,.9,-.1,1,-.3c.2,-.1,.3,-.6,.3,-1.3v-5l-2.9,6.9h-.4l-3,-6.9v5c0,.6,.1,.9,.1,1.1c.1,.2,.2,.3,.4,.4c.2,.1,.4,.1,.8,.1v.3h-3.2v-.3c.6,0,.9,-.1,1.1,-.3c.1,-.2,.2,-.6,.2,-1.3v-4.4c0,-.6,-.1,-1,-.1,-1.1c-.1,-.2,-.2,-.3,-.3,-.4c-.2,0,-.5,-.1,-.9,-.1v-.3h2.9Z" class="g9_43"/>
<path fill-rule="evenodd" d="M685.5,293h3.6v-1.8c0,-.5,-.1,-.9,-.1,-1c0,-.2,-.1,-.3,-.3,-.4c-.2,-.1,-.5,-.2,-.9,-.2v-.3h4v.3c-.4,0,-.6,.1,-.8,.1c-.2,.1,-.3,.2,-.3,.4c-.1,.2,-.1,.5,-.1,1.1v4.4c0,.5,0,.9,0,1c.1,.2,.2,.3,.4,.5c.1,.1,.4,.1,.8,.1v.3h-4v-.3c.5,0,.8,-.1,1,-.3c.2,-.1,.3,-.6,.3,-1.3v-2.1h-3.6v2.1c0,.5,0,.9,0,1c.1,.2,.2,.3,.4,.5c.1,.1,.4,.1,.8,.1v.3h-4v-.3c.5,0,.9,-.1,1,-.3c.2,-.2,.3,-.6,.3,-1.3v-4.4c0,-.5,-.1,-.9,-.1,-1c-.1,-.2,-.2,-.3,-.3,-.4c-.2,-.1,-.5,-.2,-.9,-.2v-.3h4v.3c-.3,0,-.6,.1,-.8,.1c-.2,.1,-.3,.2,-.3,.4c-.1,.2,-.1,.5,-.1,1.1Z" class="g9_43"/>
<path fill-rule="evenodd" d="M696.6,289.6c-.3,0,-.6,.1,-1,.3c-.3,.2,-.5,.5,-.7,1c-.2,.5,-.3,1.1,-.3,1.8c0,1.2,.2,2.3,.7,3.1c.5,.9,1.1,1.4,1.9,1.4c.6,0,1.1,-.3,1.4,-.8c.4,-.4,.6,-1.3,.6,-2.5c0,-1.4,-.3,-2.6,-.9,-3.4c-.5,-.6,-1,-.9,-1.7,-.9m.3,-.6c1.3,0,2.3,.5,3,1.4c.7,.9,1,1.8,1,2.9c0,.7,-.2,1.4,-.5,2.2c-.4,.8,-.9,1.3,-1.5,1.7c-.6,.4,-1.3,.6,-2.1,.6c-1.3,0,-2.3,-.5,-3,-1.5c-.6,-.8,-.9,-1.8,-.9,-2.8c0,-.8,.2,-1.5,.5,-2.3c.4,-.7,.9,-1.3,1.5,-1.6c.6,-.4,1.3,-.6,2,-.6Z" class="g9_43"/>
<path fill-rule="evenodd" d="M708.7,289.3l.4,2.2h-.4c-.3,-.7,-.5,-1.2,-.7,-1.4c-.3,-.2,-.8,-.2,-1.5,-.2h-1.8v5.7c0,.6,.1,1,.1,1.1c.1,.2,.2,.3,.3,.4c.2,.1,.5,.1,.9,.1v.3h-4.2v-.3c.6,0,1,-.1,1.2,-.3c.1,-.1,.2,-.6,.2,-1.3v-4.4c0,-.6,0,-1,-.1,-1.1c0,-.2,-.2,-.3,-.3,-.4c-.2,0,-.5,-.1,-1,-.1v-.3Z" class="g9_43"/>
<path fill-rule="evenodd" d="M713.1,289.6c-.3,0,-.6,.1,-1,.3c-.3,.2,-.6,.5,-.8,1c-.2,.5,-.3,1.1,-.3,1.8c0,1.2,.3,2.3,.8,3.1c.4,.9,1.1,1.4,1.9,1.4c.6,0,1,-.3,1.4,-.8c.4,-.4,.6,-1.3,.6,-2.5c0,-1.4,-.3,-2.6,-1,-3.4c-.4,-.6,-.9,-.9,-1.6,-.9m.3,-.6c1.2,0,2.2,.5,3,1.4c.7,.9,1,1.8,1,2.9c0,.7,-.2,1.4,-.6,2.2c-.3,.8,-.8,1.3,-1.4,1.7c-.7,.4,-1.4,.6,-2.1,.6c-1.3,0,-2.3,-.5,-3,-1.5c-.6,-.8,-1,-1.8,-1,-2.8c0,-.8,.2,-1.5,.6,-2.3c.4,-.7,.9,-1.3,1.5,-1.6c.6,-.4,1.3,-.6,2,-.6Z" class="g9_43"/>
<path fill-rule="evenodd" d="M726.4,289.9v.5c0,2.9,-.5,5.1,-1.6,6.6h3.1c.5,0,.9,-.1,.9,-.2c.1,-.1,.2,-.4,.2,-1v-5.9Zm-2,-.6h7.3v.3c-.4,0,-.6,.1,-.8,.1c-.1,.1,-.2,.2,-.3,.3c-.1,.2,-.1,.5,-.1,1.2v4.1c0,.9,.1,1.4,.2,1.6c.1,.2,.5,.3,1,.3v2.6h-.3c0,-.5,-.2,-.9,-.4,-1.3c-.2,-.3,-.5,-.6,-.9,-.7c-.4,-.2,-1,-.3,-1.7,-.3h-2.2c-.7,0,-1.2,.1,-1.5,.2c-.4,.1,-.7,.4,-1,.8c-.2,.3,-.4,.8,-.4,1.3h-.4v-2.6c.5,0,1,-.2,1.4,-.6c.4,-.4,.7,-1.1,1,-2.2c.4,-1.1,.5,-2.1,.5,-3.2c0,-1,-.5,-1.6,-1.4,-1.6Z" class="g9_43"/>
<path fill-rule="evenodd" d="M736.5,289.6c-.3,0,-.6,.1,-.9,.3c-.4,.2,-.6,.5,-.8,1c-.2,.5,-.3,1.1,-.3,1.8c0,1.2,.2,2.3,.7,3.1c.5,.9,1.1,1.4,1.9,1.4c.6,0,1.1,-.3,1.5,-.8c.3,-.4,.5,-1.3,.5,-2.5c0,-1.4,-.3,-2.6,-.9,-3.4c-.5,-.6,-1,-.9,-1.7,-.9m.3,-.6c1.3,0,2.3,.5,3,1.4c.7,.9,1,1.8,1,2.9c0,.7,-.2,1.4,-.5,2.2c-.4,.8,-.9,1.3,-1.5,1.7c-.6,.4,-1.3,.6,-2.1,.6c-1.3,0,-2.2,-.5,-3,-1.5c-.6,-.8,-.9,-1.8,-.9,-2.8c0,-.8,.2,-1.5,.5,-2.3c.4,-.7,.9,-1.3,1.5,-1.6c.7,-.4,1.3,-.6,2,-.6Z" class="g9_43"/>
<path fill-rule="evenodd" d="M746,289.6c-.6,0,-1.1,.3,-1.5,.8c-.3,.5,-.5,1.3,-.5,2.3c0,1.5,.2,2.6,.7,3.3c.6,.8,1.2,1.2,1.9,1.2c.6,0,1.1,-.3,1.4,-.8c.4,-.5,.6,-1.4,.6,-2.5c0,-1.2,-.3,-2.2,-.7,-3.1c-.5,-.8,-1.1,-1.2,-1.9,-1.2m-3.2,2c.7,-1.7,1.9,-2.6,3.5,-2.6c1.2,0,2.1,.5,2.9,1.3c.7,.9,1.1,1.9,1.1,3c0,1.1,-.4,2.2,-1.1,3.1c-.8,.9,-1.8,1.4,-3.1,1.4c-1.2,0,-2.2,-.5,-2.9,-1.6c-.7,-1.1,-1,-2.4,-1,-3.9c0,-1.2,.1,-2.3,.5,-3.4c.3,-1,.7,-1.8,1.1,-2.3c.4,-.5,.8,-.9,1.3,-1.1c.6,-.2,1.5,-.4,2.7,-.4c1,0,1.5,0,1.7,0c.2,-.1,.4,-.2,.6,-.4h.3c-.2,.6,-.4,1,-.7,1.3c-.3,.2,-.6,.4,-.9,.5c-.3,.1,-.9,.1,-1.8,.1c-.9,.1,-1.5,.1,-1.8,.2c-.4,.2,-.8,.4,-1.1,.9c-.4,.4,-.7,.9,-.9,1.6c-.2,.7,-.3,1.5,-.4,2.3Z" class="g9_43"/>
<path fill-rule="evenodd" d="M753.8,291.5v3.1c0,.7,0,1.1,.1,1.3c.1,.4,.3,.7,.6,1c.4,.2,.8,.4,1.3,.4c.6,0,1.1,-.3,1.4,-.7c.5,-.7,.8,-1.5,.8,-2.6c0,-1.3,-.3,-2.3,-.9,-3c-.3,-.4,-.8,-.7,-1.3,-.7c-.3,0,-.6,.1,-.9,.2c-.2,.2,-.6,.5,-1.1,1m-2.9,-1.4l2.6,-1h.3V291c.4,-.7,.9,-1.2,1.3,-1.5c.4,-.3,.9,-.5,1.4,-.5c.8,0,1.5,.3,2.1,1c.7,.8,1,1.8,1,3.1c0,1.4,-.4,2.6,-1.2,3.6c-.7,.7,-1.6,1.1,-2.6,1.1c-.4,0,-.8,-.1,-1.2,-.2c-.2,-.1,-.5,-.3,-.8,-.5v2.5c0,.6,.1,.9,.1,1.1c.1,.1,.2,.2,.4,.3c.2,.1,.5,.2,.9,.2v.3h-4.3v-.3h.2c.3,0,.6,-.1,.8,-.2c.2,-.1,.3,-.2,.3,-.3c.1,-.2,.1,-.6,.1,-1.2v-7.8c0,-.5,0,-.9,-.1,-1c0,-.2,-.1,-.3,-.2,-.3c-.1,-.1,-.2,-.1,-.4,-.1c-.2,0,-.4,0,-.6,.1Z" class="g9_43"/>
<path fill-rule="evenodd" d="M763.4,295l3.6,-4.1c0,-.5,-.1,-.8,-.2,-1c-.2,-.2,-.5,-.3,-.9,-.3v-.3h3.9v.3c-.4,0,-.7,.1,-.8,.1c-.2,.1,-.3,.2,-.4,.3c0,.2,-.1,.5,-.1,1.2v4.4c0,.6,0,1,.1,1.1c.1,.2,.2,.3,.3,.4c.2,.1,.5,.1,.9,.1v.3h-4.1v-.3c.6,0,.9,-.1,1.1,-.3c.1,-.1,.2,-.6,.2,-1.3v-3.9l-3.6,4.2c0,.5,.1,.8,.2,1c.2,.2,.5,.3,.9,.3v.3h-3.8v-.3c.5,0,.8,-.1,1,-.3c.1,-.2,.2,-.6,.2,-1.3v-4.4c0,-.6,0,-1,-.1,-1.1c-.1,-.2,-.2,-.3,-.3,-.4c-.1,0,-.4,-.1,-.8,-.1v-.3h4v.3c-.4,0,-.7,.1,-.8,.1c-.2,.1,-.3,.2,-.4,.3c0,.2,-.1,.5,-.1,1.2Z" class="g9_43"/>
<path fill-rule="evenodd" d="M713,223.7c-.3,.7,-.5,1.3,-.5,1.8c-.2,.5,-.2,1.2,-.1,1.8c.1,.7,.3,1.3,.6,1.7c.2,.3,.5,.5,1,.6c.4,.1,.9,0,1.4,-.4c.5,-.4,.8,-1,1,-1.9c.2,-.9,.2,-1.8,-.1,-2.6c-.2,-.8,-.7,-1.2,-1.4,-1.3c-.2,-.1,-.5,-.1,-.7,-.1c-.3,.1,-.7,.2,-1.2,.4m6.4,-4.8l-.1,.3c-.7,-.1,-1.3,-.1,-1.9,.1c-.5,.1,-1,.3,-1.6,.7c-.5,.4,-1,.8,-1.4,1.3c-.4,.5,-.8,1.1,-1.2,1.8c1,-.4,1.8,-.5,2.6,-.3c.8,.1,1.4,.6,1.9,1.3c.4,.8,.6,1.6,.4,2.6c-.2,1,-.7,1.8,-1.4,2.4c-.9,.9,-1.9,1.2,-3.1,.9c-.8,-.1,-1.4,-.5,-1.8,-1.1c-.9,-1.3,-1.2,-2.7,-.8,-4.3c.2,-1,.6,-1.9,1.2,-2.7c.6,-.9,1.3,-1.6,2.2,-2.1c.9,-.6,1.7,-.9,2.5,-1c.7,-.2,1.4,-.1,2,0Z" class="g9_43"/>
<path fill-rule="evenodd" d="M730.1,228.7c-.3,-.1,-.6,0,-.8,.3c-.4,.3,-.6,1,-.9,2.1c-.2,1,-.2,1.8,0,2.2c.1,.3,.3,.5,.6,.6c.3,0,.5,-.1,.8,-.3c.4,-.4,.6,-1.1,.8,-2.1c.2,-1,.2,-1.8,.1,-2.3c-.2,-.3,-.4,-.5,-.6,-.5m0,-.5c.4,.1,.8,.3,1.2,.6c.3,.4,.5,.8,.7,1.3c.1,.6,.1,1.1,0,1.7c-.2,1,-.6,1.7,-1.2,2.1c-.6,.4,-1.2,.6,-1.9,.5c-.4,-.1,-.8,-.3,-1.1,-.7c-.3,-.3,-.6,-.7,-.7,-1.2c-.1,-.5,-.1,-1.1,0,-1.7c.1,-.6,.3,-1.1,.7,-1.5c.3,-.5,.7,-.8,1.1,-.9c.4,-.2,.8,-.3,1.2,-.2M722.9,221c-.3,0,-.6,.1,-.8,.4c-.3,.3,-.6,1,-.8,2.1c-.2,.7,-.2,1.3,-.2,1.8c.1,.3,.2,.6,.3,.8c.1,.1,.3,.2,.4,.2c.3,.1,.6,0,.8,-.3c.4,-.4,.7,-1.1,.9,-2.1c.2,-1,.2,-1.8,0,-2.3c-.1,-.3,-.3,-.5,-.6,-.6m.1,-.4c.8,.1,1.3,.6,1.6,1.3c.3,.7,.4,1.4,.2,2.3c-.2,.9,-.6,1.6,-1.1,2.1c-.6,.4,-1.2,.6,-1.9,.4c-.5,0,-.8,-.3,-1.2,-.6c-.3,-.3,-.5,-.7,-.6,-1.2c-.2,-.6,-.2,-1.1,0,-1.7c.1,-.6,.3,-1.1,.6,-1.6c.3,-.4,.7,-.7,1.2,-.9c.4,-.2,.8,-.2,1.2,-.1m8.7,1.7l-10.8,10.5l-.7,-.2L731,222.2Z" class="g9_43"/>
<path fill-rule="evenodd" d="M746.5,228.9c-.3,-.1,-.6,0,-.9,.1c-.3,.1,-.6,.4,-.9,.8c-.3,.4,-.5,.9,-.6,1.6c-.3,1.1,-.2,2.2,0,3.1c.3,.9,.8,1.4,1.6,1.5c.5,.1,1,0,1.5,-.4c.4,-.4,.7,-1.1,1,-2.2c.2,-1.4,.2,-2.5,-.3,-3.4c-.3,-.6,-.7,-1,-1.4,-1.1m.4,-.5c1.2,.2,2,.9,2.6,1.9c.4,.9,.6,1.8,.4,2.8c-.2,.7,-.5,1.3,-1,2c-.4,.6,-1,1.1,-1.7,1.3c-.6,.2,-1.3,.3,-2,.1c-1.2,-.2,-2,-.8,-2.5,-1.9c-.4,-.9,-.6,-1.8,-.4,-2.8c.2,-.7,.5,-1.4,1,-2c.5,-.6,1.1,-1,1.7,-1.3c.6,-.2,1.3,-.2,1.9,-.1Z" class="g9_43"/>
<path fill-rule="evenodd" d="M751.4,229.6l6.7,1.3l-.1,2.2l-.4,-.1c0,-.4,0,-.8,-.1,-1c-.1,-.3,-.3,-.5,-.5,-.6c-.2,-.1,-.5,-.2,-1,-.3l-.7,-.2l-1,5.4c-.2,.6,-.2,.9,-.2,1.1c.1,.2,.2,.3,.3,.4c.2,.1,.5,.2,1.1,.3l-.1,.3l-4.2,-.8l.1,-.4c.5,.1,.9,.1,1.1,0c.2,-.1,.3,-.5,.5,-1.2l1,-5.3l-.7,-.2c-.4,-.1,-.8,-.1,-1,-.1c-.2,0,-.4,.1,-.6,.3c-.2,.2,-.4,.5,-.6,1l-.4,-.1Z" class="g9_43"/>
<path fill-rule="evenodd" d="M759.4,231.2l6.9,1.4v.3c-.4,0,-.7,-.1,-.8,0c-.2,0,-.3,.1,-.4,.2c-.1,.1,-.2,.5,-.3,1.1l-.8,4.1c-.1,.6,-.2,.9,-.1,1c0,.2,.1,.3,.2,.4c.1,.1,.4,.2,.8,.3l-.1,.3l-4,-.8l.1,-.3c.4,.1,.7,.1,.9,.1c.1,0,.3,-.1,.4,-.2c.2,-.2,.3,-.5,.4,-1.1l1.1,-5.4l-2.6,-.5l-.7,3.3c-.2,1.2,-.4,2.1,-.6,2.5c-.3,.5,-.5,.8,-.9,1c-.4,.2,-.8,.2,-1.2,.1c-.7,-.1,-1,-.5,-.9,-1.1c0,-.2,.1,-.3,.3,-.4c.1,-.1,.3,-.2,.5,-.1c.2,0,.3,.1,.5,.3c.1,.3,.3,.4,.4,.4c.2,.1,.5,-.1,.7,-.5c.2,-.4,.4,-1.1,.6,-2.2l.3,-1.7c.2,-.8,.3,-1.4,.2,-1.6c-.1,-.2,-.4,-.4,-.9,-.5Z" class="g9_43"/>
<path fill-rule="evenodd" d="M768.6,238.7l4.1,-3.2c.1,-.5,.1,-.8,0,-1c-.2,-.2,-.4,-.3,-.8,-.4l.1,-.3l3.6,.7l-.1,.3c-.4,-.1,-.6,-.1,-.8,0c-.1,0,-.2,.1,-.3,.2c-.1,.1,-.2,.5,-.4,1.1l-.8,4.1c-.1,.6,-.1,.9,-.1,1c0,.2,.1,.3,.2,.4c.2,.1,.4,.2,.8,.3l-.1,.3l-3.7,-.7l.1,-.4c.4,.1,.8,.1,1,0c.1,-.2,.3,-.6,.4,-1.2l.8,-3.6l-4.2,3.2c0,.4,0,.8,0,1c.1,.2,.4,.3,.8,.4l-.1,.3l-3.5,-.7v-.3c.5,.1,.9,.1,1,-.1c.2,-.1,.4,-.5,.5,-1.2l.8,-4c.1,-.6,.2,-1,.1,-1.1c0,-.1,-.1,-.3,-.2,-.4c-.1,-.1,-.4,-.2,-.8,-.3l.1,-.3l3.7,.8v.3c-.4,-.1,-.7,-.1,-.8,-.1c-.1,.1,-.3,.2,-.4,.3c-.1,.1,-.2,.4,-.3,1Z" class="g9_43"/>
<path fill-rule="evenodd" d="M781,239.2l.3,-1.6c.2,-.5,.2,-.9,.2,-1.1c-.1,-.1,-.1,-.3,-.3,-.4c-.1,-.1,-.4,-.2,-.7,-.2v-.3l3.8,.7l-.1,.3c-.4,-.1,-.6,-.1,-.8,0c-.1,0,-.2,.1,-.3,.2c-.1,.1,-.2,.5,-.4,1.1l-.8,4.1c-.1,.5,-.1,.8,-.1,1c0,.2,.1,.3,.3,.4c.1,.1,.4,.2,.7,.3l-.1,.3l-3.9,-.8l.1,-.3c.4,.1,.7,.1,.9,.1c.1,0,.3,-.1,.4,-.3c.1,-.1,.2,-.5,.3,-1l.4,-1.9c-.9,.3,-1.8,.3,-2.7,.1c-.5,-.1,-.9,-.2,-1.2,-.4c-.2,-.2,-.4,-.4,-.4,-.6c0,-.1,0,-.4,0,-.8l.3,-1.4c.1,-.5,.2,-.8,.2,-1c-.1,-.1,-.1,-.3,-.3,-.4c-.1,-.1,-.3,-.2,-.6,-.3v-.3l3.7,.7l-.1,.3c-.4,0,-.6,0,-.8,0c-.1,.1,-.3,.1,-.3,.2c-.1,.1,-.3,.5,-.4,1.1l-.2,.9c0,.4,-.1,.7,0,.8c0,.1,.1,.3,.3,.4c.1,.1,.4,.2,.8,.3c.6,.1,1.2,.1,1.8,-.2Z" class="g9_43"/>
<path fill-rule="evenodd" d="M786.9,240.5l3.4,.6l.3,-1.6c.1,-.5,.1,-.8,.1,-1c0,-.1,0,-.3,-.2,-.4c-.1,-.1,-.4,-.3,-.8,-.3l.1,-.3l3.7,.7v.3c-.4,-.1,-.6,-.1,-.8,0c-.2,0,-.3,.1,-.4,.3c-.1,.1,-.2,.4,-.3,1l-.8,4.1c-.1,.4,-.2,.8,-.2,.9c.1,.2,.1,.3,.3,.5c.1,.1,.4,.2,.7,.3v.3l-3.8,-.8l.1,-.3c.5,.1,.8,.1,1,0c.2,-.2,.3,-.6,.5,-1.2l.4,-1.9l-3.4,-.7l-.4,1.9c-.1,.5,-.1,.8,-.1,1c0,.2,.1,.3,.2,.4c.2,.2,.4,.3,.8,.3l-.1,.4l-3.7,-.8l.1,-.3c.5,.1,.8,.1,1,-.1c.2,-.1,.3,-.5,.4,-1.2l.9,-4c.1,-.5,.1,-.9,.1,-1c0,-.2,-.1,-.3,-.2,-.5c-.2,-.1,-.4,-.2,-.8,-.3v-.3l3.8,.8l-.1,.3c-.3,-.1,-.6,-.1,-.8,-.1c-.1,.1,-.3,.2,-.4,.3c0,.2,-.1,.5,-.2,1Z" class="g9_43"/>
<path fill-rule="evenodd" d="M795.8,244.3l4.1,-3.2c.1,-.5,.1,-.8,0,-1c-.2,-.2,-.4,-.3,-.8,-.4l.1,-.3l3.6,.7l-.1,.3c-.4,-.1,-.6,-.1,-.8,0c-.1,0,-.2,.1,-.3,.2c-.1,.1,-.2,.5,-.4,1.1l-.8,4.1c-.1,.5,-.1,.9,-.1,1c0,.2,.1,.3,.2,.4c.2,.1,.4,.2,.8,.3l-.1,.3l-3.7,-.8l.1,-.3c.4,.1,.8,.1,.9,0c.2,-.2,.4,-.6,.5,-1.2l.8,-3.6l-4.2,3.1c0,.5,0,.9,0,1.1c.1,.2,.4,.3,.8,.4l-.1,.3l-3.5,-.7v-.3c.5,.1,.9,.1,1,-.1c.2,-.1,.4,-.5,.5,-1.2l.8,-4c.1,-.6,.2,-1,.1,-1.1c0,-.1,-.1,-.3,-.2,-.4c-.1,-.1,-.4,-.2,-.8,-.3l.1,-.3l3.7,.8v.3c-.4,-.1,-.7,-.1,-.8,-.1c-.1,.1,-.3,.2,-.4,.3c-.1,.1,-.2,.4,-.3,1Z" class="g9_43"/>
<path fill-rule="evenodd" d="M725.6,153.7l3,-1.5h.3v10.4c0,.7,0,1.1,.1,1.3c.1,.1,.2,.3,.4,.3c.1,.1,.5,.2,1.1,.2v.3h-4.7v-.3c.6,0,1,-.1,1.2,-.2c.1,0,.2,-.2,.3,-.3c.1,-.2,.1,-.6,.1,-1.3V156c0,-.9,0,-1.5,-.1,-1.8c0,-.2,-.1,-.3,-.2,-.4c-.1,-.1,-.3,-.1,-.4,-.1c-.2,0,-.6,.1,-1,.3Z" class="g9_43"/>
<path fill-rule="evenodd" d="M736.7,158.9c-.5,.4,-.8,.9,-1.1,1.4c-.2,.5,-.3,1,-.3,1.6c0,.8,.2,1.4,.6,1.9c.4,.4,1,.7,1.6,.7c.7,0,1.2,-.2,1.6,-.6c.4,-.4,.6,-.8,.6,-1.3c0,-.5,-.1,-.9,-.4,-1.2c-.4,-.6,-1.3,-1.5,-2.6,-2.5m1,-1.3c.8,-.7,1.2,-1.2,1.4,-1.6c.2,-.3,.3,-.8,.3,-1.2c0,-.7,-.2,-1.2,-.5,-1.5c-.4,-.4,-.9,-.6,-1.5,-.6c-.6,0,-1.1,.2,-1.5,.6c-.4,.3,-.6,.8,-.6,1.2c0,.3,.1,.7,.3,1c.1,.3,.3,.6,.6,.9Zm-1.4,1c-1,-.8,-1.6,-1.5,-1.9,-2c-.3,-.4,-.4,-.9,-.4,-1.5c0,-.8,.3,-1.4,.9,-2c.6,-.6,1.5,-.9,2.5,-.9c1,0,1.8,.3,2.4,.8c.6,.6,.9,1.2,.9,1.9c0,.4,-.2,.9,-.5,1.4c-.3,.4,-1,1,-2,1.6c1,.9,1.7,1.5,2.1,2c.4,.6,.7,1.2,.7,1.9c0,.9,-.4,1.6,-1,2.2c-.7,.6,-1.5,.9,-2.6,.9c-1.2,0,-2.1,-.3,-2.8,-1c-.5,-.6,-.7,-1.3,-.7,-2c0,-.5,.1,-1,.5,-1.6c.4,-.5,1,-1.1,1.9,-1.7Z" class="g9_43"/>
<path fill-rule="evenodd" d="M754.3,159.1c-.3,0,-.6,.2,-.8,.5c-.2,.4,-.4,1.2,-.4,2.4c0,1.1,.2,1.8,.4,2.3c.2,.3,.5,.4,.8,.4c.3,0,.5,-.1,.7,-.5c.3,-.4,.5,-1.2,.5,-2.2c0,-1.2,-.2,-2,-.5,-2.4c-.2,-.3,-.4,-.5,-.7,-.5m0,-.5c.4,0,.8,.2,1.3,.5c.4,.2,.7,.6,1,1.1c.2,.6,.3,1.1,.3,1.7c0,1.1,-.3,1.9,-.8,2.5c-.5,.6,-1.1,.8,-1.8,.8c-.4,0,-.9,-.1,-1.3,-.4c-.4,-.2,-.7,-.6,-1,-1.1c-.2,-.5,-.3,-1.1,-.3,-1.8c0,-.6,.1,-1.2,.3,-1.7c.3,-.5,.6,-.9,1,-1.2c.4,-.2,.9,-.4,1.3,-.4m-9,-5.9c-.3,0,-.6,.2,-.8,.5c-.2,.4,-.4,1.2,-.4,2.3c0,.9,.1,1.5,.2,1.9c.1,.4,.3,.6,.5,.8c.2,.1,.3,.2,.5,.2c.3,0,.5,-.2,.7,-.5c.3,-.5,.5,-1.2,.5,-2.3c0,-1.2,-.2,-2,-.4,-2.4c-.2,-.3,-.5,-.5,-.8,-.5m.1,-.5c.8,0,1.4,.3,1.9,1c.4,.7,.6,1.5,.6,2.3c0,1.1,-.2,1.9,-.7,2.5c-.5,.5,-1.2,.8,-1.9,.8c-.4,0,-.9,-.1,-1.3,-.4c-.4,-.2,-.7,-.6,-.9,-1.1c-.3,-.6,-.4,-1.1,-.4,-1.8c0,-.6,.1,-1.2,.4,-1.7c.2,-.6,.5,-.9,1,-1.2c.4,-.3,.8,-.4,1.3,-.4m9.3,0l-9,13h-.8l9,-13Z" class="g9_43"/>
<path fill-rule="evenodd" d="M727.8,182.1c-.2,1.1,-.6,1.9,-1.3,2.5c-.6,.6,-1.3,.9,-2.1,.9c-1,0,-1.8,-.4,-2.5,-1.2c-.7,-.8,-1.1,-1.9,-1.1,-3.2c0,-1.3,.4,-2.4,1.2,-3.2c.8,-.8,1.7,-1.2,2.8,-1.2c.8,0,1.5,.2,2,.7c.5,.4,.8,.8,.8,1.3c0,.2,-.1,.4,-.2,.6c-.2,.1,-.4,.2,-.6,.2c-.4,0,-.7,-.1,-.8,-.4c-.1,-.1,-.2,-.3,-.2,-.7c-.1,-.4,-.2,-.6,-.4,-.8c-.2,-.2,-.5,-.3,-.9,-.3c-.6,0,-1.1,.2,-1.5,.7c-.5,.6,-.7,1.4,-.7,2.3c0,1,.2,1.9,.7,2.6c.5,.8,1.2,1.2,2,1.2c.6,0,1.1,-.2,1.6,-.6c.3,-.3,.7,-.8,1,-1.5Z" class="g9_43"/>
<path fill-rule="evenodd" d="M729.9,177h7.4v.3c-.4,0,-.7,0,-.8,.1c-.1,.1,-.2,.2,-.3,.3c-.1,.1,-.1,.5,-.1,1.2v4.4c0,.6,0,1,.1,1.1c0,.2,.1,.3,.3,.4c.1,0,.4,.1,.8,.1v.3H733v-.3c.5,0,.8,0,1,-.1c.2,0,.3,-.1,.4,-.3c.1,-.2,.2,-.6,.2,-1.2v-5.8h-2.8V181c0,1.3,-.1,2.3,-.2,2.8c-.1,.5,-.3,.9,-.7,1.2c-.3,.2,-.7,.4,-1.2,.4c-.7,0,-1.1,-.3,-1.1,-1c0,-.2,0,-.4,.2,-.5c.1,-.2,.2,-.2,.4,-.2c.2,0,.4,.1,.6,.2c.3,.3,.4,.4,.6,.4c.2,0,.4,-.2,.6,-.7c.1,-.5,.1,-1.3,.1,-2.4v-1.8c0,-1,0,-1.5,-.2,-1.7c-.1,-.2,-.4,-.4,-1,-.4Z" class="g9_43"/>
<path fill-rule="evenodd" d="M743,183.5v-3.2c-.9,.4,-1.5,.6,-1.7,.8c-.5,.2,-.8,.5,-1.1,.8c-.2,.3,-.3,.6,-.3,.9c0,.5,.2,.8,.4,1.1c.3,.3,.6,.5,.9,.5c.5,0,1.1,-.3,1.8,-.9m0,.5c-.8,.7,-1.3,1.1,-1.6,1.2c-.3,.1,-.6,.2,-1,.2c-.6,0,-1.1,-.2,-1.4,-.6c-.4,-.4,-.6,-.9,-.6,-1.5c0,-.4,.1,-.8,.3,-1.1c.2,-.4,.7,-.8,1.3,-1.1c.6,-.4,1.6,-.8,3,-1.4v-.3c0,-.8,-.1,-1.4,-.4,-1.7c-.2,-.3,-.6,-.4,-1.1,-.4c-.4,0,-.7,.1,-.9,.3c-.2,.2,-.4,.4,-.4,.7l.1,.5c0,.3,-.1,.5,-.3,.6c-.1,.2,-.3,.3,-.5,.3c-.2,0,-.4,-.1,-.6,-.3c-.1,-.1,-.2,-.3,-.2,-.6c0,-.5,.3,-1,.8,-1.4c.6,-.5,1.3,-.7,2.3,-.7c.7,0,1.3,.1,1.8,.4c.3,.2,.6,.5,.8,.9c.1,.2,.1,.7,.1,1.5v2.9c0,.7,.1,1.2,.1,1.4c0,.2,.1,.3,.1,.4c.1,0,.2,.1,.3,.1c.1,0,.2,-.1,.2,-.1c.2,-.1,.4,-.3,.8,-.7v.5c-.7,.9,-1.4,1.4,-2,1.4c-.3,0,-.5,-.1,-.7,-.3c-.2,-.2,-.3,-.6,-.3,-1.1Z" class="g9_43"/>
<path fill-rule="evenodd" d="M750.6,177.3c-.6,0,-1.1,.3,-1.5,.8c-.4,.5,-.6,1.3,-.6,2.3c0,1.5,.3,2.6,.8,3.3c.5,.8,1.1,1.2,1.8,1.2c.6,0,1.1,-.3,1.5,-.8c.4,-.6,.5,-1.4,.5,-2.5c0,-1.2,-.2,-2.3,-.7,-3.1c-.5,-.8,-1.1,-1.2,-1.8,-1.2m-3.2,2c.7,-1.7,1.8,-2.6,3.5,-2.6c1.2,0,2.1,.4,2.8,1.3c.8,.9,1.1,1.8,1.1,3c0,1.1,-.3,2.1,-1.1,3.1c-.7,.9,-1.7,1.4,-3,1.4c-1.3,0,-2.3,-.6,-3,-1.6c-.6,-1.1,-1,-2.4,-1,-3.9c0,-1.2,.2,-2.3,.5,-3.4c.4,-1,.8,-1.8,1.1,-2.3c.4,-.5,.9,-.9,1.4,-1.1c.5,-.2,1.4,-.4,2.7,-.4c.9,0,1.5,0,1.7,-.1c.2,0,.4,-.1,.5,-.3h.4c-.2,.6,-.5,1,-.7,1.2c-.3,.3,-.6,.5,-1,.6c-.3,0,-.9,.1,-1.7,.1c-.9,0,-1.6,.1,-1.9,.2c-.3,.1,-.7,.4,-1.1,.8c-.4,.5,-.7,1,-.9,1.7c-.2,.7,-.3,1.5,-.3,2.3Z" class="g9_43"/>
<path fill-rule="evenodd" d="M758.7,182.7l3.6,-4.2c-.1,-.4,-.1,-.7,-.3,-.9c-.2,-.2,-.5,-.3,-.9,-.3V177H765v.3c-.4,0,-.7,0,-.8,.1c-.1,.1,-.3,.2,-.3,.3c-.1,.1,-.1,.5,-.1,1.2v4.4c0,.6,0,1,.1,1.1c0,.2,.1,.3,.3,.4c.1,0,.4,.1,.8,.1v.3h-4v-.3c.5,0,.8,-.1,1,-.3c.2,-.2,.3,-.6,.3,-1.3v-3.9l-3.6,4.1c0,.6,0,.9,.2,1.1c.1,.2,.4,.3,.8,.3v.3h-3.8v-.3c.5,0,.9,-.1,1,-.3c.2,-.2,.3,-.6,.3,-1.3v-4.4c0,-.7,-.1,-1,-.1,-1.1c-.1,-.2,-.2,-.3,-.4,-.4c-.1,-.1,-.4,-.1,-.8,-.1V177h4v.3c-.4,0,-.7,0,-.8,.1c-.1,.1,-.2,.2,-.3,.3c-.1,.1,-.1,.5,-.1,1.2Z" class="g9_43"/>
<path d="M671.3,80.5c75.9,0,137.8,61.5,137.8,137c0,75.5,-61.9,137.1,-137.8,137.1C595.4,354.6,533.5,293,533.5,217.5c0,-75.5,61.9,-137,137.8,-137Z" class="g8_43"/>
<path d="M74.3,66.4H836.5" class="ga_43"/>
<path d="M185.2,480.7h648V367h-648V480.7Z" class="gb_43"/>
<path d="M133.2,404.5h39.6V367H133.2v37.5Z" class="gc_43"/>
<path clip-path="url(#c1_43)" d="M153.4,389.6c-2,.1,-3.7,-1.6,-3.6,-3.6c.1,-1.7,1.5,-3.1,3.2,-3.2c2.1,-.2,3.8,1.5,3.6,3.6c-.1,1.7,-1.5,3.1,-3.2,3.2m.2,2.9c-3.8,.3,-7,-2.9,-6.7,-6.7c.2,-3.2,2.7,-5.8,5.9,-6c3.8,-.2,7,3,6.7,6.8c-.2,3.1,-2.7,5.7,-5.9,5.9m-.4,-15.3c-5.8,0,-11,3.1,-14.9,8.3c-.3,.4,-.3,1,0,1.4c3.9,5.1,9.1,8.3,14.9,8.3c5.8,0,11,-3.2,14.9,-8.3c.3,-.4,.3,-1,0,-1.4c-3.9,-5.2,-9.1,-8.3,-14.9,-8.3Z" class="gd_43"/>
<path d="M73.6,496.7H835.8" class="ga_43"/>
<path d="M560,746.8H819.9M560,740.3H819.9M560,733.8H819.9M560,727.3H819.9M560,720.8H819.9M560,714.3H819.9" class="ge_43"/>
<path d="M560,707.9H819.9" class="gf_43"/>
<path d="M560,701.4H819.9M560,694.9H819.9M560,688.4H819.9M560,681.9H819.9M560,675.4H819.9M560,668.9H819.9" class="ge_43"/>
<path d="M560,662.4H819.9" class="gf_43"/>
<path d="M560,655.9H819.9M560,649.4H819.9M560,642.9H819.9M560,636.4H819.9M560,629.9H819.9M560,623.4H819.9" class="ge_43"/>
<path d="M560,616.9H819.9" class="gf_43"/>
<path d="M560,610.4H819.9M560,603.9H819.9M560,597.4H819.9M560,590.9H819.9M560,584.4H819.9M560,577.9H819.9" class="ge_43"/>
<path d="M560,571.4H819.9" class="gf_43"/>
<path d="M560,564.9H819.9M560,558.4H819.9M560,551.9H819.9M560,545.4H819.9M560,539H819.9M560,532.5H819.9" class="ge_43"/>
<path d="M560,526H819.9" class="gf_43"/>
<path d="M560,514.6V754" class="gg_43"/>
<path fill-rule="evenodd" d="M560,509.2l4.6,10.8c-3,-1.5,-6.1,-1.5,-9.2,0Z" class="g9_43"/>
<path d="M828.4,753.3H560.6" class="gg_43"/>
<path fill-rule="evenodd" d="M833.9,753.3l-10.8,4.6c1.5,-3,1.5,-6.1,0,-9.2Z" class="g9_43"/>
<path d="M546.9,760.3c0,-1.3,.2,-2.4,.6,-3.3c.4,-.9,.9,-1.6,1.5,-2c.5,-.4,1,-.6,1.5,-.6c.9,0,1.6,.5,2.3,1.4c.9,1,1.3,2.5,1.3,4.3c0,1.3,-.2,2.4,-.6,3.3c-.3,.9,-.8,1.6,-1.4,2c-.6,.4,-1.1,.6,-1.7,.6c-1,0,-1.9,-.6,-2.6,-1.9c-.6,-1,-.9,-2.3,-.9,-3.8m1.6,.2c0,1.5,.2,2.8,.6,3.8c.3,.8,.7,1.2,1.4,1.2c.3,0,.6,-.2,.9,-.4c.3,-.3,.5,-.7,.7,-1.3c.3,-1,.4,-2.3,.4,-4c0,-1.3,-.2,-2.4,-.4,-3.2c-.2,-.6,-.5,-1.1,-.8,-1.3c-.2,-.2,-.5,-.3,-.8,-.3c-.4,0,-.7,.2,-1,.5c-.4,.4,-.6,1.2,-.8,2.1c-.1,1,-.2,2,-.2,2.9Z" class="g9_43"/>
<path d="M547,703.3h6v.3l-3.7,11.1h-1l3.4,-10h-3.1c-.6,0,-1,0,-1.3,.2c-.5,.2,-.8,.6,-1.1,1.1l-.3,-.1Z" class="g9_43"/>
<path d="M538.9,658.9l2.7,-1.3h.3V667c0,.6,0,1,0,1.2c.1,.1,.2,.2,.4,.3c.1,.1,.5,.2,1,.2v.3h-4.2v-.3c.5,0,.8,-.1,1,-.2c.2,0,.3,-.2,.3,-.3c.1,-.1,.1,-.5,.1,-1.2v-6c0,-.8,0,-1.3,-.1,-1.6c0,-.1,-.1,-.3,-.2,-.3c-.1,-.1,-.2,-.2,-.3,-.2c-.2,0,-.5,.1,-.9,.3Z" class="g9_43"/>
<path d="M553.1,664.9V666h-1.5v3h-1.3v-3h-4.7v-1l5.1,-7.4h.9v7.3Zm-2.8,0v-5.6l-3.9,5.6Z" class="g9_43"/>
<path d="M544.6,621.4l-.8,2.1h-6.5v-.3c1.9,-1.8,3.3,-3.2,4.1,-4.3c.7,-1.1,1.1,-2.2,1.1,-3.1c0,-.7,-.2,-1.3,-.6,-1.7c-.4,-.5,-1,-.7,-1.6,-.7c-.5,0,-1,.2,-1.4,.5c-.5,.3,-.8,.8,-1,1.4h-.3c.1,-1,.5,-1.8,1.1,-2.3c.5,-.6,1.2,-.9,2.1,-.9c.9,0,1.6,.3,2.2,.9c.6,.6,.9,1.3,.9,2.1c0,.5,-.1,1.1,-.4,1.7c-.4,.8,-1,1.8,-1.9,2.8c-1.4,1.5,-2.2,2.4,-2.6,2.7h2.9c.6,0,1,-.1,1.3,-.1c.2,0,.4,-.1,.6,-.3c.2,-.1,.4,-.3,.5,-.5Z" class="g9_43"/>
<path d="M547.3,613.5l2.7,-1.4h.3v9.4c0,.7,0,1,0,1.2c.1,.2,.2,.3,.4,.4c.1,0,.5,.1,1,.1v.3h-4.2v-.3c.5,0,.8,-.1,1,-.1c.2,-.1,.3,-.2,.3,-.4c.1,-.1,.1,-.5,.1,-1.2v-6c0,-.8,0,-1.3,-.1,-1.5c0,-.2,-.1,-.3,-.2,-.4c-.1,-.1,-.2,-.1,-.3,-.1c-.2,0,-.5,0,-.9,.2Z" class="g9_43"/>
<path d="M544.6,575.9l-.8,2.1h-6.5v-.3c1.9,-1.7,3.3,-3.2,4.1,-4.3c.7,-1.1,1.1,-2.1,1.1,-3.1c0,-.7,-.2,-1.2,-.6,-1.7c-.4,-.4,-1,-.7,-1.6,-.7c-.5,0,-1,.2,-1.4,.5c-.5,.3,-.8,.8,-1,1.4h-.3c.1,-1,.5,-1.8,1.1,-2.3c.5,-.6,1.2,-.8,2.1,-.8c.9,0,1.6,.3,2.2,.8c.6,.6,.9,1.3,.9,2.1c0,.6,-.1,1.1,-.4,1.7c-.4,.9,-1,1.8,-1.9,2.8c-1.4,1.5,-2.2,2.4,-2.6,2.7h2.9c.6,0,1,0,1.3,-.1c.2,0,.4,-.1,.6,-.2c.2,-.2,.4,-.4,.5,-.6Z" class="g9_43"/>
<path d="M548.5,572.4c-.8,-.7,-1.4,-1.3,-1.7,-1.7c-.2,-.5,-.3,-.9,-.3,-1.4c0,-.7,.2,-1.3,.8,-1.8c.6,-.6,1.3,-.8,2.2,-.8c.9,0,1.6,.2,2.2,.7c.5,.5,.8,1,.8,1.7c0,.4,-.1,.8,-.4,1.2c-.3,.5,-.9,1,-1.9,1.6c1,.7,1.6,1.3,1.9,1.7c.4,.6,.7,1.2,.7,1.8c0,.8,-.3,1.4,-.9,2c-.6,.5,-1.4,.8,-2.4,.8c-1,0,-1.9,-.3,-2.5,-1c-.4,-.5,-.7,-1.1,-.7,-1.7c0,-.5,.2,-1,.5,-1.5c.4,-.5,.9,-1,1.7,-1.6m1.3,-.9c.7,-.5,1.1,-1,1.3,-1.4c.2,-.3,.2,-.7,.2,-1.1c0,-.6,-.1,-1,-.4,-1.4c-.4,-.3,-.8,-.5,-1.4,-.5c-.5,0,-1,.2,-1.3,.5c-.4,.4,-.6,.7,-.6,1.2c0,.2,.1,.5,.3,.8c.1,.3,.3,.6,.6,.8Zm-.9,1.2c-.4,.4,-.8,.8,-1,1.3c-.2,.4,-.3,.9,-.3,1.4c0,.8,.2,1.3,.6,1.7c.4,.5,.8,.7,1.4,.7c.6,0,1.1,-.2,1.5,-.5c.3,-.4,.5,-.8,.5,-1.2c0,-.4,-.1,-.8,-.3,-1.1c-.4,-.6,-1.2,-1.3,-2.4,-2.3Z" class="g9_43"/>
<path d="M537.8,523.5c.3,-.7,.7,-1.3,1.2,-1.7c.5,-.4,1.1,-.6,1.8,-.6c.9,0,1.6,.3,2,.9c.4,.4,.6,.9,.6,1.4c0,.8,-.5,1.6,-1.6,2.5c.7,.2,1.2,.6,1.6,1.1c.3,.5,.5,1.1,.5,1.8c0,.9,-.3,1.8,-.9,2.5c-.8,.9,-2,1.3,-3.5,1.3c-.7,0,-1.2,0,-1.5,-.2c-.3,-.2,-.4,-.4,-.4,-.6c0,-.2,.1,-.3,.2,-.4c.1,-.2,.3,-.2,.5,-.2c.1,0,.2,0,.4,0c.1,.1,.3,.2,.6,.3c.3,.2,.6,.3,.7,.3c.2,.1,.4,.1,.6,.1c.6,0,1.1,-.2,1.5,-.6c.4,-.4,.6,-1,.6,-1.5c0,-.5,-.1,-.9,-.3,-1.3c-.1,-.3,-.3,-.5,-.4,-.7c-.3,-.2,-.6,-.4,-1,-.6c-.4,-.2,-.8,-.3,-1.3,-.3h-.2v-.2c.4,-.1,.8,-.2,1.3,-.5c.4,-.2,.7,-.5,.9,-.9c.2,-.4,.3,-.8,.3,-1.2c0,-.6,-.2,-1,-.5,-1.4c-.4,-.3,-.8,-.5,-1.3,-.5c-.9,0,-1.6,.5,-2.2,1.4Z" class="g9_43"/>
<path d="M552.6,521.4l-.6,1.4h-3.4l-.7,1.5c1.4,.2,2.6,.8,3.4,1.6c.8,.8,1.1,1.7,1.1,2.7c0,.5,-.1,1.1,-.3,1.6c-.3,.5,-.6,.9,-.9,1.3c-.4,.3,-.8,.6,-1.2,.8c-.7,.3,-1.3,.4,-2,.4c-.6,0,-1.1,-.1,-1.4,-.3c-.3,-.2,-.5,-.5,-.5,-.7c0,-.2,.1,-.3,.2,-.4c.1,-.2,.3,-.2,.5,-.2c.1,0,.3,0,.4,0c.1,.1,.2,.2,.5,.4c.4,.3,.8,.4,1.3,.4c.6,0,1.2,-.2,1.6,-.7c.5,-.5,.8,-1.1,.8,-1.8c0,-.7,-.3,-1.3,-.7,-1.9c-.4,-.6,-1,-1,-1.8,-1.3c-.6,-.3,-1.4,-.4,-2.4,-.5l2.1,-4.3Z" class="g9_43"/>
<path d="M662.6,786c.7,.1,1.3,.4,1.7,.8c.5,.5,.8,1.1,.8,1.8c0,.6,-.2,1.1,-.5,1.6c-.4,.5,-.9,.9,-1.5,1.1c-.6,.2,-1.5,.4,-2.8,.4h-5.2v-.3h.4c.5,0,.8,-.2,1,-.5c.1,-.2,.2,-.6,.2,-1.2v-7.2c0,-.7,-.1,-1.1,-.2,-1.3c-.3,-.2,-.6,-.4,-1,-.4h-.4v-.3h4.8c.9,0,1.6,.1,2.2,.2c.8,.2,1.4,.6,1.8,1.1c.5,.5,.7,1.1,.7,1.7c0,.6,-.2,1.1,-.5,1.5c-.4,.4,-.9,.8,-1.5,1m-4.3,-.5c.2,.1,.4,.1,.7,.1c.2,0,.5,.1,.8,.1c.8,0,1.4,-.1,1.8,-.3c.4,-.2,.7,-.4,.9,-.8c.3,-.3,.4,-.7,.4,-1.2c0,-.6,-.3,-1.2,-.8,-1.6c-.6,-.5,-1.3,-.7,-2.4,-.7c-.5,0,-1,0,-1.4,.2Zm0,5.4c.6,.1,1.2,.2,1.8,.2c1,0,1.8,-.2,2.3,-.7c.5,-.4,.8,-1,.8,-1.6c0,-.5,-.1,-.9,-.4,-1.3c-.2,-.4,-.6,-.7,-1.1,-.9c-.5,-.3,-1.2,-.4,-2,-.4c-.3,0,-.6,0,-.8,0c-.3,0,-.5,.1,-.6,.1Z" class="g9_43"/>
<path d="M668.9,789.3l3.2,-3.7c0,-.4,-.1,-.7,-.2,-.9c-.1,-.2,-.4,-.2,-.8,-.2v-.4h3.5v.4c-.3,0,-.6,0,-.7,.1c-.1,0,-.2,.1,-.3,.2c-.1,.2,-.1,.5,-.1,1.1v4c0,.6,0,.9,.1,1c0,.2,.1,.2,.3,.3c.1,.1,.3,.2,.7,.2v.3H671v-.3c.4,0,.8,-.1,.9,-.3c.2,-.2,.2,-.6,.2,-1.2v-3.5l-3.2,3.7c0,.5,.1,.8,.2,1c.1,.2,.4,.3,.8,.3v.3h-3.5v-.3c.5,0,.8,-.1,.9,-.3c.2,-.2,.2,-.6,.2,-1.2v-4c0,-.6,0,-.9,-.1,-1c0,-.1,-.1,-.2,-.2,-.3c-.2,-.1,-.4,-.1,-.8,-.1v-.4H670v.4c-.3,0,-.6,0,-.7,.1c-.1,0,-.2,.1,-.3,.2c-.1,.2,-.1,.5,-.1,1.1Z" class="g9_43"/>
<path d="M676.6,784.1h6.6v.4c-.4,0,-.6,0,-.8,.1c-.1,0,-.2,.1,-.2,.2c-.1,.2,-.1,.5,-.1,1.1v3.7c0,.8,0,1.3,.2,1.5c.1,.1,.4,.2,.9,.3v2.3h-.3c0,-.4,-.2,-.8,-.4,-1.1c-.2,-.4,-.4,-.6,-.8,-.7c-.3,-.2,-.9,-.2,-1.6,-.2h-1.9c-.6,0,-1.1,0,-1.4,.1c-.3,.1,-.6,.4,-.9,.7c-.2,.3,-.3,.7,-.4,1.2h-.3v-2.3c.5,-.1,.9,-.2,1.2,-.6c.4,-.3,.7,-1,1,-2c.3,-1,.4,-1.9,.4,-2.9c0,-.9,-.4,-1.4,-1.2,-1.4Zm1.8,.6v.4c0,2.7,-.5,4.7,-1.5,6h2.8c.5,0,.8,0,.9,-.1c.1,-.1,.1,-.4,.1,-.9v-5.4Z" class="g9_43"/>
<path d="M688.2,784.1h6.5l.3,2.1h-.4c0,-.4,-.1,-.7,-.3,-1c-.2,-.2,-.3,-.3,-.5,-.4c-.2,-.1,-.6,-.1,-1,-.1h-.7v5.2c0,.6,0,.9,.1,1.1c.1,.1,.2,.2,.3,.3c.2,0,.6,0,1.1,.1v.3h-4.1v-.3c.5,-.1,.9,-.1,1,-.3c.2,-.2,.2,-.6,.2,-1.2v-5.2h-.6c-.5,0,-.8,0,-1,.1c-.2,0,-.3,.2,-.5,.4c-.1,.2,-.3,.5,-.4,1h-.3Z" class="g9_43"/>
<path d="M696.9,787c0,1.1,.3,2,.8,2.6c.6,.6,1.2,1,1.9,1c.5,0,1,-.2,1.3,-.5c.4,-.2,.7,-.7,.9,-1.3l.3,.1c-.1,.8,-.5,1.5,-1,2.1c-.6,.6,-1.3,.9,-2.1,.9c-.9,0,-1.7,-.4,-2.3,-1.1c-.7,-.7,-1,-1.6,-1,-2.8c0,-1.3,.4,-2.3,1,-3c.7,-.7,1.5,-1.1,2.5,-1.1c.8,0,1.5,.3,2.1,.9c.5,.5,.8,1.2,.8,2.2Zm0,-.5h3.5c-.1,-.5,-.1,-.8,-.2,-1c-.1,-.3,-.3,-.6,-.6,-.7c-.3,-.2,-.6,-.3,-.9,-.3c-.4,0,-.8,.2,-1.2,.5c-.3,.4,-.5,.9,-.6,1.5Z" class="g9_43"/>
<path d="M707.6,790.6c-.8,.6,-1.3,.9,-1.5,1c-.3,.1,-.6,.2,-.9,.2c-.6,0,-1,-.2,-1.3,-.5c-.4,-.4,-.5,-.8,-.5,-1.4c0,-.4,0,-.7,.2,-1c.2,-.3,.6,-.7,1.2,-1c.5,-.3,1.5,-.7,2.8,-1.2v-.3c0,-.8,-.2,-1.3,-.4,-1.6c-.2,-.2,-.6,-.4,-1,-.4c-.4,0,-.7,.1,-.9,.3c-.2,.2,-.3,.4,-.3,.6v.5c0,.3,0,.5,-.2,.6c-.1,.1,-.2,.2,-.5,.2c-.2,0,-.3,-.1,-.5,-.2c-.1,-.1,-.1,-.3,-.1,-.6c0,-.5,.2,-.9,.7,-1.3c.5,-.4,1.1,-.6,2,-.6c.7,0,1.2,.1,1.6,.4c.4,.1,.6,.4,.8,.8c.1,.2,.1,.7,.1,1.4v2.6c0,.7,0,1.1,0,1.3c.1,.1,.1,.2,.2,.3c0,.1,.1,.1,.2,.1c.1,0,.2,0,.2,-.1c.1,-.1,.4,-.3,.7,-.6v.5c-.6,.8,-1.2,1.2,-1.8,1.2c-.2,0,-.4,-.1,-.6,-.3c-.2,-.2,-.2,-.5,-.2,-.9m0,-.6v-2.8c-.9,.3,-1.4,.5,-1.6,.7c-.5,.2,-.8,.5,-1,.7c-.2,.3,-.3,.6,-.3,.9c0,.4,.2,.7,.4,1c.2,.2,.5,.4,.8,.4c.4,0,1,-.3,1.7,-.9Z" class="g9_43"/>
<path d="M710.2,784.1h6.5l.3,2.1h-.3c-.1,-.4,-.2,-.7,-.4,-1c-.1,-.2,-.3,-.3,-.5,-.4c-.2,-.1,-.5,-.1,-1,-.1h-.7v5.2c0,.6,.1,.9,.1,1.1c.1,.1,.2,.2,.4,.3c.1,0,.5,0,1,.1v.3h-4.1v-.3c.6,-.1,.9,-.1,1.1,-.3c.1,-.2,.2,-.6,.2,-1.2v-5.2h-.7c-.5,0,-.8,0,-1,.1c-.1,0,-.3,.2,-.4,.4c-.2,.2,-.3,.5,-.4,1h-.4Z" class="g9_43"/>
<path d="M717.6,784.1h4.9v.4c-.6,0,-.9,0,-1,0c-.2,.1,-.3,.2,-.3,.3c-.1,.1,-.2,.5,-.2,1.1v1.5h.7c.9,0,1.6,.1,2.1,.2c.5,.2,.9,.4,1.1,.8c.3,.3,.4,.7,.4,1.2c0,.6,-.2,1.1,-.8,1.5c-.5,.4,-1.3,.6,-2.5,.6h-3.5v-.3c.5,0,.8,-.1,.9,-.3c.2,-.2,.3,-.6,.3,-1.2v-5.2c-.7,0,-1.2,.1,-1.5,.3c-.2,.2,-.4,.6,-.6,1.2h-.4ZM721,791c.3,.1,.6,.1,.9,.1c.6,0,1.1,-.1,1.4,-.4c.3,-.4,.4,-.7,.4,-1.1c0,-.5,-.1,-.9,-.4,-1.2c-.4,-.3,-.8,-.4,-1.4,-.4c-.2,0,-.5,0,-.9,0Z" class="g9_43"/>
<path d="M725.8,784.9l2.3,-.9h.3v1.7c.4,-.6,.8,-1.1,1.2,-1.4c.4,-.2,.8,-.4,1.2,-.4c.8,0,1.4,.3,1.9,.9c.6,.7,1,1.7,1,2.8c0,1.3,-.4,2.4,-1.2,3.3c-.6,.6,-1.3,1,-2.3,1c-.4,0,-.7,-.1,-1,-.2c-.2,-.1,-.5,-.2,-.8,-.5v2.3c0,.5,.1,.9,.1,1c.1,.1,.2,.2,.4,.3c.1,.1,.4,.2,.8,.2v.3h-3.9V795h.2c.3,0,.5,-.1,.7,-.2c.2,-.1,.2,-.2,.3,-.3c0,-.1,.1,-.5,.1,-1v-7.1c0,-.5,0,-.8,-.1,-1c0,-.1,-.1,-.2,-.2,-.3c-.1,0,-.2,-.1,-.4,-.1c-.1,0,-.3,.1,-.5,.2Zm2.6,1.3V789c0,.6,.1,1,.1,1.2c.1,.3,.3,.6,.6,.8c.3,.3,.6,.4,1.1,.4c.5,0,1,-.2,1.3,-.6c.5,-.6,.7,-1.4,.7,-2.4c0,-1.1,-.3,-2,-.8,-2.6c-.3,-.5,-.7,-.7,-1.2,-.7c-.3,0,-.5,.1,-.8,.2c-.2,.1,-.5,.4,-1,.9Z" class="g9_43"/>
<path d="M520,645.1l2.4,-.1v.3c-.8,.2,-1.3,.4,-1.5,.8c-.2,.3,-.3,1,-.3,1.9v1.9H525v-.4c0,-1.4,.1,-2.4,.3,-3.1c.1,-.6,.5,-1.1,.9,-1.5c.5,-.4,1.1,-.6,1.8,-.6c.8,0,1.5,.3,2.2,.9c.6,.6,.9,1.7,.9,3.2v4.7h-.3c0,-.7,-.1,-1.2,-.3,-1.3c-.2,-.2,-.7,-.3,-1.4,-.3H522c-.6,0,-.9,0,-1.1,.1c-.2,.1,-.4,.2,-.5,.4c0,.2,-.1,.5,-.1,1H520Zm10.4,4.8c.1,-.5,.2,-.9,.2,-1.1c0,-.7,-.3,-1.3,-.7,-1.9c-.5,-.5,-1.1,-.8,-1.9,-.8c-.8,0,-1.4,.3,-1.8,.9c-.4,.6,-.6,1.3,-.6,2.1c0,.3,0,.5,.1,.8Zm-6.1,-6.2l-.9,-2.3v-.3h1.8c-.7,-.4,-1.2,-.8,-1.4,-1.2c-.3,-.3,-.4,-.8,-.4,-1.2c0,-.7,.3,-1.4,.9,-1.9c.7,-.6,1.6,-.9,2.8,-.9c1.3,0,2.3,.4,3.2,1.1c.7,.6,1,1.4,1,2.3c0,.4,0,.8,-.1,1.1c-.1,.2,-.3,.4,-.5,.7H533c.5,0,.8,0,.9,-.1c.2,0,.3,-.1,.4,-.3c.1,-.2,.1,-.4,.1,-.9h.3v4h-.3v-.2c0,-.3,-.1,-.6,-.2,-.8c0,-.1,-.1,-.2,-.3,-.2c-.1,-.1,-.4,-.1,-1,-.1h-7.1c-.5,0,-.8,0,-.9,0c-.2,.1,-.3,.2,-.3,.3c-.1,.1,-.1,.2,-.1,.3c0,.2,0,.3,.1,.5Zm1.3,-2.6h2.8c.7,0,1.1,0,1.2,-.1c.4,0,.6,-.2,.9,-.5c.2,-.3,.3,-.7,.3,-1.1c0,-.6,-.2,-1,-.6,-1.4c-.6,-.4,-1.3,-.6,-2.4,-.6c-1.1,0,-2,.2,-2.6,.7c-.4,.4,-.6,.8,-.6,1.3c0,.2,0,.5,.2,.7c.1,.2,.3,.6,.8,1m-2.2,-10c0,-1.1,.4,-2,1.3,-2.7c.7,-.6,1.6,-.9,2.5,-.9c.7,0,1.4,.2,2.1,.5c.6,.3,1.2,.8,1.5,1.3c.4,.6,.5,1.2,.5,1.9c0,1.1,-.4,2,-1.3,2.7c-.8,.6,-1.6,.9,-2.6,.9c-.7,0,-1.4,-.2,-2,-.6c-.7,-.3,-1.2,-.7,-1.5,-1.3c-.4,-.6,-.5,-1.2,-.5,-1.8m.5,.3c0,.3,.1,.6,.3,.9c.1,.2,.4,.5,.9,.7c.4,.1,1,.2,1.6,.2c1.1,0,2.1,-.2,2.9,-.6c.8,-.5,1.2,-1,1.2,-1.7c0,-.6,-.3,-1,-.7,-1.4c-.4,-.3,-1.2,-.5,-2.3,-.5c-1.3,0,-2.3,.3,-3.1,.9c-.5,.4,-.8,.9,-.8,1.5m-3.3,-6.3c-.2,0,-.4,0,-.5,-.1c-.1,-.2,-.2,-.3,-.2,-.5c0,-.3,.4,-.6,1.1,-.9c.3,-.2,.6,-.4,.7,-.6c.1,-.2,.1,-.4,.1,-.6c0,-.3,-.1,-.6,-.2,-.7c-.2,-.2,-.4,-.4,-.8,-.5c-.6,-.3,-.9,-.5,-.9,-.9c0,-.1,.1,-.3,.2,-.4c.1,-.1,.3,-.2,.5,-.2c.4,0,.8,.3,1.1,.9c.4,.5,.6,1.1,.6,1.8c0,.9,-.2,1.6,-.5,2c-.3,.5,-.7,.7,-1.2,.7m8.2,-1.1L525,620.8c-.4,0,-.7,.1,-.8,.2c-.2,.2,-.3,.4,-.3,.8h-.3v-3.5h.3c0,.4,0,.6,.1,.7c.1,.2,.2,.3,.3,.3c.1,.1,.4,.1,1.1,.1h3.9c.6,0,1,0,1.1,0c.1,-.1,.2,-.2,.3,-.3c.1,-.2,.1,-.4,.1,-.8h.3v3.6h-.3c0,-.4,-.1,-.7,-.2,-.9c-.2,-.1,-.6,-.2,-1.3,-.2h-3.5l3.8,3.2c.4,0,.8,0,.9,-.1c.2,-.2,.3,-.4,.3,-.8h.3v3.4h-.3c0,-.4,-.1,-.8,-.3,-.9c-.1,-.1,-.5,-.2,-1.2,-.2h-3.9c-.6,0,-1,0,-1.1,.1c-.1,.1,-.2,.1,-.3,.3c-.1,.1,-.1,.4,-.1,.7h-.3v-3.6h.3c0,.4,0,.6,.1,.7c.1,.2,.2,.3,.3,.3c.1,.1,.4,.1,1.1,.1Z" class="g9_43"/>
<path fill-rule="evenodd" d="M584.3,526.2H606V753H584.3V526.2Z" class="gh_43"/>
<path fill-rule="evenodd" d="M631.9,708h21.7v45H631.9V708Z" class="gh_43"/>
<path fill-rule="evenodd" d="M679.6,740.7h21.6V753H679.6V740.7Z" class="gh_43"/>
<path fill-rule="evenodd" d="M727.2,623.5h21.7V753H727.2V623.5Z" class="gh_43"/>
<path fill-rule="evenodd" d="M774.9,708h21.6v45H774.9V708Z" class="gh_43"/>
<path d="M590.1,759.4h9.2v.3c-.7,0,-1.1,.1,-1.3,.3c-.2,.2,-.3,.7,-.3,1.4v6.2c0,1.1,.1,1.9,.2,2.2c.1,.2,.6,.4,1.3,.4v3.5h-.3c-.1,-.8,-.4,-1.5,-.7,-2c-.4,-.5,-.8,-.8,-1.3,-1c-.5,-.1,-1,-.2,-1.7,-.2h-2.8c-1.2,0,-2.1,.3,-2.7,1c-.6,.7,-1,1.4,-1.1,2.2h-.3v-3.5c.9,-.1,1.6,-.6,2.2,-1.6c.6,-1,.9,-2.2,1.1,-3.6c.3,-1.4,.4,-2.6,.4,-3.5c0,-.6,-.1,-1,-.2,-1.2c-.2,-.3,-.3,-.4,-.5,-.5c-.2,-.1,-.6,-.1,-1.2,-.1Zm2.7,.6c-.1,3.2,-.4,5.5,-.8,6.8c-.4,1.3,-.9,2.3,-1.5,3.1h4.1c.7,0,1.2,-.1,1.3,-.2c.1,-.1,.2,-.6,.2,-1.3V760Z" class="g9_43"/>
<path d="M636.8,759.1c1.4,0,2.7,.6,3.7,1.7c1.1,1.1,1.6,2.4,1.6,4.1c0,1.7,-.5,3.1,-1.6,4.2c-1.1,1.1,-2.4,1.6,-3.9,1.6c-1.5,0,-2.8,-.5,-3.8,-1.6c-1.1,-1.1,-1.6,-2.5,-1.6,-4.2c0,-1.8,.6,-3.2,1.8,-4.3c1.1,-1,2.3,-1.5,3.8,-1.5m-.2,.6c-1,0,-1.8,.4,-2.4,1.1c-.7,.9,-1.1,2.3,-1.1,4.1c0,1.8,.4,3.2,1.1,4.1c.6,.8,1.4,1.2,2.4,1.2c1.1,0,1.9,-.4,2.6,-1.3c.7,-.8,1,-2.1,1,-3.8c0,-1.9,-.4,-3.3,-1.1,-4.3c-.6,-.7,-1.4,-1.1,-2.5,-1.1Z" class="g9_43"/>
<path d="M651,759.4l.1,2.4h-.3c-.1,-.8,-.4,-1.3,-.8,-1.5c-.3,-.2,-1,-.3,-1.9,-.3h-1.9v4.4h.5c1.3,0,2.3,.1,3,.2c.6,.2,1.1,.5,1.5,1c.4,.5,.6,1.1,.6,1.8c0,.8,-.3,1.5,-.9,2.2c-.6,.6,-1.6,.9,-3.1,.9H643v-.3c.7,0,1.2,-.1,1.4,-.3c.2,-.2,.3,-.7,.3,-1.4v-7.1c0,-.6,-.1,-1,-.2,-1.1c0,-.2,-.2,-.4,-.4,-.5c-.1,-.1,-.5,-.1,-1,-.1v-.3Zm-4.8,10.4c.5,.1,.9,.1,1.2,.1c.6,0,1.2,-.2,1.8,-.6c.5,-.5,.8,-1.1,.8,-1.9c0,-.8,-.3,-1.4,-.9,-1.8c-.5,-.4,-1.3,-.6,-2.1,-.6c-.3,0,-.5,0,-.8,.1Z" class="g9_43"/>
<path d="M689.2,759.1c1.5,0,2.7,.6,3.8,1.7c1,1.1,1.6,2.4,1.6,4.1c0,1.7,-.6,3.1,-1.6,4.2c-1.1,1.1,-2.4,1.6,-3.9,1.6c-1.5,0,-2.8,-.5,-3.9,-1.6c-1,-1.1,-1.5,-2.5,-1.5,-4.2c0,-1.8,.6,-3.2,1.8,-4.3c1,-1,2.3,-1.5,3.7,-1.5m-.1,.6c-1,0,-1.8,.4,-2.4,1.1c-.8,.9,-1.2,2.3,-1.2,4.1c0,1.8,.4,3.2,1.2,4.1c.6,.8,1.4,1.2,2.4,1.2c1,0,1.9,-.4,2.6,-1.3c.6,-.8,1,-2.1,1,-3.8c0,-1.9,-.4,-3.3,-1.1,-4.3c-.6,-.7,-1.5,-1.1,-2.5,-1.1Z" class="g9_43"/>
<path d="M742.3,770.2v.3h-2.8c-.4,-.5,-1,-1.4,-2,-2.8c-1,-1.4,-1.6,-2.2,-1.8,-2.3c-.3,-.2,-.6,-.3,-1,-.3v3.4c0,.7,.1,1.2,.2,1.4c.2,.2,.7,.3,1.4,.3v.3h-4.8v-.3c.7,0,1.1,-.1,1.3,-.3c.2,-.2,.3,-.7,.3,-1.4v-7.1c0,-.7,-.1,-1.2,-.3,-1.4c-.2,-.2,-.6,-.3,-1.3,-.3v-.3h4.8v.3c-.7,0,-1.2,.1,-1.4,.3c-.1,.2,-.2,.7,-.2,1.4v3.1c.6,0,1,-.1,1.2,-.1c.2,-.1,.5,-.3,.8,-.5c.3,-.3,.5,-.6,.7,-.9c.1,-.3,.3,-.8,.6,-1.5c.2,-.6,.5,-1.1,.6,-1.3c.2,-.3,.4,-.5,.8,-.7c.3,-.2,.7,-.3,1.2,-.3c.8,0,1.3,.3,1.3,.9c0,.2,-.1,.4,-.3,.6c-.2,.1,-.4,.2,-.6,.2c-.1,0,-.4,-.1,-.7,-.3c-.4,-.1,-.6,-.2,-.7,-.2c-.2,0,-.3,.1,-.5,.3c-.1,.1,-.3,.6,-.6,1.4c-.5,1.4,-1.2,2.3,-2,2.6c.5,.1,1.2,.8,2.1,2.1c.9,1.3,1.6,2.2,2.1,2.7c.4,.4,1,.7,1.6,.7Z" class="g9_43"/>
<path d="M775.1,759.4h9.1v.3c-.6,0,-1.1,.1,-1.3,.3c-.2,.2,-.3,.7,-.3,1.4v6.2c0,1.1,.1,1.9,.2,2.2c.2,.2,.6,.4,1.4,.4v3.5h-.3c-.2,-.8,-.4,-1.5,-.8,-2c-.4,-.5,-.8,-.8,-1.2,-1c-.5,-.1,-1.1,-.2,-1.7,-.2h-2.8c-1.3,0,-2.2,.3,-2.8,1c-.6,.7,-.9,1.4,-1,2.2h-.3v-3.5c.9,-.1,1.6,-.6,2.1,-1.6c.6,-1,1,-2.2,1.2,-3.6c.2,-1.4,.3,-2.6,.3,-3.5c0,-.6,-.1,-1,-.2,-1.2c-.1,-.3,-.3,-.4,-.5,-.5c-.2,-.1,-.6,-.1,-1.1,-.1Zm2.6,.6c-.1,3.2,-.4,5.5,-.7,6.8c-.4,1.3,-.9,2.3,-1.6,3.1h4.1c.8,0,1.2,-.1,1.4,-.2c.1,-.1,.2,-.6,.2,-1.3V760Z" class="g9_43"/>
<path d="M795.7,770.2v.3h-2.9c-.3,-.5,-.9,-1.4,-1.9,-2.8c-1,-1.4,-1.7,-2.2,-1.9,-2.3c-.2,-.2,-.5,-.3,-1,-.3v3.4c0,.7,.1,1.2,.3,1.4c.2,.2,.6,.3,1.3,.3v.3h-4.8v-.3c.7,0,1.2,-.1,1.4,-.3c.2,-.2,.3,-.7,.3,-1.4v-7.1c0,-.7,-.1,-1.2,-.3,-1.4c-.2,-.2,-.7,-.3,-1.4,-.3v-.3h4.8v.3c-.7,0,-1.1,.1,-1.3,.3c-.2,.2,-.3,.7,-.3,1.4v3.1c.6,0,1,-.1,1.3,-.1c.2,-.1,.5,-.3,.7,-.5c.3,-.3,.6,-.6,.7,-.9c.2,-.3,.4,-.8,.7,-1.5c.2,-.6,.4,-1.1,.6,-1.3c.1,-.3,.4,-.5,.7,-.7c.4,-.2,.8,-.3,1.3,-.3c.8,0,1.2,.3,1.2,.9c0,.2,-.1,.4,-.2,.6c-.2,.1,-.4,.2,-.6,.2c-.2,0,-.4,-.1,-.8,-.3c-.3,-.1,-.5,-.2,-.6,-.2c-.2,0,-.4,.1,-.5,.3c-.1,.1,-.3,.6,-.6,1.4c-.5,1.4,-1.2,2.3,-2,2.6c.5,.1,1.2,.8,2.1,2.1c.9,1.3,1.6,2.2,2,2.7c.5,.4,1,.7,1.7,.7Z" class="g9_43"/>
<path d="M184.4,1079H835.6V839.7H184.4V1079Z" class="gi_43"/>
<path d="M73.3,840.6H836.6" class="ga_43"/>
<path d="M560.6,1023H820.5m-259.9,-6.5H820.5m-259.9,-6.4H820.5m-259.9,-6.5H820.5" class="gj_43"/>
<path d="M560.6,997.1H820.5" class="gk_43"/>
<path d="M560.6,990.6H820.5M560.6,984.1H820.5M560.6,977.6H820.5M560.6,971.1H820.5" class="gj_43"/>
<path d="M560.6,964.6H820.5" class="gk_43"/>
<path d="M560.6,958.1H820.5M560.6,951.6H820.5M560.6,945.1H820.5M560.6,938.6H820.5" class="gj_43"/>
<path d="M560.6,932.1H820.5" class="gk_43"/>
<path d="M560.6,925.6H820.5M560.6,919.1H820.5M560.6,912.6H820.5M560.6,906.1H820.5" class="gj_43"/>
<path d="M560.6,899.6H820.5" class="gk_43"/>
<path d="M560.6,893.1H820.5M560.6,886.6H820.5M560.6,880.1H820.5M560.6,873.6H820.5" class="gj_43"/>
<path d="M560.6,867.1H820.5" class="gk_43"/>
<path d="M560.6,859.3v170.9" class="gg_43"/>
<path fill-rule="evenodd" d="M560.6,853.8l4.6,10.8c-3,-1.5,-6.1,-1.5,-9.2,0Z" class="g9_43"/>
<path d="M824.5,1029.5H561.2" class="gg_43"/>
<path fill-rule="evenodd" d="M829.9,1029.5l-10.8,4.7c1.6,-3.1,1.6,-6.2,0,-9.3Z" class="g9_43"/>
<path d="M547.5,1036.5c0,-1.2,.2,-2.3,.6,-3.3c.3,-.9,.9,-1.6,1.5,-2c.5,-.4,1,-.5,1.5,-.5c.9,0,1.6,.4,2.3,1.3c.9,1,1.3,2.5,1.3,4.4c0,1.2,-.2,2.3,-.6,3.2c-.3,.9,-.8,1.6,-1.4,2c-.6,.4,-1.1,.6,-1.7,.6c-1,0,-1.9,-.6,-2.6,-1.9c-.6,-1,-.9,-2.3,-.9,-3.8m1.6,.2c0,1.6,.2,2.8,.6,3.8c.3,.8,.7,1.2,1.4,1.2c.3,0,.6,-.1,.9,-.4c.3,-.3,.5,-.7,.7,-1.3c.2,-1,.4,-2.3,.4,-4c0,-1.3,-.2,-2.3,-.4,-3.2c-.2,-.6,-.5,-1.1,-.8,-1.3c-.2,-.2,-.5,-.3,-.8,-.3c-.4,0,-.7,.2,-1,.5c-.4,.5,-.6,1.2,-.8,2.1c-.1,1,-.2,2,-.2,2.9Z" class="g9_43"/>
<path d="M553.2,992.4l-.6,1.4h-3.4l-.7,1.5c1.4,.2,2.6,.8,3.4,1.6c.8,.8,1.1,1.6,1.1,2.7c0,.5,-.1,1.1,-.3,1.6c-.3,.5,-.6,.9,-.9,1.2c-.4,.4,-.8,.7,-1.2,.9c-.7,.3,-1.3,.4,-2,.4c-.6,0,-1.1,-.1,-1.4,-.3c-.3,-.2,-.5,-.5,-.5,-.7c0,-.2,.1,-.3,.2,-.5c.1,-.1,.3,-.1,.5,-.1c.1,0,.2,0,.4,0c.1,.1,.2,.2,.5,.4c.4,.3,.8,.4,1.2,.4c.7,0,1.3,-.2,1.7,-.7c.5,-.5,.8,-1.1,.8,-1.8c0,-.7,-.3,-1.3,-.7,-1.9c-.4,-.6,-1,-1,-1.8,-1.3c-.6,-.3,-1.4,-.4,-2.4,-.5l2.1,-4.3Z" class="g9_43"/>
<path d="M539.5,959.6l2.7,-1.3h.3v9.4c0,.6,0,1,0,1.2c.1,.1,.2,.2,.4,.3c.1,.1,.5,.2,1,.2v.3h-4.2v-.3c.5,0,.8,-.1,1,-.2c.1,0,.3,-.1,.3,-.3c.1,-.1,.1,-.5,.1,-1.2v-6c0,-.8,0,-1.3,-.1,-1.6c0,-.1,-.1,-.3,-.2,-.3c-.1,-.1,-.2,-.2,-.4,-.2c-.2,0,-.4,.1,-.8,.3Z" class="g9_43"/>
<path d="M546.5,964.2c0,-1.3,.2,-2.4,.6,-3.3c.4,-.9,.9,-1.6,1.5,-2c.5,-.4,1,-.6,1.5,-.6c.9,0,1.7,.5,2.3,1.3c.9,1.1,1.3,2.6,1.3,4.4c0,1.3,-.2,2.4,-.5,3.3c-.4,.9,-.9,1.6,-1.5,2c-.5,.4,-1.1,.6,-1.6,.6c-1.1,0,-2,-.7,-2.7,-1.9c-.6,-1.1,-.9,-2.3,-.9,-3.8m1.6,.2c0,1.5,.2,2.8,.6,3.7c.3,.8,.8,1.3,1.4,1.3c.3,0,.6,-.2,.9,-.4c.3,-.3,.6,-.8,.7,-1.4c.3,-.9,.4,-2.2,.4,-4c0,-1.2,-.1,-2.3,-.4,-3.1c-.2,-.7,-.4,-1.1,-.7,-1.4c-.3,-.1,-.5,-.2,-.9,-.2c-.3,0,-.7,.1,-1,.5c-.3,.4,-.6,1.1,-.8,2.1c-.1,1,-.2,1.9,-.2,2.9Z" class="g9_43"/>
<path d="M539.5,927.7l2.7,-1.3h.3v9.4c0,.6,0,1,0,1.1c.1,.2,.2,.3,.4,.4c.1,.1,.5,.1,1,.1v.3h-4.2v-.3c.5,0,.8,0,1,-.1c.1,-.1,.3,-.2,.3,-.3c.1,-.2,.1,-.6,.1,-1.2v-6c0,-.8,0,-1.4,-.1,-1.6c0,-.2,-.1,-.3,-.2,-.4c-.1,-.1,-.2,-.1,-.4,-.1c-.2,0,-.4,.1,-.8,.3Z" class="g9_43"/>
<path d="M553.2,926.6l-.6,1.4h-3.4l-.7,1.5c1.4,.2,2.6,.7,3.4,1.6c.8,.8,1.1,1.6,1.1,2.6c0,.6,-.1,1.2,-.3,1.7c-.3,.5,-.6,.9,-.9,1.2c-.4,.4,-.8,.7,-1.2,.9c-.7,.3,-1.3,.4,-2,.4c-.6,0,-1.1,-.1,-1.4,-.3c-.3,-.2,-.5,-.5,-.5,-.8c0,-.1,.1,-.2,.2,-.4c.1,-.1,.3,-.1,.5,-.1c.1,0,.2,0,.4,0c.1,.1,.2,.2,.5,.4c.4,.2,.8,.4,1.2,.4c.7,0,1.3,-.3,1.7,-.7c.5,-.5,.8,-1.1,.8,-1.8c0,-.7,-.3,-1.3,-.7,-1.9c-.4,-.6,-1,-1,-1.8,-1.3c-.6,-.3,-1.4,-.4,-2.4,-.5l2.1,-4.3Z" class="g9_43"/>
<path d="M545.2,903.7l-.8,2.1h-6.5v-.3c1.9,-1.8,3.3,-3.2,4,-4.3c.8,-1.1,1.2,-2.2,1.2,-3.1c0,-.7,-.2,-1.3,-.6,-1.7c-.5,-.5,-1,-.7,-1.6,-.7c-.5,0,-1,.2,-1.4,.5c-.5,.3,-.8,.8,-1,1.4h-.3c.1,-1,.5,-1.8,1,-2.4c.6,-.5,1.3,-.8,2.2,-.8c.9,0,1.6,.3,2.2,.9c.6,.6,.9,1.3,.9,2.1c0,.5,-.1,1.1,-.4,1.7c-.4,.8,-1,1.8,-1.9,2.8c-1.4,1.5,-2.2,2.3,-2.6,2.7h2.9c.6,0,1,-.1,1.3,-.1c.2,-.1,.4,-.1,.6,-.3c.2,-.1,.4,-.3,.5,-.5Z" class="g9_43"/>
<path d="M546.5,900.3c0,-1.3,.2,-2.4,.6,-3.3c.4,-.9,.9,-1.6,1.5,-2c.5,-.4,1,-.6,1.5,-.6c.9,0,1.7,.5,2.3,1.3c.9,1.1,1.3,2.6,1.3,4.4c0,1.3,-.2,2.4,-.5,3.3c-.4,.9,-.9,1.6,-1.5,2c-.5,.4,-1.1,.6,-1.6,.6c-1.1,0,-2,-.6,-2.7,-1.9c-.6,-1,-.9,-2.3,-.9,-3.8m1.6,.2c0,1.5,.2,2.8,.6,3.8c.3,.8,.8,1.2,1.4,1.2c.3,0,.6,-.2,.9,-.4c.3,-.3,.6,-.7,.7,-1.4c.3,-.9,.4,-2.2,.4,-3.9c0,-1.3,-.1,-2.4,-.4,-3.2c-.2,-.6,-.4,-1.1,-.7,-1.4c-.3,-.1,-.5,-.2,-.9,-.2c-.3,0,-.7,.1,-1,.5c-.3,.4,-.6,1.1,-.8,2.1c-.1,1,-.2,2,-.2,2.9Z" class="g9_43"/>
<path d="M545.2,871.1l-.8,2.1h-6.5v-.3c1.9,-1.7,3.3,-3.2,4,-4.3c.8,-1.1,1.2,-2.1,1.2,-3c0,-.7,-.2,-1.3,-.6,-1.8c-.5,-.4,-1,-.7,-1.6,-.7c-.5,0,-1,.2,-1.4,.5c-.5,.3,-.8,.8,-1,1.4h-.3c.1,-1,.5,-1.8,1,-2.3c.6,-.5,1.3,-.8,2.2,-.8c.9,0,1.6,.3,2.2,.9c.6,.5,.9,1.2,.9,2c0,.6,-.1,1.1,-.4,1.7c-.4,.9,-1,1.8,-1.9,2.8c-1.4,1.5,-2.2,2.4,-2.6,2.7h2.9c.6,0,1,0,1.3,-.1c.2,0,.4,-.1,.6,-.2c.2,-.2,.4,-.4,.5,-.6Z" class="g9_43"/>
<path d="M553.2,862.1l-.6,1.4h-3.4l-.7,1.5c1.4,.2,2.6,.8,3.4,1.6c.8,.8,1.1,1.6,1.1,2.6c0,.6,-.1,1.2,-.3,1.7c-.3,.5,-.6,.9,-.9,1.2c-.4,.4,-.8,.7,-1.2,.9c-.7,.3,-1.3,.4,-2,.4c-.6,0,-1.1,-.1,-1.4,-.3c-.3,-.2,-.5,-.5,-.5,-.8c0,-.1,.1,-.2,.2,-.4c.1,-.1,.3,-.1,.5,-.1c.1,0,.2,0,.4,0c.1,.1,.2,.2,.5,.4c.4,.2,.8,.4,1.2,.4c.7,0,1.3,-.3,1.7,-.7c.5,-.5,.8,-1.1,.8,-1.8c0,-.7,-.3,-1.3,-.7,-1.9c-.4,-.6,-1,-1,-1.8,-1.3c-.6,-.3,-1.4,-.4,-2.4,-.5l2.1,-4.3Z" class="g9_43"/>
<path d="M658.8,1062.7v3.2c0,.7,.1,1.1,.3,1.3c.2,.3,.5,.4,.9,.4h.4v.3h-4.7v-.3h.4c.5,0,.8,-.2,1,-.5c.1,-.2,.2,-.6,.2,-1.2v-7.2c0,-.7,-.1,-1.1,-.2,-1.3c-.3,-.2,-.6,-.3,-1,-.3h-.4v-.3h4.1c1,0,1.7,.1,2.3,.3c.6,.2,1.1,.5,1.5,1c.4,.5,.6,1.1,.6,1.7c0,.9,-.3,1.7,-.9,2.2c-.6,.6,-1.5,.9,-2.6,.9c-.2,0,-.5,0,-.9,-.1c-.3,0,-.6,-.1,-1,-.1m0,-.5c.3,.1,.6,.1,.8,.1c.2,.1,.4,.1,.6,.1c.6,0,1.1,-.3,1.5,-.7c.4,-.4,.6,-1,.6,-1.7c0,-.5,-.1,-.9,-.3,-1.3c-.2,-.5,-.5,-.8,-.8,-1c-.4,-.2,-.8,-.3,-1.3,-.3c-.3,0,-.6,.1,-1.1,.2Z" class="g9_43"/>
<path d="M669.5,1066.8c-.7,.6,-1.2,.9,-1.4,1c-.3,.2,-.6,.2,-1,.2c-.5,0,-.9,-.1,-1.2,-.5c-.4,-.4,-.6,-.8,-.6,-1.4c0,-.4,.1,-.7,.3,-1c.2,-.3,.6,-.7,1.2,-1c.5,-.3,1.4,-.7,2.7,-1.2v-.3c0,-.7,-.1,-1.3,-.3,-1.5c-.3,-.3,-.6,-.5,-1.1,-.5c-.3,0,-.6,.1,-.8,.3c-.2,.2,-.3,.4,-.3,.7v.4c0,.3,0,.5,-.2,.6c-.1,.2,-.3,.2,-.5,.2c-.2,0,-.3,0,-.5,-.2c-.1,-.1,-.2,-.3,-.2,-.6c0,-.4,.3,-.9,.8,-1.3c.4,-.4,1.1,-.6,2,-.6c.7,0,1.2,.2,1.6,.4c.3,.1,.6,.4,.7,.8c.1,.2,.2,.7,.2,1.4v2.6c0,.7,0,1.1,0,1.3c.1,.1,.1,.3,.2,.3c0,.1,.1,.1,.2,.1q.1,0,.2,-.1c.1,0,.3,-.2,.7,-.6v.5c-.6,.8,-1.2,1.2,-1.8,1.2c-.2,0,-.5,-.1,-.6,-.3c-.2,-.1,-.3,-.5,-.3,-.9m0,-.5v-2.9c-.8,.3,-1.3,.6,-1.6,.7c-.4,.2,-.7,.5,-.9,.8c-.2,.2,-.3,.5,-.3,.8c0,.4,.1,.7,.4,1c.2,.3,.5,.4,.8,.4c.4,0,1,-.3,1.6,-.8Z" class="g9_43"/>
<path d="M674,1057.4c0,-.2,.1,-.4,.2,-.5c.1,-.1,.2,-.2,.4,-.2c.3,0,.7,.4,.9,1c.2,.4,.4,.7,.6,.7c.2,.1,.4,.2,.6,.2c.3,0,.6,-.1,.8,-.2c.1,-.2,.3,-.4,.5,-.8c.2,-.6,.5,-.9,.8,-.9c.2,0,.3,.1,.4,.2c.1,.1,.2,.3,.2,.4c0,.5,-.3,.8,-.8,1.2c-.6,.4,-1.2,.6,-1.9,.6c-.9,0,-1.6,-.2,-2,-.5c-.5,-.4,-.7,-.8,-.7,-1.2m1.1,8.2l3.2,-3.8c0,-.4,-.1,-.7,-.2,-.9c-.2,-.1,-.4,-.2,-.8,-.2v-.3h3.5v.3c-.3,0,-.6,0,-.7,.1c-.1,.1,-.2,.2,-.3,.3c-.1,.1,-.1,.4,-.1,1v4c0,.6,0,.9,.1,1.1c0,.1,.1,.2,.3,.2c.1,.1,.3,.2,.7,.2v.3h-3.6v-.3c.4,0,.7,-.1,.9,-.3c.2,-.1,.2,-.5,.2,-1.2v-3.5l-3.2,3.7c0,.5,.1,.8,.2,1c.1,.2,.4,.3,.8,.3v.3h-3.5v-.3c.5,0,.8,-.1,.9,-.3c.2,-.2,.2,-.6,.2,-1.2v-4c0,-.6,0,-.9,-.1,-1c0,-.1,-.1,-.2,-.2,-.3c-.2,-.1,-.4,-.1,-.8,-.1v-.3h3.6v.3c-.3,0,-.6,0,-.7,.1c-.1,.1,-.2,.2,-.3,.3c-.1,.1,-.1,.4,-.1,1Z" class="g9_43"/>
<path d="M685.4,1060.1c1.1,0,2.1,.5,2.7,1.3c.6,.8,.9,1.6,.9,2.6c0,.7,-.1,1.3,-.5,2c-.3,.7,-.7,1.2,-1.3,1.6c-.6,.3,-1.2,.5,-1.9,.5c-1.1,0,-2,-.4,-2.7,-1.3c-.6,-.8,-.8,-1.7,-.8,-2.6c0,-.7,.1,-1.4,.5,-2.1c.3,-.6,.8,-1.1,1.3,-1.5c.6,-.3,1.2,-.5,1.8,-.5m-.3,.6c-.2,0,-.5,.1,-.8,.2c-.3,.2,-.6,.5,-.7,.9c-.2,.5,-.3,1,-.3,1.7c0,1.1,.2,2,.6,2.8c.5,.8,1.1,1.2,1.8,1.2c.5,0,.9,-.2,1.3,-.6c.3,-.5,.5,-1.2,.5,-2.3c0,-1.3,-.3,-2.4,-.9,-3.1c-.4,-.6,-.9,-.8,-1.5,-.8Z" class="g9_43"/>
<path d="M692.5,1063.7h3.2v-1.6c0,-.4,0,-.8,0,-.9c-.1,-.1,-.2,-.3,-.3,-.4c-.2,-.1,-.4,-.1,-.8,-.1v-.3h3.6v.3c-.3,0,-.6,0,-.7,.1c-.2,.1,-.3,.2,-.3,.3c-.1,.2,-.1,.5,-.1,1v4c0,.5,0,.8,0,1c.1,.1,.2,.2,.3,.3c.2,.1,.5,.2,.8,.2v.3h-3.6v-.3c.4,0,.7,-.1,.9,-.3c.1,-.1,.2,-.5,.2,-1.2v-1.8h-3.2v1.8c0,.5,0,.8,0,1c.1,.1,.2,.2,.3,.3c.2,.1,.5,.2,.8,.2v.3H690v-.3c.5,0,.8,-.1,.9,-.3c.2,-.2,.2,-.6,.2,-1.2v-4c0,-.4,0,-.8,0,-.9c-.1,-.2,-.2,-.3,-.3,-.4c-.2,-.1,-.5,-.1,-.8,-.1v-.3h3.6v.3c-.3,0,-.6,0,-.7,.1c-.2,.1,-.3,.2,-.3,.3c-.1,.2,-.1,.5,-.1,1Z" class="g9_43"/>
<path d="M520.7,976.2l2.4,-.2v.3c-.7,.2,-1.2,.5,-1.5,.8c-.2,.4,-.3,1.1,-.3,2V981h4.4v-.5c0,-1.4,.1,-2.4,.3,-3c.2,-.6,.5,-1.2,1,-1.6c.5,-.4,1.1,-.6,1.7,-.6c.9,0,1.6,.3,2.2,1c.6,.6,.9,1.6,.9,3.1v4.7h-.3c0,-.7,-.1,-1.1,-.3,-1.3c-.2,-.2,-.6,-.3,-1.4,-.3h-7.1c-.5,0,-.9,.1,-1.1,.1c-.2,.1,-.3,.3,-.4,.4c-.1,.2,-.1,.6,-.2,1h-.3Zm10.5,4.8c.1,-.5,.1,-.9,.1,-1.2c0,-.6,-.2,-1.3,-.7,-1.8c-.4,-.5,-1,-.8,-1.8,-.8c-.9,0,-1.5,.3,-1.9,.8c-.4,.6,-.6,1.3,-.6,2.2c0,.3,.1,.5,.1,.8Zm-6.1,-6.2l-1,-2.3v-.3h1.8c-.7,-.4,-1.1,-.8,-1.4,-1.2c-.3,-.4,-.4,-.8,-.4,-1.2c0,-.8,.3,-1.4,.9,-1.9c.7,-.6,1.7,-.9,2.8,-.9c1.3,0,2.4,.3,3.2,1.1c.7,.6,1.1,1.4,1.1,2.3c0,.4,-.1,.7,-.2,1c-.1,.3,-.2,.5,-.5,.8h2.3c.5,0,.8,-.1,1,-.1c.1,-.1,.2,-.2,.3,-.3c.1,-.2,.1,-.5,.1,-.9h.3v3.9h-.3v-.2c0,-.3,0,-.5,-.1,-.7c-.1,-.1,-.2,-.2,-.3,-.3c-.2,0,-.5,-.1,-1,-.1h-7.2c-.4,0,-.8,.1,-.9,.1c-.1,0,-.2,.1,-.3,.2c0,.1,-.1,.2,-.1,.4c0,.1,.1,.3,.1,.5Zm1.3,-2.6h2.8c.6,0,1,0,1.2,-.1c.3,-.1,.6,-.3,.8,-.6c.3,-.3,.4,-.6,.4,-1.1c0,-.5,-.2,-1,-.7,-1.3c-.5,-.5,-1.3,-.7,-2.3,-.7c-1.2,0,-2,.3,-2.7,.8c-.4,.3,-.6,.7,-.6,1.2c0,.3,.1,.5,.2,.8c.1,.2,.4,.5,.9,1m-2.3,-10c0,-1.2,.4,-2.1,1.3,-2.8c.7,-.5,1.6,-.8,2.5,-.8c.7,0,1.4,.1,2.1,.4c.7,.4,1.2,.8,1.6,1.4c.3,.5,.5,1.2,.5,1.9c0,1.1,-.5,2,-1.4,2.7c-.7,.5,-1.6,.8,-2.5,.8c-.7,0,-1.4,-.2,-2.1,-.5c-.7,-.3,-1.2,-.8,-1.5,-1.3c-.3,-.6,-.5,-1.2,-.5,-1.8m.5,.2c0,.3,.1,.6,.3,.9c.2,.3,.5,.5,.9,.7c.4,.2,1,.3,1.7,.3c1.1,0,2,-.2,2.8,-.7c.8,-.4,1.2,-1,1.2,-1.7c0,-.5,-.2,-.9,-.7,-1.3c-.4,-.3,-1.2,-.5,-2.2,-.5c-1.4,0,-2.4,.3,-3.2,.9c-.5,.3,-.8,.8,-.8,1.4m-3.3,-6.2c-.2,0,-.3,-.1,-.4,-.2c-.2,-.1,-.2,-.2,-.2,-.4c0,-.4,.3,-.7,1,-1c.4,-.1,.6,-.3,.7,-.5c.1,-.2,.2,-.4,.2,-.6c0,-.3,-.1,-.6,-.3,-.8c-.1,-.2,-.4,-.3,-.8,-.5c-.5,-.2,-.8,-.5,-.8,-.8c0,-.2,0,-.3,.2,-.4c.1,-.2,.2,-.2,.4,-.2c.4,0,.8,.3,1.2,.8c.3,.6,.5,1.2,.5,1.9c0,.9,-.1,1.6,-.5,2c-.3,.5,-.7,.7,-1.2,.7m8.2,-1.1l-3.7,-3.2c-.4,0,-.7,0,-.9,.2c-.2,.1,-.3,.4,-.3,.8h-.3v-3.5h.3c0,.3,.1,.6,.2,.7c0,.1,.1,.2,.2,.3c.1,.1,.5,.1,1.1,.1h4c.6,0,.9,0,1,-.1c.1,0,.2,-.1,.3,-.3c.1,-.1,.1,-.4,.1,-.7h.3V953h-.3c0,-.5,0,-.8,-.2,-.9c-.2,-.2,-.6,-.2,-1.2,-.2h-3.6l3.8,3.2c.5,0,.8,-.1,1,-.2c.1,-.1,.2,-.4,.2,-.8h.3v3.5h-.3c0,-.5,0,-.8,-.2,-.9c-.2,-.2,-.6,-.2,-1.2,-.2h-4c-.6,0,-.9,0,-1,.1c-.2,0,-.2,.1,-.3,.2c-.1,.2,-.2,.4,-.2,.8h-.3V954h.3c0,.3,.1,.6,.2,.7c0,.1,.1,.2,.2,.3c.1,.1,.5,.1,1.1,.1Zm2.3,-18.4v2.2c-1,.7,-2,1.3,-3,1.9c-.3,.1,-.5,.3,-.6,.4c-.1,.1,-.1,.2,-.1,.4c0,.1,0,.2,0,.3h2c.5,0,.9,0,1,-.1c.2,0,.3,-.2,.3,-.3c.1,-.2,.1,-.5,.1,-.9h.3v3.8h-.3c0,-.5,0,-.8,-.2,-.9c-.2,-.2,-.6,-.2,-1.2,-.2h-4c-.6,0,-.9,0,-1,.1c-.2,0,-.2,.1,-.3,.2c-.1,.2,-.2,.4,-.2,.8h-.3v-3.8h.3c0,.5,.1,.8,.1,.9c.1,.1,.2,.2,.3,.3c.1,.1,.4,.1,1.1,.1h1.5c0,-.1,0,-.2,0,-.2c0,-.4,-.1,-.7,-.3,-1c-.2,-.3,-.6,-.5,-1.2,-.8c-.6,-.2,-1,-.4,-1.2,-.5c-.2,-.1,-.3,-.3,-.5,-.6c-.1,-.2,-.2,-.5,-.2,-.8c0,-.3,.1,-.5,.3,-.7c.1,-.1,.3,-.2,.5,-.2c.2,0,.4,0,.5,.2c.1,.1,.2,.3,.2,.5c0,.1,0,.3,-.1,.4c-.1,.3,-.1,.4,-.1,.6c0,.2,.2,.4,.6,.6c.5,.2,.8,.3,1,.4c.1,.1,.3,.3,.6,.5c0,-.2,.1,-.4,.3,-.6c.2,-.2,.8,-.5,1.8,-1.1c.7,-.4,1.2,-.7,1.4,-.9c.2,-.3,.3,-.6,.3,-1Zm-2.3,-3l-3.7,-3.2c-.4,0,-.7,.1,-.9,.2c-.2,.2,-.3,.4,-.3,.8h-.3V928h.3c0,.4,.1,.6,.2,.7c0,.2,.1,.3,.2,.3c.1,.1,.5,.1,1.1,.1h4c.6,0,.9,0,1,0c.1,-.1,.2,-.2,.3,-.3c.1,-.2,.1,-.4,.1,-.8h.3v3.6h-.3c0,-.4,0,-.7,-.2,-.9c-.2,-.1,-.6,-.2,-1.2,-.2h-3.6l3.8,3.2c.5,0,.8,0,1,-.2c.1,-.1,.2,-.3,.2,-.7h.3v3.4h-.3c0,-.4,0,-.8,-.2,-.9c-.2,-.1,-.6,-.2,-1.2,-.2h-4c-.6,0,-.9,0,-1,.1q-.2,.1,-.3,.3c-.1,.1,-.2,.4,-.2,.7h-.3v-3.6h.3c0,.4,.1,.6,.2,.7c0,.2,.1,.3,.2,.3c.1,.1,.5,.1,1.1,.1Zm-1.8,-8.9v-3.3h-1.6c-.5,0,-.8,0,-.9,.1c-.2,0,-.3,.1,-.4,.2c-.1,.2,-.2,.5,-.2,.8h-.3V919h.3c0,.3,.1,.6,.2,.8c0,.1,.1,.2,.3,.3c.1,0,.5,0,1,0h4c.5,0,.8,0,.9,0c.2,-.1,.3,-.2,.4,-.3c.1,-.2,.1,-.4,.1,-.8h.3v3.6h-.3c0,-.4,0,-.7,-.2,-.9c-.2,-.1,-.6,-.2,-1.2,-.2h-1.9v3.3h1.9c.5,0,.8,-.1,.9,-.1c.2,0,.3,-.2,.4,-.3c.1,-.2,.1,-.4,.1,-.8h.3v3.6h-.3c0,-.4,0,-.8,-.2,-.9c-.2,-.1,-.6,-.2,-1.2,-.2h-4c-.5,0,-.8,0,-1,.1c-.1,0,-.2,.1,-.3,.3c-.1,.1,-.2,.4,-.2,.7h-.3v-3.6h.3c0,.4,.1,.6,.2,.8c0,.1,.1,.2,.3,.3c.1,0,.5,.1,1,.1Zm3.1,-11c.6,.8,.9,1.3,1,1.5c.1,.3,.2,.6,.2,.9c0,.6,-.2,1,-.5,1.3c-.4,.4,-.9,.5,-1.4,.5c-.4,0,-.7,0,-1,-.2c-.4,-.2,-.7,-.6,-1,-1.2c-.4,-.5,-.8,-1.5,-1.2,-2.8h-.3c-.8,0,-1.3,.2,-1.6,.4c-.3,.2,-.4,.6,-.4,1c0,.4,.1,.7,.3,.9c.2,.2,.4,.3,.6,.3h.5c.3,0,.4,0,.6,.1c.1,.2,.2,.3,.2,.6c0,.2,-.1,.3,-.2,.5c-.2,.1,-.4,.1,-.6,.1c-.5,0,-.9,-.2,-1.3,-.7c-.4,-.5,-.6,-1.1,-.6,-2c0,-.7,.1,-1.2,.3,-1.6c.2,-.4,.5,-.6,.8,-.8c.3,-.1,.8,-.1,1.5,-.1h2.5c.8,0,1.2,0,1.4,0c.1,-.1,.2,-.1,.3,-.2c0,0,.1,-.1,.1,-.2c0,-.1,-.1,-.2,-.1,-.2c-.1,-.1,-.3,-.4,-.6,-.7h.5c.8,.6,1.2,1.2,1.2,1.8c0,.2,-.1,.4,-.3,.6c-.2,.2,-.5,.2,-.9,.2m-.6,0h-2.8c.3,.9,.5,1.4,.7,1.6c.2,.5,.5,.8,.7,1c.3,.2,.6,.3,.9,.3c.4,0,.7,-.2,1,-.4c.2,-.2,.3,-.5,.3,-.8c0,-.4,-.2,-1,-.8,-1.7Z" class="g9_43"/>
<path fill-rule="evenodd" d="M574.6,965.2h21.6v63H574.6v-63Z" class="gl_43"/>
<path fill-rule="evenodd" d="M613.6,945.8h21.6v82.4H613.6V945.8Z" class="gl_43"/>
<path fill-rule="evenodd" d="M652.5,971.9h21.7v56.3H652.5V971.9Z" class="gl_43"/>
<path fill-rule="evenodd" d="M691.5,965.2h21.7v63H691.5v-63Z" class="gl_43"/>
<path fill-rule="evenodd" d="M730.5,887.4h21.7v140.8H730.5V887.4Z" class="gl_43"/>
<path fill-rule="evenodd" d="M769.5,952.1h21.6v76.1H769.5V952.1Z" class="gl_43"/>
<path d="M585.1,1035.3l.3,3.8h-.3c-.3,-1.1,-.8,-1.9,-1.5,-2.4c-.6,-.5,-1.3,-.8,-2.2,-.8c-.8,0,-1.4,.2,-2,.6c-.6,.4,-1.1,1,-1.4,1.8c-.4,.8,-.5,1.8,-.5,3c0,1,.1,1.9,.4,2.7c.4,.7,.9,1.3,1.5,1.6c.6,.4,1.4,.6,2.2,.6c.7,0,1.4,-.1,1.9,-.4c.6,-.3,1.2,-.9,1.9,-1.9l.2,.2c-.5,1,-1.2,1.7,-1.9,2.2c-.8,.4,-1.7,.7,-2.7,.7c-1.8,0,-3.3,-.7,-4.3,-2.1c-.7,-1,-1.1,-2.2,-1.1,-3.6c0,-1.1,.2,-2.1,.7,-3c.5,-1,1.2,-1.7,2.1,-2.2c.9,-.5,1.8,-.8,2.9,-.8c.8,0,1.5,.2,2.3,.6c.3,.1,.4,.2,.5,.2c.2,0,.3,-.1,.4,-.2c.2,-.1,.3,-.3,.3,-.6Z" class="g9_43"/>
<path d="M587,1038.6v-3.3h.3c.1,.4,.3,.6,.6,.6c.1,0,.4,-.1,.8,-.2c.6,-.3,1.3,-.4,1.9,-.4c1,0,1.7,.3,2.3,.9c.5,.5,.8,1.2,.8,1.9c0,.7,-.2,1.2,-.6,1.7c-.5,.5,-1,.9,-1.7,1.1c.7,.1,1.4,.5,1.8,1c.5,.6,.7,1.2,.7,1.9c0,1,-.3,1.7,-1.1,2.3c-.7,.6,-1.5,.9,-2.6,.9c-1.6,0,-2.8,-.8,-3.7,-2.3l.3,-.2c.3,.5,.7,.9,1.2,1.2c.6,.4,1.1,.5,1.8,.5c.7,0,1.2,-.2,1.6,-.7c.4,-.5,.7,-1.1,.7,-1.8c0,-.7,-.3,-1.3,-.8,-1.8c-.5,-.5,-1.4,-.8,-2.5,-.8v-.5c.8,0,1.4,-.1,1.8,-.3c.5,-.1,.8,-.4,1.1,-.8c.2,-.4,.4,-.9,.4,-1.4c0,-.6,-.2,-1.1,-.6,-1.5c-.4,-.3,-.9,-.5,-1.5,-.5c-.8,0,-1.4,.2,-1.8,.7c-.5,.4,-.7,1,-.9,1.8Z" class="g9_43"/>
<path d="M622.2,1035.3l.3,3.8h-.3c-.3,-1.1,-.8,-1.9,-1.4,-2.4c-.7,-.5,-1.4,-.8,-2.3,-.8c-.7,0,-1.4,.2,-2,.6c-.6,.4,-1.1,1,-1.4,1.8c-.4,.8,-.5,1.8,-.5,3c0,1,.1,1.9,.5,2.7c.3,.7,.8,1.3,1.4,1.6c.7,.4,1.4,.6,2.2,.6c.8,0,1.4,-.1,2,-.4c.5,-.3,1.1,-.9,1.8,-1.9l.2,.2c-.5,1,-1.2,1.7,-1.9,2.2c-.8,.4,-1.7,.7,-2.7,.7c-1.8,0,-3.2,-.7,-4.3,-2.1c-.7,-1,-1.1,-2.2,-1.1,-3.6c0,-1.1,.3,-2.1,.8,-3c.5,-1,1.1,-1.7,2,-2.2c.9,-.5,1.8,-.8,2.9,-.8c.8,0,1.6,.2,2.3,.6c.3,.1,.4,.2,.5,.2c.2,0,.3,-.1,.4,-.2c.2,-.1,.3,-.3,.3,-.6Z" class="g9_43"/>
<path d="M635.1,1046.4v3.5h-.3c-.1,-.8,-.5,-1.6,-1,-2.2c-.6,-.7,-1.5,-1,-2.6,-1h-7.6v-.3c.7,0,1.1,-.1,1.3,-.3c.2,-.2,.3,-.7,.3,-1.4v-7.1c0,-.7,-.1,-1.2,-.3,-1.4c-.2,-.2,-.6,-.3,-1.3,-.3v-.3h4.8v.3c-.7,0,-1.1,.1,-1.3,.3c-.2,.2,-.3,.7,-.3,1.4v7.4c0,.5,0,.9,.1,1c0,.1,.4,.1,1,.1h2.8c.7,0,1.1,-.1,1.2,-.2c0,-.1,.1,-.4,.1,-1v-7.3c0,-.7,-.1,-1.2,-.3,-1.4c-.2,-.2,-.7,-.3,-1.4,-.3v-.3h4.8v.3c-.6,0,-1.1,.1,-1.3,.3c-.2,.2,-.3,.7,-.3,1.4v7.1c0,.8,.1,1.2,.3,1.4c.2,.2,.6,.3,1.3,.3Z" class="g9_43"/>
<path d="M661.2,1035.3l.2,3.8h-.2c-.3,-1.1,-.8,-1.9,-1.5,-2.4c-.6,-.5,-1.3,-.8,-2.2,-.8c-.8,0,-1.4,.2,-2,.6c-.6,.4,-1.1,1,-1.4,1.8c-.4,.8,-.5,1.8,-.5,3c0,1,.1,1.9,.4,2.7c.4,.7,.8,1.3,1.5,1.6c.6,.4,1.4,.6,2.2,.6c.7,0,1.4,-.1,1.9,-.4c.6,-.3,1.2,-.9,1.8,-1.9l.3,.2c-.6,1,-1.2,1.7,-1.9,2.2c-.8,.4,-1.7,.7,-2.7,.7c-1.8,0,-3.3,-.7,-4.3,-2.1c-.7,-1,-1.1,-2.2,-1.1,-3.6c0,-1.1,.2,-2.1,.7,-3c.5,-1,1.2,-1.7,2.1,-2.2c.9,-.5,1.8,-.8,2.8,-.8c.8,0,1.6,.2,2.4,.6c.3,.1,.4,.2,.5,.2c.2,0,.3,-.1,.4,-.2c.1,-.1,.2,-.3,.3,-.6Z" class="g9_43"/>
<path d="M670.9,1037.4c0,-.6,-.1,-1.1,-.3,-1.2c-.2,-.2,-.6,-.3,-1.3,-.3v-.3h4.8v.3c-.7,0,-1.1,.1,-1.3,.3c-.2,.2,-.3,.7,-.3,1.4v7.1c0,.7,.1,1.2,.3,1.4c.2,.2,.6,.3,1.3,.3v.3h-4.8v-.3c.7,0,1.2,-.1,1.3,-.3c.2,-.2,.3,-.7,.3,-1.4v-6.4l-5.1,6.6c0,.5,0,.8,.1,1c0,.1,.2,.3,.4,.3c.2,.1,.6,.2,1.1,.2v.3h-4.8v-.3c.7,0,1.1,-.1,1.3,-.3c.2,-.2,.3,-.7,.3,-1.4v-7.1c0,-.7,-.1,-1.2,-.3,-1.4c-.2,-.2,-.6,-.3,-1.3,-.3v-.3h4.8v.3c-.7,0,-1.1,.1,-1.3,.3c-.2,.2,-.3,.7,-.3,1.4v6.4Z" class="g9_43"/>
<path d="M692.8,1041.4h-2.3v3.3c0,.7,.1,1.1,.3,1.4c.1,.2,.5,.3,1,.3h.3v.3h-4.8v-.3h.4c.3,0,.5,-.1,.7,-.2c.2,-.1,.4,-.2,.4,-.4c.1,-.2,.1,-.5,.1,-1.1v-7.2c0,-.5,0,-.8,-.1,-1c0,-.2,-.2,-.4,-.4,-.5c-.2,-.1,-.5,-.1,-.8,-.1h-.3v-.3h4.8v.3h-.3c-.4,0,-.6,0,-.8,.1c-.2,.2,-.3,.3,-.4,.4c-.1,.2,-.1,.6,-.1,1.1v3.3h2.3c.1,-1.6,.6,-3,1.7,-4c1.1,-1,2.4,-1.5,3.8,-1.5c1.4,0,2.7,.6,3.8,1.6c1,1.1,1.6,2.5,1.6,4.2c0,1.6,-.5,3,-1.6,4.1c-1,1.2,-2.3,1.8,-3.9,1.8c-1,0,-1.9,-.3,-2.7,-.8c-.8,-.4,-1.5,-1.1,-1.9,-2c-.5,-.8,-.8,-1.8,-.8,-2.8m5.4,-5.5c-1.1,0,-1.9,.5,-2.6,1.3c-.6,.9,-.9,2.2,-.9,3.9c0,1.5,.3,2.8,.9,3.8c.6,1,1.4,1.5,2.6,1.5c1.1,0,2,-.5,2.6,-1.3c.7,-.9,1,-2.1,1,-3.8c0,-1.7,-.3,-3,-.9,-3.9c-.6,-1,-1.5,-1.5,-2.7,-1.5Z" class="g9_43"/>
<path d="M712.9,1037.4c0,-.6,-.1,-1.1,-.3,-1.2c-.2,-.2,-.6,-.3,-1.3,-.3v-.3h4.8v.3c-.7,0,-1.1,.1,-1.3,.3c-.2,.2,-.3,.7,-.3,1.4v7.1c0,.7,.1,1.2,.3,1.4c.2,.2,.6,.3,1.3,.3v.3h-4.8v-.3c.7,0,1.2,-.1,1.4,-.3c.1,-.2,.2,-.7,.2,-1.4v-6.4l-5.1,6.6c0,.5,0,.8,.1,1c0,.1,.2,.3,.4,.3c.2,.1,.6,.2,1.1,.2v.3h-4.8v-.3c.7,0,1.1,-.1,1.3,-.3c.2,-.2,.3,-.7,.3,-1.4v-7.1c0,-.7,-.1,-1.2,-.3,-1.4c-.2,-.2,-.6,-.3,-1.3,-.3v-.3h4.8v.3c-.7,0,-1.1,.1,-1.3,.3c-.2,.2,-.3,.7,-.3,1.4v6.4Z" class="g9_43"/>
<path d="M733.6,1041.4h-2.3v3.3c0,.7,.1,1.1,.3,1.4c.2,.2,.5,.3,1.1,.3h.2v.3h-4.7v-.3h.3c.3,0,.6,-.1,.8,-.2c.2,-.1,.3,-.2,.4,-.4c0,-.2,.1,-.5,.1,-1.1v-7.2c0,-.5,-.1,-.8,-.1,-1c-.1,-.2,-.2,-.4,-.4,-.5c-.2,-.1,-.5,-.1,-.9,-.1h-.2v-.3h4.7v.3h-.2c-.4,0,-.7,0,-.9,.1c-.1,.2,-.3,.3,-.3,.4c-.1,.2,-.2,.6,-.2,1.1v3.3h2.3c.1,-1.6,.7,-3,1.8,-4c1.1,-1,2.3,-1.5,3.8,-1.5c1.4,0,2.6,.6,3.7,1.6c1.1,1.1,1.6,2.5,1.6,4.2c0,1.6,-.5,3,-1.5,4.1c-1.1,1.2,-2.4,1.8,-4,1.8c-1,0,-1.9,-.3,-2.7,-.8c-.8,-.4,-1.4,-1.1,-1.9,-2c-.5,-.8,-.8,-1.8,-.8,-2.8m5.4,-5.5c-1,0,-1.9,.5,-2.5,1.3c-.7,.9,-1,2.2,-1,3.9c0,1.5,.3,2.8,.9,3.8c.6,1,1.5,1.5,2.6,1.5c1.1,0,2,-.5,2.7,-1.3c.6,-.9,.9,-2.1,.9,-3.8c0,-1.7,-.3,-3,-.9,-3.9c-.6,-1,-1.5,-1.5,-2.7,-1.5Z" class="g9_43"/>
<path d="M746,1038.6v-3.3h.3c0,.4,.2,.6,.6,.6c.1,0,.3,-.1,.7,-.2c.6,-.3,1.3,-.4,2,-.4c.9,0,1.6,.3,2.2,.9c.5,.5,.8,1.2,.8,1.9c0,.7,-.2,1.2,-.6,1.7c-.4,.5,-1,.9,-1.7,1.1c.8,.1,1.4,.5,1.9,1c.4,.6,.7,1.2,.7,1.9c0,1,-.4,1.7,-1.1,2.3c-.7,.6,-1.6,.9,-2.7,.9c-1.5,0,-2.8,-.8,-3.6,-2.3l.3,-.2c.2,.5,.6,.9,1.2,1.2c.5,.4,1.1,.5,1.7,.5c.7,0,1.3,-.2,1.7,-.7c.4,-.5,.6,-1.1,.6,-1.8c0,-.7,-.3,-1.3,-.8,-1.8c-.5,-.5,-1.3,-.8,-2.5,-.8v-.5c.8,0,1.5,-.1,1.9,-.3c.4,-.1,.7,-.4,1,-.8c.3,-.4,.4,-.9,.4,-1.4c0,-.6,-.2,-1.1,-.6,-1.5c-.3,-.3,-.8,-.5,-1.4,-.5c-.8,0,-1.4,.2,-1.9,.7c-.4,.4,-.7,1,-.8,1.8Z" class="g9_43"/>
<path d="M770.7,1041.4h-2.2v3.3c0,.7,0,1.1,.2,1.4c.2,.2,.5,.3,1.1,.3h.3v.3h-4.8v-.3h.3c.3,0,.6,-.1,.8,-.2c.2,-.1,.3,-.2,.4,-.4c0,-.2,.1,-.5,.1,-1.1v-7.2c0,-.5,-.1,-.8,-.1,-1c-.1,-.2,-.2,-.4,-.4,-.5c-.2,-.1,-.5,-.1,-.9,-.1h-.2v-.3h4.8v.3h-.3c-.4,0,-.7,0,-.9,.1c-.1,.2,-.2,.3,-.3,.4c-.1,.2,-.1,.6,-.1,1.1v3.3h2.2c.1,-1.6,.7,-3,1.8,-4c1.1,-1,2.3,-1.5,3.8,-1.5c1.4,0,2.6,.6,3.7,1.6c1.1,1.1,1.6,2.5,1.6,4.2c0,1.6,-.5,3,-1.5,4.1c-1,1.2,-2.4,1.8,-3.9,1.8c-1.1,0,-2,-.3,-2.8,-.8c-.8,-.4,-1.4,-1.1,-1.9,-2c-.5,-.8,-.7,-1.8,-.8,-2.8m5.4,-5.5c-1,0,-1.9,.5,-2.5,1.3c-.7,.9,-1,2.2,-1,3.9c0,1.5,.3,2.8,.9,3.8c.6,1,1.5,1.5,2.6,1.5c1.2,0,2,-.5,2.7,-1.3c.6,-.9,1,-2.1,1,-3.8c0,-1.7,-.4,-3,-1,-3.9c-.6,-1,-1.5,-1.5,-2.7,-1.5Z" class="g9_43"/>
<path d="M794.1,1046.4v3.5h-.3c-.2,-.8,-.5,-1.6,-1.1,-2.2c-.6,-.7,-1.4,-1,-2.6,-1h-7.5v-.3c.6,0,1.1,-.1,1.3,-.3c.2,-.2,.3,-.7,.3,-1.4v-7.1c0,-.7,-.1,-1.2,-.3,-1.4c-.2,-.2,-.7,-.3,-1.3,-.3v-.3h4.7v.3c-.6,0,-1.1,.1,-1.3,.3c-.2,.2,-.3,.7,-.3,1.4v7.4c0,.5,.1,.9,.1,1c.1,.1,.4,.1,1,.1h2.9c.7,0,1.1,-.1,1.1,-.2c.1,-.1,.1,-.4,.1,-1v-7.3c0,-.7,-.1,-1.2,-.3,-1.4c-.2,-.2,-.6,-.3,-1.3,-.3v-.3h4.8v.3c-.7,0,-1.2,.1,-1.3,.3c-.2,.2,-.3,.7,-.3,1.4v7.1c0,.8,.1,1.2,.2,1.4c.2,.2,.7,.3,1.4,.3Z" class="g9_43"/>
</svg>