<?xml version="1.0" encoding="UTF-8" standalone="no"?>
<!DOCTYPE svg PUBLIC "-//W3C//DTD SVG 1.1//EN"
"http://www.w3.org/Graphics/SVG/1.1/DTD/svg11.dtd">
<svg viewBox="0 0 909 1147" version="1.1" xmlns="http://www.w3.org/2000/svg" xmlns:xlink="http://www.w3.org/1999/xlink">
<defs>
<clipPath id="c0_83"><path d="M212.2,408.8V359.4H316.4v49.4Z"/></clipPath>
<style type="text/css"><![CDATA[
.g0_83{
fill: #B6D774;
}
.g1_83{
fill: none;
stroke: #2E3092;
stroke-width: 0.763;
}
.g2_83{
fill: none;
stroke: #0EA5DF;
stroke-width: 3.055;
}
.g3_83{
fill: #E8F1FA;
}
.g4_83{
fill: #000;
}
.g5_83{
fill: none;
stroke: #000;
stroke-width: 0.687;
stroke-miterlimit: 2;
}
.g6_83{
fill: #0EA5DF;
}
]]></style>
</defs>
<path d="M835.8,1131h73.6v-51.5H835.8V1131Z" class="g0_83"/>
<path d="M192.9,572.1c4.5,0,8.2,-3.7,8.2,-8.2c0,-4.6,-3.7,-8.3,-8.2,-8.3c-4.6,0,-8.3,3.7,-8.3,8.3c0,4.5,3.7,8.2,8.3,8.2Zm336.1,0c4.5,0,8.3,-3.7,8.3,-8.2c0,-4.6,-3.8,-8.3,-8.3,-8.3c-4.6,0,-8.3,3.7,-8.3,8.3c0,4.5,3.7,8.2,8.3,8.2Zm-336.1,22c4.5,0,8.2,-3.7,8.2,-8.2c0,-4.6,-3.7,-8.3,-8.2,-8.3c-4.6,0,-8.3,3.7,-8.3,8.3c0,4.5,3.7,8.2,8.3,8.2Zm336.1,0c4.5,0,8.3,-3.7,8.3,-8.2c0,-4.6,-3.8,-8.3,-8.3,-8.3c-4.6,0,-8.3,3.7,-8.3,8.3c0,4.5,3.7,8.2,8.3,8.2Zm-336.1,22c4.5,0,8.2,-3.7,8.2,-8.2c0,-4.6,-3.7,-8.3,-8.2,-8.3c-4.6,0,-8.3,3.7,-8.3,8.3c0,4.5,3.7,8.2,8.3,8.2Zm336.1,0c4.5,0,8.3,-3.7,8.3,-8.2c0,-4.6,-3.8,-8.3,-8.3,-8.3c-4.6,0,-8.3,3.7,-8.3,8.3c0,4.5,3.7,8.2,8.3,8.2Zm0,22c4.5,0,8.3,-3.7,8.3,-8.2c0,-4.6,-3.8,-8.3,-8.3,-8.3c-4.6,0,-8.3,3.7,-8.3,8.3c0,4.5,3.7,8.2,8.3,8.2Zm-79.2,26.4c4.6,0,8.3,-3.7,8.3,-8.3c0,-4.6,-3.7,-8.3,-8.3,-8.3c-4.6,0,-8.3,3.7,-8.3,8.3c0,4.6,3.7,8.3,8.3,8.3Zm26.5,0c4.5,0,8.3,-3.7,8.3,-8.3c0,-4.6,-3.8,-8.3,-8.3,-8.3c-4.6,0,-8.3,3.7,-8.3,8.3c0,4.6,3.7,8.3,8.3,8.3Zm26.5,0c4.5,0,8.2,-3.7,8.2,-8.3c0,-4.6,-3.7,-8.3,-8.2,-8.3c-4.6,0,-8.3,3.7,-8.3,8.3c0,4.6,3.7,8.3,8.3,8.3Zm26.5,0c4.5,0,8.2,-3.7,8.2,-8.3c0,-4.6,-3.7,-8.3,-8.2,-8.3c-4.6,0,-8.3,3.7,-8.3,8.3c0,4.6,3.7,8.3,8.3,8.3Zm26.4,0c4.6,0,8.3,-3.7,8.3,-8.3c0,-4.6,-3.7,-8.3,-8.3,-8.3c-4.5,0,-8.2,3.7,-8.2,8.3c0,4.6,3.7,8.3,8.2,8.3Z" class="g1_83"/>
<path d="M73.6,65.1H835.8M73.6,274.7H835.8M73.6,526.5H835.8" class="g2_83"/>
<path d="M186.1,1076.4H836.8V683.9H186.1v392.5Z" class="g3_83"/>
<path d="M74.6,683.6H836.8" class="g2_83"/>
<path fill-rule="evenodd" d="M234,360.1l-2.3,8.1c-.2,.6,-.3,1,-.3,1.2q0,.1,.1,.2c0,.1,.1,.1,.2,.2c.1,0,.4,.1,.7,.1c.8,0,1.6,-.1,2.3,-.3c.7,-.2,1.3,-.4,1.8,-.8c.7,-.5,1.2,-1.2,1.6,-2c.4,-.9,.6,-1.9,.6,-3c0,-1.3,-.3,-2.2,-.9,-2.9c-.6,-.6,-1.5,-.9,-2.7,-.9c-.3,0,-.6,0,-1.1,.1m-2.8,-.4l.1,-.3h3.4c1.5,0,2.6,.2,3.3,.6c.7,.3,1.3,.8,1.7,1.6c.5,.7,.7,1.5,.7,2.3c0,.7,-.2,1.4,-.4,2.1c-.2,.7,-.5,1.2,-.8,1.6c-.3,.4,-.8,.9,-1.4,1.3c-.7,.5,-1.4,.9,-2.1,1.1c-.8,.3,-1.7,.4,-2.8,.4h-4.6l.1,-.3c.4,0,.7,-.1,.8,-.1c.2,-.1,.4,-.3,.5,-.4c.1,-.2,.3,-.7,.5,-1.4l1.9,-6.6c.2,-.5,.3,-.9,.3,-1.2c0,-.2,-.1,-.4,-.2,-.5c-.2,-.1,-.5,-.2,-.9,-.2Z" class="g4_83"/>
<path fill-rule="evenodd" d="M316.4,362l-.8,3.5h-.3v-.9c0,-.3,-.1,-.6,-.2,-.9c-.1,-.2,-.2,-.4,-.4,-.6c-.2,-.2,-.5,-.4,-.8,-.5c-.3,-.1,-.6,-.1,-.9,-.1c-1,0,-1.8,.3,-2.6,.8c-.9,.6,-1.6,1.6,-2.1,2.8c-.4,1,-.7,2.1,-.7,3.1c0,1,.3,1.9,1,2.5c.6,.7,1.4,1,2.4,1c.7,0,1.4,-.2,2,-.5c.5,-.4,1.1,-.9,1.6,-1.6h.4c-.6,1,-1.3,1.7,-2,2.1c-.7,.5,-1.6,.7,-2.6,.7c-.9,0,-1.7,-.2,-2.4,-.6c-.6,-.4,-1.2,-.9,-1.5,-1.6c-.4,-.6,-.6,-1.4,-.6,-2.1c0,-1.2,.4,-2.4,1,-3.5c.6,-1.2,1.5,-2,2.6,-2.7c1.1,-.6,2.3,-.9,3.4,-.9c.5,0,1.1,.1,1.8,.3c.3,.1,.5,.2,.6,.2c.1,0,.3,0,.4,-.1c0,0,.2,-.2,.4,-.4Z" class="g4_83"/>
<path clip-path="url(#c0_83)" fill-rule="evenodd" d="M253.6,401.7c-.3,0,-.7,.2,-1.1,.5c-.5,.5,-1,1.1,-1.4,2c-.5,.9,-.7,1.7,-.7,2.5c0,.3,.1,.6,.3,.8c.2,.2,.4,.3,.6,.3c.6,0,1.3,-.4,1.9,-1.2c1,-1.2,1.4,-2.4,1.4,-3.6c0,-.4,-.1,-.8,-.2,-1c-.2,-.2,-.5,-.3,-.8,-.3m2.9,-.4l-1.6,5.5l-.2,.7q0,.1,0,.2c0,.1,.1,.1,.1,.2c0,0,.1,.1,.2,.1c0,0,.1,-.1,.2,-.2c.3,-.1,.5,-.4,.9,-.9l.3,.2c-.4,.5,-.8,.9,-1.2,1.2c-.4,.3,-.7,.5,-1.1,.5c-.2,0,-.4,-.1,-.5,-.2c-.1,-.1,-.2,-.3,-.2,-.5c0,-.3,.1,-.6,.2,-1l.2,-.6c-.7,.9,-1.4,1.5,-2,1.9c-.4,.3,-.8,.4,-1.2,.4c-.4,0,-.7,-.2,-1,-.5c-.3,-.3,-.5,-.8,-.5,-1.3c0,-.9,.3,-1.8,.8,-2.7c.5,-1,1.2,-1.8,2,-2.3c.6,-.5,1.2,-.7,1.7,-.7c.3,0,.6,.1,.8,.3c.2,.1,.4,.4,.5,.8l.3,-.9Z" class="g4_83"/>
<path fill-rule="evenodd" d="M299.8,390.5c.5,.3,1,.5,1.4,.5c.5,0,1,-.2,1.5,-.6c.5,-.3,.9,-.9,1.3,-1.7c.4,-.8,.6,-1.7,.6,-2.5c0,-.5,-.2,-.9,-.4,-1.2c-.3,-.2,-.5,-.4,-.9,-.4c-.5,0,-1,.2,-1.4,.6c-.5,.4,-.9,1,-1.1,1.7Zm3.1,-10.8l-1.6,5.5c.5,-.5,1,-.9,1.4,-1.1c.3,-.2,.8,-.2,1.2,-.2c.6,0,1,.1,1.4,.5c.4,.4,.6,1,.6,1.6c0,.9,-.3,1.8,-.8,2.6c-.5,.9,-1.1,1.5,-1.8,2c-.8,.5,-1.5,.7,-2.2,.7c-.8,0,-1.7,-.3,-2.5,-.9L301,382c.2,-.7,.3,-1,.3,-1.2c0,-.1,0,-.2,-.1,-.3c-.1,-.1,-.3,-.1,-.6,-.1c-.1,0,-.3,0,-.5,0v-.3Z" class="g4_83"/>
<path clip-path="url(#c0_83)" fill-rule="evenodd" d="M219.9,397.6l-3.2,4.3h2.8Zm1.6,-2.7l-.8,9.1c-.1,.5,-.1,.7,-.1,.9c0,.2,.1,.4,.1,.5c.1,.1,.3,.2,.4,.3c.2,.1,.5,.1,.9,.1l-.1,.3h-4.3l.1,-.3h.2c.4,0,.7,-.1,.9,-.2c.1,-.1,.2,-.3,.3,-.5c.1,-.2,.1,-.6,.2,-1.2l.1,-1.4h-3.1l-1.1,1.5c-.3,.4,-.4,.6,-.5,.8c0,.1,-.1,.2,-.1,.4c0,.2,.1,.3,.2,.4c.2,.1,.4,.2,.7,.2l-.1,.3h-3.2l.1,-.3c.4,0,.7,-.1,1,-.4c.3,-.2,.8,-.8,1.4,-1.6l6.5,-8.9Z" class="g4_83"/>
<path fill-rule="evenodd" d="M287.5,406.7c.6,0,1,.1,1.4,.1c.8,0,1.5,-.3,2.2,-.8c.6,-.5,1,-1.2,1,-2c0,-.7,-.2,-1.2,-.6,-1.6c-.4,-.4,-1.1,-.5,-2,-.5c-.2,0,-.4,0,-.6,0Zm1.6,-5.4c.3,0,.6,0,.7,0c1.2,0,2,-.2,2.5,-.7c.6,-.5,.9,-1.1,.9,-1.9c0,-.5,-.2,-.9,-.5,-1.2c-.4,-.4,-.9,-.5,-1.6,-.5c-.2,0,-.5,0,-.8,.1Zm-1.7,-4.6l.2,-.3h3.9c.6,0,1.2,.2,1.7,.4c.5,.2,.9,.4,1.2,.8c.2,.4,.3,.8,.3,1.2c0,.6,-.2,1.2,-.6,1.7c-.5,.5,-1.2,.9,-2.3,1.1c.7,.2,1.2,.6,1.5,1c.3,.4,.5,.8,.5,1.3c0,.6,-.2,1.1,-.4,1.6c-.3,.5,-.7,.9,-1.1,1.1c-.5,.3,-1,.5,-1.6,.6c-.4,.1,-1.1,.2,-2.1,.2h-4l.1,-.3c.5,0,.7,-.1,.9,-.1c.2,-.1,.4,-.3,.4,-.4c.2,-.2,.3,-.7,.6,-1.4l1.9,-6.6c.2,-.6,.3,-1,.3,-1.2c0,-.2,-.1,-.4,-.3,-.5c-.1,-.1,-.4,-.1,-.8,-.1c-.1,0,-.2,0,-.3,-.1Z" class="g4_83"/>
<path d="M245.4,368.5h54.8l-18.1,29.3H227.3l18.1,-29.3Z" class="g5_83"/>
<path fill-rule="evenodd" d="M243,438.5c-.5,0,-1,.1,-1.6,.4c-.5,.3,-1,.7,-1.5,1.3c-.5,.6,-.9,1.4,-1.3,2.4c-.5,1.2,-.8,2.3,-.8,3.4c0,.7,.2,1.4,.6,2c.4,.6,1,.9,1.8,.9c.5,0,1,-.1,1.4,-.4c.5,-.2,1,-.6,1.5,-1.2c.7,-.8,1.2,-1.7,1.6,-2.8c.5,-1.2,.7,-2.3,.7,-3.2c0,-.8,-.2,-1.4,-.6,-2c-.4,-.5,-1,-.8,-1.8,-.8m-3,10.9l-2.1,1.7c.3,-.1,.6,-.1,.9,-.1c.3,0,.5,0,.8,0c.2,.1,.7,.2,1.4,.3c.8,.2,1.4,.3,2,.3c.6,0,1.1,-.1,1.5,-.3c.4,-.2,.8,-.6,1.2,-1.1l.3,.2c-.6,.8,-1.2,1.3,-2,1.7c-.7,.4,-1.5,.5,-2.4,.5c-.4,0,-1.1,-.1,-1.9,-.2c-1.2,-.3,-2.1,-.5,-2.6,-.5c-.2,0,-.3,.1,-.4,.1c-.2,0,-.3,.1,-.6,.2l-.2,-.2l3.4,-2.7c-1.1,-.1,-1.8,-.5,-2.4,-1.3c-.5,-.8,-.8,-1.6,-.8,-2.4c0,-1.2,.4,-2.4,1.1,-3.7c.7,-1.2,1.6,-2.2,2.7,-2.9c1.2,-.7,2.2,-1,3.3,-1c.8,0,1.5,.1,2,.5c.6,.3,1,.7,1.3,1.4c.3,.6,.5,1.2,.5,1.9c0,1.2,-.3,2.4,-1.1,3.7c-.7,1.3,-1.5,2.2,-2.6,2.9c-1,.6,-2.1,1,-3.3,1Z" class="g4_83"/>
<path fill-rule="evenodd" d="M218,488.7l1,8.8l6.3,-8.8H228v.3c-.6,.1,-.9,.1,-1,.1c-.2,.1,-.4,.3,-.5,.5c-.2,.2,-.3,.6,-.5,1.2l-2,6.9c-.1,.4,-.2,.7,-.2,1c0,.2,.1,.3,.2,.4c.2,.2,.5,.3,1,.3h.2l-.1,.3h-4.6l.1,-.3h.2c.4,0,.7,-.1,.9,-.2c.2,-.1,.4,-.3,.5,-.5c.1,-.2,.3,-.8,.5,-1.6l1.8,-6.3l-6.3,8.9h-.4l-1,-8.9l-1.9,6.7c-.2,.6,-.3,1,-.3,1.2c0,.2,.1,.3,.2,.4c.2,.2,.5,.2,1.1,.3l-.1,.3h-3.6l.1,-.3h.2c.5,0,.9,-.2,1.2,-.4c.1,-.2,.3,-.7,.5,-1.3l2.4,-8.1c-.2,-.2,-.4,-.3,-.5,-.4c-.2,-.1,-.5,-.1,-.9,-.2l.1,-.3Z" class="g4_83"/>
<path fill-rule="evenodd" d="M288.6,489.1l3.3,8.5l1.9,-6.4c.1,-.5,.2,-.9,.2,-1.2c0,-.2,-.1,-.3,-.2,-.4c-.2,-.2,-.4,-.2,-.8,-.2q-.1,0,-.2,0l.1,-.3h3.5l-.1,.3c-.4,0,-.6,0,-.8,.1c-.3,.1,-.5,.2,-.6,.4c-.1,.3,-.3,.7,-.5,1.3l-2.6,9.1h-.3L287.9,491l-1.9,6.8c-.2,.6,-.3,1,-.3,1.2c0,.2,.1,.4,.2,.5c.2,.1,.5,.2,1,.2l-.1,.3h-3.4l.1,-.3c.4,0,.7,0,.8,-.1c.3,-.1,.4,-.2,.5,-.4c.2,-.2,.4,-.7,.6,-1.4l2.1,-7.6c-.2,-.3,-.4,-.5,-.6,-.6c-.3,-.1,-.7,-.2,-1.2,-.2l.1,-.3Z" class="g4_83"/>
<path d="M252.6,449.1h46.5l-19.7,43.2H232.9l19.7,-43.2Z" class="g5_83"/>
<path d="M73.6,305.1H181V275H73.6v30.1Z" class="g6_83"/>
</svg>