<?xml version="1.0" encoding="UTF-8" standalone="no"?>
<!DOCTYPE svg PUBLIC "-//W3C//DTD SVG 1.1//EN"
"http://www.w3.org/Graphics/SVG/1.1/DTD/svg11.dtd">
<svg viewBox="0 0 909 1147" version="1.1" xmlns="http://www.w3.org/2000/svg" xmlns:xlink="http://www.w3.org/1999/xlink">
<defs>
<clipPath id="c0_64"><path d="M140.8,746.6v-18H171v18Z"/></clipPath>
<style type="text/css"><![CDATA[
.g0_64{
fill: #B6D774;
}
.g1_64{
fill: none;
stroke: #8ED8F8;
stroke-width: 0.763;
stroke-miterlimit: 2;
}
.g2_64{
fill: none;
stroke: #000;
stroke-width: 0.763;
stroke-miterlimit: 2;
}
.g3_64{
fill: #000;
}
.g4_64{
fill: none;
stroke: #000;
stroke-width: 1.208;
}
.g5_64{
fill: none;
stroke: #0EA5DF;
stroke-width: 3.055;
}
.g6_64{
fill: #FFF1E0;
}
.g7_64{
fill: #0C4B7F;
}
.g8_64{
fill: #0EA5DF;
}
.g9_64{
fill: #FFF;
}
.ga_64{
fill: none;
stroke: #D82C20;
stroke-width: 1.527;
}
.gb_64{
fill: none;
stroke: #0EA5DF;
stroke-width: 1.527;
}
.gc_64{
fill: none;
stroke: #000;
stroke-width: 0.895;
stroke-miterlimit: 10;
}
]]></style>
</defs>
<path d="M0,1131H73.8v-51.5H0V1131Z" class="g0_64"/>
<path d="M639.2,681h21.6v21.7H639.2V681Zm0,-21.6h21.6V681H639.2V659.4Zm0,-21.7h21.6v21.7H639.2V637.7Zm0,-21.6h21.6v21.6H639.2V616.1Zm0,-21.7h21.6v21.7H639.2V594.4Zm0,-21.6h21.6v21.6H639.2V572.8Zm0,-21.7h21.6v21.7H639.2V551.1Zm0,-21.6h21.6v21.6H639.2V529.5Zm0,-21.7h21.6v21.7H639.2V507.8Zm0,-21.7h21.6v21.7H639.2V486.1Zm0,-21.6h21.6v21.6H639.2V464.5ZM660.8,681h21.7v21.7H660.8V681Zm0,-21.6h21.7V681H660.8V659.4Zm0,-21.7h21.7v21.7H660.8V637.7Zm0,-21.6h21.7v21.6H660.8V616.1Zm0,-21.7h21.7v21.7H660.8V594.4Zm0,-21.6h21.7v21.6H660.8V572.8Zm0,-21.7h21.7v21.7H660.8V551.1Zm0,-21.6h21.7v21.6H660.8V529.5Zm0,-21.7h21.7v21.7H660.8V507.8Zm0,-21.7h21.7v21.7H660.8V486.1Zm0,-21.6h21.7v21.6H660.8V464.5ZM682.5,681h21.6v21.7H682.5V681Zm0,-21.6h21.6V681H682.5V659.4Zm0,-21.7h21.6v21.7H682.5V637.7Zm0,-21.6h21.6v21.6H682.5V616.1Zm0,-21.7h21.6v21.7H682.5V594.4Zm0,-21.6h21.6v21.6H682.5V572.8Zm0,-21.7h21.6v21.7H682.5V551.1Zm0,-21.6h21.6v21.6H682.5V529.5Zm0,-21.7h21.6v21.7H682.5V507.8Zm0,-21.7h21.6v21.7H682.5V486.1Zm0,-21.6h21.6v21.6H682.5V464.5ZM704.1,681h21.7v21.7H704.1V681Zm0,-21.6h21.7V681H704.1V659.4Zm0,-21.7h21.7v21.7H704.1V637.7Zm0,-21.6h21.7v21.6H704.1V616.1Zm0,-21.7h21.7v21.7H704.1V594.4Zm0,-21.6h21.7v21.6H704.1V572.8Zm0,-21.7h21.7v21.7H704.1V551.1Zm0,-21.6h21.7v21.6H704.1V529.5Zm0,-21.7h21.7v21.7H704.1V507.8Zm0,-21.7h21.7v21.7H704.1V486.1Zm0,-21.6h21.7v21.6H704.1V464.5ZM725.8,681h21.6v21.7H725.8V681Zm0,-21.6h21.6V681H725.8V659.4Zm0,-21.7h21.6v21.7H725.8V637.7Zm0,-21.6h21.6v21.6H725.8V616.1Zm0,-21.7h21.6v21.7H725.8V594.4Zm0,-21.6h21.6v21.6H725.8V572.8Zm0,-21.7h21.6v21.7H725.8V551.1Zm0,-21.6h21.6v21.6H725.8V529.5Zm0,-21.7h21.6v21.7H725.8V507.8Zm0,-21.7h21.6v21.7H725.8V486.1Zm0,-21.6h21.6v21.6H725.8V464.5ZM747.4,681h21.7v21.7H747.4V681Zm0,-21.6h21.7V681H747.4V659.4Zm0,-21.7h21.7v21.7H747.4V637.7Zm0,-21.6h21.7v21.6H747.4V616.1Zm0,-21.7h21.7v21.7H747.4V594.4Zm0,-21.6h21.7v21.6H747.4V572.8Zm0,-21.7h21.7v21.7H747.4V551.1Zm0,-21.6h21.7v21.6H747.4V529.5Zm0,-21.7h21.7v21.7H747.4V507.8Zm0,-21.7h21.7v21.7H747.4V486.1Zm0,-21.6h21.7v21.6H747.4V464.5ZM769.1,681h21.6v21.7H769.1V681Zm0,-21.6h21.6V681H769.1V659.4Zm0,-21.7h21.6v21.7H769.1V637.7Zm0,-21.6h21.6v21.6H769.1V616.1Zm0,-21.7h21.6v21.7H769.1V594.4Zm0,-21.6h21.6v21.6H769.1V572.8Zm0,-21.7h21.6v21.7H769.1V551.1Zm0,-21.6h21.6v21.6H769.1V529.5Zm0,-21.7h21.6v21.7H769.1V507.8Zm0,-21.7h21.6v21.7H769.1V486.1Zm0,-21.6h21.6v21.6H769.1V464.5ZM790.7,681h21.7v21.7H790.7V681Zm0,-21.6h21.7V681H790.7V659.4Zm0,-21.7h21.7v21.7H790.7V637.7Zm0,-21.6h21.7v21.6H790.7V616.1Zm0,-21.7h21.7v21.7H790.7V594.4Zm0,-21.6h21.7v21.6H790.7V572.8Zm0,-21.7h21.7v21.7H790.7V551.1Zm0,-21.6h21.7v21.6H790.7V529.5Zm0,-21.7h21.7v21.7H790.7V507.8Zm0,-21.7h21.7v21.7H790.7V486.1Zm0,-21.6h21.7v21.6H790.7V464.5ZM812.4,681h21.7v21.7H812.4V681Zm0,-21.6h21.7V681H812.4V659.4Zm0,-21.7h21.7v21.7H812.4V637.7Zm0,-21.6h21.7v21.6H812.4V616.1Zm0,-21.7h21.7v21.7H812.4V594.4Zm0,-21.6h21.7v21.6H812.4V572.8Zm0,-21.7h21.7v21.7H812.4V551.1Zm0,-21.6h21.7v21.6H812.4V529.5Zm0,-21.7h21.7v21.7H812.4V507.8Zm0,-21.7h21.7v21.7H812.4V486.1Zm0,-21.6h21.7v21.6H812.4V464.5Z" class="g1_64"/>
<path d="M704.4,485.7h63.8v64.6H704.4V485.7ZM660.5,594.1H812.1v86.3H660.5V594.1Z" class="g2_64"/>
<path fill-rule="evenodd" d="M649.7,579.8l-2.7,9.1c-.2,.7,-.3,1.1,-.3,1.3c0,0,.1,.1,.1,.2c.1,.1,.2,.2,.3,.2c.2,.1,.4,.1,.7,.1c1,0,1.9,-.1,2.7,-.3c.8,-.2,1.4,-.5,1.9,-.9c.8,-.5,1.3,-1.3,1.8,-2.3c.4,-.9,.6,-2,.6,-3.3c0,-1.4,-.3,-2.4,-1,-3.1c-.6,-.7,-1.6,-1,-2.9,-1c-.3,0,-.7,0,-1.2,0m-3.2,-.3l.1,-.4h3.9c1.6,0,2.8,.2,3.6,.6c.8,.4,1.4,1,1.9,1.8c.5,.8,.7,1.6,.7,2.6c0,.8,-.1,1.5,-.4,2.3c-.3,.7,-.6,1.3,-.9,1.8c-.3,.4,-.9,.9,-1.6,1.5c-.7,.5,-1.5,.9,-2.3,1.2c-.8,.2,-1.9,.4,-3.1,.4h-5.1l.1,-.4c.5,0,.8,0,.9,-.1c.3,-.1,.4,-.2,.6,-.4c.1,-.2,.3,-.8,.5,-1.5l2.2,-7.4c.2,-.5,.2,-1,.2,-1.3c0,-.2,0,-.4,-.2,-.6c-.2,-.1,-.5,-.1,-.9,-.1Z" class="g3_64"/>
<path fill-rule="evenodd" d="M777.1,477c.7,.2,1.2,.2,1.6,.2c.7,0,1.3,-.1,1.8,-.4c.5,-.2,1,-.6,1.3,-1.2c.3,-.5,.4,-1.1,.4,-1.6c0,-.7,-.2,-1.1,-.5,-1.5c-.4,-.3,-1,-.5,-1.7,-.5c-.4,0,-.9,0,-1.5,.1Zm-1.7,-5.7h4.8c1.3,0,2.2,.3,2.8,.8c.6,.6,1,1.2,1,2c0,.6,-.2,1.2,-.6,1.8c-.4,.6,-1,1,-1.8,1.4c-.8,.4,-1.6,.5,-2.5,.5c-.6,0,-1.3,-.1,-2.1,-.3l-1,3.4c-.2,.7,-.4,1.3,-.4,1.5c0,.2,.1,.4,.3,.5c.1,.1,.5,.2,1.1,.2v.4h-4.9l.1,-.4c.7,0,1.1,-.1,1.3,-.3c.3,-.2,.6,-.8,.8,-1.8l2.1,-6.9c.2,-.8,.3,-1.4,.3,-1.7c0,-.2,-.1,-.4,-.2,-.5c-.2,-.1,-.6,-.2,-1.2,-.2Z" class="g3_64"/>
<path fill-rule="evenodd" d="M827.1,578.9l-.9,3.9h-.3l-.1,-1c0,-.4,-.1,-.7,-.2,-1c-.1,-.2,-.2,-.5,-.5,-.7c-.2,-.2,-.4,-.4,-.8,-.5c-.3,-.1,-.7,-.1,-1.1,-.1c-1,0,-2,.2,-2.8,.8c-1,.8,-1.8,1.8,-2.4,3.2c-.4,1.1,-.7,2.2,-.7,3.4c0,1.2,.4,2.1,1,2.8c.7,.7,1.6,1.1,2.7,1.1c.9,0,1.6,-.2,2.2,-.6c.7,-.4,1.3,-.9,1.8,-1.7h.5c-.7,1,-1.4,1.8,-2.2,2.3c-.8,.5,-1.8,.7,-2.9,.7c-1,0,-1.9,-.2,-2.6,-.6c-.8,-.4,-1.4,-1,-1.8,-1.7c-.4,-.8,-.6,-1.6,-.6,-2.5c0,-1.3,.4,-2.6,1.1,-3.8c.7,-1.3,1.7,-2.3,2.9,-3c1.3,-.7,2.5,-1,3.8,-1c.6,0,1.2,.1,2,.4c.3,.1,.5,.2,.6,.2c.2,0,.3,-.1,.4,-.1c.1,-.1,.3,-.3,.6,-.5Z" class="g3_64"/>
<path fill-rule="evenodd" d="M690.9,555l1.2,9.8l7,-9.8h3v.3c-.7,.1,-1.1,.1,-1.2,.1c-.2,.1,-.3,.3,-.5,.5c-.2,.2,-.3,.7,-.5,1.4l-2.3,7.7c-.1,.4,-.2,.8,-.2,1c0,.2,.1,.4,.3,.5c.2,.2,.5,.3,1,.3h.2v.3h-5.1v-.3h.3c.4,0,.8,-.1,1,-.2c.2,-.1,.4,-.3,.5,-.5c.2,-.3,.4,-.9,.6,-1.8l2,-7l-7,9.8h-.4l-1.1,-9.8l-2.2,7.5c-.2,.6,-.3,1,-.3,1.3c0,.2,.1,.3,.3,.5c.1,.1,.5,.2,1.1,.2l-.1,.3h-4l.1,-.3h.3c.6,0,1,-.2,1.3,-.5c.1,-.2,.3,-.6,.6,-1.3l2.6,-9.1c-.2,-.2,-.4,-.3,-.6,-.4c-.1,-.1,-.5,-.1,-1,-.2l.1,-.3Z" class="g3_64"/>
<path fill-rule="evenodd" d="M653.1,686.5l-3.5,4.8h3Zm1.8,-3l-.9,10.1c-.1,.5,-.1,.8,-.1,.9c0,.3,0,.5,.1,.6c.1,.2,.3,.3,.5,.4c.2,0,.5,.1,1,.1l-.1,.3h-4.8l.1,-.3h.2c.4,0,.7,-.1,.9,-.3c.2,-.1,.3,-.3,.4,-.5c.1,-.2,.2,-.6,.2,-1.3l.2,-1.6h-3.5l-1.2,1.7c-.3,.4,-.5,.7,-.6,.8c0,.2,-.1,.3,-.1,.5c0,.2,.1,.3,.3,.5c.1,.1,.4,.2,.7,.2l-.1,.3h-3.6l.1,-.3c.5,0,.9,-.2,1.2,-.4c.3,-.3,.8,-.9,1.5,-1.8l7.3,-9.9Z" class="g3_64"/>
<path fill-rule="evenodd" d="M776.6,555l3.7,9.5l2,-7.1c.2,-.6,.3,-1,.3,-1.4c0,-.2,-.1,-.4,-.2,-.5c-.2,-.1,-.5,-.2,-.9,-.2q-.1,0,-.2,0l.1,-.3h3.9l-.1,.3c-.4,0,-.7,.1,-.9,.1c-.3,.2,-.5,.3,-.7,.5c-.2,.3,-.3,.8,-.5,1.5l-2.9,10h-.3l-4.1,-10.2l-2.1,7.5c-.2,.6,-.3,1,-.3,1.3c0,.3,.1,.4,.3,.6c.1,.1,.5,.2,1,.2l-.1,.3h-3.8l.1,-.3c.5,0,.8,-.1,1,-.1c.2,-.1,.4,-.3,.5,-.4c.2,-.3,.4,-.8,.6,-1.6l2.4,-8.4c-.2,-.4,-.5,-.6,-.7,-.8c-.3,-.1,-.7,-.2,-1.3,-.2l.1,-.3Z" class="g3_64"/>
<path fill-rule="evenodd" d="M818.6,695c.7,.1,1.2,.1,1.5,.1c1,0,1.8,-.3,2.5,-.8c.7,-.6,1.1,-1.3,1.1,-2.3c0,-.7,-.2,-1.3,-.7,-1.7c-.4,-.4,-1.1,-.6,-2.1,-.6c-.2,0,-.5,0,-.7,0Zm1.8,-6c.4,0,.7,0,.8,0c1.3,0,2.2,-.2,2.8,-.8c.6,-.5,.9,-1.2,.9,-2c0,-.6,-.2,-1.1,-.6,-1.4c-.3,-.4,-.9,-.6,-1.7,-.6c-.2,0,-.5,.1,-.8,.2Zm-1.8,-5l.1,-.4H823c.8,0,1.4,.2,2,.4c.5,.2,1,.5,1.3,.9c.2,.4,.4,.9,.4,1.3c0,.7,-.3,1.4,-.8,1.9c-.5,.6,-1.3,1,-2.4,1.3c.7,.2,1.2,.6,1.6,1.1c.3,.4,.5,.9,.5,1.5c0,.6,-.2,1.1,-.5,1.7c-.3,.5,-.7,1,-1.2,1.3c-.5,.3,-1,.5,-1.7,.6c-.5,.1,-1.3,.2,-2.3,.2h-4.5l.1,-.3c.5,-.1,.8,-.1,1,-.2c.2,-.1,.4,-.2,.5,-.4c.2,-.2,.3,-.7,.6,-1.5l2.2,-7.4c.1,-.6,.2,-1,.2,-1.3c0,-.2,-.1,-.4,-.2,-.5c-.2,-.1,-.5,-.2,-.9,-.2c-.1,0,-.2,0,-.3,0Z" class="g3_64"/>
<path fill-rule="evenodd" d="M697.6,467.7c-.6,0,-1.2,.2,-1.8,.5c-.5,.3,-1.1,.8,-1.7,1.4c-.5,.7,-1,1.6,-1.5,2.7c-.5,1.3,-.8,2.6,-.8,3.8c0,.8,.2,1.6,.7,2.2c.4,.7,1.1,1,2,1c.5,0,1,-.1,1.5,-.4c.6,-.3,1.1,-.7,1.7,-1.4c.7,-.8,1.3,-1.8,1.8,-3.1c.5,-1.3,.7,-2.5,.7,-3.6c0,-.8,-.2,-1.5,-.6,-2.1c-.5,-.6,-1.1,-1,-2,-1m-3.4,12.2l-2.3,1.8c.4,0,.7,-.1,1,-.1c.3,0,.6,.1,.8,.1c.3,0,.8,.1,1.7,.3c.8,.2,1.5,.3,2.2,.3c.6,0,1.2,-.1,1.6,-.3c.5,-.3,1,-.6,1.4,-1.2l.3,.2c-.6,.8,-1.4,1.5,-2.2,1.9c-.8,.4,-1.7,.6,-2.7,.6c-.5,0,-1.2,-.1,-2.1,-.3c-1.4,-.4,-2.3,-.5,-2.9,-.5c-.2,0,-.4,0,-.5,0c-.1,.1,-.3,.1,-.6,.3l-.2,-.3l3.7,-2.9c-1.1,-.1,-2,-.6,-2.6,-1.5c-.6,-.8,-.9,-1.7,-.9,-2.7c0,-1.3,.4,-2.6,1.2,-4c.8,-1.4,1.8,-2.5,3.1,-3.3c1.2,-.7,2.4,-1.1,3.6,-1.1c.9,0,1.6,.2,2.2,.5c.7,.4,1.2,.9,1.5,1.6c.3,.7,.5,1.4,.5,2.1c0,1.3,-.4,2.7,-1.2,4.1c-.8,1.5,-1.7,2.5,-2.9,3.2c-1.1,.8,-2.4,1.1,-3.7,1.2Z" class="g3_64"/>
<path d="M219.8,275.8H351V206.2H219.8v69.6ZM219.5,206l131.6,69.9m-131.6,0L351.1,206" class="g4_64"/>
<path d="M72.6,452.3H834.9" class="g5_64"/>
<path d="M184.5,990.8H835.6V828.4H184.5V990.8Z" class="g6_64"/>
<path d="M0,138.7H120.6V0H0V138.7Z" class="g0_64"/>
<path d="M135.6,866.1h39.6V828.6H135.6v37.5Z" class="g7_64"/>
<path d="M184.8,809.3h651V718.5h-651v90.8Z" class="g6_64"/>
<path d="M135.8,756h39.7V718.5H135.8V756Z" class="g8_64"/>
<path clip-path="url(#c0_64)" d="M156.1,741.1c-2.1,.1,-3.8,-1.6,-3.6,-3.6c.1,-1.8,1.5,-3.1,3.2,-3.2c2,-.2,3.7,1.5,3.6,3.6c-.1,1.7,-1.5,3.1,-3.2,3.2m.2,2.9c-3.8,.3,-7,-2.9,-6.8,-6.7c.2,-3.2,2.8,-5.8,6,-6c3.8,-.2,7,3,6.7,6.8c-.2,3.1,-2.8,5.7,-5.9,5.9m-.4,-15.3c-5.8,0,-11,3.1,-14.9,8.3c-.3,.4,-.3,1,0,1.4c3.9,5.1,9.1,8.3,14.9,8.3c5.7,0,11,-3.2,14.8,-8.3c.4,-.4,.4,-1,0,-1.4c-3.8,-5.2,-9.1,-8.3,-14.8,-8.3Z" class="g9_64"/>
<path d="M659.3,866.4H785.8M659.3,920.2H785.8" class="ga_64"/>
<path d="M659.8,866v54.1M785.3,866v54.1" class="gb_64"/>
<path d="M73.6,1011.2H835.8" class="g5_64"/>
<path d="M452.6,293.3h11.2m59.6,0h11.2m58.5,0h12.3m60.6,0h13.2" class="gc_64"/>
<path d="M251.2,429.8h75.1v-75H251.2v75Z" class="g4_64"/>
</svg>