<?xml version="1.0" encoding="UTF-8" standalone="no"?>
<!DOCTYPE svg PUBLIC "-//W3C//DTD SVG 1.1//EN"
"http://www.w3.org/Graphics/SVG/1.1/DTD/svg11.dtd">
<svg viewBox="0 0 909 1147" version="1.1" xmlns="http://www.w3.org/2000/svg" xmlns:xlink="http://www.w3.org/1999/xlink">
<defs>
<clipPath id="c0_121"><path d="M690.9,148.2V75.6H804.6v72.6Z"/></clipPath>
<clipPath id="c1_121"><path d="M690.9,426.3V353.6H804.6v72.7Z"/></clipPath>
<style type="text/css"><![CDATA[
.g0_121{
fill: #E7A9A1;
}
.g1_121{
fill: none;
stroke: #000;
stroke-width: 1.069;
stroke-miterlimit: 2;
}
.g2_121{
fill: none;
stroke: #000;
stroke-width: 1.069;
stroke-miterlimit: 2;
stroke-dasharray: 6,4;
}
.g3_121{
fill: #000;
}
.g4_121{
fill: none;
stroke: #0EA5DF;
stroke-width: 3.055;
}
.g5_121{
fill: #E8F1FA;
}
]]></style>
</defs>
<path d="M835.8,1131h73.6v-51.5H835.8V1131Z" class="g0_121"/>
<path d="M765.5,135.7l26,-21.1M765.1,97.7L791.6,76.2M691.5,97L717,76.2m-25.6,21h74.2v38.4H691.4V97.2Z" class="g1_121"/>
<path d="M691.3,135.7l25.9,-21" class="g2_121"/>
<path d="M791.5,76.1v38.4" class="g1_121"/>
<path d="M717.4,76.1v38.4h73.5" class="g2_121"/>
<path d="M717.4,76.1h74.1" class="g1_121"/>
<path clip-path="url(#c0_121)" fill-rule="evenodd" d="M725.3,140.3c-.4,0,-.8,.2,-1.2,.6c-.6,.5,-1.2,1.2,-1.6,2.2c-.5,1,-.7,1.9,-.7,2.7c0,.4,.1,.8,.3,1c.2,.2,.4,.4,.7,.4c.6,0,1.3,-.5,2.1,-1.5c1,-1.3,1.5,-2.6,1.5,-3.9c0,-.5,-.1,-.9,-.3,-1.1c-.2,-.2,-.4,-.4,-.8,-.4m3.2,-.4l-1.7,6l-.2,.9c-.1,0,-.1,.1,-.1,.2c0,.1,.1,.1,.1,.2q.1,.1,.2,.1c.1,0,.2,-.1,.3,-.2c.2,-.1,.5,-.5,.9,-1l.3,.2c-.4,.6,-.8,1.1,-1.2,1.4c-.5,.3,-.9,.5,-1.2,.5c-.3,0,-.5,-.1,-.6,-.2c-.1,-.1,-.2,-.3,-.2,-.6c0,-.2,.1,-.6,.2,-1.1l.2,-.7c-.8,1,-1.5,1.8,-2.2,2.2c-.5,.2,-.9,.4,-1.4,.4c-.4,0,-.8,-.2,-1.1,-.5c-.3,-.4,-.5,-.9,-.5,-1.5c0,-1,.3,-2,.9,-3c.6,-1.1,1.3,-1.9,2.2,-2.6c.6,-.5,1.3,-.7,1.9,-.7c.4,0,.7,.1,.9,.3c.2,.2,.4,.5,.6,.9l.3,-1Z" class="g3_121"/>
<path fill-rule="evenodd" d="M782.6,137.2c.6,.4,1.1,.5,1.5,.5c.6,0,1.1,-.2,1.7,-.5c.5,-.4,1,-1.1,1.4,-2c.5,-.9,.7,-1.8,.7,-2.8c0,-.5,-.2,-.9,-.4,-1.2c-.3,-.4,-.6,-.5,-1,-.5c-.6,0,-1.1,.2,-1.6,.7c-.6,.4,-.9,1,-1.2,1.8Zm3.4,-12l-1.7,6.2c.5,-.6,1,-1,1.5,-1.2c.4,-.3,.8,-.4,1.3,-.4c.7,0,1.2,.3,1.6,.7c.4,.4,.6,1,.6,1.8c0,.9,-.2,1.9,-.8,2.8c-.5,1,-1.2,1.7,-2,2.3c-.9,.5,-1.7,.8,-2.5,.8c-.9,0,-1.8,-.4,-2.8,-1.1l2.7,-9.3c.3,-.8,.4,-1.2,.4,-1.3c0,-.2,-.1,-.3,-.2,-.4c-.1,-.1,-.3,-.1,-.6,-.1c-.1,0,-.3,0,-.6,0v-.3Z" class="g3_121"/>
<path fill-rule="evenodd" d="M803.9,97.3c-.6,.8,-1.3,1.3,-1.9,1.7c-.6,.3,-1.3,.5,-2,.5c-.8,0,-1.5,-.3,-2,-.7c-.4,-.5,-.7,-1.2,-.7,-2c0,-.9,.3,-1.8,.8,-2.7c.5,-.8,1.2,-1.6,2,-2.1c.9,-.6,1.7,-.8,2.6,-.8c.6,0,1.1,.1,1.4,.4c.4,.2,.5,.6,.5,1c0,.3,-.1,.7,-.3,.9c-.2,.2,-.4,.3,-.6,.3c-.2,0,-.4,0,-.5,-.2c-.1,-.1,-.2,-.2,-.2,-.4c0,-.1,0,-.2,.1,-.3c0,-.1,.1,-.2,.3,-.4c.1,-.1,.2,-.2,.2,-.3c0,0,.1,-.1,.1,-.1c0,-.2,-.1,-.3,-.2,-.4c-.2,-.1,-.4,-.1,-.7,-.1c-.6,0,-1.2,.2,-1.8,.6c-.6,.4,-1,1,-1.4,1.7c-.5,1,-.8,1.9,-.8,2.8c0,.6,.2,1.1,.5,1.4c.4,.4,.9,.6,1.5,.6c.4,0,.9,-.1,1.3,-.4c.5,-.2,1,-.6,1.5,-1.2Z" class="g3_121"/>
<path d="M765.5,413.8l26,-21.1M765.1,375.8l26.5,-21.5M691.5,375L717,354.3m-25.6,20.9h74.2v38.4H691.4V375.2Z" class="g1_121"/>
<path d="M691.3,413.8l25.9,-21" class="g2_121"/>
<path d="M791.5,354.2v38.4" class="g1_121"/>
<path d="M717.4,354.2v38.4h73.5" class="g2_121"/>
<path d="M717.4,354.2h74.1" class="g1_121"/>
<path clip-path="url(#c1_121)" fill-rule="evenodd" d="M725.3,418.4c-.4,0,-.8,.2,-1.2,.5c-.6,.5,-1.2,1.3,-1.6,2.3c-.5,1,-.7,1.9,-.7,2.7c0,.4,.1,.7,.3,1c.2,.2,.4,.3,.7,.3c.6,0,1.3,-.5,2.1,-1.4c1,-1.3,1.5,-2.6,1.5,-4c0,-.5,-.1,-.8,-.3,-1.1c-.2,-.2,-.4,-.3,-.8,-.3m3.2,-.5l-1.7,6.1l-.2,.8c-.1,.1,-.1,.2,-.1,.2c0,.1,.1,.2,.1,.3q.1,0,.2,0c.1,0,.2,0,.3,-.1c.2,-.2,.5,-.5,.9,-1.1l.3,.2c-.4,.7,-.8,1.1,-1.2,1.5c-.5,.3,-.9,.5,-1.2,.5c-.3,0,-.5,-.1,-.6,-.2c-.1,-.2,-.2,-.4,-.2,-.6c0,-.3,.1,-.7,.2,-1.2l.2,-.6c-.8,1,-1.5,1.7,-2.2,2.1c-.5,.3,-.9,.5,-1.4,.5c-.4,0,-.8,-.2,-1.1,-.6c-.3,-.4,-.5,-.8,-.5,-1.5c0,-.9,.3,-1.9,.9,-3c.6,-1,1.3,-1.9,2.2,-2.5c.6,-.5,1.3,-.8,1.9,-.8c.4,0,.7,.1,.9,.3c.2,.2,.4,.5,.6,1l.3,-1Z" class="g3_121"/>
<path fill-rule="evenodd" d="M782.6,415.3c.6,.3,1.1,.5,1.5,.5c.6,0,1.1,-.2,1.7,-.6c.5,-.4,1,-1,1.4,-1.9c.5,-.9,.7,-1.9,.7,-2.8c0,-.6,-.2,-1,-.4,-1.3c-.3,-.3,-.6,-.5,-1,-.5c-.6,0,-1.1,.3,-1.6,.7c-.6,.5,-.9,1.1,-1.2,1.9Zm3.4,-12l-1.7,6.1c.5,-.5,1,-1,1.5,-1.2c.4,-.2,.8,-.3,1.3,-.3c.7,0,1.2,.2,1.6,.6c.4,.5,.6,1.1,.6,1.8c0,1,-.2,1.9,-.8,2.9c-.5,.9,-1.2,1.7,-2,2.2c-.9,.5,-1.7,.8,-2.5,.8c-.9,0,-1.8,-.3,-2.8,-1l2.7,-9.4c.3,-.7,.4,-1.1,.4,-1.2c0,-.2,-.1,-.3,-.2,-.4c-.1,-.1,-.3,-.2,-.6,-.2c-.1,0,-.3,.1,-.6,.1v-.3Z" class="g3_121"/>
<path fill-rule="evenodd" d="M803.9,375.4c-.6,.7,-1.3,1.3,-1.9,1.6c-.6,.4,-1.3,.5,-2,.5c-.8,0,-1.5,-.2,-2,-.7c-.4,-.5,-.7,-1.1,-.7,-1.9c0,-.9,.3,-1.8,.8,-2.7c.5,-.9,1.2,-1.6,2,-2.1c.9,-.6,1.7,-.9,2.6,-.9c.6,0,1.1,.2,1.4,.4c.4,.3,.5,.6,.5,1c0,.4,-.1,.7,-.3,1c-.2,.2,-.4,.3,-.6,.3c-.2,0,-.4,-.1,-.5,-.2c-.1,-.1,-.2,-.3,-.2,-.4c0,-.2,0,-.3,.1,-.4c0,-.1,.1,-.2,.3,-.3c.1,-.1,.2,-.2,.2,-.3c0,-.1,.1,-.1,.1,-.2c0,-.1,-.1,-.2,-.2,-.3c-.2,-.1,-.4,-.2,-.7,-.2c-.6,0,-1.2,.2,-1.8,.6c-.6,.5,-1,1,-1.4,1.8c-.5,.9,-.8,1.8,-.8,2.8c0,.6,.2,1,.5,1.4c.4,.4,.9,.5,1.5,.5c.4,0,.9,-.1,1.3,-.3c.5,-.2,1,-.7,1.5,-1.3Z" class="g3_121"/>
<path d="M73.6,66.5H835.8M73.6,344.7H835.8" class="g4_121"/>
<path d="M183.7,1077.2H834.8V639.4H183.7v437.8Z" class="g5_121"/>
<path d="M72.5,640.2H835.8" class="g4_121"/>
</svg>