<?xml version="1.0" encoding="UTF-8" standalone="no"?>
<!DOCTYPE svg PUBLIC "-//W3C//DTD SVG 1.1//EN"
"http://www.w3.org/Graphics/SVG/1.1/DTD/svg11.dtd">
<svg viewBox="0 0 909 1147" version="1.1" xmlns="http://www.w3.org/2000/svg" xmlns:xlink="http://www.w3.org/1999/xlink">
<defs>
<clipPath id="c0_88"><path d="M556.3,1073.9V997.5h91.6v76.4Z"/></clipPath>
<clipPath id="c1_88"><path d="M185,881.6V783H724.5v98.6Z"/></clipPath>
<style type="text/css"><![CDATA[
.g0_88{
fill: #B6D774;
}
.g1_88{
fill: #FFF1E0;
}
.g2_88{
fill: #000;
}
.g3_88{
fill: none;
stroke: #000;
stroke-width: 1.104;
stroke-miterlimit: 2;
}
.g4_88{
fill: #0C4B7F;
}
.g5_88{
fill: none;
stroke: #8ED8F8;
stroke-width: 0.542;
stroke-miterlimit: 2;
}
.g6_88{
fill: none;
stroke: #ED1D24;
stroke-width: 0.76;
stroke-miterlimit: 2;
}
.g7_88{
fill: none;
stroke: #000;
stroke-width: 0.76;
stroke-miterlimit: 2;
}
.g8_88{
fill: #C7EAFB;
}
.g9_88{
fill: #E7EFC1;
}
.ga_88{
fill: #FFFAC2;
}
.gb_88{
fill: #FAD5E6;
}
.gc_88{
fill: none;
stroke: #8ED8F8;
stroke-width: 0.763;
stroke-miterlimit: 2;
}
.gd_88{
fill: none;
stroke: #000;
stroke-width: 0.763;
stroke-miterlimit: 2;
}
.ge_88{
fill: none;
stroke: #EC008C;
stroke-width: 1.069;
stroke-miterlimit: 2;
}
.gf_88{
fill: none;
stroke: #0EA5DF;
stroke-width: 3.055;
}
.gg_88{
fill: #0EA5DF;
}
]]></style>
</defs>
<path d="M0,1131H73.8v-51.5H0V1131Z" class="g0_88"/>
<path d="M184.8,1078.3h651V988.1h-651v90.2Z" class="g1_88"/>
<path fill-rule="evenodd" d="M599.9,1060.9c-.3,0,-.7,.2,-1.1,.5c-.6,.5,-1.1,1.1,-1.5,2.1c-.4,.9,-.6,1.7,-.6,2.4c0,.4,0,.7,.2,.9c.2,.2,.4,.3,.7,.3c.6,0,1.2,-.4,1.9,-1.3c1,-1.2,1.4,-2.4,1.4,-3.6c0,-.5,-.1,-.8,-.2,-1c-.2,-.2,-.5,-.3,-.8,-.3m2.9,-.4l-1.6,5.5l-.1,.8q-.1,.1,-.1,.2c0,0,.1,.1,.1,.2c.1,0,.1,.1,.2,.1c0,0,.1,-.1,.3,-.2c.2,-.1,.5,-.5,.8,-1l.3,.2c-.4,.6,-.8,1,-1.2,1.3c-.4,.3,-.7,.5,-1.1,.5c-.2,0,-.4,-.1,-.5,-.2c-.1,-.1,-.2,-.3,-.2,-.5c0,-.3,.1,-.6,.2,-1.1l.2,-.6c-.8,1,-1.4,1.6,-2,2c-.4,.3,-.9,.4,-1.3,.4c-.4,0,-.7,-.2,-1,-.5c-.3,-.3,-.5,-.8,-.5,-1.4c0,-.8,.3,-1.8,.8,-2.7c.5,-1,1.2,-1.8,2,-2.3c.6,-.5,1.2,-.7,1.8,-.7c.3,0,.6,.1,.8,.2c.3,.2,.4,.5,.5,.9l.3,-.9Z" class="g2_88"/>
<g clip-path="url(#c0_88)">
<path fill-rule="evenodd" d="M647.3,1032.6c-.6,.7,-1.2,1.2,-1.8,1.5c-.5,.4,-1.2,.5,-1.8,.5c-.8,0,-1.4,-.2,-1.8,-.6c-.5,-.5,-.7,-1.1,-.7,-1.8c0,-.8,.3,-1.7,.7,-2.5c.5,-.8,1.1,-1.4,1.9,-1.9c.8,-.6,1.6,-.8,2.3,-.8c.6,0,1.1,.1,1.4,.4c.3,.2,.4,.5,.4,.9c0,.3,-.1,.6,-.3,.9c-.1,.1,-.3,.2,-.5,.2c-.2,0,-.4,0,-.5,-.1c-.1,-.1,-.1,-.3,-.1,-.4c0,-.1,0,-.2,0,-.3c.1,-.1,.1,-.2,.3,-.3c.1,-.2,.2,-.3,.2,-.3c0,-.1,.1,-.1,.1,-.2c0,-.1,-.1,-.2,-.2,-.3c-.2,-.1,-.4,-.1,-.7,-.1c-.5,0,-1,.1,-1.6,.5c-.5,.4,-.9,.9,-1.3,1.6c-.5,.9,-.7,1.7,-.7,2.6c0,.5,.2,1,.5,1.3c.3,.3,.7,.5,1.3,.5c.4,0,.8,-.1,1.2,-.3c.4,-.2,.9,-.6,1.4,-1.2Z" class="g2_88"/>
<path fill-rule="evenodd" d="M609.8,1008.5c.5,.3,1,.5,1.4,.5c.5,0,1,-.2,1.5,-.5c.6,-.4,1,-1,1.4,-1.8c.4,-.9,.6,-1.7,.6,-2.6c0,-.5,-.2,-.9,-.4,-1.1c-.3,-.3,-.6,-.5,-.9,-.5c-.5,0,-1,.2,-1.5,.6c-.5,.5,-.8,1,-1,1.7Zm3.2,-11l-1.6,5.7c.5,-.6,.9,-.9,1.3,-1.1c.4,-.2,.8,-.3,1.3,-.3c.6,0,1.1,.2,1.4,.5c.4,.4,.6,1,.6,1.7c0,.9,-.2,1.7,-.7,2.6c-.6,.9,-1.2,1.6,-1.9,2.1c-.8,.4,-1.6,.7,-2.3,.7c-.8,0,-1.7,-.3,-2.5,-.9l2.5,-8.6c.1,-.7,.2,-1.1,.2,-1.2c0,-.2,0,-.3,-.1,-.3c-.1,-.1,-.3,-.2,-.5,-.2c-.2,0,-.3,0,-.6,.1V998Z" class="g2_88"/>
</g>
<path fill-rule="evenodd" d="M568.1,1026.4c0,-.4,-.1,-.7,-.3,-.9c-.2,-.2,-.5,-.3,-.8,-.3c-.7,0,-1.4,.6,-2.2,1.7c-.7,1.2,-1.1,2.3,-1.1,3.3c0,.4,.1,.7,.3,.9c.2,.2,.4,.4,.6,.4c.6,0,1.3,-.7,2.2,-1.9c.8,-1.2,1.3,-2.3,1.3,-3.2m3,-5.9l-2.8,9.7c-.2,.6,-.2,.9,-.2,1.1c0,0,0,.1,0,.1q.1,.1,.2,.1q.1,0,.2,-.1c.2,-.1,.5,-.5,1,-1l.3,.2c-.4,.5,-.8,1,-1.2,1.3c-.4,.4,-.8,.5,-1.2,.5c-.2,0,-.3,0,-.4,-.2c-.2,-.1,-.2,-.3,-.2,-.5c0,-.3,.1,-.8,.2,-1.3l.4,-1c-.8,1.2,-1.6,2.1,-2.2,2.5c-.5,.4,-.9,.5,-1.3,.5c-.4,0,-.8,-.2,-1.1,-.5c-.3,-.4,-.5,-.9,-.5,-1.5c0,-.9,.3,-1.7,.8,-2.6c.5,-1,1.2,-1.7,2.1,-2.3c.7,-.5,1.3,-.7,1.8,-.7c.3,0,.6,.1,.8,.2c.2,.1,.4,.3,.6,.6l.8,-2.9c.1,-.2,.2,-.3,.2,-.5c.1,-.2,.1,-.4,.1,-.5c0,-.1,-.1,-.2,-.1,-.3c-.2,-.1,-.3,-.1,-.5,-.1c-.1,0,-.3,0,-.6,0v-.3Z" class="g2_88"/>
<path d="M592.1,1013.7h39.6l5.5,42.5H557.4l34.7,-42.5Z" class="g3_88"/>
<path d="M135.8,1025.8h39.7V988.3H135.8v37.5Z" class="g4_88"/>
<path clip-path="url(#c1_88)" d="M185.6,785.5v93.7M201,785.5v93.7m15.4,-93.7v93.7m15.4,-93.7v93.7m15.4,-93.7v93.7m15.4,-93.7v93.7M278,785.5v93.7m15.4,-93.7v93.7m15.4,-93.7v93.7m15.4,-93.7v93.7m15.3,-93.7v93.7m15.4,-93.7v93.7m15.4,-93.7v93.7m15.4,-93.7v93.7m15.4,-93.7v93.7m15.4,-93.7v93.7m15.4,-93.7v93.7m15.4,-93.7v93.7m15.4,-93.7v93.7m15.4,-93.7v93.7m15.4,-93.7v93.7m15.3,-93.7v93.7m15.4,-93.7v93.7m15.4,-93.7v93.7M555,785.5v93.7m15.4,-93.7v93.7m15.4,-93.7v93.7m15.4,-93.7v93.7m15.4,-93.7v93.7M632,785.5v93.7m15.4,-93.7v93.7m15.4,-93.7v93.7m15.4,-93.7v93.7m15.3,-93.7v93.7m15.4,-93.7v93.7m15.4,-93.7v93.7M185.6,785.5H724.9M185.6,801.1H724.9M185.6,816.7H724.9M185.6,832.3H724.9M185.6,848H724.9M185.6,863.6H724.9M185.6,879.2H724.9" class="g5_88"/>
<path d="M200.8,863.7h92m46.6,.1H432m61.2,0h93.2m46,15.4V786M247.8,801.2H216.7v62.1m231,-62.2H416.9m77.3,.1h29.6m169.7,46.1v-30" class="g6_88"/>
<path d="M201.2,863.7l15.7,-62m31.1,-.5l45.4,62.5m46.4,0l77,-62.5m30.6,.4l-15.4,62" class="g7_88"/>
<path d="M493.7,863.7V801.2" class="g6_88"/>
<path d="M524.7,801.2l61.7,62.5" class="g7_88"/>
<path fill-rule="evenodd" d="M196.8,867l-.7,7.2c0,.4,0,.6,0,.7c0,.2,0,.3,0,.4c.1,.1,.2,.2,.4,.3c.1,0,.3,.1,.7,.1l-.1,.2h-3.4l.1,-.2h.1c.3,0,.5,-.1,.7,-.2c.1,-.1,.2,-.2,.3,-.4c0,-.1,.1,-.5,.1,-1l.1,-1.1h-2.5l-.8,1.2c-.2,.3,-.4,.5,-.4,.6c-.1,.1,-.1,.3,-.1,.4c0,.1,.1,.2,.2,.3c.1,.1,.3,.2,.5,.2v.2h-2.6l.1,-.2c.3,0,.6,-.1,.8,-.3c.2,-.2,.6,-.7,1.1,-1.3l5.1,-7.1Zm-1.3,2.1l-2.5,3.5h2.2Z" class="g2_88"/>
<path fill-rule="evenodd" d="M489,867l-.6,7.2c-.1,.4,-.1,.6,-.1,.7c0,.2,.1,.3,.1,.4c.1,.1,.2,.2,.3,.3c.2,0,.4,.1,.7,.1v.2H486v-.2h.2c.3,0,.5,-.1,.7,-.2c.1,-.1,.2,-.2,.3,-.4c0,-.1,0,-.5,.1,-1l.1,-1.1h-2.5l-.9,1.2c-.2,.3,-.3,.5,-.3,.6c-.1,.1,-.1,.3,-.1,.4c0,.1,0,.2,.2,.3c.1,.1,.3,.2,.5,.2l-.1,.2h-2.5l.1,-.2c.3,0,.5,-.1,.8,-.3c.2,-.2,.6,-.7,1.1,-1.3l5.1,-7.1Zm-1.2,2.1l-2.5,3.5h2.1Z" class="g2_88"/>
<path fill-rule="evenodd" d="M629.3,786.4l-.6,7.2c-.1,.4,-.1,.6,-.1,.7c0,.2,0,.3,.1,.4c.1,.1,.2,.2,.3,.3c.2,0,.4,.1,.7,.1v.2h-3.4v-.2h.2c.3,0,.5,-.1,.7,-.2c.1,-.1,.2,-.2,.2,-.4c.1,-.2,.1,-.5,.2,-1l.1,-1.1h-2.5l-.9,1.2c-.2,.3,-.3,.5,-.3,.6c-.1,.1,-.1,.2,-.1,.3c0,.2,0,.3,.1,.4c.2,.1,.3,.2,.6,.2l-.1,.2H622v-.2c.4,-.1,.6,-.2,.9,-.4c.2,-.2,.6,-.6,1,-1.2l5.2,-7.1Zm-1.2,2.1l-2.5,3.5h2.1Z" class="g2_88"/>
<path fill-rule="evenodd" d="M335.8,867l-.7,7.2c0,.4,0,.6,0,.7c0,.2,0,.3,.1,.4c.1,.1,.2,.2,.3,.3c.2,0,.4,.1,.7,.1l-.1,.2h-3.4l.1,-.2h.2c.2,0,.5,-.1,.6,-.2c.2,-.1,.3,-.2,.3,-.4c.1,-.1,.1,-.5,.2,-1l.1,-1.1h-2.5l-.9,1.2c-.2,.3,-.3,.5,-.4,.6c0,.1,0,.3,0,.4c0,.1,0,.2,.1,.3c.1,.1,.3,.2,.6,.2l-.1,.2h-2.5v-.2c.3,0,.6,-.1,.9,-.3c.2,-.2,.5,-.7,1,-1.3l5.2,-7.1Zm-1.3,2.1l-2.5,3.5h2.2Z" class="g2_88"/>
<path fill-rule="evenodd" d="M297.7,867.4l.1,-.2h3.1c.5,0,.9,0,1.3,.2c.4,.2,.7,.4,1,.7c.2,.3,.3,.6,.3,.9c0,.5,-.2,1,-.6,1.4c-.3,.4,-.9,.7,-1.7,.9c.5,.2,.9,.4,1.1,.8c.3,.3,.4,.7,.4,1.1c0,.4,-.1,.8,-.3,1.2c-.3,.4,-.6,.7,-.9,.9c-.3,.2,-.8,.4,-1.2,.5c-.4,.1,-.9,.1,-1.7,.1h-3.1v-.2c.4,0,.6,-.1,.7,-.1c.2,-.1,.3,-.2,.4,-.3c.1,-.2,.2,-.5,.4,-1.1l1.5,-5.3c.2,-.5,.2,-.8,.2,-1c0,-.1,0,-.3,-.1,-.4c-.2,0,-.4,-.1,-.7,-.1q-.1,0,-.2,0M299,871c.3,0,.5,0,.6,0c.9,0,1.5,-.1,1.9,-.5c.5,-.4,.7,-.9,.7,-1.5c0,-.4,-.1,-.8,-.4,-1c-.3,-.3,-.7,-.4,-1.3,-.4c-.1,0,-.3,0,-.5,.1Zm-1.3,4.3c.5,.1,.8,.1,1.1,.1c.7,0,1.3,-.2,1.8,-.6c.5,-.4,.7,-.9,.7,-1.6c0,-.5,-.1,-1,-.4,-1.3c-.4,-.3,-.9,-.4,-1.6,-.4c-.1,0,-.3,0,-.5,0Z" class="g2_88"/>
<path fill-rule="evenodd" d="M590,867.4l.1,-.2h3c.6,0,1,0,1.4,.2c.4,.2,.7,.4,.9,.7c.2,.3,.3,.6,.3,.9c0,.5,-.2,1,-.5,1.4c-.4,.4,-1,.7,-1.8,.9c.6,.2,.9,.4,1.2,.8c.2,.3,.4,.7,.4,1.1c0,.4,-.2,.8,-.4,1.2c-.2,.4,-.5,.7,-.8,.9c-.4,.2,-.8,.4,-1.3,.5c-.3,.1,-.9,.1,-1.6,.1h-3.2l.1,-.2c.4,0,.6,-.1,.7,-.1c.2,-.1,.3,-.2,.4,-.3c.1,-.2,.2,-.5,.4,-1.1l1.5,-5.3c.1,-.5,.2,-.8,.2,-1c0,-.1,-.1,-.3,-.2,-.4c-.1,0,-.3,-.1,-.6,-.1c-.1,0,-.2,0,-.2,0m1.3,3.6c.2,0,.4,0,.6,0c.8,0,1.5,-.1,1.9,-.5c.5,-.4,.7,-.9,.7,-1.5c0,-.4,-.2,-.8,-.4,-1c-.3,-.3,-.7,-.4,-1.3,-.4c-.1,0,-.3,0,-.6,.1Zm-1.3,4.3c.5,.1,.8,.1,1.1,.1c.6,0,1.2,-.2,1.7,-.6c.5,-.4,.8,-.9,.8,-1.6c0,-.5,-.2,-1,-.5,-1.3c-.3,-.3,-.8,-.4,-1.5,-.4c-.1,0,-.3,0,-.5,0Z" class="g2_88"/>
<path fill-rule="evenodd" d="M622.7,870.9l.1,-.3h3.1c.5,0,.9,.1,1.3,.3c.5,.1,.8,.3,1,.6c.2,.3,.3,.6,.3,1c0,.5,-.2,.9,-.6,1.3c-.3,.4,-.9,.7,-1.7,.9c.5,.2,.9,.5,1.1,.8c.3,.4,.4,.7,.4,1.1c0,.4,-.1,.9,-.3,1.2c-.3,.4,-.5,.8,-.9,1c-.3,.2,-.8,.3,-1.2,.5c-.4,0,-.9,.1,-1.7,.1h-3.1l.1,-.3c.3,0,.5,0,.6,-.1c.2,0,.3,-.1,.4,-.3c.1,-.1,.2,-.5,.4,-1.1l1.5,-5.3c.2,-.4,.2,-.7,.2,-.9c0,-.2,0,-.3,-.1,-.4c-.2,-.1,-.4,-.1,-.7,-.1q-.1,0,-.2,0m1.3,3.6c.3,0,.5,0,.6,0c.9,0,1.5,-.2,2,-.6c.4,-.4,.6,-.9,.6,-1.4c0,-.5,-.1,-.8,-.4,-1.1c-.3,-.2,-.7,-.4,-1.3,-.4c-.1,0,-.3,.1,-.5,.1Zm-1.3,4.3c.5,.1,.9,.1,1.1,.1c.7,0,1.3,-.2,1.8,-.6c.5,-.4,.7,-1,.7,-1.7c0,-.5,-.1,-.9,-.4,-1.2c-.4,-.3,-.9,-.5,-1.6,-.5c-.1,0,-.3,.1,-.5,.1Z" class="g2_88"/>
<path fill-rule="evenodd" d="M438.2,867.4l.1,-.2h3c.6,0,1,0,1.4,.2c.4,.2,.7,.4,.9,.7c.2,.3,.3,.6,.3,.9c0,.5,-.1,1,-.5,1.4c-.4,.4,-1,.7,-1.8,.9c.6,.2,.9,.4,1.2,.8c.2,.3,.4,.7,.4,1.1c0,.4,-.1,.8,-.4,1.2c-.2,.4,-.5,.7,-.8,.9c-.4,.2,-.8,.4,-1.3,.5c-.3,.1,-.9,.1,-1.6,.1h-3.2l.1,-.2c.4,0,.6,-.1,.7,-.1c.2,-.1,.3,-.2,.4,-.3c.1,-.2,.2,-.5,.4,-1.1l1.5,-5.3c.1,-.5,.2,-.8,.2,-1c0,-.1,0,-.3,-.2,-.4c-.1,0,-.3,-.1,-.6,-.1c-.1,0,-.2,0,-.2,0m1.3,3.6c.2,0,.4,0,.6,0c.8,0,1.5,-.1,1.9,-.5c.5,-.4,.7,-.9,.7,-1.5c0,-.4,-.2,-.8,-.4,-1c-.3,-.3,-.7,-.4,-1.3,-.4c-.1,0,-.3,0,-.6,.1Zm-1.3,4.3c.5,.1,.8,.1,1.1,.1c.6,0,1.2,-.2,1.7,-.6c.6,-.4,.8,-.9,.8,-1.6c0,-.5,-.2,-1,-.5,-1.3c-.3,-.3,-.8,-.4,-1.5,-.4c-.1,0,-.3,0,-.5,0Z" class="g2_88"/>
<path fill-rule="evenodd" d="M262.8,790.6l-.6,2.9H262l-.1,-.7c0,-.3,0,-.5,-.1,-.7c-.1,-.2,-.2,-.4,-.4,-.6c-.1,-.1,-.3,-.2,-.5,-.3c-.3,-.1,-.5,-.1,-.8,-.1c-.8,0,-1.4,.2,-2,.6c-.7,.5,-1.3,1.3,-1.7,2.3c-.3,.8,-.5,1.6,-.5,2.4c0,.9,.2,1.6,.7,2.1c.5,.5,1.1,.7,1.9,.7c.6,0,1.1,-.1,1.6,-.4c.5,-.2,.9,-.6,1.3,-1.2h.3c-.5,.8,-1,1.3,-1.6,1.7c-.5,.3,-1.2,.5,-2,.5c-.7,0,-1.3,-.2,-1.9,-.5c-.5,-.3,-.9,-.7,-1.2,-1.2c-.3,-.6,-.5,-1.1,-.5,-1.8c0,-.9,.3,-1.8,.8,-2.8c.5,-.9,1.2,-1.6,2.1,-2.1c.9,-.5,1.7,-.8,2.6,-.8c.5,0,.9,.1,1.5,.3c.2,.1,.3,.2,.4,.2q.2,0,.3,-.1c.1,0,.2,-.2,.4,-.4Z" class="g2_88"/>
<path fill-rule="evenodd" d="M535.5,789.8l-.6,2.9h-.3V792c0,-.3,-.1,-.5,-.1,-.7c-.1,-.2,-.2,-.4,-.4,-.6c-.1,-.1,-.3,-.2,-.6,-.3c-.2,-.1,-.5,-.1,-.7,-.1c-.8,0,-1.5,.2,-2,.6c-.8,.5,-1.3,1.3,-1.7,2.3c-.4,.8,-.6,1.6,-.6,2.4c0,.9,.3,1.6,.8,2.1c.5,.5,1.1,.7,1.9,.7c.6,0,1.1,-.1,1.6,-.4c.4,-.2,.8,-.7,1.2,-1.2h.3c-.4,.7,-.9,1.3,-1.5,1.7c-.6,.3,-1.3,.5,-2.1,.5c-.7,0,-1.3,-.2,-1.8,-.5c-.6,-.3,-1,-.7,-1.3,-1.2c-.3,-.6,-.4,-1.1,-.4,-1.8c0,-.9,.3,-1.9,.8,-2.8c.5,-.9,1.2,-1.6,2,-2.1c.9,-.5,1.8,-.8,2.7,-.8c.4,0,.9,.1,1.4,.3c.2,.1,.4,.2,.5,.2c.1,0,.2,-.1,.3,-.1c.1,0,.2,-.2,.4,-.4Z" class="g2_88"/>
<path fill-rule="evenodd" d="M535.5,789.8l-.6,2.9h-.3V792c0,-.3,-.1,-.5,-.1,-.7c-.1,-.2,-.2,-.4,-.4,-.6c-.1,-.1,-.3,-.2,-.6,-.3c-.2,-.1,-.5,-.1,-.7,-.1c-.8,0,-1.5,.2,-2,.6c-.8,.5,-1.3,1.3,-1.7,2.3c-.4,.8,-.6,1.6,-.6,2.4c0,.9,.3,1.6,.8,2.1c.5,.5,1.1,.7,1.9,.7c.6,0,1.1,-.1,1.6,-.4c.4,-.2,.8,-.7,1.2,-1.2h.3c-.4,.7,-.9,1.3,-1.5,1.7c-.6,.3,-1.3,.5,-2.1,.5c-.7,0,-1.3,-.2,-1.8,-.5c-.6,-.3,-1,-.7,-1.3,-1.2c-.3,-.6,-.4,-1.1,-.4,-1.8c0,-.9,.3,-1.9,.8,-2.8c.5,-.9,1.2,-1.6,2,-2.1c.9,-.5,1.8,-.8,2.7,-.8c.4,0,.9,.1,1.4,.3c.2,.1,.4,.2,.5,.2c.1,0,.2,-.1,.3,-.1c.1,0,.2,-.2,.4,-.4Z" class="g2_88"/>
<path fill-rule="evenodd" d="M704.3,848.9l-.7,2.8h-.2V851c-.1,-.2,-.1,-.5,-.2,-.7c-.1,-.2,-.2,-.3,-.3,-.5c-.2,-.1,-.4,-.3,-.6,-.3c-.2,-.1,-.5,-.2,-.8,-.2c-.7,0,-1.4,.2,-2,.7c-.7,.5,-1.3,1.3,-1.7,2.2c-.3,.8,-.5,1.7,-.5,2.5c0,.8,.3,1.5,.7,2c.5,.5,1.2,.8,1.9,.8c.6,0,1.2,-.2,1.6,-.4c.5,-.3,.9,-.7,1.3,-1.2h.3c-.5,.7,-1,1.3,-1.5,1.6c-.6,.4,-1.3,.5,-2.1,.5c-.7,0,-1.3,-.1,-1.9,-.4c-.5,-.3,-.9,-.7,-1.2,-1.3c-.3,-.5,-.4,-1.1,-.4,-1.7c0,-1,.2,-1.9,.7,-2.8c.5,-.9,1.2,-1.6,2.1,-2.1c.9,-.5,1.8,-.8,2.7,-.8c.4,0,.9,.1,1.4,.3c.2,.1,.4,.1,.5,.1c.1,0,.2,0,.2,0c.1,-.1,.2,-.2,.4,-.4Z" class="g2_88"/>
<path fill-rule="evenodd" d="M460.4,790.3l-.6,2.9h-.3v-.8c0,-.2,-.1,-.4,-.1,-.6c-.1,-.2,-.2,-.4,-.4,-.6c-.1,-.1,-.3,-.2,-.6,-.3c-.2,-.1,-.5,-.1,-.7,-.1c-.8,0,-1.5,.2,-2,.6c-.8,.5,-1.3,1.3,-1.7,2.3c-.4,.8,-.6,1.6,-.6,2.4c0,.9,.3,1.5,.8,2.1c.5,.5,1.1,.7,1.9,.7c.6,0,1.1,-.1,1.6,-.4c.4,-.3,.8,-.7,1.2,-1.2h.3c-.4,.7,-.9,1.3,-1.5,1.6c-.6,.4,-1.3,.6,-2.1,.6c-.7,0,-1.3,-.2,-1.8,-.5c-.6,-.3,-1,-.7,-1.3,-1.2c-.3,-.6,-.4,-1.2,-.4,-1.8c0,-.9,.3,-1.9,.8,-2.8c.5,-.9,1.2,-1.6,2,-2.1c.9,-.5,1.8,-.8,2.7,-.8c.4,0,.9,.1,1.4,.3c.2,.1,.4,.2,.5,.2c.1,0,.2,-.1,.3,-.1c.1,-.1,.2,-.2,.4,-.4Z" class="g2_88"/>
<path fill-rule="evenodd" d="M207.7,791.1l.1,-.3h2.8c1.1,0,2,.2,2.6,.5c.5,.2,1,.6,1.3,1.2c.3,.6,.5,1.2,.5,1.9c0,.6,-.1,1.1,-.3,1.7c-.2,.5,-.4,.9,-.6,1.3c-.3,.3,-.7,.7,-1.2,1c-.5,.4,-1,.7,-1.6,.9c-.6,.2,-1.3,.3,-2.2,.3h-3.7l.1,-.2c.4,-.1,.6,-.1,.7,-.1c.2,-.1,.3,-.2,.4,-.3c.1,-.2,.2,-.6,.4,-1.1l1.5,-5.3c.1,-.4,.2,-.8,.2,-1c0,-.2,-.1,-.3,-.2,-.4c-.1,-.1,-.3,-.1,-.6,-.1Zm2.3,.2l-1.9,6.6c-.1,.5,-.2,.8,-.2,.9q0,.1,.1,.2c0,.1,.1,.1,.2,.1c.1,.1,.3,.1,.5,.1c.7,0,1.3,-.1,1.9,-.2c.5,-.2,1,-.4,1.4,-.7c.5,-.4,.9,-.9,1.2,-1.6c.3,-.7,.5,-1.5,.5,-2.4c0,-1,-.3,-1.8,-.8,-2.3c-.4,-.5,-1.1,-.7,-2,-.7c-.3,0,-.5,0,-.9,0Z" class="g2_88"/>
<path fill-rule="evenodd" d="M484.7,790.8l.1,-.3h2.7c1.2,0,2.1,.2,2.6,.4c.6,.3,1,.7,1.4,1.3c.3,.6,.5,1.2,.5,1.9c0,.6,-.1,1.1,-.3,1.7c-.2,.5,-.4,.9,-.7,1.2c-.2,.4,-.6,.7,-1.1,1.1c-.5,.4,-1,.7,-1.6,.9c-.6,.2,-1.4,.3,-2.2,.3h-3.7l.1,-.3c.3,0,.6,0,.7,-.1c.1,0,.3,-.1,.3,-.3c.2,-.1,.3,-.5,.5,-1l1.5,-5.3c.1,-.5,.2,-.8,.2,-1c0,-.2,-.1,-.3,-.2,-.4c-.1,-.1,-.3,-.1,-.7,-.1Zm2.3,.2l-1.9,6.6c-.1,.4,-.2,.7,-.2,.9c0,0,0,.1,.1,.2c0,0,.1,.1,.1,.1c.1,0,.3,.1,.6,.1c.6,0,1.3,-.1,1.8,-.3c.6,-.1,1.1,-.3,1.4,-.6c.5,-.4,1,-.9,1.3,-1.6c.3,-.7,.4,-1.5,.4,-2.4c0,-1,-.2,-1.8,-.7,-2.3c-.5,-.5,-1.2,-.7,-2.1,-.7c-.2,0,-.5,0,-.8,0Z" class="g2_88"/>
<path fill-rule="evenodd" d="M699,807.6v-.3h2.8c1.2,0,2,.2,2.6,.4c.5,.3,1,.7,1.3,1.3c.4,.6,.5,1.2,.5,1.9c0,.6,-.1,1.1,-.3,1.7c-.2,.5,-.4,.9,-.6,1.3c-.3,.3,-.6,.6,-1.1,1c-.5,.4,-1.1,.7,-1.7,.9c-.6,.2,-1.3,.3,-2.2,.3h-3.6v-.3c.4,0,.6,0,.7,0c.2,-.1,.3,-.2,.4,-.3c.1,-.2,.3,-.6,.4,-1.1l1.5,-5.3c.2,-.4,.2,-.8,.2,-1c0,-.2,0,-.3,-.2,-.4c-.1,-.1,-.3,-.1,-.6,-.1Zm2.2,.2l-1.9,6.6c-.1,.5,-.2,.8,-.2,.9c0,0,.1,.1,.1,.2c0,0,.1,.1,.2,.1c.1,0,.3,.1,.5,.1c.7,0,1.3,-.1,1.9,-.2c.5,-.2,1,-.4,1.4,-.7c.5,-.4,.9,-.9,1.2,-1.6c.3,-.7,.5,-1.5,.5,-2.4c0,-1,-.3,-1.8,-.7,-2.3c-.5,-.5,-1.2,-.7,-2.1,-.7c-.2,0,-.5,0,-.9,0Z" class="g2_88"/>
<path fill-rule="evenodd" d="M406.7,791.7l.1,-.2h2.8c1.1,0,2,.1,2.6,.4c.5,.3,1,.7,1.3,1.3c.3,.6,.5,1.2,.5,1.9c0,.5,-.1,1.1,-.3,1.6c-.2,.6,-.4,1,-.6,1.3c-.3,.3,-.7,.7,-1.2,1.1c-.5,.4,-1,.7,-1.6,.9c-.6,.1,-1.3,.2,-2.2,.2h-3.7l.1,-.2c.4,0,.6,0,.7,-.1c.2,-.1,.3,-.2,.4,-.3c.1,-.2,.2,-.5,.4,-1.1l1.5,-5.3c.1,-.4,.2,-.7,.2,-.9c0,-.2,-.1,-.3,-.2,-.4c-.1,-.1,-.3,-.2,-.6,-.2Zm2.3,.3l-1.9,6.5c-.1,.5,-.2,.8,-.2,.9c0,.1,0,.2,.1,.2c0,.1,.1,.1,.2,.2c.1,0,.2,0,.5,0c.7,0,1.3,0,1.8,-.2c.6,-.1,1.1,-.3,1.5,-.6c.5,-.4,.9,-1,1.2,-1.7c.3,-.7,.5,-1.5,.5,-2.4c0,-1,-.3,-1.7,-.8,-2.2c-.4,-.5,-1.1,-.8,-2,-.8c-.3,0,-.5,.1,-.9,.1Z" class="g2_88"/>
<path d="M416.7,801.2v63M631.9,847.7h62.2" class="g6_88"/>
<path d="M632.1,786l61.5,31m-61.5,62.1l61.5,-31" class="g7_88"/>
<path d="M677.6,206l67.9,16.9l-.6,67.9l-67.3,16.9Z" class="g1_88"/>
<path fill-rule="evenodd" d="M575.7,223.2h68.5l-18,84.1h-101Z" class="g8_88"/>
<path fill-rule="evenodd" d="M422.8,239.4L525,240l-51.7,50.5H422.8Z" class="g9_88"/>
<path fill-rule="evenodd" d="M338.5,239.4l51.1,-33.6L389,307.9L338.5,290.5Z" class="ga_88"/>
<path fill-rule="evenodd" d="M236.7,222.6h50.5L304,291.1H202.4Z" class="gb_88"/>
<path d="M185.5,188.7h17v16.9h-17V188.7Zm0,16.9h17v17h-17v-17Zm0,17h17v17h-17v-17Zm0,17h17v16.9h-17V239.6Zm0,16.9h17v17h-17v-17Zm0,17h17v17h-17v-17Zm0,17h17v17h-17v-17Zm0,17h17v16.9h-17V307.5Zm17,-118.8h16.9v16.9H202.5V188.7Zm0,16.9h16.9v17H202.5v-17Zm0,17h16.9v17H202.5v-17Zm0,17h16.9v16.9H202.5V239.6Zm0,16.9h16.9v17H202.5v-17Zm0,17h16.9v17H202.5v-17Zm0,17h16.9v17H202.5v-17Zm0,17h16.9v16.9H202.5V307.5ZM219.4,188.7h17v16.9h-17V188.7Zm0,16.9h17v17h-17v-17Zm0,17h17v17h-17v-17Zm0,17h17v16.9h-17V239.6Zm0,16.9h17v17h-17v-17Zm0,17h17v17h-17v-17Zm0,17h17v17h-17v-17Zm0,17h17v16.9h-17V307.5Zm17,-118.8h17v16.9h-17V188.7Zm0,16.9h17v17h-17v-17Zm0,17h17v17h-17v-17Zm0,17h17v16.9h-17V239.6Zm0,16.9h17v17h-17v-17Zm0,17h17v17h-17v-17Zm0,17h17v17h-17v-17Zm0,17h17v16.9h-17V307.5Zm17,-118.8h17v16.9h-17V188.7Zm0,16.9h17v17h-17v-17Zm0,17h17v17h-17v-17Zm0,17h17v16.9h-17V239.6Zm0,16.9h17v17h-17v-17Zm0,17h17v17h-17v-17Zm0,17h17v17h-17v-17Zm0,17h17v16.9h-17V307.5Zm17,-118.8h16.9v16.9H270.4V188.7Zm0,16.9h16.9v17H270.4v-17Zm0,17h16.9v17H270.4v-17Zm0,17h16.9v16.9H270.4V239.6Zm0,16.9h16.9v17H270.4v-17Zm0,17h16.9v17H270.4v-17Zm0,17h16.9v17H270.4v-17Zm0,17h16.9v16.9H270.4V307.5ZM287.3,188.7h17v16.9h-17V188.7Zm0,16.9h17v17h-17v-17Zm0,17h17v17h-17v-17Zm0,17h17v16.9h-17V239.6Zm0,16.9h17v17h-17v-17Zm0,17h17v17h-17v-17Zm0,17h17v17h-17v-17Zm0,17h17v16.9h-17V307.5Zm17,-118.8h17v16.9h-17V188.7Zm0,16.9h17v17h-17v-17Zm0,17h17v17h-17v-17Zm0,17h17v16.9h-17V239.6Zm0,16.9h17v17h-17v-17Zm0,17h17v17h-17v-17Zm0,17h17v17h-17v-17Zm0,17h17v16.9h-17V307.5Zm17,-118.8h16.9v16.9H321.3V188.7Zm0,16.9h16.9v17H321.3v-17Zm0,17h16.9v17H321.3v-17Zm0,17h16.9v16.9H321.3V239.6Zm0,16.9h16.9v17H321.3v-17Zm0,17h16.9v17H321.3v-17Zm0,17h16.9v17H321.3v-17Zm0,17h16.9v16.9H321.3V307.5ZM338.2,188.7h17v16.9h-17V188.7Zm0,16.9h17v17h-17v-17Zm0,17h17v17h-17v-17Zm0,17h17v16.9h-17V239.6Zm0,16.9h17v17h-17v-17Zm0,17h17v17h-17v-17Zm0,17h17v17h-17v-17Zm0,17h17v16.9h-17V307.5Zm17,-118.8h17v16.9h-17V188.7Zm0,16.9h17v17h-17v-17Zm0,17h17v17h-17v-17Zm0,17h17v16.9h-17V239.6Zm0,16.9h17v17h-17v-17Zm0,17h17v17h-17v-17Zm0,17h17v17h-17v-17Zm0,17h17v16.9h-17V307.5Zm17,-118.8h16.9v16.9H372.2V188.7Zm0,16.9h16.9v17H372.2v-17Zm0,17h16.9v17H372.2v-17Zm0,17h16.9v16.9H372.2V239.6Zm0,16.9h16.9v17H372.2v-17Zm0,17h16.9v17H372.2v-17Zm0,17h16.9v17H372.2v-17Zm0,17h16.9v16.9H372.2V307.5ZM389.1,188.7h17v16.9h-17V188.7Zm0,16.9h17v17h-17v-17Zm0,17h17v17h-17v-17Zm0,17h17v16.9h-17V239.6Zm0,16.9h17v17h-17v-17Zm0,17h17v17h-17v-17Zm0,17h17v17h-17v-17Zm0,17h17v16.9h-17V307.5Zm17,-118.8h17v16.9h-17V188.7Zm0,16.9h17v17h-17v-17Zm0,17h17v17h-17v-17Zm0,17h17v16.9h-17V239.6Zm0,16.9h17v17h-17v-17Zm0,17h17v17h-17v-17Zm0,17h17v17h-17v-17Zm0,17h17v16.9h-17V307.5Zm17,-118.8H440v16.9H423.1V188.7Zm0,16.9H440v17H423.1v-17Zm0,17H440v17H423.1v-17Zm0,17H440v16.9H423.1V239.6Zm0,16.9H440v17H423.1v-17Zm0,17H440v17H423.1v-17Zm0,17H440v17H423.1v-17Zm0,17H440v16.9H423.1V307.5ZM440,188.7h17v16.9H440V188.7Zm0,16.9h17v17H440v-17Zm0,17h17v17H440v-17Zm0,17h17v16.9H440V239.6Zm0,16.9h17v17H440v-17Zm0,17h17v17H440v-17Zm0,17h17v17H440v-17Zm0,17h17v16.9H440V307.5ZM457,188.7h17v16.9H457V188.7Zm0,16.9h17v17H457v-17Zm0,17h17v17H457v-17Zm0,17h17v16.9H457V239.6Zm0,16.9h17v17H457v-17Zm0,17h17v17H457v-17Zm0,17h17v17H457v-17Zm0,17h17v16.9H457V307.5ZM474,188.7h17v16.9H474V188.7Zm0,16.9h17v17H474v-17Zm0,17h17v17H474v-17Zm0,17h17v16.9H474V239.6Zm0,16.9h17v17H474v-17Zm0,17h17v17H474v-17Zm0,17h17v17H474v-17Zm0,17h17v16.9H474V307.5ZM491,188.7h16.9v16.9H491V188.7Zm0,16.9h16.9v17H491v-17Zm0,17h16.9v17H491v-17Zm0,17h16.9v16.9H491V239.6Zm0,16.9h16.9v17H491v-17Zm0,17h16.9v17H491v-17Zm0,17h16.9v17H491v-17Zm0,17h16.9v16.9H491V307.5ZM507.9,188.7h17v16.9h-17V188.7Zm0,16.9h17v17h-17v-17Zm0,17h17v17h-17v-17Zm0,17h17v16.9h-17V239.6Zm0,16.9h17v17h-17v-17Zm0,17h17v17h-17v-17Zm0,17h17v17h-17v-17Zm0,17h17v16.9h-17V307.5Zm17,-118.8h17v16.9h-17V188.7Zm0,16.9h17v17h-17v-17Zm0,17h17v17h-17v-17Zm0,17h17v16.9h-17V239.6Zm0,16.9h17v17h-17v-17Zm0,17h17v17h-17v-17Zm0,17h17v17h-17v-17Zm0,17h17v16.9h-17V307.5Zm17,-118.8h16.9v16.9H541.9V188.7Zm0,16.9h16.9v17H541.9v-17Zm0,17h16.9v17H541.9v-17Zm0,17h16.9v16.9H541.9V239.6Zm0,16.9h16.9v17H541.9v-17Zm0,17h16.9v17H541.9v-17Zm0,17h16.9v17H541.9v-17Zm0,17h16.9v16.9H541.9V307.5ZM558.8,188.7h17v16.9h-17V188.7Zm0,16.9h17v17h-17v-17Zm0,16.9h17v17h-17v-17Zm0,17h17v17h-17v-17Zm0,17h17v16.9h-17V256.5Zm0,16.9h17v17h-17v-17Zm0,17h17v17h-17v-17Zm0,17h17v16.9h-17V307.4Zm17,-118.8h17v17h-17v-17Zm0,17h17v16.9h-17V205.6Zm0,16.9h17v17h-17v-17Zm0,17h17v17h-17v-17Zm0,17h17v16.9h-17V256.5Zm0,16.9h17v17h-17v-17Zm0,17h17v17h-17v-17Zm0,17h17v16.9h-17V307.4Zm17,-118.8h16.9v17H592.8v-17Zm0,17h16.9v16.9H592.8V205.6Zm0,16.9h16.9v17H592.8v-17Zm0,17h16.9v17H592.8v-17Zm0,17h16.9v16.9H592.8V256.5Zm0,16.9h16.9v17H592.8v-17Zm0,17h16.9v17H592.8v-17Zm0,17h16.9v16.9H592.8V307.4ZM609.7,188.6h17v17h-17v-17Zm0,17h17v16.9h-17V205.6Zm0,16.9h17v17h-17v-17Zm0,17h17v17h-17v-17Zm0,17h17v16.9h-17V256.5Zm0,16.9h17v17h-17v-17Zm0,17h17v17h-17v-17Zm0,17h17v16.9h-17V307.4Zm17,-118.8h17v17h-17v-17Zm0,17h17v16.9h-17V205.6Zm0,16.9h17v17h-17v-17Zm0,17h17v17h-17v-17Zm0,17h17v16.9h-17V256.5Zm0,16.9h17v17h-17v-17Zm0,17h17v17h-17v-17Zm0,17h17v16.9h-17V307.4Zm17,-118.8h16.9v17H643.7v-17Zm0,17h16.9v16.9H643.7V205.6Zm0,16.9h16.9v17H643.7v-17Zm0,17h16.9v17H643.7v-17Zm0,17h16.9v16.9H643.7V256.5Zm0,16.9h16.9v17H643.7v-17Zm0,17h16.9v17H643.7v-17Zm0,17h16.9v16.9H643.7V307.4Z" class="gc_88"/>
<path d="M236.7,222.6h50.5L304,291.1H202.4l34.3,-68.5Zm101.8,16.8l51.1,-33.6L389,307.9L338.5,290.5V239.4Zm84.3,0L525,240l-51.7,50.5H422.8V239.4ZM575.7,223.2h68.5l-18,84.1h-101l50.5,-84.1Z" class="gd_88"/>
<path d="M745.5,188.6h17v17h-17v-17Zm0,17h17v16.9h-17V205.6Zm0,16.9h17v17h-17v-17Zm0,17h17v17h-17v-17Zm0,17h17v16.9h-17V256.5Zm0,16.9h17v17h-17v-17Zm0,17h17v17h-17v-17Zm0,17h17v16.9h-17V307.4ZM660.6,188.6h17v17h-17v-17Zm0,17h17v16.9h-17V205.6Zm0,16.9h17v17h-17v-17Zm0,17h17v17h-17v-17Zm0,17h17v16.9h-17V256.5Zm0,16.9h17v17h-17v-17Zm0,17h17v17h-17v-17Zm0,17h17v16.9h-17V307.4Zm17,-118.8h17v17h-17v-17Zm0,17h17v16.9h-17V205.6Zm0,16.9h17v17h-17v-17Zm0,17h17v17h-17v-17Zm0,17h17v16.9h-17V256.5Zm0,16.9h17v17h-17v-17Zm0,17h17v17h-17v-17Zm0,17h17v16.9h-17V307.4Zm17,-118.8h17v17h-17v-17Zm0,17h17v16.9h-17V205.6Zm0,16.9h17v17h-17v-17Zm0,17h17v17h-17v-17Zm0,17h17v16.9h-17V256.5Zm0,16.9h17v17h-17v-17Zm0,17h17v17h-17v-17Zm0,17h17v16.9h-17V307.4Zm17,-118.8h16.9v17H711.6v-17Zm0,17h16.9v16.9H711.6V205.6Zm0,16.9h16.9v17H711.6v-17Zm0,17h16.9v17H711.6v-17Zm0,17h16.9v16.9H711.6V256.5Zm0,16.9h16.9v17H711.6v-17Zm0,17h16.9v17H711.6v-17Zm0,17h16.9v16.9H711.6V307.4ZM728.5,188.6h17v17h-17v-17Zm0,17h17v16.9h-17V205.6Zm0,16.9h17v17h-17v-17Zm0,17h17v17h-17v-17Zm0,17h17v16.9h-17V256.5Zm0,16.9h17v17h-17v-17Zm0,17h17v17h-17v-17Zm0,17h17v16.9h-17V307.4Z" class="gc_88"/>
<path d="M677.6,205.6l67.9,16.9l-.6,67.9l-67.3,16.9V205.6Z" class="gd_88"/>
<path d="M186.3,499.5H837.4V409.3H186.3v90.2Z" class="g1_88"/>
<path d="M186.3,677.7H837.4V510.2H186.3V677.7Z" class="g1_88"/>
<path fill-rule="evenodd" d="M613.3,552.2l.1,-.3h3.9c1.6,0,2.8,.2,3.6,.5c.8,.4,1.4,1,1.9,1.8c.5,.8,.7,1.7,.7,2.6c0,.8,-.1,1.6,-.4,2.3c-.3,.8,-.6,1.4,-.9,1.8c-.4,.5,-.9,1,-1.6,1.5c-.7,.6,-1.5,1,-2.3,1.2c-.8,.3,-1.9,.4,-3.1,.4H610l.2,-.3c.4,0,.7,-.1,.9,-.1c.2,-.1,.4,-.3,.5,-.4c.2,-.3,.4,-.8,.6,-1.6l2.2,-7.3c.1,-.6,.2,-1,.2,-1.4c0,-.2,-.1,-.4,-.2,-.5c-.2,-.1,-.5,-.2,-.9,-.2Zm3.1,.4l-2.6,9c-.2,.7,-.3,1.1,-.3,1.3c0,.1,.1,.2,.1,.3c.1,.1,.2,.1,.3,.2c.1,0,.4,0,.7,0c1,0,1.8,-.1,2.6,-.3c.8,-.1,1.5,-.4,2,-.8c.7,-.6,1.3,-1.3,1.8,-2.3c.4,-1,.6,-2.1,.6,-3.3c0,-1.4,-.3,-2.5,-1,-3.2c-.7,-.6,-1.6,-1,-2.9,-1c-.3,0,-.8,0,-1.3,.1Z" class="g2_88"/>
<path fill-rule="evenodd" d="M718.6,555.6l-.9,3.9h-.3l-.1,-1c0,-.3,-.1,-.6,-.2,-.9c-.1,-.3,-.2,-.5,-.5,-.7c-.2,-.2,-.4,-.4,-.8,-.5c-.3,-.1,-.7,-.2,-1.1,-.2c-1,0,-2,.3,-2.8,.9c-1,.7,-1.8,1.8,-2.4,3.1c-.4,1.2,-.7,2.3,-.7,3.4c0,1.2,.4,2.2,1.1,2.9c.6,.7,1.5,1,2.6,1c.9,0,1.6,-.2,2.2,-.5c.7,-.4,1.3,-1,1.9,-1.7h.4c-.7,1,-1.4,1.8,-2.2,2.3c-.8,.4,-1.8,.7,-2.9,.7c-1,0,-1.9,-.2,-2.6,-.6c-.8,-.4,-1.4,-1,-1.8,-1.8c-.4,-.7,-.6,-1.5,-.6,-2.4c0,-1.3,.4,-2.6,1.1,-3.9c.7,-1.2,1.7,-2.2,2.9,-2.9c1.3,-.7,2.5,-1.1,3.8,-1.1c.6,0,1.2,.1,2,.4c.3,.1,.5,.2,.7,.2c.1,0,.2,0,.3,-.1c.1,-.1,.3,-.2,.6,-.5Z" class="g2_88"/>
<path fill-rule="evenodd" d="M567.7,640l-.9,10.1c-.1,.5,-.1,.8,-.1,.9c0,.3,0,.5,.1,.6c.1,.2,.3,.3,.5,.4c.2,.1,.5,.1,1,.1l-.1,.3h-4.8l.1,-.3h.2c.4,0,.7,-.1,.9,-.2c.2,-.2,.3,-.3,.4,-.6c.1,-.2,.2,-.6,.2,-1.3l.2,-1.6h-3.5l-1.2,1.7c-.3,.4,-.5,.7,-.6,.8c0,.2,-.1,.3,-.1,.5c0,.2,.1,.3,.3,.5c.1,.1,.4,.2,.7,.2l-.1,.3h-3.6l.1,-.3c.5,0,.9,-.2,1.2,-.4c.3,-.3,.9,-.9,1.5,-1.8l7.3,-9.9Zm-1.8,3l-3.5,4.8h3Z" class="g2_88"/>
<path fill-rule="evenodd" d="M716.2,641.5l.1,-.4h4.4c.7,0,1.4,.1,1.9,.4c.6,.2,1,.5,1.3,.9c.3,.4,.4,.9,.4,1.3c0,.7,-.2,1.3,-.7,1.9c-.5,.6,-1.4,1,-2.5,1.3c.7,.2,1.3,.6,1.6,1c.4,.5,.5,1,.5,1.5c0,.6,-.1,1.2,-.4,1.8c-.3,.5,-.7,.9,-1.2,1.2c-.5,.4,-1.1,.6,-1.8,.7c-.5,.1,-1.2,.2,-2.3,.2h-4.4l.1,-.4c.5,0,.8,0,.9,-.1c.3,-.1,.5,-.2,.6,-.4c.1,-.2,.3,-.7,.5,-1.6l2.2,-7.3c.2,-.6,.3,-1.1,.3,-1.3c0,-.2,-.1,-.4,-.3,-.5c-.1,-.2,-.4,-.2,-.9,-.2c-.1,0,-.2,0,-.3,0m1.8,5c.4,0,.7,0,.9,0c1.2,0,2.1,-.2,2.7,-.8c.7,-.5,1,-1.2,1,-2c0,-.6,-.2,-1.1,-.6,-1.5c-.4,-.3,-1,-.5,-1.8,-.5c-.2,0,-.5,.1,-.8,.1Zm-1.7,6c.6,.1,1.1,.1,1.5,.1c.9,0,1.7,-.3,2.5,-.8c.7,-.6,1,-1.4,1,-2.3c0,-.7,-.2,-1.3,-.6,-1.7c-.5,-.4,-1.2,-.7,-2.2,-.7c-.2,0,-.4,.1,-.7,.1Z" class="g2_88"/>
<path d="M630.9,560.2h66l9.1,81.5H573.3l57.6,-81.5Z" class="ge_88"/>
<path fill-rule="evenodd" d="M633.9,545.2l.3,1.8h-.3c-.2,-.6,-.4,-1,-.6,-1.1c-.2,-.2,-.6,-.3,-1.2,-.3h-1.5v4.8c0,.5,.1,.8,.1,.9c.1,.1,.2,.2,.3,.3c.1,.1,.3,.1,.7,.1v.3h-3.4v-.3c.4,0,.8,-.1,.9,-.2c.1,-.2,.2,-.5,.2,-1.1v-3.6c0,-.5,0,-.8,-.1,-1c0,-.1,-.1,-.2,-.3,-.3c-.1,0,-.4,-.1,-.7,-.1v-.2Z" class="g2_88"/>
<path fill-rule="evenodd" d="M637.7,545c1.1,0,1.9,.4,2.5,1.1c.6,.7,.8,1.5,.8,2.3c0,.7,-.1,1.3,-.4,1.9c-.3,.6,-.7,1.1,-1.2,1.4c-.5,.3,-1.1,.5,-1.7,.5c-1.1,0,-1.9,-.4,-2.5,-1.2c-.5,-.7,-.8,-1.5,-.8,-2.4c0,-.6,.2,-1.2,.5,-1.8c.3,-.6,.7,-1.1,1.2,-1.4c.5,-.3,1.1,-.4,1.6,-.4m-.2,.4c-.3,0,-.5,.1,-.8,.3c-.3,.1,-.5,.4,-.6,.8c-.2,.4,-.3,.9,-.3,1.5c0,1,.2,1.9,.6,2.6c.4,.7,.9,1.1,1.6,1.1c.5,0,.9,-.2,1.2,-.6c.3,-.4,.4,-1.1,.4,-2.1c0,-1.2,-.2,-2.1,-.7,-2.8c-.4,-.5,-.8,-.8,-1.4,-.8Z" class="g2_88"/>
<path fill-rule="evenodd" d="M641.5,545.8l2.1,-.8h.3v1.6c.4,-.6,.7,-1,1.1,-1.3c.3,-.2,.7,-.3,1.1,-.3c.7,0,1.3,.2,1.7,.8c.6,.6,.9,1.5,.9,2.5c0,1.2,-.4,2.2,-1,3c-.6,.6,-1.3,.9,-2.1,.9c-.4,0,-.7,-.1,-1,-.2c-.2,0,-.4,-.2,-.7,-.4v2.1c0,.4,.1,.7,.1,.9c.1,.1,.2,.2,.3,.3c.2,0,.4,.1,.8,.1v.3h-3.6V555h.2c.3,0,.5,-.1,.7,-.2c.1,0,.2,-.1,.2,-.2c.1,-.2,.1,-.5,.1,-1v-6.4c0,-.5,0,-.8,-.1,-.9c0,-.1,-.1,-.2,-.2,-.2c0,-.1,-.2,-.1,-.3,-.1c-.1,0,-.3,0,-.5,.1Zm2.4,1.2v2.6c0,.5,0,.9,.1,1.1c.1,.3,.2,.5,.5,.7c.3,.2,.6,.4,1,.4c.5,0,.9,-.2,1.2,-.6c.4,-.5,.6,-1.3,.6,-2.2c0,-1,-.2,-1.8,-.6,-2.4c-.4,-.4,-.7,-.6,-1.2,-.6c-.2,0,-.5,.1,-.7,.2c-.2,.1,-.5,.4,-.9,.8Z" class="g2_88"/>
<path fill-rule="evenodd" d="M651.8,548.2h3v-1.4c0,-.5,-.1,-.8,-.1,-.9c0,-.1,-.1,-.2,-.3,-.3c-.1,-.1,-.3,-.2,-.7,-.2v-.2H657v.2c-.3,0,-.5,.1,-.6,.1c-.2,.1,-.3,.2,-.3,.3c-.1,.2,-.1,.5,-.1,1v3.6c0,.4,0,.7,0,.8c.1,.2,.2,.3,.3,.4c.2,.1,.4,.1,.7,.1v.3h-3.3v-.3c.4,0,.7,-.1,.9,-.2c.1,-.2,.2,-.5,.2,-1.1v-1.7h-3v1.7c0,.4,0,.7,.1,.8c0,.2,.1,.3,.2,.4c.2,.1,.4,.1,.7,.1v.3h-3.3v-.3c.5,0,.8,-.1,.9,-.2c.1,-.2,.2,-.6,.2,-1.1v-3.6c0,-.5,0,-.8,-.1,-.9c0,-.1,-.1,-.2,-.3,-.3c-.1,-.1,-.3,-.2,-.7,-.2v-.2h3.3v.2c-.3,0,-.5,.1,-.6,.1c-.2,.1,-.3,.2,-.3,.3c-.1,.2,-.1,.5,-.1,1Z" class="g2_88"/>
<path fill-rule="evenodd" d="M661.7,551c-.7,.5,-1.1,.9,-1.3,.9c-.3,.2,-.6,.2,-.9,.2c-.4,0,-.8,-.1,-1.1,-.5c-.3,-.3,-.5,-.7,-.5,-1.2c0,-.4,.1,-.7,.2,-.9c.2,-.3,.6,-.6,1.1,-.9c.5,-.3,1.3,-.7,2.5,-1.1v-.3c0,-.7,-.1,-1.2,-.3,-1.4c-.2,-.3,-.5,-.4,-.9,-.4c-.4,0,-.6,.1,-.8,.3c-.2,.1,-.3,.3,-.3,.5v.5c0,.2,0,.4,-.1,.5c-.2,.1,-.3,.2,-.5,.2c-.2,0,-.3,-.1,-.5,-.2c-.1,-.1,-.1,-.3,-.1,-.5c0,-.5,.2,-.8,.6,-1.2c.5,-.4,1.1,-.5,1.9,-.5c.6,0,1.1,.1,1.5,.3c.3,.1,.5,.4,.6,.7c.1,.2,.1,.6,.1,1.3v2.3c0,.7,.1,1.1,.1,1.2c0,.2,.1,.3,.1,.3q.1,.1,.2,.1c.1,0,.2,0,.2,-.1c.1,0,.3,-.2,.6,-.5v.4c-.5,.8,-1.1,1.1,-1.6,1.1c-.2,0,-.4,-.1,-.6,-.2c-.1,-.2,-.2,-.5,-.2,-.9m0,-.5v-2.6c-.7,.3,-1.2,.5,-1.4,.7c-.4,.2,-.7,.4,-.9,.6c-.1,.3,-.2,.5,-.2,.8c0,.4,.1,.7,.3,.9c.2,.2,.4,.4,.7,.4c.4,0,.9,-.3,1.5,-.8Z" class="g2_88"/>
<path fill-rule="evenodd" d="M671.8,545c1,0,1.9,.4,2.5,1.1c.5,.7,.8,1.5,.8,2.3c0,.7,-.2,1.3,-.5,1.9c-.3,.6,-.7,1.1,-1.2,1.4c-.5,.3,-1.1,.5,-1.7,.5c-1,0,-1.8,-.4,-2.4,-1.2c-.6,-.7,-.8,-1.5,-.8,-2.4c0,-.6,.1,-1.2,.5,-1.8c.3,-.6,.7,-1.1,1.2,-1.4c.5,-.3,1,-.4,1.6,-.4m-.2,.4c-.3,0,-.6,.1,-.8,.3c-.3,.1,-.5,.4,-.7,.8c-.1,.4,-.2,.9,-.2,1.5c0,1,.2,1.9,.6,2.6c.4,.7,.9,1.1,1.5,1.1c.5,0,.9,-.2,1.2,-.6c.3,-.4,.5,-1.1,.5,-2.1c0,-1.2,-.3,-2.1,-.8,-2.8c-.3,-.5,-.8,-.8,-1.3,-.8Z" class="g2_88"/>
<path fill-rule="evenodd" d="M682.3,549.4c-.2,.9,-.6,1.6,-1.1,2.1c-.5,.5,-1.1,.7,-1.8,.7c-.8,0,-1.4,-.3,-2,-1c-.6,-.6,-.9,-1.5,-.9,-2.6c0,-1.1,.3,-2,1,-2.6c.6,-.7,1.4,-1,2.3,-1c.6,0,1.2,.1,1.6,.5c.5,.3,.7,.7,.7,1.1c0,.2,-.1,.3,-.2,.5c-.1,.1,-.3,.1,-.5,.1c-.3,0,-.5,-.1,-.7,-.3c-.1,-.1,-.1,-.3,-.1,-.5c-.1,-.3,-.2,-.6,-.4,-.7c-.1,-.2,-.4,-.2,-.7,-.2c-.5,0,-.9,.1,-1.2,.5c-.4,.5,-.6,1.1,-.6,1.9c0,.9,.2,1.6,.6,2.2c.4,.6,1,.9,1.6,.9c.5,0,1,-.1,1.4,-.5c.2,-.2,.5,-.6,.8,-1.2Z" class="g2_88"/>
<path fill-rule="evenodd" d="M685.4,548.2h2.9v-1.4c0,-.5,0,-.8,0,-.9c-.1,-.1,-.1,-.2,-.3,-.3c-.1,-.1,-.4,-.2,-.7,-.2v-.2h3.3v.2c-.3,0,-.5,.1,-.7,.1c-.1,.1,-.2,.2,-.3,.3c0,.2,0,.5,0,1v3.6c0,.4,0,.7,0,.8c.1,.2,.1,.3,.3,.4c.1,.1,.4,.1,.7,.1v.3h-3.3v-.3c.4,0,.7,-.1,.8,-.2c.2,-.2,.2,-.5,.2,-1.1v-1.7h-2.9v1.7c0,.4,0,.7,0,.8c.1,.2,.2,.3,.3,.4c.2,.1,.4,.1,.7,.1v.3h-3.3v-.3c.5,0,.7,-.1,.9,-.2c.1,-.2,.1,-.6,.1,-1.1v-3.6c0,-.5,0,-.8,0,-.9c0,-.1,-.1,-.2,-.3,-.3c-.1,-.1,-.4,-.2,-.7,-.2v-.2h3.3v.2c-.3,0,-.5,.1,-.7,.1c-.1,.1,-.2,.2,-.2,.3c-.1,.2,-.1,.5,-.1,1Z" class="g2_88"/>
<path fill-rule="evenodd" d="M694.8,545c1,0,1.8,.4,2.5,1.1c.5,.7,.8,1.5,.8,2.3c0,.7,-.2,1.3,-.5,1.9c-.3,.6,-.7,1.1,-1.2,1.4c-.5,.3,-1.1,.5,-1.7,.5c-1,0,-1.9,-.4,-2.5,-1.2c-.5,-.7,-.7,-1.5,-.7,-2.4c0,-.6,.1,-1.2,.4,-1.8c.3,-.6,.7,-1.1,1.3,-1.4c.5,-.3,1,-.4,1.6,-.4m-.3,.4c-.2,0,-.5,.1,-.8,.3c-.2,.1,-.4,.4,-.6,.8c-.2,.4,-.3,.9,-.3,1.5c0,1,.2,1.9,.6,2.6c.4,.7,1,1.1,1.6,1.1c.5,0,.9,-.2,1.2,-.6c.3,-.4,.5,-1.1,.5,-2.1c0,-1.2,-.3,-2.1,-.8,-2.8c-.4,-.5,-.8,-.8,-1.4,-.8Z" class="g2_88"/>
<path fill-rule="evenodd" d="M703.4,548.4c1.2,.2,1.9,.8,1.9,1.7c0,.7,-.3,1.1,-.8,1.4c-.5,.3,-1.3,.5,-2.2,.5h-3.4v-.3c.5,0,.8,-.1,.9,-.2c.1,-.2,.2,-.6,.2,-1.1v-3.6c0,-.6,-.1,-.9,-.1,-1c-.1,-.1,-.2,-.2,-.3,-.2c-.1,-.1,-.3,-.2,-.7,-.2v-.2h3.2c.6,0,1.1,0,1.5,.1c.3,.1,.6,.3,.9,.6c.2,.2,.4,.6,.4,1c0,.7,-.5,1.3,-1.5,1.5m-2.2,-.2c.2,0,.3,0,.4,0c.7,0,1.2,-.1,1.5,-.4c.3,-.2,.4,-.6,.4,-.9c0,-.5,-.1,-.8,-.4,-1c-.3,-.2,-.8,-.3,-1.5,-.3h-.4Zm0,3.2c.2,.1,.5,.1,.9,.1c.6,0,1,-.1,1.3,-.4c.3,-.2,.4,-.6,.4,-1c0,-.4,-.2,-.8,-.5,-1c-.4,-.3,-.9,-.4,-1.6,-.4c-.1,0,-.3,0,-.5,0Z" class="g2_88"/>
<path fill-rule="evenodd" d="M709.9,551c-.7,.5,-1.1,.9,-1.3,.9c-.2,.2,-.5,.2,-.8,.2c-.5,0,-.9,-.1,-1.2,-.5c-.3,-.3,-.5,-.7,-.5,-1.2c0,-.4,.1,-.7,.3,-.9c.2,-.3,.5,-.6,1,-.9c.5,-.3,1.4,-.7,2.5,-1.1v-.3c0,-.7,-.1,-1.2,-.3,-1.4c-.2,-.3,-.5,-.4,-.9,-.4c-.3,0,-.6,.1,-.8,.3c-.2,.1,-.3,.3,-.3,.5l.1,.5c0,.2,-.1,.4,-.2,.5c-.1,.1,-.3,.2,-.5,.2c-.2,0,-.3,-.1,-.4,-.2c-.1,-.1,-.2,-.3,-.2,-.5c0,-.5,.2,-.8,.7,-1.2c.4,-.4,1,-.5,1.8,-.5c.6,0,1.1,.1,1.5,.3c.3,.1,.5,.4,.6,.7c.1,.2,.2,.6,.2,1.3v2.3c0,.7,0,1.1,0,1.2c0,.2,.1,.3,.1,.3c.1,.1,.2,.1,.2,.1c.1,0,.2,0,.2,-.1c.1,0,.3,-.2,.6,-.5v.4c-.5,.8,-1,1.1,-1.5,1.1c-.3,0,-.5,-.1,-.6,-.2c-.2,-.2,-.2,-.5,-.3,-.9m0,-.5v-2.6c-.7,.3,-1.2,.5,-1.4,.7c-.4,.2,-.7,.4,-.9,.6c-.1,.3,-.2,.5,-.2,.8c0,.4,.1,.7,.3,.9c.2,.2,.5,.4,.8,.4c.3,0,.8,-.3,1.4,-.8Z" class="g2_88"/>
<path fill-rule="evenodd" d="M601.4,649.8h6v.3c-.3,0,-.6,.1,-.7,.1c-.1,.1,-.2,.2,-.2,.3c-.1,.1,-.1,.4,-.1,.9v3.4c0,.7,0,1.2,.1,1.3c.2,.2,.4,.3,.9,.3v2.2h-.3c0,-.4,-.1,-.8,-.3,-1.1c-.2,-.3,-.4,-.5,-.7,-.6c-.4,-.2,-.8,-.2,-1.5,-.2h-1.7c-.6,0,-1,0,-1.3,.1c-.3,.1,-.6,.3,-.8,.6c-.2,.3,-.3,.7,-.4,1.2h-.3v-2.2c.5,0,.8,-.2,1.2,-.5c.3,-.3,.6,-.9,.8,-1.8c.3,-.9,.4,-1.8,.4,-2.7c0,-.8,-.4,-1.3,-1.1,-1.3Zm1.6,.5v.4c0,2.5,-.4,4.3,-1.3,5.5h2.5c.5,0,.7,-.1,.8,-.1c.1,-.1,.1,-.4,.1,-.9v-4.9Z" class="g2_88"/>
<path fill-rule="evenodd" d="M611.6,649.6c1,0,1.8,.4,2.4,1.2c.6,.7,.8,1.5,.8,2.3c0,.6,-.1,1.3,-.4,1.9c-.3,.6,-.7,1.1,-1.2,1.4c-.5,.3,-1.1,.5,-1.7,.5c-1.1,0,-1.9,-.4,-2.5,-1.3c-.5,-.6,-.8,-1.4,-.8,-2.3c0,-.6,.2,-1.2,.5,-1.8c.3,-.7,.7,-1.1,1.2,-1.4c.5,-.3,1.1,-.5,1.7,-.5m-.3,.5c-.2,0,-.5,.1,-.8,.3c-.2,.1,-.5,.4,-.6,.8c-.2,.4,-.3,.9,-.3,1.5c0,1,.2,1.8,.6,2.6c.4,.7,.9,1,1.6,1c.5,0,.9,-.2,1.2,-.5c.3,-.4,.5,-1.1,.5,-2.1c0,-1.2,-.3,-2.2,-.8,-2.9c-.4,-.4,-.8,-.7,-1.4,-.7Z" class="g2_88"/>
<path fill-rule="evenodd" d="M616.3,649.8h6.2v.3c-.4,0,-.6,.1,-.7,.1c-.1,.1,-.2,.2,-.3,.3c0,.1,-.1,.4,-.1,.9v3.7c0,.5,0,.8,.1,.9c.1,.1,.1,.2,.3,.3c.1,.1,.3,.1,.7,.1v.3h-3.6v-.3c.4,0,.7,0,.8,-.1c.2,0,.3,-.1,.4,-.3c0,-.1,.1,-.4,.1,-.9v-4.8h-2.3v2.9c0,1.1,0,1.9,-.1,2.3c-.1,.4,-.3,.8,-.6,1c-.3,.2,-.6,.3,-1,.3c-.6,0,-.9,-.3,-.9,-.8c0,-.2,0,-.3,.1,-.4c.1,-.2,.2,-.2,.4,-.2c.2,0,.3,.1,.5,.2c.2,.2,.3,.3,.4,.3c.3,0,.4,-.2,.5,-.6c.1,-.4,.2,-1,.2,-2v-1.5c0,-.7,-.1,-1.2,-.2,-1.4c-.1,-.1,-.4,-.2,-.9,-.3Z" class="g2_88"/>
<path fill-rule="evenodd" d="M625.4,652.9h3v-1.5c0,-.4,-.1,-.7,-.1,-.8c0,-.1,-.1,-.3,-.3,-.3c-.1,-.1,-.3,-.2,-.7,-.2v-.3h3.3v.3c-.3,0,-.5,.1,-.6,.1c-.2,.1,-.3,.2,-.3,.3c-.1,.2,-.1,.5,-.1,.9v3.7c0,.4,0,.7,0,.8c.1,.2,.2,.3,.3,.4c.2,.1,.4,.1,.7,.1v.3h-3.3v-.3c.4,0,.7,-.1,.8,-.2c.2,-.2,.3,-.6,.3,-1.1v-1.7h-3v1.7c0,.4,0,.7,.1,.8c0,.2,.1,.3,.2,.4c.2,.1,.4,.1,.7,.1v.3h-3.3v-.3c.5,0,.8,-.1,.9,-.3c.1,-.1,.2,-.5,.2,-1v-3.7c0,-.4,0,-.7,-.1,-.8c0,-.2,-.1,-.3,-.3,-.4c-.1,0,-.3,-.1,-.7,-.1v-.3h3.3v.3c-.3,0,-.5,.1,-.6,.1c-.2,.1,-.3,.2,-.3,.3c-.1,.2,-.1,.5,-.1,.9Z" class="g2_88"/>
<path fill-rule="evenodd" d="M635.3,655.7c-.7,.5,-1.1,.8,-1.3,.9c-.3,.1,-.6,.2,-.9,.2c-.4,0,-.8,-.2,-1.1,-.5c-.3,-.3,-.5,-.7,-.5,-1.2c0,-.4,.1,-.7,.2,-.9c.2,-.4,.6,-.7,1.1,-1c.5,-.3,1.3,-.6,2.5,-1.1v-.2c0,-.7,-.1,-1.2,-.3,-1.4c-.2,-.3,-.5,-.4,-1,-.4c-.3,0,-.5,.1,-.7,.2c-.2,.2,-.3,.4,-.3,.6v.5c0,.2,0,.4,-.1,.5c-.2,.1,-.3,.2,-.5,.2c-.2,0,-.3,-.1,-.5,-.2c-.1,-.1,-.1,-.3,-.1,-.6c0,-.4,.2,-.8,.6,-1.1c.5,-.4,1.1,-.6,1.9,-.6c.6,0,1.1,.1,1.5,.3c.3,.2,.5,.4,.6,.8c.1,.2,.1,.6,.1,1.3v2.3c0,.6,.1,1,.1,1.2c0,.1,.1,.2,.1,.3c.1,0,.1,.1,.2,.1c.1,0,.2,-.1,.2,-.1c.1,-.1,.3,-.2,.6,-.5v.4c-.5,.7,-1.1,1.1,-1.6,1.1c-.2,0,-.4,-.1,-.6,-.2c-.1,-.2,-.2,-.5,-.2,-.9m0,-.5v-2.6c-.7,.3,-1.2,.5,-1.4,.6c-.4,.2,-.7,.5,-.9,.7c-.1,.3,-.2,.5,-.2,.8c0,.4,.1,.7,.3,.9c.2,.2,.4,.3,.7,.3c.4,0,.9,-.2,1.5,-.7Z" class="g2_88"/>
<path fill-rule="evenodd" d="M645.4,649.6c1,0,1.9,.4,2.5,1.2c.5,.7,.8,1.5,.8,2.3c0,.6,-.2,1.3,-.5,1.9c-.3,.6,-.7,1.1,-1.2,1.4c-.5,.3,-1.1,.5,-1.7,.5c-1,0,-1.8,-.4,-2.4,-1.3c-.6,-.6,-.8,-1.4,-.8,-2.3c0,-.6,.1,-1.2,.5,-1.8c.3,-.7,.7,-1.1,1.2,-1.4c.5,-.3,1,-.5,1.6,-.5m-.2,.5c-.3,0,-.6,.1,-.8,.3c-.3,.1,-.5,.4,-.7,.8c-.1,.4,-.2,.9,-.2,1.5c0,1,.2,1.8,.6,2.6c.4,.7,.9,1,1.5,1c.5,0,.9,-.2,1.2,-.5c.3,-.4,.5,-1.1,.5,-2.1c0,-1.2,-.3,-2.2,-.8,-2.9c-.3,-.4,-.8,-.7,-1.3,-.7Z" class="g2_88"/>
<path fill-rule="evenodd" d="M655.9,654.1c-.2,.9,-.6,1.6,-1.1,2c-.6,.5,-1.1,.8,-1.8,.8c-.8,0,-1.5,-.3,-2,-1c-.6,-.7,-.9,-1.5,-.9,-2.6c0,-1.1,.3,-2,1,-2.7c.6,-.6,1.4,-1,2.3,-1c.6,0,1.2,.2,1.6,.6c.5,.3,.7,.7,.7,1.1c0,.2,-.1,.3,-.2,.4c-.1,.2,-.3,.2,-.5,.2c-.3,0,-.5,-.1,-.7,-.3c-.1,-.1,-.1,-.3,-.1,-.6c-.1,-.3,-.2,-.5,-.4,-.6c-.1,-.2,-.4,-.3,-.7,-.3c-.5,0,-.9,.2,-1.2,.6c-.4,.5,-.6,1.1,-.6,1.9c0,.8,.2,1.6,.6,2.2c.4,.6,1,.9,1.6,.9c.5,0,1,-.2,1.4,-.5c.2,-.2,.5,-.6,.8,-1.2Z" class="g2_88"/>
<path fill-rule="evenodd" d="M659,652.9h2.9v-1.5c0,-.4,0,-.7,0,-.8c-.1,-.1,-.1,-.3,-.3,-.3c-.1,-.1,-.4,-.2,-.7,-.2v-.3h3.3v.3c-.3,0,-.5,.1,-.7,.1c-.1,.1,-.2,.2,-.3,.3c0,.2,0,.5,0,.9v3.7c0,.4,0,.7,0,.8c.1,.2,.1,.3,.3,.4c.1,.1,.4,.1,.7,.1v.3h-3.3v-.3c.4,0,.7,-.1,.8,-.2c.2,-.2,.2,-.6,.2,-1.1v-1.7H659v1.7c0,.4,0,.7,0,.8c.1,.2,.2,.3,.3,.4c.2,.1,.4,.1,.7,.1v.3h-3.3v-.3c.5,0,.7,-.1,.9,-.3c.1,-.1,.1,-.5,.1,-1v-3.7c0,-.4,0,-.7,0,-.8c0,-.2,-.1,-.3,-.3,-.4c-.1,0,-.4,-.1,-.7,-.1v-.3H660v.3c-.3,0,-.5,.1,-.7,.1c-.1,.1,-.2,.2,-.2,.3c-.1,.2,-.1,.5,-.1,.9Z" class="g2_88"/>
<path fill-rule="evenodd" d="M668.4,649.6c1,0,1.8,.4,2.5,1.2c.5,.7,.8,1.5,.8,2.3c0,.6,-.2,1.3,-.5,1.9c-.3,.6,-.7,1.1,-1.2,1.4c-.5,.3,-1.1,.5,-1.7,.5c-1,0,-1.9,-.4,-2.5,-1.3c-.5,-.6,-.7,-1.4,-.7,-2.3c0,-.6,.1,-1.2,.4,-1.8c.3,-.7,.7,-1.1,1.3,-1.4c.5,-.3,1,-.5,1.6,-.5m-.3,.5c-.2,0,-.5,.1,-.8,.3c-.2,.1,-.4,.4,-.6,.8c-.2,.4,-.3,.9,-.3,1.5c0,1,.2,1.8,.6,2.6c.4,.7,1,1,1.6,1c.5,0,.9,-.2,1.2,-.5c.3,-.4,.5,-1.1,.5,-2.1c0,-1.2,-.3,-2.2,-.8,-2.9c-.4,-.4,-.8,-.7,-1.4,-.7Z" class="g2_88"/>
<path fill-rule="evenodd" d="M677,653.1c1.2,.2,1.9,.8,1.9,1.7c0,.6,-.3,1.1,-.8,1.4c-.5,.3,-1.3,.5,-2.2,.5h-3.4v-.3c.5,0,.8,-.1,.9,-.3c.1,-.1,.2,-.5,.2,-1v-3.7c0,-.5,-.1,-.8,-.1,-.9c-.1,-.1,-.2,-.2,-.3,-.3c-.1,0,-.3,-.1,-.7,-.1v-.3h3.2c.6,0,1.1,.1,1.5,.2c.3,.1,.6,.3,.9,.5c.2,.3,.4,.7,.4,1.1c0,.7,-.5,1.2,-1.5,1.5m-2.2,-.2c.2,0,.3,0,.4,0c.7,0,1.2,-.1,1.5,-.4c.3,-.3,.4,-.6,.4,-.9c0,-.5,-.1,-.8,-.4,-1c-.3,-.2,-.8,-.3,-1.5,-.3h-.4Zm0,3.2c.2,0,.5,.1,.9,.1c.6,0,1,-.1,1.3,-.4c.3,-.3,.4,-.6,.4,-1c0,-.5,-.2,-.8,-.5,-1.1c-.4,-.2,-.9,-.3,-1.6,-.3c-.1,0,-.3,0,-.5,0Z" class="g2_88"/>
<path fill-rule="evenodd" d="M683.5,655.7c-.7,.5,-1.1,.8,-1.3,.9c-.2,.1,-.5,.2,-.8,.2c-.5,0,-.9,-.2,-1.2,-.5c-.3,-.3,-.5,-.7,-.5,-1.2c0,-.4,.1,-.7,.3,-.9c.2,-.4,.5,-.7,1,-1c.5,-.3,1.4,-.6,2.5,-1.1v-.2c0,-.7,-.1,-1.2,-.3,-1.4c-.2,-.3,-.5,-.4,-.9,-.4c-.3,0,-.6,.1,-.8,.2c-.2,.2,-.3,.4,-.3,.6l.1,.5c0,.2,-.1,.4,-.2,.5c-.1,.1,-.3,.2,-.5,.2c-.2,0,-.3,-.1,-.4,-.2c-.1,-.1,-.2,-.3,-.2,-.6c0,-.4,.2,-.8,.7,-1.1c.4,-.4,1,-.6,1.8,-.6c.6,0,1.1,.1,1.5,.3c.3,.2,.5,.4,.6,.8c.1,.2,.2,.6,.2,1.3v2.3c0,.6,0,1,0,1.2c0,.1,.1,.2,.1,.3c.1,0,.2,.1,.2,.1c.1,0,.2,-.1,.2,-.1c.1,-.1,.3,-.2,.6,-.5v.4c-.5,.7,-1,1.1,-1.6,1.1c-.2,0,-.4,-.1,-.5,-.2c-.2,-.2,-.3,-.5,-.3,-.9m0,-.5v-2.6c-.7,.3,-1.2,.5,-1.4,.6c-.4,.2,-.7,.5,-.9,.7c-.1,.3,-.2,.5,-.2,.8c0,.4,.1,.7,.3,.9c.2,.2,.5,.3,.8,.3c.3,0,.8,-.2,1.4,-.7Z" class="g2_88"/>
<path fill-rule="evenodd" d="M563,593c.6,-1.4,1.5,-2.2,2.9,-2.2c.9,0,1.7,.4,2.3,1.1c.6,.7,.9,1.5,.9,2.4c0,1,-.3,1.8,-.9,2.6c-.6,.8,-1.4,1.2,-2.5,1.2c-1,0,-1.9,-.5,-2.4,-1.3c-.6,-.9,-.8,-2,-.8,-3.3c0,-1,.1,-1.9,.4,-2.7c.3,-.9,.6,-1.5,.9,-1.9c.3,-.5,.7,-.8,1.1,-1c.4,-.2,1.2,-.3,2.2,-.3c.8,0,1.2,0,1.4,0c.2,-.1,.3,-.2,.5,-.3h.2c-.1,.4,-.3,.8,-.6,1c-.2,.2,-.4,.3,-.7,.4c-.3,.1,-.8,.1,-1.4,.2c-.8,0,-1.3,0,-1.6,.1c-.3,.1,-.6,.3,-.9,.7c-.3,.4,-.5,.8,-.7,1.4c-.2,.6,-.3,1.2,-.3,1.9m2.6,-1.7c-.5,0,-.9,.2,-1.2,.7c-.3,.4,-.5,1,-.5,1.9c0,1.2,.3,2.1,.7,2.7c.4,.6,.9,1,1.5,1c.5,0,.9,-.3,1.2,-.7c.3,-.4,.4,-1.1,.4,-2.1c0,-1,-.2,-1.8,-.6,-2.5c-.3,-.6,-.8,-1,-1.5,-1Z" class="g2_88"/>
<path fill-rule="evenodd" d="M571.1,593.6c0,1,.2,1.8,.7,2.4c.5,.6,1.1,.9,1.8,.9c.4,0,.8,-.2,1.1,-.4c.4,-.3,.6,-.7,.9,-1.3l.2,.2c-.1,.7,-.4,1.3,-.9,1.8c-.5,.6,-1.1,.9,-1.9,.9c-.8,0,-1.5,-.3,-2.1,-1c-.6,-.6,-.9,-1.5,-.9,-2.6c0,-1.1,.3,-2,.9,-2.7c.6,-.6,1.4,-1,2.3,-1c.7,0,1.4,.3,1.9,.8c.4,.5,.7,1.2,.7,2Zm0,-.4h3.1c0,-.5,0,-.8,-.1,-1c-.1,-.2,-.3,-.4,-.6,-.6c-.2,-.2,-.5,-.2,-.7,-.2c-.5,0,-.8,.1,-1.2,.4c-.3,.4,-.5,.8,-.5,1.4Z" class="g2_88"/>
<path fill-rule="evenodd" d="M577.4,591h6.1v.3c-.4,0,-.6,0,-.7,.1c-.1,.1,-.2,.2,-.3,.3c0,.1,-.1,.4,-.1,.9V596c0,.7,.1,1.2,.2,1.3c.1,.2,.4,.3,.9,.3v2.2h-.3c0,-.4,-.1,-.8,-.3,-1.1c-.2,-.3,-.5,-.5,-.8,-.6c-.3,-.2,-.8,-.2,-1.4,-.2h-1.8c-.5,0,-.9,0,-1.3,.1c-.3,.1,-.5,.3,-.7,.6c-.2,.3,-.4,.7,-.4,1.2h-.3v-2.2c.4,0,.8,-.2,1.1,-.5c.4,-.3,.7,-.9,.9,-1.8c.3,-.9,.4,-1.8,.4,-2.7c0,-.8,-.4,-1.3,-1.2,-1.3Zm1.7,.5v.4c0,2.5,-.5,4.3,-1.3,5.5h2.5c.5,0,.7,-.1,.8,-.1c.1,-.1,.1,-.4,.1,-.9v-4.9Z" class="g2_88"/>
<path fill-rule="evenodd" d="M583.8,591.7l2.1,-.8h.3v1.6c.3,-.6,.7,-1.1,1,-1.3c.4,-.2,.8,-.4,1.2,-.4c.6,0,1.2,.3,1.7,.8c.5,.7,.8,1.5,.8,2.6c0,1.2,-.3,2.2,-1,2.9c-.6,.7,-1.3,1,-2.1,1c-.4,0,-.7,-.1,-1,-.2c-.2,-.1,-.4,-.2,-.6,-.4v2.1c0,.4,0,.7,.1,.8c0,.2,.1,.3,.3,.3c.1,.1,.4,.2,.7,.2v.2h-3.6v-.2h.2c.3,0,.5,-.1,.7,-.2c.1,-.1,.2,-.1,.3,-.3c0,-.1,0,-.4,0,-.9V593c0,-.4,0,-.7,0,-.8c-.1,-.1,-.1,-.2,-.2,-.3c-.1,0,-.2,-.1,-.4,-.1c-.1,0,-.2,.1,-.4,.2Zm2.4,1.2v2.5c0,.6,0,1,0,1.1c.1,.3,.3,.6,.6,.8c.2,.2,.6,.3,1,.3c.5,0,.9,-.2,1.2,-.6c.4,-.5,.6,-1.2,.6,-2.1c0,-1,-.2,-1.8,-.7,-2.4c-.3,-.4,-.7,-.6,-1.1,-.6c-.3,0,-.5,.1,-.7,.2c-.2,.1,-.5,.3,-.9,.8Z" class="g2_88"/>
<path fill-rule="evenodd" d="M595.3,590.8c1,0,1.8,.4,2.5,1.2c.5,.7,.8,1.5,.8,2.3c0,.6,-.2,1.3,-.5,1.9c-.3,.6,-.7,1.1,-1.2,1.4c-.5,.3,-1.1,.5,-1.7,.5c-1.1,0,-1.9,-.4,-2.5,-1.3c-.5,-.6,-.7,-1.4,-.7,-2.3c0,-.6,.1,-1.2,.4,-1.9c.3,-.6,.7,-1,1.2,-1.3c.6,-.3,1.1,-.5,1.7,-.5m-.3,.5c-.2,0,-.5,.1,-.8,.3c-.2,.1,-.4,.4,-.6,.8c-.2,.4,-.3,.9,-.3,1.5c0,1,.2,1.8,.6,2.6c.4,.7,1,1,1.6,1c.5,0,.9,-.2,1.2,-.6c.3,-.4,.5,-1,.5,-2c0,-1.2,-.3,-2.2,-.8,-2.9c-.4,-.4,-.8,-.7,-1.4,-.7Z" class="g2_88"/>
<path fill-rule="evenodd" d="M706.3,593.8c.6,-1.4,1.6,-2.1,2.9,-2.1c1,0,1.8,.3,2.4,1c.6,.7,.9,1.6,.9,2.5c0,.9,-.3,1.8,-1,2.5c-.6,.8,-1.4,1.2,-2.4,1.2c-1.1,0,-1.9,-.4,-2.5,-1.3c-.5,-.9,-.8,-2,-.8,-3.2c0,-1,.1,-1.9,.4,-2.8c.3,-.9,.6,-1.5,.9,-1.9c.4,-.4,.7,-.7,1.1,-.9c.5,-.2,1.2,-.3,2.3,-.3c.7,-.1,1.2,-.1,1.3,-.1c.2,0,.3,-.1,.5,-.3h.3c-.2,.5,-.4,.8,-.6,1c-.3,.2,-.5,.4,-.8,.5c-.2,0,-.7,.1,-1.4,.1c-.8,0,-1.3,.1,-1.6,.2c-.2,.1,-.5,.3,-.8,.6c-.4,.4,-.6,.9,-.8,1.4c-.1,.6,-.2,1.2,-.3,1.9m2.7,-1.6c-.5,0,-.9,.2,-1.3,.6c-.3,.4,-.4,1.1,-.4,1.9c0,1.2,.2,2.1,.6,2.8c.4,.6,.9,.9,1.5,.9c.5,0,.9,-.2,1.2,-.7c.3,-.4,.5,-1.1,.5,-2c0,-1,-.2,-1.9,-.6,-2.5c-.4,-.7,-.9,-1,-1.5,-1Z" class="g2_88"/>
<path fill-rule="evenodd" d="M714.4,594.4c0,1.1,.3,1.9,.7,2.4c.5,.6,1.1,.9,1.8,.9c.4,0,.8,-.1,1.2,-.4c.3,-.2,.6,-.6,.8,-1.2l.2,.1c-.1,.7,-.4,1.3,-.9,1.9c-.5,.5,-1.1,.8,-1.9,.8c-.8,0,-1.5,-.3,-2.1,-.9c-.6,-.7,-.8,-1.5,-.8,-2.6c0,-1.2,.3,-2.1,.9,-2.8c.5,-.6,1.3,-.9,2.2,-.9c.8,0,1.4,.2,1.9,.7c.5,.5,.7,1.2,.7,2Zm0,-.4h3.2c-.1,-.4,-.1,-.7,-.2,-.9c-.1,-.3,-.3,-.5,-.5,-.7c-.3,-.1,-.5,-.2,-.8,-.2c-.4,0,-.8,.1,-1.1,.5c-.3,.3,-.5,.7,-.6,1.3Z" class="g2_88"/>
<path fill-rule="evenodd" d="M720.8,591.9h6v.3c-.3,0,-.6,0,-.7,.1c-.1,0,-.2,.1,-.2,.2c-.1,.1,-.1,.4,-.1,1v3.3c0,.8,0,1.2,.1,1.4c.2,.1,.5,.2,.9,.2v2.2h-.3c0,-.4,-.1,-.8,-.3,-1.1c-.2,-.3,-.4,-.5,-.7,-.6c-.4,-.1,-.8,-.2,-1.5,-.2h-1.7c-.6,0,-1,0,-1.3,.1c-.3,.1,-.6,.3,-.8,.7c-.2,.3,-.3,.6,-.4,1.1h-.2v-2.2c.4,0,.7,-.2,1.1,-.5c.3,-.3,.6,-.9,.8,-1.8c.3,-.9,.4,-1.8,.4,-2.6c0,-.9,-.4,-1.3,-1.1,-1.3Zm1.6,.5v.4c0,2.4,-.4,4.2,-1.3,5.4h2.5c.5,0,.8,0,.8,-.1c.1,-.1,.1,-.4,.1,-.9v-4.8Z" class="g2_88"/>
<path fill-rule="evenodd" d="M727.1,592.5l2.1,-.8h.3v1.6c.4,-.6,.7,-1,1.1,-1.3c.3,-.2,.7,-.3,1.1,-.3c.7,0,1.3,.2,1.7,.8c.6,.6,.9,1.5,.9,2.5c0,1.2,-.4,2.2,-1.1,3c-.5,.6,-1.2,.9,-2.1,.9c-.3,0,-.6,0,-.9,-.1c-.2,-.1,-.4,-.3,-.7,-.5v2.1c0,.5,0,.7,.1,.9c.1,.1,.2,.2,.3,.3c.1,.1,.4,.1,.8,.1v.3h-3.6v-.3h.2c.2,0,.5,-.1,.7,-.2c.1,0,.1,-.1,.2,-.2c0,-.2,.1,-.5,.1,-1v-6.4c0,-.5,0,-.7,-.1,-.9c0,-.1,-.1,-.2,-.2,-.2c-.1,-.1,-.2,-.1,-.3,-.1c-.2,0,-.3,0,-.5,.1Zm2.4,1.2v2.6c0,.5,0,.9,.1,1.1c0,.3,.2,.5,.5,.7c.3,.3,.6,.4,1,.4c.5,0,.9,-.2,1.2,-.6c.4,-.5,.6,-1.2,.6,-2.2c0,-1,-.2,-1.8,-.7,-2.4c-.3,-.4,-.7,-.6,-1.1,-.6c-.2,0,-.5,.1,-.7,.2c-.2,.1,-.5,.4,-.9,.8Z" class="g2_88"/>
<path fill-rule="evenodd" d="M738.6,591.7c1,0,1.9,.4,2.5,1.1c.5,.7,.8,1.5,.8,2.4c0,.6,-.2,1.2,-.5,1.8c-.2,.6,-.7,1.1,-1.2,1.4c-.5,.4,-1.1,.5,-1.7,.5c-1,0,-1.8,-.4,-2.4,-1.2c-.6,-.7,-.8,-1.5,-.8,-2.3c0,-.7,.1,-1.3,.5,-1.9c.3,-.6,.7,-1.1,1.2,-1.4c.5,-.3,1,-.4,1.6,-.4m-.2,.4c-.3,0,-.6,.1,-.8,.3c-.3,.1,-.5,.4,-.7,.8c-.1,.4,-.2,.9,-.2,1.5c0,1,.2,1.9,.6,2.6c.4,.7,.9,1.1,1.5,1.1c.5,0,.9,-.2,1.2,-.6c.3,-.4,.5,-1.1,.5,-2.1c0,-1.2,-.3,-2.1,-.8,-2.8c-.3,-.5,-.8,-.8,-1.3,-.8Z" class="g2_88"/>
<path d="M631.2,560.4l75.5,81.9m-133,-.7L696.5,561" class="ge_88"/>
<path d="M75.2,691.1H837.4" class="gf_88"/>
<path d="M0,138.7H120.6V0H0V138.7Z" class="g0_88"/>
<path d="M137.4,446.9h39.7V409.5H137.4v37.4Z" class="g4_88"/>
<path d="M137.4,547.7h39.7V510.2H137.4v37.5Z" class="gg_88"/>
</svg>