<?xml version="1.0" encoding="UTF-8" standalone="no"?>
<!DOCTYPE svg PUBLIC "-//W3C//DTD SVG 1.1//EN"
"http://www.w3.org/Graphics/SVG/1.1/DTD/svg11.dtd">
<svg viewBox="0 0 909 1147" version="1.1" xmlns="http://www.w3.org/2000/svg" xmlns:xlink="http://www.w3.org/1999/xlink">
<defs>
<clipPath id="c0_22"><path d="M133.9,1076c-.3,0,-.6,0,-.9,-.1c0,0,-.1,0,-.1,0c-4,-1.2,-7.7,-3.3,-11,-5.3c-.5,-.2,-1.1,-.4,-1.7,-.6c-.1,-.2,-.2,-.4,-.3,-.6h-.6c-.1,-.2,-.2,-.4,-.3,-.6h-.6c-.1,-.2,-.2,-.4,-.3,-.6c-.6,-.2,-1.2,-.4,-1.8,-.6c-.1,-.2,-.2,-.4,-.3,-.6c-.4,-.1,-.7,-.2,-1.1,-.2c-.1,-.2,-.2,-.4,-.3,-.6H114c-.1,-.2,-.2,-.4,-.3,-.6h-.6c-.1,-.2,-.2,-.4,-.3,-.6c-.4,-.1,-.8,-.2,-1.2,-.3v-.3c-.3,-.1,-.6,-.2,-.9,-.3c-.1,-.2,-.2,-.4,-.3,-.6h-.6c-.1,-.2,-.2,-.4,-.3,-.6c-.5,-.5,-1.1,-1,-1.7,-1.5v-.6c-.3,-.2,-.6,-.3,-.9,-.5c-.4,-.6,0,-.7,-.6,-1.2c0,-.4,0,-.8,0,-1.1c0,-2.2,.2,-3.8,.9,-5.4v-.9c.2,-.1,.4,-.2,.6,-.3c.3,-.9,.6,-1.8,.9,-2.7c.2,-.1,.4,-.2,.6,-.3v-.8c.1,-.1,.3,-.2,.5,-.3v-.6h.3v-.6h.3v-.6h.3v-.6h.3v-.6c.2,-.1,.4,-.2,.6,-.3c.1,-.4,.2,-.8,.3,-1.2c.2,-.1,.4,-.2,.6,-.3v-.8c.2,-.1,.4,-.2,.6,-.3v-.6h.3v-.6h.3v-.6h.3v-.6h.3c.1,-.3,.2,-.6,.3,-.9l.3,-.1c.1,-.1,.2,-.1,.3,-.2c.2,-.6,.3,-1.2,.5,-1.7c.2,-.1,.4,-.2,.6,-.3c.2,-.6,.4,-1.2,.6,-1.8l.6,-.3c.1,-.4,.2,-.8,.3,-1.2h.3c.1,-.3,.2,-.6,.3,-.9c.2,-.1,.4,-.2,.6,-.3c.1,-.4,.2,-.8,.3,-1.2h.3c.1,-.2,.2,-.5,.3,-.8c.1,-.1,.2,-.1,.3,-.2l.3,-.1c.1,-.4,.2,-.8,.3,-1.2c.2,-.1,.4,-.2,.6,-.3c.1,-.6,.3,-1.2,.5,-1.8l.6,-.3c.1,-.4,.2,-.8,.3,-1.2l.3,-.1c.1,-.1,.2,-.1,.3,-.2c.2,-.5,.4,-1.1,.6,-1.7h.3v-.6h.3c.2,-.6,.4,-1.2,.6,-1.8h.3c.1,-.6,.2,-1.2,.3,-1.8h.3v-.5h.3c.1,-.7,.2,-1.4,.3,-2.1h.3c.1,-.7,.2,-1.4,.3,-2.1h.3c.1,-.6,.3,-1.2,.5,-1.8h.3c.1,-.3,.2,-.7,.3,-1.1l.6,-.3c.2,-.6,.4,-1.2,.6,-1.8c.2,-.1,.4,-.2,.6,-.3v-.6h.3v-.6c.2,-.1,.4,-.2,.6,-.3v-.6c1.4,-1.6,2.7,-3.3,4.1,-5c1,-.7,2.5,-.9,3.3,-1.7h.1q.1,-.1,.2,-.1c2.6,0,5,.8,7.1,1.5c.6,.2,1.2,.4,1.7,.6c.7,.1,1.4,.2,2.1,.3v.3c.7,.1,1.4,.2,2.1,.3v.3h.5v.3c1,.2,2,.4,3,.6v.3h.6v.3h.9v.3c.4,.1,.8,.2,1.2,.3v.3h.8v.3h.6v.3h.9v.2c.6,.2,1.2,.4,1.8,.6v.3h.6v.3c.6,.2,1.2,.4,1.7,.6c.1,.1,.1,.2,.2,.3l.1,.3h.6c.3,.4,.6,.8,.9,1.2c.3,.1,.6,.2,.9,.3v.6c.3,.2,.6,.4,.9,.6v.6l.3,.1c.1,.1,.2,.1,.3,.1c.5,1.7,1,3.4,1.5,5.1v2.9h.2c0,1.9,-.1,3.8,-.2,5.6h-.3v.9c-1,1.3,-2,2.6,-3,3.9h-.6c-.2,.2,-.4,.5,-.6,.8c-.2,.1,-.4,.2,-.6,.3v.6c-.3,.2,-.6,.4,-.8,.6v.6l-.6,.3c-.2,.6,-.4,1.2,-.6,1.8c-.2,.1,-.4,.2,-.6,.3v.6c-.2,.1,-.4,.2,-.6,.3v.5h-.3v.9c-.2,.1,-.4,.2,-.6,.3c-.2,.6,-.4,1.2,-.6,1.8c-.2,.1,-.4,.2,-.6,.3c-.1,.4,-.2,.8,-.3,1.2h-.3v.6h-.3v.6c-.2,0,-.4,.1,-.6,.2v.6h-.2v.6H158v.6h-.3v.6c-.2,.1,-.4,.2,-.6,.3c-.2,.6,-.4,1.2,-.6,1.8c-.2,.1,-.4,.2,-.6,.3v.6h-.3v.5h-.3v.6H155v.6h-.3v.6h-.3c-.1,.4,-.2,.8,-.3,1.2c-.2,.1,-.4,.2,-.6,.3c-.2,.6,-.4,1.2,-.6,1.8c-.2,.1,-.4,.2,-.6,.3c-.1,.6,-.3,1.1,-.5,1.7h-.3c-.1,.3,-.2,.6,-.3,.9l-.3,.2c-.1,0,-.2,.1,-.3,.1v.6h-.3v.6H150v.6h-.3v.6h-.3v.6l-.6,.3c-.1,.4,-.2,.7,-.3,1.1c-.2,.1,-.4,.2,-.6,.3c-.2,.6,-.4,1.2,-.6,1.8c-.2,.1,-.4,.2,-.6,.3v.6h-.3v.6h-.3v.6h-.2v.6h-.3v.6h-.3c-.1,.3,-.2,.5,-.3,.8l-.6,.3v.6h-.3c-.1,.3,-.2,.6,-.3,.9l-.3,.2c-.1,0,-.2,.1,-.3,.1v.6c-.2,.1,-.4,.2,-.6,.3c-.1,.3,-.2,.6,-.3,.9H142c-.1,.4,-.2,.8,-.3,1.2c-.5,.4,-1,.7,-1.5,1.1c-.2,.4,-.5,.8,-.8,1.2q-.1,0,-.1,.1c0,0,-.1,0,-.2,.1c-.9,.4,-3.2,1.1,-5,1.1c0,0,-.1,0,-.2,0Z"/></clipPath>
<style type="text/css"><![CDATA[
.g0_22{
fill: #FAAF82;
}
.g1_22{
fill: none;
stroke: #000;
stroke-width: 0.763;
}
.g2_22{
fill: #FFF;
}
.g3_22{
fill: none;
stroke: #0EA5DF;
stroke-width: 3.055;
}
.g4_22{
fill: #FFF1E0;
}
.g5_22{
fill: none;
stroke: #0EA5DF;
stroke-width: 0.763;
}
.g6_22{
fill: #0EA5DF;
}
]]></style>
</defs>
<path d="M0,1131H73.8v-51.5H0V1131Z" class="g0_22"/>
<path d="M247,312.2h17.3m206.9,0h17.3m20.6,0H521m181.8,0h26.1M255.5,350h26.1m21,0h17.3m160.5,0h26.1m20.9,0h17.4m166.7,0h36.8m20.6,0H795M265.3,619.2h26.1m207.3,0H516m38.9,0h11.9m163.5,0h26.1m39.3,0h11.9M256.3,738.1h17.4m29.7,0h11.9m20.9,0h17.4m136.1,0h26.1m30.2,0h17.3m20.5,0h17.3m117.9,0h37.4m28.8,0h11.9m19.4,0h17.4" class="g1_22"/>
<path fill-rule="evenodd" d="M796,305.2h20V286.6H796v18.6Z" class="g2_22"/>
<image clip-path="url(#c0_22)" preserveAspectRatio="none" x="104" y="996" width="70" height="82" xlink:href="img/p1.jpg"/>
<path d="M73.6,197.8H835.8M73.6,524.7H835.8M73.6,645.6H835.8M73.6,965.4H835.8" class="g3_22"/>
<path d="M0,141.1H120.6V0H0V141.1Z" class="g0_22"/>
<path d="M184.6,514.5H834.2v-139H184.6v139Z" class="g4_22"/>
<path d="M556.9,482.9H579m21.6,0h16" class="g1_22"/>
<path d="M184.6,954.8H835.8V765H184.6V954.8Z" class="g4_22"/>
<path d="M264.4,1059.6h26.1m39.3,0h17.3m20.5,0h26.1m187.3,0h38.3m20.1,0h26.1m20.9,0h26.1M282.7,482.9h22.1M610.5,925.7h39.9m23.4,0h26.1" class="g1_22"/>
<path d="M244.8,459.4c0,0,-18.4,0,-18.4,18.4v11c0,0,0,18.4,18.4,18.4h51.8c0,0,18.3,0,18.3,-18.4v-11c0,0,0,-18.4,-18.3,-18.4H244.8Zm0,0c0,0,-18.4,0,-18.4,18.4v11c0,0,0,18.4,18.4,18.4h51.8c0,0,18.3,0,18.3,-18.4v-11c0,0,0,-18.4,-18.3,-18.4H244.8Zm317.9,0c0,0,-18.4,0,-18.4,18.4v11c0,0,0,18.4,18.4,18.4h51.7c0,0,18.4,0,18.4,-18.4v-11c0,0,0,-18.4,-18.4,-18.4H562.7Z" class="g5_22"/>
<path d="M135.3,804H175V766.5H135.3V804Z" class="g6_22"/>
<path d="M137.1,413h39.7V375.5H137.1V413Z" class="g6_22"/>
<path d="M560.1,898.8c0,0,-18.4,0,-18.4,18.3v12.4c0,0,0,18.3,18.4,18.3H691.5c0,0,18.4,0,18.4,-18.3V917.1c0,0,0,-18.3,-18.4,-18.3H560.1Z" class="g5_22"/>
</svg>
