<?xml version="1.0" encoding="UTF-8" standalone="no"?>
<!DOCTYPE svg PUBLIC "-//W3C//DTD SVG 1.1//EN"
"http://www.w3.org/Graphics/SVG/1.1/DTD/svg11.dtd">
<svg viewBox="0 0 909 1147" version="1.1" xmlns="http://www.w3.org/2000/svg" xmlns:xlink="http://www.w3.org/1999/xlink">
<defs>
<clipPath id="c0_1"><path d="M121.3,979.2V948.4H262.9v30.8Z"/></clipPath>
<style type="text/css"><![CDATA[
.g0_1{
fill: #B7D8F2;
}
.g1_1{
fill: #B8D8F2;
}
.g2_1{
fill: none;
stroke: #000;
stroke-width: 3.055;
}
.g3_1{
fill: #000;
}
]]></style>
</defs>
<path d="M296.1,84.4c0,.7,0,1.4,0,2.1c0,122.1,-.1,244.2,0,366.3c0,12.4,2.4,24.2,8.9,34.6c6.2,10,15,15.5,25.8,17.5c7.7,1.5,15.3,.5,22.9,-.8c10.5,-1.8,21,-3.4,31.5,-5.3c10.8,-1.9,21.6,-3.8,32.4,-6.1c16.6,-3.5,33.2,-6.9,49.7,-11c20.8,-5.2,41.6,-10.6,62.2,-16.6c38,-11.1,75.3,-24.5,111.7,-40.6c34.5,-15.2,68,-32.8,99.9,-53.8c24.8,-16.3,48.3,-34.5,70.1,-55.3c12.4,-11.8,24.1,-24.3,35,-37.8V385.4c-.4,.1,-.9,.2,-1.3,.4c-8.2,4,-16.4,8.1,-24.6,12c-47.5,22.4,-96.2,40.8,-145.7,56.5c-31.6,10,-63.3,18.9,-95.4,26.5c-16.7,4,-33.4,7.7,-50.1,11.2c-12.9,2.8,-25.8,5.2,-38.7,7.6c-11.4,2.1,-22.8,4,-34.2,5.9c-9,1.5,-17.9,2.8,-26.9,4.1c-8.5,1.3,-17,2.5,-25.5,3.6c-8.6,1.1,-17.2,2.1,-25.8,3.1c-8.7,1.1,-17.5,2.1,-26.3,3c-7.5,.7,-15.2,1.4,-22.8,2.1c-8.8,.8,-17.6,1.6,-26.4,2.2c-9.1,.7,-18.2,1.3,-27.3,1.8c-11.9,.7,-23.9,1.4,-35.8,1.9c-12.2,.5,-24.4,1,-36.6,1.2c-25.1,.2,-50.2,.4,-75.3,.3c-14.6,-.1,-29.1,-.7,-43.7,-1.1c-4.3,-.1,-8.7,-.2,-13.1,-.3V84.4Z" class="g0_1"/>
<path d="M75.9,918.2c-.8,-9.4,0,145.3,0,145.3H845.3c0,0,-174,-135.2,-769.4,-145.3Z" class="g1_1"/>
<path d="M226.3,296.9H141.4l-5.3,84.9l25.7,4.7c4.6,-7.8,11,-11.6,19.4,-11.6c6,0,11,2.3,15.1,6.9c4,4.6,6.1,10.1,6.1,16.5c0,6.2,-2,11.5,-5.8,16c-3.9,4.6,-9.2,6.8,-15.7,6.8c-12,0,-19.5,-6.5,-22.5,-19.7l-29.6,4.9c6.7,28.4,24.5,42.6,53.2,42.6c16.5,0,29.3,-5,38.5,-14.9c9.2,-9.9,13.8,-22.6,13.8,-38.2c0,-14,-4.3,-25.5,-12.8,-34.4c-8.5,-8.9,-18.8,-13.3,-31,-13.3c-11.9,0,-21.4,4.3,-28.7,12.8L164,327.6h58.8l3.5,-30.7Zm59.3,115.8H251.7v33.9h33.9V412.7ZM152.2,486.8L163.8,470H151.2l-12.7,19V470H125.3v45.9h13.2V505.3l4.8,-6.8l7.9,17.4h15.4L152.2,486.8Zm33.1,-3.6l9.2,32.7h13.9L194.2,470h-15l-14.5,45.9H176l9.3,-32.7Zm65.3,32.7L236.3,470H221.4l-14.1,45.9h11.4l2.7,-9.1h12.3l2.6,9.1h14.3ZM227.5,483.5l3.7,13.3h-7.4l3.7,-13.3Zm45,22.5c-2.1,0,-3.7,-.9,-4.9,-2.7c-1.1,-1.8,-1.7,-5.2,-1.7,-10.2c0,-8.9,2.2,-13.4,6.6,-13.4c1.6,0,3,.7,4.2,2.1c1.1,1.3,1.7,3.6,1.7,6.6l13.2,-.7c-.5,-5.5,-2.3,-10,-5.6,-13.3c-3.2,-3.4,-7.9,-5.1,-13.9,-5.1c-6.5,0,-11.6,2.2,-15.2,6.6c-3.6,4.4,-5.5,10.2,-5.5,17.4c0,7.3,2,13,5.8,17.1c3.8,4.1,8.8,6.2,15.1,6.2c5.1,0,9.5,-1.5,13,-4.5c3.6,-3,5.7,-7.3,6.3,-13l-12.9,-.7c-.4,5,-2.5,7.6,-6.2,7.6Z" class="g2_1"/>
<path d="M164.5,968.7c-.4,-.6,-1,-1.5,-1.8,-2.8c-.9,-1.2,-1.5,-2.1,-1.9,-2.7l-.2,-.3h3.1c0,0,1.5,2.7,2.4,3.9c1,-1.3,2.8,-3.9,2.8,-3.9h1.8l-.1,.1c-1.3,1.6,-2.6,3.1,-3.9,4.7c.2,.2,.5,.6,.8,1.2c.4,.6,.7,1,.8,1.3l1.6,2.3l.9,1.3h-3.1c0,0,-.9,-1.6,-1.6,-2.7c-.4,-.5,-.7,-1,-1,-1.5c-1,1.4,-2.9,4.2,-2.9,4.2h-1.6c0,0,2.6,-3.4,3.9,-5.1Z" class="g3_1"/>
<path clip-path="url(#c0_1)" d="M259.2,972.8l-6.3,-15.3l-7,15.3Zm-5,-19.9l8.7,21.2H244l9.6,-21.2Z" class="g3_1"/>
<path d="M237.1,955.7c-1.2,-.5,-2.1,-1,-2.5,-1.5c-.4,-.5,-.6,-1.2,-.6,-1.9c0,-1,.4,-1.8,1.2,-2.4c1.1,-.9,2.6,-1.4,4.4,-1.4c1.1,0,2.1,.2,2.9,.4c.9,.3,1.5,.6,1.8,1c.3,.4,.5,.8,.5,1.1c0,.4,-.2,.7,-.5,.9c-.2,.3,-.5,.4,-.9,.4c-.6,0,-1.1,-.3,-1.4,-1.1c-.4,-.7,-.7,-1.2,-1,-1.4c-.4,-.2,-.9,-.4,-1.5,-.4c-1,0,-1.7,.3,-2.3,.8c-.5,.6,-.8,1.3,-.8,2.3c0,.9,.2,1.6,.7,2.1c.4,.5,1.1,.7,1.9,.7c.3,0,.6,0,.9,0c.5,-.1,.9,-.1,1.2,-.1c.5,0,.8,0,.9,.1c.2,.2,.3,.3,.3,.5c0,.1,-.1,.2,-.2,.3c-.2,.2,-.5,.2,-1,.2c-.1,0,-.3,0,-.5,0c-.6,-.1,-1,-.1,-1.4,-.1c-.9,0,-1.6,.3,-2.1,.8c-.6,.6,-.9,1.4,-.9,2.3c0,1.1,.3,2,.9,2.6c.6,.6,1.3,.9,2.3,.9c.7,0,1.3,-.2,1.8,-.7c.3,-.2,.5,-.8,.8,-1.6c.3,-.5,.4,-.9,.5,-1c.4,-.3,.7,-.5,1.1,-.5c.5,0,.8,.1,1.1,.4c.3,.4,.5,.7,.5,1.2c0,.7,-.4,1.4,-1.3,2c-1.2,.9,-2.7,1.3,-4.6,1.3c-1.9,0,-3.5,-.4,-4.5,-1.3c-1.1,-.9,-1.6,-1.9,-1.6,-2.9c0,-.8,.2,-1.5,.8,-2.2c.6,-.7,1.6,-1.3,3.1,-1.8Z" class="g3_1"/>
<path d="M133.8,964.2l-3.4,-8.1l-3.4,8.1ZM130.9,952h.6l9.1,22.1h-3l-3.3,-8.5h-7.9l-3.3,8.5h-1.8Z" class="g3_1"/>
<path d="M145.8,966.6c0,1.4,.1,2.4,.3,3c.3,.6,.8,1,1.5,1.4c.6,.4,1.4,.6,2.3,.6c1.3,0,2.4,-.5,3.3,-1.5c.9,-1,1.4,-2.4,1.4,-4.2c0,-1.4,-.3,-2.6,-.8,-3.7c-.6,-1.2,-1.3,-2,-2.2,-2.6c-.9,-.5,-1.8,-.8,-2.7,-.8c-1.3,0,-2.1,.5,-2.7,1.4c-.3,.6,-.4,1.8,-.4,3.7Zm0,4.8v1.8c0,2.6,-.2,4.6,-.5,6h-2.7c.2,-.7,.3,-1.2,.4,-1.6c.1,-.7,.2,-1.6,.2,-2.7V964.8c0,-2.2,.6,-4,2,-5.4c1.4,-1.4,3.1,-2,5.2,-2c2.3,0,4.2,.8,5.4,2.5c.9,1.3,1.4,2.8,1.4,4.5c0,1.9,-.6,3.6,-1.7,5.2c-1.6,2.1,-3.5,3.1,-5.9,3.1c-.8,0,-1.6,-.1,-2.3,-.4c-.5,-.1,-1,-.5,-1.5,-.9Z" class="g3_1"/>
<path d="M194.5,973.3c-.3,-.2,-.5,-.4,-.6,-.7c-.1,-.2,-.1,-1,-.1,-2.1V953.3H193l-13,14v-14h-.7l-4.8,2.9l.3,.5c1,-.5,1.7,-.9,2.2,-.7c.6,.2,.5,2,.5,3.5v11c0,1.2,0,1.9,-.1,2.1c-.1,.3,-.3,.6,-.6,.7c-.3,.1,-.9,.2,-1.9,.2v.6h7.7v-.6c-.9,0,-1.6,-.1,-1.9,-.2c-.2,-.2,-.5,-.4,-.6,-.7c0,-.2,-.1,-1,-.1,-2.1v-1.9c2.2,-2.1,10.2,-11.2,10.5,-11.5c1,-.8,.8,.9,.8,2.4v11c0,1.2,-.1,1.9,-.1,2.1c-.2,.3,-.4,.6,-.7,.7c-.3,.1,-.9,.2,-1.9,.2v.6h7.7v-.6c-.9,0,-1.5,-.1,-1.8,-.2Z" class="g3_1"/>
<path clip-path="url(#c0_1)" d="M227.7,954.4c-1.6,-2.6,-3.7,-4.6,-6.4,-6l-6.7,14.4l-7.4,-14.4c-2.5,1.2,-4.6,3.1,-6.3,5.8c-1.6,2.7,-2.4,5.7,-2.4,8.9c0,3.2,.8,6.1,2.3,8.7c1.6,2.7,3.7,4.7,6.4,6v-.6c-1.4,-1,-2.5,-2.2,-3.3,-3.4c-.8,-1.3,-1.4,-2.8,-1.8,-4.7c-.3,-1.9,-.5,-4,-.5,-6.4c0,-2.1,.2,-4,.6,-6c.4,-1.9,1,-3.4,1.9,-4.7c.5,-.7,1.1,-1.4,1.7,-1.9c1.2,2.7,7.2,14.8,7.3,15.2h1.4c.2,-.5,6,-12.8,7.4,-15.7c1.1,.8,2.1,1.8,2.7,2.9c.8,1.2,1.4,2.8,1.8,4.7c.3,1.9,.5,4,.5,6.3c0,2.1,-.2,4.1,-.6,6c-.4,1.9,-1,3.5,-1.8,4.7c-.9,1.3,-1.9,2.2,-3.2,3v.6c2.5,-1.1,4.7,-3.1,6.3,-5.7c1.6,-2.7,2.4,-5.7,2.4,-9c0,-3.1,-.8,-6,-2.3,-8.7Z" class="g3_1"/>
</svg>