<?xml version="1.0" encoding="UTF-8" standalone="no"?>
<!DOCTYPE svg PUBLIC "-//W3C//DTD SVG 1.1//EN"
"http://www.w3.org/Graphics/SVG/1.1/DTD/svg11.dtd">
<svg viewBox="0 0 909 1147" version="1.1" xmlns="http://www.w3.org/2000/svg" xmlns:xlink="http://www.w3.org/1999/xlink">
<defs>
<style type="text/css"><![CDATA[
.g0_20{
fill: #FAAF82;
}
.g1_20{
fill: none;
stroke: #0EA5DF;
stroke-width: 0.763;
stroke-miterlimit: 10;
}
.g2_20{
fill: none;
stroke: #000;
stroke-width: 0.763;
}
.g3_20{
fill: #000;
}
.g4_20{
fill: none;
stroke: #000;
stroke-width: 0.763;
stroke-miterlimit: 2;
}
.g5_20{
fill: none;
stroke: #000;
stroke-width: 0.458;
stroke-miterlimit: 2;
}
.g6_20{
fill: none;
stroke: #000;
stroke-width: 1.54;
stroke-miterlimit: 2;
}
.g7_20{
fill: none;
stroke: #000;
stroke-width: 1.069;
stroke-miterlimit: 2;
}
.g8_20{
fill: none;
stroke: #0EA5DF;
stroke-width: 3.055;
}
.g9_20{
fill: #FFF1E0;
}
.ga_20{
fill: #0EA5DF;
}
]]></style>
</defs>
<path d="M0,1131H73.8v-51.5H0V1131Z" class="g0_20"/>
<path d="M248.3,784.3h71.5m-71.1,21V784.6m71.1,-.3h58.8m-58.8,21V784.6m58.8,-.3H487.3m-108.7,21V784.6m108.3,20.7V784.6M184.1,805.7h64.6m-64.3,25.6V806m64.3,-.3h71.1m-71.1,25.6V806m71.1,-.3h58.8m-58.8,25.6V806m58.8,-.3H487.3M378.6,831.3V806m108.3,25.3V806M184.1,831.6h64.6m-64.3,25.6V832m64.3,-.4h71.1m-71.1,25.6V832m71.1,-.4h58.8m-58.8,25.6V832m58.8,-.4H487.3M378.6,857.2V832m108.3,25.2V832M184.1,857.6h64.6m0,0h71.1m0,0h58.8m0,0H487.3" class="g1_20"/>
<path d="M634.1,616.8l48.5,48.9m.3,.6H818.4" class="g2_20"/>
<path fill-rule="evenodd" d="M634.1,618.8c1.6,0,2.9,-1.3,2.9,-2.9c0,-1.6,-1.3,-2.8,-2.9,-2.8c-1.6,0,-2.9,1.2,-2.9,2.8c0,1.6,1.3,2.9,2.9,2.9Z" class="g3_20"/>
<path d="M634.1,618.8c1.6,0,2.9,-1.3,2.9,-2.9c0,-1.6,-1.3,-2.8,-2.9,-2.8c-1.6,0,-2.9,1.2,-2.9,2.8c0,1.6,1.3,2.9,2.9,2.9Z" class="g2_20"/>
<path fill-rule="evenodd" d="M819.4,669c1.6,0,2.9,-1.3,2.9,-2.9c0,-1.6,-1.3,-2.8,-2.9,-2.8c-1.6,0,-2.9,1.2,-2.9,2.8c0,1.6,1.3,2.9,2.9,2.9Z" class="g3_20"/>
<path d="M819.4,669c1.6,0,2.9,-1.3,2.9,-2.9c0,-1.6,-1.3,-2.8,-2.9,-2.8c-1.6,0,-2.9,1.2,-2.9,2.8c0,1.6,1.3,2.9,2.9,2.9Z" class="g2_20"/>
<path fill-rule="evenodd" d="M683.4,668.6c1.6,0,2.9,-1.3,2.9,-2.9c0,-1.5,-1.3,-2.8,-2.9,-2.8c-1.5,0,-2.8,1.3,-2.8,2.8c0,1.6,1.3,2.9,2.8,2.9Z" class="g3_20"/>
<path d="M683.4,668.6c1.6,0,2.9,-1.3,2.9,-2.9c0,-1.5,-1.3,-2.8,-2.9,-2.8c-1.5,0,-2.8,1.3,-2.8,2.8c0,1.6,1.3,2.9,2.8,2.9Z" class="g2_20"/>
<path d="M193.1,444.1h89.7m0,0H440.7" class="g4_20"/>
<path d="M203.1,451.9H440.8" class="g5_20"/>
<path d="M193.1,451.9h16.8" class="g4_20"/>
<path d="M205.1,448l6,3.9l-6,4" class="g6_20"/>
<path d="M264.5,451.9h16.9" class="g4_20"/>
<path d="M276.5,448l6.1,3.9l-6.1,4" class="g6_20"/>
<path d="M440.7,451.9H423.9" class="g4_20"/>
<path d="M428.8,455.9l-6.1,-4l6.1,-3.9" class="g6_20"/>
<path d="M302.5,451.9H285.7" class="g4_20"/>
<path d="M290.6,455.9l-6.1,-4l6.1,-3.9" class="g6_20"/>
<path fill-rule="evenodd" d="M196.1,424.6l-.9,10.1c-.1,.4,-.1,.7,-.1,.9c0,.2,0,.4,.1,.5c.2,.2,.3,.3,.5,.4c.2,.1,.5,.2,1,.2l-.1,.3h-4.8l.1,-.3h.2c.4,0,.7,-.1,1,-.3c.1,-.1,.3,-.3,.4,-.6c0,-.1,.1,-.6,.1,-1.3l.2,-1.5h-3.5l-1.2,1.7c-.3,.3,-.5,.6,-.5,.8c-.1,.1,-.2,.3,-.2,.4c0,.2,.1,.4,.3,.5c.1,.2,.4,.2,.7,.3l-.1,.3h-3.5l.1,-.3c.4,-.1,.8,-.2,1.1,-.5c.4,-.3,.9,-.9,1.5,-1.8l7.3,-9.8Zm-1.8,2.9l-3.5,4.8h3.1Z" class="g3_20"/>
<path fill-rule="evenodd" d="M293.1,424.6l-.9,3.9h-.3l-.1,-1c0,-.3,-.1,-.7,-.2,-.9c-.1,-.3,-.2,-.6,-.5,-.8c-.2,-.2,-.4,-.3,-.8,-.5c-.3,-.1,-.7,-.1,-1.1,-.1c-1,0,-2,.3,-2.8,.8c-1,.8,-1.8,1.8,-2.4,3.2c-.4,1.1,-.7,2.3,-.7,3.4c0,1.2,.4,2.1,1,2.8c.7,.7,1.6,1.1,2.7,1.1c.9,0,1.6,-.2,2.2,-.6c.7,-.3,1.3,-.9,1.8,-1.7h.5c-.7,1.1,-1.4,1.8,-2.2,2.3c-.8,.5,-1.8,.8,-2.9,.8c-1,0,-1.9,-.2,-2.6,-.7c-.8,-.4,-1.4,-1,-1.8,-1.7c-.4,-.8,-.6,-1.6,-.6,-2.4c0,-1.4,.4,-2.7,1.1,-3.9c.7,-1.3,1.7,-2.2,2.9,-3c1.3,-.7,2.5,-1,3.8,-1c.6,0,1.2,.1,1.9,.4c.4,.1,.6,.2,.7,.2c.2,0,.3,-.1,.4,-.1c.1,-.1,.3,-.3,.6,-.5Z" class="g3_20"/>
<path fill-rule="evenodd" d="M437.5,425.2l.1,-.4h4.3c.8,0,1.4,.2,2,.4c.5,.2,1,.5,1.3,.9c.2,.4,.4,.9,.4,1.3c0,.7,-.3,1.4,-.8,1.9c-.5,.6,-1.3,1,-2.4,1.3c.7,.2,1.2,.6,1.6,1.1c.3,.4,.5,.9,.5,1.5c0,.6,-.2,1.1,-.5,1.7c-.3,.5,-.7,1,-1.2,1.3c-.4,.3,-1,.5,-1.7,.6c-.5,.1,-1.3,.2,-2.3,.2h-4.5l.2,-.3c.4,-.1,.7,-.1,.9,-.2c.2,-.1,.4,-.2,.5,-.4c.2,-.2,.3,-.7,.6,-1.5l2.2,-7.4c.1,-.6,.2,-1,.2,-1.3c0,-.2,0,-.4,-.2,-.5c-.2,-.2,-.5,-.2,-.9,-.2c-.1,0,-.2,0,-.3,0m1.8,5c.4,0,.7,0,.8,0c1.3,0,2.2,-.2,2.8,-.8c.6,-.5,.9,-1.2,.9,-2c0,-.6,-.2,-1.1,-.5,-1.4c-.4,-.4,-1,-.6,-1.8,-.6c-.2,0,-.5,.1,-.8,.2Zm-1.8,6c.7,.1,1.2,.1,1.5,.1c1,0,1.8,-.3,2.5,-.8c.7,-.6,1.1,-1.3,1.1,-2.3c0,-.7,-.2,-1.3,-.7,-1.7c-.4,-.4,-1.1,-.6,-2.1,-.6c-.2,0,-.5,0,-.7,0Z" class="g3_20"/>
<path d="M193.1,443.9V452m247.6,-.2v-7.1m-157.9,0v7.1" class="g7_20"/>
<path fill-rule="evenodd" d="M193.2,442.8c.7,0,1.3,.5,1.3,1.2c0,.7,-.6,1.2,-1.3,1.2c-.6,0,-1.2,-.5,-1.2,-1.2c0,-.7,.6,-1.2,1.2,-1.2Z" class="g3_20"/>
<path d="M193.2,442.8c.7,0,1.3,.5,1.3,1.2c0,.7,-.6,1.2,-1.3,1.2c-.6,0,-1.2,-.5,-1.2,-1.2c0,-.7,.6,-1.2,1.2,-1.2Z" class="g7_20"/>
<path fill-rule="evenodd" d="M440.4,442.8c.7,0,1.3,.5,1.3,1.2c0,.7,-.6,1.2,-1.3,1.2c-.7,0,-1.2,-.5,-1.2,-1.2c0,-.7,.5,-1.2,1.2,-1.2Z" class="g3_20"/>
<path d="M440.4,442.8c.7,0,1.3,.5,1.3,1.2c0,.7,-.6,1.2,-1.3,1.2c-.7,0,-1.2,-.5,-1.2,-1.2c0,-.7,.5,-1.2,1.2,-1.2Z" class="g7_20"/>
<path d="M73.6,297.5H835.8M73.6,594.6H835.8" class="g8_20"/>
<path d="M0,141.1H120.6V0H0V141.1Z" class="g0_20"/>
<path d="M184.1,491.4h84.4m-84.1,43V491.8m84.1,-.4h78m-78,43V491.8m78,-.4h77.9m-77.9,43V491.8m77.9,-.4h78.3m-78.3,43V491.8m78,42.6V491.8m-318.3,43h84.4m-84.1,21V535.2m84.1,-.4h78m-78,21V535.2m78,-.4h77.9m-77.9,21V535.2m77.9,-.4h78.3m-78.3,21V535.2m78,20.6V535.2m-318.3,21h84.4m-84.1,21V556.6m84.1,-.4h78m-78,21V556.6m78,-.4h77.9m-77.9,21V556.6m77.9,-.4h78.3m-78.3,21V556.6m78,20.6V556.6m-318.3,21h84.4m0,0h78m0,0h77.9m0,0h78.3" class="g1_20"/>
<path d="M185.7,277.2h648V167.6h-648V277.2Z" class="g9_20"/>
<path d="M133.7,205.1h39.6V167.6H133.7v37.5Z" class="ga_20"/>
<path d="M73,1003.4H835.2" class="g8_20"/>
<path d="M73.6,1035H181v-30.1H73.6V1035Z" class="ga_20"/>
</svg>