<?xml version="1.0" encoding="UTF-8" standalone="no"?>
<!DOCTYPE svg PUBLIC "-//W3C//DTD SVG 1.1//EN"
"http://www.w3.org/Graphics/SVG/1.1/DTD/svg11.dtd">
<svg viewBox="0 0 909 1147" version="1.1" xmlns="http://www.w3.org/2000/svg" xmlns:xlink="http://www.w3.org/1999/xlink">
<defs>
<clipPath id="c0_16"><path d="M0,1147.6V0H909.4V1147.6Z"/></clipPath>
<clipPath id="c1_16"><path d="M193.3,450.8v-.1c-.4,0,-.8,-.1,-1.2,-.1v-.1h-.4v-.2h-.4v-.1h-.4v-.1c-.3,-.1,-.5,-.2,-.8,-.3v-.1h-.3c0,-.1,-.1,-.2,-.1,-.3c-.2,-.1,-.4,-.1,-.5,-.1c-.1,-.2,-.2,-.3,-.3,-.5h-.3c-.2,-.3,-.5,-.6,-.8,-.9c-.2,-.2,-.4,-.3,-.7,-.5v-.3c-.1,-.1,-.2,-.2,-.4,-.3c0,-.1,0,-.3,-.1,-.5c-.1,0,-.2,-.1,-.3,-.1v-.3h-.1c-.1,-.3,-.2,-.5,-.3,-.8h-.1v-.4h-.1v-.4h-.2v-.4h-.1c0,-.4,-.1,-.8,-.1,-1.2h-.2V224.1h.2c0,-.4,.1,-.8,.1,-1.2h.1v-.5h.2V222h.1v-.4h.1c.1,-.1,.1,-.3,.2,-.5h.1c.1,-.2,.1,-.3,.1,-.5c.1,-.1,.2,-.1,.3,-.2c.1,-.1,.1,-.3,.1,-.5c.2,-.1,.3,-.2,.4,-.3v-.2c.2,-.2,.4,-.3,.6,-.4c.3,-.4,.6,-.7,.9,-1.1h.3c.1,-.1,.2,-.3,.3,-.4c.1,-.1,.3,-.1,.5,-.1c0,-.1,.1,-.2,.1,-.3h.3V217h.3v-.2h.2v-.1c.9,-.3,1.8,-.5,2.7,-.8h183v.1c.4,.1,.8,.1,1.2,.2v.1h.4v.1h.4v.2h.4v.1c.3,.1,.6,.2,.8,.3v.1h.3c0,.1,.1,.2,.1,.3c.2,0,.4,0,.6,.1c0,.1,.1,.3,.2,.4h.3c.2,.2,.4,.4,.5,.7c.3,.2,.7,.5,1,.8v.2q.1,.1,.2,.2c.1,.1,.1,.2,.2,.4h.1v.2c.1,.1,.2,.1,.3,.2v.2h.1c.1,.3,.2,.6,.3,.8h.1v.4h.1v.4h.2v.5h.1c.1,.4,.1,.8,.1,1.2h.2V442.7h-.2c0,.4,0,.8,-.1,1.2h-.1v.4h-.2v.4h-.1v.4h-.1v.3h-.2c-.1,.2,-.1,.5,-.2,.8c-.1,0,-.2,.1,-.3,.1v.3c-.1,0,-.2,.1,-.3,.1v.3c-.1,.1,-.2,.2,-.4,.2v.3c-.2,.2,-.5,.5,-.8,.7c-.1,.2,-.3,.4,-.5,.6h-.3c-.1,.2,-.2,.3,-.2,.5c-.2,0,-.4,0,-.6,.1c0,.1,-.1,.2,-.1,.3h-.3v.1c-.2,.1,-.5,.2,-.8,.3v.1h-.4v.1h-.4v.2h-.4v.1c-.4,0,-.8,.1,-1.2,.1v.1Z"/></clipPath>
<clipPath id="c2_16"><path d="M780.6,447.1c-1.4,0,-2.9,-.1,-3.7,-.1H762.7c-.7,0,-1.5,0,-2.2,0c-1.1,0,-2.1,0,-2.7,-.4c-.1,-.2,-.2,-.4,-.4,-.6c-.3,-.3,-.5,-.3,-.6,-.8c-.2,-.2,-.6,-1.7,-.4,-2.4c.4,-1.6,.1,-4.4,.1,-6.2v-8.4c0,-1.1,-.2,-2.9,.2,-3.8h.1c.1,-.2,.1,-.4,.2,-.6c.1,-.1,.3,-.2,.4,-.3v-.3c.2,0,.3,-.1,.4,-.1c.1,-.1,.1,-.2,.2,-.3c.2,0,.4,-.1,.6,-.1v-.2h.4v-.1h19.5c.7,0,1.5,-.1,2.2,-.1c1.1,0,2.1,.1,2.7,.5c.1,.2,.3,.4,.4,.6c.3,.3,.5,.2,.6,.7h.1c.1,.3,.1,.6,.2,.9h.3v18.4c-.1,.9,-.2,1.7,-.6,2.3c-.2,.1,-.4,.3,-.6,.4c-.2,.3,-.5,.6,-.9,.8c-.4,.1,-1.3,.2,-2.3,.2Z"/></clipPath>
<style type="text/css"><![CDATA[
.g0_16{
fill: #FAAF82;
}
.g1_16{
fill: none;
stroke: #0EA5DF;
stroke-width: 0.763;
}
.g2_16{
fill: none;
stroke: #0EA5DF;
stroke-width: 3.055;
}
.g3_16{
fill: none;
stroke: #D2232A;
stroke-width: 1.393;
}
.g4_16{
fill: #D2232A;
}
.g5_16{
fill: none;
stroke: #0EA5DF;
stroke-width: 1.393;
}
.g6_16{
fill: #0EA5DF;
}
]]></style>
</defs>
<path d="M0,1131H73.8v-51.5H0V1131Z" class="g0_16"/>
<path d="M211.3,633.4c0,0,-4.3,0,-4.3,4.4v11c0,0,0,4.3,4.3,4.3h16.8c0,0,4.3,0,4.3,-4.3v-11c0,0,0,-4.4,-4.3,-4.4H211.3Zm31.7,0c0,0,-4.3,0,-4.3,4.4v11c0,0,0,4.3,4.3,4.3h16.7c0,0,4.4,0,4.4,-4.3v-11c0,0,0,-4.4,-4.4,-4.4H243Zm31.6,0c0,0,-4.3,0,-4.3,4.4v11c0,0,0,4.3,4.3,4.3h16.8c0,0,4.3,0,4.3,-4.3v-11c0,0,0,-4.4,-4.3,-4.4H274.6Zm31.7,0c0,0,-4.3,0,-4.3,4.4v11c0,0,0,4.3,4.3,4.3h16.8c0,0,4.3,0,4.3,-4.3v-11c0,0,0,-4.4,-4.3,-4.4H306.3Zm31.7,0c0,0,-4.4,0,-4.4,4.4v11c0,0,0,4.3,4.4,4.3h16.7c0,0,4.4,0,4.4,-4.3v-11c0,0,0,-4.4,-4.4,-4.4H338Zm31.6,0c0,0,-4.3,0,-4.3,4.4v11c0,0,0,4.3,4.3,4.3h16.8c0,0,4.3,0,4.3,-4.3v-11c0,0,0,-4.4,-4.3,-4.4H369.6Zm31.7,0c0,0,-4.3,0,-4.3,4.4v11c0,0,0,4.3,4.3,4.3H418c0,0,4.4,0,4.4,-4.3v-11c0,0,0,-4.4,-4.4,-4.4H401.3Zm31.7,0c0,0,-4.4,0,-4.4,4.4v11c0,0,0,4.3,4.4,4.3h16.7c0,0,4.3,0,4.3,-4.3v-11c0,0,0,-4.4,-4.3,-4.4H433Zm31.6,0c0,0,-4.3,0,-4.3,4.4v11c0,0,0,4.3,4.3,4.3h16.8c0,0,4.3,0,4.3,-4.3v-11c0,0,0,-4.4,-4.3,-4.4H464.6Zm31.7,0c0,0,-4.4,0,-4.4,4.4v11c0,0,0,4.3,4.4,4.3H513c0,0,4.4,0,4.4,-4.3v-11c0,0,0,-4.4,-4.4,-4.4H496.3Zm31.6,0c0,0,-4.3,0,-4.3,4.4v11c0,0,0,4.3,4.3,4.3h16.8c0,0,4.3,0,4.3,-4.3v-11c0,0,0,-4.4,-4.3,-4.4H527.9Zm30.8,0c0,0,-4.3,0,-4.3,4.4v11c0,0,0,4.3,4.3,4.3h16.8c0,0,4.3,0,4.3,-4.3v-11c0,0,0,-4.4,-4.3,-4.4H558.7Zm31.7,0c0,0,-4.4,0,-4.4,4.4v11c0,0,0,4.3,4.4,4.3h16.7c0,0,4.4,0,4.4,-4.3v-11c0,0,0,-4.4,-4.4,-4.4H590.4Zm31.6,0c0,0,-4.3,0,-4.3,4.4v11c0,0,0,4.3,4.3,4.3h16.8c0,0,4.3,0,4.3,-4.3v-11c0,0,0,-4.4,-4.3,-4.4H622Zm31.7,0c0,0,-4.3,0,-4.3,4.4v11c0,0,0,4.3,4.3,4.3h16.7c0,0,4.4,0,4.4,-4.3v-11c0,0,0,-4.4,-4.4,-4.4H653.7ZM211.3,697.8c0,0,-4.3,0,-4.3,4.3v11c0,0,0,4.3,4.3,4.3h16.8c0,0,4.3,0,4.3,-4.3v-11c0,0,0,-4.3,-4.3,-4.3H211.3Zm31.7,0c0,0,-4.3,0,-4.3,4.3v11c0,0,0,4.3,4.3,4.3h16.7c0,0,4.4,0,4.4,-4.3v-11c0,0,0,-4.3,-4.4,-4.3H243Zm31.6,0c0,0,-4.3,0,-4.3,4.3v11c0,0,0,4.3,4.3,4.3h16.8c0,0,4.3,0,4.3,-4.3v-11c0,0,0,-4.3,-4.3,-4.3H274.6Zm31.7,0c0,0,-4.3,0,-4.3,4.3v11c0,0,0,4.3,4.3,4.3h16.8c0,0,4.3,0,4.3,-4.3v-11c0,0,0,-4.3,-4.3,-4.3H306.3Zm31.7,0c0,0,-4.4,0,-4.4,4.3v11c0,0,0,4.3,4.4,4.3h16.7c0,0,4.4,0,4.4,-4.3v-11c0,0,0,-4.3,-4.4,-4.3H338Zm31.6,0c0,0,-4.3,0,-4.3,4.3v11c0,0,0,4.3,4.3,4.3h16.8c0,0,4.3,0,4.3,-4.3v-11c0,0,0,-4.3,-4.3,-4.3H369.6Zm31.7,0c0,0,-4.3,0,-4.3,4.3v11c0,0,0,4.3,4.3,4.3H418c0,0,4.4,0,4.4,-4.3v-11c0,0,0,-4.3,-4.4,-4.3H401.3Zm31.7,0c0,0,-4.4,0,-4.4,4.3v11c0,0,0,4.3,4.4,4.3h16.7c0,0,4.3,0,4.3,-4.3v-11c0,0,0,-4.3,-4.3,-4.3H433Zm31.6,0c0,0,-4.3,0,-4.3,4.3v11c0,0,0,4.3,4.3,4.3h16.8c0,0,4.3,0,4.3,-4.3v-11c0,0,0,-4.3,-4.3,-4.3H464.6Zm31.7,0c0,0,-4.4,0,-4.4,4.3v11c0,0,0,4.3,4.4,4.3H513c0,0,4.4,0,4.4,-4.3v-11c0,0,0,-4.3,-4.4,-4.3H496.3Zm31.6,0c0,0,-4.3,0,-4.3,4.3v11c0,0,0,4.3,4.3,4.3h16.8c0,0,4.3,0,4.3,-4.3v-11c0,0,0,-4.3,-4.3,-4.3H527.9Zm31.7,0c0,0,-4.3,0,-4.3,4.3v11c0,0,0,4.3,4.3,4.3h16.8c0,0,4.3,0,4.3,-4.3v-11c0,0,0,-4.3,-4.3,-4.3H559.6Zm30.8,0c0,0,-4.4,0,-4.4,4.3v11c0,0,0,4.3,4.4,4.3h16.7c0,0,4.4,0,4.4,-4.3v-11c0,0,0,-4.3,-4.4,-4.3H590.4Zm31.6,0c0,0,-4.3,0,-4.3,4.3v11c0,0,0,4.3,4.3,4.3h16.8c0,0,4.3,0,4.3,-4.3v-11c0,0,0,-4.3,-4.3,-4.3H622Zm31.7,0c0,0,-4.3,0,-4.3,4.3v11c0,0,0,4.3,4.3,4.3h16.7c0,0,4.4,0,4.4,-4.3v-11c0,0,0,-4.3,-4.4,-4.3H653.7Zm31.7,0c0,0,-4.4,0,-4.4,4.3v11c0,0,0,4.3,4.4,4.3h16.7c0,0,4.3,0,4.3,-4.3v-11c0,0,0,-4.3,-4.3,-4.3H685.4ZM211.3,732.1c0,0,-4.3,0,-4.3,4.3v11c0,0,0,4.4,4.3,4.4h16.8c0,0,4.3,0,4.3,-4.4v-11c0,0,0,-4.3,-4.3,-4.3H211.3Zm31.7,0c0,0,-4.3,0,-4.3,4.3v11c0,0,0,4.4,4.3,4.4h16.7c0,0,4.4,0,4.4,-4.4v-11c0,0,0,-4.3,-4.4,-4.3H243Zm31.6,0c0,0,-4.3,0,-4.3,4.3v11c0,0,0,4.4,4.3,4.4h16.8c0,0,4.3,0,4.3,-4.4v-11c0,0,0,-4.3,-4.3,-4.3H274.6Zm31.7,0c0,0,-4.3,0,-4.3,4.3v11c0,0,0,4.4,4.3,4.4h16.8c0,0,4.3,0,4.3,-4.4v-11c0,0,0,-4.3,-4.3,-4.3H306.3Zm31.7,0c0,0,-4.4,0,-4.4,4.3v11c0,0,0,4.4,4.4,4.4h16.7c0,0,4.4,0,4.4,-4.4v-11c0,0,0,-4.3,-4.4,-4.3H338Zm31.6,0c0,0,-4.3,0,-4.3,4.3v11c0,0,0,4.4,4.3,4.4h16.8c0,0,4.3,0,4.3,-4.4v-11c0,0,0,-4.3,-4.3,-4.3H369.6Zm31.7,0c0,0,-4.3,0,-4.3,4.3v11c0,0,0,4.4,4.3,4.4H418c0,0,4.4,0,4.4,-4.4v-11c0,0,0,-4.3,-4.4,-4.3H401.3Zm31.7,0c0,0,-4.4,0,-4.4,4.3v11c0,0,0,4.4,4.4,4.4h16.7c0,0,4.3,0,4.3,-4.4v-11c0,0,0,-4.3,-4.3,-4.3H433Zm31.6,0c0,0,-4.3,0,-4.3,4.3v11c0,0,0,4.4,4.3,4.4h16.8c0,0,4.3,0,4.3,-4.4v-11c0,0,0,-4.3,-4.3,-4.3H464.6Zm31.7,0c0,0,-4.4,0,-4.4,4.3v11c0,0,0,4.4,4.4,4.4H513c0,0,4.4,0,4.4,-4.4v-11c0,0,0,-4.3,-4.4,-4.3H496.3Zm31.6,0c0,0,-4.3,0,-4.3,4.3v11c0,0,0,4.4,4.3,4.4h16.8c0,0,4.3,0,4.3,-4.4v-11c0,0,0,-4.3,-4.3,-4.3H527.9Zm30.8,0c0,0,-4.3,0,-4.3,4.3v11c0,0,0,4.4,4.3,4.4h16.8c0,0,4.3,0,4.3,-4.4v-11c0,0,0,-4.3,-4.3,-4.3H558.7Zm31.7,0c0,0,-4.4,0,-4.4,4.3v11c0,0,0,4.4,4.4,4.4h16.7c0,0,4.4,0,4.4,-4.4v-11c0,0,0,-4.3,-4.4,-4.3H590.4ZM211.3,764.8c0,0,-4.3,0,-4.3,4.4v11c0,0,0,4.3,4.3,4.3h16.8c0,0,4.3,0,4.3,-4.3v-11c0,0,0,-4.4,-4.3,-4.4H211.3Zm31.7,0c0,0,-4.3,0,-4.3,4.4v11c0,0,0,4.3,4.3,4.3h16.7c0,0,4.4,0,4.4,-4.3v-11c0,0,0,-4.4,-4.4,-4.4H243Zm31.6,0c0,0,-4.3,0,-4.3,4.4v11c0,0,0,4.3,4.3,4.3h16.8c0,0,4.3,0,4.3,-4.3v-11c0,0,0,-4.4,-4.3,-4.4H274.6Zm31.7,0c0,0,-4.3,0,-4.3,4.4v11c0,0,0,4.3,4.3,4.3h16.8c0,0,4.3,0,4.3,-4.3v-11c0,0,0,-4.4,-4.3,-4.4H306.3Zm31.7,0c0,0,-4.4,0,-4.4,4.4v11c0,0,0,4.3,4.4,4.3h16.7c0,0,4.4,0,4.4,-4.3v-11c0,0,0,-4.4,-4.4,-4.4H338Zm31.6,0c0,0,-4.3,0,-4.3,4.4v11c0,0,0,4.3,4.3,4.3h16.8c0,0,4.3,0,4.3,-4.3v-11c0,0,0,-4.4,-4.3,-4.4H369.6Zm31.7,0c0,0,-4.3,0,-4.3,4.4v11c0,0,0,4.3,4.3,4.3H418c0,0,4.4,0,4.4,-4.3v-11c0,0,0,-4.4,-4.4,-4.4H401.3Zm31.7,0c0,0,-4.4,0,-4.4,4.4v11c0,0,0,4.3,4.4,4.3h16.7c0,0,4.3,0,4.3,-4.3v-11c0,0,0,-4.4,-4.3,-4.4H433Zm31.6,0c0,0,-4.3,0,-4.3,4.4v11c0,0,0,4.3,4.3,4.3h16.8c0,0,4.3,0,4.3,-4.3v-11c0,0,0,-4.4,-4.3,-4.4H464.6Zm31.7,0c0,0,-4.4,0,-4.4,4.4v11c0,0,0,4.3,4.4,4.3H513c0,0,4.4,0,4.4,-4.3v-11c0,0,0,-4.4,-4.4,-4.4H496.3Zm31.6,0c0,0,-4.3,0,-4.3,4.4v11c0,0,0,4.3,4.3,4.3h16.8c0,0,4.3,0,4.3,-4.3v-11c0,0,0,-4.4,-4.3,-4.4H527.9Zm31.7,0c0,0,-4.3,0,-4.3,4.4v11c0,0,0,4.3,4.3,4.3h16.8c0,0,4.3,0,4.3,-4.3v-11c0,0,0,-4.4,-4.3,-4.4H559.6Zm31.7,0c0,0,-4.4,0,-4.4,4.4v11c0,0,0,4.3,4.4,4.3H608c0,0,4.3,0,4.3,-4.3v-11c0,0,0,-4.4,-4.3,-4.4H591.3Zm30.7,0c0,0,-4.3,0,-4.3,4.4v11c0,0,0,4.3,4.3,4.3h16.8c0,0,4.3,0,4.3,-4.3v-11c0,0,0,-4.4,-4.3,-4.4H622Zm31.7,0c0,0,-4.3,0,-4.3,4.4v11c0,0,0,4.3,4.3,4.3h16.7c0,0,4.4,0,4.4,-4.3v-11c0,0,0,-4.4,-4.4,-4.4H653.7Zm31.7,0c0,0,-4.4,0,-4.4,4.4v11c0,0,0,4.3,4.4,4.3h16.7c0,0,4.3,0,4.3,-4.3v-11c0,0,0,-4.4,-4.3,-4.4H685.4ZM211.3,797.6c0,0,-4.3,0,-4.3,4.3V813c0,0,0,4.3,4.3,4.3h16.8c0,0,4.3,0,4.3,-4.3V801.9c0,0,0,-4.3,-4.3,-4.3H211.3Zm31.7,0c0,0,-4.3,0,-4.3,4.3V813c0,0,0,4.3,4.3,4.3h16.7c0,0,4.4,0,4.4,-4.3V801.9c0,0,0,-4.3,-4.4,-4.3H243Zm31.6,0c0,0,-4.3,0,-4.3,4.3V813c0,0,0,4.3,4.3,4.3h16.8c0,0,4.3,0,4.3,-4.3V801.9c0,0,0,-4.3,-4.3,-4.3H274.6Zm31.7,0c0,0,-4.3,0,-4.3,4.3V813c0,0,0,4.3,4.3,4.3h16.8c0,0,4.3,0,4.3,-4.3V801.9c0,0,0,-4.3,-4.3,-4.3H306.3Zm31.7,0c0,0,-4.4,0,-4.4,4.3V813c0,0,0,4.3,4.4,4.3h16.7c0,0,4.4,0,4.4,-4.3V801.9c0,0,0,-4.3,-4.4,-4.3H338Zm31.6,0c0,0,-4.3,0,-4.3,4.3V813c0,0,0,4.3,4.3,4.3h16.8c0,0,4.3,0,4.3,-4.3V801.9c0,0,0,-4.3,-4.3,-4.3H369.6Zm31.7,0c0,0,-4.3,0,-4.3,4.3V813c0,0,0,4.3,4.3,4.3H418c0,0,4.4,0,4.4,-4.3V801.9c0,0,0,-4.3,-4.4,-4.3H401.3Zm31.7,0c0,0,-4.4,0,-4.4,4.3V813c0,0,0,4.3,4.4,4.3h16.7c0,0,4.3,0,4.3,-4.3V801.9c0,0,0,-4.3,-4.3,-4.3H433Zm31.6,0c0,0,-4.3,0,-4.3,4.3V813c0,0,0,4.3,4.3,4.3h16.8c0,0,4.3,0,4.3,-4.3V801.9c0,0,0,-4.3,-4.3,-4.3H464.6Zm31.7,0c0,0,-4.4,0,-4.4,4.3V813c0,0,0,4.3,4.4,4.3H513c0,0,4.4,0,4.4,-4.3V801.9c0,0,0,-4.3,-4.4,-4.3H496.3Zm31.6,0c0,0,-4.3,0,-4.3,4.3V813c0,0,0,4.3,4.3,4.3h16.8c0,0,4.3,0,4.3,-4.3V801.9c0,0,0,-4.3,-4.3,-4.3H527.9Zm30.8,0c0,0,-4.3,0,-4.3,4.3V813c0,0,0,4.3,4.3,4.3h16.8c0,0,4.3,0,4.3,-4.3V801.9c0,0,0,-4.3,-4.3,-4.3H558.7Zm31.7,0c0,0,-4.4,0,-4.4,4.3V813c0,0,0,4.3,4.4,4.3h16.7c0,0,4.4,0,4.4,-4.3V801.9c0,0,0,-4.3,-4.4,-4.3H590.4Zm31.6,0c0,0,-4.3,0,-4.3,4.3V813c0,0,0,4.3,4.3,4.3h16.8c0,0,4.3,0,4.3,-4.3V801.9c0,0,0,-4.3,-4.3,-4.3H622Z" class="g1_16"/>
<path d="M73.6,490.6H835.8M74.5,928.8H836.7" class="g2_16"/>
<path d="M0,141.1H120.6V0H0V141.1Z" class="g0_16"/>
<image clip-path="url(#c0_16)" preserveAspectRatio="none" x="180" y="213" width="216" height="252" xlink:href="img/1.png"/>
<image clip-path="url(#c1_16)" preserveAspectRatio="none" x="185" y="216" width="199" height="235" xlink:href="img/p2.jpg"/>
<path d="M303.6,352.1h67.1v60.8H335.2v32.4H303.6V352.1Zm65.3,73.3L408,400.6" class="g3_16"/>
<path d="M362,429.8l10.9,-2.4c0,0,-4,-2,-4.1,-6.5l-6.8,8.9Z" class="g4_16"/>
<path d="M369.8,334.9l37.3,-21.8" class="g3_16"/>
<path d="M362.8,339l11,-2c0,0,-4,-2.1,-3.9,-6.6l-7.1,8.6Z" class="g4_16"/>
<path d="M369.2,381l40.1,-21.6" class="g3_16"/>
<path d="M362,384.9l11.1,-1.6c0,0,-3.9,-2.3,-3.6,-6.8l-7.5,8.4Z" class="g4_16"/>
<path d="M370.8,305.6L408,270.7" class="g3_16"/>
<path d="M364.9,311.2l10.3,-4.4c0,0,-4.4,-1.2,-5.3,-5.6l-5,10Z" class="g4_16"/>
<path d="M362.1,254.1L408,243.8" class="g3_16"/>
<path d="M354.1,255.9l11.1,1.4c0,0,-3.1,-3.2,-1.7,-7.4l-9.4,6Z" class="g4_16"/>
<path d="M282.8,443.8v23.1H386.3l21.3,-24.1" class="g5_16"/>
<path d="M282.8,435.7L279,446.2c0,0,3.8,-2.4,7.6,0l-3.8,-10.5Z" class="g6_16"/>
<image clip-path="url(#c2_16)" preserveAspectRatio="none" x="756" y="422" width="29" height="25" xlink:href="img/p3.jpg"/>
<path d="M672.7,286.2c0,0,-18.4,0,-18.4,18.3V444.7c0,0,0,18.3,18.4,18.3H814.9c0,0,18.4,0,18.4,-18.3V304.5c0,0,0,-18.3,-18.4,-18.3H672.7Z" class="g1_16"/>
</svg>
