<?xml version="1.0" encoding="UTF-8" standalone="no"?>
<!DOCTYPE svg PUBLIC "-//W3C//DTD SVG 1.1//EN"
"http://www.w3.org/Graphics/SVG/1.1/DTD/svg11.dtd">
<svg viewBox="0 0 909 1147" version="1.1" xmlns="http://www.w3.org/2000/svg" xmlns:xlink="http://www.w3.org/1999/xlink">
<defs>
<clipPath id="c0_78"><path d="M233.9,1075.1v-136H417.2v136Z"/></clipPath>
<clipPath id="c1_78"><path d="M140.8,883V865H171v18Z"/></clipPath>
<style type="text/css"><![CDATA[
.g0_78{
fill: #B6D774;
}
.g1_78{
fill: #000;
}
.g2_78{
fill: none;
stroke: #000;
stroke-width: 0.152;
stroke-miterlimit: 2;
}
.g3_78{
fill: none;
stroke: #000;
stroke-width: 0.763;
stroke-miterlimit: 2;
}
.g4_78{
fill: none;
stroke: #000;
stroke-width: 0.763;
stroke-miterlimit: 2;
stroke-dasharray: 4,3;
}
.g5_78{
fill: #FFF;
}
.g6_78{
fill: none;
stroke: #8ED8F8;
stroke-width: 0.763;
stroke-miterlimit: 2;
}
.g7_78{
fill: #FCD3C1;
}
.g8_78{
fill: none;
stroke: #000;
stroke-width: 0.769;
stroke-miterlimit: 2;
}
.g9_78{
fill: none;
stroke: #000;
stroke-width: 0.769;
stroke-miterlimit: 2;
stroke-dasharray: 4,3;
}
.ga_78{
fill: #FFF1E0;
}
.gb_78{
fill: none;
stroke: #0EA5DF;
stroke-width: 3.055;
}
.gc_78{
fill: #0C4B7F;
}
.gd_78{
fill: #0EA5DF;
}
]]></style>
</defs>
<path d="M0,1131H73.8v-51.5H0V1131Z" class="g0_78"/>
<path fill-rule="evenodd" d="M310,815.1h4.8c1.2,0,2.2,.2,2.8,.8c.6,.5,.9,1.2,.9,1.9c0,.7,-.2,1.3,-.6,1.8c-.4,.6,-.9,1.1,-1.7,1.4c-.8,.4,-1.6,.6,-2.5,.6c-.6,0,-1.3,-.1,-2.2,-.3l-.9,3.3c-.3,.8,-.4,1.3,-.4,1.6c0,.1,.1,.3,.3,.4c.1,.2,.5,.2,1.1,.3l-.1,.3h-4.8l.1,-.3c.6,0,1.1,-.1,1.3,-.4c.3,-.2,.5,-.8,.8,-1.8l2,-6.9c.3,-.8,.4,-1.4,.4,-1.6c0,-.2,-.1,-.4,-.3,-.6c-.1,-.1,-.5,-.2,-1.1,-.2Zm1.7,5.6c.7,.2,1.2,.3,1.6,.3c.7,0,1.3,-.2,1.8,-.4c.5,-.3,.9,-.7,1.2,-1.2c.3,-.6,.5,-1.1,.5,-1.7c0,-.6,-.2,-1.1,-.6,-1.4c-.3,-.4,-.9,-.6,-1.6,-.6c-.5,0,-.9,.1,-1.5,.2Z" class="g1_78"/>
<path d="M310,815.1h4.8c1.2,0,2.2,.2,2.8,.8c.6,.5,.9,1.2,.9,1.9c0,.7,-.2,1.3,-.6,1.8c-.4,.6,-.9,1.1,-1.7,1.4c-.8,.4,-1.6,.6,-2.5,.6c-.6,0,-1.3,-.1,-2.2,-.3l-.9,3.3c-.3,.8,-.4,1.3,-.4,1.6c0,.1,.1,.3,.3,.4c.1,.2,.5,.2,1.1,.3l-.1,.3h-4.8l.1,-.3c.6,0,1.1,-.1,1.3,-.4c.3,-.2,.5,-.8,.8,-1.8l2,-6.9c.3,-.8,.4,-1.4,.4,-1.6c0,-.2,-.1,-.4,-.3,-.6c-.1,-.1,-.5,-.2,-1.1,-.2l.1,-.3Zm1.7,5.6c.7,.2,1.2,.3,1.6,.3c.7,0,1.3,-.2,1.8,-.4c.5,-.3,.9,-.7,1.2,-1.2c.3,-.6,.5,-1.1,.5,-1.7c0,-.6,-.2,-1.1,-.6,-1.4c-.3,-.4,-.9,-.6,-1.6,-.6c-.5,0,-.9,.1,-1.5,.2l-1.4,4.8Z" class="g2_78"/>
<path fill-rule="evenodd" d="M318.9,830l.7,-.4h.1v2.6c0,.1,0,.2,0,.3c0,0,.1,.1,.1,.1c0,0,.1,0,.3,0v.1h-1.2v-.1c.2,0,.3,0,.3,0c0,0,.1,-.1,.1,-.1c0,0,0,-.2,0,-.3v-1.7c0,-.2,0,-.3,0,-.4c0,0,0,-.1,-.1,-.1h-.1c0,0,-.1,0,-.2,0Z" class="g1_78"/>
<path d="M318.9,830l.7,-.4h.1v2.6c0,.1,0,.2,0,.3c0,0,.1,.1,.1,.1c0,0,.1,0,.3,0v.1h-1.2v-.1c.2,0,.3,0,.3,0c0,0,.1,-.1,.1,-.1c0,0,0,-.2,0,-.3v-1.7c0,-.2,0,-.3,0,-.4c0,0,0,-.1,-.1,-.1h-.1c0,0,-.1,0,-.2,0Z" class="g2_78"/>
<path fill-rule="evenodd" d="M279.6,737.1h4.8c1.3,0,2.2,.2,2.8,.8c.6,.5,.9,1.2,.9,2c0,.6,-.2,1.2,-.5,1.8c-.4,.5,-1,1,-1.8,1.4c-.8,.3,-1.6,.5,-2.5,.5c-.6,0,-1.3,-.1,-2.2,-.3l-.9,3.3c-.2,.8,-.4,1.3,-.4,1.6c0,.2,.1,.3,.3,.4c.1,.2,.5,.3,1.1,.3l-.1,.3h-4.8l.1,-.3c.7,0,1.1,-.1,1.3,-.3c.3,-.3,.6,-.9,.8,-1.8l2,-7c.3,-.8,.4,-1.3,.4,-1.6c0,-.2,-.1,-.4,-.3,-.5c-.1,-.2,-.5,-.3,-1.1,-.3Zm1.7,5.6c.7,.2,1.2,.3,1.6,.3c.7,0,1.3,-.1,1.8,-.4c.5,-.3,1,-.7,1.3,-1.2c.3,-.6,.4,-1.1,.4,-1.7c0,-.6,-.2,-1.1,-.5,-1.4c-.4,-.4,-1,-.5,-1.7,-.5c-.4,0,-.9,0,-1.5,.1Z" class="g1_78"/>
<path d="M279.6,737.1h4.8c1.3,0,2.2,.2,2.8,.8c.6,.5,.9,1.2,.9,2c0,.6,-.2,1.2,-.5,1.8c-.4,.5,-1,1,-1.8,1.4c-.8,.3,-1.6,.5,-2.5,.5c-.6,0,-1.3,-.1,-2.2,-.3l-.9,3.3c-.2,.8,-.4,1.3,-.4,1.6c0,.2,.1,.3,.3,.4c.1,.2,.5,.3,1.1,.3l-.1,.3h-4.8l.1,-.3c.7,0,1.1,-.1,1.3,-.3c.3,-.3,.6,-.9,.8,-1.8l2,-7c.3,-.8,.4,-1.3,.4,-1.6c0,-.2,-.1,-.4,-.3,-.5c-.1,-.2,-.5,-.3,-1.1,-.3l.1,-.3Zm1.7,5.6c.7,.2,1.2,.3,1.6,.3c.7,0,1.3,-.1,1.8,-.4c.5,-.3,1,-.7,1.3,-1.2c.3,-.6,.4,-1.1,.4,-1.7c0,-.6,-.2,-1.1,-.5,-1.4c-.4,-.4,-1,-.5,-1.7,-.5c-.4,0,-.9,0,-1.5,.1l-1.4,4.8Z" class="g2_78"/>
<path fill-rule="evenodd" d="M372.3,802.4l-2.3,1.9c.3,-.1,.7,-.1,1,-.1c.3,0,.5,0,.8,.1c.2,0,.8,.1,1.6,.3c.9,.2,1.6,.3,2.2,.3c.7,0,1.2,-.1,1.7,-.4c.5,-.2,.9,-.6,1.3,-1.1l.3,.1c-.6,.9,-1.3,1.6,-2.1,1.9c-.9,.4,-1.8,.6,-2.7,.6c-.5,0,-1.2,-.1,-2.1,-.3c-1.4,-.3,-2.4,-.4,-2.9,-.4c-.2,0,-.4,0,-.5,0c-.2,0,-.4,.1,-.6,.2l-.2,-.2l3.6,-2.9c-1.1,-.2,-2,-.7,-2.5,-1.5c-.6,-.9,-.9,-1.8,-.9,-2.7c0,-1.3,.4,-2.7,1.2,-4.1c.8,-1.4,1.8,-2.4,3,-3.2c1.2,-.8,2.4,-1.2,3.6,-1.2c.9,0,1.7,.2,2.3,.6c.6,.3,1.1,.9,1.4,1.5c.4,.7,.6,1.4,.6,2.1c0,1.4,-.4,2.8,-1.2,4.2c-.8,1.4,-1.8,2.5,-2.9,3.2c-1.2,.7,-2.4,1.1,-3.7,1.1m3.3,-12.1c-.6,0,-1.2,.2,-1.7,.5c-.6,.3,-1.2,.7,-1.7,1.4c-.6,.7,-1.1,1.6,-1.5,2.6c-.6,1.4,-.9,2.6,-.9,3.8c0,.9,.3,1.6,.7,2.3c.4,.6,1.1,1,2,1c.5,0,1.1,-.2,1.6,-.4c.5,-.3,1.1,-.8,1.6,-1.4c.7,-.8,1.3,-1.9,1.8,-3.2c.5,-1.2,.8,-2.4,.8,-3.5c0,-.8,-.3,-1.5,-.7,-2.1c-.4,-.7,-1.1,-1,-2,-1Z" class="g1_78"/>
<path d="M372.3,802.4l-2.3,1.9c.3,-.1,.7,-.1,1,-.1c.3,0,.5,0,.8,.1c.2,0,.8,.1,1.6,.3c.9,.2,1.6,.3,2.2,.3c.7,0,1.2,-.1,1.7,-.4c.5,-.2,.9,-.6,1.3,-1.1l.3,.1c-.6,.9,-1.3,1.6,-2.1,1.9c-.9,.4,-1.8,.6,-2.7,.6c-.5,0,-1.2,-.1,-2.1,-.3c-1.4,-.3,-2.4,-.4,-2.9,-.4c-.2,0,-.4,0,-.5,0c-.2,0,-.4,.1,-.6,.2l-.2,-.2l3.6,-2.9c-1.1,-.2,-2,-.7,-2.5,-1.5c-.6,-.9,-.9,-1.8,-.9,-2.7c0,-1.3,.4,-2.7,1.2,-4.1c.8,-1.4,1.8,-2.4,3,-3.2c1.2,-.8,2.4,-1.2,3.6,-1.2c.9,0,1.7,.2,2.3,.6c.6,.3,1.1,.9,1.4,1.5c.4,.7,.6,1.4,.6,2.1c0,1.4,-.4,2.8,-1.2,4.2c-.8,1.4,-1.8,2.5,-2.9,3.2c-1.2,.7,-2.4,1.1,-3.7,1.1Zm3.3,-12.1c-.6,0,-1.2,.2,-1.7,.5c-.6,.3,-1.2,.7,-1.7,1.4c-.6,.7,-1.1,1.6,-1.5,2.6c-.6,1.4,-.9,2.6,-.9,3.8c0,.9,.3,1.6,.7,2.3c.4,.6,1.1,1,2,1c.5,0,1.1,-.2,1.6,-.4c.5,-.3,1.1,-.8,1.6,-1.4c.7,-.8,1.3,-1.9,1.8,-3.2c.5,-1.2,.8,-2.4,.8,-3.5c0,-.8,-.3,-1.5,-.7,-2.1c-.4,-.7,-1.1,-1,-2,-1Z" class="g2_78"/>
<path fill-rule="evenodd" d="M380.7,804.9l.7,-.3h.1v2.5c0,.2,0,.3,0,.3c0,.1,.1,.1,.1,.1c0,.1,.1,.1,.3,.1v.1h-1.2v-.1c.2,0,.3,0,.3,-.1q.1,0,.1,0c0,-.1,0,-.2,0,-.4v-1.6c0,-.2,0,-.4,0,-.4q0,-.1,-.1,-.1q0,-.1,-.1,-.1c0,0,-.1,0,-.2,.1Z" class="g1_78"/>
<path d="M380.7,804.9l.7,-.3h.1v2.5c0,.2,0,.3,0,.3c0,.1,.1,.1,.1,.1c0,.1,.1,.1,.3,.1v.1h-1.2v-.1c.2,0,.3,0,.3,-.1q.1,0,.1,0c0,-.1,0,-.2,0,-.4v-1.6c0,-.2,0,-.4,0,-.4q0,-.1,-.1,-.1q0,-.1,-.1,-.1c0,0,-.1,0,-.2,.1v-.1Z" class="g2_78"/>
<path fill-rule="evenodd" d="M341.9,724.5l-2.3,1.8c.3,0,.7,-.1,1,-.1c.3,0,.6,0,.8,.1c.3,0,.8,.1,1.6,.3c.9,.2,1.6,.3,2.2,.3c.7,0,1.2,-.1,1.7,-.3c.5,-.3,.9,-.7,1.4,-1.2l.3,.1c-.7,.9,-1.4,1.6,-2.2,2c-.9,.4,-1.7,.5,-2.7,.5c-.5,0,-1.2,-.1,-2.1,-.3c-1.4,-.3,-2.4,-.4,-2.9,-.4c-.2,0,-.4,0,-.5,0c-.1,.1,-.3,.1,-.6,.2l-.2,-.2l3.7,-2.9c-1.2,-.2,-2,-.7,-2.6,-1.5c-.6,-.8,-.9,-1.7,-.9,-2.7c0,-1.3,.4,-2.6,1.2,-4c.8,-1.4,1.8,-2.5,3,-3.3c1.3,-.8,2.5,-1.1,3.7,-1.1c.8,0,1.6,.1,2.2,.5c.6,.4,1.1,.9,1.5,1.6c.3,.6,.5,1.3,.5,2.1c0,1.3,-.4,2.7,-1.2,4.1c-.8,1.4,-1.8,2.5,-2.9,3.2c-1.2,.8,-2.4,1.1,-3.7,1.2m3.3,-12.2c-.6,0,-1.1,.2,-1.7,.5c-.6,.3,-1.1,.8,-1.7,1.4c-.6,.7,-1.1,1.6,-1.5,2.7c-.6,1.3,-.8,2.6,-.8,3.8c0,.8,.2,1.5,.6,2.2c.5,.7,1.1,1,2,1c.6,0,1.1,-.2,1.6,-.4c.5,-.3,1.1,-.7,1.6,-1.4c.8,-.8,1.4,-1.9,1.8,-3.1c.5,-1.3,.8,-2.5,.8,-3.6c0,-.8,-.2,-1.5,-.7,-2.1c-.4,-.7,-1.1,-1,-2,-1Z" class="g1_78"/>
<path d="M341.9,724.5l-2.3,1.8c.3,0,.7,-.1,1,-.1c.3,0,.6,0,.8,.1c.3,0,.8,.1,1.6,.3c.9,.2,1.6,.3,2.2,.3c.7,0,1.2,-.1,1.7,-.3c.5,-.3,.9,-.7,1.4,-1.2l.3,.1c-.7,.9,-1.4,1.6,-2.2,2c-.9,.4,-1.7,.5,-2.7,.5c-.5,0,-1.2,-.1,-2.1,-.3c-1.4,-.3,-2.4,-.4,-2.9,-.4c-.2,0,-.4,0,-.5,0c-.1,.1,-.3,.1,-.6,.2l-.2,-.2l3.7,-2.9c-1.2,-.2,-2,-.7,-2.6,-1.5c-.6,-.8,-.9,-1.7,-.9,-2.7c0,-1.3,.4,-2.6,1.2,-4c.8,-1.4,1.8,-2.5,3,-3.3c1.3,-.8,2.5,-1.1,3.7,-1.1c.8,0,1.6,.1,2.2,.5c.6,.4,1.1,.9,1.5,1.6c.3,.6,.5,1.3,.5,2.1c0,1.3,-.4,2.7,-1.2,4.1c-.8,1.4,-1.8,2.5,-2.9,3.2c-1.2,.8,-2.4,1.1,-3.7,1.2Zm3.3,-12.2c-.6,0,-1.1,.2,-1.7,.5c-.6,.3,-1.1,.8,-1.7,1.4c-.6,.7,-1.1,1.6,-1.5,2.7c-.6,1.3,-.8,2.6,-.8,3.8c0,.8,.2,1.5,.6,2.2c.5,.7,1.1,1,2,1c.6,0,1.1,-.2,1.6,-.4c.5,-.3,1.1,-.7,1.6,-1.4c.8,-.8,1.4,-1.9,1.8,-3.1c.5,-1.3,.8,-2.5,.8,-3.6c0,-.8,-.2,-1.5,-.7,-2.1c-.4,-.7,-1.1,-1,-2,-1Z" class="g2_78"/>
<path d="M317.2,805.3c-4.3,-6.9,-7.7,-6.4,-12.6,-4.6m73.1,-20.8c-4.4,-6.9,-7.7,-6.4,-12.6,-4.6" class="g3_78"/>
<path fill-rule="evenodd" d="M311,803.1c-.4,-.4,-1.1,-.4,-1.5,0c-.4,.5,-.4,1.1,0,1.5c.5,.4,1.1,.4,1.5,0c.4,-.4,.4,-1.1,0,-1.5Z" class="g1_78"/>
<path d="M311,803.1c-.4,-.4,-1.1,-.4,-1.5,0c-.4,.5,-.4,1.1,0,1.5c.5,.4,1.1,.4,1.5,0c.4,-.4,.4,-1.1,0,-1.5Z" class="g2_78"/>
<path fill-rule="evenodd" d="M371.5,777.7c-.5,-.4,-1.1,-.4,-1.5,0c-.4,.5,-.4,1.1,0,1.5c.4,.4,1.1,.4,1.5,0c.4,-.4,.4,-1.1,0,-1.5Z" class="g1_78"/>
<path d="M371.5,777.7c-.5,-.4,-1.1,-.4,-1.5,0c-.4,.5,-.4,1.1,0,1.5c.4,.4,1.1,.4,1.5,0c.4,-.4,.4,-1.1,0,-1.5Z" class="g2_78"/>
<path fill-rule="evenodd" d="M234,783.7l-1.2,4c.5,-.9,1,-1.7,1.3,-2.1c.6,-.8,1.2,-1.3,1.7,-1.6c.3,-.2,.6,-.3,1,-.3c.3,0,.5,.1,.7,.3c.2,.2,.3,.4,.3,.7c0,.3,0,.7,-.2,1.1l-.6,2.3c1,-1.8,1.9,-3.1,2.8,-3.8c.4,-.4,.9,-.6,1.4,-.6c.3,0,.5,.1,.7,.3c.1,.1,.2,.4,.2,.8c0,.4,0,.7,-.1,1.1l-1,3.5c-.2,.8,-.3,1.2,-.3,1.3q0,.1,0,.2q.1,0,.2,0c0,0,.1,0,.3,-.1c.3,-.3,.7,-.6,1,-1.1l.3,.2c-.2,.3,-.5,.6,-.8,1c-.4,.4,-.7,.7,-1,.9c-.3,.1,-.5,.2,-.8,.2c-.2,0,-.3,-.1,-.5,-.2c-.1,-.2,-.2,-.3,-.2,-.6c0,-.2,.1,-.8,.4,-1.7l.8,-2.9c.2,-.6,.3,-1,.3,-1.1c0,-.1,0,-.2,0,-.3c0,-.1,0,-.3,-.1,-.3c-.1,-.1,-.1,-.2,-.2,-.2c-.3,0,-.5,.2,-.8,.4c-.8,.8,-1.6,1.8,-2.3,3.2c-.5,.9,-.9,2.1,-1.4,3.5h-1.3l1.5,-5.4c.2,-.6,.3,-1,.3,-1.2c0,-.2,-.1,-.3,-.1,-.4c-.1,-.1,-.2,-.1,-.3,-.1c-.2,0,-.4,.1,-.6,.2c-.4,.3,-.8,.8,-1.4,1.5c-.5,.8,-1,1.5,-1.3,2.2c-.1,.3,-.5,1.4,-1.1,3.2h-1.3L232,786l.2,-.8c0,-.1,.1,-.2,.1,-.2c0,-.2,-.1,-.3,-.2,-.4c-.1,-.1,-.3,-.1,-.5,-.1c-.1,0,-.3,0,-.6,.1l-.1,-.4Z" class="g1_78"/>
<path d="M234,783.7l-1.2,4c.5,-.9,1,-1.7,1.3,-2.1c.6,-.8,1.2,-1.3,1.7,-1.6c.3,-.2,.6,-.3,1,-.3c.3,0,.5,.1,.7,.3c.2,.2,.3,.4,.3,.7c0,.3,0,.7,-.2,1.1l-.6,2.3c1,-1.8,1.9,-3.1,2.8,-3.8c.4,-.4,.9,-.6,1.4,-.6c.3,0,.5,.1,.7,.3c.1,.1,.2,.4,.2,.8c0,.4,0,.7,-.1,1.1l-1,3.5c-.2,.8,-.3,1.2,-.3,1.3q0,.1,0,.2q.1,0,.2,0c0,0,.1,0,.3,-.1c.3,-.3,.7,-.6,1,-1.1l.3,.2c-.2,.3,-.5,.6,-.8,1c-.4,.4,-.7,.7,-1,.9c-.3,.1,-.5,.2,-.8,.2c-.2,0,-.3,-.1,-.5,-.2c-.1,-.2,-.2,-.3,-.2,-.6c0,-.2,.1,-.8,.4,-1.7l.8,-2.9c.2,-.6,.3,-1,.3,-1.1c0,-.1,0,-.2,0,-.3c0,-.1,0,-.3,-.1,-.3c-.1,-.1,-.1,-.2,-.2,-.2c-.3,0,-.5,.2,-.8,.4c-.8,.8,-1.6,1.8,-2.3,3.2c-.5,.9,-.9,2.1,-1.4,3.5h-1.3l1.5,-5.4c.2,-.6,.3,-1,.3,-1.2c0,-.2,-.1,-.3,-.1,-.4c-.1,-.1,-.2,-.1,-.3,-.1c-.2,0,-.4,.1,-.6,.2c-.4,.3,-.8,.8,-1.4,1.5c-.5,.8,-1,1.5,-1.3,2.2c-.1,.3,-.5,1.4,-1.1,3.2h-1.3L232,786l.2,-.8c0,-.1,.1,-.2,.1,-.2c0,-.2,-.1,-.3,-.2,-.4c-.1,-.1,-.3,-.1,-.5,-.1c-.1,0,-.3,0,-.6,.1l-.1,-.4l3.1,-.5Z" class="g2_78"/>
<path fill-rule="evenodd" d="M247.3,841.6l-1.2,4.1c1.1,-1.7,2,-2.8,2.6,-3.3c.6,-.5,1.2,-.8,1.7,-.8c.3,0,.5,.1,.7,.3c.2,.2,.3,.5,.3,.8c0,.3,-.1,.8,-.2,1.4l-1.1,3.8c-.1,.4,-.2,.7,-.2,.8q0,.1,.1,.2c0,.1,.1,.1,.1,.1c.1,0,.2,-.1,.3,-.1c.3,-.3,.6,-.7,1,-1.2l.3,.2c-.6,.8,-1.1,1.4,-1.6,1.7c-.3,.2,-.6,.3,-.9,.3c-.2,0,-.4,0,-.5,-.2c-.2,-.1,-.2,-.3,-.2,-.5c0,-.3,.1,-.8,.3,-1.5l1,-3.6c.1,-.4,.2,-.8,.2,-1c0,-.1,0,-.2,-.1,-.3c-.1,-.1,-.2,-.1,-.3,-.1c-.2,0,-.4,0,-.6,.2c-.4,.3,-.9,.7,-1.4,1.3c-.5,.6,-1,1.4,-1.5,2.4c-.3,.5,-.5,1,-.7,1.6l-.4,1.5h-1.4l1.6,-5.6c.2,-.7,.3,-1.1,.3,-1.2c0,-.1,0,-.2,-.1,-.3c-.1,-.1,-.3,-.2,-.4,-.2c-.1,0,-.2,0,-.4,0l-.3,.1l-.1,-.3Z" class="g1_78"/>
<path d="M247.3,841.6l-1.2,4.1c1.1,-1.7,2,-2.8,2.6,-3.3c.6,-.5,1.2,-.8,1.7,-.8c.3,0,.5,.1,.7,.3c.2,.2,.3,.5,.3,.8c0,.3,-.1,.8,-.2,1.4l-1.1,3.8c-.1,.4,-.2,.7,-.2,.8q0,.1,.1,.2c0,.1,.1,.1,.1,.1c.1,0,.2,-.1,.3,-.1c.3,-.3,.6,-.7,1,-1.2l.3,.2c-.6,.8,-1.1,1.4,-1.6,1.7c-.3,.2,-.6,.3,-.9,.3c-.2,0,-.4,0,-.5,-.2c-.2,-.1,-.2,-.3,-.2,-.5c0,-.3,.1,-.8,.3,-1.5l1,-3.6c.1,-.4,.2,-.8,.2,-1c0,-.1,0,-.2,-.1,-.3c-.1,-.1,-.2,-.1,-.3,-.1c-.2,0,-.4,0,-.6,.2c-.4,.3,-.9,.7,-1.4,1.3c-.5,.6,-1,1.4,-1.5,2.4c-.3,.5,-.5,1,-.7,1.6l-.4,1.5h-1.4l1.6,-5.6c.2,-.7,.3,-1.1,.3,-1.2c0,-.1,0,-.2,-.1,-.3c-.1,-.1,-.3,-.2,-.4,-.2c-.1,0,-.2,0,-.4,0l-.3,.1l-.1,-.3l3.1,-.6Z" class="g2_78"/>
<path d="M233.4,778.2l152.4,-65" class="g3_78"/>
<path d="M368.9,783.3L346.7,731.1m-38.2,77.3L286.2,756.1" class="g4_78"/>
<path d="M238.8,839.1L423.3,760.4" class="g3_78"/>
<path fill-rule="evenodd" d="M315.7,835.4h7.4v-9.1h-7.4v9.1Z" class="g5_78"/>
<path fill-rule="evenodd" d="M379.9,809.4h5v-7.1h-5v7.1Z" class="g5_78"/>
<path d="M404.7,1060.7h12.2v12.1H404.7v-12.1Zm0,-12.1h12.2v12.1H404.7v-12.1Zm0,-12.1h12.2v12.1H404.7v-12.1Zm0,-12.1h12.2v12.1H404.7v-12.1Zm0,-12.2h12.2v12.2H404.7v-12.2Zm0,-12.1h12.2v12.1H404.7v-12.1Zm0,-12.1h12.2v12.1H404.7V988Zm0,-12.1h12.2V988H404.7V975.9Zm0,-12.2h12.2v12.2H404.7V963.7Zm0,-12.1h12.2v12.1H404.7V951.6Zm0,-12.1h12.2v12.1H404.7V939.5Zm-12.1,121.2h12.1v12.1H392.6v-12.1Zm0,-12.1h12.1v12.1H392.6v-12.1Zm0,-12.1h12.1v12.1H392.6v-12.1Zm0,-12.1h12.1v12.1H392.6v-12.1Zm0,-12.2h12.1v12.2H392.6v-12.2Zm0,-12.1h12.1v12.1H392.6v-12.1Zm0,-12.1h12.1v12.1H392.6V988Zm0,-12.1h12.1V988H392.6V975.9Zm0,-12.2h12.1v12.2H392.6V963.7Zm0,-12.1h12.1v12.1H392.6V951.6Zm0,-12.1h12.1v12.1H392.6V939.5Zm-12.1,121.2h12.1v12.1H380.5v-12.1Zm0,-12.1h12.1v12.1H380.5v-12.1Zm0,-12.1h12.1v12.1H380.5v-12.1Zm0,-12.1h12.1v12.1H380.5v-12.1Zm0,-12.2h12.1v12.2H380.5v-12.2Zm0,-12.1h12.1v12.1H380.5v-12.1Zm0,-12.1h12.1v12.1H380.5V988Zm0,-12.1h12.1V988H380.5V975.9Zm0,-12.2h12.1v12.2H380.5V963.7Zm0,-12.1h12.1v12.1H380.5V951.6Zm0,-12.1h12.1v12.1H380.5V939.5Zm-12.1,121.2h12.1v12.1H368.4v-12.1Zm0,-12.1h12.1v12.1H368.4v-12.1Zm0,-12.1h12.1v12.1H368.4v-12.1Zm0,-12.1h12.1v12.1H368.4v-12.1Zm0,-12.2h12.1v12.2H368.4v-12.2Zm0,-12.1h12.1v12.1H368.4v-12.1Zm0,-12.1h12.1v12.1H368.4V988Zm0,-12.1h12.1V988H368.4V975.9Zm0,-12.2h12.1v12.2H368.4V963.7Zm0,-12.1h12.1v12.1H368.4V951.6Zm0,-12.1h12.1v12.1H368.4V939.5Zm-12.2,121.2h12.2v12.1H356.2v-12.1Zm0,-12.1h12.2v12.1H356.2v-12.1Zm0,-12.1h12.2v12.1H356.2v-12.1Zm0,-12.1h12.2v12.1H356.2v-12.1Zm0,-12.2h12.2v12.2H356.2v-12.2Zm0,-12.1h12.2v12.1H356.2v-12.1Zm0,-12.1h12.2v12.1H356.2V988Zm0,-12.1h12.2V988H356.2V975.9Zm0,-12.2h12.2v12.2H356.2V963.7Zm0,-12.1h12.2v12.1H356.2V951.6Zm0,-12.1h12.2v12.1H356.2V939.5Zm-12.1,121.2h12.1v12.1H344.1v-12.1Zm0,-12.1h12.1v12.1H344.1v-12.1Zm0,-12.1h12.1v12.1H344.1v-12.1Zm0,-12.1h12.1v12.1H344.1v-12.1Zm0,-12.2h12.1v12.2H344.1v-12.2Zm0,-12.1h12.1v12.1H344.1v-12.1Zm0,-12.1h12.1v12.1H344.1V988Zm0,-12.1h12.1V988H344.1V975.9Zm0,-12.2h12.1v12.2H344.1V963.7Zm0,-12.1h12.1v12.1H344.1V951.6Zm0,-12.1h12.1v12.1H344.1V939.5ZM332,1060.7h12.1v12.1H332v-12.1Zm0,-12.1h12.1v12.1H332v-12.1Zm0,-12.1h12.1v12.1H332v-12.1Zm0,-12.1h12.1v12.1H332v-12.1Zm0,-12.2h12.1v12.2H332v-12.2Zm0,-12.1h12.1v12.1H332v-12.1ZM332,988h12.1v12.1H332V988Zm0,-12.1h12.1V988H332V975.9Zm0,-12.2h12.1v12.2H332V963.7Zm0,-12.1h12.1v12.1H332V951.6Zm0,-12.1h12.1v12.1H332V939.5Zm-12.1,121.2H332v12.1H319.9v-12.1Zm0,-12.1H332v12.1H319.9v-12.1Zm0,-12.1H332v12.1H319.9v-12.1Zm0,-12.1H332v12.1H319.9v-12.1Zm0,-12.2H332v12.2H319.9v-12.2Zm0,-12.1H332v12.1H319.9v-12.1Zm0,-12.1H332v12.1H319.9V988Zm0,-12.1H332V988H319.9V975.9Zm0,-12.2H332v12.2H319.9V963.7Zm0,-12.1H332v12.1H319.9V951.6Zm0,-12.1H332v12.1H319.9V939.5Zm-12.1,121.2h12.1v12.1H307.8v-12.1Zm0,-12.1h12.1v12.1H307.8v-12.1Zm0,-12.1h12.1v12.1H307.8v-12.1Zm0,-12.1h12.1v12.1H307.8v-12.1Zm0,-12.2h12.1v12.2H307.8v-12.2Zm0,-12.1h12.1v12.1H307.8v-12.1Zm0,-12.1h12.1v12.1H307.8V988Zm0,-12.1h12.1V988H307.8V975.9Zm0,-12.2h12.1v12.2H307.8V963.7Zm0,-12.1h12.1v12.1H307.8V951.6Zm0,-12.1h12.1v12.1H307.8V939.5Zm-12.2,121.2h12.2v12.1H295.6v-12.1Zm0,-12.1h12.2v12.1H295.6v-12.1Zm0,-12.1h12.2v12.1H295.6v-12.1Zm0,-12.1h12.2v12.1H295.6v-12.1Zm0,-12.2h12.2v12.2H295.6v-12.2Zm0,-12.1h12.2v12.1H295.6v-12.1Zm0,-12.1h12.2v12.1H295.6V988Zm0,-12.1h12.2V988H295.6V975.9Zm0,-12.2h12.2v12.2H295.6V963.7Zm0,-12.1h12.2v12.1H295.6V951.6Zm0,-12.1h12.2v12.1H295.6V939.5Zm-12.1,121.2h12.1v12.1H283.5v-12.1Zm0,-12.1h12.1v12.1H283.5v-12.1Zm0,-12.1h12.1v12.1H283.5v-12.1Zm0,-12.1h12.1v12.1H283.5v-12.1Zm0,-12.2h12.1v12.2H283.5v-12.2Zm0,-12.1h12.1v12.1H283.5v-12.1Zm0,-12.1h12.1v12.1H283.5V988Zm0,-12.1h12.1V988H283.5V975.9Zm0,-12.2h12.1v12.2H283.5V963.7Zm0,-12.1h12.1v12.1H283.5V951.6Zm0,-12.1h12.1v12.1H283.5V939.5Zm-12.1,121.2h12.1v12.1H271.4v-12.1Zm0,-12.1h12.1v12.1H271.4v-12.1Zm0,-12.1h12.1v12.1H271.4v-12.1Zm0,-12.1h12.1v12.1H271.4v-12.1Zm0,-12.2h12.1v12.2H271.4v-12.2Zm0,-12.1h12.1v12.1H271.4v-12.1Zm0,-12.1h12.1v12.1H271.4V988Zm0,-12.1h12.1V988H271.4V975.9Zm0,-12.2h12.1v12.2H271.4V963.7Zm0,-12.1h12.1v12.1H271.4V951.6Zm0,-12.1h12.1v12.1H271.4V939.5Zm-12.1,121.2h12.1v12.1H259.3v-12.1Zm0,-12.1h12.1v12.1H259.3v-12.1Zm0,-12.1h12.1v12.1H259.3v-12.1Zm0,-12.1h12.1v12.1H259.3v-12.1Zm0,-12.2h12.1v12.2H259.3v-12.2Zm0,-12.1h12.1v12.1H259.3v-12.1Zm0,-12.1h12.1v12.1H259.3V988Zm0,-12.1h12.1V988H259.3V975.9Zm0,-12.2h12.1v12.2H259.3V963.7Zm0,-12.1h12.1v12.1H259.3V951.6Zm0,-12.1h12.1v12.1H259.3V939.5Zm-12.1,121.2h12.1v12.1H247.2v-12.1Zm0,-12.1h12.1v12.1H247.2v-12.1Zm0,-12.1h12.1v12.1H247.2v-12.1Zm0,-12.1h12.1v12.1H247.2v-12.1Zm0,-12.2h12.1v12.2H247.2v-12.2Zm0,-12.1h12.1v12.1H247.2v-12.1Zm0,-12.1h12.1v12.1H247.2V988Zm0,-12.1h12.1V988H247.2V975.9Zm0,-12.2h12.1v12.2H247.2V963.7Zm0,-12.1h12.1v12.1H247.2V951.6Zm0,-12.1h12.1v12.1H247.2V939.5ZM235,1060.7h12.2v12.1H235v-12.1Zm0,-12.1h12.2v12.1H235v-12.1Zm0,-12.1h12.2v12.1H235v-12.1Zm0,-12.1h12.2v12.1H235v-12.1Zm0,-12.2h12.2v12.2H235v-12.2Zm0,-12.1h12.2v12.1H235v-12.1ZM235,988h12.2v12.1H235V988Zm0,-12.1h12.2V988H235V975.9Zm0,-12.2h12.2v12.2H235V963.7Zm0,-12.1h12.2v12.1H235V951.6Zm0,-12.1h12.2v12.1H235V939.5Z" class="g6_78"/>
<path fill-rule="evenodd" d="M247.3,963.6h72.5v36.5H247.3V963.6Z" class="g7_78"/>
<path d="M247.3,963.6h72.5v36.5H247.3V963.6Z" class="g3_78"/>
<path fill-rule="evenodd" d="M344.3,1024.2h36.5v36.4H344.3v-36.4Z" class="g7_78"/>
<path d="M344.3,1024.2h36.5v36.4H344.3v-36.4Z" class="g3_78"/>
<path d="M380.8,1006.6v65.6m-36.5,-64.8v65.7m-20.8,-12.5h91.9m-92.1,-36.4h91.8M236.8,1000.1H412M240.8,963.6H416M319.8,949.7v106.4M247.3,949v106.5" class="g4_78"/>
<path clip-path="url(#c0_78)" fill-rule="evenodd" d="M239.2,951.1l-2.2,7.5c-.2,.6,-.2,1,-.2,1.1c0,.1,0,.2,0,.2c.1,.1,.2,.2,.3,.2c.1,0,.3,0,.6,0c.8,0,1.5,0,2.2,-.2c.6,-.2,1.2,-.4,1.6,-.7c.6,-.5,1.1,-1.1,1.5,-1.9c.3,-.8,.5,-1.8,.5,-2.8c0,-1.2,-.3,-2,-.8,-2.6c-.6,-.6,-1.4,-.9,-2.5,-.9c-.2,0,-.6,.1,-1,.1m-2.6,-.3v-.3h3.3c1.3,0,2.4,.2,3,.5c.7,.3,1.2,.8,1.6,1.5c.4,.6,.6,1.4,.6,2.1c0,.7,-.1,1.3,-.4,2c-.2,.6,-.4,1.1,-.7,1.5c-.3,.3,-.8,.8,-1.3,1.2c-.6,.5,-1.3,.8,-2,1c-.7,.2,-1.5,.3,-2.6,.3h-4.2l.1,-.2c.3,-.1,.6,-.1,.7,-.1c.2,-.1,.4,-.3,.5,-.4c.1,-.2,.3,-.6,.5,-1.3l1.8,-6.1c.1,-.5,.2,-.8,.2,-1.1c0,-.2,-.1,-.3,-.2,-.5c-.2,-.1,-.4,-.1,-.8,-.1Z" class="g1_78"/>
<path fill-rule="evenodd" d="M333.6,950.7l-.8,3.3h-.2l-.1,-.8c0,-.3,0,-.6,-.1,-.8c-.1,-.3,-.3,-.5,-.4,-.6c-.2,-.2,-.4,-.3,-.7,-.4c-.3,-.1,-.6,-.2,-.9,-.2c-.9,0,-1.7,.3,-2.4,.7c-.8,.7,-1.5,1.5,-2,2.7c-.3,.9,-.5,1.9,-.5,2.8c0,1,.2,1.8,.8,2.4c.6,.6,1.3,.8,2.2,.8c.7,0,1.3,-.1,1.9,-.4c.5,-.3,1,-.8,1.5,-1.4h.3c-.5,.8,-1.1,1.5,-1.8,1.9c-.6,.4,-1.4,.6,-2.4,.6c-.8,0,-1.5,-.2,-2.2,-.5c-.6,-.4,-1.1,-.9,-1.4,-1.5c-.4,-.6,-.5,-1.3,-.5,-2c0,-1.1,.3,-2.2,.9,-3.2c.6,-1.1,1.4,-1.9,2.4,-2.5c1,-.6,2.1,-.9,3.1,-.9c.5,0,1.1,.1,1.7,.4c.2,.1,.4,.1,.6,.1c.1,0,.2,0,.3,-.1c.1,0,.2,-.2,.4,-.4Z" class="g1_78"/>
<path fill-rule="evenodd" d="M411.5,955.3c-.3,0,-.6,.2,-1,.5c-.5,.4,-1,1,-1.4,1.9c-.4,.8,-.6,1.5,-.6,2.2c0,.4,.1,.6,.3,.8c.2,.2,.4,.3,.6,.3c.5,0,1.1,-.4,1.8,-1.2c.8,-1,1.2,-2.1,1.2,-3.3c0,-.4,-.1,-.7,-.2,-.9c-.2,-.2,-.4,-.3,-.7,-.3m2.7,-.3l-1.5,5l-.2,.7q0,.1,0,.2c0,0,.1,.1,.1,.2c0,0,.1,0,.1,0c.1,0,.2,0,.3,-.1c.2,-.1,.5,-.4,.8,-.9l.2,.2c-.3,.5,-.7,.9,-1,1.2c-.4,.2,-.7,.4,-1,.4c-.2,0,-.4,-.1,-.5,-.2c-.1,-.1,-.2,-.2,-.2,-.4c0,-.3,.1,-.6,.2,-1l.1,-.6c-.6,.9,-1.2,1.5,-1.8,1.8c-.3,.3,-.7,.4,-1.1,.4c-.4,0,-.7,-.2,-1,-.5c-.2,-.3,-.3,-.7,-.3,-1.2c0,-.8,.2,-1.6,.7,-2.5c.4,-.9,1,-1.6,1.8,-2.1c.5,-.4,1.1,-.6,1.6,-.6c.3,0,.6,0,.8,.2c.2,.2,.3,.4,.4,.8l.3,-.9Z" class="g1_78"/>
<path fill-rule="evenodd" d="M407.9,996.3c.5,.3,.9,.4,1.3,.4c.4,0,.9,-.1,1.4,-.4c.4,-.4,.8,-.9,1.2,-1.7c.3,-.7,.5,-1.5,.5,-2.3c0,-.4,-.1,-.8,-.3,-1.1c-.3,-.2,-.5,-.3,-.8,-.3c-.5,0,-1,.1,-1.4,.5c-.4,.4,-.8,.9,-.9,1.6Zm2.9,-10l-1.5,5.1c.5,-.4,.9,-.8,1.3,-1c.3,-.2,.7,-.2,1.1,-.2c.5,0,1,.1,1.3,.5c.4,.4,.5,.9,.5,1.5c0,.8,-.2,1.6,-.7,2.4c-.4,.8,-1,1.4,-1.7,1.8c-.7,.5,-1.3,.7,-2,.7c-.8,0,-1.5,-.3,-2.3,-.9l2.2,-7.8c.2,-.6,.3,-.9,.3,-1c0,-.2,0,-.3,-.1,-.3c-.1,-.1,-.3,-.2,-.5,-.2c-.1,0,-.3,.1,-.5,.1v-.3Z" class="g1_78"/>
<path fill-rule="evenodd" d="M242.6,1006.5l-3,4h2.6Zm1.5,-2.5l-.8,8.4c-.1,.4,-.1,.7,-.1,.8c0,.2,.1,.4,.1,.5c.1,.1,.3,.2,.4,.3c.2,.1,.5,.1,.8,.1v.3h-4l.1,-.3h.1c.3,0,.6,-.1,.8,-.2c.2,-.1,.3,-.3,.4,-.5c0,-.1,.1,-.5,.1,-1.1l.1,-1.3h-2.9l-1,1.4c-.2,.3,-.4,.6,-.4,.7c-.1,.1,-.1,.3,-.1,.4c0,.2,0,.3,.2,.4c.1,.1,.3,.2,.6,.2l-.1,.3h-3l.1,-.3c.4,0,.7,-.1,1,-.4c.3,-.2,.7,-.7,1.2,-1.5l6.1,-8.2Z" class="g1_78"/>
<path fill-rule="evenodd" d="M324.6,1012.9c.5,0,.9,.1,1.2,.1c.8,0,1.5,-.3,2.1,-.7c.6,-.5,.9,-1.1,.9,-1.9c0,-.6,-.2,-1.1,-.6,-1.5c-.4,-.3,-1,-.5,-1.8,-.5c-.1,0,-.3,0,-.6,0Zm1.4,-5c.3,0,.6,0,.7,0c1.1,0,1.8,-.2,2.3,-.7c.5,-.4,.8,-1,.8,-1.7c0,-.5,-.2,-.9,-.5,-1.2c-.3,-.3,-.8,-.4,-1.5,-.4c-.1,0,-.4,0,-.6,.1Zm-1.5,-4.2l.1,-.3h3.6c.6,0,1.2,.1,1.6,.3c.5,.2,.9,.4,1.1,.8c.2,.3,.4,.7,.4,1.1c0,.5,-.2,1.1,-.7,1.5c-.4,.5,-1.1,.8,-2,1.1c.6,.2,1,.5,1.3,.9c.3,.4,.5,.8,.5,1.2c0,.5,-.2,1,-.4,1.5c-.3,.4,-.6,.8,-1,1c-.4,.3,-.9,.5,-1.5,.6c-.4,.1,-1,.1,-1.9,.1h-3.7l.1,-.3c.4,0,.6,0,.8,-.1c.2,-.1,.3,-.2,.4,-.3c.1,-.2,.3,-.6,.5,-1.3l1.8,-6.1c.2,-.5,.2,-.9,.2,-1.1c0,-.2,0,-.3,-.2,-.4c-.1,-.2,-.4,-.2,-.8,-.2c0,0,-.1,0,-.2,0Z" class="g1_78"/>
<path fill-rule="evenodd" d="M339,1009.4c-.4,0,-.9,.1,-1.4,.4c-.5,.2,-1,.6,-1.4,1.2c-.5,.5,-.9,1.3,-1.3,2.2c-.4,1.1,-.7,2.1,-.7,3.1c0,.7,.2,1.4,.6,1.9c.3,.6,.9,.8,1.7,.8c.4,0,.8,-.1,1.3,-.3c.4,-.2,.9,-.6,1.3,-1.2c.6,-.6,1.1,-1.5,1.5,-2.6c.4,-1,.6,-2,.6,-2.9c0,-.7,-.1,-1.3,-.5,-1.8c-.4,-.5,-.9,-.8,-1.7,-.8m-2.8,10.1l-1.9,1.6c.3,-.1,.6,-.1,.9,-.1c.2,0,.4,0,.7,0c.2,.1,.6,.1,1.3,.3c.7,.2,1.3,.2,1.8,.2c.6,0,1.1,-.1,1.4,-.2c.4,-.2,.8,-.6,1.2,-1l.2,.1c-.5,.7,-1.1,1.3,-1.8,1.6c-.7,.3,-1.4,.5,-2.2,.5c-.5,0,-1,-.1,-1.8,-.3c-1.1,-.2,-1.9,-.3,-2.4,-.3c-.2,0,-.3,0,-.4,0c-.1,0,-.3,.1,-.5,.2l-.2,-.2l3.1,-2.4c-1,-.2,-1.7,-.6,-2.2,-1.3c-.5,-.7,-.7,-1.4,-.7,-2.2c0,-1.1,.3,-2.2,1,-3.4c.6,-1.2,1.5,-2.1,2.5,-2.7c1,-.7,2,-1,3,-1c.8,0,1.4,.2,1.9,.5c.5,.3,.9,.7,1.2,1.3c.3,.5,.4,1.1,.4,1.7c0,1.2,-.3,2.3,-.9,3.5c-.7,1.2,-1.5,2.1,-2.5,2.7c-.9,.6,-2,.9,-3.1,.9Z" class="g1_78"/>
<path fill-rule="evenodd" d="M388.1,1014.9c.5,.1,1,.2,1.3,.2c.6,0,1.1,-.1,1.5,-.3c.5,-.2,.8,-.6,1.1,-1c.2,-.5,.3,-.9,.3,-1.4c0,-.5,-.1,-.9,-.4,-1.2c-.3,-.3,-.8,-.5,-1.4,-.5c-.4,0,-.8,.1,-1.3,.2Zm-1.4,-4.7h4c1,0,1.8,.2,2.3,.7c.5,.4,.8,1,.8,1.6c0,.5,-.2,1,-.5,1.5c-.3,.5,-.8,.9,-1.5,1.2c-.6,.3,-1.3,.4,-2.1,.4c-.4,0,-1,-.1,-1.8,-.2l-.8,2.7c-.2,.7,-.2,1.1,-.2,1.3c0,.2,0,.3,.2,.4c.1,.1,.4,.2,.9,.2l-.1,.3h-4l.1,-.3c.5,0,.9,-.1,1.1,-.2c.2,-.2,.4,-.7,.7,-1.6l1.6,-5.7c.2,-.7,.3,-1.2,.3,-1.4c0,-.2,0,-.3,-.2,-.4c-.1,-.1,-.4,-.2,-.9,-.2Z" class="g1_78"/>
<path fill-rule="evenodd" d="M334.1,1063.7l.9,8.2l5.9,-8.2h2.5v.3c-.6,0,-.9,.1,-1,.1c-.1,.1,-.3,.2,-.4,.4c-.2,.2,-.3,.6,-.5,1.1l-1.9,6.4c-.1,.4,-.1,.7,-.1,.9c0,.2,.1,.4,.2,.5c.2,.1,.5,.2,.9,.2h.2l-.1,.2h-4.3l.1,-.2h.2c.4,0,.7,-.1,.9,-.2c.1,-.1,.3,-.2,.4,-.4c.1,-.3,.3,-.8,.5,-1.5l1.7,-5.9l-5.9,8.2H334l-1,-8.2l-1.8,6.3c-.1,.5,-.2,.9,-.2,1.1c0,.1,.1,.3,.2,.4c.1,.1,.4,.1,1,.2l-.1,.2h-3.3v-.2h.2c.5,0,.9,-.2,1.1,-.4c.2,-.2,.3,-.6,.5,-1.2l2.2,-7.5c-.2,-.2,-.3,-.3,-.5,-.4c-.1,0,-.4,-.1,-.8,-.1l.1,-.3Z" class="g1_78"/>
<path fill-rule="evenodd" d="M387,1064.8l3.1,7.9l1.7,-5.9c.2,-.5,.3,-.9,.3,-1.2c0,-.1,-.1,-.3,-.2,-.4c-.2,-.1,-.4,-.1,-.8,-.1c0,0,-.1,0,-.2,0l.1,-.3h3.3l-.1,.3c-.3,-.1,-.6,0,-.8,.1c-.2,.1,-.4,.2,-.5,.4c-.1,.2,-.3,.6,-.5,1.2l-2.3,8.3h-.3l-3.4,-8.5l-1.8,6.3c-.1,.5,-.2,.8,-.2,1.1c0,.2,.1,.3,.2,.4c.1,.1,.4,.2,.9,.2l-.1,.3h-3.2l.1,-.3c.4,0,.7,0,.8,-.1c.2,-.1,.4,-.2,.5,-.3c.1,-.3,.3,-.7,.5,-1.3l2,-7c-.2,-.3,-.4,-.5,-.7,-.7c-.2,-.1,-.5,-.1,-1,-.1l.1,-.3Z" class="g1_78"/>
<path fill-rule="evenodd" d="M242.8,1054.7c-.6,.6,-1.1,1.1,-1.6,1.4c-.5,.2,-1.1,.4,-1.7,.4c-.7,0,-1.2,-.2,-1.6,-.6c-.4,-.4,-.6,-.9,-.6,-1.6c0,-.8,.2,-1.5,.6,-2.3c.4,-.7,1,-1.3,1.7,-1.8c.7,-.4,1.5,-.6,2.1,-.6c.6,0,1,.1,1.3,.3c.2,.2,.4,.5,.4,.8c0,.3,-.1,.6,-.3,.8c-.2,.2,-.3,.3,-.5,.3c-.2,0,-.3,-.1,-.4,-.2c-.1,-.1,-.2,-.2,-.2,-.3c0,-.1,0,-.2,.1,-.3c0,-.1,.1,-.2,.2,-.3c.1,-.1,.2,-.2,.2,-.2q.1,-.1,.1,-.2c0,-.1,-.1,-.2,-.2,-.3c-.1,-.1,-.3,-.1,-.6,-.1c-.5,0,-1,.2,-1.4,.5c-.5,.4,-.9,.8,-1.3,1.5c-.4,.7,-.6,1.5,-.6,2.3c0,.5,.2,.9,.5,1.2c.2,.3,.6,.4,1.1,.4c.4,0,.8,-.1,1.2,-.3c.4,-.2,.8,-.5,1.2,-1Z" class="g1_78"/>
<path fill-rule="evenodd" d="M314.8,1052.1c0,-.3,-.1,-.5,-.2,-.7c-.2,-.2,-.5,-.3,-.7,-.3c-.7,0,-1.3,.5,-2,1.5c-.7,1.1,-1,2.1,-1,3c0,.4,.1,.7,.2,.9c.2,.2,.4,.3,.6,.3c.5,0,1.2,-.6,2,-1.7c.7,-1.1,1.1,-2.1,1.1,-3m2.8,-5.2l-2.6,8.8c-.1,.4,-.2,.7,-.2,.9c0,0,.1,.1,.1,.1c0,.1,.1,.1,.1,.1c.1,0,.2,0,.3,-.1c.1,-.1,.4,-.4,.8,-.9l.3,.2c-.4,.5,-.8,.9,-1.1,1.2c-.4,.3,-.7,.4,-1,.4c-.2,0,-.4,0,-.5,-.1c-.1,-.2,-.1,-.3,-.1,-.5c0,-.3,0,-.7,.2,-1.2l.3,-.9c-.7,1.1,-1.4,1.9,-2,2.3c-.4,.3,-.8,.4,-1.2,.4c-.3,0,-.7,-.1,-.9,-.5c-.3,-.3,-.5,-.8,-.5,-1.3c0,-.8,.3,-1.6,.7,-2.4c.5,-.8,1.1,-1.5,1.9,-2.1c.6,-.4,1.2,-.6,1.7,-.6c.3,0,.5,.1,.7,.2c.2,.1,.4,.3,.6,.5l.7,-2.6c.1,-.2,.1,-.3,.1,-.4c.1,-.2,.1,-.4,.1,-.5c0,-.1,0,-.2,-.1,-.3c-.1,-.1,-.2,-.1,-.4,-.1c-.1,0,-.3,0,-.6,0v-.2Z" class="g1_78"/>
<path d="M226.6,292.6c-10.4,1.8,-16.5,7.6,-18.3,17.3M343,293.3c-10.4,1.8,-16.5,6.5,-18.2,16.3" class="g8_78"/>
<path fill-rule="evenodd" d="M219.6,302.6c.8,.6,1,1.7,.5,2.5c-.6,.8,-1.7,1.1,-2.5,.5c-.8,-.5,-1.1,-1.6,-.5,-2.5c.5,-.8,1.6,-1,2.5,-.5Z" class="g1_78"/>
<path d="M219.6,302.6c.8,.6,1,1.7,.5,2.5c-.6,.8,-1.7,1.1,-2.5,.5c-.8,-.5,-1.1,-1.6,-.5,-2.5c.5,-.8,1.6,-1,2.5,-.5Z" class="g8_78"/>
<path fill-rule="evenodd" d="M336,303.3c.8,.6,1.1,1.7,.5,2.5c-.5,.9,-1.6,1.1,-2.5,.5c-.8,-.5,-1,-1.6,-.5,-2.4c.5,-.9,1.7,-1.1,2.5,-.6Z" class="g1_78"/>
<path d="M336,303.3c.8,.6,1.1,1.7,.5,2.5c-.5,.9,-1.6,1.1,-2.5,.5c-.8,-.5,-1,-1.6,-.5,-2.4c.5,-.9,1.7,-1.1,2.5,-.6Zm-150.6,5.9H398.2" class="g8_78"/>
<path d="M226.9,308.2V221m115.7,88V200" class="g9_78"/>
<path d="M186.3,227.6L401.1,190.8" class="g8_78"/>
<path fill-rule="evenodd" d="M241.6,274.2l-.8,2.3h-7.3v-.3c2.2,-1.9,3.7,-3.5,4.5,-4.8c.9,-1.2,1.3,-2.3,1.3,-3.3c0,-.8,-.2,-1.4,-.7,-1.9c-.5,-.5,-1,-.8,-1.7,-.8c-.6,0,-1.1,.2,-1.6,.6c-.5,.3,-.9,.8,-1.1,1.5h-.3c.1,-1.1,.5,-2,1.1,-2.6c.7,-.6,1.4,-.9,2.4,-.9c1,0,1.8,.4,2.5,1c.6,.6,1,1.4,1,2.3c0,.6,-.2,1.2,-.5,1.8c-.4,1,-1.1,2,-2.1,3.1c-1.5,1.6,-2.5,2.6,-2.8,3h3.1c.7,0,1.2,-.1,1.4,-.1c.3,-.1,.5,-.2,.7,-.3c.2,-.2,.4,-.4,.6,-.6Z" class="g1_78"/>
<path fill-rule="evenodd" d="M254.6,273.4c-.2,1.1,-.7,1.9,-1.3,2.5c-.7,.6,-1.4,.9,-2.2,.9c-.9,0,-1.7,-.4,-2.4,-1.2c-.7,-.8,-1.1,-1.9,-1.1,-3.2c0,-1.3,.4,-2.4,1.2,-3.2c.8,-.8,1.7,-1.2,2.8,-1.2c.8,0,1.4,.2,2,.7c.5,.4,.7,.8,.7,1.3c0,.2,0,.4,-.2,.6c-.1,.1,-.3,.2,-.6,.2c-.3,0,-.6,-.1,-.8,-.4c-.1,-.1,-.2,-.3,-.2,-.7c0,-.3,-.2,-.6,-.4,-.8c-.2,-.2,-.5,-.3,-.8,-.3c-.6,0,-1.1,.2,-1.5,.7c-.5,.6,-.7,1.4,-.7,2.3c0,1,.2,1.9,.7,2.6c.5,.8,1.1,1.2,2,1.2c.6,0,1.1,-.2,1.6,-.6c.3,-.3,.6,-.8,.9,-1.5Z" class="g1_78"/>
<path fill-rule="evenodd" d="M261.1,274.4l2.6,-6.1h2.8v.3c-.4,0,-.7,0,-.8,.1c-.2,.1,-.3,.2,-.4,.3c0,.1,-.1,.5,-.1,1.2v4.4c0,.6,0,.9,.1,1.1c.1,.1,.2,.3,.4,.4c.1,0,.4,.1,.8,.1v.3h-4v-.3c.5,0,.8,-.1,1,-.3c.1,-.2,.2,-.6,.2,-1.3v-5l-2.9,6.9h-.3l-3,-6.9v5c0,.6,0,.9,.1,1.1c.1,.1,.2,.3,.3,.4c.2,0,.5,.1,.9,.1v.3h-3.2v-.3c.5,0,.9,-.1,1,-.3c.2,-.2,.3,-.6,.3,-1.3v-4.4c0,-.6,-.1,-1,-.1,-1.1c-.1,-.2,-.2,-.3,-.4,-.4c-.1,0,-.4,-.1,-.8,-.1v-.3h2.9Z" class="g1_78"/>
<path fill-rule="evenodd" d="M356.9,274.2l-.8,2.3h-7.2v-.3c2.1,-1.9,3.6,-3.5,4.4,-4.8c.9,-1.2,1.3,-2.3,1.3,-3.3c0,-.8,-.2,-1.4,-.7,-1.9c-.5,-.5,-1,-.8,-1.7,-.8c-.6,0,-1.1,.2,-1.6,.6c-.5,.3,-.8,.8,-1.1,1.5h-.3c.2,-1.1,.5,-2,1.2,-2.6c.6,-.6,1.4,-.9,2.3,-.9c1,0,1.8,.4,2.5,1c.6,.6,1,1.4,1,2.3c0,.6,-.2,1.2,-.5,1.8c-.4,1,-1.1,2,-2.1,3.1c-1.5,1.6,-2.5,2.6,-2.8,3H354c.6,0,1.1,-.1,1.3,-.1c.3,-.1,.5,-.2,.7,-.3c.2,-.2,.4,-.4,.6,-.6Z" class="g1_78"/>
<path fill-rule="evenodd" d="M358.7,279.6v-.4c.6,-.2,1.1,-.5,1.4,-1c.4,-.4,.5,-.8,.5,-1.3c0,-.1,0,-.2,-.1,-.3q0,-.1,-.1,-.1c0,0,-.2,.1,-.4,.2c-.1,0,-.2,.1,-.4,.1c-.2,0,-.5,-.1,-.7,-.3c-.1,-.2,-.2,-.4,-.2,-.7c0,-.3,.1,-.6,.3,-.8c.2,-.2,.5,-.3,.8,-.3c.4,0,.8,.2,1.1,.5c.3,.4,.5,.8,.5,1.4c0,.6,-.2,1.2,-.7,1.7c-.4,.6,-1.1,1,-2,1.3Z" class="g1_78"/>
<path fill-rule="evenodd" d="M370.3,264.3l-.7,1.5h-3.7l-.8,1.7c1.6,.2,2.9,.8,3.8,1.7c.8,.9,1.2,1.8,1.2,2.9c0,.7,-.1,1.3,-.4,1.8c-.2,.6,-.6,1,-1,1.4c-.4,.4,-.8,.7,-1.3,.9c-.7,.4,-1.4,.5,-2.1,.5c-.7,0,-1.3,-.1,-1.6,-.3c-.3,-.3,-.5,-.6,-.5,-.9c0,-.1,.1,-.3,.2,-.4c.1,-.1,.3,-.2,.5,-.2c.2,0,.3,0,.4,.1c.1,0,.3,.1,.6,.3c.5,.3,.9,.5,1.4,.5c.7,0,1.3,-.3,1.9,-.8c.5,-.5,.8,-1.2,.8,-1.9c0,-.8,-.3,-1.5,-.8,-2.1c-.4,-.6,-1.1,-1.1,-1.9,-1.5c-.7,-.3,-1.6,-.4,-2.7,-.5l2.3,-4.7Z" class="g1_78"/>
<path fill-rule="evenodd" d="M383.8,273.4c-.3,1.1,-.7,1.9,-1.4,2.5c-.6,.6,-1.3,.9,-2.1,.9c-1,0,-1.8,-.4,-2.5,-1.2c-.7,-.8,-1,-1.9,-1,-3.2c0,-1.3,.4,-2.4,1.1,-3.2c.8,-.8,1.7,-1.2,2.8,-1.2c.8,0,1.5,.2,2,.7c.6,.4,.8,.8,.8,1.3c0,.2,-.1,.4,-.2,.6c-.2,.1,-.4,.2,-.6,.2c-.4,0,-.6,-.1,-.8,-.4c-.1,-.1,-.2,-.3,-.2,-.7c-.1,-.3,-.2,-.6,-.4,-.8c-.2,-.2,-.5,-.3,-.9,-.3c-.6,0,-1.1,.2,-1.4,.7c-.5,.6,-.7,1.4,-.7,2.3c0,1,.2,1.9,.7,2.6c.5,.8,1.1,1.2,1.9,1.2c.6,0,1.2,-.2,1.6,-.6c.4,-.3,.7,-.8,1,-1.5Z" class="g1_78"/>
<path fill-rule="evenodd" d="M390.3,274.4l2.6,-6.1h2.7v.3c-.4,0,-.6,0,-.8,.1c-.1,.1,-.2,.2,-.3,.3c-.1,.1,-.1,.5,-.1,1.2v4.4c0,.6,0,.9,.1,1.1c0,.1,.1,.3,.3,.4c.2,0,.5,.1,.8,.1v.3h-4v-.3c.5,0,.9,-.1,1,-.3c.2,-.2,.3,-.6,.3,-1.3v-5l-2.9,6.9h-.4l-2.9,-6.9v5c0,.6,0,.9,.1,1.1c0,.1,.1,.3,.3,.4c.2,0,.5,.1,.8,.1v.3h-3.1v-.3c.5,0,.8,-.1,1,-.3c.1,-.2,.2,-.6,.2,-1.3v-4.4c0,-.6,0,-1,-.1,-1.1c0,-.2,-.1,-.3,-.3,-.4c-.1,0,-.4,-.1,-.8,-.1v-.3h2.9Z" class="g1_78"/>
<path fill-rule="evenodd" d="M225.5,315.4l3.7,9.6l2.1,-7.2c.2,-.5,.2,-1,.2,-1.3c0,-.2,0,-.4,-.2,-.5c-.2,-.2,-.4,-.2,-.9,-.2c0,0,-.1,0,-.2,0l.1,-.4h3.9l-.1,.4c-.4,-.1,-.7,0,-.9,.1c-.3,.1,-.5,.3,-.6,.5c-.2,.3,-.4,.7,-.6,1.4l-2.9,10.1h-.3l-4.1,-10.3l-2.1,7.6c-.2,.6,-.3,1,-.3,1.3c0,.3,.1,.4,.2,.6c.2,.1,.5,.2,1.1,.2l-.1,.3h-3.8l.1,-.3c.5,0,.8,0,.9,-.1c.3,-.1,.5,-.3,.6,-.4c.2,-.3,.4,-.8,.6,-1.6l2.4,-8.5c-.2,-.3,-.5,-.6,-.7,-.7c-.3,-.1,-.7,-.2,-1.3,-.2l.1,-.4Z" class="g1_78"/>
<path fill-rule="evenodd" d="M226.4,203.1l1.1,9.8l7.1,-9.8h3v.3c-.6,.1,-1,.1,-1.1,.2c-.2,0,-.4,.2,-.6,.4c-.1,.3,-.3,.7,-.5,1.4l-2.3,7.7c-.1,.5,-.2,.8,-.2,1.1c0,.2,.1,.4,.3,.5c.2,.2,.6,.3,1,.3h.3l-.1,.3h-5.2l.1,-.3h.3c.4,0,.8,-.1,1,-.2c.2,-.1,.4,-.3,.5,-.6c.2,-.2,.4,-.8,.6,-1.7l2.1,-7.1l-7.2,9.9h-.3l-1.2,-9.9l-2.2,7.5c-.2,.7,-.2,1.1,-.2,1.3c0,.3,0,.4,.2,.5c.2,.2,.5,.2,1.2,.3l-.1,.3h-4.1l.1,-.3h.3c.6,0,1,-.2,1.3,-.5c.2,-.2,.4,-.7,.6,-1.4l2.6,-9.1c-.2,-.2,-.3,-.3,-.5,-.4c-.2,-.1,-.5,-.1,-1,-.2l.1,-.3Z" class="g1_78"/>
<path fill-rule="evenodd" d="M341.9,315.6l3.8,9.6l2,-7.2c.2,-.6,.3,-1,.3,-1.3c0,-.3,-.1,-.4,-.3,-.6c-.1,-.1,-.4,-.2,-.8,-.2c-.1,0,-.2,0,-.3,0l.1,-.3h4l-.1,.3c-.4,0,-.7,.1,-.9,.2c-.3,.1,-.5,.2,-.7,.4c-.2,.3,-.4,.8,-.6,1.5l-2.8,10.1h-.4l-4,-10.3l-2.2,7.6c-.2,.6,-.2,1,-.2,1.3c0,.3,0,.4,.2,.5c.1,.2,.5,.2,1,.3l-.1,.3h-3.8l.1,-.3c.5,0,.8,-.1,1,-.1c.2,-.2,.4,-.3,.5,-.5c.2,-.2,.4,-.7,.6,-1.5l2.4,-8.5c-.2,-.4,-.4,-.6,-.7,-.7c-.3,-.2,-.7,-.2,-1.3,-.3l.1,-.3Z" class="g1_78"/>
<path fill-rule="evenodd" d="M342.1,177.6l1.2,9.9l7,-9.9h3v.4c-.6,0,-1,0,-1.1,.1c-.2,.1,-.4,.2,-.6,.4c-.1,.3,-.3,.7,-.5,1.4l-2.3,7.7c-.1,.5,-.2,.9,-.2,1.1c0,.2,.1,.4,.3,.5c.2,.2,.6,.3,1.1,.3h.2l-.1,.3H345v-.3h.3c.4,0,.8,-.1,1,-.2c.2,-.1,.4,-.3,.5,-.5c.2,-.3,.4,-.9,.7,-1.8l2,-7.1l-7.2,9.9H342l-1.2,-9.9l-2.1,7.6c-.2,.6,-.3,1,-.3,1.3c0,.2,.1,.3,.2,.5c.2,.1,.6,.2,1.2,.2l-.1,.3h-4l.1,-.3h.2c.6,0,1,-.1,1.3,-.4c.2,-.3,.4,-.7,.6,-1.5l2.7,-9.1c-.2,-.2,-.4,-.3,-.6,-.4c-.2,0,-.5,-.1,-1,-.1l.1,-.4Z" class="g1_78"/>
<path fill-rule="evenodd" d="M398.6,196.4l-1.2,4c.5,-.9,1,-1.6,1.3,-2.1c.6,-.8,1.2,-1.3,1.7,-1.6c.3,-.2,.7,-.3,1,-.3c.3,0,.6,.1,.8,.3c.2,.1,.3,.4,.3,.7c0,.3,-.1,.7,-.2,1.1l-.7,2.3c1,-1.8,1.9,-3.1,2.8,-3.8c.5,-.4,1,-.6,1.4,-.6c.3,0,.5,.1,.7,.2c.2,.2,.3,.5,.3,.9c0,.4,-.1,.7,-.2,1.1l-1,3.5c-.2,.8,-.3,1.2,-.3,1.3c0,.1,0,.2,.1,.2c0,.1,.1,.1,.1,.1c.1,0,.2,-.1,.4,-.2c.3,-.2,.6,-.6,.9,-1l.3,.2c-.1,.2,-.4,.5,-.8,1c-.4,.4,-.7,.7,-1,.8c-.2,.2,-.5,.2,-.7,.2c-.2,0,-.4,0,-.5,-.2c-.2,-.1,-.2,-.3,-.2,-.5c0,-.3,.1,-.9,.3,-1.8l.8,-2.8c.2,-.7,.3,-1.1,.3,-1.2c.1,-.1,.1,-.2,.1,-.3c0,-.1,-.1,-.3,-.1,-.3c-.1,-.1,-.2,-.2,-.3,-.2c-.2,0,-.5,.2,-.8,.4c-.8,.8,-1.6,1.9,-2.3,3.2c-.5,.9,-.9,2.1,-1.3,3.5h-1.4l1.5,-5.4c.2,-.6,.3,-1,.3,-1.2c0,-.2,0,-.3,-.1,-.4c-.1,-.1,-.2,-.1,-.2,-.1c-.2,0,-.5,.1,-.7,.2c-.3,.3,-.8,.8,-1.4,1.5c-.5,.8,-1,1.5,-1.3,2.2c-.1,.4,-.5,1.4,-1.1,3.2h-1.3l1.7,-5.8l.2,-.8c0,-.1,0,-.2,0,-.2c0,-.2,0,-.3,-.1,-.4c-.2,-.1,-.3,-.1,-.5,-.1c-.1,0,-.3,0,-.6,.1l-.1,-.4Z" class="g1_78"/>
<path fill-rule="evenodd" d="M405.1,313l-1.2,4.1c1.2,-1.7,2,-2.8,2.6,-3.3c.6,-.5,1.2,-.8,1.8,-.8c.3,0,.5,.1,.7,.3c.2,.2,.3,.5,.3,.8c0,.3,-.1,.8,-.3,1.4l-1.1,3.8c-.1,.4,-.2,.7,-.2,.8c0,.1,.1,.2,.1,.2q.1,.1,.2,.1c0,0,.1,0,.2,-.1c.3,-.3,.7,-.6,1.1,-1.2l.3,.2c-.6,.8,-1.1,1.4,-1.6,1.7c-.4,.3,-.7,.4,-1,.4c-.2,0,-.4,-.1,-.5,-.2c-.1,-.2,-.2,-.3,-.2,-.6c0,-.3,.1,-.8,.3,-1.5l1.1,-3.6c.1,-.4,.1,-.8,.1,-1c0,-.2,0,-.3,-.1,-.3c0,-.1,-.1,-.1,-.3,-.1c-.1,0,-.3,0,-.6,.2c-.4,.2,-.9,.7,-1.3,1.3c-.5,.6,-1,1.4,-1.6,2.4c-.3,.5,-.5,1.1,-.7,1.7l-.4,1.5h-1.4l1.7,-5.7c.2,-.7,.2,-1.1,.2,-1.2c0,-.1,0,-.3,-.1,-.4c-.1,-.1,-.2,-.1,-.4,-.1c-.1,0,-.2,0,-.4,0l-.3,.1l-.1,-.3Z" class="g1_78"/>
<path fill-rule="evenodd" d="M351.2,325.8l2.2,-1.1h.2v7.7c0,.5,0,.8,.1,1c0,.1,.1,.2,.2,.2c.2,.1,.4,.2,.9,.2v.2h-3.5v-.2c.4,0,.7,-.1,.9,-.1c.1,-.1,.2,-.2,.2,-.3c.1,-.1,.1,-.5,.1,-1v-4.9c0,-.7,0,-1.1,-.1,-1.3c0,-.2,-.1,-.3,-.1,-.3c-.1,-.1,-.2,-.1,-.4,-.1c-.1,0,-.3,0,-.6,.2Z" class="g1_78"/>
<path fill-rule="evenodd" d="M353.2,187.6l2.3,-1.1h.2v7.7c0,.5,0,.8,.1,1c0,.1,.1,.2,.2,.3c.2,0,.4,.1,.9,.1v.2h-3.5v-.2c.4,0,.7,-.1,.8,-.1c.2,-.1,.3,-.2,.3,-.3c.1,-.1,.1,-.4,.1,-1v-4.9c0,-.7,0,-1.1,-.1,-1.3c0,-.2,-.1,-.3,-.2,-.3c0,-.1,-.1,-.1,-.3,-.1c-.1,0,-.4,0,-.7,.2Z" class="g1_78"/>
<path d="M231.8,286.9h52.7V255.8H231.8v31.1Z" class="g5_78"/>
<path d="M347.3,290.5h73.6V255.8H347.3v34.7Z" class="g5_78"/>
<path d="M578,291.3c-10.4,1.8,-16.4,7.6,-18.2,17.3m118,-17.3c-10.3,1.8,-16.4,7.6,-18.2,17.3M761.1,291.3c-10.4,1.8,-16.5,7.6,-18.2,17.3" class="g8_78"/>
<path fill-rule="evenodd" d="M571,301.3c.8,.6,1.1,1.7,.5,2.5c-.5,.9,-1.6,1.1,-2.5,.6c-.8,-.6,-1,-1.7,-.5,-2.5c.6,-.9,1.7,-1.1,2.5,-.6Z" class="g1_78"/>
<path d="M571,301.3c.8,.6,1.1,1.7,.5,2.5c-.5,.9,-1.6,1.1,-2.5,.6c-.8,-.6,-1,-1.7,-.5,-2.5c.6,-.9,1.7,-1.1,2.5,-.6Z" class="g8_78"/>
<path fill-rule="evenodd" d="M670.8,301.3c.9,.6,1.1,1.7,.6,2.5c-.6,.9,-1.7,1.1,-2.5,.6c-.9,-.6,-1.1,-1.7,-.6,-2.5c.6,-.9,1.7,-1.1,2.5,-.6Z" class="g1_78"/>
<path d="M670.8,301.3c.9,.6,1.1,1.7,.6,2.5c-.6,.9,-1.7,1.1,-2.5,.6c-.9,-.6,-1.1,-1.7,-.6,-2.5c.6,-.9,1.7,-1.1,2.5,-.6Z" class="g8_78"/>
<path fill-rule="evenodd" d="M754.1,301.3c.8,.6,1.1,1.7,.5,2.5c-.5,.9,-1.7,1.1,-2.5,.6c-.8,-.6,-1.1,-1.7,-.5,-2.5c.5,-.9,1.7,-1.1,2.5,-.6Z" class="g1_78"/>
<path d="M754.1,301.3c.8,.6,1.1,1.7,.5,2.5c-.5,.9,-1.7,1.1,-2.5,.6c-.8,-.6,-1.1,-1.7,-.5,-2.5c.5,-.9,1.7,-1.1,2.5,-.6Zm-236,8.1H816.2m-294,-87.1H812.6" class="g8_78"/>
<path d="M579.1,309.8V222.6m99.8,87.2V222.6m83.2,87.2V222.6" class="g9_78"/>
<path fill-rule="evenodd" d="M593.1,272.9l-.9,2.3H585v-.3c2.1,-1.9,3.6,-3.5,4.5,-4.7c.8,-1.3,1.3,-2.4,1.3,-3.4c0,-.8,-.3,-1.4,-.8,-1.9c-.4,-.5,-1,-.8,-1.7,-.8c-.6,0,-1.1,.2,-1.6,.6c-.5,.3,-.8,.8,-1,1.5h-.4c.2,-1.1,.6,-1.9,1.2,-2.5c.6,-.6,1.4,-.9,2.3,-.9c1,0,1.8,.3,2.5,.9c.7,.7,1,1.4,1,2.3c0,.6,-.1,1.2,-.4,1.8c-.5,1,-1.2,2,-2.2,3.1c-1.5,1.7,-2.4,2.6,-2.8,3h3.2c.6,0,1.1,0,1.4,-.1c.2,0,.5,-.1,.7,-.3c.2,-.1,.4,-.3,.5,-.6Z" class="g1_78"/>
<path fill-rule="evenodd" d="M606,272.1c-.2,1.1,-.6,1.9,-1.3,2.5c-.6,.6,-1.3,.9,-2.1,.9c-1,0,-1.8,-.4,-2.5,-1.2c-.7,-.8,-1,-1.8,-1,-3.2c0,-1.3,.4,-2.3,1.1,-3.1c.8,-.9,1.7,-1.3,2.8,-1.3c.8,0,1.5,.3,2,.7c.5,.4,.8,.9,.8,1.3c0,.3,-.1,.4,-.2,.6c-.2,.1,-.4,.2,-.6,.2c-.4,0,-.7,-.1,-.9,-.4c-.1,-.1,-.1,-.3,-.2,-.7c0,-.3,-.1,-.6,-.3,-.8c-.2,-.2,-.5,-.3,-.9,-.3c-.6,0,-1.1,.3,-1.4,.7c-.5,.6,-.8,1.4,-.8,2.3c0,1,.3,1.9,.8,2.7c.4,.7,1.1,1.1,1.9,1.1c.6,0,1.1,-.2,1.6,-.6c.3,-.3,.6,-.8,1,-1.5Z" class="g1_78"/>
<path fill-rule="evenodd" d="M612.5,273.1l2.6,-6.1h2.8v.3c-.4,0,-.7,.1,-.8,.1c-.1,.1,-.3,.2,-.3,.4c-.1,.1,-.1,.5,-.1,1.1v4.4c0,.6,0,.9,0,1.1c.1,.2,.2,.3,.4,.4c.2,.1,.4,.1,.8,.1v.3h-4v-.3c.5,0,.8,-.1,1,-.3c.2,-.1,.3,-.6,.3,-1.3v-5l-3,6.9h-.3l-3,-6.9v5c0,.6,.1,.9,.1,1.1c.1,.2,.2,.3,.4,.4c.2,.1,.4,.1,.8,.1v.3H607v-.3c.6,0,.9,-.1,1.1,-.3c.1,-.2,.2,-.6,.2,-1.3v-4.4c0,-.6,0,-1,-.1,-1.1c-.1,-.1,-.2,-.2,-.3,-.3c-.1,-.1,-.4,-.2,-.9,-.2V267h2.9Z" class="g1_78"/>
<path fill-rule="evenodd" d="M692.9,272.9l-.9,2.3h-7.2v-.3c2.1,-1.9,3.6,-3.5,4.5,-4.7c.8,-1.3,1.3,-2.4,1.3,-3.4c0,-.8,-.3,-1.4,-.7,-1.9c-.5,-.5,-1.1,-.8,-1.7,-.8c-.6,0,-1.2,.2,-1.7,.6c-.4,.3,-.8,.8,-1,1.5h-.3c.1,-1.1,.5,-1.9,1.1,-2.5c.6,-.6,1.4,-.9,2.3,-.9c1,0,1.9,.3,2.5,.9c.7,.7,1,1.4,1,2.3c0,.6,-.1,1.2,-.4,1.8c-.5,1,-1.2,2,-2.2,3.1c-1.5,1.7,-2.4,2.6,-2.8,3h3.2c.7,0,1.1,0,1.4,-.1c.2,0,.5,-.1,.7,-.3c.2,-.1,.4,-.3,.5,-.6Z" class="g1_78"/>
<path fill-rule="evenodd" d="M705.8,272.1c-.2,1.1,-.6,1.9,-1.3,2.5c-.6,.6,-1.3,.9,-2.1,.9c-1,0,-1.8,-.4,-2.5,-1.2c-.7,-.8,-1,-1.8,-1,-3.2c0,-1.3,.4,-2.3,1.1,-3.1c.8,-.9,1.7,-1.3,2.8,-1.3c.8,0,1.5,.3,2,.7c.5,.4,.8,.9,.8,1.3c0,.3,-.1,.4,-.2,.6c-.2,.1,-.4,.2,-.6,.2c-.4,0,-.7,-.1,-.8,-.4c-.1,-.1,-.2,-.3,-.2,-.7c-.1,-.3,-.2,-.6,-.4,-.8c-.2,-.2,-.5,-.3,-.9,-.3c-.6,0,-1.1,.3,-1.4,.7c-.5,.6,-.8,1.4,-.8,2.3c0,1,.3,1.9,.8,2.7c.5,.7,1.1,1.1,1.9,1.1c.6,0,1.1,-.2,1.6,-.6c.3,-.3,.7,-.8,1,-1.5Z" class="g1_78"/>
<path fill-rule="evenodd" d="M712.4,273.1l2.5,-6.1h2.8v.3c-.4,0,-.7,.1,-.8,.1c-.1,.1,-.2,.2,-.3,.4c-.1,.1,-.1,.5,-.1,1.1v4.4c0,.6,0,.9,.1,1.1c0,.2,.1,.3,.3,.4c.2,.1,.5,.1,.8,.1v.3h-4v-.3c.5,0,.9,-.1,1,-.3c.2,-.1,.3,-.6,.3,-1.3v-5l-2.9,6.9h-.4l-2.9,-6.9v5c0,.6,0,.9,.1,1.1c0,.2,.1,.3,.3,.4c.2,.1,.5,.1,.8,.1v.3h-3.1v-.3c.5,0,.8,-.1,1,-.3c.1,-.2,.2,-.6,.2,-1.3v-4.4c0,-.6,0,-1,-.1,-1.1c-.1,-.1,-.2,-.2,-.3,-.3c-.1,-.1,-.4,-.2,-.8,-.2V267h2.9Z" class="g1_78"/>
<path fill-rule="evenodd" d="M776.1,272.9l-.8,2.3H768v-.3c2.2,-1.9,3.7,-3.5,4.5,-4.7c.9,-1.3,1.3,-2.4,1.3,-3.4c0,-.8,-.2,-1.4,-.7,-1.9c-.5,-.5,-1,-.8,-1.7,-.8c-.6,0,-1.1,.2,-1.6,.6c-.5,.3,-.8,.8,-1.1,1.5h-.3c.2,-1.1,.5,-1.9,1.2,-2.5c.6,-.6,1.4,-.9,2.3,-.9c1,0,1.8,.3,2.5,.9c.6,.7,1,1.4,1,2.3c0,.6,-.2,1.2,-.5,1.8c-.4,1,-1.1,2,-2.1,3.1c-1.5,1.7,-2.5,2.6,-2.8,3h3.2c.6,0,1.1,0,1.3,-.1c.3,0,.5,-.1,.7,-.3c.2,-.1,.4,-.3,.6,-.6Z" class="g1_78"/>
<path fill-rule="evenodd" d="M789.1,272.1c-.2,1.1,-.7,1.9,-1.3,2.5c-.7,.6,-1.4,.9,-2.2,.9c-.9,0,-1.7,-.4,-2.4,-1.2c-.7,-.8,-1.1,-1.8,-1.1,-3.2c0,-1.3,.4,-2.3,1.2,-3.1c.8,-.9,1.7,-1.3,2.8,-1.3c.8,0,1.5,.3,2,.7c.5,.4,.8,.9,.8,1.3c0,.3,-.1,.4,-.3,.6c-.1,.1,-.3,.2,-.6,.2c-.3,0,-.6,-.1,-.8,-.4c-.1,-.1,-.2,-.3,-.2,-.7c0,-.3,-.1,-.6,-.4,-.8c-.2,-.2,-.5,-.3,-.8,-.3c-.6,0,-1.1,.3,-1.5,.7c-.5,.6,-.7,1.4,-.7,2.3c0,1,.2,1.9,.7,2.7c.5,.7,1.2,1.1,2,1.1c.6,0,1.1,-.2,1.6,-.6c.3,-.3,.6,-.8,.9,-1.5Z" class="g1_78"/>
<path fill-rule="evenodd" d="M795.6,273.1l2.6,-6.1H801v.3c-.4,0,-.7,.1,-.8,.1c-.2,.1,-.3,.2,-.4,.4c0,.1,-.1,.5,-.1,1.1v4.4c0,.6,0,.9,.1,1.1c.1,.2,.2,.3,.4,.4c.1,.1,.4,.1,.8,.1v.3h-4v-.3c.5,0,.8,-.1,1,-.3c.1,-.1,.2,-.6,.2,-1.3v-5l-2.9,6.9H795l-3,-6.9v5c0,.6,0,.9,.1,1.1c.1,.2,.2,.3,.4,.4c.1,.1,.4,.1,.8,.1v.3h-3.2v-.3c.5,0,.9,-.1,1,-.3c.2,-.2,.3,-.6,.3,-1.3v-4.4c0,-.6,-.1,-1,-.1,-1.1c-.1,-.1,-.2,-.2,-.3,-.3c-.2,-.1,-.5,-.2,-.9,-.2V267H793Z" class="g1_78"/>
<path fill-rule="evenodd" d="M583,198.6l-1,10.1c0,.5,0,.8,0,1c0,.2,0,.4,.1,.5c.1,.2,.3,.3,.4,.4c.2,.1,.6,.1,1,.1l-.1,.4h-4.8l.1,-.4h.2c.4,0,.7,-.1,1,-.2c.2,-.1,.3,-.3,.4,-.6c.1,-.2,.1,-.6,.2,-1.3l.1,-1.6h-3.5l-1.2,1.7c-.3,.4,-.5,.7,-.5,.8c-.1,.2,-.2,.4,-.2,.5c0,.2,.1,.4,.3,.5c.1,.1,.4,.2,.8,.2l-.1,.4h-3.7l.1,-.4c.5,0,.9,-.1,1.2,-.4c.4,-.3,.9,-.9,1.5,-1.8l7.3,-9.9Zm-1.8,3l-3.6,4.8h3.1Z" class="g1_78"/>
<path fill-rule="evenodd" d="M573.7,315.9l.1,-.3h4.4c.7,0,1.3,.1,1.9,.3c.6,.3,1,.6,1.3,1c.3,.4,.4,.8,.4,1.3c0,.7,-.2,1.3,-.7,1.9c-.5,.6,-1.4,1,-2.5,1.3c.7,.2,1.3,.6,1.6,1.1c.4,.4,.6,.9,.6,1.5c0,.6,-.2,1.2,-.5,1.7c-.3,.6,-.7,1,-1.2,1.3c-.5,.3,-1.1,.5,-1.8,.7c-.5,.1,-1.3,.1,-2.3,.1h-4.5l.1,-.3c.5,0,.8,-.1,1,-.1c.2,-.1,.4,-.3,.5,-.4c.1,-.3,.3,-.8,.6,-1.6l2.2,-7.4c.2,-.6,.3,-1.1,.3,-1.3c0,-.3,-.1,-.4,-.3,-.6c-.2,-.1,-.5,-.2,-.9,-.2c-.1,0,-.2,0,-.3,0m1.8,5.1c.4,0,.7,0,.9,0c1.2,0,2.1,-.2,2.7,-.8c.7,-.5,1,-1.2,1,-2c0,-.6,-.2,-1.1,-.6,-1.5c-.4,-.3,-1,-.5,-1.8,-.5c-.2,0,-.5,0,-.8,.1Zm-1.8,6c.7,.1,1.2,.2,1.5,.2c1,0,1.8,-.3,2.5,-.9c.8,-.6,1.1,-1.3,1.1,-2.3c0,-.7,-.2,-1.3,-.6,-1.7c-.5,-.4,-1.2,-.6,-2.2,-.6c-.2,0,-.4,0,-.7,0Z" class="g1_78"/>
<path fill-rule="evenodd" d="M676.4,317.6l.1,-.4h4.3c.8,0,1.4,.1,2,.4c.6,.2,1,.5,1.3,.9c.3,.4,.4,.9,.4,1.3c0,.7,-.2,1.4,-.7,1.9c-.6,.6,-1.4,1,-2.5,1.3c.7,.3,1.3,.6,1.6,1.1c.4,.4,.5,.9,.5,1.5c0,.6,-.1,1.2,-.4,1.7c-.4,.6,-.8,1,-1.2,1.3c-.5,.3,-1.1,.5,-1.8,.7c-.5,.1,-1.3,.1,-2.3,.1h-4.5l.1,-.3c.5,0,.8,0,1,-.1c.2,-.1,.4,-.3,.5,-.4c.1,-.3,.3,-.8,.6,-1.6l2.1,-7.4c.2,-.6,.3,-1.1,.3,-1.3c0,-.2,-.1,-.4,-.2,-.5c-.2,-.2,-.5,-.2,-1,-.2c-.1,0,-.2,0,-.2,0m1.8,5c.4,0,.7,0,.8,0c1.3,0,2.2,-.2,2.8,-.8c.6,-.5,.9,-1.2,.9,-2c0,-.6,-.2,-1.1,-.5,-1.5c-.4,-.3,-1,-.5,-1.8,-.5c-.2,0,-.5,.1,-.8,.1Zm-1.8,6.1c.7,0,1.2,.1,1.5,.1c1,0,1.8,-.3,2.5,-.9c.7,-.5,1.1,-1.3,1.1,-2.3c0,-.7,-.2,-1.3,-.7,-1.7c-.4,-.4,-1.1,-.6,-2.1,-.6c-.2,0,-.5,0,-.7,0Z" class="g1_78"/>
<path fill-rule="evenodd" d="M759.6,317.6l.1,-.4h4.4c.7,0,1.4,.1,1.9,.4c.6,.2,1.1,.5,1.3,.9c.3,.4,.5,.9,.5,1.3c0,.7,-.3,1.4,-.8,1.9c-.5,.6,-1.3,1,-2.5,1.3c.8,.3,1.3,.6,1.7,1.1c.3,.4,.5,.9,.5,1.5c0,.6,-.2,1.2,-.5,1.7c-.3,.6,-.7,1,-1.2,1.3c-.5,.3,-1.1,.5,-1.8,.7c-.5,.1,-1.2,.1,-2.3,.1h-4.5l.2,-.3c.4,0,.7,0,.9,-.1c.3,-.1,.4,-.3,.5,-.4c.2,-.3,.4,-.8,.6,-1.6l2.2,-7.4c.2,-.6,.3,-1.1,.3,-1.3c0,-.2,-.1,-.4,-.3,-.5c-.1,-.2,-.5,-.2,-.9,-.2c-.1,0,-.2,0,-.3,0m1.8,5c.4,0,.7,0,.9,0c1.2,0,2.2,-.2,2.8,-.8c.6,-.5,.9,-1.2,.9,-2c0,-.6,-.2,-1.1,-.6,-1.5c-.4,-.3,-.9,-.5,-1.8,-.5c-.2,0,-.5,.1,-.8,.1Zm-1.7,6.1c.6,0,1.1,.1,1.5,.1c.9,0,1.7,-.3,2.5,-.9c.7,-.5,1.1,-1.3,1.1,-2.3c0,-.7,-.3,-1.3,-.7,-1.7c-.5,-.4,-1.2,-.6,-2.2,-.6c-.2,0,-.4,0,-.7,0Z" class="g1_78"/>
<path fill-rule="evenodd" d="M684.2,200.2l-.9,10.2c0,.4,-.1,.7,-.1,.9c0,.2,.1,.4,.2,.5c.1,.2,.2,.3,.4,.4c.2,.1,.6,.2,1,.2l-.1,.3h-4.8l.1,-.3h.2c.4,0,.7,-.1,1,-.3c.1,-.1,.3,-.3,.4,-.6c0,-.2,.1,-.6,.2,-1.3l.1,-1.5h-3.5l-1.2,1.7c-.3,.3,-.5,.6,-.6,.8c0,.1,-.1,.3,-.1,.4c0,.2,.1,.4,.3,.5c.1,.2,.4,.2,.7,.3l-.1,.3h-3.6l.1,-.3c.5,-.1,.9,-.2,1.2,-.5c.3,-.3,.8,-.9,1.5,-1.8l7.3,-9.9Zm-1.8,3l-3.5,4.8H682Z" class="g1_78"/>
<path fill-rule="evenodd" d="M767.5,200.2l-.9,10.2c-.1,.4,-.1,.7,-.1,.9c0,.2,0,.4,.1,.5c.1,.2,.3,.3,.5,.4c.2,.1,.5,.2,1,.2l-.1,.3h-4.8l.1,-.3h.2c.4,0,.7,-.1,.9,-.3c.2,-.1,.3,-.3,.4,-.6c.1,-.2,.2,-.6,.2,-1.3l.2,-1.5h-3.5l-1.3,1.7c-.3,.3,-.4,.6,-.5,.8c-.1,.1,-.1,.3,-.1,.4c0,.2,.1,.4,.2,.5c.2,.2,.4,.2,.8,.3l-.1,.3h-3.6l.1,-.3c.4,-.1,.8,-.2,1.1,-.5c.4,-.3,.9,-.9,1.6,-1.8l7.3,-9.9Zm-1.8,3l-3.5,4.8h3Z" class="g1_78"/>
<path fill-rule="evenodd" d="M818.8,227.5l-1.8,6.1l-.2,.8q0,.1,0,.2c0,.1,0,.2,.1,.2c0,.1,.1,.1,.2,.1c0,0,.1,0,.3,-.1c.2,-.2,.5,-.5,.9,-1.1l.3,.2c-.4,.6,-.8,1.1,-1.3,1.4c-.4,.4,-.8,.5,-1.2,.5c-.2,0,-.4,0,-.6,-.2c-.1,-.1,-.2,-.3,-.2,-.5c0,-.3,.1,-.7,.2,-1.2l.2,-.7c-.8,1.1,-1.5,1.8,-2.1,2.2c-.5,.3,-1,.4,-1.4,.4c-.5,0,-.9,-.1,-1.2,-.5c-.3,-.4,-.4,-.9,-.4,-1.5c0,-1,.2,-2,.8,-3c.6,-1.1,1.3,-1.9,2.2,-2.6c.7,-.5,1.3,-.7,2,-.7c.3,0,.6,.1,.9,.3c.2,.1,.4,.5,.5,.9l.3,-1Zm-3.2,.4c-.4,0,-.8,.2,-1.3,.6c-.6,.5,-1.1,1.2,-1.6,2.2c-.5,1,-.7,2,-.7,2.8c0,.4,.1,.7,.3,.9c.2,.3,.4,.4,.7,.4c.7,0,1.4,-.5,2.1,-1.5c1.1,-1.2,1.6,-2.6,1.6,-3.9c0,-.5,-.1,-.9,-.3,-1.1c-.2,-.3,-.5,-.4,-.8,-.4Z" class="g1_78"/>
<path fill-rule="evenodd" d="M814.4,315l-1.8,6.2c.6,-.6,1.1,-1,1.5,-1.2c.5,-.2,.9,-.3,1.4,-.3c.6,0,1.2,.2,1.6,.6c.4,.5,.6,1.1,.6,1.8c0,1,-.3,1.9,-.8,2.9c-.6,1,-1.3,1.7,-2.1,2.2c-.8,.6,-1.6,.8,-2.5,.8c-.9,0,-1.8,-.3,-2.8,-1l2.8,-9.4c.2,-.7,.3,-1.2,.3,-1.3c0,-.1,0,-.3,-.1,-.3c-.2,-.2,-.4,-.2,-.7,-.2c-.1,0,-.3,0,-.5,.1v-.4Zm-3.5,12.1c.6,.4,1.1,.5,1.6,.5c.5,0,1.1,-.2,1.6,-.6c.6,-.3,1.1,-1,1.5,-1.9c.4,-.9,.6,-1.9,.6,-2.8c0,-.6,-.1,-1,-.4,-1.3c-.2,-.3,-.6,-.5,-.9,-.5c-.6,0,-1.1,.3,-1.7,.7c-.5,.4,-.9,1.1,-1.1,1.9Z" class="g1_78"/>
<path fill-rule="evenodd" d="M688.2,210.2l2.3,-1.1h.2v7.8c0,.5,0,.8,.1,.9c0,.1,.1,.2,.2,.3c.2,.1,.4,.1,.9,.1v.3h-3.5v-.3c.4,0,.7,0,.8,-.1c.2,-.1,.3,-.1,.3,-.3c.1,-.1,.1,-.4,.1,-.9v-5c0,-.7,0,-1.1,-.1,-1.3c0,-.1,-.1,-.2,-.2,-.3c0,-.1,-.1,-.1,-.3,-.1c-.1,0,-.4,.1,-.7,.2Z" class="g1_78"/>
<path fill-rule="evenodd" d="M777.3,216.7l-.6,1.8h-5.4v-.3c1.6,-1.4,2.7,-2.6,3.3,-3.5c.7,-1,1,-1.8,1,-2.6c0,-.5,-.2,-1,-.5,-1.4c-.4,-.4,-.8,-.5,-1.3,-.5c-.5,0,-.9,.1,-1.2,.3c-.4,.3,-.7,.7,-.8,1.2h-.3c.1,-.8,.4,-1.5,.9,-1.9c.5,-.5,1,-.7,1.7,-.7c.8,0,1.4,.3,1.9,.7c.5,.5,.8,1.1,.8,1.7c0,.5,-.2,1,-.4,1.4c-.3,.7,-.8,1.5,-1.6,2.3c-1.1,1.3,-1.8,2,-2.1,2.3h2.4c.5,0,.8,-.1,1,-.1c.2,0,.4,-.1,.6,-.2c.1,-.1,.2,-.3,.4,-.5Z" class="g1_78"/>
<path fill-rule="evenodd" d="M777.3,333.5l-.6,1.8h-5.4V335c1.6,-1.4,2.7,-2.6,3.3,-3.6c.7,-.9,1,-1.7,1,-2.5c0,-.6,-.2,-1,-.5,-1.4c-.4,-.4,-.8,-.6,-1.3,-.6c-.5,0,-.9,.2,-1.2,.4c-.4,.3,-.7,.7,-.8,1.2h-.3c.1,-.8,.4,-1.5,.9,-1.9c.5,-.5,1,-.7,1.7,-.7c.8,0,1.4,.2,1.9,.7c.5,.5,.8,1.1,.8,1.7c0,.5,-.2,.9,-.4,1.4c-.3,.7,-.8,1.5,-1.6,2.3c-1.1,1.2,-1.8,2,-2.1,2.2h2.4c.5,0,.8,0,1,0c.2,-.1,.4,-.1,.6,-.2c.1,-.2,.2,-.3,.4,-.5Z" class="g1_78"/>
<path fill-rule="evenodd" d="M688.2,326.1l2.3,-1.1h.2v7.8c0,.5,0,.8,.1,.9c0,.1,.1,.2,.2,.3c.2,.1,.4,.1,.9,.1v.3h-3.5v-.3c.4,0,.7,0,.8,-.1c.2,-.1,.3,-.1,.3,-.2c.1,-.2,.1,-.5,.1,-1v-5c0,-.7,0,-1.1,-.1,-1.3c0,-.1,-.1,-.2,-.2,-.3c0,-.1,-.1,-.1,-.3,-.1c-.1,0,-.4,.1,-.7,.2Z" class="g1_78"/>
<path d="M584.6,288.7h52.7V257.6H584.6v31.1Z" class="g5_78"/>
<path d="M685.6,288.7h52.7V257.6H685.6v31.1Z" class="g5_78"/>
<path d="M766.5,288.7h52.7V257.6H766.5v31.1Z" class="g5_78"/>
<path d="M184.8,636.9h651V474.2h-651V636.9Z" class="ga_78"/>
<path d="M73.8,675.1H836" class="gb_78"/>
<path d="M184.8,921.3h651V854.9h-651v66.4Z" class="ga_78"/>
<path d="M0,138.7H120.6V0H0V138.7Z" class="g0_78"/>
<path d="M135.8,511.9h39.7V474.4H135.8v37.5Z" class="gc_78"/>
<path d="M135.8,892.4h39.7V854.9H135.8v37.5Z" class="gd_78"/>
<path clip-path="url(#c1_78)" d="M156.1,877.5c-2.1,.1,-3.8,-1.6,-3.6,-3.6c.1,-1.7,1.5,-3.1,3.2,-3.2c2,-.2,3.7,1.5,3.6,3.6c-.1,1.7,-1.5,3.1,-3.2,3.2m.2,2.9c-3.8,.3,-7,-2.9,-6.8,-6.7c.2,-3.2,2.8,-5.8,6,-6c3.8,-.2,7,3,6.7,6.8c-.2,3.2,-2.8,5.7,-5.9,5.9m-.4,-15.3c-5.8,0,-11,3.1,-14.9,8.3c-.3,.4,-.3,1,0,1.4c3.9,5.1,9.1,8.3,14.9,8.3c5.7,0,11,-3.2,14.8,-8.3c.4,-.4,.4,-1,0,-1.4c-3.8,-5.2,-9.1,-8.3,-14.8,-8.3Z" class="g5_78"/>
<path d="M73.8,166.9H836M73.8,929.7H836" class="gb_78"/>
</svg>