<?xml version="1.0" encoding="UTF-8" standalone="no"?>
<!DOCTYPE svg PUBLIC "-//W3C//DTD SVG 1.1//EN"
"http://www.w3.org/Graphics/SVG/1.1/DTD/svg11.dtd">
<svg viewBox="0 0 909 1147" version="1.1" xmlns="http://www.w3.org/2000/svg" xmlns:xlink="http://www.w3.org/1999/xlink">
<defs>
<style type="text/css"><![CDATA[
.g0_104{
fill: #B6D774;
}
.g1_104{
fill: none;
stroke: #ABE1FA;
stroke-width: 0.763;
stroke-miterlimit: 10;
}
.g2_104{
fill: none;
stroke: #000;
stroke-width: 0.763;
}
.g3_104{
fill: none;
stroke: #ABE1FA;
stroke-width: 0.626;
stroke-miterlimit: 10;
}
.g4_104{
fill: none;
stroke: #000;
stroke-width: 0.626;
}
]]></style>
</defs>
<path d="M0,1131H73.8v-51.5H0V1131Z" class="g0_104"/>
<path d="M320.6,869.5H334m-13,12.6V869.9m13,-.4h12.9M334,882.1V869.9m12.9,-.4h13m-13,12.6V869.9m13,-.4h13m-13,12.6V869.9m13,-.4h13m-13,12.6V869.9m13,-.4h13m-13,12.6V869.9m13,-.4h13m-13,12.6V869.9m13,-.4h13m-13,12.6V869.9m13,-.4h13m-13,12.6V869.9m13,-.4h13m-13,12.6V869.9m13,-.4h13m-13,12.6V869.9m13,-.4h13m-13,12.6V869.9m13,-.4h13m-13,12.6V869.9m13,-.4h13.3m-13.3,12.6V869.9m12.9,12.2V869.9M320.6,882.5H334m-13,12.6V882.9m13,-.4h12.9M334,895.1V882.9m12.9,-.4h13m-13,12.6V882.9m13,-.4h13m-13,12.6V882.9m13,-.4h13m-13,12.6V882.9m13,-.4h13m-13,12.6V882.9m13,-.4h13m-13,12.6V882.9m13,-.4h13m-13,12.6V882.9m13,-.4h13m-13,12.6V882.9m13,-.4h13m-13,12.6V882.9m13,-.4h13m-13,12.6V882.9m13,-.4h13m-13,12.6V882.9m13,-.4h13m-13,12.6V882.9m13,-.4h13.3m-13.3,12.6V882.9m12.9,12.2V882.9M320.6,895.5H334m-13,12.6V895.8m13,-.3h12.9M334,908.1V895.8m12.9,-.3h13m-13,12.6V895.8m13,-.3h13m-13,12.6V895.8m13,-.3h13m-13,12.6V895.8m13,-.3h13m-13,12.6V895.8m13,-.3h13m-13,12.6V895.8m13,-.3h13m-13,12.6V895.8m13,-.3h13m-13,12.6V895.8m13,-.3h13m-13,12.6V895.8m13,-.3h13m-13,12.6V895.8m13,-.3h13m-13,12.6V895.8m13,-.3h13m-13,12.6V895.8m13,-.3h13.3m-13.3,12.6V895.8m12.9,12.3V895.8M320.6,908.5H334m-13,12.6V908.8m13,-.3h12.9M334,921.1V908.8m12.9,-.3h13m-13,12.6V908.8m13,-.3h13m-13,12.6V908.8m13,-.3h13m-13,12.6V908.8m13,-.3h13m-13,12.6V908.8m13,-.3h13m-13,12.6V908.8m13,-.3h13m-13,12.6V908.8m13,-.3h13m-13,12.6V908.8m13,-.3h13m-13,12.6V908.8m13,-.3h13m-13,12.6V908.8m13,-.3h13m-13,12.6V908.8m13,-.3h13m-13,12.6V908.8m13,-.3h13.3m-13.3,12.6V908.8m12.9,12.3V908.8M320.6,921.5H334m-13,12.6V921.8m13,-.3h12.9M334,934.1V921.8m12.9,-.3h13m-13,12.6V921.8m13,-.3h13m-13,12.6V921.8m13,-.3h13m-13,12.6V921.8m13,-.3h13m-13,12.6V921.8m13,-.3h13m-13,12.6V921.8m13,-.3h13m-13,12.6V921.8m13,-.3h13m-13,12.6V921.8m13,-.3h13m-13,12.6V921.8m13,-.3h13m-13,12.6V921.8m13,-.3h13m-13,12.6V921.8m13,-.3h13m-13,12.6V921.8m13,-.3h13.3m-13.3,12.6V921.8m12.9,12.3V921.8M320.6,934.4H334m-13,12.7V934.8m13,-.4h12.9M334,947.1V934.8m12.9,-.4h13m-13,12.7V934.8m13,-.4h13m-13,12.7V934.8m13,-.4h13m-13,12.7V934.8m13,-.4h13m-13,12.7V934.8m13,-.4h13m-13,12.7V934.8m13,-.4h13m-13,12.7V934.8m13,-.4h13m-13,12.7V934.8m13,-.4h13m-13,12.7V934.8m13,-.4h13m-13,12.7V934.8m13,-.4h13m-13,12.7V934.8m13,-.4h13m-13,12.7V934.8m13,-.4h13.3m-13.3,12.7V934.8m12.9,12.3V934.8M320.6,947.4H334M321,960V947.8m13,-.4h12.9M334,960V947.8m12.9,-.4h13m-13,12.6V947.8m13,-.4h13m-13,12.6V947.8m13,-.4h13m-13,12.6V947.8m13,-.4h13m-13,12.6V947.8m13,-.4h13m-13,12.6V947.8m13,-.4h13m-13,12.6V947.8m13,-.4h13m-13,12.6V947.8m13,-.4h13m-13,12.6V947.8m13,-.4h13m-13,12.6V947.8m13,-.4h13m-13,12.6V947.8m13,-.4h13m-13,12.6V947.8m13,-.4h13.3M489.9,960V947.8M502.8,960V947.8M320.6,960.4H334M321,973V960.8m13,-.4h12.9M334,973V960.8m12.9,-.4h13m-13,12.6V960.8m13,-.4h13m-13,12.6V960.8m13,-.4h13m-13,12.6V960.8m13,-.4h13m-13,12.6V960.8m13,-.4h13m-13,12.6V960.8m13,-.4h13m-13,12.6V960.8m13,-.4h13m-13,12.6V960.8m13,-.4h13m-13,12.6V960.8m13,-.4h13m-13,12.6V960.8m13,-.4h13m-13,12.6V960.8m13,-.4h13m-13,12.6V960.8m13,-.4h13.3M489.9,973V960.8M502.8,973V960.8M320.6,973.4H334M321,986V973.8m13,-.4h12.9M334,986V973.8m12.9,-.4h13m-13,12.6V973.8m13,-.4h13m-13,12.6V973.8m13,-.4h13m-13,12.6V973.8m13,-.4h13m-13,12.6V973.8m13,-.4h13m-13,12.6V973.8m13,-.4h13m-13,12.6V973.8m13,-.4h13m-13,12.6V973.8m13,-.4h13m-13,12.6V973.8m13,-.4h13m-13,12.6V973.8m13,-.4h13m-13,12.6V973.8m13,-.4h13m-13,12.6V973.8m13,-.4h13.3M489.9,986V973.8M502.8,986V973.8M320.6,986.4H334M321,999V986.8m13,-.4h12.9M334,999V986.8m12.9,-.4h13m-13,12.6V986.8m13,-.4h13m-13,12.6V986.8m13,-.4h13m-13,12.6V986.8m13,-.4h13m-13,12.6V986.8m13,-.4h13m-13,12.6V986.8m13,-.4h13m-13,12.6V986.8m13,-.4h13m-13,12.6V986.8m13,-.4h13m-13,12.6V986.8m13,-.4h13m-13,12.6V986.8m13,-.4h13m-13,12.6V986.8m13,-.4h13m-13,12.6V986.8m13,-.4h13.3M489.9,999V986.8M502.8,999V986.8M320.6,999.4H334M321,1012V999.8m13,-.4h12.9M334,1012V999.8m12.9,-.4h13m-13,12.6V999.8m13,-.4h13m-13,12.6V999.8m13,-.4h13m-13,12.6V999.8m13,-.4h13m-13,12.6V999.8m13,-.4h13m-13,12.6V999.8m13,-.4h13m-13,12.6V999.8m13,-.4h13m-13,12.6V999.8m13,-.4h13m-13,12.6V999.8m13,-.4h13m-13,12.6V999.8m13,-.4h13m-13,12.6V999.8m13,-.4h13m-13,12.6V999.8m13,-.4h13.3M489.9,1012V999.8m12.9,12.2V999.8m-182.2,12.6H334m0,0h12.9m0,0h13m0,0h13m0,0h13m0,0h13m0,0h13m0,0h13m0,0h13m0,0h13m0,0h13m0,0h13m0,0h13m0,0h13.3" class="g1_104"/>
<path d="M438.4,999.5L334,934.9l39.4,-51.5l117.4,51.1l-52.4,65Z" class="g2_104"/>
<path d="M547.4,397.7h11M547.7,408V398m10.7,-.3H569M558.4,408V398m10.6,-.3h10.7M569,408V398m10.7,-.3h10.7M579.7,408V398m10.7,-.3H601M590.4,408V398m10.6,-.3h10.7M601,408V398m10.7,-.3h10.6M611.7,408V398m10.6,-.3H633M622.3,408V398m10.7,-.3h10.6M633,408V398m10.6,-.3h10.7M643.6,408V398m10.7,-.3H665M654.3,408V398m10.7,-.3h10.6M665,408V398m10.6,-.3h10.7M675.6,408V398m10.7,-.3h10.6M686.3,408V398m10.6,-.3h10.7M696.9,408V398m10.7,-.3h10.7M707.6,408V398m10.7,-.3h10.6M718.3,408V398m10.6,-.3h10.7M728.9,408V398m10.7,-.3h10.6M739.6,408V398m10.6,-.3h10.7M750.2,408V398m10.7,-.3h10.7M760.9,408V398m10.7,-.3h10.6M771.6,408V398m10.6,-.3h10.7M782.2,408V398m10.7,-.3h10.6M792.9,408V398m10.6,-.3h10.7M803.5,408V398m10.7,-.3h10.7M814.2,408V398m10.7,-.3h10.9M824.9,408V398m10.6,10V398M547.4,408.3h11m-10.7,10.4V408.6m10.7,-.3H569m-10.6,10.4V408.6m10.6,-.3h10.7M569,418.7V408.6m10.7,-.3h10.7m-10.7,10.4V408.6m10.7,-.3H601m-10.6,10.4V408.6m10.6,-.3h10.7M601,418.7V408.6m10.7,-.3h10.6m-10.6,10.4V408.6m10.6,-.3H633m-10.7,10.4V408.6m10.7,-.3h10.6M633,418.7V408.6m10.6,-.3h10.7m-10.7,10.4V408.6m10.7,-.3H665m-10.7,10.4V408.6m10.7,-.3h10.6M665,418.7V408.6m10.6,-.3h10.7m-10.7,10.4V408.6m10.7,-.3h10.6m-10.6,10.4V408.6m10.6,-.3h10.7m-10.7,10.4V408.6m10.7,-.3h10.7m-10.7,10.4V408.6m10.7,-.3h10.6m-10.6,10.4V408.6m10.6,-.3h10.7m-10.7,10.4V408.6m10.7,-.3h10.6m-10.6,10.4V408.6m10.6,-.3h10.7m-10.7,10.4V408.6m10.7,-.3h10.7m-10.7,10.4V408.6m10.7,-.3h10.6m-10.6,10.4V408.6m10.6,-.3h10.7m-10.7,10.4V408.6m10.7,-.3h10.6m-10.6,10.4V408.6m10.6,-.3h10.7m-10.7,10.4V408.6m10.7,-.3h10.7m-10.7,10.4V408.6m10.7,-.3h10.9m-10.9,10.4V408.6m10.6,10.1V408.6M547.4,419h11m-10.7,10.3v-10m10.7,-.3H569m-10.6,10.3v-10M569,419h10.7M569,429.3v-10m10.7,-.3h10.7m-10.7,10.3v-10m10.7,-.3H601m-10.6,10.3v-10M601,419h10.7M601,429.3v-10m10.7,-.3h10.6m-10.6,10.3v-10m10.6,-.3H633m-10.7,10.3v-10M633,419h10.6M633,429.3v-10m10.6,-.3h10.7m-10.7,10.3v-10m10.7,-.3H665m-10.7,10.3v-10M665,419h10.6M665,429.3v-10m10.6,-.3h10.7m-10.7,10.3v-10m10.7,-.3h10.6m-10.6,10.3v-10m10.6,-.3h10.7m-10.7,10.3v-10m10.7,-.3h10.7m-10.7,10.3v-10m10.7,-.3h10.6m-10.6,10.3v-10m10.6,-.3h10.7m-10.7,10.3v-10m10.7,-.3h10.6m-10.6,10.3v-10m10.6,-.3h10.7m-10.7,10.3v-10m10.7,-.3h10.7m-10.7,10.3v-10m10.7,-.3h10.6m-10.6,10.3v-10m10.6,-.3h10.7m-10.7,10.3v-10m10.7,-.3h10.6m-10.6,10.3v-10m10.6,-.3h10.7m-10.7,10.3v-10m10.7,-.3h10.7m-10.7,10.3v-10m10.7,-.3h10.9m-10.9,10.3v-10m10.6,10v-10M547.4,429.6h11M547.7,440V429.9m10.7,-.3H569M558.4,440V429.9m10.6,-.3h10.7M569,440V429.9m10.7,-.3h10.7M579.7,440V429.9m10.7,-.3H601M590.4,440V429.9m10.6,-.3h10.7M601,440V429.9m10.7,-.3h10.6M611.7,440V429.9m10.6,-.3H633M622.3,440V429.9m10.7,-.3h10.6M633,440V429.9m10.6,-.3h10.7M643.6,440V429.9m10.7,-.3H665M654.3,440V429.9m10.7,-.3h10.6M665,440V429.9m10.6,-.3h10.7M675.6,440V429.9m10.7,-.3h10.6M686.3,440V429.9m10.6,-.3h10.7M696.9,440V429.9m10.7,-.3h10.7M707.6,440V429.9m10.7,-.3h10.6M718.3,440V429.9m10.6,-.3h10.7M728.9,440V429.9m10.7,-.3h10.6M739.6,440V429.9m10.6,-.3h10.7M750.2,440V429.9m10.7,-.3h10.7M760.9,440V429.9m10.7,-.3h10.6M771.6,440V429.9m10.6,-.3h10.7M782.2,440V429.9m10.7,-.3h10.6M792.9,440V429.9m10.6,-.3h10.7M803.5,440V429.9m10.7,-.3h10.7M814.2,440V429.9m10.7,-.3h10.9M824.9,440V429.9M835.5,440V429.9M547.4,440.3h11m-10.7,10.3v-10m10.7,-.3H569m-10.6,10.3v-10m10.6,-.3h10.7M569,450.6v-10m10.7,-.3h10.7m-10.7,10.3v-10m10.7,-.3H601m-10.6,10.3v-10m10.6,-.3h10.7M601,450.6v-10m10.7,-.3h10.6m-10.6,10.3v-10m10.6,-.3H633m-10.7,10.3v-10m10.7,-.3h10.6M633,450.6v-10m10.6,-.3h10.7m-10.7,10.3v-10m10.7,-.3H665m-10.7,10.3v-10m10.7,-.3h10.6M665,450.6v-10m10.6,-.3h10.7m-10.7,10.3v-10m10.7,-.3h10.6m-10.6,10.3v-10m10.6,-.3h10.7m-10.7,10.3v-10m10.7,-.3h10.7m-10.7,10.3v-10m10.7,-.3h10.6m-10.6,10.3v-10m10.6,-.3h10.7m-10.7,10.3v-10m10.7,-.3h10.6m-10.6,10.3v-10m10.6,-.3h10.7m-10.7,10.3v-10m10.7,-.3h10.7m-10.7,10.3v-10m10.7,-.3h10.6m-10.6,10.3v-10m10.6,-.3h10.7m-10.7,10.3v-10m10.7,-.3h10.6m-10.6,10.3v-10m10.6,-.3h10.7m-10.7,10.3v-10m10.7,-.3h10.7m-10.7,10.3v-10m10.7,-.3h10.9m-10.9,10.3v-10m10.6,10v-10M547.4,451h11m-10.7,10.3v-10m10.7,-.3H569m-10.6,10.3v-10M569,451h10.7M569,461.3v-10m10.7,-.3h10.7m-10.7,10.3v-10m10.7,-.3H601m-10.6,10.3v-10M601,451h10.7M601,461.3v-10m10.7,-.3h10.6m-10.6,10.3v-10m10.6,-.3H633m-10.7,10.3v-10M633,451h10.6M633,461.3v-10m10.6,-.3h10.7m-10.7,10.3v-10m10.7,-.3H665m-10.7,10.3v-10M665,451h10.6M665,461.3v-10m10.6,-.3h10.7m-10.7,10.3v-10m10.7,-.3h10.6m-10.6,10.3v-10m10.6,-.3h10.7m-10.7,10.3v-10m10.7,-.3h10.7m-10.7,10.3v-10m10.7,-.3h10.6m-10.6,10.3v-10m10.6,-.3h10.7m-10.7,10.3v-10m10.7,-.3h10.6m-10.6,10.3v-10m10.6,-.3h10.7m-10.7,10.3v-10m10.7,-.3h10.7m-10.7,10.3v-10m10.7,-.3h10.6m-10.6,10.3v-10m10.6,-.3h10.7m-10.7,10.3v-10m10.7,-.3h10.6m-10.6,10.3v-10m10.6,-.3h10.7m-10.7,10.3v-10m10.7,-.3h10.7m-10.7,10.3v-10m10.7,-.3h10.9m-10.9,10.3v-10m10.6,10v-10M547.4,461.6h11M547.7,472V461.9m10.7,-.3H569M558.4,472V461.9m10.6,-.3h10.7M569,472V461.9m10.7,-.3h10.7M579.7,472V461.9m10.7,-.3H601M590.4,472V461.9m10.6,-.3h10.7M601,472V461.9m10.7,-.3h10.6M611.7,472V461.9m10.6,-.3H633M622.3,472V461.9m10.7,-.3h10.6M633,472V461.9m10.6,-.3h10.7M643.6,472V461.9m10.7,-.3H665M654.3,472V461.9m10.7,-.3h10.6M665,472V461.9m10.6,-.3h10.7M675.6,472V461.9m10.7,-.3h10.6M686.3,472V461.9m10.6,-.3h10.7M696.9,472V461.9m10.7,-.3h10.7M707.6,472V461.9m10.7,-.3h10.6M718.3,472V461.9m10.6,-.3h10.7M728.9,472V461.9m10.7,-.3h10.6M739.6,472V461.9m10.6,-.3h10.7M750.2,472V461.9m10.7,-.3h10.7M760.9,472V461.9m10.7,-.3h10.6M771.6,472V461.9m10.6,-.3h10.7M782.2,472V461.9m10.7,-.3h10.6M792.9,472V461.9m10.6,-.3h10.7M803.5,472V461.9m10.7,-.3h10.7M814.2,472V461.9m10.7,-.3h10.9M824.9,472V461.9M835.5,472V461.9M547.4,472.3h11m-10.7,10.3v-10m10.7,-.3H569m-10.6,10.3v-10m10.6,-.3h10.7M569,482.6v-10m10.7,-.3h10.7m-10.7,10.3v-10m10.7,-.3H601m-10.6,10.3v-10m10.6,-.3h10.7M601,482.6v-10m10.7,-.3h10.6m-10.6,10.3v-10m10.6,-.3H633m-10.7,10.3v-10m10.7,-.3h10.6M633,482.6v-10m10.6,-.3h10.7m-10.7,10.3v-10m10.7,-.3H665m-10.7,10.3v-10m10.7,-.3h10.6M665,482.6v-10m10.6,-.3h10.7m-10.7,10.3v-10m10.7,-.3h10.6m-10.6,10.3v-10m10.6,-.3h10.7m-10.7,10.3v-10m10.7,-.3h10.7m-10.7,10.3v-10m10.7,-.3h10.6m-10.6,10.3v-10m10.6,-.3h10.7m-10.7,10.3v-10m10.7,-.3h10.6m-10.6,10.3v-10m10.6,-.3h10.7m-10.7,10.3v-10m10.7,-.3h10.7m-10.7,10.3v-10m10.7,-.3h10.6m-10.6,10.3v-10m10.6,-.3h10.7m-10.7,10.3v-10m10.7,-.3h10.6m-10.6,10.3v-10m10.6,-.3h10.7m-10.7,10.3v-10m10.7,-.3h10.7m-10.7,10.3v-10m10.7,-.3h10.9m-10.9,10.3v-10m10.6,10v-10M547.4,482.9h11m-10.7,10.4V483.2m10.7,-.3H569m-10.6,10.4V483.2m10.6,-.3h10.7M569,493.3V483.2m10.7,-.3h10.7m-10.7,10.4V483.2m10.7,-.3H601m-10.6,10.4V483.2m10.6,-.3h10.7M601,493.3V483.2m10.7,-.3h10.6m-10.6,10.4V483.2m10.6,-.3H633m-10.7,10.4V483.2m10.7,-.3h10.6M633,493.3V483.2m10.6,-.3h10.7m-10.7,10.4V483.2m10.7,-.3H665m-10.7,10.4V483.2m10.7,-.3h10.6M665,493.3V483.2m10.6,-.3h10.7m-10.7,10.4V483.2m10.7,-.3h10.6m-10.6,10.4V483.2m10.6,-.3h10.7m-10.7,10.4V483.2m10.7,-.3h10.7m-10.7,10.4V483.2m10.7,-.3h10.6m-10.6,10.4V483.2m10.6,-.3h10.7m-10.7,10.4V483.2m10.7,-.3h10.6m-10.6,10.4V483.2m10.6,-.3h10.7m-10.7,10.4V483.2m10.7,-.3h10.7m-10.7,10.4V483.2m10.7,-.3h10.6m-10.6,10.4V483.2m10.6,-.3h10.7m-10.7,10.4V483.2m10.7,-.3h10.6m-10.6,10.4V483.2m10.6,-.3h10.7m-10.7,10.4V483.2m10.7,-.3h10.7m-10.7,10.4V483.2m10.7,-.3h10.9m-10.9,10.4V483.2m10.6,10.1V483.2M547.4,493.6h11m0,0H569m0,0h10.7m0,0h10.7m0,0H601m0,0h10.7m0,0h10.6m0,0H633m0,0h10.6m0,0h10.7m0,0H665m0,0h10.6m0,0h10.7m0,0h10.6m0,0h10.7m0,0h10.7m0,0h10.6m0,0h10.7m0,0h10.6m0,0h10.7m0,0h10.7m0,0h10.6m0,0h10.7m0,0h10.6m0,0h10.7m0,0h10.7m0,0h10.9" class="g3_104"/>
<path d="M601.1,472l-42.9,11l.2,-74.6l43,32.3l-.3,31.3Zm74.4,11.2l-63.8,.1V408.5l63.8,74.7Zm42.8,-.2h-32l32,-64h31.8l-31.8,64ZM824.4,461.8L761.1,483V440.5L824.9,419l-.5,42.8Z" class="g4_104"/>
<path d="M613.1,1011.4H786.4m-172.9,0V924.8m.1,.1H721.8m-.8,-.5l64.9,87" class="g2_104"/>
</svg>