<?xml version="1.0" encoding="UTF-8" standalone="no"?>
<!DOCTYPE svg PUBLIC "-//W3C//DTD SVG 1.1//EN"
"http://www.w3.org/Graphics/SVG/1.1/DTD/svg11.dtd">
<svg viewBox="0 0 909 1147" version="1.1" xmlns="http://www.w3.org/2000/svg" xmlns:xlink="http://www.w3.org/1999/xlink">
<defs>
<clipPath id="c0_71"><path d="M125.9,440.2c-.4,0,-.7,0,-1,-.1h-.1c-4,-1.3,-7.7,-3.3,-10.9,-5.4c-.6,-.1,-1.2,-.3,-1.8,-.5c0,-.1,-.1,-.2,-.1,-.3l-.2,-.3h-.6c-.1,-.2,-.2,-.4,-.3,-.6h-.5c-.1,-.2,-.2,-.4,-.3,-.6c-.6,-.2,-1.2,-.4,-1.8,-.6c-.1,-.2,-.2,-.4,-.3,-.6c-.4,-.1,-.8,-.2,-1.2,-.3c-.1,-.2,-.2,-.4,-.3,-.6h-.6c-.1,-.2,-.2,-.4,-.3,-.6H105c-.1,-.2,-.2,-.4,-.3,-.6c-.3,-.1,-.7,-.2,-1.1,-.3v-.3c-.3,0,-.6,-.1,-.9,-.2c-.1,-.2,-.2,-.4,-.3,-.6h-.6c-.1,-.2,-.2,-.4,-.3,-.6c-.6,-.5,-1.2,-1,-1.8,-1.5V425c-.3,-.2,-.6,-.4,-.9,-.6c-.3,-.5,0,-.6,-.6,-1.2c0,-.3,0,-.7,0,-1c0,-2.3,.3,-3.8,.9,-5.5v-.8c.2,-.1,.4,-.2,.6,-.3c.3,-.9,.6,-1.8,.9,-2.7c.2,-.1,.4,-.2,.6,-.3v-.9c.2,-.1,.4,-.2,.6,-.3v-.6h.3v-.6h.3v-.5h.3v-.6h.3v-.6c.2,-.1,.4,-.2,.6,-.3l.3,-1.2c.2,-.1,.4,-.2,.5,-.3v-.9c.2,-.1,.4,-.2,.6,-.3v-.6h.3v-.6h.3v-.5h.3v-.6h.3c.1,-.3,.2,-.6,.3,-.9c.2,-.1,.4,-.2,.6,-.3c.2,-.6,.4,-1.2,.6,-1.8c.2,-.1,.4,-.2,.6,-.3c.2,-.6,.4,-1.2,.6,-1.8c.2,-.1,.4,-.2,.6,-.3l.3,-1.1h.3c.1,-.3,.2,-.6,.3,-.9c.1,-.1,.3,-.2,.5,-.3l.3,-1.2h.3c.1,-.3,.2,-.6,.3,-.9c.2,-.1,.4,-.2,.6,-.3l.3,-1.2c.2,-.1,.4,-.2,.6,-.2c.2,-.6,.4,-1.2,.6,-1.8c.2,-.1,.4,-.2,.6,-.3c.1,-.4,.2,-.8,.3,-1.2c.2,-.1,.4,-.2,.6,-.3c.2,-.6,.4,-1.2,.6,-1.8h.3v-.6h.3c.1,-.5,.3,-1.1,.5,-1.7h.3c.1,-.6,.2,-1.2,.3,-1.8h.3v-.6h.3c.1,-.7,.2,-1.4,.3,-2.1h.3c.1,-.6,.2,-1.3,.3,-2h.3c.2,-.6,.4,-1.2,.6,-1.8h.3l.3,-1.2c.2,-.1,.4,-.2,.6,-.3c.2,-.6,.4,-1.1,.6,-1.7c.2,-.1,.4,-.2,.6,-.3v-.6h.3V371c.1,-.1,.3,-.2,.5,-.3v-.6c1.4,-1.7,2.8,-3.3,4.2,-5c1,-.7,2.4,-.9,3.2,-1.8q.1,0,.1,0c.1,0,.2,0,.2,0c2.8,0,5.3,.8,7.4,1.6c.5,.1,1,.3,1.5,.5c.7,.1,1.3,.2,2,.3v.3c.7,.1,1.4,.2,2.1,.3v.3h.6v.3c1,.2,2,.3,2.9,.5v.3h.6v.3h.9v.3c.4,.1,.8,.2,1.2,.3v.3h.9v.3h.6v.3h.9v.3c.6,.2,1.1,.4,1.7,.6v.3h.6v.3c.6,.2,1.2,.4,1.8,.6c.1,.2,.2,.4,.3,.6h.6c.3,.4,.6,.8,.9,1.1c.3,.1,.6,.2,.9,.3v.6c.2,.2,.5,.4,.8,.6v.6c.2,.1,.4,.2,.6,.3c.5,1.7,1,3.4,1.5,5v3h.3c-.1,1.9,-.2,3.7,-.3,5.6H162v.9c-1,1.3,-2,2.5,-2.9,3.8h-.6c-.2,.3,-.4,.6,-.6,.9c-.2,.1,-.4,.2,-.6,.3v.6c-.3,.2,-.6,.4,-.9,.6v.6c-.2,.1,-.4,.2,-.6,.3c-.2,.5,-.4,1.1,-.6,1.7c-.2,.1,-.4,.2,-.6,.3v.6c-.2,.1,-.4,.2,-.6,.3v.6h-.3v.9c-.2,.1,-.3,.2,-.5,.3c-.2,.6,-.4,1.2,-.6,1.8c-.2,.1,-.4,.1,-.6,.2c-.1,.4,-.2,.8,-.3,1.2h-.3v.6h-.3v.6c-.2,.1,-.4,.2,-.6,.3v.6h-.3v.6h-.3v.6h-.3v.6c-.2,.1,-.4,.2,-.6,.3c-.2,.6,-.4,1.1,-.6,1.7c-.2,.1,-.4,.2,-.6,.3v.6h-.3v.6h-.2v.6H147v.6h-.3v.6h-.3c-.1,.4,-.2,.8,-.3,1.2c-.2,.1,-.4,.2,-.6,.3c-.2,.5,-.4,1.1,-.6,1.7c-.2,.1,-.4,.2,-.6,.3c-.2,.6,-.4,1.2,-.6,1.8h-.3c-.1,.3,-.2,.6,-.3,.9c-.2,.1,-.4,.2,-.6,.3v.6h-.3v.6h-.3v.5h-.3v.6h-.3v.6c-.2,.1,-.3,.2,-.5,.3l-.1,.4c-.1,.3,-.2,.5,-.2,.8c-.2,.1,-.4,.2,-.6,.3c-.2,.6,-.4,1.2,-.6,1.8c-.2,.1,-.4,.2,-.6,.3v.6h-.3v.5h-.3v.6h-.3v.6h-.3v.6h-.3c-.1,.3,-.2,.6,-.3,.9c-.2,.1,-.4,.2,-.6,.3v.6H136c-.1,.3,-.2,.6,-.3,.9c-.2,.1,-.4,.2,-.6,.3v.6c-.1,.1,-.3,.2,-.5,.3c-.1,.2,-.2,.5,-.3,.8H134c-.1,.2,-.1,.4,-.2,.6l-.1,.6c-.5,.4,-1,.8,-1.5,1.2c-.3,.4,-.6,.8,-.9,1.2c0,0,-.1,.1,-.2,.1c-.7,.4,-2.4,.9,-3.9,1.1c-.1,0,-.2,0,-.2,0c-.3,.1,-.6,.1,-.8,.1c-.1,0,-.2,0,-.3,0Z"/></clipPath>
<clipPath id="c1_71"><path d="M555.4,813.5V673.3H760.6V813.5Z"/></clipPath>
<clipPath id="c2_71"><path d="M555.4,807.7V673.3H760.6V807.7Z"/></clipPath>
<clipPath id="c3_71"><path d="M232.6,1031.9V906.6H389.8v125.3Z"/></clipPath>
<style type="text/css"><![CDATA[
.g0_71{
fill: #B6D774;
}
.g1_71{
fill: #E8F1FA;
}
.g2_71{
fill: none;
stroke: #0EA5DF;
stroke-width: 3.055;
}
.g3_71{
fill: none;
stroke: #000;
stroke-width: 0.763;
stroke-miterlimit: 2;
}
.g4_71{
fill: #000;
}
.g5_71{
fill: none;
stroke: #000;
stroke-width: 0.152;
stroke-miterlimit: 2;
}
.g6_71{
fill: none;
stroke: #0EA5DF;
stroke-width: 0.763;
stroke-miterlimit: 10;
}
.g7_71{
fill: none;
stroke: #000;
stroke-width: 0.66;
stroke-miterlimit: 2;
}
.g8_71{
fill: #FFEFCF;
}
.g9_71{
fill: none;
stroke: #000;
stroke-width: 0.763;
}
.ga_71{
fill: #FFF1E0;
}
.gb_71{
fill: none;
stroke: #000;
stroke-width: 0.66;
stroke-miterlimit: 2;
stroke-dasharray: 4,2;
}
]]></style>
</defs>
<path d="M835.8,1131h73.6v-51.5H835.8V1131Z" class="g0_71"/>
<path d="M186.1,1078.3H836.8V596.5H186.1v481.8Z" class="g1_71"/>
<path d="M74.6,595.9H836.8" class="g2_71"/>
<path d="M289.1,181.7l-87.3,60.8m130.1,.4l-130.2,-.3m87.1,-61.1l42.9,61.6M297.5,194.2c-6.7,1.6,-14.1,.8,-19.3,-4.6" class="g3_71"/>
<path fill-rule="evenodd" d="M286.9,189.7c-.6,.3,-1.4,.1,-1.7,-.5c-.4,-.6,-.1,-1.4,.5,-1.7c.6,-.4,1.3,-.2,1.7,.4c.3,.6,.1,1.4,-.5,1.8Z" class="g4_71"/>
<path d="M286.9,189.7c-.6,.3,-1.4,.1,-1.7,-.5c-.4,-.6,-.1,-1.4,.5,-1.7c.6,-.4,1.3,-.2,1.7,.4c.3,.6,.1,1.4,-.5,1.8Z" class="g5_71"/>
<path fill-rule="evenodd" d="M196.6,239l-.9,10.1c-.1,.5,-.1,.8,-.1,1c0,.2,0,.4,.1,.5c.2,.2,.3,.3,.5,.4c.2,.1,.5,.1,1,.1l-.1,.4h-4.8l.1,-.4h.2c.4,0,.7,-.1,1,-.2c.1,-.1,.3,-.3,.4,-.6c0,-.2,.1,-.6,.1,-1.3l.2,-1.5h-3.5l-1.2,1.6c-.3,.4,-.5,.7,-.5,.8c-.1,.2,-.2,.4,-.2,.5c0,.2,.1,.4,.3,.5c.1,.1,.4,.2,.7,.2v.4h-3.6l.1,-.4c.4,0,.8,-.1,1.1,-.4c.4,-.3,.9,-.9,1.5,-1.8l7.3,-9.9Zm-1.8,3l-3.5,4.8h3.1Z" class="g4_71"/>
<path d="M196.6,239l-.9,10.1c-.1,.5,-.1,.8,-.1,1c0,.2,0,.4,.1,.5c.2,.2,.3,.3,.5,.4c.2,.1,.5,.1,1,.1l-.1,.4h-4.8l.1,-.4h.2c.4,0,.7,-.1,1,-.2c.1,-.1,.3,-.3,.4,-.6c0,-.2,.1,-.6,.1,-1.3l.2,-1.5h-3.5l-1.2,1.6c-.3,.4,-.5,.7,-.5,.8c-.1,.2,-.2,.4,-.2,.5c0,.2,.1,.4,.3,.5c.1,.1,.4,.2,.7,.2v.4h-3.6l.1,-.4c.4,0,.8,-.1,1.1,-.4c.4,-.3,.9,-.9,1.5,-1.8l7.3,-9.9h.3Zm-1.8,3l-3.5,4.8h3.1l.4,-4.8Z" class="g5_71"/>
<path fill-rule="evenodd" d="M336.7,238.9l.1,-.3h4.4c.7,0,1.4,.1,1.9,.3c.6,.3,1,.6,1.3,1c.3,.4,.4,.8,.4,1.3c0,.7,-.2,1.3,-.7,1.9c-.5,.5,-1.4,1,-2.5,1.2c.7,.3,1.3,.7,1.6,1.1c.4,.5,.6,1,.6,1.5c0,.6,-.2,1.2,-.5,1.7c-.3,.6,-.7,1,-1.2,1.3c-.5,.3,-1.1,.5,-1.8,.7c-.5,.1,-1.2,.1,-2.3,.1h-4.4l.1,-.3c.5,0,.8,0,1,-.1c.2,-.1,.4,-.3,.5,-.4c.1,-.3,.3,-.8,.5,-1.6l2.2,-7.3c.2,-.7,.3,-1.1,.3,-1.3c0,-.3,-.1,-.4,-.3,-.6c-.1,-.1,-.4,-.2,-.9,-.2c-.1,0,-.2,0,-.3,0m1.8,5.1c.4,0,.7,0,.9,0c1.2,0,2.1,-.3,2.8,-.8c.6,-.6,.9,-1.2,.9,-2c0,-.7,-.2,-1.1,-.6,-1.5c-.4,-.3,-1,-.5,-1.8,-.5c-.2,0,-.5,0,-.8,.1Zm-1.7,6c.6,0,1.1,.1,1.5,.1c.9,0,1.7,-.3,2.5,-.9c.7,-.5,1,-1.3,1,-2.2c0,-.8,-.2,-1.4,-.6,-1.8c-.5,-.4,-1.2,-.6,-2.2,-.6c-.2,0,-.4,0,-.7,0Z" class="g4_71"/>
<path d="M336.7,238.9l.1,-.3h4.4c.7,0,1.4,.1,1.9,.3c.6,.3,1,.6,1.3,1c.3,.4,.4,.8,.4,1.3c0,.7,-.2,1.3,-.7,1.9c-.5,.5,-1.4,1,-2.5,1.2c.7,.3,1.3,.7,1.6,1.1c.4,.5,.6,1,.6,1.5c0,.6,-.2,1.2,-.5,1.7c-.3,.6,-.7,1,-1.2,1.3c-.5,.3,-1.1,.5,-1.8,.7c-.5,.1,-1.2,.1,-2.3,.1h-4.4l.1,-.3c.5,0,.8,0,1,-.1c.2,-.1,.4,-.3,.5,-.4c.1,-.3,.3,-.8,.5,-1.6l2.2,-7.3c.2,-.7,.3,-1.1,.3,-1.3c0,-.3,-.1,-.4,-.3,-.6c-.1,-.1,-.4,-.2,-.9,-.2c-.1,0,-.2,0,-.3,0Zm1.8,5.1c.4,0,.7,0,.9,0c1.2,0,2.1,-.3,2.8,-.8c.6,-.6,.9,-1.2,.9,-2c0,-.7,-.2,-1.1,-.6,-1.5c-.4,-.3,-1,-.5,-1.8,-.5c-.2,0,-.5,0,-.8,.1l-1.4,4.7Zm-1.7,6c.6,0,1.1,.1,1.5,.1c.9,0,1.7,-.3,2.5,-.9c.7,-.5,1,-1.3,1,-2.2c0,-.8,-.2,-1.4,-.6,-1.8c-.5,-.4,-1.2,-.6,-2.2,-.6c-.2,0,-.4,0,-.7,0l-1.5,5.4Z" class="g5_71"/>
<path fill-rule="evenodd" d="M299.9,166.1L299,170h-.3l-.1,-1c0,-.3,-.1,-.7,-.2,-.9c-.1,-.3,-.3,-.6,-.5,-.8c-.2,-.2,-.5,-.3,-.8,-.5c-.3,-.1,-.7,-.1,-1.1,-.1c-1,0,-2,.3,-2.8,.8c-1,.8,-1.8,1.8,-2.4,3.2c-.5,1.1,-.7,2.3,-.7,3.4c0,1.2,.3,2.1,1,2.8c.7,.7,1.6,1.1,2.7,1.1c.8,0,1.6,-.2,2.2,-.6c.7,-.3,1.3,-.9,1.8,-1.7h.4c-.6,1.1,-1.3,1.8,-2.1,2.3c-.8,.5,-1.8,.8,-2.9,.8c-1,0,-1.9,-.2,-2.6,-.7c-.8,-.4,-1.4,-1,-1.8,-1.7c-.4,-.8,-.6,-1.6,-.6,-2.4c0,-1.4,.4,-2.7,1.1,-3.9c.7,-1.3,1.7,-2.2,2.9,-3c1.2,-.7,2.5,-1,3.8,-1c.5,0,1.2,.1,1.9,.4c.4,.1,.6,.2,.7,.2c.2,0,.3,-.1,.4,-.1c.1,-.1,.3,-.3,.5,-.5Z" class="g4_71"/>
<path d="M299.9,166.1L299,170h-.3l-.1,-1c0,-.3,-.1,-.7,-.2,-.9c-.1,-.3,-.3,-.6,-.5,-.8c-.2,-.2,-.5,-.3,-.8,-.5c-.3,-.1,-.7,-.1,-1.1,-.1c-1,0,-2,.3,-2.8,.8c-1,.8,-1.8,1.8,-2.4,3.2c-.5,1.1,-.7,2.3,-.7,3.4c0,1.2,.3,2.1,1,2.8c.7,.7,1.6,1.1,2.7,1.1c.8,0,1.6,-.2,2.2,-.6c.7,-.3,1.3,-.9,1.8,-1.7h.4c-.6,1.1,-1.3,1.8,-2.1,2.3c-.8,.5,-1.8,.8,-2.9,.8c-1,0,-1.9,-.2,-2.6,-.7c-.8,-.4,-1.4,-1,-1.8,-1.7c-.4,-.8,-.6,-1.6,-.6,-2.4c0,-1.4,.4,-2.7,1.1,-3.9c.7,-1.3,1.7,-2.2,2.9,-3c1.2,-.7,2.5,-1,3.8,-1c.5,0,1.2,.1,1.9,.4c.4,.1,.6,.2,.7,.2c.2,0,.3,-.1,.4,-.1c.1,-.1,.3,-.3,.5,-.5h.4Z" class="g5_71"/>
<path fill-rule="evenodd" d="M243,193.8l-1.8,6.1c.6,-.6,1.1,-1,1.5,-1.2c.4,-.2,.9,-.3,1.3,-.3c.7,0,1.2,.2,1.6,.6c.5,.5,.7,1.1,.7,1.8c0,1,-.3,1.9,-.9,2.9c-.5,.9,-1.2,1.7,-2,2.2c-.9,.5,-1.7,.8,-2.5,.8c-.9,0,-1.8,-.3,-2.8,-1l2.8,-9.4c.2,-.7,.3,-1.1,.3,-1.3c0,-.1,-.1,-.2,-.2,-.3c-.1,-.1,-.3,-.2,-.6,-.2c-.1,0,-.3,.1,-.5,.1v-.3Zm-3.5,12c.6,.3,1.1,.5,1.6,.5c.5,0,1,-.2,1.6,-.6c.6,-.4,1.1,-1,1.5,-1.9c.4,-1,.6,-1.9,.6,-2.8c0,-.6,-.1,-1,-.4,-1.3c-.3,-.3,-.6,-.5,-1,-.5c-.5,0,-1.1,.3,-1.6,.7c-.5,.4,-.9,1.1,-1.1,1.9Z" class="g4_71"/>
<path d="M243,193.8l-1.8,6.1c.6,-.6,1.1,-1,1.5,-1.2c.4,-.2,.9,-.3,1.3,-.3c.7,0,1.2,.2,1.6,.6c.5,.5,.7,1.1,.7,1.8c0,1,-.3,1.9,-.9,2.9c-.5,.9,-1.2,1.7,-2,2.2c-.9,.5,-1.7,.8,-2.5,.8c-.9,0,-1.8,-.3,-2.8,-1l2.8,-9.4c.2,-.7,.3,-1.1,.3,-1.3c0,-.1,-.1,-.2,-.2,-.3c-.1,-.1,-.3,-.2,-.6,-.2c-.1,0,-.3,.1,-.5,.1v-.3l3.1,-.5Zm-3.5,12c.6,.3,1.1,.5,1.6,.5c.5,0,1,-.2,1.6,-.6c.6,-.4,1.1,-1,1.5,-1.9c.4,-1,.6,-1.9,.6,-2.8c0,-.6,-.1,-1,-.4,-1.3c-.3,-.3,-.6,-.5,-1,-.5c-.5,0,-1.1,.3,-1.6,.7c-.5,.4,-.9,1.1,-1.1,1.9l-1.2,4Z" class="g5_71"/>
<path fill-rule="evenodd" d="M323.5,204.8l-1.7,6.1l-.2,.8q0,.1,0,.2c0,.1,0,.2,.1,.3c0,0,.1,0,.1,0c.1,0,.2,0,.3,-.1c.3,-.2,.6,-.5,1,-1.1l.3,.2c-.4,.7,-.9,1.1,-1.3,1.5c-.4,.3,-.8,.4,-1.2,.4c-.3,0,-.5,0,-.6,-.2c-.1,-.1,-.2,-.3,-.2,-.5c0,-.3,.1,-.7,.2,-1.2l.2,-.6c-.8,1,-1.5,1.7,-2.2,2.1c-.4,.3,-.9,.4,-1.3,.4c-.5,0,-.9,-.1,-1.2,-.5c-.3,-.4,-.4,-.9,-.4,-1.5c0,-.9,.2,-1.9,.8,-3c.6,-1,1.3,-1.9,2.2,-2.5c.7,-.5,1.3,-.8,1.9,-.8c.4,0,.7,.1,.9,.3c.3,.2,.5,.5,.6,1l.3,-1.1Zm-3.2,.5c-.3,0,-.7,.2,-1.2,.5c-.6,.5,-1.1,1.3,-1.6,2.3c-.5,1,-.7,1.9,-.7,2.7c0,.4,.1,.7,.3,.9c.2,.3,.4,.4,.7,.4c.6,0,1.4,-.5,2.1,-1.4c1,-1.3,1.5,-2.6,1.5,-4c0,-.5,-.1,-.8,-.3,-1.1c-.1,-.2,-.4,-.3,-.8,-.3Z" class="g4_71"/>
<path d="M323.5,204.8l-1.7,6.1l-.2,.8q0,.1,0,.2c0,.1,0,.2,.1,.3c0,0,.1,0,.1,0c.1,0,.2,0,.3,-.1c.3,-.2,.6,-.5,1,-1.1l.3,.2c-.4,.7,-.9,1.1,-1.3,1.5c-.4,.3,-.8,.4,-1.2,.4c-.3,0,-.5,0,-.6,-.2c-.1,-.1,-.2,-.3,-.2,-.5c0,-.3,.1,-.7,.2,-1.2l.2,-.6c-.8,1,-1.5,1.7,-2.2,2.1c-.4,.3,-.9,.4,-1.3,.4c-.5,0,-.9,-.1,-1.2,-.5c-.3,-.4,-.4,-.9,-.4,-1.5c0,-.9,.2,-1.9,.8,-3c.6,-1,1.3,-1.9,2.2,-2.5c.7,-.5,1.3,-.8,1.9,-.8c.4,0,.7,.1,.9,.3c.3,.2,.5,.5,.6,1l.3,-1.1l1.4,-.2Zm-3.2,.5c-.3,0,-.7,.2,-1.2,.5c-.6,.5,-1.1,1.3,-1.6,2.3c-.5,1,-.7,1.9,-.7,2.7c0,.4,.1,.7,.3,.9c.2,.3,.4,.4,.7,.4c.6,0,1.4,-.5,2.1,-1.4c1,-1.3,1.5,-2.6,1.5,-4c0,-.5,-.1,-.8,-.3,-1.1c-.1,-.2,-.4,-.3,-.8,-.3Z" class="g5_71"/>
<path d="M290,420.9l-87.3,60.9m130.1,.4l-130.2,-.3m87.1,-61.2l42.9,61.7M298.4,433.5c-6.7,1.5,-14.1,.7,-19.2,-4.6" class="g3_71"/>
<path fill-rule="evenodd" d="M287.8,428.9c-.6,.4,-1.4,.2,-1.7,-.4c-.3,-.6,-.1,-1.4,.5,-1.8c.6,-.3,1.3,-.1,1.7,.5c.3,.6,.1,1.4,-.5,1.7Z" class="g4_71"/>
<path d="M287.8,428.9c-.6,.4,-1.4,.2,-1.7,-.4c-.3,-.6,-.1,-1.4,.5,-1.8c.6,-.3,1.3,-.1,1.7,.5c.3,.6,.1,1.4,-.5,1.7Z" class="g5_71"/>
<path fill-rule="evenodd" d="M197.5,478.3l-.9,10.1c-.1,.5,-.1,.8,-.1,.9c0,.3,.1,.5,.2,.6c.1,.2,.2,.3,.4,.4c.2,.1,.5,.1,1,.1l-.1,.3h-4.8l.1,-.3h.2c.4,0,.7,-.1,1,-.3c.1,-.1,.3,-.3,.4,-.5c0,-.2,.1,-.6,.2,-1.3l.1,-1.6h-3.5l-1.2,1.7c-.3,.4,-.5,.7,-.5,.8c-.1,.2,-.1,.3,-.1,.5c0,.2,0,.3,.2,.5c.1,.1,.4,.2,.8,.2l-.1,.3h-3.6l.1,-.3c.4,0,.8,-.2,1.1,-.4c.4,-.3,.9,-.9,1.5,-1.8l7.3,-9.9Zm-1.8,3l-3.5,4.8h3.1Z" class="g4_71"/>
<path d="M197.5,478.3l-.9,10.1c-.1,.5,-.1,.8,-.1,.9c0,.3,.1,.5,.2,.6c.1,.2,.2,.3,.4,.4c.2,.1,.5,.1,1,.1l-.1,.3h-4.8l.1,-.3h.2c.4,0,.7,-.1,1,-.3c.1,-.1,.3,-.3,.4,-.5c0,-.2,.1,-.6,.2,-1.3l.1,-1.6h-3.5l-1.2,1.7c-.3,.4,-.5,.7,-.5,.8c-.1,.2,-.1,.3,-.1,.5c0,.2,0,.3,.2,.5c.1,.1,.4,.2,.8,.2l-.1,.3h-3.6l.1,-.3c.4,0,.8,-.2,1.1,-.4c.4,-.3,.9,-.9,1.5,-1.8l7.3,-9.9h.3Zm-1.8,3l-3.5,4.8h3.1l.4,-4.8Z" class="g5_71"/>
<path fill-rule="evenodd" d="M337.6,478.2l.2,-.3h4.3c.7,0,1.4,.1,1.9,.3c.6,.2,1,.6,1.3,1c.3,.4,.4,.8,.4,1.3c0,.7,-.2,1.3,-.7,1.8c-.5,.6,-1.3,1,-2.5,1.3c.8,.3,1.3,.6,1.6,1.1c.4,.4,.6,.9,.6,1.5c0,.6,-.2,1.2,-.5,1.7c-.3,.6,-.7,1,-1.2,1.3c-.5,.3,-1.1,.5,-1.8,.7c-.4,.1,-1.2,.1,-2.3,.1h-4.4l.1,-.3c.5,0,.8,-.1,1,-.1c.2,-.2,.4,-.3,.5,-.5c.1,-.2,.3,-.7,.5,-1.5l2.2,-7.4c.2,-.6,.3,-1,.3,-1.3c0,-.2,-.1,-.4,-.2,-.5c-.2,-.1,-.5,-.2,-1,-.2c-.1,0,-.2,0,-.3,0m1.9,5c.3,.1,.6,.1,.8,.1c1.2,0,2.2,-.3,2.8,-.8c.6,-.6,.9,-1.3,.9,-2.1c0,-.6,-.2,-1.1,-.6,-1.4c-.4,-.4,-.9,-.5,-1.8,-.5c-.2,0,-.4,0,-.8,.1Zm-1.8,6c.6,.1,1.1,.2,1.5,.2c.9,0,1.8,-.3,2.5,-.9c.7,-.6,1.1,-1.3,1.1,-2.3c0,-.7,-.3,-1.3,-.7,-1.7c-.5,-.4,-1.2,-.6,-2.2,-.6c-.2,0,-.4,0,-.7,0Z" class="g4_71"/>
<path d="M337.6,478.2l.2,-.3h4.3c.7,0,1.4,.1,1.9,.3c.6,.2,1,.6,1.3,1c.3,.4,.4,.8,.4,1.3c0,.7,-.2,1.3,-.7,1.8c-.5,.6,-1.3,1,-2.5,1.3c.8,.3,1.3,.6,1.6,1.1c.4,.4,.6,.9,.6,1.5c0,.6,-.2,1.2,-.5,1.7c-.3,.6,-.7,1,-1.2,1.3c-.5,.3,-1.1,.5,-1.8,.7c-.4,.1,-1.2,.1,-2.3,.1h-4.4l.1,-.3c.5,0,.8,-.1,1,-.1c.2,-.2,.4,-.3,.5,-.5c.1,-.2,.3,-.7,.5,-1.5l2.2,-7.4c.2,-.6,.3,-1,.3,-1.3c0,-.2,-.1,-.4,-.2,-.5c-.2,-.1,-.5,-.2,-1,-.2c-.1,0,-.2,0,-.3,0Zm1.9,5c.3,.1,.6,.1,.8,.1c1.2,0,2.2,-.3,2.8,-.8c.6,-.6,.9,-1.3,.9,-2.1c0,-.6,-.2,-1.1,-.6,-1.4c-.4,-.4,-.9,-.5,-1.8,-.5c-.2,0,-.4,0,-.8,.1l-1.3,4.6Zm-1.8,6c.6,.1,1.1,.2,1.5,.2c.9,0,1.8,-.3,2.5,-.9c.7,-.6,1.1,-1.3,1.1,-2.3c0,-.7,-.3,-1.3,-.7,-1.7c-.5,-.4,-1.2,-.6,-2.2,-.6c-.2,0,-.4,0,-.7,0l-1.5,5.3Z" class="g5_71"/>
<path fill-rule="evenodd" d="M300.8,405.3l-.9,4h-.3l-.1,-1c0,-.4,-.1,-.7,-.2,-1c-.1,-.3,-.2,-.5,-.5,-.7c-.2,-.2,-.4,-.4,-.8,-.5c-.3,-.1,-.7,-.2,-1.1,-.2c-1,0,-2,.3,-2.8,.9c-1,.8,-1.8,1.8,-2.4,3.2c-.4,1.1,-.7,2.2,-.7,3.4c0,1.2,.4,2.1,1,2.8c.7,.7,1.6,1.1,2.7,1.1c.9,0,1.6,-.2,2.2,-.6c.7,-.4,1.3,-.9,1.8,-1.7h.5c-.7,1,-1.4,1.8,-2.2,2.3c-.8,.5,-1.8,.7,-2.9,.7c-1,0,-1.9,-.2,-2.6,-.6c-.8,-.4,-1.4,-1,-1.8,-1.7c-.4,-.8,-.6,-1.6,-.6,-2.5c0,-1.3,.4,-2.6,1.1,-3.8c.7,-1.3,1.7,-2.3,2.9,-3c1.3,-.7,2.5,-1.1,3.8,-1.1c.6,0,1.2,.2,2,.5c.3,.1,.5,.1,.6,.1c.2,0,.3,0,.4,0c.1,-.1,.3,-.3,.6,-.6Z" class="g4_71"/>
<path d="M300.8,405.3l-.9,4h-.3l-.1,-1c0,-.4,-.1,-.7,-.2,-1c-.1,-.3,-.2,-.5,-.5,-.7c-.2,-.2,-.4,-.4,-.8,-.5c-.3,-.1,-.7,-.2,-1.1,-.2c-1,0,-2,.3,-2.8,.9c-1,.8,-1.8,1.8,-2.4,3.2c-.4,1.1,-.7,2.2,-.7,3.4c0,1.2,.4,2.1,1,2.8c.7,.7,1.6,1.1,2.7,1.1c.9,0,1.6,-.2,2.2,-.6c.7,-.4,1.3,-.9,1.8,-1.7h.5c-.7,1,-1.4,1.8,-2.2,2.3c-.8,.5,-1.8,.7,-2.9,.7c-1,0,-1.9,-.2,-2.6,-.6c-.8,-.4,-1.4,-1,-1.8,-1.7c-.4,-.8,-.6,-1.6,-.6,-2.5c0,-1.3,.4,-2.6,1.1,-3.8c.7,-1.3,1.7,-2.3,2.9,-3c1.3,-.7,2.5,-1.1,3.8,-1.1c.6,0,1.2,.2,2,.5c.3,.1,.5,.1,.6,.1c.2,0,.3,0,.4,0c.1,-.1,.3,-.3,.6,-.6h.3Z" class="g5_71"/>
<path fill-rule="evenodd" d="M243.9,433l-1.8,6.2c.6,-.6,1.1,-1,1.5,-1.2c.4,-.2,.9,-.3,1.3,-.3c.7,0,1.2,.2,1.6,.6c.5,.4,.7,1,.7,1.8c0,.9,-.3,1.9,-.8,2.9c-.6,.9,-1.3,1.6,-2.1,2.2c-.8,.5,-1.7,.8,-2.5,.8c-.9,0,-1.8,-.4,-2.7,-1l2.7,-9.4c.2,-.7,.3,-1.2,.3,-1.3c0,-.1,-.1,-.3,-.1,-.3c-.2,-.1,-.4,-.2,-.7,-.2c-.1,0,-.3,0,-.5,.1v-.4Zm-3.5,12.1c.6,.3,1.1,.5,1.6,.5c.5,0,1,-.2,1.6,-.6c.6,-.4,1.1,-1.1,1.5,-2c.4,-.9,.6,-1.8,.6,-2.7c0,-.6,-.1,-1,-.4,-1.3c-.3,-.3,-.6,-.5,-1,-.5c-.5,0,-1.1,.2,-1.6,.7c-.5,.4,-.9,1,-1.1,1.8Z" class="g4_71"/>
<path d="M243.9,433l-1.8,6.2c.6,-.6,1.1,-1,1.5,-1.2c.4,-.2,.9,-.3,1.3,-.3c.7,0,1.2,.2,1.6,.6c.5,.4,.7,1,.7,1.8c0,.9,-.3,1.9,-.8,2.9c-.6,.9,-1.3,1.6,-2.1,2.2c-.8,.5,-1.7,.8,-2.5,.8c-.9,0,-1.8,-.4,-2.7,-1l2.7,-9.4c.2,-.7,.3,-1.2,.3,-1.3c0,-.1,-.1,-.3,-.1,-.3c-.2,-.1,-.4,-.2,-.7,-.2c-.1,0,-.3,0,-.5,.1v-.4l3.1,-.5Zm-3.5,12.1c.6,.3,1.1,.5,1.6,.5c.5,0,1,-.2,1.6,-.6c.6,-.4,1.1,-1.1,1.5,-2c.4,-.9,.6,-1.8,.6,-2.7c0,-.6,-.1,-1,-.4,-1.3c-.3,-.3,-.6,-.5,-1,-.5c-.5,0,-1.1,.2,-1.6,.7c-.5,.4,-.9,1,-1.1,1.8l-1.2,4.1Z" class="g5_71"/>
<path fill-rule="evenodd" d="M324.4,444.1l-1.7,6.1l-.2,.8q0,.1,0,.2c0,.1,0,.2,.1,.2c0,.1,.1,.1,.1,.1c.1,0,.2,0,.3,-.1c.3,-.2,.6,-.6,1,-1.1l.3,.2c-.4,.6,-.9,1.1,-1.3,1.4c-.4,.3,-.8,.5,-1.2,.5c-.3,0,-.4,-.1,-.6,-.2c-.1,-.1,-.2,-.3,-.2,-.5c0,-.3,.1,-.7,.2,-1.2l.2,-.7c-.8,1.1,-1.5,1.8,-2.1,2.2c-.5,.3,-1,.4,-1.4,.4c-.5,0,-.8,-.2,-1.2,-.5c-.3,-.4,-.4,-.9,-.4,-1.5c0,-1,.3,-2,.8,-3c.6,-1.1,1.3,-1.9,2.2,-2.6c.7,-.5,1.3,-.7,1.9,-.7c.4,0,.7,.1,.9,.3c.3,.2,.5,.5,.6,.9l.3,-1Zm-3.1,.5c-.4,0,-.8,.1,-1.3,.5c-.6,.5,-1.1,1.3,-1.6,2.3c-.5,.9,-.7,1.9,-.7,2.7c0,.4,.1,.7,.3,.9c.2,.3,.4,.4,.7,.4c.7,0,1.4,-.5,2.1,-1.5c1,-1.2,1.6,-2.6,1.6,-3.9c0,-.5,-.1,-.9,-.3,-1.1c-.2,-.2,-.5,-.3,-.8,-.3Z" class="g4_71"/>
<path d="M324.4,444.1l-1.7,6.1l-.2,.8q0,.1,0,.2c0,.1,0,.2,.1,.2c0,.1,.1,.1,.1,.1c.1,0,.2,0,.3,-.1c.3,-.2,.6,-.6,1,-1.1l.3,.2c-.4,.6,-.9,1.1,-1.3,1.4c-.4,.3,-.8,.5,-1.2,.5c-.3,0,-.4,-.1,-.6,-.2c-.1,-.1,-.2,-.3,-.2,-.5c0,-.3,.1,-.7,.2,-1.2l.2,-.7c-.8,1.1,-1.5,1.8,-2.1,2.2c-.5,.3,-1,.4,-1.4,.4c-.5,0,-.8,-.2,-1.2,-.5c-.3,-.4,-.4,-.9,-.4,-1.5c0,-1,.3,-2,.8,-3c.6,-1.1,1.3,-1.9,2.2,-2.6c.7,-.5,1.3,-.7,1.9,-.7c.4,0,.7,.1,.9,.3c.3,.2,.5,.5,.6,.9l.3,-1l1.4,-.2Zm-3.1,.5c-.4,0,-.8,.1,-1.3,.5c-.6,.5,-1.1,1.3,-1.6,2.3c-.5,.9,-.7,1.9,-.7,2.7c0,.4,.1,.7,.3,.9c.2,.3,.4,.4,.7,.4c.7,0,1.4,-.5,2.1,-1.5c1,-1.2,1.6,-2.6,1.6,-3.9c0,-.5,-.1,-.9,-.3,-1.1c-.2,-.2,-.5,-.3,-.8,-.3Z" class="g5_71"/>
<path d="M548.4,910.3h27.8m-27.4,19.1V910.7m27.4,-.4h73.7m-73.7,19.1V910.7m73.7,-.4h73.6m-73.6,19.1V910.7m73.6,-.4h74m-74,19.1V910.7m73.6,18.7V910.7M548.4,929.8h27.8m-27.4,19.1V930.2m27.4,-.4h73.7m-73.7,19.1V930.2m73.7,-.4h73.6m-73.6,19.1V930.2m73.6,-.4h74m-74,19.1V930.2m73.6,18.7V930.2M548.4,949.3h27.8m-27.4,19.1V949.7m27.4,-.4h73.7m-73.7,19.1V949.7m73.7,-.4h73.6m-73.6,19.1V949.7m73.6,-.4h74m-74,19.1V949.7m73.6,18.7V949.7M548.4,968.8h27.8m-27.4,19.1V969.2m27.4,-.4h73.7m-73.7,19.1V969.2m73.7,-.4h73.6m-73.6,19.1V969.2m73.6,-.4h74m-74,19.1V969.2m73.6,18.7V969.2M548.4,988.3h27.8m-27.4,19.1V988.6m27.4,-.3h73.7m-73.7,19.1V988.6m73.7,-.3h73.6m-73.6,19.1V988.6m73.6,-.3h74m-74,19.1V988.6m73.6,18.8V988.6m-248.7,19.2h27.8m-27.4,19.1v-18.8m27.4,-.3h73.7m-73.7,19.1v-18.8m73.7,-.3h73.6m-73.6,19.1v-18.8m73.6,-.3h74m-74,19.1v-18.8m73.6,18.8v-18.8m-248.7,19.1h27.8m-27.4,19.1v-18.7m27.4,-.4h73.7m-73.7,19.1v-18.7m73.7,-.4h73.6m-73.6,19.1v-18.7m73.6,-.4h74m-74,19.1v-18.7m73.6,18.7v-18.7m-248.7,19.1h27.8m-27.4,19.1v-18.7m27.4,-.4h73.7m-73.7,19.1v-18.7m73.7,-.4h73.6m-73.6,19.1v-18.7m73.6,-.4h74m-74,19.1v-18.7m73.6,18.7v-18.7m-248.7,19.1h27.8m0,0h73.7m0,0h73.6m0,0h74" class="g6_71"/>
<image clip-path="url(#c0_71)" preserveAspectRatio="none" x="96" y="361" width="70" height="81" xlink:href="img/p1.jpg"/>
<path d="M73.6,65H835.8M73.6,317.7H835.8" class="g2_71"/>
<path d="M572.6,782.2c6.7,.9,7.5,3.5,7.9,7.8m161.8,-7.8c-6.7,.9,-7.5,3.5,-7.9,7.8" class="g7_71"/>
<path fill-rule="evenodd" d="M738.7,786.6c-.4,.2,-.7,.7,-.5,1.1c.2,.5,.7,.7,1.1,.5c.5,-.2,.7,-.7,.5,-1.1c-.1,-.5,-.7,-.7,-1.1,-.5Z" class="g4_71"/>
<path d="M738.7,786.6c-.4,.2,-.7,.7,-.5,1.1c.2,.5,.7,.7,1.1,.5c.5,-.2,.7,-.7,.5,-1.1c-.1,-.5,-.7,-.7,-1.1,-.5Z" class="g5_71"/>
<path fill-rule="evenodd" d="M576.2,786.6c.5,.2,.7,.7,.5,1.1c-.1,.5,-.6,.7,-1.1,.5c-.4,-.2,-.6,-.7,-.5,-1.1c.2,-.5,.7,-.7,1.1,-.5Z" class="g4_71"/>
<path d="M576.2,786.6c.5,.2,.7,.7,.5,1.1c-.1,.5,-.6,.7,-1.1,.5c-.4,-.2,-.6,-.7,-.5,-1.1c.2,-.5,.7,-.7,1.1,-.5Z" class="g5_71"/>
<path d="M572.3,690.4H743v99.7H572.3V690.4Z" class="g7_71"/>
<path fill-rule="evenodd" d="M656.5,690.9l86.3,49.3l-86.3,49.7L572.6,740.8Z" class="g8_71"/>
<path d="M656.5,690.9l86.3,49.3l-86.3,49.7L572.6,740.8l83.9,-49.9Zm-83.9,7.7c6.7,-.9,7.5,-3.6,7.9,-7.9m161.9,7.9c-6.8,-.9,-7.6,-3.6,-7.9,-7.9" class="g7_71"/>
<path fill-rule="evenodd" d="M738.7,694.2c-.4,-.2,-.6,-.7,-.5,-1.1c.2,-.5,.7,-.7,1.2,-.5c.4,.1,.6,.6,.4,1.1c-.1,.4,-.6,.7,-1.1,.5Z" class="g4_71"/>
<path d="M738.7,694.2c-.4,-.2,-.6,-.7,-.5,-1.1c.2,-.5,.7,-.7,1.2,-.5c.4,.1,.6,.6,.4,1.1c-.1,.4,-.6,.7,-1.1,.5Z" class="g5_71"/>
<path fill-rule="evenodd" d="M576.2,694.2c.5,-.2,.7,-.7,.5,-1.1c-.2,-.5,-.7,-.7,-1.1,-.5c-.4,.1,-.7,.6,-.5,1.1c.2,.4,.7,.7,1.1,.5Z" class="g4_71"/>
<path d="M576.2,694.2c.5,-.2,.7,-.7,.5,-1.1c-.2,-.5,-.7,-.7,-1.1,-.5c-.4,.1,-.7,.6,-.5,1.1c.2,.4,.7,.7,1.1,.5Z" class="g5_71"/>
<path clip-path="url(#c1_71)" fill-rule="evenodd" d="M605.6,680.1v-5.2l-3.7,5.2Zm2.7,0v1.1h-1.4V684h-1.3v-2.8h-4.4v-1l4.8,-6.9h.9v6.8Z" class="g4_71"/>
<path clip-path="url(#c2_71)" d="M605.6,680.1v-5.2l-3.7,5.2h3.7Zm2.7,0v1.1h-1.4V684h-1.3v-2.8h-4.4v-1l4.8,-6.9h.9v6.8h1.4Z" class="g5_71"/>
<path fill-rule="evenodd" d="M610.3,803.8v-5.2l-3.7,5.2Zm2.6,0v1.1h-1.4v2.8h-1.2v-2.8h-4.5v-1l4.9,-6.9h.8v6.8Z" class="g4_71"/>
<path clip-path="url(#c2_71)" d="M610.3,803.8v-5.2l-3.7,5.2h3.7Zm2.6,0v1.1h-1.4v2.8h-1.2v-2.8h-4.5v-1l4.9,-6.9h.8v6.8h1.4Z" class="g5_71"/>
<path clip-path="url(#c1_71)" fill-rule="evenodd" d="M707.9,680.1v-5.2l-3.7,5.2Zm2.6,0v1.1h-1.4V684h-1.2v-2.8h-4.5v-1l4.9,-6.9h.8v6.8Z" class="g4_71"/>
<path clip-path="url(#c2_71)" d="M707.9,680.1v-5.2l-3.7,5.2h3.7Zm2.6,0v1.1h-1.4V684h-1.2v-2.8h-4.5v-1l4.9,-6.9h.8v6.8h1.4Z" class="g5_71"/>
<path fill-rule="evenodd" d="M712.5,803.8v-5.2l-3.7,5.2Zm2.7,0v1.1h-1.4v2.8h-1.3v-2.8h-4.4v-1l4.8,-6.9h.9v6.8Z" class="g4_71"/>
<path clip-path="url(#c2_71)" d="M712.5,803.8v-5.2l-3.7,5.2h3.7Zm2.7,0v1.1h-1.4v2.8h-1.3v-2.8h-4.4v-1l4.8,-6.9h.9v6.8h1.4Z" class="g5_71"/>
<path fill-rule="evenodd" d="M556.5,711.7c.3,-.7,.7,-1.2,1.1,-1.6c.5,-.4,1,-.6,1.7,-.6c.9,0,1.5,.3,1.9,.8c.4,.4,.6,.9,.6,1.3c0,.8,-.5,1.6,-1.5,2.4c.7,.3,1.1,.6,1.5,1.1c.3,.4,.5,1,.5,1.6c0,.9,-.3,1.7,-.9,2.4c-.7,.9,-1.8,1.3,-3.3,1.3c-.7,0,-1.1,-.1,-1.4,-.3c-.3,-.1,-.4,-.3,-.4,-.5c0,-.2,.1,-.3,.2,-.4c.1,-.1,.3,-.2,.4,-.2c.2,0,.3,0,.4,.1c.1,0,.3,.1,.6,.2c.3,.2,.5,.3,.7,.3c.2,.1,.4,.1,.6,.1c.5,0,1,-.2,1.3,-.6c.4,-.4,.6,-.9,.6,-1.4c0,-.4,-.1,-.8,-.2,-1.2c-.2,-.3,-.3,-.5,-.5,-.7c-.2,-.2,-.5,-.4,-.9,-.5c-.4,-.2,-.8,-.3,-1.2,-.3h-.2v-.2c.4,-.1,.8,-.2,1.2,-.5c.4,-.2,.7,-.5,.9,-.8c.2,-.4,.3,-.8,.3,-1.2c0,-.5,-.2,-.9,-.5,-1.2c-.4,-.4,-.8,-.5,-1.3,-.5c-.8,0,-1.4,.4,-2,1.2Z" class="g4_71"/>
<path d="M556.5,711.7c.3,-.7,.7,-1.2,1.1,-1.6c.5,-.4,1,-.6,1.7,-.6c.9,0,1.5,.3,1.9,.8c.4,.4,.6,.9,.6,1.3c0,.8,-.5,1.6,-1.5,2.4c.7,.3,1.1,.6,1.5,1.1c.3,.4,.5,1,.5,1.6c0,.9,-.3,1.7,-.9,2.4c-.7,.9,-1.8,1.3,-3.3,1.3c-.7,0,-1.1,-.1,-1.4,-.3c-.3,-.1,-.4,-.3,-.4,-.5c0,-.2,.1,-.3,.2,-.4c.1,-.1,.3,-.2,.4,-.2c.2,0,.3,0,.4,.1c.1,0,.3,.1,.6,.2c.3,.2,.5,.3,.7,.3c.2,.1,.4,.1,.6,.1c.5,0,1,-.2,1.3,-.6c.4,-.4,.6,-.9,.6,-1.4c0,-.4,-.1,-.8,-.2,-1.2c-.2,-.3,-.3,-.5,-.5,-.7c-.2,-.2,-.5,-.4,-.9,-.5c-.4,-.2,-.8,-.3,-1.2,-.3h-.2v-.2c.4,-.1,.8,-.2,1.2,-.5c.4,-.2,.7,-.5,.9,-.8c.2,-.4,.3,-.8,.3,-1.2c0,-.5,-.2,-.9,-.5,-1.2c-.4,-.4,-.8,-.5,-1.3,-.5c-.8,0,-1.4,.4,-2,1.2l-.2,-.1Z" class="g5_71"/>
<path fill-rule="evenodd" d="M754.8,711.7c.3,-.7,.7,-1.2,1.1,-1.6c.5,-.4,1,-.6,1.7,-.6c.9,0,1.5,.3,2,.8c.3,.4,.5,.9,.5,1.3c0,.8,-.5,1.6,-1.5,2.4c.7,.3,1.2,.6,1.5,1.1c.3,.4,.5,1,.5,1.6c0,.9,-.3,1.7,-.9,2.4c-.7,.9,-1.8,1.3,-3.2,1.3c-.8,0,-1.2,-.1,-1.5,-.3c-.2,-.1,-.4,-.3,-.4,-.5c0,-.2,.1,-.3,.2,-.4c.1,-.1,.3,-.2,.4,-.2c.2,0,.3,0,.4,.1c.1,0,.3,.1,.6,.2c.3,.2,.6,.3,.7,.3c.2,.1,.4,.1,.6,.1c.5,0,1,-.2,1.4,-.6c.4,-.4,.5,-.9,.5,-1.4c0,-.4,0,-.8,-.2,-1.2c-.2,-.3,-.3,-.5,-.5,-.7c-.2,-.2,-.5,-.4,-.9,-.5c-.4,-.2,-.8,-.3,-1.2,-.3h-.2v-.2c.4,-.1,.8,-.2,1.2,-.5c.4,-.2,.7,-.5,.9,-.8c.2,-.4,.3,-.8,.3,-1.2c0,-.5,-.2,-.9,-.5,-1.2c-.3,-.4,-.8,-.5,-1.3,-.5c-.8,0,-1.4,.4,-2,1.2Z" class="g4_71"/>
<path d="M754.8,711.7c.3,-.7,.7,-1.2,1.1,-1.6c.5,-.4,1,-.6,1.7,-.6c.9,0,1.5,.3,2,.8c.3,.4,.5,.9,.5,1.3c0,.8,-.5,1.6,-1.5,2.4c.7,.3,1.2,.6,1.5,1.1c.3,.4,.5,1,.5,1.6c0,.9,-.3,1.7,-.9,2.4c-.7,.9,-1.8,1.3,-3.2,1.3c-.8,0,-1.2,-.1,-1.5,-.3c-.2,-.1,-.4,-.3,-.4,-.5c0,-.2,.1,-.3,.2,-.4c.1,-.1,.3,-.2,.4,-.2c.2,0,.3,0,.4,.1c.1,0,.3,.1,.6,.2c.3,.2,.6,.3,.7,.3c.2,.1,.4,.1,.6,.1c.5,0,1,-.2,1.4,-.6c.4,-.4,.5,-.9,.5,-1.4c0,-.4,0,-.8,-.2,-1.2c-.2,-.3,-.3,-.5,-.5,-.7c-.2,-.2,-.5,-.4,-.9,-.5c-.4,-.2,-.8,-.3,-1.2,-.3h-.2v-.2c.4,-.1,.8,-.2,1.2,-.5c.4,-.2,.7,-.5,.9,-.8c.2,-.4,.3,-.8,.3,-1.2c0,-.5,-.2,-.9,-.5,-1.2c-.3,-.4,-.8,-.5,-1.3,-.5c-.8,0,-1.4,.4,-2,1.2l-.2,-.1Z" class="g5_71"/>
<path fill-rule="evenodd" d="M555.6,769.2c.3,-.7,.6,-1.3,1.1,-1.7c.5,-.3,1,-.5,1.7,-.5c.8,0,1.5,.2,1.9,.8c.4,.4,.5,.8,.5,1.3c0,.7,-.4,1.5,-1.4,2.3c.7,.3,1.1,.7,1.5,1.1c.3,.5,.5,1.1,.5,1.7c0,.9,-.3,1.7,-.9,2.3c-.8,.9,-1.8,1.3,-3.3,1.3c-.7,0,-1.2,0,-1.4,-.2c-.3,-.2,-.4,-.4,-.4,-.6c0,-.1,.1,-.3,.2,-.4c.1,-.1,.3,-.2,.4,-.2c.2,0,.3,.1,.4,.1c.1,0,.3,.1,.6,.3c.3,.2,.5,.3,.7,.3c.1,0,.4,.1,.6,.1c.5,0,1,-.2,1.3,-.6c.4,-.4,.6,-.9,.6,-1.5c0,-.4,-.1,-.8,-.2,-1.2c-.2,-.3,-.3,-.5,-.5,-.6c-.2,-.2,-.5,-.4,-.9,-.6c-.4,-.2,-.8,-.2,-1.2,-.2h-.2v-.3c.4,0,.8,-.2,1.2,-.4c.4,-.3,.7,-.6,.9,-.9c.2,-.3,.3,-.7,.3,-1.1c0,-.5,-.2,-1,-.5,-1.3c-.4,-.3,-.8,-.5,-1.3,-.5c-.8,0,-1.4,.4,-2,1.3Z" class="g4_71"/>
<path d="M555.6,769.2c.3,-.7,.6,-1.3,1.1,-1.7c.5,-.3,1,-.5,1.7,-.5c.8,0,1.5,.2,1.9,.8c.4,.4,.5,.8,.5,1.3c0,.7,-.4,1.5,-1.4,2.3c.7,.3,1.1,.7,1.5,1.1c.3,.5,.5,1.1,.5,1.7c0,.9,-.3,1.7,-.9,2.3c-.8,.9,-1.8,1.3,-3.3,1.3c-.7,0,-1.2,0,-1.4,-.2c-.3,-.2,-.4,-.4,-.4,-.6c0,-.1,.1,-.3,.2,-.4c.1,-.1,.3,-.2,.4,-.2c.2,0,.3,.1,.4,.1c.1,0,.3,.1,.6,.3c.3,.2,.5,.3,.7,.3c.1,0,.4,.1,.6,.1c.5,0,1,-.2,1.3,-.6c.4,-.4,.6,-.9,.6,-1.5c0,-.4,-.1,-.8,-.2,-1.2c-.2,-.3,-.3,-.5,-.5,-.6c-.2,-.2,-.5,-.4,-.9,-.6c-.4,-.2,-.8,-.2,-1.2,-.2h-.2v-.3c.4,0,.8,-.2,1.2,-.4c.4,-.3,.7,-.6,.9,-.9c.2,-.3,.3,-.7,.3,-1.1c0,-.5,-.2,-1,-.5,-1.3c-.4,-.3,-.8,-.5,-1.3,-.5c-.8,0,-1.4,.4,-2,1.3l-.2,-.1Z" class="g5_71"/>
<path fill-rule="evenodd" d="M753.9,769.2c.3,-.7,.7,-1.3,1.1,-1.7c.5,-.3,1,-.5,1.7,-.5c.9,0,1.5,.2,2,.8c.3,.4,.5,.8,.5,1.3c0,.7,-.5,1.5,-1.5,2.3c.7,.3,1.2,.7,1.5,1.1c.3,.5,.5,1.1,.5,1.7c0,.9,-.3,1.7,-.9,2.3c-.7,.9,-1.8,1.3,-3.3,1.3c-.7,0,-1.1,0,-1.4,-.2c-.2,-.2,-.4,-.4,-.4,-.6c0,-.1,.1,-.3,.2,-.4c.1,-.1,.3,-.2,.4,-.2c.2,0,.3,.1,.4,.1c.1,0,.3,.1,.6,.3c.3,.2,.6,.3,.7,.3c.2,0,.4,.1,.6,.1c.5,0,1,-.2,1.4,-.6c.3,-.4,.5,-.9,.5,-1.5c0,-.4,-.1,-.8,-.2,-1.2c-.2,-.3,-.3,-.5,-.5,-.6c-.2,-.2,-.5,-.4,-.9,-.6c-.4,-.2,-.8,-.2,-1.2,-.2h-.2v-.3c.4,0,.8,-.2,1.2,-.4c.4,-.3,.7,-.6,.9,-.9c.2,-.3,.3,-.7,.3,-1.1c0,-.5,-.2,-1,-.5,-1.3c-.4,-.3,-.8,-.5,-1.3,-.5c-.8,0,-1.4,.4,-2,1.3Z" class="g4_71"/>
<path d="M753.9,769.2c.3,-.7,.7,-1.3,1.1,-1.7c.5,-.3,1,-.5,1.7,-.5c.9,0,1.5,.2,2,.8c.3,.4,.5,.8,.5,1.3c0,.7,-.5,1.5,-1.5,2.3c.7,.3,1.2,.7,1.5,1.1c.3,.5,.5,1.1,.5,1.7c0,.9,-.3,1.7,-.9,2.3c-.7,.9,-1.8,1.3,-3.3,1.3c-.7,0,-1.1,0,-1.4,-.2c-.2,-.2,-.4,-.4,-.4,-.6c0,-.1,.1,-.3,.2,-.4c.1,-.1,.3,-.2,.4,-.2c.2,0,.3,.1,.4,.1c.1,0,.3,.1,.6,.3c.3,.2,.6,.3,.7,.3c.2,0,.4,.1,.6,.1c.5,0,1,-.2,1.4,-.6c.3,-.4,.5,-.9,.5,-1.5c0,-.4,-.1,-.8,-.2,-1.2c-.2,-.3,-.3,-.5,-.5,-.6c-.2,-.2,-.5,-.4,-.9,-.6c-.4,-.2,-.8,-.2,-1.2,-.2h-.2v-.3c.4,0,.8,-.2,1.2,-.4c.4,-.3,.7,-.6,.9,-.9c.2,-.3,.3,-.7,.3,-1.1c0,-.5,-.2,-1,-.5,-1.3c-.4,-.3,-.8,-.5,-1.3,-.5c-.8,0,-1.4,.4,-2,1.3l-.2,-.1Z" class="g5_71"/>
<path d="M250.3,276.6h11.4M731.1,404.2h11.4m-7,37.8h11.4M643.1,475.5h11.4M459.3,181.3h11.3m211.7,0h11.3" class="g9_71"/>
<path d="M254.4,990.9l48.7,-82.3l57.6,34.2l-12.3,65.4Z" class="ga_71"/>
<path d="M350.2,999.6c-7.1,.5,-8,3.3,-8.7,7.7M311.3,913c-5,5,-7.7,3.9,-11.5,1.4m48.8,94.2L360.8,942m.3,.1L254.3,991m94.5,17.3L254.5,991m48.3,-83l58.3,34.5m0,-.2L254.2,990.7m49,-82.7l-49,82.6" class="g7_71"/>
<path fill-rule="evenodd" d="M304.7,913.5c-.5,.2,-1,.1,-1.3,-.4c-.2,-.4,-.1,-1,.3,-1.2c.5,-.3,1,-.1,1.3,.3c.2,.4,.1,1,-.3,1.3Z" class="g4_71"/>
<path d="M304.7,913.5c-.5,.2,-1,.1,-1.3,-.4c-.2,-.4,-.1,-1,.3,-1.2c.5,-.3,1,-.1,1.3,.3c.2,.4,.1,1,-.3,1.3Z" class="g5_71"/>
<path fill-rule="evenodd" d="M345.5,1004.3c-.5,.2,-.8,.7,-.6,1.1c.2,.5,.7,.8,1.1,.6c.5,-.1,.8,-.7,.6,-1.1c-.1,-.5,-.7,-.8,-1.1,-.6Z" class="g4_71"/>
<path d="M345.5,1004.3c-.5,.2,-.8,.7,-.6,1.1c.2,.5,.7,.8,1.1,.6c.5,-.1,.8,-.7,.6,-1.1c-.1,-.5,-.7,-.8,-1.1,-.6Z" class="g5_71"/>
<path d="M303,908.1l45.7,100.3" class="gb_71"/>
<path clip-path="url(#c3_71)" d="M254.4,990.9c-3.6,1.6,-18.7,2.8,-18.5,6.4c.1,9.7,-5.5,22.2,-1.5,31.2c4.9,10.6,-1.4,23.1,2.6,31.9" class="g7_71"/>
<path fill-rule="evenodd" d="M243,932.3l2.6,-1.3h.2v8.9c0,.6,0,.9,.1,1.1c0,.1,.1,.2,.3,.3c.2,.1,.5,.1,.9,.2v.2h-3.9v-.2c.5,-.1,.8,-.1,1,-.2c.1,0,.2,-.1,.3,-.3c0,-.1,0,-.5,0,-1.1v-5.7c0,-.7,0,-1.2,0,-1.4c-.1,-.2,-.1,-.3,-.2,-.4c-.1,-.1,-.2,-.1,-.4,-.1c-.2,0,-.4,.1,-.8,.2Z" class="g4_71"/>
<path d="M243,932.3l2.6,-1.3h.2v8.9c0,.6,0,.9,.1,1.1c0,.1,.1,.2,.3,.3c.2,.1,.5,.1,.9,.2v.2h-3.9v-.2c.5,-.1,.8,-.1,1,-.2c.1,0,.2,-.1,.3,-.3c0,-.1,0,-.5,0,-1.1v-5.7c0,-.7,0,-1.2,0,-1.4c-.1,-.2,-.1,-.3,-.2,-.4c-.1,-.1,-.2,-.1,-.4,-.1c-.2,0,-.4,.1,-.8,.2l-.1,-.2Z" class="g5_71"/>
<path fill-rule="evenodd" d="M249.9,933.2c.3,-.7,.7,-1.2,1.1,-1.6c.5,-.4,1,-.6,1.7,-.6c.9,0,1.5,.3,2,.9c.3,.4,.5,.8,.5,1.3c0,.7,-.5,1.5,-1.5,2.3c.7,.3,1.2,.6,1.5,1.1c.3,.5,.5,1,.5,1.7c0,.9,-.3,1.7,-.9,2.3c-.7,.9,-1.8,1.3,-3.3,1.3c-.7,0,-1.1,-.1,-1.4,-.2c-.3,-.2,-.4,-.4,-.4,-.6c0,-.2,.1,-.3,.2,-.4c.1,-.1,.3,-.2,.4,-.2c.2,0,.3,.1,.4,.1c.1,0,.3,.1,.6,.3c.3,.1,.6,.2,.7,.3c.2,0,.4,.1,.6,.1c.5,0,1,-.3,1.4,-.7c.3,-.4,.5,-.8,.5,-1.4c0,-.4,-.1,-.8,-.2,-1.2c-.2,-.3,-.3,-.5,-.5,-.7c-.2,-.2,-.5,-.3,-.9,-.5c-.4,-.2,-.8,-.3,-1.2,-.3h-.2v-.2c.4,-.1,.8,-.2,1.2,-.4c.4,-.3,.7,-.6,.9,-.9c.2,-.4,.3,-.7,.3,-1.1c0,-.6,-.2,-1,-.5,-1.3c-.4,-.4,-.8,-.5,-1.3,-.5c-.8,0,-1.4,.4,-2,1.3Z" class="g4_71"/>
<path d="M249.9,933.2c.3,-.7,.7,-1.2,1.1,-1.6c.5,-.4,1,-.6,1.7,-.6c.9,0,1.5,.3,2,.9c.3,.4,.5,.8,.5,1.3c0,.7,-.5,1.5,-1.5,2.3c.7,.3,1.2,.6,1.5,1.1c.3,.5,.5,1,.5,1.7c0,.9,-.3,1.7,-.9,2.3c-.7,.9,-1.8,1.3,-3.3,1.3c-.7,0,-1.1,-.1,-1.4,-.2c-.3,-.2,-.4,-.4,-.4,-.6c0,-.2,.1,-.3,.2,-.4c.1,-.1,.3,-.2,.4,-.2c.2,0,.3,.1,.4,.1c.1,0,.3,.1,.6,.3c.3,.1,.6,.2,.7,.3c.2,0,.4,.1,.6,.1c.5,0,1,-.3,1.4,-.7c.3,-.4,.5,-.8,.5,-1.4c0,-.4,-.1,-.8,-.2,-1.2c-.2,-.3,-.3,-.5,-.5,-.7c-.2,-.2,-.5,-.3,-.9,-.5c-.4,-.2,-.8,-.3,-1.2,-.3h-.2v-.2c.4,-.1,.8,-.2,1.2,-.4c.4,-.3,.7,-.6,.9,-.9c.2,-.4,.3,-.7,.3,-1.1c0,-.6,-.2,-1,-.5,-1.3c-.4,-.4,-.8,-.5,-1.3,-.5c-.8,0,-1.4,.4,-2,1.3l-.2,-.2Z" class="g5_71"/>
<path fill-rule="evenodd" d="M287.9,1008.4l2.5,-1.3h.3v8.9c0,.6,0,.9,.1,1.1c0,.1,.1,.2,.3,.3c.1,.1,.4,.1,.9,.1v.3h-3.9v-.3c.5,0,.8,0,.9,-.1c.2,-.1,.3,-.2,.3,-.3c.1,-.1,.1,-.5,.1,-1.1v-5.7c0,-.8,0,-1.2,-.1,-1.5c0,-.1,-.1,-.3,-.2,-.3c-.1,-.1,-.2,-.1,-.3,-.1c-.2,0,-.5,0,-.8,.2Z" class="g4_71"/>
<path d="M287.9,1008.4l2.5,-1.3h.3v8.9c0,.6,0,.9,.1,1.1c0,.1,.1,.2,.3,.3c.1,.1,.4,.1,.9,.1v.3h-3.9v-.3c.5,0,.8,0,.9,-.1c.2,-.1,.3,-.2,.3,-.3c.1,-.1,.1,-.5,.1,-1.1v-5.7c0,-.8,0,-1.2,-.1,-1.5c0,-.1,-.1,-.3,-.2,-.3c-.1,-.1,-.2,-.1,-.3,-.1c-.2,0,-.5,0,-.8,.2l-.1,-.2Z" class="g5_71"/>
<path fill-rule="evenodd" d="M294.7,1009.3c.3,-.7,.7,-1.2,1.2,-1.6c.4,-.4,1,-.6,1.7,-.6c.8,0,1.5,.3,1.9,.8c.4,.4,.5,.9,.5,1.3c0,.8,-.5,1.6,-1.4,2.4c.6,.3,1.1,.6,1.5,1.1c.3,.5,.4,1,.4,1.6c0,1,-.2,1.7,-.8,2.4c-.8,.9,-1.9,1.3,-3.3,1.3c-.7,0,-1.2,-.1,-1.4,-.3c-.3,-.1,-.4,-.3,-.4,-.5c0,-.2,0,-.3,.2,-.4c.1,-.1,.2,-.2,.4,-.2c.1,0,.3,0,.4,.1c.1,0,.3,.1,.6,.3c.3,.1,.5,.2,.6,.2c.2,.1,.4,.1,.6,.1c.6,0,1,-.2,1.4,-.6c.4,-.4,.6,-.9,.6,-1.4c0,-.4,-.1,-.8,-.3,-1.2c-.1,-.3,-.3,-.5,-.4,-.7c-.2,-.2,-.5,-.4,-.9,-.5c-.4,-.2,-.8,-.3,-1.2,-.3h-.3v-.2c.5,-.1,.9,-.2,1.3,-.5c.4,-.2,.7,-.5,.9,-.8c.2,-.4,.2,-.8,.2,-1.2c0,-.5,-.1,-.9,-.5,-1.2c-.3,-.4,-.7,-.5,-1.2,-.5c-.8,0,-1.5,.4,-2,1.2Z" class="g4_71"/>
<path d="M294.7,1009.3c.3,-.7,.7,-1.2,1.2,-1.6c.4,-.4,1,-.6,1.7,-.6c.8,0,1.5,.3,1.9,.8c.4,.4,.5,.9,.5,1.3c0,.8,-.5,1.6,-1.4,2.4c.6,.3,1.1,.6,1.5,1.1c.3,.5,.4,1,.4,1.6c0,1,-.2,1.7,-.8,2.4c-.8,.9,-1.9,1.3,-3.3,1.3c-.7,0,-1.2,-.1,-1.4,-.3c-.3,-.1,-.4,-.3,-.4,-.5c0,-.2,0,-.3,.2,-.4c.1,-.1,.2,-.2,.4,-.2c.1,0,.3,0,.4,.1c.1,0,.3,.1,.6,.3c.3,.1,.5,.2,.6,.2c.2,.1,.4,.1,.6,.1c.6,0,1,-.2,1.4,-.6c.4,-.4,.6,-.9,.6,-1.4c0,-.4,-.1,-.8,-.3,-1.2c-.1,-.3,-.3,-.5,-.4,-.7c-.2,-.2,-.5,-.4,-.9,-.5c-.4,-.2,-.8,-.3,-1.2,-.3h-.3v-.2c.5,-.1,.9,-.2,1.3,-.5c.4,-.2,.7,-.5,.9,-.8c.2,-.4,.2,-.8,.2,-1.2c0,-.5,-.1,-.9,-.5,-1.2c-.3,-.4,-.7,-.5,-1.2,-.5c-.8,0,-1.5,.4,-2,1.2l-.3,-.1Z" class="g5_71"/>
<path fill-rule="evenodd" d="M330,909h5.6v.3l-3.5,10.4h-.8l3.1,-9.5h-2.9c-.6,0,-1,.1,-1.2,.2c-.5,.3,-.8,.7,-1.1,1.1H329Z" class="g4_71"/>
<path d="M330,909h5.6v.3l-3.5,10.4h-.8l3.1,-9.5h-2.9c-.6,0,-1,.1,-1.2,.2c-.5,.3,-.8,.7,-1.1,1.1H329l1,-2.5Z" class="g5_71"/>
<path fill-rule="evenodd" d="M360.6,972.7h5.7v.3l-3.5,10.4h-.9l3.1,-9.5h-2.9c-.5,0,-1,.1,-1.2,.3c-.4,.2,-.8,.6,-1,1.1l-.3,-.1Z" class="g4_71"/>
<path d="M360.6,972.7h5.7v.3l-3.5,10.4h-.9l3.1,-9.5h-2.9c-.5,0,-1,.1,-1.2,.3c-.4,.2,-.8,.6,-1,1.1l-.3,-.1l1,-2.5Z" class="g5_71"/>
</svg>
