<?xml version="1.0" encoding="UTF-8" standalone="no"?>
<!DOCTYPE svg PUBLIC "-//W3C//DTD SVG 1.1//EN"
"http://www.w3.org/Graphics/SVG/1.1/DTD/svg11.dtd">
<svg viewBox="0 0 909 1147" version="1.1" xmlns="http://www.w3.org/2000/svg" xmlns:xlink="http://www.w3.org/1999/xlink">
<defs>
<clipPath id="c0_81"><path d="M185.1,593.3V440.4H402.8V593.3Z"/></clipPath>
<clipPath id="c1_81"><path d="M519.6,593.6V440.4H760.4V593.6Z"/></clipPath>
<style type="text/css"><![CDATA[
.g0_81{
fill: #B6D774;
}
.g1_81{
fill: none;
stroke: #000;
stroke-width: 0.763;
}
.g2_81{
fill: #FFF1E0;
}
.g3_81{
fill: none;
stroke: #0EA5DF;
stroke-width: 0.66;
stroke-miterlimit: 2;
}
.g4_81{
fill: #000;
}
.g5_81{
fill: none;
stroke: #000;
stroke-width: 0.66;
stroke-miterlimit: 2;
}
.g6_81{
fill: none;
stroke: #0EA5DF;
stroke-width: 3.055;
}
.g7_81{
fill: #E8F1FA;
}
.g8_81{
fill: #0C4B7F;
}
.g9_81{
fill: none;
stroke: #D82C20;
stroke-width: 0.763;
}
.ga_81{
fill: none;
stroke: #2E3092;
stroke-width: 0.763;
}
.gb_81{
fill: none;
stroke: #8ED8F8;
stroke-width: 0.763;
stroke-miterlimit: 2;
}
.gc_81{
fill: none;
stroke: #ED1D24;
stroke-width: 1.069;
stroke-miterlimit: 2;
}
.gd_81{
fill: none;
stroke: #000;
stroke-width: 1.069;
stroke-miterlimit: 2;
}
.ge_81{
fill: none;
stroke: #000;
stroke-width: 0.763;
stroke-miterlimit: 2;
}
]]></style>
</defs>
<path d="M835.8,1131h73.6v-51.5H835.8V1131Z" class="g0_81"/>
<path d="M629.9,283.7V231" class="g1_81"/>
<path d="M359.6,237.8l25.5,-29.3h39.6l-26.5,29.3Z" class="g2_81"/>
<path d="M385.1,208.5h39.6l-26.5,29.3H359.6l25.5,-29.3Z" class="g3_81"/>
<path d="M277.5,208.9l22.6,-27.4h72.5L350,208.9Z" class="g2_81"/>
<path d="M300.1,181.5h72.5L350,208.9H277.5l22.6,-27.4Z" class="g3_81"/>
<path d="M185.6,216.2h83.5v21.6H185.6V216.2Z" class="g2_81"/>
<path d="M185.6,216.2h83.5v21.6H185.6V216.2Z" class="g3_81"/>
<path d="M292.5,248h47.3v47.5H292.5V248Z" class="g2_81"/>
<path d="M292.5,248h47.3v47.5H292.5V248Z" class="g3_81"/>
<path fill-rule="evenodd" d="M296.1,191.5h3v.2c-.5,0,-.8,.2,-.8,.4c0,.2,.2,.7,.6,1.4l1.6,2.8l1.2,-2.8c.3,-.6,.4,-1.1,.4,-1.3c0,-.2,-.2,-.4,-.7,-.5v-.2h2.3v.2c-.5,.1,-.9,.5,-1.2,1.1l-1.4,3.4c-.4,.9,-.7,1.5,-.9,1.9c-.3,.3,-.5,.6,-.8,.8c-.3,.2,-.6,.2,-.8,.2c-.3,0,-.5,0,-.7,-.1c-.2,-.1,-.2,-.3,-.2,-.5c0,-.1,0,-.2,.1,-.3c.1,-.1,.2,-.1,.4,-.1c.1,0,.3,0,.5,.1c.2,.1,.3,.2,.3,.2c.3,0,.6,-.3,1,-.9l-2.7,-4.8c-.2,-.3,-.4,-.6,-.5,-.7c-.2,-.1,-.4,-.2,-.7,-.3Z" class="g4_81"/>
<path fill-rule="evenodd" d="M307.2,197.1c-.2,.6,-.4,1.1,-.8,1.5c-.4,.3,-.9,.5,-1.3,.5c-.6,0,-1.1,-.2,-1.5,-.7c-.5,-.5,-.7,-1.1,-.7,-1.9c0,-.8,.3,-1.5,.7,-2c.5,-.5,1.1,-.7,1.7,-.7c.5,0,.9,.1,1.2,.4c.4,.2,.5,.5,.5,.8c0,.1,0,.2,-.1,.3c-.1,.1,-.2,.2,-.4,.2c-.2,0,-.4,-.1,-.5,-.2c0,-.1,-.1,-.3,-.1,-.5c0,-.2,-.1,-.4,-.2,-.5c-.1,-.1,-.3,-.1,-.5,-.1c-.4,0,-.7,.1,-.9,.4c-.3,.3,-.5,.8,-.5,1.4c0,.6,.2,1.1,.5,1.6c.3,.4,.7,.7,1.2,.7c.3,0,.6,-.2,.9,-.4c.2,-.2,.4,-.5,.6,-.9Z" class="g4_81"/>
<path fill-rule="evenodd" d="M311.6,194.3h-2.1v3.5c0,.4,0,.6,0,.7q.1,.1,.2,.2c.1,0,.3,.1,.5,.1v.2h-2.4v-.2c.3,0,.5,-.1,.6,-.2c.1,-.1,.1,-.4,.1,-.8v-2.7c0,-.4,0,-.6,0,-.7q-.1,-.1,-.2,-.2c-.1,0,-.3,-.1,-.5,-.1v-.2h5.5v.2c-.3,0,-.4,.1,-.5,.1c-.1,.1,-.2,.1,-.2,.2c-.1,.1,-.1,.3,-.1,.7v2.7c0,.4,0,.6,.1,.7c0,.1,.1,.1,.2,.2c.1,0,.2,.1,.5,.1v.2h-2.4v-.2c.3,0,.5,-.1,.6,-.2c.1,-.1,.1,-.4,.1,-.8Z" class="g4_81"/>
<path fill-rule="evenodd" d="M316.2,194.1c-.2,0,-.4,.1,-.6,.2c-.2,.1,-.4,.3,-.5,.6c-.1,.3,-.2,.7,-.2,1.1c0,.8,.2,1.4,.5,1.9c.3,.6,.6,.8,1.1,.8c.4,0,.7,-.1,.9,-.4c.2,-.3,.3,-.8,.3,-1.5c0,-.9,-.2,-1.6,-.5,-2.1c-.3,-.4,-.6,-.6,-1,-.6m.1,-.3c.8,0,1.4,.3,1.9,.9c.4,.4,.6,1,.6,1.7c0,.4,-.1,.9,-.4,1.3c-.2,.5,-.5,.8,-.9,1.1c-.3,.2,-.8,.3,-1.2,.3c-.8,0,-1.4,-.3,-1.8,-.9c-.4,-.5,-.6,-1.1,-.6,-1.7c0,-.5,.1,-.9,.4,-1.4c.2,-.4,.5,-.8,.9,-1c.3,-.2,.7,-.3,1.1,-.3Z" class="g4_81"/>
<path fill-rule="evenodd" d="M320.9,195.3v1.9c0,.4,0,.7,0,.8c.1,.2,.2,.4,.4,.6c.2,.1,.5,.2,.8,.2c.3,0,.6,-.2,.9,-.4c.3,-.4,.4,-.9,.4,-1.6c0,-.8,-.2,-1.4,-.5,-1.8c-.2,-.3,-.5,-.4,-.8,-.4c-.2,0,-.4,0,-.6,.1c-.1,.1,-.3,.3,-.6,.6m-1.8,-.9l1.6,-.6h.2V195c.2,-.5,.5,-.8,.8,-1c.2,-.1,.5,-.2,.8,-.2c.5,0,.9,.2,1.3,.6c.4,.5,.6,1.1,.6,1.9c0,.8,-.3,1.6,-.8,2.1c-.4,.5,-.9,.7,-1.5,.7c-.3,0,-.5,0,-.7,-.1c-.2,0,-.3,-.2,-.5,-.3v1.5c0,.4,0,.6,.1,.7c0,.1,.1,.1,.2,.2c.1,0,.3,.1,.5,.1v.2h-2.6v-.2h.1c.2,0,.4,-.1,.6,-.1c0,-.1,.1,-.1,.1,-.2c.1,-.1,.1,-.4,.1,-.7v-4.8c0,-.3,0,-.5,-.1,-.6c0,-.1,0,-.2,-.1,-.2c-.1,0,-.2,-.1,-.3,-.1c-.1,0,-.2,.1,-.3,.1Z" class="g4_81"/>
<path fill-rule="evenodd" d="M326,195.5h2.3c0,-.3,-.1,-.5,-.1,-.7c-.1,-.2,-.3,-.3,-.4,-.5c-.2,-.1,-.4,-.1,-.6,-.1c-.3,0,-.6,.1,-.8,.3c-.3,.3,-.4,.6,-.4,1m0,.3c0,.8,.1,1.4,.5,1.8c.4,.4,.8,.6,1.3,.6c.3,0,.6,-.1,.8,-.2c.3,-.2,.5,-.5,.7,-1l.1,.1c-.1,.5,-.3,1,-.6,1.4c-.4,.4,-.9,.6,-1.4,.6c-.6,0,-1.2,-.2,-1.6,-.7c-.4,-.5,-.6,-1.1,-.6,-1.9c0,-.8,.2,-1.5,.6,-2c.5,-.5,1,-.7,1.7,-.7c.6,0,1,.2,1.4,.5c.3,.4,.5,.9,.5,1.5Z" class="g4_81"/>
<path fill-rule="evenodd" d="M331.8,194.3v.3c0,1.8,-.3,3.1,-.9,4h1.8c.4,0,.6,0,.6,-.1c.1,0,.1,-.2,.1,-.6v-3.6Zm-1.2,-.4h4.5v.2c-.3,0,-.5,.1,-.5,.1c-.1,.1,-.2,.1,-.2,.2c-.1,.1,-.1,.3,-.1,.7v2.5c0,.5,0,.9,.1,1c.1,.1,.3,.2,.7,.2v1.6h-.3c0,-.3,0,-.6,-.2,-.8c-.1,-.2,-.3,-.4,-.5,-.5c-.3,-.1,-.6,-.1,-1.1,-.1h-1.3c-.4,0,-.7,0,-.9,.1c-.2,0,-.4,.2,-.6,.4c-.1,.3,-.2,.5,-.3,.9h-.2v-1.6c.3,0,.6,-.2,.9,-.4c.2,-.2,.4,-.7,.6,-1.3c.2,-.7,.3,-1.3,.3,-2c0,-.6,-.3,-.9,-.9,-1Z" class="g4_81"/>
<path fill-rule="evenodd" d="M337.2,196.2h2.2v-1.1c0,-.3,0,-.5,-.1,-.6c0,-.1,0,-.2,-.1,-.3c-.1,0,-.3,-.1,-.6,-.1v-.2h2.5v.2c-.3,0,-.4,.1,-.5,.1c-.1,.1,-.2,.1,-.3,.2c0,.1,0,.4,0,.7v2.7c0,.3,0,.5,0,.6c.1,.1,.1,.2,.2,.3c.1,0,.3,.1,.6,.1v.2h-2.5v-.2c.3,0,.5,-.1,.6,-.2c.1,-.1,.2,-.4,.2,-.8v-1.3h-2.2v1.3c0,.3,0,.5,.1,.6c0,.1,.1,.2,.2,.3c.1,0,.2,.1,.5,.1v.2h-2.4v-.2c.3,0,.5,-.1,.6,-.2c.1,-.1,.1,-.4,.1,-.8v-2.7c0,-.3,0,-.5,0,-.6c-.1,-.1,-.1,-.2,-.2,-.3c-.1,0,-.3,-.1,-.5,-.1v-.2H338v.2c-.2,0,-.4,.1,-.5,.1c-.1,.1,-.2,.1,-.2,.2c-.1,.1,-.1,.4,-.1,.7Z" class="g4_81"/>
<path fill-rule="evenodd" d="M343.2,197.4l2.2,-2.5c0,-.3,-.1,-.5,-.2,-.6c-.1,-.1,-.2,-.2,-.5,-.2v-.2h2.4v.2c-.3,0,-.5,.1,-.5,.1c-.1,.1,-.2,.1,-.2,.2c-.1,.1,-.1,.3,-.1,.7v2.7c0,.4,0,.6,.1,.7c0,.1,.1,.1,.1,.2c.1,0,.3,.1,.6,.1v.2h-2.5v-.2c.3,0,.5,-.1,.6,-.2c.1,-.1,.2,-.4,.2,-.8v-2.4l-2.2,2.5c0,.4,.1,.6,.2,.7c0,.1,.2,.2,.5,.2v.2h-2.3v-.2c.3,0,.5,-.1,.6,-.2c.1,-.1,.1,-.4,.1,-.8v-2.7c0,-.4,0,-.6,0,-.7q-.1,-.1,-.2,-.2c-.1,0,-.3,-.1,-.5,-.1v-.2H344v.2c-.3,0,-.4,.1,-.5,.1c-.1,.1,-.2,.1,-.2,.2c-.1,.1,-.1,.3,-.1,.7Z" class="g4_81"/>
<path fill-rule="evenodd" d="M352.7,199h-1.5c-.4,-.7,-.9,-1.4,-1.2,-2.1c-.1,-.2,-.2,-.3,-.3,-.4c0,0,-.1,-.1,-.3,-.1c0,0,-.1,0,-.2,0v1.4c0,.3,0,.6,.1,.7c0,.1,.1,.2,.2,.2c.1,0,.3,.1,.6,.1v.2h-2.5v-.2c.3,0,.5,-.1,.6,-.2c.1,-.1,.1,-.4,.1,-.8v-2.7c0,-.4,0,-.6,0,-.7q-.1,-.1,-.2,-.2c-.1,0,-.3,-.1,-.5,-.1v-.2h2.5v.2c-.3,0,-.5,.1,-.6,.1c-.1,0,-.1,.1,-.2,.2c0,0,-.1,.3,-.1,.7v1c.1,0,.2,0,.2,0c.2,0,.4,0,.6,-.2c.2,-.1,.4,-.4,.5,-.8c.2,-.4,.3,-.6,.4,-.8c.1,-.1,.2,-.2,.4,-.3c.2,-.1,.3,-.1,.5,-.1c.2,0,.4,0,.5,.1c.1,.1,.2,.2,.2,.4c0,.1,-.1,.2,-.2,.3c0,.1,-.2,.2,-.3,.2c-.1,0,-.2,-.1,-.3,-.1c-.2,-.1,-.3,-.1,-.4,-.1c-.1,0,-.3,.1,-.4,.4c-.1,.4,-.2,.6,-.3,.7c0,.1,-.1,.2,-.3,.4c.1,0,.2,.1,.4,.2c.1,.2,.4,.5,.7,1.2c.3,.5,.5,.8,.7,1c.1,.1,.3,.2,.6,.2Z" class="g4_81"/>
<path fill-rule="evenodd" d="M199.3,222.5h-3.5v5.7c0,.5,.1,.8,.2,.9c.1,.2,.4,.2,.9,.2v.3h-3.2v-.3c.4,0,.7,0,.9,-.2c.1,-.1,.2,-.4,.2,-.9v-4.7c0,-.5,-.1,-.9,-.2,-1c-.2,-.1,-.5,-.2,-.9,-.2v-.2h7.7v.2c-.5,0,-.8,.1,-.9,.2c-.1,.1,-.2,.5,-.2,1v4.7c0,.5,.1,.8,.2,.9c.1,.2,.4,.2,.9,.2v.3h-3.2v-.3c.4,0,.7,0,.9,-.2c.1,-.1,.2,-.4,.2,-.9Z" class="g4_81"/>
<path fill-rule="evenodd" d="M203.3,225.9v1.9c0,.4,0,.6,.1,.8c0,.2,.1,.4,.3,.5c.2,.2,.5,.3,.8,.3c.4,0,.7,-.2,.9,-.5c.3,-.3,.4,-.9,.4,-1.5c0,-.8,-.1,-1.4,-.5,-1.8c-.2,-.3,-.5,-.4,-.8,-.4c-.2,0,-.4,0,-.5,.1c-.2,.1,-.4,.3,-.7,.6m-1.7,-.9l1.5,-.6h.2v1.2c.3,-.5,.5,-.8,.8,-1c.3,-.1,.5,-.2,.8,-.2c.5,0,1,.2,1.3,.6c.4,.4,.6,1.1,.6,1.9c0,.8,-.2,1.5,-.7,2.1c-.4,.5,-1,.7,-1.6,.7c-.3,0,-.5,0,-.7,-.1c-.1,-.1,-.3,-.2,-.5,-.3v1.5c0,.3,0,.6,.1,.6c0,.1,.1,.2,.2,.3c.1,0,.3,.1,.6,.1v.2h-2.7v-.2h.2c.2,0,.4,-.1,.5,-.2c.1,0,.1,-.1,.2,-.2c0,0,0,-.3,0,-.6V226c0,-.3,0,-.5,0,-.6c-.1,-.1,-.1,-.2,-.2,-.2c0,-.1,-.1,-.1,-.2,-.1c-.1,0,-.2,0,-.4,.1Z" class="g4_81"/>
<path fill-rule="evenodd" d="M210.4,228.5v-2c-.6,.3,-.9,.4,-1.1,.5c-.3,.2,-.5,.3,-.6,.5c-.1,.2,-.2,.4,-.2,.6c0,.3,.1,.5,.2,.7c.2,.1,.4,.2,.6,.2c.3,0,.6,-.2,1.1,-.5m0,.3c-.5,.4,-.9,.7,-1,.7c-.2,.1,-.4,.2,-.6,.2c-.4,0,-.6,-.2,-.9,-.4c-.2,-.2,-.3,-.6,-.3,-.9c0,-.3,0,-.5,.2,-.7c.1,-.2,.4,-.5,.7,-.7c.4,-.2,1,-.5,1.9,-.8V226c0,-.5,-.1,-.8,-.3,-1c-.1,-.2,-.3,-.3,-.6,-.3c-.3,0,-.5,.1,-.6,.2c-.1,.1,-.2,.3,-.2,.4v.3c0,.2,0,.3,-.1,.4c-.1,.1,-.2,.2,-.4,.2c-.1,0,-.2,-.1,-.3,-.2c-.1,-.1,-.1,-.2,-.1,-.4c0,-.3,.1,-.6,.5,-.8c.3,-.3,.7,-.4,1.3,-.4c.5,0,.8,0,1.1,.2c.2,.1,.4,.3,.5,.5c.1,.2,.1,.5,.1,1v1.7c0,.5,0,.8,0,.9c0,.1,.1,.2,.1,.2c0,0,.1,.1,.2,.1c0,0,.1,-.1,.1,-.1c.1,0,.2,-.2,.4,-.4v.3c-.4,.6,-.8,.9,-1.1,.9c-.2,0,-.3,-.1,-.5,-.2c-.1,-.2,-.1,-.4,-.1,-.7Z" class="g4_81"/>
<path fill-rule="evenodd" d="M214.1,229.1c.2,.1,.4,.1,.6,.1c.5,0,.8,-.1,1,-.3c.2,-.2,.3,-.4,.3,-.7c0,-.4,-.1,-.6,-.4,-.8c-.3,-.2,-.6,-.3,-1.1,-.3c-.1,0,-.3,0,-.4,0Zm0,-2.3c.1,0,.2,0,.3,0c.5,0,.8,-.1,1.1,-.3c.2,-.2,.3,-.4,.3,-.7c0,-.3,-.1,-.6,-.3,-.7c-.3,-.2,-.6,-.2,-1.1,-.2h-.3Zm1.6,.1c.9,.2,1.4,.6,1.4,1.3c0,.4,-.2,.8,-.6,1c-.4,.2,-.9,.4,-1.6,.4h-2.5v-.3c.4,0,.6,0,.6,-.1c.1,-.2,.2,-.4,.2,-.8v-2.7c0,-.4,0,-.6,-.1,-.7c0,-.1,-.1,-.1,-.2,-.2c0,-.1,-.2,-.1,-.5,-.1v-.2h2.3c.5,0,.9,0,1.1,.1c.3,.1,.5,.2,.7,.4c.2,.2,.3,.5,.3,.8c0,.5,-.4,.9,-1.1,1.1Z" class="g4_81"/>
<path fill-rule="evenodd" d="M220,224.7c-.2,0,-.4,.1,-.6,.2c-.2,.1,-.3,.3,-.4,.6c-.2,.3,-.2,.7,-.2,1.1c0,.8,.1,1.4,.4,1.9c.3,.5,.7,.8,1.2,.8c.3,0,.6,-.1,.8,-.4c.3,-.3,.4,-.8,.4,-1.5c0,-.9,-.2,-1.6,-.6,-2.2c-.2,-.3,-.6,-.5,-1,-.5m.2,-.3c.8,0,1.4,.3,1.8,.8c.4,.5,.6,1.1,.6,1.7c0,.5,-.1,.9,-.3,1.4c-.2,.5,-.5,.8,-.9,1.1c-.4,.2,-.8,.3,-1.3,.3c-.7,0,-1.3,-.3,-1.8,-.9c-.3,-.5,-.5,-1.1,-.5,-1.7c0,-.5,.1,-.9,.3,-1.4c.2,-.5,.5,-.8,.9,-1c.4,-.2,.8,-.3,1.2,-.3Z" class="g4_81"/>
<path fill-rule="evenodd" d="M225.6,229.1c.2,.1,.4,.1,.6,.1c.4,0,.7,-.1,.9,-.3c.2,-.2,.3,-.5,.3,-.7c0,-.4,-.1,-.6,-.3,-.8c-.2,-.2,-.5,-.3,-.9,-.3c-.2,0,-.3,0,-.6,0Zm-2.3,-4.6h3.3v.2c-.4,0,-.6,0,-.7,.1c-.1,0,-.2,.1,-.2,.1c-.1,.1,-.1,.4,-.1,.8v1h.5c.6,0,1,.1,1.4,.2c.3,.1,.5,.2,.7,.4c.2,.3,.3,.5,.3,.8c0,.5,-.2,.8,-.6,1.1c-.3,.2,-.9,.3,-1.7,.3h-2.3v-.2c.3,0,.5,0,.6,-.1c.1,-.1,.2,-.4,.2,-.8v-3.5c-.5,0,-.8,0,-1,.2c-.1,.1,-.3,.4,-.4,.8h-.2Z" class="g4_81"/>
<path fill-rule="evenodd" d="M233.1,224.5l.2,1.4h-.2c-.1,-.5,-.3,-.8,-.4,-.9c-.2,-.1,-.5,-.1,-.9,-.1h-1.1v3.5c0,.4,0,.6,.1,.7c0,0,.1,.1,.2,.2c.1,0,.2,0,.5,0v.2H229v-.2c.3,0,.6,0,.7,-.1c.1,-.1,.1,-.4,.1,-.8v-2.7c0,-.4,0,-.6,0,-.7c-.1,-.1,-.2,-.2,-.3,-.2c-.1,-.1,-.2,-.1,-.5,-.1v-.2Z" class="g4_81"/>
<path fill-rule="evenodd" d="M236,229.1c.2,.1,.4,.1,.6,.1c.4,0,.7,-.1,.9,-.3c.2,-.2,.3,-.5,.3,-.7c0,-.4,-.1,-.6,-.3,-.8c-.2,-.2,-.5,-.3,-.9,-.3c-.1,0,-.3,0,-.6,0Zm-2.3,-4.6H237v.2c-.4,0,-.6,0,-.7,.1c-.1,0,-.2,.1,-.2,.1c-.1,.1,-.1,.4,-.1,.8v1h.5c.6,0,1,.1,1.4,.2c.3,.1,.5,.2,.7,.4c.2,.3,.3,.5,.3,.8c0,.5,-.2,.8,-.5,1.1c-.4,.2,-1,.3,-1.8,.3h-2.3v-.2c.3,0,.5,0,.6,-.1c.1,-.1,.2,-.4,.2,-.8v-3.5c-.5,0,-.8,0,-1,.2c-.1,.1,-.3,.4,-.4,.8h-.2Z" class="g4_81"/>
<path fill-rule="evenodd" d="M240.1,224.5h4.5v.2c-.3,0,-.5,0,-.5,.1c-.1,0,-.2,.1,-.2,.2c-.1,.1,-.1,.3,-.1,.7v2.7c0,.4,0,.6,.1,.7c0,0,.1,.1,.1,.2c.1,0,.3,0,.6,0v.2H242v-.2c.2,0,.4,0,.5,0c.2,0,.2,-.1,.3,-.2c.1,-.1,.1,-.4,.1,-.7v-3.5h-1.7V227c0,.8,0,1.4,-.1,1.7c-.1,.3,-.2,.5,-.4,.7c-.2,.2,-.5,.2,-.7,.2c-.5,0,-.7,-.2,-.7,-.5c0,-.2,0,-.3,.1,-.4c.1,-.1,.2,-.1,.3,-.1c.1,0,.2,.1,.3,.2c.2,.1,.3,.2,.4,.2c.1,0,.2,-.2,.3,-.4c.1,-.3,.1,-.8,.1,-1.5V226c0,-.6,0,-.9,-.1,-1.1c-.1,-.1,-.3,-.2,-.6,-.2Z" class="g4_81"/>
<path fill-rule="evenodd" d="M246.7,226.8h2.2v-1.1c0,-.3,0,-.5,0,-.6c-.1,-.1,-.1,-.2,-.2,-.3c-.1,0,-.3,-.1,-.6,-.1v-.2h2.5v.2c-.3,0,-.4,0,-.5,.1c-.1,0,-.2,.1,-.2,.2c-.1,.1,-.1,.3,-.1,.7v2.7c0,.3,0,.5,0,.6c.1,.1,.1,.2,.2,.2c.1,.1,.3,.1,.6,.1v.3h-2.5v-.3c.3,0,.5,0,.6,-.1c.1,-.1,.2,-.4,.2,-.8v-1.3h-2.2v1.3c0,.3,0,.5,.1,.6c0,.1,.1,.2,.2,.2c.1,.1,.2,.1,.5,.1v.3h-2.4v-.3c.3,0,.5,0,.6,-.1c.1,-.2,.1,-.4,.1,-.8v-2.7c0,-.3,0,-.5,0,-.6c0,-.1,-.1,-.2,-.2,-.3c-.1,0,-.3,-.1,-.5,-.1v-.2h2.4v.2c-.2,0,-.4,0,-.5,.1c-.1,0,-.2,.1,-.2,.2c-.1,.1,-.1,.3,-.1,.7Z" class="g4_81"/>
<path fill-rule="evenodd" d="M252.7,228l2.2,-2.5c0,-.3,-.1,-.5,-.2,-.6c-.1,-.1,-.2,-.2,-.5,-.2v-.2h2.4v.2c-.3,0,-.4,0,-.5,.1c-.1,0,-.2,.1,-.2,.2c-.1,.1,-.1,.3,-.1,.7v2.7c0,.4,0,.6,.1,.7c0,0,.1,.1,.2,.2c0,0,.2,0,.5,0v.2h-2.5v-.2c.3,0,.5,0,.6,-.1c.1,-.1,.2,-.4,.2,-.8V226l-2.2,2.5c0,.3,.1,.5,.2,.7c0,.1,.2,.1,.5,.1v.2h-2.3v-.2c.3,0,.5,0,.6,-.1c.1,-.2,.1,-.4,.1,-.8v-2.7c0,-.4,0,-.6,0,-.7q-.1,-.1,-.2,-.2c-.1,-.1,-.3,-.1,-.5,-.1v-.2h2.4v.2c-.3,0,-.4,0,-.5,.1c-.1,0,-.2,.1,-.2,.2c0,.1,-.1,.3,-.1,.7Z" class="g4_81"/>
<path fill-rule="evenodd" d="M262.2,229.6h-1.5c-.4,-.7,-.9,-1.4,-1.2,-2.1c-.1,-.2,-.2,-.3,-.3,-.4c0,-.1,-.1,-.1,-.3,-.1c0,0,-.1,0,-.2,0v1.4c0,.3,.1,.6,.1,.7c0,.1,.1,.1,.2,.2c.1,0,.3,0,.6,0v.3h-2.5v-.3c.3,0,.5,0,.6,-.1c.1,-.2,.1,-.4,.1,-.8v-2.7c0,-.4,0,-.6,0,-.7q-.1,-.1,-.2,-.2c-.1,0,-.3,-.1,-.5,-.1v-.2h2.5v.2c-.3,0,-.5,0,-.6,.1c-.1,0,-.1,.1,-.2,.1c0,.1,-.1,.4,-.1,.8v1c.1,0,.2,0,.2,0c.2,0,.4,-.1,.6,-.2c.2,-.1,.4,-.4,.6,-.8c.1,-.4,.2,-.7,.3,-.8c.1,-.1,.2,-.2,.4,-.3c.2,-.1,.3,-.1,.5,-.1c.2,0,.4,0,.5,.1c.1,.1,.2,.2,.2,.4c0,.1,-.1,.2,-.2,.3c0,.1,-.2,.1,-.3,.1c-.1,0,-.2,0,-.3,0c-.2,-.1,-.3,-.1,-.4,-.1c-.1,0,-.3,.1,-.4,.4c-.1,.4,-.2,.6,-.3,.7c0,.1,-.1,.2,-.3,.4c.1,0,.3,.1,.4,.2c.1,.1,.4,.5,.7,1.2c.3,.5,.5,.8,.7,.9c.1,.2,.3,.2,.6,.2Z" class="g4_81"/>
<path fill-rule="evenodd" d="M304.5,275.3v.2h-1.9c-.3,-.4,-.7,-1,-1.4,-1.9c-.6,-1,-1,-1.5,-1.2,-1.6c-.1,-.1,-.4,-.1,-.6,-.1v2.2c0,.5,0,.8,.1,.9c.2,.2,.5,.2,.9,.3v.2h-3.2v-.2c.5,-.1,.8,-.1,.9,-.3c.1,-.1,.2,-.4,.2,-.9v-4.7c0,-.5,-.1,-.8,-.2,-1c-.1,-.1,-.4,-.2,-.9,-.2V268h3.2v.2c-.4,0,-.7,.1,-.9,.2c-.1,.2,-.1,.5,-.1,1v2c.4,0,.6,0,.8,0c.1,-.1,.3,-.2,.5,-.4c.2,-.2,.3,-.3,.5,-.5c.1,-.3,.2,-.6,.4,-1.1c.1,-.4,.3,-.7,.4,-.9c.1,-.1,.3,-.3,.5,-.4c.2,-.1,.5,-.2,.8,-.2c.6,0,.9,.2,.9,.6c0,.1,-.1,.3,-.2,.4c-.1,.1,-.3,.1,-.4,.1c-.1,0,-.3,0,-.5,-.2c-.2,-.1,-.4,-.1,-.5,-.1c-.1,0,-.2,0,-.3,.2c0,.1,-.2,.4,-.4,.9c-.3,.9,-.8,1.5,-1.3,1.8c.3,.1,.8,.5,1.4,1.4c.6,.9,1.1,1.5,1.4,1.8c.3,.3,.6,.4,1.1,.5Z" class="g4_81"/>
<path fill-rule="evenodd" d="M306.4,275c.2,.1,.4,.1,.7,.1c.4,0,.7,-.1,1,-.3c.2,-.2,.3,-.4,.3,-.7c0,-.4,-.2,-.6,-.4,-.8c-.3,-.2,-.7,-.3,-1.2,-.3c-.1,0,-.2,0,-.4,0Zm0,-2.3c.2,0,.3,0,.3,0c.5,0,.9,-.1,1.1,-.3c.2,-.2,.3,-.4,.3,-.7c0,-.3,-.1,-.6,-.3,-.7c-.2,-.2,-.6,-.2,-1.1,-.2h-.3Zm1.6,.1c1,.2,1.4,.6,1.4,1.3c0,.4,-.2,.8,-.6,1c-.3,.2,-.9,.4,-1.5,.4h-2.5v-.2c.3,0,.5,-.1,.6,-.2c.1,-.2,.1,-.4,.1,-.8v-2.7c0,-.4,0,-.6,0,-.7q-.1,-.1,-.2,-.2c-.1,0,-.3,-.1,-.5,-.1v-.2h2.3c.4,0,.8,.1,1.1,.1c.2,.1,.5,.2,.6,.4c.2,.2,.3,.5,.3,.8c0,.6,-.3,.9,-1.1,1.1Z" class="g4_81"/>
<path fill-rule="evenodd" d="M312.9,274.4v-1.9c-.6,.2,-1,.3,-1.1,.4c-.3,.2,-.5,.3,-.6,.5c-.2,.2,-.2,.4,-.2,.6c0,.3,.1,.5,.2,.7c.2,.1,.4,.2,.6,.2c.2,0,.6,-.2,1.1,-.5m0,.3c-.6,.4,-.9,.7,-1,.7c-.2,.1,-.4,.2,-.6,.2c-.4,0,-.7,-.2,-.9,-.4c-.2,-.2,-.3,-.5,-.3,-.9c0,-.3,0,-.5,.1,-.7c.2,-.2,.4,-.5,.8,-.7c.4,-.2,1,-.5,1.9,-.8v-.2c0,-.5,-.1,-.8,-.3,-1c-.1,-.2,-.4,-.3,-.7,-.3c-.2,0,-.4,.1,-.5,.2c-.2,.1,-.2,.3,-.2,.4v.3c0,.2,-.1,.3,-.2,.4c0,.1,-.1,.2,-.3,.2c-.1,0,-.2,-.1,-.3,-.2c-.1,-.1,-.1,-.2,-.1,-.4c0,-.3,.1,-.6,.4,-.8c.4,-.3,.8,-.4,1.4,-.4c.4,0,.8,0,1.1,.2c.2,.1,.4,.3,.5,.5c0,.2,.1,.5,.1,1v1.7c0,.5,0,.8,0,.9c0,.1,0,.2,.1,.2c0,0,.1,.1,.1,.1c.1,0,.1,-.1,.2,-.1c.1,0,.2,-.2,.4,-.4v.3c-.4,.6,-.8,.9,-1.2,.9c-.1,0,-.3,-.1,-.4,-.2c-.1,-.2,-.1,-.4,-.1,-.7Z" class="g4_81"/>
<path fill-rule="evenodd" d="M316.9,270.8v.3c0,1.8,-.3,3.1,-1,4h1.9c.3,0,.5,0,.6,-.1c0,0,0,-.3,0,-.6v-3.6Zm-1.2,-.4h4.4v.2c-.2,0,-.4,.1,-.5,.1q-.1,.1,-.2,.2c0,.1,-.1,.3,-.1,.7v2.5c0,.5,.1,.8,.2,1c.1,.1,.3,.1,.6,.2v1.6h-.2c0,-.3,-.1,-.6,-.2,-.8c-.2,-.3,-.3,-.4,-.6,-.5c-.2,-.1,-.6,-.1,-1,-.1h-1.3c-.4,0,-.7,0,-1,.1c-.2,0,-.4,.2,-.5,.4c-.2,.2,-.3,.5,-.3,.9h-.2v-1.6c.3,-.1,.6,-.2,.8,-.4c.2,-.2,.5,-.7,.6,-1.3c.2,-.7,.3,-1.4,.3,-2c0,-.6,-.3,-1,-.8,-1Z" class="g4_81"/>
<path fill-rule="evenodd" d="M322.1,271.8v1.9c0,.4,0,.6,0,.8c.1,.2,.2,.4,.4,.5c.2,.2,.5,.3,.8,.3c.3,0,.6,-.2,.9,-.4c.3,-.4,.4,-.9,.4,-1.6c0,-.8,-.2,-1.4,-.5,-1.8c-.2,-.3,-.5,-.4,-.8,-.4c-.2,0,-.4,0,-.6,.1c-.1,.1,-.3,.3,-.6,.6m-1.8,-.9l1.6,-.6h.2v1.2c.2,-.5,.5,-.8,.8,-1c.2,-.1,.5,-.2,.8,-.2c.5,0,.9,.2,1.3,.6c.4,.4,.6,1.1,.6,1.9c0,.8,-.3,1.5,-.8,2.1c-.4,.5,-.9,.7,-1.5,.7c-.3,0,-.5,0,-.7,-.1c-.2,-.1,-.3,-.2,-.5,-.3v1.5c0,.3,0,.6,.1,.7c0,.1,.1,.1,.2,.2c.1,0,.3,.1,.5,.1v.2h-2.6v-.2h.1c.2,0,.4,-.1,.6,-.2c0,0,.1,-.1,.1,-.1c.1,-.1,.1,-.4,.1,-.7v-4.8c0,-.3,0,-.5,-.1,-.6c0,-.1,0,-.2,-.1,-.2c-.1,-.1,-.2,-.1,-.3,-.1c0,0,-.2,0,-.3,.1Z" class="g4_81"/>
<path fill-rule="evenodd" d="M329.2,274.4v-1.9c-.6,.2,-1,.3,-1.1,.4c-.3,.2,-.5,.3,-.6,.5c-.2,.2,-.2,.4,-.2,.6c0,.3,.1,.5,.2,.7c.2,.1,.4,.2,.6,.2c.2,0,.6,-.2,1.1,-.5m0,.3c-.6,.4,-.9,.7,-1,.7c-.2,.1,-.4,.2,-.6,.2c-.4,0,-.7,-.2,-.9,-.4c-.2,-.2,-.3,-.5,-.3,-.9c0,-.3,0,-.5,.1,-.7c.2,-.2,.4,-.5,.8,-.7c.4,-.2,1,-.5,1.9,-.8v-.2c0,-.5,-.1,-.8,-.3,-1c-.1,-.2,-.4,-.3,-.7,-.3c-.2,0,-.4,.1,-.5,.2c-.2,.1,-.2,.3,-.2,.4v.3c0,.2,-.1,.3,-.2,.4c0,.1,-.1,.2,-.3,.2c-.1,0,-.2,-.1,-.3,-.2c-.1,-.1,-.1,-.2,-.1,-.4c0,-.3,.1,-.6,.4,-.8c.4,-.3,.8,-.4,1.4,-.4c.4,0,.8,0,1.1,.2c.2,.1,.4,.3,.5,.5c0,.2,.1,.5,.1,1v1.7c0,.5,0,.8,0,.9c0,.1,0,.2,.1,.2c0,0,.1,.1,.1,.1c.1,0,.1,-.1,.2,-.1c0,0,.2,-.2,.4,-.4v.3c-.4,.6,-.8,.9,-1.2,.9c-.1,0,-.3,-.1,-.4,-.2c-.1,-.2,-.1,-.4,-.1,-.7Z" class="g4_81"/>
<path fill-rule="evenodd" d="M330.9,270.4h4.4l.2,1.4h-.3c0,-.3,-.1,-.5,-.2,-.7c-.1,-.1,-.2,-.2,-.3,-.3c-.2,0,-.4,0,-.7,0h-.4v3.5c0,.3,0,.6,0,.7c.1,.1,.1,.2,.2,.2c.1,0,.4,0,.7,.1v.2h-2.7v-.2c.4,-.1,.6,-.1,.7,-.2c.1,-.1,.1,-.4,.1,-.8v-3.5h-.4c-.3,0,-.5,0,-.6,0c-.2,.1,-.3,.2,-.4,.3c-.1,.2,-.2,.4,-.2,.7h-.3Z" class="g4_81"/>
<path d="M292.5,209l-19.2,15.3" class="g5_81"/>
<path fill-rule="evenodd" d="M269.6,227.2l9.8,-2.6c-2.7,-1.3,-4.3,-3.4,-5,-6.3Z" class="g4_81"/>
<path d="M383.1,237.7L341,261.1" class="g5_81"/>
<path fill-rule="evenodd" d="M339.5,262l10.1,-1.1c-2.4,-1.7,-3.7,-4,-3.9,-7Z" class="g4_81"/>
<path d="M343.7,209.2L373,222.9" class="g5_81"/>
<path fill-rule="evenodd" d="M372.6,222.5l-6.7,-7.6c.1,3,-1.1,5.4,-3.4,7.3Z" class="g4_81"/>
<path fill-rule="evenodd" d="M382.9,222.7c.2,0,.3,0,.5,.1c.1,0,.3,0,.4,0c.4,0,.7,-.2,1,-.5c.2,-.3,.4,-.6,.4,-1.1c0,-.3,-.1,-.6,-.2,-.9c-.2,-.3,-.3,-.5,-.6,-.6c-.2,-.2,-.5,-.2,-.8,-.2c-.2,0,-.4,0,-.7,.1Zm0,.3v2.2c0,.4,0,.7,.1,.8c.2,.2,.4,.3,.7,.3h.2v.2h-3.1v-.2h.2c.4,0,.6,-.1,.7,-.3c.1,-.1,.1,-.4,.1,-.8v-4.9c0,-.4,0,-.7,-.1,-.8c-.2,-.2,-.4,-.3,-.7,-.3h-.2V219h2.7c.7,0,1.2,.1,1.6,.2c.3,.2,.7,.4,.9,.7c.3,.4,.4,.7,.4,1.2c0,.6,-.2,1.1,-.6,1.5c-.4,.4,-.9,.5,-1.7,.5c-.1,0,-.3,0,-.6,0c-.2,0,-.4,-.1,-.6,-.1Z" class="g4_81"/>
<path fill-rule="evenodd" d="M389.2,221.7c-.2,0,-.4,0,-.6,.1c-.2,.1,-.4,.3,-.5,.6c-.1,.3,-.2,.7,-.2,1.1c0,.8,.2,1.4,.5,1.9c.3,.6,.6,.8,1.1,.8c.4,0,.7,-.1,.9,-.4c.2,-.3,.3,-.8,.3,-1.5c0,-.9,-.1,-1.6,-.5,-2.1c-.3,-.4,-.6,-.5,-1,-.5m.1,-.4c.8,0,1.4,.3,1.9,.9c.4,.5,.6,1,.6,1.7c0,.4,-.1,.9,-.4,1.3c-.2,.5,-.5,.8,-.9,1.1c-.3,.2,-.7,.3,-1.2,.3c-.8,0,-1.4,-.3,-1.8,-.9c-.4,-.5,-.6,-1.1,-.6,-1.7c0,-.5,.1,-.9,.4,-1.4c.2,-.4,.5,-.8,.9,-1c.3,-.2,.7,-.3,1.1,-.3Z" class="g4_81"/>
<path fill-rule="evenodd" d="M395.5,225.2l1.6,-3.8h1.7v.3c-.3,0,-.4,0,-.5,0c-.1,.1,-.2,.1,-.2,.2c0,.1,-.1,.3,-.1,.7v2.7c0,.3,0,.6,.1,.7c0,.1,.1,.1,.2,.2c.1,.1,.3,.1,.5,.1v.2h-2.4v-.2c.3,0,.5,-.1,.6,-.2c.1,-.1,.1,-.4,.1,-.8v-3l-1.8,4.2h-.1l-1.9,-4.2v3c0,.3,.1,.6,.1,.7c0,.1,.1,.1,.2,.2c.1,.1,.3,.1,.5,.1v.2h-1.9v-.2c.3,0,.5,-.1,.6,-.2c.1,-.1,.2,-.4,.2,-.8v-2.7c0,-.4,-.1,-.6,-.1,-.7c-.1,0,-.1,-.1,-.2,-.2c-.1,0,-.3,0,-.5,0v-.3H394Z" class="g4_81"/>
<path fill-rule="evenodd" d="M401.8,221.7c-.4,0,-.7,.1,-.9,.4c-.2,.3,-.3,.8,-.3,1.5c0,.8,.1,1.5,.4,2c.3,.4,.7,.7,1.1,.7c.4,0,.7,-.2,.9,-.5c.2,-.3,.3,-.8,.3,-1.5c0,-.8,-.1,-1.4,-.4,-1.9c-.3,-.5,-.6,-.7,-1.1,-.7m-1.9,1.2c.4,-1.1,1.1,-1.6,2.1,-1.6c.7,0,1.3,.3,1.7,.8c.4,.5,.7,1.1,.7,1.8c0,.7,-.3,1.3,-.7,1.9c-.5,.6,-1.1,.8,-1.8,.8c-.8,0,-1.4,-.3,-1.8,-.9c-.4,-.7,-.6,-1.5,-.6,-2.4c0,-.7,.1,-1.4,.3,-2.1c.2,-.6,.4,-1.1,.7,-1.4c.2,-.3,.5,-.5,.8,-.6c.3,-.2,.8,-.3,1.6,-.3c.5,0,.9,0,1,0c.1,0,.2,-.1,.3,-.2h.3c-.2,.3,-.3,.6,-.5,.7c-.2,.2,-.3,.3,-.5,.3c-.2,.1,-.6,.1,-1.1,.1c-.5,.1,-.9,.1,-1.1,.2c-.2,0,-.5,.2,-.7,.5c-.2,.2,-.4,.6,-.5,1c-.1,.4,-.2,.9,-.2,1.4Z" class="g4_81"/>
<path d="M257.7,237.5l34.2,24.8Z" class="g4_81"/>
<path d="M257.7,237.5l34.2,24.8" class="g5_81"/>
<path fill-rule="evenodd" d="M292.2,262.6l-5,-8.8c-.5,3,-2.1,5.1,-4.8,6.4Z" class="g4_81"/>
<path d="M316.7,209.3l.1,30.8" class="g5_81"/>
<path fill-rule="evenodd" d="M316.8,247.2l4,-9.4c-2.7,1.4,-5.4,1.4,-8,.1Z" class="g4_81"/>
<path d="M185.3,151.6h651V63.4h-651v88.2Z" class="g2_81"/>
<path d="M74.1,318H836.3" class="g6_81"/>
<path d="M186.1,1078.3H836.8V925.5H186.1v152.8Z" class="g7_81"/>
<path d="M74.6,925.1H836.8" class="g6_81"/>
<path d="M136.3,101.1H176V63.6H136.3v37.5Z" class="g8_81"/>
<path d="M655.1,126.4h51.2L723.8,78.3H672.6l-17.5,48.1Z" class="g9_81"/>
<path d="M271.8,621.1c4.6,0,8.3,-3.7,8.3,-8.3c0,-4.6,-3.7,-8.3,-8.3,-8.3c-4.5,0,-8.2,3.7,-8.2,8.3c0,4.6,3.7,8.3,8.2,8.3Z" class="ga_81"/>
<path clip-path="url(#c0_81)" d="M185.5,440.8V613.4M207.2,440.8V613.4M228.8,440.8V613.4M250.5,440.8V613.4M272.1,440.8V613.4M293.8,440.8V613.4M315.4,440.8V613.4M337.1,440.8V613.4M358.7,440.8V613.4M380.4,440.8V613.4M402,440.8V613.4M423.7,440.8V613.4M445.4,440.8V613.4M467,440.8V613.4M488.7,440.8V613.4M510.3,440.8V613.4M532,440.8V613.4M553.6,440.8V613.4M575.3,440.8V613.4M596.9,440.8V613.4M618.6,440.8V613.4M640.2,440.8V613.4M661.9,440.8V613.4M683.5,440.8V613.4M705.2,440.8V613.4M726.8,440.8V613.4M748.5,440.8V613.4M186.7,440.8H770.8M186.2,462.5H770.8M186.2,484.1H770.8M186.2,505.8H770.8M186.2,527.4H770.8M186.2,549.1H770.8M186.2,570.7H770.8M186.2,592.4H770.8M186.2,614H770.8m0,-173.2V613.4" class="gb_81"/>
<path fill-rule="evenodd" d="M397.5,450.4l-1,4h-.3v-1c0,-.4,-.1,-.7,-.2,-1c-.1,-.3,-.3,-.5,-.5,-.7c-.2,-.2,-.5,-.4,-.8,-.5c-.3,-.1,-.7,-.2,-1.1,-.2c-1.1,0,-2,.3,-2.8,.9c-1,.7,-1.8,1.8,-2.4,3.2c-.5,1.1,-.7,2.2,-.7,3.4c0,1.1,.3,2.1,1,2.8c.7,.7,1.6,1,2.7,1c.8,0,1.6,-.2,2.2,-.5c.6,-.4,1.2,-1,1.8,-1.7h.4c-.6,1,-1.4,1.8,-2.2,2.3c-.8,.5,-1.7,.7,-2.8,.7c-1,0,-1.9,-.2,-2.7,-.6c-.7,-.4,-1.3,-1,-1.7,-1.8c-.4,-.7,-.6,-1.5,-.6,-2.4c0,-1.3,.3,-2.6,1.1,-3.9c.7,-1.2,1.6,-2.2,2.9,-2.9c1.2,-.7,2.5,-1.1,3.7,-1.1c.6,0,1.3,.2,2,.4c.3,.2,.6,.2,.7,.2c.2,0,.3,0,.4,-.1c.1,0,.3,-.2,.5,-.5Z" class="g4_81"/>
<path fill-rule="evenodd" d="M284,449.2l-2.7,9.1c-.2,.6,-.3,1.1,-.3,1.2c0,.1,.1,.2,.1,.3c.1,.1,.2,.1,.3,.2c.1,0,.4,.1,.7,.1c1,0,1.9,-.1,2.7,-.3c.8,-.2,1.4,-.5,1.9,-.9c.8,-.6,1.3,-1.3,1.8,-2.3c.4,-1,.6,-2.1,.6,-3.3c0,-1.4,-.3,-2.5,-1,-3.1c-.6,-.7,-1.6,-1.1,-2.9,-1.1c-.3,0,-.7,0,-1.2,.1m-3.2,-.4l.1,-.3h3.9c1.6,0,2.8,.2,3.6,.6c.8,.3,1.4,.9,1.9,1.7c.5,.9,.7,1.7,.7,2.6c0,.8,-.1,1.6,-.4,2.4c-.3,.7,-.6,1.3,-.9,1.8c-.3,.4,-.9,.9,-1.6,1.4c-.7,.6,-1.5,1,-2.3,1.3c-.8,.2,-1.9,.3,-3.1,.3h-5.1l.1,-.3c.5,0,.8,0,.9,-.1c.3,-.1,.4,-.3,.6,-.4c.1,-.3,.3,-.8,.5,-1.5l2.2,-7.4c.2,-.6,.2,-1,.2,-1.3c0,-.3,0,-.5,-.2,-.6c-.2,-.1,-.5,-.2,-.9,-.2Z" class="g4_81"/>
<path fill-rule="evenodd" d="M218.8,568.3l-3.5,4.8h3Zm1.7,-3l-.9,10.1c0,.5,0,.8,0,1c0,.2,0,.4,.1,.5c.1,.2,.3,.3,.4,.4c.2,.1,.6,.1,1,.1l-.1,.4h-4.8l.1,-.4h.3c.3,0,.7,-.1,.9,-.2c.2,-.1,.3,-.3,.4,-.6c.1,-.2,.1,-.6,.2,-1.3l.1,-1.5h-3.4l-1.3,1.6c-.3,.4,-.4,.7,-.5,.8c-.1,.2,-.1,.4,-.1,.5c0,.2,.1,.4,.2,.5c.2,.1,.4,.2,.8,.2l-.1,.4h-3.6l.1,-.4c.4,0,.8,-.1,1.2,-.4c.3,-.3,.8,-.9,1.5,-1.8l7.2,-9.9Z" class="g4_81"/>
<path fill-rule="evenodd" d="M325.5,578c.6,.1,1.1,.1,1.5,.1c.9,0,1.8,-.2,2.5,-.8c.7,-.6,1.1,-1.3,1.1,-2.3c0,-.7,-.3,-1.3,-.7,-1.7c-.5,-.4,-1.2,-.6,-2.2,-.6c-.2,0,-.4,0,-.7,0Zm1.8,-6c.3,0,.6,.1,.8,.1c1.2,0,2.2,-.3,2.8,-.9c.6,-.5,.9,-1.2,.9,-2c0,-.6,-.2,-1.1,-.6,-1.4c-.4,-.4,-.9,-.5,-1.8,-.5c-.2,0,-.4,0,-.8,.1Zm-1.9,-5l.2,-.3h4.3c.7,0,1.4,.1,1.9,.3c.6,.2,1,.5,1.3,.9c.3,.5,.4,.9,.4,1.3c0,.7,-.2,1.4,-.7,1.9c-.5,.6,-1.3,1,-2.5,1.3c.8,.3,1.3,.6,1.6,1.1c.4,.4,.6,.9,.6,1.5c0,.6,-.2,1.1,-.5,1.7c-.3,.5,-.7,1,-1.2,1.3c-.5,.3,-1.1,.5,-1.8,.6c-.4,.1,-1.2,.2,-2.2,.2h-4.5l.1,-.3c.5,0,.8,-.1,1,-.2c.2,-.1,.4,-.2,.5,-.4c.1,-.2,.3,-.7,.5,-1.5l2.2,-7.4c.2,-.6,.3,-1,.3,-1.3c0,-.2,-.1,-.4,-.2,-.5c-.2,-.1,-.5,-.2,-1,-.2c-.1,0,-.2,0,-.3,0Z" class="g4_81"/>
<g clip-path="url(#c0_81)">
<path d="M293.9,462.7h86.2M424,484.3H575.5M467.2,570.7H618.7m-389.5,0h86.1" class="gc_81"/>
<path d="M228.4,570.8l65.3,-108m21.6,108l65.3,-108m43.2,21.6L467,570.8M575.5,484.4l43.2,86.4" class="gd_81"/>
<path d="M237.1,557.6c5.5,2.9,7.5,7.4,6,13.3M462.6,560c8.5,-.9,14.2,2.6,17,10.5" class="ge_81"/>
</g>
<path d="M605.6,624.5c4.5,0,8.3,-3.7,8.3,-8.2c0,-4.6,-3.8,-8.3,-8.3,-8.3c-4.6,0,-8.3,3.7,-8.3,8.3c0,4.5,3.7,8.2,8.3,8.2ZM305.3,457.4c4.6,0,8.3,-3.7,8.3,-8.3c0,-4.6,-3.7,-8.3,-8.3,-8.3c-4.6,0,-8.3,3.7,-8.3,8.3c0,4.6,3.7,8.3,8.3,8.3Zm334.5,0c4.6,0,8.3,-3.7,8.3,-8.3c0,-4.6,-3.7,-8.3,-8.3,-8.3c-4.6,0,-8.3,3.7,-8.3,8.3c0,4.6,3.7,8.3,8.3,8.3Z" class="ga_81"/>
<path clip-path="url(#c1_81)" d="M304.6,440.8V613.4M326.2,440.8V613.4M347.9,440.8V613.4M369.5,440.8V613.4M391.2,440.8V613.4M412.8,440.8V613.4M434.5,440.8V613.4M456.1,440.8V613.4M477.8,440.8V613.4M499.4,440.8V613.4M521.1,440.8V613.4M542.8,440.8V613.4M564.4,440.8V613.4M586.1,440.8V613.4M607.7,440.8V613.4M629.4,440.8V613.4M651,440.8V613.4M672.7,440.8V613.4M694.3,440.8V613.4M716,440.8V613.4M737.6,440.8V613.4M759.3,440.8V613.4M780.9,440.8V613.4M802.6,440.8V613.4M824.2,440.8V613.4M845.9,440.8V613.4M867.6,440.8V613.4M305.8,440.8H889.9M305.3,462.5H889.9M305.3,484.1H889.9M305.3,505.8H889.9M305.3,527.4H889.9M305.3,549.1H889.9M305.3,570.7H889.9M305.3,592.4H889.9M305.3,614H889.9m0,-173.2V613.4" class="gb_81"/>
<path fill-rule="evenodd" d="M711.9,472l-.9,4h-.3l-.1,-1c0,-.4,-.1,-.7,-.2,-1c-.1,-.2,-.2,-.5,-.5,-.7c-.2,-.2,-.4,-.4,-.8,-.5c-.3,-.1,-.7,-.2,-1.1,-.2c-1,0,-2,.3,-2.8,.9c-1,.8,-1.8,1.8,-2.4,3.2c-.4,1.1,-.7,2.2,-.7,3.4c0,1.2,.4,2.1,1,2.8c.7,.7,1.6,1.1,2.7,1.1c.9,0,1.6,-.2,2.2,-.6c.7,-.4,1.3,-.9,1.8,-1.7h.5c-.7,1,-1.4,1.8,-2.2,2.3c-.8,.5,-1.8,.7,-2.9,.7c-1,0,-1.9,-.2,-2.6,-.6c-.8,-.4,-1.4,-1,-1.8,-1.7c-.4,-.8,-.6,-1.6,-.6,-2.5c0,-1.3,.4,-2.6,1.1,-3.8c.7,-1.3,1.7,-2.3,2.9,-3c1.3,-.7,2.5,-1.1,3.8,-1.1c.6,0,1.2,.2,1.9,.5c.4,.1,.6,.1,.7,.1c.2,0,.3,0,.4,0c.1,-.1,.3,-.3,.6,-.6Z" class="g4_81"/>
<path fill-rule="evenodd" d="M530.5,472.3l-2.6,9.1c-.2,.7,-.3,1.1,-.3,1.2c0,.1,.1,.2,.1,.3c.1,.1,.2,.2,.3,.2c.1,.1,.4,.1,.7,.1c1,0,1.8,-.1,2.6,-.3c.8,-.2,1.5,-.5,2,-.9c.7,-.5,1.3,-1.3,1.8,-2.3c.4,-.9,.6,-2,.6,-3.3c0,-1.4,-.3,-2.4,-1,-3.1c-.7,-.7,-1.6,-1,-2.9,-1c-.3,0,-.7,0,-1.3,0m-3.1,-.3l.1,-.4h3.9c1.6,0,2.8,.2,3.6,.6c.8,.4,1.4,1,1.9,1.8c.5,.8,.7,1.6,.7,2.6c0,.8,-.1,1.5,-.4,2.3c-.3,.7,-.6,1.3,-.9,1.8c-.4,.4,-.9,.9,-1.6,1.5c-.7,.5,-1.5,.9,-2.3,1.2c-.8,.2,-1.9,.4,-3.1,.4h-5.2l.2,-.4c.4,0,.7,0,.9,-.1c.2,-.1,.4,-.2,.5,-.4c.2,-.3,.4,-.8,.6,-1.5l2.2,-7.4c.1,-.5,.2,-1,.2,-1.3c0,-.3,-.1,-.4,-.2,-.6c-.2,-.1,-.5,-.1,-.9,-.1Z" class="g4_81"/>
<path fill-rule="evenodd" d="M575,568.3l-3.5,4.8h3Zm1.7,-3l-.9,10.1c0,.5,0,.8,0,1c0,.2,0,.4,.1,.5c.1,.2,.3,.3,.4,.4c.2,.1,.6,.1,1,.1l-.1,.4h-4.7v-.4h.3c.3,0,.7,-.1,.9,-.2c.2,-.1,.3,-.3,.4,-.6c.1,-.2,.1,-.6,.2,-1.3l.1,-1.5H571l-1.3,1.6c-.3,.4,-.4,.7,-.5,.8c-.1,.2,-.1,.4,-.1,.5c0,.2,.1,.4,.2,.5c.2,.1,.4,.2,.8,.2l-.1,.4h-3.6l.1,-.4c.4,0,.8,-.1,1.2,-.4c.3,-.3,.8,-.9,1.5,-1.8l7.2,-9.9Z" class="g4_81"/>
<path fill-rule="evenodd" d="M743.6,578c.6,.1,1.1,.1,1.5,.1c.9,0,1.8,-.2,2.5,-.8c.7,-.6,1.1,-1.3,1.1,-2.3c0,-.7,-.3,-1.3,-.7,-1.7c-.5,-.4,-1.2,-.6,-2.2,-.6c-.2,0,-.4,0,-.7,0Zm1.8,-6c.3,0,.6,.1,.8,.1c1.2,0,2.2,-.3,2.8,-.9c.6,-.5,.9,-1.2,.9,-2c0,-.6,-.2,-1.1,-.6,-1.4c-.4,-.4,-.9,-.5,-1.8,-.5c-.2,0,-.4,0,-.8,.1Zm-1.9,-5l.2,-.3H748c.7,0,1.4,.1,1.9,.3c.6,.2,1,.5,1.3,.9c.3,.5,.4,.9,.4,1.3c0,.7,-.2,1.4,-.7,1.9c-.5,.6,-1.3,1,-2.5,1.3c.8,.3,1.3,.6,1.6,1.1c.4,.4,.6,.9,.6,1.5c0,.6,-.2,1.1,-.5,1.7c-.3,.5,-.7,1,-1.2,1.3c-.5,.3,-1.1,.5,-1.8,.6c-.4,.1,-1.2,.2,-2.2,.2h-4.5l.1,-.3c.5,0,.8,-.1,1,-.2c.2,-.1,.4,-.2,.5,-.4c.1,-.2,.3,-.7,.5,-1.5l2.2,-7.4c.2,-.6,.3,-1,.3,-1.3c0,-.2,-.1,-.4,-.2,-.5c-.2,-.1,-.5,-.2,-1,-.2c-.1,0,-.2,0,-.3,0Z" class="g4_81"/>
<g clip-path="url(#c1_81)">
<path d="M413,462.7h86.2m43.9,21.6H694.5M586.2,570.7H737.7m-389.5,0h86.2" class="gc_81"/>
<path d="M347.5,570.8l65.3,-108m21.6,108l65.3,-108m43.2,21.6l43.2,86.4M694.5,484.4l43.2,86.4" class="gd_81"/>
<path d="M356.1,557.6c5.6,2.9,7.6,7.4,6.1,13.3M581.6,560c8.6,-.9,14.3,2.6,17.1,10.5" class="ge_81"/>
</g>
<path d="M74.1,682.2H836.3" class="g6_81"/>
<path d="M185.5,746.6V876.5M207.2,746.6V876.5M228.8,746.6V876.5M250.5,746.6V876.5M272.1,746.6V876.5M293.8,746.6V876.5M315.4,746.6V876.5M337.1,746.6V876.5M358.7,746.6V876.5M380.4,746.6V876.5M402,746.6V876.5M423.7,746.6V876.5M445.4,746.6V876.5M467,746.6V876.5M488.7,746.6V876.5M185.5,746.6H488.7M185.5,768.2H488.7M185.5,789.9H488.7M185.5,811.5H488.7M185.5,833.2H488.7M185.5,854.8H488.7M185.5,876.5H488.7" class="gb_81"/>
<path fill-rule="evenodd" d="M348,750.4l-.9,3.9h-.3v-1c-.1,-.3,-.1,-.7,-.3,-.9c-.1,-.3,-.2,-.6,-.4,-.8c-.3,-.2,-.5,-.3,-.9,-.4c-.3,-.2,-.6,-.2,-1,-.2c-1.1,0,-2,.3,-2.8,.9c-1.1,.7,-1.9,1.8,-2.4,3.1c-.5,1.1,-.8,2.3,-.8,3.4c0,1.2,.4,2.1,1.1,2.8c.7,.7,1.5,1.1,2.6,1.1c.9,0,1.6,-.2,2.3,-.6c.6,-.3,1.2,-.9,1.8,-1.7h.4c-.7,1.1,-1.4,1.8,-2.2,2.3c-.8,.5,-1.8,.8,-2.9,.8c-1,0,-1.8,-.2,-2.6,-.7c-.8,-.4,-1.4,-.9,-1.8,-1.7c-.4,-.8,-.6,-1.6,-.6,-2.4c0,-1.4,.4,-2.6,1.1,-3.9c.7,-1.2,1.7,-2.2,2.9,-3c1.3,-.7,2.5,-1,3.8,-1c.6,0,1.2,.1,2,.4c.3,.1,.5,.2,.7,.2c.1,0,.2,-.1,.3,-.1c.2,-.1,.3,-.2,.6,-.5Z" class="g4_81"/>
<path fill-rule="evenodd" d="M197.3,806.4l-2.7,9c-.2,.7,-.3,1.1,-.3,1.3c0,.1,.1,.2,.1,.3c.1,.1,.2,.1,.3,.2c.1,0,.4,0,.7,0c1,0,1.8,-.1,2.6,-.3c.8,-.1,1.5,-.4,2,-.8c.7,-.6,1.3,-1.3,1.8,-2.3c.4,-1,.6,-2.1,.6,-3.3c0,-1.4,-.3,-2.5,-1,-3.2c-.7,-.6,-1.6,-1,-2.9,-1c-.3,0,-.7,0,-1.2,.1m-3.2,-.4l.1,-.3h3.9c1.6,0,2.8,.2,3.6,.5c.8,.4,1.4,1,1.9,1.8c.5,.8,.7,1.7,.7,2.6c0,.8,-.1,1.6,-.4,2.3c-.3,.8,-.6,1.4,-.9,1.8c-.4,.5,-.9,1,-1.6,1.5c-.7,.6,-1.5,1,-2.3,1.2c-.8,.3,-1.9,.4,-3.1,.4h-5.1l.1,-.3c.4,0,.8,-.1,.9,-.1c.3,-.1,.4,-.3,.5,-.4c.2,-.3,.4,-.8,.6,-1.6l2.2,-7.3c.1,-.6,.2,-1,.2,-1.4c0,-.2,-.1,-.4,-.2,-.5c-.2,-.1,-.5,-.2,-.9,-.2Z" class="g4_81"/>
<path fill-rule="evenodd" d="M349.2,814.9c-.6,0,-1.1,.2,-1.7,.5c-.6,.3,-1.1,.8,-1.7,1.4c-.6,.7,-1.1,1.6,-1.5,2.7c-.6,1.3,-.8,2.6,-.8,3.8c0,.8,.2,1.6,.6,2.2c.4,.7,1.1,1,2,1c.6,0,1.1,-.1,1.6,-.4c.5,-.3,1.1,-.7,1.7,-1.4c.7,-.8,1.3,-1.8,1.7,-3.1c.5,-1.3,.8,-2.5,.8,-3.6c0,-.8,-.2,-1.5,-.7,-2.1c-.4,-.6,-1.1,-1,-2,-1m.3,-.5c.9,0,1.6,.2,2.2,.5c.6,.3,1.1,.9,1.4,1.5c.4,.7,.6,1.4,.6,2.2c0,1.3,-.4,2.6,-1.2,4.1c-.7,1.4,-1.7,2.5,-2.9,3.2c-1.2,.8,-2.5,1.2,-3.8,1.2c-.9,0,-1.7,-.2,-2.3,-.7c-.7,-.4,-1.1,-.9,-1.4,-1.6c-.3,-.7,-.5,-1.3,-.5,-2c0,-1.1,.3,-2.2,.8,-3.3c.6,-1.1,1.2,-2.1,2,-2.8c.7,-.8,1.5,-1.3,2.4,-1.7c.9,-.4,1.8,-.6,2.7,-.6Z" class="g4_81"/>
<path fill-rule="evenodd" d="M345.3,861l-3.5,4.7h3Zm1.8,-3l-1,10.1c0,.4,0,.8,0,.9c0,.2,0,.4,.1,.6c.1,.1,.3,.3,.5,.3c.2,.1,.5,.2,.9,.2l-.1,.3h-4.7l.1,-.3h.2c.4,0,.7,-.1,.9,-.3c.2,-.1,.3,-.3,.4,-.6c.1,-.1,.1,-.6,.2,-1.3l.1,-1.5h-3.4l-1.3,1.7c-.2,.3,-.4,.6,-.5,.8c-.1,.2,-.1,.3,-.1,.4c0,.2,.1,.4,.2,.5c.2,.2,.5,.3,.8,.3l-.1,.3h-3.6l.1,-.3c.5,-.1,.8,-.2,1.2,-.5c.3,-.3,.8,-.8,1.5,-1.8l7.2,-9.8Z" class="g4_81"/>
<path fill-rule="evenodd" d="M472.8,817.5c.6,.1,1.1,.1,1.5,.1c.9,0,1.7,-.2,2.5,-.8c.7,-.6,1,-1.3,1,-2.3c0,-.7,-.2,-1.3,-.6,-1.7c-.5,-.4,-1.2,-.6,-2.2,-.6c-.2,0,-.4,0,-.7,0Zm1.7,-6c.4,.1,.7,.1,.9,.1c1.2,0,2.1,-.3,2.8,-.9c.6,-.5,.9,-1.2,.9,-2c0,-.6,-.2,-1.1,-.6,-1.4c-.4,-.4,-1,-.5,-1.8,-.5c-.2,0,-.5,0,-.8,.1Zm-1.8,-5l.1,-.3h4.4c.7,0,1.4,.1,1.9,.3c.6,.2,1,.6,1.3,1c.3,.4,.4,.8,.4,1.2c0,.7,-.2,1.4,-.7,1.9c-.5,.6,-1.4,1,-2.5,1.3c.7,.3,1.3,.6,1.6,1.1c.4,.4,.5,.9,.5,1.5c0,.6,-.1,1.2,-.4,1.7c-.3,.6,-.7,1,-1.2,1.3c-.5,.3,-1.1,.5,-1.8,.7c-.5,.1,-1.2,.1,-2.3,.1h-4.4l.1,-.3c.5,0,.8,-.1,1,-.2c.2,-.1,.4,-.2,.5,-.4c.1,-.2,.3,-.7,.5,-1.5l2.2,-7.4c.2,-.6,.3,-1,.3,-1.3c0,-.2,-.1,-.4,-.3,-.5c-.1,-.1,-.4,-.2,-.9,-.2c-.1,0,-.2,0,-.3,0Z" class="g4_81"/>
<path d="M207.2,811.8H466.3M337.7,768.7v87.1" class="gc_81"/>
<path d="M207.2,811.6L337.7,768.2l129.1,43.4L336.2,855.3l-129,-43.7Z" class="gd_81"/>
</svg>