<?xml version="1.0" encoding="UTF-8" standalone="no"?>
<!DOCTYPE svg PUBLIC "-//W3C//DTD SVG 1.1//EN"
"http://www.w3.org/Graphics/SVG/1.1/DTD/svg11.dtd">
<svg viewBox="0 0 909 1147" version="1.1" xmlns="http://www.w3.org/2000/svg" xmlns:xlink="http://www.w3.org/1999/xlink">
<defs>
<clipPath id="c0_99"><path d="M306.4,221.3V145.1h81.7v76.2Z"/></clipPath>
<clipPath id="c1_99"><path d="M183.4,221.3V145.1H289.9v76.2Z"/></clipPath>
<style type="text/css"><![CDATA[
.g0_99{
fill: #B6D774;
}
.g1_99{
fill: none;
stroke: #000;
stroke-width: 0.763;
}
.g2_99{
fill: none;
stroke: #000;
stroke-width: 0.763;
stroke-miterlimit: 2;
}
.g3_99{
fill: #000;
}
.g4_99{
fill: none;
stroke: #000;
stroke-width: 0.152;
stroke-miterlimit: 2;
}
.g5_99{
fill: none;
stroke: #0EA5DF;
stroke-width: 3.055;
}
.g6_99{
fill: none;
stroke: #5CADCE;
stroke-width: 0.763;
stroke-miterlimit: 10;
}
.g7_99{
fill: #8ED8F8;
}
.g8_99{
fill: #FEE8DD;
}
.g9_99{
fill: #B7D0D9;
}
.ga_99{
fill: #BABCBE;
}
.gb_99{
fill: #69A1BA;
}
.gc_99{
fill: #BAACA5;
}
.gd_99{
fill: #889BA3;
}
.ge_99{
fill: none;
stroke: #000;
stroke-width: 1.222;
}
.gf_99{
fill: none;
stroke: #2E3092;
stroke-width: 0.763;
}
]]></style>
</defs>
<path d="M835.8,1131h73.6v-51.5H835.8V1131Z" class="g0_99"/>
<path d="M753.1,935.9h53" class="g1_99"/>
<path clip-path="url(#c0_99)" d="M314,145.5h58.7v58.7H314V145.5ZM200.3,165.2h87.1v38.7H200.3V165.2Z" class="g2_99"/>
<path fill-rule="evenodd" d="M344.9,213c.3,.3,.5,.6,.7,.9c.1,.2,.2,.8,.5,1.7l.8,-1.2c.2,-.3,.4,-.6,.7,-.8c.3,-.3,.6,-.4,.8,-.5c.2,-.1,.3,-.1,.5,-.1c.2,0,.4,0,.6,.2c.2,.1,.2,.3,.2,.5c0,.2,0,.4,-.1,.4c-.2,.2,-.4,.3,-.6,.3c-.1,0,-.2,-.1,-.4,-.1c-.3,-.1,-.4,-.2,-.5,-.2c-.2,0,-.4,.1,-.6,.3c-.3,.3,-.8,.9,-1.3,1.8l.8,3.1c.1,.4,.2,.7,.2,.8c.1,.1,.2,.2,.3,.2c.1,0,.2,-.1,.4,-.3c.3,-.2,.6,-.6,.9,-1l.3,.1c-.4,.7,-.9,1.3,-1.5,1.8c-.3,.3,-.6,.4,-.8,.4c-.3,0,-.6,-.2,-.8,-.6c-.1,-.2,-.4,-1.2,-.8,-3c-.9,1.6,-1.6,2.7,-2.2,3.1c-.4,.3,-.7,.5,-1.1,.5c-.2,0,-.4,-.1,-.6,-.3c-.2,-.1,-.2,-.3,-.2,-.5c0,-.2,0,-.4,.2,-.5c.1,-.1,.3,-.2,.4,-.2c.2,0,.4,.1,.7,.3c.1,.1,.2,.2,.3,.2c.1,0,.2,0,.3,-.1c.3,-.3,.7,-.8,1.1,-1.5c.5,-.8,.8,-1.3,1,-1.6c-.4,-1.5,-.6,-2.3,-.6,-2.3c-.2,-.4,-.3,-.7,-.6,-.9c-.2,-.1,-.5,-.2,-.9,-.2c-.2,0,-.3,0,-.5,0v-.3Z" class="g3_99"/>
<path d="M344.9,213c.3,.3,.5,.6,.7,.9c.1,.2,.2,.8,.5,1.7l.8,-1.2c.2,-.3,.4,-.6,.7,-.8c.3,-.3,.6,-.4,.8,-.5c.2,-.1,.3,-.1,.5,-.1c.2,0,.4,0,.6,.2c.2,.1,.2,.3,.2,.5c0,.2,0,.4,-.1,.4c-.2,.2,-.4,.3,-.6,.3c-.1,0,-.2,-.1,-.4,-.1c-.3,-.1,-.4,-.2,-.5,-.2c-.2,0,-.4,.1,-.6,.3c-.3,.3,-.8,.9,-1.3,1.8l.8,3.1c.1,.4,.2,.7,.2,.8c.1,.1,.2,.2,.3,.2c.1,0,.2,-.1,.4,-.3c.3,-.2,.6,-.6,.9,-1l.3,.1c-.4,.7,-.9,1.3,-1.5,1.8c-.3,.3,-.6,.4,-.8,.4c-.3,0,-.6,-.2,-.8,-.6c-.1,-.2,-.4,-1.2,-.8,-3c-.9,1.6,-1.6,2.7,-2.2,3.1c-.4,.3,-.7,.5,-1.1,.5c-.2,0,-.4,-.1,-.6,-.3c-.2,-.1,-.2,-.3,-.2,-.5c0,-.2,0,-.4,.2,-.5c.1,-.1,.3,-.2,.4,-.2c.2,0,.4,.1,.7,.3c.1,.1,.2,.2,.3,.2c.1,0,.2,0,.3,-.1c.3,-.3,.7,-.8,1.1,-1.5c.5,-.8,.8,-1.3,1,-1.6c-.4,-1.5,-.6,-2.3,-.6,-2.3c-.2,-.4,-.3,-.7,-.6,-.9c-.2,-.1,-.5,-.2,-.9,-.2c-.2,0,-.3,0,-.5,0v-.3l2.4,-.4Z" class="g4_99"/>
<g clip-path="url(#c0_99)">
<path fill-rule="evenodd" d="M383.3,170.7c.3,.3,.5,.6,.6,.9c.1,.2,.3,.8,.6,1.7l.7,-1.2c.2,-.3,.5,-.5,.8,-.8c.3,-.3,.6,-.4,.8,-.5c.1,-.1,.3,-.1,.5,-.1c.2,0,.4,0,.6,.2c.1,.1,.2,.3,.2,.5c0,.2,0,.4,-.1,.5c-.2,.1,-.4,.2,-.6,.2c-.1,0,-.3,0,-.4,-.1c-.3,-.1,-.5,-.1,-.6,-.1c-.1,0,-.3,0,-.5,.2c-.4,.3,-.8,.9,-1.3,1.8l.7,3.1c.1,.5,.2,.7,.3,.8c.1,.1,.2,.2,.2,.2c.2,0,.3,-.1,.5,-.2c.3,-.3,.6,-.7,.8,-1.1l.3,.1c-.3,.8,-.8,1.3,-1.4,1.8c-.3,.3,-.6,.4,-.8,.4c-.4,0,-.6,-.2,-.8,-.6c-.1,-.2,-.4,-1.2,-.8,-3c-.9,1.6,-1.7,2.7,-2.2,3.1c-.4,.3,-.8,.5,-1.1,.5c-.2,0,-.4,-.1,-.6,-.3c-.2,-.1,-.3,-.3,-.3,-.5c0,-.2,.1,-.4,.2,-.5c.2,-.1,.3,-.2,.5,-.2c.2,0,.4,.1,.6,.3c.2,.1,.3,.2,.4,.2q.1,0,.3,-.1c.2,-.3,.6,-.7,1.1,-1.5c.5,-.7,.8,-1.3,1,-1.6c-.4,-1.5,-.6,-2.2,-.6,-2.3c-.2,-.4,-.4,-.7,-.6,-.9c-.2,-.1,-.5,-.2,-1,-.2c-.1,0,-.3,0,-.4,0v-.3Z" class="g3_99"/>
<path d="M383.3,170.7c.3,.3,.5,.6,.6,.9c.1,.2,.3,.8,.6,1.7l.7,-1.2c.2,-.3,.5,-.5,.8,-.8c.3,-.3,.6,-.4,.8,-.5c.1,-.1,.3,-.1,.5,-.1c.2,0,.4,0,.6,.2c.1,.1,.2,.3,.2,.5c0,.2,0,.4,-.1,.5c-.2,.1,-.4,.2,-.6,.2c-.1,0,-.3,0,-.4,-.1c-.3,-.1,-.5,-.1,-.6,-.1c-.1,0,-.3,0,-.5,.2c-.4,.3,-.8,.9,-1.3,1.8l.7,3.1c.1,.5,.2,.7,.3,.8c.1,.1,.2,.2,.2,.2c.2,0,.3,-.1,.5,-.2c.3,-.3,.6,-.7,.8,-1.1l.3,.1c-.3,.8,-.8,1.3,-1.4,1.8c-.3,.3,-.6,.4,-.8,.4c-.4,0,-.6,-.2,-.8,-.6c-.1,-.2,-.4,-1.2,-.8,-3c-.9,1.6,-1.7,2.7,-2.2,3.1c-.4,.3,-.8,.5,-1.1,.5c-.2,0,-.4,-.1,-.6,-.3c-.2,-.1,-.3,-.3,-.3,-.5c0,-.2,.1,-.4,.2,-.5c.2,-.1,.3,-.2,.5,-.2c.2,0,.4,.1,.6,.3c.2,.1,.3,.2,.4,.2q.1,0,.3,-.1c.2,-.3,.6,-.7,1.1,-1.5c.5,-.7,.8,-1.3,1,-1.6c-.4,-1.5,-.6,-2.2,-.6,-2.3c-.2,-.4,-.4,-.7,-.6,-.9c-.2,-.1,-.5,-.2,-1,-.2c-.1,0,-.3,0,-.4,0v-.3l2.4,-.4Z" class="g4_99"/>
</g>
<path d="M73.6,66.5H835.8" class="g5_99"/>
<path clip-path="url(#c1_99)" d="M297.6,145.5h58.6v58.7H297.6V145.5ZM183.8,165.2h87.1v38.7H183.8V165.2Z" class="g2_99"/>
<path fill-rule="evenodd" d="M230.1,215c.1,-.7,.2,-1.4,.2,-1.8c0,-.6,-.1,-1.2,-.3,-1.9c-.2,-.7,-.5,-1.2,-.9,-1.5c-.3,-.4,-.7,-.6,-1.2,-.6c-.5,0,-1,.3,-1.4,.7c-.4,.5,-.6,1.2,-.6,2.2c0,1.2,.3,2.2,.8,2.9c.4,.5,.9,.8,1.5,.8c.2,0,.6,-.1,.9,-.2c.4,-.1,.7,-.3,1,-.6m-5.5,6.3V221c.7,-.1,1.5,-.2,2.1,-.6c.7,-.3,1.4,-1,2,-1.8c.6,-.9,1,-1.8,1.3,-2.9c-1,.6,-1.8,.9,-2.6,.9c-.8,0,-1.6,-.3,-2.2,-1c-.6,-.6,-.9,-1.5,-.9,-2.6c0,-1.1,.3,-2,.9,-2.8c.8,-1.1,1.7,-1.6,2.9,-1.6c1,0,1.9,.5,2.6,1.3c.8,1,1.3,2.3,1.3,3.8c0,1.3,-.3,2.6,-1,3.7c-.7,1.2,-1.6,2.2,-2.8,2.9c-.9,.7,-2,1,-3.1,1Z" class="g3_99"/>
<path d="M230.1,215c.1,-.7,.2,-1.4,.2,-1.8c0,-.6,-.1,-1.2,-.3,-1.9c-.2,-.7,-.5,-1.2,-.9,-1.5c-.3,-.4,-.7,-.6,-1.2,-.6c-.5,0,-1,.3,-1.4,.7c-.4,.5,-.6,1.2,-.6,2.2c0,1.2,.3,2.2,.8,2.9c.4,.5,.9,.8,1.5,.8c.2,0,.6,-.1,.9,-.2c.4,-.1,.7,-.3,1,-.6Zm-5.5,6.3V221c.7,-.1,1.5,-.2,2.1,-.6c.7,-.3,1.4,-1,2,-1.8c.6,-.9,1,-1.8,1.3,-2.9c-1,.6,-1.8,.9,-2.6,.9c-.8,0,-1.6,-.3,-2.2,-1c-.6,-.6,-.9,-1.5,-.9,-2.6c0,-1.1,.3,-2,.9,-2.8c.8,-1.1,1.7,-1.6,2.9,-1.6c1,0,1.9,.5,2.6,1.3c.8,1,1.3,2.3,1.3,3.8c0,1.3,-.3,2.6,-1,3.7c-.7,1.2,-1.6,2.2,-2.8,2.9c-.9,.7,-2,1,-3.1,1h-.5Z" class="g4_99"/>
<path fill-rule="evenodd" d="M283.1,189.6v-6l-4.3,6Zm3.1,0v1.3h-1.6v3.2h-1.5v-3.2h-5.2v-1.2l5.7,-8h1v7.9Z" class="g3_99"/>
<path d="M283.1,189.6v-6l-4.3,6h4.3Zm3.1,0v1.3h-1.6v3.2h-1.5v-3.2h-5.2v-1.2l5.7,-8h1v7.9h1.6Z" class="g4_99"/>
<path d="M408,301.8h17.7m-17.4,17V302.2m17.4,-.4H443m-17.3,17V302.2m17.3,-.4h17.3m-17.3,17V302.2m17.3,-.4h17.3m-17.3,17V302.2m17.3,-.4H495m-17.4,17V302.2m17.4,-.4h17.3m-17.3,17V302.2m17.3,-.4h17.3m-17.3,17V302.2m17.3,-.4h17.7m-17.7,17V302.2m17.3,16.6V302.2M408,319.2h17.7m-17.4,16.9V319.5m17.4,-.3H443m-17.3,16.9V319.5m17.3,-.3h17.3M443,336.1V319.5m17.3,-.3h17.3m-17.3,16.9V319.5m17.3,-.3H495m-17.4,16.9V319.5m17.4,-.3h17.3M495,336.1V319.5m17.3,-.3h17.3m-17.3,16.9V319.5m17.3,-.3h17.7m-17.7,16.9V319.5m17.3,16.6V319.5M408,336.5h17.7m-17.4,16.9V336.9m17.4,-.4H443m-17.3,16.9V336.9m17.3,-.4h17.3M443,353.4V336.9m17.3,-.4h17.3m-17.3,16.9V336.9m17.3,-.4H495m-17.4,16.9V336.9m17.4,-.4h17.3M495,353.4V336.9m17.3,-.4h17.3m-17.3,16.9V336.9m17.3,-.4h17.7m-17.7,16.9V336.9m17.3,16.5V336.9M408,353.8h17.7m-17.4,16.9V354.2m17.4,-.4H443m-17.3,16.9V354.2m17.3,-.4h17.3M443,370.7V354.2m17.3,-.4h17.3m-17.3,16.9V354.2m17.3,-.4H495m-17.4,16.9V354.2m17.4,-.4h17.3M495,370.7V354.2m17.3,-.4h17.3m-17.3,16.9V354.2m17.3,-.4h17.7m-17.7,16.9V354.2m17.3,16.5V354.2M408,371.1h17.7m-17.4,17V371.5m17.4,-.4H443m-17.3,17V371.5m17.3,-.4h17.3m-17.3,17V371.5m17.3,-.4h17.3m-17.3,17V371.5m17.3,-.4H495m-17.4,17V371.5m17.4,-.4h17.3m-17.3,17V371.5m17.3,-.4h17.3m-17.3,17V371.5m17.3,-.4h17.7m-17.7,17V371.5m17.3,16.6V371.5M408,388.5h17.7m-17.4,16.9V388.8m17.4,-.3H443m-17.3,16.9V388.8m17.3,-.3h17.3M443,405.4V388.8m17.3,-.3h17.3m-17.3,16.9V388.8m17.3,-.3H495m-17.4,16.9V388.8m17.4,-.3h17.3M495,405.4V388.8m17.3,-.3h17.3m-17.3,16.9V388.8m17.3,-.3h17.7m-17.7,16.9V388.8m17.3,16.6V388.8M408,405.8h17.7m-17.4,16.9V406.2m17.4,-.4H443m-17.3,16.9V406.2m17.3,-.4h17.3M443,422.7V406.2m17.3,-.4h17.3m-17.3,16.9V406.2m17.3,-.4H495m-17.4,16.9V406.2m17.4,-.4h17.3M495,422.7V406.2m17.3,-.4h17.3m-17.3,16.9V406.2m17.3,-.4h17.7m-17.7,16.9V406.2m17.3,16.5V406.2M408,423.1h17.7M408.3,440V423.5m17.4,-.4H443M425.7,440V423.5m17.3,-.4h17.3M443,440V423.5m17.3,-.4h17.3M460.3,440V423.5m17.3,-.4H495M477.6,440V423.5m17.4,-.4h17.3M495,440V423.5m17.3,-.4h17.3M512.3,440V423.5m17.3,-.4h17.7M529.6,440V423.5M546.9,440V423.5M408,440.4h17.7m-17.4,17V440.8m17.4,-.4H443m-17.3,17V440.8m17.3,-.4h17.3m-17.3,17V440.8m17.3,-.4h17.3m-17.3,17V440.8m17.3,-.4H495m-17.4,17V440.8m17.4,-.4h17.3m-17.3,17V440.8m17.3,-.4h17.3m-17.3,17V440.8m17.3,-.4h17.7m-17.7,17V440.8m17.3,16.6V440.8M408,457.7h17.7m0,0H443m0,0h17.3m0,0h17.3m0,0H495m0,0h17.3m0,0h17.3m0,0h17.7M185,301.8h17.7m-17.4,17V302.2m17.4,-.4H220m-17.3,17V302.2m17.3,-.4h17.3m-17.3,17V302.2m17.3,-.4h17.3m-17.3,17V302.2m17.3,-.4H272m-17.4,17V302.2m17.3,-.4h17.4m-17.4,17V302.2m17.4,-.4h17.3m-17.3,17V302.2m17.3,-.4h17.7m-17.7,17V302.2m17.3,16.6V302.2M185,319.2h17.7m-17.4,16.9V319.5m17.4,-.3H220m-17.3,16.9V319.5m17.3,-.3h17.3M220,336.1V319.5m17.3,-.3h17.3m-17.3,16.9V319.5m17.3,-.3H272m-17.4,16.9V319.5m17.3,-.3h17.4m-17.4,16.9V319.5m17.4,-.3h17.3m-17.3,16.9V319.5m17.3,-.3h17.7m-17.7,16.9V319.5m17.3,16.6V319.5M185,336.5h17.7m-17.4,16.9V336.9m17.4,-.4H220m-17.3,16.9V336.9m17.3,-.4h17.3M220,353.4V336.9m17.3,-.4h17.3m-17.3,16.9V336.9m17.3,-.4H272m-17.4,16.9V336.9m17.3,-.4h17.4m-17.4,16.9V336.9m17.4,-.4h17.3m-17.3,16.9V336.9m17.3,-.4h17.7m-17.7,16.9V336.9m17.3,16.5V336.9M185,353.8h17.7m-17.4,16.9V354.2m17.4,-.4H220m-17.3,16.9V354.2m17.3,-.4h17.3M220,370.7V354.2m17.3,-.4h17.3m-17.3,16.9V354.2m17.3,-.4H272m-17.4,16.9V354.2m17.3,-.4h17.4m-17.4,16.9V354.2m17.4,-.4h17.3m-17.3,16.9V354.2m17.3,-.4h17.7m-17.7,16.9V354.2m17.3,16.5V354.2M185,371.1h17.7m-17.4,17V371.5m17.4,-.4H220m-17.3,17V371.5m17.3,-.4h17.3m-17.3,17V371.5m17.3,-.4h17.3m-17.3,17V371.5m17.3,-.4H272m-17.4,17V371.5m17.3,-.4h17.4m-17.4,17V371.5m17.4,-.4h17.3m-17.3,17V371.5m17.3,-.4h17.7m-17.7,17V371.5m17.3,16.6V371.5M185,388.5h17.7m-17.4,16.9V388.8m17.4,-.3H220m-17.3,16.9V388.8m17.3,-.3h17.3M220,405.4V388.8m17.3,-.3h17.3m-17.3,16.9V388.8m17.3,-.3H272m-17.4,16.9V388.8m17.3,-.3h17.4m-17.4,16.9V388.8m17.4,-.3h17.3m-17.3,16.9V388.8m17.3,-.3h17.7m-17.7,16.9V388.8m17.3,16.6V388.8M185,405.8h17.7m-17.4,16.9V406.2m17.4,-.4H220m-17.3,16.9V406.2m17.3,-.4h17.3M220,422.7V406.2m17.3,-.4h17.3m-17.3,16.9V406.2m17.3,-.4H272m-17.4,16.9V406.2m17.3,-.4h17.4m-17.4,16.9V406.2m17.4,-.4h17.3m-17.3,16.9V406.2m17.3,-.4h17.7m-17.7,16.9V406.2m17.3,16.5V406.2M185,423.1h17.7M185.3,440V423.5m17.4,-.4H220M202.7,440V423.5m17.3,-.4h17.3M220,440V423.5m17.3,-.4h17.3M237.3,440V423.5m17.3,-.4H272M254.6,440V423.5m17.3,-.4h17.4M271.9,440V423.5m17.4,-.4h17.3M289.3,440V423.5m17.3,-.4h17.7M306.6,440V423.5M323.9,440V423.5M185,440.4h17.7m-17.4,17V440.8m17.4,-.4H220m-17.3,17V440.8m17.3,-.4h17.3m-17.3,17V440.8m17.3,-.4h17.3m-17.3,17V440.8m17.3,-.4H272m-17.4,17V440.8m17.3,-.4h17.4m-17.4,17V440.8m17.4,-.4h17.3m-17.3,17V440.8m17.3,-.4h17.7m-17.7,17V440.8m17.3,16.6V440.8M185,457.7h17.7m0,0H220m0,0h17.3m0,0h17.3m0,0H272m-.1,0h17.4m0,0h17.3m0,0h17.7" class="g6_99"/>
<path d="M185.5,743.4v.4h-.4v259.9h.4v.3H358.7v-.3h.4V743.8h-.4v-.4Zm172.9,21.7H337.5V744.2h20.9v20.9Zm-21.7,0H315.8V744.2h20.9v20.9Zm-21.7,0H294.2V744.2H315v20.9Zm-21.6,0H272.5V744.2h20.9v20.9Zm-21.7,0H250.9V744.2h20.8v20.9Zm-21.6,0H229.2V744.2h20.9v20.9Zm-21.7,0H207.5V744.2h20.9v20.9Zm-21.6,0H185.9V744.2h20.9v20.9Zm151.6,21.6H337.5V765.9h20.9v20.8Zm-21.7,0H315.8V765.9h20.9v20.8Zm-21.7,0H294.2V765.9H315v20.8Zm-21.6,0H272.5V765.9h20.9v20.8Zm-21.7,0H250.9V765.9h20.8v20.8Zm-21.6,0H229.2V765.9h20.9v20.8Zm-21.7,0H207.5V765.9h20.9v20.8Zm-21.6,0H185.9V765.9h20.9v20.8Zm151.6,21.7H337.5V787.5h20.9v20.9Zm-21.7,0H315.8V787.5h20.9v20.9Zm-21.7,0H294.2V787.5H315v20.9Zm-21.6,0H272.5V787.5h20.9v20.9Zm-21.7,0H250.9V787.5h20.8v20.9Zm-21.6,0H229.2V787.5h20.9v20.9Zm-21.7,0H207.5V787.5h20.9v20.9Zm-21.6,0H185.9V787.5h20.9v20.9Zm151.6,21.7H337.5V809.2h20.9v20.9Zm-21.7,0H315.8V809.2h20.9v20.9Zm-21.7,0H294.2V809.2H315v20.9Zm-21.6,0H272.5V809.2h20.9v20.9Zm-21.7,0H250.9V809.2h20.8v20.9Zm-21.6,0H229.2V809.2h20.9v20.9Zm-21.7,0H207.5V809.2h20.9v20.9Zm-21.6,0H185.9V809.2h20.9v20.9Zm151.6,21.6H337.5V830.8h20.9v20.9Zm-21.7,0H315.8V830.8h20.9v20.9Zm-21.7,0H294.2V830.8H315v20.9Zm-21.6,0H272.5V830.8h20.9v20.9Zm-21.7,0H250.9V830.8h20.8v20.9Zm-21.6,0H229.2V830.8h20.9v20.9Zm-21.7,0H207.5V830.8h20.9v20.9Zm-21.6,0H185.9V830.8h20.9v20.9Zm151.6,21.7H337.5V852.5h20.9v20.9Zm-21.7,0H315.8V852.5h20.9v20.9Zm-21.7,0H294.2V852.5H315v20.9Zm-21.6,0H272.5V852.5h20.9v20.9Zm-21.7,0H250.9V852.5h20.8v20.9Zm-21.6,0H229.2V852.5h20.9v20.9Zm-21.7,0H207.5V852.5h20.9v20.9Zm-21.6,0H185.9V852.5h20.9v20.9ZM358.4,895H337.5V874.1h20.9V895Zm-21.7,0H315.8V874.1h20.9V895ZM315,895H294.2V874.1H315V895Zm-21.6,0H272.5V874.1h20.9V895Zm-21.7,0H250.9V874.1h20.8V895Zm-21.6,0H229.2V874.1h20.9V895Zm-21.7,0H207.5V874.1h20.9V895Zm-21.6,0H185.9V874.1h20.9V895Zm151.6,21.7H337.5V895.8h20.9v20.9Zm-21.7,0H315.8V895.8h20.9v20.9Zm-21.7,0H294.2V895.8H315v20.9Zm-21.6,0H272.5V895.8h20.9v20.9Zm-21.7,0H250.9V895.8h20.8v20.9Zm-21.6,0H229.2V895.8h20.9v20.9Zm-21.7,0H207.5V895.8h20.9v20.9Zm-21.6,0H185.9V895.8h20.9v20.9Zm151.6,21.6H337.5V917.4h20.9v20.9Zm-21.7,0H315.8V917.4h20.9v20.9Zm-21.7,0H294.2V917.4H315v20.9Zm-21.6,0H272.5V917.4h20.9v20.9Zm-21.7,0H250.9V917.4h20.8v20.9Zm-21.6,0H229.2V917.4h20.9v20.9Zm-21.7,0H207.5V917.4h20.9v20.9Zm-21.6,0H185.9V917.4h20.9v20.9ZM358.4,960H337.5V939.1h20.9V960Zm-21.7,0H315.8V939.1h20.9V960ZM315,960H294.2V939.1H315V960Zm-21.6,0H272.5V939.1h20.9V960Zm-21.7,0H250.9V939.1h20.8V960Zm-21.6,0H229.2V939.1h20.9V960Zm-21.7,0H207.5V939.1h20.9V960Zm-21.6,0H185.9V939.1h20.9V960Zm151.6,21.6H337.5V960.7h20.9v20.9Zm-21.7,0H315.8V960.7h20.9v20.9Zm-21.7,0H294.2V960.7H315v20.9Zm-21.6,0H272.5V960.7h20.9v20.9Zm-21.7,0H250.9V960.7h20.8v20.9Zm-21.6,0H229.2V960.7h20.9v20.9Zm-21.7,0H207.5V960.7h20.9v20.9Zm-21.6,0H185.9V960.7h20.9v20.9Zm151.6,21.7H337.5V982.4h20.9v20.9Zm-21.7,0H315.8V982.4h20.9v20.9Zm-21.7,0H294.2V982.4H315v20.9Zm-21.6,0H272.5V982.4h20.9v20.9Zm-21.7,0H250.9V982.4h20.8v20.9Zm-21.6,0H229.2V982.4h20.9v20.9Zm-21.7,0H207.5V982.4h20.9v20.9Zm-21.6,0H185.9V982.4h20.9v20.9Z" class="g7_99"/>
<path d="M293.4,981.6H272.5V960.7h20.9v20.9Zm-21.7,0H251.4V960.7h20.3v20.9ZM293.4,960H272.5V939.1h20.9V960Zm-21.7,0H251.4V939.1h20.3V960Zm21.7,-21.7H272.5V917.4h20.9v20.9Zm-21.7,0H251.4V917.4h20.3v20.9Zm21.7,-21.6H272.5V895.8h20.9v20.9Zm-21.7,0H251.4V895.8h20.3v20.9ZM293.4,895H272.5V874.1h20.9V895Zm-21.7,0H251.4V874.1h20.3V895Zm21.7,-21.6H272.5V852.5h20.9v20.9Zm-21.7,0H251.4V852.5h20.3v20.9Zm21.7,-21.7H272.5V830.8h20.9v20.9Zm-21.7,0H251.4V830.8h20.3v20.9Zm21.7,-21.6H272.5v-20h20.9v20Zm-21.7,0H251.4v-20h20.3v20Z" class="g8_99"/>
<path d="M293.4,982.4h-42v-.8h20.3V960.7H251.4V960h20.3V939.1H251.4v-.8h20.3V917.4H251.4v-.7h20.3V895.8H251.4V895h20.3V874.1H251.4v-.7h20.3V852.5H251.4v-.8h20.3V830.8H251.4v-.7h20.3v-20h.8v20h20.9v-20V982.4m-20.9,-.8h20.9V960.7H272.5v20.9Zm0,-21.6h20.9V939.1H272.5V960Zm0,-21.7h20.9V917.4H272.5v20.9Zm0,-21.6h20.9V895.8H272.5v20.9Zm0,-21.7h20.9V874.1H272.5V895Zm0,-21.6h20.9V852.5H272.5v20.9Zm0,-21.7h20.9V830.8H272.5v20.9Z" class="g9_99"/>
<path d="M295,808.4h-.8V787.5H315l-20,20.9m-1.6,0H272.5V787.5h20.9v20.9Zm-21.7,0H250.9V787.5h20.8v20.9Zm-21.6,-.7L229.9,787.5h20.2v20.2m65.7,-21V766h19.9l-19.9,20.7m-.8,0H294.2V766H315v20.7Zm-21.6,0H272.5V766h20.9v20.7Zm-21.7,0H250.9V766h20.8v20.7Zm-21.6,0H229.2V766h20.9v20.7Zm-21.7,-.6L208.4,766h20Z" class="g8_99"/>
<path d="M294.4,809h-43l-1.3,-1.3V787.5H229.9l-1.5,-1.4V766h.8v20.7h20.9V766h.8v20.7h20.8V766h.8v20.7h20.9V766h.8v20.7H315V766h.8v20.7l-.8,.8H294.2v20.9h.8l-.6,.6m-21.9,-.6h20.9V787.5H272.5v20.9Zm-21.6,0h20.8V787.5H250.9v20.9Z" class="g9_99"/>
<path d="M294.5,983.4h-.3v-1h.3v1Zm-1.1,0H272.5v-.5h20.9v.5Zm-21.7,0H250.9v-1v.5h20.8v.5m22.8,-1.8h-.3V960.7h.3v20.9Zm-43.6,0V960.7v20.9ZM294.5,960h-.3V939.1h.3V960Zm-43.6,0V939.1V960Zm43.6,-21.7h-.3V917.4h.3v20.9Zm-43.6,0V917.4v20.9Zm43.6,-21.6h-.3V895.8h.3v20.9Zm-43.6,0V895.8v20.9ZM294.5,895h-.3V874.1h.3V895Zm-43.6,0V874.1V895Zm43.6,-21.6h-.3V852.5h.3v20.9Zm-43.6,0V852.5v20.9Zm43.6,-21.7h-.3V830.8h.3v20.9Zm-43.6,0V830.8v20.9Zm43.6,-21.6h-.3V809.6h.4l.4,-.4h.7l-.9,.9h-.3v20m-43.6,0V809.2v20.9m-.8,-20.9H250h.1m46.4,-.8h-.8L315,788.3v.8l-18.5,19.3m-46.5,0h-.7L229.2,788.3v-.7L250,808.4m65.8,-20.1v-.8h.8l-.8,.8m-87.4,-.7v-.1v.1m88.9,-.9h-.7l20,-20.8h.1v.7l-19.4,20.1m-88.9,0h-.8l-20.1,-20v-.8l20.9,20.8M206.8,765.9h-.1h.1m131.3,-.8h-.6V765h.8l-.2,.1m-1.4,0H315.8V765h20.9v.1Zm-21.7,0H294.2V765H315v.1Zm-21.6,0H272.5V765h20.9v.1Zm-21.7,0H250.9V765h20.8v.1Zm-21.6,0H229.2V765h20.9v.1Zm-21.7,0H207.5V765h20.9v.1Zm-21.6,0H206l-.2,-.1h1Z" class="ga_99"/>
<path d="M294.2,983.4h-.8v-.5h.5V809.6h.3v20.5h.3v.7h-.3v20.9h.3v.8h-.3v20.9h.3v.7h-.3V895h.3v.8h-.3v20.9h.3v.7h-.3v20.9h.3v.8h-.3V960h.3v.7h-.3v20.9h.3v.8h-.3v1m-21.7,0h-.8v-.5h.8v.5Zm-21.6,0h-.6V809.5l-.2,-.3H250l-.7,-.8h.7l.9,.8V983.4M295.7,809.2H295l.7,-.8h.8l-.8,.8M315,789.1v-.8l.8,-.8v.8l-.8,.8m-85.8,-.8l-.8,-.7v-.1l-.8,-.8h.8l.8,.9v.7m87.4,-.8h-.8l.8,-.8h.7l-.7,.8M207.5,766.7l-.7,-.8h-.1l-.7,-.8h.8V765h.7v.1h20.9V765h.8v.1h20.9V765h.8v.1h20.8V765h.8v.1h20.9V765h.8v.1H315V765h.8v.1h20.9V765h.3v.5V765h.5v.1h.6l-1.4,1.5v-.7h-.1l.4,-.4H207.1l.4,.4v.8" class="gb_99"/>
<path d="M293.4,982.9H272.5v-.5h20.9v.5Zm-21.7,0H250.9v-.5h20.8v.5Zm-20.3,-1.3h-.5V960.7h.5v20.9Zm0,-21.6h-.5V939.1h.5V960Zm0,-21.7h-.5V917.4h.5v20.9Zm0,-21.6h-.5V895.8h.5v20.9Zm0,-21.7h-.5V874.1h.5V895Zm0,-21.6h-.5V852.5h.5v20.9Zm0,-21.7h-.5V830.8h.5v20.9Zm0,-21.6h-.5V809.2h20.8v.9H251.4v20m42,-20H272.5v-.9h20.9v.9Zm1.2,-.5h-.4v-.4h.8l-.4,.4m1.1,-1.2H295l20,-20.9v.8l-19.3,20.1m-45.6,0H250L229.2,787.6v-.1h.7l20.2,20.2v.7M316.6,786.7h-.8L335.7,766H315.8v-.1h20.8l-20,20.8m-88.2,0L207.5,765.9h20.9v.1h-20l20,20.1v.6M315,766H294.2v-.1H315v.1Zm-21.6,0H272.5v-.1h20.9v.1Zm-21.7,0H250.9v-.1h20.8v.1Zm-21.6,0H229.2v-.1h20.9v.1Z" class="gc_99"/>
<path d="M293.9,982.9h-.5v-.5H272.5v.5h-.8v-.5H250.9v-.8h.5v.8h42V809.2H272.5v.9h-.8v-.9H250.9l-.9,-.8h.1v-.7l1.3,1.3h43l.6,-.6h.7l-.7,.8h-.8v.4h-.3V982.9M251.4,960.7h-.5V960h.5v.7Zm0,-21.6h-.5v-.8h.5v.8Zm0,-21.7h-.5v-.7h.5v.7Zm0,-21.6h-.5V895h.5v.8Zm0,-21.7h-.5v-.7h.5v.7Zm0,-21.6h-.5v-.8h.5v.8Zm0,-21.7h-.5v-.7h.5v.7ZM315,788.3v-.8l.8,-.8h.8l-.8,.8l-.8,.8m-85.8,-.7l-.8,-.9v-.6l1.5,1.4h-.7v.1M315.8,766H315v-.1H294.2v.1h-.8v-.1H272.5v.1h-.8v-.1H250.9v.1h-.8v-.1H229.2v.1h-.8v-.1H207.5l-.4,-.4H337l-.4,.4H315.8Z" class="gd_99"/>
<path d="M73.6,610.7H835.8M73.6,249.5H835.8" class="g5_99"/>
<path d="M528.9,869.9h37.2" class="g1_99"/>
<path d="M631,301.8h17.7m-17.3,17V302.2m17.3,-.4H666m-17.3,17V302.2m17.3,-.4h17.3m-17.3,17V302.2m17.3,-.4h17.3m-17.3,17V302.2m17.3,-.4H718m-17.4,17V302.2m17.4,-.4h17.3m-17.3,17V302.2m17.3,-.4h17.3m-17.3,17V302.2m17.3,-.4h17.7m-17.7,17V302.2m17.3,16.6V302.2M631,319.2h17.7m-17.3,16.9V319.5m17.3,-.3H666m-17.3,16.9V319.5m17.3,-.3h17.3M666,336.1V319.5m17.3,-.3h17.3m-17.3,16.9V319.5m17.3,-.3H718m-17.4,16.9V319.5m17.4,-.3h17.3M718,336.1V319.5m17.3,-.3h17.3m-17.3,16.9V319.5m17.3,-.3h17.7m-17.7,16.9V319.5m17.3,16.6V319.5M631,336.5h17.7m-17.3,16.9V336.9m17.3,-.4H666m-17.3,16.9V336.9m17.3,-.4h17.3M666,353.4V336.9m17.3,-.4h17.3m-17.3,16.9V336.9m17.3,-.4H718m-17.4,16.9V336.9m17.4,-.4h17.3M718,353.4V336.9m17.3,-.4h17.3m-17.3,16.9V336.9m17.3,-.4h17.7m-17.7,16.9V336.9m17.3,16.5V336.9M631,353.8h17.7m-17.3,16.9V354.2m17.3,-.4H666m-17.3,16.9V354.2m17.3,-.4h17.3M666,370.7V354.2m17.3,-.4h17.3m-17.3,16.9V354.2m17.3,-.4H718m-17.4,16.9V354.2m17.4,-.4h17.3M718,370.7V354.2m17.3,-.4h17.3m-17.3,16.9V354.2m17.3,-.4h17.7m-17.7,16.9V354.2m17.3,16.5V354.2M631,371.1h17.7m-17.3,17V371.5m17.3,-.4H666m-17.3,17V371.5m17.3,-.4h17.3m-17.3,17V371.5m17.3,-.4h17.3m-17.3,17V371.5m17.3,-.4H718m-17.4,17V371.5m17.4,-.4h17.3m-17.3,17V371.5m17.3,-.4h17.3m-17.3,17V371.5m17.3,-.4h17.7m-17.7,17V371.5m17.3,16.6V371.5M631,388.5h17.7m-17.3,16.9V388.8m17.3,-.3H666m-17.3,16.9V388.8m17.3,-.3h17.3M666,405.4V388.8m17.3,-.3h17.3m-17.3,16.9V388.8m17.3,-.3H718m-17.4,16.9V388.8m17.4,-.3h17.3M718,405.4V388.8m17.3,-.3h17.3m-17.3,16.9V388.8m17.3,-.3h17.7m-17.7,16.9V388.8m17.3,16.6V388.8M631,405.8h17.7m-17.3,16.9V406.2m17.3,-.4H666m-17.3,16.9V406.2m17.3,-.4h17.3M666,422.7V406.2m17.3,-.4h17.3m-17.3,16.9V406.2m17.3,-.4H718m-17.4,16.9V406.2m17.4,-.4h17.3M718,422.7V406.2m17.3,-.4h17.3m-17.3,16.9V406.2m17.3,-.4h17.7m-17.7,16.9V406.2m17.3,16.5V406.2M631,423.1h17.7M631.4,440V423.5m17.3,-.4H666M648.7,440V423.5m17.3,-.4h17.3M666,440V423.5m17.3,-.4h17.3M683.3,440V423.5m17.3,-.4H718M700.6,440V423.5m17.4,-.4h17.3M718,440V423.5m17.3,-.4h17.3M735.3,440V423.5m17.3,-.4h17.7M752.6,440V423.5M769.9,440V423.5M631,440.4h17.7m-17.3,17V440.8m17.3,-.4H666m-17.3,17V440.8m17.3,-.4h17.3m-17.3,17V440.8m17.3,-.4h17.3m-17.3,17V440.8m17.3,-.4H718m-17.4,17V440.8m17.4,-.4h17.3m-17.3,17V440.8m17.3,-.4h17.3m-17.3,17V440.8m17.3,-.4h17.7m-17.7,17V440.8m17.3,16.6V440.8M631,457.7h17.7m0,0H666m0,0h17.3m0,0h17.3m0,0H718m0,0h17.3m0,0h17.3m0,0h17.7" class="g6_99"/>
<path d="M648.2,423.3h69.3m0,0l35.7,-34.5m-105,34.9l34.7,-34.9m0,0V319.6m0,0h69.3m0,0v69.5" class="ge_99"/>
<path d="M658.1,336.6c4.6,0,8.3,-3.7,8.3,-8.3c0,-4.6,-3.7,-8.3,-8.3,-8.3c-4.6,0,-8.3,3.7,-8.3,8.3c0,4.6,3.7,8.3,8.3,8.3Z" class="gf_99"/>
<path d="M244.8,507.4H282m185.9,0h37.2m45.6,0H588" class="g1_99"/>
<path d="M434.8,335.7c4.6,0,8.3,-3.7,8.3,-8.3c0,-4.5,-3.7,-8.2,-8.3,-8.2c-4.6,0,-8.3,3.7,-8.3,8.2c0,4.6,3.7,8.3,8.3,8.3Z" class="gf_99"/>
<path d="M425.6,370.7l34.7,-51.4m.5,-.3h33.6m.5,0l35.7,51.7m-105.5,0l52.5,70.1m0,-1.3L530,371.1" class="ge_99"/>
<path d="M210.9,336.6c4.6,0,8.3,-3.7,8.3,-8.3c0,-4.6,-3.7,-8.3,-8.3,-8.3c-4.5,0,-8.2,3.7,-8.2,8.3c0,4.6,3.7,8.3,8.2,8.3Z" class="gf_99"/>
<path d="M202.6,423.9h104m-104,-.6V388.8m.5,0l51.5,-69.4m0,-.3l52,69.7m0,0v35.1" class="ge_99"/>
<path d="M417.7,514.6c4.5,0,8.2,-3.7,8.2,-8.3c0,-4.6,-3.7,-8.3,-8.2,-8.3c-4.6,0,-8.3,3.7,-8.3,8.3c0,4.6,3.7,8.3,8.3,8.3Zm-223.9,0c4.6,0,8.3,-3.7,8.3,-8.3c0,-4.6,-3.7,-8.3,-8.3,-8.3c-4.6,0,-8.3,3.7,-8.3,8.3c0,4.6,3.7,8.3,8.3,8.3Zm446,0c4.6,0,8.3,-3.7,8.3,-8.3c0,-4.6,-3.7,-8.3,-8.3,-8.3c-4.6,0,-8.3,3.7,-8.3,8.3c0,4.6,3.7,8.3,8.3,8.3Z" class="gf_99"/>
</svg>