<?xml version="1.0" encoding="UTF-8" standalone="no"?>
<!DOCTYPE svg PUBLIC "-//W3C//DTD SVG 1.1//EN"
"http://www.w3.org/Graphics/SVG/1.1/DTD/svg11.dtd">
<svg viewBox="0 0 909 1147" version="1.1" xmlns="http://www.w3.org/2000/svg" xmlns:xlink="http://www.w3.org/1999/xlink">
<defs>
<style type="text/css"><![CDATA[
.g0_142{
fill: #DCE5C9;
}
.g1_142{
fill: none;
stroke: #000;
stroke-width: 0.763;
}
.g2_142{
fill: none;
stroke: #2E3092;
stroke-width: 0.763;
}
.g3_142{
fill: none;
stroke: #0EA5DF;
stroke-width: 3.055;
}
.g4_142{
fill: #D5DFBD;
}
]]></style>
</defs>
<path d="M0,1131H73.8v-51.5H0V1131Z" class="g0_142"/>
<path d="M338.4,188.6h11.4m11.7,0h21.1m11.6,0h21.1m11.6,0H448M210.1,226.4h11.4m99,0h21.2m90.5,0h21.1m89.8,0h21.2m-206,179.9h11.4m16.2,0h11.4m21.7,0h11.4M210.1,439.7h11.4m99,0h11.4m100.3,0h11.4m99.5,0h21.2M186.2,508.2h11.4m16.2,0h11.4m21.7,0h11.4m21.7,0h11.4m21.7,0h11.3m21.8,0h21.1m21.6,0h21.2m21.6,0h21.2" class="g1_142"/>
<path d="M73.7,165.7H835.9" class="g2_142"/>
<path d="M73.7,167.3H835.9" class="g3_142"/>
<path d="M73.7,381.8H835.9" class="g2_142"/>
<path d="M73.7,383.3H835.9" class="g3_142"/>
<path d="M73.7,547.5H835.9" class="g2_142"/>
<path d="M73.7,549H835.9" class="g3_142"/>
<path d="M73.7,662.3H835.9" class="g2_142"/>
<path d="M73.7,663.8H835.9" class="g3_142"/>
<path d="M73.7,839.3H835.9" class="g2_142"/>
<path d="M73.7,840.8H835.9" class="g3_142"/>
<path d="M73.7,993.4H835.9" class="g2_142"/>
<path d="M73.7,994.9H835.9" class="g3_142"/>
<path d="M0,138.7H120.2V0H0V138.7Z" class="g4_142"/>
<path d="M439.5,314h11.4m21.7,0h21.2m16.1,0h21.2m21.6,0h21.1m16.2,0h21.1m21.7,0h21.1m16.1,0h21.2m21.6,0H734M607,351.8h21.1m21.6,0h21.2" class="g1_142"/>
</svg>