<?xml version="1.0" encoding="UTF-8" standalone="no"?>
<!DOCTYPE svg PUBLIC "-//W3C//DTD SVG 1.1//EN"
"http://www.w3.org/Graphics/SVG/1.1/DTD/svg11.dtd">
<svg viewBox="0 0 909 1147" version="1.1" xmlns="http://www.w3.org/2000/svg" xmlns:xlink="http://www.w3.org/1999/xlink">
<defs>
<clipPath id="c0_62"><path d="M208,320.3V194.6H333.9V320.3Z"/></clipPath>
<clipPath id="c1_62"><path d="M539.5,320.2V194.6H665.2V320.2Z"/></clipPath>
<clipPath id="c2_62"><path d="M705,319.9V194.6H830.5V319.9Z"/></clipPath>
<clipPath id="c3_62"><path d="M630.8,913.1V761.9H795.2V913.1Z"/></clipPath>
<clipPath id="c4_62"><path d="M186.3,921.4V770.2H385.4V921.4Z"/></clipPath>
<clipPath id="c5_62"><path d="M408.5,920.8V769.6H582.1V920.8Z"/></clipPath>
<style type="text/css"><![CDATA[
.g0_62{
fill: #B6D774;
}
.g1_62{
fill: none;
stroke: #8ED8F8;
stroke-width: 0.763;
stroke-miterlimit: 2;
}
.g2_62{
fill: none;
stroke: #000;
stroke-width: 1.069;
stroke-miterlimit: 2;
}
.g3_62{
fill: none;
stroke: #ED1D24;
stroke-width: 1.069;
stroke-miterlimit: 2;
}
.g4_62{
fill: #000;
}
.g5_62{
fill: #ED1D24;
}
.g6_62{
fill: none;
stroke: #000;
stroke-width: 0.763;
}
.g7_62{
fill: #FCD3C1;
}
.g8_62{
fill: none;
stroke: #000;
stroke-width: 1.131;
stroke-miterlimit: 2;
}
.g9_62{
fill: none;
stroke: #ED1D24;
stroke-width: 1.131;
stroke-miterlimit: 2;
}
.ga_62{
fill: none;
stroke: #000;
stroke-width: 0.807;
stroke-miterlimit: 2;
}
.gb_62{
fill: none;
stroke: #00AEEF;
stroke-width: 1.131;
stroke-miterlimit: 2;
}
.gc_62{
fill: none;
stroke: #00A651;
stroke-width: 1.131;
stroke-miterlimit: 2;
}
.gd_62{
fill: none;
stroke: #00AEEF;
stroke-width: 0.763;
stroke-miterlimit: 2;
}
.ge_62{
fill: none;
stroke: #000;
stroke-width: 0.763;
stroke-miterlimit: 2;
}
.gf_62{
fill: none;
stroke: #0EA5DF;
stroke-width: 3.055;
}
.gg_62{
fill: #FFF1E0;
}
.gh_62{
fill: #0C4B7F;
}
]]></style>
</defs>
<path d="M0,1131H73.8v-51.5H0V1131Z" class="g0_62"/>
<path clip-path="url(#c0_62)" d="M208.8,194.6V320.3M222.7,194.6V320.3M236.6,194.6V320.3M250.4,194.6V320.3M264.3,194.6V320.3M278.1,194.6V320.3M292,194.6V320.3M305.8,194.6V320.3M319.7,194.6V320.3M333.6,194.6V320.3M209.2,195.2H333.6M209.2,209.1H333.6M209.2,222.9H333.6M209.2,236.8H333.6M209.2,250.7H333.6M209.2,264.5H333.6M209.2,278.4H333.6M209.2,292.2H333.6M209.2,306.1H333.6M209.2,319.9H333.6" class="g1_62"/>
<path d="M222.9,292.6l56,-83.6l26.7,83.6H222.9Z" class="g2_62"/>
<path d="M278.5,209.5v83.6" class="g3_62"/>
<path fill-rule="evenodd" d="M216.6,289.1l-3.5,4.8h3Zm1.8,-3l-.9,10.1c-.1,.5,-.1,.8,-.1,1c0,.2,0,.4,.1,.5c.1,.2,.3,.3,.5,.4c.2,.1,.5,.1,1,.1l-.1,.4h-4.8l.1,-.4h.2c.4,0,.7,-.1,.9,-.2c.2,-.1,.3,-.3,.4,-.6c.1,-.2,.2,-.6,.2,-1.3l.2,-1.5h-3.5l-1.2,1.6c-.3,.4,-.5,.7,-.6,.8c0,.2,-.1,.4,-.1,.5c0,.2,.1,.4,.3,.5c.1,.1,.4,.2,.7,.2l-.1,.4H208l.1,-.4c.5,0,.9,-.1,1.2,-.4c.3,-.3,.8,-.9,1.5,-1.8l7.3,-9.9Z" class="g4_62"/>
<path fill-rule="evenodd" d="M311.6,299.1c.7,.1,1.2,.2,1.5,.2c1,0,1.8,-.3,2.5,-.9c.7,-.6,1.1,-1.3,1.1,-2.3c0,-.7,-.2,-1.3,-.7,-1.7c-.4,-.4,-1.1,-.6,-2.1,-.6c-.2,0,-.4,0,-.7,0Zm1.8,-6c.4,.1,.7,.1,.8,.1c1.3,0,2.2,-.3,2.8,-.8c.6,-.6,.9,-1.3,.9,-2.1c0,-.6,-.2,-1.1,-.5,-1.4c-.4,-.4,-1,-.5,-1.8,-.5c-.2,0,-.5,0,-.8,.1Zm-1.8,-5l.1,-.3H316c.8,0,1.4,.1,2,.3c.6,.2,1,.6,1.3,1c.3,.4,.4,.8,.4,1.3c0,.7,-.3,1.3,-.8,1.8c-.5,.6,-1.3,1,-2.4,1.3c.7,.3,1.2,.6,1.6,1.1c.3,.4,.5,.9,.5,1.5c0,.6,-.1,1.2,-.5,1.7c-.3,.6,-.7,1,-1.1,1.3c-.5,.3,-1.1,.5,-1.8,.7c-.5,.1,-1.3,.1,-2.3,.1h-4.5l.2,-.3c.4,0,.7,-.1,.9,-.2c.3,-.1,.4,-.2,.5,-.4c.2,-.2,.4,-.7,.6,-1.5l2.2,-7.4c.2,-.6,.3,-1,.3,-1.3c0,-.2,-.1,-.4,-.3,-.5c-.2,-.1,-.5,-.2,-.9,-.2c-.1,0,-.2,0,-.3,0Z" class="g4_62"/>
<path fill-rule="evenodd" d="M273.5,200.2l-.9,3.9h-.3v-1c-.1,-.4,-.1,-.7,-.3,-1c-.1,-.2,-.2,-.5,-.4,-.7c-.2,-.2,-.5,-.4,-.9,-.5c-.3,-.1,-.6,-.1,-1,-.1c-1.1,0,-2,.2,-2.8,.8c-1.1,.8,-1.9,1.8,-2.4,3.2c-.5,1.1,-.8,2.3,-.8,3.4c0,1.2,.4,2.1,1.1,2.8c.7,.7,1.5,1.1,2.6,1.1c.9,0,1.6,-.2,2.3,-.6c.6,-.4,1.2,-.9,1.8,-1.7h.4c-.7,1.1,-1.4,1.8,-2.2,2.3c-.8,.5,-1.8,.7,-2.9,.7c-1,0,-1.8,-.2,-2.6,-.6c-.8,-.4,-1.4,-1,-1.7,-1.7c-.4,-.8,-.6,-1.6,-.6,-2.5c0,-1.3,.3,-2.6,1,-3.8c.7,-1.3,1.7,-2.3,2.9,-3c1.3,-.7,2.5,-1,3.8,-1c.6,0,1.2,.1,2,.4c.3,.1,.5,.2,.7,.2c.1,0,.2,-.1,.3,-.1c.2,-.1,.3,-.3,.6,-.5Z" class="g4_62"/>
<path fill-rule="evenodd" d="M282.5,299.1l-.9,3.9h-.3l-.1,-1c0,-.3,-.1,-.7,-.2,-.9c-.1,-.3,-.3,-.6,-.5,-.8c-.2,-.2,-.5,-.3,-.8,-.5c-.3,-.1,-.7,-.1,-1.1,-.1c-1,0,-2,.3,-2.8,.8c-1,.8,-1.8,1.8,-2.4,3.2c-.5,1.1,-.7,2.3,-.7,3.4c0,1.2,.3,2.1,1,2.8c.7,.7,1.6,1.1,2.7,1.1c.8,0,1.6,-.2,2.2,-.6c.7,-.3,1.3,-.9,1.8,-1.7h.5c-.7,1.1,-1.4,1.8,-2.2,2.3c-.8,.5,-1.8,.8,-2.9,.8c-1,0,-1.9,-.2,-2.6,-.7c-.8,-.4,-1.4,-1,-1.8,-1.7c-.4,-.8,-.6,-1.6,-.6,-2.4c0,-1.4,.4,-2.6,1.1,-3.9c.7,-1.3,1.7,-2.2,2.9,-3c1.2,-.7,2.5,-1,3.8,-1c.5,0,1.2,.1,1.9,.4c.4,.1,.6,.2,.7,.2c.2,0,.3,-.1,.4,-.1c.1,-.1,.3,-.2,.5,-.5Z" class="g5_62"/>
<path fill-rule="evenodd" d="M284.5,309.6l1.9,-1h.2v6.8c0,.5,.1,.8,.1,.9c0,.1,.1,.2,.2,.2c.2,.1,.4,.1,.8,.2v.2h-3.1v-.2c.4,-.1,.6,-.1,.8,-.1c.1,-.1,.1,-.2,.2,-.3c0,-.1,.1,-.4,.1,-.9v-4.3c0,-.6,-.1,-1,-.1,-1.2c0,-.1,-.1,-.2,-.2,-.2c0,-.1,-.1,-.1,-.2,-.1c-.2,0,-.4,0,-.6,.2Z" class="g5_62"/>
<path d="M373.1,195V320.1M386.9,195V320.1M400.8,195V320.1M414.6,195V320.1M428.5,195V320.1M442.4,195V320.1M456.2,195V320.1M470.1,195V320.1M483.9,195V320.1M497.8,195V320.1M373.1,195H497.8M373.1,208.9H497.8M373.1,222.7H497.8M373.1,236.6H497.8M373.1,250.4H497.8M373.1,264.3H497.8M373.1,278.2H497.8M373.1,292H497.8M373.1,305.9H497.8M373.1,319.7H497.8" class="g1_62"/>
<path d="M415,292.3V208.8l55.1,27.5l-55.1,56Z" class="g2_62"/>
<path d="M414.5,236.4h56" class="g3_62"/>
<path fill-rule="evenodd" d="M422.2,296.7l-3.5,4.8h3Zm1.7,-2.9l-.9,10c0,.5,0,.8,0,1c0,.2,0,.4,.1,.5c.1,.2,.3,.3,.4,.4c.2,.1,.6,.1,1,.1l-.1,.4h-4.7v-.4h.3c.3,0,.7,0,.9,-.2c.2,-.1,.3,-.3,.4,-.6c.1,-.2,.1,-.6,.2,-1.3l.1,-1.5h-3.4l-1.3,1.6c-.3,.4,-.4,.7,-.5,.9c-.1,.1,-.1,.3,-.1,.4c0,.2,.1,.4,.2,.5c.2,.2,.4,.2,.8,.2l-.1,.4h-3.6l.1,-.4c.5,0,.8,-.1,1.2,-.4c.3,-.3,.8,-.9,1.5,-1.8l7.2,-9.8Z" class="g4_62"/>
<path fill-rule="evenodd" d="M478.5,239c.6,.1,1.1,.1,1.5,.1c.9,0,1.7,-.2,2.5,-.8c.7,-.6,1,-1.3,1,-2.3c0,-.7,-.2,-1.3,-.6,-1.7c-.5,-.4,-1.2,-.6,-2.2,-.6c-.2,0,-.4,0,-.7,0Zm1.7,-6c.4,0,.7,.1,.9,.1c1.2,0,2.1,-.3,2.8,-.9c.6,-.5,.9,-1.2,.9,-2c0,-.6,-.2,-1.1,-.6,-1.4c-.4,-.4,-1,-.5,-1.8,-.5c-.2,0,-.5,0,-.8,.1Zm-1.8,-5l.1,-.3h4.4c.7,0,1.4,.1,1.9,.3c.6,.2,1,.5,1.3,1c.3,.4,.4,.8,.4,1.2c0,.7,-.2,1.4,-.7,1.9c-.5,.6,-1.4,1,-2.5,1.3c.7,.3,1.3,.6,1.6,1.1c.4,.4,.6,.9,.6,1.5c0,.6,-.2,1.2,-.5,1.7c-.3,.6,-.7,1,-1.2,1.3c-.5,.3,-1.1,.5,-1.8,.7c-.5,.1,-1.2,.1,-2.3,.1h-4.4l.1,-.3c.5,0,.8,-.1,1,-.2c.2,-.1,.4,-.2,.5,-.4c.1,-.2,.3,-.7,.5,-1.5l2.2,-7.4c.2,-.6,.3,-1,.3,-1.3c0,-.2,-.1,-.4,-.3,-.5c-.1,-.1,-.4,-.2,-.9,-.2c-.1,0,-.2,0,-.3,0Z" class="g4_62"/>
<path fill-rule="evenodd" d="M393.3,241.1c.7,.1,1.2,.1,1.5,.1c1,0,1.8,-.3,2.5,-.8c.7,-.6,1.1,-1.3,1.1,-2.3c0,-.7,-.2,-1.3,-.7,-1.7c-.4,-.4,-1.1,-.6,-2.1,-.6c-.2,0,-.4,0,-.7,0Zm1.8,-6c.4,0,.7,0,.8,0c1.3,0,2.2,-.2,2.8,-.8c.6,-.5,.9,-1.2,.9,-2c0,-.6,-.2,-1.1,-.5,-1.4c-.4,-.4,-1,-.6,-1.8,-.6c-.2,0,-.5,.1,-.8,.2Zm-1.8,-5l.1,-.4h4.3c.8,0,1.4,.2,2,.4c.6,.2,1,.5,1.3,.9c.2,.4,.4,.9,.4,1.3c0,.7,-.3,1.4,-.8,1.9c-.5,.6,-1.3,1,-2.4,1.3c.7,.2,1.2,.6,1.6,1.1c.3,.4,.5,.9,.5,1.5c0,.6,-.1,1.1,-.5,1.7c-.3,.5,-.7,1,-1.2,1.3c-.4,.3,-1,.5,-1.7,.6c-.5,.1,-1.3,.2,-2.3,.2h-4.5l.2,-.3c.4,-.1,.7,-.1,.9,-.2c.2,-.1,.4,-.2,.5,-.4c.2,-.2,.4,-.7,.6,-1.5l2.2,-7.4c.2,-.6,.2,-1,.2,-1.3c0,-.2,0,-.4,-.2,-.5c-.2,-.1,-.5,-.2,-.9,-.2c-.1,0,-.2,0,-.3,0Z" class="g5_62"/>
<path fill-rule="evenodd" d="M412.1,199.2l-.9,4h-.3l-.1,-1c0,-.4,-.1,-.7,-.2,-1c-.1,-.3,-.2,-.5,-.5,-.7c-.2,-.2,-.4,-.4,-.8,-.5c-.3,-.1,-.7,-.2,-1.1,-.2c-1,0,-2,.3,-2.8,.9c-1,.8,-1.8,1.8,-2.4,3.2c-.4,1.1,-.7,2.2,-.7,3.4c0,1.2,.4,2.1,1,2.8c.7,.7,1.6,1,2.7,1c.8,0,1.6,-.1,2.2,-.5c.7,-.4,1.3,-.9,1.8,-1.7h.5c-.7,1,-1.4,1.8,-2.2,2.3c-.8,.5,-1.8,.7,-2.9,.7c-1,0,-1.9,-.2,-2.6,-.6c-.8,-.4,-1.4,-1,-1.8,-1.7c-.4,-.8,-.6,-1.6,-.6,-2.5c0,-1.3,.4,-2.6,1.1,-3.8c.7,-1.3,1.7,-2.3,2.9,-3c1.3,-.7,2.5,-1.1,3.8,-1.1c.5,0,1.2,.2,1.9,.5c.4,.1,.6,.1,.7,.1c.2,0,.3,0,.4,-.1c.1,0,.3,-.2,.6,-.5Z" class="g4_62"/>
<path fill-rule="evenodd" d="M404.1,240l2,-1h.2v6.8c0,.5,0,.8,0,.9c.1,.1,.2,.2,.3,.2c.1,.1,.3,.1,.7,.1v.3h-3V247c.3,0,.6,0,.7,0c.1,-.1,.2,-.2,.2,-.3c.1,-.1,.1,-.4,.1,-.9v-4.3c0,-.6,0,-1,-.1,-1.2c0,-.1,0,-.2,-.1,-.2c-.1,-.1,-.2,-.1,-.3,-.1c-.1,0,-.3,0,-.6,.2Z" class="g5_62"/>
<path clip-path="url(#c1_62)" d="M539.9,195.3V333.9M553.7,195.3V333.9M567.6,195.3V333.9M581.5,195.3V333.9M595.3,195.3V333.9M609.2,195.3V333.9M623,195.3V333.9M636.9,195.3V333.9M650.8,195.3V333.9M664.6,195.3V333.9M678.5,195.3V333.9M539.9,195H678.5M539.9,208.9H678.5M539.9,222.7H678.5M539.9,236.6H678.5M539.9,250.4H678.5M539.9,264.3H678.5M539.9,278.2H678.5M539.9,292H678.5M539.9,305.9H678.5M539.9,319.7H678.5M539.9,333.6H678.5" class="g1_62"/>
<path d="M567.6,223h70l-41.8,68.9L567.6,223Z" class="g2_62"/>
<path d="M596,223.1v69.4" class="g3_62"/>
<path fill-rule="evenodd" d="M602.2,296.3l-3.5,4.8h3.1Zm1.8,-3l-.9,10.1c-.1,.5,-.1,.8,-.1,.9c0,.3,0,.5,.1,.6c.2,.2,.3,.3,.5,.4c.2,.1,.5,.1,1,.1l-.1,.3h-4.8l.1,-.3h.2c.4,0,.7,-.1,1,-.2c.1,-.2,.3,-.3,.4,-.6c0,-.2,.1,-.6,.1,-1.3l.2,-1.6h-3.5l-1.2,1.7c-.3,.4,-.5,.7,-.6,.8c0,.2,-.1,.3,-.1,.5c0,.2,.1,.3,.3,.5c.1,.1,.4,.2,.7,.2l-.1,.3h-3.5l.1,-.3c.4,0,.8,-.2,1.1,-.4c.4,-.3,.9,-.9,1.5,-1.8l7.3,-9.9Z" class="g4_62"/>
<path fill-rule="evenodd" d="M646.8,226.3c.7,.1,1.2,.1,1.5,.1c1,0,1.8,-.3,2.5,-.8c.7,-.6,1.1,-1.4,1.1,-2.3c0,-.7,-.2,-1.3,-.7,-1.7c-.4,-.4,-1.1,-.7,-2.1,-.7c-.2,0,-.5,.1,-.7,.1Zm1.8,-6c.4,0,.7,0,.8,0c1.3,0,2.2,-.2,2.8,-.8c.6,-.5,.9,-1.2,.9,-2c0,-.6,-.2,-1.1,-.5,-1.5c-.4,-.3,-1,-.5,-1.8,-.5c-.2,0,-.5,.1,-.8,.1Zm-1.8,-5l.1,-.4h4.3c.8,0,1.4,.1,2,.4c.5,.2,1,.5,1.3,.9c.2,.4,.4,.9,.4,1.3c0,.7,-.3,1.3,-.8,1.9c-.5,.6,-1.3,1,-2.4,1.3c.7,.2,1.2,.6,1.6,1c.3,.5,.5,1,.5,1.5c0,.6,-.2,1.2,-.5,1.8c-.3,.5,-.7,.9,-1.2,1.2c-.4,.4,-1,.6,-1.7,.7c-.5,.1,-1.3,.2,-2.3,.2h-4.5l.2,-.4c.4,0,.7,0,.9,-.1c.2,-.1,.4,-.2,.5,-.4c.2,-.2,.4,-.7,.6,-1.6l2.2,-7.3c.2,-.6,.2,-1.1,.2,-1.3c0,-.2,0,-.4,-.2,-.5c-.2,-.2,-.5,-.2,-.9,-.2c-.1,0,-.2,0,-.3,0Z" class="g4_62"/>
<path fill-rule="evenodd" d="M599.7,204.3l-3.5,4.8h3Zm1.8,-3l-.9,10.1c-.1,.5,-.1,.8,-.1,1c0,.2,0,.4,.1,.5c.1,.2,.3,.3,.5,.4c.2,.1,.5,.1,1,.1l-.1,.3h-4.8l.1,-.3h.2c.4,0,.7,-.1,.9,-.2c.2,-.2,.3,-.3,.4,-.6c.1,-.2,.2,-.6,.2,-1.3l.2,-1.5h-3.5l-1.2,1.6c-.3,.4,-.5,.7,-.6,.8c0,.2,-.1,.4,-.1,.5c0,.2,.1,.4,.3,.5c.1,.1,.4,.2,.7,.2l-.1,.3h-3.6l.1,-.3c.5,0,.9,-.2,1.2,-.4c.3,-.3,.8,-.9,1.5,-1.8l7.3,-9.9Z" class="g5_62"/>
<path fill-rule="evenodd" d="M564.3,216.4l-.9,3.9H563v-1c0,-.3,-.1,-.6,-.2,-.9c-.1,-.3,-.3,-.5,-.5,-.8c-.2,-.2,-.5,-.3,-.8,-.4c-.3,-.2,-.7,-.2,-1.1,-.2c-1.1,0,-2,.3,-2.8,.9c-1,.7,-1.8,1.8,-2.4,3.1c-.5,1.1,-.7,2.3,-.7,3.4c0,1.2,.3,2.2,1,2.9c.7,.7,1.6,1,2.7,1c.8,0,1.6,-.2,2.2,-.6c.7,-.3,1.3,-.9,1.8,-1.7h.4c-.6,1.1,-1.3,1.9,-2.1,2.3c-.8,.5,-1.8,.8,-2.9,.8c-1,0,-1.9,-.2,-2.7,-.6c-.7,-.5,-1.3,-1,-1.7,-1.8c-.4,-.7,-.6,-1.5,-.6,-2.4c0,-1.3,.4,-2.6,1.1,-3.9c.7,-1.2,1.7,-2.2,2.9,-2.9c1.2,-.8,2.5,-1.1,3.7,-1.1c.6,0,1.3,.1,2,.4c.3,.1,.6,.2,.7,.2c.2,0,.3,0,.4,-.1c.1,-.1,.3,-.2,.5,-.5Z" class="g4_62"/>
<path fill-rule="evenodd" d="M605.6,211.8l2,-.9h.2v6.8c0,.5,0,.7,0,.9c0,.1,.1,.1,.2,.2c.2,.1,.4,.1,.8,.1v.2h-3.1v-.2c.4,0,.7,0,.8,-.1c.1,0,.2,-.1,.2,-.2c0,-.1,.1,-.4,.1,-.9v-4.4c0,-.6,-.1,-.9,-.1,-1.1c0,-.1,-.1,-.2,-.1,-.3c-.1,0,-.2,-.1,-.3,-.1c-.2,0,-.4,.1,-.6,.2Z" class="g5_62"/>
<path clip-path="url(#c2_62)" d="M705.4,181.3V319.8M719.3,181.3V319.8M733.1,181.3V319.8M747,181.3V319.8M760.9,181.3V319.8M774.7,181.3V319.8M788.6,181.3V319.8M802.4,181.3V319.8M816.3,181.3V319.8M830.1,181.3V319.8M844,181.3V319.8M705.4,180.9H844.6M705.4,194.8H844.6M705.4,208.7H844.6M705.4,222.5H844.6M705.4,236.4H844.6M705.4,250.2H844.6M705.4,264.1H844.6M705.4,277.9H844.6M705.4,291.8H844.6M705.4,305.7H844.6M705.4,319.5H844.6" class="g1_62"/>
<path d="M747.2,277.8l41.5,-68.9v97L747.2,277.8Z" class="g2_62"/>
<path d="M747.6,278H789" class="g3_62"/>
<path fill-rule="evenodd" d="M735.4,272.3l-2.6,9.1c-.2,.7,-.3,1.1,-.3,1.2c0,.1,0,.2,.1,.3c.1,.1,.1,.2,.2,.2c.2,.1,.4,.1,.8,.1c.9,0,1.8,-.1,2.6,-.3c.8,-.2,1.5,-.5,2,-.9c.7,-.5,1.3,-1.3,1.7,-2.3c.5,-.9,.7,-2,.7,-3.3c0,-1.4,-.4,-2.4,-1,-3.1c-.7,-.7,-1.7,-1,-3,-1c-.3,0,-.7,0,-1.2,0m-3.2,-.3l.1,-.4h3.9c1.7,0,2.9,.2,3.7,.6c.8,.4,1.4,1,1.9,1.8c.4,.8,.7,1.6,.7,2.6c0,.8,-.2,1.5,-.4,2.3c-.3,.7,-.6,1.3,-1,1.8c-.3,.4,-.8,.9,-1.5,1.5c-.7,.5,-1.5,.9,-2.3,1.2c-.9,.2,-1.9,.4,-3.2,.4H729l.1,-.4c.5,0,.8,0,1,-.1c.2,-.1,.4,-.2,.5,-.4c.2,-.3,.4,-.8,.6,-1.5l2.1,-7.4c.2,-.5,.3,-1,.3,-1.3c0,-.3,-.1,-.4,-.2,-.6c-.2,-.1,-.5,-.1,-1,-.1Z" class="g4_62"/>
<path fill-rule="evenodd" d="M798,312.8c.7,.1,1.2,.1,1.5,.1c1,0,1.8,-.2,2.5,-.8c.7,-.6,1.1,-1.3,1.1,-2.3c0,-.7,-.2,-1.3,-.7,-1.7c-.4,-.4,-1.1,-.6,-2.1,-.6c-.2,0,-.5,0,-.7,0Zm1.8,-6c.4,0,.7,.1,.8,.1c1.3,0,2.2,-.3,2.8,-.9c.6,-.5,.9,-1.2,.9,-2c0,-.6,-.2,-1.1,-.5,-1.4c-.4,-.4,-1,-.5,-1.8,-.5c-.2,0,-.5,0,-.8,.1Zm-1.8,-5l.1,-.3h4.3c.8,0,1.4,.1,2,.3c.5,.2,1,.5,1.3,1c.2,.4,.4,.8,.4,1.2c0,.7,-.3,1.4,-.8,1.9c-.5,.6,-1.3,1,-2.4,1.3c.7,.3,1.2,.6,1.6,1.1c.3,.4,.5,.9,.5,1.5c0,.6,-.2,1.2,-.5,1.7c-.3,.5,-.7,1,-1.2,1.3c-.5,.3,-1,.5,-1.7,.7c-.5,.1,-1.3,.1,-2.3,.1h-4.5l.2,-.3c.4,0,.7,-.1,.9,-.2c.2,-.1,.4,-.2,.5,-.4c.2,-.2,.3,-.7,.6,-1.5l2.2,-7.4c.1,-.6,.2,-1,.2,-1.3c0,-.2,0,-.4,-.2,-.5c-.2,-.1,-.5,-.2,-.9,-.2c-.1,0,-.2,0,-.3,0Z" class="g4_62"/>
<path fill-rule="evenodd" d="M800.6,271.3l-2.6,9.1c-.2,.7,-.3,1.1,-.3,1.3q0,.1,.1,.2c0,.1,.1,.2,.2,.2c.2,.1,.4,.1,.8,.1c.9,0,1.8,-.1,2.6,-.3c.8,-.2,1.5,-.5,2,-.9c.7,-.5,1.3,-1.3,1.7,-2.3c.4,-.9,.7,-2,.7,-3.3c0,-1.4,-.4,-2.4,-1,-3.1c-.7,-.7,-1.7,-1,-3,-1c-.3,0,-.7,0,-1.2,0m-3.2,-.3l.1,-.4h3.9c1.7,0,2.9,.2,3.7,.6c.8,.4,1.4,1,1.9,1.8c.4,.8,.7,1.7,.7,2.6c0,.8,-.2,1.5,-.4,2.3c-.3,.7,-.6,1.3,-1,1.8c-.3,.4,-.8,.9,-1.5,1.5c-.8,.5,-1.5,.9,-2.4,1.2c-.8,.2,-1.8,.4,-3.1,.4h-5.1l.1,-.4c.5,0,.8,0,1,-.1c.2,-.1,.4,-.2,.5,-.4c.2,-.2,.4,-.7,.6,-1.5l2.1,-7.3c.2,-.6,.3,-1.1,.3,-1.4c0,-.2,-.1,-.4,-.3,-.5c-.1,-.2,-.4,-.2,-.9,-.2Z" class="g5_62"/>
<path fill-rule="evenodd" d="M806.6,198.7l-.9,4h-.3v-1c0,-.4,-.1,-.7,-.2,-1c-.1,-.3,-.3,-.5,-.5,-.7c-.2,-.2,-.5,-.4,-.8,-.5c-.3,-.1,-.7,-.2,-1.1,-.2c-1.1,0,-2,.3,-2.8,.9c-1,.8,-1.8,1.8,-2.4,3.2c-.5,1.1,-.7,2.2,-.7,3.4c0,1.2,.3,2.1,1,2.8c.7,.7,1.6,1,2.7,1c.8,0,1.5,-.1,2.2,-.5c.6,-.4,1.2,-.9,1.8,-1.7h.4c-.6,1,-1.4,1.8,-2.2,2.3c-.8,.5,-1.7,.7,-2.8,.7c-1,0,-1.9,-.2,-2.7,-.6c-.7,-.4,-1.3,-1,-1.7,-1.7c-.4,-.8,-.6,-1.6,-.6,-2.5c0,-1.3,.3,-2.6,1,-3.8c.8,-1.3,1.7,-2.3,3,-3c1.2,-.7,2.5,-1.1,3.7,-1.1c.6,0,1.3,.2,2,.5c.3,.1,.6,.1,.7,.1c.1,0,.3,0,.4,-.1c.1,0,.3,-.2,.5,-.5Z" class="g4_62"/>
<path fill-rule="evenodd" d="M810.3,280.9l2,-1h.2v6.8c0,.5,0,.8,0,.9c.1,.1,.2,.2,.3,.2c.1,.1,.3,.1,.7,.1v.3h-3v-.3c.3,0,.6,0,.7,-.1c.1,0,.2,-.1,.2,-.2c.1,-.1,.1,-.4,.1,-.9v-4.3c0,-.6,0,-1,-.1,-1.2c0,-.1,0,-.2,-.1,-.2c-.1,-.1,-.2,-.1,-.3,-.1c-.1,0,-.3,0,-.6,.1Z" class="g5_62"/>
<path d="M73.5,1040.4H290.1" class="g6_62"/>
<g clip-path="url(#c3_62)">
<path fill-rule="evenodd" d="M674.1,880.2l28.9,-35l50.2,42ZM650,891.5l52.7,-63.9l92.5,77.3Z" class="g7_62"/>
<path d="M225.7,882.3H344.3L311.7,776.8l-86,105.5ZM438,883.4H556.6L524,777.9L438,883.4Zm216.3,3H772.9L740.3,780.9l-86,105.5Z" class="g8_62"/>
<path d="M311.4,776.8V881.9m212.3,-104v105m216.8,-102V886" class="g9_62"/>
<path d="M311.6,869.2c7.5,1.7,11.4,6.1,11.8,12.9M524.1,870.2c7.5,1.8,11.4,6.1,11.8,13m13.4,-22.6c-7.5,1.7,-12.9,-.5,-16.2,-6.5m207.5,19.2c7.5,1.7,11.4,6.1,11.8,13m13.5,-21c-7.7,.9,-12.8,-1.8,-15.5,-8.2M710.8,817.8c4.9,5.9,5.5,11.7,1.8,17.5" class="ga_62"/>
</g>
<path fill-rule="evenodd" d="M744.8,880.3c.4,0,.6,.3,.6,.6c0,.3,-.2,.6,-.6,.6c-.3,0,-.6,-.3,-.6,-.6c0,-.3,.3,-.6,.6,-.6Z" class="g4_62"/>
<path d="M744.8,880.3c.4,0,.6,.3,.6,.6c0,.3,-.2,.6,-.6,.6c-.3,0,-.6,-.3,-.6,-.6c0,-.3,.3,-.6,.6,-.6Z" class="g8_62"/>
<path fill-rule="evenodd" d="M759.5,860.1c-.3,.1,-.6,0,-.7,-.4c-.1,-.3,0,-.6,.3,-.7c.3,-.2,.7,0,.8,.3c.1,.3,0,.7,-.4,.8Z" class="g4_62"/>
<path d="M759.5,860.1c-.3,.1,-.6,0,-.7,-.4c-.1,-.3,0,-.6,.3,-.7c.3,-.2,.7,0,.8,.3c.1,.3,0,.7,-.4,.8Z" class="g8_62"/>
<path fill-rule="evenodd" d="M710,825.9c.3,.2,.3,.6,.1,.9c-.2,.2,-.6,.3,-.8,.1c-.3,-.2,-.4,-.6,-.2,-.9c.2,-.2,.6,-.3,.9,-.1Z" class="g4_62"/>
<path d="M710,825.9c.3,.2,.3,.6,.1,.9c-.2,.2,-.6,.3,-.8,.1c-.3,-.2,-.4,-.6,-.2,-.9c.2,-.2,.6,-.3,.9,-.1Z" class="g8_62"/>
<path clip-path="url(#c3_62)" d="M437.8,883.7L545.7,850.1m108.9,36.6L762.5,853.2" class="gb_62"/>
<path d="M702.7,827.4L773,886.7" class="gc_62"/>
<path fill-rule="evenodd" d="M642.3,885.8l-3.7,5.1h3.3Zm1.9,-3.1l-1,10.7c0,.5,0,.9,0,1c0,.3,0,.5,.1,.6c.1,.2,.3,.3,.5,.4c.2,.1,.6,.1,1,.1l-.1,.4h-5l.1,-.4h.2c.4,0,.7,-.1,1,-.2c.2,-.2,.3,-.4,.4,-.6c.1,-.2,.2,-.7,.2,-1.4l.2,-1.7h-3.7l-1.3,1.8c-.3,.4,-.5,.7,-.6,.9c0,.2,-.1,.3,-.1,.5c0,.2,.1,.4,.3,.5c.1,.1,.4,.2,.8,.2l-.1,.4h-3.8l.1,-.4c.5,0,.9,-.1,1.2,-.4c.4,-.3,.9,-1,1.6,-1.9l7.7,-10.5Z" class="g4_62"/>
<path fill-rule="evenodd" d="M785,891.6c.7,.1,1.3,.1,1.6,.1c1,0,1.9,-.3,2.7,-.9c.7,-.6,1.1,-1.4,1.1,-2.4c0,-.8,-.2,-1.4,-.7,-1.8c-.5,-.5,-1.2,-.7,-2.3,-.7c-.2,0,-.4,0,-.7,.1Zm1.9,-6.4c.4,.1,.7,.1,.9,.1c1.3,0,2.3,-.3,2.9,-.9c.7,-.6,1,-1.3,1,-2.2c0,-.6,-.2,-1.1,-.6,-1.5c-.4,-.4,-1,-.5,-1.9,-.5c-.2,0,-.5,0,-.8,.1ZM785,879.9l.1,-.4h4.6c.8,0,1.5,.1,2.1,.4c.6,.2,1,.6,1.3,1c.3,.4,.5,.9,.5,1.4c0,.7,-.3,1.4,-.8,2c-.6,.6,-1.4,1,-2.6,1.3c.7,.3,1.3,.7,1.7,1.2c.3,.5,.5,1,.5,1.6c0,.6,-.1,1.2,-.5,1.8c-.3,.6,-.7,1,-1.2,1.4c-.6,.3,-1.2,.5,-1.9,.7c-.5,.1,-1.3,.1,-2.4,.1h-4.7l.1,-.3c.5,0,.8,-.1,1,-.1c.3,-.2,.4,-.3,.5,-.5c.2,-.2,.4,-.8,.6,-1.6l2.3,-7.9c.2,-.6,.3,-1.1,.3,-1.4c0,-.2,0,-.4,-.2,-.5c-.2,-.1,-.5,-.2,-1,-.2c-.1,0,-.2,0,-.3,0Z" class="g4_62"/>
<path fill-rule="evenodd" d="M764.1,770.4l-1,4.2h-.3l-.1,-1c0,-.4,-.1,-.8,-.2,-1.1c-.1,-.3,-.3,-.5,-.5,-.7c-.2,-.2,-.5,-.4,-.9,-.5c-.3,-.2,-.7,-.2,-1.1,-.2c-1.2,0,-2.1,.3,-3,.9c-1.1,.8,-1.9,1.9,-2.5,3.4c-.5,1.2,-.8,2.4,-.8,3.6c0,1.3,.4,2.3,1.1,3c.7,.7,1.7,1.1,2.8,1.1c.9,0,1.7,-.2,2.4,-.6c.7,-.4,1.3,-1,1.9,-1.8h.4c-.7,1.1,-1.4,1.9,-2.3,2.5c-.8,.5,-1.8,.8,-3,.8c-1.1,0,-2,-.3,-2.8,-.7c-.8,-.5,-1.4,-1.1,-1.8,-1.9c-.5,-.8,-.7,-1.6,-.7,-2.6c0,-1.4,.4,-2.7,1.1,-4.1c.8,-1.3,1.8,-2.4,3.1,-3.1c1.3,-.8,2.7,-1.2,4,-1.2c.6,0,1.3,.2,2.1,.5c.3,.1,.6,.2,.7,.2c.2,0,.3,-.1,.4,-.1c.2,-.1,.3,-.3,.6,-.6Z" class="g4_62"/>
<path fill-rule="evenodd" d="M744.3,894.2l-.9,4.2H743v-1.1c-.1,-.4,-.1,-.7,-.2,-1c-.2,-.3,-.3,-.6,-.6,-.8c-.2,-.2,-.5,-.4,-.8,-.5c-.4,-.1,-.7,-.2,-1.2,-.2c-1.1,0,-2.1,.3,-2.9,1c-1.1,.8,-2,1.9,-2.6,3.3c-.5,1.2,-.7,2.4,-.7,3.7c0,1.2,.3,2.2,1.1,3c.7,.7,1.6,1.1,2.8,1.1c.9,0,1.7,-.2,2.3,-.6c.7,-.4,1.4,-1,1.9,-1.8h.5c-.7,1.1,-1.5,1.9,-2.3,2.4c-.9,.5,-1.9,.8,-3.1,.8c-1,0,-1.9,-.2,-2.7,-.7c-.8,-.4,-1.5,-1,-1.9,-1.8c-.4,-.8,-.6,-1.7,-.6,-2.6c0,-1.4,.4,-2.8,1.1,-4.1c.8,-1.4,1.8,-2.4,3.1,-3.2c1.3,-.7,2.6,-1.1,4,-1.1c.6,0,1.3,.1,2.1,.4c.3,.2,.5,.2,.7,.2c.1,0,.3,0,.4,-.1c.1,0,.3,-.2,.6,-.5Z" class="g4_62"/>
<path fill-rule="evenodd" d="M781.7,845.8l-3.7,5.1h3.2Zm1.9,-3.2l-1,10.8c0,.5,-.1,.8,-.1,1c0,.2,.1,.4,.2,.6c.1,.2,.3,.3,.5,.4c.2,.1,.5,.1,1,.1l-.1,.4h-5l.1,-.4h.2c.4,0,.7,-.1,1,-.3c.2,-.1,.3,-.3,.4,-.6c.1,-.2,.1,-.6,.2,-1.3l.2,-1.7h-3.7l-1.3,1.8c-.3,.4,-.5,.7,-.6,.9c-.1,.1,-.1,.3,-.1,.4c0,.3,.1,.4,.3,.6c.1,.1,.4,.2,.8,.2l-.1,.4h-3.8l.1,-.4c.4,0,.8,-.2,1.2,-.5c.4,-.3,.9,-.9,1.6,-1.9l7.7,-10.5Z" class="g4_62"/>
<path fill-rule="evenodd" d="M680.7,818.1c.7,.1,1.3,.1,1.6,.1c1,0,1.9,-.3,2.7,-.9c.7,-.6,1.1,-1.4,1.1,-2.4c0,-.8,-.2,-1.4,-.7,-1.8c-.5,-.5,-1.2,-.7,-2.3,-.7c-.2,0,-.4,0,-.7,.1Zm1.9,-6.4c.4,.1,.7,.1,.9,.1c1.3,0,2.3,-.3,2.9,-.9c.7,-.6,1,-1.3,1,-2.2c0,-.6,-.2,-1.1,-.6,-1.5c-.4,-.4,-1,-.5,-1.9,-.5c-.2,0,-.5,0,-.8,.1Zm-1.9,-5.3l.1,-.4h4.6c.8,0,1.5,.1,2.1,.4c.6,.2,1,.6,1.3,1c.3,.4,.5,.9,.5,1.4c0,.7,-.3,1.4,-.8,2c-.6,.6,-1.4,1,-2.6,1.3c.7,.3,1.3,.7,1.7,1.2c.3,.5,.5,1,.5,1.6c0,.6,-.1,1.2,-.5,1.8c-.3,.6,-.7,1,-1.2,1.4c-.5,.3,-1.2,.5,-1.9,.7c-.5,.1,-1.3,.1,-2.4,.1h-4.7l.1,-.3c.5,0,.8,-.1,1,-.1c.3,-.2,.4,-.3,.5,-.5c.2,-.2,.4,-.8,.6,-1.6l2.4,-7.9c.1,-.6,.2,-1.1,.2,-1.4c0,-.2,0,-.4,-.2,-.5c-.2,-.1,-.5,-.2,-1,-.2c-.1,0,-.2,0,-.3,0Z" class="g4_62"/>
<path fill-rule="evenodd" d="M746.4,905.4l2.1,-1.1h.2v7.3c0,.5,0,.8,.1,.9c0,.1,.1,.2,.2,.3c.1,.1,.4,.1,.8,.1v.2h-3.2v-.2c.4,0,.6,0,.8,-.1c.1,-.1,.2,-.1,.2,-.2c0,-.1,.1,-.5,.1,-1V907c0,-.7,-.1,-1.1,-.1,-1.2c0,-.2,-.1,-.3,-.2,-.3c0,-.1,-.1,-.1,-.2,-.1c-.2,0,-.4,0,-.7,.2Z" class="g4_62"/>
<path fill-rule="evenodd" d="M788.6,853.8l2.1,-1h.2v7.3c0,.5,.1,.8,.1,.9c0,.1,.1,.2,.2,.3c.2,0,.4,.1,.8,.1v.2h-3.2v-.2c.4,0,.7,-.1,.8,-.1c.1,-.1,.2,-.2,.2,-.3c.1,-.1,.1,-.4,.1,-.9v-4.7c0,-.6,0,-1,-.1,-1.2c0,-.1,0,-.2,-.1,-.3c-.1,0,-.2,-.1,-.3,-.1c-.2,0,-.4,.1,-.7,.2Z" class="g4_62"/>
<path fill-rule="evenodd" d="M692.9,816.9l2,-1h.3v7.3c0,.4,0,.7,0,.9c.1,.1,.1,.2,.3,.2c.1,.1,.3,.1,.7,.1v.3H693v-.3c.4,0,.7,0,.8,-.1c.1,0,.2,-.1,.2,-.2c.1,-.1,.1,-.4,.1,-.9v-4.7c0,-.6,0,-1,-.1,-1.2c0,-.1,0,-.2,-.1,-.3c-.1,-.1,-.2,-.1,-.3,-.1c-.1,0,-.4,.1,-.6,.2Z" class="g4_62"/>
<path d="M186.1,703.7V617.2m0,0H428.4M186.1,634.5H428.4M186.1,651.9H428.4M186.1,669.2H428.4M186.1,686.5H428.4M186.1,703.8H428.4m-225,-.1V617.2m17.3,86.5V617.2M238,703.7V617.2m17.4,86.5V617.2m17.3,86.5V617.2M290,703.7V617.2m17.3,86.5V617.2m17.4,86.5V617.2M342,703.7V617.2m17.3,86.5V617.2m17.3,86.5V617.2m17.3,86.5V617.2m17.4,86.5V617.2m17.3,86.5V617.2" class="gd_62"/>
<path d="M203.6,634.7v52H410.9l-207.3,-52Z" class="g2_62"/>
<path fill-rule="evenodd" d="M201.3,689.5l-.9,4H200v-1c0,-.4,-.1,-.7,-.2,-1c-.1,-.3,-.3,-.5,-.5,-.7c-.2,-.2,-.5,-.4,-.8,-.5c-.3,-.1,-.7,-.2,-1.1,-.2c-1.1,0,-2,.3,-2.8,.9c-1,.8,-1.8,1.8,-2.4,3.2c-.5,1.1,-.7,2.2,-.7,3.4c0,1.2,.3,2.1,1,2.8c.7,.7,1.6,1.1,2.7,1.1c.8,0,1.6,-.2,2.2,-.6c.7,-.4,1.3,-.9,1.8,-1.7h.4c-.6,1,-1.4,1.8,-2.2,2.3c-.8,.5,-1.7,.7,-2.8,.7c-1,0,-1.9,-.2,-2.7,-.6c-.7,-.4,-1.3,-1,-1.7,-1.7c-.4,-.8,-.6,-1.6,-.6,-2.5c0,-1.3,.4,-2.6,1.1,-3.8c.7,-1.3,1.6,-2.3,2.9,-3c1.2,-.7,2.5,-1.1,3.7,-1.1c.6,0,1.3,.2,2,.5c.3,.1,.6,.1,.7,.1c.2,0,.3,0,.4,-.1c.1,0,.3,-.2,.5,-.5Z" class="g4_62"/>
<path fill-rule="evenodd" d="M423,688.8l-.9,10.1c0,.4,-.1,.7,-.1,.9c0,.2,.1,.4,.2,.5c.1,.2,.2,.3,.4,.4c.2,.1,.6,.1,1,.1l-.1,.4h-4.8l.1,-.4h.2c.4,0,.7,0,1,-.2c.2,-.1,.3,-.3,.4,-.6c.1,-.2,.1,-.6,.2,-1.3l.1,-1.5h-3.4l-1.3,1.7c-.3,.3,-.4,.6,-.5,.8c-.1,.1,-.1,.3,-.1,.4c0,.2,.1,.4,.2,.5c.2,.2,.4,.2,.8,.2l-.1,.4h-3.6l.1,-.4c.4,0,.8,-.1,1.2,-.4c.3,-.3,.8,-.9,1.5,-1.8l7.2,-9.8Zm-1.7,2.9l-3.6,4.8h3.1Z" class="g4_62"/>
<path fill-rule="evenodd" d="M195.1,623.1l.1,-.4h4.4c.7,0,1.3,.2,1.9,.4c.6,.2,1,.5,1.3,.9c.3,.4,.4,.9,.4,1.3c0,.7,-.2,1.4,-.7,1.9c-.5,.6,-1.4,1,-2.5,1.3c.7,.2,1.3,.6,1.6,1.1c.4,.4,.5,.9,.5,1.5c0,.6,-.1,1.1,-.4,1.7c-.3,.5,-.7,1,-1.2,1.3c-.5,.3,-1.1,.5,-1.8,.6c-.5,.1,-1.2,.2,-2.3,.2H192l.1,-.3c.5,-.1,.8,-.1,.9,-.2c.3,-.1,.5,-.2,.6,-.4c.1,-.2,.3,-.7,.5,-1.5l2.2,-7.4c.2,-.6,.3,-1,.3,-1.3c0,-.2,-.1,-.4,-.3,-.5c-.1,-.1,-.4,-.2,-.9,-.2c-.1,0,-.2,0,-.3,0m1.8,5c.4,0,.7,0,.9,0c1.2,0,2.1,-.2,2.7,-.8c.6,-.5,1,-1.2,1,-2c0,-.6,-.2,-1.1,-.6,-1.4c-.4,-.4,-1,-.5,-1.8,-.5c-.2,0,-.5,0,-.8,.1Zm-1.7,6c.6,.1,1.1,.1,1.5,.1c.9,0,1.7,-.3,2.5,-.8c.7,-.6,1,-1.3,1,-2.3c0,-.7,-.2,-1.3,-.6,-1.7c-.5,-.4,-1.2,-.6,-2.2,-.6c-.2,0,-.4,0,-.7,0Z" class="g4_62"/>
<path d="M203.6,675.7c7.1,.4,11.3,4.1,12.6,11.3" class="ge_62"/>
<path fill-rule="evenodd" d="M208.8,681.8c.6,0,1.1,.5,1.1,1.1c0,.6,-.5,1.1,-1.1,1.1c-.6,0,-1.1,-.5,-1.1,-1.1c0,-.6,.5,-1.1,1.1,-1.1Z" class="g4_62"/>
<path d="M208.8,681.8c.6,0,1.1,.5,1.1,1.1c0,.6,-.5,1.1,-1.1,1.1c-.6,0,-1.1,-.5,-1.1,-1.1c0,-.6,.5,-1.1,1.1,-1.1Z" class="ge_62"/>
<path d="M73.6,164.7H835.8M73.6,512.7H835.8M73.6,716.4H835.8" class="gf_62"/>
<path fill-rule="evenodd" d="M195.4,890l-3.8,5.1h3.3Zm1.8,-3.2l-.9,10.8c-.1,.5,-.1,.8,-.1,1c0,.2,0,.4,.1,.6c.1,.1,.3,.3,.5,.4c.2,.1,.6,.1,1,.1l-.1,.3h-5l.1,-.3h.2c.4,0,.8,-.1,1,-.3c.2,-.1,.3,-.3,.4,-.6c.1,-.2,.2,-.6,.2,-1.4l.2,-1.6h-3.7l-1.3,1.8c-.3,.4,-.5,.7,-.6,.8c0,.2,-.1,.4,-.1,.5c0,.2,.1,.4,.3,.6c.1,.1,.4,.2,.8,.2l-.1,.3h-3.8l.1,-.3c.5,0,.9,-.2,1.2,-.5c.4,-.3,.9,-.9,1.6,-1.9l7.7,-10.5Z" class="g4_62"/>
<path fill-rule="evenodd" d="M337.2,899c.7,.1,1.3,.2,1.6,.2c1,0,1.9,-.3,2.7,-.9c.7,-.6,1.1,-1.4,1.1,-2.5c0,-.7,-.2,-1.4,-.7,-1.8c-.5,-.4,-1.2,-.7,-2.3,-.7c-.2,0,-.4,.1,-.7,.1Zm1.9,-6.3c.4,0,.7,0,.9,0c1.3,0,2.3,-.3,2.9,-.9c.7,-.6,1,-1.3,1,-2.1c0,-.7,-.2,-1.2,-.6,-1.6c-.4,-.3,-1,-.5,-1.9,-.5c-.2,0,-.5,0,-.8,.1Zm-1.9,-5.4l.1,-.4h4.6c.8,0,1.5,.2,2.1,.4c.6,.2,1,.6,1.3,1c.3,.4,.5,.9,.5,1.4c0,.7,-.3,1.4,-.8,2c-.6,.6,-1.4,1,-2.6,1.3c.7,.3,1.3,.7,1.7,1.2c.3,.5,.5,1,.5,1.6c0,.6,-.1,1.2,-.5,1.8c-.3,.6,-.7,1.1,-1.2,1.4c-.6,.3,-1.2,.5,-1.9,.7c-.5,.1,-1.3,.2,-2.4,.2h-4.7l.1,-.4c.5,0,.8,0,1,-.1c.2,-.1,.4,-.3,.5,-.5c.2,-.2,.4,-.8,.6,-1.6l2.3,-7.8c.2,-.7,.3,-1.2,.3,-1.4c0,-.3,-.1,-.5,-.2,-.6c-.2,-.1,-.5,-.2,-1,-.2c-.1,0,-.2,0,-.3,0Z" class="g4_62"/>
<path fill-rule="evenodd" d="M314.6,772.2l-.9,4.1h-.4v-1c0,-.4,-.1,-.7,-.2,-1c-.1,-.3,-.3,-.6,-.5,-.8c-.3,-.2,-.5,-.4,-.9,-.5c-.3,-.1,-.7,-.2,-1.1,-.2c-1.2,0,-2.2,.3,-3,.9c-1.1,.8,-1.9,1.9,-2.5,3.4c-.5,1.2,-.8,2.4,-.8,3.6c0,1.3,.4,2.3,1.1,3c.7,.8,1.7,1.1,2.8,1.1c.9,0,1.7,-.2,2.4,-.6c.6,-.3,1.3,-1,1.9,-1.8h.4c-.7,1.1,-1.5,2,-2.3,2.5c-.8,.5,-1.9,.8,-3,.8c-1.1,0,-2,-.3,-2.8,-.7c-.8,-.4,-1.4,-1.1,-1.9,-1.9c-.4,-.8,-.6,-1.6,-.6,-2.5c0,-1.5,.4,-2.8,1.1,-4.2c.8,-1.3,1.8,-2.3,3.1,-3.1c1.3,-.8,2.6,-1.1,4,-1.1c.6,0,1.3,.1,2.1,.4c.3,.1,.6,.2,.7,.2c.2,0,.3,0,.4,-.1c.1,-.1,.3,-.2,.6,-.5Z" class="g4_62"/>
<path fill-rule="evenodd" d="M294.9,895.9l-1,4.2h-.3V899c-.1,-.3,-.1,-.7,-.3,-1c-.1,-.3,-.2,-.5,-.5,-.8c-.2,-.2,-.5,-.3,-.8,-.5c-.4,-.1,-.8,-.2,-1.2,-.2c-1.1,0,-2.1,.4,-3,1c-1,.8,-1.9,1.9,-2.5,3.3c-.5,1.2,-.7,2.4,-.7,3.7c0,1.2,.3,2.2,1,3c.8,.7,1.7,1.1,2.9,1.1c.9,0,1.6,-.2,2.3,-.6c.7,-.4,1.3,-1,1.9,-1.8h.5c-.7,1.1,-1.5,1.9,-2.3,2.4c-.9,.6,-1.9,.8,-3.1,.8c-1,0,-2,-.2,-2.8,-.6c-.8,-.5,-1.4,-1.1,-1.8,-1.9c-.4,-.8,-.6,-1.7,-.6,-2.6c0,-1.4,.3,-2.8,1.1,-4.1c.7,-1.3,1.8,-2.4,3.1,-3.2c1.3,-.7,2.6,-1.1,3.9,-1.1c.7,0,1.4,.2,2.1,.5c.4,.1,.6,.1,.8,.1c.1,0,.3,0,.4,0c.1,-.1,.3,-.3,.5,-.6Z" class="g4_62"/>
<path fill-rule="evenodd" d="M297,907.1l2.1,-1h.2v7.2c0,.5,0,.8,.1,.9c0,.2,.1,.3,.2,.3c.1,.1,.4,.1,.8,.1v.3h-3.2v-.3c.4,0,.6,0,.7,-.1c.2,0,.2,-.1,.3,-.2c0,-.1,.1,-.4,.1,-1v-4.6c0,-.6,-.1,-1,-.1,-1.2c0,-.2,-.1,-.3,-.2,-.3q-.1,-.1,-.3,-.1c-.1,0,-.3,.1,-.6,.2Z" class="g4_62"/>
<g clip-path="url(#c4_62)">
<path fill-rule="evenodd" d="M233.6,879.7h45.2V813.9Zm-24.1,11.4h82.6V770.2Z" class="g7_62"/>
<path d="M206.9,890.6H325.5L292.9,785.1l-86,105.5Zm212.4,1H537.8L505.2,786.1L419.3,891.6Zm216.2,3.1H754.1L721.5,789.2l-86,105.5Z" class="g8_62"/>
<path d="M292.7,785.1v105M505,786.1V891.2m216.7,-102v105" class="g9_62"/>
<path d="M292.8,877.4c7.5,1.8,11.4,6.1,11.8,13m200.8,-12c7.4,1.8,11.4,6.2,11.7,13m13.4,-22.6c-7.4,1.7,-12.8,-.5,-16.2,-6.5m207.6,19.2c7.4,1.8,11.4,6.1,11.7,13m13.5,-21c-7.6,.9,-12.8,-1.8,-15.5,-8.2M692,826c5,5.9,5.6,11.7,1.8,17.5" class="ga_62"/>
</g>
<path fill-rule="evenodd" d="M297,884.4c.4,0,.6,.3,.6,.6c0,.4,-.2,.6,-.6,.6c-.3,0,-.6,-.2,-.6,-.6c0,-.3,.3,-.6,.6,-.6Z" class="g4_62"/>
<path d="M297,884.4c.4,0,.6,.3,.6,.6c0,.4,-.2,.6,-.6,.6c-.3,0,-.6,-.2,-.6,-.6c0,-.3,.3,-.6,.6,-.6Z" class="g8_62"/>
<path fill-rule="evenodd" d="M419.3,888.6l-3.7,5.1h3.2Zm1.9,-3.2l-1,10.8c0,.5,-.1,.8,-.1,1c0,.2,.1,.4,.2,.6c.1,.1,.3,.3,.5,.4c.2,.1,.5,.1,1,.1l-.1,.3h-5.1l.2,-.3h.2c.4,0,.7,-.1,1,-.3c.2,-.1,.3,-.3,.4,-.6c.1,-.2,.1,-.6,.2,-1.4l.2,-1.6h-3.7l-1.3,1.8c-.3,.4,-.5,.7,-.6,.8c-.1,.2,-.1,.4,-.1,.5c0,.2,.1,.4,.2,.6c.2,.1,.5,.2,.9,.2l-.1,.3h-3.8l.1,-.3c.4,0,.8,-.2,1.2,-.5c.4,-.3,.9,-.9,1.6,-1.9l7.7,-10.5Z" class="g4_62"/>
<path fill-rule="evenodd" d="M565.2,898.4c.7,.1,1.3,.2,1.6,.2c1,0,1.9,-.3,2.7,-.9c.7,-.6,1.1,-1.4,1.1,-2.5c0,-.7,-.2,-1.3,-.7,-1.8c-.5,-.4,-1.2,-.6,-2.3,-.6c-.2,0,-.4,0,-.7,0Zm1.9,-6.3c.4,0,.7,0,.9,0c1.3,0,2.3,-.3,2.9,-.9c.7,-.6,1,-1.3,1,-2.1c0,-.7,-.2,-1.2,-.6,-1.6c-.4,-.3,-1,-.5,-1.9,-.5c-.2,0,-.5,0,-.8,.1Zm-1.9,-5.4l.1,-.4h4.6c.8,0,1.5,.2,2.1,.4c.6,.3,1,.6,1.3,1c.3,.5,.5,.9,.5,1.4c0,.7,-.3,1.4,-.8,2c-.6,.6,-1.4,1.1,-2.6,1.3c.7,.3,1.3,.7,1.7,1.2c.3,.5,.5,1,.5,1.6c0,.6,-.1,1.2,-.5,1.8c-.3,.6,-.7,1.1,-1.2,1.4c-.6,.3,-1.2,.6,-1.9,.7c-.5,.1,-1.3,.2,-2.4,.2h-4.7l.1,-.4c.5,0,.8,0,1,-.1c.3,-.1,.4,-.3,.5,-.5c.2,-.2,.4,-.7,.6,-1.6l2.3,-7.8c.2,-.7,.3,-1.2,.3,-1.4c0,-.3,0,-.4,-.2,-.6c-.2,-.1,-.5,-.2,-1,-.2c-.1,0,-.2,0,-.3,0Z" class="g4_62"/>
<path fill-rule="evenodd" d="M543.4,773.2l-.9,4.2h-.4v-1.1c0,-.4,-.1,-.7,-.2,-1c-.1,-.3,-.3,-.5,-.5,-.8c-.2,-.2,-.5,-.4,-.9,-.5c-.3,-.1,-.7,-.2,-1.1,-.2c-1.2,0,-2.1,.3,-3,1c-1.1,.8,-1.9,1.9,-2.5,3.3c-.5,1.2,-.8,2.4,-.8,3.7c0,1.2,.4,2.2,1.1,3c.7,.7,1.7,1.1,2.8,1.1c.9,0,1.7,-.2,2.4,-.6c.7,-.4,1.3,-1,1.9,-1.8h.4c-.7,1.1,-1.4,1.9,-2.3,2.4c-.8,.5,-1.8,.8,-3,.8c-1.1,0,-2,-.2,-2.8,-.7c-.8,-.4,-1.4,-1,-1.9,-1.8c-.4,-.8,-.6,-1.7,-.6,-2.6c0,-1.4,.4,-2.8,1.1,-4.1c.8,-1.4,1.8,-2.4,3.1,-3.2c1.3,-.7,2.7,-1.1,4,-1.1c.6,0,1.3,.1,2.1,.4c.3,.2,.6,.2,.7,.2c.2,0,.3,0,.4,-.1c.1,0,.3,-.2,.6,-.5Z" class="g4_62"/>
<path fill-rule="evenodd" d="M523.7,897.8l-1,4.1h-.3v-1c-.1,-.4,-.1,-.7,-.2,-1c-.2,-.3,-.3,-.6,-.6,-.8c-.2,-.2,-.5,-.4,-.8,-.5c-.4,-.1,-.8,-.2,-1.2,-.2c-1.1,0,-2.1,.3,-2.9,.9c-1.1,.8,-2,1.9,-2.6,3.4c-.5,1.2,-.7,2.4,-.7,3.6c0,1.3,.3,2.3,1.1,3c.7,.8,1.6,1.1,2.8,1.1c.9,0,1.6,-.2,2.3,-.5c.7,-.4,1.3,-1,1.9,-1.9h.5c-.7,1.1,-1.5,2,-2.3,2.5c-.9,.5,-1.9,.8,-3.1,.8c-1,0,-1.9,-.2,-2.8,-.7c-.8,-.4,-1.4,-1,-1.8,-1.9c-.4,-.8,-.6,-1.6,-.6,-2.5c0,-1.4,.3,-2.8,1.1,-4.2c.7,-1.3,1.8,-2.3,3.1,-3.1c1.3,-.8,2.6,-1.1,4,-1.1c.6,0,1.3,.1,2.1,.4c.3,.1,.5,.2,.7,.2c.1,0,.3,0,.4,-.1c.1,-.1,.3,-.2,.6,-.5Z" class="g4_62"/>
<path fill-rule="evenodd" d="M562.7,849.4l-3.7,5.1h3.2Zm1.9,-3.2l-1,10.8c0,.5,0,.8,0,1c0,.2,0,.4,.1,.5c.1,.2,.3,.4,.5,.5c.2,0,.5,.1,1,.1l-.1,.3h-5l.1,-.3h.2c.4,0,.7,-.1,1,-.3c.2,-.1,.3,-.3,.4,-.6c.1,-.2,.1,-.6,.2,-1.4l.2,-1.6h-3.7l-1.3,1.8c-.3,.4,-.5,.7,-.6,.8c0,.2,-.1,.4,-.1,.5c0,.2,.1,.4,.3,.5c.1,.2,.4,.3,.8,.3l-.1,.3h-3.8l.1,-.3c.4,0,.9,-.2,1.2,-.5c.4,-.3,.9,-.9,1.6,-1.9l7.7,-10.5Z" class="g4_62"/>
<path fill-rule="evenodd" d="M525.8,908.9l2.1,-1h.2v7.3c0,.5,0,.8,.1,.9c0,.1,.1,.2,.2,.3c.1,0,.4,.1,.8,.1v.2H526v-.2c.4,0,.6,-.1,.7,-.1c.2,-.1,.2,-.2,.3,-.3c0,-.1,.1,-.4,.1,-.9v-4.7c0,-.6,-.1,-1,-.1,-1.2c0,-.1,-.1,-.2,-.2,-.3c0,0,-.1,-.1,-.2,-.1c-.2,0,-.4,.1,-.7,.2Z" class="g4_62"/>
<path fill-rule="evenodd" d="M569.7,857.4l2,-1h.2v7.3c0,.4,.1,.7,.1,.9c0,.1,.1,.2,.3,.2c.1,.1,.3,.1,.7,.1v.3h-3.2v-.3c.4,0,.7,0,.8,-.1c.1,0,.2,-.1,.2,-.2c.1,-.1,.1,-.4,.1,-.9V859c0,-.6,0,-1,-.1,-1.2c0,-.1,0,-.2,-.1,-.3c-.1,-.1,-.2,-.1,-.3,-.1c-.2,0,-.4,.1,-.6,.2Z" class="g4_62"/>
<path fill-rule="evenodd" d="M514.9,804.4l13.3,43.4l-62.4,19.4Zm3.8,-26.6L543,857.2L428.2,892.9Z" class="g7_62"/>
<g clip-path="url(#c5_62)">
<path d="M222.8,890H341.4L308.8,784.5L222.8,890Zm212.3,1H553.7L521.1,785.5L435.1,891Zm216.3,3.1H770L737.4,788.6l-86,105.5Z" class="g8_62"/>
<path d="M308.5,784.5v105m212.4,-104V890.6m216.7,-102v105" class="g9_62"/>
<path d="M308.7,876.8c7.5,1.8,11.4,6.1,11.8,13m200.8,-12c7.4,1.8,11.3,6.2,11.7,13m13.4,-22.6c-7.5,1.7,-12.9,-.5,-16.2,-6.5m207.6,19.2c7.4,1.8,11.3,6.1,11.7,13m13.5,-21c-7.6,.9,-12.8,-1.8,-15.5,-8.1M707.9,825.4c5,5.9,5.5,11.7,1.8,17.5" class="ga_62"/>
</g>
<path fill-rule="evenodd" d="M525.4,884.9c.4,0,.6,.3,.6,.6c0,.3,-.2,.6,-.6,.6c-.3,0,-.6,-.3,-.6,-.6c0,-.3,.3,-.6,.6,-.6Z" class="g4_62"/>
<path d="M525.4,884.9c.4,0,.6,.3,.6,.6c0,.3,-.2,.6,-.6,.6c-.3,0,-.6,-.3,-.6,-.6c0,-.3,.3,-.6,.6,-.6Z" class="g8_62"/>
<path fill-rule="evenodd" d="M539.6,863.7c-.3,.2,-.6,0,-.8,-.3c-.1,-.3,0,-.6,.3,-.8c.3,-.1,.7,0,.8,.3c.2,.3,0,.7,-.3,.8Z" class="g4_62"/>
<path d="M539.6,863.7c-.3,.2,-.6,0,-.8,-.3c-.1,-.3,0,-.6,.3,-.8c.3,-.1,.7,0,.8,.3c.2,.3,0,.7,-.3,.8Z" class="g8_62"/>
<path clip-path="url(#c5_62)" d="M434.9,891.3L542.8,857.8m108.9,36.6L759.6,860.8" class="gb_62"/>
<path d="M184.4,1031.6h651V918.5h-651v113.1Z" class="gg_62"/>
<path d="M0,138.7H120.6V0H0V138.7Z" class="g0_62"/>
<path d="M135.5,956.1h39.6V918.7H135.5v37.4Z" class="gh_62"/>
</svg>