<?xml version="1.0" encoding="UTF-8" standalone="no"?>
<!DOCTYPE svg PUBLIC "-//W3C//DTD SVG 1.1//EN"
"http://www.w3.org/Graphics/SVG/1.1/DTD/svg11.dtd">
<svg viewBox="0 0 909 1147" version="1.1" xmlns="http://www.w3.org/2000/svg" xmlns:xlink="http://www.w3.org/1999/xlink">
<defs>
<clipPath id="c0_129"><path d="M631.1,352.8V107.2H775.2V352.8Z"/></clipPath>
<clipPath id="c1_129"><path d="M185.1,352.8V107.2H338.2V352.8Z"/></clipPath>
<clipPath id="c2_129"><path d="M408.1,352.8V107.2h159V352.8Z"/></clipPath>
<style type="text/css"><![CDATA[
.g0_129{
fill: #E7A9A1;
}
.g1_129{
fill: none;
stroke: #0EA5DF;
stroke-width: 3.055;
}
.g2_129{
fill: none;
stroke: #000;
stroke-width: 1.527;
stroke-miterlimit: 2;
}
.g3_129{
fill: #C7C4E2;
}
.g4_129{
fill: none;
stroke: #000;
stroke-width: 1.069;
stroke-miterlimit: 2;
stroke-dasharray: 6,4;
}
.g5_129{
fill: none;
stroke: #000;
stroke-width: 0.763;
stroke-miterlimit: 2;
}
.g6_129{
fill: #000;
}
]]></style>
</defs>
<path d="M835.8,1131h73.6v-51.5H835.8V1131Z" class="g0_129"/>
<path d="M73.6,542.4H835.8" class="g1_129"/>
<path d="M635.6,107.9H774.4v86.5H635.6V107.9Z" class="g2_129"/>
<path fill-rule="evenodd" d="M635.6,177.7h16.6v16.7H635.6V177.7Z" class="g3_129"/>
<path d="M635.6,177.7h16.6v16.7H635.6V177.7Z" class="g2_129"/>
<path fill-rule="evenodd" d="M757.7,177.7h16.7v16.7H757.7V177.7Z" class="g3_129"/>
<path d="M757.7,177.7h16.7v16.7H757.7V177.7Z" class="g2_129"/>
<path fill-rule="evenodd" d="M757.7,107.9h16.7v16.7H757.7V107.9Z" class="g3_129"/>
<path d="M757.7,107.9h16.7v16.7H757.7V107.9Z" class="g2_129"/>
<path fill-rule="evenodd" d="M635.6,107.9h16.6v16.7H635.6V107.9Z" class="g3_129"/>
<path clip-path="url(#c0_129)" d="M289.4,107.9H428.3v86.5H289.4V107.9Zm346.2,0h16.6v16.7H635.6V107.9ZM652.2,227l.1,-16.5H757.8l.1,16.6h16.5v53.1H757.8l-.1,16.7H652.2l-.1,-16.7H635.6V227h16.6Z" class="g2_129"/>
<path d="M757.6,289.5V222.8M652.1,285V223.9m-.2,56.5H761.3M652.1,227H767.4" class="g4_129"/>
<path fill-rule="evenodd" d="M636.8,334.7H742.3v16H636.8v-16Z" class="g3_129"/>
<path d="M636.8,334.7H742.3v16H636.8v-16Z" class="g2_129"/>
<path fill-rule="evenodd" d="M742.3,335.3l30.9,-21.2v15.7L742.3,351Z" class="g3_129"/>
<path d="M742.3,335.3l30.9,-21.2v15.7L742.3,351V335.3Z" class="g2_129"/>
<path d="M667.8,313.8V329m0,0l-8.1,5.4" class="g4_129"/>
<path d="M668,313.9H772.7M636.9,334.4l30.9,-20.6" class="g2_129"/>
<path d="M667.8,328.8h82.1" class="g4_129"/>
<path d="M637.4,221.8c1.3,-4.6,4.5,-7.1,9.8,-7.6" class="g5_129"/>
<path fill-rule="evenodd" d="M636.6,224.5l-.6,-3.1l2.8,.7Z" class="g6_129"/>
<path fill-rule="evenodd" d="M650.1,214l-3,-1.2l.2,2.9Z" class="g6_129"/>
<path clip-path="url(#c1_129)" d="M189.3,107.9H328.1v86.5H189.3V107.9Zm346.1,0h16.7v16.7H535.4V107.9Z" class="g2_129"/>
<path fill-rule="evenodd" d="M189.3,107.9h12.2v12.2H189.3V107.9Z" class="g3_129"/>
<path d="M189.3,107.9h12.2v12.2H189.3V107.9Z" class="g2_129"/>
<path fill-rule="evenodd" d="M189.3,182.2h12.2v12.2H189.3V182.2Z" class="g3_129"/>
<path d="M189.3,182.2h12.2v12.2H189.3V182.2Z" class="g2_129"/>
<path fill-rule="evenodd" d="M315.9,182.2h12.2v12.2H315.9V182.2Z" class="g3_129"/>
<path d="M315.9,182.2h12.2v12.2H315.9V182.2Z" class="g2_129"/>
<path fill-rule="evenodd" d="M315.9,107.9h12.2v12.2H315.9V107.9Z" class="g3_129"/>
<path clip-path="url(#c1_129)" d="M362.3,107.9H501.2v86.5H362.3V107.9Zm-46.4,0h12.2v12.2H315.9V107.9ZM201.7,222.7l-.1,-12.2H315.7l.2,12.2h12.2v61.9H315.8v12.3H201.5V284.6H189.3V222.7h12.4ZM487,107.9h14.2v14.2H487V107.9Z" class="g2_129"/>
<path d="M315.8,286.4V219.7M201.6,286.4V219.7m-.9,64.6H316M201.6,222.9H316.9" class="g4_129"/>
<path d="M185.9,351H300.7V339.2H185.9V351Z" class="g3_129"/>
<path d="M185.9,339.2H300.7V351H185.9V339.2Z" class="g2_129"/>
<path fill-rule="evenodd" d="M300.6,339l30.9,-16.8v12.4l-30.9,16.8Z" class="g3_129"/>
<path d="M300.6,339l30.9,-16.8v12.4l-30.9,16.8V339Z" class="g2_129"/>
<path d="M216.8,322.2v12.4l-9.1,5" class="g4_129"/>
<path d="M185.9,339l30.9,-16.8" class="g2_129"/>
<path d="M216.8,334.4h90.9" class="g4_129"/>
<path d="M216.8,322.2H331.3" class="g2_129"/>
<path d="M191,218.1c.8,-2.9,2.9,-4.5,6.3,-4.8" class="g5_129"/>
<path fill-rule="evenodd" d="M190.3,220.9l-.7,-3.2l2.8,.8Z" class="g6_129"/>
<path fill-rule="evenodd" d="M200.1,213l-3,-1.1l.3,2.9Z" class="g6_129"/>
<path clip-path="url(#c2_129)" d="M236.5,107.9H375.4v86.5H236.5V107.9Zm346.2,0h16.6v16.7H582.7V107.9Zm-173.1,0H548.4v86.5H409.6V107.9Zm-46.5,0h12.3v12.2H363.1V107.9Z" class="g2_129"/>
<path fill-rule="evenodd" d="M409.6,107.9h14.2v14.2H409.6V107.9Z" class="g3_129"/>
<path d="M409.6,107.9h14.2v14.2H409.6V107.9Z" class="g2_129"/>
<path fill-rule="evenodd" d="M409.6,180.2h14.2v14.2H409.6V180.2Z" class="g3_129"/>
<path d="M409.6,180.2h14.2v14.2H409.6V180.2Z" class="g2_129"/>
<path fill-rule="evenodd" d="M534.2,180.2h14.2v14.2H534.2V180.2Z" class="g3_129"/>
<path d="M534.2,180.2h14.2v14.2H534.2V180.2Z" class="g2_129"/>
<path fill-rule="evenodd" d="M534.2,107.9h14.2v14.2H534.2V107.9Z" class="g3_129"/>
<path clip-path="url(#c2_129)" d="M249,222.7l-.2,-12.2H363l.2,12.2h12.2v61.9H363.1v12.3H248.8V284.6H236.5V222.7H249ZM534.2,107.9h14.2v14.2H534.2V107.9ZM423.7,224.6V210.5H534.1l.1,14.2h14.2v58H534.3l.1,14.2H423.8V282.6l-14.2,-.1V224.6h14.1Z" class="g2_129"/>
<path d="M534.2,287.1V220.4M423.8,282.6V221.4m-.1,61.1H538.9m-115,-57.9H539.1" class="g4_129"/>
<path fill-rule="evenodd" d="M519,336.7L549.9,317v14.6L519,351.4Z" class="g3_129"/>
<path d="M519,336.7L549.9,317v14.6L519,351.4V336.7Z" class="g2_129"/>
<path d="M439,317v14.6l-8.3,5.2" class="g4_129"/>
<path clip-path="url(#c2_129)" d="M439.6,317H550.1m-142,19.7L439,317" class="g2_129"/>
<path d="M438,331.6h87.8" class="g4_129"/>
<path d="M408.1,351H518.6V336.8H408.1V351Z" class="g3_129"/>
<path clip-path="url(#c2_129)" d="M407.9,336.8H518.6V351H407.9V336.8Z" class="g2_129"/>
<path d="M410.7,218.5c.8,-2.9,2.9,-4.5,6.3,-4.8" class="g5_129"/>
<path fill-rule="evenodd" d="M409.9,221.3l-.6,-3.2l2.8,.8Z" class="g6_129"/>
<path fill-rule="evenodd" d="M419.8,213.4l-3,-1.1l.3,2.9Z" class="g6_129"/>
</svg>