<?xml version="1.0" encoding="UTF-8" standalone="no"?>
<!DOCTYPE svg PUBLIC "-//W3C//DTD SVG 1.1//EN"
"http://www.w3.org/Graphics/SVG/1.1/DTD/svg11.dtd">
<svg viewBox="0 0 909 1147" version="1.1" xmlns="http://www.w3.org/2000/svg" xmlns:xlink="http://www.w3.org/1999/xlink">
<defs>
<clipPath id="c0_122"><path d="M187.3,1033V966l43.6,-42.9H364.5v67L321.9,1033Z"/></clipPath>
<style type="text/css"><![CDATA[
.g0_122{
fill: #E7A9A1;
}
.g1_122{
fill: #000;
}
.g2_122{
fill: none;
stroke: #000;
stroke-width: 1.069;
stroke-miterlimit: 2;
}
.g3_122{
fill: none;
stroke: #000;
stroke-width: 1.069;
stroke-miterlimit: 2;
stroke-dasharray: 6,4;
}
.g4_122{
fill: none;
stroke: #0EA5DF;
stroke-width: 3.055;
}
.g5_122{
fill: #E3F3F1;
}
.g6_122{
fill: none;
stroke: #47A5AE;
stroke-width: 0.763;
stroke-linejoin: round;
}
.g7_122{
fill: none;
stroke: #000;
stroke-width: 0.33;
stroke-linejoin: round;
stroke-dasharray: 6,3;
}
.g8_122{
fill: none;
stroke: #000;
stroke-width: 1.069;
stroke-linejoin: round;
}
.g9_122{
fill: #E5F4F5;
}
.ga_122{
fill: none;
stroke: #60686B;
stroke-width: 0.33;
stroke-linejoin: round;
stroke-dasharray: 6,3;
}
.gb_122{
fill: #D3EDEC;
}
.gc_122{
fill: none;
stroke: #60686B;
stroke-width: 1.069;
stroke-linejoin: round;
}
.gd_122{
fill: none;
stroke: #65B3BB;
stroke-width: 0.763;
stroke-linejoin: round;
}
]]></style>
</defs>
<path d="M0,1131H72.3v-51.5H0V1131Z" class="g0_122"/>
<path fill-rule="evenodd" d="M241.8,343.5l-1.6,5.6l-.1,.7c0,.1,-.1,.2,-.1,.2c0,.1,.1,.2,.1,.2q.1,.1,.2,.1c.1,0,.2,0,.3,-.1c.2,-.2,.5,-.5,.8,-1l.3,.2c-.4,.6,-.8,1,-1.2,1.3c-.4,.3,-.7,.4,-1.1,.4c-.2,0,-.4,0,-.5,-.1c-.1,-.2,-.2,-.3,-.2,-.6c0,-.2,.1,-.6,.2,-1l.2,-.6c-.7,.9,-1.4,1.6,-2,1.9c-.4,.3,-.9,.4,-1.3,.4c-.4,0,-.7,-.1,-1,-.5c-.3,-.3,-.4,-.8,-.4,-1.3c0,-.9,.2,-1.8,.7,-2.8c.6,-.9,1.2,-1.7,2,-2.3c.7,-.5,1.3,-.7,1.8,-.7c.3,0,.6,.1,.8,.3c.3,.1,.4,.4,.5,.8l.3,-.9Zm-2.9,.4c-.3,0,-.7,.2,-1.1,.5c-.5,.5,-1,1.2,-1.5,2.1c-.4,.9,-.6,1.7,-.6,2.5c0,.3,.1,.6,.2,.9c.2,.2,.4,.3,.7,.3c.6,0,1.2,-.5,1.9,-1.3c1,-1.2,1.4,-2.4,1.4,-3.6c0,-.5,-.1,-.8,-.2,-1.1c-.2,-.2,-.5,-.3,-.8,-.3Z" class="g1_122"/>
<path fill-rule="evenodd" d="M329.7,295.5c-.6,.7,-1.1,1.2,-1.7,1.5c-.6,.3,-1.2,.5,-1.9,.5c-.7,0,-1.3,-.2,-1.8,-.7c-.4,-.4,-.6,-1,-.6,-1.7c0,-.9,.2,-1.7,.7,-2.5c.4,-.8,1.1,-1.5,1.9,-2c.8,-.5,1.5,-.7,2.3,-.7c.6,0,1,.1,1.3,.3c.3,.3,.5,.6,.5,.9c0,.4,-.1,.7,-.3,.9c-.2,.2,-.4,.3,-.6,.3c-.2,0,-.3,-.1,-.4,-.2c-.1,-.1,-.2,-.2,-.2,-.4c0,-.1,0,-.2,.1,-.3c0,-.1,.1,-.2,.2,-.3c.2,-.1,.2,-.2,.3,-.2c0,-.1,0,-.2,0,-.2c0,-.1,-.1,-.2,-.2,-.3c-.1,-.1,-.3,-.2,-.6,-.2c-.6,0,-1.1,.2,-1.6,.6c-.6,.4,-1,.9,-1.4,1.6c-.4,.8,-.6,1.7,-.6,2.5c0,.6,.1,1,.4,1.4c.3,.3,.8,.4,1.3,.4c.5,0,.9,-.1,1.3,-.3c.4,-.2,.9,-.6,1.4,-1.1Z" class="g1_122"/>
<path fill-rule="evenodd" d="M314.9,331.2l-1.6,5.7c.5,-.6,1,-1,1.4,-1.2c.4,-.2,.8,-.3,1.2,-.3c.6,0,1.1,.2,1.5,.6c.4,.4,.5,1,.5,1.7c0,.8,-.2,1.7,-.7,2.6c-.5,.9,-1.1,1.5,-1.9,2c-.8,.5,-1.5,.8,-2.3,.8c-.8,0,-1.6,-.3,-2.5,-1l2.5,-8.6c.2,-.6,.3,-1,.3,-1.1c0,-.2,-.1,-.3,-.1,-.3c-.2,-.1,-.4,-.2,-.6,-.2c-.1,0,-.3,0,-.5,.1v-.3Zm-3.2,11c.6,.3,1.1,.5,1.5,.5c.5,0,1,-.2,1.5,-.5c.5,-.4,.9,-1,1.3,-1.8c.4,-.9,.6,-1.7,.6,-2.6c0,-.5,-.1,-.9,-.4,-1.2c-.2,-.2,-.5,-.4,-.9,-.4c-.5,0,-1,.2,-1.5,.6c-.4,.4,-.8,1,-1,1.7Z" class="g1_122"/>
<path d="M186,288.8H294.7v48H186v-48Zm.1,-.3L210,272m84.7,16.9l23.9,-16.6m-24,64.6l23.9,-16.5" class="g2_122"/>
<path d="M185.9,336.9l23.8,-16.5" class="g3_122"/>
<path d="M318.5,272.2v48" class="g2_122"/>
<path d="M209.8,272.2v48H317.6" class="g3_122"/>
<path d="M209.8,272.2H318.5" class="g2_122"/>
<path fill-rule="evenodd" d="M241.9,608.2l-1.6,5.6l-.2,.7q0,.1,0,.2c0,.1,.1,.1,.1,.2c0,.1,.1,.1,.2,.1c0,0,.1,-.1,.2,-.1c.3,-.2,.5,-.5,.9,-1l.3,.2c-.4,.5,-.8,1,-1.2,1.3c-.4,.3,-.8,.4,-1.1,.4c-.2,0,-.4,0,-.5,-.2c-.1,-.1,-.2,-.3,-.2,-.5c0,-.2,.1,-.6,.2,-1l.2,-.7c-.8,1,-1.4,1.6,-2,2c-.5,.3,-.9,.4,-1.3,.4c-.4,0,-.7,-.2,-1,-.5c-.3,-.3,-.5,-.8,-.5,-1.4c0,-.8,.3,-1.7,.8,-2.7c.5,-1,1.2,-1.7,2,-2.3c.6,-.5,1.2,-.7,1.8,-.7c.3,0,.6,.1,.8,.2c.2,.2,.4,.5,.5,.9l.3,-.9Zm-2.9,.4c-.3,0,-.7,.2,-1.1,.5c-.6,.5,-1.1,1.2,-1.5,2.1c-.4,.9,-.7,1.7,-.7,2.5c0,.3,.1,.6,.3,.8c.2,.3,.4,.4,.7,.4c.6,0,1.2,-.5,1.9,-1.4c.9,-1.1,1.4,-2.3,1.4,-3.6c0,-.4,-.1,-.8,-.3,-1c-.1,-.2,-.4,-.3,-.7,-.3Z" class="g1_122"/>
<path fill-rule="evenodd" d="M329.8,560.2c-.6,.7,-1.2,1.2,-1.7,1.5c-.6,.3,-1.2,.5,-1.9,.5c-.7,0,-1.4,-.3,-1.8,-.7c-.4,-.4,-.6,-1,-.6,-1.8c0,-.8,.2,-1.6,.7,-2.4c.4,-.8,1.1,-1.5,1.8,-2c.8,-.5,1.6,-.8,2.4,-.8c.6,0,1,.2,1.3,.4c.3,.3,.5,.6,.5,.9c0,.4,-.1,.7,-.4,.9c-.1,.2,-.3,.3,-.5,.3c-.2,0,-.3,-.1,-.4,-.2c-.2,-.1,-.2,-.2,-.2,-.4c0,-.1,0,-.2,0,-.3c.1,-.1,.2,-.2,.3,-.3c.1,-.1,.2,-.2,.2,-.3c.1,0,.1,-.1,.1,-.1c0,-.2,-.1,-.3,-.2,-.3c-.1,-.1,-.4,-.2,-.7,-.2c-.5,0,-1,.2,-1.5,.6c-.6,.3,-1,.9,-1.4,1.6c-.4,.8,-.7,1.7,-.7,2.5c0,.6,.2,1,.5,1.3c.3,.4,.8,.5,1.3,.5c.4,0,.8,-.1,1.3,-.3c.4,-.2,.8,-.6,1.3,-1.1Z" class="g1_122"/>
<path fill-rule="evenodd" d="M315,595.9l-1.6,5.6c.5,-.5,1,-.9,1.3,-1.1c.4,-.2,.9,-.3,1.3,-.3c.6,0,1.1,.2,1.5,.6c.3,.4,.5,1,.5,1.6c0,.9,-.2,1.8,-.7,2.7c-.5,.8,-1.2,1.5,-1.9,2c-.8,.5,-1.5,.7,-2.3,.7c-.8,0,-1.6,-.3,-2.5,-.9l2.5,-8.6c.2,-.6,.3,-1,.3,-1.1c0,-.2,-.1,-.3,-.2,-.4c-.1,-.1,-.3,-.1,-.5,-.1c-.1,0,-.3,0,-.5,0v-.3Zm-3.2,11c.6,.3,1,.5,1.5,.5c.4,0,.9,-.2,1.5,-.6c.5,-.3,.9,-.9,1.3,-1.8c.4,-.8,.6,-1.6,.6,-2.5c0,-.5,-.2,-.9,-.4,-1.2c-.2,-.3,-.5,-.4,-.9,-.4c-.5,0,-1,.2,-1.5,.6c-.5,.4,-.8,1,-1,1.7Z" class="g1_122"/>
<path d="M186.1,553.4H294.8v48H186.1v-48Zm.1,-.2l23.9,-16.5m84.7,16.8L318.7,537m-24,64.6l23.9,-16.5" class="g2_122"/>
<path d="M186,601.6l23.8,-16.5" class="g3_122"/>
<path d="M318.6,536.9v48" class="g2_122"/>
<path d="M209.9,536.9v48H317.7" class="g3_122"/>
<path d="M209.9,536.9H318.6" class="g2_122"/>
<path d="M73.6,165.8H835.8M73.6,453.7H835.8M73.6,766.8H835.8" class="g4_122"/>
<path d="M0,138.7H120.2V0H0V138.7Z" class="g0_122"/>
<path d="M230.8,872.3l-14.5,14.3v22.3h44.8l14.2,-14.3V872.3Z" class="g5_122"/>
<path d="M229.8,872.7H275m-13.9,35.6l13.8,-13.8m-13.8,-7.8l13.8,-13.9M216,886.6l13.8,-13.8m45.1,21.9V872.5m-14.2,36.6V886.2M216,909.1V886.2m-.2,.4h45.4m-45.4,22.5h45.4" class="g6_122"/>
<path d="M188,1032.1l43.6,-43.6" class="g7_122"/>
<path d="M320.8,967.6l-14.5,14.3v22.3h44.9l14.1,-14.3V967.6Z" class="g5_122"/>
<path d="M216.2,981.7L201.7,996v22.3h44.9L260.8,1004V981.7Z" class="g5_122"/>
<path d="M201.8,996.3l-14.5,14.3V1033h44.9l14.2,-14.3V996.3Z" class="g5_122"/>
<path d="M230.3,967.1l-14.5,14.3v22.3h44.8l14.2,-14.3V967.1Z" class="g5_122"/>
<path d="M275.1,967.8l-14.5,14.3v22.3h44.8l14.2,-14.2V967.8Z" class="g5_122"/>
<path d="M230.2,945.3l-14.5,14.3v22.3h44.9l14.1,-14.3V945.3Z" class="g5_122"/>
<path d="M230.2,922.9l-14.5,14.3v22.3h44.9l14.1,-14.3V922.9Z" class="g5_122"/>
<path d="M187.1,965.8H321.6v67.3H187.1V965.8Zm134.5,67.5l43.5,-43.4M187.3,965.7l43.5,-43.5" class="g8_122"/>
<path d="M201.6,996.4h44.6M215.7,958.9h44.7m-44.2,23.4H350.6m-163.3,28.4L216,981.9m15.6,28.8l43,-43M260,959l14.6,-14.6m30.7,37.7l13.9,-13.9m31.2,35.9H260.7m90,-21.5l14.7,-14.7m-133.3,64.5l28.8,-28.8m-.5,-66.8l14,-14" class="g6_122"/>
<path d="M230.8,922.3H365.4m-.4,.1v68.2" class="g8_122"/>
<path d="M216.2,981.9V936.4m44.2,67.6V936.4m-14.7,82V996.8m59.5,6.9V982.1M274.7,967.6V922.1m76.1,81.8V982.1m-119.1,51.1v-23m43.1,-42.1h89.8M216.3,936.9h44.2m-73.7,73.8h45.4" class="g6_122"/>
<path d="M322,965.7l43.6,-43.6" class="g8_122"/>
<path d="M230.9,923.1L187.3,966v67H321.9l42.6,-42.9v-67Z" class="g9_122"/>
<path d="M188,1032.1l43.6,-43.6" class="ga_122"/>
<path d="M320.8,967.6l-14.5,14.3v22.3h44.2l14,-14.1V967.6Z" class="gb_122"/>
<path d="M216.2,981.7L201.7,996v22.3h44.9L260.8,1004V981.7Z" class="gb_122"/>
<path d="M201.8,996.3l-14.5,14.3V1033h44.9l14.2,-14.3V996.3Z" class="gb_122"/>
<path d="M230.3,967.1l-14.5,14.3v22.3h44.8l14.2,-14.3V967.1Z" class="gb_122"/>
<path d="M275.1,967.8l-14.5,14.3v22.3h44.8l14.2,-14.2V967.8Z" class="gb_122"/>
<path d="M230.2,945.3l-14.5,14.3v22.3h44.9l14.1,-14.3V945.3Z" class="gb_122"/>
<path d="M230.9,923.1L215.7,938v21.5h44.9l14.1,-14.3V923.1Z" class="gb_122"/>
<g clip-path="url(#c0_122)">
<path d="M187.1,965.8H321.6v67.3H187.1V965.8Zm134.5,67.5l43.5,-43.4M187.3,965.7l43.5,-43.5" class="gc_122"/>
<path d="M201.6,996.4h44.6M215.7,958.9h44.7m-44.2,23.4H350.6m-163.3,28.4L216,981.9m15.6,28.8l43,-43M260,959l14.6,-14.6m30.7,37.7l13.9,-13.9m31.2,35.9H260.7m90,-21.5l14.7,-14.7m-133.3,64.5l28.8,-28.8m-.5,-66.8l14,-14" class="gd_122"/>
<path d="M365,922.4v68.2" class="gc_122"/>
<path d="M216.2,981.9V936.4m44.2,67.6V936.4m-14.7,82V996.8m59.5,6.9V982.1M274.7,967.6V922.1m76.1,81.8V982.1m-119.1,51.1v-23m43.1,-42.1h89.8M216.3,936.9h44.2m-73.7,73.8h45.4" class="gd_122"/>
<path d="M322,965.7l43.6,-43.6" class="gc_122"/>
</g>
</svg>