<?xml version="1.0" encoding="UTF-8" standalone="no"?>
<!DOCTYPE svg PUBLIC "-//W3C//DTD SVG 1.1//EN"
"http://www.w3.org/Graphics/SVG/1.1/DTD/svg11.dtd">
<svg viewBox="0 0 909 1147" version="1.1" xmlns="http://www.w3.org/2000/svg" xmlns:xlink="http://www.w3.org/1999/xlink">
<defs>
<clipPath id="c0_56"><path d="M185.1,245V173.2H357.8V245Z"/></clipPath>
<style type="text/css"><![CDATA[
.g0_56{
fill: #B6D774;
}
.g1_56{
fill: #E3F2E7;
}
.g2_56{
fill: none;
stroke: #000;
stroke-width: 0.763;
stroke-miterlimit: 2;
}
.g3_56{
fill: none;
stroke: #000;
stroke-width: 0.458;
stroke-miterlimit: 2;
}
.g4_56{
fill: #000;
}
.g5_56{
fill: none;
stroke: #000;
stroke-width: 1.069;
}
.g6_56{
fill: none;
stroke: #000;
stroke-width: 1.145;
}
.g7_56{
fill: #FFF;
}
.g8_56{
fill: none;
stroke: #808285;
stroke-width: 1.069;
stroke-miterlimit: 2;
}
.g9_56{
fill: #E6E7E8;
}
.ga_56{
fill: #BCBEC0;
}
.gb_56{
fill: none;
stroke: #000;
stroke-width: 1.069;
stroke-miterlimit: 2;
}
.gc_56{
fill: #808285;
}
.gd_56{
fill: #000;
stroke: #000;
stroke-width: 1.069;
stroke-miterlimit: 2;
}
.ge_56{
fill: none;
stroke: #0EA5DF;
stroke-width: 3.055;
}
.gf_56{
fill: #FFF1E0;
}
.gg_56{
fill: #0EA5DF;
}
]]></style>
</defs>
<path d="M0,1131H73.8v-51.5H0V1131Z" class="g0_56"/>
<path d="M0,138.7H120.6V0H0V138.7Z" class="g0_56"/>
<g clip-path="url(#c0_56)">
<path fill-rule="evenodd" d="M193.5,202.2H349.1c8.8,10.7,-3.6,25.1,7.1,41.5H193.5Z" class="g1_56"/>
<path d="M193.5,202.2H349.1c8.8,10.7,-3.6,25.1,7.1,41.5H193.5V202.2Zm7.5,.3v14.7" class="g2_56"/>
</g>
<path d="M205.4,202.5v6.4m43.3,-6.4v6.4M292,202.5v6.4m43.3,-6.4v6.4M209.7,202.5v6.4M253,202.5v6.4m43.3,-6.4v6.4M214,202.5v6.4m43.3,-6.4v6.4m43.3,-6.4v6.4m-82.3,-6.4v6.4m43.4,-6.4v6.4M305,202.5v6.4m8.6,-6.4v6.4m4.4,-6.4v6.4m4.3,-6.4v6.4m4.3,-6.4v6.4M222.7,202.5v10.3M266,202.5v10.3m43.3,-10.3v10.3M227,202.5v6.4m43.3,-6.4v6.4m-39,-6.4v6.4m43.3,-6.4v6.4m-38.9,-6.4v6.4M279,202.5v6.4m-39,-6.4v6.4m43.3,-6.4v6.4" class="g3_56"/>
<path d="M244.3,202.5v14.7m43.3,-14.7v14.7m43.3,-14.7v14.7" class="g2_56"/>
<path fill-rule="evenodd" d="M204.5,225.3c0,.6,-.1,1.2,-.2,1.6c-.1,.3,-.3,.7,-.6,1c-.6,.8,-1.4,1.2,-2.5,1.2c-1,0,-1.8,-.3,-2.4,-1.1c-.3,-.3,-.5,-.7,-.6,-1.1c-.2,-.4,-.2,-.9,-.2,-1.6v-2.5c0,-.6,0,-1.1,.2,-1.5c.1,-.3,.3,-.7,.6,-1c.3,-.4,.6,-.7,1.1,-.9c.4,-.1,.8,-.2,1.3,-.2c.5,0,.9,0,1.3,.2c.5,.2,.8,.5,1.1,.8c.6,.6,.9,1.5,.9,2.6Zm-5.5,-.2c0,.6,0,1,.1,1.4c0,.3,.1,.5,.3,.8c.4,.6,1,.9,1.8,.9c.4,0,.8,-.1,1.2,-.3c.3,-.2,.6,-.4,.8,-.8c.1,-.2,.2,-.5,.2,-.7c.1,-.3,.1,-.7,.1,-1.3V223c0,-.9,-.2,-1.6,-.4,-2c-.2,-.3,-.5,-.5,-.8,-.7c-.4,-.1,-.7,-.2,-1.1,-.2c-.4,0,-.7,.1,-1.1,.3c-.4,.2,-.6,.4,-.8,.8c-.2,.4,-.3,1,-.3,1.8Z" class="g4_56"/>
<path fill-rule="evenodd" d="M244.6,229v-8.8h-1.7v-.9h2.6V229Z" class="g4_56"/>
<path fill-rule="evenodd" d="M284.6,229v-.9l3.7,-3.6c.5,-.4,.9,-.8,1.1,-1.2c.3,-.3,.5,-.8,.5,-1.2c0,-.4,-.1,-.7,-.3,-1c-.2,-.3,-.5,-.6,-.8,-.8c-.3,-.1,-.7,-.2,-1,-.2c-.4,0,-.8,.1,-1.1,.3c-.3,.1,-.6,.4,-.8,.7c-.1,.4,-.2,.7,-.2,1.2v.1h-1c0,-.5,.1,-1,.2,-1.3c.2,-.4,.4,-.7,.7,-1c.2,-.3,.6,-.6,1,-.7c.4,-.2,.8,-.2,1.2,-.2c.6,0,1.1,.1,1.5,.4c.5,.2,.9,.6,1.1,1c.3,.5,.4,1,.4,1.5c0,.4,-.1,.8,-.2,1.1c-.1,.3,-.3,.6,-.5,.9c-.3,.3,-.6,.7,-1.1,1.1l-3,2.9h4.8v.9Z" class="g4_56"/>
<path fill-rule="evenodd" d="M329.6,221.7h-1c0,-.4,.1,-.8,.2,-1.1c.1,-.3,.3,-.5,.5,-.8c.3,-.2,.5,-.4,.8,-.5c.3,-.1,.6,-.1,1,-.1c.4,0,.8,.1,1.2,.3c.3,.2,.6,.5,.9,.9c.2,.4,.3,.8,.3,1.2c0,.4,-.1,.7,-.2,.9c-.1,.2,-.2,.3,-.3,.5c-.1,.1,-.3,.2,-.5,.4c.3,.2,.6,.4,.8,.6c.5,.6,.8,1.3,.8,2c0,.6,-.1,1.1,-.4,1.6c-.3,.5,-.7,.8,-1.2,1.1c-.4,.3,-.9,.4,-1.5,.4c-.8,0,-1.6,-.3,-2.1,-.9c-.3,-.3,-.6,-.6,-.7,-1c-.1,-.2,-.2,-.4,-.2,-.6c0,-.1,0,-.4,-.1,-.7h1c0,.4,.1,.7,.1,.9c.2,.4,.4,.7,.8,1c.4,.3,.8,.4,1.2,.4c.4,0,.7,-.1,1.1,-.3c.3,-.2,.5,-.4,.7,-.8c.2,-.3,.3,-.7,.3,-1.1c0,-.4,-.1,-.8,-.4,-1.2c-.2,-.4,-.6,-.6,-1,-.8c-.2,-.1,-.6,-.1,-1.1,-.1h-.2V223l.3,.1h.1c.5,0,.9,-.2,1.2,-.5c.4,-.2,.5,-.6,.5,-1c0,-.5,-.1,-.8,-.4,-1.1c-.3,-.3,-.7,-.4,-1.1,-.4c-.4,0,-.8,.1,-1,.4c-.3,.3,-.4,.7,-.4,1.2Z" class="g4_56"/>
<path d="M201.2,195.9H309.5M201,193.9v3.5m108.2,-3.5v3.5" class="g2_56"/>
<path fill-rule="evenodd" d="M195.9,183.9l-1,10.1c0,.5,0,.8,0,1c0,.2,0,.4,.1,.5c.1,.2,.3,.3,.5,.4c.2,.1,.5,.1,.9,.1l-.1,.4h-4.7l.1,-.4h.2c.4,0,.7,-.1,.9,-.2c.2,-.1,.3,-.3,.4,-.6c.1,-.2,.1,-.6,.2,-1.3l.1,-1.5h-3.4l-1.3,1.6c-.2,.4,-.4,.7,-.5,.9c-.1,.1,-.1,.3,-.1,.4c0,.2,.1,.4,.2,.5c.2,.1,.5,.2,.8,.2l-.1,.4h-3.6l.1,-.4c.5,0,.8,-.1,1.2,-.4c.3,-.3,.8,-.9,1.5,-1.8l7.2,-9.9Zm-1.8,3l-3.5,4.8h3Z" class="g4_56"/>
<path fill-rule="evenodd" d="M317.2,184.6l.2,-.4h4.3c.7,0,1.4,.1,1.9,.4c.6,.2,1,.5,1.3,.9c.3,.4,.4,.8,.4,1.3c0,.7,-.2,1.3,-.7,1.9c-.5,.6,-1.3,1,-2.5,1.2c.8,.3,1.3,.7,1.6,1.1c.4,.5,.6,1,.6,1.5c0,.6,-.2,1.2,-.5,1.8c-.3,.5,-.7,.9,-1.2,1.2c-.5,.3,-1.1,.6,-1.8,.7c-.5,.1,-1.2,.2,-2.3,.2h-4.4l.1,-.4c.5,0,.8,0,1,-.1c.2,-.1,.4,-.2,.5,-.4c.1,-.2,.3,-.8,.5,-1.6l2.2,-7.3c.2,-.6,.3,-1.1,.3,-1.3c0,-.2,-.1,-.4,-.2,-.5c-.2,-.2,-.5,-.2,-1,-.2c-.1,0,-.2,0,-.3,0m1.8,5c.4,0,.7,0,.9,0c1.2,0,2.2,-.3,2.8,-.8c.6,-.5,.9,-1.2,.9,-2c0,-.6,-.2,-1.1,-.6,-1.5c-.4,-.3,-.9,-.5,-1.8,-.5c-.2,0,-.4,.1,-.8,.1Zm-1.7,6c.6,.1,1.1,.1,1.5,.1c.9,0,1.8,-.3,2.5,-.8c.7,-.6,1,-1.4,1,-2.3c0,-.8,-.2,-1.3,-.6,-1.7c-.5,-.5,-1.2,-.7,-2.2,-.7c-.2,0,-.4,0,-.7,.1Z" class="g4_56"/>
<path fill-rule="evenodd" d="M260,182.8l-1.8,6l-.2,.8c0,.1,0,.2,0,.2c0,.1,0,.2,.1,.3c0,0,.1,.1,.2,.1c0,0,.1,-.1,.3,-.2c.2,-.2,.5,-.5,.9,-1.1l.3,.3c-.4,.6,-.8,1.1,-1.3,1.4c-.4,.3,-.8,.5,-1.2,.5c-.2,0,-.4,-.1,-.5,-.2c-.2,-.2,-.2,-.3,-.2,-.6c0,-.3,0,-.7,.2,-1.1l.1,-.7c-.7,1,-1.5,1.7,-2.1,2.1c-.5,.3,-.9,.5,-1.4,.5c-.4,0,-.8,-.2,-1.1,-.6c-.3,-.3,-.5,-.8,-.5,-1.5c0,-.9,.3,-1.9,.9,-3c.5,-1,1.2,-1.9,2.1,-2.5c.7,-.5,1.4,-.7,2,-.7c.3,0,.6,0,.9,.2c.2,.2,.4,.5,.5,1l.3,-1Zm-3.2,.4c-.4,0,-.8,.2,-1.2,.6c-.6,.5,-1.2,1.2,-1.7,2.2c-.4,1,-.7,1.9,-.7,2.7c0,.4,.1,.7,.3,1c.2,.2,.5,.3,.7,.3c.7,0,1.4,-.5,2.2,-1.4c1,-1.3,1.5,-2.6,1.5,-3.9c0,-.6,-.1,-.9,-.3,-1.1c-.2,-.3,-.5,-.4,-.8,-.4Z" class="g4_56"/>
<path d="M614.9,500.6L777,453.2" class="g5_56"/>
<path d="M615.5,502.6c1.1,-.3,1.8,-1.5,1.4,-2.6c-.3,-1.2,-1.5,-1.8,-2.6,-1.5c-1.2,.3,-1.8,1.5,-1.5,2.7c.3,1.1,1.5,1.7,2.7,1.4Z" class="g4_56"/>
<path d="M777.6,455.2c1.2,-.3,1.8,-1.5,1.5,-2.6c-.3,-1.2,-1.5,-1.8,-2.7,-1.5c-1.1,.3,-1.7,1.5,-1.4,2.7c.3,1.1,1.5,1.8,2.6,1.4Z" class="g4_56"/>
<path d="M708.2,500.5L809,524.9" class="g6_56"/>
<path d="M707.7,502.7c1.2,.3,2.4,-.4,2.7,-1.6c.3,-1.3,-.4,-2.5,-1.6,-2.8c-1.3,-.3,-2.5,.5,-2.8,1.7c-.3,1.2,.4,2.5,1.7,2.7Z" class="g4_56"/>
<path d="M808.5,527.1c1.2,.3,2.4,-.5,2.7,-1.7c.3,-1.2,-.4,-2.5,-1.7,-2.8c-1.2,-.3,-2.4,.5,-2.7,1.7c-.3,1.3,.4,2.5,1.7,2.8Z" class="g4_56"/>
<path d="M227.9,663.6h382" class="g6_56"/>
<path d="M617.7,663.6l-10.2,-3.7c0,0,2.4,3.7,0,7.4l10.2,-3.7Z" class="g4_56"/>
<path fill-rule="evenodd" d="M317.5,628.6l3.2,4.3l-82.8,27.6l-3.1,-4.3Z" class="g7_56"/>
<path d="M317.5,628.6l3.2,4.3l-82.8,27.6l-3.1,-4.3l82.7,-27.6Z" class="g8_56"/>
<path fill-rule="evenodd" d="M318.6,630l2.1,2.9L238,660.6l-2.2,-2.9Z" class="g9_56"/>
<path fill-rule="evenodd" d="M319.6,631.4l1.1,1.5L238,660.6l-1.1,-1.5Z" class="ga_56"/>
<path d="M228.8,663l9.2,-2.5l-3.5,-4.6Z" class="g4_56"/>
<path d="M238.2,660.2l82.6,-27.3" class="gb_56"/>
<path fill-rule="evenodd" d="M315,632.9l2.8,-4.2L396,656.8l-2.8,4.3Z" class="g7_56"/>
<path d="M315,632.9l2.8,-4.2L396,656.8l-2.8,4.3L315,632.9Z" class="g8_56"/>
<path fill-rule="evenodd" d="M316,631.5l1.8,-2.8l78.3,28l-1.9,2.9Z" class="g9_56"/>
<path fill-rule="evenodd" d="M316.9,630.1l.9,-1.4l78.3,28l-1,1.5Z" class="ga_56"/>
<path d="M396.5,656.6L318,629" class="gb_56"/>
<path d="M393.3,661l8.6,2.5l-5.6,-7.1Z" class="g4_56"/>
<path d="M316.3,628.8h3.4V618.4h-3.4v10.4Z" class="g9_56"/>
<path fill-rule="evenodd" d="M318.2,619.2h1.9v9.6h-1.9v-9.6Z" class="gc_56"/>
<path d="M318.2,619.2h1.9v9.6h-1.9v-9.6Zm-3.1,-.4h5v10h-5v-10Z" class="g8_56"/>
<path fill-rule="evenodd" d="M310.2,628.5h15.2v4.7H310.2v-4.7Z" class="gd_56"/>
<path d="M227.9,831.8h382" class="g6_56"/>
<path d="M617.7,831.8L607.5,828c0,0,2.4,3.8,0,7.5l10.2,-3.7Z" class="g4_56"/>
<path fill-rule="evenodd" d="M458.2,754.4l5,2l-55.3,67.4l-5,-1.9Z" class="g7_56"/>
<path d="M458.2,754.4l5,2l-55.3,67.4l-5,-1.9l55.3,-67.5Z" class="g8_56"/>
<path fill-rule="evenodd" d="M459.8,755.1l3.4,1.3L408,823.9l-3.4,-1.3Z" class="g9_56"/>
<path fill-rule="evenodd" d="M461.5,755.7l1.7,.7L408,823.9l-1.7,-.7Z" class="ga_56"/>
<path d="M401.5,830.8l6.4,-6.9l-5.4,-2.1Z" class="g4_56"/>
<path d="M408,823.5l55.2,-67.2" class="gb_56"/>
<path fill-rule="evenodd" d="M456.1,757l4.7,-1.9l47.8,68l-4.7,1.8Z" class="g7_56"/>
<path d="M456.1,757l4.7,-1.9l47.8,68l-4.7,1.8L456.1,757Z" class="g8_56"/>
<path fill-rule="evenodd" d="M457.7,756.4l3.1,-1.3L508.7,823l-3.2,1.3Z" class="g9_56"/>
<path fill-rule="evenodd" d="M459.2,755.7l1.6,-.6L508.7,823l-1.6,.7Z" class="ga_56"/>
<path d="M509.1,823.2L460.8,755.4" class="gb_56"/>
<path d="M503.9,824.9l5.7,7l-.5,-9Z" class="g4_56"/>
<path d="M457.6,754.4H461V744h-3.4v10.4Z" class="g9_56"/>
<path fill-rule="evenodd" d="M459.4,744.8h1.9v9.6h-1.9v-9.6Z" class="gc_56"/>
<path d="M459.4,744.8h1.9v9.6h-1.9v-9.6Zm-3,-.4h4.9v10h-4.9v-10Z" class="g8_56"/>
<path fill-rule="evenodd" d="M451.4,754.1h15.3v4.7H451.4v-4.7Z" class="gd_56"/>
<path fill-rule="evenodd" d="M317.5,796.8l3.2,4.3l-82.8,27.6l-3.1,-4.3Z" class="g7_56"/>
<path d="M317.5,796.8l3.2,4.3l-82.8,27.6l-3.1,-4.3l82.7,-27.6Z" class="g8_56"/>
<path fill-rule="evenodd" d="M318.6,798.2l2.1,2.9L238,828.7l-2.2,-2.8Z" class="g9_56"/>
<path fill-rule="evenodd" d="M319.6,799.6l1.1,1.5L238,828.8l-1.1,-1.5Z" class="ga_56"/>
<path d="M228.8,831.2l9.2,-2.5l-3.5,-4.6Z" class="g4_56"/>
<path d="M238.2,828.4l82.6,-27.3" class="gb_56"/>
<path fill-rule="evenodd" d="M315,801.1l2.8,-4.2L396,825l-2.8,4.2Z" class="g7_56"/>
<path d="M315,801.1l2.8,-4.2L396,825l-2.8,4.2L315,801.1Z" class="g8_56"/>
<path fill-rule="evenodd" d="M316,799.7l1.8,-2.8l78.3,28l-1.9,2.9Z" class="g9_56"/>
<path fill-rule="evenodd" d="M316.9,798.3l.9,-1.4l78.3,28l-1,1.5Z" class="ga_56"/>
<path d="M396.5,824.8L318,797.2" class="gb_56"/>
<path d="M393.3,829.2l8.6,2.5l-5.6,-7.1Z" class="g4_56"/>
<path d="M316.3,797h3.4V786.6h-3.4V797Z" class="g9_56"/>
<path fill-rule="evenodd" d="M318.2,787.4h1.9V797h-1.9v-9.6Z" class="gc_56"/>
<path d="M318.2,787.4h1.9V797h-1.9v-9.6Zm-3.1,-.4h5v10h-5V787Z" class="g8_56"/>
<path fill-rule="evenodd" d="M310.2,796.7h15.2v4.7H310.2v-4.7Z" class="gd_56"/>
<path d="M227.9,1022.3h382" class="g6_56"/>
<path d="M617.7,1022.3l-10.2,-3.7c0,0,2.4,3.7,0,7.4l10.2,-3.7Z" class="g4_56"/>
<path fill-rule="evenodd" d="M317.5,987.4l3.2,4.3l-82.8,27.5l-3.1,-4.2Z" class="g7_56"/>
<path d="M317.5,987.4l3.2,4.3l-82.8,27.5l-3.1,-4.2l82.7,-27.6Z" class="g8_56"/>
<path fill-rule="evenodd" d="M318.6,988.8l2.1,2.9L238,1019.3l-2.2,-2.9Z" class="g9_56"/>
<path fill-rule="evenodd" d="M319.6,990.2l1.1,1.5L238,1019.3l-1.1,-1.4Z" class="ga_56"/>
<path d="M228.8,1021.7l9.2,-2.4l-3.5,-4.7Z" class="g4_56"/>
<path d="M238.2,1019l82.6,-27.3" class="gb_56"/>
<path fill-rule="evenodd" d="M315,991.7l2.8,-4.3l78.2,28.1l-2.8,4.3Z" class="g7_56"/>
<path d="M315,991.7l2.8,-4.3l78.2,28.1l-2.8,4.3L315,991.7Z" class="g8_56"/>
<path fill-rule="evenodd" d="M316,990.3l1.8,-2.9l78.3,28.1l-1.9,2.9Z" class="g9_56"/>
<path fill-rule="evenodd" d="M316.9,988.9l.9,-1.5l78.3,28l-1,1.5Z" class="ga_56"/>
<path d="M396.5,1015.3L318,987.7" class="gb_56"/>
<path d="M393.3,1019.8l8.6,2.4l-5.6,-7Z" class="g4_56"/>
<path d="M316.3,987.6h3.4V977.1h-3.4v10.5Z" class="g9_56"/>
<path d="M318.2,987.6h1.9v-9.7h-1.9v9.7Z" class="gc_56"/>
<path d="M318.2,977.9h1.9v9.7h-1.9v-9.7Zm-3.1,-.3h5v10h-5v-10Z" class="g8_56"/>
<path fill-rule="evenodd" d="M310.2,987.2h15.2V992H310.2v-4.8Z" class="gd_56"/>
<path fill-rule="evenodd" d="M346.8,945l5,1.9l-55.3,67.5l-5,-1.9Z" class="g7_56"/>
<path d="M346.8,945l5,1.9l-55.3,67.5l-5,-1.9L346.8,945Z" class="g8_56"/>
<path fill-rule="evenodd" d="M348.4,945.6l3.4,1.3l-55.3,67.5l-3.3,-1.3Z" class="g9_56"/>
<path fill-rule="evenodd" d="M350,946.2l1.8,.7l-55.2,67.5l-1.7,-.6Z" class="ga_56"/>
<path d="M290.1,1021.4l6.4,-7l-5.4,-2.1Z" class="g4_56"/>
<path d="M296.5,1014l55.3,-67.1" class="gb_56"/>
<path fill-rule="evenodd" d="M344.7,947.5l4.7,-1.9l47.8,68l-4.7,1.9Z" class="g7_56"/>
<path d="M344.7,947.5l4.7,-1.9l47.8,68l-4.7,1.9l-47.8,-68Z" class="g8_56"/>
<path fill-rule="evenodd" d="M346.2,946.9l3.2,-1.3l47.9,68l-3.2,1.3Z" class="g9_56"/>
<path fill-rule="evenodd" d="M347.8,946.3l1.6,-.7l47.9,68l-1.6,.6Z" class="ga_56"/>
<path d="M397.7,1013.7L349.4,946" class="gb_56"/>
<path d="M392.5,1015.5l5.7,7l-.6,-9.1Z" class="g4_56"/>
<path d="M346.1,945h3.4V934.5h-3.4V945Z" class="g9_56"/>
<path fill-rule="evenodd" d="M348,935.3h1.9V945H348v-9.7Z" class="gc_56"/>
<path d="M348,935.3h1.9V945H348v-9.7Zm-3.1,-.3h5v10h-5V935Z" class="g8_56"/>
<path fill-rule="evenodd" d="M340,944.6h15.2v4.8H340v-4.8Z" class="gd_56"/>
<path d="M73.6,440.7H835.8" class="ge_56"/>
<path d="M185.6,430.3H835.8V385.6H185.6v44.7Z" class="gf_56"/>
<path d="M135.8,423.1h39.7V385.7H135.8v37.4Z" class="gg_56"/>
<path d="M73.6,166.9H835.8" class="ge_56"/>
</svg>