<?xml version="1.0" encoding="UTF-8" standalone="no"?>
<!DOCTYPE svg PUBLIC "-//W3C//DTD SVG 1.1//EN"
"http://www.w3.org/Graphics/SVG/1.1/DTD/svg11.dtd">
<svg viewBox="0 0 909 1147" version="1.1" xmlns="http://www.w3.org/2000/svg" xmlns:xlink="http://www.w3.org/1999/xlink">
<defs>
<style type="text/css"><![CDATA[
.g0_14{
fill: #FAAF82;
}
.g1_14{
fill: none;
stroke: #0EA5DF;
stroke-width: 3.055;
}
.g2_14{
fill: #FFF1E0;
}
.g3_14{
fill: #0C4B7F;
}
.g4_14{
fill: #9BCBED;
stroke: #9BCBED;
stroke-width: 0.763;
}
.g5_14{
fill: none;
stroke: #0EA5DF;
stroke-width: 0.763;
}
]]></style>
</defs>
<path d="M0,1131H73.8v-51.5H0V1131Z" class="g0_14"/>
<path d="M0,141.1H120.6V0H0V141.1Z" class="g0_14"/>
<path d="M73.6,243H835.8" class="g1_14"/>
<path d="M185.6,232.3h651v-67h-651v67Z" class="g2_14"/>
<path d="M185.6,477.3h651V409.9h-651v67.4Z" class="g2_14"/>
<path d="M184.8,726.7h651V662.6h-651v64.1Z" class="g2_14"/>
<path d="M136.6,203h39.7V165.5H136.6V203Z" class="g3_14"/>
<path d="M136.6,447.5h39.7V410.1H136.6v37.4Z" class="g3_14"/>
<path d="M135.8,700.2h39.7V662.8H135.8v37.4Z" class="g3_14"/>
<path d="M73.6,487.6H835.8M73.6,736.8H835.8" class="g1_14"/>
<path fill-rule="evenodd" d="M700.4,195.5h12.2V183.3H700.4v12.2Z" class="g4_14"/>
<path fill-rule="evenodd" d="M700.4,217.5h12.2V205.3H700.4v12.2Z" class="g4_14"/>
<path fill-rule="evenodd" d="M674.5,438.3h12.3V426.1H674.5v12.2Z" class="g4_14"/>
<path fill-rule="evenodd" d="M698,460.3h12.2V448.1H698v12.2Z" class="g4_14"/>
<path fill-rule="evenodd" d="M698.8,690.6h12.3V678.4H698.8v12.2Z" class="g4_14"/>
<path fill-rule="evenodd" d="M698.8,712.6h12.3V700.4H698.8v12.2Z" class="g4_14"/>
<path d="M680.2,176.6c0,0,-18.3,0,-18.3,18.3v12.4c0,0,0,18.3,18.3,18.3h88.2c0,0,18.3,0,18.3,-18.3V194.9c0,0,0,-18.3,-18.3,-18.3H680.2Zm-5.3,242.3c0,0,-18.3,0,-18.3,18.3v12.4c0,0,0,18.3,18.3,18.3h88.2c0,0,18.3,0,18.3,-18.3V437.2c0,0,0,-18.3,-18.3,-18.3H674.9Zm-.8,252.7c0,0,-18.3,0,-18.3,18.3v12.4c0,0,0,18.3,18.3,18.3h88.2c0,0,18.3,0,18.3,-18.3V689.9c0,0,0,-18.3,-18.3,-18.3H674.1Z" class="g5_14"/>
<path d="M73.6,917H835.8" class="g1_14"/>
</svg>