<?xml version="1.0" encoding="UTF-8" standalone="no"?>
<!DOCTYPE svg PUBLIC "-//W3C//DTD SVG 1.1//EN"
"http://www.w3.org/Graphics/SVG/1.1/DTD/svg11.dtd">
<svg viewBox="0 0 909 1147" version="1.1" xmlns="http://www.w3.org/2000/svg" xmlns:xlink="http://www.w3.org/1999/xlink">
<defs>
<clipPath id="c0_89"><path d="M186.8,639.6V544.8h192v94.8Z"/></clipPath>
<clipPath id="c1_89"><path d="M140.8,681.3v-18H171v18Z"/></clipPath>
<clipPath id="c2_89"><path d="M186.6,225.2V148.8h91.7v76.4Z"/></clipPath>
<style type="text/css"><![CDATA[
.g0_89{
fill: #B6D774;
}
.g1_89{
fill: #E8F1FA;
}
.g2_89{
fill: none;
stroke: #0EA5DF;
stroke-width: 3.055;
}
.g3_89{
fill: none;
stroke: #000;
stroke-width: 0.763;
stroke-miterlimit: 2;
}
.g4_89{
fill: #000;
}
.g5_89{
fill: none;
stroke: #000;
stroke-width: 0.152;
stroke-miterlimit: 2;
}
.g6_89{
fill: none;
stroke: #000;
stroke-width: 1.069;
stroke-miterlimit: 2;
}
.g7_89{
fill: none;
stroke: #8ED8F8;
stroke-width: 0.763;
stroke-miterlimit: 2;
}
.g8_89{
fill: #FFFAC2;
}
.g9_89{
fill: #FFF1E0;
}
.ga_89{
fill: #0EA5DF;
}
.gb_89{
fill: #FFF;
}
.gc_89{
fill: none;
stroke: #000;
stroke-width: 1.104;
stroke-miterlimit: 2;
}
]]></style>
</defs>
<path d="M835.8,1131h73.6v-51.5H835.8V1131Z" class="g0_89"/>
<path d="M185.1,1078.4H835.8V783H185.1v295.4Z" class="g1_89"/>
<path d="M73.6,784.6H835.8" class="g2_89"/>
<path d="M237.8,302.8h46.6l29.8,57.5H220.6l17.2,-57.5Z" class="g3_89"/>
<path fill-rule="evenodd" d="M277.9,365.9l-.7,1.5h-3.6l-.8,1.6c1.6,.3,2.8,.9,3.7,1.8c.8,.8,1.2,1.8,1.2,2.9c0,.6,-.1,1.2,-.3,1.7c-.3,.6,-.6,1,-1,1.4c-.4,.4,-.9,.7,-1.3,.9c-.7,.4,-1.4,.5,-2.2,.5c-.7,0,-1.2,-.1,-1.5,-.3c-.4,-.3,-.5,-.6,-.5,-.9c0,-.1,0,-.3,.2,-.4c.1,-.1,.3,-.2,.5,-.2c.1,0,.3,0,.4,.1c.1,0,.3,.2,.6,.3c.4,.4,.9,.5,1.3,.5c.7,0,1.4,-.3,1.9,-.8c.5,-.5,.8,-1.2,.8,-1.9c0,-.7,-.3,-1.4,-.7,-2.1c-.5,-.6,-1.2,-1.1,-2,-1.4c-.6,-.3,-1.5,-.5,-2.6,-.5l2.3,-4.7Z" class="g4_89"/>
<path d="M277.9,365.9l-.7,1.5h-3.6l-.8,1.6c1.6,.3,2.8,.9,3.7,1.8c.8,.8,1.2,1.8,1.2,2.9c0,.6,-.1,1.2,-.3,1.7c-.3,.6,-.6,1,-1,1.4c-.4,.4,-.9,.7,-1.3,.9c-.7,.4,-1.4,.5,-2.2,.5c-.7,0,-1.2,-.1,-1.5,-.3c-.4,-.3,-.5,-.6,-.5,-.9c0,-.1,0,-.3,.2,-.4c.1,-.1,.3,-.2,.5,-.2c.1,0,.3,0,.4,.1c.1,0,.3,.2,.6,.3c.4,.4,.9,.5,1.3,.5c.7,0,1.4,-.3,1.9,-.8c.5,-.5,.8,-1.2,.8,-1.9c0,-.7,-.3,-1.4,-.7,-2.1c-.5,-.6,-1.2,-1.1,-2,-1.4c-.6,-.3,-1.5,-.5,-2.6,-.5l2.3,-4.7h4.3Z" class="g5_89"/>
<path fill-rule="evenodd" d="M315.2,328.5v1.2h-1.6V333h-1.5v-3.3H307v-1.1l5.6,-8h1v7.9Zm-3.1,0v-6l-4.2,6Z" class="g4_89"/>
<path d="M315.2,328.5v1.2h-1.6V333h-1.5v-3.3H307v-1.1l5.6,-8h1v7.9h1.6Zm-3.1,0v-6l-4.2,6h4.2Z" class="g5_89"/>
<path fill-rule="evenodd" d="M218.3,324c.4,-.9,.8,-1.5,1.3,-1.9c.6,-.5,1.2,-.7,2,-.7c1,0,1.7,.3,2.3,.9c.3,.5,.5,1,.5,1.6c0,.8,-.5,1.8,-1.6,2.7c.7,.3,1.3,.7,1.7,1.3c.4,.5,.5,1.1,.5,1.9c0,1,-.3,1.9,-1,2.7c-.8,1,-2.1,1.5,-3.7,1.5c-.9,0,-1.4,-.1,-1.7,-.3c-.3,-.2,-.5,-.4,-.5,-.7c0,-.1,.1,-.3,.3,-.4c.1,-.1,.3,-.2,.5,-.2c.1,0,.3,0,.4,.1c.1,0,.3,.1,.7,.3c.4,.2,.6,.3,.8,.3c.2,.1,.4,.1,.7,.1c.6,0,1.1,-.2,1.5,-.7c.5,-.5,.7,-1,.7,-1.7c0,-.4,-.1,-.9,-.3,-1.3c-.1,-.4,-.3,-.6,-.5,-.8c-.3,-.2,-.6,-.5,-1.1,-.6c-.4,-.2,-.9,-.3,-1.3,-.3h-.3v-.3c.5,-.1,.9,-.2,1.4,-.5c.5,-.3,.8,-.6,1,-1c.3,-.4,.4,-.9,.4,-1.3c0,-.6,-.2,-1.1,-.6,-1.5c-.4,-.4,-.9,-.6,-1.5,-.6c-.9,0,-1.6,.5,-2.3,1.5Z" class="g4_89"/>
<path d="M218.3,324c.4,-.9,.8,-1.5,1.3,-1.9c.6,-.5,1.2,-.7,2,-.7c1,0,1.7,.3,2.3,.9c.3,.5,.5,1,.5,1.6c0,.8,-.5,1.8,-1.6,2.7c.7,.3,1.3,.7,1.7,1.3c.4,.5,.5,1.1,.5,1.9c0,1,-.3,1.9,-1,2.7c-.8,1,-2.1,1.5,-3.7,1.5c-.9,0,-1.4,-.1,-1.7,-.3c-.3,-.2,-.5,-.4,-.5,-.7c0,-.1,.1,-.3,.3,-.4c.1,-.1,.3,-.2,.5,-.2c.1,0,.3,0,.4,.1c.1,0,.3,.1,.7,.3c.4,.2,.6,.3,.8,.3c.2,.1,.4,.1,.7,.1c.6,0,1.1,-.2,1.5,-.7c.5,-.5,.7,-1,.7,-1.7c0,-.4,-.1,-.9,-.3,-1.3c-.1,-.4,-.3,-.6,-.5,-.8c-.3,-.2,-.6,-.5,-1.1,-.6c-.4,-.2,-.9,-.3,-1.3,-.3h-.3v-.3c.5,-.1,.9,-.2,1.4,-.5c.5,-.3,.8,-.6,1,-1c.3,-.4,.4,-.9,.4,-1.3c0,-.6,-.2,-1.1,-.6,-1.5c-.4,-.4,-.9,-.6,-1.5,-.6c-.9,0,-1.6,.5,-2.3,1.5l-.3,-.1Z" class="g5_89"/>
<path fill-rule="evenodd" d="M265,294.7l-.8,2.4H257v-.4c2.1,-1.9,3.6,-3.5,4.5,-4.7c.8,-1.2,1.3,-2.3,1.3,-3.3c0,-.8,-.3,-1.4,-.8,-1.9c-.4,-.5,-1,-.7,-1.6,-.7c-.6,0,-1.2,.1,-1.6,.5c-.5,.3,-.9,.8,-1.1,1.5h-.3c.1,-1.1,.5,-1.9,1.1,-2.5c.6,-.6,1.4,-.9,2.3,-.9c1,0,1.8,.3,2.5,.9c.7,.7,1,1.4,1,2.3c0,.6,-.2,1.2,-.4,1.8c-.5,1,-1.2,2,-2.2,3.1c-1.5,1.6,-2.4,2.6,-2.8,2.9h3.2c.6,0,1.1,0,1.4,-.1c.2,0,.4,-.1,.7,-.2c.2,-.2,.3,-.4,.5,-.7Z" class="g4_89"/>
<path d="M265,294.7l-.8,2.4H257v-.4c2.1,-1.9,3.6,-3.5,4.5,-4.7c.8,-1.2,1.3,-2.3,1.3,-3.3c0,-.8,-.3,-1.4,-.8,-1.9c-.4,-.5,-1,-.7,-1.6,-.7c-.6,0,-1.2,.1,-1.6,.5c-.5,.3,-.9,.8,-1.1,1.5h-.3c.1,-1.1,.5,-1.9,1.1,-2.5c.6,-.6,1.4,-.9,2.3,-.9c1,0,1.8,.3,2.5,.9c.7,.7,1,1.4,1,2.3c0,.6,-.2,1.2,-.4,1.8c-.5,1,-1.2,2,-2.2,3.1c-1.5,1.6,-2.4,2.6,-2.8,2.9h3.2c.6,0,1.1,0,1.4,-.1c.2,0,.4,-.1,.7,-.2c.2,-.2,.3,-.4,.5,-.7h.3Z" class="g5_89"/>
<path d="M455,294.8v49.6l57.5,31.9V276.4L455,294.8Z" class="g3_89"/>
<path fill-rule="evenodd" d="M482.3,373.5v1.3h-1.6V378h-1.5v-3.2h-5.1v-1.2l5.6,-8h1v7.9Zm-3.1,0v-6l-4.3,6Z" class="g4_89"/>
<path d="M482.3,373.5v1.3h-1.6V378h-1.5v-3.2h-5.1v-1.2l5.6,-8h1v7.9h1.6Zm-3.1,0v-6l-4.3,6h4.3Z" class="g5_89"/>
<path fill-rule="evenodd" d="M475.5,272.2c.4,-.8,.8,-1.5,1.4,-1.9c.5,-.4,1.1,-.7,1.9,-.7c1,0,1.7,.4,2.3,1c.4,.5,.6,1,.6,1.5c0,.9,-.6,1.8,-1.7,2.7c.7,.3,1.3,.7,1.7,1.3c.4,.5,.6,1.2,.6,1.9c0,1.1,-.4,2,-1,2.7c-.9,1,-2.2,1.5,-3.8,1.5c-.9,0,-1.4,-.1,-1.7,-.3c-.3,-.2,-.4,-.4,-.4,-.6c0,-.2,0,-.3,.2,-.5c.1,-.1,.3,-.2,.5,-.2c.1,0,.3,.1,.4,.1c.1,0,.4,.1,.7,.3c.4,.2,.6,.3,.8,.4c.2,0,.4,.1,.7,.1c.6,0,1.1,-.3,1.6,-.7c.4,-.5,.6,-1.1,.6,-1.7c0,-.5,-.1,-1,-.3,-1.4c-.1,-.3,-.3,-.6,-.5,-.8c-.3,-.2,-.6,-.4,-1.1,-.6c-.4,-.2,-.9,-.3,-1.3,-.3h-.3v-.3c.5,0,.9,-.2,1.4,-.5c.5,-.3,.8,-.6,1,-1c.3,-.4,.4,-.8,.4,-1.3c0,-.6,-.2,-1.1,-.6,-1.5c-.4,-.4,-.9,-.5,-1.4,-.5c-1,0,-1.7,.5,-2.4,1.4Z" class="g4_89"/>
<path d="M475.5,272.2c.4,-.8,.8,-1.5,1.4,-1.9c.5,-.4,1.1,-.7,1.9,-.7c1,0,1.7,.4,2.3,1c.4,.5,.6,1,.6,1.5c0,.9,-.6,1.8,-1.7,2.7c.7,.3,1.3,.7,1.7,1.3c.4,.5,.6,1.2,.6,1.9c0,1.1,-.4,2,-1,2.7c-.9,1,-2.2,1.5,-3.8,1.5c-.9,0,-1.4,-.1,-1.7,-.3c-.3,-.2,-.4,-.4,-.4,-.6c0,-.2,0,-.3,.2,-.5c.1,-.1,.3,-.2,.5,-.2c.1,0,.3,.1,.4,.1c.1,0,.4,.1,.7,.3c.4,.2,.6,.3,.8,.4c.2,0,.4,.1,.7,.1c.6,0,1.1,-.3,1.6,-.7c.4,-.5,.6,-1.1,.6,-1.7c0,-.5,-.1,-1,-.3,-1.4c-.1,-.3,-.3,-.6,-.5,-.8c-.3,-.2,-.6,-.4,-1.1,-.6c-.4,-.2,-.9,-.3,-1.3,-.3h-.3v-.3c.5,0,.9,-.2,1.4,-.5c.5,-.3,.8,-.6,1,-1c.3,-.4,.4,-.8,.4,-1.3c0,-.6,-.2,-1.1,-.6,-1.5c-.4,-.4,-.9,-.5,-1.4,-.5c-1,0,-1.7,.5,-2.4,1.4l-.3,-.1Z" class="g5_89"/>
<path fill-rule="evenodd" d="M445.5,323.9l-.9,2.4h-7.2v-.4c2.2,-1.9,3.6,-3.5,4.5,-4.7c.9,-1.2,1.3,-2.3,1.3,-3.3c0,-.8,-.2,-1.4,-.7,-1.9c-.5,-.5,-1.1,-.8,-1.7,-.8c-.6,0,-1.1,.2,-1.6,.6c-.5,.3,-.8,.8,-1.1,1.5h-.3c.1,-1.1,.5,-2,1.1,-2.5c.7,-.6,1.4,-.9,2.4,-.9c.9,0,1.8,.3,2.4,.9c.7,.6,1,1.4,1,2.3c0,.6,-.1,1.2,-.4,1.8c-.5,1,-1.2,2,-2.2,3.1c-1.4,1.6,-2.4,2.6,-2.7,2.9h3.1c.7,0,1.1,0,1.4,-.1c.2,0,.5,-.1,.7,-.3c.2,-.1,.4,-.3,.5,-.6Z" class="g4_89"/>
<path d="M445.5,323.9l-.9,2.4h-7.2v-.4c2.2,-1.9,3.6,-3.5,4.5,-4.7c.9,-1.2,1.3,-2.3,1.3,-3.3c0,-.8,-.2,-1.4,-.7,-1.9c-.5,-.5,-1.1,-.8,-1.7,-.8c-.6,0,-1.1,.2,-1.6,.6c-.5,.3,-.8,.8,-1.1,1.5h-.3c.1,-1.1,.5,-2,1.1,-2.5c.7,-.6,1.4,-.9,2.4,-.9c.9,0,1.8,.3,2.4,.9c.7,.6,1,1.4,1,2.3c0,.6,-.1,1.2,-.4,1.8c-.5,1,-1.2,2,-2.2,3.1c-1.4,1.6,-2.4,2.6,-2.7,2.9h3.1c.7,0,1.1,0,1.4,-.1c.2,0,.5,-.1,.7,-.3c.2,-.1,.4,-.3,.5,-.6h.4Z" class="g5_89"/>
<path fill-rule="evenodd" d="M524.6,324.3c-1,-.8,-1.6,-1.4,-1.9,-1.9c-.2,-.5,-.4,-1,-.4,-1.5c0,-.8,.3,-1.4,.9,-2c.6,-.6,1.4,-.9,2.5,-.9c.9,0,1.7,.3,2.3,.8c.6,.6,.9,1.2,.9,1.9c0,.4,-.1,.9,-.5,1.3c-.3,.5,-1,1.1,-2,1.7c1.1,.8,1.8,1.5,2.1,1.9c.5,.6,.7,1.3,.7,1.9c0,.9,-.3,1.6,-1,2.2c-.6,.6,-1.5,.9,-2.6,.9c-1.1,0,-2,-.3,-2.7,-1c-.5,-.6,-.7,-1.3,-.7,-1.9c0,-.6,.2,-1.1,.5,-1.6c.4,-.6,1,-1.1,1.9,-1.8m1.4,-.9c.7,-.7,1.2,-1.2,1.4,-1.6c.1,-.3,.2,-.8,.2,-1.2c0,-.7,-.1,-1.2,-.5,-1.5c-.3,-.4,-.8,-.5,-1.4,-.5c-.6,0,-1.1,.1,-1.5,.5c-.4,.3,-.6,.8,-.6,1.2c0,.3,.1,.6,.2,1c.2,.3,.4,.6,.7,.8Zm-1,1.3c-.5,.4,-.9,.8,-1.1,1.3c-.2,.5,-.3,1,-.3,1.6c0,.8,.2,1.4,.6,1.9c.4,.4,.9,.7,1.6,.7c.6,0,1.1,-.2,1.5,-.6c.4,-.3,.6,-.8,.6,-1.3c0,-.4,-.1,-.8,-.3,-1.2c-.4,-.6,-1.3,-1.4,-2.6,-2.4Z" class="g4_89"/>
<path d="M524.6,324.3c-1,-.8,-1.6,-1.4,-1.9,-1.9c-.2,-.5,-.4,-1,-.4,-1.5c0,-.8,.3,-1.4,.9,-2c.6,-.6,1.4,-.9,2.5,-.9c.9,0,1.7,.3,2.3,.8c.6,.6,.9,1.2,.9,1.9c0,.4,-.1,.9,-.5,1.3c-.3,.5,-1,1.1,-2,1.7c1.1,.8,1.8,1.5,2.1,1.9c.5,.6,.7,1.3,.7,1.9c0,.9,-.3,1.6,-1,2.2c-.6,.6,-1.5,.9,-2.6,.9c-1.1,0,-2,-.3,-2.7,-1c-.5,-.6,-.7,-1.3,-.7,-1.9c0,-.6,.2,-1.1,.5,-1.6c.4,-.6,1,-1.1,1.9,-1.8Zm1.4,-.9c.7,-.7,1.2,-1.2,1.4,-1.6c.1,-.3,.2,-.8,.2,-1.2c0,-.7,-.1,-1.2,-.5,-1.5c-.3,-.4,-.8,-.5,-1.4,-.5c-.6,0,-1.1,.1,-1.5,.5c-.4,.3,-.6,.8,-.6,1.2c0,.3,.1,.6,.2,1c.2,.3,.4,.6,.7,.8l1.5,1.3Zm-1,1.3c-.5,.4,-.9,.8,-1.1,1.3c-.2,.5,-.3,1,-.3,1.6c0,.8,.2,1.4,.6,1.9c.4,.4,.9,.7,1.6,.7c.6,0,1.1,-.2,1.5,-.6c.4,-.3,.6,-.8,.6,-1.3c0,-.4,-.1,-.8,-.3,-1.2c-.4,-.6,-1.3,-1.4,-2.6,-2.4Z" class="g5_89"/>
<path d="M725.9,288.6L749,315.5l-19.2,65.8L659.3,299.4l66.6,-10.8Z" class="g3_89"/>
<path fill-rule="evenodd" d="M680.9,277.3c.3,-.8,.8,-1.5,1.3,-1.9c.5,-.5,1.2,-.7,2,-.7c1,0,1.7,.3,2.2,1c.4,.4,.6,.9,.6,1.5c0,.9,-.5,1.8,-1.7,2.7c.8,.3,1.4,.7,1.7,1.3c.4,.5,.6,1.2,.6,1.9c0,1,-.3,2,-1,2.7c-.9,1,-2.1,1.5,-3.8,1.5c-.8,0,-1.4,-.1,-1.7,-.3c-.2,-.2,-.4,-.4,-.4,-.6c0,-.2,.1,-.4,.2,-.5c.2,-.1,.3,-.2,.5,-.2c.2,0,.3,0,.5,.1c.1,0,.3,.1,.7,.3c.3,.2,.6,.3,.7,.4c.2,0,.5,0,.7,0c.6,0,1.2,-.2,1.6,-.7c.5,-.4,.7,-1,.7,-1.6c0,-.5,-.1,-1,-.3,-1.4c-.2,-.3,-.4,-.6,-.5,-.8c-.3,-.2,-.6,-.4,-1.1,-.6c-.4,-.2,-.9,-.3,-1.4,-.3h-.3v-.3c.5,0,1,-.2,1.5,-.5c.4,-.3,.8,-.6,1,-1c.2,-.4,.3,-.8,.3,-1.3c0,-.6,-.2,-1.1,-.6,-1.5c-.3,-.4,-.8,-.6,-1.4,-.6c-.9,0,-1.7,.5,-2.3,1.5Z" class="g4_89"/>
<path d="M680.9,277.3c.3,-.8,.8,-1.5,1.3,-1.9c.5,-.5,1.2,-.7,2,-.7c1,0,1.7,.3,2.2,1c.4,.4,.6,.9,.6,1.5c0,.9,-.5,1.8,-1.7,2.7c.8,.3,1.4,.7,1.7,1.3c.4,.5,.6,1.2,.6,1.9c0,1,-.3,2,-1,2.7c-.9,1,-2.1,1.5,-3.8,1.5c-.8,0,-1.4,-.1,-1.7,-.3c-.2,-.2,-.4,-.4,-.4,-.6c0,-.2,.1,-.4,.2,-.5c.2,-.1,.3,-.2,.5,-.2c.2,0,.3,0,.5,.1c.1,0,.3,.1,.7,.3c.3,.2,.6,.3,.7,.4c.2,0,.5,0,.7,0c.6,0,1.2,-.2,1.6,-.7c.5,-.4,.7,-1,.7,-1.6c0,-.5,-.1,-1,-.3,-1.4c-.2,-.3,-.4,-.6,-.5,-.8c-.3,-.2,-.6,-.4,-1.1,-.6c-.4,-.2,-.9,-.3,-1.4,-.3h-.3v-.3c.5,0,1,-.2,1.5,-.5c.4,-.3,.8,-.6,1,-1c.2,-.4,.3,-.8,.3,-1.3c0,-.6,-.2,-1.1,-.6,-1.5c-.3,-.4,-.8,-.6,-1.4,-.6c-.9,0,-1.7,.5,-2.3,1.5l-.3,-.1Z" class="g5_89"/>
<path fill-rule="evenodd" d="M748.8,349.1c.3,-.9,.7,-1.5,1.3,-1.9c.5,-.5,1.2,-.7,1.9,-.7c1,0,1.8,.3,2.3,.9c.4,.5,.6,1,.6,1.6c0,.8,-.6,1.8,-1.7,2.7c.8,.3,1.3,.7,1.7,1.2c.4,.6,.6,1.2,.6,2c0,1,-.4,1.9,-1,2.7c-.9,1,-2.2,1.5,-3.8,1.5c-.8,0,-1.4,-.1,-1.7,-.3c-.3,-.2,-.4,-.4,-.4,-.7c0,-.1,0,-.3,.2,-.4c.1,-.1,.3,-.2,.5,-.2c.1,0,.3,0,.4,.1c.1,0,.4,.1,.7,.3c.4,.2,.6,.3,.8,.3c.2,.1,.4,.1,.7,.1c.6,0,1.1,-.2,1.6,-.7c.4,-.5,.7,-1,.7,-1.7c0,-.4,-.2,-.9,-.4,-1.3c-.1,-.4,-.3,-.6,-.5,-.8c-.2,-.2,-.6,-.5,-1,-.6c-.5,-.2,-.9,-.3,-1.4,-.3h-.3v-.3c.5,-.1,1,-.2,1.4,-.5c.5,-.3,.9,-.6,1.1,-1c.2,-.4,.3,-.9,.3,-1.3c0,-.6,-.2,-1.1,-.6,-1.5c-.4,-.4,-.8,-.6,-1.4,-.6c-.9,0,-1.7,.5,-2.3,1.5Z" class="g4_89"/>
<path d="M748.8,349.1c.3,-.9,.7,-1.5,1.3,-1.9c.5,-.5,1.2,-.7,1.9,-.7c1,0,1.8,.3,2.3,.9c.4,.5,.6,1,.6,1.6c0,.8,-.6,1.8,-1.7,2.7c.8,.3,1.3,.7,1.7,1.2c.4,.6,.6,1.2,.6,2c0,1,-.4,1.9,-1,2.7c-.9,1,-2.2,1.5,-3.8,1.5c-.8,0,-1.4,-.1,-1.7,-.3c-.3,-.2,-.4,-.4,-.4,-.7c0,-.1,0,-.3,.2,-.4c.1,-.1,.3,-.2,.5,-.2c.1,0,.3,0,.4,.1c.1,0,.4,.1,.7,.3c.4,.2,.6,.3,.8,.3c.2,.1,.4,.1,.7,.1c.6,0,1.1,-.2,1.6,-.7c.4,-.5,.7,-1,.7,-1.7c0,-.4,-.2,-.9,-.4,-1.3c-.1,-.4,-.3,-.6,-.5,-.8c-.2,-.2,-.6,-.5,-1,-.6c-.5,-.2,-.9,-.3,-1.4,-.3h-.3v-.3c.5,-.1,1,-.2,1.4,-.5c.5,-.3,.9,-.6,1.1,-1c.2,-.4,.3,-.9,.3,-1.3c0,-.6,-.2,-1.1,-.6,-1.5c-.4,-.4,-.8,-.6,-1.4,-.6c-.9,0,-1.7,.5,-2.3,1.5l-.3,-.1Z" class="g5_89"/>
<path d="M688.6,291.3l5,8.3m40.2,48.2l7.4,6.3M691.4,290.5l5,8.3m39.8,47.3l7.3,6.4" class="g3_89"/>
<path fill-rule="evenodd" d="M744.2,289.5l2.9,-1.4h.3v10.2c0,.7,0,1.1,.1,1.3c0,.2,.2,.3,.3,.4c.2,.1,.6,.1,1.1,.1v.4h-4.5v-.4c.5,0,.9,0,1.1,-.1c.1,-.1,.3,-.2,.3,-.4c.1,-.1,.1,-.5,.1,-1.3v-6.5c0,-.9,0,-1.5,-.1,-1.7c0,-.2,-.1,-.4,-.2,-.4c-.1,-.1,-.2,-.2,-.4,-.2c-.2,0,-.5,.1,-.9,.3Z" class="g4_89"/>
<path d="M744.2,289.5l2.9,-1.4h.3v10.2c0,.7,0,1.1,.1,1.3c0,.2,.2,.3,.3,.4c.2,.1,.6,.1,1.1,.1v.4h-4.5v-.4c.5,0,.9,0,1.1,-.1c.1,-.1,.3,-.2,.3,-.4c.1,-.1,.1,-.5,.1,-1.3v-6.5c0,-.9,0,-1.5,-.1,-1.7c0,-.2,-.1,-.4,-.2,-.4c-.1,-.1,-.2,-.2,-.4,-.2c-.2,0,-.5,.1,-.9,.3l-.1,-.3Z" class="g5_89"/>
<path fill-rule="evenodd" d="M686.5,340.9l-.7,1.5h-3.6l-.8,1.7c1.6,.2,2.8,.8,3.8,1.7c.7,.8,1.1,1.8,1.1,2.9c0,.6,-.1,1.2,-.3,1.8c-.3,.5,-.6,1,-1,1.3c-.4,.4,-.9,.7,-1.3,1c-.7,.3,-1.4,.5,-2.2,.5c-.7,0,-1.2,-.2,-1.5,-.4c-.4,-.3,-.5,-.5,-.5,-.8c0,-.2,0,-.3,.2,-.5c.1,-.1,.3,-.2,.5,-.2c.1,0,.3,.1,.4,.1c.1,.1,.3,.2,.6,.4c.4,.3,.9,.4,1.4,.4c.6,0,1.3,-.2,1.8,-.8c.5,-.5,.8,-1.1,.8,-1.9c0,-.7,-.3,-1.4,-.7,-2c-.5,-.7,-1.1,-1.2,-2,-1.5c-.6,-.3,-1.5,-.4,-2.6,-.5l2.3,-4.7Z" class="g4_89"/>
<path d="M686.5,340.9l-.7,1.5h-3.6l-.8,1.7c1.6,.2,2.8,.8,3.8,1.7c.7,.8,1.1,1.8,1.1,2.9c0,.6,-.1,1.2,-.3,1.8c-.3,.5,-.6,1,-1,1.3c-.4,.4,-.9,.7,-1.3,1c-.7,.3,-1.4,.5,-2.2,.5c-.7,0,-1.2,-.2,-1.5,-.4c-.4,-.3,-.5,-.5,-.5,-.8c0,-.2,0,-.3,.2,-.5c.1,-.1,.3,-.2,.5,-.2c.1,0,.3,.1,.4,.1c.1,.1,.3,.2,.6,.4c.4,.3,.9,.4,1.4,.4c.6,0,1.3,-.2,1.8,-.8c.5,-.5,.8,-1.1,.8,-1.9c0,-.7,-.3,-1.4,-.7,-2c-.5,-.7,-1.1,-1.2,-2,-1.5c-.6,-.3,-1.5,-.4,-2.6,-.5l2.3,-4.7h4.3Z" class="g5_89"/>
<path d="M75.1,66.5H837.3M75.1,241.8H837.3" class="g2_89"/>
<path fill-rule="evenodd" d="M249.3,801.6l.1,-.3h3.9c1.6,0,2.8,.2,3.6,.6c.8,.3,1.5,.9,1.9,1.7c.5,.8,.7,1.7,.7,2.6c0,.8,-.1,1.6,-.4,2.3c-.2,.8,-.5,1.4,-.9,1.8c-.3,.5,-.9,1,-1.6,1.5c-.7,.6,-1.5,1,-2.3,1.2c-.8,.3,-1.8,.4,-3.1,.4h-5.1l.1,-.3c.5,0,.8,-.1,.9,-.1c.3,-.1,.5,-.3,.6,-.4c.1,-.3,.3,-.8,.5,-1.6l2.2,-7.3c.2,-.6,.2,-1,.2,-1.4c0,-.2,0,-.4,-.2,-.5c-.1,-.1,-.4,-.2,-.9,-.2Zm3.2,.4l-2.6,9c-.2,.7,-.3,1.1,-.3,1.3c0,.1,0,.2,0,.3c.1,.1,.2,.1,.3,.2c.2,0,.4,0,.8,0c.9,0,1.8,-.1,2.6,-.2c.8,-.2,1.4,-.5,1.9,-.9c.8,-.6,1.3,-1.3,1.8,-2.3c.4,-1,.6,-2.1,.6,-3.3c0,-1.4,-.3,-2.5,-1,-3.2c-.6,-.6,-1.6,-1,-2.9,-1c-.3,0,-.7,0,-1.2,.1Z" class="g4_89"/>
<path fill-rule="evenodd" d="M322.6,803.8l-.9,3.9h-.3v-.9c-.1,-.4,-.1,-.7,-.2,-1c-.1,-.3,-.3,-.5,-.5,-.7c-.2,-.2,-.5,-.4,-.8,-.5c-.4,-.1,-.7,-.2,-1.1,-.2c-1.1,0,-2,.3,-2.8,.9c-1,.7,-1.8,1.8,-2.4,3.1c-.5,1.2,-.7,2.3,-.7,3.5c0,1.1,.3,2.1,1,2.8c.7,.7,1.6,1,2.7,1c.8,0,1.5,-.2,2.2,-.5c.6,-.4,1.2,-1,1.8,-1.7h.4c-.7,1,-1.4,1.8,-2.2,2.3c-.8,.5,-1.7,.7,-2.9,.7c-.9,0,-1.8,-.2,-2.6,-.6c-.7,-.4,-1.3,-1,-1.7,-1.8c-.4,-.7,-.6,-1.5,-.6,-2.4c0,-1.3,.3,-2.6,1,-3.9c.7,-1.2,1.7,-2.2,3,-2.9c1.2,-.7,2.4,-1.1,3.7,-1.1c.6,0,1.3,.1,2,.4c.3,.1,.5,.2,.7,.2c.1,0,.3,0,.4,-.1c.1,0,.3,-.2,.5,-.5Z" class="g4_89"/>
<path fill-rule="evenodd" d="M217.5,860.1l-.9,10.1c-.1,.5,-.1,.8,-.1,.9c0,.3,0,.5,.1,.6c.1,.2,.3,.3,.5,.4c.2,.1,.5,.1,1,.1l-.1,.3h-4.8l.1,-.3h.2c.4,0,.7,-.1,.9,-.3c.2,-.1,.3,-.3,.4,-.5c.1,-.2,.2,-.6,.2,-1.3l.2,-1.6h-3.5l-1.2,1.7c-.3,.4,-.5,.7,-.6,.8c0,.2,-.1,.3,-.1,.5c0,.2,.1,.3,.3,.5c.1,.1,.4,.2,.7,.2l-.1,.3h-3.6l.1,-.3c.5,0,.9,-.2,1.2,-.4c.3,-.3,.8,-.9,1.5,-1.8l7.3,-9.9Zm-1.8,3l-3.5,4.8h3Z" class="g4_89"/>
<path fill-rule="evenodd" d="M273.4,867.7l-1.7,6.1l-.2,.8q0,.1,0,.2c0,.1,0,.2,.1,.2c0,.1,.1,.1,.1,.1c.1,0,.2,0,.4,-.1c.2,-.2,.5,-.5,.9,-1.1l.3,.2c-.4,.6,-.8,1.1,-1.3,1.4c-.4,.4,-.8,.5,-1.2,.5c-.2,0,-.4,0,-.6,-.2c-.1,-.1,-.2,-.3,-.2,-.5c0,-.3,.1,-.7,.2,-1.2l.2,-.6c-.8,1,-1.5,1.7,-2.1,2.1c-.5,.3,-1,.4,-1.4,.4c-.5,0,-.8,-.1,-1.1,-.5c-.4,-.4,-.5,-.9,-.5,-1.5c0,-.9,.3,-2,.8,-3c.6,-1.1,1.3,-1.9,2.2,-2.5c.7,-.5,1.3,-.8,1.9,-.8c.4,0,.7,.1,1,.3c.2,.2,.4,.5,.5,1l.3,-1.1Zm-3.1,.5c-.4,0,-.8,.2,-1.3,.5c-.6,.5,-1.1,1.3,-1.6,2.3c-.5,1,-.7,1.9,-.7,2.7c0,.4,.1,.7,.3,.9c.2,.3,.4,.4,.7,.4c.7,0,1.4,-.5,2.1,-1.4c1.1,-1.3,1.6,-2.6,1.6,-4c0,-.5,-.1,-.9,-.3,-1.1c-.2,-.2,-.5,-.3,-.8,-.3Z" class="g4_89"/>
<path fill-rule="evenodd" d="M321.9,837.4c-.7,.7,-1.3,1.3,-1.9,1.6c-.7,.4,-1.3,.6,-2,.6c-.9,0,-1.5,-.3,-2,-.8c-.5,-.4,-.7,-1.1,-.7,-1.9c0,-.9,.2,-1.8,.7,-2.7c.6,-.9,1.2,-1.6,2.1,-2.1c.9,-.6,1.7,-.9,2.5,-.9c.7,0,1.2,.2,1.5,.4c.3,.3,.5,.6,.5,1c0,.4,-.1,.7,-.4,1c-.1,.2,-.3,.3,-.6,.3c-.2,0,-.3,-.1,-.4,-.2c-.2,-.1,-.2,-.3,-.2,-.4c0,-.1,0,-.3,.1,-.3c0,-.1,.1,-.3,.2,-.4c.2,-.1,.3,-.2,.3,-.3c0,0,0,-.1,0,-.2c0,-.1,0,-.2,-.1,-.3c-.2,-.1,-.5,-.2,-.8,-.2c-.6,0,-1.1,.2,-1.7,.7c-.6,.4,-1.1,1,-1.5,1.7c-.5,.9,-.7,1.8,-.7,2.8c0,.6,.2,1.1,.5,1.4c.4,.4,.8,.5,1.4,.5c.5,0,.9,-.1,1.4,-.3c.4,-.2,.9,-.6,1.5,-1.2Z" class="g4_89"/>
<path fill-rule="evenodd" d="M284.5,799.1l-1.8,6.2c.6,-.6,1.1,-1,1.5,-1.2c.5,-.3,.9,-.4,1.4,-.4c.6,0,1.2,.2,1.6,.7c.4,.4,.6,1,.6,1.8c0,.9,-.3,1.9,-.8,2.8c-.6,1,-1.3,1.7,-2.1,2.2c-.8,.6,-1.6,.8,-2.4,.8c-.9,0,-1.9,-.3,-2.8,-1l2.7,-9.3c.2,-.8,.3,-1.2,.3,-1.3c0,-.2,0,-.3,-.1,-.4c-.2,-.1,-.4,-.1,-.6,-.1c-.2,0,-.4,0,-.6,0v-.3Zm-3.5,12c.6,.4,1.1,.5,1.6,.5c.5,0,1.1,-.2,1.6,-.6c.6,-.3,1.1,-1,1.5,-1.9c.4,-.9,.6,-1.8,.6,-2.8c0,-.5,-.1,-.9,-.4,-1.3c-.3,-.3,-.6,-.4,-.9,-.4c-.6,0,-1.1,.2,-1.7,.6c-.5,.5,-.9,1.1,-1.1,1.9Z" class="g4_89"/>
<path fill-rule="evenodd" d="M238.9,824.2l-3.1,10.6c-.2,.6,-.2,.9,-.2,1.1q0,.1,0,.2c.1,0,.1,.1,.2,.1c.1,0,.2,-.1,.3,-.2c.2,-.1,.5,-.5,1,-1l.3,.2c-.4,.6,-.9,1,-1.3,1.4c-.5,.4,-.9,.6,-1.2,.6c-.2,0,-.4,-.1,-.5,-.3c-.2,-.1,-.2,-.3,-.2,-.6c0,-.3,0,-.8,.2,-1.3l.4,-1.1c-.9,1.3,-1.7,2.2,-2.4,2.7c-.5,.4,-.9,.6,-1.4,.6c-.4,0,-.8,-.2,-1.2,-.6c-.3,-.4,-.5,-1,-.5,-1.7c0,-.9,.3,-1.8,.9,-2.8c.5,-1,1.3,-1.9,2.2,-2.5c.7,-.5,1.4,-.8,2,-.8c.4,0,.6,.1,.9,.2c.2,.2,.4,.4,.7,.7l.8,-3.1c.1,-.2,.2,-.4,.2,-.5c.1,-.3,.1,-.5,.1,-.6c0,-.2,0,-.3,-.1,-.4c-.2,-.1,-.3,-.1,-.5,-.1c-.2,0,-.4,0,-.7,.1v-.4Zm-3.3,6.4c0,-.4,-.1,-.7,-.4,-1c-.2,-.2,-.5,-.3,-.8,-.3c-.8,0,-1.5,.6,-2.4,1.9c-.8,1.2,-1.2,2.4,-1.2,3.5c0,.5,.1,.8,.3,1.1c.2,.2,.4,.3,.7,.3c.6,0,1.4,-.7,2.4,-2c.9,-1.4,1.4,-2.5,1.4,-3.5Z" class="g4_89"/>
<path fill-rule="evenodd" d="M321.7,858.6l.2,-.4h4.3c.7,0,1.4,.1,2,.4c.5,.2,.9,.5,1.2,.9c.3,.4,.5,.9,.5,1.3c0,.7,-.3,1.3,-.8,1.9c-.5,.6,-1.3,1,-2.5,1.3c.8,.2,1.3,.6,1.7,1c.3,.5,.5,1,.5,1.5c0,.6,-.2,1.2,-.5,1.8c-.3,.5,-.7,.9,-1.2,1.2c-.5,.4,-1.1,.6,-1.7,.7c-.5,.1,-1.3,.2,-2.3,.2h-4.5l.1,-.4c.5,0,.8,0,1,-.1c.2,-.1,.4,-.2,.5,-.4c.1,-.2,.3,-.7,.6,-1.6l2.1,-7.3c.2,-.6,.3,-1.1,.3,-1.3c0,-.2,-.1,-.4,-.2,-.5c-.2,-.2,-.5,-.2,-1,-.2c-.1,0,-.2,0,-.3,0m1.9,5c.4,0,.6,0,.8,0c1.2,0,2.2,-.2,2.8,-.8c.6,-.5,.9,-1.2,.9,-2c0,-.6,-.2,-1.1,-.6,-1.5c-.3,-.3,-.9,-.5,-1.7,-.5c-.3,0,-.5,.1,-.9,.1Zm-1.8,6c.6,.1,1.1,.1,1.5,.1c.9,0,1.8,-.3,2.5,-.8c.7,-.6,1.1,-1.4,1.1,-2.3c0,-.7,-.3,-1.3,-.7,-1.7c-.4,-.4,-1.2,-.7,-2.2,-.7c-.1,0,-.4,.1,-.7,.1Z" class="g4_89"/>
<path d="M261.7,816.7h43.2l6,46.4H224l37.7,-46.4Z" class="g6_89"/>
<path fill-rule="evenodd" d="M270.4,570.3l-.9,3.9h-.3l-.1,-1c0,-.3,-.1,-.6,-.2,-.9c-.1,-.3,-.2,-.5,-.5,-.8c-.2,-.2,-.4,-.3,-.8,-.4c-.3,-.1,-.7,-.2,-1.1,-.2c-1,0,-2,.3,-2.8,.9c-1,.7,-1.8,1.8,-2.4,3.1c-.4,1.2,-.7,2.3,-.7,3.4c0,1.2,.4,2.2,1,2.9c.7,.7,1.6,1,2.7,1c.9,0,1.6,-.2,2.2,-.5c.7,-.4,1.3,-1,1.8,-1.8h.5c-.7,1.1,-1.4,1.9,-2.2,2.3c-.8,.5,-1.8,.8,-2.9,.8c-1,0,-1.9,-.2,-2.6,-.6c-.8,-.5,-1.4,-1,-1.8,-1.8c-.4,-.7,-.6,-1.5,-.6,-2.4c0,-1.3,.4,-2.6,1.1,-3.9c.7,-1.2,1.7,-2.2,2.9,-2.9c1.3,-.8,2.5,-1.1,3.8,-1.1c.6,0,1.2,.1,1.9,.4c.4,.1,.6,.2,.7,.2c.2,0,.3,0,.4,-.1c.1,-.1,.3,-.2,.6,-.5Z" class="g4_89"/>
<path fill-rule="evenodd" d="M254.8,547.8l-2.7,9.1c-.2,.6,-.3,1.1,-.3,1.2c0,.1,.1,.2,.1,.3c.1,.1,.2,.1,.3,.2c.2,0,.4,.1,.7,.1c1,0,1.9,-.1,2.7,-.3c.8,-.2,1.4,-.5,1.9,-.9c.8,-.6,1.3,-1.3,1.8,-2.3c.4,-1,.6,-2.1,.6,-3.3c0,-1.4,-.3,-2.5,-1,-3.1c-.6,-.7,-1.6,-1.1,-2.9,-1.1c-.3,0,-.7,0,-1.2,.1m-3.2,-.4l.1,-.3h3.9c1.6,0,2.8,.2,3.6,.6c.8,.3,1.5,.9,1.9,1.7c.5,.8,.7,1.7,.7,2.6c0,.8,-.1,1.6,-.4,2.3c-.3,.8,-.6,1.4,-.9,1.8c-.3,.5,-.9,1,-1.6,1.5c-.7,.6,-1.5,1,-2.3,1.2c-.8,.3,-1.9,.4,-3.1,.4h-5.1l.1,-.3c.5,0,.8,-.1,.9,-.1c.3,-.1,.4,-.3,.6,-.4c.1,-.3,.3,-.8,.5,-1.5l2.2,-7.4c.2,-.6,.2,-1,.2,-1.4c0,-.2,0,-.4,-.2,-.5c-.1,-.1,-.5,-.2,-.9,-.2Z" class="g4_89"/>
<path fill-rule="evenodd" d="M290.2,556.9c.6,.3,1.2,.5,1.6,.5c.5,0,1.1,-.2,1.6,-.6c.6,-.4,1.1,-1.1,1.5,-2c.4,-.9,.6,-1.8,.6,-2.7c0,-.6,-.1,-1,-.4,-1.3c-.2,-.3,-.6,-.5,-.9,-.5c-.6,0,-1.1,.2,-1.7,.7c-.5,.4,-.9,1,-1.1,1.8Zm3.5,-12.1l-1.8,6.2c.6,-.6,1.1,-1,1.5,-1.2c.5,-.2,.9,-.3,1.4,-.3c.6,0,1.2,.2,1.6,.6c.4,.5,.6,1,.6,1.8c0,.9,-.3,1.9,-.8,2.9c-.6,.9,-1.3,1.7,-2.1,2.2c-.8,.5,-1.6,.8,-2.4,.8c-.9,0,-1.9,-.4,-2.8,-1l2.7,-9.4c.2,-.7,.3,-1.2,.3,-1.3c0,-.1,0,-.2,-.1,-.3c-.2,-.1,-.4,-.2,-.6,-.2c-.2,0,-.3,0,-.6,.1v-.4Z" class="g4_89"/>
<path fill-rule="evenodd" d="M236,583.7c0,-.3,-.1,-.7,-.3,-.9c-.2,-.2,-.5,-.3,-.8,-.3c-.8,0,-1.6,.6,-2.4,1.8c-.8,1.3,-1.2,2.5,-1.2,3.6c0,.4,.1,.8,.3,1c.2,.3,.4,.4,.7,.4c.6,0,1.4,-.7,2.3,-2c1,-1.4,1.4,-2.6,1.4,-3.6m3.3,-6.3l-3,10.5c-.2,.6,-.3,1,-.3,1.2c0,0,0,.1,.1,.1c0,.1,.1,.1,.1,.1c.1,0,.2,0,.3,-.1c.2,-.1,.6,-.5,1,-1.1l.4,.2c-.5,.6,-.9,1.1,-1.4,1.5c-.4,.3,-.8,.5,-1.2,.5c-.2,0,-.4,0,-.5,-.2c-.1,-.1,-.2,-.3,-.2,-.6c0,-.3,.1,-.8,.3,-1.4l.3,-1.1c-.8,1.4,-1.6,2.3,-2.3,2.8c-.5,.3,-1,.5,-1.4,.5c-.5,0,-.9,-.2,-1.2,-.6c-.4,-.4,-.5,-.9,-.5,-1.6c0,-.9,.3,-1.9,.8,-2.9c.6,-1,1.3,-1.8,2.3,-2.4c.7,-.5,1.4,-.8,2,-.8c.3,0,.6,.1,.8,.2c.3,.1,.5,.4,.7,.7l.9,-3.2c.1,-.2,.1,-.4,.2,-.5c0,-.2,.1,-.4,.1,-.6c0,-.1,-.1,-.2,-.2,-.3c-.1,-.1,-.3,-.1,-.5,-.1c-.1,0,-.3,0,-.6,0v-.3Z" class="g4_89"/>
<path fill-rule="evenodd" d="M289.4,631.7c-.4,0,-.8,.2,-1.3,.5c-.6,.6,-1.1,1.3,-1.6,2.3c-.5,1,-.7,1.9,-.7,2.7c0,.4,.1,.7,.3,1c.2,.2,.4,.3,.7,.3c.7,0,1.4,-.5,2.1,-1.4c1,-1.3,1.6,-2.6,1.6,-3.9c0,-.6,-.1,-.9,-.3,-1.1c-.2,-.3,-.5,-.4,-.8,-.4m3.1,-.5l-1.7,6.1l-.2,.8c0,.1,0,.2,0,.2c0,.1,0,.2,.1,.3c0,0,.1,.1,.1,.1c.1,0,.2,-.1,.3,-.2c.3,-.2,.6,-.5,1,-1.1l.3,.3c-.4,.6,-.9,1,-1.3,1.4c-.4,.3,-.8,.5,-1.2,.5c-.3,0,-.4,-.1,-.6,-.2c-.1,-.2,-.2,-.3,-.2,-.6c0,-.3,.1,-.7,.2,-1.1l.2,-.7c-.8,1,-1.5,1.7,-2.1,2.1c-.5,.3,-1,.5,-1.4,.5c-.5,0,-.8,-.2,-1.2,-.6c-.3,-.3,-.4,-.8,-.4,-1.5c0,-.9,.3,-1.9,.8,-3c.6,-1,1.3,-1.9,2.2,-2.5c.7,-.5,1.3,-.8,1.9,-.8c.4,0,.7,.1,1,.3c.2,.2,.4,.5,.5,1l.3,-1Z" class="g4_89"/>
<path fill-rule="evenodd" d="M345.4,587.3c-.6,.8,-1.2,1.3,-1.8,1.7c-.7,.3,-1.3,.5,-2.1,.5c-.8,0,-1.5,-.2,-1.9,-.7c-.5,-.5,-.7,-1.1,-.7,-2c0,-.9,.2,-1.8,.7,-2.6c.5,-.9,1.2,-1.6,2.1,-2.2c.8,-.5,1.7,-.8,2.5,-.8c.7,0,1.2,.1,1.5,.4c.3,.3,.5,.6,.5,1c0,.4,-.2,.7,-.4,.9c-.1,.2,-.4,.3,-.6,.3c-.2,0,-.3,0,-.5,-.1c-.1,-.2,-.1,-.3,-.1,-.5c0,-.1,0,-.2,0,-.3c.1,-.1,.2,-.2,.3,-.4c.1,-.1,.2,-.2,.3,-.2c0,-.1,0,-.2,0,-.2c0,-.2,-.1,-.3,-.2,-.3c-.1,-.2,-.4,-.2,-.7,-.2c-.6,0,-1.2,.2,-1.7,.6c-.6,.4,-1.1,1,-1.5,1.7c-.5,1,-.7,1.9,-.7,2.8c0,.6,.1,1.1,.5,1.5c.3,.3,.8,.5,1.4,.5c.5,0,.9,-.1,1.4,-.4c.4,-.2,.9,-.6,1.5,-1.2Z" class="g4_89"/>
<path fill-rule="evenodd" d="M336.1,546.6l-.9,4h-.4v-1c0,-.4,-.1,-.7,-.2,-1c-.1,-.3,-.3,-.5,-.5,-.7c-.2,-.2,-.5,-.4,-.8,-.5c-.3,-.1,-.7,-.2,-1.1,-.2c-1.1,0,-2,.3,-2.8,.9c-1,.8,-1.8,1.8,-2.4,3.2c-.5,1.1,-.7,2.2,-.7,3.4c0,1.2,.3,2.1,1,2.8c.7,.7,1.6,1.1,2.7,1.1c.8,0,1.6,-.2,2.2,-.6c.7,-.4,1.3,-.9,1.8,-1.7h.4c-.6,1,-1.4,1.8,-2.1,2.3c-.9,.5,-1.8,.7,-2.9,.7c-1,0,-1.9,-.2,-2.7,-.6c-.7,-.4,-1.3,-1,-1.7,-1.7c-.4,-.8,-.6,-1.6,-.6,-2.5c0,-1.3,.4,-2.6,1.1,-3.8c.7,-1.3,1.6,-2.3,2.9,-3c1.2,-.7,2.5,-1.1,3.7,-1.1c.6,0,1.3,.2,2,.5c.3,.1,.6,.1,.7,.1c.2,0,.3,0,.4,-.1c.1,0,.3,-.2,.5,-.5Z" class="g4_89"/>
<path fill-rule="evenodd" d="M216.7,629.9l-3.5,4.8h3Zm1.8,-3l-.9,10.1c-.1,.5,-.1,.8,-.1,.9c0,.3,0,.4,.1,.6c.1,.1,.3,.3,.5,.3c.2,.1,.5,.2,1,.2l-.1,.3h-4.8l.1,-.3h.2c.4,0,.7,-.1,.9,-.3c.2,-.1,.3,-.3,.4,-.5c.1,-.2,.2,-.7,.2,-1.4l.2,-1.5h-3.5l-1.2,1.7c-.3,.4,-.5,.6,-.6,.8c0,.2,-.1,.3,-.1,.5c0,.1,.1,.3,.3,.4c.1,.2,.4,.3,.7,.3l-.1,.3h-3.6l.1,-.3c.5,0,.9,-.2,1.2,-.5c.3,-.3,.8,-.8,1.5,-1.7l7.3,-9.9Z" class="g4_89"/>
<path fill-rule="evenodd" d="M342.2,638c.6,.1,1.1,.1,1.5,.1c.9,0,1.7,-.3,2.4,-.8c.8,-.6,1.1,-1.3,1.1,-2.3c0,-.7,-.2,-1.3,-.6,-1.7c-.5,-.4,-1.2,-.6,-2.2,-.6c-.2,0,-.4,0,-.7,0Zm1.7,-6c.4,0,.7,0,.9,0c1.2,0,2.1,-.2,2.7,-.8c.6,-.5,.9,-1.2,.9,-2c0,-.6,-.1,-1.1,-.5,-1.4c-.4,-.4,-1,-.5,-1.8,-.5c-.2,0,-.5,0,-.8,.1Zm-1.8,-5l.1,-.3h4.4c.7,0,1.3,.1,1.9,.3c.6,.2,1,.5,1.3,.9c.3,.4,.4,.9,.4,1.3c0,.7,-.2,1.4,-.7,1.9c-.5,.6,-1.4,1,-2.5,1.3c.7,.2,1.3,.6,1.6,1.1c.4,.4,.5,.9,.5,1.5c0,.6,-.1,1.1,-.4,1.7c-.3,.5,-.7,1,-1.2,1.3c-.5,.3,-1.1,.5,-1.8,.6c-.5,.1,-1.2,.2,-2.3,.2H339l.1,-.3c.5,-.1,.8,-.1,.9,-.2c.3,-.1,.4,-.2,.5,-.4c.2,-.2,.4,-.7,.6,-1.5l2.2,-7.4c.2,-.6,.3,-1,.3,-1.3c0,-.2,-.1,-.4,-.3,-.5c-.1,-.1,-.4,-.2,-.9,-.2c-.1,0,-.2,0,-.3,0Z" class="g4_89"/>
<path clip-path="url(#c0_89)" d="M186.8,561.9h192m-192,60.6h192" class="g7_89"/>
<path fill-rule="evenodd" d="M264,561.7h57.5l17.7,61.7H224.3Z" class="g8_89"/>
<path d="M264,561.7h57.5l17.7,61.7H224.3L264,561.7Z" class="g3_89"/>
<path clip-path="url(#c0_89)" d="M186.8,592.2h192" class="g7_89"/>
<path d="M73.6,471.4H835.8" class="g2_89"/>
<path d="M184.8,767.9h651V653.2h-651V767.9Z" class="g9_89"/>
<path d="M135.8,690.6h39.7V653.2H135.8v37.4Z" class="ga_89"/>
<path clip-path="url(#c1_89)" d="M156.1,675.7c-2.1,.2,-3.8,-1.5,-3.6,-3.6c.1,-1.7,1.5,-3.1,3.2,-3.2c2,-.1,3.7,1.6,3.6,3.6c-.1,1.7,-1.5,3.1,-3.2,3.2m.2,2.9c-3.8,.3,-7,-2.9,-6.8,-6.7c.2,-3.2,2.8,-5.7,6,-5.9c3.8,-.3,7,2.9,6.7,6.7c-.2,3.2,-2.8,5.7,-5.9,5.9m-.4,-15.3c-5.8,0,-11,3.2,-14.9,8.3c-.3,.4,-.3,1,0,1.4c3.9,5.2,9.1,8.3,14.9,8.3c5.7,0,11,-3.1,14.8,-8.3c.4,-.4,.4,-1,0,-1.4c-3.8,-5.1,-9.1,-8.3,-14.8,-8.3Z" class="gb_89"/>
<path fill-rule="evenodd" d="M230.3,212.2c-.4,0,-.7,.2,-1.1,.5c-.6,.5,-1.1,1.1,-1.5,2.1c-.5,.9,-.7,1.7,-.7,2.4c0,.4,.1,.7,.3,.9c.2,.2,.4,.3,.6,.3c.6,0,1.3,-.4,2,-1.3c.9,-1.1,1.4,-2.3,1.4,-3.6c0,-.4,-.1,-.8,-.3,-1c-.2,-.2,-.4,-.3,-.7,-.3m2.9,-.4l-1.6,5.5l-.2,.8q0,.1,0,.2q0,.1,.1,.2c0,0,.1,.1,.1,.1c.1,0,.2,-.1,.3,-.2c.2,-.1,.5,-.4,.9,-.9l.3,.2c-.4,.5,-.8,1,-1.2,1.3c-.4,.3,-.8,.4,-1.1,.4c-.3,0,-.4,-.1,-.5,-.2c-.2,-.1,-.2,-.3,-.2,-.5c0,-.3,0,-.6,.2,-1l.1,-.7c-.7,1,-1.3,1.6,-1.9,2c-.5,.3,-.9,.4,-1.3,.4c-.4,0,-.8,-.2,-1.1,-.5c-.2,-.3,-.4,-.8,-.4,-1.4c0,-.8,.3,-1.8,.8,-2.7c.5,-1,1.2,-1.8,2,-2.3c.6,-.5,1.2,-.7,1.8,-.7c.3,0,.6,.1,.8,.2c.2,.2,.4,.5,.5,.9l.3,-.9Z" class="g4_89"/>
<g clip-path="url(#c2_89)">
<path fill-rule="evenodd" d="M277.6,183.9c-.5,.7,-1.1,1.2,-1.7,1.5c-.6,.4,-1.2,.5,-1.8,.5c-.8,0,-1.4,-.2,-1.9,-.6c-.4,-.5,-.6,-1.1,-.6,-1.8c0,-.8,.2,-1.7,.7,-2.5c.5,-.8,1.1,-1.4,1.9,-1.9c.8,-.6,1.6,-.8,2.3,-.8c.6,0,1.1,.1,1.4,.4c.2,.2,.4,.5,.4,.9c0,.3,-.1,.6,-.3,.9c-.2,.1,-.4,.2,-.6,.2c-.2,0,-.3,0,-.4,-.1c-.1,-.1,-.2,-.3,-.2,-.4c0,-.1,0,-.2,.1,-.3c0,-.1,.1,-.2,.2,-.3c.2,-.2,.3,-.3,.3,-.3q0,-.1,0,-.2c0,-.1,0,-.2,-.1,-.3c-.2,-.1,-.4,-.1,-.7,-.1c-.5,0,-1.1,.2,-1.6,.5c-.5,.4,-1,.9,-1.4,1.6c-.4,.9,-.6,1.7,-.6,2.6c0,.5,.1,1,.5,1.3c.3,.3,.7,.5,1.3,.5c.4,0,.8,-.1,1.2,-.3c.4,-.2,.9,-.6,1.4,-1.2Z" class="g4_89"/>
<path fill-rule="evenodd" d="M240.2,159.8c.5,.3,1,.5,1.4,.5c.5,0,1,-.2,1.5,-.5c.5,-.4,1,-1,1.4,-1.8c.3,-.9,.5,-1.7,.5,-2.6c0,-.5,-.1,-.9,-.4,-1.1c-.2,-.3,-.5,-.5,-.8,-.5c-.5,0,-1,.2,-1.5,.6c-.5,.5,-.9,1,-1.1,1.8Zm3.1,-11l-1.6,5.7c.5,-.6,1,-.9,1.4,-1.1c.4,-.2,.8,-.3,1.2,-.3c.6,0,1.1,.2,1.5,.6c.4,.4,.6,.9,.6,1.6c0,.9,-.3,1.7,-.8,2.6c-.5,.9,-1.1,1.6,-1.9,2.1c-.7,.4,-1.5,.7,-2.2,.7c-.9,0,-1.7,-.3,-2.6,-.9l2.5,-8.6c.2,-.7,.3,-1.1,.3,-1.2c0,-.2,0,-.3,-.1,-.3c-.1,-.1,-.3,-.2,-.6,-.2c-.1,0,-.3,0,-.5,.1v-.3Z" class="g4_89"/>
</g>
<path fill-rule="evenodd" d="M198.4,177.7c0,-.4,-.1,-.6,-.3,-.9c-.2,-.2,-.4,-.3,-.7,-.3c-.7,0,-1.4,.6,-2.2,1.7c-.7,1.2,-1.1,2.3,-1.1,3.3c0,.4,.1,.7,.3,.9c.1,.3,.4,.4,.6,.4c.6,0,1.3,-.7,2.2,-1.9c.8,-1.2,1.2,-2.3,1.2,-3.2m3.1,-5.8l-2.8,9.6c-.2,.6,-.3,.9,-.3,1.1c0,0,.1,.1,.1,.1q.1,.1,.1,.1c.1,0,.2,0,.3,-.1c.2,-.1,.5,-.5,.9,-1l.3,.2c-.4,.5,-.8,1,-1.2,1.3c-.4,.4,-.8,.5,-1.1,.5c-.2,0,-.3,0,-.5,-.2c-.1,-.1,-.1,-.3,-.1,-.5c0,-.3,0,-.8,.2,-1.3l.3,-1c-.8,1.2,-1.5,2.1,-2.1,2.5c-.5,.4,-.9,.5,-1.3,.5c-.5,0,-.8,-.2,-1.1,-.5c-.3,-.4,-.5,-.9,-.5,-1.5c0,-.8,.3,-1.7,.8,-2.6c.5,-1,1.2,-1.7,2.1,-2.3c.6,-.5,1.2,-.7,1.8,-.7c.3,0,.6,.1,.8,.2c.2,.1,.4,.3,.6,.6l.8,-2.9c.1,-.2,.1,-.3,.2,-.5c0,-.2,.1,-.4,.1,-.5c0,-.1,-.1,-.2,-.2,-.3c-.1,-.1,-.2,-.1,-.4,-.1c-.1,0,-.3,0,-.6,0v-.3Z" class="g4_89"/>
<path d="M222.4,165h39.7l5.5,42.5H187.8L222.4,165Z" class="gc_89"/>
</svg>