<?xml version="1.0" encoding="UTF-8" standalone="no"?>
<!DOCTYPE svg PUBLIC "-//W3C//DTD SVG 1.1//EN"
"http://www.w3.org/Graphics/SVG/1.1/DTD/svg11.dtd">
<svg viewBox="0 0 909 1147" version="1.1" xmlns="http://www.w3.org/2000/svg" xmlns:xlink="http://www.w3.org/1999/xlink">
<defs>
<clipPath id="c0_25"><path d="M127.1,1020.6c-.3,0,-.7,-.1,-.9,-.1c-.1,0,-.1,-.1,-.1,-.1c-4,-1.2,-7.7,-3.2,-11,-5.3c-.6,-.2,-1.1,-.4,-1.7,-.6c-.1,-.2,-.2,-.4,-.3,-.6h-.6c-.1,-.2,-.2,-.4,-.3,-.6h-.6c-.1,-.1,-.2,-.3,-.3,-.5c-.6,-.2,-1.2,-.4,-1.8,-.6c-.1,-.2,-.2,-.4,-.3,-.6c-.4,-.1,-.8,-.2,-1.1,-.3c-.1,-.1,-.1,-.2,-.2,-.3l-.1,-.3h-.6c-.1,-.2,-.2,-.4,-.3,-.6h-.6c-.1,-.2,-.2,-.4,-.3,-.6c-.4,-.1,-.8,-.2,-1.2,-.3v-.3c-.3,-.1,-.6,-.2,-.9,-.3l-.1,-.3c-.1,-.1,-.1,-.2,-.2,-.3H103c-.1,-.2,-.2,-.4,-.3,-.6c-.6,-.4,-1.1,-.9,-1.7,-1.4v-.6c-.3,-.2,-.6,-.4,-.9,-.6c-.4,-.5,0,-.7,-.6,-1.2c0,-.4,0,-.7,0,-1.1c0,-2.2,.2,-3.8,.9,-5.4v-.9c.2,-.1,.4,-.2,.6,-.3c.1,-.4,.3,-.9,.4,-1.3l.5,-1.3l.2,-.2c.1,0,.2,-.1,.3,-.1v-.9c.2,-.1,.4,-.2,.6,-.3v-.6h.3v-.6h.3V990h.3v-.6h.3v-.6c.2,0,.4,-.1,.6,-.2c.1,-.4,.2,-.8,.3,-1.2c.2,-.1,.4,-.2,.6,-.3v-.9c.2,-.1,.4,-.2,.6,-.3v-.6h.3v-.6h.3v-.6h.3v-.6h.3c.1,-.3,.2,-.6,.3,-.9c.1,0,.2,0,.3,-.1l.2,-.1c.2,-.6,.4,-1.2,.6,-1.8c.2,-.1,.4,-.2,.6,-.3c.2,-.6,.4,-1.2,.6,-1.8l.6,-.3c.1,-.4,.2,-.8,.3,-1.2h.3c.1,-.3,.2,-.5,.3,-.8c.2,-.1,.4,-.2,.6,-.3c.1,-.4,.2,-.8,.3,-1.2h.3c.1,-.3,.2,-.6,.3,-.9l.3,-.2c.1,0,.2,-.1,.3,-.1c.1,-.4,.2,-.8,.3,-1.2c.2,-.1,.3,-.2,.5,-.3c.2,-.6,.4,-1.2,.6,-1.7l.6,-.3c.1,-.4,.2,-.8,.3,-1.2c.1,-.1,.2,-.1,.3,-.2l.3,-.1c.2,-.6,.4,-1.2,.6,-1.8h.3v-.6h.3c.2,-.6,.4,-1.2,.6,-1.8h.3c.1,-.5,.2,-1.1,.3,-1.7h.3V962h.3c.1,-.7,.2,-1.4,.3,-2.1h.3c.1,-.7,.1,-1.4,.2,-2h.3c.2,-.6,.4,-1.2,.6,-1.8h.3c.1,-.4,.2,-.8,.3,-1.2l.6,-.3c.2,-.6,.4,-1.2,.6,-1.8c.2,-.1,.4,-.2,.6,-.3V952h.3v-.6c.2,-.1,.4,-.2,.6,-.3v-.6c1.4,-1.7,2.7,-3.4,4.1,-5c1,-.7,2.5,-.9,3.3,-1.8h.1c0,0,.1,0,.2,0c2.7,0,5.2,.8,7.4,1.5c.5,.2,1,.4,1.4,.6c.7,.1,1.4,.1,2.1,.2v.3c.7,.1,1.4,.2,2,.3v.3h.6v.3c1,.2,2,.4,3,.6v.3h.6v.3h.9v.3c.4,.1,.7,.2,1.1,.3v.3h.9v.3h.6v.3h.9v.3c.6,.2,1.2,.4,1.8,.6v.3h.6v.3c.6,.2,1.1,.4,1.7,.6c.1,.1,.2,.3,.3,.5h.6c.3,.4,.6,.8,.9,1.2c.3,.1,.6,.2,.9,.3v.6c.3,.2,.6,.4,.9,.6v.6c.2,.1,.4,.2,.6,.3c.5,1.7,1,3.3,1.4,5v3h.3c-.1,1.8,-.2,3.7,-.3,5.6h-.2v.8c-1,1.3,-2,2.6,-3,3.9h-.6c-.2,.3,-.4,.6,-.6,.9l-.6,.3v.6c-.3,.2,-.6,.3,-.9,.5v.6l-.3,.2c-.1,0,-.2,.1,-.2,.1c-.2,.6,-.4,1.2,-.6,1.8c-.2,.1,-.4,.2,-.6,.3v.6c-.2,.1,-.4,.2,-.6,.3v.6H155v.9c-.2,.1,-.4,.2,-.6,.3c-.2,.5,-.4,1.1,-.6,1.7c-.2,.1,-.4,.2,-.6,.3c-.1,.4,-.2,.8,-.3,1.2h-.3v.6h-.3v.6c-.2,.1,-.4,.2,-.6,.3v.6h-.3v.6h-.3v.5h-.2v.6c-.2,.1,-.4,.2,-.6,.3c-.2,.6,-.4,1.2,-.6,1.8c-.2,.1,-.4,.2,-.6,.3v.6h-.3v.6h-.3v.6h-.3v.6h-.3v.6h-.3c-.1,.3,-.2,.7,-.3,1.1c-.2,.1,-.4,.2,-.6,.3c-.2,.6,-.4,1.2,-.6,1.8c-.2,.1,-.4,.2,-.6,.3c-.2,.6,-.4,1.2,-.6,1.8h-.2c-.1,.3,-.2,.6,-.3,.9c-.1,0,-.2,0,-.3,.1l-.3,.1v.6h-.3v.6h-.3v.6h-.3v.6h-.3v.6c-.2,.1,-.4,.2,-.6,.3c-.1,.4,-.2,.8,-.3,1.2c-.2,.1,-.4,.2,-.6,.3c-.2,.6,-.4,1.1,-.6,1.7l-.3,.2c-.1,0,-.2,.1,-.3,.1v.6h-.3v.6h-.3v.6H139v.6h-.3v.6h-.2c-.1,.3,-.2,.6,-.3,.9c-.2,.1,-.4,.2,-.6,.3v.6h-.3c-.1,.3,-.2,.5,-.3,.8c-.2,.1,-.4,.2,-.6,.3v.6l-.3,.2c-.1,0,-.2,.1,-.3,.1c-.1,.3,-.2,.6,-.3,.9h-.3c-.1,.4,-.2,.8,-.3,1.2c-.5,.4,-1,.8,-1.5,1.2c-.3,.4,-.6,.8,-.8,1.2c-.1,0,-.2,0,-.3,.1c-.7,.3,-2.3,.8,-3.8,1.1c-.1,0,-.2,0,-.3,0c-.3,0,-.5,0,-.8,.1c-.1,0,-.2,0,-.3,0Z"/></clipPath>
<clipPath id="c1_25"><path d="M139.3,847.7v-18h30.2v18Z"/></clipPath>
<clipPath id="c2_25"><path d="M127.1,442.8c-.4,0,-.7,-.1,-1,-.2c-4,-1.2,-7.7,-3.2,-11,-5.3c-.6,-.2,-1.1,-.4,-1.7,-.6c-.1,-.2,-.2,-.4,-.3,-.6h-.6c-.1,-.2,-.2,-.4,-.3,-.6h-.6c-.1,-.1,-.2,-.3,-.3,-.5c-.6,-.2,-1.2,-.4,-1.8,-.6c-.1,-.2,-.2,-.4,-.3,-.6c-.4,-.1,-.8,-.2,-1.1,-.3c-.1,-.2,-.2,-.4,-.3,-.6h-.6c-.1,-.2,-.2,-.4,-.3,-.6h-.6c-.1,-.2,-.2,-.4,-.3,-.6c-.4,-.1,-.8,-.2,-1.2,-.3v-.3c-.3,-.1,-.6,-.2,-.9,-.3c-.1,-.2,-.2,-.4,-.3,-.6H103c-.1,-.2,-.2,-.4,-.3,-.6c-.6,-.4,-1.1,-.9,-1.7,-1.4v-.6c-.3,-.2,-.6,-.4,-.9,-.6c-.4,-.5,0,-.7,-.6,-1.2c0,-.4,0,-.7,0,-1.1c0,-2.2,.2,-3.8,.9,-5.4v-.9c.2,-.1,.4,-.2,.6,-.3c.3,-.9,.6,-1.7,.9,-2.6c.1,-.1,.3,-.2,.5,-.3v-.9c.2,-.1,.4,-.2,.6,-.3v-.6h.3v-.6h.3v-.6h.3v-.6h.3V411c.2,-.1,.4,-.1,.6,-.2l.3,-1.2c.2,-.1,.4,-.2,.6,-.3v-.9c.2,-.1,.4,-.2,.6,-.3v-.6h.3v-.6h.3v-.6h.3v-.6h.3c.1,-.3,.2,-.6,.3,-.9c.2,-.1,.3,-.1,.5,-.2c.2,-.6,.4,-1.2,.6,-1.8c.2,-.1,.4,-.2,.6,-.3c.2,-.6,.4,-1.2,.6,-1.8c.2,-.1,.4,-.2,.6,-.3l.3,-1.2h.3c.1,-.3,.2,-.6,.3,-.8c.2,-.1,.4,-.2,.6,-.3l.3,-1.2h.3l.3,-.9c.2,-.1,.4,-.2,.6,-.3l.3,-1.2c.2,-.1,.3,-.2,.5,-.3c.2,-.6,.4,-1.2,.6,-1.8c.2,0,.4,-.1,.6,-.2c.1,-.4,.2,-.8,.3,-1.2c.2,-.1,.4,-.2,.6,-.3c.2,-.6,.4,-1.2,.6,-1.8h.3v-.6h.3c.2,-.6,.4,-1.2,.6,-1.8h.3c.1,-.5,.2,-1.1,.3,-1.7h.3v-.6h.3c.1,-.7,.2,-1.4,.3,-2.1h.3c.1,-.7,.1,-1.4,.2,-2h.3c.2,-.6,.4,-1.2,.6,-1.8h.3c.1,-.4,.2,-.8,.3,-1.2c.2,-.1,.4,-.2,.6,-.3c.2,-.6,.4,-1.2,.6,-1.8c.2,-.1,.4,-.2,.6,-.3v-.6h.3v-.5c.2,-.1,.4,-.2,.6,-.3v-.6c1.4,-1.7,2.7,-3.4,4.1,-5c1,-.8,2.5,-.9,3.3,-1.8h.1c0,0,.1,0,.2,0c2.6,0,5,.7,7.1,1.4c.6,.2,1.2,.4,1.7,.7c.7,0,1.4,.1,2.1,.2v.3c.7,.1,1.4,.2,2,.3v.3h.6v.3c1,.2,2,.4,3,.6v.3h.6v.3h.9v.3c.4,.1,.7,.2,1.1,.3v.3h.9v.3h.6v.3h.9v.3c.6,.2,1.2,.4,1.8,.6v.3h.6v.3c.6,.2,1.1,.4,1.7,.5l.2,.3c0,.1,.1,.2,.1,.3h.6c.3,.4,.6,.8,.9,1.2c.3,.1,.6,.2,.9,.3v.6c.3,.2,.6,.4,.9,.6v.6c.2,.1,.4,.2,.6,.3c.5,1.7,1,3.3,1.4,5v3h.3c-.1,1.8,-.2,3.7,-.3,5.6h-.2v.8c-1,1.3,-2,2.6,-3,3.9h-.6c-.2,.3,-.4,.6,-.6,.9c-.2,.1,-.4,.2,-.6,.3v.6c-.3,.1,-.6,.3,-.9,.5v.6c-.2,.1,-.4,.2,-.5,.3c-.2,.6,-.4,1.2,-.6,1.8c-.2,.1,-.4,.2,-.6,.3v.6c-.2,.1,-.4,.2,-.6,.3v.6H155v.9c-.2,.1,-.4,.2,-.6,.3c-.2,.5,-.4,1.1,-.6,1.7c-.2,.1,-.4,.2,-.6,.3l-.1,.4c0,.3,-.1,.5,-.2,.8h-.3v.6h-.3v.6c-.2,.1,-.4,.2,-.6,.3v.6h-.3v.6h-.3v.5h-.2v.6c-.2,.1,-.4,.2,-.6,.3c-.2,.6,-.4,1.2,-.6,1.8c-.2,.1,-.4,.2,-.6,.3v.6h-.3v.6h-.3v.6h-.3v.6h-.3v.6h-.3c-.1,.2,-.1,.4,-.2,.7c0,.1,-.1,.3,-.1,.4c-.2,.1,-.4,.2,-.6,.3c-.2,.6,-.4,1.2,-.6,1.8c-.2,.1,-.4,.2,-.6,.3c-.2,.6,-.4,1.2,-.6,1.8h-.2c-.1,.3,-.2,.6,-.3,.8c-.2,.1,-.4,.2,-.6,.3v.6h-.3v.6h-.3v.6h-.3v.6h-.3v.6c-.2,.1,-.4,.2,-.6,.3l-.3,1.2c-.2,.1,-.4,.2,-.6,.3c-.2,.6,-.4,1.1,-.6,1.7c-.2,.1,-.4,.2,-.6,.3v.6h-.3v.6h-.3v.6H139v.6h-.3v.6h-.2c-.1,.3,-.2,.6,-.3,.9c-.2,.1,-.4,.2,-.6,.3v.6h-.3c-.1,.3,-.2,.5,-.3,.8c-.2,.1,-.4,.2,-.6,.3v.6c-.2,.1,-.4,.2,-.6,.3c-.1,.3,-.2,.6,-.3,.9h-.3c0,.2,-.1,.4,-.1,.6l-.2,.6c-.5,.4,-1,.8,-1.5,1.2c-.3,.4,-.6,.8,-.8,1.1q-.1,.1,-.2,.1c0,0,-.1,.1,-.1,.1c-.7,.3,-2.1,.8,-3.6,1c-.5,.1,-1.1,.2,-1.6,.2Z"/></clipPath>
<clipPath id="c3_25"><path d="M139.3,558.5v-18h30.2v18Z"/></clipPath>
<style type="text/css"><![CDATA[
.g0_25{
fill: #FAAF82;
}
.g1_25{
fill: none;
stroke: #000;
stroke-width: 0.763;
}
.g2_25{
fill: #FFF1E0;
}
.g3_25{
fill: none;
stroke: #0EA5DF;
stroke-width: 3.055;
}
.g4_25{
fill: #E8F1FA;
}
.g5_25{
fill: #0C4B7F;
}
.g6_25{
fill: #0EA5DF;
}
.g7_25{
fill: #FFF;
}
.g8_25{
fill: none;
stroke: #000;
stroke-width: 0.802;
}
]]></style>
</defs>
<path d="M835.8,1129.8h73.6v-51.5H835.8v51.5Z" class="g0_25"/>
<path d="M204.8,371.6h17.3m15.1,0h17.3m174.6,0h17.3m15,0h28.7m161.3,0h38.3m15,0H722M223.6,677.9h11.9m212.3,0h12m210.4,0h11.9" class="g1_25"/>
<image clip-path="url(#c0_25)" preserveAspectRatio="none" x="97" y="941" width="70" height="82" xlink:href="img/p1.jpg"/>
<path d="M186.3,202.9h648V65.4h-648V202.9Z" class="g2_25"/>
<path d="M73.6,329.2H835.8M73.6,634.2H835.8" class="g3_25"/>
<path d="M186.3,885.6h648v-66h-648v66Z" class="g2_25"/>
<path d="M183.7,1077.3H834.8V898.2H183.7v179.1Z" class="g4_25"/>
<path d="M72.5,899.1H835.8" class="g3_25"/>
<path d="M248.2,977.4h11.9m58.6,0h11.9m57.7,0h11.9m60.3,0h11.9M249.3,1016h17.3m52.1,0H336m52.3,0h17.4m54.8,0h17.3m-228.5,38.7h17.3m52.1,0H336m52.3,0h17.4m54.8,0h17.3M568.5,921.8h28.7m54.9,0h28.6m41,0h28.6m39,0H818m-250,91.4h17.3m66.8,0h17.3m52.3,0H739m54.9,0h17.3m-241.6,38.6h28.7m53.8,0h28.6m41,0h28.6m39,0H818" class="g1_25"/>
<path d="M134.3,103.1H174V65.6H134.3v37.5Z" class="g5_25"/>
<path d="M134.3,857.1H174V819.6H134.3v37.5Z" class="g6_25"/>
<path clip-path="url(#c1_25)" d="M154.6,842.1c-2.1,.2,-3.8,-1.5,-3.7,-3.6c.1,-1.7,1.5,-3.1,3.2,-3.2c2.1,-.1,3.8,1.6,3.7,3.7c-.1,1.7,-1.5,3,-3.2,3.1m.2,3c-3.9,.2,-7,-2.9,-6.8,-6.8c.2,-3.1,2.8,-5.7,5.9,-5.9c3.9,-.2,7,2.9,6.8,6.8c-.2,3.1,-2.8,5.7,-5.9,5.9m-.4,-15.4c-5.8,0,-11,3.2,-14.9,8.3c-.3,.4,-.3,1,0,1.4c3.9,5.2,9.1,8.3,14.9,8.3c5.7,0,11,-3.1,14.8,-8.2c.3,-.5,.3,-1.1,0,-1.5c-3.8,-5.1,-9.1,-8.3,-14.8,-8.3Z" class="g7_25"/>
<path d="M73.6,221.6H835.8" class="g3_25"/>
<image clip-path="url(#c2_25)" preserveAspectRatio="none" x="97" y="363" width="70" height="82" xlink:href="img/p2.jpg"/>
<path d="M204.2,429.7h17.3m-17.8,46.8H221" class="g1_25"/>
<path d="M429,430.5h18.2" class="g8_25"/>
<path d="M426.3,486.4h28.6M650.3,429.7h38.2m-52.9,55h17.3" class="g1_25"/>
<path d="M186.3,619.7h648V530.4h-648v89.3Z" class="g2_25"/>
<path d="M134.3,567.9H174V530.4H134.3v37.5Z" class="g6_25"/>
<path clip-path="url(#c3_25)" d="M154.6,553c-2.1,.1,-3.8,-1.6,-3.7,-3.6c.1,-1.7,1.5,-3.1,3.2,-3.2c2.1,-.2,3.8,1.5,3.7,3.6c-.1,1.7,-1.5,3.1,-3.2,3.2m.2,2.9c-3.9,.3,-7,-2.9,-6.8,-6.7c.2,-3.2,2.8,-5.8,5.9,-6c3.9,-.2,7,3,6.8,6.8c-.2,3.1,-2.8,5.7,-5.9,5.9m-.4,-15.3c-5.8,0,-11,3.1,-14.9,8.3c-.3,.4,-.3,1,0,1.4c3.9,5.1,9.1,8.3,14.9,8.3c5.7,0,11,-3.2,14.8,-8.3c.3,-.4,.3,-1,0,-1.4c-3.8,-5.2,-9.1,-8.3,-14.8,-8.3Z" class="g7_25"/>
<path d="M223.2,742.2h11.9m58.5,0h11.9m143,0h11.9m58.5,0h11.9m138.9,0h12m58.5,0h11.9" class="g1_25"/>
</svg>
