<?xml version="1.0" encoding="UTF-8" standalone="no"?>
<!DOCTYPE svg PUBLIC "-//W3C//DTD SVG 1.1//EN"
"http://www.w3.org/Graphics/SVG/1.1/DTD/svg11.dtd">
<svg viewBox="0 0 909 1147" version="1.1" xmlns="http://www.w3.org/2000/svg" xmlns:xlink="http://www.w3.org/1999/xlink">
<defs>
<clipPath id="c0_45"><path d="M557.6,593.3V367.2H783.7V593.3Z"/></clipPath>
<style type="text/css"><![CDATA[
.g0_45{
fill: #FAAF82;
}
.g1_45{
fill: #E8F1FA;
}
.g2_45{
fill: none;
stroke: #0EA5DF;
stroke-width: 3.055;
}
.g3_45{
fill: none;
stroke: #0EA5DF;
stroke-width: 0.763;
stroke-miterlimit: 10;
}
.g4_45{
fill: #FCD3C1;
}
.g5_45{
fill: none;
stroke: #000;
stroke-width: 0.33;
stroke-linejoin: round;
}
.g6_45{
fill: #E0DEEF;
}
.g7_45{
fill: #E3F2E7;
}
.g8_45{
fill: #FFFCD5;
}
.g9_45{
fill: #000;
}
.ga_45{
fill: none;
stroke: #BCBEC0;
stroke-width: 0.763;
stroke-linejoin: round;
}
.gb_45{
fill: none;
stroke: #000;
stroke-width: 0.763;
stroke-linejoin: round;
}
.gc_45{
fill: #F58345;
}
]]></style>
</defs>
<path d="M835.8,1129.8h73.6v-51.5H835.8v51.5Z" class="g0_45"/>
<path d="M184.2,1078.3H835.3V884.1H184.2v194.2Z" class="g1_45"/>
<path d="M73.1,885H836.4" class="g2_45"/>
<path d="M216.3,87h128M216.7,108.3V87.4M344.3,87H461.2M344.3,108.3V87.4M461.2,87H578.1M461.2,108.3V87.4M578.1,87h117m-117,21.3V87.4m117,-.4H812.4M695.1,108.3V87.4M812,108.3V87.4M216.3,108.6h128M216.7,134.3V109m127.6,-.4H461.2M344.3,134.3V109m116.9,-.4H578.1M461.2,134.3V109m116.9,-.4h117m-117,25.7V109m117,-.4H812.4M695.1,134.3V109M812,134.3V109M216.3,134.6h128m0,0H461.2m0,0H578.1m0,0h117m0,0H812.4m-598,37.3H365.9m-151.1,21V172.3m151.1,-.4H520.6m-154.7,21V172.3m154.7,-.4H667.8m-147.2,21V172.3m147.2,-.4H814m-146.2,21V172.3m145.8,20.6V172.3m-599.2,21H365.9M214.8,265.9V193.7m151.1,-.4H520.6M365.9,265.9V193.7m154.7,-.4H667.8M520.6,265.9V193.7m147.2,-.4H814M667.8,265.9V193.7m145.8,72.2V193.7M214.4,266.2H365.9m0,0H520.6m0,0H667.8m0,0H814M214.4,297.7h128M214.8,317.1V298m127.6,-.3H459.3M342.4,317.1V298m116.9,-.3H576.2M459.3,317.1V298m116.9,-.3h117m-117,19.4V298m117,-.3H810.5M693.2,317.1V298m116.9,19.1V298M214.4,317.5h128m-127.6,21V317.9m127.6,-.4H459.3m-116.9,21V317.9m116.9,-.4H576.2m-116.9,21V317.9m116.9,-.4h117m-117,21V317.9m117,-.4H810.5m-117.3,21V317.9m116.9,20.6V317.9m-595.7,21h128m0,0H459.3m0,0H576.2m0,0h117m0,0H810.5" class="g3_45"/>
<path d="M72.8,357.9H835" class="g2_45"/>
<path fill-rule="evenodd" d="M670,367.5c62,0,112.3,50.2,112.3,112.2C782.3,541.6,732,591.9,670,591.9c-61.9,0,-112.2,-50.3,-112.2,-112.2c0,-62,50.3,-112.2,112.2,-112.2Z" class="g4_45"/>
<path d="M670,367.5c62,0,112.3,50.2,112.3,112.2C782.3,541.6,732,591.9,670,591.9c-61.9,0,-112.2,-50.3,-112.2,-112.2c0,-62,50.3,-112.2,112.2,-112.2Z" class="g5_45"/>
<path fill-rule="evenodd" d="M670.1,479.8l-.3,-112.2c33.4,-.1,65.1,14.7,86.5,40.4Z" class="g6_45"/>
<path d="M670.1,479.8l-.3,-112.2c33.4,-.1,65.1,14.7,86.5,40.4l-86.2,71.8Z" class="g5_45"/>
<g clip-path="url(#c0_45)">
<path fill-rule="evenodd" d="M670.1,479.6l86.4,-71.7c37.8,45.6,33.6,112.8,-9.5,153.4Z" class="g7_45"/>
<path d="M670.1,479.6l86.4,-71.7c37.8,45.6,33.6,112.8,-9.5,153.4L670.1,479.6Z" class="g5_45"/>
<path fill-rule="evenodd" d="M670.3,479.5l76.3,82.3c-39.5,36.6,-99.4,40,-142.8,8.1Z" class="g8_45"/>
<path d="M670.3,479.5l76.3,82.3c-39.5,36.6,-99.4,40,-142.8,8.1l66.5,-90.4Z" class="g5_45"/>
</g>
<path d="M564.8,464.7l4.3,-5.7l-3.8,-5.3h1.8l2,2.8c.4,.6,.7,1.1,.8,1.4c.3,-.4,.6,-.8,.9,-1.3l2.2,-2.9h1.6l-3.9,5.2l4.2,5.8h-1.8l-2.8,-3.9c-.1,-.3,-.3,-.5,-.4,-.8c-.3,.4,-.5,.7,-.6,.9l-2.7,3.8Z" class="g9_45"/>
<path d="M575.6,467.7l-.2,-1.2c.3,0,.6,.1,.8,.1c.3,0,.5,-.1,.7,-.2c.2,-.1,.3,-.2,.5,-.4c0,-.1,.2,-.4,.4,-1c0,-.1,0,-.2,.1,-.3l-3,-7.9h1.4l1.7,4.5c.2,.6,.4,1.2,.6,1.9c.1,-.6,.3,-1.2,.5,-1.8l1.7,-4.6h1.3l-3,8c-.3,.9,-.5,1.5,-.7,1.8c-.3,.4,-.5,.8,-.8,1c-.4,.2,-.7,.3,-1.2,.3c-.2,0,-.5,-.1,-.8,-.2Z" class="g9_45"/>
<path d="M583.8,456.8h5.6v6.8h.8v3.3h-1.1v-2.2h-6.2v2.2h-1.1v-3.3h.7c.9,-1.3,1.4,-3.6,1.3,-6.8m1.2,1.1c-.1,2.5,-.5,4.4,-1.2,5.7H588v-5.7Z" class="g9_45"/>
<path d="M591.2,460.7c0,-1.5,.4,-2.5,1.2,-3.2c.7,-.6,1.5,-.9,2.5,-.9c1.1,0,2,.3,2.7,1c.7,.8,1,1.7,1,3c0,1,-.1,1.8,-.4,2.4c-.4,.6,-.8,1,-1.4,1.4c-.6,.3,-1.2,.5,-1.9,.5c-1.1,0,-2,-.4,-2.7,-1.1c-.7,-.7,-1,-1.7,-1,-3.1m1.4,0c0,1,.2,1.8,.6,2.3c.5,.5,1,.7,1.7,.7c.7,0,1.2,-.2,1.7,-.7c.4,-.5,.6,-1.3,.6,-2.3c0,-1,-.2,-1.8,-.6,-2.3c-.5,-.5,-1,-.7,-1.7,-.7c-.7,0,-1.2,.2,-1.7,.7c-.4,.5,-.6,1.3,-.6,2.3Z" class="g9_45"/>
<path d="M604.8,456.8v3.4c.4,0,.7,-.1,.9,-.3c.2,-.1,.4,-.6,.8,-1.4c.3,-.8,.6,-1.2,.8,-1.4c.3,-.2,.6,-.3,1.2,-.3h.5v1.1h-.4c-.4,0,-.6,0,-.7,.1c-.1,.1,-.2,.4,-.5,1c-.2,.5,-.3,.9,-.5,1.1c-.2,.2,-.4,.3,-.8,.5c.6,.2,1.1,.7,1.7,1.6l1.5,2.5h-1.5l-1.4,-2.5c-.3,-.5,-.6,-.8,-.8,-1c-.2,-.1,-.5,-.2,-.8,-.2v3.7h-1.4V461c-.3,0,-.5,.1,-.7,.2c-.3,.2,-.5,.5,-.8,1l-1.5,2.5H599l1.4,-2.5c.6,-.9,1.2,-1.4,1.7,-1.6c-.4,-.2,-.6,-.4,-.8,-.6c-.1,-.2,-.4,-.7,-.7,-1.5c-.1,-.3,-.2,-.5,-.4,-.5c-.1,-.1,-.3,-.1,-.5,-.1c-.1,0,-.2,0,-.4,0v-1.1h.2c.5,0,.8,0,1.1,0c.2,.1,.4,.2,.5,.4c.2,.2,.4,.7,.7,1.3c.3,.8,.6,1.3,.7,1.4c.2,.2,.5,.3,.9,.3v-3.4Z" class="g9_45"/>
<path d="M615.7,462.1l1.3,.2c-.2,.8,-.6,1.4,-1.2,1.9c-.6,.4,-1.3,.7,-2.2,.7c-1.2,0,-2.1,-.4,-2.8,-1.1c-.7,-.7,-1,-1.7,-1,-3c0,-1.4,.3,-2.4,1,-3.1c.7,-.8,1.6,-1.1,2.7,-1.1c1,0,1.9,.3,2.6,1.1c.7,.7,1,1.7,1,3c0,.1,0,.2,0,.4h-5.9c0,.8,.3,1.5,.7,2c.5,.4,1,.6,1.7,.6c.5,0,.9,-.1,1.2,-.3c.4,-.3,.7,-.7,.9,-1.3M611.2,460h4.5c-.1,-.7,-.3,-1.2,-.5,-1.5c-.5,-.6,-1,-.8,-1.7,-.8c-.6,0,-1.1,.2,-1.6,.6c-.4,.4,-.6,1,-.7,1.7Z" class="g9_45"/>
<path d="M623.9,461.8l1.3,.1c-.1,1,-.5,1.7,-1.1,2.2c-.6,.5,-1.3,.8,-2.2,.8c-1.1,0,-1.9,-.4,-2.6,-1.1c-.6,-.7,-1,-1.7,-1,-3.1c0,-.8,.2,-1.6,.4,-2.2c.3,-.6,.8,-1.1,1.3,-1.4c.6,-.4,1.3,-.5,1.9,-.5c.9,0,1.6,.2,2.1,.6c.6,.5,.9,1.1,1.1,1.9l-1.3,.2c-.1,-.6,-.4,-1,-.7,-1.2c-.3,-.3,-.7,-.4,-1.1,-.4c-.7,0,-1.2,.2,-1.7,.7c-.4,.5,-.6,1.3,-.6,2.3c0,1.1,.2,1.8,.6,2.3c.4,.5,1,.7,1.6,.7c.5,0,1,-.1,1.3,-.4c.4,-.4,.6,-.9,.7,-1.5Z" class="g9_45"/>
<path d="M625.6,456.8h6.5v1.1h-2.6v6.8h-1.3v-6.8h-2.6Z" class="g9_45"/>
<path d="M633.4,456.8h3.1c.7,0,1.3,0,1.7,.1c.3,.2,.7,.4,.9,.7c.3,.4,.4,.8,.4,1.3c0,.3,-.1,.7,-.2,.9c-.2,.3,-.4,.6,-.7,.7c.4,.2,.7,.4,.9,.7c.3,.4,.4,.8,.4,1.3c-.1,.7,-.3,1.3,-.8,1.6c-.5,.4,-1.2,.6,-2.2,.6h-3.5Zm1.3,3.3h1.4c.6,0,1,0,1.2,-.1c.2,-.1,.4,-.2,.6,-.4c.2,-.1,.3,-.4,.3,-.6c0,-.4,-.2,-.7,-.5,-.9c-.3,-.2,-.8,-.2,-1.5,-.2h-1.5Zm0,3.5h1.8c.7,0,1.3,-.1,1.6,-.3c.2,-.2,.4,-.5,.4,-.9c0,-.3,-.1,-.5,-.2,-.7c-.2,-.2,-.4,-.4,-.7,-.4c-.3,-.1,-.7,-.1,-1.3,-.1h-1.6Z" class="g9_45"/>
<path d="M646.7,462.1l1.4,.2c-.2,.8,-.6,1.4,-1.2,1.9c-.6,.4,-1.3,.7,-2.3,.7c-1.1,0,-2,-.4,-2.7,-1.1c-.7,-.7,-1,-1.7,-1,-3c0,-1.4,.3,-2.4,1,-3.1c.7,-.8,1.6,-1.1,2.7,-1.1c1,0,1.9,.3,2.6,1.1c.6,.7,1,1.7,1,3c0,.1,0,.2,0,.4h-5.9c0,.8,.3,1.5,.7,2c.4,.4,1,.6,1.6,.6c.5,0,1,-.1,1.3,-.3c.4,-.3,.6,-.7,.8,-1.3M642.3,460h4.5c-.1,-.7,-.3,-1.2,-.6,-1.5c-.4,-.6,-.9,-.8,-1.6,-.8c-.6,0,-1.2,.2,-1.6,.6c-.4,.4,-.6,1,-.7,1.7Z" class="g9_45"/>
<path d="M649.8,456.8h1.4v3.3h3.7v-3.3h1.3v7.9h-1.3v-3.5h-3.7v3.5h-1.4Z" class="g9_45"/>
<path d="M663.4,463.7c-.5,.4,-1,.7,-1.4,.9c-.5,.2,-1,.3,-1.5,.3c-.9,0,-1.5,-.3,-2,-.7c-.5,-.4,-.7,-1,-.7,-1.6c0,-.4,.1,-.8,.3,-1.1c.1,-.3,.4,-.6,.6,-.7c.3,-.2,.7,-.4,1,-.5c.3,-.1,.7,-.1,1.2,-.2c1.1,-.1,1.9,-.3,2.4,-.5c0,-.1,0,-.3,0,-.3c0,-.6,-.1,-.9,-.4,-1.2c-.3,-.3,-.8,-.4,-1.5,-.4c-.6,0,-1.1,.1,-1.4,.3c-.3,.2,-.5,.6,-.7,1.2L658,459c.1,-.5,.3,-1,.6,-1.3c.3,-.4,.7,-.7,1.2,-.8c.5,-.2,1.1,-.3,1.8,-.3c.7,0,1.2,.1,1.6,.2c.5,.2,.8,.4,1,.6c.2,.3,.3,.6,.4,.9c0,.3,.1,.7,.1,1.3v1.8c0,1.2,0,2,0,2.3c.1,.4,.2,.7,.4,1h-1.4c-.2,-.3,-.2,-.6,-.3,-1m-.1,-3c-.5,.2,-1.2,.4,-2.2,.5c-.5,.1,-.9,.2,-1.2,.3c-.2,.1,-.4,.2,-.5,.4c-.1,.2,-.2,.4,-.2,.6c0,.4,.2,.7,.4,.9c.3,.3,.7,.4,1.2,.4c.5,0,1,-.1,1.4,-.3c.4,-.3,.7,-.6,.9,-1c.1,-.3,.2,-.7,.2,-1.3Z" class="g9_45"/>
<path d="M576.4,473.8h6.2v7.9h-1.3v-6.8h-3.6v4c0,.9,0,1.5,-.1,1.8c0,.3,-.2,.5,-.4,.8c-.3,.2,-.7,.3,-1.2,.3c-.3,0,-.7,0,-1.1,-.1v-1.1h.6c.3,0,.5,0,.6,-.1c.1,0,.2,-.1,.2,-.2c.1,-.2,.1,-.6,.1,-1.3Z" class="g9_45"/>
<path d="M584.7,473.8H586v6.1l3.7,-6.1h1.5v7.9h-1.4v-6l-3.7,6h-1.4Z" class="g9_45"/>
<path d="M592.5,473.8h6.4v1.1h-2.6v6.8H595v-6.8h-2.5Z" class="g9_45"/>
<path d="M605.4,479.2l1.4,.2c-.2,.8,-.6,1.4,-1.2,1.8c-.6,.5,-1.3,.7,-2.3,.7c-1.1,0,-2,-.3,-2.7,-1.1c-.7,-.7,-1,-1.7,-1,-3c0,-1.3,.3,-2.3,1,-3.1c.7,-.7,1.6,-1.1,2.7,-1.1c1,0,1.9,.4,2.6,1.1c.6,.7,1,1.8,1,3.1c0,0,0,.2,0,.3H601c0,.9,.2,1.6,.7,2c.4,.5,1,.7,1.6,.7c.5,0,1,-.1,1.3,-.4c.4,-.2,.6,-.6,.8,-1.2M601,477h4.4c0,-.6,-.2,-1.1,-.5,-1.5c-.4,-.5,-.9,-.8,-1.6,-.8c-.6,0,-1.2,.3,-1.6,.7c-.4,.4,-.6,.9,-.7,1.6Z" class="g9_45"/>
<path d="M608.5,484.8v-11h1.2v1c.3,-.4,.6,-.7,1,-.9c.4,-.2,.8,-.3,1.3,-.3c.7,0,1.3,.2,1.8,.6c.5,.3,.9,.8,1.2,1.4c.3,.7,.4,1.4,.4,2.1c0,.8,-.2,1.6,-.5,2.2c-.2,.7,-.7,1.2,-1.2,1.5c-.6,.3,-1.2,.5,-1.8,.5c-.4,0,-.8,-.1,-1.2,-.3c-.3,-.2,-.6,-.4,-.8,-.7v3.9Zm1.2,-7c0,1,.2,1.8,.6,2.3c.5,.5,1,.7,1.5,.7c.6,0,1.2,-.2,1.6,-.7c.4,-.5,.6,-1.3,.6,-2.4c0,-1,-.2,-1.8,-.6,-2.3c-.4,-.5,-.9,-.7,-1.5,-.7c-.6,0,-1.1,.3,-1.5,.8c-.5,.5,-.7,1.3,-.7,2.3Z" class="g9_45"/>
<path d="M622.2,480.8c-.5,.4,-1,.7,-1.5,.9c-.4,.1,-.9,.2,-1.4,.2c-.9,0,-1.6,-.2,-2,-.6c-.5,-.4,-.7,-1,-.7,-1.6c0,-.4,0,-.8,.2,-1.1c.2,-.3,.4,-.6,.7,-.8c.3,-.2,.6,-.3,1,-.4c.2,-.1,.6,-.2,1.2,-.2c1.1,-.2,1.9,-.3,2.4,-.5c0,-.2,0,-.3,0,-.3c0,-.6,-.2,-1,-.4,-1.2c-.4,-.3,-.9,-.4,-1.5,-.4c-.7,0,-1.1,.1,-1.4,.3c-.3,.2,-.6,.6,-.7,1.2l-1.3,-.2c.1,-.6,.3,-1,.6,-1.4c.2,-.3,.6,-.6,1.2,-.8c.5,-.2,1.1,-.3,1.8,-.3c.6,0,1.2,.1,1.6,.3c.4,.1,.7,.3,.9,.6c.2,.2,.4,.5,.5,.9c0,.2,0,.6,0,1.2v1.8c0,1.3,0,2.1,.1,2.4c.1,.3,.2,.6,.3,.9h-1.4c-.1,-.2,-.2,-.6,-.2,-.9m-.1,-3c-.5,.2,-1.3,.3,-2.2,.5c-.6,.1,-1,.1,-1.2,.2c-.2,.1,-.4,.3,-.5,.5c-.2,.2,-.2,.4,-.2,.6c0,.4,.1,.7,.4,.9c.3,.2,.7,.4,1.2,.4c.5,0,1,-.1,1.4,-.4c.4,-.2,.7,-.5,.8,-.9c.2,-.3,.3,-.8,.3,-1.3Z" class="g9_45"/>
<path d="M624.4,473.8h6.5v1.1h-2.6v6.8H627v-6.8h-2.6Z" class="g9_45"/>
<path d="M632.3,484.8l-.2,-1.3c.3,.1,.6,.2,.8,.2c.3,0,.5,-.1,.7,-.2c.2,-.1,.3,-.2,.4,-.4c.1,-.1,.3,-.5,.5,-1c0,-.1,0,-.2,.1,-.3l-3,-8H633l1.7,4.6c.2,.6,.4,1.2,.5,1.8c.2,-.6,.4,-1.2,.6,-1.8l1.7,-4.6h1.3l-3,8.1c-.3,.8,-.6,1.4,-.7,1.8c-.3,.4,-.5,.7,-.9,.9c-.3,.3,-.6,.4,-1.1,.4c-.2,0,-.5,-.1,-.8,-.2Z" class="g9_45"/>
<path d="M639.8,484.8v-11H641v1c.3,-.4,.6,-.7,1,-.9c.4,-.2,.8,-.3,1.3,-.3c.7,0,1.3,.2,1.8,.6c.5,.3,.9,.8,1.2,1.4c.2,.7,.4,1.4,.4,2.1c0,.8,-.2,1.6,-.5,2.2c-.2,.7,-.7,1.2,-1.2,1.5c-.6,.3,-1.2,.5,-1.8,.5c-.4,0,-.8,-.1,-1.2,-.3c-.3,-.2,-.6,-.4,-.9,-.7v3.9Zm1.2,-7c0,1,.2,1.8,.6,2.3c.4,.5,1,.7,1.5,.7c.6,0,1.1,-.2,1.6,-.7c.4,-.5,.6,-1.3,.6,-2.4c0,-1,-.2,-1.8,-.6,-2.3c-.4,-.5,-.9,-.7,-1.5,-.7c-.6,0,-1.1,.3,-1.5,.8c-.5,.5,-.7,1.3,-.7,2.3Z" class="g9_45"/>
<path d="M653.5,480.8c-.5,.4,-1,.7,-1.5,.9c-.4,.1,-.9,.2,-1.4,.2c-.9,0,-1.6,-.2,-2.1,-.6c-.4,-.4,-.7,-1,-.7,-1.6c0,-.4,.1,-.8,.3,-1.1c.2,-.3,.4,-.6,.7,-.8c.3,-.2,.6,-.3,1,-.4c.2,-.1,.6,-.2,1.2,-.2c1,-.2,1.8,-.3,2.4,-.5c0,-.2,0,-.3,0,-.3c0,-.6,-.2,-1,-.4,-1.2c-.4,-.3,-.9,-.4,-1.5,-.4c-.7,0,-1.1,.1,-1.4,.3c-.3,.2,-.6,.6,-.7,1.2l-1.3,-.2c.1,-.6,.3,-1,.6,-1.4c.2,-.3,.6,-.6,1.2,-.8c.5,-.2,1.1,-.3,1.7,-.3c.7,0,1.3,.1,1.7,.3c.4,.1,.7,.3,.9,.6c.2,.2,.4,.5,.4,.9c.1,.2,.1,.6,.1,1.2v1.8c0,1.3,0,2.1,.1,2.4c.1,.3,.2,.6,.3,.9h-1.4c-.1,-.2,-.2,-.6,-.2,-.9m-.1,-3c-.5,.2,-1.3,.3,-2.2,.5c-.6,.1,-1,.1,-1.2,.2c-.2,.1,-.4,.3,-.5,.5c-.2,.2,-.2,.4,-.2,.6c0,.4,.1,.7,.4,.9c.3,.2,.6,.4,1.2,.4c.5,0,.9,-.1,1.4,-.4c.4,-.2,.7,-.5,.8,-.9c.2,-.3,.3,-.8,.3,-1.3Z" class="g9_45"/>
<path d="M604.9,498.8v-2.6h-4.7V495l5,-7.1h1.1V495h1.4v1.2h-1.4v2.6Zm0,-3.8v-5l-3.4,5Z" class="g9_45"/>
<path d="M609.1,493.4c0,-1.3,.1,-2.3,.4,-3.1c.3,-.8,.7,-1.4,1.2,-1.8c.5,-.5,1.2,-.7,2,-.7c.6,0,1.1,.1,1.5,.4c.5,.2,.8,.6,1.1,1c.3,.4,.5,1,.7,1.6c.2,.7,.2,1.5,.2,2.6c0,1.3,-.1,2.3,-.4,3.1c-.2,.8,-.6,1.4,-1.1,1.9c-.6,.4,-1.2,.6,-2,.6c-1.1,0,-1.9,-.4,-2.5,-1.1c-.7,-.9,-1.1,-2.4,-1.1,-4.5m1.4,0c0,1.8,.2,3,.6,3.6c.4,.6,.9,.9,1.6,.9c.6,0,1.1,-.3,1.5,-.9c.4,-.6,.7,-1.8,.7,-3.6c0,-1.8,-.3,-3,-.7,-3.6c-.4,-.6,-.9,-.9,-1.5,-.9c-.7,0,-1.2,.3,-1.5,.8c-.5,.7,-.7,1.9,-.7,3.7Z" class="g9_45"/>
<path d="M617.9,490.5c0,-.8,.1,-1.4,.5,-2c.4,-.5,1,-.8,1.7,-.8c.7,0,1.3,.2,1.8,.7c.4,.5,.6,1.2,.6,2.2c0,.9,-.2,1.6,-.7,2.1c-.4,.5,-1,.8,-1.6,.8c-.7,0,-1.2,-.3,-1.7,-.8c-.4,-.5,-.6,-1.2,-.6,-2.2m2.3,-1.9c-.3,0,-.6,.2,-.8,.4c-.3,.3,-.4,.9,-.4,1.6c0,.7,.1,1.2,.4,1.5c.2,.3,.5,.4,.8,.4c.3,0,.6,-.1,.8,-.4c.2,-.3,.4,-.8,.4,-1.6c0,-.7,-.2,-1.2,-.4,-1.5c-.2,-.2,-.5,-.4,-.8,-.4m0,10.6l6,-11.5h1.1l-6,11.5Zm4.7,-3c0,-.7,.2,-1.4,.6,-2c.4,-.5,1,-.8,1.7,-.8c.7,0,1.3,.3,1.7,.8c.5,.5,.7,1.2,.7,2.1c0,1,-.2,1.7,-.7,2.2c-.4,.5,-1,.7,-1.7,.7c-.6,0,-1.2,-.2,-1.6,-.7c-.5,-.5,-.7,-1.3,-.7,-2.3m2.4,-1.8c-.4,0,-.7,.1,-.9,.4c-.2,.3,-.3,.8,-.3,1.6c0,.7,.1,1.2,.3,1.5c.3,.2,.5,.4,.9,.4c.3,0,.6,-.2,.8,-.4c.2,-.3,.3,-.9,.3,-1.6c0,-.7,-.1,-1.2,-.3,-1.5c-.2,-.3,-.5,-.4,-.8,-.4Z" class="g9_45"/>
<path d="M697.3,467h8.6v10.9h-1.5v-9.6h-5.7v9.6h-1.4Z" class="g9_45"/>
<path d="M707.6,474c0,-1.5,.4,-2.6,1.2,-3.3c.7,-.6,1.5,-.9,2.5,-.9c1.1,0,2,.4,2.7,1.1c.6,.7,1,1.7,1,3c0,1,-.2,1.8,-.5,2.4c-.3,.6,-.7,1,-1.3,1.3c-.6,.4,-1.2,.5,-1.9,.5c-1.1,0,-2,-.3,-2.7,-1.1c-.7,-.7,-1,-1.7,-1,-3m1.3,0c0,1,.3,1.7,.7,2.3c.5,.5,1,.7,1.7,.7c.6,0,1.2,-.2,1.6,-.7c.5,-.6,.7,-1.3,.7,-2.4c0,-.9,-.2,-1.7,-.7,-2.2c-.4,-.5,-1,-.8,-1.6,-.8c-.7,0,-1.2,.3,-1.7,.8c-.4,.5,-.7,1.3,-.7,2.3Z" class="g9_45"/>
<path d="M716.6,470h6.2v7.9h-1.3v-6.8h-3.6v6.8h-1.3Z" class="g9_45"/>
<path d="M724.8,481l-.2,-1.3c.3,.1,.6,.1,.8,.1c.3,0,.5,0,.7,-.1c.2,-.1,.3,-.2,.5,-.4c0,-.2,.2,-.5,.4,-1c0,-.1,0,-.2,.1,-.3l-3,-8h1.4l1.7,4.6c.2,.6,.4,1.2,.5,1.8c.2,-.6,.4,-1.2,.6,-1.8L730,470h1.3l-3,8.1c-.3,.8,-.6,1.4,-.7,1.8c-.3,.4,-.5,.7,-.9,.9c-.3,.2,-.6,.4,-1.1,.4c-.2,0,-.5,-.1,-.8,-.2Z" class="g9_45"/>
<path d="M732.8,470H739v7.9h-1.3v-6.8h-3.6v4c0,.9,0,1.5,0,1.8c-.1,.3,-.3,.5,-.5,.8c-.3,.2,-.7,.3,-1.2,.3c-.3,0,-.7,0,-1.1,-.1v-1.1h.6c.3,0,.5,0,.6,-.1c.1,0,.2,-.1,.2,-.2c.1,-.2,.1,-.6,.1,-1.3Z" class="g9_45"/>
<path d="M747.3,470v7.9H746v-3.1h-.8c-.5,0,-.8,.1,-1.1,.2c-.2,.2,-.5,.5,-1,1.2l-1.2,1.7h-1.6l1.4,-2.1c.5,-.6,.9,-1,1.3,-1.1c-.7,-.1,-1.3,-.4,-1.7,-.8c-.3,-.5,-.5,-1,-.5,-1.6c0,-.7,.2,-1.2,.7,-1.6c.5,-.5,1.2,-.7,2.1,-.7Zm-1.3,1.1h-2c-.8,0,-1.3,.1,-1.5,.4c-.2,.2,-.3,.5,-.3,.9c0,.4,.1,.8,.5,1c.3,.2,.9,.3,1.8,.3H746Z" class="g9_45"/>
<path d="M749.3,481V470h1.3v1c.2,-.4,.6,-.7,.9,-.9c.4,-.2,.8,-.3,1.3,-.3c.7,0,1.3,.2,1.8,.6c.6,.3,.9,.8,1.2,1.4c.3,.7,.4,1.4,.4,2.1c0,.8,-.1,1.6,-.4,2.2c-.3,.7,-.7,1.2,-1.3,1.5c-.6,.3,-1.1,.5,-1.7,.5c-.5,0,-.9,-.1,-1.3,-.3c-.3,-.2,-.6,-.4,-.8,-.7V481Zm1.2,-7c0,1,.2,1.8,.7,2.3c.4,.5,.9,.7,1.5,.7c.6,0,1.1,-.2,1.5,-.7c.4,-.6,.6,-1.3,.6,-2.4c0,-1,-.2,-1.8,-.6,-2.3c-.4,-.5,-.9,-.7,-1.5,-.7c-.5,0,-1.1,.3,-1.5,.8c-.4,.5,-.7,1.3,-.7,2.3Z" class="g9_45"/>
<path d="M757.8,470h1.4v3.3h3.7V470h1.3v7.9h-1.3v-3.5h-3.7v3.5h-1.4Z" class="g9_45"/>
<path d="M771.4,477c-.5,.4,-.9,.7,-1.4,.9c-.5,.1,-1,.2,-1.5,.2c-.9,0,-1.5,-.2,-2,-.6c-.5,-.4,-.7,-1,-.7,-1.7c0,-.3,.1,-.7,.3,-1c.1,-.3,.4,-.6,.7,-.8c.2,-.2,.6,-.3,.9,-.4c.3,-.1,.7,-.2,1.2,-.2c1.1,-.2,1.9,-.3,2.4,-.5c0,-.2,0,-.3,0,-.3c0,-.6,-.1,-1,-.4,-1.2c-.3,-.3,-.8,-.5,-1.5,-.5c-.6,0,-1.1,.2,-1.4,.4c-.3,.2,-.5,.6,-.7,1.2l-1.3,-.2c.2,-.6,.4,-1,.6,-1.4c.3,-.3,.7,-.6,1.2,-.8c.5,-.2,1.1,-.3,1.8,-.3c.7,0,1.2,.1,1.7,.3c.4,.1,.7,.3,.9,.6c.2,.2,.3,.5,.4,.9c.1,.2,.1,.6,.1,1.2v1.8c0,1.3,0,2.1,.1,2.4c0,.3,.1,.6,.3,.9h-1.4c-.1,-.2,-.2,-.6,-.3,-.9m-.1,-3c-.5,.2,-1.2,.3,-2.2,.5c-.5,0,-.9,.1,-1.1,.2c-.3,.1,-.5,.3,-.6,.5c-.1,.2,-.2,.4,-.2,.6c0,.4,.2,.7,.4,.9c.3,.2,.7,.4,1.2,.4c.5,0,1,-.1,1.4,-.4c.4,-.2,.7,-.5,.9,-.9c.1,-.3,.2,-.8,.2,-1.3Z" class="g9_45"/>
<path d="M696,487.1h6.3V495h-1.4v-6.8h-3.5v3.9c0,1,0,1.6,-.1,1.9c-.1,.3,-.2,.5,-.5,.7c-.3,.2,-.6,.4,-1.2,.4c-.3,0,-.6,-.1,-1,-.1v-1.1h.6c.2,0,.4,-.1,.5,-.1c.2,-.1,.2,-.2,.3,-.3c0,-.1,0,-.5,0,-1.2Z" class="g9_45"/>
<path d="M704.3,487.1h1.3v6l3.8,-6h1.4V495h-1.3v-6l-3.7,6h-1.5Z" class="g9_45"/>
<path d="M712.1,487.1h6.5v1.1H716V495h-1.3v-6.8h-2.6Z" class="g9_45"/>
<path d="M725.1,492.5l1.4,.1c-.2,.8,-.6,1.5,-1.2,1.9c-.6,.5,-1.4,.7,-2.3,.7c-1.2,0,-2.1,-.4,-2.8,-1.1c-.6,-.7,-1,-1.7,-1,-3c0,-1.3,.4,-2.4,1,-3.1c.7,-.7,1.6,-1.1,2.7,-1.1c1.1,0,1.9,.4,2.6,1.1c.7,.7,1,1.7,1,3c0,.1,0,.2,0,.4h-5.9c.1,.9,.3,1.5,.7,2c.5,.4,1,.7,1.7,.7c.5,0,.9,-.2,1.3,-.4c.3,-.3,.6,-.7,.8,-1.2m-4.4,-2.2h4.4c-.1,-.7,-.2,-1.2,-.5,-1.5c-.4,-.5,-1,-.8,-1.7,-.8c-.6,0,-1.1,.2,-1.5,.6c-.4,.4,-.7,1,-.7,1.7Z" class="g9_45"/>
<path d="M728.2,498V487.1h1.2v1c.3,-.4,.6,-.7,1,-.9c.3,-.2,.8,-.3,1.3,-.3c.7,0,1.3,.2,1.8,.5c.5,.4,.9,.9,1.1,1.5c.3,.6,.4,1.3,.4,2.1c0,.8,-.1,1.5,-.4,2.2c-.3,.6,-.7,1.1,-1.3,1.5c-.5,.3,-1.1,.5,-1.7,.5c-.5,0,-.9,-.1,-1.2,-.3c-.4,-.2,-.7,-.4,-.9,-.7V498Zm1.2,-6.9c0,1,.2,1.8,.6,2.2c.4,.5,.9,.8,1.5,.8c.6,0,1.1,-.3,1.5,-.8c.5,-.5,.7,-1.3,.7,-2.3c0,-1,-.2,-1.8,-.7,-2.3c-.4,-.5,-.9,-.7,-1.4,-.7c-.6,0,-1.1,.2,-1.6,.8c-.4,.5,-.6,1.3,-.6,2.3Z" class="g9_45"/>
<path d="M741.8,494c-.5,.4,-.9,.7,-1.4,.9c-.5,.2,-1,.3,-1.5,.3c-.9,0,-1.5,-.2,-2,-.7c-.5,-.4,-.7,-.9,-.7,-1.6c0,-.4,.1,-.7,.3,-1c.1,-.4,.4,-.6,.7,-.8c.3,-.2,.6,-.4,.9,-.5c.3,0,.7,-.1,1.2,-.2c1.1,-.1,1.9,-.2,2.4,-.4c0,-.2,0,-.3,0,-.4c0,-.5,-.1,-.9,-.4,-1.1c-.3,-.3,-.8,-.5,-1.5,-.5c-.6,0,-1.1,.1,-1.4,.3c-.3,.3,-.5,.7,-.7,1.2l-1.3,-.2c.2,-.5,.4,-1,.6,-1.3c.3,-.4,.7,-.6,1.2,-.8c.5,-.2,1.1,-.3,1.8,-.3c.7,0,1.2,.1,1.7,.2c.4,.2,.7,.4,.9,.6c.2,.3,.3,.6,.4,1c.1,.2,.1,.6,.1,1.2v1.8c0,1.2,0,2,.1,2.4c0,.3,.1,.6,.3,.9h-1.4c-.1,-.3,-.2,-.6,-.3,-1m-.1,-3c-.5,.2,-1.2,.4,-2.2,.5c-.5,.1,-.9,.2,-1.1,.3c-.3,.1,-.5,.2,-.6,.4c-.1,.2,-.2,.4,-.2,.7c0,.3,.2,.6,.4,.9c.3,.2,.7,.3,1.2,.3c.6,0,1,-.1,1.4,-.3c.4,-.2,.7,-.5,.9,-.9c.1,-.3,.2,-.8,.2,-1.4Z" class="g9_45"/>
<path d="M744.1,487.1h6.4v1.1H748V495h-1.4v-6.8h-2.5Z" class="g9_45"/>
<path d="M751.9,498.1l-.1,-1.3c.3,.1,.5,.1,.7,.1c.3,0,.6,0,.8,-.1c.1,-.1,.3,-.3,.4,-.5c.1,-.1,.2,-.4,.4,-1c0,0,.1,-.1,.1,-.3l-3,-7.9h1.5l1.6,4.6c.2,.6,.4,1.2,.6,1.8c.2,-.6,.3,-1.2,.6,-1.8l1.6,-4.6h1.4l-3,8c-.4,.9,-.6,1.5,-.8,1.8c-.2,.5,-.5,.8,-.8,1c-.3,.2,-.7,.3,-1.1,.3c-.3,0,-.6,0,-.9,-.1Z" class="g9_45"/>
<path d="M759.5,498V487.1h1.2v1c.3,-.4,.6,-.7,1,-.9c.3,-.2,.8,-.3,1.3,-.3c.7,0,1.3,.2,1.8,.5c.5,.4,.9,.9,1.1,1.5c.3,.6,.4,1.3,.4,2.1c0,.8,-.1,1.5,-.4,2.2c-.3,.6,-.7,1.1,-1.3,1.5c-.5,.3,-1.1,.5,-1.7,.5c-.5,0,-.9,-.1,-1.2,-.3c-.4,-.2,-.7,-.4,-.9,-.7V498Zm1.2,-6.9c0,1,.2,1.8,.6,2.2c.4,.5,.9,.8,1.5,.8c.6,0,1.1,-.3,1.5,-.8c.4,-.5,.7,-1.3,.7,-2.3c0,-1,-.2,-1.8,-.7,-2.3c-.4,-.5,-.9,-.7,-1.4,-.7c-.6,0,-1.1,.2,-1.6,.8c-.4,.5,-.6,1.3,-.6,2.3Z" class="g9_45"/>
<path d="M773.1,494c-.5,.4,-1,.7,-1.4,.9c-.5,.2,-1,.3,-1.5,.3c-.9,0,-1.5,-.2,-2,-.7c-.5,-.4,-.7,-.9,-.7,-1.6c0,-.4,.1,-.7,.3,-1c.1,-.4,.4,-.6,.7,-.8c.2,-.2,.6,-.4,.9,-.5c.3,0,.7,-.1,1.2,-.2c1.1,-.1,1.9,-.2,2.4,-.4c0,-.2,0,-.3,0,-.4c0,-.5,-.1,-.9,-.4,-1.1c-.3,-.3,-.8,-.5,-1.5,-.5c-.6,0,-1.1,.1,-1.4,.3c-.3,.3,-.5,.7,-.7,1.2l-1.3,-.2c.2,-.5,.3,-1,.6,-1.3c.3,-.4,.7,-.6,1.2,-.8c.5,-.2,1.1,-.3,1.8,-.3c.7,0,1.2,.1,1.7,.2c.4,.2,.7,.4,.9,.6c.2,.3,.3,.6,.4,1c0,.2,.1,.6,.1,1.2v1.8c0,1.2,0,2,.1,2.4c0,.3,.1,.6,.3,.9h-1.4c-.1,-.3,-.2,-.6,-.3,-1m-.1,-3c-.5,.2,-1.2,.4,-2.2,.5c-.5,.1,-.9,.2,-1.2,.3c-.2,.1,-.4,.2,-.5,.4c-.1,.2,-.2,.4,-.2,.7c0,.3,.2,.6,.4,.9c.3,.2,.7,.3,1.2,.3c.5,0,1,-.1,1.4,-.3c.4,-.2,.7,-.5,.9,-.9c.1,-.3,.2,-.8,.2,-1.4Z" class="g9_45"/>
<path d="M727.3,510.8v1.3h-7.2c0,-.4,0,-.7,.1,-1c.2,-.5,.5,-.9,.9,-1.4c.4,-.5,1,-1,1.8,-1.7c1.2,-.9,2,-1.7,2.4,-2.3c.4,-.6,.6,-1.1,.6,-1.6c0,-.5,-.2,-1,-.5,-1.4c-.4,-.3,-.9,-.5,-1.5,-.5c-.7,0,-1.2,.2,-1.6,.6c-.4,.4,-.6,.9,-.6,1.6l-1.4,-.1c.1,-1.1,.5,-1.9,1.1,-2.4c.6,-.5,1.5,-.8,2.5,-.8c1,0,1.9,.3,2.5,.9c.6,.5,.9,1.3,.9,2.1c0,.5,-.1,.9,-.3,1.3c-.1,.4,-.4,.9,-.9,1.4c-.4,.4,-1.1,1.1,-2,1.9c-.8,.7,-1.4,1.1,-1.6,1.4c-.2,.2,-.4,.4,-.5,.7Z" class="g9_45"/>
<path d="M733.1,512.1v-2.6h-4.8v-1.3l5,-7.1h1.1v7.1h1.5v1.3h-1.5v2.6Zm0,-3.9v-4.9l-3.5,4.9Z" class="g9_45"/>
<path d="M737.5,503.8c0,-.8,.2,-1.5,.6,-2c.4,-.6,1,-.9,1.7,-.9c.7,0,1.3,.3,1.7,.8c.5,.5,.7,1.2,.7,2.1c0,1,-.2,1.7,-.7,2.2c-.5,.5,-1,.7,-1.7,.7c-.6,0,-1.2,-.2,-1.6,-.7c-.5,-.5,-.7,-1.2,-.7,-2.2m2.3,-1.9c-.3,0,-.6,.1,-.8,.4c-.2,.3,-.3,.8,-.3,1.6c0,.7,.1,1.2,.3,1.5c.2,.3,.5,.4,.8,.4c.4,0,.7,-.1,.9,-.4c.2,-.3,.3,-.8,.3,-1.6c0,-.7,-.1,-1.2,-.3,-1.5c-.2,-.3,-.5,-.4,-.9,-.4m0,10.6l6,-11.6h1.1L741,512.5Zm4.8,-3c0,-.8,.2,-1.4,.6,-2c.4,-.5,.9,-.8,1.7,-.8c.7,0,1.2,.2,1.7,.7c.4,.5,.7,1.2,.7,2.2c0,.9,-.3,1.6,-.7,2.1c-.5,.5,-1,.8,-1.7,.8c-.7,0,-1.2,-.3,-1.7,-.8c-.4,-.5,-.6,-1.2,-.6,-2.2m2.3,-1.9c-.3,0,-.6,.2,-.8,.5c-.2,.2,-.4,.8,-.4,1.5c0,.7,.2,1.2,.4,1.5c.2,.3,.5,.4,.8,.4c.4,0,.6,-.1,.9,-.4c.2,-.3,.3,-.8,.3,-1.6c0,-.7,-.1,-1.2,-.3,-1.5c-.3,-.2,-.5,-.4,-.9,-.4Z" class="g9_45"/>
<path d="M649.8,527.8h1.4l3.6,6.7l3.1,-6.7h1.5l-4.2,8.5c-.5,1.1,-.9,1.7,-1.2,2.1c-.3,.3,-.8,.5,-1.4,.5c-.4,0,-.9,-.1,-1.4,-.3v-1.2c.4,.2,.8,.3,1.2,.3c.4,0,.7,-.1,.9,-.3c.3,-.3,.6,-.8,.9,-1.6Z" class="g9_45"/>
<path d="M659.9,530.8h1.4v1.5c0,.6,0,1.1,.1,1.4c0,.3,.2,.6,.5,.8c.3,.2,.7,.3,1.1,.3c.5,0,1.2,-.1,2,-.4v-3.6h1.3v7.9H665v-3.2c-.8,.3,-1.6,.4,-2.3,.4c-.6,0,-1.1,-.1,-1.6,-.4c-.5,-.3,-.8,-.7,-.9,-1.2c-.2,-.4,-.3,-.9,-.3,-1.4Z" class="g9_45"/>
<path d="M673.8,536.2l1.4,.1c-.2,.9,-.7,1.5,-1.2,1.9c-.6,.5,-1.4,.7,-2.3,.7c-1.2,0,-2.1,-.4,-2.8,-1.1c-.6,-.7,-1,-1.7,-1,-3c0,-1.3,.4,-2.3,1,-3.1c.7,-.7,1.6,-1.1,2.7,-1.1c1.1,0,1.9,.4,2.6,1.1c.7,.7,1,1.7,1,3c0,.1,0,.2,0,.4h-5.9c.1,.9,.3,1.5,.7,2c.5,.5,1,.7,1.7,.7c.5,0,.9,-.1,1.3,-.4c.3,-.2,.6,-.7,.8,-1.2M669.4,534h4.4c-.1,-.7,-.2,-1.2,-.5,-1.5c-.4,-.5,-1,-.8,-1.7,-.8c-.6,0,-1.1,.2,-1.5,.6c-.4,.5,-.7,1,-.7,1.7Z" class="g9_45"/>
<path d="M682.5,527.5h1.2c-.1,.6,-.2,.9,-.4,1.2c-.2,.2,-.4,.3,-.7,.4c-.3,0,-.8,0,-1.7,0c-1.1,0,-1.8,.1,-2.2,.4c-.4,.2,-.7,.5,-.9,1c-.2,.5,-.3,1.1,-.3,1.8c.3,-.5,.7,-.9,1.2,-1.1c.4,-.3,1,-.4,1.5,-.4c1.1,0,1.9,.4,2.6,1.1c.7,.7,1,1.6,1,2.9c0,.9,-.1,1.7,-.5,2.2c-.3,.6,-.7,1.1,-1.2,1.4c-.5,.3,-1.1,.5,-1.9,.5c-1,0,-1.7,-.2,-2.2,-.6c-.5,-.5,-.9,-1,-1.2,-1.7c-.3,-.7,-.4,-1.8,-.4,-3.5c0,-2.1,.3,-3.5,1,-4.2c.7,-.8,1.8,-1.1,3.3,-1.1c.9,0,1.4,0,1.6,-.1c.1,0,.2,-.1,.2,-.2m-.1,7.2c0,-.8,-.2,-1.5,-.6,-2c-.4,-.5,-.9,-.8,-1.6,-.8c-.8,0,-1.3,.3,-1.7,.8c-.4,.6,-.6,1.3,-.6,2.3c0,.9,.2,1.6,.6,2.1c.5,.5,1,.7,1.7,.7c.6,0,1.2,-.3,1.6,-.8c.4,-.6,.6,-1.3,.6,-2.3Z" class="g9_45"/>
<path d="M685.4,530.8h1.4v3.3h3.7v-3.3h1.4v7.9h-1.4v-3.5h-3.7v3.5h-1.4Z" class="g9_45"/>
<path d="M699,537.7c-.5,.5,-.9,.8,-1.4,.9c-.5,.2,-.9,.3,-1.5,.3c-.8,0,-1.5,-.2,-2,-.6c-.4,-.5,-.7,-1,-.7,-1.7c0,-.4,.1,-.7,.3,-1c.2,-.4,.4,-.6,.7,-.8c.3,-.2,.6,-.3,.9,-.4c.3,-.1,.7,-.2,1.2,-.2c1.1,-.2,1.9,-.3,2.4,-.5c0,-.2,0,-.3,0,-.4c0,-.5,-.1,-.9,-.3,-1.1c-.4,-.3,-.9,-.5,-1.6,-.5c-.6,0,-1.1,.1,-1.4,.4c-.3,.2,-.5,.6,-.6,1.1l-1.3,-.1c.1,-.6,.3,-1.1,.5,-1.4c.3,-.3,.7,-.6,1.2,-.8c.5,-.2,1.1,-.3,1.8,-.3c.7,0,1.3,.1,1.7,.3c.4,.1,.7,.3,.9,.6c.2,.2,.3,.5,.4,.9c.1,.2,.1,.6,.1,1.2v1.8c0,1.3,0,2,.1,2.4c0,.3,.1,.6,.3,.9h-1.4c-.1,-.3,-.2,-.6,-.3,-1m-.1,-3c-.5,.2,-1.2,.4,-2.2,.6c-.5,0,-.9,.1,-1.1,.2c-.3,.1,-.4,.3,-.6,.5c-.1,.2,-.1,.4,-.1,.6c0,.4,.1,.7,.4,.9c.2,.2,.6,.3,1.1,.3c.6,0,1,-.1,1.4,-.3c.4,-.2,.7,-.5,.9,-.9c.2,-.3,.2,-.8,.2,-1.4Z" class="g9_45"/>
<path d="M636.7,547.9h6.2v7.9h-1.3V549H638v3.9c0,.9,0,1.6,-.1,1.8c0,.3,-.2,.6,-.5,.8c-.2,.2,-.6,.3,-1.1,.3c-.4,0,-.7,0,-1.1,0v-1.1h.6c.2,0,.4,-.1,.6,-.1c.1,-.1,.2,-.2,.2,-.3c0,-.1,.1,-.5,.1,-1.2Z" class="g9_45"/>
<path d="M644.9,547.9h1.4v6l3.7,-6h1.4v7.9h-1.3v-6l-3.7,6h-1.5Z" class="g9_45"/>
<path d="M652.7,547.9h6.5V549h-2.6v6.8h-1.3V549h-2.6Z" class="g9_45"/>
<path d="M665.7,553.2l1.4,.2c-.2,.8,-.6,1.4,-1.2,1.9c-.6,.4,-1.4,.7,-2.3,.7c-1.2,0,-2.1,-.4,-2.7,-1.1c-.7,-.7,-1.1,-1.7,-1.1,-3c0,-1.3,.4,-2.4,1.1,-3.1c.7,-.7,1.5,-1.1,2.6,-1.1c1.1,0,2,.3,2.6,1.1c.7,.7,1,1.7,1,3c0,.1,0,.2,0,.4h-5.9c.1,.8,.3,1.5,.8,2c.4,.4,1,.7,1.6,.7c.5,0,.9,-.2,1.3,-.4c.3,-.3,.6,-.7,.8,-1.3m-4.4,-2.1h4.4c0,-.7,-.2,-1.2,-.5,-1.5c-.4,-.5,-1,-.8,-1.7,-.8c-.6,0,-1.1,.2,-1.5,.6c-.4,.4,-.7,1,-.7,1.7Z" class="g9_45"/>
<path d="M668.8,558.8V547.9H670v1c.3,-.4,.6,-.7,1,-.9c.3,-.2,.8,-.3,1.3,-.3c.7,0,1.3,.2,1.8,.5c.5,.4,.9,.9,1.2,1.5c.2,.6,.4,1.3,.4,2.1c0,.8,-.2,1.5,-.5,2.2c-.3,.6,-.7,1.1,-1.2,1.5c-.6,.3,-1.2,.5,-1.8,.5c-.4,0,-.8,-.1,-1.2,-.3c-.4,-.2,-.7,-.4,-.9,-.7v3.8Zm1.2,-6.9c0,1,.2,1.7,.6,2.2c.4,.5,.9,.8,1.5,.8c.6,0,1.1,-.3,1.5,-.8c.5,-.5,.7,-1.3,.7,-2.3c0,-1,-.2,-1.8,-.6,-2.3c-.5,-.5,-1,-.8,-1.5,-.8c-.6,0,-1.1,.3,-1.5,.8c-.5,.6,-.7,1.4,-.7,2.4Z" class="g9_45"/>
<path d="M682.4,554.8c-.5,.4,-.9,.7,-1.4,.9c-.5,.2,-.9,.3,-1.5,.3c-.8,0,-1.5,-.2,-2,-.7c-.4,-.4,-.7,-.9,-.7,-1.6c0,-.4,.1,-.7,.3,-1.1c.2,-.3,.4,-.5,.7,-.7c.3,-.2,.6,-.4,.9,-.5c.3,0,.7,-.1,1.2,-.2c1.1,-.1,1.9,-.3,2.4,-.4c0,-.2,0,-.3,0,-.4c0,-.5,-.1,-.9,-.3,-1.1c-.4,-.4,-.9,-.5,-1.6,-.5c-.6,0,-1.1,.1,-1.4,.3c-.3,.3,-.5,.6,-.6,1.2l-1.3,-.2c.1,-.5,.3,-1,.5,-1.3c.3,-.4,.7,-.6,1.2,-.8c.5,-.2,1.1,-.3,1.8,-.3c.7,0,1.2,.1,1.7,.2c.4,.2,.7,.4,.9,.6c.2,.3,.3,.6,.4,.9c.1,.3,.1,.7,.1,1.3v1.8c0,1.2,0,2,.1,2.3c0,.4,.1,.7,.3,1h-1.4c-.1,-.3,-.2,-.6,-.3,-1m-.1,-3c-.5,.2,-1.2,.4,-2.2,.5c-.5,.1,-.9,.2,-1.1,.3c-.3,.1,-.4,.2,-.6,.4c-.1,.2,-.1,.4,-.1,.7c0,.3,.1,.6,.4,.9c.2,.2,.6,.3,1.1,.3c.6,0,1,-.1,1.4,-.3c.4,-.2,.7,-.6,.9,-1c.2,-.3,.2,-.7,.2,-1.3Z" class="g9_45"/>
<path d="M684.7,547.9h6.5V549h-2.6v6.8h-1.3V549h-2.6Z" class="g9_45"/>
<path d="M692.5,558.8l-.1,-1.2c.3,.1,.5,.1,.8,.1c.3,0,.5,-.1,.7,-.2c.2,-.1,.3,-.2,.4,-.4c.1,-.1,.2,-.4,.4,-1c.1,0,.1,-.2,.1,-.3l-3,-7.9h1.5l1.6,4.6c.3,.5,.4,1.1,.6,1.8c.2,-.6,.4,-1.2,.6,-1.8l1.7,-4.6h1.3l-3,8c-.3,.9,-.6,1.5,-.8,1.8c-.2,.5,-.5,.8,-.8,1c-.3,.2,-.7,.3,-1.1,.3c-.3,0,-.5,-.1,-.9,-.2Z" class="g9_45"/>
<path d="M700.1,558.8V547.9h1.2v1c.3,-.4,.6,-.7,1,-.9c.3,-.2,.8,-.3,1.3,-.3c.7,0,1.3,.2,1.8,.5c.5,.4,.9,.9,1.2,1.5c.2,.6,.4,1.3,.4,2.1c0,.8,-.2,1.5,-.5,2.2c-.3,.6,-.7,1.1,-1.3,1.5c-.5,.3,-1.1,.5,-1.7,.5c-.5,0,-.9,-.1,-1.2,-.3c-.4,-.2,-.7,-.4,-.9,-.7v3.8Zm1.2,-6.9c0,1,.2,1.7,.6,2.2c.4,.5,.9,.8,1.5,.8c.6,0,1.1,-.3,1.5,-.8c.5,-.5,.7,-1.3,.7,-2.3c0,-1,-.2,-1.8,-.6,-2.3c-.5,-.5,-1,-.8,-1.5,-.8c-.6,0,-1.1,.3,-1.6,.8c-.4,.6,-.6,1.4,-.6,2.4Z" class="g9_45"/>
<path d="M713.7,554.8c-.5,.4,-.9,.7,-1.4,.9c-.5,.2,-1,.3,-1.5,.3c-.9,0,-1.5,-.2,-2,-.7c-.5,-.4,-.7,-.9,-.7,-1.6c0,-.4,.1,-.7,.3,-1.1c.2,-.3,.4,-.5,.7,-.7c.3,-.2,.6,-.4,.9,-.5c.3,0,.7,-.1,1.2,-.2c1.1,-.1,1.9,-.3,2.4,-.4c0,-.2,0,-.3,0,-.4c0,-.5,-.1,-.9,-.3,-1.1c-.4,-.4,-.9,-.5,-1.6,-.5c-.6,0,-1.1,.1,-1.4,.3c-.3,.3,-.5,.6,-.6,1.2l-1.4,-.2c.2,-.5,.4,-1,.6,-1.3c.3,-.4,.7,-.6,1.2,-.8c.5,-.2,1.1,-.3,1.8,-.3c.7,0,1.2,.1,1.7,.2c.4,.2,.7,.4,.9,.6c.2,.3,.3,.6,.4,.9c.1,.3,.1,.7,.1,1.3v1.8c0,1.2,0,2,.1,2.3c0,.4,.1,.7,.3,1H714c-.1,-.3,-.2,-.6,-.3,-1m-.1,-3c-.5,.2,-1.2,.4,-2.2,.5c-.5,.1,-.9,.2,-1.1,.3c-.3,.1,-.4,.2,-.6,.4c-.1,.2,-.2,.4,-.2,.7c0,.3,.2,.6,.5,.9c.2,.2,.6,.3,1.1,.3c.6,0,1,-.1,1.4,-.3c.4,-.2,.7,-.6,.9,-1c.2,-.3,.2,-.7,.2,-1.3Z" class="g9_45"/>
<path d="M667.9,571.6v1.3h-7.2c0,-.4,0,-.7,.2,-1c.1,-.5,.4,-1,.8,-1.4c.4,-.5,1,-1.1,1.8,-1.7c1.2,-1,2,-1.7,2.4,-2.3c.4,-.6,.6,-1.1,.6,-1.6c0,-.5,-.2,-1,-.5,-1.4c-.4,-.3,-.9,-.5,-1.5,-.5c-.7,0,-1.2,.2,-1.6,.6c-.4,.4,-.6,.9,-.6,1.6L661,565c0,-1,.4,-1.8,1,-2.3c.6,-.6,1.5,-.8,2.5,-.8c1.1,0,1.9,.3,2.5,.8c.6,.6,.9,1.4,.9,2.2c0,.5,-.1,.9,-.3,1.3c-.1,.4,-.4,.9,-.8,1.3c-.5,.5,-1.1,1.1,-2.1,2c-.8,.6,-1.3,1.1,-1.6,1.3c-.2,.3,-.4,.5,-.5,.8Z" class="g9_45"/>
<path d="M676.4,571.6v1.3h-7.2c0,-.4,0,-.7,.2,-1c.1,-.5,.4,-1,.8,-1.4c.4,-.5,1,-1.1,1.8,-1.7c1.2,-1,2,-1.7,2.4,-2.3c.4,-.6,.6,-1.1,.6,-1.6c0,-.5,-.2,-1,-.5,-1.4c-.4,-.3,-.9,-.5,-1.5,-.5c-.7,0,-1.2,.2,-1.6,.6c-.4,.4,-.6,.9,-.6,1.6l-1.3,-.2c0,-1,.4,-1.8,1,-2.3c.6,-.6,1.5,-.8,2.5,-.8c1.1,0,1.9,.3,2.5,.8c.6,.6,.9,1.4,.9,2.2c0,.5,-.1,.9,-.3,1.3c-.1,.4,-.4,.9,-.8,1.3c-.5,.5,-1.2,1.1,-2.1,2c-.8,.6,-1.3,1.1,-1.6,1.3c-.2,.3,-.4,.5,-.5,.8Z" class="g9_45"/>
<path d="M678.1,564.5c0,-.7,.2,-1.4,.6,-1.9c.4,-.6,1,-.9,1.7,-.9c.7,0,1.3,.3,1.7,.8c.5,.5,.7,1.2,.7,2.1c0,1,-.2,1.7,-.7,2.2c-.4,.5,-1,.7,-1.7,.7c-.6,0,-1.2,-.2,-1.6,-.7c-.5,-.5,-.7,-1.3,-.7,-2.3m2.4,-1.8c-.4,0,-.7,.1,-.9,.4c-.2,.3,-.3,.8,-.3,1.6c0,.7,.1,1.2,.3,1.5c.3,.2,.5,.4,.9,.4c.3,0,.6,-.2,.8,-.4c.2,-.3,.3,-.9,.3,-1.6c0,-.7,-.1,-1.2,-.3,-1.5c-.2,-.3,-.5,-.4,-.8,-.4m0,10.6l5.9,-11.6h1.1l-5.9,11.6Zm4.7,-3c0,-.8,.2,-1.5,.6,-2c.4,-.5,.9,-.8,1.7,-.8c.7,0,1.3,.2,1.7,.7c.5,.5,.7,1.2,.7,2.2c0,.9,-.3,1.6,-.7,2.1c-.5,.5,-1,.8,-1.7,.8c-.7,0,-1.2,-.3,-1.6,-.8c-.5,-.5,-.7,-1.2,-.7,-2.2m2.3,-1.9c-.3,0,-.6,.1,-.8,.4c-.2,.3,-.3,.9,-.3,1.6c0,.7,.1,1.2,.3,1.5c.2,.3,.5,.4,.8,.4c.4,0,.7,-.1,.9,-.4c.2,-.3,.3,-.8,.3,-1.6c0,-.7,-.1,-1.2,-.3,-1.5c-.3,-.3,-.5,-.4,-.9,-.4Z" class="g9_45"/>
<path d="M686.3,396.2v-11h1.4v4.5h5.5v-4.5h1.4v11h-1.4V391h-5.5v5.2Z" class="g9_45"/>
<path d="M701.7,395.2c-.5,.4,-1,.7,-1.4,.9c-.5,.1,-.9,.2,-1.4,.2c-.9,0,-1.5,-.2,-2,-.6c-.4,-.4,-.6,-1,-.6,-1.6c0,-.4,.1,-.8,.2,-1.1c.2,-.3,.4,-.6,.7,-.8c.3,-.2,.6,-.3,.9,-.4c.3,-.1,.7,-.2,1.2,-.2c1,-.1,1.8,-.3,2.3,-.5c0,-.2,0,-.3,0,-.3c0,-.6,-.2,-1,-.4,-1.2c-.3,-.3,-.8,-.4,-1.5,-.4c-.6,0,-1,.1,-1.3,.3c-.3,.2,-.5,.6,-.6,1.2l-1.3,-.2c.1,-.6,.3,-1,.6,-1.4c.2,-.3,.6,-.6,1.1,-.8c.5,-.2,1.1,-.3,1.7,-.3c.7,0,1.2,.1,1.6,.3c.4,.1,.7,.3,.9,.6c.2,.2,.3,.5,.4,.9c0,.2,.1,.6,.1,1.2v1.8c0,1.3,0,2.1,0,2.4c.1,.3,.2,.6,.4,1h-1.4c-.1,-.3,-.2,-.7,-.2,-1m-.1,-3c-.5,.2,-1.2,.3,-2.1,.5c-.6,.1,-.9,.2,-1.2,.3c-.2,.1,-.4,.2,-.5,.4c-.1,.2,-.2,.4,-.2,.6c0,.4,.2,.7,.4,.9c.3,.3,.7,.4,1.2,.4c.5,0,.9,-.1,1.3,-.4c.4,-.2,.7,-.5,.9,-.9c.1,-.3,.2,-.7,.2,-1.3Z" class="g9_45"/>
<path d="M704.6,399.2l-.1,-1.3c.3,.1,.5,.2,.7,.2c.3,0,.5,-.1,.7,-.2c.2,-.1,.3,-.2,.4,-.4c.1,-.1,.3,-.5,.4,-1c.1,-.1,.1,-.2,.1,-.3l-2.8,-8h1.4l1.5,4.6c.2,.6,.4,1.2,.6,1.9c.1,-.7,.3,-1.3,.5,-1.9l1.6,-4.6h1.3l-2.9,8.1c-.3,.9,-.5,1.5,-.7,1.8c-.2,.4,-.5,.8,-.8,1c-.3,.2,-.6,.3,-1,.3c-.3,0,-.6,-.1,-.9,-.2Z" class="g9_45"/>
<path d="M711.5,388.2h1.3v1.5c0,.7,.1,1.1,.1,1.4c.1,.3,.3,.6,.6,.8c.3,.2,.6,.3,1,.3c.5,0,1.2,-.1,1.9,-.4v-3.6h1.3v8h-1.3V393c-.8,.2,-1.5,.3,-2.2,.3c-.6,0,-1.1,-.1,-1.5,-.4c-.5,-.3,-.8,-.7,-.9,-1.1c-.2,-.5,-.3,-1,-.3,-1.5Z" class="g9_45"/>
<path d="M719.7,388.2h1.2v3.3h3.6v-3.3h1.3v8h-1.3v-3.6h-3.6v3.6h-1.2Z" class="g9_45"/>
<path d="M732.7,395.2c-.5,.4,-.9,.7,-1.4,.9c-.4,.1,-.9,.2,-1.4,.2c-.8,0,-1.5,-.2,-1.9,-.6c-.5,-.4,-.7,-1,-.7,-1.6c0,-.4,.1,-.8,.3,-1.1c.1,-.3,.4,-.6,.6,-.8c.3,-.2,.6,-.3,1,-.4c.2,-.1,.6,-.2,1.1,-.2c1,-.1,1.8,-.3,2.3,-.5c0,-.2,0,-.3,0,-.3c0,-.6,-.1,-1,-.4,-1.2c-.3,-.3,-.8,-.4,-1.4,-.4c-.6,0,-1.1,.1,-1.4,.3c-.3,.2,-.5,.6,-.6,1.2l-1.3,-.2c.1,-.6,.3,-1,.6,-1.4c.3,-.3,.6,-.6,1.1,-.8c.5,-.2,1.1,-.3,1.8,-.3c.6,0,1.1,.1,1.5,.3c.4,.1,.7,.3,.9,.6c.2,.2,.4,.5,.4,.9c.1,.2,.1,.6,.1,1.2v1.8c0,1.3,0,2.1,.1,2.4c0,.3,.1,.6,.3,1H733c-.2,-.3,-.3,-.7,-.3,-1m-.1,-3c-.5,.2,-1.2,.3,-2.1,.5c-.5,.1,-.9,.2,-1.1,.3c-.3,.1,-.4,.2,-.5,.4c-.2,.2,-.2,.4,-.2,.6c0,.4,.1,.7,.4,.9c.2,.3,.6,.4,1.1,.4c.5,0,.9,-.1,1.3,-.4c.4,-.2,.7,-.5,.9,-.9c.1,-.3,.2,-.7,.2,-1.3Z" class="g9_45"/>
<path d="M672.8,405.3h6v7.9h-1.3v-6.8h-3.4v4c0,.9,-.1,1.5,-.1,1.8c-.1,.3,-.2,.5,-.5,.7c-.3,.3,-.6,.4,-1.1,.4c-.3,0,-.7,0,-1.1,-.1v-1.1h.6c.3,0,.5,0,.6,-.1c.1,-.1,.2,-.1,.2,-.3c.1,-.1,.1,-.5,.1,-1.2Z" class="g9_45"/>
<path d="M680.7,405.3H682v6l3.5,-6h1.4v7.9h-1.3v-6l-3.5,6h-1.4Z" class="g9_45"/>
<path d="M688.2,405.3h6.2v1.1h-2.5v6.8h-1.3v-6.8h-2.4Z" class="g9_45"/>
<path d="M700.6,410.7l1.4,.1c-.3,.9,-.6,1.5,-1.2,1.9c-.6,.5,-1.3,.7,-2.2,.7c-1.1,0,-2,-.4,-2.6,-1.1c-.7,-.7,-1,-1.7,-1,-3c0,-1.3,.3,-2.3,1,-3.1c.6,-.7,1.5,-1.1,2.5,-1.1c1.1,0,1.9,.4,2.5,1.1c.7,.7,1,1.7,1,3c0,.1,0,.2,0,.4h-5.7c.1,.9,.3,1.5,.7,2c.5,.5,1,.7,1.6,.7c.5,0,.9,-.1,1.2,-.4c.4,-.3,.6,-.7,.8,-1.2m-4.2,-2.2h4.2c0,-.7,-.2,-1.2,-.5,-1.5c-.4,-.5,-.9,-.8,-1.5,-.8c-.6,0,-1.1,.2,-1.5,.6c-.4,.5,-.7,1,-.7,1.7Z" class="g9_45"/>
<path d="M703.6,416.3v-11h1.1v1c.3,-.4,.6,-.7,1,-.9c.3,-.2,.7,-.3,1.2,-.3c.7,0,1.3,.2,1.8,.5c.5,.4,.8,.9,1.1,1.5c.2,.6,.4,1.3,.4,2.1c0,.8,-.2,1.5,-.5,2.2c-.2,.6,-.6,1.1,-1.2,1.5c-.5,.3,-1.1,.5,-1.6,.5c-.5,0,-.9,-.1,-1.2,-.3c-.3,-.2,-.6,-.4,-.8,-.7v3.9Zm1.1,-7c0,1,.2,1.8,.6,2.3c.4,.4,.9,.7,1.5,.7c.5,0,1,-.3,1.4,-.8c.4,-.5,.7,-1.2,.7,-2.3c0,-1,-.2,-1.8,-.6,-2.3c-.4,-.5,-.9,-.7,-1.5,-.7c-.5,0,-1,.2,-1.4,.8c-.5,.5,-.7,1.3,-.7,2.3Z" class="g9_45"/>
<path d="M716.7,412.2c-.5,.5,-1,.8,-1.4,.9c-.4,.2,-.9,.3,-1.4,.3c-.9,0,-1.5,-.2,-1.9,-.6c-.5,-.5,-.7,-1,-.7,-1.7c0,-.4,.1,-.7,.2,-1c.2,-.4,.4,-.6,.7,-.8c.3,-.2,.6,-.3,.9,-.4c.3,-.1,.7,-.2,1.2,-.2c1,-.2,1.8,-.3,2.3,-.5c0,-.2,0,-.3,0,-.4c0,-.5,-.1,-.9,-.4,-1.1c-.3,-.3,-.8,-.5,-1.5,-.5c-.6,0,-1,.1,-1.3,.4c-.3,.2,-.5,.6,-.6,1.1l-1.3,-.1c.1,-.6,.3,-1.1,.6,-1.4c.2,-.3,.6,-.6,1.1,-.8c.5,-.2,1.1,-.3,1.7,-.3c.7,0,1.2,.1,1.6,.3c.4,.1,.7,.3,.9,.6c.2,.2,.3,.5,.4,.9c0,.2,.1,.6,.1,1.2v1.8c0,1.2,0,2,.1,2.4c0,.3,.1,.6,.3,.9h-1.4c-.1,-.3,-.2,-.6,-.2,-1m-.1,-3c-.5,.2,-1.2,.4,-2.1,.6c-.6,0,-.9,.1,-1.2,.2c-.2,.1,-.3,.3,-.5,.5c-.1,.1,-.1,.4,-.1,.6c0,.4,.1,.6,.3,.9c.3,.2,.7,.3,1.2,.3c.5,0,.9,-.1,1.3,-.3c.4,-.2,.7,-.5,.9,-.9c.1,-.3,.2,-.8,.2,-1.4Z" class="g9_45"/>
<path d="M718.9,405.3H725v1.1h-2.4v6.8h-1.3v-6.8h-2.4Z" class="g9_45"/>
<path d="M726.4,416.3l-.2,-1.3c.3,.1,.5,.1,.8,.1c.2,0,.5,0,.6,-.1c.2,-.1,.4,-.3,.5,-.4c0,-.2,.2,-.5,.4,-1c0,-.1,0,-.2,.1,-.4l-2.9,-7.9h1.4l1.6,4.6c.2,.6,.3,1.2,.5,1.8c.2,-.6,.3,-1.2,.5,-1.8l1.7,-4.6h1.3l-2.9,8.1c-.3,.8,-.6,1.4,-.8,1.8c-.2,.4,-.5,.7,-.7,.9c-.3,.2,-.7,.3,-1.1,.3c-.3,0,-.5,0,-.8,-.1Z" class="g9_45"/>
<path d="M733.6,416.3v-11h1.2v1c.2,-.4,.5,-.7,.9,-.9c.3,-.2,.8,-.3,1.3,-.3c.6,0,1.2,.2,1.7,.5c.5,.4,.8,.9,1.1,1.5c.3,.6,.4,1.3,.4,2.1c0,.8,-.2,1.5,-.4,2.2c-.3,.6,-.7,1.1,-1.3,1.5c-.5,.3,-1,.5,-1.6,.5c-.5,0,-.8,-.1,-1.2,-.3c-.3,-.2,-.6,-.4,-.8,-.7v3.9Zm1.1,-7c0,1,.2,1.8,.6,2.3c.4,.4,.9,.7,1.5,.7c.6,0,1,-.3,1.5,-.8c.4,-.5,.6,-1.2,.6,-2.3c0,-1,-.2,-1.8,-.6,-2.3c-.4,-.5,-.9,-.7,-1.5,-.7c-.5,0,-1,.2,-1.4,.8c-.4,.5,-.7,1.3,-.7,2.3Z" class="g9_45"/>
<path d="M746.7,412.2c-.5,.5,-.9,.8,-1.4,.9c-.4,.2,-.9,.3,-1.4,.3c-.8,0,-1.5,-.2,-1.9,-.6c-.5,-.5,-.7,-1,-.7,-1.7c0,-.4,.1,-.7,.2,-1c.2,-.4,.4,-.6,.7,-.8c.3,-.2,.6,-.3,.9,-.4c.3,-.1,.7,-.2,1.2,-.2c1,-.2,1.8,-.3,2.3,-.5c0,-.2,0,-.3,0,-.4c0,-.5,-.1,-.9,-.4,-1.1c-.3,-.3,-.8,-.5,-1.4,-.5c-.6,0,-1.1,.1,-1.4,.4c-.3,.2,-.5,.6,-.6,1.1l-1.3,-.1c.1,-.6,.3,-1.1,.6,-1.4c.2,-.3,.6,-.6,1.1,-.8c.5,-.2,1.1,-.3,1.7,-.3c.7,0,1.2,.1,1.6,.3c.4,.1,.7,.3,.9,.6c.2,.2,.3,.5,.4,.9c.1,.2,.1,.6,.1,1.2v1.8c0,1.2,0,2,.1,2.4c0,.3,.1,.6,.3,.9h-1.4c-.1,-.3,-.2,-.6,-.2,-1m-.1,-3c-.5,.2,-1.2,.4,-2.1,.6c-.6,0,-.9,.1,-1.1,.2c-.3,.1,-.4,.3,-.6,.5c-.1,.1,-.1,.4,-.1,.6c0,.4,.1,.6,.4,.9c.2,.2,.6,.3,1.1,.3c.5,0,.9,-.1,1.3,-.3c.4,-.2,.7,-.5,.9,-.9c.1,-.3,.2,-.8,.2,-1.4Z" class="g9_45"/>
<path d="M700.8,430.3h-1.2v-8.6c-.4,.3,-.8,.6,-1.3,1c-.5,.3,-.9,.5,-1.3,.6v-1.2c.7,-.4,1.3,-.8,1.9,-1.3c.5,-.5,.9,-1,1.1,-1.5h.8Z" class="g9_45"/>
<path d="M708.3,430.3v-2.6h-4.6v-1.3l4.8,-7h1.1v7H711v1.3h-1.4v2.6Zm0,-3.9v-4.9l-3.3,4.9Z" class="g9_45"/>
<path d="M712.5,422c0,-.8,.2,-1.5,.6,-2c.4,-.6,.9,-.8,1.6,-.8c.7,0,1.2,.2,1.7,.7c.4,.5,.6,1.2,.6,2.2c0,.9,-.2,1.6,-.6,2.1c-.5,.5,-1,.7,-1.7,.7c-.6,0,-1.1,-.2,-1.5,-.7c-.5,-.5,-.7,-1.2,-.7,-2.2m2.3,-1.9c-.4,0,-.6,.1,-.8,.4c-.2,.3,-.3,.8,-.3,1.6c0,.7,.1,1.2,.3,1.5c.2,.3,.5,.4,.8,.4c.3,0,.6,-.1,.8,-.4c.2,-.3,.3,-.8,.3,-1.6c0,-.7,-.1,-1.2,-.3,-1.5c-.2,-.3,-.5,-.4,-.8,-.4m0,10.6l5.7,-11.5h1.1l-5.8,11.5Zm4.5,-3c0,-.8,.2,-1.4,.6,-2c.4,-.5,.9,-.8,1.6,-.8c.7,0,1.2,.3,1.7,.7c.4,.5,.6,1.3,.6,2.2c0,.9,-.2,1.6,-.6,2.1c-.5,.5,-1,.8,-1.7,.8c-.6,0,-1.1,-.3,-1.6,-.8c-.4,-.4,-.6,-1.2,-.6,-2.2m2.3,-1.9c-.4,0,-.6,.2,-.8,.5c-.3,.3,-.4,.8,-.4,1.6c0,.6,.1,1.1,.4,1.4c.2,.3,.4,.5,.8,.5c.3,0,.6,-.2,.8,-.5c.2,-.3,.3,-.8,.3,-1.5c0,-.8,-.1,-1.3,-.3,-1.5c-.3,-.3,-.5,-.5,-.8,-.5Z" class="g9_45"/>
<path d="M214.4,699.8H365.9m-151.1,21V700.2m151.1,-.4H520.6m-154.7,21V700.2m154.7,-.4H667.8m-147.2,21V700.2m147.2,-.4H814m-146.2,21V700.2m145.8,20.6V700.2m-599.2,21H365.9M214.8,793.8V721.6m151.1,-.4H520.6M365.9,793.8V721.6m154.7,-.4H667.8M520.6,793.8V721.6m147.2,-.4H814M667.8,793.8V721.6m145.8,72.2V721.6M214.4,794.1H365.9m0,0H520.6m0,0H667.8m0,0H814M214.4,617.5H344.7M214.8,637V617.9m129.9,-.4H461.6M344.7,637V617.9m116.9,-.4H578.5M461.6,637V617.9m116.9,-.4h117M578.5,637V617.9m117,-.4H812.8M695.5,637V617.9M812.4,637V617.9m-598,19.5H344.7m-129.9,21V637.8m129.9,-.4H461.6m-116.9,21V637.8m116.9,-.4H578.5m-116.9,21V637.8m116.9,-.4h117m-117,21V637.8m117,-.4H812.8m-117.3,21V637.8m116.9,20.6V637.8m-598,21H344.7m0,0H461.6m0,0H578.5m0,0h117m0,0H812.8M214.4,825.4H344.7M214.8,844.9V825.8m129.9,-.4H461.6M344.7,844.9V825.8m116.9,-.4H578.5M461.6,844.9V825.8m116.9,-.4h117m-117,19.5V825.8m117,-.4H812.8M695.5,844.9V825.8m116.9,19.1V825.8m-598,19.4H344.7m-129.9,21V845.6m129.9,-.4H461.6m-116.9,21V845.6m116.9,-.4H578.5m-116.9,21V845.6m116.9,-.4h117m-117,21V845.6m117,-.4H812.8m-117.3,21V845.6m116.9,20.6V845.6m-598,21H344.7m0,0H461.6m0,0H578.5m0,0h117m0,0H812.8" class="g3_45"/>
<path d="M582.4,1008.7H811.3m-185,20.6V920.7m52,108.6V920.7m52,108.6V920.7m51.9,108.6V920.7M582.4,987.1H811.3M582.4,965.4H811.3M582.4,943.8H811.3M582.4,922.1H811.3" class="ga_45"/>
<path d="M582.4,904.3v126.1" class="gb_45"/>
<path fill-rule="evenodd" d="M582.4,898.9l4.7,10.8c-3.1,-1.6,-6.2,-1.6,-9.3,0Z" class="g9_45"/>
<path d="M819.9,1029.7H583" class="gb_45"/>
<path fill-rule="evenodd" d="M825.3,1029.7l-10.8,4.6c1.6,-3.1,1.6,-6.1,0,-9.2Z" class="g9_45"/>
<path d="M550.7,1033.8l-.8,2.1h-6.5v-.3c1.9,-1.7,3.2,-3.2,4,-4.3c.8,-1.1,1.2,-2.1,1.2,-3c0,-.7,-.2,-1.3,-.6,-1.8c-.5,-.4,-1,-.7,-1.6,-.7c-.5,0,-1,.2,-1.5,.5c-.4,.3,-.7,.8,-.9,1.4h-.3c.1,-1,.5,-1.8,1,-2.3c.6,-.5,1.3,-.8,2.1,-.8c.9,0,1.7,.3,2.3,.9c.6,.5,.9,1.2,.9,2c0,.6,-.1,1.1,-.4,1.7c-.4,.9,-1,1.8,-1.9,2.8c-1.4,1.5,-2.3,2.4,-2.6,2.7H548c.6,0,1,0,1.2,-.1c.3,0,.5,-.1,.7,-.2c.2,-.2,.3,-.4,.5,-.6Z" class="g9_45"/>
<path d="M552,1030.4c0,-1.2,.2,-2.3,.6,-3.2c.4,-.9,.9,-1.6,1.5,-2.1c.5,-.3,1,-.5,1.5,-.5c.9,0,1.6,.4,2.3,1.3c.9,1.1,1.3,2.5,1.3,4.4c0,1.3,-.2,2.4,-.6,3.3c-.3,.9,-.8,1.5,-1.4,1.9c-.6,.4,-1.1,.6,-1.7,.6c-1,0,-1.9,-.6,-2.6,-1.8c-.6,-1.1,-.9,-2.4,-.9,-3.9m1.6,.2c0,1.6,.2,2.8,.6,3.8c.3,.8,.8,1.2,1.4,1.2c.3,0,.6,-.1,.9,-.4c.3,-.2,.5,-.7,.7,-1.3c.3,-.9,.4,-2.3,.4,-4c0,-1.3,-.1,-2.3,-.4,-3.2c-.2,-.6,-.5,-1,-.8,-1.3c-.2,-.2,-.5,-.3,-.8,-.3c-.4,0,-.7,.2,-1,.5c-.4,.5,-.6,1.2,-.8,2.2c-.1,.9,-.2,1.9,-.2,2.8Z" class="g9_45"/>
<path d="M560.4,1030.4c0,-1.2,.2,-2.3,.6,-3.2c.4,-.9,.9,-1.6,1.5,-2.1c.5,-.3,1,-.5,1.5,-.5c.9,0,1.6,.4,2.3,1.3c.9,1.1,1.3,2.5,1.3,4.4c0,1.3,-.2,2.4,-.6,3.3c-.3,.9,-.8,1.5,-1.4,1.9c-.6,.4,-1.1,.6,-1.7,.6c-1,0,-1.9,-.6,-2.6,-1.8c-.6,-1.1,-.9,-2.4,-.9,-3.9m1.6,.2c0,1.6,.2,2.8,.6,3.8c.3,.8,.8,1.2,1.4,1.2c.3,0,.6,-.1,.9,-.4c.3,-.2,.6,-.7,.7,-1.3c.3,-.9,.4,-2.3,.4,-4c0,-1.3,-.1,-2.3,-.4,-3.2c-.2,-.6,-.5,-1,-.8,-1.3c-.2,-.2,-.5,-.3,-.8,-.3c-.4,0,-.7,.2,-1,.5c-.4,.5,-.6,1.2,-.8,2.2c-.1,.9,-.2,1.9,-.2,2.8Z" class="g9_45"/>
<path d="M568.8,1030.4c0,-1.2,.2,-2.3,.6,-3.2c.4,-.9,.9,-1.6,1.5,-2.1c.5,-.3,1,-.5,1.5,-.5c.9,0,1.7,.4,2.3,1.3c.9,1.1,1.3,2.5,1.3,4.4c0,1.3,-.2,2.4,-.6,3.3c-.3,.9,-.8,1.5,-1.4,1.9c-.6,.4,-1.1,.6,-1.7,.6c-1,0,-1.9,-.6,-2.6,-1.8c-.6,-1.1,-.9,-2.4,-.9,-3.9m1.6,.2c0,1.6,.2,2.8,.6,3.8c.3,.8,.8,1.2,1.4,1.2c.3,0,.6,-.1,.9,-.4c.3,-.2,.6,-.7,.7,-1.3c.3,-.9,.4,-2.3,.4,-4c0,-1.3,-.1,-2.3,-.4,-3.2c-.2,-.6,-.5,-1,-.8,-1.3c-.2,-.2,-.5,-.3,-.8,-.3c-.3,0,-.7,.2,-1,.5c-.4,.5,-.6,1.2,-.8,2.2c-.1,.9,-.2,1.9,-.2,2.8Z" class="g9_45"/>
<path d="M550.7,1011.9l-.8,2.2h-6.6v-.3c1.9,-1.8,3.3,-3.2,4.1,-4.3c.8,-1.2,1.2,-2.2,1.2,-3.1c0,-.7,-.2,-1.3,-.7,-1.7c-.4,-.5,-.9,-.7,-1.5,-.7c-.6,0,-1.1,.1,-1.5,.5c-.4,.3,-.8,.7,-1,1.4h-.3c.2,-1.1,.5,-1.8,1.1,-2.4c.6,-.5,1.3,-.8,2.1,-.8c.9,0,1.7,.3,2.3,.9c.6,.6,.9,1.3,.9,2c0,.6,-.2,1.2,-.4,1.7c-.4,.9,-1.1,1.9,-2,2.8c-1.3,1.5,-2.2,2.4,-2.5,2.7H548c.6,0,1,0,1.2,0c.2,-.1,.5,-.2,.7,-.3c.1,-.1,.3,-.3,.5,-.6Z" class="g9_45"/>
<path d="M559.1,1011.9l-.8,2.2h-6.6v-.3c1.9,-1.8,3.3,-3.2,4.1,-4.3c.8,-1.2,1.2,-2.2,1.2,-3.1c0,-.7,-.2,-1.3,-.7,-1.7c-.4,-.5,-.9,-.7,-1.5,-.7c-.6,0,-1.1,.1,-1.5,.5c-.4,.3,-.8,.7,-1,1.4H552c.2,-1.1,.5,-1.8,1.1,-2.4c.6,-.5,1.3,-.8,2.1,-.8c.9,0,1.7,.3,2.3,.9c.6,.6,.9,1.3,.9,2c0,.6,-.2,1.2,-.4,1.7c-.4,.9,-1.1,1.9,-2,2.8c-1.3,1.5,-2.2,2.4,-2.5,2.7h2.9c.6,0,1,0,1.2,0c.3,-.1,.5,-.2,.7,-.3c.1,-.1,.3,-.3,.5,-.6Z" class="g9_45"/>
<path d="M560.4,1008.6c0,-1.3,.2,-2.4,.5,-3.3c.4,-.9,.9,-1.6,1.6,-2c.5,-.4,1,-.6,1.5,-.6c.8,0,1.6,.5,2.3,1.3c.8,1.1,1.3,2.6,1.3,4.4c0,1.3,-.2,2.4,-.6,3.3c-.4,.9,-.8,1.6,-1.4,2c-.6,.4,-1.2,.6,-1.7,.6c-1.1,0,-1.9,-.7,-2.6,-1.9c-.6,-1.1,-.9,-2.3,-.9,-3.8m1.6,.2c0,1.5,.2,2.8,.5,3.7c.3,.8,.8,1.3,1.4,1.3c.3,0,.6,-.2,1,-.4c.3,-.3,.5,-.8,.7,-1.4c.2,-.9,.4,-2.2,.4,-4c0,-1.2,-.2,-2.3,-.4,-3.1c-.2,-.7,-.5,-1.1,-.8,-1.4c-.2,-.2,-.5,-.2,-.8,-.2c-.4,0,-.7,.1,-1,.5c-.4,.4,-.7,1.1,-.8,2.1c-.2,1,-.2,1.9,-.2,2.9Z" class="g9_45"/>
<path d="M568.8,1008.6c0,-1.3,.2,-2.4,.5,-3.3c.4,-.9,.9,-1.6,1.6,-2c.5,-.4,1,-.6,1.5,-.6c.8,0,1.6,.5,2.3,1.3c.8,1.1,1.3,2.6,1.3,4.4c0,1.3,-.2,2.4,-.6,3.3c-.4,.9,-.8,1.6,-1.4,2c-.6,.4,-1.2,.6,-1.7,.6c-1,0,-1.9,-.7,-2.6,-1.9c-.6,-1.1,-.9,-2.3,-.9,-3.8m1.6,.2c0,1.5,.2,2.8,.5,3.7c.4,.8,.8,1.3,1.4,1.3c.3,0,.6,-.2,1,-.4c.3,-.3,.5,-.8,.7,-1.4c.2,-.9,.4,-2.2,.4,-4c0,-1.2,-.2,-2.3,-.4,-3.1c-.2,-.7,-.5,-1.1,-.8,-1.4c-.2,-.2,-.5,-.2,-.8,-.2c-.4,0,-.7,.1,-1,.5c-.4,.4,-.7,1.1,-.8,2.1c-.2,1,-.2,1.9,-.2,2.9Z" class="g9_45"/>
<path d="M550.7,990.3l-.8,2.1h-6.6v-.3c1.9,-1.7,3.3,-3.2,4.1,-4.3c.8,-1.1,1.2,-2.1,1.2,-3.1c0,-.7,-.2,-1.2,-.7,-1.7c-.4,-.5,-.9,-.7,-1.5,-.7c-.6,0,-1.1,.2,-1.5,.5c-.4,.3,-.8,.8,-1,1.4h-.3c.2,-1,.5,-1.8,1.1,-2.3c.6,-.6,1.3,-.8,2.1,-.8c.9,0,1.7,.3,2.3,.8c.6,.6,.9,1.3,.9,2.1c0,.5,-.2,1.1,-.4,1.7c-.4,.9,-1.1,1.8,-2,2.8c-1.3,1.5,-2.2,2.4,-2.5,2.7H548c.6,0,1,0,1.2,-.1c.2,0,.5,-.1,.7,-.3c.1,-.1,.3,-.3,.5,-.5Z" class="g9_45"/>
<path d="M559.2,988.3v1.2h-1.5v2.9h-1.4v-2.9h-4.7v-1.1l5.2,-7.3h.9v7.2Zm-2.9,0v-5.5l-3.9,5.5Z" class="g9_45"/>
<path d="M560.4,986.9c0,-1.2,.2,-2.3,.5,-3.3c.4,-.9,.9,-1.6,1.6,-2c.5,-.4,1,-.5,1.5,-.5c.8,0,1.6,.4,2.3,1.3c.8,1,1.3,2.5,1.3,4.4c0,1.2,-.2,2.3,-.6,3.2c-.4,.9,-.8,1.6,-1.4,2c-.6,.4,-1.2,.6,-1.7,.6c-1.1,0,-1.9,-.6,-2.6,-1.9c-.6,-1,-.9,-2.3,-.9,-3.8m1.6,.2c0,1.6,.2,2.8,.5,3.8c.3,.8,.8,1.2,1.4,1.2c.3,0,.6,-.1,1,-.4c.3,-.3,.5,-.7,.7,-1.3c.2,-1,.4,-2.3,.4,-4c0,-1.3,-.2,-2.3,-.4,-3.2c-.2,-.6,-.5,-1.1,-.8,-1.3c-.2,-.2,-.5,-.3,-.8,-.3c-.4,0,-.7,.2,-1,.5c-.4,.5,-.7,1.2,-.8,2.1c-.2,1,-.2,2,-.2,2.9Z" class="g9_45"/>
<path d="M568.8,986.9c0,-1.2,.2,-2.3,.5,-3.3c.4,-.9,.9,-1.6,1.6,-2c.5,-.4,1,-.5,1.5,-.5c.8,0,1.6,.4,2.3,1.3c.8,1,1.3,2.5,1.3,4.4c0,1.2,-.2,2.3,-.6,3.2c-.4,.9,-.8,1.6,-1.4,2c-.6,.4,-1.2,.6,-1.7,.6c-1,0,-1.9,-.6,-2.6,-1.9c-.6,-1,-.9,-2.3,-.9,-3.8m1.6,.2c0,1.6,.2,2.8,.5,3.8c.4,.8,.8,1.2,1.4,1.2c.3,0,.6,-.1,1,-.4c.3,-.3,.5,-.7,.7,-1.3c.2,-1,.4,-2.3,.4,-4c0,-1.3,-.2,-2.3,-.4,-3.2c-.2,-.6,-.5,-1.1,-.8,-1.3c-.2,-.2,-.5,-.3,-.8,-.3c-.4,0,-.7,.2,-1,.5c-.4,.5,-.7,1.2,-.8,2.1c-.2,1,-.2,2,-.2,2.9Z" class="g9_45"/>
<path d="M550.7,968.6l-.8,2.2h-6.6v-.3c1.9,-1.8,3.3,-3.2,4.1,-4.4c.8,-1.1,1.2,-2.1,1.2,-3c0,-.7,-.2,-1.3,-.7,-1.8c-.4,-.4,-.9,-.6,-1.5,-.6c-.6,0,-1.1,.1,-1.5,.4c-.4,.4,-.8,.8,-1,1.5h-.3c.2,-1.1,.5,-1.8,1.1,-2.4c.6,-.5,1.3,-.8,2.1,-.8c.9,0,1.7,.3,2.3,.9c.6,.6,.9,1.2,.9,2c0,.6,-.2,1.2,-.4,1.7c-.4,.9,-1.1,1.8,-2,2.8c-1.3,1.5,-2.2,2.4,-2.5,2.7H548c.6,0,1,0,1.2,0c.2,-.1,.5,-.2,.7,-.3c.1,-.1,.3,-.3,.5,-.6Z" class="g9_45"/>
<path d="M558.9,959.4v.3c-.7,.1,-1.3,.2,-1.8,.4c-.4,.3,-.9,.6,-1.3,1c-.5,.5,-.8,1,-1.1,1.5c-.3,.6,-.6,1.2,-.8,2c.8,-.6,1.6,-.9,2.4,-.9c.8,0,1.4,.4,2,1c.5,.6,.8,1.4,.8,2.3c0,1,-.3,1.8,-.8,2.6c-.7,.9,-1.6,1.4,-2.7,1.4c-.8,0,-1.4,-.3,-2,-.8c-1,-1,-1.5,-2.2,-1.5,-3.8c0,-1,.2,-1.9,.6,-2.8c.4,-.9,.9,-1.7,1.7,-2.4c.7,-.7,1.4,-1.2,2.1,-1.4c.7,-.3,1.3,-.4,1.9,-.4Zm-5.1,5.8c-.1,.7,-.2,1.3,-.2,1.7c0,.6,.1,1.1,.3,1.8c.2,.6,.5,1.1,.9,1.4c.3,.3,.6,.4,1,.4c.5,0,.9,-.2,1.3,-.7c.4,-.4,.5,-1.1,.5,-1.9c0,-.9,-.1,-1.7,-.5,-2.4c-.4,-.7,-.9,-1,-1.6,-1c-.2,0,-.4,0,-.7,.1c-.2,.1,-.6,.3,-1,.6Z" class="g9_45"/>
<path d="M560.4,965.3c0,-1.3,.2,-2.4,.5,-3.3c.4,-.9,.9,-1.6,1.6,-2.1c.5,-.3,1,-.5,1.5,-.5c.8,0,1.6,.4,2.3,1.3c.8,1.1,1.3,2.6,1.3,4.4c0,1.3,-.2,2.4,-.6,3.3c-.4,.9,-.8,1.5,-1.4,2c-.6,.4,-1.2,.6,-1.7,.6c-1.1,0,-1.9,-.7,-2.6,-1.9c-.6,-1.1,-.9,-2.3,-.9,-3.8m1.6,.2c0,1.5,.2,2.8,.5,3.7c.3,.8,.8,1.2,1.4,1.2c.3,0,.6,-.1,1,-.4c.3,-.2,.5,-.7,.7,-1.3c.2,-.9,.4,-2.3,.4,-4c0,-1.2,-.2,-2.3,-.4,-3.1c-.2,-.7,-.5,-1.1,-.8,-1.4c-.2,-.2,-.5,-.2,-.8,-.2c-.4,0,-.7,.1,-1,.5c-.4,.4,-.7,1.1,-.8,2.1c-.2,1,-.2,1.9,-.2,2.9Z" class="g9_45"/>
<path d="M568.8,965.3c0,-1.3,.2,-2.4,.5,-3.3c.4,-.9,.9,-1.6,1.6,-2.1c.5,-.3,1,-.5,1.5,-.5c.8,0,1.6,.4,2.3,1.3c.8,1.1,1.3,2.6,1.3,4.4c0,1.3,-.2,2.4,-.6,3.3c-.4,.9,-.8,1.5,-1.4,2c-.6,.4,-1.2,.6,-1.7,.6c-1,0,-1.9,-.7,-2.6,-1.9c-.6,-1.1,-.9,-2.3,-.9,-3.8m1.6,.2c0,1.5,.2,2.8,.5,3.7c.4,.8,.8,1.2,1.4,1.2c.3,0,.6,-.1,1,-.4c.3,-.2,.5,-.7,.7,-1.3c.2,-.9,.4,-2.3,.4,-4c0,-1.2,-.2,-2.3,-.4,-3.1c-.2,-.7,-.5,-1.1,-.8,-1.4c-.2,-.2,-.5,-.2,-.8,-.2c-.4,0,-.7,.1,-1,.5c-.4,.4,-.7,1.1,-.8,2.1c-.2,1,-.2,1.9,-.2,2.9Z" class="g9_45"/>
<path d="M550.7,947l-.8,2.1h-6.6v-.3c1.9,-1.8,3.3,-3.2,4.1,-4.3c.8,-1.1,1.2,-2.1,1.2,-3.1c0,-.7,-.2,-1.3,-.7,-1.7c-.4,-.5,-.9,-.7,-1.5,-.7c-.6,0,-1.1,.2,-1.5,.5c-.4,.3,-.8,.8,-1,1.4h-.3c.2,-1,.5,-1.8,1.1,-2.3c.6,-.6,1.3,-.8,2.1,-.8c.9,0,1.7,.2,2.3,.8c.6,.6,.9,1.3,.9,2.1c0,.5,-.2,1.1,-.4,1.7c-.4,.9,-1.1,1.8,-2,2.8c-1.3,1.5,-2.2,2.4,-2.5,2.7H548c.6,0,1,0,1.2,-.1c.2,0,.5,-.1,.7,-.3c.1,-.1,.3,-.3,.5,-.5Z" class="g9_45"/>
<path d="M554.6,943.5c-.9,-.7,-1.5,-1.3,-1.7,-1.7c-.3,-.5,-.4,-.9,-.4,-1.4c0,-.7,.3,-1.3,.8,-1.9c.6,-.5,1.3,-.7,2.3,-.7c.9,0,1.6,.2,2.1,.7c.6,.5,.8,1,.8,1.7c0,.4,-.1,.8,-.4,1.2c-.3,.5,-.9,1,-1.8,1.6c.9,.7,1.6,1.3,1.9,1.7c.4,.6,.6,1.2,.6,1.8c0,.8,-.3,1.4,-.9,2c-.6,.5,-1.4,.8,-2.4,.8c-1,0,-1.8,-.3,-2.4,-1c-.5,-.5,-.7,-1.1,-.7,-1.7c0,-.5,.1,-1,.5,-1.5c.3,-.5,.9,-1,1.7,-1.6m1.3,-.9c.6,-.6,1,-1,1.2,-1.4c.2,-.3,.3,-.7,.3,-1.1c0,-.6,-.2,-1.1,-.5,-1.4c-.3,-.3,-.8,-.5,-1.3,-.5c-.6,0,-1,.2,-1.4,.5c-.3,.3,-.5,.7,-.5,1.1c0,.3,.1,.6,.2,.9c.1,.3,.4,.6,.6,.8Zm-.9,1.2c-.5,.4,-.8,.8,-1,1.3c-.3,.4,-.4,.9,-.4,1.4c0,.7,.2,1.3,.6,1.7c.4,.5,.9,.7,1.5,.7c.6,0,1,-.2,1.4,-.5c.4,-.4,.5,-.8,.5,-1.2c0,-.4,-.1,-.8,-.3,-1.1c-.4,-.6,-1.2,-1.3,-2.3,-2.3Z" class="g9_45"/>
<path d="M560.4,943.6c0,-1.3,.2,-2.3,.5,-3.3c.4,-.9,.9,-1.6,1.6,-2c.5,-.4,1,-.5,1.5,-.5c.8,0,1.6,.4,2.3,1.3c.8,1,1.3,2.5,1.3,4.3c0,1.3,-.2,2.4,-.6,3.3c-.4,.9,-.8,1.6,-1.4,2c-.6,.4,-1.2,.6,-1.7,.6c-1.1,0,-1.9,-.6,-2.6,-1.9c-.6,-1,-.9,-2.3,-.9,-3.8m1.6,.2c0,1.6,.2,2.8,.5,3.8c.3,.8,.8,1.2,1.4,1.2c.3,0,.6,-.1,1,-.4c.3,-.3,.5,-.7,.7,-1.3c.2,-1,.4,-2.3,.4,-4c0,-1.3,-.2,-2.3,-.4,-3.2c-.2,-.6,-.5,-1.1,-.8,-1.3c-.2,-.2,-.5,-.3,-.8,-.3c-.4,0,-.7,.2,-1,.5c-.4,.5,-.7,1.2,-.8,2.1c-.2,1,-.2,2,-.2,2.9Z" class="g9_45"/>
<path d="M568.8,943.6c0,-1.3,.2,-2.3,.5,-3.3c.4,-.9,.9,-1.6,1.6,-2c.5,-.4,1,-.5,1.5,-.5c.8,0,1.6,.4,2.3,1.3c.8,1,1.3,2.5,1.3,4.3c0,1.3,-.2,2.4,-.6,3.3c-.4,.9,-.8,1.6,-1.4,2c-.6,.4,-1.2,.6,-1.7,.6c-1,0,-1.9,-.6,-2.6,-1.9c-.6,-1,-.9,-2.3,-.9,-3.8m1.6,.2c0,1.6,.2,2.8,.5,3.8c.4,.8,.8,1.2,1.4,1.2c.3,0,.6,-.1,1,-.4c.3,-.3,.5,-.7,.7,-1.3c.2,-1,.4,-2.3,.4,-4c0,-1.3,-.2,-2.3,-.4,-3.2c-.2,-.6,-.5,-1.1,-.8,-1.3c-.2,-.2,-.5,-.3,-.8,-.3c-.4,0,-.7,.2,-1,.5c-.4,.5,-.7,1.2,-.8,2.1c-.2,1,-.2,2,-.2,2.9Z" class="g9_45"/>
<path d="M543.8,918.4c.3,-.7,.7,-1.3,1.2,-1.7c.5,-.4,1.1,-.6,1.8,-.6c.9,0,1.6,.3,2.1,.9c.3,.4,.5,.9,.5,1.4c0,.8,-.5,1.6,-1.5,2.5c.7,.2,1.2,.6,1.5,1.1c.4,.5,.6,1.1,.6,1.8c0,.9,-.3,1.8,-1,2.5c-.8,.9,-1.9,1.4,-3.4,1.4c-.8,0,-1.3,-.1,-1.6,-.3c-.2,-.2,-.4,-.4,-.4,-.6c0,-.2,.1,-.3,.2,-.4c.2,-.2,.3,-.2,.5,-.2c.1,0,.3,0,.4,0c.1,.1,.3,.2,.6,.3c.4,.2,.6,.3,.7,.4c.2,0,.4,0,.7,0c.5,0,1,-.2,1.4,-.6c.4,-.4,.6,-.9,.6,-1.5c0,-.5,-.1,-.9,-.2,-1.3c-.2,-.3,-.3,-.5,-.5,-.7c-.2,-.2,-.6,-.4,-1,-.6c-.4,-.2,-.8,-.3,-1.2,-.3h-.3v-.2c.4,-.1,.9,-.2,1.3,-.5c.4,-.2,.8,-.5,1,-.9c.1,-.4,.2,-.8,.2,-1.2c0,-.6,-.1,-1,-.5,-1.4c-.3,-.3,-.8,-.5,-1.3,-.5c-.8,0,-1.6,.5,-2.1,1.4Z" class="g9_45"/>
<path d="M552,922c0,-1.3,.2,-2.4,.5,-3.3c.4,-.9,.9,-1.6,1.6,-2.1c.5,-.3,1,-.5,1.5,-.5c.8,0,1.6,.4,2.3,1.3c.8,1.1,1.3,2.5,1.3,4.4c0,1.3,-.2,2.4,-.6,3.3c-.4,.9,-.8,1.5,-1.4,1.9c-.6,.5,-1.2,.7,-1.7,.7c-1.1,0,-1.9,-.7,-2.6,-1.9c-.6,-1.1,-.9,-2.4,-.9,-3.8m1.6,.2c0,1.5,.2,2.8,.5,3.7c.3,.8,.8,1.2,1.4,1.2c.3,0,.6,-.1,.9,-.4c.4,-.2,.6,-.7,.8,-1.3c.2,-.9,.4,-2.3,.4,-4c0,-1.2,-.2,-2.3,-.4,-3.1c-.2,-.7,-.5,-1.1,-.8,-1.4c-.2,-.2,-.5,-.3,-.8,-.3c-.4,0,-.7,.2,-1,.5c-.4,.5,-.7,1.2,-.8,2.2c-.2,1,-.2,1.9,-.2,2.9Z" class="g9_45"/>
<path d="M560.4,922c0,-1.3,.2,-2.4,.5,-3.3c.4,-.9,.9,-1.6,1.6,-2.1c.5,-.3,1,-.5,1.5,-.5c.8,0,1.6,.4,2.3,1.3c.8,1.1,1.3,2.5,1.3,4.4c0,1.3,-.2,2.4,-.6,3.3c-.4,.9,-.8,1.5,-1.4,1.9c-.6,.5,-1.2,.7,-1.7,.7c-1.1,0,-1.9,-.7,-2.6,-1.9c-.6,-1.1,-.9,-2.4,-.9,-3.8m1.6,.2c0,1.5,.2,2.8,.5,3.7c.3,.8,.8,1.2,1.4,1.2c.3,0,.6,-.1,1,-.4c.3,-.2,.5,-.7,.7,-1.3c.2,-.9,.4,-2.3,.4,-4c0,-1.2,-.2,-2.3,-.4,-3.1c-.2,-.7,-.5,-1.1,-.8,-1.4c-.2,-.2,-.5,-.3,-.8,-.3c-.4,0,-.7,.2,-1,.5c-.4,.5,-.7,1.2,-.8,2.2c-.2,1,-.2,1.9,-.2,2.9Z" class="g9_45"/>
<path d="M568.8,922c0,-1.3,.2,-2.4,.5,-3.3c.4,-.9,.9,-1.6,1.6,-2.1c.5,-.3,1,-.5,1.5,-.5c.8,0,1.6,.4,2.3,1.3c.8,1.1,1.3,2.5,1.3,4.4c0,1.3,-.2,2.4,-.6,3.3c-.4,.9,-.8,1.5,-1.4,1.9c-.6,.5,-1.2,.7,-1.7,.7c-1,0,-1.9,-.7,-2.6,-1.9c-.6,-1.1,-.9,-2.4,-.9,-3.8m1.6,.2c0,1.5,.2,2.8,.5,3.7c.4,.8,.8,1.2,1.4,1.2c.3,0,.6,-.1,1,-.4c.3,-.2,.5,-.7,.7,-1.3c.2,-.9,.4,-2.3,.4,-4c0,-1.2,-.2,-2.3,-.4,-3.1c-.2,-.7,-.5,-1.1,-.8,-1.4c-.2,-.2,-.5,-.3,-.8,-.3c-.4,0,-.7,.2,-1,.5c-.4,.5,-.7,1.2,-.8,2.2c-.2,1,-.2,1.9,-.2,2.9Z" class="g9_45"/>
<path d="M629.3,1050.6v.3H625v-.3h.3c.4,0,.7,-.1,.9,-.3c.1,-.2,.2,-.6,.2,-1.2v-6.5c0,-.5,0,-.9,-.1,-1c0,-.2,-.1,-.3,-.3,-.4c-.2,-.1,-.4,-.1,-.7,-.1H625v-.3h4.3v.3h-.4c-.4,0,-.7,.1,-.9,.3c-.1,.2,-.2,.6,-.2,1.2v6.5c0,.5,.1,.9,.1,1c.1,.2,.2,.3,.3,.4c.3,.1,.5,.1,.7,.1Z" class="g9_45"/>
<path d="M678.7,1050.6v.3h-4.3v-.3h.3c.5,0,.8,-.1,.9,-.3c.2,-.2,.2,-.6,.2,-1.2v-6.5c0,-.5,0,-.9,-.1,-1c0,-.2,-.1,-.3,-.3,-.4c-.2,-.1,-.4,-.1,-.7,-.1h-.3v-.3h4.3v.3h-.4c-.4,0,-.7,.1,-.9,.3c-.1,.2,-.1,.6,-.1,1.2v6.5c0,.5,0,.9,.1,1c0,.2,.1,.3,.3,.4c.2,.1,.4,.1,.6,.1Z" class="g9_45"/>
<path d="M683.8,1050.6v.3h-4.3v-.3h.3c.4,0,.7,-.1,.9,-.3c.2,-.2,.2,-.6,.2,-1.2v-6.5c0,-.5,0,-.9,-.1,-1c0,-.2,-.1,-.3,-.3,-.4c-.2,-.1,-.4,-.1,-.7,-.1h-.3v-.3h4.3v.3h-.4c-.4,0,-.7,.1,-.9,.3c-.1,.2,-.2,.6,-.2,1.2v6.5c0,.5,.1,.9,.1,1c.1,.2,.2,.3,.4,.4c.2,.1,.4,.1,.6,.1Z" class="g9_45"/>
<path d="M728.1,1050.6v.3h-4.3v-.3h.4c.4,0,.7,-.1,.9,-.3c.1,-.2,.2,-.6,.2,-1.2v-6.5c0,-.5,-.1,-.9,-.1,-1c-.1,-.2,-.2,-.3,-.3,-.4c-.3,-.1,-.5,-.1,-.7,-.1h-.4v-.3h4.3v.3h-.3c-.4,0,-.7,.1,-.9,.3c-.2,.2,-.2,.6,-.2,1.2v6.5c0,.5,0,.9,.1,1c0,.2,.1,.3,.3,.4c.2,.1,.4,.1,.7,.1Z" class="g9_45"/>
<path d="M733.2,1050.6v.3h-4.3v-.3h.4c.4,0,.7,-.1,.9,-.3c.1,-.2,.1,-.6,.1,-1.2v-6.5c0,-.5,0,-.9,-.1,-1c0,-.2,-.1,-.3,-.3,-.4c-.2,-.1,-.4,-.1,-.6,-.1h-.4v-.3h4.3v.3h-.3c-.5,0,-.8,.1,-.9,.3c-.2,.2,-.2,.6,-.2,1.2v6.5c0,.5,0,.9,.1,1c0,.2,.1,.3,.3,.4c.2,.1,.4,.1,.7,.1Z" class="g9_45"/>
<path d="M738.3,1050.6v.3H734v-.3h.3c.5,0,.8,-.1,.9,-.3c.2,-.2,.2,-.6,.2,-1.2v-6.5c0,-.5,0,-.9,-.1,-1c0,-.2,-.1,-.3,-.3,-.4c-.2,-.1,-.4,-.1,-.7,-.1H734v-.3h4.3v.3h-.4c-.4,0,-.7,.1,-.9,.3c-.1,.2,-.1,.6,-.1,1.2v6.5c0,.5,0,.9,.1,1c0,.2,.1,.3,.3,.4c.2,.1,.4,.1,.6,.1Z" class="g9_45"/>
<path d="M779.8,1050.6v.3h-4.3v-.3h.3c.5,0,.8,-.1,.9,-.3c.2,-.2,.2,-.6,.2,-1.2v-6.5c0,-.5,0,-.9,-.1,-1c0,-.2,-.1,-.3,-.3,-.4c-.2,-.1,-.4,-.1,-.7,-.1h-.3v-.3h4.3v.3h-.3c-.5,0,-.8,.1,-1,.3c-.1,.2,-.1,.6,-.1,1.2v6.5c0,.5,0,.9,.1,1c0,.2,.1,.3,.3,.4c.2,.1,.4,.1,.7,.1Z" class="g9_45"/>
<path d="M791,1040.8v.3c-.3,0,-.6,.1,-.8,.3c-.2,.3,-.5,.6,-.7,1.1l-3.5,8.6h-.3l-3.8,-8.7c-.2,-.4,-.3,-.7,-.4,-.8c-.1,-.2,-.3,-.3,-.4,-.4c-.2,-.1,-.5,-.1,-.8,-.1v-.3h4.2v.3c-.5,0,-.8,.1,-1,.2c-.1,.1,-.2,.3,-.2,.4c0,.3,.2,.7,.4,1.2l2.6,5.9l2.3,-5.8c.3,-.6,.4,-1,.4,-1.2c0,-.2,-.1,-.3,-.2,-.4c-.2,-.2,-.4,-.3,-.8,-.3h-.1v-.3Z" class="g9_45"/>
<path fill-rule="evenodd" d="M618.7,987.3l7.2,-7.3l7.2,7.3l-7.2,7.2Z" class="gc_45"/>
<path fill-rule="evenodd" d="M670.6,1008.1l7.3,-7.2l7.2,7.2l-7.2,7.3Z" class="gc_45"/>
<path fill-rule="evenodd" d="M722.6,944.3l7.2,-7.2l7.2,7.2l-7.2,7.3Z" class="gc_45"/>
<path fill-rule="evenodd" d="M774.6,966l7.2,-7.2L789,966l-7.2,7.2Z" class="gc_45"/>
<path d="M519.7,983.8l2.5,-.1v.3c-.8,.2,-1.3,.4,-1.5,.8c-.2,.4,-.4,1,-.4,2v1.8h4.5v-.4c0,-1.4,0,-2.4,.2,-3c.2,-.7,.5,-1.2,1,-1.6c.5,-.4,1.1,-.6,1.8,-.6c.8,0,1.5,.3,2.1,.9c.7,.6,1,1.7,1,3.2v4.7h-.3c-.1,-.7,-.2,-1.1,-.4,-1.3c-.2,-.2,-.6,-.3,-1.4,-.3h-7c-.6,0,-1,0,-1.2,.1c-.2,.1,-.3,.2,-.4,.4c-.1,.2,-.1,.5,-.2,1h-.3Zm10.5,4.8c.1,-.5,.1,-.8,.1,-1.1c0,-.7,-.2,-1.3,-.7,-1.8c-.4,-.6,-1,-.8,-1.8,-.8c-.8,0,-1.4,.2,-1.8,.8c-.4,.6,-.6,1.3,-.6,2.2c0,.2,0,.5,0,.7Zm-6.1,-6.1l-.9,-2.3v-.4h1.7c-.6,-.3,-1.1,-.7,-1.4,-1.1c-.2,-.4,-.4,-.8,-.4,-1.3c0,-.7,.3,-1.3,.9,-1.8c.7,-.7,1.7,-1,2.8,-1c1.3,0,2.4,.4,3.3,1.1c.7,.7,1,1.4,1,2.4c0,.4,-.1,.7,-.2,1c-.1,.2,-.2,.5,-.5,.7h2.3c.5,0,.9,0,1,-.1c.1,0,.3,-.1,.3,-.3c.1,-.1,.2,-.4,.2,-.8h.3v3.9h-.3v-.2c0,-.3,-.1,-.6,-.2,-.8c-.1,-.1,-.2,-.2,-.3,-.2c-.1,-.1,-.5,-.1,-1,-.1h-7.1c-.5,0,-.8,0,-1,.1c-.1,0,-.2,.1,-.3,.2c0,.1,-.1,.2,-.1,.4c0,.1,.1,.3,.2,.5Zm1.3,-2.7h2.8c.6,0,1,0,1.2,0c.3,-.1,.6,-.3,.8,-.6c.3,-.3,.4,-.7,.4,-1.1c0,-.6,-.2,-1,-.6,-1.3c-.6,-.5,-1.4,-.7,-2.4,-.7c-1.1,0,-2,.2,-2.6,.7c-.5,.4,-.7,.8,-.7,1.3c0,.3,.1,.5,.2,.8c.1,.2,.4,.5,.9,.9m-2.3,-10c0,-1.1,.5,-2,1.3,-2.7c.8,-.6,1.6,-.9,2.6,-.9c.6,0,1.3,.2,2,.5c.7,.3,1.2,.8,1.6,1.3c.3,.6,.5,1.2,.5,1.9c0,1.2,-.5,2.1,-1.4,2.7c-.7,.6,-1.6,.9,-2.5,.9c-.7,0,-1.4,-.2,-2.1,-.5c-.7,-.4,-1.2,-.8,-1.5,-1.4c-.3,-.5,-.5,-1.1,-.5,-1.8m.6,.3c0,.3,0,.6,.2,.9c.2,.3,.5,.5,.9,.7c.5,.2,1,.3,1.7,.3c1.1,0,2,-.3,2.8,-.7c.8,-.4,1.2,-1,1.2,-1.7c0,-.5,-.2,-1,-.6,-1.3c-.5,-.4,-1.2,-.5,-2.3,-.5c-1.3,0,-2.4,.2,-3.1,.8c-.6,.4,-.8,.9,-.8,1.5m-3.4,-6.3c-.2,0,-.3,0,-.4,-.1c-.1,-.1,-.2,-.3,-.2,-.4c0,-.4,.3,-.7,1,-1c.4,-.1,.6,-.3,.7,-.5c.1,-.2,.2,-.4,.2,-.6c0,-.4,-.1,-.6,-.2,-.8c-.2,-.2,-.5,-.4,-.8,-.5c-.6,-.2,-.9,-.5,-.9,-.8c0,-.2,.1,-.4,.2,-.5c.1,-.1,.2,-.1,.4,-.1c.4,0,.8,.2,1.2,.8c.4,.5,.5,1.2,.5,1.9c0,.9,-.1,1.5,-.5,2c-.3,.4,-.7,.6,-1.2,.6m8.3,-1l-3.8,-3.3c-.4,0,-.7,.1,-.9,.3c-.1,.1,-.2,.4,-.2,.7h-.4V957h.4c0,.4,0,.6,.1,.8c0,.1,.1,.2,.2,.3c.2,0,.5,.1,1.1,.1h4c.6,0,.9,-.1,1,-.1c.2,-.1,.3,-.2,.3,-.3c.1,-.1,.2,-.4,.2,-.8h.3v3.7h-.3c0,-.5,-.1,-.8,-.3,-.9c-.2,-.2,-.6,-.3,-1.2,-.3h-3.5l3.7,3.3c.5,0,.8,-.1,1,-.2c.2,-.1,.3,-.4,.3,-.8h.3v3.5h-.3c0,-.5,-.1,-.8,-.3,-1c-.2,-.1,-.6,-.2,-1.2,-.2h-4c-.6,0,-.9,.1,-1,.1c-.1,.1,-.2,.2,-.3,.3c-.1,.1,-.1,.4,-.1,.8h-.4v-3.7h.4c0,.4,0,.6,.1,.8c0,.1,.1,.2,.2,.3c.2,0,.5,.1,1.1,.1Z" class="g9_45"/>
<path d="M670.5,1057.7l.1,2.4h-.3c0,-.4,-.1,-.7,-.2,-.9c-.1,-.3,-.3,-.5,-.6,-.7c-.3,-.1,-.6,-.2,-1,-.2h-1.4v7.8c0,.6,0,1,.2,1.1c.2,.2,.5,.4,.8,.4h.4v.2h-4.3v-.2h.4c.4,0,.7,-.2,.9,-.4c.1,-.2,.1,-.6,.1,-1.1v-7.8h-1.2c-.5,0,-.8,.1,-1,.1c-.2,.1,-.5,.3,-.7,.6c-.1,.3,-.2,.6,-.3,1.1h-.3l.2,-2.4Z" class="g9_45"/>
<path d="M671,1061.7l2.1,-.9h.3v1.6c.3,-.6,.7,-1,1,-1.2c.4,-.3,.8,-.4,1.2,-.4c.7,0,1.2,.3,1.7,.8c.5,.7,.8,1.5,.8,2.6c0,1.1,-.3,2.1,-1,2.9c-.5,.6,-1.2,.9,-2.1,.9c-.4,0,-.7,0,-.9,-.1c-.2,-.1,-.5,-.2,-.7,-.5v2.1c0,.5,0,.8,.1,.9c0,.1,.1,.2,.3,.3c.1,.1,.4,.1,.7,.1v.3H671v-.3h.1c.3,0,.5,0,.7,-.1c.1,-.1,.2,-.2,.3,-.3c0,-.1,0,-.4,0,-.9V1063c0,-.4,0,-.7,0,-.8q-.1,-.2,-.2,-.3c-.1,-.1,-.2,-.1,-.4,-.1c-.1,0,-.2,0,-.4,.1Zm2.4,1.2v2.5c0,.6,0,.9,0,1.1c.1,.3,.3,.5,.6,.8c.2,.2,.6,.3,1,.3c.5,0,.9,-.2,1.2,-.6c.4,-.5,.6,-1.2,.6,-2.1c0,-1.1,-.2,-1.9,-.7,-2.4c-.3,-.4,-.7,-.6,-1.1,-.6c-.3,0,-.5,0,-.7,.1c-.2,.1,-.5,.4,-.9,.9Z" class="g9_45"/>
<path d="M681.3,1065.7l2.9,-3.4c0,-.4,-.1,-.6,-.2,-.8c-.1,-.1,-.4,-.2,-.7,-.2v-.3h3.2v.3c-.4,0,-.6,0,-.7,.1c-.1,0,-.2,.1,-.3,.2c0,.1,-.1,.4,-.1,1v3.6c0,.5,.1,.9,.1,1c.1,.1,.2,.2,.3,.2c.1,.1,.3,.2,.7,.2v.2h-3.3v-.2c.4,0,.7,-.1,.8,-.3c.1,-.1,.2,-.5,.2,-1.1V1063l-2.9,3.4c0,.5,0,.7,.1,.9c.1,.2,.4,.2,.7,.3v.2H679v-.2c.4,0,.7,-.1,.8,-.3c.2,-.2,.2,-.5,.2,-1.1v-3.6c0,-.5,0,-.9,-.1,-.9c0,-.1,-.1,-.2,-.2,-.3c-.1,-.1,-.4,-.1,-.7,-.1v-.3h3.3v.3c-.3,0,-.6,0,-.7,.1c-.1,0,-.2,.1,-.2,.2c-.1,.1,-.1,.4,-.1,1Z" class="g9_45"/>
<path d="M691.7,1066l2.2,-5h2.3v.3c-.4,0,-.6,0,-.7,.1c-.1,0,-.2,.1,-.3,.2c0,.1,-.1,.4,-.1,1v3.6c0,.5,0,.8,.1,.9c0,.2,.1,.3,.3,.3c.1,.1,.4,.2,.7,.2v.2h-3.4v-.2c.5,0,.7,-.1,.9,-.3c.1,-.1,.2,-.5,.2,-1.1v-4.1l-2.4,5.7h-.3l-2.5,-5.7v4.1c0,.5,.1,.8,.1,.9c.1,.2,.2,.3,.3,.3c.1,.1,.4,.2,.7,.2v.2h-2.6v-.2c.4,0,.7,-.1,.8,-.3c.1,-.2,.2,-.5,.2,-1.1v-3.6c0,-.5,0,-.9,-.1,-.9c0,-.1,-.1,-.2,-.2,-.3c-.1,-.1,-.4,-.1,-.7,-.1v-.3h2.4Z" class="g9_45"/>
<path d="M698.1,1063.6c0,1,.3,1.8,.8,2.4c.5,.5,1,.8,1.7,.8c.5,0,.8,-.1,1.2,-.4c.3,-.2,.6,-.6,.8,-1.2l.2,.1c-.1,.7,-.4,1.3,-.9,1.9c-.5,.6,-1.1,.8,-1.9,.8c-.8,0,-1.5,-.3,-2.1,-.9c-.6,-.7,-.8,-1.5,-.8,-2.6c0,-1.2,.3,-2.1,.9,-2.7c.6,-.7,1.3,-1,2.2,-1c.8,0,1.4,.2,1.9,.7c.5,.5,.7,1.2,.7,2.1Zm0,-.5h3.2c0,-.4,-.1,-.7,-.2,-.9c-.1,-.3,-.3,-.5,-.5,-.6c-.3,-.2,-.5,-.3,-.8,-.3c-.4,0,-.8,.2,-1.1,.5c-.3,.3,-.5,.8,-.6,1.3Z" class="g9_45"/>
<path d="M709.9,1065.2c-.2,.9,-.5,1.6,-1,2.1c-.6,.5,-1.2,.7,-1.8,.7c-.8,0,-1.5,-.3,-2.1,-.9c-.5,-.7,-.8,-1.6,-.8,-2.7c0,-1.1,.3,-1.9,.9,-2.6c.7,-.7,1.4,-1,2.3,-1c.7,0,1.3,.2,1.7,.5c.4,.4,.6,.7,.6,1.1c0,.2,0,.4,-.1,.5c-.2,.1,-.3,.2,-.6,.2c-.2,0,-.5,-.1,-.6,-.3c-.1,-.1,-.2,-.3,-.2,-.6c0,-.3,-.1,-.5,-.3,-.7c-.2,-.1,-.4,-.2,-.7,-.2c-.5,0,-.9,.2,-1.2,.5c-.4,.5,-.6,1.2,-.6,2c0,.8,.2,1.5,.6,2.1c.4,.7,.9,1,1.6,1c.5,0,.9,-.2,1.3,-.5c.3,-.3,.6,-.7,.8,-1.3Z" class="g9_45"/>
<path d="M712.2,1063.6c0,1,.3,1.8,.8,2.4c.5,.5,1.1,.8,1.7,.8c.5,0,.9,-.1,1.2,-.4c.3,-.2,.6,-.6,.8,-1.2l.3,.1c-.1,.7,-.4,1.3,-.9,1.9c-.5,.6,-1.2,.8,-1.9,.8c-.9,0,-1.6,-.3,-2.1,-.9c-.6,-.7,-.9,-1.5,-.9,-2.6c0,-1.2,.3,-2.1,.9,-2.7c.6,-.7,1.3,-1,2.2,-1c.8,0,1.4,.2,1.9,.7c.5,.5,.8,1.2,.8,2.1Zm0,-.5h3.2c0,-.4,-.1,-.7,-.2,-.9c-.1,-.3,-.3,-.5,-.5,-.6c-.3,-.2,-.5,-.3,-.8,-.3c-.4,0,-.8,.2,-1.1,.5c-.3,.3,-.5,.8,-.6,1.3Z" class="g9_45"/>
<path d="M722.1,1064.1v-1.5c0,-.5,0,-.8,-.1,-.9c0,-.2,-.1,-.3,-.3,-.3c-.1,-.1,-.3,-.1,-.6,-.1v-.3h3.3v.3c-.4,0,-.6,0,-.7,.1c-.1,0,-.2,.1,-.3,.2c0,.1,-.1,.4,-.1,1v3.6c0,.5,.1,.8,.1,.9c0,.2,.1,.3,.3,.3c.1,.1,.4,.2,.7,.2v.2h-3.5v-.2c.4,-.1,.7,-.1,.8,-.1c.1,-.1,.2,-.2,.3,-.3c.1,-.2,.1,-.5,.1,-1v-1.7c-.7,.4,-1.5,.6,-2.3,.6c-.5,0,-.8,0,-1.1,-.2c-.2,-.1,-.3,-.2,-.4,-.3c-.1,-.2,-.1,-.4,-.1,-.8v-1.2c0,-.4,0,-.7,-.1,-.9c0,-.1,-.1,-.2,-.2,-.3c-.2,-.1,-.4,-.1,-.7,-.1v-.3h3.3v.3c-.4,0,-.6,0,-.7,.1c-.1,0,-.2,.1,-.3,.2c0,.1,-.1,.4,-.1,1v.8c0,.4,0,.6,.1,.7c0,.1,.1,.2,.3,.3c.2,.1,.4,.1,.7,.1c.6,0,1.1,-.1,1.6,-.4Z" class="g9_45"/>
<path d="M727.3,1065.7l3,-3.4c0,-.4,-.1,-.6,-.2,-.8c-.2,-.1,-.4,-.2,-.7,-.2v-.3h3.1v.3c-.3,0,-.5,0,-.6,.1c-.1,0,-.2,.1,-.3,.2c-.1,.1,-.1,.4,-.1,1v3.6c0,.5,0,.9,.1,1c0,.1,.1,.2,.2,.2c.2,.1,.4,.2,.7,.2v.2h-3.3v-.2c.4,0,.7,-.1,.9,-.3c.1,-.1,.2,-.5,.2,-1.1V1063l-3,3.4c0,.5,.1,.7,.2,.9c.1,.2,.3,.2,.7,.3v.2H725v-.2c.5,0,.8,-.1,.9,-.3c.1,-.2,.2,-.5,.2,-1.1v-3.6c0,-.5,0,-.9,-.1,-.9c-.1,-.1,-.1,-.2,-.3,-.3c-.1,-.1,-.3,-.1,-.7,-.1v-.3h3.4v.3c-.4,0,-.6,0,-.7,.1c-.1,0,-.2,.1,-.3,.2c-.1,.1,-.1,.4,-.1,1Z" class="g9_45"/>
<path d="M734.5,1063.6c0,1,.2,1.8,.7,2.4c.5,.5,1.1,.8,1.8,.8c.4,0,.8,-.1,1.2,-.4c.3,-.2,.6,-.6,.8,-1.2l.2,.1c-.1,.7,-.4,1.3,-.9,1.9c-.5,.6,-1.1,.8,-1.9,.8c-.8,0,-1.5,-.3,-2.1,-.9c-.6,-.7,-.9,-1.5,-.9,-2.6c0,-1.2,.3,-2.1,.9,-2.7c.6,-.7,1.4,-1,2.3,-1c.8,0,1.4,.2,1.9,.7c.5,.5,.7,1.2,.7,2.1Zm0,-.5h3.2c-.1,-.4,-.1,-.7,-.2,-.9c-.1,-.3,-.3,-.5,-.5,-.6c-.3,-.2,-.5,-.3,-.8,-.3c-.4,0,-.8,.2,-1.1,.5c-.3,.3,-.5,.8,-.6,1.3Z" class="g9_45"/>
</svg>