<?xml version="1.0" encoding="UTF-8" standalone="no"?>
<!DOCTYPE svg PUBLIC "-//W3C//DTD SVG 1.1//EN"
"http://www.w3.org/Graphics/SVG/1.1/DTD/svg11.dtd">
<svg viewBox="0 0 909 1147" version="1.1" xmlns="http://www.w3.org/2000/svg" xmlns:xlink="http://www.w3.org/1999/xlink">
<defs>
<clipPath id="c0_39"><path d="M128.1,635.5c-.4,0,-.8,-.1,-1.1,-.1c-4,-1.3,-7.7,-3.3,-10.9,-5.4c-.6,-.2,-1.2,-.4,-1.8,-.6c-.1,-.1,-.2,-.3,-.3,-.5h-.6c-.1,-.2,-.2,-.4,-.3,-.6h-.6c-.1,-.2,-.2,-.4,-.3,-.6c-.5,-.2,-1.1,-.4,-1.7,-.6c-.1,-.2,-.2,-.4,-.3,-.6c-.4,-.1,-.8,-.2,-1.2,-.3c-.1,-.2,-.2,-.4,-.3,-.6h-.6c-.1,-.2,-.2,-.4,-.3,-.6h-.6c-.1,-.2,-.2,-.4,-.3,-.6c-.4,-.1,-.8,-.2,-1.1,-.3v-.3c-.3,-.1,-.6,-.2,-.9,-.3c-.1,-.2,-.2,-.3,-.3,-.5H104c-.1,-.2,-.2,-.4,-.3,-.6c-.6,-.5,-1.2,-1,-1.8,-1.5v-.6c-.3,-.2,-.6,-.4,-.9,-.6c-.3,-.5,0,-.7,-.6,-1.2c0,-.4,0,-.7,0,-1.1c0,-2.2,.3,-3.7,.9,-5.4v-.9c.2,0,.4,-.1,.6,-.2c.3,-.9,.6,-1.8,.9,-2.7c.2,-.1,.4,-.2,.6,-.3V607c.2,-.1,.4,-.2,.6,-.3v-.6h.3v-.6h.3v-.6h.3v-.5h.3v-.6c.2,-.1,.4,-.2,.6,-.3l.2,-1.2c.2,-.1,.4,-.2,.6,-.3v-.9c.2,-.1,.4,-.2,.6,-.3v-.6h.3v-.6h.3V599h.3v-.5h.3c.1,-.3,.2,-.6,.3,-.9c.2,-.1,.4,-.2,.6,-.3c.2,-.6,.4,-1.2,.6,-1.8c.2,-.1,.4,-.2,.6,-.3c.2,-.6,.4,-1.2,.6,-1.8c.2,-.1,.4,-.2,.6,-.3L112,592h.2c.1,-.3,.2,-.6,.3,-.9c.2,-.1,.4,-.2,.6,-.3l.3,-1.2h.3l.3,-.9c.2,-.1,.4,-.2,.6,-.3l.3,-1.2c.2,-.1,.4,-.2,.6,-.3c.2,-.5,.4,-1.1,.6,-1.7c.2,-.1,.4,-.2,.6,-.3c.1,-.4,.2,-.8,.3,-1.2c.2,-.1,.4,-.2,.6,-.3c.2,-.6,.4,-1.2,.6,-1.8h.2V581h.3c.2,-.6,.4,-1.1,.6,-1.7h.3c.1,-.6,.2,-1.2,.3,-1.8h.3v-.6h.3c.1,-.7,.2,-1.4,.3,-2.1h.3c.1,-.7,.2,-1.3,.3,-2h.3c.2,-.6,.4,-1.2,.6,-1.8h.3c.1,-.4,.2,-.8,.3,-1.2c.2,-.1,.4,-.2,.6,-.3c.2,-.6,.4,-1.2,.6,-1.7c.2,-.1,.3,-.2,.5,-.3v-.6h.3v-.6c.2,-.1,.4,-.2,.6,-.3v-.6c1.4,-1.7,2.8,-3.4,4.2,-5c1,-.7,2.4,-.9,3.2,-1.8c0,0,.1,0,.1,0c.1,0,.2,0,.2,0c2.7,0,5,.7,7.1,1.4c.6,.3,1.2,.5,1.8,.7c.6,.1,1.3,.2,2,.3v.3c.7,.1,1.4,.2,2.1,.3v.3h.6v.2c1,.2,2,.4,2.9,.6v.3h.6v.3h.9v.3c.4,.1,.8,.2,1.2,.3v.3h.9v.3h.6v.3h.9v.3c.5,.2,1.1,.4,1.7,.6v.3h.6v.3c.6,.2,1.2,.4,1.8,.6l.1,.3c.1,.1,.1,.2,.2,.3h.6c.3,.4,.6,.7,.9,1.1c.3,.1,.5,.2,.8,.3v.6c.3,.2,.6,.4,.9,.6v.6c.2,.1,.4,.2,.6,.3c.5,1.7,1,3.3,1.5,5v3h.3c-.1,1.8,-.2,3.7,-.3,5.6h-.3v.9c-1,1.2,-2,2.5,-3,3.8h-.5c-.2,.3,-.4,.6,-.6,.9c-.2,.1,-.4,.2,-.6,.3v.6c-.3,.2,-.6,.4,-.9,.6v.6c-.2,.1,-.4,.2,-.6,.3c-.2,.5,-.4,1.1,-.6,1.7c-.2,.1,-.4,.2,-.6,.3v.6c-.2,.1,-.4,.2,-.6,.3v.6h-.3v.9c-.2,.1,-.4,.2,-.6,.3c-.2,.6,-.3,1.2,-.5,1.7c-.2,.1,-.4,.2,-.6,.3l-.1,.4c-.1,.3,-.2,.6,-.2,.8h-.3v.6h-.3v.6c-.2,.1,-.4,.2,-.6,.3v.6h-.3v.6h-.3v.6h-.3v.6c-.2,.1,-.4,.2,-.6,.3c-.2,.5,-.4,1.1,-.6,1.7c-.2,.1,-.4,.2,-.6,.3v.6h-.3v.6h-.3v.6h-.3v.6h-.2v.6h-.3c-.1,.4,-.2,.8,-.3,1.2c-.2,.1,-.4,.2,-.6,.2c-.2,.6,-.4,1.2,-.6,1.8c-.2,.1,-.4,.2,-.6,.3c-.2,.6,-.4,1.2,-.6,1.8h-.3c-.1,.3,-.2,.6,-.3,.9c-.2,.1,-.4,.2,-.6,.3v.6h-.3v.5h-.3v.6h-.3v.6h-.3v.6c-.2,.1,-.4,.2,-.6,.3l-.2,1.2c-.2,.1,-.4,.2,-.6,.3c-.2,.6,-.4,1.2,-.6,1.8c-.2,.1,-.4,.2,-.6,.3v.5h-.3v.6h-.3v.6H140v.6h-.3v.6h-.3c-.1,.3,-.2,.6,-.3,.9c-.2,.1,-.4,.2,-.6,.3v.6h-.3c-.1,.3,-.2,.6,-.3,.9c-.2,.1,-.4,.2,-.6,.3v.5c-.2,.1,-.4,.2,-.6,.3c-.1,.3,-.1,.6,-.2,.9h-.3c-.1,.2,-.1,.4,-.2,.6l-.1,.6c-.5,.4,-1,.8,-1.5,1.2l-.3,.3c-.2,.3,-.4,.6,-.6,.9c0,0,-.1,0,-.1,0q-.1,.1,-.1,.1c-.7,.3,-2.2,.8,-3.6,1c-.6,.1,-1.1,.2,-1.6,.2Z"/></clipPath>
<style type="text/css"><![CDATA[
.g0_39{
fill: #FAAF82;
}
.g1_39{
fill: #E8F1FA;
}
.g2_39{
fill: none;
stroke: #0EA5DF;
stroke-width: 3.055;
}
.g3_39{
fill: none;
stroke: #0EA5DF;
stroke-width: 0.763;
stroke-miterlimit: 10;
}
]]></style>
</defs>
<path d="M835.8,1129.8h73.6v-51.5H835.8v51.5Z" class="g0_39"/>
<path d="M184.4,1078.3H835.6v-45.8H184.4v45.8Z" class="g1_39"/>
<path d="M73.6,66.7H835.8M73.3,1033.3H836.6" class="g2_39"/>
<image clip-path="url(#c0_39)" preserveAspectRatio="none" x="98" y="556" width="70" height="82" xlink:href="img/p1.jpg"/>
<path d="M631.2,76.4h85.5m-85.1,21V76.7m85.1,-.3h118m-118,21V76.7M834.4,97.4V76.7m-203.2,21h85.5m-85.1,21V98.1m85.1,-.4h118m-118,21V98.1m117.7,20.6V98.1m-203.2,21h85.5m-85.1,21V119.5m85.1,-.4h118m-118,21V119.5m117.7,20.6V119.5m-203.2,21h85.5m-85.1,21V140.9m85.1,-.4h118m-118,21V140.9m117.7,20.6V140.9m-203.2,21h85.5m-85.1,20.9V162.2m85.1,-.3h118m-118,20.9V162.2m117.7,20.6V162.2m-203.2,21h85.5m-85.1,21V183.6m85.1,-.4h118m-118,21V183.6m117.7,20.6V183.6m-203.2,21h85.5m-85.1,21V205m85.1,-.4h118m-118,21V205m117.7,20.6V205M631.2,226h85.5m0,0h118M631.2,352.2h85.5m-85.1,60.7V352.6m85.1,-.4H773m-56.3,60.7V352.6m56.3,-.4h61.7M773,412.9V352.6m61.4,60.3V352.6M631.2,413.3h85.5m-85.1,21V413.7m85.1,-.4H773m-56.3,21V413.7m56.3,-.4h61.7m-61.7,21V413.7m61.4,20.6V413.7M631.2,434.6h85.5m-85.1,21V435m85.1,-.4H773m-56.3,21V435m56.3,-.4h61.7m-61.7,21V435m61.4,20.6V435M631.2,456h85.5m-85.1,21V456.4m85.1,-.4H773m-56.3,21V456.4M773,456h61.7M773,477V456.4M834.4,477V456.4m-203.2,21h85.5m-85.1,21V477.8m85.1,-.4H773m-56.3,21V477.8m56.3,-.4h61.7m-61.7,21V477.8m61.4,20.6V477.8m-203.2,21h85.5m0,0H773m0,0h61.7" class="g3_39"/>
<path d="M74.3,516.9H836.5" class="g2_39"/>
<path d="M631.2,528.7H754.6m-123,24.6V529.1m123,-.4h81.2m-81.2,24.6V529.1m80.8,24.2V529.1M631.2,553.7H754.6m-123,46.5V554m123,-.3h81.2m-81.2,46.5V554m80.8,46.2V554M631.2,600.6H754.6m-123,46.5V601m123,-.4h81.2m-81.2,46.5V601m80.8,46.1V601M631.2,647.5H754.6m-123,46.6V647.9m123,-.4h81.2m-81.2,46.6V647.9m80.8,46.2V647.9M631.2,694.5H754.6M631.6,741V694.8m123,-.3h81.2M754.6,741V694.8M835.4,741V694.8M631.2,741.4H754.6m-123,46.5V741.8m123,-.4h81.2m-81.2,46.5V741.8m80.8,46.1V741.8M631.2,788.3H754.6m-123,46.6V788.7m123,-.4h81.2m-81.2,46.6V788.7m80.8,46.2V788.7M631.2,835.3H754.6m0,0h81.2" class="g3_39"/>
</svg>
