<?xml version="1.0" encoding="UTF-8" standalone="no"?>
<!DOCTYPE svg PUBLIC "-//W3C//DTD SVG 1.1//EN"
"http://www.w3.org/Graphics/SVG/1.1/DTD/svg11.dtd">
<svg viewBox="0 0 909 1147" version="1.1" xmlns="http://www.w3.org/2000/svg" xmlns:xlink="http://www.w3.org/1999/xlink">
<defs>
<clipPath id="c0_82"><path d="M140.8,1013.5v-18h30.3v18Z"/></clipPath>
<style type="text/css"><![CDATA[
.g0_82{
fill: #B6D774;
}
.g1_82{
fill: #000;
}
.g2_82{
fill: none;
stroke: #000;
stroke-width: 0.611;
stroke-miterlimit: 2;
}
.g3_82{
fill: none;
stroke: #000;
stroke-width: 0.626;
stroke-miterlimit: 2;
}
.g4_82{
fill: none;
stroke: #000;
stroke-width: 0.152;
stroke-miterlimit: 2;
}
.g5_82{
fill: none;
stroke: #8ED8F8;
stroke-width: 0.763;
stroke-miterlimit: 2;
}
.g6_82{
fill: none;
stroke: #000;
stroke-width: 0.763;
stroke-miterlimit: 2;
}
.g7_82{
fill: #FFF1E0;
}
.g8_82{
fill: none;
stroke: #0EA5DF;
stroke-width: 3.055;
}
.g9_82{
fill: #0C4B7F;
}
.ga_82{
fill: #0EA5DF;
}
.gb_82{
fill: #FFF;
}
]]></style>
</defs>
<path d="M0,1131H73.8v-51.5H0V1131Z" class="g0_82"/>
<path fill-rule="evenodd" d="M216.8,218.2l.1,-.3H220c1.3,0,2.3,.2,2.9,.5c.7,.3,1.2,.7,1.5,1.4c.4,.6,.6,1.3,.6,2.1c0,.6,-.1,1.2,-.3,1.8c-.2,.6,-.5,1.1,-.8,1.5c-.2,.3,-.6,.7,-1.2,1.1c-.6,.5,-1.2,.8,-1.9,1c-.6,.2,-1.5,.3,-2.4,.3h-4.2l.1,-.2c.4,-.1,.7,-.1,.8,-.1c.2,-.1,.3,-.2,.4,-.4c.2,-.2,.3,-.6,.5,-1.2l1.7,-5.9c.1,-.4,.2,-.8,.2,-1c0,-.2,-.1,-.4,-.2,-.5c-.1,-.1,-.4,-.1,-.7,-.1Zm2.6,.2l-2.1,7.3c-.2,.6,-.3,.9,-.3,1c0,.1,.1,.2,.1,.2c.1,.1,.1,.2,.2,.2c.1,0,.3,.1,.6,.1c.8,0,1.5,-.1,2.1,-.3c.6,-.1,1.2,-.4,1.6,-.7c.6,-.4,1,-1,1.4,-1.8c.3,-.8,.5,-1.7,.5,-2.7c0,-1.1,-.3,-1.9,-.8,-2.5c-.5,-.5,-1.3,-.8,-2.3,-.8c-.3,0,-.6,0,-1,0Z" class="g1_82"/>
<path fill-rule="evenodd" d="M339.9,217.7l-.7,3.1h-.3V220c0,-.2,-.1,-.5,-.2,-.7c-.1,-.2,-.2,-.4,-.4,-.6c-.1,-.2,-.4,-.3,-.6,-.4c-.3,-.1,-.6,-.1,-.9,-.1c-.9,0,-1.6,.2,-2.2,.7c-.9,.6,-1.5,1.4,-2,2.5c-.3,.9,-.5,1.8,-.5,2.7c0,1,.2,1.7,.8,2.3c.5,.5,1.3,.8,2.1,.8c.7,0,1.3,-.1,1.8,-.4c.5,-.3,1,-.8,1.4,-1.4h.4c-.5,.8,-1.1,1.5,-1.8,1.9c-.6,.3,-1.4,.5,-2.3,.5c-.8,0,-1.5,-.1,-2.1,-.5c-.6,-.3,-1,-.8,-1.4,-1.4c-.3,-.6,-.4,-1.2,-.4,-1.9c0,-1.1,.2,-2.1,.8,-3.1c.6,-1,1.4,-1.8,2.3,-2.4c1,-.5,2,-.8,3,-.8c.5,0,1,.1,1.6,.3c.3,.1,.5,.2,.6,.2c.1,0,.2,-.1,.3,-.1c.1,-.1,.2,-.2,.4,-.4Z" class="g1_82"/>
<path fill-rule="evenodd" d="M254.4,279.1L253,284l-.1,.7c0,0,-.1,.1,-.1,.1c0,.1,.1,.2,.1,.2q.1,.1,.2,.1c0,0,.1,-.1,.2,-.1c.2,-.2,.4,-.5,.8,-.9l.2,.2c-.3,.5,-.7,.8,-1,1.1c-.4,.3,-.7,.4,-1,.4c-.2,0,-.4,-.1,-.5,-.2c-.1,-.1,-.1,-.2,-.1,-.4c0,-.2,0,-.5,.2,-.9l.1,-.6c-.6,.9,-1.2,1.4,-1.7,1.7c-.4,.3,-.8,.4,-1.1,.4c-.4,0,-.7,-.1,-.9,-.4c-.3,-.3,-.4,-.7,-.4,-1.2c0,-.8,.2,-1.6,.7,-2.4c.4,-.9,1,-1.5,1.7,-2.1c.6,-.4,1.1,-.6,1.6,-.6c.3,0,.5,.1,.7,.3c.2,.1,.3,.4,.4,.7l.3,-.8Zm-2.5,.4c-.3,0,-.7,.2,-1,.4c-.5,.5,-.9,1.1,-1.3,1.9c-.4,.7,-.6,1.5,-.6,2.1c0,.3,.1,.6,.3,.8c.1,.2,.3,.3,.5,.3c.6,0,1.1,-.4,1.7,-1.2c.8,-1,1.3,-2.1,1.3,-3.1c0,-.4,-.1,-.7,-.3,-.9c-.1,-.2,-.4,-.3,-.6,-.3Z" class="g1_82"/>
<path fill-rule="evenodd" d="M279.9,211.7l-1.4,4.8l-.2,.7q0,.1,0,.2c0,0,0,.1,.1,.2c0,0,.1,0,.1,0c.1,0,.2,0,.3,-.1c.1,-.1,.4,-.4,.7,-.9l.2,.2c-.3,.5,-.6,.9,-1,1.2c-.3,.2,-.6,.3,-.9,.3c-.2,0,-.4,0,-.5,-.1c-.1,-.1,-.2,-.3,-.2,-.5c0,-.2,.1,-.5,.2,-.9l.2,-.5c-.7,.8,-1.2,1.4,-1.8,1.7c-.3,.2,-.7,.3,-1.1,.3c-.3,0,-.6,-.1,-.9,-.4c-.2,-.3,-.4,-.7,-.4,-1.2c0,-.7,.3,-1.5,.7,-2.4c.5,-.8,1.1,-1.5,1.8,-2c.5,-.4,1,-.6,1.5,-.6c.3,0,.5,.1,.7,.2c.2,.2,.4,.4,.5,.8l.2,-.8Zm-2.6,.4c-.3,0,-.6,.1,-1,.4c-.4,.4,-.9,1,-1.3,1.8c-.3,.8,-.5,1.5,-.5,2.2c0,.3,.1,.5,.2,.7c.2,.2,.4,.3,.6,.3c.5,0,1.1,-.4,1.7,-1.1c.8,-1.1,1.2,-2.1,1.2,-3.2c0,-.4,-.1,-.7,-.2,-.9c-.2,-.1,-.4,-.2,-.7,-.2Z" class="g1_82"/>
<path fill-rule="evenodd" d="M318.1,247.7l-1.4,5c.4,-.5,.8,-.8,1.2,-1c.3,-.2,.7,-.3,1,-.3c.6,0,1,.2,1.3,.5c.4,.4,.5,.9,.5,1.5c0,.7,-.2,1.5,-.6,2.3c-.5,.7,-1,1.3,-1.7,1.7c-.6,.5,-1.3,.7,-1.9,.7c-.8,0,-1.5,-.3,-2.3,-.8l2.2,-7.5c.2,-.6,.3,-1,.3,-1.1c0,-.1,-.1,-.2,-.2,-.2c-.1,-.1,-.2,-.2,-.4,-.2c-.1,0,-.3,.1,-.5,.1v-.3Zm-2.8,9.6c.5,.3,.9,.4,1.3,.4c.4,0,.8,-.1,1.3,-.4c.4,-.3,.8,-.9,1.2,-1.6c.3,-.7,.4,-1.5,.4,-2.2c0,-.4,-.1,-.8,-.3,-1c-.2,-.3,-.5,-.4,-.7,-.4c-.5,0,-.9,.2,-1.3,.5c-.5,.4,-.8,.9,-1,1.5Z" class="g1_82"/>
<path fill-rule="evenodd" d="M206.9,239.4l-1.4,5c.5,-.5,.9,-.8,1.2,-1c.4,-.2,.7,-.3,1.1,-.3c.5,0,.9,.2,1.3,.5c.3,.4,.5,.9,.5,1.5c0,.7,-.2,1.5,-.7,2.3c-.4,.7,-1,1.3,-1.6,1.7c-.7,.5,-1.4,.7,-2,.7c-.7,0,-1.5,-.3,-2.2,-.8l2.2,-7.5c.1,-.6,.2,-1,.2,-1.1c0,-.1,0,-.2,-.1,-.2c-.1,-.1,-.3,-.2,-.5,-.2c-.1,0,-.2,.1,-.5,.1v-.3Zm-2.7,9.6c.4,.3,.9,.4,1.2,.4c.4,0,.9,-.1,1.3,-.4c.5,-.3,.9,-.9,1.2,-1.6c.3,-.7,.5,-1.5,.5,-2.2c0,-.4,-.1,-.8,-.3,-1c-.3,-.3,-.5,-.4,-.8,-.4c-.5,0,-.9,.2,-1.3,.5c-.4,.4,-.7,.9,-.9,1.5Z" class="g1_82"/>
<path fill-rule="evenodd" d="M194,273.5l-.7,8.1c-.1,.4,-.1,.6,-.1,.7c0,.2,0,.4,.1,.5c.1,.1,.2,.2,.4,.3c.1,0,.4,.1,.8,.1l-.1,.2h-3.8v-.2h.2c.3,0,.6,-.1,.8,-.2c.1,-.1,.2,-.3,.3,-.5c0,-.1,.1,-.5,.1,-1l.1,-1.3h-2.7l-1,1.4c-.2,.3,-.4,.5,-.4,.6c-.1,.2,-.1,.3,-.1,.4c0,.1,0,.3,.2,.4c.1,.1,.3,.2,.6,.2l-.1,.2h-2.9l.1,-.2c.4,0,.7,-.2,.9,-.4c.3,-.2,.7,-.7,1.2,-1.4l5.8,-7.9Zm-1.4,2.4l-2.8,3.8h2.4Z" class="g1_82"/>
<path fill-rule="evenodd" d="M301.5,273.9l.1,-.3h3.5c.5,0,1.1,.1,1.5,.3c.5,.2,.8,.4,1,.7c.3,.4,.4,.7,.4,1.1c0,.5,-.2,1,-.6,1.5c-.4,.4,-1.1,.8,-2,1c.6,.2,1,.5,1.3,.9c.3,.3,.4,.7,.4,1.2c0,.4,-.1,.9,-.4,1.3c-.2,.5,-.5,.8,-.9,1.1c-.4,.2,-.9,.4,-1.4,.5c-.4,.1,-1,.1,-1.9,.1H299l.1,-.2c.3,-.1,.6,-.1,.7,-.1c.2,-.1,.4,-.2,.4,-.4c.2,-.2,.3,-.6,.5,-1.2l1.7,-5.9c.2,-.5,.3,-.8,.3,-1c0,-.2,-.1,-.4,-.2,-.5c-.2,-.1,-.4,-.1,-.8,-.1q-.1,0,-.2,0m1.4,4c.4,0,.6,0,.7,0c1,0,1.7,-.2,2.2,-.6c.5,-.5,.8,-1,.8,-1.6c0,-.5,-.2,-.9,-.5,-1.2c-.3,-.3,-.8,-.4,-1.4,-.4c-.2,0,-.4,0,-.7,.1Zm-1.4,4.8c.5,.1,1,.1,1.2,.1c.8,0,1.4,-.2,2,-.7c.6,-.4,.9,-1,.9,-1.8c0,-.6,-.2,-1.1,-.5,-1.4c-.4,-.3,-1,-.5,-1.8,-.5c-.1,0,-.3,0,-.5,0Z" class="g1_82"/>
<path d="M232.6,223.5h91.6L294,272.6H202.4l30.2,-49.1Z" class="g2_82"/>
<path fill-rule="evenodd" d="M543.3,252.5c-.4,0,-.7,.1,-1,.4c-.5,.4,-1,1,-1.4,1.8c-.4,.9,-.6,1.6,-.6,2.3c0,.3,.1,.6,.3,.7c.2,.2,.4,.3,.6,.3c.5,0,1.1,-.4,1.7,-1.1c.8,-1.1,1.3,-2.2,1.3,-3.3c0,-.4,-.1,-.7,-.3,-.9c-.1,-.2,-.4,-.2,-.6,-.2m2.6,-.4l-1.5,4.9l-.1,.7q0,.1,0,.2q0,.1,0,.2q.1,0,.2,0c0,0,.1,0,.2,-.1c.2,-.1,.5,-.4,.8,-.8l.2,.1c-.3,.5,-.6,.9,-1,1.2c-.4,.3,-.7,.4,-1,.4c-.2,0,-.4,-.1,-.5,-.2c-.1,-.1,-.1,-.2,-.1,-.4c0,-.3,0,-.6,.1,-1l.2,-.5c-.7,.8,-1.2,1.4,-1.8,1.7c-.4,.3,-.7,.4,-1.1,.4c-.4,0,-.7,-.2,-.9,-.5c-.3,-.2,-.4,-.7,-.4,-1.2c0,-.8,.2,-1.6,.7,-2.4c.4,-.9,1,-1.6,1.8,-2.1c.5,-.4,1,-.6,1.5,-.6c.3,0,.6,.1,.8,.2c.2,.2,.3,.4,.4,.8l.3,-.9Z" class="g1_82"/>
<path fill-rule="evenodd" d="M567.5,295.8c-.3,0,-.6,.1,-1,.4c-.5,.4,-.9,1.1,-1.3,1.9c-.4,.8,-.6,1.5,-.6,2.2c0,.3,.1,.6,.3,.8c.1,.2,.3,.3,.6,.3c.5,0,1.1,-.4,1.7,-1.2c.8,-1.1,1.2,-2.1,1.2,-3.2c0,-.4,0,-.7,-.2,-.9c-.2,-.2,-.4,-.3,-.7,-.3m2.7,-.4l-1.5,5l-.1,.7c-.1,0,-.1,.1,-.1,.1c0,.1,.1,.2,.1,.2q.1,.1,.2,.1c0,0,.1,-.1,.2,-.1c.2,-.2,.5,-.5,.8,-.9l.2,.2c-.3,.5,-.7,.9,-1,1.1c-.4,.3,-.7,.4,-1,.4c-.2,0,-.4,0,-.5,-.1c-.1,-.1,-.1,-.3,-.1,-.5c0,-.2,0,-.5,.1,-.9l.2,-.6c-.7,.8,-1.3,1.4,-1.8,1.8c-.4,.2,-.8,.3,-1.1,.3c-.4,0,-.7,-.1,-1,-.4c-.2,-.3,-.3,-.7,-.3,-1.2c0,-.8,.2,-1.6,.7,-2.5c.4,-.9,1,-1.6,1.7,-2.1c.6,-.4,1.1,-.6,1.6,-.6c.3,0,.6,.1,.8,.2c.2,.2,.3,.5,.4,.8l.3,-.8Z" class="g1_82"/>
<path fill-rule="evenodd" d="M632,258.9c-.3,0,-.6,.1,-1,.4c-.5,.5,-.9,1.1,-1.3,1.9c-.4,.8,-.6,1.5,-.6,2.2c0,.3,.1,.6,.3,.8c.1,.2,.3,.3,.5,.3c.6,0,1.1,-.4,1.8,-1.2c.8,-1,1.2,-2.1,1.2,-3.2c0,-.4,-.1,-.7,-.2,-.9c-.2,-.2,-.4,-.3,-.7,-.3m2.6,-.4l-1.4,5l-.2,.7c0,0,0,.1,0,.1c0,.1,0,.2,.1,.2c0,.1,.1,.1,.1,.1c.1,0,.2,0,.3,-.1c.2,-.2,.4,-.5,.8,-.9l.2,.2c-.3,.5,-.7,.9,-1,1.1c-.4,.3,-.7,.4,-1,.4c-.2,0,-.4,0,-.5,-.1c-.1,-.1,-.2,-.3,-.2,-.5c0,-.2,.1,-.5,.2,-.9l.2,-.6c-.7,.9,-1.3,1.4,-1.8,1.8c-.4,.2,-.8,.3,-1.2,.3c-.3,0,-.6,-.1,-.9,-.4c-.2,-.3,-.4,-.7,-.4,-1.2c0,-.8,.3,-1.6,.7,-2.5c.5,-.9,1.1,-1.5,1.8,-2.1c.6,-.4,1.1,-.6,1.6,-.6c.3,0,.6,.1,.8,.3c.1,.1,.3,.4,.4,.7l.3,-.8Z" class="g1_82"/>
<path fill-rule="evenodd" d="M602.5,212.9c-.3,0,-.7,.2,-1,.5c-.5,.4,-1,1,-1.4,1.8c-.3,.8,-.5,1.6,-.5,2.2c0,.4,0,.6,.2,.8c.2,.2,.4,.3,.6,.3c.5,0,1.1,-.4,1.7,-1.2c.9,-1,1.3,-2.1,1.3,-3.2c0,-.4,-.1,-.7,-.3,-.9c-.1,-.2,-.4,-.3,-.6,-.3m2.6,-.4l-1.4,5l-.2,.7c0,0,0,.1,0,.1c0,.1,0,.2,0,.2q.1,.1,.2,.1q.1,0,.2,-.1c.2,-.2,.5,-.4,.8,-.9l.3,.2c-.4,.5,-.7,.9,-1.1,1.1c-.3,.3,-.7,.4,-1,.4c-.2,0,-.4,0,-.5,-.1c-.1,-.1,-.1,-.3,-.1,-.5c0,-.2,0,-.5,.1,-.9l.2,-.6c-.6,.9,-1.2,1.5,-1.8,1.8c-.4,.2,-.7,.3,-1.1,.3c-.4,0,-.7,-.1,-.9,-.4c-.3,-.3,-.4,-.7,-.4,-1.2c0,-.8,.2,-1.6,.7,-2.5c.5,-.8,1,-1.5,1.8,-2.1c.5,-.4,1.1,-.6,1.6,-.6c.3,0,.5,.1,.7,.3c.2,.1,.3,.4,.5,.7l.2,-.8Z" class="g1_82"/>
<path fill-rule="evenodd" d="M556.8,222c-.5,0,-1,.1,-1.4,.4c-.5,.2,-1,.6,-1.4,1.2c-.5,.5,-.9,1.2,-1.3,2.1c-.4,1.1,-.6,2.2,-.6,3.1c0,.7,.1,1.4,.5,1.9c.3,.5,.9,.8,1.6,.8c.5,0,.9,-.1,1.3,-.3c.5,-.3,.9,-.6,1.4,-1.2c.6,-.6,1.1,-1.5,1.5,-2.5c.4,-1.1,.5,-2,.5,-2.9c0,-.7,-.1,-1.3,-.5,-1.8c-.3,-.5,-.9,-.8,-1.6,-.8M554,232l-1.9,1.5c.3,-.1,.6,-.1,.9,-.1c.2,0,.4,0,.7,.1c.2,0,.6,.1,1.3,.2c.7,.2,1.3,.3,1.8,.3c.5,0,1,-.1,1.4,-.3c.3,-.2,.7,-.5,1.1,-1l.2,.2c-.5,.7,-1.1,1.2,-1.8,1.5c-.7,.3,-1.4,.5,-2.2,.5c-.4,0,-1,-.1,-1.7,-.2c-1.1,-.3,-1.9,-.4,-2.4,-.4c-.1,0,-.3,0,-.4,0c-.1,0,-.3,.1,-.5,.2l-.1,-.2l3,-2.4c-1,-.1,-1.7,-.5,-2.1,-1.2c-.5,-.7,-.8,-1.4,-.8,-2.2c0,-1.1,.4,-2.2,1,-3.3c.7,-1.2,1.5,-2.1,2.5,-2.7c1,-.6,2,-.9,3,-.9c.7,0,1.3,.1,1.8,.4c.5,.3,.9,.7,1.2,1.3c.3,.5,.4,1.1,.4,1.7c0,1.1,-.3,2.3,-.9,3.4c-.7,1.2,-1.5,2,-2.4,2.6c-1,.6,-2,.9,-3.1,1Z" class="g1_82"/>
<path fill-rule="evenodd" d="M524.9,285.6l.9,8.1l5.8,-8.1H534v.3c-.5,.1,-.8,.1,-.9,.1c-.2,.1,-.3,.2,-.5,.4c-.1,.2,-.2,.6,-.4,1.1l-1.8,6.3c-.1,.4,-.2,.7,-.2,.9c0,.2,.1,.3,.2,.4c.2,.2,.5,.2,.9,.2h.2l-.1,.3h-4.2l.1,-.3h.2c.3,0,.6,0,.8,-.1c.2,-.1,.3,-.3,.4,-.5c.2,-.2,.3,-.7,.5,-1.4l1.7,-5.8l-5.8,8.1h-.3l-1,-8.1l-1.7,6.2c-.2,.5,-.3,.8,-.3,1c0,.2,.1,.3,.2,.4c.2,.1,.5,.2,1,.2l-.1,.3h-3.3l.1,-.3h.2c.5,0,.9,-.1,1.1,-.3c.1,-.2,.3,-.6,.5,-1.2l2.1,-7.4c-.1,-.2,-.3,-.3,-.4,-.3c-.2,-.1,-.5,-.1,-.8,-.2v-.3Z" class="g1_82"/>
<path fill-rule="evenodd" d="M616.1,285.6l3.1,7.8l1.7,-5.8c.1,-.5,.2,-.8,.2,-1.1c0,-.2,-.1,-.3,-.2,-.4c-.1,-.1,-.4,-.2,-.7,-.2q-.1,0,-.2,0l.1,-.3h3.2l-.1,.3c-.4,0,-.6,0,-.8,.1c-.2,.1,-.4,.3,-.5,.4c-.1,.2,-.3,.6,-.4,1.2l-2.4,8.2h-.3l-3.3,-8.4l-1.7,6.2c-.2,.5,-.2,.9,-.2,1.1c0,.2,0,.3,.1,.4c.2,.1,.5,.2,.9,.2l-.1,.3h-3.1l.1,-.3c.4,0,.7,0,.8,-.1c.2,-.1,.3,-.2,.4,-.3c.2,-.2,.3,-.6,.5,-1.3l2,-6.9c-.2,-.3,-.4,-.5,-.6,-.6c-.2,-.1,-.6,-.2,-1,-.2v-.3Z" class="g1_82"/>
<path d="M566.5,225.8h68.4l-29,63.4H537.6l28.9,-63.4Z" class="g3_82"/>
<path fill-rule="evenodd" d="M231.1,828l.1,-.4H235c1.7,0,2.9,.2,3.7,.6c.8,.4,1.4,1,1.9,1.8c.5,.8,.7,1.6,.7,2.6c0,.8,-.1,1.5,-.4,2.3c-.3,.7,-.6,1.3,-.9,1.8c-.4,.4,-.9,.9,-1.6,1.5c-.7,.5,-1.5,.9,-2.3,1.2c-.9,.2,-1.9,.4,-3.1,.4h-5.2l.1,-.4c.5,0,.8,0,1,-.1c.2,-.1,.4,-.2,.5,-.4c.2,-.2,.4,-.8,.6,-1.5l2.1,-7.4c.2,-.5,.3,-1,.3,-1.3c0,-.2,-.1,-.4,-.2,-.5c-.2,-.2,-.5,-.2,-.9,-.2Zm3.1,.3l-2.6,9.1c-.2,.7,-.3,1.1,-.3,1.3c0,0,0,.1,.1,.2c.1,.1,.2,.2,.3,.2c.1,.1,.4,.1,.7,.1c.9,0,1.8,-.1,2.6,-.3c.8,-.2,1.5,-.5,2,-.9c.7,-.5,1.3,-1.3,1.7,-2.3c.5,-.9,.7,-2,.7,-3.3c0,-1.4,-.3,-2.4,-1,-3.1c-.7,-.7,-1.7,-1,-2.9,-1c-.4,0,-.8,0,-1.3,0Z" class="g1_82"/>
<path d="M231.1,828l.1,-.4H235c1.7,0,2.9,.2,3.7,.6c.8,.4,1.4,1,1.9,1.8c.5,.8,.7,1.6,.7,2.6c0,.8,-.1,1.5,-.4,2.3c-.3,.7,-.6,1.3,-.9,1.8c-.4,.4,-.9,.9,-1.6,1.5c-.7,.5,-1.5,.9,-2.3,1.2c-.9,.2,-1.9,.4,-3.1,.4h-5.2l.1,-.4c.5,0,.8,0,1,-.1c.2,-.1,.4,-.2,.5,-.4c.2,-.2,.4,-.8,.6,-1.5l2.1,-7.4c.2,-.5,.3,-1,.3,-1.3c0,-.2,-.1,-.4,-.2,-.5c-.2,-.2,-.5,-.2,-.9,-.2h-.2Zm3.1,.3l-2.6,9.1c-.2,.7,-.3,1.1,-.3,1.3c0,0,0,.1,.1,.2c.1,.1,.2,.2,.3,.2c.1,.1,.4,.1,.7,.1c.9,0,1.8,-.1,2.6,-.3c.8,-.2,1.5,-.5,2,-.9c.7,-.5,1.3,-1.3,1.7,-2.3c.5,-.9,.7,-2,.7,-3.3c0,-1.4,-.3,-2.4,-1,-3.1c-.7,-.7,-1.7,-1,-2.9,-1c-.4,0,-.8,0,-1.3,0Z" class="g4_82"/>
<path fill-rule="evenodd" d="M383.3,828.1l-.9,3.9h-.3l-.1,-1c0,-.3,-.1,-.7,-.2,-.9c-.1,-.3,-.2,-.6,-.4,-.8c-.3,-.2,-.5,-.3,-.9,-.5c-.3,-.1,-.6,-.1,-1,-.1c-1.1,0,-2.1,.3,-2.9,.8c-1,.8,-1.8,1.8,-2.4,3.2c-.4,1.1,-.7,2.3,-.7,3.4c0,1.2,.4,2.1,1.1,2.8c.6,.7,1.5,1.1,2.6,1.1c.9,0,1.6,-.2,2.3,-.6c.6,-.3,1.2,-.9,1.8,-1.7h.4c-.7,1.1,-1.4,1.8,-2.2,2.3c-.8,.5,-1.8,.8,-2.9,.8c-1,0,-1.8,-.2,-2.6,-.7c-.8,-.4,-1.4,-1,-1.8,-1.7c-.4,-.8,-.6,-1.6,-.6,-2.4c0,-1.4,.4,-2.6,1.1,-3.9c.7,-1.3,1.7,-2.2,2.9,-3c1.3,-.7,2.5,-1,3.8,-1c.6,0,1.2,.1,2,.4c.3,.1,.5,.2,.7,.2c.1,0,.2,-.1,.3,-.1c.1,-.1,.3,-.2,.6,-.5Z" class="g1_82"/>
<path d="M383.3,828.1l-.9,3.9h-.3l-.1,-1c0,-.3,-.1,-.7,-.2,-.9c-.1,-.3,-.2,-.6,-.4,-.8c-.3,-.2,-.5,-.3,-.9,-.5c-.3,-.1,-.6,-.1,-1,-.1c-1.1,0,-2.1,.3,-2.9,.8c-1,.8,-1.8,1.8,-2.4,3.2c-.4,1.1,-.7,2.3,-.7,3.4c0,1.2,.4,2.1,1.1,2.8c.6,.7,1.5,1.1,2.6,1.1c.9,0,1.6,-.2,2.3,-.6c.6,-.3,1.2,-.9,1.8,-1.7h.4c-.7,1.1,-1.4,1.8,-2.2,2.3c-.8,.5,-1.8,.8,-2.9,.8c-1,0,-1.8,-.2,-2.6,-.7c-.8,-.4,-1.4,-1,-1.8,-1.7c-.4,-.8,-.6,-1.6,-.6,-2.4c0,-1.4,.4,-2.6,1.1,-3.9c.7,-1.3,1.7,-2.2,2.9,-3c1.3,-.7,2.5,-1,3.8,-1c.6,0,1.2,.1,2,.4c.3,.1,.5,.2,.7,.2c.1,0,.2,-.1,.3,-.1c.1,-.1,.3,-.2,.6,-.5h.3Z" class="g4_82"/>
<path fill-rule="evenodd" d="M196.7,906.4l-.9,10.1c0,.5,-.1,.8,-.1,.9c0,.3,.1,.5,.2,.6c.1,.2,.2,.3,.4,.4c.2,.1,.5,.1,1,.1l-.1,.3h-4.8l.1,-.3h.2c.4,0,.7,-.1,1,-.3c.2,-.1,.3,-.3,.4,-.5c.1,-.2,.1,-.6,.2,-1.3l.1,-1.6h-3.5l-1.2,1.7c-.3,.4,-.4,.7,-.5,.8c-.1,.2,-.1,.3,-.1,.5c0,.2,0,.3,.2,.5c.2,.1,.4,.2,.8,.2l-.1,.3h-3.6l.1,-.3c.4,0,.8,-.2,1.2,-.4c.3,-.3,.8,-.9,1.5,-1.8l7.2,-9.9Zm-1.7,3l-3.6,4.8h3.1Z" class="g1_82"/>
<path d="M196.7,906.4l-.9,10.1c0,.5,-.1,.8,-.1,.9c0,.3,.1,.5,.2,.6c.1,.2,.2,.3,.4,.4c.2,.1,.5,.1,1,.1l-.1,.3h-4.8l.1,-.3h.2c.4,0,.7,-.1,1,-.3c.2,-.1,.3,-.3,.4,-.5c.1,-.2,.1,-.6,.2,-1.3l.1,-1.6h-3.5l-1.2,1.7c-.3,.4,-.4,.7,-.5,.8c-.1,.2,-.1,.3,-.1,.5c0,.2,0,.3,.2,.5c.2,.1,.4,.2,.8,.2l-.1,.3h-3.6l.1,-.3c.4,0,.8,-.2,1.2,-.4c.3,-.3,.8,-.9,1.5,-1.8l7.2,-9.9h.3Zm-1.7,3l-3.6,4.8h3.1l.5,-4.8Z" class="g4_82"/>
<path fill-rule="evenodd" d="M332.7,906.3l.2,-.3h4.3c.7,0,1.4,.1,2,.3c.5,.2,.9,.6,1.2,1c.3,.4,.5,.8,.5,1.3c0,.6,-.3,1.3,-.8,1.8c-.5,.6,-1.3,1,-2.5,1.3c.8,.3,1.3,.6,1.7,1.1c.3,.4,.5,.9,.5,1.5c0,.6,-.2,1.2,-.5,1.7c-.3,.6,-.7,1,-1.2,1.3c-.5,.3,-1.1,.5,-1.7,.7c-.5,.1,-1.3,.1,-2.3,.1h-4.5l.1,-.3c.5,0,.8,-.1,1,-.2c.2,-.1,.4,-.2,.5,-.4c.1,-.2,.3,-.7,.6,-1.5l2.1,-7.4c.2,-.6,.3,-1,.3,-1.3c0,-.2,-.1,-.4,-.2,-.5c-.2,-.1,-.5,-.2,-1,-.2c-.1,0,-.2,0,-.3,0m1.9,5c.4,.1,.6,.1,.8,.1c1.2,0,2.2,-.3,2.8,-.8c.6,-.6,.9,-1.3,.9,-2.1c0,-.6,-.2,-1.1,-.6,-1.4c-.3,-.4,-.9,-.5,-1.7,-.5c-.3,0,-.5,0,-.9,.1Zm-1.8,6c.6,.1,1.1,.1,1.5,.1c.9,0,1.8,-.2,2.5,-.8c.7,-.6,1.1,-1.3,1.1,-2.3c0,-.7,-.3,-1.3,-.7,-1.7c-.4,-.4,-1.2,-.6,-2.2,-.6c-.1,0,-.4,0,-.7,0Z" class="g1_82"/>
<path d="M332.7,906.3l.2,-.3h4.3c.7,0,1.4,.1,2,.3c.5,.2,.9,.6,1.2,1c.3,.4,.5,.8,.5,1.3c0,.6,-.3,1.3,-.8,1.8c-.5,.6,-1.3,1,-2.5,1.3c.8,.3,1.3,.6,1.7,1.1c.3,.4,.5,.9,.5,1.5c0,.6,-.2,1.2,-.5,1.7c-.3,.6,-.7,1,-1.2,1.3c-.5,.3,-1.1,.5,-1.7,.7c-.5,.1,-1.3,.1,-2.3,.1h-4.5l.1,-.3c.5,0,.8,-.1,1,-.2c.2,-.1,.4,-.2,.5,-.4c.1,-.2,.3,-.7,.6,-1.5l2.1,-7.4c.2,-.6,.3,-1,.3,-1.3c0,-.2,-.1,-.4,-.2,-.5c-.2,-.1,-.5,-.2,-1,-.2c-.1,0,-.2,0,-.3,0Zm1.9,5c.4,.1,.6,.1,.8,.1c1.2,0,2.2,-.3,2.8,-.8c.6,-.6,.9,-1.3,.9,-2.1c0,-.6,-.2,-1.1,-.6,-1.4c-.3,-.4,-.9,-.5,-1.7,-.5c-.3,0,-.5,0,-.9,.1l-1.3,4.6Zm-1.8,6c.6,.1,1.1,.1,1.5,.1c.9,0,1.8,-.2,2.5,-.8c.7,-.6,1.1,-1.3,1.1,-2.3c0,-.7,-.3,-1.3,-.7,-1.7c-.4,-.4,-1.2,-.6,-2.2,-.6c-.1,0,-.4,0,-.7,0l-1.5,5.3Z" class="g4_82"/>
<path d="M192.4,932.7h192m-192,-30.3h192M192.4,872h192m-192,-30.3h192m-192,-30.3h192" class="g5_82"/>
<path d="M239.3,842.6H367.4l-37.3,60.1H202l37.3,-60.1Z" class="g6_82"/>
<path d="M184.8,480.8H835.9v-91H184.8v91Z" class="g7_82"/>
<path d="M73.8,726H836" class="g8_82"/>
<path d="M184.8,1078.2H835.9V985.4H184.8v92.8Z" class="g7_82"/>
<path d="M73.8,510.4H836" class="g8_82"/>
<path d="M0,138.7H120.6V0H0V138.7Z" class="g0_82"/>
<path d="M135.9,427.4h39.6V390H135.9v37.4Z" class="g9_82"/>
<path d="M135.9,1022.9h39.6V985.4H135.9v37.5Z" class="ga_82"/>
<path clip-path="url(#c0_82)" d="M156.1,1008c-2,.1,-3.7,-1.6,-3.6,-3.6c.1,-1.7,1.5,-3.1,3.2,-3.2c2.1,-.2,3.8,1.5,3.6,3.6c-.1,1.7,-1.5,3.1,-3.2,3.2m.2,2.9c-3.8,.3,-7,-2.9,-6.7,-6.7c.2,-3.2,2.7,-5.8,5.9,-6c3.8,-.2,7,3,6.8,6.8c-.2,3.1,-2.8,5.7,-6,5.9m-.4,-15.3c-5.7,0,-11,3.1,-14.8,8.3c-.4,.4,-.4,1,0,1.4c3.8,5.1,9.1,8.3,14.8,8.3c5.8,0,11,-3.2,14.9,-8.3c.3,-.4,.3,-1,0,-1.4c-3.9,-5.2,-9.1,-8.3,-14.9,-8.3Z" class="gb_82"/>
</svg>