<?xml version="1.0" encoding="UTF-8" standalone="no"?>
<!DOCTYPE svg PUBLIC "-//W3C//DTD SVG 1.1//EN"
"http://www.w3.org/Graphics/SVG/1.1/DTD/svg11.dtd">
<svg viewBox="0 0 909 1147" version="1.1" xmlns="http://www.w3.org/2000/svg" xmlns:xlink="http://www.w3.org/1999/xlink">
<defs>
<clipPath id="c0_70"><path d="M185.1,443.5V199H835.8V443.5Z"/></clipPath>
<clipPath id="c1_70"><path d="M200.7,941.6V843.8H375.9v97.8Z"/></clipPath>
<clipPath id="c2_70"><path d="M140.8,482.8v-18H171v18Z"/></clipPath>
<style type="text/css"><![CDATA[
.g0_70{
fill: #B6D774;
}
.g1_70{
fill: none;
stroke: #000;
stroke-width: 0.763;
}
.g2_70{
fill: none;
stroke: #000;
stroke-width: 0.745;
stroke-miterlimit: 2;
}
.g3_70{
fill: #FCD3C1;
}
.g4_70{
fill: none;
stroke: #000;
stroke-width: 0.745;
stroke-miterlimit: 2;
stroke-dasharray: 4,3;
}
.g5_70{
fill: #000;
}
.g6_70{
fill: none;
stroke: #000;
stroke-width: 0.152;
stroke-miterlimit: 2;
}
.g7_70{
fill: #FFF1E0;
}
.g8_70{
fill: none;
stroke: #000;
stroke-width: 0.763;
stroke-miterlimit: 2;
}
.g9_70{
fill: none;
stroke: #000;
stroke-width: 1.069;
stroke-miterlimit: 2;
}
.ga_70{
fill: #0EA5DF;
}
.gb_70{
fill: #0C4B7F;
}
.gc_70{
fill: none;
stroke: #0EA5DF;
stroke-width: 3.055;
}
.gd_70{
fill: #FFF;
}
.ge_70{
fill: none;
stroke: #000;
stroke-width: 1.527;
}
]]></style>
</defs>
<path d="M0,1131H73.8v-51.5H0V1131Z" class="g0_70"/>
<path d="M224.8,731.9h11.3m101.7,0h11.4m99.4,234.7H460m88.2,0h11.4m107.7,0h11.4" class="g1_70"/>
<path d="M587.6,342.5v85.1H418.7L587.6,342.5Zm-385,0H371.5v85.1H202.6V342.5Z" class="g2_70"/>
<path fill-rule="evenodd" d="M419.1,403.2V318.1H587.9Z" class="g3_70"/>
<path d="M419.1,403.2V318.1H587.9L419.1,403.2Z" class="g2_70"/>
<path fill-rule="evenodd" d="M707.2,208l59.7,60.7L646.5,387.1Z" class="g3_70"/>
<path d="M707.2,208l59.7,60.7L646.5,387.1L707.2,208Z" class="g2_70"/>
<path fill-rule="evenodd" d="M806.9,342.4l.1,85.1l-168.9,.2Z" class="g3_70"/>
<path d="M806.9,342.4l.1,85.1l-168.9,.2L806.9,342.4Z" class="g2_70"/>
<path d="M202.8,427.6L371.6,342.5" class="g4_70"/>
<path fill-rule="evenodd" d="M293.6,380.5c-.2,.2,-.3,.4,-.1,.6c.1,.2,.3,.2,.5,0c.3,-.2,.3,-.4,.2,-.6c-.2,-.2,-.4,-.2,-.6,0m1.7,-4.4l.9,-2.3c.3,-.7,.4,-1.2,.2,-1.4c-.1,-.2,-.3,-.2,-.5,-.2c-.2,.1,-.5,.3,-.8,.5c-.6,.6,-1,1.3,-1.3,2.3c-.3,.9,-.2,1.6,.1,2.1c.2,.3,.5,.3,.8,0c.2,-.2,.4,-.5,.6,-1m4.9,3l-.5,.2c-.4,.1,-.7,.3,-.9,.5c-.3,.3,-.3,.7,0,1.2c.3,.3,.7,.4,1.3,.4c.5,0,1,-.2,1.5,-.6c.2,-.2,.4,-.5,.4,-.8c.1,-.3,0,-.6,-.1,-.8c-.3,-.3,-.9,-.4,-1.7,-.1m-7.4,1.4l-.7,1.6l-9.6,2.8c.4,-.7,.9,-1.3,1.4,-1.8c.2,-.2,.5,-.4,.7,-.6Zm2.5,-1.7l-4.5,11.4c-.1,.2,-.3,.3,-.4,.4c-.6,.6,-1.4,1.1,-2.2,1.4l5.1,-11.8c.2,-.4,.3,-.6,.4,-.7l.1,-.2c.3,-.5,.3,-.9,0,-1.2V378l-.1,-.1l-.3,-.3c-.5,-.5,-.5,-1.4,-.2,-2.5c.3,-1.2,.8,-2.1,1.6,-2.9c.4,-.3,.8,-.5,1.2,-.6c.4,0,.7,.1,1,.3c.2,.4,.1,1.1,-.3,2.3l-1.3,3.2c-.3,.7,-.3,1.1,-.2,1.3q.1,.1,.1,.1m-.5,2.5l.6,-1.4l.7,-.2c.3,.1,.8,.1,1.5,-.2l1.9,-.8c1.5,-.6,2.4,-.6,2.9,0c.3,.4,.4,.8,.3,1.2c-.2,.5,-.4,.9,-.8,1.3c-.6,.5,-1.2,.8,-1.9,.9c-.7,0,-1.3,-.2,-1.6,-.6c0,0,-.1,-.1,-.3,-.4L298,381c0,-.1,-.1,-.2,-.1,-.2c-.2,-.3,-.7,-.3,-1.4,0c-.1,0,-.3,.1,-.4,.1Z" class="g5_70"/>
<path d="M293.6,380.5c-.2,.2,-.3,.4,-.1,.6c.1,.2,.3,.2,.5,0c.3,-.2,.3,-.4,.2,-.6c-.2,-.2,-.4,-.2,-.6,0Zm1.7,-4.4l.9,-2.3c.3,-.7,.4,-1.2,.2,-1.4c-.1,-.2,-.3,-.2,-.5,-.2c-.2,.1,-.5,.3,-.8,.5c-.6,.6,-1,1.3,-1.3,2.3c-.3,.9,-.2,1.6,.1,2.1c.2,.3,.5,.3,.8,0c.2,-.2,.4,-.5,.6,-1Zm4.9,3l-.5,.2c-.4,.1,-.7,.3,-.9,.5c-.3,.3,-.3,.7,0,1.2c.3,.3,.7,.4,1.3,.4c.5,0,1,-.2,1.5,-.6c.2,-.2,.4,-.5,.4,-.8c.1,-.3,0,-.6,-.1,-.8c-.3,-.3,-.9,-.4,-1.7,-.1Zm-7.4,1.4l-.7,1.6l-9.6,2.8c.4,-.7,.9,-1.3,1.4,-1.8c.2,-.2,.5,-.4,.7,-.6l8.2,-2Zm2.5,-1.7l-4.5,11.4c-.1,.2,-.3,.3,-.4,.4c-.6,.6,-1.4,1.1,-2.2,1.4l5.1,-11.8c.2,-.4,.3,-.6,.4,-.7l.1,-.2c.3,-.5,.3,-.9,0,-1.2V378l-.1,-.1l-.3,-.3c-.5,-.5,-.5,-1.4,-.2,-2.5c.3,-1.2,.8,-2.1,1.6,-2.9c.4,-.3,.8,-.5,1.2,-.6c.4,0,.7,.1,1,.3c.2,.4,.1,1.1,-.3,2.3l-1.3,3.2c-.3,.7,-.3,1.1,-.2,1.3q.1,.1,.1,.1Zm-.5,2.5l.6,-1.4l.7,-.2c.3,.1,.8,.1,1.5,-.2l1.9,-.8c1.5,-.6,2.4,-.6,2.9,0c.3,.4,.4,.8,.3,1.2c-.2,.5,-.4,.9,-.8,1.3c-.6,.5,-1.2,.8,-1.9,.9c-.7,0,-1.3,-.2,-1.6,-.6c0,0,-.1,-.1,-.3,-.4L298,381c0,-.1,-.1,-.2,-.1,-.2c-.2,-.3,-.7,-.3,-1.4,0c-.1,0,-.3,.1,-.4,.1l-1.3,.4Z" class="g6_70"/>
<path fill-rule="evenodd" d="M193.5,434.3l-3.4,4.6H193Zm1.7,-2.9l-.9,9.8c0,.5,0,.8,0,.9c0,.2,0,.4,.1,.5c.1,.2,.2,.3,.4,.4c.2,.1,.5,.1,1,.1l-.1,.4H191l.1,-.4h.2c.4,0,.7,0,1,-.2c.1,-.1,.3,-.3,.3,-.6c.1,-.1,.2,-.6,.2,-1.2l.2,-1.5h-3.4l-1.2,1.6c-.3,.4,-.5,.6,-.5,.8c-.1,.2,-.1,.3,-.1,.4c0,.2,0,.4,.2,.5c.1,.2,.4,.2,.7,.2l-.1,.4h-3.5l.1,-.4c.5,0,.8,-.1,1.2,-.4c.3,-.3,.8,-.8,1.4,-1.7l7.1,-9.6Z" class="g5_70"/>
<path clip-path="url(#c0_70)" d="M193.5,434.3l-3.4,4.6H193l.5,-4.6Zm1.7,-2.9l-.9,9.8c0,.5,0,.8,0,.9c0,.2,0,.4,.1,.5c.1,.2,.2,.3,.4,.4c.2,.1,.5,.1,1,.1l-.1,.4H191l.1,-.4h.2c.4,0,.7,0,1,-.2c.1,-.1,.3,-.3,.3,-.6c.1,-.1,.2,-.6,.2,-1.2l.2,-1.5h-3.4l-1.2,1.6c-.3,.4,-.5,.6,-.5,.8c-.1,.2,-.1,.3,-.1,.4c0,.2,0,.4,.2,.5c.1,.2,.4,.2,.7,.2l-.1,.4h-3.5l.1,-.4c.5,0,.8,-.1,1.2,-.4c.3,-.3,.8,-.8,1.4,-1.7l7.1,-9.6h.3Z" class="g6_70"/>
<path fill-rule="evenodd" d="M409.5,434.3l-3.5,4.6h3Zm1.7,-2.9l-.9,9.8c-.1,.5,-.1,.8,-.1,.9c0,.2,.1,.4,.1,.5c.2,.2,.3,.3,.5,.4c.2,.1,.5,.1,.9,.1v.4H407l.1,-.4h.2c.4,0,.7,0,.9,-.2c.2,-.1,.3,-.3,.4,-.6c.1,-.1,.1,-.6,.2,-1.2l.1,-1.5h-3.4l-1.2,1.6c-.2,.4,-.4,.6,-.5,.8c0,.2,-.1,.3,-.1,.4c0,.2,.1,.4,.2,.5c.2,.2,.4,.2,.8,.2l-.1,.4h-3.5l.1,-.4c.4,0,.8,-.1,1.1,-.4c.4,-.3,.9,-.8,1.5,-1.7l7.1,-9.6Z" class="g5_70"/>
<path clip-path="url(#c0_70)" d="M409.5,434.3l-3.5,4.6h3l.5,-4.6Zm1.7,-2.9l-.9,9.8c-.1,.5,-.1,.8,-.1,.9c0,.2,.1,.4,.1,.5c.2,.2,.3,.3,.5,.4c.2,.1,.5,.1,.9,.1v.4H407l.1,-.4h.2c.4,0,.7,0,.9,-.2c.2,-.1,.3,-.3,.4,-.6c.1,-.1,.1,-.6,.2,-1.2l.1,-1.5h-3.4l-1.2,1.6c-.2,.4,-.4,.6,-.5,.8c0,.2,-.1,.3,-.1,.4c0,.2,.1,.4,.2,.5c.2,.2,.4,.2,.8,.2l-.1,.4h-3.5l.1,-.4c.4,0,.8,-.1,1.1,-.4c.4,-.3,.9,-.8,1.5,-1.7l7.1,-9.6h.3Z" class="g6_70"/>
<path fill-rule="evenodd" d="M633.1,434.3l-3.4,4.6h2.9Zm1.7,-2.9l-.9,9.8c0,.5,-.1,.8,-.1,.9c0,.2,.1,.4,.2,.5c.1,.2,.2,.3,.4,.4c.2,.1,.5,.1,1,.1l-.1,.4h-4.7l.1,-.4h.2c.4,0,.7,0,.9,-.2c.2,-.1,.3,-.3,.4,-.6c.1,-.1,.2,-.6,.2,-1.2l.2,-1.5h-3.4l-1.2,1.6c-.3,.4,-.5,.6,-.5,.8c-.1,.2,-.1,.3,-.1,.4c0,.2,0,.4,.2,.5c.1,.2,.4,.2,.7,.2l-.1,.4h-3.5l.1,-.4c.5,0,.8,-.1,1.2,-.4c.3,-.3,.8,-.8,1.4,-1.7l7.1,-9.6Z" class="g5_70"/>
<path clip-path="url(#c0_70)" d="M633.1,434.3l-3.4,4.6h2.9l.5,-4.6Zm1.7,-2.9l-.9,9.8c0,.5,-.1,.8,-.1,.9c0,.2,.1,.4,.2,.5c.1,.2,.2,.3,.4,.4c.2,.1,.5,.1,1,.1l-.1,.4h-4.7l.1,-.4h.2c.4,0,.7,0,.9,-.2c.2,-.1,.3,-.3,.4,-.6c.1,-.1,.2,-.6,.2,-1.2l.2,-1.5h-3.4l-1.2,1.6c-.3,.4,-.5,.6,-.5,.8c-.1,.2,-.1,.3,-.1,.4c0,.2,0,.4,.2,.5c.1,.2,.4,.2,.7,.2l-.1,.4h-3.5l.1,-.4c.5,0,.8,-.1,1.2,-.4c.3,-.3,.8,-.8,1.4,-1.7l7.1,-9.6h.3Z" class="g6_70"/>
<path fill-rule="evenodd" d="M699,201.9l-3.4,4.7h3Zm1.8,-2.9l-.9,9.9c-.1,.4,-.1,.7,-.1,.9c0,.2,0,.4,.1,.5c.1,.2,.3,.3,.5,.4c.2,.1,.5,.1,.9,.1l-.1,.3h-4.6l.1,-.3h.2c.4,0,.7,-.1,.9,-.2c.2,-.2,.3,-.3,.4,-.6c.1,-.2,.1,-.6,.2,-1.3l.1,-1.5h-3.4l-1.2,1.7c-.2,.3,-.4,.6,-.5,.8c-.1,.1,-.1,.3,-.1,.4c0,.2,.1,.4,.2,.5c.2,.1,.4,.2,.8,.2l-.1,.3h-3.5l.1,-.3c.4,0,.8,-.2,1.1,-.4c.3,-.3,.8,-.9,1.5,-1.8l7.1,-9.6Z" class="g5_70"/>
<path d="M699,201.9l-3.4,4.7h3l.4,-4.7Zm1.8,-2.9l-.9,9.9c-.1,.4,-.1,.7,-.1,.9c0,.2,0,.4,.1,.5c.1,.2,.3,.3,.5,.4c.2,.1,.5,.1,.9,.1l-.1,.3h-4.6l.1,-.3h.2c.4,0,.7,-.1,.9,-.2c.2,-.2,.3,-.3,.4,-.6c.1,-.2,.1,-.6,.2,-1.3l.1,-1.5h-3.4l-1.2,1.7c-.2,.3,-.4,.6,-.5,.8c-.1,.1,-.1,.3,-.1,.4c0,.2,.1,.4,.2,.5c.2,.1,.4,.2,.8,.2l-.1,.3h-3.5l.1,-.3c.4,0,.8,-.2,1.1,-.4c.3,-.3,.8,-.9,1.5,-1.8l7.1,-9.6h.3Z" class="g6_70"/>
<path fill-rule="evenodd" d="M411.9,404.3l-3.4,4.6h3Zm1.7,-2.9l-.9,9.8c0,.5,0,.8,0,.9c0,.2,0,.4,.1,.5c.1,.2,.3,.3,.5,.4c.1,.1,.5,.1,.9,.1l-.1,.4h-4.6l.1,-.4h.2c.3,0,.6,0,.9,-.2c.1,-.1,.3,-.3,.4,-.6c0,-.1,.1,-.6,.2,-1.2l.1,-1.5H408l-1.2,1.6c-.3,.4,-.4,.6,-.5,.8c-.1,.1,-.1,.3,-.1,.4c0,.2,.1,.4,.2,.5c.2,.1,.4,.2,.8,.2l-.1,.4h-3.5l.1,-.4c.4,0,.8,-.1,1.1,-.4c.3,-.3,.8,-.8,1.5,-1.7l7,-9.6Z" class="g5_70"/>
<path d="M411.9,404.3l-3.4,4.6h3l.4,-4.6Zm1.7,-2.9l-.9,9.8c0,.5,0,.8,0,.9c0,.2,0,.4,.1,.5c.1,.2,.3,.3,.5,.4c.1,.1,.5,.1,.9,.1l-.1,.4h-4.6l.1,-.4h.2c.3,0,.6,0,.9,-.2c.1,-.1,.3,-.3,.4,-.6c0,-.1,.1,-.6,.2,-1.2l.1,-1.5H408l-1.2,1.6c-.3,.4,-.4,.6,-.5,.8c-.1,.1,-.1,.3,-.1,.4c0,.2,.1,.4,.2,.5c.2,.1,.4,.2,.8,.2l-.1,.4h-3.5l.1,-.4c.4,0,.8,-.1,1.1,-.4c.3,-.3,.8,-.8,1.5,-1.7l7,-9.6h.3Z" class="g6_70"/>
<path fill-rule="evenodd" d="M376.8,442.6c.6,0,1.1,.1,1.4,.1c.9,0,1.7,-.3,2.4,-.8c.8,-.6,1.1,-1.3,1.1,-2.3c0,-.7,-.2,-1.2,-.6,-1.6c-.5,-.4,-1.2,-.6,-2.1,-.6c-.2,0,-.5,0,-.7,0Zm1.7,-5.9c.4,0,.6,0,.8,0c1.2,0,2.1,-.2,2.7,-.7c.6,-.6,.9,-1.2,.9,-2c0,-.6,-.2,-1.1,-.6,-1.4c-.3,-.4,-.9,-.5,-1.7,-.5c-.2,0,-.5,0,-.8,.1Zm-1.8,-4.9l.1,-.3h4.3c.7,0,1.3,.1,1.9,.3c.5,.2,.9,.5,1.2,.9c.3,.4,.4,.9,.4,1.3c0,.7,-.2,1.3,-.7,1.9c-.5,.5,-1.3,.9,-2.4,1.2c.7,.2,1.2,.6,1.6,1c.3,.5,.5,1,.5,1.5c0,.6,-.2,1.1,-.5,1.7c-.3,.5,-.7,.9,-1.2,1.2c-.4,.3,-1,.5,-1.7,.7c-.5,.1,-1.2,.1,-2.2,.1h-4.3l.1,-.3c.4,0,.7,-.1,.9,-.1c.2,-.1,.4,-.3,.5,-.4c.1,-.2,.3,-.7,.5,-1.5l2.2,-7.2c.1,-.6,.2,-1,.2,-1.3c0,-.2,0,-.4,-.2,-.5c-.2,-.1,-.5,-.2,-.9,-.2c-.1,0,-.2,0,-.3,0Z" class="g5_70"/>
<path d="M376.8,442.6c.6,0,1.1,.1,1.4,.1c.9,0,1.7,-.3,2.4,-.8c.8,-.6,1.1,-1.3,1.1,-2.3c0,-.7,-.2,-1.2,-.6,-1.6c-.5,-.4,-1.2,-.6,-2.1,-.6c-.2,0,-.5,0,-.7,0l-1.5,5.2Zm1.7,-5.9c.4,0,.6,0,.8,0c1.2,0,2.1,-.2,2.7,-.7c.6,-.6,.9,-1.2,.9,-2c0,-.6,-.2,-1.1,-.6,-1.4c-.3,-.4,-.9,-.5,-1.7,-.5c-.2,0,-.5,0,-.8,.1l-1.3,4.5Zm-1.8,-4.9l.1,-.3h4.3c.7,0,1.3,.1,1.9,.3c.5,.2,.9,.5,1.2,.9c.3,.4,.4,.9,.4,1.3c0,.7,-.2,1.3,-.7,1.9c-.5,.5,-1.3,.9,-2.4,1.2c.7,.2,1.2,.6,1.6,1c.3,.5,.5,1,.5,1.5c0,.6,-.2,1.1,-.5,1.7c-.3,.5,-.7,.9,-1.2,1.2c-.4,.3,-1,.5,-1.7,.7c-.5,.1,-1.2,.1,-2.2,.1h-4.3l.1,-.3c.4,0,.7,-.1,.9,-.1c.2,-.1,.4,-.3,.5,-.4c.1,-.2,.3,-.7,.5,-1.5l2.2,-7.2c.1,-.6,.2,-1,.2,-1.3c0,-.2,0,-.4,-.2,-.5c-.2,-.1,-.5,-.2,-.9,-.2c-.1,0,-.2,0,-.3,0Z" class="g6_70"/>
<path fill-rule="evenodd" d="M591.3,442.6c.7,0,1.1,.1,1.5,.1c.9,0,1.7,-.3,2.4,-.8c.7,-.6,1.1,-1.3,1.1,-2.3c0,-.7,-.3,-1.2,-.7,-1.6c-.4,-.4,-1.1,-.6,-2.1,-.6c-.2,0,-.4,0,-.7,0Zm1.7,-5.9c.4,0,.7,0,.9,0c1.2,0,2.1,-.2,2.7,-.7c.6,-.6,.9,-1.2,.9,-2c0,-.6,-.2,-1.1,-.6,-1.4c-.4,-.4,-.9,-.5,-1.7,-.5c-.2,0,-.5,0,-.8,.1Zm-1.7,-4.9l.1,-.3h4.2c.7,0,1.4,.1,1.9,.3c.6,.2,1,.5,1.3,.9c.2,.4,.4,.9,.4,1.3c0,.7,-.3,1.3,-.8,1.9c-.5,.5,-1.3,.9,-2.4,1.2c.8,.2,1.3,.6,1.6,1c.4,.5,.5,1,.5,1.5c0,.6,-.1,1.1,-.4,1.7c-.3,.5,-.7,.9,-1.2,1.2c-.5,.3,-1,.5,-1.7,.7c-.5,.1,-1.2,.1,-2.2,.1h-4.4l.1,-.3c.5,0,.8,-.1,1,-.1c.2,-.1,.4,-.3,.5,-.4c.1,-.2,.3,-.7,.5,-1.5l2.1,-7.2c.2,-.6,.3,-1,.3,-1.3c0,-.2,-.1,-.4,-.2,-.5c-.2,-.1,-.5,-.2,-1,-.2c0,0,-.1,0,-.2,0Z" class="g5_70"/>
<path d="M591.3,442.6c.7,0,1.1,.1,1.5,.1c.9,0,1.7,-.3,2.4,-.8c.7,-.6,1.1,-1.3,1.1,-2.3c0,-.7,-.3,-1.2,-.7,-1.6c-.4,-.4,-1.1,-.6,-2.1,-.6c-.2,0,-.4,0,-.7,0l-1.5,5.2Zm1.7,-5.9c.4,0,.7,0,.9,0c1.2,0,2.1,-.2,2.7,-.7c.6,-.6,.9,-1.2,.9,-2c0,-.6,-.2,-1.1,-.6,-1.4c-.4,-.4,-.9,-.5,-1.7,-.5c-.2,0,-.5,0,-.8,.1l-1.4,4.5Zm-1.7,-4.9l.1,-.3h4.2c.7,0,1.4,.1,1.9,.3c.6,.2,1,.5,1.3,.9c.2,.4,.4,.9,.4,1.3c0,.7,-.3,1.3,-.8,1.9c-.5,.5,-1.3,.9,-2.4,1.2c.8,.2,1.3,.6,1.6,1c.4,.5,.5,1,.5,1.5c0,.6,-.1,1.1,-.4,1.7c-.3,.5,-.7,.9,-1.2,1.2c-.5,.3,-1,.5,-1.7,.7c-.5,.1,-1.2,.1,-2.2,.1h-4.4l.1,-.3c.5,0,.8,-.1,1,-.1c.2,-.1,.4,-.3,.5,-.4c.1,-.2,.3,-.7,.5,-1.5l2.1,-7.2c.2,-.6,.3,-1,.3,-1.3c0,-.2,-.1,-.4,-.2,-.5c-.2,-.1,-.5,-.2,-1,-.2c0,0,-.1,0,-.2,0Z" class="g6_70"/>
<path fill-rule="evenodd" d="M812.9,442.6c.6,0,1.1,.1,1.4,.1c.9,0,1.8,-.3,2.5,-.8c.7,-.6,1,-1.3,1,-2.3c0,-.7,-.2,-1.2,-.6,-1.6c-.5,-.4,-1.2,-.6,-2.1,-.6c-.2,0,-.5,0,-.7,0Zm1.7,-5.9c.4,0,.6,0,.8,0c1.2,0,2.1,-.2,2.7,-.7c.6,-.6,.9,-1.2,.9,-2c0,-.6,-.2,-1.1,-.6,-1.4c-.3,-.4,-.9,-.5,-1.7,-.5c-.2,0,-.5,0,-.8,.1Zm-1.8,-4.9l.1,-.3h4.3c.7,0,1.3,.1,1.9,.3c.5,.2,.9,.5,1.2,.9c.3,.4,.4,.9,.4,1.3c0,.7,-.2,1.3,-.7,1.9c-.5,.5,-1.3,.9,-2.4,1.2c.7,.2,1.2,.6,1.6,1c.3,.5,.5,1,.5,1.5c0,.6,-.2,1.1,-.5,1.7c-.3,.5,-.7,.9,-1.2,1.2c-.4,.3,-1,.5,-1.7,.7c-.4,.1,-1.2,.1,-2.2,.1h-4.3l.1,-.3c.4,0,.7,-.1,.9,-.1c.2,-.1,.4,-.3,.5,-.4c.1,-.2,.3,-.7,.6,-1.5l2.1,-7.2c.2,-.6,.2,-1,.2,-1.3c0,-.2,0,-.4,-.2,-.5c-.2,-.1,-.5,-.2,-.9,-.2c-.1,0,-.2,0,-.3,0Z" class="g5_70"/>
<path d="M812.9,442.6c.6,0,1.1,.1,1.4,.1c.9,0,1.8,-.3,2.5,-.8c.7,-.6,1,-1.3,1,-2.3c0,-.7,-.2,-1.2,-.6,-1.6c-.5,-.4,-1.2,-.6,-2.1,-.6c-.2,0,-.5,0,-.7,0l-1.5,5.2Zm1.7,-5.9c.4,0,.6,0,.8,0c1.2,0,2.1,-.2,2.7,-.7c.6,-.6,.9,-1.2,.9,-2c0,-.6,-.2,-1.1,-.6,-1.4c-.3,-.4,-.9,-.5,-1.7,-.5c-.2,0,-.5,0,-.8,.1l-1.3,4.5Zm-1.8,-4.9l.1,-.3h4.3c.7,0,1.3,.1,1.9,.3c.5,.2,.9,.5,1.2,.9c.3,.4,.4,.9,.4,1.3c0,.7,-.2,1.3,-.7,1.9c-.5,.5,-1.3,.9,-2.4,1.2c.7,.2,1.2,.6,1.6,1c.3,.5,.5,1,.5,1.5c0,.6,-.2,1.1,-.5,1.7c-.3,.5,-.7,.9,-1.2,1.2c-.4,.3,-1,.5,-1.7,.7c-.4,.1,-1.2,.1,-2.2,.1h-4.3l.1,-.3c.4,0,.7,-.1,.9,-.1c.2,-.1,.4,-.3,.5,-.4c.1,-.2,.3,-.7,.6,-1.5l2.1,-7.2c.2,-.6,.2,-1,.2,-1.3c0,-.2,0,-.4,-.2,-.5c-.2,-.1,-.5,-.2,-.9,-.2c-.1,0,-.2,0,-.3,0Z" class="g6_70"/>
<path fill-rule="evenodd" d="M606.1,333.7l-.9,3.8h-.3v-1c-.1,-.3,-.1,-.6,-.2,-.9c-.1,-.3,-.3,-.5,-.5,-.7c-.2,-.2,-.5,-.4,-.8,-.5c-.3,-.1,-.7,-.1,-1.1,-.1c-1,0,-1.9,.2,-2.7,.8c-1,.7,-1.8,1.8,-2.3,3.1c-.5,1.1,-.7,2.2,-.7,3.3c0,1.2,.3,2.1,1,2.8c.6,.7,1.5,1,2.6,1c.8,0,1.5,-.2,2.1,-.5c.7,-.4,1.2,-1,1.8,-1.7h.4c-.6,1,-1.4,1.8,-2.1,2.2c-.8,.5,-1.7,.8,-2.8,.8c-1,0,-1.9,-.3,-2.6,-.7c-.7,-.4,-1.3,-.9,-1.7,-1.7c-.4,-.7,-.6,-1.5,-.6,-2.3c0,-1.3,.4,-2.6,1.1,-3.8c.6,-1.2,1.6,-2.2,2.8,-2.9c1.2,-.7,2.4,-1,3.7,-1c.5,0,1.2,.1,1.9,.4c.3,.1,.5,.2,.7,.2c.1,0,.2,-.1,.3,-.1c.1,-.1,.3,-.3,.6,-.5Z" class="g5_70"/>
<path d="M606.1,333.7l-.9,3.8h-.3v-1c-.1,-.3,-.1,-.6,-.2,-.9c-.1,-.3,-.3,-.5,-.5,-.7c-.2,-.2,-.5,-.4,-.8,-.5c-.3,-.1,-.7,-.1,-1.1,-.1c-1,0,-1.9,.2,-2.7,.8c-1,.7,-1.8,1.8,-2.3,3.1c-.5,1.1,-.7,2.2,-.7,3.3c0,1.2,.3,2.1,1,2.8c.6,.7,1.5,1,2.6,1c.8,0,1.5,-.2,2.1,-.5c.7,-.4,1.2,-1,1.8,-1.7h.4c-.6,1,-1.4,1.8,-2.1,2.2c-.8,.5,-1.7,.8,-2.8,.8c-1,0,-1.9,-.3,-2.6,-.7c-.7,-.4,-1.3,-.9,-1.7,-1.7c-.4,-.7,-.6,-1.5,-.6,-2.3c0,-1.3,.4,-2.6,1.1,-3.8c.6,-1.2,1.6,-2.2,2.8,-2.9c1.2,-.7,2.4,-1,3.7,-1c.5,0,1.2,.1,1.9,.4c.3,.1,.5,.2,.7,.2c.1,0,.2,-.1,.3,-.1c.1,-.1,.3,-.3,.6,-.5h.3Z" class="g6_70"/>
<path fill-rule="evenodd" d="M641.3,384.6l-.8,3.8h-.4v-.9c0,-.4,-.1,-.7,-.2,-1c-.1,-.2,-.3,-.5,-.5,-.7c-.2,-.2,-.4,-.3,-.8,-.4c-.3,-.2,-.6,-.2,-1,-.2c-1.1,0,-2,.3,-2.7,.8c-1,.8,-1.8,1.8,-2.4,3.1c-.5,1.1,-.7,2.2,-.7,3.4c0,1.1,.3,2,1,2.7c.7,.7,1.6,1,2.6,1c.8,0,1.6,-.2,2.2,-.5c.6,-.4,1.2,-.9,1.7,-1.7h.5c-.7,1,-1.4,1.8,-2.2,2.3c-.8,.4,-1.7,.7,-2.8,.7c-.9,0,-1.8,-.2,-2.5,-.6c-.8,-.4,-1.4,-1,-1.7,-1.7c-.4,-.8,-.6,-1.5,-.6,-2.4c0,-1.3,.3,-2.5,1,-3.8c.7,-1.2,1.7,-2.1,2.9,-2.8c1.2,-.7,2.4,-1.1,3.6,-1.1c.6,0,1.2,.1,2,.4c.3,.1,.5,.2,.6,.2c.2,0,.3,0,.4,-.1c.1,-.1,.3,-.2,.5,-.5Z" class="g5_70"/>
<path d="M641.3,384.6l-.8,3.8h-.4v-.9c0,-.4,-.1,-.7,-.2,-1c-.1,-.2,-.3,-.5,-.5,-.7c-.2,-.2,-.4,-.3,-.8,-.4c-.3,-.2,-.6,-.2,-1,-.2c-1.1,0,-2,.3,-2.7,.8c-1,.8,-1.8,1.8,-2.4,3.1c-.5,1.1,-.7,2.2,-.7,3.4c0,1.1,.3,2,1,2.7c.7,.7,1.6,1,2.6,1c.8,0,1.6,-.2,2.2,-.5c.6,-.4,1.2,-.9,1.7,-1.7h.5c-.7,1,-1.4,1.8,-2.2,2.3c-.8,.4,-1.7,.7,-2.8,.7c-.9,0,-1.8,-.2,-2.5,-.6c-.8,-.4,-1.4,-1,-1.7,-1.7c-.4,-.8,-.6,-1.5,-.6,-2.4c0,-1.3,.3,-2.5,1,-3.8c.7,-1.2,1.7,-2.1,2.9,-2.8c1.2,-.7,2.4,-1.1,3.6,-1.1c.6,0,1.2,.1,2,.4c.3,.1,.5,.2,.6,.2c.2,0,.3,0,.4,-.1c.1,-.1,.3,-.2,.5,-.5h.3Z" class="g6_70"/>
<path fill-rule="evenodd" d="M824.5,333.7l-.9,3.8h-.3v-1c0,-.3,-.1,-.6,-.2,-.9c-.1,-.3,-.3,-.5,-.5,-.7c-.2,-.2,-.5,-.4,-.8,-.5c-.3,-.1,-.7,-.1,-1,-.1c-1.1,0,-2,.2,-2.8,.8c-1,.7,-1.8,1.8,-2.3,3.1c-.5,1.1,-.7,2.2,-.7,3.3c0,1.2,.3,2.1,1,2.8c.7,.7,1.5,1,2.6,1c.8,0,1.5,-.2,2.2,-.5c.6,-.4,1.2,-1,1.7,-1.7h.4c-.6,1,-1.3,1.8,-2.1,2.2c-.8,.5,-1.7,.8,-2.8,.8c-1,0,-1.8,-.3,-2.6,-.7c-.7,-.4,-1.3,-.9,-1.7,-1.7c-.4,-.7,-.6,-1.5,-.6,-2.3c0,-1.3,.4,-2.6,1.1,-3.8c.7,-1.2,1.6,-2.2,2.8,-2.9c1.2,-.7,2.5,-1,3.7,-1c.6,0,1.2,.1,1.9,.4c.3,.1,.6,.2,.7,.2c.1,0,.3,-.1,.4,-.1c.1,-.1,.2,-.3,.5,-.5Z" class="g5_70"/>
<path d="M824.5,333.7l-.9,3.8h-.3v-1c0,-.3,-.1,-.6,-.2,-.9c-.1,-.3,-.3,-.5,-.5,-.7c-.2,-.2,-.5,-.4,-.8,-.5c-.3,-.1,-.7,-.1,-1,-.1c-1.1,0,-2,.2,-2.8,.8c-1,.7,-1.8,1.8,-2.3,3.1c-.5,1.1,-.7,2.2,-.7,3.3c0,1.2,.3,2.1,1,2.8c.7,.7,1.5,1,2.6,1c.8,0,1.5,-.2,2.2,-.5c.6,-.4,1.2,-1,1.7,-1.7h.4c-.6,1,-1.3,1.8,-2.1,2.2c-.8,.5,-1.7,.8,-2.8,.8c-1,0,-1.8,-.3,-2.6,-.7c-.7,-.4,-1.3,-.9,-1.7,-1.7c-.4,-.7,-.6,-1.5,-.6,-2.3c0,-1.3,.4,-2.6,1.1,-3.8c.7,-1.2,1.6,-2.2,2.8,-2.9c1.2,-.7,2.5,-1,3.7,-1c.6,0,1.2,.1,1.9,.4c.3,.1,.6,.2,.7,.2c.1,0,.3,-.1,.4,-.1c.1,-.1,.2,-.3,.5,-.5h.3Z" class="g6_70"/>
<path fill-rule="evenodd" d="M388.8,334.4l-.9,3.8h-.3l-.1,-1c0,-.3,0,-.6,-.2,-.9c-.1,-.3,-.2,-.5,-.4,-.7c-.2,-.2,-.5,-.4,-.8,-.5c-.3,-.1,-.7,-.1,-1.1,-.1c-1,0,-1.9,.2,-2.7,.8c-1,.7,-1.8,1.8,-2.4,3.1c-.4,1.1,-.7,2.2,-.7,3.3c0,1.2,.4,2.1,1.1,2.8c.6,.6,1.5,1,2.6,1c.8,0,1.5,-.2,2.1,-.6c.7,-.3,1.2,-.9,1.8,-1.6h.4c-.6,1,-1.4,1.8,-2.1,2.2c-.8,.5,-1.8,.8,-2.8,.8c-1,0,-1.9,-.3,-2.6,-.7c-.8,-.4,-1.3,-.9,-1.7,-1.7c-.4,-.7,-.6,-1.5,-.6,-2.3c0,-1.3,.4,-2.6,1,-3.8c.7,-1.2,1.7,-2.2,2.9,-2.9c1.2,-.7,2.4,-1,3.6,-1c.6,0,1.3,.1,2,.4c.3,.1,.5,.2,.7,.2c.1,0,.2,-.1,.3,-.1c.1,-.1,.3,-.3,.6,-.5Z" class="g5_70"/>
<path d="M388.8,334.4l-.9,3.8h-.3l-.1,-1c0,-.3,0,-.6,-.2,-.9c-.1,-.3,-.2,-.5,-.4,-.7c-.2,-.2,-.5,-.4,-.8,-.5c-.3,-.1,-.7,-.1,-1.1,-.1c-1,0,-1.9,.2,-2.7,.8c-1,.7,-1.8,1.8,-2.4,3.1c-.4,1.1,-.7,2.2,-.7,3.3c0,1.2,.4,2.1,1.1,2.8c.6,.6,1.5,1,2.6,1c.8,0,1.5,-.2,2.1,-.6c.7,-.3,1.2,-.9,1.8,-1.6h.4c-.6,1,-1.4,1.8,-2.1,2.2c-.8,.5,-1.8,.8,-2.8,.8c-1,0,-1.9,-.3,-2.6,-.7c-.8,-.4,-1.3,-.9,-1.7,-1.7c-.4,-.7,-.6,-1.5,-.6,-2.3c0,-1.3,.4,-2.6,1,-3.8c.7,-1.2,1.7,-2.2,2.9,-2.9c1.2,-.7,2.4,-1,3.6,-1c.6,0,1.3,.1,2,.4c.3,.1,.5,.2,.7,.2c.1,0,.2,-.1,.3,-.1c.1,-.1,.3,-.3,.6,-.5h.3Z" class="g6_70"/>
<path fill-rule="evenodd" d="M605.4,309.3l-.8,3.8h-.4v-1c0,-.3,-.1,-.6,-.2,-.9c-.1,-.3,-.3,-.5,-.5,-.7c-.2,-.2,-.4,-.4,-.8,-.5c-.3,-.1,-.6,-.2,-1,-.2c-1.1,0,-2,.3,-2.8,.9c-1,.7,-1.7,1.7,-2.3,3.1c-.5,1.1,-.7,2.2,-.7,3.3c0,1.1,.3,2.1,1,2.7c.7,.7,1.5,1.1,2.6,1.1c.8,0,1.5,-.2,2.2,-.6c.6,-.3,1.2,-.9,1.7,-1.6h.4c-.6,1,-1.3,1.7,-2.1,2.2c-.8,.5,-1.7,.7,-2.8,.7c-1,0,-1.8,-.2,-2.5,-.6c-.8,-.4,-1.4,-.9,-1.8,-1.7c-.3,-.7,-.5,-1.5,-.5,-2.3c0,-1.3,.3,-2.6,1,-3.8c.7,-1.2,1.6,-2.2,2.8,-2.9c1.3,-.7,2.5,-1,3.7,-1c.6,0,1.2,.1,1.9,.4c.4,.1,.6,.1,.7,.1c.2,0,.3,0,.4,0c.1,-.1,.3,-.3,.5,-.5Z" class="g5_70"/>
<path d="M605.4,309.3l-.8,3.8h-.4v-1c0,-.3,-.1,-.6,-.2,-.9c-.1,-.3,-.3,-.5,-.5,-.7c-.2,-.2,-.4,-.4,-.8,-.5c-.3,-.1,-.6,-.2,-1,-.2c-1.1,0,-2,.3,-2.8,.9c-1,.7,-1.7,1.7,-2.3,3.1c-.5,1.1,-.7,2.2,-.7,3.3c0,1.1,.3,2.1,1,2.7c.7,.7,1.5,1.1,2.6,1.1c.8,0,1.5,-.2,2.2,-.6c.6,-.3,1.2,-.9,1.7,-1.6h.4c-.6,1,-1.3,1.7,-2.1,2.2c-.8,.5,-1.7,.7,-2.8,.7c-1,0,-1.8,-.2,-2.5,-.6c-.8,-.4,-1.4,-.9,-1.8,-1.7c-.3,-.7,-.5,-1.5,-.5,-2.3c0,-1.3,.3,-2.6,1,-3.8c.7,-1.2,1.6,-2.2,2.8,-2.9c1.3,-.7,2.5,-1,3.7,-1c.6,0,1.2,.1,1.9,.4c.4,.1,.6,.1,.7,.1c.2,0,.3,0,.4,0c.1,-.1,.3,-.3,.5,-.5h.3Z" class="g6_70"/>
<path fill-rule="evenodd" d="M191.4,334.6l-2.5,8.9c-.2,.6,-.3,1,-.3,1.2c0,.1,0,.2,.1,.3c0,0,.1,.1,.2,.1c.2,.1,.4,.1,.8,.1c.9,0,1.7,-.1,2.5,-.3c.8,-.2,1.4,-.4,1.9,-.8c.7,-.6,1.3,-1.3,1.7,-2.2c.5,-1,.7,-2.1,.7,-3.3c0,-1.4,-.3,-2.4,-1,-3c-.7,-.7,-1.6,-1,-2.9,-1c-.3,0,-.7,0,-1.2,0m-3,-.3l.1,-.4h3.7c1.6,0,2.8,.2,3.6,.6c.8,.4,1.4,.9,1.8,1.7c.5,.8,.7,1.7,.7,2.6c0,.7,-.1,1.5,-.4,2.2c-.2,.7,-.5,1.3,-.9,1.8c-.3,.4,-.8,.9,-1.5,1.4c-.7,.6,-1.5,1,-2.3,1.2c-.8,.3,-1.8,.4,-3,.4h-5l.1,-.3c.5,-.1,.8,-.1,.9,-.2c.3,-.1,.4,-.2,.6,-.4c.1,-.2,.3,-.7,.5,-1.4l2.1,-7.2c.2,-.6,.3,-1,.3,-1.3c0,-.3,-.1,-.4,-.3,-.6c-.1,-.1,-.4,-.1,-.9,-.1Z" class="g5_70"/>
<path d="M191.4,334.6l-2.5,8.9c-.2,.6,-.3,1,-.3,1.2c0,.1,0,.2,.1,.3c0,0,.1,.1,.2,.1c.2,.1,.4,.1,.8,.1c.9,0,1.7,-.1,2.5,-.3c.8,-.2,1.4,-.4,1.9,-.8c.7,-.6,1.3,-1.3,1.7,-2.2c.5,-1,.7,-2.1,.7,-3.3c0,-1.4,-.3,-2.4,-1,-3c-.7,-.7,-1.6,-1,-2.9,-1c-.3,0,-.7,0,-1.2,0Zm-3,-.3l.1,-.4h3.7c1.6,0,2.8,.2,3.6,.6c.8,.4,1.4,.9,1.8,1.7c.5,.8,.7,1.7,.7,2.6c0,.7,-.1,1.5,-.4,2.2c-.2,.7,-.5,1.3,-.9,1.8c-.3,.4,-.8,.9,-1.5,1.4c-.7,.6,-1.5,1,-2.3,1.2c-.8,.3,-1.8,.4,-3,.4h-5l.1,-.3c.5,-.1,.8,-.1,.9,-.2c.3,-.1,.4,-.2,.6,-.4c.1,-.2,.3,-.7,.5,-1.4l2.1,-7.2c.2,-.6,.3,-1,.3,-1.3c0,-.3,-.1,-.4,-.3,-.6c-.1,-.1,-.4,-.1,-.9,-.1h-.1Z" class="g6_70"/>
<path fill-rule="evenodd" d="M408.8,309.5l-2.6,8.8c-.2,.7,-.3,1.1,-.3,1.3c0,.1,.1,.2,.1,.2c.1,.1,.2,.2,.3,.2c.1,.1,.4,.1,.7,.1c.9,0,1.8,-.1,2.6,-.3c.7,-.2,1.4,-.5,1.9,-.8c.7,-.6,1.3,-1.3,1.7,-2.3c.4,-.9,.6,-2,.6,-3.2c0,-1.4,-.3,-2.4,-.9,-3.1c-.7,-.6,-1.7,-1,-2.9,-1c-.3,0,-.7,.1,-1.2,.1m-3.1,-.3l.1,-.4h3.8c1.6,0,2.8,.2,3.5,.6c.8,.3,1.4,.9,1.9,1.7c.4,.8,.7,1.6,.7,2.5c0,.8,-.2,1.6,-.4,2.3c-.3,.7,-.6,1.3,-.9,1.8c-.3,.4,-.9,.9,-1.6,1.4c-.6,.5,-1.4,.9,-2.2,1.2c-.8,.2,-1.8,.4,-3,.4h-5l.1,-.4c.4,0,.7,0,.9,-.1c.2,-.1,.4,-.2,.5,-.4c.2,-.2,.4,-.7,.6,-1.5l2.1,-7.1c.1,-.6,.2,-1,.2,-1.3c0,-.3,-.1,-.4,-.2,-.6c-.2,-.1,-.5,-.1,-.9,-.1Z" class="g5_70"/>
<path d="M408.8,309.5l-2.6,8.8c-.2,.7,-.3,1.1,-.3,1.3c0,.1,.1,.2,.1,.2c.1,.1,.2,.2,.3,.2c.1,.1,.4,.1,.7,.1c.9,0,1.8,-.1,2.6,-.3c.7,-.2,1.4,-.5,1.9,-.8c.7,-.6,1.3,-1.3,1.7,-2.3c.4,-.9,.6,-2,.6,-3.2c0,-1.4,-.3,-2.4,-.9,-3.1c-.7,-.6,-1.7,-1,-2.9,-1c-.3,0,-.7,.1,-1.2,.1Zm-3.1,-.3l.1,-.4h3.8c1.6,0,2.8,.2,3.5,.6c.8,.3,1.4,.9,1.9,1.7c.4,.8,.7,1.6,.7,2.5c0,.8,-.2,1.6,-.4,2.3c-.3,.7,-.6,1.3,-.9,1.8c-.3,.4,-.9,.9,-1.6,1.4c-.6,.5,-1.4,.9,-2.2,1.2c-.8,.2,-1.8,.4,-3,.4h-5l.1,-.4c.4,0,.7,0,.9,-.1c.2,-.1,.4,-.2,.5,-.4c.2,-.2,.4,-.7,.6,-1.5l2.1,-7.1c.1,-.6,.2,-1,.2,-1.3c0,-.3,-.1,-.4,-.2,-.6c-.2,-.1,-.5,-.1,-.9,-.1h-.2Z" class="g6_70"/>
<path fill-rule="evenodd" d="M778.3,254.4l-2.6,8.8c-.2,.7,-.3,1.1,-.3,1.3c0,0,0,.1,.1,.2c.1,.1,.1,.2,.2,.2c.2,.1,.4,.1,.8,.1c.9,0,1.7,-.1,2.5,-.3c.8,-.2,1.4,-.5,1.9,-.8c.8,-.6,1.3,-1.3,1.7,-2.3c.5,-.9,.7,-2,.7,-3.2c0,-1.4,-.3,-2.4,-1,-3.1c-.6,-.6,-1.6,-1,-2.9,-1c-.3,0,-.7,0,-1.1,.1m-3.1,-.4l.1,-.3H779c1.6,0,2.8,.2,3.6,.6c.8,.3,1.4,.9,1.8,1.7c.5,.8,.7,1.6,.7,2.5c0,.8,-.1,1.6,-.4,2.3c-.2,.7,-.5,1.3,-.9,1.7c-.3,.5,-.8,1,-1.5,1.5c-.7,.5,-1.4,.9,-2.3,1.2c-.8,.2,-1.8,.3,-3,.3h-5l.1,-.3c.5,0,.8,0,.9,-.1c.3,-.1,.4,-.2,.6,-.4c.1,-.2,.3,-.7,.5,-1.5l2.1,-7.1c.2,-.6,.3,-1,.3,-1.4c0,-.2,-.1,-.4,-.3,-.5c-.1,-.1,-.4,-.2,-.9,-.2Z" class="g5_70"/>
<path d="M778.3,254.4l-2.6,8.8c-.2,.7,-.3,1.1,-.3,1.3c0,0,0,.1,.1,.2c.1,.1,.1,.2,.2,.2c.2,.1,.4,.1,.8,.1c.9,0,1.7,-.1,2.5,-.3c.8,-.2,1.4,-.5,1.9,-.8c.8,-.6,1.3,-1.3,1.7,-2.3c.5,-.9,.7,-2,.7,-3.2c0,-1.4,-.3,-2.4,-1,-3.1c-.6,-.6,-1.6,-1,-2.9,-1c-.3,0,-.7,0,-1.1,.1Zm-3.1,-.4l.1,-.3H779c1.6,0,2.8,.2,3.6,.6c.8,.3,1.4,.9,1.8,1.7c.5,.8,.7,1.6,.7,2.5c0,.8,-.1,1.6,-.4,2.3c-.2,.7,-.5,1.3,-.9,1.7c-.3,.5,-.8,1,-1.5,1.5c-.7,.5,-1.4,.9,-2.3,1.2c-.8,.2,-1.8,.3,-3,.3h-5l.1,-.3c.5,0,.8,0,.9,-.1c.3,-.1,.4,-.2,.6,-.4c.1,-.2,.3,-.7,.5,-1.5l2.1,-7.1c.2,-.6,.3,-1,.3,-1.4c0,-.2,-.1,-.4,-.3,-.5c-.1,-.1,-.4,-.2,-.9,-.2h-.1Z" class="g6_70"/>
<path d="M487.4,333.2c65,-55.9,134.8,-65.4,207.2,-48.8" class="g2_70"/>
<path fill-rule="evenodd" d="M699.8,285.6l-9.3,-6.8c.8,3.3,.2,6.2,-2,8.8Z" class="g5_70"/>
<path d="M713.5,293.2c24.4,23.7,34.6,57.7,36.9,97.5" class="g2_70"/>
<path fill-rule="evenodd" d="M750.8,396l3.8,-10.8c-2.9,1.7,-5.9,1.9,-9,.5Z" class="g5_70"/>
<path d="M713.7,204.7c61,9.1,105.9,68,94.4,127.2" class="g4_70"/>
<path fill-rule="evenodd" d="M807.1,337.1l6.4,-9.5c-3.2,.9,-6.2,.3,-8.8,-1.7Z" class="g5_70"/>
<path clip-path="url(#c0_70)" d="M772,268.9c69.3,25.9,78.6,121,43.5,155.1" class="g4_70"/>
<path fill-rule="evenodd" d="M811.7,427.6l10.7,-4c-3.2,-1.2,-5.3,-3.3,-6.3,-6.5Z" class="g5_70"/>
<path d="M627.8,396.6c-3.5,6.1,.8,12.2,5.1,23" class="g4_70"/>
<path fill-rule="evenodd" d="M634.9,424.5l.3,-11.5c-2.3,2.5,-5.1,3.6,-8.4,3.4Z" class="g5_70"/>
<path d="M184,625.9H835.1V558.7H184v67.2Z" class="g7_70"/>
<path d="M184,826.8H835.1V759.7H184v67.1Z" class="g7_70"/>
<path fill-rule="evenodd" d="M202,924.3H357.1V845.2Z" class="g3_70"/>
<path d="M355.9,906.2c-10.5,2.5,-16.1,8.6,-16.6,18.3" class="g8_70"/>
<path fill-rule="evenodd" d="M350,916.1c-.4,0,-.8,.3,-.8,.8c0,.5,.4,.9,.8,.9c.5,0,.9,-.4,.9,-.9c0,-.5,-.4,-.8,-.9,-.8Z" class="g5_70"/>
<path d="M350,916.1c-.4,0,-.8,.3,-.8,.8c0,.5,.4,.9,.8,.9c.5,0,.9,-.4,.9,-.9c0,-.5,-.4,-.8,-.9,-.8Zm7.3,-71.7H201.2V924H357.3V844.4Z" class="g9_70"/>
<path clip-path="url(#c1_70)" fill-rule="evenodd" d="M272.5,933.7c-.3,0,-.7,.2,-1.2,.5c-.6,.6,-1.1,1.3,-1.6,2.3c-.5,1,-.7,1.9,-.7,2.7c0,.4,.1,.7,.3,1c.2,.2,.4,.3,.7,.3c.6,0,1.3,-.5,2.1,-1.4c1,-1.3,1.5,-2.6,1.5,-4c0,-.5,-.1,-.8,-.3,-1.1c-.2,-.2,-.4,-.3,-.8,-.3m3.2,-.5l-1.7,6.1l-.2,.8c0,.1,0,.2,0,.2c0,.1,0,.2,0,.3c.1,0,.2,.1,.2,.1c.1,0,.2,-.1,.3,-.2c.3,-.2,.6,-.5,1,-1.1l.3,.2c-.4,.7,-.9,1.1,-1.3,1.5c-.4,.3,-.8,.5,-1.2,.5c-.3,0,-.5,-.1,-.6,-.2c-.1,-.2,-.2,-.4,-.2,-.6c0,-.3,.1,-.7,.2,-1.2l.2,-.6c-.8,1,-1.5,1.7,-2.2,2.1c-.4,.3,-.9,.5,-1.3,.5c-.5,0,-.9,-.2,-1.2,-.6c-.3,-.3,-.4,-.8,-.4,-1.5c0,-.9,.2,-1.9,.8,-3c.6,-1,1.3,-1.9,2.2,-2.5c.7,-.5,1.3,-.8,1.9,-.8c.4,0,.7,.1,.9,.3c.3,.2,.5,.5,.6,1l.3,-1Z" class="g5_70"/>
<path fill-rule="evenodd" d="M369.2,885.6c.6,.3,1.1,.4,1.5,.4c.6,0,1.1,-.1,1.7,-.5c.5,-.4,1,-1.1,1.4,-2c.5,-.9,.7,-1.8,.7,-2.7c0,-.6,-.2,-1,-.4,-1.3c-.3,-.3,-.6,-.5,-1,-.5c-.6,0,-1.1,.2,-1.6,.7c-.6,.4,-.9,1,-1.2,1.8Zm3.4,-12.1l-1.7,6.2c.5,-.6,1,-1,1.5,-1.2c.4,-.2,.8,-.3,1.3,-.3c.7,0,1.2,.2,1.6,.6c.4,.4,.6,1,.6,1.8c0,.9,-.2,1.9,-.8,2.8c-.5,1,-1.2,1.7,-2.1,2.3c-.8,.5,-1.6,.8,-2.4,.8c-.9,0,-1.8,-.4,-2.8,-1l2.7,-9.4c.2,-.7,.4,-1.2,.4,-1.3c0,-.1,-.1,-.3,-.2,-.3c-.1,-.1,-.3,-.2,-.6,-.2c-.1,0,-.3,0,-.6,.1V874Z" class="g5_70"/>
<path d="M201.2,924.3L357.1,845.2" class="g9_70"/>
<path d="M184,1078.3H835.1V989.8H184v88.5Z" class="g7_70"/>
<path d="M0,138.7H120.6V0H0V138.7Z" class="g0_70"/>
<path d="M135.1,596.4h39.6V559H135.1v37.4Z" class="ga_70"/>
<path d="M135.1,797.3h39.6V759.9H135.1v37.4Z" class="ga_70"/>
<path d="M135.1,1027.5h39.6V990H135.1v37.5Z" class="gb_70"/>
<path d="M73.6,166.9H835.8" class="gc_70"/>
<path d="M184.5,548.2H835.6V454.7H184.5v93.5Z" class="g7_70"/>
<path d="M135.8,492.2h39.7V454.7H135.8v37.5Z" class="ga_70"/>
<path clip-path="url(#c2_70)" d="M156.1,477.3c-2.1,.1,-3.8,-1.6,-3.6,-3.6c.1,-1.8,1.5,-3.1,3.2,-3.2c2,-.2,3.7,1.5,3.6,3.6c-.1,1.7,-1.5,3.1,-3.2,3.2m.2,2.9c-3.8,.3,-7,-2.9,-6.8,-6.7c.2,-3.2,2.8,-5.8,6,-6c3.8,-.2,7,3,6.7,6.8c-.2,3.1,-2.8,5.7,-5.9,5.9m-.4,-15.3c-5.8,0,-11,3.1,-14.9,8.3c-.3,.4,-.3,1,0,1.4c3.9,5.1,9.1,8.3,14.9,8.3c5.7,0,11,-3.2,14.8,-8.3c.4,-.4,.4,-1,0,-1.4c-3.8,-5.2,-9.1,-8.3,-14.8,-8.3Z" class="gd_70"/>
<path d="M233.2,1046.7H248m100.8,0h37.7" class="g1_70"/>
<path d="M600.2,1055.4l82.2,-44.2m22.2,43.2l-22.8,-43.3M600.4,1055h105" class="ge_70"/>
<path d="M673.4,1016.9c.8,3.4,9,6.4,13.4,3.8" class="g1_70"/>
</svg>