<?xml version="1.0" encoding="UTF-8" standalone="no"?>
<!DOCTYPE svg PUBLIC "-//W3C//DTD SVG 1.1//EN"
"http://www.w3.org/Graphics/SVG/1.1/DTD/svg11.dtd">
<svg viewBox="0 0 909 1147" version="1.1" xmlns="http://www.w3.org/2000/svg" xmlns:xlink="http://www.w3.org/1999/xlink">
<defs>
<style type="text/css"><![CDATA[
.g0_148{
fill: #E7A9A1;
}
.g1_148{
fill: #FCD3C1;
}
.g2_148{
fill: none;
stroke: #000;
stroke-width: 0.763;
stroke-miterlimit: 10;
}
]]></style>
</defs>
<path d="M0,1131H72.3v-51.5H0V1131Z" class="g0_148"/>
<path d="M594.8,249h89.3v17.3H594.8V249Zm89.3,0h74.5v17.3H684.1V249Zm74.5,0h77.3v17.3H758.6V249ZM594.8,387.6H835.9v17.3H594.8V387.6Zm0,51.9H835.9v17.4H594.8V439.5Zm0,69.3H835.9v17.3H594.8V508.8Z" class="g1_148"/>
<path d="M594.4,249h89.7m-89.3,16.9V249.4m89.3,-.4h74.5m-74.5,16.9V249.4m74.5,-.4h77.6m-77.6,16.9V249.4m77.3,16.5V249.4M594.4,266.3h89.7m-89.3,16.9V266.7m89.3,-.4h74.5m-74.5,16.9V266.7m74.5,-.4h77.6m-77.6,16.9V266.7m77.3,16.5V266.7M594.4,283.6h89.7m-89.3,17V284m89.3,-.4h74.5m-74.5,17V284m74.5,-.4h77.6m-77.6,17V284m77.3,16.6V284M594.4,301h89.7m-89.3,16.9V301.3m89.3,-.3h74.5m-74.5,16.9V301.3m74.5,-.3h77.6m-77.6,16.9V301.3m77.3,16.6V301.3m-241.5,17h89.7m-89.3,16.9V318.7m89.3,-.4h74.5m-74.5,16.9V318.7m74.5,-.4h77.6m-77.6,16.9V318.7m77.3,16.5V318.7M594.4,335.6h89.7m-89.3,16.9V336m89.3,-.4h74.5m-74.5,16.9V336m74.5,-.4h77.6m-77.6,16.9V336m77.3,16.5V336M594.4,352.9h89.7m-89.3,17V353.3m89.3,-.4h74.5m-74.5,17V353.3m74.5,-.4h77.6m-77.6,17V353.3m77.3,16.6V353.3M594.4,370.2h89.7m-89.3,17V370.6m89.3,-.4h74.5m-74.5,17V370.6m74.5,-.4h77.6m-77.6,17V370.6m77.3,16.6V370.6m-241.5,17h89.7m-89.3,16.9V387.9m89.3,-.3h74.5m0,0h77.6m-.3,16.9V387.9m-241.5,17h89.7m-89.3,16.9V405.3m89.3,-.4h74.5m-74.5,16.9V405.3m74.5,-.4h77.6m-77.6,16.9V405.3m77.3,16.5V405.3M594.4,422.2h89.7m-89.3,17V422.6m89.3,-.4h74.5m-74.5,17V422.6m74.5,-.4h77.6m-77.6,17V422.6m77.3,16.6V422.6M594.4,439.5h89.7m-89.3,17V439.9m89.3,-.4h74.5m0,0h77.6m-.3,17V439.9m-241.5,17h89.7m-89.3,16.9V457.2m89.3,-.3h74.5m-74.5,16.9V457.2m74.5,-.3h77.6m-77.6,16.9V457.2m77.3,16.6V457.2m-241.5,17h89.7m-89.3,16.9V474.6m89.3,-.4h74.5m-74.5,16.9V474.6m74.5,-.4h77.6m-77.6,16.9V474.6m77.3,16.5V474.6M594.4,491.5h89.7m-89.3,16.9V491.9m89.3,-.4h74.5m-74.5,16.9V491.9m74.5,-.4h77.6m-77.6,16.9V491.9m77.3,16.5V491.9M594.4,508.8h89.7m-89.3,17V509.2m89.3,-.4h74.5m0,0h77.6m-.3,17V509.2M594.4,526.1h89.7m-89.3,17V526.5m89.3,-.4h74.5m0,0h77.6m-77.6,17V526.5m77.3,16.6V526.5m-241.5,17h89.7m0,0h74.5m0,0h77.6" class="g2_148"/>
<path d="M594.8,571.2h89.3v17.4H594.8V571.2Zm89.3,0h74.5v17.4H684.1V571.2Zm74.5,0h77.3v17.4H758.6V571.2ZM594.8,709.8H835.9v17.3H594.8V709.8Zm0,52H835.9v17.3H594.8V761.8Zm0,69.3H835.9v17.3H594.8V831.1Z" class="g1_148"/>
<path d="M594.4,571.2h89.7m-89.3,17V571.6m89.3,-.4h74.5m-74.5,17V571.6m74.5,-.4h77.6m-77.6,17V571.6m77.3,16.6V571.6m-241.5,17h89.7m-89.3,16.9V588.9m89.3,-.3h74.5m-74.5,16.9V588.9m74.5,-.3h77.6m-77.6,16.9V588.9m77.3,16.6V588.9m-241.5,17h89.7m-89.3,16.9V606.3m89.3,-.4h74.5m-74.5,16.9V606.3m74.5,-.4h77.6m-77.6,16.9V606.3m77.3,16.5V606.3M594.4,623.2h89.7m-89.3,16.9V623.6m89.3,-.4h74.5m-74.5,16.9V623.6m74.5,-.4h77.6m-77.6,16.9V623.6m77.3,16.5V623.6M594.4,640.5h89.7m-89.3,17V640.9m89.3,-.4h74.5m-74.5,17V640.9m74.5,-.4h77.6m-77.6,17V640.9m77.3,16.6V640.9M594.4,657.8h89.7m-89.3,17V658.2m89.3,-.4h74.5m-74.5,17V658.2m74.5,-.4h77.6m-77.6,17V658.2m77.3,16.6V658.2m-241.5,17h89.7m-89.3,16.9V675.5m89.3,-.3h74.5m-74.5,16.9V675.5m74.5,-.3h77.6m-77.6,16.9V675.5m77.3,16.6V675.5m-241.5,17h89.7m-89.3,16.9V692.9m89.3,-.4h74.5m-74.5,16.9V692.9m74.5,-.4h77.6m-77.6,16.9V692.9m77.3,16.5V692.9M594.4,709.8h89.7m-89.3,17V710.2m89.3,-.4h74.5m0,0h77.6m-.3,17V710.2M594.4,727.1h89.7m-89.3,17V727.5m89.3,-.4h74.5m-74.5,17V727.5m74.5,-.4h77.6m-77.6,17V727.5m77.3,16.6V727.5m-241.5,17h89.7m-89.3,16.9V744.8m89.3,-.3h74.5m-74.5,16.9V744.8m74.5,-.3h77.6m-77.6,16.9V744.8m77.3,16.6V744.8m-241.5,17h89.7m-89.3,16.9V762.2m89.3,-.4h74.5m0,0h77.6m-.3,16.9V762.2M594.4,779.1h89.7M594.8,796V779.5m89.3,-.4h74.5M684.1,796V779.5m74.5,-.4h77.6M758.6,796V779.5M835.9,796V779.5M594.4,796.4h89.7m-89.3,17V796.8m89.3,-.4h74.5m-74.5,17V796.8m74.5,-.4h77.6m-77.6,17V796.8m77.3,16.6V796.8m-241.5,17h89.7m-89.3,16.9V814.1m89.3,-.3h74.5m-74.5,16.9V814.1m74.5,-.3h77.6m-77.6,16.9V814.1m77.3,16.6V814.1m-241.5,17h89.7M594.8,848V831.5m89.3,-.4h74.5m0,0h77.6m-.3,16.9V831.5M594.4,848.4h89.7m-89.3,16.9V848.8m89.3,-.4h74.5m0,0h77.6m-77.6,16.9V848.8m77.3,16.5V848.8M594.4,865.7h89.7m0,0h74.5m0,0h77.6" class="g2_148"/>
</svg>