<?xml version="1.0" encoding="UTF-8" standalone="no"?>
<!DOCTYPE svg PUBLIC "-//W3C//DTD SVG 1.1//EN"
"http://www.w3.org/Graphics/SVG/1.1/DTD/svg11.dtd">
<svg viewBox="0 0 909 1147" version="1.1" xmlns="http://www.w3.org/2000/svg" xmlns:xlink="http://www.w3.org/1999/xlink">
<defs>
<style type="text/css"><![CDATA[
.g0_94{
fill: #B6D774;
}
.g1_94{
fill: none;
stroke: #000;
stroke-width: 0.763;
}
.g2_94{
fill: none;
stroke: #0EA5DF;
stroke-width: 3.055;
}
.g3_94{
fill: #FFFAC2;
}
.g4_94{
fill: none;
stroke: #0EA5DF;
stroke-width: 0.381;
stroke-miterlimit: 10;
}
.g5_94{
fill: #FFF1E0;
}
.g6_94{
fill: #C7EAFB;
}
.g7_94{
fill: #E7EFC1;
}
]]></style>
</defs>
<path d="M0,1131H73.8v-51.5H0V1131Z" class="g0_94"/>
<path d="M0,138.7H120.6V0H0V138.7Z" class="g0_94"/>
<path d="M270.2,637.1h45.4" class="g1_94"/>
<path d="M73.8,166.1H836" class="g2_94"/>
<path d="M604.7,615.1h39.7" class="g1_94"/>
<path d="M250.9,358.1h90.5V279.7h26l-39,-51.5H263.9l-39.4,51.5h26.4v78.6Z" class="g3_94"/>
<path d="M211.8,215.7H225m-13,12.8V215.8m13,-.1h13m-13,12.8V215.8m13,-.1h13m-13,12.8V215.8m13,-.1h13m-13,12.8V215.8m13,-.1h13m-13,12.8V215.8m13,-.1h12.9M277,228.5V215.8m12.9,-.1h13m-13,12.8V215.8m13,-.1h13m-13,12.8V215.8m13,-.1h13m-13,12.8V215.8m13,-.1h13m-13,12.8V215.8m13,-.1h13m-13,12.8V215.8m13,-.1h13m-13,12.8V215.8m13,-.1h13.2m-13.2,12.8V215.8m13,12.7V215.8M211.8,228.6H225m-13,12.8V228.8m13,-.2h13m-13,12.8V228.8m13,-.2h13m-13,12.8V228.8m13,-.2h13m-13,12.8V228.8m13,-.2h13m-13,12.8V228.8m13,-.2h12.9M277,241.4V228.8m12.9,-.2h13m-13,12.8V228.8m13,-.2h13m-13,12.8V228.8m13,-.2h13m-13,12.8V228.8m13,-.2h13m-13,12.8V228.8m13,-.2h13m-13,12.8V228.8m13,-.2h13m-13,12.8V228.8m13,-.2h13.2m-13.2,12.8V228.8m13,12.6V228.8M211.8,241.6H225m-13,12.8V241.8m13,-.2h13m-13,12.8V241.8m13,-.2h13m-13,12.8V241.8m13,-.2h13m-13,12.8V241.8m13,-.2h13m-13,12.8V241.8m13,-.2h12.9M277,254.4V241.8m12.9,-.2h13m-13,12.8V241.8m13,-.2h13m-13,12.8V241.8m13,-.2h13m-13,12.8V241.8m13,-.2h13m-13,12.8V241.8m13,-.2h13m-13,12.8V241.8m13,-.2h13m-13,12.8V241.8m13,-.2h13.2m-13.2,12.8V241.8m13,12.6V241.8M211.8,254.6H225m-13,12.8V254.8m13,-.2h13m-13,12.8V254.8m13,-.2h13m-13,12.8V254.8m13,-.2h13m-13,12.8V254.8m13,-.2h13m-13,12.8V254.8m13,-.2h12.9M277,267.4V254.8m12.9,-.2h13m-13,12.8V254.8m13,-.2h13m-13,12.8V254.8m13,-.2h13m-13,12.8V254.8m13,-.2h13m-13,12.8V254.8m13,-.2h13m-13,12.8V254.8m13,-.2h13m-13,12.8V254.8m13,-.2h13.2m-13.2,12.8V254.8m13,12.6V254.8M211.8,267.6H225m-13,12.8V267.8m13,-.2h13m-13,12.8V267.8m13,-.2h13m-13,12.8V267.8m13,-.2h13m-13,12.8V267.8m13,-.2h13m-13,12.8V267.8m13,-.2h12.9M277,280.4V267.8m12.9,-.2h13m-13,12.8V267.8m13,-.2h13m-13,12.8V267.8m13,-.2h13m-13,12.8V267.8m13,-.2h13m-13,12.8V267.8m13,-.2h13m-13,12.8V267.8m13,-.2h13m-13,12.8V267.8m13,-.2h13.2m-13.2,12.8V267.8m13,12.6V267.8M211.8,280.6H225m-13,12.8V280.8m13,-.2h13m-13,12.8V280.8m13,-.2h13m-13,12.8V280.8m13,-.2h13m-13,12.8V280.8m13,-.2h13m-13,12.8V280.8m13,-.2h12.9M277,293.4V280.8m12.9,-.2h13m-13,12.8V280.8m13,-.2h13m-13,12.8V280.8m13,-.2h13m-13,12.8V280.8m13,-.2h13m-13,12.8V280.8m13,-.2h13m-13,12.8V280.8m13,-.2h13m-13,12.8V280.8m13,-.2h13.2m-13.2,12.8V280.8m13,12.6V280.8M211.8,293.6H225m-13,12.8V293.8m13,-.2h13m-13,12.8V293.8m13,-.2h13m-13,12.8V293.8m13,-.2h13m-13,12.8V293.8m13,-.2h13m-13,12.8V293.8m13,-.2h12.9M277,306.4V293.8m12.9,-.2h13m-13,12.8V293.8m13,-.2h13m-13,12.8V293.8m13,-.2h13m-13,12.8V293.8m13,-.2h13m-13,12.8V293.8m13,-.2h13m-13,12.8V293.8m13,-.2h13m-13,12.8V293.8m13,-.2h13.2m-13.2,12.8V293.8m13,12.6V293.8M211.8,306.6H225m-13,12.8V306.8m13,-.2h13m-13,12.8V306.8m13,-.2h13m-13,12.8V306.8m13,-.2h13m-13,12.8V306.8m13,-.2h13m-13,12.8V306.8m13,-.2h12.9M277,319.4V306.8m12.9,-.2h13m-13,12.8V306.8m13,-.2h13m-13,12.8V306.8m13,-.2h13m-13,12.8V306.8m13,-.2h13m-13,12.8V306.8m13,-.2h13m-13,12.8V306.8m13,-.2h13m-13,12.8V306.8m13,-.2h13.2m-13.2,12.8V306.8m13,12.6V306.8M211.8,319.6H225m-13,12.8V319.8m13,-.2h13m-13,12.8V319.8m13,-.2h13m-13,12.8V319.8m13,-.2h13m-13,12.8V319.8m13,-.2h13m-13,12.8V319.8m13,-.2h12.9M277,332.4V319.8m12.9,-.2h13m-13,12.8V319.8m13,-.2h13m-13,12.8V319.8m13,-.2h13m-13,12.8V319.8m13,-.2h13m-13,12.8V319.8m13,-.2h13m-13,12.8V319.8m13,-.2h13m-13,12.8V319.8m13,-.2h13.2m-13.2,12.8V319.8m13,12.6V319.8M211.8,332.6H225m-13,12.8V332.8m13,-.2h13m-13,12.8V332.8m13,-.2h13m-13,12.8V332.8m13,-.2h13m-13,12.8V332.8m13,-.2h13m-13,12.8V332.8m13,-.2h12.9M277,345.4V332.8m12.9,-.2h13m-13,12.8V332.8m13,-.2h13m-13,12.8V332.8m13,-.2h13m-13,12.8V332.8m13,-.2h13m-13,12.8V332.8m13,-.2h13m-13,12.8V332.8m13,-.2h13m-13,12.8V332.8m13,-.2h13.2m-13.2,12.8V332.8m13,12.6V332.8M211.8,345.6H225m-13,12.8V345.8m13,-.2h13m-13,12.8V345.8m13,-.2h13m-13,12.8V345.8m13,-.2h13m-13,12.8V345.8m13,-.2h13m-13,12.8V345.8m13,-.2h12.9M277,358.4V345.8m12.9,-.2h13m-13,12.8V345.8m13,-.2h13m-13,12.8V345.8m13,-.2h13m-13,12.8V345.8m13,-.2h13m-13,12.8V345.8m13,-.2h13m-13,12.8V345.8m13,-.2h13m-13,12.8V345.8m13,-.2h13.2m-13.2,12.8V345.8m13,12.6V345.8M211.8,358.6H225m-13,12.8V358.8m13,-.2h13m-13,12.8V358.8m13,-.2h13m-13,12.8V358.8m13,-.2h13m-13,12.8V358.8m13,-.2h13m-13,12.8V358.8m13,-.2h12.9M277,371.4V358.8m12.9,-.2h13m-13,12.8V358.8m13,-.2h13m-13,12.8V358.8m13,-.2h13m-13,12.8V358.8m13,-.2h13m-13,12.8V358.8m13,-.2h13m-13,12.8V358.8m13,-.2h13m-13,12.8V358.8m13,-.2h13.2m-13.2,12.8V358.8m13,12.6V358.8M211.8,371.6H225m0,0h13m0,0h13m0,0h13m0,0h13m0,0h12.9m0,0h13m0,0h13m0,0h13m0,0h13m0,0h13m0,0h13m0,0h13.2" class="g4_94"/>
<path d="M250.9,358.1h90.5V279.7h26l-39,-51.5H263.9l-39.4,51.5h26.4v78.6m0,-78.6h91.2" class="g1_94"/>
<path d="M589.9,358.6h90.6V267.5l25.1,.4L654.7,229.3l-91.2,38.6l26.4,-.2v91.2Z" class="g5_94"/>
<path d="M550.3,215.7h13.2m-13,12.8V215.8m13,-.1h13m-13,12.8V215.8m13,-.1h13m-13,12.8V215.8m13,-.1h13m-13,12.8V215.8m13,-.1h13m-13,12.8V215.8m13,-.1h13m-13,12.8V215.8m13,-.1h12.9m-12.9,12.8V215.8m12.9,-.1h13m-13,12.8V215.8m13,-.1h13m-13,12.8V215.8m13,-.1h13m-13,12.8V215.8m13,-.1h13m-13,12.8V215.8m13,-.1h13m-13,12.8V215.8m13,-.1h13.2m-13.2,12.8V215.8m13,12.7V215.8M550.3,228.6h13.2m-13,12.8V228.8m13,-.2h13m-13,12.8V228.8m13,-.2h13m-13,12.8V228.8m13,-.2h13m-13,12.8V228.8m13,-.2h13m-13,12.8V228.8m13,-.2h13m-13,12.8V228.8m13,-.2h12.9m-12.9,12.8V228.8m12.9,-.2h13m-13,12.8V228.8m13,-.2h13m-13,12.8V228.8m13,-.2h13m-13,12.8V228.8m13,-.2h13m-13,12.8V228.8m13,-.2h13m-13,12.8V228.8m13,-.2h13.2m-13.2,12.8V228.8m13,12.6V228.8M550.3,241.6h13.2m-13,12.8V241.8m13,-.2h13m-13,12.8V241.8m13,-.2h13m-13,12.8V241.8m13,-.2h13m-13,12.8V241.8m13,-.2h13m-13,12.8V241.8m13,-.2h13m-13,12.8V241.8m13,-.2h12.9m-12.9,12.8V241.8m12.9,-.2h13m-13,12.8V241.8m13,-.2h13m-13,12.8V241.8m13,-.2h13m-13,12.8V241.8m13,-.2h13m-13,12.8V241.8m13,-.2h13m-13,12.8V241.8m13,-.2h13.2m-13.2,12.8V241.8m13,12.6V241.8M550.3,254.6h13.2m-13,12.8V254.8m13,-.2h13m-13,12.8V254.8m13,-.2h13m-13,12.8V254.8m13,-.2h13m-13,12.8V254.8m13,-.2h13m-13,12.8V254.8m13,-.2h13m-13,12.8V254.8m13,-.2h12.9m-12.9,12.8V254.8m12.9,-.2h13m-13,12.8V254.8m13,-.2h13m-13,12.8V254.8m13,-.2h13m-13,12.8V254.8m13,-.2h13m-13,12.8V254.8m13,-.2h13m-13,12.8V254.8m13,-.2h13.2m-13.2,12.8V254.8m13,12.6V254.8M550.3,267.6h13.2m-13,12.8V267.8m13,-.2h13m-13,12.8V267.8m13,-.2h13m-13,12.8V267.8m13,-.2h13m-13,12.8V267.8m13,-.2h13m-13,12.8V267.8m13,-.2h13m-13,12.8V267.8m13,-.2h12.9m-12.9,12.8V267.8m12.9,-.2h13m-13,12.8V267.8m13,-.2h13m-13,12.8V267.8m13,-.2h13m-13,12.8V267.8m13,-.2h13m-13,12.8V267.8m13,-.2h13m-13,12.8V267.8m13,-.2h13.2m-13.2,12.8V267.8m13,12.6V267.8M550.3,280.6h13.2m-13,12.8V280.8m13,-.2h13m-13,12.8V280.8m13,-.2h13m-13,12.8V280.8m13,-.2h13m-13,12.8V280.8m13,-.2h13m-13,12.8V280.8m13,-.2h13m-13,12.8V280.8m13,-.2h12.9m-12.9,12.8V280.8m12.9,-.2h13m-13,12.8V280.8m13,-.2h13m-13,12.8V280.8m13,-.2h13m-13,12.8V280.8m13,-.2h13m-13,12.8V280.8m13,-.2h13m-13,12.8V280.8m13,-.2h13.2m-13.2,12.8V280.8m13,12.6V280.8M550.3,293.6h13.2m-13,12.8V293.8m13,-.2h13m-13,12.8V293.8m13,-.2h13m-13,12.8V293.8m13,-.2h13m-13,12.8V293.8m13,-.2h13m-13,12.8V293.8m13,-.2h13m-13,12.8V293.8m13,-.2h12.9m-12.9,12.8V293.8m12.9,-.2h13m-13,12.8V293.8m13,-.2h13m-13,12.8V293.8m13,-.2h13m-13,12.8V293.8m13,-.2h13m-13,12.8V293.8m13,-.2h13m-13,12.8V293.8m13,-.2h13.2m-13.2,12.8V293.8m13,12.6V293.8M550.3,306.6h13.2m-13,12.8V306.8m13,-.2h13m-13,12.8V306.8m13,-.2h13m-13,12.8V306.8m13,-.2h13m-13,12.8V306.8m13,-.2h13m-13,12.8V306.8m13,-.2h13m-13,12.8V306.8m13,-.2h12.9m-12.9,12.8V306.8m12.9,-.2h13m-13,12.8V306.8m13,-.2h13m-13,12.8V306.8m13,-.2h13m-13,12.8V306.8m13,-.2h13m-13,12.8V306.8m13,-.2h13m-13,12.8V306.8m13,-.2h13.2m-13.2,12.8V306.8m13,12.6V306.8M550.3,319.6h13.2m-13,12.8V319.8m13,-.2h13m-13,12.8V319.8m13,-.2h13m-13,12.8V319.8m13,-.2h13m-13,12.8V319.8m13,-.2h13m-13,12.8V319.8m13,-.2h13m-13,12.8V319.8m13,-.2h12.9m-12.9,12.8V319.8m12.9,-.2h13m-13,12.8V319.8m13,-.2h13m-13,12.8V319.8m13,-.2h13m-13,12.8V319.8m13,-.2h13m-13,12.8V319.8m13,-.2h13m-13,12.8V319.8m13,-.2h13.2m-13.2,12.8V319.8m13,12.6V319.8M550.3,332.6h13.2m-13,12.8V332.8m13,-.2h13m-13,12.8V332.8m13,-.2h13m-13,12.8V332.8m13,-.2h13m-13,12.8V332.8m13,-.2h13m-13,12.8V332.8m13,-.2h13m-13,12.8V332.8m13,-.2h12.9m-12.9,12.8V332.8m12.9,-.2h13m-13,12.8V332.8m13,-.2h13m-13,12.8V332.8m13,-.2h13m-13,12.8V332.8m13,-.2h13m-13,12.8V332.8m13,-.2h13m-13,12.8V332.8m13,-.2h13.2m-13.2,12.8V332.8m13,12.6V332.8M550.3,345.6h13.2m-13,12.8V345.8m13,-.2h13m-13,12.8V345.8m13,-.2h13m-13,12.8V345.8m13,-.2h13m-13,12.8V345.8m13,-.2h13m-13,12.8V345.8m13,-.2h13m-13,12.8V345.8m13,-.2h12.9m-12.9,12.8V345.8m12.9,-.2h13m-13,12.8V345.8m13,-.2h13m-13,12.8V345.8m13,-.2h13m-13,12.8V345.8m13,-.2h13m-13,12.8V345.8m13,-.2h13m-13,12.8V345.8m13,-.2h13.2m-13.2,12.8V345.8m13,12.6V345.8M550.3,358.6h13.2m-13,12.8V358.8m13,-.2h13m-13,12.8V358.8m13,-.2h13m-13,12.8V358.8m13,-.2h13m-13,12.8V358.8m13,-.2h13m-13,12.8V358.8m13,-.2h13m-13,12.8V358.8m13,-.2h12.9m-12.9,12.8V358.8m12.9,-.2h13m-13,12.8V358.8m13,-.2h13m-13,12.8V358.8m13,-.2h13m-13,12.8V358.8m13,-.2h13m-13,12.8V358.8m13,-.2h13m-13,12.8V358.8m13,-.2h13.2m-13.2,12.8V358.8m13,12.6V358.8M550.3,371.6h13.2m0,0h13m0,0h13m0,0h13m0,0h13m0,0h13m0,0h12.9m0,0h13m0,0h13m0,0h13m0,0h13m0,0h13m0,0h13.2" class="g4_94"/>
<path d="M589.4,359h90.5V268.1l26,-.1L654,228.9l-91,39.2h26.4v91.1m.5,-91.1h91.2M270.2,980.4h45.4m-45.4,37.8h35.1" class="g1_94"/>
<path d="M73.8,689.9H836" class="g2_94"/>
<path d="M638.4,1028.8h39.7" class="g1_94"/>
<path d="M263.2,844.7l77.5,-.4l39.4,-39h-26L327.7,753.4l-77.5,51.9l-26,.5L243.3,824l21,20.7Z" class="g6_94"/>
<path d="M211.6,740.6h13.2m-13,12.8V740.8m13,-.2h13m-13,12.8V740.8m13,-.2h13m-13,12.8V740.8m13,-.2h13m-13,12.8V740.8m13,-.2h13m-13,12.8V740.8m13,-.2h13m-13,12.8V740.8m13,-.2h13m-13,12.8V740.8m13,-.2h13m-13,12.8V740.8m13,-.2h13m-13,12.8V740.8m13,-.2h13m-13,12.8V740.8m13,-.2h13m-13,12.8V740.8m13,-.2h12.9m-12.9,12.8V740.8m12.9,-.2h13m-13,12.8V740.8m13,-.2h13.2m-13.2,12.8V740.8m13,12.6V740.8M211.6,753.6h13.2m-13,12.8V753.8m13,-.2h13m-13,12.8V753.8m13,-.2h13m-13,12.8V753.8m13,-.2h13m-13,12.8V753.8m13,-.2h13m-13,12.8V753.8m13,-.2h13m-13,12.8V753.8m13,-.2h13m-13,12.8V753.8m13,-.2h13m-13,12.8V753.8m13,-.2h13m-13,12.8V753.8m13,-.2h13m-13,12.8V753.8m13,-.2h13m-13,12.8V753.8m13,-.2h12.9m-12.9,12.8V753.8m12.9,-.2h13m-13,12.8V753.8m13,-.2h13.2m-13.2,12.8V753.8m13,12.6V753.8M211.6,766.6h13.2m-13,12.8V766.7m13,-.1h13m-13,12.8V766.7m13,-.1h13m-13,12.8V766.7m13,-.1h13m-13,12.8V766.7m13,-.1h13m-13,12.8V766.7m13,-.1h13m-13,12.8V766.7m13,-.1h13m-13,12.8V766.7m13,-.1h13m-13,12.8V766.7m13,-.1h13m-13,12.8V766.7m13,-.1h13m-13,12.8V766.7m13,-.1h13m-13,12.8V766.7m13,-.1h12.9m-12.9,12.8V766.7m12.9,-.1h13m-13,12.8V766.7m13,-.1h13.2m-13.2,12.8V766.7m13,12.7V766.7M211.6,779.6h13.2m-13,12.8V779.7m13,-.1h13m-13,12.8V779.7m13,-.1h13m-13,12.8V779.7m13,-.1h13m-13,12.8V779.7m13,-.1h13m-13,12.8V779.7m13,-.1h13m-13,12.8V779.7m13,-.1h13m-13,12.8V779.7m13,-.1h13m-13,12.8V779.7m13,-.1h13m-13,12.8V779.7m13,-.1h13m-13,12.8V779.7m13,-.1h13m-13,12.8V779.7m13,-.1h12.9m-12.9,12.8V779.7m12.9,-.1h13m-13,12.8V779.7m13,-.1h13.2m-13.2,12.8V779.7m13,12.7V779.7M211.6,792.5h13.2m-13,12.8V792.7m13,-.2h13m-13,12.8V792.7m13,-.2h13m-13,12.8V792.7m13,-.2h13m-13,12.8V792.7m13,-.2h13m-13,12.8V792.7m13,-.2h13m-13,12.8V792.7m13,-.2h13m-13,12.8V792.7m13,-.2h13m-13,12.8V792.7m13,-.2h13m-13,12.8V792.7m13,-.2h13m-13,12.8V792.7m13,-.2h13m-13,12.8V792.7m13,-.2h12.9m-12.9,12.8V792.7m12.9,-.2h13m-13,12.8V792.7m13,-.2h13.2m-13.2,12.8V792.7m13,12.6V792.7M211.6,805.5h13.2m-13,12.8V805.7m13,-.2h13m-13,12.8V805.7m13,-.2h13m-13,12.8V805.7m13,-.2h13m-13,12.8V805.7m13,-.2h13m-13,12.8V805.7m13,-.2h13m-13,12.8V805.7m13,-.2h13m-13,12.8V805.7m13,-.2h13m-13,12.8V805.7m13,-.2h13m-13,12.8V805.7m13,-.2h13m-13,12.8V805.7m13,-.2h13m-13,12.8V805.7m13,-.2h12.9m-12.9,12.8V805.7m12.9,-.2h13m-13,12.8V805.7m13,-.2h13.2m-13.2,12.8V805.7m13,12.6V805.7M211.6,818.5h13.2m-13,12.8V818.7m13,-.2h13m-13,12.8V818.7m13,-.2h13m-13,12.8V818.7m13,-.2h13m-13,12.8V818.7m13,-.2h13m-13,12.8V818.7m13,-.2h13m-13,12.8V818.7m13,-.2h13m-13,12.8V818.7m13,-.2h13m-13,12.8V818.7m13,-.2h13m-13,12.8V818.7m13,-.2h13m-13,12.8V818.7m13,-.2h13m-13,12.8V818.7m13,-.2h12.9m-12.9,12.8V818.7m12.9,-.2h13m-13,12.8V818.7m13,-.2h13.2m-13.2,12.8V818.7m13,12.6V818.7M211.6,831.5h13.2m-13,12.8V831.7m13,-.2h13m-13,12.8V831.7m13,-.2h13m-13,12.8V831.7m13,-.2h13m-13,12.8V831.7m13,-.2h13m-13,12.8V831.7m13,-.2h13m-13,12.8V831.7m13,-.2h13m-13,12.8V831.7m13,-.2h13m-13,12.8V831.7m13,-.2h13m-13,12.8V831.7m13,-.2h13m-13,12.8V831.7m13,-.2h13m-13,12.8V831.7m13,-.2h12.9m-12.9,12.8V831.7m12.9,-.2h13m-13,12.8V831.7m13,-.2h13.2m-13.2,12.8V831.7m13,12.6V831.7M211.6,844.5h13.2m-13,12.8V844.7m13,-.2h13m-13,12.8V844.7m13,-.2h13m-13,12.8V844.7m13,-.2h13m-13,12.8V844.7m13,-.2h13m-13,12.8V844.7m13,-.2h13m-13,12.8V844.7m13,-.2h13m-13,12.8V844.7m13,-.2h13m-13,12.8V844.7m13,-.2h13m-13,12.8V844.7m13,-.2h13m-13,12.8V844.7m13,-.2h13m-13,12.8V844.7m13,-.2h12.9m-12.9,12.8V844.7m12.9,-.2h13m-13,12.8V844.7m13,-.2h13.2m-13.2,12.8V844.7m13,12.6V844.7M211.6,857.5h13.2m0,0h13m0,0h13m0,0h13m0,0h13m0,0h13m0,0h13m0,0h13m0,0h13m0,0h13m0,0h13m0,0h12.9m0,0h13m0,0h13.2" class="g4_94"/>
<path d="M263.6,844.4h77.2l39.9,-38.9H354.5L327.8,753.1l-77.4,52.2l-26.2,.2l39.6,39.4m-13,-39.4H354.3" class="g1_94"/>
<path d="M584.2,815.7l116.5,-.2l25.6,26l.6,-90.5l-25.5,25.7L584,777.2l-26.2,-26v90.3l25.8,-26Z" class="g7_94"/>
<path d="M544.6,737.5h13.2m-13,12.8V737.7m13,-.2h13m-13,12.8V737.7m13,-.2h12.9m-12.9,12.8V737.7m12.9,-.2h13m-13,12.8V737.7m13,-.2h13m-13,12.8V737.7m13,-.2h13m-13,12.8V737.7m13,-.2h13m-13,12.8V737.7m13,-.2h13m-13,12.8V737.7m13,-.2h13m-13,12.8V737.7m13,-.2h13m-13,12.8V737.7m13,-.2h13m-13,12.8V737.7m13,-.2h13m-13,12.8V737.7m13,-.2h13m-13,12.8V737.7m13,-.2h13m-13,12.8V737.7m13,-.2h13.1m-13.1,12.8V737.7m12.9,12.6V737.7m-195,12.8h13.2m-13,12.8V750.7m13,-.2h13m-13,12.8V750.7m13,-.2h12.9m-12.9,12.8V750.7m12.9,-.2h13m-13,12.8V750.7m13,-.2h13m-13,12.8V750.7m13,-.2h13m-13,12.8V750.7m13,-.2h13m-13,12.8V750.7m13,-.2h13m-13,12.8V750.7m13,-.2h13m-13,12.8V750.7m13,-.2h13m-13,12.8V750.7m13,-.2h13m-13,12.8V750.7m13,-.2h13m-13,12.8V750.7m13,-.2h13m-13,12.8V750.7m13,-.2h13m-13,12.8V750.7m13,-.2h13.1m-13.1,12.8V750.7m12.9,12.6V750.7m-195,12.8h13.2m-13,12.8V763.7m13,-.2h13m-13,12.8V763.7m13,-.2h12.9m-12.9,12.8V763.7m12.9,-.2h13m-13,12.8V763.7m13,-.2h13m-13,12.8V763.7m13,-.2h13m-13,12.8V763.7m13,-.2h13m-13,12.8V763.7m13,-.2h13m-13,12.8V763.7m13,-.2h13m-13,12.8V763.7m13,-.2h13m-13,12.8V763.7m13,-.2h13m-13,12.8V763.7m13,-.2h13m-13,12.8V763.7m13,-.2h13m-13,12.8V763.7m13,-.2h13m-13,12.8V763.7m13,-.2h13.1m-13.1,12.8V763.7m12.9,12.6V763.7m-195,12.8h13.2m-13,12.8V776.7m13,-.2h13m-13,12.8V776.7m13,-.2h12.9m-12.9,12.8V776.7m12.9,-.2h13m-13,12.8V776.7m13,-.2h13m-13,12.8V776.7m13,-.2h13m-13,12.8V776.7m13,-.2h13m-13,12.8V776.7m13,-.2h13m-13,12.8V776.7m13,-.2h13m-13,12.8V776.7m13,-.2h13m-13,12.8V776.7m13,-.2h13m-13,12.8V776.7m13,-.2h13m-13,12.8V776.7m13,-.2h13m-13,12.8V776.7m13,-.2h13m-13,12.8V776.7m13,-.2h13.1m-13.1,12.8V776.7m12.9,12.6V776.7m-195,12.8h13.2m-13,12.8V789.7m13,-.2h13m-13,12.8V789.7m13,-.2h12.9m-12.9,12.8V789.7m12.9,-.2h13m-13,12.8V789.7m13,-.2h13m-13,12.8V789.7m13,-.2h13m-13,12.8V789.7m13,-.2h13m-13,12.8V789.7m13,-.2h13m-13,12.8V789.7m13,-.2h13m-13,12.8V789.7m13,-.2h13m-13,12.8V789.7m13,-.2h13m-13,12.8V789.7m13,-.2h13m-13,12.8V789.7m13,-.2h13m-13,12.8V789.7m13,-.2h13m-13,12.8V789.7m13,-.2h13.1m-13.1,12.8V789.7m12.9,12.6V789.7m-195,12.8h13.2m-13,12.8V802.7m13,-.2h13m-13,12.8V802.7m13,-.2h12.9m-12.9,12.8V802.7m12.9,-.2h13m-13,12.8V802.7m13,-.2h13m-13,12.8V802.7m13,-.2h13m-13,12.8V802.7m13,-.2h13m-13,12.8V802.7m13,-.2h13m-13,12.8V802.7m13,-.2h13m-13,12.8V802.7m13,-.2h13m-13,12.8V802.7m13,-.2h13m-13,12.8V802.7m13,-.2h13m-13,12.8V802.7m13,-.2h13m-13,12.8V802.7m13,-.2h13m-13,12.8V802.7m13,-.2h13.1m-13.1,12.8V802.7m12.9,12.6V802.7m-195,12.8h13.2m-13,12.8V815.7m13,-.2h13m-13,12.8V815.7m13,-.2h12.9m-12.9,12.8V815.7m12.9,-.2h13m-13,12.8V815.7m13,-.2h13m-13,12.8V815.7m13,-.2h13m-13,12.8V815.7m13,-.2h13m-13,12.8V815.7m13,-.2h13m-13,12.8V815.7m13,-.2h13m-13,12.8V815.7m13,-.2h13m-13,12.8V815.7m13,-.2h13m-13,12.8V815.7m13,-.2h13m-13,12.8V815.7m13,-.2h13m-13,12.8V815.7m13,-.2h13m-13,12.8V815.7m13,-.2h13.1m-13.1,12.8V815.7m12.9,12.6V815.7m-195,12.8h13.2m-13,12.8V828.7m13,-.2h13m-13,12.8V828.7m13,-.2h12.9m-12.9,12.8V828.7m12.9,-.2h13m-13,12.8V828.7m13,-.2h13m-13,12.8V828.7m13,-.2h13m-13,12.8V828.7m13,-.2h13m-13,12.8V828.7m13,-.2h13m-13,12.8V828.7m13,-.2h13m-13,12.8V828.7m13,-.2h13m-13,12.8V828.7m13,-.2h13m-13,12.8V828.7m13,-.2h13m-13,12.8V828.7m13,-.2h13m-13,12.8V828.7m13,-.2h13m-13,12.8V828.7m13,-.2h13.1m-13.1,12.8V828.7m12.9,12.6V828.7m-195,12.8h13.2m-13,12.8V841.7m13,-.2h13m-13,12.8V841.7m13,-.2h12.9m-12.9,12.8V841.7m12.9,-.2h13m-13,12.8V841.7m13,-.2h13m-13,12.8V841.7m13,-.2h13m-13,12.8V841.7m13,-.2h13m-13,12.8V841.7m13,-.2h13m-13,12.8V841.7m13,-.2h13m-13,12.8V841.7m13,-.2h13m-13,12.8V841.7m13,-.2h13m-13,12.8V841.7m13,-.2h13m-13,12.8V841.7m13,-.2h13m-13,12.8V841.7m13,-.2h13m-13,12.8V841.7m13,-.2h13.1m-13.1,12.8V841.7m12.9,12.6V841.7m-195,12.8h13.2m0,0h13m0,0h12.9m0,0h13m0,0h13m0,0h13m0,0h13m0,0h13m0,0h13m0,0h13m0,0h13m0,0h13m0,0h13m0,0h13m0,0h13.1" class="g4_94"/>
<path d="M557.8,841.5l26.1,-26H700.5l26,26l.2,-90.7l-26.2,26H583.6l-25.8,-26l-.2,91.1m26.3,-26.4V776.8m116.8,38.7V776.8" class="g1_94"/>
</svg>