<?xml version="1.0" encoding="UTF-8" standalone="no"?>
<!DOCTYPE svg PUBLIC "-//W3C//DTD SVG 1.1//EN"
"http://www.w3.org/Graphics/SVG/1.1/DTD/svg11.dtd">
<svg viewBox="0 0 909 1147" version="1.1" xmlns="http://www.w3.org/2000/svg" xmlns:xlink="http://www.w3.org/1999/xlink">
<defs>
<style type="text/css"><![CDATA[
.g0_27{
fill: #FAAF82;
}
.g1_27{
fill: none;
stroke: #000;
stroke-width: 0.763;
}
.g2_27{
fill: #FFF;
}
.g3_27{
fill: none;
stroke: #0EA5DF;
stroke-width: 3.055;
}
.g4_27{
fill: #E8F1FA;
}
]]></style>
</defs>
<path d="M835.8,1129.8h73.6v-51.5H835.8v51.5Z" class="g0_27"/>
<path d="M227.7,358.9h11.9m190.4,0h12m240.5,0h11.9" class="g1_27"/>
<path fill-rule="evenodd" d="M154.4,427.8h13.4v-26H154.4v26Z" class="g2_27"/>
<path fill-rule="evenodd" d="M172.7,816.7h13.4v-26H172.7v26Z" class="g2_27"/>
<path d="M73.6,314.8H835.8" class="g3_27"/>
<path d="M183.7,1079.8H834.8V676.7H183.7v403.1Z" class="g4_27"/>
<path d="M72.5,677.5H835.8" class="g3_27"/>
<path d="M248.1,729.2h12m129.2,0h12m-116,34.3h11.9m127,0h11.9m-188,34.4h12m129.2,0h12M285.8,832.2h12m126.9,0h11.9M284.8,866.5h11.9m101.8,0h11.9M294.5,900h11.9m127,0h11.9m-188,34.3h11.9m129.3,0h11.9M295,968.7h11.9m117.8,0h11.9m-161.1,55.6h11.9m196.2,0h11.9m-149.8,30h11.9m66.1,0h12m198,-327.4h11.9m144.3,0h12M601.7,760.4h12m109.9,0h11.9m-59.7,34.3h12m-10.3,37.8h12m-12.6,37.9h11.9M689,909h11.9M600.7,947.7h11.9m63.1,0h12m-52.3,33.5h11.9m25,33.4h11.9m-13.1,37.8h12M235,100.8h11.9m73.8,37.8h11.9m-63.2,37.8h11.9m21,0h11.9m-44.8,37.8h17.3m20.5,0h17.4m-55.2,37.9h17.3M533,100.8h11.9m39.4,37.8h11.9m-62.5,37.8h11.9m38.6,0h11.9m-62.4,37.8h11.9m38.6,0h11.9m-71.6,37.9h11.9m-11.9,37.8h11.9M750.2,100.8h11.9m-11.9,37.8h11.9m-11.9,37.8h11.9m30.1,0h11.9m-53.9,37.8h17.3m29.7,0h17.3m-55.2,37.9h17.3M235,416.5h11.9m59.7,37.8h11.9m-49.1,37.8h11.9m16,0h11.9m-39.8,37.8h11.9m15.5,0h11.9m-39.3,37.8h17.3M435.4,416.5h11.9m44.9,37.8h11.9m-11.9,37.8h11.9m25.2,0h11.9m-49,37.8h11.9m16,0h12m-39.9,37.8h11.9m15.5,0h11.9m-39.3,37.8h17.3m174.6,-189H696m66.4,37.8h11.9m-48.6,37.8h11.9m15.5,0h17.3m-53.9,46.5h17.4m15,0h17.3M716.5,585h17.4m1,37.9h11.9M714.7,534.8l21.5,-10.2m8.8,29l21.5,-10.3" class="g1_27"/>
</svg>