<?xml version="1.0" encoding="UTF-8" standalone="no"?>
<!DOCTYPE svg PUBLIC "-//W3C//DTD SVG 1.1//EN"
"http://www.w3.org/Graphics/SVG/1.1/DTD/svg11.dtd">
<svg viewBox="0 0 909 1147" version="1.1" xmlns="http://www.w3.org/2000/svg" xmlns:xlink="http://www.w3.org/1999/xlink">
<defs>
<clipPath id="c0_18"><path d="M140.8,513.3v-18H171v18Z"/></clipPath>
<clipPath id="c1_18"><path d="M139.3,1014.6v-18h30.2v18Z"/></clipPath>
<style type="text/css"><![CDATA[
.g0_18{
fill: #FAAF82;
}
.g1_18{
fill: #FFF1E0;
}
.g2_18{
fill: none;
stroke: #0EA5DF;
stroke-width: 3.055;
}
.g3_18{
fill: #0EA5DF;
}
.g4_18{
fill: #FFF;
}
]]></style>
</defs>
<path d="M0,1131H73.8v-51.5H0V1131Z" class="g0_18"/>
<path d="M187.8,623.5h648V485.2h-648V623.5Z" class="g1_18"/>
<path d="M73.8,650.6H836" class="g2_18"/>
<path d="M186.3,1081.1h648V986.5h-648v94.6Z" class="g1_18"/>
<path d="M0,141.1H120.6V0H0V141.1Z" class="g0_18"/>
<path d="M135.8,522.7h39.7V485.2H135.8v37.5Z" class="g3_18"/>
<path clip-path="url(#c0_18)" d="M156.1,507.7c-2.1,.2,-3.8,-1.5,-3.6,-3.6c.1,-1.7,1.5,-3.1,3.2,-3.2c2,-.1,3.7,1.6,3.6,3.7c-.1,1.7,-1.5,3,-3.2,3.1m.2,3c-3.8,.2,-7,-2.9,-6.8,-6.8c.2,-3.1,2.8,-5.7,6,-5.9c3.8,-.2,7,2.9,6.7,6.7c-.2,3.2,-2.8,5.8,-5.9,6m-.4,-15.4c-5.8,0,-11,3.2,-14.9,8.3c-.3,.4,-.3,1,0,1.4c3.9,5.2,9.1,8.3,14.9,8.3c5.7,0,11,-3.1,14.8,-8.3c.4,-.4,.4,-1,0,-1.4c-3.8,-5.1,-9.1,-8.3,-14.8,-8.3Z" class="g4_18"/>
<path d="M134.3,1024H174V986.5H134.3V1024Z" class="g3_18"/>
<path clip-path="url(#c1_18)" d="M154.6,1009.1c-2.1,.1,-3.8,-1.6,-3.7,-3.7c.1,-1.7,1.5,-3,3.2,-3.1c2.1,-.2,3.8,1.5,3.7,3.6c-.1,1.7,-1.5,3.1,-3.2,3.2m.2,2.9c-3.9,.2,-7,-2.9,-6.8,-6.7c.2,-3.2,2.8,-5.8,5.9,-6c3.9,-.2,7,3,6.8,6.8c-.2,3.1,-2.8,5.7,-5.9,5.9m-.4,-15.3c-5.8,0,-11,3.1,-14.9,8.3c-.3,.4,-.3,1,0,1.4c3.9,5.1,9.1,8.3,14.9,8.3c5.7,0,11,-3.2,14.8,-8.3c.3,-.4,.3,-1,0,-1.4c-3.8,-5.2,-9.1,-8.3,-14.8,-8.3Z" class="g4_18"/>
</svg>