<?xml version="1.0" encoding="UTF-8" standalone="no"?>
<!DOCTYPE svg PUBLIC "-//W3C//DTD SVG 1.1//EN"
"http://www.w3.org/Graphics/SVG/1.1/DTD/svg11.dtd">
<svg viewBox="0 0 909 1147" version="1.1" xmlns="http://www.w3.org/2000/svg" xmlns:xlink="http://www.w3.org/1999/xlink">
<defs>
<clipPath id="c0_41"><path d="M138.6,971.1v-18h30.3v18Z"/></clipPath>
<style type="text/css"><![CDATA[
.g0_41{
fill: #FAAF82;
}
.g1_41{
fill: none;
stroke: #0EA5DF;
stroke-width: 3.055;
}
.g2_41{
fill: none;
stroke: #9CCCEE;
stroke-width: 0.763;
stroke-linejoin: round;
}
.g3_41{
fill: none;
stroke: #000;
stroke-width: 0.763;
stroke-linejoin: round;
}
.g4_41{
fill: #000;
}
.g5_41{
fill: #F58345;
}
.g6_41{
fill: #FFF1E0;
}
.g7_41{
fill: #0EA5DF;
}
.g8_41{
fill: #FFF;
}
]]></style>
</defs>
<path d="M835.8,1129.8h73.6v-51.5H835.8v51.5Z" class="g0_41"/>
<path d="M72.3,66.7H834.5" class="g1_41"/>
<path d="M232.1,340.3H747.5M289,360.8V145.1m64.9,215.7V145.1m65,215.7V145.1m64.9,215.7V145.1m65,215.7V145.1m65,215.7V145.1m64.9,215.7V145.1M232.1,318.6H747.5M232.1,297H747.5M232.1,275.3H747.5M232.1,253.7H747.5M232.1,232H747.5M232.1,210.4H747.5M232.1,188.7H747.5M232.1,167.1H747.5M232.1,145.4H747.5" class="g2_41"/>
<path d="M232.1,128.1V361.9" class="g3_41"/>
<path fill-rule="evenodd" d="M232.1,122.7l4.6,10.8c-3.1,-1.6,-6.2,-1.6,-9.3,0Z" class="g4_41"/>
<path d="M755.2,361.2H232.7" class="g3_41"/>
<path fill-rule="evenodd" d="M760.6,361.2l-10.7,4.7c1.5,-3.1,1.5,-6.2,0,-9.3Z" class="g4_41"/>
<path d="M211.4,357.2l2.7,-1.3h.2v9.4c0,.6,.1,1,.1,1.2c.1,.1,.2,.2,.3,.3c.2,.1,.5,.2,1,.2v.3h-4.2V367c.6,0,.9,-.1,1.1,-.2c.1,0,.2,-.2,.3,-.3c0,-.1,.1,-.5,.1,-1.2v-6c0,-.8,-.1,-1.3,-.1,-1.6c0,-.1,-.1,-.3,-.2,-.3c-.1,-.1,-.2,-.2,-.4,-.2c-.2,0,-.5,.1,-.8,.3Z" class="g4_41"/>
<path d="M225.3,355.9v.3c-.7,.1,-1.3,.2,-1.8,.4c-.4,.3,-.9,.6,-1.3,1c-.4,.5,-.8,1,-1.1,1.5c-.3,.6,-.6,1.2,-.7,2c.7,-.6,1.5,-.9,2.3,-.9c.8,0,1.4,.4,2,1c.6,.6,.8,1.4,.8,2.3c0,1,-.2,1.8,-.8,2.6c-.7,.9,-1.6,1.4,-2.7,1.4c-.8,0,-1.4,-.3,-1.9,-.8c-1.1,-1,-1.6,-2.2,-1.6,-3.8c0,-1,.2,-1.9,.6,-2.8c.4,-.9,1,-1.7,1.7,-2.4c.8,-.7,1.5,-1.2,2.1,-1.4c.7,-.3,1.4,-.4,1.9,-.4Zm-5.1,5.8c-.1,.7,-.1,1.3,-.1,1.7c0,.6,.1,1.1,.3,1.8c.2,.6,.4,1.1,.8,1.4c.3,.3,.6,.4,1,.4c.5,0,.9,-.2,1.3,-.7c.4,-.4,.6,-1.1,.6,-1.9c0,-.9,-.2,-1.7,-.6,-2.4c-.4,-.7,-.9,-1,-1.6,-1c-.2,0,-.4,0,-.6,.1c-.3,.1,-.6,.3,-1.1,.6Z" class="g4_41"/>
<path d="M211.4,335.6l2.7,-1.3h.2v9.4c0,.6,.1,1,.1,1.1c.1,.2,.2,.3,.3,.4c.2,.1,.5,.1,1,.1v.3h-4.2v-.3c.6,0,.9,0,1.1,-.1c.1,-.1,.2,-.2,.3,-.3c0,-.2,.1,-.6,.1,-1.2v-6.1c0,-.8,-.1,-1.3,-.1,-1.5c0,-.2,-.1,-.3,-.2,-.4c-.1,-.1,-.2,-.1,-.4,-.1c-.2,0,-.5,.1,-.8,.2Z" class="g4_41"/>
<path d="M219.5,334.5h5.9v.3l-3.7,11h-.9l3.3,-10h-3c-.6,0,-1.1,.1,-1.3,.2c-.5,.3,-.9,.7,-1.2,1.2l-.2,-.1Z" class="g4_41"/>
<path d="M211.4,313.9l2.7,-1.3h.2V322c0,.6,.1,1,.1,1.2c.1,.1,.2,.2,.3,.3c.2,.1,.5,.2,1,.2v.3h-4.2v-.3c.6,0,.9,-.1,1.1,-.2c.1,-.1,.2,-.2,.3,-.3c0,-.1,.1,-.5,.1,-1.2v-6c0,-.8,-.1,-1.3,-.1,-1.6c0,-.1,-.1,-.3,-.2,-.3c-.1,-.1,-.2,-.2,-.4,-.2c-.2,0,-.5,.1,-.8,.3Z" class="g4_41"/>
<path d="M221,318.4c-.9,-.8,-1.4,-1.3,-1.7,-1.8c-.2,-.4,-.4,-.9,-.4,-1.3c0,-.8,.3,-1.4,.9,-1.9c.5,-.5,1.3,-.8,2.2,-.8c.9,0,1.6,.3,2.2,.7c.5,.5,.8,1.1,.8,1.7c0,.4,-.2,.8,-.5,1.3c-.3,.4,-.9,.9,-1.8,1.5c.9,.7,1.6,1.3,1.9,1.8c.4,.5,.6,1.1,.6,1.7c0,.8,-.3,1.5,-.9,2c-.6,.6,-1.4,.9,-2.3,.9c-1.1,0,-1.9,-.4,-2.5,-1c-.5,-.6,-.7,-1.1,-.7,-1.8c0,-.5,.2,-1,.5,-1.4c.3,-.5,.9,-1.1,1.7,-1.6m1.3,-.9c.7,-.6,1.1,-1.1,1.2,-1.4c.2,-.4,.3,-.7,.3,-1.2c0,-.6,-.2,-1,-.5,-1.3c-.3,-.4,-.7,-.5,-1.3,-.5c-.6,0,-1,.1,-1.4,.5c-.3,.3,-.5,.7,-.5,1.1c0,.3,.1,.6,.2,.9c.2,.2,.4,.5,.7,.8Zm-.9,1.2c-.5,.4,-.8,.8,-1,1.2c-.2,.5,-.3,1,-.3,1.5c0,.7,.1,1.3,.5,1.7c.4,.4,.9,.6,1.5,.6c.6,0,1.1,-.1,1.4,-.5c.4,-.3,.6,-.7,.6,-1.2c0,-.4,-.1,-.7,-.3,-1.1c-.4,-.5,-1.2,-1.3,-2.4,-2.2Z" class="g4_41"/>
<path d="M211.4,292.3l2.7,-1.3h.2v9.4c0,.6,.1,1,.1,1.1c.1,.2,.2,.3,.3,.4c.2,.1,.5,.1,1,.1v.3h-4.2V302c.6,0,.9,0,1.1,-.1c.1,-.1,.2,-.2,.3,-.3c0,-.2,.1,-.6,.1,-1.2v-6.1c0,-.8,-.1,-1.3,-.1,-1.5c0,-.2,-.1,-.3,-.2,-.4c-.1,-.1,-.2,-.1,-.4,-.1c-.2,0,-.5,.1,-.8,.2Z" class="g4_41"/>
<path d="M218.7,302.5v-.3c.7,0,1.3,-.1,2,-.5c.6,-.3,1.2,-.8,1.7,-1.6c.6,-.8,1,-1.7,1.2,-2.7c-.8,.6,-1.6,.9,-2.3,.9c-.8,0,-1.5,-.3,-2,-.9c-.6,-.7,-.9,-1.5,-.9,-2.5c0,-.9,.3,-1.8,.9,-2.6c.7,-.9,1.5,-1.3,2.6,-1.3c.9,0,1.7,.3,2.4,1.1c.8,.9,1.2,2.1,1.2,3.4c0,1.3,-.3,2.4,-.9,3.5c-.7,1.1,-1.5,2,-2.6,2.7c-.9,.6,-1.8,.8,-2.9,.8Zm5.1,-5.7c.1,-.7,.1,-1.3,.1,-1.7c0,-.5,-.1,-1.1,-.3,-1.7c-.1,-.6,-.4,-1.1,-.7,-1.4c-.4,-.4,-.7,-.5,-1.2,-.5c-.4,0,-.9,.2,-1.2,.6c-.4,.5,-.6,1.1,-.6,2c0,1.1,.3,2.1,.7,2.7c.4,.5,.8,.7,1.4,.7c.2,0,.5,0,.8,-.2c.4,-.1,.7,-.3,1,-.5Z" class="g4_41"/>
<path d="M217.1,278.5l-.8,2.2h-6.6v-.3c2,-1.8,3.3,-3.2,4.1,-4.4c.8,-1.1,1.2,-2.1,1.2,-3c0,-.7,-.2,-1.3,-.6,-1.8c-.5,-.4,-1,-.6,-1.6,-.6c-.5,0,-1,.1,-1.5,.4c-.4,.4,-.7,.8,-.9,1.4h-.3c.1,-1,.4,-1.7,1,-2.3c.6,-.5,1.3,-.8,2.1,-.8c.9,0,1.7,.3,2.3,.9c.6,.5,.9,1.2,.9,2c0,.6,-.1,1.1,-.4,1.7c-.4,.9,-1.1,1.8,-2,2.8c-1.3,1.5,-2.2,2.4,-2.5,2.7h2.9c.6,0,1,0,1.2,0c.3,-.1,.5,-.2,.7,-.3c.2,-.1,.3,-.3,.5,-.6Z" class="g4_41"/>
<path d="M218.4,275.2c0,-1.3,.2,-2.4,.6,-3.3c.3,-.9,.9,-1.6,1.5,-2.1c.5,-.3,1,-.5,1.5,-.5c.9,0,1.6,.4,2.3,1.3c.9,1.1,1.3,2.5,1.3,4.4c0,1.3,-.2,2.4,-.6,3.3c-.3,.9,-.8,1.5,-1.4,1.9c-.6,.5,-1.1,.7,-1.7,.7c-1,0,-1.9,-.7,-2.6,-1.9c-.6,-1.1,-.9,-2.4,-.9,-3.8m1.6,.2c0,1.5,.2,2.7,.6,3.7c.3,.8,.7,1.2,1.4,1.2c.3,0,.6,-.1,.9,-.4c.3,-.2,.5,-.7,.7,-1.3c.3,-.9,.4,-2.3,.4,-4c0,-1.2,-.2,-2.3,-.4,-3.1c-.2,-.7,-.5,-1.1,-.8,-1.4c-.2,-.2,-.5,-.3,-.8,-.3c-.4,0,-.7,.2,-1,.5c-.4,.5,-.6,1.2,-.8,2.2c-.1,1,-.2,1.9,-.2,2.9Z" class="g4_41"/>
<path d="M217.1,256.9l-.8,2.1h-6.6v-.3c2,-1.8,3.3,-3.2,4.1,-4.3c.8,-1.1,1.2,-2.2,1.2,-3.1c0,-.7,-.2,-1.3,-.6,-1.7c-.5,-.5,-1,-.7,-1.6,-.7c-.5,0,-1,.2,-1.5,.5c-.4,.3,-.7,.8,-.9,1.4h-.3c.1,-1,.4,-1.8,1,-2.3c.6,-.6,1.3,-.9,2.1,-.9c.9,0,1.7,.3,2.3,.9c.6,.6,.9,1.3,.9,2.1c0,.5,-.1,1.1,-.4,1.7c-.4,.8,-1.1,1.8,-2,2.8c-1.3,1.5,-2.2,2.4,-2.5,2.7h2.9c.6,0,1,-.1,1.2,-.1c.3,0,.5,-.1,.7,-.3c.2,-.1,.3,-.3,.5,-.5Z" class="g4_41"/>
<path d="M219.8,249l2.7,-1.4h.2V257c0,.7,.1,1.1,.1,1.2c.1,.2,.2,.3,.3,.4c.2,0,.5,.1,1,.1v.3h-4.2v-.3c.6,0,.9,-.1,1.1,-.1c.1,-.1,.2,-.2,.3,-.4c0,-.1,.1,-.5,.1,-1.2v-6c0,-.8,0,-1.3,-.1,-1.5c0,-.2,-.1,-.3,-.2,-.4c-.1,-.1,-.2,-.1,-.4,-.1c-.2,0,-.5,.1,-.8,.2Z" class="g4_41"/>
<path d="M217.1,235.2l-.8,2.2h-6.6V237c2,-1.7,3.3,-3.2,4.1,-4.3c.8,-1.1,1.2,-2.1,1.2,-3c0,-.7,-.2,-1.3,-.6,-1.8c-.5,-.4,-1,-.6,-1.6,-.6c-.5,0,-1,.1,-1.5,.4c-.4,.3,-.7,.8,-.9,1.4h-.3c.1,-1,.4,-1.8,1,-2.3c.6,-.5,1.3,-.8,2.1,-.8c.9,0,1.7,.3,2.3,.9c.6,.5,.9,1.2,.9,2c0,.6,-.1,1.1,-.4,1.7c-.4,.9,-1.1,1.8,-2,2.8c-1.3,1.5,-2.2,2.4,-2.5,2.7h2.9c.6,0,1,0,1.2,-.1c.3,0,.5,-.1,.7,-.2c.2,-.2,.3,-.3,.5,-.6Z" class="g4_41"/>
<path d="M225.5,235.2l-.8,2.2h-6.6V237c2,-1.7,3.3,-3.2,4.1,-4.3c.8,-1.1,1.2,-2.1,1.2,-3c0,-.7,-.2,-1.3,-.6,-1.8c-.5,-.4,-1,-.6,-1.6,-.6c-.5,0,-1,.1,-1.5,.4c-.4,.3,-.7,.8,-.9,1.4h-.3c.1,-1,.5,-1.8,1,-2.3c.6,-.5,1.3,-.8,2.1,-.8c.9,0,1.7,.3,2.3,.9c.6,.5,.9,1.2,.9,2c0,.6,-.1,1.1,-.4,1.7c-.4,.9,-1,1.8,-2,2.8c-1.3,1.5,-2.2,2.4,-2.5,2.7h2.9c.6,0,1,0,1.2,-.1c.3,0,.5,-.1,.7,-.2c.2,-.2,.3,-.3,.5,-.6Z" class="g4_41"/>
<path d="M217.1,213.6l-.8,2.1h-6.6v-.3c2,-1.8,3.3,-3.2,4.1,-4.3c.8,-1.1,1.2,-2.2,1.2,-3.1c0,-.7,-.2,-1.3,-.6,-1.7c-.5,-.5,-1,-.7,-1.6,-.7c-.5,0,-1,.2,-1.5,.5c-.4,.3,-.7,.8,-.9,1.4h-.3c.1,-1,.4,-1.8,1,-2.3c.6,-.6,1.3,-.9,2.1,-.9c.9,0,1.7,.3,2.3,.9c.6,.6,.9,1.3,.9,2.1c0,.5,-.1,1.1,-.4,1.7c-.4,.8,-1.1,1.8,-2,2.8c-1.3,1.5,-2.2,2.4,-2.5,2.7h2.9c.6,0,1,-.1,1.2,-.1c.3,-.1,.5,-.1,.7,-.3c.2,-.1,.3,-.3,.5,-.5Z" class="g4_41"/>
<path d="M218.6,206.7c.4,-.8,.8,-1.3,1.2,-1.7c.5,-.5,1.1,-.7,1.9,-.7c.8,0,1.5,.3,2,.9c.4,.4,.5,.9,.5,1.4c0,.8,-.5,1.6,-1.5,2.5c.7,.3,1.2,.7,1.6,1.2c.3,.5,.5,1,.5,1.7c0,1,-.3,1.8,-.9,2.5c-.8,.9,-2,1.4,-3.5,1.4c-.7,0,-1.3,-.1,-1.5,-.3c-.3,-.2,-.4,-.4,-.4,-.6c0,-.1,0,-.3,.2,-.4c.1,-.1,.2,-.2,.4,-.2c.2,0,.3,0,.4,.1c.1,0,.3,.1,.7,.3c.3,.2,.5,.3,.7,.3c.2,0,.4,.1,.6,.1c.6,0,1,-.2,1.5,-.7c.4,-.4,.6,-.9,.6,-1.5c0,-.4,-.1,-.9,-.3,-1.3c-.2,-.3,-.3,-.5,-.5,-.7c-.2,-.2,-.5,-.4,-.9,-.6c-.5,-.1,-.9,-.2,-1.3,-.2h-.3v-.3c.5,0,.9,-.2,1.3,-.4c.5,-.3,.8,-.6,1,-1c.2,-.3,.3,-.7,.3,-1.2c0,-.5,-.2,-1,-.6,-1.3c-.3,-.4,-.7,-.5,-1.3,-.5c-.8,0,-1.5,.4,-2.1,1.3Z" class="g4_41"/>
<path d="M217.1,191.9l-.8,2.1h-6.6v-.3c2,-1.7,3.3,-3.2,4.1,-4.3c.8,-1.1,1.2,-2.1,1.2,-3c0,-.7,-.2,-1.3,-.6,-1.8c-.5,-.4,-1,-.7,-1.6,-.7c-.5,0,-1,.2,-1.5,.5c-.4,.3,-.7,.8,-.9,1.4h-.3c.1,-1,.4,-1.8,1,-2.3c.6,-.5,1.3,-.8,2.1,-.8c.9,0,1.7,.3,2.3,.9c.6,.5,.9,1.2,.9,2c0,.6,-.1,1.1,-.4,1.7c-.4,.9,-1.1,1.8,-2,2.8c-1.3,1.5,-2.2,2.4,-2.5,2.7h2.9c.6,0,1,0,1.2,-.1c.3,0,.5,-.1,.7,-.2c.2,-.2,.3,-.4,.5,-.6Z" class="g4_41"/>
<path d="M225.6,189.9v1.2h-1.5V194h-1.3v-2.9H218v-1l5.2,-7.4h.9v7.2Zm-2.8,0v-5.5l-3.9,5.5Z" class="g4_41"/>
<path d="M217.1,170.2l-.8,2.2h-6.6v-.3c2,-1.8,3.3,-3.2,4.1,-4.3c.8,-1.1,1.2,-2.2,1.2,-3.1c0,-.7,-.2,-1.3,-.6,-1.7c-.5,-.5,-1,-.7,-1.6,-.7c-.5,0,-1,.1,-1.5,.5c-.4,.3,-.7,.8,-.9,1.4h-.3c.1,-1,.4,-1.8,1,-2.4c.6,-.5,1.3,-.8,2.1,-.8c.9,0,1.7,.3,2.3,.9c.6,.6,.9,1.3,.9,2.1c0,.5,-.1,1.1,-.4,1.6c-.4,.9,-1.1,1.9,-2,2.9c-1.3,1.4,-2.2,2.3,-2.5,2.7h2.9c.6,0,1,-.1,1.2,-.1c.3,-.1,.5,-.1,.7,-.3c.2,-.1,.3,-.3,.5,-.6Z" class="g4_41"/>
<path d="M225.1,161.3l-.7,1.4h-3.3l-.7,1.5c1.4,.2,2.6,.7,3.4,1.6c.7,.7,1.1,1.6,1.1,2.6c0,.6,-.1,1.1,-.4,1.6c-.2,.5,-.5,.9,-.9,1.3c-.3,.3,-.7,.6,-1.2,.8c-.6,.3,-1.2,.5,-1.9,.5c-.7,0,-1.2,-.1,-1.5,-.4c-.3,-.2,-.4,-.4,-.4,-.7c0,-.2,.1,-.3,.2,-.4c.1,-.1,.3,-.2,.5,-.2c.1,0,.2,0,.3,.1c.1,0,.3,.1,.6,.3c.4,.3,.8,.4,1.2,.4c.7,0,1.2,-.2,1.7,-.7c.5,-.5,.7,-1.1,.7,-1.8c0,-.6,-.2,-1.3,-.6,-1.8c-.4,-.6,-1,-1.1,-1.8,-1.4c-.6,-.2,-1.4,-.4,-2.4,-.4l2.1,-4.3Z" class="g4_41"/>
<path d="M217.1,148.6l-.8,2.1h-6.6v-.3c2,-1.7,3.3,-3.2,4.1,-4.3c.8,-1.1,1.2,-2.1,1.2,-3c0,-.7,-.2,-1.3,-.6,-1.8c-.5,-.4,-1,-.7,-1.6,-.7c-.5,0,-1,.2,-1.5,.5c-.4,.3,-.7,.8,-.9,1.4h-.3c.1,-1,.4,-1.8,1,-2.3c.6,-.6,1.3,-.8,2.1,-.8c.9,0,1.7,.3,2.3,.8c.6,.6,.9,1.3,.9,2.1c0,.6,-.1,1.1,-.4,1.7c-.4,.9,-1.1,1.8,-2,2.8c-1.3,1.5,-2.2,2.4,-2.5,2.7h2.9c.6,0,1,0,1.2,-.1c.3,0,.5,-.1,.7,-.2c.2,-.2,.3,-.4,.5,-.6Z" class="g4_41"/>
<path d="M225.3,139.4v.3c-.7,.1,-1.3,.2,-1.8,.4c-.4,.2,-.9,.6,-1.3,1c-.4,.4,-.8,.9,-1.1,1.5c-.3,.5,-.6,1.2,-.7,1.9c.7,-.5,1.5,-.8,2.3,-.8c.8,0,1.4,.3,2,.9c.6,.6,.8,1.4,.8,2.4c0,.9,-.2,1.8,-.8,2.5c-.7,1,-1.6,1.4,-2.7,1.4c-.8,0,-1.4,-.2,-1.9,-.7c-1.1,-1,-1.6,-2.3,-1.6,-3.8c0,-1,.2,-2,.6,-2.9c.4,-.9,1,-1.7,1.7,-2.4c.8,-.7,1.5,-1.1,2.1,-1.4c.7,-.2,1.4,-.3,1.9,-.3Zm-5.1,5.7c-.1,.8,-.1,1.4,-.1,1.8c0,.5,.1,1.1,.3,1.7c.2,.6,.4,1.1,.8,1.5c.3,.2,.6,.4,1,.4c.5,0,.9,-.3,1.3,-.7c.4,-.4,.6,-1.1,.6,-1.9c0,-1,-.2,-1.8,-.6,-2.4c-.4,-.7,-.9,-1.1,-1.6,-1.1c-.2,0,-.4,.1,-.6,.2c-.3,0,-.6,.2,-1.1,.5Z" class="g4_41"/>
<path d="M187.5,264.6l2.6,-.1v.3c-.6,.1,-1,.2,-1.3,.4c-.3,.2,-.5,.4,-.6,.7c-.1,.3,-.1,.7,-.1,1.3v3.1h8.5c.7,0,1.2,-.1,1.4,-.3c.2,-.2,.3,-.6,.3,-1.3h.3v4.8h-.3c0,-.7,-.1,-1.1,-.3,-1.3c-.2,-.2,-.7,-.3,-1.4,-.3h-7.1c-.7,0,-1.2,.1,-1.4,.3c-.2,.2,-.3,.6,-.3,1.3h-.3Zm4.3,.6l-.9,-2.4v-.3h1.7c-.6,-.4,-1.1,-.7,-1.4,-1.1c-.2,-.4,-.4,-.8,-.4,-1.3c0,-.7,.3,-1.4,.9,-1.9c.8,-.6,1.7,-.9,2.9,-.9c1.3,0,2.3,.4,3.2,1.1c.7,.6,1,1.4,1,2.3c0,.4,0,.8,-.2,1.1c0,.2,-.2,.5,-.4,.7h2.2c.6,0,.9,0,1,-.1c.2,0,.3,-.1,.4,-.3c0,-.1,.1,-.4,.1,-.8h.3v3.9h-.3V265c0,-.3,-.1,-.6,-.2,-.8c-.1,-.1,-.2,-.2,-.3,-.2c-.1,-.1,-.5,-.1,-1,-.1h-7.1c-.5,0,-.8,0,-.9,.1c-.2,0,-.3,.1,-.3,.2c-.1,.1,-.1,.2,-.1,.4c0,.1,0,.3,.1,.5Zm1.3,-2.7h2.8c.6,0,1,0,1.2,0c.3,-.1,.6,-.3,.9,-.6c.2,-.3,.3,-.7,.3,-1.1c0,-.6,-.2,-1,-.6,-1.4c-.6,-.4,-1.4,-.6,-2.4,-.6c-1.1,0,-2,.2,-2.6,.7c-.4,.4,-.7,.8,-.7,1.3c0,.2,.1,.5,.2,.8c.1,.2,.4,.5,.9,.9M197.5,252c.6,.7,.9,1.2,1,1.4c.2,.3,.2,.6,.2,1c0,.5,-.1,.9,-.5,1.2c-.3,.4,-.8,.5,-1.4,.5c-.4,0,-.7,0,-.9,-.2c-.4,-.2,-.8,-.6,-1.1,-1.2c-.3,-.5,-.7,-1.5,-1.2,-2.7h-.3c-.7,0,-1.3,.1,-1.5,.3c-.3,.3,-.5,.6,-.5,1.1c0,.3,.1,.6,.3,.8c.2,.2,.4,.3,.7,.3h.4c.3,0,.5,0,.6,.2c.2,.1,.2,.3,.2,.5c0,.2,0,.3,-.2,.5c-.1,.1,-.3,.2,-.6,.2c-.4,0,-.9,-.3,-1.3,-.8c-.4,-.4,-.6,-1.1,-.6,-2c0,-.7,.2,-1.2,.4,-1.6c.2,-.4,.4,-.6,.8,-.7c.2,-.1,.7,-.2,1.4,-.2H196c.7,0,1.1,0,1.3,0c.2,-.1,.3,-.1,.3,-.2c.1,0,.1,-.1,.1,-.2c0,-.1,0,-.2,-.1,-.2c0,-.1,-.2,-.4,-.6,-.7h.5c.8,.6,1.2,1.2,1.2,1.8c0,.2,-.1,.5,-.2,.6c-.2,.2,-.5,.3,-1,.3m-.5,0h-2.9c.3,.8,.6,1.3,.7,1.6c.2,.4,.5,.7,.8,.9c.2,.2,.5,.3,.8,.3c.4,0,.7,-.2,1,-.4c.3,-.2,.4,-.5,.4,-.8c0,-.4,-.3,-1,-.8,-1.6m-5.9,-4.3v-6.6h.3c0,.4,0,.6,.1,.7c.1,.2,.2,.3,.3,.3c.1,.1,.4,.1,1,.1h3.7c.8,0,1.3,0,1.5,-.2c.2,-.1,.3,-.4,.3,-.9h2.4v.3c-.5,0,-.9,.1,-1.2,.3c-.3,.2,-.6,.5,-.7,.9c-.1,.3,-.2,.9,-.2,1.6v1.9c0,.6,0,1.1,.1,1.4c.2,.3,.4,.6,.7,.8c.4,.3,.8,.4,1.3,.5v.3h-2.4c0,-.5,-.2,-.9,-.6,-1.3c-.3,-.3,-1,-.6,-1.9,-.9c-1,-.3,-2,-.4,-3,-.4c-.9,0,-1.4,.4,-1.4,1.2Zm.5,-1.8h.5c2.6,0,4.6,.5,6,1.5v-2.8c0,-.5,-.1,-.8,-.2,-.9c-.1,-.1,-.4,-.1,-.9,-.1h-5.4Zm-.5,-5.3v-3.5h.3v.2c0,.2,0,.4,.1,.6c.1,.1,.3,.1,.4,.1c.2,0,.5,0,.9,-.2l3.8,-1.9l-4.1,-1.6c-.3,-.1,-.5,-.2,-.7,-.2c-.1,0,-.2,0,-.2,.1c-.1,0,-.1,.1,-.2,.2c0,.1,0,.2,0,.5h-.3v-2.5h.3c0,.2,0,.4,.1,.5c.1,.1,.2,.2,.4,.4c.1,0,.3,.1,.6,.2l7.5,3.1c.7,.3,1.3,.7,1.7,1.2c.3,.4,.5,.9,.5,1.3c0,.4,-.1,.6,-.3,.8c-.2,.2,-.4,.3,-.6,.3c-.2,0,-.4,0,-.6,-.2c-.1,-.1,-.2,-.3,-.2,-.6c0,-.2,.1,-.4,.2,-.7c.1,-.3,.1,-.4,.1,-.4c0,-.2,-.1,-.4,-.2,-.6c-.2,-.2,-.5,-.4,-1,-.6l-1.3,-.5l-5.7,2.7c-.1,.1,-.4,.2,-.6,.4c-.2,.1,-.3,.2,-.4,.3c-.1,.2,-.2,.4,-.2,.6Zm4.6,-15.2c1,.2,1.8,.6,2.3,1.2c.5,.6,.8,1.3,.8,2c0,.8,-.3,1.6,-1.1,2.2c-.7,.6,-1.6,1,-2.9,1c-1.1,0,-2.1,-.4,-2.8,-1.1c-.8,-.7,-1.2,-1.5,-1.2,-2.5c0,-.8,.2,-1.4,.6,-1.9c.4,-.4,.8,-.7,1.3,-.7c.2,0,.3,.1,.5,.2c.1,.2,.2,.4,.2,.6c0,.3,-.2,.6,-.4,.7c-.1,.1,-.3,.2,-.6,.2c-.3,0,-.6,.2,-.8,.3c-.1,.2,-.2,.5,-.2,.8c0,.6,.2,1,.6,1.4c.5,.4,1.2,.6,2.1,.6c.9,0,1.7,-.2,2.4,-.6c.7,-.5,1,-1.1,1,-1.8c0,-.6,-.1,-1,-.5,-1.5c-.3,-.3,-.7,-.6,-1.4,-.8Zm.6,-3.4l-3.8,-3.3c-.4,.1,-.7,.1,-.9,.3c-.1,.1,-.2,.4,-.2,.8h-.3v-3.5h.3c0,.3,0,.6,.1,.7c.1,.1,.2,.2,.3,.3c.1,.1,.4,.1,1,.1h4c.6,0,.9,0,1.1,-.1c.1,-.1,.2,-.1,.3,-.3c0,-.1,.1,-.4,.1,-.7h.3v3.6h-.3c0,-.5,-.1,-.8,-.3,-.9c-.1,-.2,-.5,-.3,-1.2,-.3h-3.5l3.8,3.3c.4,0,.7,-.1,.9,-.2c.2,-.1,.3,-.4,.3,-.8h.3v3.5h-.3c0,-.5,-.1,-.8,-.3,-.9c-.2,-.2,-.6,-.2,-1.2,-.2h-4c-.6,0,-.9,0,-1,0c-.1,.1,-.2,.2,-.3,.3c-.1,.1,-.1,.4,-.1,.8h-.3v-3.6h.3c0,.3,0,.6,.1,.7c.1,.1,.2,.2,.3,.3c.1,.1,.4,.1,1,.1Z" class="g4_41"/>
<path d="M288.1,372.1l.2,3.4h-.2c-.3,-1,-.7,-1.7,-1.3,-2.2c-.6,-.4,-1.3,-.7,-2.1,-.7c-.6,0,-1.2,.2,-1.8,.6c-.5,.3,-1,.8,-1.3,1.6c-.3,.7,-.4,1.7,-.4,2.8c0,.9,.1,1.7,.4,2.3c.3,.7,.7,1.2,1.3,1.6c.6,.3,1.3,.5,2,.5c.7,0,1.3,-.1,1.8,-.4c.5,-.3,1,-.8,1.6,-1.7l.3,.2c-.5,.9,-1.1,1.5,-1.8,2c-.7,.4,-1.5,.6,-2.4,.6c-1.7,0,-3,-.6,-3.9,-1.9c-.7,-.9,-1,-2,-1,-3.3c0,-1,.2,-1.9,.6,-2.7c.5,-.9,1.1,-1.5,1.9,-2c.8,-.5,1.7,-.7,2.6,-.7c.7,0,1.5,.2,2.2,.5c.2,.1,.3,.2,.4,.2c.2,0,.3,0,.4,-.1c.1,-.2,.2,-.4,.2,-.6Z" class="g4_41"/>
<path d="M289.1,376.3l2.1,-.9h.3V377c.3,-.6,.7,-1,1,-1.2c.4,-.3,.8,-.4,1.2,-.4c.6,0,1.2,.3,1.7,.8c.5,.7,.8,1.5,.8,2.6c0,1.2,-.3,2.1,-1,2.9c-.6,.6,-1.3,1,-2.1,1c-.4,0,-.7,-.1,-1,-.2c-.2,-.1,-.4,-.2,-.6,-.4v2c0,.5,0,.8,.1,.9c0,.2,.1,.3,.3,.3c.1,.1,.4,.1,.7,.1v.3H289v-.3h.2c.3,0,.5,0,.7,-.1c.1,-.1,.2,-.2,.3,-.3c0,-.1,0,-.4,0,-.9v-6.5c0,-.4,0,-.7,0,-.8c-.1,-.1,-.1,-.2,-.2,-.3c-.1,0,-.2,-.1,-.4,-.1c-.1,0,-.2,.1,-.4,.1Zm2.4,1.2V380c0,.6,0,.9,0,1.1c.1,.3,.3,.6,.6,.8c.2,.2,.6,.3,1,.3c.5,0,.9,-.2,1.2,-.6c.4,-.5,.6,-1.2,.6,-2.1c0,-1.1,-.2,-1.9,-.7,-2.4c-.3,-.4,-.7,-.6,-1.1,-.6c-.3,0,-.5,.1,-.7,.2c-.2,.1,-.5,.3,-.9,.8Z" class="g4_41"/>
<path d="M298.6,381c.3,0,.5,.1,.6,.2c.2,.2,.3,.4,.3,.6c0,.3,-.1,.5,-.3,.6c-.1,.2,-.3,.3,-.6,.3c-.2,0,-.4,-.1,-.5,-.3c-.2,-.1,-.3,-.3,-.3,-.6c0,-.2,.1,-.4,.3,-.6c.1,-.1,.3,-.2,.5,-.2Z" class="g4_41"/>
<path d="M264.8,390.2l2.5,-1.2h.2v8.6c0,.6,0,.9,.1,1c0,.2,.1,.3,.3,.4c.1,0,.4,.1,.9,.1v.3H265v-.3c.4,0,.8,-.1,.9,-.1c.1,-.1,.2,-.2,.3,-.3c0,-.1,.1,-.5,.1,-1.1v-5.5c0,-.7,-.1,-1.2,-.1,-1.4c0,-.2,-.1,-.3,-.2,-.3c-.1,-.1,-.2,-.2,-.3,-.2c-.2,0,-.5,.1,-.8,.3Z" class="g4_41"/>
<path d="M271.4,399.6v-.3c.7,0,1.3,-.2,1.8,-.4c.6,-.3,1.1,-.8,1.7,-1.6c.5,-.7,.8,-1.5,1,-2.4c-.7,.5,-1.4,.8,-2.1,.8c-.7,0,-1.3,-.3,-1.8,-.8c-.5,-.6,-.8,-1.3,-.8,-2.2c0,-.9,.3,-1.7,.8,-2.4c.6,-.8,1.4,-1.3,2.4,-1.3c.8,0,1.5,.4,2.1,1.1c.8,.8,1.1,1.9,1.1,3.1c0,1.1,-.3,2.2,-.8,3.2c-.6,.9,-1.3,1.7,-2.3,2.4c-.8,.5,-1.7,.8,-2.6,.8Zm4.7,-5.2c.1,-.7,.1,-1.2,.1,-1.6c0,-.5,-.1,-1,-.2,-1.5c-.2,-.6,-.4,-1,-.7,-1.3c-.3,-.3,-.7,-.5,-1.1,-.5c-.4,0,-.8,.2,-1.1,.6c-.4,.4,-.5,1,-.5,1.8c0,1.1,.2,1.9,.6,2.5c.4,.4,.8,.6,1.2,.6c.3,0,.5,0,.8,-.2c.4,-.1,.6,-.2,.9,-.4Z" class="g4_41"/>
<path d="M283.9,390.2l2.4,-1.2h.3v8.6c0,.6,0,.9,.1,1c0,.2,.1,.3,.3,.4c.1,0,.4,.1,.9,.1v.3h-3.8v-.3c.4,0,.8,-.1,.9,-.1c.1,-.1,.2,-.2,.3,-.3c0,-.1,.1,-.5,.1,-1.1v-5.5c0,-.7,-.1,-1.2,-.1,-1.4c0,-.2,-.1,-.3,-.2,-.3c-.1,-.1,-.2,-.2,-.3,-.2c-.2,0,-.5,.1,-.8,.3Z" class="g4_41"/>
<path d="M290.3,394.4c0,-1.2,.2,-2.2,.5,-3c.4,-.8,.8,-1.5,1.4,-1.9c.4,-.3,.9,-.5,1.4,-.5c.8,0,1.5,.4,2.1,1.2c.7,1,1.1,2.3,1.1,4c0,1.2,-.1,2.2,-.5,3c-.3,.8,-.7,1.4,-1.3,1.8c-.5,.4,-1,.5,-1.5,.5c-1,0,-1.8,-.5,-2.4,-1.7c-.5,-.9,-.8,-2.1,-.8,-3.4m1.4,.2c0,1.4,.2,2.5,.6,3.4c.2,.7,.7,1.1,1.2,1.1c.3,0,.6,-.1,.9,-.4c.3,-.2,.5,-.6,.6,-1.2c.3,-.8,.4,-2.1,.4,-3.6c0,-1.2,-.2,-2.1,-.4,-2.9c-.2,-.6,-.4,-1,-.7,-1.2c-.2,-.2,-.4,-.3,-.7,-.3c-.4,0,-.7,.2,-.9,.5c-.4,.4,-.6,1.1,-.8,1.9c-.1,.9,-.2,1.8,-.2,2.7Z" class="g4_41"/>
<path d="M299.3,397.9c.2,0,.4,.1,.6,.3c.1,.1,.2,.3,.2,.6c0,.2,-.1,.4,-.2,.5c-.2,.2,-.4,.3,-.6,.3c-.2,0,-.4,-.1,-.6,-.3c-.2,-.1,-.2,-.3,-.2,-.5c0,-.3,0,-.5,.2,-.6c.2,-.2,.4,-.3,.6,-.3Z" class="g4_41"/>
<path d="M308.2,397.4l-.7,2h-6v-.3c1.8,-1.6,3,-2.9,3.7,-3.9c.7,-1,1.1,-2,1.1,-2.8c0,-.7,-.2,-1.2,-.6,-1.6c-.4,-.4,-.8,-.6,-1.4,-.6c-.5,0,-.9,.1,-1.3,.4c-.4,.3,-.7,.7,-.9,1.3h-.3c.1,-.9,.5,-1.6,1,-2.1c.5,-.5,1.1,-.8,1.9,-.8c.8,0,1.5,.3,2.1,.8c.5,.6,.8,1.2,.8,1.9c0,.5,-.1,1,-.4,1.5c-.3,.8,-.9,1.7,-1.8,2.6c-1.2,1.4,-2,2.2,-2.3,2.4h2.7c.5,0,.9,0,1.1,0c.2,-.1,.4,-.1,.6,-.3c.1,-.1,.3,-.3,.4,-.5Z" class="g4_41"/>
<path d="M315.8,397.4l-.7,2h-5.9v-.3c1.7,-1.6,3,-2.9,3.7,-3.9c.7,-1,1,-2,1,-2.8c0,-.7,-.2,-1.2,-.5,-1.6c-.4,-.4,-.9,-.6,-1.5,-.6c-.5,0,-.9,.1,-1.3,.4c-.4,.3,-.7,.7,-.9,1.3h-.2c.1,-.9,.4,-1.6,.9,-2.1c.5,-.5,1.2,-.8,1.9,-.8c.9,0,1.5,.3,2.1,.8c.5,.6,.8,1.2,.8,1.9c0,.5,-.1,1,-.3,1.5c-.4,.8,-1,1.7,-1.8,2.6c-1.3,1.4,-2,2.2,-2.4,2.4h2.7c.5,0,.9,0,1.1,0c.2,-.1,.4,-.1,.6,-.3c.2,-.1,.3,-.3,.5,-.5Z" class="g4_41"/>
<path d="M280.2,397.9c.2,0,.4,.1,.6,.3c.1,.1,.2,.3,.2,.6c0,.2,-.1,.4,-.2,.5c-.2,.2,-.4,.3,-.6,.3c-.2,0,-.4,-.1,-.6,-.3c-.2,-.1,-.2,-.3,-.2,-.5c0,-.3,0,-.5,.2,-.6c.2,-.2,.4,-.3,.6,-.3Z" class="g4_41"/>
<path d="M351.8,377.3v-3.1c0,-.6,0,-.9,-.1,-1.1c-.1,-.1,-.2,-.3,-.4,-.4c-.2,0,-.5,-.1,-.9,-.1v-.3h4.3v.3c-.4,0,-.7,.1,-.9,.1c-.2,.1,-.4,.3,-.4,.4c-.1,.2,-.2,.6,-.2,1.1v6.4c0,.6,.1,.9,.2,1.1c.1,.2,.2,.3,.4,.3c.2,.1,.5,.2,.9,.2v.2h-4.3v-.2c.4,0,.7,-.1,.9,-.2c.2,0,.3,-.2,.4,-.3c.1,-.2,.1,-.6,.1,-1.1v-2.7c-1.2,.5,-2.3,.8,-3.1,.8c-.5,0,-1,-.1,-1.4,-.4c-.4,-.2,-.6,-.4,-.7,-.7c-.1,-.3,-.1,-.8,-.1,-1.7v-1.7c0,-.5,-.1,-.9,-.1,-1.1c-.1,-.2,-.3,-.3,-.5,-.4c-.2,0,-.5,-.1,-.9,-.1v-.3h4.4v.3c-.4,0,-.8,.1,-1,.2c-.2,0,-.4,.2,-.4,.4c-.1,.2,-.1,.5,-.1,1v1.4c0,.7,0,1.1,.1,1.4c.1,.3,.2,.5,.5,.7c.2,.1,.5,.2,.8,.2c.8,0,1.6,-.2,2.5,-.6Z" class="g4_41"/>
<path d="M355.4,375.6h5.9l.3,1.9h-.4c0,-.4,-.1,-.7,-.3,-.9c-.1,-.2,-.3,-.3,-.4,-.4c-.2,-.1,-.5,-.1,-1,-.1h-.6v4.7c0,.6,.1,.9,.1,1c.1,.1,.2,.2,.3,.3c.2,0,.5,.1,1,.1v.2h-3.7v-.2c.5,0,.8,-.1,.9,-.3c.1,-.1,.2,-.5,.2,-1.1v-4.7h-.6c-.4,0,-.7,0,-.9,.1c-.1,0,-.3,.2,-.4,.4c-.2,.1,-.3,.5,-.4,.9h-.3Z" class="g4_41"/>
<path d="M362.4,381c.3,0,.5,.1,.6,.2c.2,.2,.3,.4,.3,.6c0,.3,-.1,.5,-.3,.6c-.2,.2,-.3,.3,-.6,.3c-.2,0,-.4,-.1,-.6,-.3c-.1,-.1,-.2,-.3,-.2,-.6c0,-.2,.1,-.4,.2,-.6c.2,-.1,.4,-.2,.6,-.2Z" class="g4_41"/>
<path d="M335,397.4l-.7,2h-6v-.3c1.7,-1.6,3,-2.9,3.7,-3.9c.7,-1,1.1,-2,1.1,-2.8c0,-.7,-.2,-1.2,-.6,-1.6c-.4,-.4,-.9,-.6,-1.4,-.6c-.5,0,-1,.1,-1.4,.4c-.4,.3,-.7,.7,-.8,1.3h-.3c.1,-.9,.4,-1.6,.9,-2.1c.6,-.5,1.2,-.8,2,-.8c.8,0,1.5,.3,2,.8c.6,.6,.8,1.2,.8,1.9c0,.5,-.1,1,-.3,1.5c-.4,.8,-1,1.7,-1.8,2.6c-1.2,1.4,-2,2.2,-2.3,2.4h2.6c.6,0,.9,0,1.1,0c.3,-.1,.5,-.1,.6,-.3c.2,-.1,.4,-.3,.5,-.5Z" class="g4_41"/>
<path d="M336.2,394.4c0,-1.2,.1,-2.2,.5,-3c.3,-.8,.8,-1.5,1.4,-1.9c.4,-.3,.9,-.5,1.3,-.5c.8,0,1.5,.4,2.1,1.2c.8,1,1.2,2.3,1.2,4c0,1.2,-.2,2.2,-.5,3c-.4,.8,-.8,1.4,-1.3,1.8c-.5,.4,-1,.5,-1.5,.5c-1,0,-1.8,-.5,-2.4,-1.7c-.6,-.9,-.8,-2.1,-.8,-3.4m1.4,.2c0,1.4,.2,2.5,.5,3.4c.3,.7,.7,1.1,1.3,1.1c.3,0,.5,-.1,.8,-.4c.3,-.2,.5,-.6,.7,-1.2c.2,-.8,.3,-2.1,.3,-3.6c0,-1.2,-.1,-2.1,-.3,-2.9c-.2,-.6,-.4,-1,-.7,-1.2c-.2,-.2,-.5,-.3,-.8,-.3c-.3,0,-.6,.2,-.9,.5c-.3,.4,-.6,1.1,-.7,1.9c-.1,.9,-.2,1.8,-.2,2.7Z" class="g4_41"/>
<path d="M348.8,390.2l2.5,-1.2h.3v8.6c0,.6,0,.9,0,1c.1,.2,.2,.3,.3,.4c.2,0,.5,.1,.9,.1v.3H349v-.3c.5,0,.8,-.1,1,-.1c.1,-.1,.2,-.2,.2,-.3c.1,-.1,.1,-.5,.1,-1.1v-5.5c0,-.7,0,-1.2,-.1,-1.4c0,-.2,0,-.3,-.1,-.3c-.1,-.1,-.2,-.2,-.4,-.2c-.2,0,-.4,.1,-.7,.3Z" class="g4_41"/>
<path d="M355.2,394.4c0,-1.2,.2,-2.2,.6,-3c.3,-.8,.8,-1.5,1.4,-1.9c.4,-.3,.9,-.5,1.3,-.5c.8,0,1.5,.4,2.1,1.2c.8,1,1.2,2.3,1.2,4c0,1.2,-.2,2.2,-.5,3c-.4,.8,-.8,1.4,-1.3,1.8c-.5,.4,-1,.5,-1.5,.5c-1,0,-1.8,-.5,-2.4,-1.7c-.6,-.9,-.9,-2.1,-.9,-3.4m1.5,.2c0,1.4,.2,2.5,.5,3.4c.3,.7,.7,1.1,1.3,1.1c.3,0,.5,-.1,.8,-.4c.3,-.2,.5,-.6,.7,-1.2c.2,-.8,.3,-2.1,.3,-3.6c0,-1.2,-.1,-2.1,-.3,-2.9c-.2,-.6,-.4,-1,-.7,-1.2c-.2,-.2,-.5,-.3,-.8,-.3c-.3,0,-.6,.2,-.9,.5c-.3,.4,-.6,1.1,-.7,1.9c-.1,.9,-.2,1.8,-.2,2.7Z" class="g4_41"/>
<path d="M364.2,397.9c.3,0,.5,.1,.6,.3c.2,.1,.3,.3,.3,.6c0,.2,-.1,.4,-.3,.5c-.1,.2,-.3,.3,-.6,.3c-.2,0,-.4,-.1,-.5,-.3c-.2,-.1,-.3,-.3,-.3,-.5c0,-.3,.1,-.5,.3,-.6c.1,-.2,.3,-.3,.5,-.3Z" class="g4_41"/>
<path d="M373.2,397.4l-.7,2h-6v-.3c1.7,-1.6,3,-2.9,3.7,-3.9c.7,-1,1.1,-2,1.1,-2.8c0,-.7,-.2,-1.2,-.6,-1.6c-.4,-.4,-.9,-.6,-1.4,-.6c-.5,0,-1,.1,-1.4,.4c-.4,.3,-.7,.7,-.8,1.3h-.3c.1,-.9,.4,-1.6,.9,-2.1c.5,-.5,1.2,-.8,2,-.8c.8,0,1.5,.3,2,.8c.6,.6,.8,1.2,.8,1.9c0,.5,-.1,1,-.3,1.5c-.4,.8,-1,1.7,-1.8,2.6c-1.2,1.4,-2,2.2,-2.3,2.4h2.6c.5,0,.9,0,1.1,0c.3,-.1,.5,-.1,.6,-.3c.2,-.1,.4,-.3,.5,-.5Z" class="g4_41"/>
<path d="M380.8,397.4l-.7,2h-6v-.3c1.8,-1.6,3,-2.9,3.7,-3.9c.7,-1,1.1,-2,1.1,-2.8c0,-.7,-.2,-1.2,-.6,-1.6c-.4,-.4,-.8,-.6,-1.4,-.6c-.5,0,-.9,.1,-1.3,.4c-.4,.3,-.7,.7,-.9,1.3h-.3c.1,-.9,.5,-1.6,1,-2.1c.5,-.5,1.1,-.8,1.9,-.8c.8,0,1.5,.3,2.1,.8c.5,.6,.8,1.2,.8,1.9c0,.5,-.1,1,-.4,1.5c-.3,.8,-.9,1.7,-1.8,2.6c-1.2,1.4,-2,2.2,-2.3,2.4h2.7c.5,0,.9,0,1.1,0c.2,-.1,.4,-.1,.6,-.3c.1,-.1,.3,-.3,.4,-.5Z" class="g4_41"/>
<path d="M345.1,397.9c.3,0,.5,.1,.6,.3c.2,.1,.3,.3,.3,.6c0,.2,-.1,.4,-.3,.5c-.1,.2,-.3,.3,-.6,.3c-.2,0,-.4,-.1,-.5,-.3c-.2,-.1,-.3,-.3,-.3,-.5c0,-.3,.1,-.5,.3,-.6c.1,-.2,.3,-.3,.5,-.3Z" class="g4_41"/>
<path d="M417.3,372.9h-4.7v7.7c0,.7,.1,1.1,.3,1.3c.2,.2,.6,.3,1.2,.3v.3h-4.4v-.3c.7,0,1.1,-.1,1.2,-.3c.2,-.2,.3,-.6,.3,-1.3v-6.4c0,-.7,-.1,-1.1,-.3,-1.3c-.1,-.2,-.5,-.3,-1.2,-.3v-.3h10.5v.3c-.6,0,-1,.1,-1.2,.3c-.2,.2,-.2,.6,-.2,1.3v6.4c0,.7,0,1.1,.2,1.3c.2,.2,.6,.3,1.2,.3v.3h-4.3v-.3c.6,0,1,-.1,1.2,-.3c.1,-.2,.2,-.6,.2,-1.3Z" class="g4_41"/>
<path d="M420.9,375.6h5.9l.3,1.9h-.4c0,-.4,-.1,-.7,-.3,-.9c-.1,-.2,-.3,-.3,-.4,-.4c-.2,-.1,-.5,-.1,-1,-.1h-.5v4.7c0,.6,0,.9,0,1c.1,.1,.2,.2,.3,.3c.2,0,.5,.1,1,.1v.2h-3.7v-.2c.5,0,.8,-.1,.9,-.3c.1,-.1,.2,-.5,.2,-1.1v-4.7h-.6c-.4,0,-.7,0,-.9,.1c-.1,0,-.3,.2,-.4,.4c-.2,.1,-.3,.5,-.4,.9h-.3Z" class="g4_41"/>
<path d="M427.9,381c.3,0,.5,.1,.6,.2c.2,.2,.3,.4,.3,.6c0,.3,-.1,.5,-.3,.6c-.1,.2,-.3,.3,-.6,.3c-.2,0,-.4,-.1,-.5,-.3c-.2,-.1,-.3,-.3,-.3,-.6c0,-.2,.1,-.4,.3,-.6c.1,-.1,.3,-.2,.5,-.2Z" class="g4_41"/>
<path d="M399.9,397.4l-.7,2h-6v-.3c1.8,-1.6,3,-2.9,3.8,-3.9c.7,-1,1,-2,1,-2.8c0,-.7,-.2,-1.2,-.6,-1.6c-.4,-.4,-.8,-.6,-1.4,-.6c-.5,0,-.9,.1,-1.3,.4c-.4,.3,-.7,.7,-.9,1.3h-.3c.2,-.9,.5,-1.6,1,-2.1c.5,-.5,1.2,-.8,1.9,-.8c.8,0,1.5,.3,2.1,.8c.5,.6,.8,1.2,.8,1.9c0,.5,-.1,1,-.4,1.5c-.3,.8,-.9,1.7,-1.7,2.6c-1.3,1.4,-2.1,2.2,-2.4,2.4h2.7c.5,0,.9,0,1.1,0c.2,-.1,.4,-.1,.6,-.3c.2,-.1,.3,-.3,.5,-.5Z" class="g4_41"/>
<path d="M402.3,390.2l2.5,-1.2h.3v8.6c0,.6,0,.9,0,1c.1,.2,.2,.3,.3,.4c.2,0,.5,.1,.9,.1v.3h-3.8v-.3c.5,0,.8,-.1,1,-.1c.1,-.1,.2,-.2,.2,-.3c.1,-.1,.1,-.5,.1,-1.1v-5.5c0,-.7,0,-1.2,0,-1.4c-.1,-.2,-.1,-.3,-.2,-.3c-.1,-.1,-.2,-.2,-.4,-.2c-.2,0,-.4,.1,-.7,.3Z" class="g4_41"/>
<path d="M413.8,390.2l2.5,-1.2h.2v8.6c0,.6,0,.9,.1,1c0,.2,.1,.3,.3,.4c.1,0,.4,.1,.9,.1v.3H414v-.3c.5,0,.8,-.1,.9,-.1c.2,-.1,.2,-.2,.3,-.3c.1,-.1,.1,-.5,.1,-1.1v-5.5c0,-.7,0,-1.2,-.1,-1.4c0,-.2,-.1,-.3,-.2,-.3c-.1,-.1,-.2,-.2,-.3,-.2c-.2,0,-.5,.1,-.8,.3Z" class="g4_41"/>
<path d="M420.2,394.4c0,-1.2,.2,-2.2,.5,-3c.4,-.8,.8,-1.5,1.4,-1.9c.5,-.3,.9,-.5,1.4,-.5c.8,0,1.5,.4,2.1,1.2c.8,1,1.2,2.3,1.2,4c0,1.2,-.2,2.2,-.6,3c-.3,.8,-.7,1.4,-1.3,1.8c-.5,.4,-1,.5,-1.5,.5c-.9,0,-1.7,-.5,-2.4,-1.7c-.5,-.9,-.8,-2.1,-.8,-3.4m1.5,.2c0,1.4,.1,2.5,.5,3.4c.3,.7,.7,1.1,1.3,1.1c.2,0,.5,-.1,.8,-.4c.3,-.2,.5,-.6,.6,-1.2c.3,-.8,.4,-2.1,.4,-3.6c0,-1.2,-.1,-2.1,-.4,-2.9c-.1,-.6,-.4,-1,-.7,-1.2c-.2,-.2,-.4,-.3,-.7,-.3c-.3,0,-.6,.2,-.9,.5c-.4,.4,-.6,1.1,-.7,1.9c-.2,.9,-.2,1.8,-.2,2.7Z" class="g4_41"/>
<path d="M429.2,397.9c.2,0,.4,.1,.6,.3c.2,.1,.2,.3,.2,.6c0,.2,0,.4,-.2,.5c-.2,.2,-.4,.3,-.6,.3c-.2,0,-.4,-.1,-.6,-.3c-.1,-.1,-.2,-.3,-.2,-.5c0,-.3,.1,-.5,.2,-.6c.2,-.2,.4,-.3,.6,-.3Z" class="g4_41"/>
<path d="M438.1,397.4l-.7,2h-6v-.3c1.8,-1.6,3,-2.9,3.8,-3.9c.7,-1,1,-2,1,-2.8c0,-.7,-.2,-1.2,-.6,-1.6c-.4,-.4,-.8,-.6,-1.4,-.6c-.5,0,-.9,.1,-1.3,.4c-.4,.3,-.7,.7,-.9,1.3h-.3c.2,-.9,.5,-1.6,1,-2.1c.5,-.5,1.1,-.8,1.9,-.8c.8,0,1.5,.3,2.1,.8c.5,.6,.8,1.2,.8,1.9c0,.5,-.1,1,-.4,1.5c-.3,.8,-.9,1.7,-1.7,2.6c-1.3,1.4,-2.1,2.2,-2.4,2.4h2.7c.5,0,.9,0,1.1,0c.2,-.1,.4,-.1,.6,-.3c.2,-.1,.3,-.3,.4,-.5Z" class="g4_41"/>
<path d="M445.8,397.4l-.7,2h-6v-.3c1.7,-1.6,3,-2.9,3.7,-3.9c.7,-1,1.1,-2,1.1,-2.8c0,-.7,-.2,-1.2,-.6,-1.6c-.4,-.4,-.9,-.6,-1.4,-.6c-.5,0,-1,.1,-1.4,.4c-.4,.3,-.7,.7,-.8,1.3h-.3c.1,-.9,.4,-1.6,.9,-2.1c.5,-.5,1.2,-.8,2,-.8c.8,0,1.5,.3,2,.8c.6,.6,.8,1.2,.8,1.9c0,.5,-.1,1,-.3,1.5c-.4,.8,-1,1.7,-1.8,2.6c-1.2,1.4,-2,2.2,-2.3,2.4h2.6c.5,0,.9,0,1.1,0c.3,-.1,.5,-.1,.6,-.3c.2,-.1,.4,-.3,.5,-.5Z" class="g4_41"/>
<path d="M410.1,397.9c.2,0,.4,.1,.6,.3c.2,.1,.2,.3,.2,.6c0,.2,0,.4,-.2,.5c-.2,.2,-.4,.3,-.6,.3c-.2,0,-.4,-.1,-.6,-.3c-.1,-.1,-.2,-.3,-.2,-.5c0,-.3,.1,-.5,.2,-.6c.2,-.2,.4,-.3,.6,-.3Z" class="g4_41"/>
<path d="M482.8,372.1l.3,3.4h-.3c-.3,-1,-.7,-1.7,-1.3,-2.2c-.6,-.4,-1.2,-.7,-2.1,-.7c-.6,0,-1.2,.2,-1.8,.6c-.5,.3,-.9,.8,-1.2,1.6c-.4,.7,-.5,1.7,-.5,2.8c0,.9,.1,1.7,.4,2.3c.3,.7,.8,1.2,1.4,1.6c.5,.3,1.2,.5,2,.5c.6,0,1.2,-.1,1.7,-.4c.5,-.3,1.1,-.8,1.7,-1.7l.2,.2c-.5,.9,-1.1,1.5,-1.8,2c-.7,.4,-1.5,.6,-2.4,.6c-1.7,0,-3,-.6,-3.9,-1.9c-.7,-.9,-1,-2,-1,-3.3c0,-1,.2,-1.9,.7,-2.7c.4,-.9,1,-1.5,1.8,-2c.8,-.5,1.7,-.7,2.6,-.7c.8,0,1.5,.2,2.2,.5c.2,.1,.4,.2,.4,.2c.2,0,.3,0,.4,-.1c.1,-.2,.2,-.4,.3,-.6Z" class="g4_41"/>
<path d="M485.1,377.6c.6,-1.5,1.6,-2.2,2.9,-2.2c1,0,1.7,.4,2.4,1.1c.6,.7,.9,1.5,.9,2.4c0,1,-.3,1.8,-1,2.6c-.6,.8,-1.4,1.2,-2.4,1.2c-1.1,0,-1.9,-.5,-2.5,-1.4c-.5,-.8,-.8,-1.9,-.8,-3.2c0,-1,.1,-1.9,.4,-2.7c.3,-.9,.6,-1.5,.9,-2c.4,-.4,.7,-.7,1.1,-.9c.5,-.2,1.2,-.3,2.3,-.3c.7,0,1.2,0,1.3,-.1c.2,0,.3,-.1,.5,-.3h.3c-.2,.5,-.4,.9,-.6,1.1c-.3,.2,-.5,.3,-.8,.4c-.2,.1,-.7,.1,-1.4,.1c-.8,.1,-1.3,.1,-1.6,.2c-.2,.1,-.5,.3,-.9,.7c-.3,.3,-.5,.8,-.7,1.4c-.1,.6,-.2,1.2,-.3,1.9m2.7,-1.7c-.5,0,-.9,.2,-1.3,.6c-.3,.5,-.4,1.1,-.4,2c0,1.2,.2,2.1,.6,2.7c.4,.6,.9,.9,1.5,.9c.5,0,.9,-.2,1.2,-.6c.3,-.4,.5,-1.1,.5,-2.1c0,-1,-.2,-1.8,-.6,-2.5c-.4,-.6,-.9,-1,-1.5,-1Z" class="g4_41"/>
<path d="M493.7,381c.2,0,.4,.1,.6,.2c.1,.2,.2,.4,.2,.6c0,.3,-.1,.5,-.2,.6c-.2,.2,-.4,.3,-.6,.3c-.2,0,-.4,-.1,-.6,-.3c-.2,-.1,-.2,-.3,-.2,-.6c0,-.2,0,-.4,.2,-.6c.2,-.1,.4,-.2,.6,-.2Z" class="g4_41"/>
<path d="M464.9,397.4l-.7,2h-6v-.3c1.8,-1.6,3,-2.9,3.7,-3.9c.7,-1,1.1,-2,1.1,-2.8c0,-.7,-.2,-1.2,-.6,-1.6c-.4,-.4,-.9,-.6,-1.4,-.6c-.5,0,-1,.1,-1.3,.4c-.4,.3,-.7,.7,-.9,1.3h-.3c.1,-.9,.4,-1.6,1,-2.1c.5,-.5,1.1,-.8,1.9,-.8c.8,0,1.5,.3,2,.8c.6,.6,.9,1.2,.9,1.9c0,.5,-.2,1,-.4,1.5c-.4,.8,-1,1.7,-1.8,2.6c-1.2,1.4,-2,2.2,-2.3,2.4h2.6c.6,0,1,0,1.2,0c.2,-.1,.4,-.1,.6,-.3c.1,-.1,.3,-.3,.4,-.5Z" class="g4_41"/>
<path d="M472.5,397.4l-.7,2h-6v-.3c1.8,-1.6,3,-2.9,3.8,-3.9c.7,-1,1,-2,1,-2.8c0,-.7,-.2,-1.2,-.6,-1.6c-.4,-.4,-.8,-.6,-1.4,-.6c-.5,0,-.9,.1,-1.3,.4c-.4,.3,-.7,.7,-.9,1.3h-.3c.2,-.9,.5,-1.6,1,-2.1c.5,-.5,1.2,-.8,1.9,-.8c.8,0,1.5,.3,2.1,.8c.5,.6,.8,1.2,.8,1.9c0,.5,-.1,1,-.4,1.5c-.3,.8,-.9,1.7,-1.7,2.6c-1.3,1.4,-2.1,2.2,-2.4,2.4h2.7c.5,0,.9,0,1.1,0c.2,-.1,.4,-.1,.6,-.3c.2,-.1,.3,-.3,.4,-.5Z" class="g4_41"/>
<path d="M478.8,390.2l2.4,-1.2h.3v8.6c0,.6,0,.9,0,1c.1,.2,.2,.3,.3,.4c.2,0,.5,.1,1,.1v.3h-3.9v-.3c.5,0,.8,-.1,1,-.1c.1,-.1,.2,-.2,.3,-.3c0,-.1,0,-.5,0,-1.1v-5.5c0,-.7,0,-1.2,0,-1.4c-.1,-.2,-.1,-.3,-.2,-.3c-.1,-.1,-.2,-.2,-.4,-.2c-.1,0,-.4,.1,-.7,.3Z" class="g4_41"/>
<path d="M485.2,394.4c0,-1.2,.1,-2.2,.5,-3c.3,-.8,.8,-1.5,1.4,-1.9c.4,-.3,.9,-.5,1.4,-.5c.7,0,1.4,.4,2.1,1.2c.7,1,1.1,2.3,1.1,4c0,1.2,-.2,2.2,-.5,3c-.3,.8,-.8,1.4,-1.3,1.8c-.5,.4,-1,.5,-1.5,.5c-1,0,-1.8,-.5,-2.4,-1.7c-.6,-.9,-.8,-2.1,-.8,-3.4m1.4,.2c0,1.4,.2,2.5,.5,3.4c.3,.7,.8,1.1,1.3,1.1c.3,0,.6,-.1,.8,-.4c.3,-.2,.6,-.6,.7,-1.2c.2,-.8,.3,-2.1,.3,-3.6c0,-1.2,-.1,-2.1,-.3,-2.9c-.2,-.6,-.4,-1,-.7,-1.2c-.2,-.2,-.5,-.3,-.7,-.3c-.4,0,-.7,.2,-.9,.5c-.4,.4,-.6,1.1,-.8,1.9c-.1,.9,-.2,1.8,-.2,2.7Z" class="g4_41"/>
<path d="M494.2,397.9c.2,0,.4,.1,.6,.3c.1,.1,.2,.3,.2,.6c0,.2,-.1,.4,-.2,.5c-.2,.2,-.4,.3,-.6,.3c-.3,0,-.5,-.1,-.6,-.3c-.2,-.1,-.3,-.3,-.3,-.5c0,-.3,.1,-.5,.3,-.6c.1,-.2,.3,-.3,.6,-.3Z" class="g4_41"/>
<path d="M503.1,397.4l-.7,2h-6v-.3c1.8,-1.6,3,-2.9,3.7,-3.9c.7,-1,1.1,-2,1.1,-2.8c0,-.7,-.2,-1.2,-.6,-1.6c-.4,-.4,-.9,-.6,-1.4,-.6c-.5,0,-1,.1,-1.4,.4c-.3,.3,-.6,.7,-.8,1.3h-.3c.1,-.9,.4,-1.6,1,-2.1c.5,-.5,1.1,-.8,1.9,-.8c.8,0,1.5,.3,2,.8c.6,.6,.9,1.2,.9,1.9c0,.5,-.2,1,-.4,1.5c-.4,.8,-1,1.7,-1.8,2.6c-1.2,1.4,-2,2.2,-2.3,2.4h2.6c.6,0,.9,0,1.2,0c.2,-.1,.4,-.1,.5,-.3c.2,-.1,.4,-.3,.5,-.5Z" class="g4_41"/>
<path d="M510.7,397.4l-.7,2h-6v-.3c1.8,-1.6,3,-2.9,3.8,-3.9c.7,-1,1,-2,1,-2.8c0,-.7,-.2,-1.2,-.6,-1.6c-.4,-.4,-.8,-.6,-1.4,-.6c-.5,0,-.9,.1,-1.3,.4c-.4,.3,-.7,.7,-.9,1.3h-.3c.2,-.9,.5,-1.6,1,-2.1c.5,-.5,1.1,-.8,1.9,-.8c.8,0,1.5,.3,2.1,.8c.5,.6,.8,1.2,.8,1.9c0,.5,-.1,1,-.4,1.5c-.3,.8,-.9,1.7,-1.7,2.6c-1.3,1.4,-2.1,2.2,-2.4,2.4h2.7c.5,0,.9,0,1.1,0c.2,-.1,.4,-.1,.6,-.3c.2,-.1,.3,-.3,.4,-.5Z" class="g4_41"/>
<path d="M475.1,397.9c.2,0,.4,.1,.6,.3c.1,.1,.2,.3,.2,.6c0,.2,-.1,.4,-.2,.5c-.2,.2,-.4,.3,-.6,.3c-.3,0,-.5,-.1,-.6,-.3c-.2,-.1,-.3,-.3,-.3,-.5c0,-.3,.1,-.5,.3,-.6c.1,-.2,.3,-.3,.6,-.3Z" class="g4_41"/>
<path d="M541.4,377h4.7v-2.9c0,-.5,0,-.8,-.1,-1c0,-.1,-.1,-.2,-.3,-.3c-.2,-.1,-.4,-.2,-.7,-.2h-.3v-.3H549v.3h-.4c-.2,0,-.4,.1,-.7,.2c-.1,.1,-.2,.2,-.3,.3c0,.2,-.1,.5,-.1,1v6.6c0,.5,.1,.8,.1,1c.1,.1,.2,.2,.3,.3c.3,.1,.5,.2,.7,.2h.4v.3h-4.3v-.3h.3c.4,0,.7,-.1,.9,-.4c.1,-.1,.2,-.5,.2,-1.1v-3.1h-4.7v3.1c0,.5,0,.8,.1,1c.1,.1,.2,.2,.3,.3c.2,.1,.5,.2,.7,.2h.4v.3h-4.4v-.3h.4c.4,0,.7,-.1,.9,-.4c.1,-.1,.2,-.5,.2,-1.1v-6.6c0,-.5,-.1,-.8,-.1,-1c-.1,-.1,-.2,-.2,-.3,-.3c-.2,-.1,-.5,-.2,-.7,-.2h-.4v-.3h4.4v.3h-.4c-.2,0,-.5,.1,-.7,.2c-.1,.1,-.2,.2,-.3,.3c-.1,.2,-.1,.5,-.1,1Z" class="g4_41"/>
<path d="M550.7,375.6h6v.3c-.3,0,-.5,0,-.6,.1c-.2,.1,-.2,.2,-.3,.3c-.1,0,-.1,.4,-.1,.9v3.4c0,.7,.1,1.1,.2,1.3c.1,.2,.4,.3,.8,.3v2.1h-.2c-.1,-.4,-.2,-.7,-.4,-1c-.1,-.3,-.4,-.5,-.7,-.7c-.3,-.1,-.8,-.2,-1.4,-.2h-1.8c-.5,0,-1,.1,-1.3,.2c-.3,.1,-.5,.3,-.8,.6c-.2,.3,-.3,.7,-.3,1.1h-.3v-2.1c.4,0,.8,-.2,1.1,-.5c.3,-.3,.6,-.9,.9,-1.8c.2,-.9,.4,-1.8,.4,-2.7c0,-.8,-.4,-1.3,-1.2,-1.3Zm1.7,.5v.4c0,2.5,-.5,4.3,-1.4,5.5h2.6c.4,0,.7,-.1,.8,-.2c0,0,.1,-.3,.1,-.8v-4.9Z" class="g4_41"/>
<path d="M559,381c.2,0,.4,.1,.6,.2c.1,.2,.2,.4,.2,.6c0,.3,-.1,.5,-.2,.6c-.2,.2,-.4,.3,-.6,.3c-.2,0,-.4,-.1,-.6,-.3c-.2,-.1,-.2,-.3,-.2,-.6c0,-.2,0,-.4,.2,-.6c.2,-.1,.4,-.2,.6,-.2Z" class="g4_41"/>
<path d="M529.8,397.4l-.7,2h-5.9v-.3c1.7,-1.6,3,-2.9,3.7,-3.9c.7,-1,1.1,-2,1.1,-2.8c0,-.7,-.2,-1.2,-.6,-1.6c-.4,-.4,-.9,-.6,-1.4,-.6c-.5,0,-1,.1,-1.4,.4c-.4,.3,-.7,.7,-.9,1.3h-.2c.1,-.9,.4,-1.6,.9,-2.1c.5,-.5,1.2,-.8,1.9,-.8c.9,0,1.6,.3,2.1,.8c.6,.6,.8,1.2,.8,1.9c0,.5,-.1,1,-.3,1.5c-.4,.8,-1,1.7,-1.8,2.6c-1.3,1.4,-2,2.2,-2.3,2.4h2.6c.5,0,.9,0,1.1,0c.2,-.1,.4,-.1,.6,-.3c.2,-.1,.3,-.3,.5,-.5Z" class="g4_41"/>
<path d="M531.3,391.2c.2,-.7,.6,-1.2,1,-1.6c.5,-.4,1,-.6,1.7,-.6c.8,0,1.4,.3,1.9,.8c.3,.4,.5,.8,.5,1.3c0,.7,-.5,1.5,-1.4,2.3c.6,.2,1.1,.6,1.4,1c.3,.5,.5,1,.5,1.6c0,.9,-.3,1.7,-.9,2.3c-.7,.8,-1.8,1.2,-3.1,1.2c-.7,0,-1.2,0,-1.4,-.2c-.3,-.2,-.4,-.4,-.4,-.5c0,-.2,.1,-.3,.2,-.4c.1,-.1,.2,-.2,.4,-.2c.1,0,.2,0,.4,.1c.1,0,.3,.1,.6,.2c.2,.2,.5,.3,.6,.3c.2,.1,.4,.1,.6,.1c.5,0,.9,-.2,1.3,-.6c.4,-.4,.5,-.8,.5,-1.4c0,-.4,0,-.8,-.2,-1.1c-.1,-.3,-.3,-.5,-.4,-.7c-.3,-.2,-.5,-.3,-.9,-.5c-.4,-.2,-.8,-.3,-1.2,-.3h-.2v-.2c.4,0,.8,-.2,1.2,-.4c.4,-.2,.7,-.5,.8,-.8c.2,-.4,.3,-.7,.3,-1.1c0,-.5,-.1,-.9,-.5,-1.3c-.3,-.3,-.7,-.4,-1.2,-.4c-.7,0,-1.4,.4,-1.9,1.2Z" class="g4_41"/>
<path d="M543.7,390.2l2.5,-1.2h.2v8.6c0,.6,.1,.9,.1,1c.1,.2,.2,.3,.3,.4c.2,0,.5,.1,.9,.1v.3h-3.8v-.3c.5,0,.8,-.1,.9,-.1c.2,-.1,.3,-.2,.3,-.3c.1,-.1,.1,-.5,.1,-1.1v-5.5c0,-.7,0,-1.2,-.1,-1.4c0,-.2,-.1,-.3,-.2,-.3c-.1,-.1,-.2,-.2,-.3,-.2c-.2,0,-.4,.1,-.8,.3Z" class="g4_41"/>
<path d="M550.1,394.4c0,-1.2,.2,-2.2,.6,-3c.3,-.8,.8,-1.5,1.3,-1.9c.5,-.3,.9,-.5,1.4,-.5c.8,0,1.5,.4,2.1,1.2c.8,1,1.2,2.3,1.2,4c0,1.2,-.2,2.2,-.5,3c-.4,.8,-.8,1.4,-1.3,1.8c-.6,.4,-1.1,.5,-1.5,.5c-1,0,-1.8,-.5,-2.5,-1.7c-.5,-.9,-.8,-2.1,-.8,-3.4m1.5,.2c0,1.4,.2,2.5,.5,3.4c.3,.7,.7,1.1,1.3,1.1c.2,0,.5,-.1,.8,-.4c.3,-.2,.5,-.6,.7,-1.2c.2,-.8,.3,-2.1,.3,-3.6c0,-1.2,-.1,-2.1,-.3,-2.9c-.2,-.6,-.5,-1,-.7,-1.2c-.2,-.2,-.5,-.3,-.8,-.3c-.3,0,-.6,.2,-.9,.5c-.3,.4,-.6,1.1,-.7,1.9c-.1,.9,-.2,1.8,-.2,2.7Z" class="g4_41"/>
<path d="M559.1,397.9c.3,0,.5,.1,.6,.3c.2,.1,.3,.3,.3,.6c0,.2,-.1,.4,-.3,.5c-.1,.2,-.3,.3,-.6,.3c-.2,0,-.4,-.1,-.6,-.3c-.1,-.1,-.2,-.3,-.2,-.5c0,-.3,.1,-.5,.2,-.6c.2,-.2,.4,-.3,.6,-.3Z" class="g4_41"/>
<path d="M568,397.4l-.7,2h-5.9v-.3c1.7,-1.6,3,-2.9,3.7,-3.9c.7,-1,1,-2,1,-2.8c0,-.7,-.1,-1.2,-.5,-1.6c-.4,-.4,-.9,-.6,-1.5,-.6c-.5,0,-.9,.1,-1.3,.4c-.4,.3,-.7,.7,-.9,1.3h-.2c.1,-.9,.4,-1.6,.9,-2.1c.5,-.5,1.2,-.8,1.9,-.8c.9,0,1.5,.3,2.1,.8c.5,.6,.8,1.2,.8,1.9c0,.5,-.1,1,-.3,1.5c-.4,.8,-1,1.7,-1.8,2.6c-1.3,1.4,-2,2.2,-2.3,2.4h2.6c.5,0,.9,0,1.1,0c.2,-.1,.4,-.1,.6,-.3c.2,-.1,.3,-.3,.5,-.5Z" class="g4_41"/>
<path d="M575.7,397.4l-.7,2h-6v-.3c1.8,-1.6,3,-2.9,3.7,-3.9c.7,-1,1.1,-2,1.1,-2.8c0,-.7,-.2,-1.2,-.6,-1.6c-.4,-.4,-.9,-.6,-1.4,-.6c-.5,0,-1,.1,-1.4,.4c-.3,.3,-.6,.7,-.8,1.3h-.3c.1,-.9,.4,-1.6,1,-2.1c.5,-.5,1.1,-.8,1.9,-.8c.8,0,1.5,.3,2,.8c.6,.6,.9,1.2,.9,1.9c0,.5,-.2,1,-.4,1.5c-.4,.8,-1,1.7,-1.8,2.6c-1.2,1.4,-2,2.2,-2.3,2.4h2.6c.6,0,.9,0,1.2,0c.2,-.1,.4,-.1,.5,-.3c.2,-.1,.4,-.3,.5,-.5Z" class="g4_41"/>
<path d="M540,397.9c.3,0,.5,.1,.6,.3c.2,.1,.3,.3,.3,.6c0,.2,-.1,.4,-.3,.5c-.1,.2,-.3,.3,-.6,.3c-.2,0,-.4,-.1,-.6,-.3c-.1,-.1,-.2,-.3,-.2,-.5c0,-.3,.1,-.5,.2,-.6c.2,-.2,.4,-.3,.6,-.3Z" class="g4_41"/>
<path d="M610.9,372.9h-4.7v7.7c0,.7,.1,1.1,.3,1.3c.1,.2,.5,.3,1.2,.3v.3h-4.4v-.3c.6,0,1,-.1,1.2,-.3c.2,-.2,.3,-.6,.3,-1.3v-6.4c0,-.7,-.1,-1.1,-.3,-1.3c-.2,-.2,-.6,-.3,-1.2,-.3v-.3h10.5v.3c-.6,0,-1,.1,-1.2,.3c-.2,.2,-.3,.6,-.3,1.3v6.4c0,.7,.1,1.1,.3,1.3c.2,.2,.6,.3,1.2,.3v.3h-4.4v-.3c.7,0,1.1,-.1,1.2,-.3c.2,-.2,.3,-.6,.3,-1.3Z" class="g4_41"/>
<path d="M616.7,378.7h2.9v-1.5c0,-.4,0,-.7,0,-.8c-.1,-.2,-.1,-.3,-.3,-.4c-.1,-.1,-.4,-.1,-.7,-.1v-.3h3.3v.3c-.3,0,-.5,0,-.7,.1c-.1,.1,-.2,.2,-.3,.3c0,.1,0,.4,0,.9v3.6c0,.5,0,.8,0,.9c0,.1,.1,.3,.3,.3c.1,.1,.4,.2,.7,.2v.3h-3.3v-.3c.4,0,.7,-.1,.8,-.3c.2,-.1,.2,-.5,.2,-1.1v-1.6h-2.9v1.6c0,.5,0,.8,0,.9c.1,.1,.2,.3,.3,.3c.1,.1,.4,.2,.7,.2v.3h-3.3v-.3c.4,0,.7,-.1,.9,-.3c.1,-.1,.1,-.5,.1,-1.1v-3.6c0,-.4,0,-.7,0,-.8c-.1,-.2,-.1,-.3,-.3,-.4c-.1,-.1,-.4,-.1,-.7,-.1v-.3h3.3v.3c-.3,0,-.5,0,-.7,.1c-.1,.1,-.2,.2,-.3,.3c0,.1,0,.4,0,.9Z" class="g4_41"/>
<path d="M624.1,381c.3,0,.5,.1,.6,.2c.2,.2,.3,.4,.3,.6c0,.3,-.1,.5,-.3,.6c-.1,.2,-.3,.3,-.6,.3c-.2,0,-.4,-.1,-.5,-.3c-.2,-.1,-.3,-.3,-.3,-.6c0,-.2,.1,-.4,.3,-.6c.1,-.1,.3,-.2,.5,-.2Z" class="g4_41"/>
<path d="M594.8,397.4l-.7,2h-6v-.3c1.8,-1.6,3,-2.9,3.7,-3.9c.8,-1,1.1,-2,1.1,-2.8c0,-.7,-.2,-1.2,-.6,-1.6c-.4,-.4,-.8,-.6,-1.4,-.6c-.5,0,-.9,.1,-1.3,.4c-.4,.3,-.7,.7,-.9,1.3h-.3c.1,-.9,.5,-1.6,1,-2.1c.5,-.5,1.1,-.8,1.9,-.8c.8,0,1.5,.3,2.1,.8c.5,.6,.8,1.2,.8,1.9c0,.5,-.1,1,-.4,1.5c-.3,.8,-.9,1.7,-1.8,2.6c-1.2,1.4,-2,2.2,-2.3,2.4h2.7c.5,0,.9,0,1.1,0c.2,-.1,.4,-.1,.6,-.3c.1,-.1,.3,-.3,.4,-.5Z" class="g4_41"/>
<path d="M602.6,395.6v1.1h-1.4v2.7H600v-2.7h-4.3v-1l4.7,-6.7h.8v6.6Zm-2.6,0v-5l-3.6,5Z" class="g4_41"/>
<path d="M608.7,390.2l2.5,-1.2h.2v8.6c0,.6,0,.9,.1,1c0,.2,.1,.3,.3,.4c.1,0,.4,.1,.9,.1v.3h-3.8v-.3c.4,0,.8,-.1,.9,-.1c.1,-.1,.2,-.2,.3,-.3c0,-.1,.1,-.5,.1,-1.1v-5.5c0,-.7,-.1,-1.2,-.1,-1.4c0,-.2,-.1,-.3,-.2,-.3c-.1,-.1,-.2,-.2,-.3,-.2c-.2,0,-.5,.1,-.8,.3Z" class="g4_41"/>
<path d="M615.1,394.4c0,-1.2,.2,-2.2,.5,-3c.4,-.8,.8,-1.5,1.4,-1.9c.4,-.3,.9,-.5,1.4,-.5c.8,0,1.5,.4,2.1,1.2c.7,1,1.1,2.3,1.1,4c0,1.2,-.1,2.2,-.5,3c-.3,.8,-.7,1.4,-1.3,1.8c-.5,.4,-1,.5,-1.5,.5c-1,0,-1.8,-.5,-2.4,-1.7c-.5,-.9,-.8,-2.1,-.8,-3.4m1.5,.2c0,1.4,.1,2.5,.5,3.4c.2,.7,.7,1.1,1.2,1.1c.3,0,.6,-.1,.9,-.4c.3,-.2,.5,-.6,.6,-1.2c.3,-.8,.4,-2.1,.4,-3.6c0,-1.2,-.2,-2.1,-.4,-2.9c-.2,-.6,-.4,-1,-.7,-1.2c-.2,-.2,-.4,-.3,-.7,-.3c-.4,0,-.7,.2,-.9,.5c-.4,.4,-.6,1.1,-.8,1.9c-.1,.9,-.1,1.8,-.1,2.7Z" class="g4_41"/>
<path d="M624.1,397.9c.2,0,.4,.1,.6,.3c.1,.1,.2,.3,.2,.6c0,.2,-.1,.4,-.2,.5c-.2,.2,-.4,.3,-.6,.3c-.2,0,-.4,-.1,-.6,-.3c-.2,-.1,-.2,-.3,-.2,-.5c0,-.3,0,-.5,.2,-.6c.2,-.2,.4,-.3,.6,-.3Z" class="g4_41"/>
<path d="M633,397.4l-.7,2h-6v-.3c1.8,-1.6,3,-2.9,3.7,-3.9c.7,-1,1.1,-2,1.1,-2.8c0,-.7,-.2,-1.2,-.6,-1.6c-.4,-.4,-.8,-.6,-1.4,-.6c-.5,0,-.9,.1,-1.3,.4c-.4,.3,-.7,.7,-.9,1.3h-.3c.1,-.9,.5,-1.6,1,-2.1c.5,-.5,1.1,-.8,1.9,-.8c.8,0,1.5,.3,2.1,.8c.5,.6,.8,1.2,.8,1.9c0,.5,-.1,1,-.4,1.5c-.3,.8,-.9,1.7,-1.8,2.6c-1.2,1.4,-2,2.2,-2.3,2.4h2.7c.5,0,.9,0,1.1,0c.2,-.1,.4,-.1,.6,-.3c.1,-.1,.3,-.3,.4,-.5Z" class="g4_41"/>
<path d="M640.6,397.4l-.7,2H634v-.3c1.7,-1.6,3,-2.9,3.7,-3.9c.7,-1,1,-2,1,-2.8c0,-.7,-.1,-1.2,-.5,-1.6c-.4,-.4,-.9,-.6,-1.5,-.6c-.5,0,-.9,.1,-1.3,.4c-.4,.3,-.7,.7,-.9,1.3h-.2c.1,-.9,.4,-1.6,.9,-2.1c.5,-.5,1.2,-.8,1.9,-.8c.9,0,1.5,.3,2.1,.8c.5,.6,.8,1.2,.8,1.9c0,.5,-.1,1,-.3,1.5c-.4,.8,-1,1.7,-1.8,2.6c-1.3,1.4,-2,2.2,-2.3,2.4h2.6c.5,0,.9,0,1.1,0c.2,-.1,.4,-.1,.6,-.3c.2,-.1,.3,-.3,.5,-.5Z" class="g4_41"/>
<path d="M605,397.9c.2,0,.4,.1,.6,.3c.1,.1,.2,.3,.2,.6c0,.2,-.1,.4,-.2,.5c-.2,.2,-.4,.3,-.6,.3c-.2,0,-.4,-.1,-.6,-.3c-.2,-.1,-.2,-.3,-.2,-.5c0,-.3,0,-.5,.2,-.6c.2,-.2,.4,-.3,.6,-.3Z" class="g4_41"/>
<path d="M676.8,377.3c.7,.1,1.2,.4,1.6,.7c.4,.5,.7,1,.7,1.7c0,.5,-.2,1,-.5,1.4c-.3,.5,-.7,.8,-1.3,1c-.6,.2,-1.4,.3,-2.5,.3H670v-.2h.4c.4,0,.7,-.2,.9,-.4c.1,-.2,.1,-.6,.1,-1.1v-6.6c0,-.6,0,-1,-.2,-1.2c-.2,-.2,-.5,-.3,-.8,-.3H670v-.3h4.4c.8,0,1.4,.1,1.9,.2c.8,.2,1.3,.5,1.7,1c.4,.4,.6,.9,.6,1.5c0,.5,-.1,1,-.4,1.4c-.4,.4,-.8,.7,-1.4,.9m-3.9,-.4c.2,0,.4,0,.6,.1c.2,0,.5,0,.8,0c.7,0,1.3,-.1,1.6,-.2c.4,-.2,.7,-.4,.9,-.8c.2,-.3,.3,-.6,.3,-1c0,-.6,-.3,-1.1,-.8,-1.5c-.5,-.5,-1.2,-.7,-2.1,-.7c-.5,0,-.9,.1,-1.3,.2Zm0,4.8c.6,.2,1.1,.2,1.7,.2c.9,0,1.6,-.2,2,-.6c.5,-.4,.8,-.9,.8,-1.5c0,-.4,-.2,-.8,-.4,-1.1c-.2,-.4,-.5,-.7,-1,-.9c-.5,-.2,-1.1,-.3,-1.8,-.3c-.3,0,-.6,0,-.8,0c-.2,0,-.4,0,-.5,.1Z" class="g4_41"/>
<path d="M680.3,375.6h5.9l.3,1.9h-.3c-.1,-.4,-.2,-.7,-.3,-.9c-.2,-.2,-.3,-.3,-.5,-.4c-.2,-.1,-.5,-.1,-.9,-.1h-.6v4.7c0,.6,0,.9,.1,1c0,.1,.1,.2,.3,.3c.1,0,.4,.1,.9,.1v.2h-3.7v-.2c.5,0,.8,-.1,.9,-.3c.2,-.1,.2,-.5,.2,-1.1v-4.7H682c-.4,0,-.7,0,-.8,.1c-.2,0,-.4,.2,-.5,.4c-.1,.1,-.3,.5,-.4,.9H680Z" class="g4_41"/>
<path d="M687.4,381c.2,0,.4,.1,.5,.2c.2,.2,.3,.4,.3,.6c0,.3,-.1,.5,-.3,.6c-.1,.2,-.3,.3,-.5,.3c-.3,0,-.5,-.1,-.6,-.3c-.2,-.1,-.3,-.3,-.3,-.6c0,-.2,.1,-.4,.3,-.6c.1,-.1,.3,-.2,.6,-.2Z" class="g4_41"/>
<path d="M659.8,397.4l-.7,2h-6v-.3c1.7,-1.6,3,-2.9,3.7,-3.9c.7,-1,1.1,-2,1.1,-2.8c0,-.7,-.2,-1.2,-.6,-1.6c-.4,-.4,-.9,-.6,-1.4,-.6c-.5,0,-1,.1,-1.4,.4c-.4,.3,-.7,.7,-.8,1.3h-.3c.1,-.9,.4,-1.6,.9,-2.1c.6,-.5,1.2,-.8,2,-.8c.8,0,1.5,.3,2,.8c.6,.6,.8,1.2,.8,1.9c0,.5,-.1,1,-.3,1.5c-.4,.8,-1,1.7,-1.8,2.6c-1.2,1.4,-2,2.2,-2.3,2.4h2.6c.6,0,.9,0,1.2,0c.2,-.1,.4,-.1,.5,-.3c.2,-.1,.4,-.3,.5,-.5Z" class="g4_41"/>
<path d="M667,389.3l-.5,1.2h-3.1l-.7,1.4c1.4,.2,2.4,.7,3.2,1.5c.6,.6,1,1.4,1,2.3c0,.6,-.1,1.1,-.4,1.5c-.2,.5,-.4,.9,-.8,1.2c-.3,.3,-.7,.5,-1.1,.7c-.5,.3,-1.1,.4,-1.7,.4c-.6,0,-1.1,-.1,-1.4,-.3c-.2,-.2,-.4,-.4,-.4,-.6c0,-.2,.1,-.3,.2,-.4c.1,-.1,.3,-.2,.4,-.2c.2,0,.3,0,.4,.1c.1,0,.2,.1,.5,.3c.3,.3,.7,.4,1.1,.4c.6,0,1.1,-.2,1.5,-.7c.5,-.4,.7,-1,.7,-1.6c0,-.6,-.2,-1.2,-.6,-1.7c-.4,-.5,-.9,-.9,-1.6,-1.2c-.6,-.2,-1.3,-.4,-2.2,-.4l1.9,-3.9Z" class="g4_41"/>
<path d="M673.6,390.2l2.5,-1.2h.3v8.6c0,.6,0,.9,0,1c.1,.2,.2,.3,.3,.4c.2,0,.5,.1,.9,.1v.3h-3.8v-.3c.5,0,.8,-.1,1,-.1c.1,-.1,.2,-.2,.2,-.3c.1,-.1,.1,-.5,.1,-1.1v-5.5c0,-.7,0,-1.2,0,-1.4c-.1,-.2,-.1,-.3,-.2,-.3c-.1,-.1,-.2,-.2,-.4,-.2c-.2,0,-.4,.1,-.7,.3Z" class="g4_41"/>
<path d="M680.1,394.4c0,-1.2,.1,-2.2,.5,-3c.3,-.8,.8,-1.5,1.4,-1.9c.4,-.3,.9,-.5,1.3,-.5c.8,0,1.5,.4,2.1,1.2c.8,1,1.2,2.3,1.2,4c0,1.2,-.2,2.2,-.5,3c-.4,.8,-.8,1.4,-1.3,1.8c-.5,.4,-1,.5,-1.5,.5c-1,0,-1.8,-.5,-2.4,-1.7c-.6,-.9,-.8,-2.1,-.8,-3.4m1.4,.2c0,1.4,.2,2.5,.5,3.4c.3,.7,.7,1.1,1.3,1.1c.3,0,.5,-.1,.8,-.4c.3,-.2,.5,-.6,.7,-1.2c.2,-.8,.3,-2.1,.3,-3.6c0,-1.2,-.1,-2.1,-.3,-2.9c-.2,-.6,-.4,-1,-.7,-1.2c-.2,-.2,-.5,-.3,-.8,-.3c-.3,0,-.6,.2,-.9,.5c-.3,.4,-.6,1.1,-.7,1.9c-.1,.9,-.2,1.8,-.2,2.7Z" class="g4_41"/>
<path d="M689,397.9c.3,0,.5,.1,.6,.3c.2,.1,.3,.3,.3,.6c0,.2,-.1,.4,-.3,.5c-.1,.2,-.3,.3,-.6,.3c-.2,0,-.4,-.1,-.5,-.3c-.2,-.1,-.3,-.3,-.3,-.5c0,-.3,.1,-.5,.3,-.6c.1,-.2,.3,-.3,.5,-.3Z" class="g4_41"/>
<path d="M698,397.4l-.7,2h-6v-.3c1.7,-1.6,3,-2.9,3.7,-3.9c.7,-1,1.1,-2,1.1,-2.8c0,-.7,-.2,-1.2,-.6,-1.6c-.4,-.4,-.9,-.6,-1.4,-.6c-.5,0,-1,.1,-1.4,.4c-.4,.3,-.7,.7,-.8,1.3h-.3c.1,-.9,.4,-1.6,.9,-2.1c.6,-.5,1.2,-.8,2,-.8c.8,0,1.5,.3,2,.8c.6,.6,.8,1.2,.8,1.9c0,.5,-.1,1,-.3,1.5c-.4,.8,-1,1.7,-1.8,2.6c-1.2,1.4,-2,2.2,-2.3,2.4h2.6c.6,0,.9,0,1.1,0c.3,-.1,.5,-.1,.6,-.3c.2,-.1,.4,-.3,.5,-.5Z" class="g4_41"/>
<path d="M705.6,397.4l-.7,2h-6v-.3c1.8,-1.6,3,-2.9,3.7,-3.9c.7,-1,1.1,-2,1.1,-2.8c0,-.7,-.2,-1.2,-.6,-1.6c-.4,-.4,-.8,-.6,-1.4,-.6c-.5,0,-.9,.1,-1.3,.4c-.4,.3,-.7,.7,-.9,1.3h-.3c.1,-.9,.5,-1.6,1,-2.1c.5,-.5,1.1,-.8,1.9,-.8c.8,0,1.5,.3,2.1,.8c.5,.6,.8,1.2,.8,1.9c0,.5,-.1,1,-.4,1.5c-.3,.8,-.9,1.7,-1.8,2.6c-1.2,1.4,-2,2.2,-2.3,2.4h2.7c.5,0,.9,0,1.1,0c.2,-.1,.4,-.1,.6,-.3c.1,-.1,.3,-.3,.4,-.5Z" class="g4_41"/>
<path d="M670,397.9c.2,0,.4,.1,.5,.3c.2,.1,.3,.3,.3,.6c0,.2,-.1,.4,-.3,.5c-.1,.2,-.3,.3,-.5,.3c-.3,0,-.5,-.1,-.6,-.3c-.2,-.1,-.3,-.3,-.3,-.5c0,-.3,.1,-.5,.3,-.6c.1,-.2,.3,-.3,.6,-.3Z" class="g4_41"/>
<path fill-rule="evenodd" d="M281.3,253.5l7.2,-7.3l7.2,7.3l-7.2,7.2Z" class="g5_41"/>
<path fill-rule="evenodd" d="M346.2,318.5l7.3,-7.2l7.2,7.2l-7.2,7.2Z" class="g5_41"/>
<path fill-rule="evenodd" d="M411.2,296.4l7.2,-7.2l7.2,7.2l-7.2,7.3Z" class="g5_41"/>
<path fill-rule="evenodd" d="M476.2,253.5l7.2,-7.3l7.2,7.3l-7.2,7.2Z" class="g5_41"/>
<path fill-rule="evenodd" d="M541.1,232l7.2,-7.3l7.3,7.3l-7.3,7.2Z" class="g5_41"/>
<path fill-rule="evenodd" d="M606.1,209.9l7.2,-7.2l7.2,7.2l-7.2,7.2Z" class="g5_41"/>
<path fill-rule="evenodd" d="M671,167.5l7.3,-7.3l7.2,7.3l-7.2,7.2Z" class="g5_41"/>
<path d="M185.7,1080.4h648V943h-648v137.4Z" class="g6_41"/>
<path d="M133.7,980.5h39.6V943H133.7v37.5Z" class="g7_41"/>
<path clip-path="url(#c0_41)" d="M153.9,965.6c-2,.1,-3.7,-1.6,-3.6,-3.7c.1,-1.7,1.5,-3,3.2,-3.2c2.1,-.1,3.8,1.6,3.6,3.7c-.1,1.7,-1.5,3.1,-3.2,3.2m.2,2.9c-3.8,.2,-7,-2.9,-6.7,-6.8c.2,-3.1,2.7,-5.7,5.9,-5.9c3.8,-.2,7,2.9,6.7,6.8c-.2,3.1,-2.7,5.7,-5.9,5.9m-.4,-15.3c-5.8,0,-11,3.1,-14.8,8.2c-.4,.5,-.4,1.1,0,1.5c3.8,5.1,9,8.3,14.8,8.3c5.8,0,11,-3.2,14.9,-8.3c.3,-.4,.3,-1,0,-1.4c-3.9,-5.2,-9.1,-8.3,-14.9,-8.3Z" class="g8_41"/>
</svg>