<?xml version="1.0" encoding="UTF-8" standalone="no"?>
<!DOCTYPE svg PUBLIC "-//W3C//DTD SVG 1.1//EN"
"http://www.w3.org/Graphics/SVG/1.1/DTD/svg11.dtd">
<svg viewBox="0 0 909 1147" version="1.1" xmlns="http://www.w3.org/2000/svg" xmlns:xlink="http://www.w3.org/1999/xlink">
<defs>
<clipPath id="c0_102"><path d="M0,1147.6V0H909.4V1147.6Z"/></clipPath>
<style type="text/css"><![CDATA[
.g0_102{
fill: #FFF0E3;
}
.g1_102{
fill: #B6D774;
}
.g2_102{
fill: none;
stroke: #ABE1FA;
stroke-width: 0.763;
stroke-miterlimit: 10;
}
.g3_102{
fill: none;
stroke: #000;
stroke-width: 0.763;
}
.g4_102{
fill: #FFF;
}
]]></style>
</defs>
<path d="M0,1131H73.8v-51.5H0V1131Z" class="g1_102"/>
<g clip-path="url(#c0_102)" opacity="0.5">
<path d="M170.8,280.7L144.9,263.8L196.8,229l26,34.8Z" class="g0_102"/>
</g>
<path d="M135.8,220.2h9m-8.7,8.3v-7.9m8.7,-.4h8.7m-8.7,8.3v-7.9m8.7,-.4h8.6m-8.6,8.3v-7.9m8.6,-.4h8.7m-8.7,8.3v-7.9m8.7,-.4h8.6m-8.6,8.3v-7.9m8.6,-.4h8.7m-8.7,8.3v-7.9m8.7,-.4h8.7m-8.7,8.3v-7.9m8.7,-.4h8.6m-8.6,8.3v-7.9m8.6,-.4h8.7m-8.7,8.3v-7.9m8.7,-.4h8.7m-8.7,8.3v-7.9m8.7,-.4h9m-9,8.3v-7.9m8.6,7.9v-7.9m-95.6,8.3h9m-8.7,8.3v-7.9m8.7,-.4h8.7m-8.7,8.3v-7.9m8.7,-.4h8.6m-8.6,8.3v-7.9m8.6,-.4h8.7m-8.7,8.3v-7.9m8.7,-.4h8.6m-8.6,8.3v-7.9m8.6,-.4h8.7m-8.7,8.3v-7.9m8.7,-.4h8.7m-8.7,8.3v-7.9m8.7,-.4h8.6m-8.6,8.3v-7.9m8.6,-.4h8.7m-8.7,8.3v-7.9m8.7,-.4h8.7m-8.7,8.3v-7.9m8.7,-.4h9m-9,8.3v-7.9m8.6,7.9v-7.9m-95.6,8.3h9m-8.7,8.2v-7.9m8.7,-.3h8.7m-8.7,8.2v-7.9m8.7,-.3h8.6m-8.6,8.2v-7.9m8.6,-.3h8.7m-8.7,8.2v-7.9m8.7,-.3h8.6m-8.6,8.2v-7.9m8.6,-.3h8.7m-8.7,8.2v-7.9m8.7,-.3h8.7m-8.7,8.2v-7.9m8.7,-.3h8.6m-8.6,8.2v-7.9m8.6,-.3h8.7m-8.7,8.2v-7.9m8.7,-.3h8.7m-8.7,8.2v-7.9m8.7,-.3h9m-9,8.2v-7.9m8.6,7.9v-7.9m-95.6,8.3h9m-8.7,8.3v-7.9m8.7,-.4h8.7m-8.7,8.3v-7.9m8.7,-.4h8.6m-8.6,8.3v-7.9m8.6,-.4h8.7m-8.7,8.3v-7.9m8.7,-.4h8.6m-8.6,8.3v-7.9m8.6,-.4h8.7m-8.7,8.3v-7.9m8.7,-.4h8.7m-8.7,8.3v-7.9m8.7,-.4h8.6m-8.6,8.3v-7.9m8.6,-.4h8.7m-8.7,8.3v-7.9m8.7,-.4h8.7m-8.7,8.3v-7.9m8.7,-.4h9m-9,8.3v-7.9m8.6,7.9v-7.9m-95.6,8.3h9m-8.7,8.3v-7.9m8.7,-.4h8.7m-8.7,8.3v-7.9m8.7,-.4h8.6m-8.6,8.3v-7.9m8.6,-.4h8.7m-8.7,8.3v-7.9m8.7,-.4h8.6m-8.6,8.3v-7.9m8.6,-.4h8.7m-8.7,8.3v-7.9m8.7,-.4h8.7m-8.7,8.3v-7.9m8.7,-.4h8.6m-8.6,8.3v-7.9m8.6,-.4h8.7m-8.7,8.3v-7.9m8.7,-.4h8.7m-8.7,8.3v-7.9m8.7,-.4h9m-9,8.3v-7.9m8.6,7.9v-7.9m-95.6,8.2h9m-8.7,8.3v-7.9m8.7,-.4h8.7m-8.7,8.3v-7.9m8.7,-.4h8.6m-8.6,8.3v-7.9m8.6,-.4h8.7m-8.7,8.3v-7.9m8.7,-.4h8.6m-8.6,8.3v-7.9m8.6,-.4h8.7m-8.7,8.3v-7.9m8.7,-.4h8.7m-8.7,8.3v-7.9m8.7,-.4h8.6m-8.6,8.3v-7.9m8.6,-.4h8.7m-8.7,8.3v-7.9m8.7,-.4h8.7m-8.7,8.3v-7.9m8.7,-.4h9m-9,8.3v-7.9m8.6,7.9v-7.9m-95.6,8.3h9m-8.7,8.3v-7.9m8.7,-.4h8.7m-8.7,8.3v-7.9m8.7,-.4h8.6m-8.6,8.3v-7.9m8.6,-.4h8.7m-8.7,8.3v-7.9m8.7,-.4h8.6m-8.6,8.3v-7.9m8.6,-.4h8.7m-8.7,8.3v-7.9m8.7,-.4h8.7m-8.7,8.3v-7.9m8.7,-.4h8.6m-8.6,8.3v-7.9m8.6,-.4h8.7m-8.7,8.3v-7.9m8.7,-.4h8.7m-8.7,8.3v-7.9m8.7,-.4h9m-9,8.3v-7.9m8.6,7.9v-7.9m-95.6,8.3h9m-8.7,8.3v-7.9m8.7,-.4h8.7m-8.7,8.3v-7.9m8.7,-.4h8.6m-8.6,8.3v-7.9m8.6,-.4h8.7m-8.7,8.3v-7.9m8.7,-.4h8.6m-8.6,8.3v-7.9m8.6,-.4h8.7m-8.7,8.3v-7.9m8.7,-.4h8.7m-8.7,8.3v-7.9m8.7,-.4h8.6m-8.6,8.3v-7.9m8.6,-.4h8.7m-8.7,8.3v-7.9m8.7,-.4h8.7m-8.7,8.3v-7.9m8.7,-.4h9m-9,8.3v-7.9m8.6,7.9v-7.9m-95.6,8.2h9m0,0h8.7m0,0h8.6m0,0h8.7m0,0h8.6m0,0h8.7m0,0h8.7m0,0h8.6m0,0h8.7m0,0h8.7m0,0h9" class="g2_102"/>
<path d="M170.8,280.7L144.9,263.8L196.8,229l26,34.8l-52,16.9Z" class="g3_102"/>
<g clip-path="url(#c0_102)" opacity="0.5">
<path d="M297.4,254.2l43.3,-25.7l26,17.3l-.2,17.5l-25.8,16.9Z" class="g0_102"/>
</g>
<path d="M288.5,219.5h9.1m-8.7,8.3v-7.9m8.7,-.4h8.6m-8.6,8.3v-7.9m8.6,-.4h8.7m-8.7,8.3v-7.9m8.7,-.4h8.6m-8.6,8.3v-7.9m8.6,-.4h8.7m-8.7,8.3v-7.9m8.7,-.4h8.7m-8.7,8.3v-7.9m8.7,-.4h8.6m-8.6,8.3v-7.9m8.6,-.4h8.7m-8.7,8.3v-7.9m8.7,-.4h8.7m-8.7,8.3v-7.9m8.7,-.4h8.6m-8.6,8.3v-7.9m8.6,-.4h9.1m-9.1,8.3v-7.9m8.7,7.9v-7.9m-95.7,8.3h9.1m-8.7,8.3v-7.9m8.7,-.4h8.6m-8.6,8.3v-7.9m8.6,-.4h8.7m-8.7,8.3v-7.9m8.7,-.4h8.6m-8.6,8.3v-7.9m8.6,-.4h8.7m-8.7,8.3v-7.9m8.7,-.4h8.7m-8.7,8.3v-7.9m8.7,-.4h8.6m-8.6,8.3v-7.9m8.6,-.4h8.7m-8.7,8.3v-7.9m8.7,-.4h8.7m-8.7,8.3v-7.9m8.7,-.4h8.6m-8.6,8.3v-7.9m8.6,-.4h9.1m-9.1,8.3v-7.9m8.7,7.9v-7.9m-95.7,8.3h9.1m-8.7,8.2v-7.9m8.7,-.3h8.6m-8.6,8.2v-7.9m8.6,-.3h8.7m-8.7,8.2v-7.9m8.7,-.3h8.6m-8.6,8.2v-7.9m8.6,-.3h8.7m-8.7,8.2v-7.9m8.7,-.3h8.7m-8.7,8.2v-7.9m8.7,-.3h8.6m-8.6,8.2v-7.9m8.6,-.3h8.7m-8.7,8.2v-7.9m8.7,-.3h8.7m-8.7,8.2v-7.9m8.7,-.3h8.6m-8.6,8.2v-7.9m8.6,-.3h9.1m-9.1,8.2v-7.9m8.7,7.9v-7.9m-95.7,8.3h9.1m-8.7,8.3v-7.9m8.7,-.4h8.6m-8.6,8.3v-7.9m8.6,-.4h8.7m-8.7,8.3v-7.9m8.7,-.4h8.6m-8.6,8.3v-7.9m8.6,-.4h8.7m-8.7,8.3v-7.9m8.7,-.4h8.7m-8.7,8.3v-7.9m8.7,-.4h8.6m-8.6,8.3v-7.9m8.6,-.4h8.7m-8.7,8.3v-7.9m8.7,-.4h8.7m-8.7,8.3v-7.9m8.7,-.4h8.6m-8.6,8.3v-7.9m8.6,-.4h9.1m-9.1,8.3v-7.9m8.7,7.9v-7.9m-95.7,8.3h9.1m-8.7,8.3v-7.9m8.7,-.4h8.6m-8.6,8.3v-7.9m8.6,-.4h8.7m-8.7,8.3v-7.9m8.7,-.4h8.6m-8.6,8.3v-7.9m8.6,-.4h8.7m-8.7,8.3v-7.9m8.7,-.4h8.7m-8.7,8.3v-7.9m8.7,-.4h8.6m-8.6,8.3v-7.9m8.6,-.4h8.7m-8.7,8.3v-7.9m8.7,-.4h8.7m-8.7,8.3v-7.9m8.7,-.4h8.6m-8.6,8.3v-7.9m8.6,-.4h9.1m-9.1,8.3v-7.9m8.7,7.9v-7.9m-95.7,8.2h9.1m-8.7,8.3v-7.9m8.7,-.4h8.6m-8.6,8.3v-7.9m8.6,-.4h8.7m-8.7,8.3v-7.9m8.7,-.4h8.6m-8.6,8.3v-7.9m8.6,-.4h8.7m-8.7,8.3v-7.9m8.7,-.4h8.7m-8.7,8.3v-7.9m8.7,-.4h8.6m-8.6,8.3v-7.9m8.6,-.4h8.7m-8.7,8.3v-7.9m8.7,-.4h8.7m-8.7,8.3v-7.9m8.7,-.4h8.6m-8.6,8.3v-7.9m8.6,-.4h9.1m-9.1,8.3v-7.9m8.7,7.9v-7.9m-95.7,8.3h9.1m-8.7,8.3v-7.9m8.7,-.4h8.6m-8.6,8.3v-7.9m8.6,-.4h8.7m-8.7,8.3v-7.9m8.7,-.4h8.6m-8.6,8.3v-7.9m8.6,-.4h8.7m-8.7,8.3v-7.9m8.7,-.4h8.7m-8.7,8.3v-7.9m8.7,-.4h8.6m-8.6,8.3v-7.9m8.6,-.4h8.7m-8.7,8.3v-7.9m8.7,-.4h8.7m-8.7,8.3v-7.9m8.7,-.4h8.6m-8.6,8.3v-7.9m8.6,-.4h9.1m-9.1,8.3v-7.9m8.7,7.9v-7.9m-95.7,8.3h9.1m-8.7,8.2v-7.9m8.7,-.3h8.6m-8.6,8.2v-7.9m8.6,-.3h8.7m-8.7,8.2v-7.9m8.7,-.3h8.6m-8.6,8.2v-7.9m8.6,-.3h8.7m-8.7,8.2v-7.9m8.7,-.3h8.7m-8.7,8.2v-7.9m8.7,-.3h8.6m-8.6,8.2v-7.9m8.6,-.3h8.7m-8.7,8.2v-7.9m8.7,-.3h8.7m-8.7,8.2v-7.9m8.7,-.3h8.6m-8.6,8.2v-7.9m8.6,-.3h9.1m-9.1,8.2v-7.9m8.7,7.9v-7.9m-95.7,8.3h9.1m0,0h8.6m0,0h8.7m0,0h8.6m0,0h8.7m0,0h8.7m0,0h8.6m0,0h8.7m0,0h8.7m0,0h8.6m0,0h9.1" class="g2_102"/>
<path d="M297.4,254.2l43.3,-25.7l26,17.3l-.2,17.5l-25.8,16.9l-43.3,-26Z" class="g3_102"/>
<g clip-path="url(#c0_102)" opacity="0.5">
<path d="M144.9,366.2l-.2,-25.8L222.8,306l-17.5,34l-.1,26.2Z" class="g0_102"/>
</g>
<path d="M135.8,305.3h9m-8.7,8.3v-7.9m8.7,-.4h8.7m-8.7,8.3v-7.9m8.7,-.4h8.6m-8.6,8.3v-7.9m8.6,-.4h8.7m-8.7,8.3v-7.9m8.7,-.4h8.6m-8.6,8.3v-7.9m8.6,-.4h8.7m-8.7,8.3v-7.9m8.7,-.4h8.7m-8.7,8.3v-7.9m8.7,-.4h8.6m-8.6,8.3v-7.9m8.6,-.4h8.7m-8.7,8.3v-7.9m8.7,-.4h8.7m-8.7,8.3v-7.9m8.7,-.4h9m-9,8.3v-7.9m8.6,7.9v-7.9m-95.6,8.2h9m-8.7,8.3v-7.9m8.7,-.4h8.7m-8.7,8.3v-7.9m8.7,-.4h8.6m-8.6,8.3v-7.9m8.6,-.4h8.7m-8.7,8.3v-7.9m8.7,-.4h8.6m-8.6,8.3v-7.9m8.6,-.4h8.7m-8.7,8.3v-7.9m8.7,-.4h8.7m-8.7,8.3v-7.9m8.7,-.4h8.6m-8.6,8.3v-7.9m8.6,-.4h8.7m-8.7,8.3v-7.9m8.7,-.4h8.7m-8.7,8.3v-7.9m8.7,-.4h9m-9,8.3v-7.9m8.6,7.9v-7.9m-95.6,8.3h9m-8.7,8.3V323m8.7,-.4h8.7m-8.7,8.3V323m8.7,-.4h8.6m-8.6,8.3V323m8.6,-.4h8.7m-8.7,8.3V323m8.7,-.4h8.6m-8.6,8.3V323m8.6,-.4h8.7m-8.7,8.3V323m8.7,-.4h8.7m-8.7,8.3V323m8.7,-.4h8.6m-8.6,8.3V323m8.6,-.4h8.7m-8.7,8.3V323m8.7,-.4h8.7m-8.7,8.3V323m8.7,-.4h9m-9,8.3V323m8.6,7.9V323m-95.6,8.3h9m-8.7,8.2v-7.8m8.7,-.4h8.7m-8.7,8.2v-7.8m8.7,-.4h8.6m-8.6,8.2v-7.8m8.6,-.4h8.7m-8.7,8.2v-7.8m8.7,-.4h8.6m-8.6,8.2v-7.8m8.6,-.4h8.7m-8.7,8.2v-7.8m8.7,-.4h8.7m-8.7,8.2v-7.8m8.7,-.4h8.6m-8.6,8.2v-7.8m8.6,-.4h8.7m-8.7,8.2v-7.8m8.7,-.4h8.7m-8.7,8.2v-7.8m8.7,-.4h9m-9,8.2v-7.8m8.6,7.8v-7.8m-95.6,8.2h9m-8.7,8.3v-7.9m8.7,-.4h8.7m-8.7,8.3v-7.9m8.7,-.4h8.6m-8.6,8.3v-7.9m8.6,-.4h8.7m-8.7,8.3v-7.9m8.7,-.4h8.6m-8.6,8.3v-7.9m8.6,-.4h8.7m-8.7,8.3v-7.9m8.7,-.4h8.7m-8.7,8.3v-7.9m8.7,-.4h8.6m-8.6,8.3v-7.9m8.6,-.4h8.7m-8.7,8.3v-7.9m8.7,-.4h8.7m-8.7,8.3v-7.9m8.7,-.4h9m-9,8.3v-7.9m8.6,7.9v-7.9m-95.6,8.3h9m-8.7,8.3V349m8.7,-.4h8.7m-8.7,8.3V349m8.7,-.4h8.6m-8.6,8.3V349m8.6,-.4h8.7m-8.7,8.3V349m8.7,-.4h8.6m-8.6,8.3V349m8.6,-.4h8.7m-8.7,8.3V349m8.7,-.4h8.7m-8.7,8.3V349m8.7,-.4h8.6m-8.6,8.3V349m8.6,-.4h8.7m-8.7,8.3V349m8.7,-.4h8.7m-8.7,8.3V349m8.7,-.4h9m-9,8.3V349m8.6,7.9V349m-95.6,8.3h9m-8.7,8.2v-7.9m8.7,-.3h8.7m-8.7,8.2v-7.9m8.7,-.3h8.6m-8.6,8.2v-7.9m8.6,-.3h8.7m-8.7,8.2v-7.9m8.7,-.3h8.6m-8.6,8.2v-7.9m8.6,-.3h8.7m-8.7,8.2v-7.9m8.7,-.3h8.7m-8.7,8.2v-7.9m8.7,-.3h8.6m-8.6,8.2v-7.9m8.6,-.3h8.7m-8.7,8.2v-7.9m8.7,-.3h8.7m-8.7,8.2v-7.9m8.7,-.3h9m-9,8.2v-7.9m8.6,7.9v-7.9m-95.6,8.3h9m-8.7,8.3v-7.9m8.7,-.4h8.7m-8.7,8.3v-7.9m8.7,-.4h8.6m-8.6,8.3v-7.9m8.6,-.4h8.7m-8.7,8.3v-7.9m8.7,-.4h8.6m-8.6,8.3v-7.9m8.6,-.4h8.7m-8.7,8.3v-7.9m8.7,-.4h8.7m-8.7,8.3v-7.9m8.7,-.4h8.6m-8.6,8.3v-7.9m8.6,-.4h8.7m-8.7,8.3v-7.9m8.7,-.4h8.7m-8.7,8.3v-7.9m8.7,-.4h9m-9,8.3v-7.9m8.6,7.9v-7.9m-95.6,8.3h9m0,0h8.7m0,0h8.6m0,0h8.7m0,0h8.6m0,0h8.7m0,0h8.7m0,0h8.6m0,0h8.7m0,0h8.7m0,0h9" class="g2_102"/>
<path d="M144.9,366.2l-.2,-25.8L222.8,306l-17.5,34l-.1,26.2H144.9Z" class="g3_102"/>
<g clip-path="url(#c0_102)" opacity="0.5">
<path d="M375.6,314.2L341,305.8l-43.3,59.5l43.2,-25.1l34.7,-8.6Z" class="g0_102"/>
</g>
<path d="M288.5,305.4h9.1m-8.7,8.2v-7.9m8.7,-.3h8.6m-8.6,8.2v-7.9m8.6,-.3h8.7m-8.7,8.2v-7.9m8.7,-.3h8.6m-8.6,8.2v-7.9m8.6,-.3h8.7m-8.7,8.2v-7.9m8.7,-.3h8.7m-8.7,8.2v-7.9m8.7,-.3h8.6m-8.6,8.2v-7.9m8.6,-.3h8.7m-8.7,8.2v-7.9m8.7,-.3h8.7m-8.7,8.2v-7.9m8.7,-.3h8.6m-8.6,8.2v-7.9m8.6,-.3h9.1m-9.1,8.2v-7.9m8.7,7.9v-7.9M288.5,314h9.1m-8.7,8.3v-7.9m8.7,-.4h8.6m-8.6,8.3v-7.9m8.6,-.4h8.7m-8.7,8.3v-7.9m8.7,-.4h8.6m-8.6,8.3v-7.9m8.6,-.4h8.7m-8.7,8.3v-7.9m8.7,-.4h8.7m-8.7,8.3v-7.9m8.7,-.4h8.6m-8.6,8.3v-7.9m8.6,-.4h8.7m-8.7,8.3v-7.9m8.7,-.4h8.7m-8.7,8.3v-7.9m8.7,-.4h8.6m-8.6,8.3v-7.9m8.6,-.4h9.1m-9.1,8.3v-7.9m8.7,7.9v-7.9m-95.7,8.3h9.1m-8.7,8.3v-7.9m8.7,-.4h8.6m-8.6,8.3v-7.9m8.6,-.4h8.7m-8.7,8.3v-7.9m8.7,-.4h8.6m-8.6,8.3v-7.9m8.6,-.4h8.7m-8.7,8.3v-7.9m8.7,-.4h8.7m-8.7,8.3v-7.9m8.7,-.4h8.6m-8.6,8.3v-7.9m8.6,-.4h8.7m-8.7,8.3v-7.9m8.7,-.4h8.7m-8.7,8.3v-7.9m8.7,-.4h8.6m-8.6,8.3v-7.9m8.6,-.4h9.1m-9.1,8.3v-7.9m8.7,7.9v-7.9m-95.7,8.2h9.1m-8.7,8.3v-7.9m8.7,-.4h8.6m-8.6,8.3v-7.9m8.6,-.4h8.7m-8.7,8.3v-7.9m8.7,-.4h8.6m-8.6,8.3v-7.9m8.6,-.4h8.7m-8.7,8.3v-7.9m8.7,-.4h8.7m-8.7,8.3v-7.9m8.7,-.4h8.6m-8.6,8.3v-7.9m8.6,-.4h8.7m-8.7,8.3v-7.9m8.7,-.4h8.7m-8.7,8.3v-7.9m8.7,-.4h8.6m-8.6,8.3v-7.9m8.6,-.4h9.1m-9.1,8.3v-7.9m8.7,7.9v-7.9M288.5,340h9.1m-8.7,8.3v-7.9m8.7,-.4h8.6m-8.6,8.3v-7.9m8.6,-.4h8.7m-8.7,8.3v-7.9m8.7,-.4h8.6m-8.6,8.3v-7.9m8.6,-.4h8.7m-8.7,8.3v-7.9m8.7,-.4h8.7m-8.7,8.3v-7.9m8.7,-.4h8.6m-8.6,8.3v-7.9m8.6,-.4h8.7m-8.7,8.3v-7.9m8.7,-.4h8.7m-8.7,8.3v-7.9m8.7,-.4h8.6m-8.6,8.3v-7.9m8.6,-.4h9.1m-9.1,8.3v-7.9m8.7,7.9v-7.9m-95.7,8.3h9.1m-8.7,8.2V349m8.7,-.3h8.6m-8.6,8.2V349m8.6,-.3h8.7m-8.7,8.2V349m8.7,-.3h8.6m-8.6,8.2V349m8.6,-.3h8.7m-8.7,8.2V349m8.7,-.3h8.7m-8.7,8.2V349m8.7,-.3h8.6m-8.6,8.2V349m8.6,-.3h8.7m-8.7,8.2V349m8.7,-.3h8.7m-8.7,8.2V349m8.7,-.3h8.6m-8.6,8.2V349m8.6,-.3h9.1m-9.1,8.2V349m8.7,7.9V349m-95.7,8.3h9.1m-8.7,8.3v-7.9m8.7,-.4h8.6m-8.6,8.3v-7.9m8.6,-.4h8.7m-8.7,8.3v-7.9m8.7,-.4h8.6m-8.6,8.3v-7.9m8.6,-.4h8.7m-8.7,8.3v-7.9m8.7,-.4h8.7m-8.7,8.3v-7.9m8.7,-.4h8.6m-8.6,8.3v-7.9m8.6,-.4h8.7m-8.7,8.3v-7.9m8.7,-.4h8.7m-8.7,8.3v-7.9m8.7,-.4h8.6m-8.6,8.3v-7.9m8.6,-.4h9.1m-9.1,8.3v-7.9m8.7,7.9v-7.9M288.5,366h9.1m-8.7,8.3v-7.9m8.7,-.4h8.6m-8.6,8.3v-7.9m8.6,-.4h8.7m-8.7,8.3v-7.9m8.7,-.4h8.6m-8.6,8.3v-7.9m8.6,-.4h8.7m-8.7,8.3v-7.9m8.7,-.4h8.7m-8.7,8.3v-7.9m8.7,-.4h8.6m-8.6,8.3v-7.9m8.6,-.4h8.7m-8.7,8.3v-7.9m8.7,-.4h8.7m-8.7,8.3v-7.9m8.7,-.4h8.6m-8.6,8.3v-7.9m8.6,-.4h9.1m-9.1,8.3v-7.9m8.7,7.9v-7.9m-95.7,8.2h9.1m0,0h8.6m0,0h8.7m0,0h8.6m0,0h8.7m0,0h8.7m0,0h8.6m0,0h8.7m0,0h8.7m0,0h8.6m0,0h9.1" class="g2_102"/>
<path d="M375.6,314.2L341,305.8l-43.3,59.5l43.2,-25.1l34.7,-8.6V314.2Z" class="g3_102"/>
<g clip-path="url(#c0_102)" opacity="0.5">
<path d="M162.2,451.8l-17.8,-26l26.4,-34.7h17.4l25.5,34.2l-17.1,26.2Z" class="g0_102"/>
</g>
<path d="M135.8,391.1h9m-8.7,8.2v-7.9m8.7,-.3h8.7m-8.7,8.2v-7.9m8.7,-.3h8.6m-8.6,8.2v-7.9m8.6,-.3h8.7m-8.7,8.2v-7.9m8.7,-.3h8.6m-8.6,8.2v-7.9m8.6,-.3h8.7m-8.7,8.2v-7.9m8.7,-.3h8.7m-8.7,8.2v-7.9m8.7,-.3h8.6m-8.6,8.2v-7.9m8.6,-.3h8.7m-8.7,8.2v-7.9m8.7,-.3h8.7m-8.7,8.2v-7.9m8.7,-.3h9m-9,8.2v-7.9m8.6,7.9v-7.9m-95.6,8.3h9m-8.7,8.3v-7.9m8.7,-.4h8.7m-8.7,8.3v-7.9m8.7,-.4h8.6m-8.6,8.3v-7.9m8.6,-.4h8.7m-8.7,8.3v-7.9m8.7,-.4h8.6m-8.6,8.3v-7.9m8.6,-.4h8.7m-8.7,8.3v-7.9m8.7,-.4h8.7m-8.7,8.3v-7.9m8.7,-.4h8.6m-8.6,8.3v-7.9m8.6,-.4h8.7m-8.7,8.3v-7.9m8.7,-.4h8.7m-8.7,8.3v-7.9m8.7,-.4h9m-9,8.3v-7.9m8.6,7.9v-7.9m-95.6,8.3h9m-8.7,8.3v-7.9m8.7,-.4h8.7m-8.7,8.3v-7.9m8.7,-.4h8.6m-8.6,8.3v-7.9m8.6,-.4h8.7m-8.7,8.3v-7.9m8.7,-.4h8.6m-8.6,8.3v-7.9m8.6,-.4h8.7m-8.7,8.3v-7.9m8.7,-.4h8.7m-8.7,8.3v-7.9m8.7,-.4h8.6m-8.6,8.3v-7.9m8.6,-.4h8.7m-8.7,8.3v-7.9m8.7,-.4h8.7m-8.7,8.3v-7.9m8.7,-.4h9m-9,8.3v-7.9m8.6,7.9v-7.9M135.8,417h9m-8.7,8.3v-7.9m8.7,-.4h8.7m-8.7,8.3v-7.9m8.7,-.4h8.6m-8.6,8.3v-7.9m8.6,-.4h8.7m-8.7,8.3v-7.9m8.7,-.4h8.6m-8.6,8.3v-7.9m8.6,-.4h8.7m-8.7,8.3v-7.9m8.7,-.4h8.7m-8.7,8.3v-7.9m8.7,-.4h8.6m-8.6,8.3v-7.9m8.6,-.4h8.7m-8.7,8.3v-7.9m8.7,-.4h8.7m-8.7,8.3v-7.9m8.7,-.4h9m-9,8.3v-7.9m8.6,7.9v-7.9m-95.6,8.3h9m-8.7,8.3v-7.9m8.7,-.4h8.7m-8.7,8.3v-7.9m8.7,-.4h8.6m-8.6,8.3v-7.9m8.6,-.4h8.7m-8.7,8.3v-7.9m8.7,-.4h8.6m-8.6,8.3v-7.9m8.6,-.4h8.7m-8.7,8.3v-7.9m8.7,-.4h8.7m-8.7,8.3v-7.9m8.7,-.4h8.6m-8.6,8.3v-7.9m8.6,-.4h8.7m-8.7,8.3v-7.9m8.7,-.4h8.7m-8.7,8.3v-7.9m8.7,-.4h9m-9,8.3v-7.9m8.6,7.9v-7.9m-95.6,8.3h9m-8.7,8.2v-7.9m8.7,-.3h8.7m-8.7,8.2v-7.9m8.7,-.3h8.6m-8.6,8.2v-7.9m8.6,-.3h8.7m-8.7,8.2v-7.9m8.7,-.3h8.6m-8.6,8.2v-7.9m8.6,-.3h8.7m-8.7,8.2v-7.9m8.7,-.3h8.7m-8.7,8.2v-7.9m8.7,-.3h8.6m-8.6,8.2v-7.9m8.6,-.3h8.7m-8.7,8.2v-7.9m8.7,-.3h8.7m-8.7,8.2v-7.9m8.7,-.3h9m-9,8.2v-7.9m8.6,7.9v-7.9M135.8,443h9m-8.7,8.3v-7.9m8.7,-.4h8.7m-8.7,8.3v-7.9m8.7,-.4h8.6m-8.6,8.3v-7.9m8.6,-.4h8.7m-8.7,8.3v-7.9m8.7,-.4h8.6m-8.6,8.3v-7.9m8.6,-.4h8.7m-8.7,8.3v-7.9m8.7,-.4h8.7m-8.7,8.3v-7.9m8.7,-.4h8.6m-8.6,8.3v-7.9m8.6,-.4h8.7m-8.7,8.3v-7.9m8.7,-.4h8.7m-8.7,8.3v-7.9m8.7,-.4h9m-9,8.3v-7.9m8.6,7.9v-7.9m-95.6,8.3h9m-8.7,8.3v-7.9m8.7,-.4h8.7m-8.7,8.3v-7.9m8.7,-.4h8.6m-8.6,8.3v-7.9m8.6,-.4h8.7m-8.7,8.3v-7.9m8.7,-.4h8.6m-8.6,8.3v-7.9m8.6,-.4h8.7m-8.7,8.3v-7.9m8.7,-.4h8.7m-8.7,8.3v-7.9m8.7,-.4h8.6m-8.6,8.3v-7.9m8.6,-.4h8.7m-8.7,8.3v-7.9m8.7,-.4h8.7m-8.7,8.3v-7.9m8.7,-.4h9m-9,8.3v-7.9m8.6,7.9v-7.9m-95.6,8.2h9m0,0h8.7m0,0h8.6m0,0h8.7m0,0h8.6m0,0h8.7m0,0h8.7m0,0h8.6m0,0h8.7m0,0h8.7m0,0h9" class="g2_102"/>
<path d="M162.2,451.8l-17.8,-26l26.4,-34.7h17.4l25.5,34.2l-17.1,26.2l-34.4,.3Z" class="g3_102"/>
<g clip-path="url(#c0_102)" opacity="0.5">
<path d="M297.6,459.8V434.1l34.7,-43.3h26.2V425l-26,34.9Z" class="g0_102"/>
</g>
<path d="M288.5,390.7h9.1m-8.7,8.3v-7.9m8.7,-.4h8.6m-8.6,8.3v-7.9m8.6,-.4h8.7m-8.7,8.3v-7.9m8.7,-.4h8.6m-8.6,8.3v-7.9m8.6,-.4h8.7m-8.7,8.3v-7.9m8.7,-.4h8.7m-8.7,8.3v-7.9m8.7,-.4h8.6m-8.6,8.3v-7.9m8.6,-.4h8.7m-8.7,8.3v-7.9m8.7,-.4h8.7m-8.7,8.3v-7.9m8.7,-.4h8.6m-8.6,8.3v-7.9m8.6,-.4h9.1m-9.1,8.3v-7.9m8.7,7.9v-7.9m-95.7,8.3h9.1m-8.7,8.2v-7.9m8.7,-.3h8.6m-8.6,8.2v-7.9m8.6,-.3h8.7m-8.7,8.2v-7.9m8.7,-.3h8.6m-8.6,8.2v-7.9m8.6,-.3h8.7m-8.7,8.2v-7.9m8.7,-.3h8.7m-8.7,8.2v-7.9m8.7,-.3h8.6m-8.6,8.2v-7.9m8.6,-.3h8.7m-8.7,8.2v-7.9m8.7,-.3h8.7m-8.7,8.2v-7.9m8.7,-.3h8.6m-8.6,8.2v-7.9m8.6,-.3h9.1m-9.1,8.2v-7.9m8.7,7.9v-7.9M288.5,408h9.1m-8.7,8.3v-7.9m8.7,-.4h8.6m-8.6,8.3v-7.9m8.6,-.4h8.7m-8.7,8.3v-7.9m8.7,-.4h8.6m-8.6,8.3v-7.9m8.6,-.4h8.7m-8.7,8.3v-7.9m8.7,-.4h8.7m-8.7,8.3v-7.9m8.7,-.4h8.6m-8.6,8.3v-7.9m8.6,-.4h8.7m-8.7,8.3v-7.9m8.7,-.4h8.7m-8.7,8.3v-7.9m8.7,-.4h8.6m-8.6,8.3v-7.9m8.6,-.4h9.1m-9.1,8.3v-7.9m8.7,7.9v-7.9m-95.7,8.3h9.1m-8.7,8.3v-7.9m8.7,-.4h8.6m-8.6,8.3v-7.9m8.6,-.4h8.7m-8.7,8.3v-7.9m8.7,-.4h8.6m-8.6,8.3v-7.9m8.6,-.4h8.7m-8.7,8.3v-7.9m8.7,-.4h8.7m-8.7,8.3v-7.9m8.7,-.4h8.6m-8.6,8.3v-7.9m8.6,-.4h8.7m-8.7,8.3v-7.9m8.7,-.4h8.7m-8.7,8.3v-7.9m8.7,-.4h8.6m-8.6,8.3v-7.9m8.6,-.4h9.1m-9.1,8.3v-7.9m8.7,7.9v-7.9m-95.7,8.2h9.1m-8.7,8.3v-7.9m8.7,-.4h8.6m-8.6,8.3v-7.9m8.6,-.4h8.7m-8.7,8.3v-7.9m8.7,-.4h8.6m-8.6,8.3v-7.9m8.6,-.4h8.7m-8.7,8.3v-7.9m8.7,-.4h8.7m-8.7,8.3v-7.9m8.7,-.4h8.6m-8.6,8.3v-7.9m8.6,-.4h8.7m-8.7,8.3v-7.9m8.7,-.4h8.7m-8.7,8.3v-7.9m8.7,-.4h8.6m-8.6,8.3v-7.9m8.6,-.4h9.1m-9.1,8.3v-7.9m8.7,7.9v-7.9M288.5,434h9.1m-8.7,8.3v-7.9m8.7,-.4h8.6m-8.6,8.3v-7.9m8.6,-.4h8.7m-8.7,8.3v-7.9m8.7,-.4h8.6m-8.6,8.3v-7.9m8.6,-.4h8.7m-8.7,8.3v-7.9m8.7,-.4h8.7m-8.7,8.3v-7.9m8.7,-.4h8.6m-8.6,8.3v-7.9m8.6,-.4h8.7m-8.7,8.3v-7.9m8.7,-.4h8.7m-8.7,8.3v-7.9m8.7,-.4h8.6m-8.6,8.3v-7.9m8.6,-.4h9.1m-9.1,8.3v-7.9m8.7,7.9v-7.9m-95.7,8.3h9.1m-8.7,8.3v-7.9m8.7,-.4h8.6m-8.6,8.3v-7.9m8.6,-.4h8.7m-8.7,8.3v-7.9m8.7,-.4h8.6m-8.6,8.3v-7.9m8.6,-.4h8.7m-8.7,8.3v-7.9m8.7,-.4h8.7m-8.7,8.3v-7.9m8.7,-.4h8.6m-8.6,8.3v-7.9m8.6,-.4h8.7m-8.7,8.3v-7.9m8.7,-.4h8.7m-8.7,8.3v-7.9m8.7,-.4h8.6m-8.6,8.3v-7.9m8.6,-.4h9.1m-9.1,8.3v-7.9m8.7,7.9v-7.9m-95.7,8.2h9.1m-8.7,8.3v-7.9m8.7,-.4h8.6m-8.6,8.3v-7.9m8.6,-.4h8.7m-8.7,8.3v-7.9m8.7,-.4h8.6m-8.6,8.3v-7.9m8.6,-.4h8.7m-8.7,8.3v-7.9m8.7,-.4h8.7m-8.7,8.3v-7.9m8.7,-.4h8.6m-8.6,8.3v-7.9m8.6,-.4h8.7m-8.7,8.3v-7.9m8.7,-.4h8.7m-8.7,8.3v-7.9m8.7,-.4h8.6m-8.6,8.3v-7.9m8.6,-.4h9.1m-9.1,8.3v-7.9m8.7,7.9v-7.9M288.5,460h9.1m0,0h8.6m0,0h8.7m0,0h8.6m0,0h8.7m0,0h8.7m0,0h8.6m0,0h8.7m0,0h8.7m0,0h8.6m0,0h9.1" class="g2_102"/>
<path d="M297.6,459.8V434.1l34.7,-43.3h26.2V425l-26,34.9l-34.9,-.1Z" class="g3_102"/>
<g clip-path="url(#c0_102)" opacity="0.5">
<path d="M161.7,553.5l-17.3,-26V509.8l52,-33.8l18.2,33.8v17.7l-18.2,26Z" class="g0_102"/>
</g>
<path d="M135.8,475.4h9m-8.7,8.3v-7.9m8.7,-.4h8.7m-8.7,8.3v-7.9m8.7,-.4h8.6m-8.6,8.3v-7.9m8.6,-.4h8.7m-8.7,8.3v-7.9m8.7,-.4h8.6m-8.6,8.3v-7.9m8.6,-.4h8.7m-8.7,8.3v-7.9m8.7,-.4h8.7m-8.7,8.3v-7.9m8.7,-.4h8.6m-8.6,8.3v-7.9m8.6,-.4h8.7m-8.7,8.3v-7.9m8.7,-.4h8.7m-8.7,8.3v-7.9m8.7,-.4h9m-9,8.3v-7.9m8.6,7.9v-7.9M135.8,484h9m-8.7,8.3v-7.9m8.7,-.4h8.7m-8.7,8.3v-7.9m8.7,-.4h8.6m-8.6,8.3v-7.9m8.6,-.4h8.7m-8.7,8.3v-7.9m8.7,-.4h8.6m-8.6,8.3v-7.9m8.6,-.4h8.7m-8.7,8.3v-7.9m8.7,-.4h8.7m-8.7,8.3v-7.9m8.7,-.4h8.6m-8.6,8.3v-7.9m8.6,-.4h8.7m-8.7,8.3v-7.9m8.7,-.4h8.7m-8.7,8.3v-7.9m8.7,-.4h9m-9,8.3v-7.9m8.6,7.9v-7.9m-95.6,8.3h9m-8.7,8.3v-7.9m8.7,-.4h8.7m-8.7,8.3v-7.9m8.7,-.4h8.6m-8.6,8.3v-7.9m8.6,-.4h8.7m-8.7,8.3v-7.9m8.7,-.4h8.6m-8.6,8.3v-7.9m8.6,-.4h8.7m-8.7,8.3v-7.9m8.7,-.4h8.7m-8.7,8.3v-7.9m8.7,-.4h8.6m-8.6,8.3v-7.9m8.6,-.4h8.7m-8.7,8.3v-7.9m8.7,-.4h8.7m-8.7,8.3v-7.9m8.7,-.4h9m-9,8.3v-7.9m8.6,7.9v-7.9m-95.6,8.3h9m-8.7,8.2v-7.9m8.7,-.3h8.7m-8.7,8.2v-7.9m8.7,-.3h8.6m-8.6,8.2v-7.9m8.6,-.3h8.7m-8.7,8.2v-7.9m8.7,-.3h8.6m-8.6,8.2v-7.9m8.6,-.3h8.7m-8.7,8.2v-7.9m8.7,-.3h8.7m-8.7,8.2v-7.9m8.7,-.3h8.6m-8.6,8.2v-7.9m8.6,-.3h8.7m-8.7,8.2v-7.9m8.7,-.3h8.7m-8.7,8.2v-7.9m8.7,-.3h9m-9,8.2v-7.9m8.6,7.9v-7.9M135.8,510h9m-8.7,8.3v-7.9m8.7,-.4h8.7m-8.7,8.3v-7.9m8.7,-.4h8.6m-8.6,8.3v-7.9m8.6,-.4h8.7m-8.7,8.3v-7.9m8.7,-.4h8.6m-8.6,8.3v-7.9m8.6,-.4h8.7m-8.7,8.3v-7.9m8.7,-.4h8.7m-8.7,8.3v-7.9m8.7,-.4h8.6m-8.6,8.3v-7.9m8.6,-.4h8.7m-8.7,8.3v-7.9m8.7,-.4h8.7m-8.7,8.3v-7.9m8.7,-.4h9m-9,8.3v-7.9m8.6,7.9v-7.9m-95.6,8.3h9m-8.7,8.3v-7.9m8.7,-.4h8.7m-8.7,8.3v-7.9m8.7,-.4h8.6m-8.6,8.3v-7.9m8.6,-.4h8.7m-8.7,8.3v-7.9m8.7,-.4h8.6m-8.6,8.3v-7.9m8.6,-.4h8.7m-8.7,8.3v-7.9m8.7,-.4h8.7m-8.7,8.3v-7.9m8.7,-.4h8.6m-8.6,8.3v-7.9m8.6,-.4h8.7m-8.7,8.3v-7.9m8.7,-.4h8.7m-8.7,8.3v-7.9m8.7,-.4h9m-9,8.3v-7.9m8.6,7.9v-7.9m-95.6,8.3h9m-8.7,8.2v-7.9m8.7,-.3h8.7m-8.7,8.2v-7.9m8.7,-.3h8.6m-8.6,8.2v-7.9m8.6,-.3h8.7m-8.7,8.2v-7.9m8.7,-.3h8.6m-8.6,8.2v-7.9m8.6,-.3h8.7m-8.7,8.2v-7.9m8.7,-.3h8.7m-8.7,8.2v-7.9m8.7,-.3h8.6m-8.6,8.2v-7.9m8.6,-.3h8.7m-8.7,8.2v-7.9m8.7,-.3h8.7m-8.7,8.2v-7.9m8.7,-.3h9m-9,8.2v-7.9m8.6,7.9v-7.9M135.8,536h9m-8.7,8.3v-7.9m8.7,-.4h8.7m-8.7,8.3v-7.9m8.7,-.4h8.6m-8.6,8.3v-7.9m8.6,-.4h8.7m-8.7,8.3v-7.9m8.7,-.4h8.6m-8.6,8.3v-7.9m8.6,-.4h8.7m-8.7,8.3v-7.9m8.7,-.4h8.7m-8.7,8.3v-7.9m8.7,-.4h8.6m-8.6,8.3v-7.9m8.6,-.4h8.7m-8.7,8.3v-7.9m8.7,-.4h8.7m-8.7,8.3v-7.9m8.7,-.4h9m-9,8.3v-7.9m8.6,7.9v-7.9m-95.6,8.3h9m-8.7,8.3v-7.9m8.7,-.4h8.7m-8.7,8.3v-7.9m8.7,-.4h8.6m-8.6,8.3v-7.9m8.6,-.4h8.7m-8.7,8.3v-7.9m8.7,-.4h8.6m-8.6,8.3v-7.9m8.6,-.4h8.7m-8.7,8.3v-7.9m8.7,-.4h8.7m-8.7,8.3v-7.9m8.7,-.4h8.6m-8.6,8.3v-7.9m8.6,-.4h8.7m-8.7,8.3v-7.9m8.7,-.4h8.7m-8.7,8.3v-7.9m8.7,-.4h9m-9,8.3v-7.9m8.6,7.9v-7.9m-95.6,8.2h9m-8.7,8.3v-7.9m8.7,-.4h8.7m-8.7,8.3v-7.9m8.7,-.4h8.6m-8.6,8.3v-7.9m8.6,-.4h8.7m-8.7,8.3v-7.9m8.7,-.4h8.6m-8.6,8.3v-7.9m8.6,-.4h8.7m-8.7,8.3v-7.9m8.7,-.4h8.7m-8.7,8.3v-7.9m8.7,-.4h8.6m-8.6,8.3v-7.9m8.6,-.4h8.7m-8.7,8.3v-7.9m8.7,-.4h8.7m-8.7,8.3v-7.9m8.7,-.4h9m-9,8.3v-7.9m8.6,7.9v-7.9M135.8,562h9m0,0h8.7m0,0h8.6m0,0h8.7m0,0h8.6m0,0h8.7m0,0h8.7m0,0h8.6m0,0h8.7m0,0h8.7m0,0h9" class="g2_102"/>
<path d="M161.7,553.5l-17.3,-26V509.8l52,-33.8l18.2,33.8v17.7l-18.2,26H161.7Z" class="g3_102"/>
<g clip-path="url(#c0_102)" opacity="0.5">
<path d="M298,562.8V502.2l16.9,-17.3l26.4,17.3l34.2,-24.9l-34.2,85.5L314.9,545.9Z" class="g0_102"/>
</g>
<path d="M288.5,476.6h9.1m-8.7,8.3V477m8.7,-.4h8.6m-8.6,8.3V477m8.6,-.4h8.7m-8.7,8.3V477m8.7,-.4h8.6m-8.6,8.3V477m8.6,-.4h8.7m-8.7,8.3V477m8.7,-.4h8.7m-8.7,8.3V477m8.7,-.4h8.6m-8.6,8.3V477m8.6,-.4h8.7m-8.7,8.3V477m8.7,-.4h8.7m-8.7,8.3V477m8.7,-.4h8.6m-8.6,8.3V477m8.6,-.4h9.1m-9.1,8.3V477m8.7,7.9V477m-95.7,8.2h9.1m-8.7,8.3v-7.9m8.7,-.4h8.6m-8.6,8.3v-7.9m8.6,-.4h8.7m-8.7,8.3v-7.9m8.7,-.4h8.6m-8.6,8.3v-7.9m8.6,-.4h8.7m-8.7,8.3v-7.9m8.7,-.4h8.7m-8.7,8.3v-7.9m8.7,-.4h8.6m-8.6,8.3v-7.9m8.6,-.4h8.7m-8.7,8.3v-7.9m8.7,-.4h8.7m-8.7,8.3v-7.9m8.7,-.4h8.6m-8.6,8.3v-7.9m8.6,-.4h9.1m-9.1,8.3v-7.9m8.7,7.9v-7.9m-95.7,8.3h9.1m-8.7,8.3v-7.9m8.7,-.4h8.6m-8.6,8.3v-7.9m8.6,-.4h8.7m-8.7,8.3v-7.9m8.7,-.4h8.6m-8.6,8.3v-7.9m8.6,-.4h8.7m-8.7,8.3v-7.9m8.7,-.4h8.7m-8.7,8.3v-7.9m8.7,-.4h8.6m-8.6,8.3v-7.9m8.6,-.4h8.7m-8.7,8.3v-7.9m8.7,-.4h8.7m-8.7,8.3v-7.9m8.7,-.4h8.6m-8.6,8.3v-7.9m8.6,-.4h9.1m-9.1,8.3v-7.9m8.7,7.9v-7.9m-95.7,8.3h9.1m-8.7,8.3V503m8.7,-.4h8.6m-8.6,8.3V503m8.6,-.4h8.7m-8.7,8.3V503m8.7,-.4h8.6m-8.6,8.3V503m8.6,-.4h8.7m-8.7,8.3V503m8.7,-.4h8.7m-8.7,8.3V503m8.7,-.4h8.6m-8.6,8.3V503m8.6,-.4h8.7m-8.7,8.3V503m8.7,-.4h8.7m-8.7,8.3V503m8.7,-.4h8.6m-8.6,8.3V503m8.6,-.4h9.1m-9.1,8.3V503m8.7,7.9V503m-95.7,8.2h9.1m-8.7,8.3v-7.9m8.7,-.4h8.6m-8.6,8.3v-7.9m8.6,-.4h8.7m-8.7,8.3v-7.9m8.7,-.4h8.6m-8.6,8.3v-7.9m8.6,-.4h8.7m-8.7,8.3v-7.9m8.7,-.4h8.7m-8.7,8.3v-7.9m8.7,-.4h8.6m-8.6,8.3v-7.9m8.6,-.4h8.7m-8.7,8.3v-7.9m8.7,-.4h8.7m-8.7,8.3v-7.9m8.7,-.4h8.6m-8.6,8.3v-7.9m8.6,-.4h9.1m-9.1,8.3v-7.9m8.7,7.9v-7.9m-95.7,8.3h9.1m-8.7,8.3v-7.9m8.7,-.4h8.6m-8.6,8.3v-7.9m8.6,-.4h8.7m-8.7,8.3v-7.9m8.7,-.4h8.6m-8.6,8.3v-7.9m8.6,-.4h8.7m-8.7,8.3v-7.9m8.7,-.4h8.7m-8.7,8.3v-7.9m8.7,-.4h8.6m-8.6,8.3v-7.9m8.6,-.4h8.7m-8.7,8.3v-7.9m8.7,-.4h8.7m-8.7,8.3v-7.9m8.7,-.4h8.6m-8.6,8.3v-7.9m8.6,-.4h9.1m-9.1,8.3v-7.9m8.7,7.9v-7.9m-95.7,8.3h9.1m-8.7,8.2v-7.9m8.7,-.3h8.6m-8.6,8.2v-7.9m8.6,-.3h8.7m-8.7,8.2v-7.9m8.7,-.3h8.6m-8.6,8.2v-7.9m8.6,-.3h8.7m-8.7,8.2v-7.9m8.7,-.3h8.7m-8.7,8.2v-7.9m8.7,-.3h8.6m-8.6,8.2v-7.9m8.6,-.3h8.7m-8.7,8.2v-7.9m8.7,-.3h8.7m-8.7,8.2v-7.9m8.7,-.3h8.6m-8.6,8.2v-7.9m8.6,-.3h9.1m-9.1,8.2v-7.9m8.7,7.9v-7.9m-95.7,8.3h9.1m-8.7,8.3v-7.9m8.7,-.4h8.6m-8.6,8.3v-7.9m8.6,-.4h8.7m-8.7,8.3v-7.9m8.7,-.4h8.6m-8.6,8.3v-7.9m8.6,-.4h8.7m-8.7,8.3v-7.9m8.7,-.4h8.7m-8.7,8.3v-7.9m8.7,-.4h8.6m-8.6,8.3v-7.9m8.6,-.4h8.7m-8.7,8.3v-7.9m8.7,-.4h8.7m-8.7,8.3v-7.9m8.7,-.4h8.6m-8.6,8.3v-7.9m8.6,-.4h9.1m-9.1,8.3v-7.9m8.7,7.9v-7.9m-95.7,8.3h9.1m-8.7,8.3v-7.9m8.7,-.4h8.6m-8.6,8.3v-7.9m8.6,-.4h8.7m-8.7,8.3v-7.9m8.7,-.4h8.6m-8.6,8.3v-7.9m8.6,-.4h8.7m-8.7,8.3v-7.9m8.7,-.4h8.7m-8.7,8.3v-7.9m8.7,-.4h8.6m-8.6,8.3v-7.9m8.6,-.4h8.7m-8.7,8.3v-7.9m8.7,-.4h8.7m-8.7,8.3v-7.9m8.7,-.4h8.6m-8.6,8.3v-7.9m8.6,-.4h9.1m-9.1,8.3v-7.9m8.7,7.9v-7.9m-95.7,8.2h9.1m-8.7,8.3v-7.9m8.7,-.4h8.6m-8.6,8.3v-7.9m8.6,-.4h8.7m-8.7,8.3v-7.9m8.7,-.4h8.6m-8.6,8.3v-7.9m8.6,-.4h8.7m-8.7,8.3v-7.9m8.7,-.4h8.7m-8.7,8.3v-7.9m8.7,-.4h8.6m-8.6,8.3v-7.9m8.6,-.4h8.7m-8.7,8.3v-7.9m8.7,-.4h8.7m-8.7,8.3v-7.9m8.7,-.4h8.6m-8.6,8.3v-7.9m8.6,-.4h9.1m-9.1,8.3v-7.9m8.7,7.9v-7.9m-95.7,8.3h9.1m0,0h8.6m0,0h8.7m0,0h8.6m0,0h8.7m0,0h8.7m0,0h8.6m0,0h8.7m0,0h8.7m0,0h8.6m0,0h9.1" class="g2_102"/>
<path d="M298,562.8V502.2l16.9,-17.3l26.4,17.3l34.2,-24.9l-34.2,85.5L314.9,545.9L298,562.8Z" class="g3_102"/>
<g clip-path="url(#c0_102)">
<g opacity="0.5">
<path d="M179.8,613.9l44.2,-.3l16.2,-16.9H154Z" class="g0_102"/>
</g>
<g opacity="0.5">
<path d="M162.3,639.8l44.1,.3l16.3,16.8H136.5Z" class="g0_102"/>
</g>
<g opacity="0.5">
<path d="M162.5,639.6l17.1,-25.8L154.3,596.9l-17.6,59.9Z" class="g0_102"/>
</g>
<g opacity="0.5">
<path d="M205.8,639.8l18,-25.9L240,596.8L222.7,657Z" class="g0_102"/>
</g>
</g>
<path d="M136.3,579.4h9m-8.6,8.3v-7.9m8.6,-.4H154m-8.7,8.3v-7.9m8.7,-.4h8.6m-8.6,8.3v-7.9m8.6,-.4h8.7m-8.7,8.3v-7.9m8.7,-.4H180m-8.7,8.3v-7.9m8.7,-.4h8.6m-8.6,8.3v-7.9m8.6,-.4h8.7m-8.7,8.3v-7.9m8.7,-.4h8.6m-8.6,8.3v-7.9m8.6,-.4h8.7m-8.7,8.3v-7.9m8.7,-.4h8.7m-8.7,8.3v-7.9m8.7,-.4h8.6m-8.6,8.3v-7.9m8.6,-.4H241m-9.1,8.3v-7.9m8.7,7.9v-7.9M136.3,588h9m-8.6,8.3v-7.9m8.6,-.4H154m-8.7,8.3v-7.9M154,588h8.6m-8.6,8.3v-7.9m8.6,-.4h8.7m-8.7,8.3v-7.9m8.7,-.4H180m-8.7,8.3v-7.9M180,588h8.6m-8.6,8.3v-7.9m8.6,-.4h8.7m-8.7,8.3v-7.9m8.7,-.4h8.6m-8.6,8.3v-7.9m8.6,-.4h8.7m-8.7,8.3v-7.9m8.7,-.4h8.7m-8.7,8.3v-7.9m8.7,-.4h8.6m-8.6,8.3v-7.9m8.6,-.4H241m-9.1,8.3v-7.9m8.7,7.9v-7.9m-104.3,8.3h9m-8.6,8.3v-7.9m8.6,-.4H154m-8.7,8.3v-7.9m8.7,-.4h8.6M154,605v-7.9m8.6,-.4h8.7m-8.7,8.3v-7.9m8.7,-.4H180m-8.7,8.3v-7.9m8.7,-.4h8.6M180,605v-7.9m8.6,-.4h8.7m-8.7,8.3v-7.9m8.7,-.4h8.6m-8.6,8.3v-7.9m8.6,-.4h8.7m-8.7,8.3v-7.9m8.7,-.4h8.7m-8.7,8.3v-7.9m8.7,-.4h8.6m-8.6,8.3v-7.9m8.6,-.4H241m-9.1,8.3v-7.9m8.7,7.9v-7.9m-104.3,8.3h9m-8.6,8.2v-7.9m8.6,-.3H154m-8.7,8.2v-7.9m8.7,-.3h8.6m-8.6,8.2v-7.9m8.6,-.3h8.7m-8.7,8.2v-7.9m8.7,-.3H180m-8.7,8.2v-7.9m8.7,-.3h8.6m-8.6,8.2v-7.9m8.6,-.3h8.7m-8.7,8.2v-7.9m8.7,-.3h8.6m-8.6,8.2v-7.9m8.6,-.3h8.7m-8.7,8.2v-7.9m8.7,-.3h8.7m-8.7,8.2v-7.9m8.7,-.3h8.6m-8.6,8.2v-7.9m8.6,-.3H241m-9.1,8.2v-7.9m8.7,7.9v-7.9M136.3,614h9m-8.6,8.3v-7.9m8.6,-.4H154m-8.7,8.3v-7.9M154,614h8.6m-8.6,8.3v-7.9m8.6,-.4h8.7m-8.7,8.3v-7.9m8.7,-.4H180m-8.7,8.3v-7.9M180,614h8.6m-8.6,8.3v-7.9m8.6,-.4h8.7m-8.7,8.3v-7.9m8.7,-.4h8.6m-8.6,8.3v-7.9m8.6,-.4h8.7m-8.7,8.3v-7.9m8.7,-.4h8.7m-8.7,8.3v-7.9m8.7,-.4h8.6m-8.6,8.3v-7.9m8.6,-.4H241m-9.1,8.3v-7.9m8.7,7.9v-7.9m-104.3,8.3h9m-8.6,8.3v-7.9m8.6,-.4H154m-8.7,8.3v-7.9m8.7,-.4h8.6M154,631v-7.9m8.6,-.4h8.7m-8.7,8.3v-7.9m8.7,-.4H180m-8.7,8.3v-7.9m8.7,-.4h8.6M180,631v-7.9m8.6,-.4h8.7m-8.7,8.3v-7.9m8.7,-.4h8.6m-8.6,8.3v-7.9m8.6,-.4h8.7m-8.7,8.3v-7.9m8.7,-.4h8.7m-8.7,8.3v-7.9m8.7,-.4h8.6m-8.6,8.3v-7.9m8.6,-.4H241m-9.1,8.3v-7.9m8.7,7.9v-7.9m-104.3,8.2h9m-8.6,8.3v-7.9m8.6,-.4H154m-8.7,8.3v-7.9m8.7,-.4h8.6m-8.6,8.3v-7.9m8.6,-.4h8.7m-8.7,8.3v-7.9m8.7,-.4H180m-8.7,8.3v-7.9m8.7,-.4h8.6m-8.6,8.3v-7.9m8.6,-.4h8.7m-8.7,8.3v-7.9m8.7,-.4h8.6m-8.6,8.3v-7.9m8.6,-.4h8.7m-8.7,8.3v-7.9m8.7,-.4h8.7m-8.7,8.3v-7.9m8.7,-.4h8.6m-8.6,8.3v-7.9m8.6,-.4H241m-9.1,8.3v-7.9m8.7,7.9v-7.9M136.3,640h9m-8.6,8.3v-7.9m8.6,-.4H154m-8.7,8.3v-7.9M154,640h8.6m-8.6,8.3v-7.9m8.6,-.4h8.7m-8.7,8.3v-7.9m8.7,-.4H180m-8.7,8.3v-7.9M180,640h8.6m-8.6,8.3v-7.9m8.6,-.4h8.7m-8.7,8.3v-7.9m8.7,-.4h8.6m-8.6,8.3v-7.9m8.6,-.4h8.7m-8.7,8.3v-7.9m8.7,-.4h8.7m-8.7,8.3v-7.9m8.7,-.4h8.6m-8.6,8.3v-7.9m8.6,-.4H241m-9.1,8.3v-7.9m8.7,7.9v-7.9m-104.3,8.3h9m-8.6,8.2v-7.8m8.6,-.4H154m-8.7,8.2v-7.8m8.7,-.4h8.6m-8.6,8.2v-7.8m8.6,-.4h8.7m-8.7,8.2v-7.8m8.7,-.4H180m-8.7,8.2v-7.8m8.7,-.4h8.6m-8.6,8.2v-7.8m8.6,-.4h8.7m-8.7,8.2v-7.8m8.7,-.4h8.6m-8.6,8.2v-7.8m8.6,-.4h8.7m-8.7,8.2v-7.8m8.7,-.4h8.7m-8.7,8.2v-7.8m8.7,-.4h8.6m-8.6,8.2v-7.8m8.6,-.4H241m-9.1,8.2v-7.8m8.7,7.8v-7.8m-104.3,8.2h9m-8.6,8.3v-7.9m8.6,-.4H154m-8.7,8.3v-7.9m8.7,-.4h8.6m-8.6,8.3v-7.9m8.6,-.4h8.7m-8.7,8.3v-7.9m8.7,-.4H180m-8.7,8.3v-7.9m8.7,-.4h8.6m-8.6,8.3v-7.9m8.6,-.4h8.7m-8.7,8.3v-7.9m8.7,-.4h8.6m-8.6,8.3v-7.9m8.6,-.4h8.7m-8.7,8.3v-7.9m8.7,-.4h8.7m-8.7,8.3v-7.9m8.7,-.4h8.6m-8.6,8.3v-7.9m8.6,-.4H241m-9.1,8.3v-7.9m8.7,7.9v-7.9M136.3,666h9m0,0H154m0,0h8.6m0,0h8.7m0,0H180m0,0h8.6m0,0h8.7m0,0h8.6m0,0h8.7m0,0h8.7m0,0h8.6m0,0H241" class="g2_102"/>
<path d="M136.3,656.9h86.6l17.3,-60.2H154l-17.7,60.2Zm26,-17.3h43.3l17.7,-25.5H179.6l-17.3,25.5Z" class="g3_102"/>
<g clip-path="url(#c0_102)">
<g opacity="0.5">
<path d="M332,624.1L349.5,615L367,607.2l-52.1,-9Z" class="g0_102"/>
</g>
<g opacity="0.5">
<path d="M332,641.2l17.7,.3l16.9,8.8l-51.5,8.3Z" class="g0_102"/>
</g>
<g opacity="0.5">
<path d="M332.2,641V624.1L314.9,598.4l.2,60Z" class="g0_102"/>
</g>
<g opacity="0.5">
<path d="M349.5,641.2l.2,-25.9l16.9,-7.8v42.8Z" class="g0_102"/>
</g>
</g>
<path d="M288.5,580.8h9.1m-8.7,8.3v-7.9m8.7,-.4h8.6m-8.6,8.3v-7.9m8.6,-.4h8.7m-8.7,8.3v-7.9m8.7,-.4h8.6m-8.6,8.3v-7.9m8.6,-.4h8.7m-8.7,8.3v-7.9m8.7,-.4h8.7m-8.7,8.3v-7.9m8.7,-.4h8.6m-8.6,8.3v-7.9m8.6,-.4h8.7m-8.7,8.3v-7.9m8.7,-.4h8.7m-8.7,8.3v-7.9m8.7,-.4h8.6m-8.6,8.3v-7.9m8.6,-.4h8.7m-8.7,8.3v-7.9m8.7,-.4h9m-9,8.3v-7.9m8.6,7.9v-7.9m-104.3,8.2h9.1m-8.7,8.3v-7.9m8.7,-.4h8.6m-8.6,8.3v-7.9m8.6,-.4h8.7m-8.7,8.3v-7.9m8.7,-.4h8.6m-8.6,8.3v-7.9m8.6,-.4h8.7m-8.7,8.3v-7.9m8.7,-.4h8.7m-8.7,8.3v-7.9m8.7,-.4h8.6m-8.6,8.3v-7.9m8.6,-.4h8.7m-8.7,8.3v-7.9m8.7,-.4h8.7m-8.7,8.3v-7.9m8.7,-.4h8.6m-8.6,8.3v-7.9m8.6,-.4h8.7m-8.7,8.3v-7.9m8.7,-.4h9m-9,8.3v-7.9m8.6,7.9v-7.9m-104.3,8.3h9.1m-8.7,8.3v-7.9m8.7,-.4h8.6m-8.6,8.3v-7.9m8.6,-.4h8.7m-8.7,8.3v-7.9m8.7,-.4h8.6m-8.6,8.3v-7.9m8.6,-.4h8.7m-8.7,8.3v-7.9m8.7,-.4h8.7m-8.7,8.3v-7.9m8.7,-.4h8.6m-8.6,8.3v-7.9m8.6,-.4h8.7m-8.7,8.3v-7.9m8.7,-.4h8.7m-8.7,8.3v-7.9m8.7,-.4h8.6m-8.6,8.3v-7.9m8.6,-.4h8.7m-8.7,8.3v-7.9m8.7,-.4h9m-9,8.3v-7.9m8.6,7.9v-7.9m-104.3,8.3h9.1m-8.7,8.2v-7.9m8.7,-.3h8.6m-8.6,8.2v-7.9m8.6,-.3h8.7m-8.7,8.2v-7.9m8.7,-.3h8.6m-8.6,8.2v-7.9m8.6,-.3h8.7m-8.7,8.2v-7.9m8.7,-.3h8.7m-8.7,8.2v-7.9m8.7,-.3h8.6m-8.6,8.2v-7.9m8.6,-.3h8.7m-8.7,8.2v-7.9m8.7,-.3h8.7m-8.7,8.2v-7.9m8.7,-.3h8.6m-8.6,8.2v-7.9m8.6,-.3h8.7m-8.7,8.2v-7.9m8.7,-.3h9m-9,8.2v-7.9m8.6,7.9v-7.9m-104.3,8.3h9.1m-8.7,8.3v-7.9m8.7,-.4h8.6m-8.6,8.3v-7.9m8.6,-.4h8.7m-8.7,8.3v-7.9m8.7,-.4h8.6m-8.6,8.3v-7.9m8.6,-.4h8.7m-8.7,8.3v-7.9m8.7,-.4h8.7m-8.7,8.3v-7.9m8.7,-.4h8.6m-8.6,8.3v-7.9m8.6,-.4h8.7m-8.7,8.3v-7.9m8.7,-.4h8.7m-8.7,8.3v-7.9m8.7,-.4h8.6m-8.6,8.3v-7.9m8.6,-.4h8.7m-8.7,8.3v-7.9m8.7,-.4h9m-9,8.3v-7.9m8.6,7.9v-7.9m-104.3,8.3h9.1m-8.7,8.3v-7.9m8.7,-.4h8.6m-8.6,8.3v-7.9m8.6,-.4h8.7m-8.7,8.3v-7.9m8.7,-.4h8.6m-8.6,8.3v-7.9m8.6,-.4h8.7m-8.7,8.3v-7.9m8.7,-.4h8.7m-8.7,8.3v-7.9m8.7,-.4h8.6m-8.6,8.3v-7.9m8.6,-.4h8.7m-8.7,8.3v-7.9m8.7,-.4h8.7m-8.7,8.3v-7.9m8.7,-.4h8.6m-8.6,8.3v-7.9m8.6,-.4h8.7m-8.7,8.3v-7.9m8.7,-.4h9m-9,8.3v-7.9m8.6,7.9v-7.9m-104.3,8.2h9.1m-8.7,8.3v-7.9m8.7,-.4h8.6m-8.6,8.3v-7.9m8.6,-.4h8.7m-8.7,8.3v-7.9m8.7,-.4h8.6m-8.6,8.3v-7.9m8.6,-.4h8.7m-8.7,8.3v-7.9m8.7,-.4h8.7m-8.7,8.3v-7.9m8.7,-.4h8.6m-8.6,8.3v-7.9m8.6,-.4h8.7m-8.7,8.3v-7.9m8.7,-.4h8.7m-8.7,8.3v-7.9m8.7,-.4h8.6m-8.6,8.3v-7.9m8.6,-.4h8.7m-8.7,8.3v-7.9m8.7,-.4h9m-9,8.3v-7.9m8.6,7.9v-7.9m-104.3,8.3h9.1m-8.7,8.3v-7.9m8.7,-.4h8.6m-8.6,8.3v-7.9m8.6,-.4h8.7m-8.7,8.3v-7.9m8.7,-.4h8.6m-8.6,8.3v-7.9m8.6,-.4h8.7m-8.7,8.3v-7.9m8.7,-.4h8.7m-8.7,8.3v-7.9m8.7,-.4h8.6m-8.6,8.3v-7.9m8.6,-.4h8.7m-8.7,8.3v-7.9m8.7,-.4h8.7m-8.7,8.3v-7.9m8.7,-.4h8.6m-8.6,8.3v-7.9m8.6,-.4h8.7m-8.7,8.3v-7.9m8.7,-.4h9m-9,8.3v-7.9m8.6,7.9v-7.9m-104.3,8.3h9.1m-8.7,8.2v-7.8m8.7,-.4h8.6m-8.6,8.2v-7.8m8.6,-.4h8.7m-8.7,8.2v-7.8m8.7,-.4h8.6m-8.6,8.2v-7.8m8.6,-.4h8.7m-8.7,8.2v-7.8m8.7,-.4h8.7m-8.7,8.2v-7.8m8.7,-.4h8.6m-8.6,8.2v-7.8m8.6,-.4h8.7m-8.7,8.2v-7.8m8.7,-.4h8.7m-8.7,8.2v-7.8m8.7,-.4h8.6m-8.6,8.2v-7.8m8.6,-.4h8.7m-8.7,8.2v-7.8m8.7,-.4h9m-9,8.2v-7.8m8.6,7.8v-7.8m-104.3,8.2h9.1m-8.7,8.3v-7.9m8.7,-.4h8.6m-8.6,8.3v-7.9m8.6,-.4h8.7m-8.7,8.3v-7.9m8.7,-.4h8.6m-8.6,8.3v-7.9m8.6,-.4h8.7m-8.7,8.3v-7.9m8.7,-.4h8.7m-8.7,8.3v-7.9m8.7,-.4h8.6m-8.6,8.3v-7.9m8.6,-.4h8.7m-8.7,8.3v-7.9m8.7,-.4h8.7m-8.7,8.3v-7.9m8.7,-.4h8.6m-8.6,8.3v-7.9m8.6,-.4h8.7m-8.7,8.3v-7.9m8.7,-.4h9m-9,8.3v-7.9m8.6,7.9v-7.9m-104.3,8.3h9.1m0,0h8.6m0,0h8.7m0,0h8.6m0,0h8.7m0,0h8.7m0,0h8.6m0,0h8.7m0,0h8.7m0,0h8.6m0,0h8.7m0,0h9" class="g2_102"/>
<path d="M314.9,658.3l51.7,-8V607l-51.7,-8.8v60.1ZM332.2,641h17.3V615.5l-17.3,8.6V641Z" class="g3_102"/>
<g clip-path="url(#c0_102)" opacity="0.5">
<path d="M144.6,745.1l60,-42.7l-24.9,59.4Z" class="g0_102"/>
</g>
<path d="M135.8,683.9h9m-8.7,8.3v-7.9m8.7,-.4h8.7m-8.7,8.3v-7.9m8.7,-.4h8.6m-8.6,8.3v-7.9m8.6,-.4h8.7m-8.7,8.3v-7.9m8.7,-.4h8.6m-8.6,8.3v-7.9m8.6,-.4h8.7m-8.7,8.3v-7.9m8.7,-.4h8.7m-8.7,8.3v-7.9m8.7,-.4h8.6m-8.6,8.3v-7.9m8.6,-.4h8.7m-8.7,8.3v-7.9m8.7,-.4h8.7m-8.7,8.3v-7.9m8.7,-.4h9m-9,8.3v-7.9m8.6,7.9v-7.9m-95.6,8.2h9m-8.7,8.3v-7.9m8.7,-.4h8.7m-8.7,8.3v-7.9m8.7,-.4h8.6m-8.6,8.3v-7.9m8.6,-.4h8.7m-8.7,8.3v-7.9m8.7,-.4h8.6m-8.6,8.3v-7.9m8.6,-.4h8.7m-8.7,8.3v-7.9m8.7,-.4h8.7m-8.7,8.3v-7.9m8.7,-.4h8.6m-8.6,8.3v-7.9m8.6,-.4h8.7m-8.7,8.3v-7.9m8.7,-.4h8.7m-8.7,8.3v-7.9m8.7,-.4h9m-9,8.3v-7.9m8.6,7.9v-7.9m-95.6,8.3h9m-8.7,8.3v-7.9m8.7,-.4h8.7m-8.7,8.3v-7.9m8.7,-.4h8.6m-8.6,8.3v-7.9m8.6,-.4h8.7m-8.7,8.3v-7.9m8.7,-.4h8.6m-8.6,8.3v-7.9m8.6,-.4h8.7m-8.7,8.3v-7.9m8.7,-.4h8.7m-8.7,8.3v-7.9m8.7,-.4h8.6m-8.6,8.3v-7.9m8.6,-.4h8.7m-8.7,8.3v-7.9m8.7,-.4h8.7m-8.7,8.3v-7.9m8.7,-.4h9m-9,8.3v-7.9m8.6,7.9v-7.9m-95.6,8.3h9m-8.7,8.2v-7.9m8.7,-.3h8.7m-8.7,8.2v-7.9m8.7,-.3h8.6m-8.6,8.2v-7.9m8.6,-.3h8.7m-8.7,8.2v-7.9m8.7,-.3h8.6m-8.6,8.2v-7.9m8.6,-.3h8.7m-8.7,8.2v-7.9m8.7,-.3h8.7m-8.7,8.2v-7.9m8.7,-.3h8.6m-8.6,8.2v-7.9m8.6,-.3h8.7m-8.7,8.2v-7.9m8.7,-.3h8.7m-8.7,8.2v-7.9m8.7,-.3h9m-9,8.2v-7.9m8.6,7.9v-7.9m-95.6,8.3h9m-8.7,8.3v-7.9m8.7,-.4h8.7m-8.7,8.3v-7.9m8.7,-.4h8.6m-8.6,8.3v-7.9m8.6,-.4h8.7m-8.7,8.3v-7.9m8.7,-.4h8.6m-8.6,8.3v-7.9m8.6,-.4h8.7m-8.7,8.3v-7.9m8.7,-.4h8.7m-8.7,8.3v-7.9m8.7,-.4h8.6m-8.6,8.3v-7.9m8.6,-.4h8.7m-8.7,8.3v-7.9m8.7,-.4h8.7m-8.7,8.3v-7.9m8.7,-.4h9m-9,8.3v-7.9m8.6,7.9v-7.9m-95.6,8.3h9m-8.7,8.3v-7.9m8.7,-.4h8.7m-8.7,8.3v-7.9m8.7,-.4h8.6m-8.6,8.3v-7.9m8.6,-.4h8.7m-8.7,8.3v-7.9m8.7,-.4h8.6m-8.6,8.3v-7.9m8.6,-.4h8.7m-8.7,8.3v-7.9m8.7,-.4h8.7m-8.7,8.3v-7.9m8.7,-.4h8.6m-8.6,8.3v-7.9m8.6,-.4h8.7m-8.7,8.3v-7.9m8.7,-.4h8.7m-8.7,8.3v-7.9m8.7,-.4h9m-9,8.3v-7.9m8.6,7.9v-7.9m-95.6,8.3h9m-8.7,8.2v-7.9m8.7,-.3h8.7m-8.7,8.2v-7.9m8.7,-.3h8.6m-8.6,8.2v-7.9m8.6,-.3h8.7m-8.7,8.2v-7.9m8.7,-.3h8.6m-8.6,8.2v-7.9m8.6,-.3h8.7m-8.7,8.2v-7.9m8.7,-.3h8.7m-8.7,8.2v-7.9m8.7,-.3h8.6m-8.6,8.2v-7.9m8.6,-.3h8.7m-8.7,8.2v-7.9m8.7,-.3h8.7m-8.7,8.2v-7.9m8.7,-.3h9m-9,8.2v-7.9m8.6,7.9v-7.9m-95.6,8.3h9m-8.7,8.3v-7.9m8.7,-.4h8.7m-8.7,8.3v-7.9m8.7,-.4h8.6m-8.6,8.3v-7.9m8.6,-.4h8.7m-8.7,8.3v-7.9m8.7,-.4h8.6m-8.6,8.3v-7.9m8.6,-.4h8.7m-8.7,8.3v-7.9m8.7,-.4h8.7m-8.7,8.3v-7.9m8.7,-.4h8.6m-8.6,8.3v-7.9m8.6,-.4h8.7m-8.7,8.3v-7.9m8.7,-.4h8.7m-8.7,8.3v-7.9m8.7,-.4h9m-9,8.3v-7.9m8.6,7.9v-7.9m-95.6,8.3h9m-8.7,8.3v-7.9m8.7,-.4h8.7m-8.7,8.3v-7.9m8.7,-.4h8.6m-8.6,8.3v-7.9m8.6,-.4h8.7m-8.7,8.3v-7.9m8.7,-.4h8.6m-8.6,8.3v-7.9m8.6,-.4h8.7m-8.7,8.3v-7.9m8.7,-.4h8.7m-8.7,8.3v-7.9m8.7,-.4h8.6m-8.6,8.3v-7.9m8.6,-.4h8.7m-8.7,8.3v-7.9m8.7,-.4h8.7m-8.7,8.3v-7.9m8.7,-.4h9m-9,8.3v-7.9m8.6,7.9v-7.9m-95.6,8.2h9m-8.7,8.3v-7.9m8.7,-.4h8.7m-8.7,8.3v-7.9m8.7,-.4h8.6m-8.6,8.3v-7.9m8.6,-.4h8.7m-8.7,8.3v-7.9m8.7,-.4h8.6m-8.6,8.3v-7.9m8.6,-.4h8.7m-8.7,8.3v-7.9m8.7,-.4h8.7m-8.7,8.3v-7.9m8.7,-.4h8.6m-8.6,8.3v-7.9m8.6,-.4h8.7m-8.7,8.3v-7.9m8.7,-.4h8.7m-8.7,8.3v-7.9m8.7,-.4h9m-9,8.3v-7.9m8.6,7.9v-7.9m-95.6,8.3h9m0,0h8.7m0,0h8.6m0,0h8.7m0,0h8.6m0,0h8.7m0,0h8.7m0,0h8.6m0,0h8.7m0,0h8.7m0,0h9" class="g2_102"/>
<path d="M179.7,762L144.4,745l60.2,-42.7L179.7,762Z" class="g3_102"/>
<g clip-path="url(#c0_102)" opacity="0.5">
<path d="M358.5,760.3L384,709L332.5,691.5l-25.8,51.7Z" class="g0_102"/>
</g>
<path d="M288.5,682.7h9.1m-8.7,8.3v-7.9m8.7,-.4h8.6m-8.6,8.3v-7.9m8.6,-.4h8.7m-8.7,8.3v-7.9m8.7,-.4h8.6m-8.6,8.3v-7.9m8.6,-.4h8.7m-8.7,8.3v-7.9m8.7,-.4h8.7m-8.7,8.3v-7.9m8.7,-.4h8.6m-8.6,8.3v-7.9m8.6,-.4h8.7m-8.7,8.3v-7.9m8.7,-.4h8.7m-8.7,8.3v-7.9m8.7,-.4h8.6m-8.6,8.3v-7.9m8.6,-.4h8.7m-8.7,8.3v-7.9m8.7,-.4h9m-9,8.3v-7.9m8.6,7.9v-7.9m-104.3,8.3h9.1m-8.7,8.3v-7.9m8.7,-.4h8.6m-8.6,8.3v-7.9m8.6,-.4h8.7m-8.7,8.3v-7.9m8.7,-.4h8.6m-8.6,8.3v-7.9m8.6,-.4h8.7m-8.7,8.3v-7.9m8.7,-.4h8.7m-8.7,8.3v-7.9m8.7,-.4h8.6m-8.6,8.3v-7.9m8.6,-.4h8.7m-8.7,8.3v-7.9m8.7,-.4h8.7m-8.7,8.3v-7.9m8.7,-.4h8.6m-8.6,8.3v-7.9m8.6,-.4h8.7m-8.7,8.3v-7.9m8.7,-.4h9m-9,8.3v-7.9m8.6,7.9v-7.9m-104.3,8.3h9.1m-8.7,8.3v-7.9m8.7,-.4h8.6m-8.6,8.3v-7.9m8.6,-.4h8.7m-8.7,8.3v-7.9m8.7,-.4h8.6m-8.6,8.3v-7.9m8.6,-.4h8.7m-8.7,8.3v-7.9m8.7,-.4h8.7m-8.7,8.3v-7.9m8.7,-.4h8.6m-8.6,8.3v-7.9m8.6,-.4h8.7m-8.7,8.3v-7.9m8.7,-.4h8.7m-8.7,8.3v-7.9m8.7,-.4h8.6m-8.6,8.3v-7.9m8.6,-.4h8.7m-8.7,8.3v-7.9m8.7,-.4h9m-9,8.3v-7.9m8.6,7.9v-7.9m-104.3,8.2h9.1m-8.7,8.3v-7.9m8.7,-.4h8.6m-8.6,8.3v-7.9m8.6,-.4h8.7m-8.7,8.3v-7.9m8.7,-.4h8.6m-8.6,8.3v-7.9m8.6,-.4h8.7m-8.7,8.3v-7.9m8.7,-.4h8.7m-8.7,8.3v-7.9m8.7,-.4h8.6m-8.6,8.3v-7.9m8.6,-.4h8.7m-8.7,8.3v-7.9m8.7,-.4h8.7m-8.7,8.3v-7.9m8.7,-.4h8.6m-8.6,8.3v-7.9m8.6,-.4h8.7m-8.7,8.3v-7.9m8.7,-.4h9m-9,8.3v-7.9m8.6,7.9v-7.9m-104.3,8.3h9.1m-8.7,8.3v-7.9m8.7,-.4h8.6m-8.6,8.3v-7.9m8.6,-.4h8.7m-8.7,8.3v-7.9m8.7,-.4h8.6m-8.6,8.3v-7.9m8.6,-.4h8.7m-8.7,8.3v-7.9m8.7,-.4h8.7m-8.7,8.3v-7.9m8.7,-.4h8.6m-8.6,8.3v-7.9m8.6,-.4h8.7m-8.7,8.3v-7.9m8.7,-.4h8.7m-8.7,8.3v-7.9m8.7,-.4h8.6m-8.6,8.3v-7.9m8.6,-.4h8.7m-8.7,8.3v-7.9m8.7,-.4h9m-9,8.3v-7.9m8.6,7.9v-7.9m-104.3,8.3h9.1m-8.7,8.2v-7.9m8.7,-.3h8.6m-8.6,8.2v-7.9m8.6,-.3h8.7m-8.7,8.2v-7.9m8.7,-.3h8.6m-8.6,8.2v-7.9m8.6,-.3h8.7m-8.7,8.2v-7.9m8.7,-.3h8.7m-8.7,8.2v-7.9m8.7,-.3h8.6m-8.6,8.2v-7.9m8.6,-.3h8.7m-8.7,8.2v-7.9m8.7,-.3h8.7m-8.7,8.2v-7.9m8.7,-.3h8.6m-8.6,8.2v-7.9m8.6,-.3h8.7m-8.7,8.2v-7.9m8.7,-.3h9m-9,8.2v-7.9m8.6,7.9v-7.9m-104.3,8.3h9.1m-8.7,8.3v-7.9m8.7,-.4h8.6m-8.6,8.3v-7.9m8.6,-.4h8.7m-8.7,8.3v-7.9m8.7,-.4h8.6m-8.6,8.3v-7.9m8.6,-.4h8.7m-8.7,8.3v-7.9m8.7,-.4h8.7m-8.7,8.3v-7.9m8.7,-.4h8.6m-8.6,8.3v-7.9m8.6,-.4h8.7m-8.7,8.3v-7.9m8.7,-.4h8.7m-8.7,8.3v-7.9m8.7,-.4h8.6m-8.6,8.3v-7.9m8.6,-.4h8.7m-8.7,8.3v-7.9m8.7,-.4h9m-9,8.3v-7.9m8.6,7.9v-7.9m-104.3,8.3h9.1m-8.7,8.3v-7.9m8.7,-.4h8.6m-8.6,8.3v-7.9m8.6,-.4h8.7m-8.7,8.3v-7.9m8.7,-.4h8.6m-8.6,8.3v-7.9m8.6,-.4h8.7m-8.7,8.3v-7.9m8.7,-.4h8.7m-8.7,8.3v-7.9m8.7,-.4h8.6m-8.6,8.3v-7.9m8.6,-.4h8.7m-8.7,8.3v-7.9m8.7,-.4h8.7m-8.7,8.3v-7.9m8.7,-.4h8.6m-8.6,8.3v-7.9m8.6,-.4h8.7m-8.7,8.3v-7.9m8.7,-.4h9m-9,8.3v-7.9m8.6,7.9v-7.9M288.5,752h9.1m-8.7,8.3v-7.9m8.7,-.4h8.6m-8.6,8.3v-7.9m8.6,-.4h8.7m-8.7,8.3v-7.9m8.7,-.4h8.6m-8.6,8.3v-7.9m8.6,-.4h8.7m-8.7,8.3v-7.9m8.7,-.4h8.7m-8.7,8.3v-7.9m8.7,-.4h8.6m-8.6,8.3v-7.9m8.6,-.4h8.7m-8.7,8.3v-7.9m8.7,-.4h8.7m-8.7,8.3v-7.9m8.7,-.4h8.6m-8.6,8.3v-7.9m8.6,-.4h8.7m-8.7,8.3v-7.9m8.7,-.4h9m-9,8.3v-7.9m8.6,7.9v-7.9m-104.3,8.3h9.1m-8.7,8.3v-7.9m8.7,-.4h8.6m-8.6,8.3v-7.9m8.6,-.4h8.7m-8.7,8.3v-7.9m8.7,-.4h8.6m-8.6,8.3v-7.9m8.6,-.4h8.7m-8.7,8.3v-7.9m8.7,-.4h8.7m-8.7,8.3v-7.9m8.7,-.4h8.6m-8.6,8.3v-7.9m8.6,-.4h8.7m-8.7,8.3v-7.9m8.7,-.4h8.7m-8.7,8.3v-7.9m8.7,-.4h8.6m-8.6,8.3v-7.9m8.6,-.4h8.7m-8.7,8.3v-7.9m8.7,-.4h9m-9,8.3v-7.9m8.6,7.9v-7.9m-104.3,8.3h9.1m0,0h8.6m0,0h8.7m0,0h8.6m0,0h8.7m0,0h8.7m0,0h8.6m0,0h8.7m0,0h8.7m0,0h8.6m0,0h8.7m0,0h9" class="g2_102"/>
<path d="M306.4,743.4l52,17.1L384.1,709L332.4,691.5l-26,51.9Z" class="g3_102"/>
<path d="M0,141.1H120.6V0H0V141.1Z" class="g1_102"/>
<path d="M892.1,138.7h17.3V0H892.1V138.7Z" class="g1_102"/>
<path d="M870.5,147.2h38.9V0H870.5V147.2Z" class="g4_102"/>
</svg>