<?xml version="1.0" encoding="UTF-8" standalone="no"?>
<!DOCTYPE svg PUBLIC "-//W3C//DTD SVG 1.1//EN"
"http://www.w3.org/Graphics/SVG/1.1/DTD/svg11.dtd">
<svg viewBox="0 0 909 1147" version="1.1" xmlns="http://www.w3.org/2000/svg" xmlns:xlink="http://www.w3.org/1999/xlink">
<defs>
<style type="text/css"><![CDATA[
.g0_26{
fill: #FAAF82;
}
.g1_26{
fill: none;
stroke: #000;
stroke-width: 0.763;
}
.g2_26{
fill: #FFF;
}
.g3_26{
fill: none;
stroke: #0EA5DF;
stroke-width: 3.055;
}
]]></style>
</defs>
<path d="M0,1131H73.8v-51.5H0V1131Z" class="g0_26"/>
<path d="M204.8,205.1h11.9m213.9,0h11.9m246.1,0h11.9M214,457.3h11.9m260.2,0H498m208.4,0h12M242,752.5h11.9m213.4,0h11.9m209.4,0h11.9m-468.3,307h11.9m281.3,0h11.9m211.2,0h11.9" class="g1_26"/>
<path fill-rule="evenodd" d="M356.3,1121.2h13.4v-26H356.3v26Z" class="g2_26"/>
<path d="M73.6,166.9H835.8M73.6,416.7H835.8M73.6,713.9H835.8m-762.2,301H835.8" class="g3_26"/>
<path d="M0,141.1H120.6V0H0V141.1Z" class="g0_26"/>
<path d="M205,275.8h12m57.6,0h11.9m15.5,0h17.3M219.2,331h11.9m15.5,0h11.9m-39.3,42.1h17.3M428.8,275.8h12m57.6,0h11.9m15.5,0h17.3M441.8,326.6h11.9m15.5,0h11.9m-39.3,42.2h17.3M493,272.5l21.5,-10.3M493,290.4l21.5,-10.3m9.1,-7.6L545,262.2m-21.4,28.2L545,280.1m143.6,-4.3h11.9m21,0h17.3m15,0h12M665,326.6h12m15.5,0h11.9M665,368.8h17.4m40,-96.3l21.4,-10.3m-21.4,28.2l21.4,-10.3M214.2,524.2h11.9m57.7,0h11.9m24.6,0h17.4M219.2,579.4h11.9m24.7,0h11.9m21,0h11.9m15.5,0H328M219.2,634.5h35.2m20.1,0h11.9m-58,42.1h11.9m44.2,-81.7L306,584.6m6,-9.2l21.5,-10.3M484.3,524.2h12m30.1,0H555m16,0h17.3M451,579.4h11.9m16,0h17.3m20.5,0h12m15.4,0h17.4M441.8,634.5h11.9M513.4,575l21.4,-10.2m8.9,29l21.4,-10.3M706.6,524.2h12m30.1,0h28.6m15.5,0h11.9M674.4,579.4h12m15.4,0h12m20.9,0h11.9m15.5,0H774M245.1,819.3H257m9.2,107.8h11.9m-48.6,37.8h12m15.4,0h12m20.9,0h11.9M467.1,819.3h12m9.7,37.8h11.9m-48.6,37.8h17.3m15.1,0h11.9m21,0h17.3m156,-75.6h11.9m9.2,107.8h11.9m-48.5,37.8h17.3m15,0h12m20.9,0h17.3" class="g1_26"/>
</svg>