<?xml version="1.0" encoding="UTF-8" standalone="no"?>
<!DOCTYPE svg PUBLIC "-//W3C//DTD SVG 1.1//EN"
"http://www.w3.org/Graphics/SVG/1.1/DTD/svg11.dtd">
<svg viewBox="0 0 909 1147" version="1.1" xmlns="http://www.w3.org/2000/svg" xmlns:xlink="http://www.w3.org/1999/xlink">
<defs>
<clipPath id="c0_24"><path d="M140.7,585.9V560.3h25.6v25.6Z"/></clipPath>
<clipPath id="c1_24"><path d="M139.2,1022.1v-18h30.2v18Z"/></clipPath>
<style type="text/css"><![CDATA[
.g0_24{
fill: #FAAF82;
}
.g1_24{
fill: none;
stroke: #000;
stroke-width: 0.763;
}
.g2_24{
fill: none;
stroke: #D82C20;
stroke-width: 0.763;
}
.g3_24{
fill: none;
stroke: #0EA5DF;
stroke-width: 3.055;
}
.g4_24{
fill: #FFF1E0;
}
.g5_24{
fill: #0C4B7F;
}
.g6_24{
fill: #0EA5DF;
}
.g7_24{
fill: #FFF;
}
.g8_24{
fill: none;
stroke: #0EA5DF;
stroke-width: 0.763;
}
]]></style>
</defs>
<path d="M0,1131H73.8v-51.5H0V1131Z" class="g0_24"/>
<path d="M204.8,207.5h11.9m213.9,0h11.9m208.9,0h12M204.8,291.1h11.9m26,62.7h19.4m-13.5,37.6H268M239,317.5h19.5M429.1,289.3H441m29,64.2h19.4m-16.6,36.1h19.5m-29,-72.4h19.5m-3.1,108.6h19.5M651.4,290.6h12m33.5,81h19.5m-14.3,38.1h19.5M685.7,336.1h19.5M204.3,761.3h11.9m213.9,0H442m210.4,0h17.4M238.1,821.2h19.5M204.3,813h11.9m29,81.8h19.5m-8.4,35.7h19.4M238.5,857H258m5.2,111.4h19.5M430.1,813.3H442m22.9,45h19.5m-10.8,36.8h19.5M464.3,822.4h19.5" class="g1_24"/>
<path d="M529.5,819.8c0,0,4.5,3.1,9.5,0m1.5,0c0,0,4.5,3.1,9.5,0" class="g2_24"/>
<path d="M693.9,820.7h19.5m-61,-8.2h17.4" class="g1_24"/>
<path d="M767.7,819.5c0,0,8,3,16.6,0" class="g2_24"/>
<path d="M701,894.3h19.5M712.1,930h19.4M694.3,856.5h19.5M719,967.9h19.5" class="g1_24"/>
<path d="M785.3,819.4c0,0,7.9,2.9,16.6,0" class="g2_24"/>
<path d="M73.6,166.9H835.8" class="g3_24"/>
<path d="M186.3,538.1h648V454.7h-648v83.4Z" class="g4_24"/>
<path d="M186.3,701.7h648V554.2h-648V701.7Z" class="g4_24"/>
<path d="M73.6,718.9H835.8" class="g3_24"/>
<path d="M0,141.1H120.6V0H0V141.1Z" class="g0_24"/>
<path d="M134.3,493.7H174V454.9H134.3v38.8Z" class="g5_24"/>
<path d="M134.3,591.7H174V554.2H134.3v37.5Z" class="g6_24"/>
<path clip-path="url(#c0_24)" fill-rule="evenodd" d="M155.8,577.6c3.8,0,6.9,-3,6.9,-6.8c0,-3.8,-3.1,-6.9,-6.9,-6.9c-3.8,0,-6.8,3.1,-6.8,6.9c0,3.8,3,6.8,6.8,6.8m-14.4,4.5l5.6,-5.5l.1,-.1c-1.1,-1.6,-1.8,-3.6,-1.8,-5.7c0,-5.8,4.7,-10.5,10.5,-10.5c5.8,0,10.5,4.7,10.5,10.5c0,5.8,-4.7,10.5,-10.5,10.5c-2.1,0,-4.1,-.7,-5.7,-1.8q-.1,.1,-.1,.1l-5.6,5.6c-.8,.8,-2.1,.8,-3,0c-.8,-.9,-.8,-2.2,0,-3.1Z" class="g7_24"/>
<path d="M186.2,1079.5h648V994h-648v85.5Z" class="g4_24"/>
<path d="M134.3,1031.4h39.6V994H134.3v37.4Z" class="g6_24"/>
<path clip-path="url(#c1_24)" d="M154.5,1016.5c-2.1,.2,-3.8,-1.5,-3.6,-3.6c.1,-1.7,1.5,-3.1,3.2,-3.2c2,-.1,3.7,1.6,3.6,3.6c-.1,1.7,-1.5,3.1,-3.2,3.2m.2,3c-3.8,.2,-7,-3,-6.7,-6.8c.1,-3.2,2.7,-5.7,5.9,-5.9c3.8,-.3,7,2.9,6.7,6.7c-.2,3.2,-2.7,5.8,-5.9,6m-.4,-15.4c-5.8,0,-11,3.2,-14.9,8.3c-.3,.4,-.3,1,0,1.4c3.9,5.2,9.1,8.3,14.9,8.3c5.8,0,11,-3.1,14.8,-8.3c.4,-.4,.4,-1,0,-1.4c-3.8,-5.1,-9,-8.3,-14.8,-8.3Z" class="g7_24"/>
<path d="M502.7,666.8h26.2m21.5,0h40m23.3,0h64.9m22.5,0h48.7" class="g1_24"/>
<path d="M512,640.4c0,0,-18.4,0,-18.4,18.3v15.9c0,0,0,18.3,18.4,18.3H803.3c0,0,18.3,0,18.3,-18.3V658.7c0,0,0,-18.3,-18.3,-18.3H512Z" class="g8_24"/>
<path d="M551.1,819.3c0,0,4.5,3.1,9.5,0" class="g2_24"/>
<path d="M480.3,930.6h19.5" class="g1_24"/>
</svg>