<?xml version="1.0" encoding="UTF-8" standalone="no"?>
<!DOCTYPE svg PUBLIC "-//W3C//DTD SVG 1.1//EN"
"http://www.w3.org/Graphics/SVG/1.1/DTD/svg11.dtd">
<svg viewBox="0 0 909 1147" version="1.1" xmlns="http://www.w3.org/2000/svg" xmlns:xlink="http://www.w3.org/1999/xlink">
<defs>
<style type="text/css"><![CDATA[
.g0_150{
fill: #E7A9A1;
}
.g1_150{
fill: #FCD3C1;
}
.g2_150{
fill: none;
stroke: #000;
stroke-width: 0.763;
stroke-miterlimit: 10;
}
.g3_150{
fill: none;
stroke: #000;
stroke-width: 0.763;
}
]]></style>
</defs>
<path d="M0,1131H72.3v-51.5H0V1131Z" class="g0_150"/>
<path d="M74,494.7h84.8v21.6H74V494.7Zm84.8,0h93.5v21.6H158.8V494.7Zm93.5,0h62.8v21.6H252.3V494.7ZM74,667.9H315.1v21.7H74V667.9Zm0,65H315.1v21.6H74V732.9Zm0,86.6H315.1v21.6H74V819.5Z" class="g1_150"/>
<path d="M73.6,494.7h85.2M74,516V495.1m84.8,-.4h93.5M158.8,516V495.1m93.5,-.4h63.2M252.3,516V495.1M315.1,516V495.1M73.6,516.3h85.2M74,537.6V516.7m84.8,-.4h93.5m-93.5,21.3V516.7m93.5,-.4h63.2m-63.2,21.3V516.7m62.8,20.9V516.7M73.6,538h85.2M74,559.3V538.4m84.8,-.4h93.5m-93.5,21.3V538.4m93.5,-.4h63.2m-63.2,21.3V538.4m62.8,20.9V538.4M73.6,559.6h85.2M74,580.9V560m84.8,-.4h93.5m-93.5,21.3V560m93.5,-.4h63.2m-63.2,21.3V560m62.8,20.9V560M73.6,581.3h85.2M74,602.6V581.7m84.8,-.4h93.5m-93.5,21.3V581.7m93.5,-.4h63.2m-63.2,21.3V581.7m62.8,20.9V581.7M73.6,602.9h85.2M74,624.2V603.3m84.8,-.4h93.5m-93.5,21.3V603.3m93.5,-.4h63.2m-63.2,21.3V603.3m62.8,20.9V603.3M73.6,624.6h85.2M74,645.9V625m84.8,-.4h93.5m-93.5,21.3V625m93.5,-.4h63.2m-63.2,21.3V625m62.8,20.9V625M73.6,646.3h85.2M74,667.5V646.6m84.8,-.3h93.5m-93.5,21.2V646.6m93.5,-.3h63.2m-63.2,21.2V646.6m62.8,20.9V646.6M73.6,667.9h85.2M74,689.2V668.3m84.8,-.4h93.5m0,0h63.2m-.4,21.3V668.3M73.6,689.6h85.2M74,710.8V689.9m84.8,-.3h93.5m-93.5,21.2V689.9m93.5,-.3h63.2m-63.2,21.2V689.9m62.8,20.9V689.9M73.6,711.2h85.2M74,732.5V711.6m84.8,-.4h93.5m-93.5,21.3V711.6m93.5,-.4h63.2m-63.2,21.3V711.6m62.8,20.9V711.6M73.6,732.9h85.2M74,754.1V733.3m84.8,-.4h93.5m0,0h63.2m-.4,21.2V733.3M73.6,754.5h85.2M74,775.8V754.9m84.8,-.4h93.5m-93.5,21.3V754.9m93.5,-.4h63.2m-63.2,21.3V754.9m62.8,20.9V754.9M73.6,776.2h85.2M74,797.4V776.6m84.8,-.4h93.5m-93.5,21.2V776.6m93.5,-.4h63.2m-63.2,21.2V776.6m62.8,20.8V776.6M73.6,797.8h85.2M74,819.1V798.2m84.8,-.4h93.5m-93.5,21.3V798.2m93.5,-.4h63.2m-63.2,21.3V798.2m62.8,20.9V798.2M73.6,819.5h85.2M74,840.8V819.9m84.8,-.4h93.5m0,0h63.2m-.4,21.3V819.9M73.6,841.1h85.2M74,862.4V841.5m84.8,-.4h93.5m0,0h63.2m-63.2,21.3V841.5m62.8,20.9V841.5M73.6,862.8h85.2m0,0h93.5m0,0h63.2" class="g2_150"/>
<path d="M113.1,951.3h8.5m148.4,0h8.5M143.9,985.9h15.2m97.4,0h15.2M143.9,1020h8.5m104.1,.5h15.2m-127.8,34.2h15.2m89.8,0H264M404.1,84.8h8.5m104.1,0h8.5M404.1,119.4h8.5m73.1,66h8.5M485.7,220h8.5m50.1,0h8.5M365.6,322.7h8.5m73.8,0h8.5" class="g3_150"/>
<path d="M334.2,409.9H419v21.7H334.2V409.9Zm84.8,0h93.5v21.7H419V409.9Zm93.5,0h62.8v21.7H512.5V409.9ZM334.2,583.1H575.3v21.7H334.2V583.1Zm0,65H575.3v21.6H334.2V648.1Zm0,102.1H575.3v21.7H334.2V750.2Z" class="g1_150"/>
<path d="M333.8,409.9H419m-84.8,21.3V410.3m84.8,-.4h93.5M419,431.2V410.3m93.5,-.4h63.1m-63.1,21.3V410.3m62.8,20.9V410.3M333.8,431.6H419m-84.8,21.2V431.9m84.8,-.3h93.5M419,452.8V431.9m93.5,-.3h63.1m-63.1,21.2V431.9m62.8,20.9V431.9M333.8,453.2H419m-84.8,21.3V453.6m84.8,-.4h93.5M419,474.5V453.6m93.5,-.4h63.1m-63.1,21.3V453.6m62.8,20.9V453.6M333.8,474.9H419m-84.8,21.2V475.2m84.8,-.3h93.5M419,496.1V475.2m93.5,-.3h63.1m-63.1,21.2V475.2m62.8,20.9V475.2M333.8,496.5H419m-84.8,21.3V496.9m84.8,-.4h93.5M419,517.8V496.9m93.5,-.4h63.1m-63.1,21.3V496.9m62.8,20.9V496.9M333.8,518.2H419m-84.8,21.2V518.6m84.8,-.4h93.5M419,539.4V518.6m93.5,-.4h63.1m-63.1,21.2V518.6m62.8,20.8V518.6M333.8,539.8H419m-84.8,21.3V540.2m84.8,-.4h93.5M419,561.1V540.2m93.5,-.4h63.1m-63.1,21.3V540.2m62.8,20.9V540.2M333.8,561.5H419m-84.8,21.3V561.9m84.8,-.4h93.5M419,582.8V561.9m93.5,-.4h63.1m-63.1,21.3V561.9m62.8,20.9V561.9M333.8,583.1H419m-84.8,21.3V583.5m84.8,-.4h93.5m0,0h63.1m-.3,21.3V583.5M333.8,604.8H419m-84.8,21.3V605.2m84.8,-.4h93.5M419,626.1V605.2m93.5,-.4h63.1m-63.1,21.3V605.2m62.8,20.9V605.2M333.8,626.4H419m-84.8,21.3V626.8m84.8,-.4h93.5M419,647.7V626.8m93.5,-.4h63.1m-63.1,21.3V626.8m62.8,20.9V626.8M333.8,648.1H419m-84.8,21.3V648.5m84.8,-.4h93.5m0,0h63.1m-.3,21.3V648.5M333.8,669.7H419m-84.8,36.9V670.1m84.8,-.4h93.5M419,706.6V670.1m93.5,-.4h63.1m-63.1,36.9V670.1m62.8,36.5V670.1M333.8,706.9H419m-84.8,21.3V707.3m84.8,-.4h93.5M419,728.2V707.3m93.5,-.4h63.1m-63.1,21.3V707.3m62.8,20.9V707.3M333.8,728.6H419m-84.8,21.3V729m84.8,-.4h93.5M419,749.9V729m93.5,-.4h63.1m-63.1,21.3V729m62.8,20.9V729M333.8,750.2H419m-84.8,21.3V750.6m84.8,-.4h93.5m0,0h63.1m-.3,21.3V750.6M333.8,771.9H419m-84.8,21.3V772.3m84.8,-.4h93.5m0,0h63.1m-63.1,21.3V772.3m62.8,20.9V772.3M333.8,793.6H419m0,0h93.5m0,0h63.1" class="g2_150"/>
<path d="M458.1,688.6h15.2" class="g3_150"/>
<path d="M594.4,308.5h84.8v21.7H594.4V308.5Zm84.8,0h93.4v21.7H679.2V308.5Zm93.4,0h62.8v21.7H772.6V308.5ZM594.4,481.7h241v21.7h-241V481.7Zm0,65h241v21.7h-241V546.7Zm0,86.6h241V655h-241V633.3Z" class="g1_150"/>
<path d="M594,308.5h85.2m-84.8,21.3V308.9m84.8,-.4h93.4m-93.4,21.3V308.9m93.4,-.4h63.2m-63.2,21.3V308.9m62.8,20.9V308.9M594,330.2h85.2m-84.8,21.2V330.6m84.8,-.4h93.4m-93.4,21.2V330.6m93.4,-.4h63.2m-63.2,21.2V330.6m62.8,20.8V330.6M594,351.8h85.2m-84.8,21.3V352.2m84.8,-.4h93.4m-93.4,21.3V352.2m93.4,-.4h63.2m-63.2,21.3V352.2m62.8,20.9V352.2M594,373.5h85.2m-84.8,21.2V373.9m84.8,-.4h93.4m-93.4,21.2V373.9m93.4,-.4h63.2m-63.2,21.2V373.9m62.8,20.8V373.9M594,395.1h85.2m-84.8,21.3V395.5m84.8,-.4h93.4m-93.4,21.3V395.5m93.4,-.4h63.2m-63.2,21.3V395.5m62.8,20.9V395.5M594,416.8h85.2m-84.8,21.3V417.2m84.8,-.4h93.4m-93.4,21.3V417.2m93.4,-.4h63.2m-63.2,21.3V417.2m62.8,20.9V417.2M594,438.4h85.2m-84.8,21.3V438.8m84.8,-.4h93.4m-93.4,21.3V438.8m93.4,-.4h63.2m-63.2,21.3V438.8m62.8,20.9V438.8M594,460.1h85.2m-84.8,21.3V460.5m84.8,-.4h93.4m-93.4,21.3V460.5m93.4,-.4h63.2m-63.2,21.3V460.5m62.8,20.9V460.5M594,481.7h85.2M594.4,503V482.1m84.8,-.4h93.4m0,0h63.2m-.4,21.3V482.1M594,503.4h85.2m-84.8,21.3V503.8m84.8,-.4h93.4m-93.4,21.3V503.8m93.4,-.4h63.2m-63.2,21.3V503.8m62.8,20.9V503.8M594,525.1h85.2m-84.8,21.2V525.4m84.8,-.3h93.4m-93.4,21.2V525.4m93.4,-.3h63.2m-63.2,21.2V525.4m62.8,20.9V525.4M594,546.7h85.2M594.4,568V547.1m84.8,-.4h93.4m0,0h63.2m-.4,21.3V547.1M594,568.4h85.2m-84.8,21.2V568.7m84.8,-.3h93.4m-93.4,21.2V568.7m93.4,-.3h63.2m-63.2,21.2V568.7m62.8,20.9V568.7M594,590h85.2m-84.8,21.3V590.4m84.8,-.4h93.4m-93.4,21.3V590.4m93.4,-.4h63.2m-63.2,21.3V590.4m62.8,20.9V590.4M594,611.7h85.2m-84.8,21.2V612m84.8,-.3h93.4m-93.4,21.2V612m93.4,-.3h63.2m-63.2,21.2V612m62.8,20.9V612M594,633.3h85.2m-84.8,21.3V633.7m84.8,-.4h93.4m0,0h63.2m-.4,21.3V633.7M594,655h85.2m-84.8,21.2V655.4m84.8,-.4h93.4m0,0h63.2m-63.2,21.2V655.4m62.8,20.8V655.4M594,676.6h85.2m0,0h93.4m0,0h63.2M624.3,794.7H686m-61.3,22.4v-22m61.3,-.4h34.7M686,817.1v-22m34.7,-.4h34.6m-34.6,22.4v-22m34.6,-.4h34.6m-34.6,22.4v-22m34.6,-.4h39.4m-39.4,22.4v-22m39,22v-22M624.3,817.5H686m-61.3,22.4v-22m61.3,-.4h34.7M686,839.9v-22m34.7,-.4h34.6m-34.6,22.4v-22m34.6,-.4h34.6m-34.6,22.4v-22m34.6,-.4h39.4m-39.4,22.4v-22m39,22v-22M624.3,840.3H686m-61.3,22.5V840.7m61.3,-.4h34.7M686,862.8V840.7m34.7,-.4h34.6m-34.6,22.5V840.7m34.6,-.4h34.6m-34.6,22.5V840.7m34.6,-.4h39.4m-39.4,22.5V840.7m39,22.1V840.7M624.3,863.2H686m-61.3,22.4V863.5m61.3,-.3h34.7M686,885.6V863.5m34.7,-.3h34.6m-34.6,22.4V863.5m34.6,-.3h34.6m-34.6,22.4V863.5m34.6,-.3h39.4m-39.4,22.4V863.5m39,22.1V863.5M624.3,886H686m-61.3,22.4v-22M686,886h34.7M686,908.4v-22m34.7,-.4h34.6m-34.6,22.4v-22m34.6,-.4h34.6m-34.6,22.4v-22m34.6,-.4h39.4m-39.4,22.4v-22m39,22v-22M624.3,908.8H686m-61.3,22.5V909.2m61.3,-.4h34.7M686,931.3V909.2m34.7,-.4h34.6m-34.6,22.5V909.2m34.6,-.4h34.6m-34.6,22.5V909.2m34.6,-.4h39.4m-39.4,22.5V909.2m39,22.1V909.2M624.3,931.6H686m-61.3,22.5V932m61.3,-.4h34.7M686,954.1V932m34.7,-.4h34.6m-34.6,22.5V932m34.6,-.4h34.6m-34.6,22.5V932m34.6,-.4h39.4m-39.4,22.5V932m39,22.1V932M624.3,954.5H686m-61.3,22.4v-22m61.3,-.4h34.7M686,976.9v-22m34.7,-.4h34.6m-34.6,22.4v-22m34.6,-.4h34.6m-34.6,22.4v-22m34.6,-.4h39.4m-39.4,22.4v-22m39,22v-22M624.3,977.3H686m-61.3,22.4v-22m61.3,-.4h34.7M686,999.7v-22m34.7,-.4h34.6m-34.6,22.4v-22m34.6,-.4h34.6m-34.6,22.4v-22m34.6,-.4h39.4m-39.4,22.4v-22m39,22v-22m-204.6,22.4H686m-61.3,22.5v-22.1m61.3,-.4h34.7M686,1022.6v-22.1m34.7,-.4h34.6m-34.6,22.5v-22.1m34.6,-.4h34.6m-34.6,22.5v-22.1m34.6,-.4h39.4m-39.4,22.5v-22.1m39,22.1v-22.1m-204.6,22.4H686m0,0h34.7m0,0h34.6m0,0h34.6m0,0h39.4" class="g2_150"/>
</svg>