<?xml version="1.0" encoding="UTF-8" standalone="no"?>
<!DOCTYPE svg PUBLIC "-//W3C//DTD SVG 1.1//EN"
"http://www.w3.org/Graphics/SVG/1.1/DTD/svg11.dtd">
<svg viewBox="0 0 909 1147" version="1.1" xmlns="http://www.w3.org/2000/svg" xmlns:xlink="http://www.w3.org/1999/xlink">
<defs>
<style type="text/css"><![CDATA[
.g0_131{
fill: #E7A9A1;
}
.g1_131{
fill: #000;
}
.g2_131{
fill: none;
stroke: #000;
stroke-width: 0.855;
stroke-miterlimit: 2;
}
.g3_131{
fill: none;
stroke: #000;
stroke-width: 0.855;
stroke-miterlimit: 2;
stroke-dasharray: 5,3;
}
.g4_131{
fill: none;
stroke: #000;
stroke-width: 0.736;
stroke-linejoin: round;
}
.g5_131{
fill: #D1D3D4;
}
.g6_131{
fill: #FFF;
}
.g7_131{
fill: #FFF;
stroke: #000;
stroke-width: 0.736;
stroke-linejoin: round;
}
]]></style>
</defs>
<path d="M835.8,1131h73.6v-51.5H835.8V1131Z" class="g0_131"/>
<path fill-rule="evenodd" d="M420.2,617.4l-1.2,4.5l-.2,.6c0,0,0,.1,0,.1c0,.1,0,.2,.1,.2q0,.1,.1,.1c.1,0,.1,-.1,.2,-.1c.2,-.2,.4,-.4,.7,-.8l.2,.1c-.3,.5,-.6,.8,-.9,1.1c-.3,.2,-.6,.3,-.9,.3c-.2,0,-.3,0,-.4,-.1c-.1,-.1,-.2,-.2,-.2,-.4c0,-.2,.1,-.5,.2,-.9l.1,-.5c-.5,.8,-1.1,1.3,-1.6,1.6c-.3,.2,-.6,.3,-1,.3c-.3,0,-.6,-.1,-.8,-.4c-.2,-.2,-.3,-.6,-.3,-1.1c0,-.6,.2,-1.4,.6,-2.2c.4,-.7,.9,-1.3,1.6,-1.8c.5,-.4,1,-.6,1.4,-.6c.3,0,.5,.1,.7,.2c.1,.2,.3,.4,.4,.7l.2,-.7Zm-2.3,.4c-.3,0,-.6,.1,-.9,.4c-.4,.3,-.8,.9,-1.2,1.6c-.3,.8,-.5,1.4,-.5,2c0,.3,.1,.5,.2,.7c.2,.2,.4,.3,.5,.3c.5,0,1,-.4,1.6,-1.1c.7,-.9,1.1,-1.9,1.1,-2.9c0,-.3,-.1,-.6,-.2,-.8c-.1,-.1,-.3,-.2,-.6,-.2Z" class="g1_131"/>
<path fill-rule="evenodd" d="M472.1,589.6c-.4,.5,-.9,.9,-1.3,1.2c-.5,.3,-1,.4,-1.5,.4c-.6,0,-1.1,-.2,-1.5,-.5c-.3,-.4,-.5,-.9,-.5,-1.4c0,-.7,.2,-1.4,.6,-2c.4,-.7,.9,-1.2,1.5,-1.6c.6,-.4,1.2,-.6,1.8,-.6c.5,0,.9,.1,1.1,.3c.3,.2,.4,.4,.4,.7c0,.3,-.1,.5,-.3,.7c-.1,.2,-.3,.2,-.4,.2c-.2,0,-.3,0,-.4,-.1c-.1,-.1,-.1,-.2,-.1,-.3c0,-.1,0,-.2,0,-.3c.1,0,.1,-.1,.2,-.2c.2,-.1,.2,-.2,.2,-.2q.1,-.1,.1,-.2c0,0,-.1,-.1,-.2,-.2c-.1,-.1,-.3,-.1,-.5,-.1c-.4,0,-.8,.1,-1.3,.4c-.4,.3,-.7,.8,-1,1.3c-.4,.7,-.6,1.4,-.6,2c0,.5,.1,.8,.4,1.1c.3,.3,.6,.4,1,.4c.4,0,.7,-.1,1,-.3c.4,-.1,.7,-.4,1.1,-.9Z" class="g1_131"/>
<path fill-rule="evenodd" d="M478.7,607.6l-1.3,4.5c.4,-.4,.8,-.7,1.1,-.9c.3,-.1,.6,-.2,1,-.2c.5,0,.9,.1,1.2,.5c.3,.3,.4,.7,.4,1.3c0,.7,-.2,1.4,-.6,2.1c-.4,.7,-.9,1.2,-1.5,1.6c-.6,.4,-1.2,.6,-1.8,.6c-.7,0,-1.3,-.3,-2,-.8l2,-6.8c.1,-.6,.2,-.9,.2,-1c0,-.1,0,-.2,-.1,-.2c-.1,-.1,-.3,-.1,-.5,-.1c0,0,-.2,0,-.4,0V608Zm-2.5,8.8c.4,.3,.8,.4,1.1,.4c.4,0,.8,-.2,1.2,-.4c.4,-.3,.8,-.8,1.1,-1.5c.3,-.6,.4,-1.3,.4,-2c0,-.4,-.1,-.7,-.3,-1c-.2,-.2,-.4,-.3,-.7,-.3c-.4,0,-.8,.2,-1.2,.5c-.3,.3,-.6,.8,-.8,1.4Z" class="g1_131"/>
<path d="M375.6,573.6h86.9V612H375.6V573.6Zm.1,-.1l19.1,-13.3m67.8,13.5l19,-13.2m-19.1,51.7l19.1,-13.3" class="g2_131"/>
<path d="M375.5,612.2l19.1,-13.3" class="g3_131"/>
<path d="M481.6,560.4v38.4" class="g2_131"/>
<path d="M394.6,560.4v38.4h86.3" class="g3_131"/>
<path d="M394.6,560.4h87" class="g2_131"/>
<path d="M680.7,309.9h29.8v29.8H680.7V309.9Zm16.6,-14.5h29.9l-16.7,14.5H680.7l16.6,-14.5Z" class="g4_131"/>
<path fill-rule="evenodd" d="M710.5,309.9l16.6,-14.1v29.8l-16.6,14.1Z" class="g5_131"/>
<path d="M710.5,309.9l16.6,-14.1v29.8l-16.6,14.1V309.9Z" class="g4_131"/>
<path d="M709.6,310.2L693,324.6h29.8l16.7,-14.4Z" class="g6_131"/>
<path d="M709.6,310.2h29.9l-16.7,14.4H693l16.6,-14.4Z" class="g4_131"/>
<path fill-rule="evenodd" d="M722.8,324.6l16.6,-14.1v29.9l-16.6,14.1Z" class="g5_131"/>
<path d="M722.8,324.6l16.6,-14.1v29.9l-16.6,14.1V324.6Zm-88.8,0h29.8v29.9H634V324.6Zm16.6,-14.4h29.8l-16.6,14.4H634l16.6,-14.4Zm13.2,14.4l16.6,-14.1v29.9l-16.6,14.1V324.6Zm.4,29.2H694v29.8H664.2V353.8Zm16.6,-14.5h29.9L694,353.8H664.2l16.6,-14.5Z" class="g4_131"/>
<path fill-rule="evenodd" d="M694,353.8l16.6,-14.1v29.8L694,383.6Z" class="g5_131"/>
<path d="M694,353.8l16.6,-14.1v29.8L694,383.6V353.8Z" class="g4_131"/>
<path fill-rule="evenodd" d="M663.8,294.1h29.9v29.8H663.8V294.1Z" class="g7_131"/>
<path d="M680.5,279.6l-16.7,14.5h29.9l16.6,-14.5Z" class="g6_131"/>
<path d="M680.5,279.6h29.8l-16.6,14.5H663.8l16.7,-14.5Z" class="g4_131"/>
<path fill-rule="evenodd" d="M693.7,294.1L710.3,280v29.8l-16.6,14.1Z" class="g5_131"/>
<path d="M693.7,294.1L710.3,280v29.8l-16.6,14.1V294.1Z" class="g4_131"/>
<path fill-rule="evenodd" d="M693,324.6h29.8v29.9H693V324.6Z" class="g7_131"/>
<path fill-rule="evenodd" d="M647,338.3h29.8v29.9H647V338.3Z" class="g7_131"/>
<path fill-rule="evenodd" d="M663.6,323.9h29.8l-16.6,14.4H647Z" class="g6_131"/>
<path d="M663.6,323.9h29.8l-16.6,14.4H647l16.6,-14.4Z" class="g4_131"/>
<path fill-rule="evenodd" d="M676.8,338.3l16.6,-14.1v29.9l-16.6,14.1Z" class="g5_131"/>
<path d="M676.8,338.3l16.6,-14.1v29.9l-16.6,14.1V338.3Z" class="g4_131"/>
<path d="M0,144.8H121.8V0H0V144.8Z" class="g0_131"/>
</svg>