<?xml version="1.0" encoding="UTF-8" standalone="no"?>
<!DOCTYPE svg PUBLIC "-//W3C//DTD SVG 1.1//EN"
"http://www.w3.org/Graphics/SVG/1.1/DTD/svg11.dtd">
<svg viewBox="0 0 909 1147" version="1.1" xmlns="http://www.w3.org/2000/svg" xmlns:xlink="http://www.w3.org/1999/xlink">
<defs>
<style type="text/css"><![CDATA[
.g0_37{
fill: #FAAF82;
}
.g1_37{
fill: none;
stroke: #0EA5DF;
stroke-width: 3.055;
}
.g2_37{
fill: none;
stroke: #000;
stroke-width: 0.763;
}
.g3_37{
fill: #E8F1FA;
}
.g4_37{
fill: none;
stroke: #0EA5DF;
stroke-width: 0.763;
stroke-miterlimit: 10;
}
.g5_37{
fill: #0EA5DF;
}
]]></style>
</defs>
<path d="M835.8,1129.8h73.6v-51.5H835.8v51.5Z" class="g0_37"/>
<path d="M73.6,66.5H835.8" class="g1_37"/>
<path d="M326.8,250.3h28.6m4.3,244.5h28.7" class="g2_37"/>
<path d="M73.6,545H835.8" class="g1_37"/>
<path d="M184.7,1079.5H835.9v-272H184.7v272Z" class="g3_37"/>
<path d="M73.6,808.3H836.9" class="g1_37"/>
<path d="M228,851.5H433.1M228.4,894.4V851.9m204.7,-.4h65m-65,42.9V851.9m65,-.4H563m-64.9,42.9V851.9m64.9,-.4h65m-65,42.9V851.9m65,-.4h65m-65,42.9V851.9m65,-.4h64.9M693,894.4V851.9m64.9,-.4h65.4m-65.4,42.9V851.9m65,42.5V851.9M228,894.8H433.1m-204.7,43V895.2m204.7,-.4h65m-65,43V895.2m65,-.4H563m-64.9,43V895.2m64.9,-.4h65m-65,43V895.2m65,-.4h65m-65,43V895.2m65,-.4h64.9m-64.9,43V895.2m64.9,-.4h65.4m-65.4,43V895.2m65,42.6V895.2M228,938.2H433.1m-204.7,43V938.6m204.7,-.4h65m-65,43V938.6m65,-.4H563m-64.9,43V938.6m64.9,-.4h65m-65,43V938.6m65,-.4h65m-65,43V938.6m65,-.4h64.9m-64.9,43V938.6m64.9,-.4h65.4m-65.4,43V938.6m65,42.6V938.6M228,981.6H433.1m-204.7,42.9V982m204.7,-.4h65m-65,42.9V982m65,-.4H563m-64.9,42.9V982m64.9,-.4h65m-65,42.9V982m65,-.4h65m-65,42.9V982m65,-.4h64.9M693,1024.5V982m64.9,-.4h65.4m-65.4,42.9V982m65,42.5V982M228,1024.9H433.1m-204.7,43v-42.6m204.7,-.4h65m-65,43v-42.6m65,-.4H563m-64.9,43v-42.6m64.9,-.4h65m-65,43v-42.6m65,-.4h65m-65,43v-42.6m65,-.4h64.9m-64.9,43v-42.6m64.9,-.4h65.4m-65.4,43v-42.6m65,42.6v-42.6m-594.9,43H433.1m0,0h65m0,0H563m0,0h65m0,0h65m0,0h64.9m0,0h65.4" class="g4_37"/>
<path d="M73.6,574.5H181V544.4H73.6v30.1Z" class="g5_37"/>
</svg>