<?xml version="1.0" encoding="UTF-8" standalone="no"?>
<!DOCTYPE svg PUBLIC "-//W3C//DTD SVG 1.1//EN"
"http://www.w3.org/Graphics/SVG/1.1/DTD/svg11.dtd">
<svg viewBox="0 0 909 1147" version="1.1" xmlns="http://www.w3.org/2000/svg" xmlns:xlink="http://www.w3.org/1999/xlink">
<defs>
<clipPath id="c0_52"><path d="M578.1,962.3V736.2H804.3V962.3Z"/></clipPath>
<style type="text/css"><![CDATA[
.g0_52{
fill: #FAAF82;
}
.g1_52{
fill: none;
stroke: #0EA5DF;
stroke-width: 0.763;
stroke-miterlimit: 10;
}
.g2_52{
fill: #000;
}
.g3_52{
fill: #FCD3C1;
}
.g4_52{
fill: none;
stroke: #000;
stroke-width: 0.33;
stroke-linejoin: round;
}
.g5_52{
fill: #E0DEEF;
}
.g6_52{
fill: #E3F2E7;
}
.g7_52{
fill: #C7EAFB;
}
.g8_52{
fill: #FFFCD5;
}
]]></style>
</defs>
<path d="M0,1131H73.8v-51.5H0V1131Z" class="g0_52"/>
<path d="M215.4,993.2H373.2m-157.4,24.5V993.6m157.4,-.4H477.8m-104.6,24.5V993.6m104.3,24.1V993.6m-262.1,24.5H373.2m-157.4,24.6v-24.2m157.4,-.4H477.8m-104.6,24.6v-24.2m104.3,24.2v-24.2M215.4,1043H373.2m-157.4,24.6v-24.2m157.4,-.4H477.8m-104.6,24.6v-24.2m104.3,24.2v-24.2M215.4,1068H373.2m0,0H477.8" class="g1_52"/>
<path fill-rule="evenodd" d="M644.7,783.9h-1.6V773.6c-.5,.4,-.9,.7,-1.6,1.1c-.6,.4,-1.2,.7,-1.6,.8V774c.9,-.5,1.6,-.9,2.3,-1.6c.7,-.5,1.2,-1.2,1.4,-1.7h1.1Z" class="g2_52"/>
<path fill-rule="evenodd" d="M648.8,780.5l1.6,-.2c.3,.8,.5,1.5,.9,1.8c.6,.4,1.1,.7,1.7,.7c.7,0,1.4,-.4,2,-.9c.5,-.6,.8,-1.3,.8,-2.3c0,-.9,-.3,-1.7,-.7,-2.2c-.6,-.6,-1.2,-.8,-2.1,-.8c-.6,0,-1,.1,-1.5,.3c-.3,.3,-.6,.6,-.9,.9l-1.5,-.1l1.2,-6.8h6.6v1.5h-5.2l-.8,3.5c.9,-.5,1.6,-.7,2.5,-.7c1.1,0,2.1,.4,2.9,1.2c.9,.8,1.2,1.7,1.2,3.1c0,1.1,-.3,2.2,-1,3c-.9,1,-2,1.6,-3.5,1.6c-1.1,0,-2.1,-.3,-2.9,-1c-.8,-.7,-1.2,-1.5,-1.3,-2.6Z" class="g2_52"/>
<path fill-rule="evenodd" d="M659.4,773.9c0,-.9,.2,-1.7,.6,-2.4c.5,-.6,1.1,-.9,2.1,-.9c.8,0,1.4,.2,2,.8c.5,.6,.9,1.5,.9,2.6c0,1.1,-.4,1.9,-.9,2.6c-.6,.6,-1.2,.9,-2,.9c-.8,0,-1.5,-.3,-2,-.9c-.5,-.7,-.7,-1.5,-.7,-2.7m2.7,-2.2c-.4,0,-.8,.1,-1,.5c-.3,.3,-.4,.9,-.4,1.9c0,.9,.1,1.4,.4,1.7c.2,.4,.6,.6,1,.6c.4,0,.8,-.2,1,-.6c.3,-.3,.4,-1,.4,-1.8c0,-.9,-.1,-1.5,-.4,-1.8c-.2,-.4,-.6,-.5,-1,-.5m0,12.6l7.2,-13.7h1.3l-7.2,13.7Zm5.7,-3.5c0,-.9,.2,-1.8,.7,-2.4c.4,-.7,1.2,-1,2.1,-1c.7,0,1.4,.3,2,.9c.5,.6,.8,1.5,.8,2.6c0,1.1,-.3,2,-.8,2.5c-.6,.7,-1.3,.9,-2,.9c-.8,0,-1.5,-.2,-2,-.9c-.6,-.5,-.8,-1.4,-.8,-2.6m2.8,-2.2c-.4,0,-.8,.1,-1,.4c-.2,.4,-.5,1,-.5,2c0,.8,.3,1.4,.5,1.8c.3,.3,.6,.4,1,.4c.4,0,.7,-.1,1,-.4c.3,-.4,.4,-1,.4,-2c0,-.8,-.1,-1.4,-.4,-1.8c-.3,-.3,-.6,-.4,-1,-.4Z" class="g2_52"/>
<path fill-rule="evenodd" d="M691.5,736.5c61.9,0,112.2,50.2,112.2,112.2c0,61.9,-50.3,112.2,-112.2,112.2c-62,0,-112.2,-50.3,-112.2,-112.2c0,-62,50.2,-112.2,112.2,-112.2Z" class="g3_52"/>
<path d="M691.5,736.5c61.9,0,112.2,50.2,112.2,112.2c0,61.9,-50.3,112.2,-112.2,112.2c-62,0,-112.2,-50.3,-112.2,-112.2c0,-62,50.2,-112.2,112.2,-112.2Z" class="g4_52"/>
<path fill-rule="evenodd" d="M691.6,848.8l-.1,-112.2c23.7,0,46.8,7.5,66,21.4Z" class="g5_52"/>
<path d="M691.6,848.8l-.1,-112.2c23.7,0,46.8,7.5,66,21.4l-65.9,90.8Z" class="g4_52"/>
<path fill-rule="evenodd" d="M691.5,848.7L757.6,758c23,16.8,38.8,41.8,44.1,69.9Z" class="g6_52"/>
<path d="M691.5,848.7L757.6,758c23,16.8,38.8,41.8,44.1,69.9L691.5,848.7Z" class="g4_52"/>
<g clip-path="url(#c0_52)">
<path fill-rule="evenodd" d="M691.8,848.8V961c-23.6,0,-46.8,-7.5,-65.9,-21.4C575.7,903.2,564.6,833,600.9,782.9Z" class="g7_52"/>
<path d="M691.8,848.8V961c-23.6,0,-46.8,-7.5,-65.9,-21.4C575.7,903.2,564.6,833,600.9,782.9l90.9,65.9Z" class="g4_52"/>
</g>
<path fill-rule="evenodd" d="M691.6,848.5L801.9,827.8c1.3,7,1.9,14,1.9,21.1c-.2,61.9,-50.6,112,-112.5,111.8Z" class="g8_52"/>
<path d="M691.6,848.5L801.9,827.8c1.3,7,1.9,14,1.9,21.1c-.2,61.9,-50.6,112,-112.5,111.8l.3,-112.2Z" class="g4_52"/>
<path d="M617.4,774.5c0,-2.1,.5,-3.8,1.7,-5.1c1.2,-1.2,2.7,-1.8,4.5,-1.8c1.2,0,2.3,.3,3.3,.8c1,.6,1.7,1.4,2.2,2.5c.6,1,.8,2.2,.8,3.5c0,1.3,-.3,2.5,-.8,3.6c-.5,1,-1.3,1.8,-2.3,2.3c-1,.6,-2,.9,-3.2,.9c-1.2,0,-2.3,-.3,-3.3,-.9c-1,-.6,-1.7,-1.5,-2.2,-2.5c-.5,-1,-.7,-2.1,-.7,-3.3m1.7,.1c0,1.5,.5,2.8,1.3,3.7c.9,.9,1.9,1.4,3.2,1.4c1.3,0,2.4,-.5,3.2,-1.4c.9,-.9,1.3,-2.2,1.3,-3.9c0,-1.1,-.2,-2,-.5,-2.8c-.4,-.8,-.9,-1.4,-1.6,-1.9c-.7,-.4,-1.5,-.6,-2.4,-.6c-1.2,0,-2.2,.4,-3.1,1.2c-.9,.9,-1.4,2.3,-1.4,4.3Z" class="g2_52"/>
<path d="M631.1,771.4h7.7v1.4h-3.1v8.1h-1.6v-8.1h-3Z" class="g2_52"/>
<path d="M640.7,771.4h7.5v9.5h-1.6v-8.1h-4.3v4.7c0,1.1,0,1.8,-.1,2.2c0,.3,-.2,.6,-.6,.9c-.3,.3,-.8,.4,-1.4,.4c-.3,0,-.8,0,-1.3,-.1v-1.3h.7c.4,0,.6,-.1,.8,-.1c.1,-.1,.2,-.2,.2,-.4c.1,-.1,.1,-.6,.1,-1.4Z" class="g2_52"/>
<path d="M650.6,771.4h1.6v7.3l4.5,-7.3h1.7v9.5h-1.6v-7.2l-4.4,7.2h-1.8Z" class="g2_52"/>
<path d="M660.3,771.4h1.6v1.8c0,.8,0,1.4,.1,1.7c.1,.4,.3,.7,.7,.9c.3,.3,.8,.4,1.3,.4c.6,0,1.4,-.2,2.4,-.5v-4.3H668v9.5h-1.6v-3.8c-1,.3,-1.9,.5,-2.8,.5c-.7,0,-1.4,-.2,-1.9,-.6c-.6,-.4,-.9,-.8,-1.1,-1.3c-.2,-.6,-.3,-1.2,-.3,-1.8Z" class="g2_52"/>
<path d="M676.9,777.9l1.7,.2c-.3,.9,-.8,1.7,-1.5,2.2c-.7,.6,-1.6,.8,-2.7,.8c-1.4,0,-2.5,-.4,-3.3,-1.2c-.8,-.9,-1.2,-2.1,-1.2,-3.6c0,-1.6,.4,-2.9,1.2,-3.8c.8,-.9,1.9,-1.3,3.2,-1.3c1.3,0,2.3,.4,3.1,1.3c.8,.9,1.2,2.1,1.2,3.7c0,.1,0,.2,0,.4h-7.1c.1,1,.4,1.8,.9,2.4c.6,.5,1.2,.8,2,.8c.6,0,1.1,-.1,1.5,-.4c.5,-.4,.8,-.9,1,-1.5m-5.3,-2.6h5.3c0,-.8,-.2,-1.4,-.6,-1.8c-.5,-.7,-1.1,-1,-2,-1c-.7,0,-1.3,.3,-1.8,.8c-.5,.5,-.8,1.1,-.9,2Z" class="g2_52"/>
<path d="M680.6,771.4h1.6v4h4.5v-4h1.6v9.5h-1.6v-4.2h-4.5v4.2h-1.6Z" class="g2_52"/>
<path d="M641.5,801.4h-1.6V791.1c-.4,.4,-.9,.8,-1.6,1.2c-.6,.3,-1.2,.6,-1.7,.8v-1.6c.9,-.4,1.7,-.9,2.4,-1.5c.7,-.6,1.2,-1.2,1.4,-1.8h1.1Z" class="g2_52"/>
<path d="M645.6,798l1.7,-.2c.1,.9,.4,1.5,.9,1.9c.4,.4,1,.6,1.6,.6c.8,0,1.5,-.3,2,-.9c.5,-.6,.8,-1.3,.8,-2.3c0,-.9,-.3,-1.6,-.8,-2.2c-.5,-.5,-1.2,-.8,-2,-.8c-.5,0,-1,.2,-1.4,.4c-.4,.2,-.8,.5,-1,.9l-1.5,-.2l1.3,-6.7h6.5V790h-5.2l-.8,3.5c.8,-.5,1.7,-.8,2.5,-.8c1.2,0,2.1,.4,2.9,1.2c.8,.8,1.2,1.8,1.2,3.1c0,1.1,-.3,2.2,-1,3c-.9,1.1,-2,1.6,-3.5,1.6c-1.2,0,-2.1,-.3,-2.9,-1c-.8,-.6,-1.2,-1.5,-1.3,-2.6Z" class="g2_52"/>
<path d="M656.1,791.4c0,-.9,.2,-1.7,.7,-2.4c.5,-.6,1.2,-.9,2.1,-.9c.8,0,1.5,.3,2,.8c.6,.6,.8,1.5,.8,2.6c0,1.1,-.3,2,-.8,2.6c-.5,.6,-1.2,.9,-2,.9c-.8,0,-1.5,-.3,-2,-.9c-.5,-.6,-.8,-1.5,-.8,-2.7m2.8,-2.2c-.4,0,-.7,.1,-1,.5c-.3,.3,-.4,1,-.4,1.9c0,.8,.2,1.4,.4,1.8c.3,.3,.6,.5,1,.5c.4,0,.8,-.2,1,-.5c.3,-.4,.4,-1,.4,-1.9c0,-.9,-.1,-1.5,-.4,-1.8c-.3,-.4,-.6,-.5,-1,-.5m0,12.7l7.2,-13.8h1.3l-7.1,13.8Zm5.7,-3.6c0,-.9,.2,-1.7,.7,-2.4c.5,-.6,1.2,-.9,2.1,-.9c.8,0,1.5,.2,2,.8c.5,.6,.8,1.5,.8,2.6c0,1.1,-.3,2,-.8,2.6c-.5,.6,-1.2,.9,-2,.9c-.8,0,-1.5,-.3,-2,-.9c-.5,-.6,-.8,-1.5,-.8,-2.7m2.8,-2.2c-.4,0,-.7,.1,-1,.5c-.3,.3,-.4,1,-.4,1.9c0,.8,.1,1.4,.4,1.8c.3,.3,.6,.5,1,.5c.4,0,.8,-.2,1,-.5c.3,-.4,.4,-1,.4,-1.9c0,-.9,-.1,-1.5,-.4,-1.8c-.3,-.4,-.6,-.5,-1,-.5Z" class="g2_52"/>
<path d="M738.9,806.2l1.8,.5c-.4,1.4,-1.1,2.5,-2,3.3c-1,.7,-2.1,1.1,-3.5,1.1c-1.4,0,-2.5,-.3,-3.4,-.9c-.9,-.6,-1.6,-1.4,-2.1,-2.5c-.4,-1.1,-.6,-2.3,-.6,-3.5c0,-1.4,.2,-2.6,.7,-3.6c.6,-1,1.3,-1.8,2.3,-2.3c.9,-.5,2,-.8,3.1,-.8c1.4,0,2.5,.3,3.4,1c.9,.7,1.5,1.6,1.8,2.8l-1.7,.4c-.3,-.9,-.7,-1.6,-1.3,-2.1c-.6,-.4,-1.3,-.6,-2.2,-.6c-1,0,-1.8,.2,-2.5,.7c-.7,.5,-1.2,1.1,-1.4,2c-.3,.8,-.5,1.6,-.5,2.5c0,1.1,.2,2.1,.5,2.9c.4,.8,.9,1.5,1.5,1.9c.7,.4,1.5,.6,2.3,.6c1,0,1.8,-.3,2.4,-.9c.7,-.5,1.2,-1.3,1.4,-2.5Z" class="g2_52"/>
<path d="M742.6,814.5V801.3h1.5v1.3c.3,-.5,.7,-.9,1.1,-1.1c.5,-.2,1,-.4,1.6,-.4c.8,0,1.5,.2,2.2,.7c.6,.4,1.1,1,1.4,1.7c.3,.8,.4,1.6,.4,2.5c0,1,-.1,1.9,-.5,2.7c-.3,.7,-.8,1.3,-1.5,1.7c-.7,.5,-1.4,.7,-2.1,.7c-.5,0,-1,-.1,-1.4,-.4c-.5,-.2,-.8,-.5,-1.1,-.8v4.6Zm1.4,-8.3c0,1.2,.3,2.1,.8,2.7c.5,.5,1.1,.8,1.8,.8c.7,0,1.3,-.3,1.8,-.9c.5,-.6,.8,-1.5,.8,-2.8c0,-1.2,-.3,-2.1,-.8,-2.7c-.5,-.6,-1,-.9,-1.7,-.9c-.7,0,-1.3,.3,-1.9,1c-.5,.6,-.8,1.5,-.8,2.8Z" class="g2_52"/>
<path d="M759.3,807.8l1.7,.2c-.3,1,-.8,1.7,-1.5,2.3c-.7,.5,-1.6,.8,-2.7,.8c-1.4,0,-2.5,-.5,-3.3,-1.3c-.8,-.9,-1.3,-2.1,-1.3,-3.6c0,-1.6,.5,-2.9,1.3,-3.7c.8,-.9,1.9,-1.4,3.2,-1.4c1.3,0,2.3,.5,3.1,1.3c.8,.9,1.2,2.1,1.2,3.7c0,.1,0,.2,0,.4h-7.1c.1,1.1,.4,1.9,.9,2.4c.5,.6,1.2,.8,2,.8c.6,0,1.1,-.1,1.5,-.4c.4,-.3,.7,-.8,1,-1.5M754,805.2h5.3c-.1,-.8,-.3,-1.4,-.6,-1.8c-.5,-.6,-1.2,-.9,-2,-.9c-.7,0,-1.4,.2,-1.9,.7c-.5,.5,-.7,1.2,-.8,2Z" class="g2_52"/>
<path d="M763.8,801.3h6.7v8.2h1v4h-1.3v-2.6h-7.5v2.6h-1.3v-4h.8c1.2,-1.5,1.7,-4.2,1.6,-8.2m1.4,1.4c-.1,3.1,-.6,5.3,-1.4,6.8h5.1v-6.8Z" class="g2_52"/>
<path d="M779.8,807.8l1.6,.2c-.2,1,-.7,1.7,-1.4,2.3c-.7,.5,-1.6,.8,-2.7,.8c-1.4,0,-2.5,-.5,-3.3,-1.3c-.9,-.9,-1.3,-2.1,-1.3,-3.6c0,-1.6,.5,-2.9,1.3,-3.7c.8,-.9,1.9,-1.4,3.2,-1.4c1.2,0,2.3,.5,3.1,1.3c.8,.9,1.2,2.1,1.2,3.7c0,.1,0,.2,0,.4h-7.1c.1,1.1,.4,1.9,.9,2.4c.5,.6,1.2,.8,2,.8c.6,0,1.1,-.1,1.5,-.4c.4,-.3,.7,-.8,1,-1.5m-5.3,-2.6h5.3c-.1,-.8,-.3,-1.4,-.6,-1.8c-.5,-.6,-1.2,-.9,-2,-.9c-.7,0,-1.4,.2,-1.9,.7c-.5,.5,-.8,1.2,-.8,2Z" class="g2_52"/>
<path d="M783.5,801.3h1.6v4h4.5v-4h1.6v9.6h-1.6v-4.3h-4.5v4.3h-1.6Z" class="g2_52"/>
<path d="M748.7,831.3h-1.6V821.1c-.4,.3,-.9,.7,-1.5,1.1c-.6,.3,-1.2,.6,-1.7,.8v-1.5c.9,-.5,1.7,-1,2.4,-1.6c.6,-.6,1.1,-1.2,1.4,-1.7h1Z" class="g2_52"/>
<path d="M761.3,829.8v1.5h-8.6c0,-.4,0,-.7,.2,-1.1c.2,-.6,.5,-1.2,1,-1.7c.5,-.6,1.2,-1.3,2.1,-2c1.4,-1.2,2.4,-2.1,2.9,-2.8c.5,-.7,.8,-1.3,.8,-1.9c0,-.7,-.3,-1.2,-.7,-1.7c-.5,-.4,-1.1,-.6,-1.8,-.6c-.8,0,-1.4,.2,-1.9,.7c-.4,.5,-.7,1.1,-.7,1.9L753,822c.1,-1.3,.5,-2.2,1.3,-2.9c.7,-.6,1.7,-.9,2.9,-.9c1.3,0,2.3,.3,3,1c.8,.7,1.1,1.6,1.1,2.6c0,.5,-.1,1,-.3,1.5c-.2,.6,-.6,1.1,-1.1,1.6c-.5,.6,-1.3,1.4,-2.5,2.4c-.9,.8,-1.5,1.3,-1.8,1.6c-.3,.3,-.5,.6,-.7,.9Z" class="g2_52"/>
<path d="M763.4,821.4c0,-1,.2,-1.8,.7,-2.4c.5,-.7,1.1,-1,2,-1c.9,0,1.5,.3,2.1,.9c.5,.6,.8,1.4,.8,2.6c0,1.1,-.3,1.9,-.8,2.5c-.6,.6,-1.3,.9,-2.1,.9c-.7,0,-1.4,-.3,-1.9,-.9c-.6,-.6,-.8,-1.4,-.8,-2.6m2.8,-2.3c-.4,0,-.8,.2,-1,.5c-.3,.4,-.4,1,-.4,1.9c0,.9,.1,1.5,.4,1.8c.2,.3,.6,.5,1,.5c.4,0,.7,-.2,1,-.5c.2,-.4,.4,-1,.4,-1.9c0,-.9,-.2,-1.4,-.4,-1.8c-.3,-.3,-.6,-.5,-1,-.5m0,12.7L773.4,818h1.3l-7.2,13.8Zm5.7,-3.5c0,-1,.2,-1.8,.7,-2.4c.4,-.7,1.1,-1,2,-1c.8,0,1.5,.3,2.1,.9c.5,.5,.8,1.4,.8,2.6c0,1.1,-.3,1.9,-.8,2.5c-.6,.6,-1.3,.9,-2.1,.9c-.8,0,-1.4,-.3,-1.9,-.9c-.6,-.6,-.8,-1.5,-.8,-2.6m2.8,-2.3c-.4,0,-.8,.2,-1,.5c-.3,.4,-.4,1,-.4,1.9c0,.8,.1,1.4,.4,1.8c.2,.3,.6,.5,1,.5c.4,0,.7,-.2,1,-.5c.2,-.4,.4,-1,.4,-1.9c0,-.9,-.2,-1.5,-.4,-1.8c-.3,-.3,-.6,-.5,-1,-.5Z" class="g2_52"/>
<path fill-rule="evenodd" d="M705.6,760.2l1.7,.5c-.4,1.4,-1.1,2.5,-1.9,3.2c-1,.7,-2.1,1.2,-3.6,1.2c-1.4,0,-2.5,-.4,-3.4,-.9c-.9,-.7,-1.5,-1.4,-2.1,-2.5c-.4,-1.1,-.6,-2.3,-.6,-3.6c0,-1.3,.2,-2.5,.7,-3.6c.6,-1,1.4,-1.7,2.2,-2.3c1,-.4,2.1,-.8,3.2,-.8c1.4,0,2.5,.4,3.3,1c1,.7,1.6,1.7,1.9,2.9l-1.6,.4c-.4,-1,-.8,-1.6,-1.4,-2.1c-.5,-.4,-1.3,-.6,-2.2,-.6c-1,0,-1.8,.2,-2.5,.6c-.7,.6,-1.1,1.2,-1.4,2c-.2,.8,-.5,1.7,-.5,2.5c0,1.1,.3,2.1,.6,2.9c.3,.9,.8,1.5,1.5,1.9c.7,.4,1.5,.6,2.2,.6c1,0,1.8,-.3,2.4,-.8c.7,-.6,1.3,-1.4,1.5,-2.5Z" class="g2_52"/>
<path fill-rule="evenodd" d="M710,755.3h7.5v9.6h-1.6v-8.3h-4.3v4.7c0,1.1,0,1.9,-.1,2.2c-.1,.4,-.3,.7,-.5,1c-.4,.2,-.9,.4,-1.5,.4c-.4,0,-.8,0,-1.3,-.2v-1.3h.7c.4,0,.6,0,.7,-.1c.2,0,.3,-.1,.4,-.3v-1.4Z" class="g2_52"/>
<path fill-rule="evenodd" d="M726.1,763.6c-.6,.5,-1.2,.9,-1.7,1.1c-.6,.3,-1.1,.3,-1.8,.3c-1.1,0,-1.8,-.3,-2.4,-.7c-.5,-.5,-.9,-1.2,-.9,-2c0,-.5,.1,-.9,.4,-1.3c.2,-.3,.5,-.7,.8,-.9c.4,-.2,.7,-.4,1.1,-.5c.4,-.1,.9,-.2,1.5,-.2c1.3,-.3,2.3,-.4,2.8,-.6c.1,-.2,.1,-.4,.1,-.4c0,-.7,-.2,-1.1,-.5,-1.5c-.3,-.3,-1,-.5,-1.8,-.5c-.7,0,-1.3,.1,-1.7,.4c-.4,.2,-.6,.8,-.8,1.5l-1.5,-.3c.1,-.6,.3,-1.2,.6,-1.6c.3,-.5,.9,-.8,1.4,-1c.7,-.2,1.4,-.3,2.2,-.3c.8,0,1.5,.1,2,.3c.5,.1,.9,.4,1.1,.7c.2,.3,.5,.6,.6,1.1v3.6c0,1.5,.1,2.5,.1,2.8c.1,.5,.2,.8,.4,1.3h-1.6c-.2,-.5,-.4,-.8,-.4,-1.3M726,760c-.6,.2,-1.5,.5,-2.6,.7c-.7,.1,-1.2,.2,-1.4,.3c-.4,.1,-.6,.2,-.7,.4c-.1,.3,-.2,.6,-.2,.8c0,.5,.1,.8,.4,1.1c.4,.3,.9,.5,1.5,.5c.6,0,1.2,-.2,1.6,-.5c.6,-.2,.9,-.6,1.1,-1.1c.2,-.3,.2,-.9,.2,-1.5Z" class="g2_52"/>
<path fill-rule="evenodd" d="M737,751.3l1.5,.1c0,.6,-.3,1,-.5,1.4c-.2,.2,-.4,.3,-.7,.4c-.4,.1,-1,.1,-2.1,.1c-1.4,0,-2.2,.1,-2.7,.4c-.5,.3,-.9,.7,-1.1,1.3c-.2,.5,-.3,1.2,-.3,2.2c.4,-.7,.9,-1.1,1.4,-1.5c.6,-.3,1.1,-.4,1.9,-.4c1.2,0,2.2,.4,3.1,1.3c.7,.9,1.2,2,1.2,3.4c0,1.1,-.2,2.1,-.7,2.8c-.3,.7,-.9,1.3,-1.4,1.6c-.6,.5,-1.3,.6,-2.3,.6c-1.1,0,-2,-.3,-2.7,-.8c-.6,-.4,-1.1,-1.1,-1.4,-2c-.3,-.8,-.5,-2.2,-.5,-4.2c0,-2.5,.4,-4.1,1.3,-5c.9,-.9,2.2,-1.3,3.9,-1.3h1.9c.1,-.2,.2,-.2,.2,-.4m0,8.7c0,-1,-.3,-1.7,-.7,-2.4c-.5,-.7,-1.1,-1,-2,-1c-.9,0,-1.6,.3,-2.1,1c-.4,.7,-.7,1.6,-.7,2.7c0,1.1,.3,1.9,.8,2.6c.6,.5,1.2,.9,2,.9c.8,0,1.4,-.4,2,-1.1c.4,-.7,.7,-1.6,.7,-2.7Z" class="g2_52"/>
<path fill-rule="evenodd" d="M705.6,785.3h-1.7V775c-.3,.4,-.9,.7,-1.5,1.1c-.6,.4,-1.1,.6,-1.7,.9v-1.6c.9,-.4,1.7,-1,2.3,-1.5c.8,-.7,1.3,-1.2,1.5,-1.8h1.1Z" class="g2_52"/>
<path fill-rule="evenodd" d="M709.6,778.8c0,-1.5,.3,-2.8,.6,-3.7c.3,-1,.8,-1.7,1.4,-2.2c.6,-.6,1.5,-.8,2.3,-.8c.8,0,1.4,.1,1.9,.5c.6,.2,1,.6,1.3,1.2c.4,.5,.7,1.2,.9,1.9c.1,.8,.2,1.8,.2,3.1c0,1.6,-.1,2.8,-.4,3.8c-.3,.8,-.8,1.6,-1.4,2.2c-.7,.4,-1.5,.7,-2.5,.7c-1.2,0,-2.2,-.4,-2.9,-1.4c-.9,-1.1,-1.4,-2.9,-1.4,-5.3m1.7,0c0,2.1,.3,3.5,.8,4.3c.5,.7,1.2,1.1,1.8,1.1c.8,0,1.5,-.4,1.9,-1.1c.6,-.8,.8,-2.2,.8,-4.3c0,-2.2,-.2,-3.6,-.8,-4.3c-.4,-.7,-1.1,-1.1,-1.9,-1.1c-.7,0,-1.3,.4,-1.7,1c-.6,.8,-.9,2.2,-.9,4.4Z" class="g2_52"/>
<path fill-rule="evenodd" d="M720.2,775.3c0,-.9,.2,-1.8,.7,-2.4c.5,-.7,1.2,-1,2.1,-1c.7,0,1.5,.3,2,.9c.5,.6,.8,1.5,.8,2.6c0,1.1,-.3,2,-.9,2.5c-.4,.7,-1.2,.9,-1.9,.9c-.8,0,-1.5,-.2,-2,-.9c-.6,-.5,-.8,-1.4,-.8,-2.6M723,773c-.4,0,-.7,.2,-1,.5c-.3,.4,-.4,1,-.4,2c0,.8,.1,1.5,.4,1.8c.3,.3,.6,.4,1,.4c.4,0,.7,-.1,1.1,-.4c.2,-.5,.3,-1,.3,-2c0,-.8,-.1,-1.4,-.5,-1.8c-.2,-.3,-.5,-.5,-.9,-.5m0,12.8l7.2,-13.9h1.3l-7.1,13.9Zm5.7,-3.6c0,-1,.2,-1.7,.6,-2.4c.6,-.6,1.2,-1,2.1,-1c.9,0,1.6,.4,2.1,.9c.6,.6,.8,1.4,.8,2.6c0,1.1,-.2,1.9,-.8,2.6c-.5,.5,-1.2,.9,-2.1,.9c-.7,0,-1.4,-.4,-2,-.9c-.5,-.6,-.7,-1.5,-.7,-2.7m2.8,-2.3c-.4,0,-.7,.2,-1.1,.6c-.2,.3,-.3,1,-.3,1.8c0,.9,.1,1.5,.3,1.8c.4,.3,.7,.6,1.1,.6c.4,0,.7,-.3,1,-.6c.2,-.3,.4,-1,.4,-1.9c0,-.8,-.2,-1.4,-.4,-1.7c-.3,-.4,-.6,-.6,-1,-.6Z" class="g2_52"/>
<path d="M713.6,871.8h8v11.6h1.2V888h-1.6v-3h-8.7v3H711v-4.6h1c1.1,-1.6,1.6,-4.8,1.6,-9.6Zm6.2,1.6h-4.5v.7c0,1.1,-.1,2.6,-.3,4.5c-.2,2,-.6,3.6,-1.2,4.8h6Z" class="g2_52"/>
<path d="M724.2,880.2c0,-1.7,.5,-3.1,1.5,-3.9c.8,-.7,1.8,-1.1,3,-1.1c1.3,0,2.3,.5,3.2,1.3c.8,.9,1.2,2.1,1.2,3.6c0,1.2,-.2,2.2,-.5,2.9c-.4,.7,-.9,1.2,-1.6,1.6c-.7,.4,-1.5,.6,-2.3,.6c-1.4,0,-2.4,-.4,-3.3,-1.3c-.8,-.8,-1.2,-2.1,-1.2,-3.7m1.7,0c0,1.2,.2,2.1,.8,2.7c.5,.7,1.2,1,2,1c.8,0,1.4,-.3,2,-1c.5,-.6,.8,-1.5,.8,-2.7c0,-1.2,-.3,-2.1,-.8,-2.7c-.6,-.6,-1.2,-.9,-2,-.9c-.8,0,-1.5,.3,-2,.9c-.6,.6,-.8,1.5,-.8,2.7Z" class="g2_52"/>
<path d="M742,871.5h1.4c-.1,.7,-.2,1.1,-.4,1.4c-.2,.2,-.5,.4,-.9,.5c-.3,0,-1,.1,-2,.1c-1.3,0,-2.2,.1,-2.7,.4c-.5,.2,-.8,.6,-1.1,1.2c-.2,.6,-.3,1.3,-.3,2.2c.4,-.6,.9,-1.1,1.4,-1.4c.6,-.3,1.2,-.4,1.8,-.4c1.3,0,2.3,.4,3.1,1.2c.9,.9,1.3,2.1,1.3,3.5c0,1.1,-.2,2,-.6,2.8c-.5,.7,-.9,1.2,-1.5,1.6c-.6,.4,-1.3,.6,-2.3,.6c-1.1,0,-2,-.3,-2.6,-.8c-.7,-.5,-1.2,-1.2,-1.5,-2c-.3,-.8,-.5,-2.2,-.5,-4.2c0,-2.5,.4,-4.2,1.3,-5.1c.8,-.8,2.1,-1.3,3.9,-1.3c1.1,0,1.7,0,1.9,0c.1,-.1,.2,-.1,.3,-.3m-.1,8.7c0,-1,-.2,-1.8,-.7,-2.5c-.5,-.6,-1.1,-.9,-2,-.9c-.9,0,-1.6,.3,-2.1,1c-.4,.7,-.7,1.6,-.7,2.7c0,1.1,.3,1.9,.8,2.5c.6,.6,1.2,.9,2,.9c.8,0,1.4,-.4,1.9,-1c.5,-.7,.8,-1.6,.8,-2.7Z" class="g2_52"/>
<path d="M744.1,875.5h4.2v3.7h2.1c1.4,0,2.5,.3,3.1,.8c.7,.6,1,1.3,1,2.1c0,.8,-.3,1.5,-1,2.1c-.6,.5,-1.5,.8,-2.8,.8h-4v-8.2h-2.6Zm4.2,8.2H750c1,0,1.8,-.2,2.2,-.4c.4,-.3,.6,-.7,.6,-1.2c0,-.5,-.2,-.9,-.5,-1.2c-.4,-.2,-1.1,-.4,-2.1,-.4h-1.9Z" class="g2_52"/>
<path d="M756.4,888.6V875.5h1.4v1.2c.4,-.5,.8,-.8,1.2,-1.1c.4,-.2,1,-.4,1.6,-.4c.8,0,1.5,.3,2.1,.7c.7,.4,1.1,1,1.4,1.7c.4,.8,.5,1.6,.5,2.5c0,1,-.2,1.9,-.5,2.7c-.4,.8,-.9,1.3,-1.5,1.8c-.7,.4,-1.4,.6,-2.1,.6c-.6,0,-1.1,-.1,-1.5,-.4c-.4,-.2,-.8,-.5,-1,-.8v4.6Zm1.4,-8.3c0,1.2,.3,2.1,.8,2.7c.5,.6,1.1,.9,1.8,.9c.7,0,1.3,-.3,1.8,-1c.5,-.6,.8,-1.5,.8,-2.8c0,-1.2,-.3,-2.1,-.8,-2.7c-.5,-.6,-1.1,-.9,-1.8,-.9c-.7,0,-1.3,.3,-1.8,1c-.5,.6,-.8,1.5,-.8,2.8Z" class="g2_52"/>
<path d="M616.8,862V848.8h2.6l3.1,9.3c.3,.9,.5,1.5,.7,2c.1,-.5,.3,-1.2,.7,-2.1l3.1,-9.2h2.3V862h-1.6V851l-3.8,11h-1.6l-3.8,-11.2V862Z" class="g2_52"/>
<path d="M631.9,852.4h1.7v4H638v-4h1.6V862H638v-4.3h-4.4V862h-1.7Z" class="g2_52"/>
<path d="M641.5,857.2c0,-1.8,.4,-3.1,1.4,-3.9c.8,-.7,1.8,-1.1,3,-1.1c1.3,0,2.4,.5,3.2,1.3c.9,.9,1.3,2.1,1.3,3.6c0,1.2,-.2,2.2,-.6,2.8c-.4,.8,-.9,1.3,-1.6,1.7c-.7,.4,-1.5,.6,-2.3,.6c-1.3,0,-2.4,-.5,-3.2,-1.3c-.8,-.9,-1.2,-2.1,-1.2,-3.7m1.6,0c0,1.2,.3,2.1,.8,2.7c.5,.6,1.2,.9,2,.9c.8,0,1.5,-.3,2,-.9c.5,-.6,.8,-1.5,.8,-2.8c0,-1.1,-.3,-2,-.8,-2.6c-.5,-.6,-1.2,-.9,-2,-.9c-.8,0,-1.5,.3,-2,.9c-.5,.6,-.8,1.5,-.8,2.7Z" class="g2_52"/>
<path d="M652.3,852.4h5.4v1.4h-3.8V862h-1.6Z" class="g2_52"/>
<path d="M657.9,857.2c0,-1.8,.5,-3.1,1.5,-3.9c.8,-.7,1.8,-1.1,3,-1.1c1.3,0,2.4,.5,3.2,1.3c.8,.9,1.2,2.1,1.2,3.6c0,1.2,-.1,2.2,-.5,2.8c-.4,.8,-.9,1.3,-1.6,1.7c-.7,.4,-1.5,.6,-2.3,.6c-1.3,0,-2.4,-.5,-3.2,-1.3c-.9,-.9,-1.3,-2.1,-1.3,-3.7m1.7,0c0,1.2,.3,2.1,.8,2.7c.5,.6,1.2,.9,2,.9c.8,0,1.5,-.3,2,-.9c.5,-.6,.8,-1.5,.8,-2.8c0,-1.1,-.3,-2,-.8,-2.6c-.5,-.6,-1.2,-.9,-2,-.9c-.8,0,-1.5,.3,-2,.9c-.5,.6,-.8,1.5,-.8,2.7Z" class="g2_52"/>
<path d="M617.8,872.9h6.6v8.2h1v4h-1.3v-2.7h-7.5v2.7h-1.3v-4h.8c1.2,-1.5,1.7,-4.3,1.7,-8.2m1.3,1.4c-.1,3,-.6,5.3,-1.4,6.8h5.1v-6.8Z" class="g2_52"/>
<path d="M626.6,877.7c0,-1.8,.5,-3.1,1.4,-3.9c.9,-.7,1.9,-1.1,3,-1.1c1.3,0,2.4,.4,3.2,1.3c.9,.9,1.3,2,1.3,3.5c0,1.3,-.2,2.2,-.6,2.9c-.3,.7,-.9,1.3,-1.6,1.7c-.7,.4,-1.4,.5,-2.3,.5c-1.3,0,-2.4,-.4,-3.2,-1.2c-.8,-.9,-1.2,-2.1,-1.2,-3.7m1.6,0c0,1.2,.3,2.1,.8,2.7c.6,.6,1.2,.9,2,.9c.8,0,1.5,-.3,2,-.9c.6,-.6,.8,-1.5,.8,-2.8c0,-1.2,-.2,-2,-.8,-2.6c-.5,-.7,-1.2,-1,-2,-1c-.8,0,-1.4,.3,-2,.9c-.5,.7,-.8,1.6,-.8,2.8Z" class="g2_52"/>
<path d="M644.3,869h1.5c-.1,.7,-.2,1.1,-.5,1.3c-.2,.3,-.5,.5,-.8,.5c-.3,.1,-1,.1,-2,.1c-1.4,0,-2.3,.2,-2.7,.4c-.5,.3,-.9,.7,-1.1,1.3c-.2,.5,-.3,1.2,-.3,2.1c.4,-.6,.8,-1,1.4,-1.3c.5,-.3,1.1,-.5,1.8,-.5c1.3,0,2.3,.5,3.1,1.3c.8,.9,1.2,2,1.2,3.5c0,1.1,-.2,2,-.6,2.7c-.4,.7,-.9,1.3,-1.4,1.7c-.6,.4,-1.4,.5,-2.3,.5c-1.2,0,-2.1,-.2,-2.7,-.7c-.6,-.5,-1.1,-1.2,-1.4,-2c-.4,-.8,-.5,-2.2,-.5,-4.2c0,-2.5,.4,-4.2,1.3,-5.1c.8,-.9,2.1,-1.3,3.9,-1.3c1.1,0,1.7,0,1.8,-.1c.2,0,.3,-.1,.3,-.2m0,8.6c0,-.9,-.3,-1.8,-.7,-2.4c-.5,-.6,-1.2,-.9,-2,-.9c-.9,0,-1.6,.3,-2.1,1c-.5,.6,-.7,1.5,-.7,2.6c0,1.1,.3,2,.8,2.6c.5,.6,1.2,.8,2,.8c.8,0,1.4,-.3,1.9,-1c.5,-.6,.8,-1.5,.8,-2.7Z" class="g2_52"/>
<path d="M646.4,872.9h4.3v3.7h2c1.5,0,2.5,.3,3.2,.9c.6,.6,1,1.2,1,2.1c0,.8,-.4,1.5,-1,2c-.6,.6,-1.6,.8,-2.8,.8h-4v-8.1h-2.7Zm4.3,8.2h1.7c1,0,1.7,-.1,2.1,-.3c.5,-.3,.7,-.7,.7,-1.2c0,-.5,-.2,-.9,-.6,-1.2c-.3,-.3,-1,-.4,-2,-.4h-1.9Z" class="g2_52"/>
<path d="M658.7,886.1V872.9h1.5v1.3c.3,-.5,.7,-.9,1.2,-1.1c.4,-.3,.9,-.4,1.5,-.4c.9,0,1.6,.2,2.2,.6c.6,.5,1.1,1,1.4,1.8c.3,.8,.5,1.6,.5,2.5c0,1,-.2,1.9,-.5,2.6c-.4,.8,-.9,1.4,-1.6,1.8c-.6,.4,-1.3,.6,-2.1,.6c-.5,0,-1,-.1,-1.4,-.3c-.4,-.2,-.8,-.5,-1.1,-.9v4.7Zm1.5,-8.4c0,1.3,.2,2.2,.7,2.7c.5,.6,1.1,.9,1.8,.9c.7,0,1.4,-.3,1.9,-.9c.5,-.6,.7,-1.5,.7,-2.8c0,-1.2,-.2,-2.1,-.7,-2.7c-.5,-.6,-1.1,-.9,-1.8,-.9c-.7,0,-1.3,.3,-1.8,.9c-.6,.7,-.8,1.6,-.8,2.8Z" class="g2_52"/>
<path d="M623.9,899.4l1.6,-.2c.2,.9,.5,1.6,1,2c.4,.4,1,.6,1.6,.6c.8,0,1.4,-.2,1.9,-.8c.5,-.5,.8,-1.2,.8,-1.9c0,-.8,-.2,-1.4,-.7,-1.9c-.5,-.4,-1.1,-.7,-1.9,-.7c-.3,0,-.7,.1,-1.1,.2l.2,-1.4c.1,0,.2,0,.2,0c.7,0,1.3,-.2,1.9,-.5c.5,-.4,.8,-.9,.8,-1.7c0,-.6,-.2,-1.1,-.6,-1.5c-.4,-.3,-.9,-.5,-1.5,-.5c-.7,0,-1.2,.2,-1.6,.6c-.4,.3,-.7,.9,-.8,1.7l-1.6,-.3c.2,-1,.6,-1.9,1.3,-2.5c.7,-.6,1.6,-.9,2.6,-.9c.7,0,1.4,.2,2,.5c.6,.3,1.1,.7,1.4,1.3c.3,.5,.5,1,.5,1.6c0,.6,-.2,1.1,-.5,1.6c-.3,.5,-.7,.8,-1.3,1.1c.7,.2,1.3,.6,1.8,1.1c.4,.6,.6,1.3,.6,2.1c0,1.2,-.4,2.2,-1.2,3c-.9,.7,-1.9,1.1,-3.2,1.1c-1.2,0,-2.1,-.3,-2.9,-1c-.7,-.7,-1.2,-1.6,-1.3,-2.7Z" class="g2_52"/>
<path d="M634.1,899.5l1.7,-.2c.1,.9,.4,1.5,.9,1.9c.4,.4,1,.6,1.6,.6c.8,0,1.5,-.3,2,-.9c.5,-.6,.8,-1.3,.8,-2.3c0,-.9,-.3,-1.6,-.8,-2.2c-.5,-.5,-1.2,-.8,-2,-.8c-.5,0,-1,.2,-1.4,.4c-.4,.2,-.8,.5,-1,.9l-1.5,-.2l1.3,-6.7h6.5v1.5h-5.3l-.7,3.5c.8,-.5,1.7,-.8,2.5,-.8c1.2,0,2.1,.4,2.9,1.2c.8,.8,1.2,1.8,1.2,3.1c0,1.2,-.3,2.2,-1,3c-.9,1.1,-2,1.6,-3.5,1.6c-1.2,0,-2.2,-.3,-2.9,-1c-.8,-.6,-1.2,-1.5,-1.3,-2.6Z" class="g2_52"/>
<path d="M644.6,892.9c0,-.9,.2,-1.7,.7,-2.3c.5,-.7,1.2,-1,2.1,-1c.8,0,1.5,.3,2,.8c.5,.6,.8,1.5,.8,2.6c0,1.1,-.3,2,-.8,2.6c-.6,.6,-1.2,.9,-2,.9c-.8,0,-1.5,-.3,-2,-.9c-.5,-.6,-.8,-1.5,-.8,-2.7m2.8,-2.2c-.4,0,-.7,.1,-1,.5c-.3,.3,-.4,1,-.4,1.9c0,.8,.1,1.4,.4,1.8c.3,.3,.6,.5,1,.5c.4,0,.7,-.2,1,-.5c.3,-.4,.4,-1,.4,-1.9c0,-.9,-.1,-1.5,-.4,-1.8c-.3,-.4,-.6,-.5,-1,-.5m0,12.7l7.2,-13.8h1.3l-7.2,13.8Zm5.7,-3.6c0,-.9,.2,-1.7,.7,-2.4c.5,-.6,1.2,-.9,2.1,-.9c.8,0,1.5,.3,2,.8c.5,.6,.8,1.5,.8,2.6c0,1.1,-.3,2,-.8,2.6c-.6,.6,-1.2,.9,-2,.9c-.8,0,-1.5,-.3,-2,-.9c-.5,-.6,-.8,-1.5,-.8,-2.7m2.8,-2.2c-.4,0,-.7,.1,-1,.5c-.3,.3,-.4,1,-.4,1.9c0,.8,.1,1.4,.4,1.8c.3,.3,.6,.5,1,.5c.4,0,.7,-.2,1,-.5c.3,-.4,.4,-1,.4,-1.9c0,-.9,-.1,-1.5,-.4,-1.8c-.3,-.4,-.6,-.5,-1,-.5Z" class="g2_52"/>
</svg>