<?xml version="1.0" encoding="UTF-8" standalone="no"?>
<!DOCTYPE svg PUBLIC "-//W3C//DTD SVG 1.1//EN"
"http://www.w3.org/Graphics/SVG/1.1/DTD/svg11.dtd">
<svg viewBox="0 0 909 1147" version="1.1" xmlns="http://www.w3.org/2000/svg" xmlns:xlink="http://www.w3.org/1999/xlink">
<defs>
<style type="text/css"><![CDATA[
.g0_123{
fill: #E7A9A1;
}
.g1_123{
fill: none;
stroke: #464343;
stroke-width: 1.064;
stroke-miterlimit: 2;
}
.g2_123{
fill: #464343;
}
.g3_123{
fill: #E3F3F1;
}
.g4_123{
fill: none;
stroke: #000;
stroke-width: 1.069;
stroke-linejoin: round;
}
.g5_123{
fill: none;
stroke: #000;
stroke-width: 1.069;
stroke-linejoin: round;
stroke-dasharray: 6,4;
}
.g6_123{
fill: none;
stroke: #47A5AE;
stroke-width: 0.763;
stroke-linejoin: round;
}
.g7_123{
fill: none;
stroke: #0EA5DF;
stroke-width: 3.055;
}
.g8_123{
fill: #E8F1FA;
}
.g9_123{
fill: none;
stroke: #000;
stroke-width: 0.763;
stroke-miterlimit: 10;
}
.ga_123{
fill: #0EA5DF;
}
]]></style>
</defs>
<path d="M835.8,1131h73.6v-51.5H835.8V1131Z" class="g0_123"/>
<path d="M186.8,692.9H295.5V629.1H186.8v63.8Zm133.9,-78v63.9" class="g1_123"/>
<path d="M211.5,620.3h1v-5.4h-1v5.4Z" class="g2_123"/>
<path d="M211.5,628.8h1v-5.3h-1v5.3Z" class="g2_123"/>
<path d="M211.5,637.3h1V632h-1v5.3Z" class="g2_123"/>
<path d="M211.5,645.9h1v-5.3h-1v5.3Z" class="g2_123"/>
<path d="M211.5,654.4h1v-5.3h-1v5.3Z" class="g2_123"/>
<path d="M211.5,663h1v-5.4h-1V663Z" class="g2_123"/>
<path d="M211.5,671.5h1v-5.3h-1v5.3Z" class="g2_123"/>
<path d="M211.5,674.7v4.1l.5,.5l.5,-.5v-4.1Zm0,4.6h.5l-.5,-.5Z" class="g2_123"/>
<path d="M212,679.3h1.3v-1.1H212v1.1Z" class="g2_123"/>
<path d="M216.5,679.3h5.4v-1.1h-5.4v1.1Z" class="g2_123"/>
<path d="M225.1,679.3h5.3v-1.1h-5.3v1.1Z" class="g2_123"/>
<path d="M233.6,679.3H239v-1.1h-5.4v1.1Z" class="g2_123"/>
<path d="M242.2,679.3h5.3v-1.1h-5.3v1.1Z" class="g2_123"/>
<path d="M250.7,679.3h5.4v-1.1h-5.4v1.1Z" class="g2_123"/>
<path d="M259.3,679.3h5.3v-1.1h-5.3v1.1Z" class="g2_123"/>
<path d="M267.8,679.3h5.4v-1.1h-5.4v1.1Z" class="g2_123"/>
<path d="M276.4,679.3h5.3v-1.1h-5.3v1.1Z" class="g2_123"/>
<path d="M284.9,679.3h5.4v-1.1h-5.4v1.1Z" class="g2_123"/>
<path d="M293.5,679.3h5.3v-1.1h-5.3v1.1Z" class="g2_123"/>
<path d="M302,679.3h5.3v-1.1H302v1.1Z" class="g2_123"/>
<path d="M310.6,679.3h5.3v-1.1h-5.3v1.1Z" class="g2_123"/>
<path d="M319.1,679.3h.7v-1.1h-.7v1.1Z" class="g2_123"/>
<path d="M212,614.9H320.7m-133.4,14l24.3,-14.1m84.3,14.4l24.3,-14.1m-24.3,78L320.2,679" class="g1_123"/>
<path fill-rule="evenodd" d="M191.6,689.4l.5,1l-4.6,2.6l-.5,-.9Z" class="g2_123"/>
<path fill-rule="evenodd" d="M199,685.2l.5,.9l-4.6,2.7l-.5,-1Z" class="g2_123"/>
<path fill-rule="evenodd" d="M206.4,680.9l.5,.9l-4.6,2.7l-.5,-.9Z" class="g2_123"/>
<path fill-rule="evenodd" d="M211.3,678l-2.1,1.3l.5,.9l2.2,-1.2Z" class="g2_123"/>
<path d="M186.5,553.8h64.1V489.7H186.5v64.1Zm0,-64.1l43,-24.9" class="g1_123"/>
<path d="M186.2,553l.5,.9l4.7,-2.7l-.6,-.9Z" class="g2_123"/>
<path fill-rule="evenodd" d="M198.2,546l.6,1l-4.7,2.6l-.5,-.9Z" class="g2_123"/>
<path fill-rule="evenodd" d="M205.6,541.8l.6,.9l-4.7,2.7l-.5,-1Z" class="g2_123"/>
<path fill-rule="evenodd" d="M213,537.5l.6,.9l-4.7,2.7l-.5,-.9Z" class="g2_123"/>
<path fill-rule="evenodd" d="M220.4,533.2l.6,.9l-4.7,2.7l-.5,-.9Z" class="g2_123"/>
<path fill-rule="evenodd" d="M227.8,528.9l.6,1l-4.7,2.6l-.5,-.9Z" class="g2_123"/>
<path d="M229,527h1v-5.3h-1V527Z" class="g2_123"/>
<path d="M229,518.5h1v-5.4h-1v5.4Z" class="g2_123"/>
<path d="M229,509.9h1v-5.3h-1v5.3Z" class="g2_123"/>
<path d="M229,501.4h1V496h-1v5.4Z" class="g2_123"/>
<path d="M229,492.8h1v-5.3h-1v5.3Z" class="g2_123"/>
<path d="M229,484.3h1v-5.4h-1v5.4Z" class="g2_123"/>
<path d="M229,475.7h1v-5.3h-1v5.3Z" class="g2_123"/>
<path d="M229,467.2h1v-2.5h-1v2.5Z" class="g2_123"/>
<path d="M250.2,489.7l43.1,-24.9m-43.1,89L293.3,529M229.5,465.1h63.8v64.2" class="g1_123"/>
<path d="M287.9,529h5.4v-1.1h-5.4V529Z" class="g2_123"/>
<path d="M279.4,529h5.3v-1.1h-5.3V529Z" class="g2_123"/>
<path d="M270.8,529h5.4v-1.1h-5.4V529Z" class="g2_123"/>
<path d="M262.3,529h5.3v-1.1h-5.3V529Z" class="g2_123"/>
<path d="M253.7,529h5.4v-1.1h-5.4V529Z" class="g2_123"/>
<path d="M245.2,529h5.3v-1.1h-5.3V529Z" class="g2_123"/>
<path d="M236.7,529H242v-1.1h-5.3V529Z" class="g2_123"/>
<path d="M229.5,529h3.9v-1.1h-3.9V529Z" class="g2_123"/>
<path d="M215,177l-29,28.5v44.7h89.7l28.4,-28.6V177Z" class="g3_123"/>
<path d="M186,205.4h89.7v44.8H186V205.4Zm89.4,44.8l29.1,-29.1" class="g4_123"/>
<path d="M185.7,250.2l29.1,-29.1" class="g5_123"/>
<path d="M275.4,205.8l29.1,-29.1M185.7,205.8l29.1,-29.1" class="g4_123"/>
<path d="M214.3,221.4h89.8" class="g5_123"/>
<path d="M214.3,176.7h89.8m0,.3v44.2M214.6,177v44.2" class="g4_123"/>
<path d="M245.7,301.4l-14.5,14.3V338H276l14.2,-14.3V301.4Z" class="g3_123"/>
<path d="M187,293h89.7v44.9H187V293Zm89.4,44.8l29.1,-29" class="g4_123"/>
<path d="M186.7,337.8l29,-29" class="g5_123"/>
<path d="M276.4,293.4l29.1,-29m-118.8,29l29,-29" class="g4_123"/>
<path d="M276.8,315.3H187.2l28.5,-28.5h88.9m-28,28.7l28.5,-28.4m-73.5,6L260,264.6m-28.4,50.7L260,286.8m-28.4,50.8L260,309.1" class="g6_123"/>
<path d="M215.3,309.1H305" class="g5_123"/>
<path d="M215.3,264.4H305m0,.2v44.3M215.5,264.6v44.3" class="g4_123"/>
<path d="M290.7,323.4V279.3m-45.3,44.1V279.3M260,308.5V264.4m-28.5,73.3V293.6m-30.3,29.8V279.3m-.2,-.2h89.9M201,301.3h89.9M201,323.6h89.9" class="g6_123"/>
<path d="M73.6,66.8H835.8M73.6,361.8H835.8" class="g7_123"/>
<path d="M183.7,1077.3H834.8V792.6H183.7v284.7Z" class="g8_123"/>
<path d="M72.5,793.4H835.8" class="g7_123"/>
<path d="M528.2,908.5h43.7m-43.3,43V908.9m43.3,-.4h43.3m-43.3,43V908.9m43.3,-.4h43.3m-43.3,43V908.9m43.3,-.4h43.3m-43.3,43V908.9m43.3,-.4h43.3m-43.3,43V908.9m43.3,-.4h43.3m-43.3,43V908.9m43.3,-.4h43.7m-43.7,43V908.9m43.3,42.6V908.9M502.6,951.8h26m0,0h43.3m-43.3,21.3V952.2m43.3,-.4h43.3m-43.3,21.3V952.2m43.3,-.4h43.3m-43.3,21.3V952.2m43.3,-.4h43.3m-43.3,21.3V952.2m43.3,-.4h43.3m-43.3,21.3V952.2m43.3,-.4h43.3m-43.3,21.3V952.2m43.3,-.4h43.7m-43.7,21.3V952.2m43.3,20.9V952.2M502.6,973.5h26m0,0h43.3m-43.3,21.3V973.9m43.3,-.4h43.3m-43.3,21.3V973.9m43.3,-.4h43.3m-43.3,21.3V973.9m43.3,-.4h43.3m-43.3,21.3V973.9m43.3,-.4h43.3m-43.3,21.3V973.9m43.3,-.4h43.3m-43.3,21.3V973.9m43.3,-.4h43.7m-43.7,21.3V973.9m43.3,20.9V973.9M502.6,995.1h26m0,0h43.3m-43.3,21.3V995.5m43.3,-.4h43.3m-43.3,21.3V995.5m43.3,-.4h43.3m-43.3,21.3V995.5m43.3,-.4h43.3m-43.3,21.3V995.5m43.3,-.4h43.3m-43.3,21.3V995.5m43.3,-.4h43.3m-43.3,21.3V995.5m43.3,-.4h43.7m-43.7,21.3V995.5m43.3,20.9V995.5m-329.1,21.3h26m0,0h43.3m-43.3,21.3v-20.9m43.3,-.4h43.3m-43.3,21.3v-20.9m43.3,-.4h43.3m-43.3,21.3v-20.9m43.3,-.4h43.3m-43.3,21.3v-20.9m43.3,-.4h43.3m-43.3,21.3v-20.9m43.3,-.4h43.3m-43.3,21.3v-20.9m43.3,-.4h43.7m-43.7,21.3v-20.9m43.3,20.9v-20.9m-329.1,21.3h26m0,0h43.3m-43.3,21.2v-20.9m43.3,-.3h43.3m-43.3,21.2v-20.9m43.3,-.3h43.3m-43.3,21.2v-20.9m43.3,-.3h43.3m-43.3,21.2v-20.9m43.3,-.3h43.3m-43.3,21.2v-20.9m43.3,-.3h43.3m-43.3,21.2v-20.9m43.3,-.3h43.7m-43.7,21.2v-20.9m43.3,20.9v-20.9m-303.5,21.3h43.7m0,0h43.3m0,0h43.3m0,0h43.3m0,0h43.3m0,0h43.3m0,0h43.7" class="g9_123"/>
<path d="M73.2,391.7H180.6V361.6H73.2v30.1Z" class="ga_123"/>
</svg>