<?xml version="1.0" encoding="UTF-8" standalone="no"?>
<!DOCTYPE svg PUBLIC "-//W3C//DTD SVG 1.1//EN"
"http://www.w3.org/Graphics/SVG/1.1/DTD/svg11.dtd">
<svg viewBox="0 0 909 1147" version="1.1" xmlns="http://www.w3.org/2000/svg" xmlns:xlink="http://www.w3.org/1999/xlink">
<defs>
<style type="text/css"><![CDATA[
.g0_46{
fill: #FAAF82;
}
.g1_46{
fill: #FFF;
}
.g2_46{
fill: none;
stroke: #000;
stroke-width: 0.763;
}
.g3_46{
fill: #000;
}
.g4_46{
fill: none;
stroke: #0EA5DF;
stroke-width: 1.145;
}
.g5_46{
fill: none;
stroke: #D82C20;
stroke-width: 1.145;
}
.g6_46{
fill: none;
stroke: #D82C20;
stroke-width: 0.763;
}
.g7_46{
fill: none;
stroke: #0EA5DF;
stroke-width: 0.763;
}
.g8_46{
fill: #0EA5DF;
}
.g9_46{
fill: none;
stroke: #000;
stroke-width: 1.145;
}
.ga_46{
fill: #D82C20;
}
]]></style>
</defs>
<path d="M0,1131H73.8v-51.5H0V1131Z" class="g0_46"/>
<path d="M0,141.1H120.6V0H0V141.1Z" class="g0_46"/>
<path fill-rule="evenodd" d="M584.4,194h6.5v-3.9h-6.5V194Z" class="g1_46"/>
<path d="M587.6,196.8v12.8" class="g2_46"/>
<path d="M587.6,189.6l-3.5,9.7c0,0,3.5,-2.5,7.1,0l-3.6,-9.7Z" class="g3_46"/>
<path d="M681.1,446.7v11.5h51.3V445.8" class="g4_46"/>
<path d="M698.9,449.2v29h50.8V447.1" class="g5_46"/>
<path d="M714.8,469.6c0,0,-6.1,0,-6.1,6.1V480c0,0,0,6.1,6.1,6.1h3.3c0,0,6.1,0,6.1,-6.1v-4.3c0,0,0,-6.1,-6.1,-6.1Z" class="g1_46"/>
<path d="M714.8,469.6c0,0,-6.1,0,-6.1,6.1V480c0,0,0,6.1,6.1,6.1h3.3c0,0,6.1,0,6.1,-6.1v-4.3c0,0,0,-6.1,-6.1,-6.1h-3.3Z" class="g6_46"/>
<path d="M714.4,449.7c0,0,-6.1,0,-6.1,6.1V460c0,0,0,6.1,6.1,6.1h3.4c0,0,6.1,0,6.1,-6.1v-4.2c0,0,0,-6.1,-6.1,-6.1Z" class="g1_46"/>
<path d="M714.4,449.7c0,0,-6.1,0,-6.1,6.1V460c0,0,0,6.1,6.1,6.1h3.4c0,0,6.1,0,6.1,-6.1v-4.2c0,0,0,-6.1,-6.1,-6.1h-3.4ZM684.1,422.3c0,0,-18.3,0,-18.3,18.3v36.2c0,0,0,18.4,18.3,18.4h66.5c0,0,18.4,0,18.4,-18.4V440.6c0,0,0,-18.3,-18.4,-18.3H684.1Z" class="g7_46"/>
<path d="M344.9,451.2v11.6h51.2V450.3" class="g5_46"/>
<path d="M378.2,454.2c0,0,-6.1,0,-6.1,6.1v4.3c0,0,0,6.1,6.1,6.1h3.3c0,0,6.1,0,6.1,-6.1v-4.3c0,0,0,-6.1,-6.1,-6.1Z" class="g1_46"/>
<path d="M378.2,454.2c0,0,-6.1,0,-6.1,6.1v4.3c0,0,0,6.1,6.1,6.1h3.3c0,0,6.1,0,6.1,-6.1v-4.3c0,0,0,-6.1,-6.1,-6.1h-3.3Z" class="g6_46"/>
<path d="M347.8,426.8c0,0,-18.3,0,-18.3,18.4v14.1c0,0,0,18.3,18.3,18.3h66.6c0,0,18.3,0,18.3,-18.3V445.2c0,0,0,-18.4,-18.3,-18.4H347.8ZM464.9,608.5c0,0,-15.3,0,-15.3,15.3V627c0,0,0,15.3,15.3,15.3h56.5c0,0,15.3,0,15.3,-15.3v-3.2c0,0,0,-15.3,-15.3,-15.3H464.9ZM264.8,663.2L452.9,636.9" class="g7_46"/>
<path d="M257.6,664.2l10.1,2.1c0,0,-2.9,-3.1,-1,-7l-9.1,4.9Z" class="g8_46"/>
<path d="M707.8,659.7L533.6,636.9" class="g7_46"/>
<path d="M715,660.6l-10.1,2.2c0,0,2.9,-3.1,.9,-6.9l9.2,4.7Z" class="g8_46"/>
<path d="M393.8,658.2l76.8,-15.8" class="g7_46"/>
<path d="M386.7,659.6l10.2,1.5c0,0,-3.1,-2.9,-1.5,-6.9l-8.7,5.4Z" class="g8_46"/>
<path d="M488,642.5v9.2" class="g7_46"/>
<path d="M488,658.9l3.5,-9.6c0,0,-3.5,2.4,-7,0l3.5,9.6Z" class="g8_46"/>
<path d="M590.9,658.2L515.8,642.4" class="g7_46"/>
<path d="M598,659.6l-10.2,1.5c0,0,3.1,-2.9,1.5,-6.9l8.7,5.4Z" class="g8_46"/>
<path d="M186.9,536.7H750.7" class="g9_46"/>
<path d="M758.5,536.7L748.3,533c0,0,2.4,3.7,0,7.4l10.2,-3.7Z" class="g3_46"/>
<path d="M186.7,534.5V539m8.6,-4.5V539m8.7,-4.5V539m8.6,-4.5V539m8.7,-4.5V539" class="g9_46"/>
<path d="M230,534.5V539" class="g5_46"/>
<path d="M238.6,534.5V539m8.7,-4.5V539m8.7,-4.5V539m8.6,-4.5V539m8.7,-8.9v13.2m86.6,-13.2v13.2m86.6,-13.2v13.2m86.6,-13.2v13.2m86.6,-13.2v13.2m86.7,-13.2v13.2M281.9,534.5V539m8.7,-4.5V539m8.7,-4.5V539" class="g9_46"/>
<path d="M307.9,534.5V539" class="g5_46"/>
<path d="M316.6,534.5V539m8.6,-4.5V539m8.7,-4.5V539m8.7,-4.5V539m8.6,-4.5V539m8.7,-4.5V539m8.7,-4.5V539m8.6,-4.5V539m8.7,-4.5V539m8.6,-4.5V539m8.7,-4.5V539m8.7,-4.5V539" class="g9_46"/>
<path d="M420.5,534.5V539" class="g5_46"/>
<path d="M429.2,534.5V539m8.6,-4.5V539m8.7,-4.5V539m8.7,-4.5V539m8.6,-4.5V539m8.7,-4.5V539m8.7,-4.5V539m8.6,-4.5V539m8.7,-4.5V539m8.6,-4.5V539m8.7,-4.5V539m8.7,-4.5V539m8.6,-4.5V539m8.7,-4.5V539" class="g9_46"/>
<path d="M550.4,534.5V539" class="g5_46"/>
<path d="M559.1,534.5V539m8.7,-4.5V539m8.6,-4.5V539m8.7,-4.5V539m8.7,-4.5V539m8.6,-4.5V539m8.7,-4.5V539m8.6,-4.5V539m8.7,-4.5V539m8.7,-4.5V539m8.6,-4.5V539m8.7,-4.5V539m8.6,-4.5V539m8.7,-4.5V539m8.7,-4.5V539m8.6,-4.5V539m8.7,-4.5V539m8.7,-4.5V539m8.6,-4.5V539m8.7,-4.5V539m8.6,-4.5V539m8.7,-4.5V539m8.7,-4.5V539" class="g9_46"/>
<path d="M347.5,893.8h65.8" class="g2_46"/>
<path d="M347.8,826.1c0,0,-18.3,0,-18.3,18.3V903c0,0,0,18.3,18.3,18.3h66.6c0,0,18.3,0,18.3,-18.3V844.4c0,0,0,-18.3,-18.3,-18.3H347.8Z" class="g7_46"/>
<path d="M214.9,893.7h58.8" class="g2_46"/>
<path d="M225.5,846.1c0,0,-18.3,0,-18.3,18.3v37.9c0,0,0,18.4,18.3,18.4h41.6c0,0,18.3,0,18.3,-18.4V864.4c0,0,0,-18.3,-18.3,-18.3H225.5Z" class="g7_46"/>
<path d="M680.8,893.7h69.7" class="g2_46"/>
<path d="M683.5,826.1c0,0,-18.4,0,-18.4,18.3V903c0,0,0,18.3,18.4,18.3H750c0,0,18.3,0,18.3,-18.3V844.4c0,0,0,-18.3,-18.3,-18.3H683.5Z" class="g7_46"/>
<path d="M559.3,893.5h52.8" class="g2_46"/>
<path d="M563.3,846.1c0,0,-18.3,0,-18.3,18.3v37.9c0,0,0,18.4,18.3,18.4h41.6c0,0,18.3,0,18.3,-18.4V864.4c0,0,0,-18.3,-18.3,-18.3H563.3ZM226.2,966.6c0,0,-18.4,0,-18.4,18.3v70.8c0,0,0,18.4,18.4,18.4H415.4c0,0,18.4,0,18.4,-18.4V984.9c0,0,0,-18.3,-18.4,-18.3H226.2Z" class="g7_46"/>
<path d="M243.5,997.8c3.7,1.4,7.4,.6,7.8,.3" class="g6_46"/>
<path d="M256.2,992.8l-9.2,4.6c0,0,4.3,.7,5.1,4.9l4.1,-9.5Z" class="ga_46"/>
<path d="M244.1,1027.6c7.1,3.8,14.6,1.5,15.2,.6" class="g6_46"/>
<path d="M263.4,1022.3l-8.4,6c0,0,4.3,-.1,5.8,3.9l2.6,-9.9Z" class="ga_46"/>
<path d="M244,1058.6c11.2,4.7,22.8,1.9,23.8,.8" class="g6_46"/>
<path d="M272.5,1053.9l-9,5c0,0,4.3,.5,5.4,4.6l3.6,-9.6Z" class="ga_46"/>
<path d="M564.8,964.6c0,0,-18.3,0,-18.3,18.3v72.8c0,0,0,18.4,18.3,18.4h186c0,0,18.3,0,18.3,-18.4V982.9c0,0,0,-18.3,-18.3,-18.3h-186Zm49.3,33.5c-3.8,1.1,-7.8,.4,-8.1,.2" class="g7_46"/>
<path d="M600.2,993.9L610,997c0,0,-4,1.3,-4.2,5.6l-5.6,-8.7Z" class="g8_46"/>
<path d="M613.2,1028.7c-9.2,8.1,-18.9,3.3,-19.7,1.3" class="g7_46"/>
<path d="M590.7,1023.3l6.9,7.6c0,0,-4.1,-.9,-6.5,2.7l-.4,-10.3Z" class="g8_46"/>
<path d="M613.4,1059c-13.3,8.9,-27.2,3.6,-28.4,1.5" class="g7_46"/>
<path d="M581.6,1054.1l7.7,6.8c0,0,-4.3,-.4,-6.2,3.4l-1.5,-10.2Z" class="g8_46"/>
</svg>