<?xml version="1.0" encoding="UTF-8" standalone="no"?>
<!DOCTYPE svg PUBLIC "-//W3C//DTD SVG 1.1//EN"
"http://www.w3.org/Graphics/SVG/1.1/DTD/svg11.dtd">
<svg viewBox="0 0 909 1147" version="1.1" xmlns="http://www.w3.org/2000/svg" xmlns:xlink="http://www.w3.org/1999/xlink">
<defs>
<style type="text/css"><![CDATA[
.g0_19{
fill: #FAAF82;
}
.g1_19{
fill: none;
stroke: #0EA5DF;
stroke-width: 3.055;
}
.g2_19{
fill: #E8F1FA;
}
.g3_19{
fill: none;
stroke: #0EA5DF;
stroke-width: 0.763;
stroke-miterlimit: 10;
}
]]></style>
</defs>
<path d="M835.8,1129.8h73.6v-51.5H835.8v51.5Z" class="g0_19"/>
<path d="M73.6,65.1H835.8" class="g1_19"/>
<path d="M183.7,1078.8H834.8V701H183.7v377.8Z" class="g2_19"/>
<path d="M72.5,701.8H835.8" class="g1_19"/>
<path d="M216.3,255.9h66.1m-65.7,38.3V256.3m65.7,-.4h59.7m-59.7,38.3V256.3m59.7,-.4h68.5m-68.5,38.3V256.3m68.5,-.4h91.1m-91.1,38.3V256.3m90.7,37.9V256.3m-285,38.3h66.1m-65.7,21V294.9m65.7,-.3h59.7m-59.7,21V294.9m59.7,-.3h68.5m-68.5,21V294.9m68.5,-.3h91.1m-91.1,21V294.9m90.7,20.7V294.9m-285,21h66.1m-65.7,24.2V316.3m65.7,-.4h59.7m-59.7,24.2V316.3m59.7,-.4h68.5m-68.5,24.2V316.3m68.5,-.4h91.1m-91.1,24.2V316.3m90.7,23.8V316.3m-285,24.2h66.1m0,0h59.7m0,0h68.5m0,0h91.1" class="g3_19"/>
<path d="M73.6,397.8H835.8" class="g1_19"/>
<path d="M216.3,530.6h66.1m-65.7,56.6V531m65.7,-.4h58.9m-58.9,56.6V531m58.9,-.4h68.4m-68.4,56.6V531m68.4,-.4h91.2m-91.2,56.6V531m90.8,56.2V531M216.3,587.6h66.1m-65.7,21V587.9m65.7,-.3h58.9m-58.9,21V587.9m58.9,-.3h68.4m-68.4,21V587.9m68.4,-.3h91.2m-91.2,21V587.9m90.8,20.7V587.9m-284.2,21h66.1m-65.7,24.2V609.3m65.7,-.4h58.9m-58.9,24.2V609.3m58.9,-.4h68.4m-68.4,24.2V609.3m68.4,-.4h91.2m-91.2,24.2V609.3m90.8,23.8V609.3M216.3,633.5h66.1m0,0h58.9m0,0h68.4m0,0h91.2" class="g3_19"/>
</svg>