<?xml version="1.0" encoding="UTF-8" standalone="no"?>
<!DOCTYPE svg PUBLIC "-//W3C//DTD SVG 1.1//EN"
"http://www.w3.org/Graphics/SVG/1.1/DTD/svg11.dtd">
<svg viewBox="0 0 909 1147" version="1.1" xmlns="http://www.w3.org/2000/svg" xmlns:xlink="http://www.w3.org/1999/xlink">
<defs>
<clipPath id="c0_31"><path d="M694.7,1009.1v-.2c-.1,0,-.5,.2,-.8,.2h-1v-.2h-.8v.2h-.2v-.2q-.1,0,-.2,0c-.4,0,-.7,.2,-.9,.2v-.2c-.3,0,-.4,-.1,-.4,-.1c-.2,0,-.2,.1,-.4,.1v-.1h-3.5v.1h-2.9v-.1h-2.3v.1c-.1,.1,-.2,.1,-.2,.1c-.3,0,-.4,-.2,-.4,-.2h-.8v.1c-.2,0,-.4,-.1,-.6,-.1v.1c-.3,.1,-.8,.2,-1.3,.2c-1.2,0,-2.7,-.2,-3.4,-.3c-.1,0,-.3,.1,-.5,.1h-1.8v-.1c-.2,0,-.4,.1,-.6,.1v-.1c-.3,-.1,-.6,-.2,-1,-.2c-.6,0,-1.2,.2,-1.5,.3v-.1c-.7,-.7,-.2,-1.2,-.4,-2.2h-.2v-.2h.2c.1,-.3,-.2,-.3,-.2,-.3c.1,-.2,.1,-.3,.2,-.4h-.2c.1,-.8,.1,-1.6,.2,-2.3c-.2,-1.1,-.4,-3.1,-.2,-4.4h.2v-.2h-.2v-2.3h-.2c.1,-.2,.2,-.4,.2,-.6c0,-.3,-.3,-.3,-.2,-.8c0,0,.3,-.1,.2,-.6h-.2v-.2h.2v-.2h-.2c.1,-.1,.2,-.3,.2,-.5v-2.1h.2v-.2h-.2v-2.2h-.2c0,-.2,.3,-.3,.2,-.7h-.2v-1.9c0,-.1,0,-.2,0,-.2c-.1,0,-.1,.1,-.1,.1c0,0,-.1,0,-.1,-.1q.1,-.1,.1,-.1c0,0,.1,0,.1,0v-.1c0,-.5,-.4,-.9,-.2,-1.6c.2,-.8,.5,-4.3,.2,-5.3h-.2c0,-.3,.2,-.4,.2,-.4c.1,-.4,-.2,-.4,-.2,-.4c.1,-.2,.2,-.4,.2,-.6h-.2v-1c.1,-.1,.2,-.3,.2,-.5h-.2v-2.5h.2v-.2h-.2v-1.2c0,-.1,.1,-.1,.1,-.1q.1,0,.1,0v-.1h-.2V972h.2c0,-.1,-.3,-1.2,-.2,-1.7h.2c.1,-.3,-.2,-.3,-.2,-.4v-2.3c0,0,-.2,0,-.2,-.4c0,-.1,.1,-.1,.1,-.1c0,0,.1,.1,.1,.1c0,0,0,-.1,0,-.2H668v-.1h.2v-.6H668c.1,-1,.2,-1.9,.2,-2.9H668v-.2h.2v-1.9H668c.1,-.2,.2,-.4,.2,-.6H668V959h-.2c-.1,-.7,.3,-1,.2,-1.4h-.2v-1.7h-.2v-.2h.2v-.2h-.2V954h-.1v-.8h-.2v-1.5h-.2c0,-.2,.1,-.4,.2,-.6h-.2v-.8h-.2c-.1,-.9,-.2,-1.8,-.2,-2.7h-.2v-.7h-.2v-.8h-.2v-1.5c-.2,-.5,-.5,-1,-.6,-1.6c.2,-.1,0,0,.2,-.2c.4,.1,.4,.2,.4,.2h1v.2c.4,-.1,.9,-.1,1.3,-.2h1.2v-.2h.6v-.2h2.3v-.2h.8v-.1c.4,-.1,.9,-.2,1.3,-.2v-.2h.6v-.2c.2,0,.4,.1,.6,.2v-.2h.4v-.2c.8,-.1,1.7,-.3,2.5,-.4c.1,-.2,.2,-.4,.2,-.6h.2c.1,-.3,.1,-.6,.2,-.9c.1,-.1,.3,-.2,.4,-.2V939c.1,-.1,.3,-.1,.4,-.2v-.6h.2c0,-.2,.1,-.4,.2,-.6c.1,0,.2,-.1,.4,-.2v-.5c.1,-.1,.2,-.2,.4,-.2v-.8h.1v-.4h.2c.3,-.7,.1,-.9,0,-1.7c.2,-.1,.4,-.1,.6,-.2V933h1.6v-.2h.4v-.2h.6v-.2h.3v-.1h1.6v-.2h.6v-.2h1.1v-.2h.4v-.2q.1,0,.2,0c.2,0,.2,.2,.2,.2h1.4v-.2c.4,.1,.8,.1,1.2,.2v-.2h3.3v-.2h3.3v.2c.2,0,-.1,-.2,.2,-.2h1.3v.2c.7,-.1,1.3,-.1,2,-.2v.2h.1c.1,0,-.1,-.1,.1,-.2h.1v.2h.8v.2c.1,0,.2,-.1,.4,-.1c.1,-.1,.3,-.1,.5,-.1c.1,0,.2,0,.3,0c1.3,.3,2.7,.6,4.4,.6c0,0,.1,0,.1,0c.3,.3,.6,.7,.9,1.1h.2v.6h.2v.8h.2v.7h.2v1h.2v.4h.2v.7c.1,.1,.3,.2,.4,.2v.6h.2v.6c.1,.2,.3,-.1,.4,.6h-.2v.2h.4c0,.3,.1,.6,.2,.9h.2v.2c.1,.1,.3,.1,.5,.1q.1,0,.2,0c0,0,.1,0,.2,0c.1,0,.3,.1,.4,.1v.2h.4v.2c0,0,.1,0,.1,0c.2,0,.3,-.2,.3,-.2c0,0,.1,0,.1,0c.2,0,.2,.2,.3,.2H716v.2h.8v.2h1v.2c.1,-.1,.3,-.2,.4,-.2c.2,.1,.5,.1,.7,.1q.1,0,.2,0c0,0,.1,0,.1,0c.2,0,.5,0,.7,.1v.2h1.2c.7,.2,1.9,.3,2.5,.5c0,.4,-.1,.7,-.2,1h-.2v1.2H723c0,1,-.1,2,-.1,3h-.2c0,.2,.1,.3,.2,.4h-.2v1h-.2v1.3h-.2c0,.1,.1,.3,.2,.4c-.1,.1,-.3,0,-.2,.6h.2v.2h-.2c-.2,.7,-.1,1.1,0,1.5h-.2c-.1,1.5,-.2,3,-.2,4.4h-.2c-.1,.3,.2,.4,.2,.4v.2h-.2v1.5h-.2c.1,.2,.1,.4,.2,.6h-.2v1h-.2c-.1,.3,.2,.3,.2,.4v.2h-.2c-.1,.5,.2,.7,.2,.9h-.2v1h-.2c-.1,.3,.4,.9,.2,1.5c-.3,1.1,.1,3,-.2,4.1h-.2v3c-.1,.7,-.1,1.3,-.2,1.9h.2v.2h-.2c.1,.2,.1,.3,.2,.4c0,.3,-.2,.4,-.2,.4c0,.4,.2,.4,.2,.4c.1,.5,-.2,.6,-.2,.6c-.1,.5,.2,.7,.2,.9h-.2c-.1,5.5,-.1,10.9,-.2,16.4h-.2c.1,.1,.2,.2,.2,.4h-.2v.3h.2v3.1h-.2c0,.3,.2,.4,.2,.4c.1,.4,-.1,.4,-.2,.4v1.7h-.2c.1,.2,.2,.4,.2,.6h-.2c-.2,1,0,2.9,.2,3.6c0,.9,-.1,1.8,-.2,2.7h-.2v.2h.2v1c-.1,0,-.2,.1,-.4,.2c-.2,.2,-.4,.3,-.7,.3c-.2,0,-.4,-.1,-.6,-.1c-.2,-.1,-.5,-.1,-.8,-.1c-.1,0,-.4,0,-.6,.1v.2h-.1c-.2,0,-.3,-.2,-.3,-.2h-.2v.2h-1.1v-.2c-.1,0,-.2,-.1,-.2,-.1c-.3,0,-.4,.3,-.4,.3h-2.1v.2h-3.9c-.8,.1,-2.2,.2,-3.7,.2c-1.3,0,-2.6,-.1,-3.7,-.1c-.7,0,-1.3,-.1,-2,-.1v.1h-1.1c-.3,0,0,-.1,-.2,-.1v.1c-.5,.1,-1.1,.2,-1.6,.2v-.2h-.2v.2c0,0,-.1,0,-.3,-.1c-.2,0,-.4,-.1,-.6,-.1c-.1,0,-.2,0,-.2,0c0,0,0,.2,-.4,.2Z"/></clipPath>
<clipPath id="c1_31"><path d="M620.4,1042c-.5,0,-1.1,-.2,-1.4,-.3h-1.7c-.9,0,-1.9,.1,-2.9,.1c-1,0,-1.8,-.1,-2.5,-.3c-1.5,0,-3.1,-.1,-4.6,-.2v-.2c-.2,.1,-.4,.2,-.6,.2v-.2h-1.1v-.1h-1v-.2h-1v-.2h-1.1v-.2c-.3,-.1,-.5,-.2,-.8,-.2v-.2h-.6c0,-.1,-.1,-.3,-.2,-.4h-.3v-.2q-.4,-.3,-1,-.4v-.4c-.8,-.2,-.7,-.5,-1.2,-1.1c-.3,-.3,-.7,-.6,-1.1,-1v-.4c-.3,-.4,-.6,-.8,-.8,-1.5h-.6v.2c-.2,.2,0,0,-.2,.4q-.4,.1,-.7,.4v.2c-.3,0,-.5,.1,-.8,.2c-.1,.1,-.1,.2,-.2,.3h-.4c-.1,.2,-.2,.4,-.3,.6c-.4,.1,-.8,.3,-1.2,.4c-.1,.1,-.1,.3,-.2,.4h-.4c-.1,.2,-.2,.4,-.4,.6c-.3,0,-.7,.1,-1.1,.2v.1c-.3,.1,-.5,.2,-.8,.2v.2h-.4v.2c-.3,.1,-.6,.1,-.9,.2v.2h-.4v.2h-.8v.2h-.4v.2c-.8,.1,-1.6,.2,-2.5,.4v.2h-.5v.2c-.2,-.1,-.3,-.2,-.4,-.2v.2h-.6v.1h-4v.2q-.1,.1,-.2,.1c-.3,0,-.4,-.3,-.4,-.3q-.1,0,-.1,0c-.2,0,-.2,.2,-.3,.2h-2.1v.2c-.4,0,-.8,-.1,-1.2,-.2c0,0,0,.2,-.3,.2h-.1v-.2h-1.3v.2h-.2v-.2c-.4,0,-.8,-.1,-1.1,-.2v.2c-.1,0,-.2,.1,-.3,.1c-.3,0,-.8,-.2,-1.3,-.3c-.4,-.1,-.9,-.2,-1.4,-.2c-.2,0,-.3,0,-.5,.1v.1c-.3,.1,-.6,.2,-1,.2c-.5,-1.1,-.4,-3.3,-.3,-5h.1c.2,-.3,-.1,-.3,-.1,-.3c0,-.1,0,-.2,0,-.2c0,0,0,.1,0,.1c0,0,.1,0,.1,0c0,0,0,-.1,0,-.1c.1,-.4,-.1,-.3,-.1,-.4v-.2h.1v-2.1h.2v-.2h-.2v-2.1h.2v-.2c0,0,-.2,-.1,-.2,-.4c.3,-1.1,.2,-2.9,.2,-4.2v-1.8h-.2v-.2h.2c.2,-1,.1,-3.3,0,-3.4v-.2c-.2,.1,-.7,.2,-1.2,.2c-.2,0,-.3,0,-.5,0v-.2c-.1,.1,-.3,.1,-.4,.2h-2.9v-.2h-.2v.2H560v.2h-.2v-.2h-2.3v-.2h-1.2v-.2c-.6,-.2,-1.1,0,-1.5,-.4c-.2,-.2,-.1,0,-.2,-.4h.2c-.1,-.8,-.1,-1.6,-.2,-2.5h-.2v-2.1h-.2v-.2h.2c0,-.2,-.1,-.4,-.2,-.6v-.1h.2c0,-.4,-.1,-.8,-.2,-1.2c-.1,-1.3,.1,-2.9,-.2,-3.8c-.1,-.7,.4,-3.1,0,-4.3c-.3,-1.1,.4,-2.4,0,-3.8h-.2c.1,-.1,.2,-.3,.2,-.4c0,0,-.2,-.2,-.2,-.6h.2v-.9c0,0,-.2,-.1,-.2,-.6h.2c0,-.3,-.1,-.5,-.2,-.8c.1,-1.8,.2,-3.6,.2,-5.4h.2v-1.3h.2v-1.6c.7,-2.1,.9,-4.8,1.6,-6.9v-2.9h.2v-.1H556v-.2h.2v-1.8h.1c0,-.1,-.1,-.2,-.1,-.4c0,0,.2,0,.1,-.3h-.1v-.2h.1c.1,-.5,-.2,-.9,-.1,-1h.1c.3,-1.2,0,-3,-.1,-3.8c0,-.2,.1,-.3,.1,-.4c0,-.2,-.3,-.7,-.1,-1.2c.1,-.3,.3,-1.3,.1,-1.9c0,0,-.2,0,-.1,-.4h.1v-.2c0,0,0,-.1,-.1,-.1q0,.1,0,.1c-.1,0,-.1,-.1,0,-.2h.1c.3,-1,0,-2.9,-.1,-3.6c0,-.2,.1,-.4,.1,-.6h-.1v-1.5c-.2,-.7,-.5,-4.5,-.2,-5.4h.2c.1,-.5,-.3,-.8,-.2,-1h.2v-3c0,0,-.4,-.2,-.2,-.6c.1,-.1,.2,-.2,.3,-.2v-4.2h.2V946h.2v-1.7h.2v-.4h.2v-1.4h.2V942h.2v-.8h.2c.1,-.7,.1,-1.4,.2,-2.1h.2v-.8h.2v-.8h.2c-.1,-.1,-.2,-.2,-.2,-.3h.2v-.6h.2V936h.1c.1,-.6,.2,-1.1,.2,-1.7c.2,-.1,.3,-.2,.4,-.2v-.8h.2v-1.1h.2v-.4h.2V931h.2c.1,-.2,.1,-.5,.2,-.8h.2c.1,-.6,.2,-1.2,.4,-1.9h.2v-.4h.1v-.3c.2,-.1,.3,-.2,.4,-.2v-.8h.2c.2,-.3,.3,-.3,.4,-.8c.7,-.2,.8,-.6,1,-1.3c1.1,0,1.6,-.3,2.5,-.4v-.4c.1,0,.2,0,.3,0c.5,0,.8,0,1.2,-.2v-.2h1c0,-.1,.1,-.2,.2,-.4h.7v-.2c.7,0,1.3,-.1,1.9,-.1v-.2h.6v-.2h.4V922c.3,-.1,.7,-.2,1,-.2v.2h.2v-.2h.3v-.2c.4,-.1,.7,-.1,1,-.2v-.2h.8V921h.4v-.2c.2,.1,.3,.2,.5,.2v-.2h.6v-.2h1v-.2h.7v-.2c.3,0,.6,-.1,.8,-.1v-.2h1c.5,-.2,1.2,-.6,1.5,-1h.2v-.6h.6q.2,-.3,.4,-.7h.3v-.4h.4c.1,-.4,.2,-.5,.2,-.5c0,0,.1,0,.1,0c.1,0,.2,0,.3,-.1v-.2h.2V916h.2c.3,-.5,-.2,-.3,.6,-.6c.2,-.7,.5,-.6,.7,-1.3h.6c.1,-.8,.3,-.7,.6,-1.2h.2v-.5h.4c.1,-.7,.4,-.8,1.1,-.8c.1,0,.3,0,.4,0v-.4h.4v-.4c.1,.1,.2,.2,.4,.2c.1,-.1,0,-.2,.1,-.2h.1c0,.2,.1,.3,.2,.4c.3,-.1,.7,-.1,1.1,-.2v-.2h1.2v-.2h.5v-.2h1.2v-.1h.2c.1,0,0,.2,.1,.2l.1,-.1v-.1h.4v-.2h1.7v-.2h1.3v-.2c.8,0,1.6,.1,2.3,.2v-.2c.1,0,.2,-.1,.3,-.1c.3,0,.5,.3,.7,.3c.2,-.2,0,-.2,.1,-.2h.1v.2h1.7v.2h2.5v.2h.8v.1h1.3v.2h.6v.2c.1,0,.3,-.1,.4,-.2v.2c.5,.1,.9,.2,1.3,.2v.2q.1,0,.2,0c.2,0,.2,-.2,.2,-.2c.4,.1,.8,.1,1.2,.2v.4h.4c0,.2,.1,.4,.2,.6c.2,.1,.3,.2,.5,.4v.3c.2,.2,.4,.3,.6,.4v.4h.2c.3,.3,.1,.3,.6,.4v.4c.5,.3,.5,.6,1.1,.8v.3c.4,.2,.7,.4,1,.6c.1,.1,.1,.3,.2,.4h.4c.5,.4,0,.7,.9,1v.3c1.3,.7,2.6,1.5,3.9,2.2c.5,0,1,.1,1.5,.1v.2h.6v.2c.5,.1,1,.2,1.5,.2v.2h1v.2h.4v.2c.1,-.1,.2,-.1,.4,-.2v.2h.7v.2h1.4v.2h.4v.2c.5,0,1,.1,1.5,.2c.8,.2,1.5,.5,2.3,.7c.1,.2,.1,.4,.2,.6c.4,0,.6,-.2,.8,-.2v.2h.4c0,.2,.1,.4,.1,.6c0,.1,-.3,.1,-.1,.6h.1v.4h.2v.7h.2v.6h.2v.6h.2c.1,.6,.3,1.3,.4,1.9h.2v.4h.2c0,.4,.1,.9,.2,1.3h.2v.6h.2v.6h.1v.6h.2v.5h.2c.1,.4,.2,.8,.2,1.2h.2v1.1c.1,.1,.3,.2,.4,.2v1.2h.2v.4h.2v.5h.2v.6h.2v.6h.2c0,.6,.1,1.2,.2,1.7h.1v.8h.2v.4h.2v.9h.2v1h.2v1.2h.2V946h.2v1.5h.2v1.4h.2V951h.2v1.2h-.2v.1h.2v.8h.2v3.7h.2v.9h-.2q0,.1,0,.1c0,0,.1,0,.1,0l.1,.1c0,.4,-.2,.6,-.2,.6c0,.1,.2,.5,.2,1c-.1,0,-.1,.1,-.1,.1h-.1q0,-.1,0,-.1c0,0,0,.1,0,.1h.2v.2h-.2v.2h.2v.6h-.2c-.1,.2,.3,.5,.2,1h-.2c-.2,.8,-.1,3.4,0,3.6h-.2v2.7c-.1,0,-.2,0,-.2,.4h.2v.2h-.2c0,.4,.1,.8,.2,1.1h-.2v2.7h-.2c-.1,1.5,-.1,3,-.2,4.5h-.2c0,0,0,.1,0,.1c0,0,.1,0,.1,0q0,-.1,0,-.1c.1,0,.1,.1,.1,.1c.1,.5,-.2,.6,-.2,.6c.1,.2,.1,.3,.2,.4h-.2v2.3h-.2c.1,.3,.1,.7,.2,1h-.2c.1,.4,.1,.9,.2,1.3h-.2c.1,.2,.1,.4,.2,.6c.1,1.1,-.1,1.7,-.2,2.1h.2c.2,1,.1,4.2,0,4.6v.2h.2v1.4h.2c-.1,.1,-.1,.2,-.2,.3c.1,.2,.1,.3,.2,.4h-.2v.2h.2v1.2h.2V996c0,0,.2,0,.2,.4h-.2c0,.3,.1,.6,.2,.9h.2c-.1,.3,-.2,.5,-.2,.8h.2v1.1h.2v2.5h.2v2.7c.5,2,.1,4.4,.1,6.6c0,2.4,.5,6.8,-.5,7.8c-.2,.3,0,.1,-.4,.2v.4c-1.9,.2,-3.9,.3,-5.8,.4v.2h-.2v-.2c0,0,-.1,0,-.1,0c-.2,0,-.3,0,-.4,.1c-.1,0,-.1,.1,-.2,.1v-.2h-1v-.2c-.1,0,-.2,.1,-.3,.1c-.1,.1,-.2,.1,-.3,.1q-.1,0,-.2,0v-.2c-.7,0,-1.5,-.1,-2.3,-.2c-.1,.4,-.2,.6,-.2,1.2c.4,.4,0,4.4,0,5.9c0,1.2,0,2.8,.2,3.7v.9h-.2v1.6h.2c0,.2,-.1,.4,-.2,.6h.2v3c0,1.7,.3,3.2,0,4.5c-1.9,.2,-3.8,.3,-5.7,.5v.2h-1v.2c-.1,0,-.3,-.1,-.4,-.2v.2h-1.3v.2h-1.4v-.2h-.2v.2c-.1,0,-.3,.1,-.5,.1Z"/></clipPath>
<clipPath id="c2_31"><path d="M774.3,1056.8q-.1,0,-.2,0v-.2c-.4,-.1,-.8,-.3,-1.2,-.4v-.2h-.7v-.2h-.4v-.2c-.5,0,-.9,-.1,-1.4,-.1v-.2h-.7c-.1,-.2,-.2,-.3,-.2,-.4c-.2,0,-.3,.1,-.4,.2v-.2h-.6v-.2h-1v-.2H767v-.2h-.4v-.2c-.2,.1,-.4,.1,-.6,.2v-.2h-.6v-.2H765v-.2h-.5v-.2c-.6,0,-1.2,-.1,-1.8,-.2c0,-.1,-.1,-.2,-.2,-.3H761v-.2h-.6v-.2h-1.1v-.2h-1.6v-.2h-.9v-.2c-.6,-.1,-1.1,-.1,-1.6,-.2v-.2h-.6v-.2h-1.1c-.1,-.1,-.2,-.2,-.2,-.4h-.2v.2h-.2v-.2h-1.4v-.2H751v-.1h-.6v-.2H749c0,-.2,-.1,-.3,-.2,-.4h-.7v.2c-.4,-.1,-.8,-.2,-1.2,-.2c-.4,-1.2,-.2,-3.3,-.2,-4.8h.2c0,-.4,-.1,-.8,-.2,-1.2c.1,-.7,.2,-2.8,.2,-4.6c0,-.6,-.1,-1.3,-.2,-1.9h.2c0,-.5,-.1,-.9,-.2,-1.3h.2c0,-1.5,-.1,-2.9,-.2,-4.3c0,-.4,.2,-.5,.2,-.7h-.2v-.8c0,0,.3,-.1,.2,-.6q0,-.1,0,-.1q-.1,0,-.1,0q-.1,0,-.1,-.1h.2v-.2h-.2c0,-.3,.2,-.4,.2,-.4c.1,-.4,-.2,-.5,-.2,-.5c.1,-.2,.2,-.4,.2,-.6h-.2c-.2,-1.1,.2,-3,.2,-3.3v-2.3h-.2c.1,-.1,.2,-.2,.2,-.4v-.7h-.2c.1,-.2,.2,-.3,.2,-.4h-.2v-.2h.2v-1.9h-.2c.1,-.2,.2,-.3,.2,-.4h-.2c.1,-2.1,.2,-4.2,.2,-6.3h.2c-.1,-.2,-.1,-.4,-.2,-.6v-.2h.2c-.1,-.1,-.1,-.3,-.2,-.4h.2c.1,-.4,-.2,-.6,-.2,-.6v-.7h.2v-.2h-.2c-.1,-.5,.2,-.5,.2,-.8h-.2c0,-.3,.4,-1.6,.2,-2.3c-.1,-.3,-.4,-2.2,-.2,-3.3h.2v-.2h-.2c0,-.9,-.1,-1.8,-.2,-2.7h.2c0,-.1,-.1,-.2,-.2,-.3h.2v-.2h-.2v-1h.2v-2.9c.2,-.5,.5,-3.9,.2,-5.3c0,-.1,0,-.2,-.1,-.2c0,0,0,.1,0,.1q-.1,0,-.1,-.1h.2c-.1,-.2,-.1,-.3,-.2,-.4c.1,-.1,.2,0,.2,-.4h-.2c0,-.3,.3,-.8,.2,-1.7h-.2v-.2h.2v-1.6c0,-2,0,-4.7,.2,-5.9v-.2h-.2c-.1,-.4,.2,-.6,.2,-.6c-.1,-.2,-.1,-.4,-.2,-.6h.2V976h.2v-.8h.2v-2.3c.1,-.1,.1,-.3,.2,-.4h-.2v-2.1h.2v-.2h-.2V970h.2v-.2h-.2V957.1h-.2c-.1,-.4,.2,-.5,.2,-.7h-.2v-.2h.2v-.8h-.2c.1,-.2,.1,-.4,.2,-.6c-.1,-.1,-.1,-.2,-.2,-.4c0,-.3,.1,-.3,.2,-.3v-1h-.2c0,-.1,.3,-.5,.2,-1h-.2c.1,-.8,.1,-1.6,.2,-2.5h-.2v-.1h.2c-.1,-.2,-.1,-.4,-.2,-.6h.2v-.2h-.2v-.8h.2v-1.3h-.2c.1,-.2,.1,-.4,.2,-.6c-.1,-.1,-.3,0,-.2,-.4c0,0,.2,0,.2,-.4c0,0,-.2,-.1,-.2,-.4h.2v-.5c0,0,-.3,-.1,-.2,-.4h.2v-2.3h.2V941h.2c-.1,-.6,-.1,-1.1,-.2,-1.7h.2c0,-.2,-.2,-.4,-.2,-.8c0,-.4,.2,-.4,.2,-.4c.3,-1,-.1,-2.5,-.2,-3.2c.1,-.1,.2,-.2,.4,-.2c-.1,-.4,-.2,-.7,-.2,-1h-.2v-1h.2v-1.3h-.2v-.2h.2c.2,-.9,-.2,-2.1,-.2,-2.7h.2v-.9h-.2v-1.2c-.2,-.7,-.4,-2.6,-.2,-3.6h.2c0,-.4,-.2,-.4,-.2,-.4c.1,-.7,.1,-1.3,.2,-1.9c-.7,-.2,-.4,-.3,-.8,-.6c.2,-.4,.3,-.3,.4,-.8h1.7c.1,-.1,.2,-.2,.2,-.4h.8v-.2c.5,0,1,-.1,1.5,-.2c.1,-.1,.2,-.2,.2,-.3c.6,-.1,1.2,-.2,1.8,-.2v-.2h.5v-.2h.4v-.2c.7,-.3,1.8,-.4,2.7,-.4v-.4q.5,0,.8,-.2V916c.5,0,.9,-.1,1.4,-.2c0,-.1,.1,-.2,.1,-.3c.5,-.1,.9,-.2,1.4,-.2v-.2c.4,-.1,.8,-.1,1.2,-.2v-.2h.3v-.2c.4,-.1,.8,-.1,1.2,-.2v-.2c.1,.1,.3,.1,.4,.2v-.2h.4v-.2h.7v-.2h.6v-.2h.8v-.2h.4v-.1h.7c.1,-.2,.2,-.3,.2,-.4c.5,-.1,1.1,-.2,1.6,-.2v-.2h.4v-.2H771c.1,-.1,.1,-.3,.2,-.4h.8c0,-.1,.1,-.2,.2,-.4c1,-.1,2,-.2,3.1,-.4c.2,0,-.1,-.1,.2,-.1v.1h.1c.1,-.1,.2,-.2,.2,-.3h.8c.1,-.2,.1,-.3,.2,-.4h1.5v-.2h.4v-.2h.6v-.2h1.6v-.2h.5v-.2h.8v-.2h.4v-.2c.1,.1,.2,.2,.4,.2v-.2c.1,.1,.2,.2,.4,.2v-.2h.7c.1,.2,.2,.3,.2,.4h1.2v.2c.5,.1,1,.1,1.5,.2v.2c.2,-.1,.4,-.1,.6,-.2v.2h.6v.2c.5,.1,1,.1,1.5,.2v.2c.1,-.1,.3,-.2,.4,-.2v.2c1.3,.2,2.6,.4,3.9,.5v.2h.5v.2h.8v.2h.6v.2c.5,.1,1,.1,1.5,.2v.2h.8v.2c.6,.1,1.3,.1,1.9,.2v.2h.6v.2h1.2v.2h.9v.1h1v.2c.7,.1,1.4,.2,2.1,.2v.2h1.7v.2h.6v.2c.7,.1,1.4,.1,2.1,.2v.2h.6v.2c.7,.1,1.3,.1,2,.2v.2h.3v.2h1v.2h1v.1h1.3v.2h.6v.2h.8v.2c.2,0,.3,-.1,.5,-.2c.1,.2,.2,.3,.2,.4h.4v.2h1.2v.2h1.1v.2h.6v.2h1.2v.2h.9v.2h.6v.2c.3,0,.5,.1,.8,.2v.1h.6v.2h.2v1.2H826v.2c.3,.5,.1,1.7,.2,2.5c0,1.1,.1,2.3,.1,3.4c0,.2,-.1,.4,-.1,.6h.1c.1,.8,.2,1.7,.2,2.5h-.2c.1,.2,.2,.4,.2,.6c-.2,1,.1,2.7,-.2,3.8h-.1c0,.3,.1,.7,.1,1h-.1c-.1,.4,.1,.5,.1,.6v3.4h-.1c0,.3,.1,.5,.1,.8h-.1c-.3,1,0,2.5,.1,3.2h-.1c0,.3,.1,.6,.1,.8h-.1v1h.1c0,.1,-.1,.2,-.1,.4v4H826v.2h.2v1.9c-.1,.3,-.3,2.1,0,3.3h.1c0,.4,-.1,.7,-.1,1.1c-.6,.2,-.5,.1,-.6,.6c-.5,-.1,-.9,-.1,-1.4,-.2c-.9,.3,-1.6,1.1,-2.7,1.3v.4c1.5,.1,3,.2,4.5,.2c-.1,.4,-.2,.8,-.2,1.2h.2v.9h.2v.2c-.1,.2,-.2,.4,-.2,.6v1.7h.2v1.6H826v.2h.2c.1,.4,-.2,.5,-.2,.7c0,.9,.1,1.7,.2,2.5H826c-.1,.4,.2,.6,.2,.6c-.1,.3,-.2,.6,-.2,1c0,0,.2,.1,.2,.3H826v.2h.2v.8H826c-.1,.1,0,.1,0,.1c0,0,.1,0,.1,0l.1,.1v1.7h.1c0,.7,-.1,1.3,-.1,1.9c0,1,.1,2,.1,2.9h-.1v1.4H826c0,.6,.1,1.3,.2,1.9H826v1.5h.2v.2H826c-.1,.5,.1,.5,.2,.8c-.1,0,-.4,0,-.2,.6c0,0,.2,.1,.2,.5H826c-.1,.3,.3,.4,.2,.8H826v4.6h-.2V994h-.2v.2h.2v.2h-.2c0,.2,.1,.4,.2,.6h-.2v2.5h-.2v.2c0,.1,.3,0,.2,.5h-.2v.2h.2v.8h-.2v4h-.2c.1,.4,.1,.8,.2,1.2h-.2v2.3H825v.2h.2c.1,.3,-.4,.7,-.2,1.3h.2v3.1H825c.1,.2,.1,.4,.2,.6H825v2.3h-.2v4c0,.5,-.4,.9,-.2,1.5c0,0,.2,.1,.2,.6h-.2c0,.1,.2,.4,.2,.8c0,.8,-.2,1.1,-.2,1.3c.1,.5,.1,.9,.2,1.4h-.2c.1,.3,.1,.6,.2,.9h-.2c-.1,.7,-.1,1.4,-.2,2.1h.2v.2h-.2v1.8h-.2v.2c.1,.1,.3,0,.2,.3h-.2v1H824c.1,.6,.2,1.3,.2,1.9H824v1.6h.2c.1,.1,.2,.3,.2,.5h-.2v.6H824v.2h-1.1q-.1,.5,-.2,.8h-.4c-.1,-.2,-.1,-.3,-.2,-.4c-.4,0,-.8,.1,-1.2,.2c0,.4,-.1,.7,-.1,1.1h-.2c-.4,1.3,.2,2.4,0,3.5c-.3,1.2,-.1,2.3,0,4.6c-.2,.1,-.4,.1,-.6,.2v.2q-.1,0,-.1,0c-.2,0,-.3,-.2,-.3,-.2c-.6,0,-1.3,.1,-1.9,.2v.2c-.4,0,-.8,.1,-1.2,.2v.2c-.2,0,-.5,.1,-.8,.1v.2h-.5v.2c-.6,.1,-1.1,.2,-1.6,.2v.2c-.2,.1,-.5,.1,-.7,.2v.2c-.8,.1,-1.5,.1,-2.2,.2v.2c-.4,0,-.9,.1,-1.3,.2v.2h-1v.2h-.6v.1c-.2,.1,-.5,.2,-.7,.2v.2h-.6v.2h-.6v.2h-1v.2c-.5,.1,-1,.1,-1.5,.2v.2h-.6v.2h-.6v.2h-.9v.2h-.8v.2c-.4,0,-.9,.1,-1.3,.2v.1c-.5,.1,-.9,.2,-1.4,.2v.2h-.6v.2c-.5,.1,-1,.1,-1.5,.2v.2c-.3,.1,-.5,.1,-.8,.2v.2h-.7v.2h-.6v.2H793v.2h-1.2v.2h-.3v.2c-.7,0,-1.3,.1,-2,.1v.2h-1.1v.2h-1.2v.2h-1v.2h-.5v.2c-.2,-.1,-.4,-.1,-.6,-.2v.2h-.6v.2c-.7,.1,-1.4,.1,-2.1,.2v.2c-.5,0,-.9,.1,-1.4,.2v.2h-.7v.2h-.6v.1h-1.2v.2h-.7v.2c-.2,0,-.3,-.1,-.4,-.2c-.4,.2,-2.4,1,-3.1,1Z"/></clipPath>
<style type="text/css"><![CDATA[
.g0_31{
fill: #FAAF82;
}
.g1_31{
fill: none;
stroke: #000;
stroke-width: 0.763;
}
.g2_31{
fill: #FFF1E0;
}
.g3_31{
fill: none;
stroke: #D82C20;
stroke-width: 1.527;
}
.g4_31{
fill: none;
stroke: #0EA5DF;
stroke-width: 3.055;
}
.g5_31{
fill: #E8F1FA;
}
.g6_31{
fill: #FFCB05;
}
.g7_31{
fill: none;
stroke: #FFCB05;
stroke-width: 0.404;
stroke-miterlimit: 2;
}
.g8_31{
fill: #000;
}
.g9_31{
fill: none;
stroke: #FFCB05;
stroke-width: 0.4;
stroke-miterlimit: 2;
}
.ga_31{
fill: none;
stroke: #FFCB05;
stroke-width: 0.401;
stroke-miterlimit: 2;
}
.gb_31{
fill: #0C4B7F;
}
.gc_31{
fill: #FAE4DA;
}
]]></style>
</defs>
<path d="M835.8,1129.8h73.6v-51.5H835.8v51.5Z" class="g0_31"/>
<path d="M315.8,260.3h28.7m302.5,0h28.7" class="g1_31"/>
<path d="M185.6,127H833.5V65H185.6v62Z" class="g2_31"/>
<path d="M456.7,98.3h39" class="g1_31"/>
<path d="M503.5,100.5h2.1V98.3h-2.1v2.2Z" class="g3_31"/>
<path d="M73.6,167H835.8M73.6,311.1H835.8" class="g4_31"/>
<path d="M184.7,1077.7H835.9V770.1H184.7v307.6Z" class="g5_31"/>
<path d="M73.6,771H836.9" class="g4_31"/>
<image clip-path="url(#c0_31)" preserveAspectRatio="none" x="638" y="771" width="205" height="246" xlink:href="img/p1.jpg"/>
<path d="M652.7,997.5h32.5v13.8H652.7V997.5Z" class="g6_31"/>
<path d="M652.7,997.5h32.5v13.8H652.7V997.5Z" class="g7_31"/>
<path fill-rule="evenodd" d="M658.1,1007.5v-.5l2.4,-2.3c.3,-.3,.6,-.6,.7,-.8c.2,-.2,.3,-.5,.3,-.8c0,-.2,0,-.4,-.2,-.6c-.1,-.2,-.3,-.4,-.5,-.5c-.2,-.1,-.4,-.2,-.6,-.2c-.3,0,-.5,.1,-.7,.2c-.2,.1,-.4,.3,-.5,.5c-.1,.2,-.2,.5,-.2,.7v.1h-.6c0,-.3,0,-.6,.1,-.8c.1,-.3,.2,-.5,.4,-.7c.2,-.2,.4,-.3,.7,-.4c.2,-.1,.5,-.2,.8,-.2c.4,0,.7,.1,1,.3c.3,.2,.5,.4,.7,.7c.2,.3,.2,.6,.2,.9c0,.3,0,.5,-.1,.7c-.1,.2,-.2,.4,-.4,.6c-.1,.2,-.3,.4,-.7,.7L659,1007h3.1v.5Z" class="g8_31"/>
<path fill-rule="evenodd" d="M665.8,1007.5v-1.1h-3.2v-.6l3.1,-4.5h.7v4.5h.6v.6h-.6v1.1Zm0,-1.7v-3.6l-2.4,3.6Z" class="g8_31"/>
<path fill-rule="evenodd" d="M672,1002.9l1.7,4.6H673l-1.4,-3.7l-1.4,3.7h-.6l1.7,-4.6Z" class="g8_31"/>
<path fill-rule="evenodd" d="M676.6,1004.1c.3,.1,.5,.1,.6,.2c.2,0,.3,.1,.5,.2c.3,.3,.5,.7,.5,1.3c0,.4,-.1,.8,-.3,1.1c-.2,.2,-.4,.4,-.7,.5c-.3,.2,-.6,.2,-1,.2c-.3,0,-.6,0,-.9,-.1c-.2,-.1,-.4,-.2,-.6,-.4c-.4,-.3,-.5,-.7,-.5,-1.2v-2.2c0,-.5,0,-.7,0,-.8c0,-.3,.1,-.6,.2,-.8c.1,-.1,.3,-.3,.4,-.4c.2,-.1,.4,-.2,.5,-.3c.2,0,.5,-.1,.8,-.1c.2,0,.5,.1,.7,.1c.2,.1,.4,.2,.5,.3c.2,.2,.3,.3,.4,.5c0,.2,.1,.4,.1,.7c0,.3,-.1,.7,-.4,.9c-.1,.1,-.2,.2,-.3,.2c-.1,.1,-.3,.1,-.5,.1m-1.3,.4v-.5h.6c.2,0,.5,-.1,.7,-.2c.2,0,.3,-.2,.4,-.3c.1,-.2,.2,-.4,.2,-.6c0,-.3,-.1,-.6,-.3,-.8c-.3,-.2,-.5,-.2,-.9,-.2c-.2,0,-.5,0,-.7,.1c-.1,.1,-.3,.2,-.4,.4c-.1,.2,-.2,.4,-.2,.7c.1,.1,.1,.3,.1,.6v2.2c0,.3,.1,.6,.4,.9c.2,.2,.6,.3,1,.3c.3,0,.5,0,.7,-.1c.2,-.2,.4,-.3,.5,-.5c.1,-.2,.2,-.4,.2,-.7c0,-.3,-.1,-.5,-.2,-.7c-.2,-.2,-.3,-.4,-.6,-.5c-.2,-.1,-.5,-.1,-.8,-.1Z" class="g8_31"/>
<path fill-rule="evenodd" d="M679.4,1006.5h.7v1h-.7v-1Z" class="g8_31"/>
<image clip-path="url(#c1_31)" preserveAspectRatio="none" x="449" y="896" width="204" height="246" xlink:href="img/p2.jpg"/>
<path d="M607.4,1030.3h32.1v13.8H607.4v-13.8Z" class="g6_31"/>
<path d="M607.4,1030.3h32.1v13.8H607.4v-13.8Z" class="g9_31"/>
<path fill-rule="evenodd" d="M613.8,1035.6h-.6c0,-.2,0,-.5,.1,-.7c.1,-.1,.2,-.3,.4,-.5c.1,-.1,.3,-.2,.5,-.3c.1,-.1,.3,-.1,.6,-.1c.2,0,.5,.1,.7,.2c.3,.2,.5,.3,.6,.6c.1,.2,.2,.5,.2,.8c0,.2,0,.4,-.1,.6c-.1,.1,-.1,.2,-.2,.2c-.1,.1,-.2,.2,-.3,.3c.2,.1,.3,.3,.5,.4c.3,.4,.5,.8,.5,1.3c0,.4,-.1,.7,-.3,1c-.1,.3,-.4,.5,-.7,.7c-.3,.2,-.6,.3,-1,.3c-.5,0,-1,-.2,-1.4,-.6c-.1,-.2,-.3,-.4,-.4,-.7c0,-.1,-.1,-.2,-.1,-.3c0,-.1,0,-.3,0,-.4h.6c0,.2,0,.4,.1,.5c0,.2,.2,.5,.4,.6c.3,.2,.5,.3,.8,.3c.3,0,.5,-.1,.7,-.2c.2,-.1,.4,-.3,.5,-.5c.1,-.2,.2,-.4,.2,-.7c0,-.3,-.1,-.5,-.3,-.8c-.1,-.2,-.4,-.4,-.6,-.5c-.2,0,-.4,-.1,-.7,-.1h-.2v-.5h.3c.3,0,.6,-.1,.8,-.3c.2,-.1,.3,-.4,.3,-.7c0,-.2,-.1,-.5,-.3,-.6c-.2,-.2,-.4,-.3,-.7,-.3c-.2,0,-.5,.1,-.6,.3c-.2,.2,-.3,.4,-.3,.7Z" class="g8_31"/>
<path fill-rule="evenodd" d="M619.6,1034.1h.7l-1.5,2.2c.3,-.2,.5,-.2,.8,-.2c.3,0,.6,.1,.9,.3c.3,.2,.6,.4,.8,.8c.2,.3,.2,.7,.2,1c0,.4,-.1,.8,-.2,1.1c-.2,.3,-.5,.6,-.8,.8c-.3,.2,-.7,.3,-1.1,.3c-.3,0,-.7,-.1,-1,-.3c-.3,-.2,-.6,-.5,-.8,-.8c-.2,-.3,-.3,-.7,-.3,-1.1c0,-.2,.1,-.4,.1,-.6c.1,-.2,.1,-.4,.2,-.5c.1,-.2,.3,-.5,.5,-.8Zm-.1,2.6c-.3,0,-.6,0,-.8,.2c-.2,.1,-.4,.3,-.6,.5c-.1,.3,-.2,.5,-.2,.8c0,.3,.1,.6,.2,.8c.2,.3,.4,.4,.6,.6c.2,.1,.5,.2,.7,.2c.3,0,.5,-.1,.8,-.2c.2,-.1,.4,-.3,.5,-.6c.2,-.2,.2,-.5,.2,-.7c0,-.3,0,-.6,-.2,-.8c-.1,-.3,-.3,-.5,-.5,-.6c-.2,-.1,-.5,-.2,-.7,-.2Z" class="g8_31"/>
<path fill-rule="evenodd" d="M626.4,1035.6l1.7,4.7h-.6l-1.4,-3.8l-1.4,3.8h-.6l1.7,-4.7Z" class="g8_31"/>
<path fill-rule="evenodd" d="M631,1036.9c.3,0,.5,.1,.7,.1c.1,.1,.2,.2,.4,.3c.3,.3,.5,.7,.5,1.3c0,.4,-.1,.7,-.3,1c-.2,.3,-.4,.5,-.7,.6c-.2,.1,-.6,.2,-1,.2c-.3,0,-.6,-.1,-.8,-.1c-.3,-.1,-.5,-.3,-.7,-.4c-.3,-.4,-.5,-.8,-.5,-1.3v-2.2c0,-.4,0,-.7,0,-.8c.1,-.2,.1,-.5,.3,-.7c.1,-.2,.2,-.3,.3,-.4c.2,-.2,.4,-.3,.6,-.3c.2,-.1,.4,-.1,.7,-.1c.2,0,.5,0,.7,.1c.2,.1,.4,.2,.5,.3c.2,.1,.3,.3,.4,.5c.1,.2,.1,.4,.1,.6c0,.4,-.1,.7,-.4,1c-.1,.1,-.2,.2,-.3,.2c-.1,0,-.3,.1,-.5,.1m-1.2,.3v-.5h.5c.3,0,.5,0,.7,-.1c.2,-.1,.3,-.2,.4,-.4c.1,-.1,.2,-.3,.2,-.5c0,-.4,-.1,-.6,-.3,-.8c-.2,-.2,-.5,-.3,-.9,-.3c-.2,0,-.4,.1,-.6,.2c-.2,.1,-.4,.2,-.5,.4c-.1,.2,-.1,.4,-.1,.7c0,.1,0,.3,0,.5v2.2c0,.4,.1,.7,.4,.9c.3,.3,.6,.4,1,.4c.3,0,.5,-.1,.7,-.2c.2,-.1,.4,-.2,.5,-.4c.1,-.2,.2,-.5,.2,-.7c0,-.3,-.1,-.5,-.2,-.7c-.2,-.2,-.3,-.4,-.6,-.5c-.2,-.1,-.5,-.2,-.8,-.2Z" class="g8_31"/>
<path fill-rule="evenodd" d="M633.8,1039.2h.6v1.1h-.6v-1.1Z" class="g8_31"/>
<image clip-path="url(#c2_31)" preserveAspectRatio="none" x="738" y="905" width="204" height="246" xlink:href="img/p3.jpg"/>
<path d="M759.8,1041.7H792v13.8H759.8v-13.8Z" class="g6_31"/>
<path d="M759.8,1041.7H792v13.8H759.8v-13.8Z" class="ga_31"/>
<path fill-rule="evenodd" d="M765.1,1045.5h.7l-1.5,2.2c.3,-.2,.5,-.2,.8,-.2c.3,0,.6,.1,.9,.3c.3,.1,.6,.4,.8,.7c.1,.4,.2,.7,.2,1.1c0,.4,-.1,.7,-.3,1.1c-.1,.3,-.4,.6,-.7,.8c-.3,.2,-.7,.3,-1.1,.3c-.4,0,-.7,-.1,-1,-.3c-.4,-.2,-.6,-.5,-.8,-.8c-.2,-.3,-.3,-.7,-.3,-1.1c0,-.2,0,-.5,.1,-.7c.1,-.1,.1,-.3,.2,-.5c.1,-.1,.3,-.4,.5,-.7Zm-.2,2.6c-.2,0,-.5,0,-.7,.2c-.3,.1,-.4,.3,-.6,.5c-.1,.2,-.2,.5,-.2,.8c0,.3,.1,.5,.2,.8c.2,.2,.3,.4,.6,.6c.2,.1,.4,.2,.7,.2c.3,0,.5,-.1,.8,-.2c.2,-.2,.4,-.4,.5,-.6c.1,-.2,.2,-.5,.2,-.8c0,-.3,-.1,-.5,-.2,-.8c-.1,-.2,-.3,-.4,-.5,-.5c-.3,-.2,-.5,-.2,-.8,-.2Z" class="g8_31"/>
<path fill-rule="evenodd" d="M768.6,1048.2c-.1,-.1,-.2,-.2,-.3,-.3c-.3,-.2,-.4,-.6,-.4,-.9c0,-.3,.1,-.6,.2,-.8c.2,-.3,.4,-.5,.6,-.6c.3,-.1,.6,-.2,.9,-.2c.3,0,.6,.1,.8,.2c.3,.1,.5,.3,.6,.6c.1,.2,.2,.5,.2,.8c0,.4,-.1,.7,-.4,1c-.1,0,-.2,.1,-.3,.2c.2,.1,.4,.2,.5,.4c.4,.3,.5,.8,.5,1.2c0,.4,-.1,.7,-.2,1c-.2,.3,-.5,.5,-.8,.7c-.3,.2,-.6,.3,-1,.3c-.3,0,-.6,-.1,-.9,-.3c-.3,-.2,-.6,-.4,-.7,-.7c-.2,-.3,-.3,-.6,-.3,-.9c0,-.3,0,-.5,.2,-.8c.1,-.2,.2,-.4,.4,-.6c.1,-.1,.2,-.2,.4,-.3m1,.3c-.4,0,-.7,.2,-1,.4c-.3,.3,-.4,.6,-.4,1c0,.2,.1,.4,.2,.6c.1,.2,.3,.4,.5,.5c.2,.1,.4,.2,.6,.2c.3,0,.5,-.1,.7,-.2c.2,-.1,.4,-.3,.5,-.5c.2,-.2,.2,-.4,.2,-.7c0,-.2,0,-.4,-.2,-.6c-.1,-.2,-.2,-.4,-.5,-.5c-.2,-.1,-.4,-.2,-.6,-.2m0,-2.5c-.3,0,-.5,.1,-.8,.2c-.2,.2,-.3,.5,-.3,.7c0,.3,.1,.6,.3,.8c.2,.1,.5,.2,.8,.2c.1,0,.3,0,.5,-.1c.1,-.1,.3,-.2,.4,-.4c0,-.1,.1,-.3,.1,-.4c0,-.2,-.1,-.4,-.1,-.5c-.1,-.2,-.3,-.3,-.4,-.4c-.2,-.1,-.3,-.1,-.5,-.1Z" class="g8_31"/>
<path fill-rule="evenodd" d="M776.3,1049.3c0,.4,0,.8,-.1,1c-.1,.3,-.2,.5,-.4,.7c-.4,.5,-.9,.8,-1.6,.8c-.6,0,-1.2,-.3,-1.6,-.8c-.2,-.2,-.3,-.4,-.4,-.7c0,-.2,-.1,-.6,-.1,-1v-1.6c0,-.4,.1,-.7,.2,-.9c0,-.3,.2,-.5,.3,-.7c.2,-.2,.5,-.4,.7,-.5c.3,-.2,.6,-.2,.9,-.2c.3,0,.6,0,.9,.2c.2,.1,.5,.2,.7,.4c.3,.4,.5,1,.5,1.7Zm-3.5,-.1c0,.4,0,.7,0,.9c.1,.2,.1,.3,.2,.5c.3,.4,.7,.6,1.2,.6c.3,0,.5,-.1,.8,-.2c.2,-.1,.3,-.3,.5,-.5c0,-.2,.1,-.3,.1,-.5c.1,-.2,.1,-.5,.1,-.8v-1.4c0,-.5,-.1,-1,-.3,-1.2c-.1,-.2,-.3,-.4,-.5,-.5c-.2,-.1,-.4,-.1,-.7,-.1c-.2,0,-.5,0,-.7,.2c-.2,.1,-.4,.3,-.5,.5c-.2,.2,-.2,.6,-.2,1.1Z" class="g8_31"/>
<path fill-rule="evenodd" d="M781.2,1047l1.7,4.7h-.6l-1.4,-3.8l-1.4,3.8h-.6l1.7,-4.7Z" class="g8_31"/>
<path fill-rule="evenodd" d="M785.8,1048.3c.3,0,.5,.1,.7,.1c.1,.1,.3,.2,.4,.3c.3,.3,.5,.7,.5,1.2c0,.5,-.1,.8,-.3,1.1c-.2,.3,-.4,.5,-.7,.6c-.2,.1,-.6,.2,-1,.2c-.3,0,-.6,-.1,-.8,-.2c-.3,-.1,-.5,-.2,-.7,-.4c-.3,-.3,-.5,-.7,-.5,-1.2v-2.2c0,-.4,0,-.7,0,-.8c.1,-.3,.1,-.5,.3,-.7c.1,-.2,.2,-.3,.3,-.5c.2,-.1,.4,-.2,.6,-.2c.2,-.1,.4,-.1,.7,-.1c.3,0,.5,0,.7,.1c.2,.1,.4,.2,.5,.3c.2,.1,.3,.3,.4,.5c.1,.2,.1,.4,.1,.6c0,.4,-.1,.7,-.4,1c-.1,.1,-.2,.1,-.3,.2c-.1,0,-.2,.1,-.5,.1m-1.2,.3v-.5h.5c.3,0,.5,0,.7,-.1c.2,-.1,.3,-.2,.4,-.4c.1,-.1,.2,-.3,.2,-.6c0,-.3,-.1,-.5,-.3,-.7c-.2,-.2,-.5,-.3,-.8,-.3c-.3,0,-.5,0,-.7,.1c-.2,.1,-.4,.3,-.5,.5c-.1,.2,-.1,.4,-.1,.6v.1c0,.1,0,.2,0,.5v2.2c0,.4,.1,.7,.4,.9c.3,.2,.6,.4,1,.4c.3,0,.5,-.1,.7,-.2c.2,-.1,.4,-.3,.5,-.5c.1,-.2,.2,-.4,.2,-.7c0,-.2,-.1,-.5,-.2,-.7c-.1,-.2,-.3,-.3,-.6,-.4c-.2,-.1,-.5,-.2,-.8,-.2Z" class="g8_31"/>
<path fill-rule="evenodd" d="M788.6,1050.6h.7v1.1h-.7v-1.1Z" class="g8_31"/>
<path d="M136.4,102.6h39.7V65.2H136.4v37.4Z" class="gb_31"/>
<path d="M185.1,158.1h17.4V140.7H185.1v17.4Z" class="gc_31"/>
<path d="M223.9,482h28.7" class="g1_31"/>
<path d="M73.6,568.9H835.8" class="g4_31"/>
<path d="M646.7,688.2h28.6m-354.4,-.4h28.6" class="g1_31"/>
</svg>
