<?xml version="1.0" encoding="UTF-8" standalone="no"?>
<!DOCTYPE svg PUBLIC "-//W3C//DTD SVG 1.1//EN"
"http://www.w3.org/Graphics/SVG/1.1/DTD/svg11.dtd">
<svg viewBox="0 0 909 1147" version="1.1" xmlns="http://www.w3.org/2000/svg" xmlns:xlink="http://www.w3.org/1999/xlink">
<defs>
<style type="text/css"><![CDATA[
.g0_151{
fill: #E7A9A1;
}
.g1_151{
fill: #FCD3C1;
}
.g2_151{
fill: none;
stroke: #000;
stroke-width: 0.763;
stroke-miterlimit: 10;
}
]]></style>
</defs>
<path d="M835.8,1131h73.6v-51.5H835.8V1131Z" class="g0_151"/>
<path d="M74,109.5h82.3v21.7H74V109.5Zm82.3,0h86.6v21.7H156.3V109.5Zm86.6,0h73.6v21.7H242.9V109.5ZM74,282.7H316.5v21.7H74V282.7Zm0,65H316.5v21.7H74V347.7Zm0,86.6H316.5V456H74V434.3Z" class="g1_151"/>
<path d="M73.6,109.5h82.7M74,130.8V109.9m82.3,-.4h86.6m-86.6,21.3V109.9m86.6,-.4h74m-74,21.3V109.9m73.6,20.9V109.9M73.6,131.2h82.7M74,152.4V131.6m82.3,-.4h86.6m-86.6,21.2V131.6m86.6,-.4h74m-74,21.2V131.6m73.6,20.8V131.6M73.6,152.8h82.7M74,174.1V153.2m82.3,-.4h86.6m-86.6,21.3V153.2m86.6,-.4h74m-74,21.3V153.2m73.6,20.9V153.2M73.6,174.5h82.7M74,195.7V174.9m82.3,-.4h86.6m-86.6,21.2V174.9m86.6,-.4h74m-74,21.2V174.9m73.6,20.8V174.9M73.6,196.1h82.7M74,217.4V196.5m82.3,-.4h86.6m-86.6,21.3V196.5m86.6,-.4h74m-74,21.3V196.5m73.6,20.9V196.5M73.6,217.8h82.7M74,239.1V218.2m82.3,-.4h86.6m-86.6,21.3V218.2m86.6,-.4h74m-74,21.3V218.2m73.6,20.9V218.2M73.6,239.4h82.7M74,260.7V239.8m82.3,-.4h86.6m-86.6,21.3V239.8m86.6,-.4h74m-74,21.3V239.8m73.6,20.9V239.8M73.6,261.1h82.7M74,282.4V261.5m82.3,-.4h86.6m-86.6,21.3V261.5m86.6,-.4h74m-74,21.3V261.5m73.6,20.9V261.5M73.6,282.7h82.7M74,304V283.1m82.3,-.4h86.6m0,0h74m-.4,21.3V283.1M73.6,304.4h82.7M74,325.7V304.8m82.3,-.4h86.6m-86.6,21.3V304.8m86.6,-.4h74m-74,21.3V304.8m73.6,20.9V304.8M73.6,326.1h82.7M74,347.3V326.4m82.3,-.3h86.6m-86.6,21.2V326.4m86.6,-.3h74m-74,21.2V326.4m73.6,20.9V326.4M73.6,347.7h82.7M74,369V348.1m82.3,-.4h86.6m0,0h74m-.4,21.3V348.1M73.6,369.4h82.7M74,390.6V369.7m82.3,-.3h86.6m-86.6,21.2V369.7m86.6,-.3h74m-74,21.2V369.7m73.6,20.9V369.7M73.6,391h82.7M74,412.3V391.4m82.3,-.4h86.6m-86.6,21.3V391.4m86.6,-.4h74m-74,21.3V391.4m73.6,20.9V391.4M73.6,412.7h82.7M74,433.9V413m82.3,-.3h86.6m-86.6,21.2V413m86.6,-.3h74m-74,21.2V413m73.6,20.9V413M73.6,434.3h82.7M74,455.6V434.7m82.3,-.4h86.6m0,0h74m-.4,21.3V434.7M73.6,456h82.7M74,498.9V456.4m82.3,-.4h86.6m0,0h74m-74,42.9V456.4m73.6,42.5V456.4M73.6,499.3h82.7m0,0h86.6m0,0h74" class="g2_151"/>
<path d="M74,531.4h82.3V553H74V531.4Zm82.3,0h86.6V553H156.3V531.4Zm86.6,0h73.6V553H242.9V531.4ZM74,704.6H316.5v21.7H74V704.6Zm0,65H316.5v21.6H74V769.6Zm0,86.6H316.5v21.6H74V856.2Z" class="g1_151"/>
<path d="M73.6,531.4h82.7M74,552.6V531.8m82.3,-.4h86.6m-86.6,21.2V531.8m86.6,-.4h74m-74,21.2V531.8m73.6,20.8V531.8M73.6,553h82.7M74,574.3V553.4m82.3,-.4h86.6m-86.6,21.3V553.4m86.6,-.4h74m-74,21.3V553.4m73.6,20.9V553.4M73.6,574.7h82.7M74,595.9V575.1m82.3,-.4h86.6m-86.6,21.2V575.1m86.6,-.4h74m-74,21.2V575.1m73.6,20.8V575.1M73.6,596.3h82.7M74,617.6V596.7m82.3,-.4h86.6m-86.6,21.3V596.7m86.6,-.4h74m-74,21.3V596.7m73.6,20.9V596.7M73.6,618h82.7M74,639.3V618.4m82.3,-.4h86.6m-86.6,21.3V618.4m86.6,-.4h74m-74,21.3V618.4m73.6,20.9V618.4M73.6,639.6h82.7M74,660.9V640m82.3,-.4h86.6m-86.6,21.3V640m86.6,-.4h74m-74,21.3V640m73.6,20.9V640M73.6,661.3h82.7M74,682.6V661.7m82.3,-.4h86.6m-86.6,21.3V661.7m86.6,-.4h74m-74,21.3V661.7m73.6,20.9V661.7M73.6,682.9h82.7M74,704.2V683.3m82.3,-.4h86.6m-86.6,21.3V683.3m86.6,-.4h74m-74,21.3V683.3m73.6,20.9V683.3M73.6,704.6h82.7M74,725.9V705m82.3,-.4h86.6m0,0h74m-.4,21.3V705M73.6,726.3h82.7M74,747.5V726.6m82.3,-.3h86.6m-86.6,21.2V726.6m86.6,-.3h74m-74,21.2V726.6m73.6,20.9V726.6M73.6,747.9h82.7M74,769.2V748.3m82.3,-.4h86.6m-86.6,21.3V748.3m86.6,-.4h74m-74,21.3V748.3m73.6,20.9V748.3M73.6,769.6h82.7M74,790.8V769.9m82.3,-.3h86.6m0,0h74m-.4,21.2V769.9M73.6,791.2h82.7M74,812.5V791.6m82.3,-.4h86.6m-86.6,21.3V791.6m86.6,-.4h74m-74,21.3V791.6m73.6,20.9V791.6M73.6,812.9h82.7M74,834.1V813.2m82.3,-.3h86.6m-86.6,21.2V813.2m86.6,-.3h74m-74,21.2V813.2m73.6,20.9V813.2M73.6,834.5h82.7M74,855.8V834.9m82.3,-.4h86.6m-86.6,21.3V834.9m86.6,-.4h74m-74,21.3V834.9m73.6,20.9V834.9M73.6,856.2h82.7M74,877.4V856.6m82.3,-.4h86.6m0,0h74m-.4,21.2V856.6M73.6,877.8h82.7M74,920.8V878.2m82.3,-.4h86.6m0,0h74m-74,43V878.2m73.6,42.6V878.2M73.6,921.1h82.7m0,0h86.6m0,0h74" class="g2_151"/>
<path d="M334.2,109.5h82.3v21.7H334.2V109.5Zm82.3,0h86.6v21.7H416.5V109.5Zm86.6,0h73.6v21.7H503.1V109.5ZM334.2,282.7H576.7v21.7H334.2V282.7Zm0,65H576.7v21.7H334.2V347.7Zm0,86.6H576.7V456H334.2V434.3Z" class="g1_151"/>
<path d="M333.8,109.5h82.7m-82.3,21.3V109.9m82.3,-.4h86.6m-86.6,21.3V109.9m86.6,-.4h74m-74,21.3V109.9m73.6,20.9V109.9M333.8,131.2h82.7m-82.3,21.2V131.6m82.3,-.4h86.6m-86.6,21.2V131.6m86.6,-.4h74m-74,21.2V131.6m73.6,20.8V131.6M333.8,152.8h82.7m-82.3,21.3V153.2m82.3,-.4h86.6m-86.6,21.3V153.2m86.6,-.4h74m-74,21.3V153.2m73.6,20.9V153.2M333.8,174.5h82.7m-82.3,21.2V174.9m82.3,-.4h86.6m-86.6,21.2V174.9m86.6,-.4h74m-74,21.2V174.9m73.6,20.8V174.9M333.8,196.1h82.7m-82.3,21.3V196.5m82.3,-.4h86.6m-86.6,21.3V196.5m86.6,-.4h74m-74,21.3V196.5m73.6,20.9V196.5M333.8,217.8h82.7m-82.3,21.3V218.2m82.3,-.4h86.6m-86.6,21.3V218.2m86.6,-.4h74m-74,21.3V218.2m73.6,20.9V218.2M333.8,239.4h82.7m-82.3,21.3V239.8m82.3,-.4h86.6m-86.6,21.3V239.8m86.6,-.4h74m-74,21.3V239.8m73.6,20.9V239.8M333.8,261.1h82.7m-82.3,21.3V261.5m82.3,-.4h86.6m-86.6,21.3V261.5m86.6,-.4h74m-74,21.3V261.5m73.6,20.9V261.5M333.8,282.7h82.7M334.2,304V283.1m82.3,-.4h86.6m0,0h74m-.4,21.3V283.1M333.8,304.4h82.7m-82.3,21.3V304.8m82.3,-.4h86.6m-86.6,21.3V304.8m86.6,-.4h74m-74,21.3V304.8m73.6,20.9V304.8M333.8,326.1h82.7m-82.3,21.2V326.4m82.3,-.3h86.6m-86.6,21.2V326.4m86.6,-.3h74m-74,21.2V326.4m73.6,20.9V326.4M333.8,347.7h82.7M334.2,369V348.1m82.3,-.4h86.6m0,0h74m-.4,21.3V348.1M333.8,369.4h82.7m-82.3,21.2V369.7m82.3,-.3h86.6m-86.6,21.2V369.7m86.6,-.3h74m-74,21.2V369.7m73.6,20.9V369.7M333.8,391h82.7m-82.3,21.3V391.4m82.3,-.4h86.6m-86.6,21.3V391.4m86.6,-.4h74m-74,21.3V391.4m73.6,20.9V391.4M333.8,412.7h82.7m-82.3,21.2V413m82.3,-.3h86.6m-86.6,21.2V413m86.6,-.3h74m-74,21.2V413m73.6,20.9V413M333.8,434.3h82.7m-82.3,21.3V434.7m82.3,-.4h86.6m0,0h74m-.4,21.3V434.7M333.8,456h82.7m-82.3,42.9V456.4m82.3,-.4h86.6m0,0h74m-74,42.9V456.4m73.6,42.5V456.4M333.8,499.3h82.7m0,0h86.6m0,0h74" class="g2_151"/>
<path d="M334.2,531.4h82.3V553H334.2V531.4Zm82.3,0h86.6V553H416.5V531.4Zm86.6,0h73.6V553H503.1V531.4ZM334.2,704.6H576.7v21.7H334.2V704.6Zm0,65H576.7v21.6H334.2V769.6Zm0,86.6H576.7v21.6H334.2V856.2Z" class="g1_151"/>
<path d="M333.8,531.4h82.7m-82.3,21.2V531.8m82.3,-.4h86.6m-86.6,21.2V531.8m86.6,-.4h74m-74,21.2V531.8m73.6,20.8V531.8M333.8,553h82.7m-82.3,21.3V553.4m82.3,-.4h86.6m-86.6,21.3V553.4m86.6,-.4h74m-74,21.3V553.4m73.6,20.9V553.4M333.8,574.7h82.7m-82.3,21.2V575.1m82.3,-.4h86.6m-86.6,21.2V575.1m86.6,-.4h74m-74,21.2V575.1m73.6,20.8V575.1M333.8,596.3h82.7m-82.3,21.3V596.7m82.3,-.4h86.6m-86.6,21.3V596.7m86.6,-.4h74m-74,21.3V596.7m73.6,20.9V596.7M333.8,618h82.7m-82.3,21.3V618.4m82.3,-.4h86.6m-86.6,21.3V618.4m86.6,-.4h74m-74,21.3V618.4m73.6,20.9V618.4M333.8,639.6h82.7m-82.3,21.3V640m82.3,-.4h86.6m-86.6,21.3V640m86.6,-.4h74m-74,21.3V640m73.6,20.9V640M333.8,661.3h82.7m-82.3,21.3V661.7m82.3,-.4h86.6m-86.6,21.3V661.7m86.6,-.4h74m-74,21.3V661.7m73.6,20.9V661.7M333.8,682.9h82.7m-82.3,21.3V683.3m82.3,-.4h86.6m-86.6,21.3V683.3m86.6,-.4h74m-74,21.3V683.3m73.6,20.9V683.3M333.8,704.6h82.7m-82.3,21.3V705m82.3,-.4h86.6m0,0h74m-.4,21.3V705M333.8,726.3h82.7m-82.3,21.2V726.6m82.3,-.3h86.6m-86.6,21.2V726.6m86.6,-.3h74m-74,21.2V726.6m73.6,20.9V726.6M333.8,747.9h82.7m-82.3,21.3V748.3m82.3,-.4h86.6m-86.6,21.3V748.3m86.6,-.4h74m-74,21.3V748.3m73.6,20.9V748.3M333.8,769.6h82.7m-82.3,21.2V769.9m82.3,-.3h86.6m0,0h74m-.4,21.2V769.9M333.8,791.2h82.7m-82.3,21.3V791.6m82.3,-.4h86.6m-86.6,21.3V791.6m86.6,-.4h74m-74,21.3V791.6m73.6,20.9V791.6M333.8,812.9h82.7m-82.3,21.2V813.2m82.3,-.3h86.6m-86.6,21.2V813.2m86.6,-.3h74m-74,21.2V813.2m73.6,20.9V813.2M333.8,834.5h82.7m-82.3,21.3V834.9m82.3,-.4h86.6m-86.6,21.3V834.9m86.6,-.4h74m-74,21.3V834.9m73.6,20.9V834.9M333.8,856.2h82.7m-82.3,21.2V856.6m82.3,-.4h86.6m0,0h74m-.4,21.2V856.6M333.8,877.8h82.7m-82.3,43V878.2m82.3,-.4h86.6m0,0h74m-74,43V878.2m73.6,42.6V878.2M333.8,921.1h82.7m0,0h86.6m0,0h74M435.2,897.3h16.9" class="g2_151"/>
</svg>