<?xml version="1.0" encoding="UTF-8" standalone="no"?>
<!DOCTYPE svg PUBLIC "-//W3C//DTD SVG 1.1//EN"
"http://www.w3.org/Graphics/SVG/1.1/DTD/svg11.dtd">
<svg viewBox="0 0 909 1147" version="1.1" xmlns="http://www.w3.org/2000/svg" xmlns:xlink="http://www.w3.org/1999/xlink">
<defs>
<style type="text/css"><![CDATA[
.g0_103{
fill: #B6D774;
}
.g1_103{
fill: none;
stroke: #8ED8F8;
stroke-width: 0.763;
stroke-miterlimit: 2;
}
.g2_103{
fill: #000;
}
.g3_103{
fill: none;
stroke: #000;
stroke-width: 1.527;
stroke-miterlimit: 2;
}
.g4_103{
fill: none;
stroke: #ABE1FA;
stroke-width: 0.763;
stroke-miterlimit: 10;
}
.g5_103{
fill: none;
stroke: #000;
stroke-width: 1.527;
}
]]></style>
</defs>
<path d="M835.8,1131h73.6v-51.5H835.8V1131Z" class="g0_103"/>
<path d="M0,138.7H123.4V0H0V138.7Z" class="g0_103"/>
<path d="M557.8,391.5H830.6m-272.8,13H830.6m-272.8,13H830.6m-272.8,13H830.6M557.8,443.4H830.6m-272.8,13H830.6m-272.8,13H830.6m-272.8,13H830.6m-272.8,13H830.6m-272.8,0V391.5m13,103.9V391.5m13,103.9V391.5m13,103.9V391.5m12.9,103.9V391.5m13,103.9V391.5m13,103.9V391.5m13,103.9V391.5m13,103.9V391.5m13,103.9V391.5m13,103.9V391.5m13,103.9V391.5m13,103.9V391.5m13,103.9V391.5m13,103.9V391.5m13,103.9V391.5m12.9,103.9V391.5m13,103.9V391.5m13,103.9V391.5m13,103.9V391.5m13,103.9V391.5m13,103.9V391.5" class="g1_103"/>
<path d="M603.6,456.3v.4h-5.2v-.4h.4c.5,0,.9,-.1,1.1,-.4c.2,-.2,.2,-.6,.2,-1.4v-7.8c0,-.6,0,-1,-.1,-1.2c0,-.2,-.2,-.3,-.3,-.4c-.3,-.2,-.6,-.2,-.9,-.2h-.4v-.4h5.2v.4h-.4c-.5,0,-.9,.1,-1.1,.4c-.2,.2,-.2,.7,-.2,1.4v7.8c0,.6,0,1,.1,1.2c0,.2,.2,.3,.3,.4c.3,.2,.6,.2,.9,.2Z" class="g2_103"/>
<path d="M668.1,456.3v.4h-5.2v-.4h.4c.5,0,.9,-.1,1.1,-.4c.2,-.2,.2,-.6,.2,-1.4v-7.8c0,-.6,0,-1,-.1,-1.2c0,-.2,-.2,-.3,-.3,-.4c-.3,-.2,-.6,-.2,-.9,-.2h-.4v-.4h5.2v.4h-.4c-.5,0,-.9,.1,-1.1,.4c-.2,.2,-.2,.7,-.2,1.4v7.8c0,.6,0,1,.1,1.2c0,.2,.2,.3,.3,.4c.3,.2,.6,.2,.9,.2Z" class="g2_103"/>
<path d="M674.2,456.3v.4H669v-.4h.4c.5,0,.9,-.1,1.1,-.4c.2,-.2,.2,-.6,.2,-1.4v-7.8c0,-.6,0,-1,-.1,-1.2c0,-.2,-.2,-.3,-.3,-.4c-.3,-.2,-.6,-.2,-.9,-.2H669v-.4h5.2v.4h-.4c-.5,0,-.9,.1,-1.1,.4c-.2,.2,-.2,.7,-.2,1.4v7.8c0,.6,0,1,.1,1.2c0,.2,.2,.3,.4,.4c.2,.2,.5,.2,.8,.2Z" class="g2_103"/>
<path d="M713.7,456.3v.4h-5.2v-.4h.4c.5,0,.9,-.1,1.1,-.4c.2,-.2,.2,-.6,.2,-1.4v-7.8c0,-.6,0,-1,-.1,-1.2c0,-.2,-.2,-.3,-.3,-.4c-.3,-.2,-.6,-.2,-.9,-.2h-.4v-.4h5.2v.4h-.4c-.5,0,-.9,.1,-1.1,.4c-.2,.2,-.2,.7,-.2,1.4v7.8c0,.6,0,1,.1,1.2c0,.2,.2,.3,.4,.4c.2,.2,.5,.2,.8,.2Z" class="g2_103"/>
<path d="M719.8,456.3v.4h-5.2v-.4h.4c.5,0,.9,-.1,1.1,-.4c.2,-.2,.3,-.6,.3,-1.4v-7.8c0,-.6,-.1,-1,-.2,-1.2c0,-.2,-.1,-.3,-.3,-.4c-.3,-.2,-.6,-.2,-.9,-.2h-.4v-.4h5.2v.4h-.4c-.5,0,-.9,.1,-1.1,.4c-.2,.2,-.2,.7,-.2,1.4v7.8c0,.6,0,1,.1,1.2c0,.2,.2,.3,.4,.4c.2,.2,.5,.2,.8,.2Z" class="g2_103"/>
<path d="M725.9,456.3v.4h-5.2v-.4h.4c.5,0,.9,-.1,1.1,-.4c.2,-.2,.3,-.6,.3,-1.4v-7.8c0,-.6,-.1,-1,-.2,-1.2c0,-.2,-.1,-.3,-.3,-.4c-.3,-.2,-.6,-.2,-.9,-.2h-.4v-.4h5.2v.4h-.4c-.5,0,-.9,.1,-1.1,.4c-.2,.2,-.2,.7,-.2,1.4v7.8c0,.6,0,1,.1,1.2c.1,.2,.2,.3,.4,.4c.2,.2,.5,.2,.8,.2Z" class="g2_103"/>
<path d="M795.6,456.3v.4h-5.2v-.4h.4c.5,0,.9,-.1,1.1,-.4c.1,-.2,.2,-.6,.2,-1.4v-7.8c0,-.6,0,-1,-.1,-1.2c-.1,-.2,-.2,-.3,-.4,-.4c-.3,-.2,-.5,-.2,-.8,-.2h-.4v-.4h5.2v.4h-.5c-.5,0,-.8,.1,-1.1,.4c-.1,.2,-.2,.7,-.2,1.4v7.8c0,.6,.1,1,.1,1.2c.1,.2,.2,.3,.4,.4c.3,.2,.5,.2,.8,.2Z" class="g2_103"/>
<path d="M809,444.5v.4c-.4,0,-.7,.2,-1,.4c-.3,.3,-.6,.7,-.8,1.3L803,457h-.4l-4.5,-10.5c-.2,-.5,-.4,-.9,-.5,-1c-.2,-.2,-.3,-.3,-.6,-.4c-.2,-.1,-.5,-.2,-.8,-.2v-.4h4.9v.4c-.5,0,-.9,.1,-1.1,.3c-.1,.1,-.2,.3,-.2,.5c0,.3,.1,.7,.4,1.4l3.1,7.1l2.8,-7c.3,-.7,.5,-1.2,.5,-1.5c0,-.1,-.1,-.3,-.3,-.5c-.2,-.1,-.5,-.2,-.9,-.3h-.1v-.4Z" class="g2_103"/>
<path d="M571,482.9h39l26.2,-78.7h-39L571,482.9Zm51.8,0h65.3V404.2l-65.3,78.7Zm78.7,0V404.8l51.6,51.6l-51.6,26.5ZM817.9,404.4l-.4,78.5L765.7,443.3V418.2l52.2,-13.8ZM628.1,1027.8H758V923.1H671.8l-43.7,104.7Z" class="g3_103"/>
<path d="M681.8,1040c.3,-.8,.7,-1.4,1.3,-1.9c.5,-.4,1.2,-.7,1.9,-.7c1,0,1.8,.4,2.3,1c.4,.5,.6,1,.6,1.5c0,.9,-.6,1.8,-1.7,2.7c.7,.3,1.3,.8,1.7,1.3c.4,.5,.6,1.2,.6,1.9c0,1.1,-.4,2,-1,2.7c-.9,1,-2.2,1.5,-3.8,1.5c-.8,0,-1.4,-.1,-1.7,-.3c-.3,-.2,-.4,-.4,-.4,-.6c0,-.2,0,-.3,.2,-.5c.1,-.1,.3,-.2,.5,-.2c.1,0,.3,.1,.4,.1c.1,0,.4,.1,.7,.3c.4,.2,.6,.3,.8,.4c.2,0,.4,.1,.7,.1c.6,0,1.1,-.3,1.6,-.7c.4,-.5,.6,-1.1,.6,-1.7c0,-.5,-.1,-.9,-.3,-1.4c-.1,-.3,-.3,-.6,-.5,-.8c-.2,-.2,-.6,-.4,-1,-.6c-.5,-.2,-.9,-.3,-1.4,-.3h-.3v-.3c.5,0,.9,-.2,1.4,-.5c.5,-.3,.8,-.6,1.1,-1c.2,-.4,.3,-.8,.3,-1.3c0,-.6,-.2,-1.1,-.6,-1.5c-.4,-.4,-.9,-.5,-1.4,-.5c-1,0,-1.7,.5,-2.4,1.4Z" class="g2_103"/>
<path d="M690.7,1043.8c0,-1.4,.2,-2.5,.6,-3.5c.4,-1,.9,-1.8,1.6,-2.3c.6,-.4,1.1,-.6,1.7,-.6c.9,0,1.8,.5,2.5,1.5c.9,1.1,1.4,2.7,1.4,4.7c0,1.5,-.2,2.7,-.6,3.6c-.4,1,-.9,1.7,-1.6,2.2c-.6,.4,-1.2,.6,-1.8,.6c-1.1,0,-2.1,-.6,-2.9,-2c-.6,-1.2,-.9,-2.5,-.9,-4.2m1.7,.3c0,1.6,.2,3,.6,4c.4,.9,.9,1.4,1.5,1.4c.4,0,.7,-.2,1,-.5c.4,-.2,.7,-.7,.8,-1.4c.3,-1,.4,-2.5,.4,-4.3c0,-1.4,-.1,-2.6,-.4,-3.5c-.2,-.7,-.5,-1.2,-.8,-1.5c-.3,-.2,-.6,-.3,-.9,-.3c-.4,0,-.8,.2,-1.1,.6c-.4,.5,-.7,1.3,-.9,2.3c-.1,1.1,-.2,2.1,-.2,3.2Z" class="g2_103"/>
<path d="M706.7,1043.1c.6,-.6,1,-.9,1.1,-1c.3,-.2,.6,-.4,.9,-.5c.3,-.1,.6,-.2,.9,-.2c.5,0,.9,.1,1.3,.4c.4,.3,.6,.8,.8,1.3c.6,-.7,1.1,-1.2,1.5,-1.4c.4,-.2,.9,-.3,1.3,-.3c.5,0,.8,.1,1.2,.3c.3,.2,.6,.6,.8,1.1c.1,.4,.2,.9,.2,1.7v3.5c0,.5,0,.8,.1,1c.1,.2,.2,.3,.3,.4c.2,.1,.5,.1,.8,.1v.3h-4v-.3h.1c.4,0,.7,-.1,.9,-.2c.1,-.1,.2,-.2,.3,-.5c0,-.1,0,-.3,0,-.8v-3.5c0,-.7,-.1,-1.2,-.2,-1.5c-.3,-.3,-.6,-.5,-1.2,-.5c-.3,0,-.6,0,-.9,.2c-.3,.2,-.7,.5,-1.2,.9v4.4c0,.5,.1,.9,.1,1c.1,.2,.2,.3,.4,.4c.1,.1,.4,.1,.9,.1v.3h-4.2v-.3c.5,0,.8,0,.9,-.2c.2,-.1,.3,-.2,.4,-.4c0,-.1,0,-.4,0,-.9v-3.5c0,-.7,-.1,-1.2,-.2,-1.5c-.3,-.4,-.7,-.6,-1.1,-.6c-.4,0,-.7,.1,-1,.3c-.5,.3,-.9,.6,-1.2,.9v4.4c0,.5,.1,.9,.2,1c0,.2,.1,.3,.3,.4c.1,.1,.4,.1,.9,.1v.3H704v-.3c.4,0,.7,0,.8,-.1c.2,-.1,.3,-.2,.4,-.4c0,-.2,.1,-.5,.1,-1v-3.2c0,-.9,-.1,-1.4,-.1,-1.7c-.1,-.2,-.1,-.3,-.2,-.4c-.1,-.1,-.2,-.1,-.4,-.1c-.1,0,-.3,0,-.6,.1l-.1,-.3l2.5,-1h.3Z" class="g2_103"/>
<path d="M774.8,978.1l-.8,2.4h-7.2v-.4c2.1,-1.9,3.6,-3.4,4.5,-4.7c.8,-1.2,1.3,-2.3,1.3,-3.3c0,-.8,-.3,-1.4,-.7,-1.9c-.5,-.5,-1.1,-.7,-1.7,-.7c-.6,0,-1.2,.1,-1.6,.5c-.5,.3,-.9,.8,-1.1,1.5h-.3c.1,-1.1,.5,-1.9,1.1,-2.5c.6,-.6,1.4,-.9,2.3,-.9c1,0,1.8,.3,2.5,.9c.7,.7,1,1.4,1,2.3c0,.6,-.2,1.2,-.4,1.8c-.5,1,-1.2,2,-2.2,3.1c-1.5,1.6,-2.4,2.6,-2.8,2.9h3.2c.6,0,1.1,0,1.4,0c.2,-.1,.5,-.2,.7,-.3c.2,-.2,.3,-.4,.5,-.7Z" class="g2_103"/>
<path d="M784.1,976v1.3h-1.6v3.2H781v-3.2h-5.1v-1.2l5.6,-8h1V976Zm-3.1,0v-6l-4.2,6Z" class="g2_103"/>
<path d="M792.4,973.8c.6,-.6,.9,-1,1,-1c.3,-.3,.6,-.4,.9,-.6c.3,-.1,.6,-.2,.9,-.2c.5,0,1,.2,1.3,.5c.4,.3,.6,.7,.8,1.3c.6,-.7,1.1,-1.2,1.5,-1.4c.4,-.3,.9,-.4,1.3,-.4c.5,0,.9,.1,1.2,.4c.3,.2,.6,.6,.8,1.1c.1,.3,.2,.9,.2,1.6v3.5c0,.5,0,.9,.1,1.1c.1,.1,.2,.2,.3,.3c.2,.1,.5,.2,.8,.2v.3h-4v-.3h.1c.4,0,.7,-.1,.9,-.2c.1,-.1,.2,-.3,.3,-.5c0,-.1,0,-.4,0,-.9v-3.5c0,-.7,-.1,-1.1,-.2,-1.4c-.3,-.4,-.6,-.6,-1.2,-.6c-.3,0,-.6,.1,-.9,.2c-.3,.2,-.7,.5,-1.2,.9v4.4c0,.6,.1,.9,.1,1.1c.1,.1,.2,.2,.4,.3c.2,.1,.4,.2,.9,.2v.3h-4.2v-.3c.5,0,.8,-.1,1,-.2c.1,-.1,.2,-.3,.3,-.5c0,-.1,.1,-.4,.1,-.9v-3.5c0,-.7,-.1,-1.2,-.3,-1.4c-.3,-.4,-.7,-.6,-1.1,-.6c-.4,0,-.7,.1,-1,.2c-.5,.3,-.9,.6,-1.1,.9v4.4c0,.6,0,.9,.1,1.1c0,.1,.2,.3,.3,.3c.1,.1,.4,.2,.9,.2v.3h-4.1v-.3c.4,0,.7,-.1,.8,-.2c.2,0,.3,-.2,.4,-.3c0,-.2,.1,-.6,.1,-1.1v-3.1c0,-.9,-.1,-1.5,-.1,-1.8c0,-.2,-.1,-.3,-.2,-.4c-.1,0,-.2,-.1,-.4,-.1c-.1,0,-.3,.1,-.6,.2l-.1,-.4l2.5,-1h.4Z" class="g2_103"/>
<path d="M702.2,912.9l-.9,2.3h-7.2v-.3c2.2,-1.9,3.6,-3.5,4.5,-4.7c.9,-1.3,1.3,-2.4,1.3,-3.4c0,-.7,-.3,-1.4,-.7,-1.9c-.5,-.5,-1.1,-.7,-1.7,-.7c-.6,0,-1.1,.2,-1.6,.5c-.5,.4,-.8,.9,-1.1,1.5h-.3c.1,-1.1,.5,-1.9,1.1,-2.5c.7,-.6,1.4,-.9,2.4,-.9c.9,0,1.8,.3,2.4,1c.7,.6,1,1.3,1,2.2c0,.6,-.1,1.2,-.4,1.8c-.5,1,-1.2,2,-2.2,3.1c-1.4,1.6,-2.4,2.6,-2.7,3h3.1c.7,0,1.1,-.1,1.4,-.1c.2,-.1,.5,-.2,.7,-.3c.2,-.2,.4,-.4,.5,-.6Z" class="g2_103"/>
<path d="M703.6,909.2c0,-1.4,.2,-2.6,.6,-3.6c.4,-1,1,-1.7,1.7,-2.2c.5,-.4,1.1,-.6,1.6,-.6c1,0,1.8,.5,2.5,1.4c1,1.2,1.4,2.8,1.4,4.8c0,1.4,-.2,2.6,-.6,3.6c-.4,1,-.9,1.7,-1.5,2.2c-.7,.4,-1.3,.6,-1.9,.6c-1.1,0,-2.1,-.7,-2.8,-2c-.7,-1.2,-1,-2.6,-1,-4.2m1.7,.2c0,1.7,.2,3.1,.7,4.1c.3,.9,.8,1.4,1.5,1.4c.3,0,.6,-.2,1,-.5c.3,-.3,.6,-.8,.8,-1.4c.2,-1.1,.4,-2.5,.4,-4.4c0,-1.4,-.2,-2.5,-.5,-3.4c-.2,-.7,-.4,-1.2,-.8,-1.5c-.2,-.2,-.5,-.3,-.9,-.3c-.4,0,-.7,.2,-1.1,.6c-.4,.4,-.7,1.2,-.8,2.3c-.2,1.1,-.3,2.1,-.3,3.1Z" class="g2_103"/>
<path d="M719.7,908.5c.6,-.6,.9,-.9,1,-1c.3,-.2,.6,-.4,.9,-.5c.3,-.2,.6,-.2,.9,-.2c.5,0,1,.1,1.3,.4c.4,.3,.7,.7,.8,1.3c.6,-.7,1.1,-1.2,1.5,-1.4c.5,-.2,.9,-.3,1.4,-.3c.4,0,.8,.1,1.1,.3c.4,.2,.6,.6,.8,1.1c.1,.3,.2,.9,.2,1.6v3.6c0,.5,.1,.8,.1,1c.1,.1,.2,.3,.4,.3c.1,.1,.4,.2,.7,.2v.3h-4v-.3h.2c.3,0,.6,-.1,.8,-.2c.1,-.1,.2,-.3,.3,-.5c0,-.1,0,-.4,0,-.8v-3.6c0,-.6,-.1,-1.1,-.2,-1.4c-.2,-.4,-.6,-.6,-1.1,-.6c-.4,0,-.7,.1,-1,.3c-.3,.1,-.7,.4,-1.1,.9l-.1,.1l.1,.3v4c0,.5,0,.9,0,1c.1,.1,.2,.3,.4,.3c.2,.1,.5,.2,.9,.2v.3h-4.2v-.3c.5,0,.8,-.1,1,-.2c.1,-.1,.3,-.2,.3,-.5c.1,-.1,.1,-.4,.1,-.8v-3.6c0,-.6,-.1,-1.1,-.3,-1.4c-.3,-.4,-.6,-.6,-1.1,-.6c-.3,0,-.7,.1,-1,.3c-.5,.2,-.9,.5,-1.1,.9v4.4c0,.5,0,.8,.1,1c.1,.2,.2,.3,.3,.4c.2,0,.5,.1,.9,.1v.3h-4v-.3c.3,0,.6,-.1,.7,-.1c.2,-.1,.3,-.2,.4,-.4c.1,-.2,.1,-.5,.1,-1v-3.2c0,-.9,0,-1.5,-.1,-1.7c0,-.2,-.1,-.4,-.2,-.4c-.1,-.1,-.2,-.1,-.3,-.1c-.2,0,-.4,0,-.6,.1l-.2,-.3l2.5,-1h.4Z" class="g2_103"/>
<path d="M609.9,974.1l-.9,2.3h-7.1v-.3c2.1,-2,3.6,-3.5,4.4,-4.7c.9,-1.3,1.3,-2.4,1.3,-3.4c0,-.7,-.2,-1.4,-.7,-1.9c-.5,-.5,-1,-.7,-1.7,-.7c-.6,0,-1.1,.2,-1.6,.5c-.5,.4,-.8,.9,-1,1.5h-.4c.2,-1.1,.6,-1.9,1.2,-2.5c.6,-.6,1.4,-.9,2.3,-.9c1,0,1.8,.3,2.5,1c.6,.6,1,1.3,1,2.2c0,.6,-.2,1.2,-.5,1.8c-.4,1,-1.1,2,-2.1,3.1c-1.5,1.6,-2.4,2.6,-2.8,2.9H607c.6,0,1.1,0,1.3,0c.3,-.1,.5,-.2,.7,-.3c.2,-.2,.4,-.4,.6,-.6Z" class="g2_103"/>
<path d="M618.9,964v.3c-.8,.1,-1.5,.3,-2,.5c-.5,.2,-.9,.6,-1.4,1.1c-.5,.5,-.9,1,-1.2,1.6c-.4,.6,-.6,1.3,-.8,2.1c.8,-.6,1.7,-.9,2.5,-.9c.9,0,1.6,.4,2.2,1c.6,.7,.9,1.6,.9,2.6c0,1,-.3,2,-.9,2.8c-.7,1,-1.7,1.5,-2.9,1.5c-.9,0,-1.6,-.3,-2.2,-.8c-1.1,-1.1,-1.7,-2.5,-1.7,-4.2c0,-1,.3,-2.1,.7,-3.1c.4,-.9,1.1,-1.8,1.9,-2.6c.8,-.7,1.6,-1.2,2.3,-1.5c.7,-.3,1.4,-.4,2.1,-.4Zm-5.6,6.3c-.1,.8,-.2,1.4,-.2,1.9c0,.6,.2,1.2,.4,1.9c.2,.7,.5,1.2,.9,1.6c.3,.3,.7,.4,1.1,.4c.5,0,1,-.2,1.4,-.7c.4,-.5,.6,-1.2,.6,-2.1c0,-1,-.2,-1.9,-.6,-2.7c-.4,-.7,-1,-1.1,-1.7,-1.1c-.2,0,-.5,.1,-.7,.2c-.3,.1,-.7,.3,-1.2,.6Z" class="g2_103"/>
<path d="M627.4,969.7c.6,-.6,1,-.9,1.1,-1c.2,-.3,.5,-.4,.8,-.6c.4,-.1,.7,-.1,1,-.1c.5,0,.9,.1,1.3,.4c.4,.3,.6,.7,.7,1.3c.6,-.7,1.2,-1.2,1.6,-1.4c.4,-.2,.8,-.3,1.3,-.3c.4,0,.8,.1,1.2,.3c.3,.2,.6,.6,.8,1.1c.1,.3,.2,.9,.2,1.6v3.5c0,.6,0,.9,.1,1.1c0,.1,.1,.2,.3,.3c.2,.1,.4,.2,.8,.2v.3h-4.1v-.3h.2c.4,0,.6,-.1,.8,-.2c.2,-.1,.3,-.3,.3,-.5c.1,-.1,.1,-.4,.1,-.9V971c0,-.7,-.1,-1.1,-.3,-1.4c-.2,-.4,-.6,-.6,-1.1,-.6c-.3,0,-.6,.1,-.9,.3c-.4,.1,-.8,.4,-1.2,.9v4.3c0,.6,0,1,.1,1.1c.1,.1,.2,.2,.3,.3c.2,.1,.5,.2,.9,.2v.3h-4.1v-.3c.4,0,.7,-.1,.9,-.2c.2,-.1,.3,-.3,.4,-.5c0,-.1,0,-.4,0,-.9V971c0,-.7,-.1,-1.1,-.3,-1.4c-.2,-.4,-.6,-.6,-1.1,-.6c-.3,0,-.6,.1,-.9,.3c-.5,.2,-.9,.5,-1.2,.9v4.3c0,.6,.1,.9,.1,1.1c.1,.2,.2,.3,.4,.4c.1,0,.4,.1,.9,.1v.3h-4.1v-.3c.4,0,.6,-.1,.8,-.1c.1,-.1,.2,-.3,.3,-.4c.1,-.2,.1,-.5,.1,-1.1v-3.1c0,-.9,0,-1.5,0,-1.7c-.1,-.2,-.2,-.4,-.2,-.4c-.1,-.1,-.2,-.2,-.4,-.2c-.2,0,-.4,.1,-.6,.2l-.1,-.3l2.4,-1h.4Z" class="g2_103"/>
<path d="M295.5,852.4h17.7m-17.3,17V852.8m17.3,-.4h17.4m-17.4,17V852.8m17.4,-.4h17.3m-17.3,17V852.8m17.3,-.4h17.3m-17.3,17V852.8m17.3,-.4h17.3m-17.3,17V852.8m17.3,-.4h17.4m-17.4,17V852.8m17.4,-.4h17.3m-17.3,17V852.8m17.3,-.4h17.3m-17.3,17V852.8m17.3,-.4h17.3m-17.3,17V852.8m17.3,-.4h17.7m-17.7,17V852.8m17.3,16.6V852.8m-173.6,17h17.7m-17.3,16.9V870.2m17.3,-.4h17.4m-17.4,16.9V870.2m17.4,-.4h17.3m-17.3,16.9V870.2m17.3,-.4h17.3m-17.3,16.9V870.2m17.3,-.4h17.3m-17.3,16.9V870.2m17.3,-.4h17.4m-17.4,16.9V870.2m17.4,-.4h17.3m-17.3,16.9V870.2m17.3,-.4h17.3m-17.3,16.9V870.2m17.3,-.4h17.3m-17.3,16.9V870.2m17.3,-.4h17.7m-17.7,16.9V870.2m17.3,16.5V870.2M295.5,887.1h17.7M295.9,904V887.5m17.3,-.4h17.4M313.2,904V887.5m17.4,-.4h17.3M330.6,904V887.5m17.3,-.4h17.3M347.9,904V887.5m17.3,-.4h17.3M365.2,904V887.5m17.3,-.4h17.4M382.5,904V887.5m17.4,-.4h17.3M399.9,904V887.5m17.3,-.4h17.3M417.2,904V887.5m17.3,-.4h17.3M434.5,904V887.5m17.3,-.4h17.7M451.8,904V887.5M469.1,904V887.5M295.5,904.4h17.7m-17.3,17V904.8m17.3,-.4h17.4m-17.4,17V904.8m17.4,-.4h17.3m-17.3,17V904.8m17.3,-.4h17.3m-17.3,17V904.8m17.3,-.4h17.3m-17.3,17V904.8m17.3,-.4h17.4m-17.4,17V904.8m17.4,-.4h17.3m-17.3,17V904.8m17.3,-.4h17.3m-17.3,17V904.8m17.3,-.4h17.3m-17.3,17V904.8m17.3,-.4h17.7m-17.7,17V904.8m17.3,16.6V904.8M295.5,921.7h17.7m-17.3,17V922.1m17.3,-.4h17.4m-17.4,17V922.1m17.4,-.4h17.3m-17.3,17V922.1m17.3,-.4h17.3m-17.3,17V922.1m17.3,-.4h17.3m-17.3,17V922.1m17.3,-.4h17.4m-17.4,17V922.1m17.4,-.4h17.3m-17.3,17V922.1m17.3,-.4h17.3m-17.3,17V922.1m17.3,-.4h17.3m-17.3,17V922.1m17.3,-.4h17.7m-17.7,17V922.1m17.3,16.6V922.1m-173.6,17h17.7M295.9,956V939.4m17.3,-.3h17.4M313.2,956V939.4m17.4,-.3h17.3M330.6,956V939.4m17.3,-.3h17.3M347.9,956V939.4m17.3,-.3h17.3M365.2,956V939.4m17.3,-.3h17.4M382.5,956V939.4m17.4,-.3h17.3M399.9,956V939.4m17.3,-.3h17.3M417.2,956V939.4m17.3,-.3h17.3M434.5,956V939.4m17.3,-.3h17.7M451.8,956V939.4M469.1,956V939.4m-173.6,17h17.7m-17.3,16.9V956.8m17.3,-.4h17.4m-17.4,16.9V956.8m17.4,-.4h17.3m-17.3,16.9V956.8m17.3,-.4h17.3m-17.3,16.9V956.8m17.3,-.4h17.3m-17.3,16.9V956.8m17.3,-.4h17.4m-17.4,16.9V956.8m17.4,-.4h17.3m-17.3,16.9V956.8m17.3,-.4h17.3m-17.3,16.9V956.8m17.3,-.4h17.3m-17.3,16.9V956.8m17.3,-.4h17.7m-17.7,16.9V956.8m17.3,16.5V956.8M295.5,973.7h17.7m-17.3,16.9V974.1m17.3,-.4h17.4m-17.4,16.9V974.1m17.4,-.4h17.3m-17.3,16.9V974.1m17.3,-.4h17.3m-17.3,16.9V974.1m17.3,-.4h17.3m-17.3,16.9V974.1m17.3,-.4h17.4m-17.4,16.9V974.1m17.4,-.4h17.3m-17.3,16.9V974.1m17.3,-.4h17.3m-17.3,16.9V974.1m17.3,-.4h17.3m-17.3,16.9V974.1m17.3,-.4h17.7m-17.7,16.9V974.1m17.3,16.5V974.1M295.5,991h17.7m0,0h17.4m0,0h17.3m0,0h17.3m0,0h17.3m0,0h17.4m0,0h17.3m0,0h17.3m0,0h17.3m0,0h17.7" class="g4_103"/>
<path d="M347.9,973.4L451.8,921.7m.2,.3L382.6,870.6m.2,-.4l-69.6,51.3m0,-.2l35.1,52.2" class="g5_103"/>
</svg>