<?xml version="1.0" encoding="UTF-8" standalone="no"?>
<!DOCTYPE svg PUBLIC "-//W3C//DTD SVG 1.1//EN"
"http://www.w3.org/Graphics/SVG/1.1/DTD/svg11.dtd">
<svg viewBox="0 0 909 1147" version="1.1" xmlns="http://www.w3.org/2000/svg" xmlns:xlink="http://www.w3.org/1999/xlink">
<defs>
<clipPath id="c0_32"><path d="M127.4,322.1c-.3,0,-.7,-.1,-.9,-.2q-.1,0,-.1,0c-4,-1.2,-7.7,-3.3,-11,-5.3c-.5,-.2,-1.1,-.4,-1.7,-.6c-.1,-.2,-.2,-.4,-.3,-.6h-.6c-.1,-.2,-.2,-.4,-.3,-.6h-.6c-.1,-.2,-.2,-.4,-.3,-.5c-.6,-.2,-1.2,-.4,-1.8,-.6c-.1,-.2,-.2,-.4,-.3,-.6c-.3,-.1,-.7,-.2,-1.1,-.3c-.1,-.2,-.2,-.4,-.3,-.6h-.6c-.1,-.2,-.2,-.4,-.3,-.6h-.6c-.1,-.2,-.2,-.4,-.3,-.6c-.4,-.1,-.8,-.2,-1.2,-.3v-.3c-.3,-.1,-.6,-.2,-.9,-.3c-.1,-.2,-.2,-.4,-.3,-.6h-.6c-.1,-.2,-.2,-.4,-.2,-.6c-.6,-.5,-1.2,-.9,-1.8,-1.4v-.6c-.3,-.2,-.6,-.4,-.9,-.6c-.3,-.5,0,-.7,-.6,-1.2c0,-.4,0,-.7,0,-1.1c0,-2.2,.2,-3.8,.9,-5.4v-.9c.2,-.1,.4,-.2,.6,-.3c.3,-.9,.6,-1.7,.9,-2.6c.2,-.1,.4,-.2,.6,-.3v-.9c.2,-.1,.3,-.2,.5,-.3v-.6h.3v-.6h.3v-.6h.3v-.6h.3v-.6c.2,-.1,.4,-.2,.6,-.3c.1,-.3,.2,-.7,.3,-1.1c.2,-.1,.4,-.2,.6,-.3v-.9c.2,-.1,.4,-.2,.6,-.3v-.6h.3v-.6h.3v-.6h.3V285h.3c.1,-.3,.2,-.6,.3,-.9c.2,-.1,.4,-.2,.6,-.3c.2,-.5,.4,-1.1,.5,-1.7c.2,-.1,.4,-.2,.6,-.3c.2,-.6,.4,-1.2,.6,-1.8c.2,-.1,.4,-.2,.6,-.3c.1,-.4,.2,-.8,.3,-1.2h.3c.1,-.3,.2,-.6,.3,-.9c.2,-.1,.4,-.2,.6,-.2c.1,-.4,.2,-.8,.3,-1.2h.3c.1,-.3,.2,-.6,.3,-.9c.2,-.1,.4,-.2,.6,-.3c.1,-.4,.2,-.8,.3,-1.2c.2,-.1,.4,-.2,.6,-.3c.2,-.6,.4,-1.2,.5,-1.8c.2,-.1,.4,-.2,.6,-.3c.1,-.3,.2,-.7,.3,-1.1c.2,-.1,.4,-.2,.6,-.3c.2,-.6,.4,-1.2,.6,-1.8h.3v-.6h.3c.2,-.6,.4,-1.2,.6,-1.8h.3c.1,-.6,.2,-1.1,.3,-1.7h.3v-.6h.3c.1,-.7,.2,-1.4,.3,-2.1h.3c.1,-.7,.2,-1.4,.3,-2.1h.3c.2,-.5,.3,-1.1,.5,-1.7h.3l.2,-.6c0,-.2,.1,-.4,.1,-.6c.2,-.1,.4,-.2,.6,-.3c.2,-.6,.4,-1.2,.6,-1.8c.2,-.1,.4,-.2,.6,-.3v-.6h.3v-.5c.2,-.1,.4,-.2,.6,-.3V252c1.4,-1.7,2.7,-3.4,4.1,-5.1c1,-.7,2.5,-.8,3.3,-1.7c0,0,.1,0,.1,0q.1,0,.2,0c2.7,0,5.1,.7,7.3,1.5c.5,.2,1,.4,1.5,.5c.7,.1,1.4,.2,2.1,.3v.3c.7,.1,1.4,.2,2.1,.3v.3h.5v.3c1,.2,2,.4,3,.6v.3h.6v.3h.9v.3c.4,.1,.8,.2,1.2,.3v.3h.8v.3h.6v.3h.9v.3c.6,.2,1.2,.4,1.8,.6v.3h.6v.3c.6,.1,1.2,.3,1.7,.5c.1,.2,.2,.4,.3,.6h.6c.3,.4,.6,.8,.9,1.2c.3,.1,.6,.2,.9,.3v.6c.3,.2,.6,.4,.9,.6v.6c.2,.1,.4,.2,.6,.3c.5,1.6,1,3.3,1.5,5v2.9h.3c-.1,1.9,-.2,3.8,-.3,5.7h-.3v.8c-1,1.3,-2,2.6,-3,3.9H160c-.2,.3,-.4,.6,-.6,.9c-.2,.1,-.4,.2,-.6,.3v.5c-.3,.2,-.6,.4,-.8,.6v.6c-.2,.1,-.4,.2,-.6,.3c-.2,.6,-.4,1.2,-.6,1.8c-.2,.1,-.4,.2,-.6,.3v.6c-.2,.1,-.4,.2,-.6,.3v.6h-.3v.9c-.2,0,-.4,.1,-.6,.2c-.2,.6,-.4,1.2,-.6,1.8c-.2,.1,-.4,.2,-.6,.3c-.1,.4,-.2,.8,-.3,1.2h-.3v.6h-.3v.6c-.2,.1,-.4,.2,-.5,.3v.6h-.3v.5h-.3v.6h-.3v.6c-.2,.1,-.4,.2,-.6,.3c-.2,.6,-.4,1.2,-.6,1.8c-.2,.1,-.4,.2,-.6,.3v.6h-.3v.6h-.3v.6h-.3v.6h-.3v.5h-.3c-.1,.4,-.2,.8,-.3,1.2c-.2,.1,-.4,.2,-.6,.3c-.2,.6,-.4,1.2,-.6,1.8c-.2,.1,-.4,.2,-.5,.3c-.2,.6,-.4,1.2,-.6,1.8H145c-.1,.3,-.2,.5,-.3,.8c-.2,.1,-.4,.2,-.6,.3v.6h-.3v.6h-.3v.6h-.3v.6h-.3v.6c-.2,.1,-.4,.2,-.6,.3c-.1,.4,-.2,.8,-.3,1.2c-.2,.1,-.4,.2,-.6,.3c-.2,.6,-.4,1.1,-.6,1.7c-.2,.1,-.4,.2,-.6,.3v.6h-.3v.6h-.2v.6h-.3v.6h-.3v.6h-.3c-.1,.3,-.2,.6,-.3,.9c-.2,.1,-.4,.2,-.6,.3v.6h-.3c-.1,.2,-.2,.5,-.3,.8c-.2,.1,-.4,.2,-.6,.3v.6c-.2,.1,-.4,.2,-.6,.3c-.1,.3,-.2,.6,-.3,.9h-.3c-.1,.4,-.2,.8,-.3,1.2c-.5,.4,-1,.8,-1.5,1.2c-.2,.4,-.5,.7,-.8,1.1q-.1,.1,-.1,.1h-.1c-.7,.4,-2.6,1,-4.3,1.2c-.3,0,-.7,.1,-.9,.1Z"/></clipPath>
<style type="text/css"><![CDATA[
.g0_32{
fill: #FAAF82;
}
.g1_32{
fill: #FFF;
}
.g2_32{
fill: none;
stroke: #0EA5DF;
stroke-width: 3.055;
}
.g3_32{
fill: #FFF6D2;
}
]]></style>
</defs>
<path d="M0,1131H73.8v-51.5H0V1131Z" class="g0_32"/>
<path fill-rule="evenodd" d="M578.2,771.4h7.3v-9h-7.3v9Z" class="g1_32"/>
<path d="M73.6,193.8H835.8M73.6,602.1H835.8M73.6,848H835.8" class="g2_32"/>
<path d="M0,141.1H120.6V0H0V141.1Z" class="g0_32"/>
<path d="M185.1,184.1h17.4V166.7H185.1v17.4Z" class="g3_32"/>
<image clip-path="url(#c0_32)" preserveAspectRatio="none" x="97" y="243" width="70" height="81" xlink:href="img/p1.jpg"/>
<path d="M73.6,361.4H835.8" class="g2_32"/>
</svg>
