<?xml version="1.0" encoding="UTF-8" standalone="no"?>
<!DOCTYPE svg PUBLIC "-//W3C//DTD SVG 1.1//EN"
"http://www.w3.org/Graphics/SVG/1.1/DTD/svg11.dtd">
<svg viewBox="0 0 909 1147" version="1.1" xmlns="http://www.w3.org/2000/svg" xmlns:xlink="http://www.w3.org/1999/xlink">
<defs>
<style type="text/css"><![CDATA[
.g0_115{
fill: #E7A9A1;
}
.g1_115{
fill: none;
stroke: #000;
stroke-width: 1.069;
stroke-miterlimit: 2;
}
.g2_115{
fill: none;
stroke: #000;
stroke-width: 1.069;
stroke-miterlimit: 2;
stroke-dasharray: 6,4;
}
.g3_115{
fill: none;
stroke: #0EA5DF;
stroke-width: 3.055;
}
.g4_115{
fill: #E8F1FA;
}
.g5_115{
fill: #FFF1E0;
}
.g6_115{
fill: #0EA5DF;
}
.g7_115{
fill: #000;
}
]]></style>
</defs>
<path d="M835.8,1131h73.6v-51.5H835.8V1131Z" class="g0_115"/>
<path d="M185.7,510.5h86.1V629.4H185.7V510.5Z" class="g1_115"/>
<path d="M301.4,600.8H215.2V482" class="g2_115"/>
<path d="M185.9,510.1l30.5,-29m-1.2,.9h86.2V600.8" class="g1_115"/>
<path d="M185.9,629.8l30.5,-29.1" class="g2_115"/>
<path d="M272.1,629.1L302.5,600M272.1,510.1l30.4,-29" class="g1_115"/>
<path d="M73.6,359H835.8" class="g3_115"/>
<path d="M183.7,1078.9H834.8V750H183.7v328.9Z" class="g4_115"/>
<path d="M72.5,750.8H835.8" class="g3_115"/>
<path d="M184.8,343.8h651V63.6h-651V343.8Z" class="g5_115"/>
<path d="M135.8,101.1h39.7V63.6H135.8v37.5Z" class="g6_115"/>
<path fill-rule="evenodd" d="M211.1,99.7l-.9,10c-.1,.5,-.1,.8,-.1,1c0,.2,0,.4,.1,.5c.1,.2,.3,.3,.5,.4c.2,.1,.5,.1,1,.1l-.1,.4h-4.8l.1,-.4h.2c.4,0,.7,0,.9,-.2c.2,-.1,.3,-.3,.4,-.6c.1,-.2,.2,-.6,.2,-1.3l.2,-1.5h-3.5l-1.2,1.6c-.3,.4,-.5,.7,-.6,.9c0,.1,-.1,.3,-.1,.4c0,.2,.1,.4,.3,.5c.1,.2,.4,.2,.7,.2l-.1,.4h-3.6l.1,-.4c.5,0,.9,-.1,1.2,-.4c.4,-.3,.9,-.9,1.5,-1.8l7.3,-9.8Zm-1.8,2.9l-3.5,4.8h3Z" class="g7_115"/>
<path fill-rule="evenodd" d="M217.8,154.7l-.9,10.1c-.1,.5,-.1,.8,-.1,.9c0,.3,0,.4,.1,.6c.2,.1,.3,.3,.5,.4c.2,0,.5,.1,1,.1l-.1,.3h-4.8l.1,-.3h.2c.4,0,.7,-.1,1,-.3c.1,-.1,.3,-.3,.4,-.5c0,-.2,.1,-.7,.1,-1.3l.2,-1.6H212l-1.2,1.7c-.3,.4,-.5,.6,-.5,.8c-.1,.2,-.2,.3,-.2,.5c0,.2,.1,.3,.3,.5c.1,.1,.4,.2,.7,.2l-.1,.3h-3.5l.1,-.3c.4,0,.8,-.2,1.1,-.5c.4,-.2,.9,-.8,1.5,-1.7l7.3,-9.9Zm-1.8,3l-3.5,4.8h3.1Z" class="g7_115"/>
<path fill-rule="evenodd" d="M345,155.3l.1,-.3h4.3c.7,0,1.4,.1,2,.3c.5,.2,1,.6,1.2,1c.3,.4,.5,.8,.5,1.3c0,.7,-.3,1.3,-.8,1.8c-.5,.6,-1.3,1,-2.5,1.3c.8,.3,1.3,.6,1.7,1.1c.3,.4,.5,.9,.5,1.5c0,.6,-.2,1.2,-.5,1.7c-.3,.6,-.7,1,-1.2,1.3c-.5,.3,-1.1,.5,-1.7,.7c-.5,.1,-1.3,.1,-2.3,.1h-4.5l.1,-.3c.5,0,.8,-.1,1,-.2c.2,-.1,.4,-.2,.5,-.4c.1,-.2,.3,-.7,.6,-1.5l2.1,-7.4c.2,-.6,.3,-1,.3,-1.3c0,-.2,-.1,-.4,-.2,-.5c-.2,-.1,-.5,-.2,-1,-.2c-.1,0,-.2,0,-.2,0m1.8,5c.4,.1,.6,.1,.8,.1c1.3,0,2.2,-.3,2.8,-.8c.6,-.6,.9,-1.3,.9,-2.1c0,-.6,-.2,-1.1,-.6,-1.4c-.3,-.4,-.9,-.5,-1.7,-.5c-.3,0,-.5,0,-.9,.1Zm-1.8,6c.7,.1,1.2,.1,1.5,.1c1,0,1.8,-.2,2.5,-.8c.7,-.6,1.1,-1.3,1.1,-2.3c0,-.7,-.2,-1.3,-.7,-1.7c-.4,-.4,-1.2,-.6,-2.1,-.6c-.2,0,-.5,0,-.7,0Z" class="g7_115"/>
<path fill-rule="evenodd" d="M376,137.9l-1,3.9h-.3v-.9c0,-.4,-.1,-.7,-.2,-1c-.1,-.3,-.3,-.5,-.5,-.7c-.2,-.2,-.5,-.4,-.8,-.5c-.3,-.1,-.7,-.2,-1.1,-.2c-1.1,0,-2,.3,-2.8,.9c-1,.7,-1.8,1.8,-2.4,3.2c-.5,1.1,-.7,2.2,-.7,3.4c0,1.1,.3,2.1,1,2.8c.7,.7,1.6,1,2.7,1c.8,0,1.5,-.2,2.2,-.5c.6,-.4,1.2,-1,1.8,-1.7h.4c-.6,1,-1.4,1.8,-2.2,2.3c-.8,.5,-1.7,.7,-2.8,.7c-1,0,-1.9,-.2,-2.7,-.6c-.7,-.4,-1.3,-1,-1.7,-1.8c-.4,-.7,-.6,-1.5,-.6,-2.4c0,-1.3,.3,-2.6,1.1,-3.9c.7,-1.2,1.6,-2.2,2.9,-2.9c1.2,-.7,2.5,-1.1,3.7,-1.1c.6,0,1.3,.2,2,.4c.3,.2,.6,.2,.7,.2c.1,0,.3,0,.4,-.1c.1,0,.3,-.2,.5,-.5Z" class="g7_115"/>
<path fill-rule="evenodd" d="M234.8,129.8l.1,-.3h3.9c1.7,0,2.9,.2,3.7,.5c.8,.4,1.4,1,1.9,1.8c.4,.8,.7,1.7,.7,2.6c0,.8,-.2,1.6,-.4,2.3c-.3,.8,-.6,1.4,-1,1.8c-.3,.5,-.8,1,-1.5,1.5c-.7,.6,-1.5,1,-2.3,1.2c-.9,.3,-1.9,.4,-3.2,.4h-5.1l.1,-.3c.5,0,.8,-.1,1,-.2c.2,-.1,.4,-.2,.5,-.4c.2,-.2,.4,-.7,.6,-1.5l2.1,-7.3c.2,-.6,.3,-1.1,.3,-1.4c0,-.2,-.1,-.4,-.3,-.5c-.1,-.1,-.4,-.2,-.9,-.2Zm3.2,.3l-2.6,9.1c-.2,.7,-.3,1.1,-.3,1.3c0,.1,0,.2,.1,.3c0,.1,.1,.1,.2,.1c.2,.1,.4,.1,.8,.1c.9,0,1.8,-.1,2.6,-.3c.8,-.2,1.5,-.4,2,-.8c.7,-.6,1.3,-1.4,1.7,-2.3c.5,-1,.7,-2.1,.7,-3.3c0,-1.4,-.4,-2.5,-1,-3.2c-.7,-.7,-1.7,-1,-3,-1c-.3,0,-.7,0,-1.2,0Z" class="g7_115"/>
<path fill-rule="evenodd" d="M342.6,110.3l.2,-.3h4.3c.7,0,1.4,.1,1.9,.3c.6,.3,1,.6,1.3,1c.3,.4,.4,.8,.4,1.3c0,.7,-.2,1.3,-.7,1.9c-.5,.5,-1.3,1,-2.5,1.2c.8,.3,1.3,.7,1.6,1.1c.4,.5,.6,1,.6,1.5c0,.6,-.2,1.2,-.5,1.7c-.3,.6,-.7,1,-1.2,1.3c-.5,.3,-1.1,.5,-1.8,.7c-.4,.1,-1.2,.1,-2.3,.1h-4.4l.1,-.3c.5,0,.8,-.1,1,-.1c.2,-.1,.4,-.3,.5,-.4c.1,-.3,.3,-.8,.5,-1.6l2.2,-7.3c.2,-.7,.3,-1.1,.3,-1.3c0,-.3,-.1,-.4,-.2,-.6c-.2,-.1,-.5,-.2,-1,-.2c-.1,0,-.2,0,-.3,0m1.8,5.1c.4,0,.7,0,.9,0c1.2,0,2.2,-.3,2.8,-.8c.6,-.6,.9,-1.2,.9,-2.1c0,-.6,-.2,-1,-.6,-1.4c-.4,-.3,-.9,-.5,-1.8,-.5c-.2,0,-.4,0,-.8,.1Zm-1.7,5.9c.6,.1,1.1,.2,1.5,.2c.9,0,1.8,-.3,2.5,-.9c.7,-.5,1.1,-1.3,1.1,-2.2c0,-.8,-.3,-1.4,-.7,-1.8c-.5,-.4,-1.2,-.6,-2.2,-.6c-.2,0,-.4,0,-.7,0Z" class="g7_115"/>
<path fill-rule="evenodd" d="M238.6,74.8l.1,-.4h3.8c1.7,0,2.9,.2,3.7,.6c.8,.4,1.4,1,1.9,1.8c.5,.8,.7,1.6,.7,2.6c0,.8,-.1,1.5,-.4,2.3c-.3,.7,-.6,1.3,-.9,1.8c-.4,.4,-.9,.9,-1.6,1.5c-.7,.5,-1.5,.9,-2.3,1.2c-.9,.2,-1.9,.4,-3.1,.4h-5.2l.1,-.4c.5,0,.8,0,1,-.1c.2,-.1,.4,-.2,.5,-.4c.2,-.3,.4,-.8,.6,-1.5l2.2,-7.4c.1,-.5,.2,-1,.2,-1.3c0,-.3,-.1,-.4,-.2,-.6c-.2,-.1,-.5,-.1,-.9,-.1Zm3.1,.3l-2.6,9.1c-.2,.7,-.3,1.1,-.3,1.2c0,.1,0,.2,.1,.3c.1,.1,.2,.2,.3,.2c.1,.1,.4,.1,.7,.1c1,0,1.8,-.1,2.6,-.3c.8,-.2,1.5,-.5,2,-.9c.7,-.5,1.3,-1.3,1.7,-2.3c.5,-.9,.7,-2,.7,-3.3c0,-1.4,-.3,-2.4,-1,-3.1c-.7,-.7,-1.7,-1,-2.9,-1c-.3,0,-.8,0,-1.3,0Z" class="g7_115"/>
<path fill-rule="evenodd" d="M376.3,78.2l-.9,3.9h-.3v-1c-.1,-.3,-.1,-.7,-.3,-.9c-.1,-.3,-.2,-.6,-.4,-.8c-.3,-.2,-.5,-.3,-.9,-.5c-.3,-.1,-.6,-.1,-1,-.1c-1.1,0,-2,.3,-2.8,.8c-1.1,.8,-1.9,1.8,-2.4,3.2c-.5,1.1,-.8,2.3,-.8,3.4c0,1.2,.4,2.1,1.1,2.8c.7,.7,1.5,1.1,2.6,1.1c.9,0,1.6,-.2,2.3,-.6c.6,-.3,1.2,-.9,1.8,-1.7h.4c-.7,1.1,-1.4,1.8,-2.2,2.3c-.8,.5,-1.8,.8,-2.9,.8c-1,0,-1.8,-.2,-2.6,-.7c-.8,-.4,-1.4,-1,-1.7,-1.7c-.4,-.8,-.7,-1.6,-.7,-2.4c0,-1.4,.4,-2.6,1.1,-3.9c.7,-1.3,1.7,-2.2,2.9,-3c1.3,-.7,2.5,-1,3.8,-1c.6,0,1.2,.1,2,.4c.3,.1,.5,.2,.7,.2c.1,0,.2,-.1,.3,-.1c.2,-.1,.3,-.2,.6,-.5Z" class="g7_115"/>
<path fill-rule="evenodd" d="M216.2,108.3l1.9,-1h.2v6.9c0,.4,.1,.7,.1,.8c0,.1,.1,.2,.2,.3c.2,0,.4,.1,.8,.1v.2h-3.1v-.2c.4,0,.6,-.1,.8,-.1c.1,-.1,.1,-.2,.2,-.3c0,-.1,.1,-.4,.1,-.8v-4.4c0,-.6,-.1,-1,-.1,-1.1c0,-.2,-.1,-.3,-.2,-.3c0,-.1,-.1,-.1,-.2,-.1c-.2,0,-.4,0,-.6,.2Z" class="g7_115"/>
<path fill-rule="evenodd" d="M353.1,118.4l2,-1h.2v6.8c0,.5,0,.8,0,.9c.1,.1,.2,.2,.3,.2c.1,.1,.3,.1,.7,.1v.3h-3v-.3c.3,0,.6,0,.7,-.1c.1,0,.2,-.1,.2,-.2c.1,-.1,.1,-.4,.1,-.9v-4.3c0,-.6,0,-1,-.1,-1.2c0,-.1,0,-.2,-.1,-.3c-.1,0,-.2,0,-.3,0c-.1,0,-.3,0,-.6,.1Z" class="g7_115"/>
<path fill-rule="evenodd" d="M252.4,82.8l2,-1h.2v6.8c0,.5,0,.8,0,.9c.1,.1,.2,.2,.3,.3c.1,0,.3,0,.7,.1v.2h-3v-.2c.4,-.1,.6,-.1,.7,-.1c.1,-.1,.2,-.2,.2,-.3c.1,-.1,.1,-.4,.1,-.9V84.3c0,-.6,0,-1,-.1,-1.2c0,-.1,0,-.2,-.1,-.2c-.1,-.1,-.2,-.1,-.3,-.1c-.1,0,-.3,0,-.6,.2Z" class="g7_115"/>
<path fill-rule="evenodd" d="M380,86.8l1.9,-1h.2v6.9c0,.4,.1,.7,.1,.8c0,.1,.1,.2,.2,.3c.1,0,.4,.1,.8,.1v.2h-3.1v-.2c.4,0,.6,-.1,.7,-.1c.2,-.1,.2,-.2,.3,-.2c0,-.1,0,-.4,0,-.9V88.3c0,-.6,0,-1,0,-1.1c0,-.2,-.1,-.2,-.2,-.3c0,-.1,-.1,-.1,-.2,-.1c-.2,0,-.4,.1,-.6,.2Z" class="g7_115"/>
<path d="M225.9,111.1H334.6v48H225.9v-48Zm.2,-.3L249.9,94.3m84.7,16.9L358.5,94.6m-24,64.6l23.9,-16.5" class="g1_115"/>
<path d="M225.8,159.2l23.9,-16.5" class="g2_115"/>
<path d="M358.4,94.5v48" class="g1_115"/>
<path d="M249.7,94.5v48H357.5" class="g2_115"/>
<path d="M249.7,94.5H358.4" class="g1_115"/>
</svg>