<?xml version="1.0" encoding="UTF-8" standalone="no"?>
<!DOCTYPE svg PUBLIC "-//W3C//DTD SVG 1.1//EN"
"http://www.w3.org/Graphics/SVG/1.1/DTD/svg11.dtd">
<svg viewBox="0 0 909 1147" version="1.1" xmlns="http://www.w3.org/2000/svg" xmlns:xlink="http://www.w3.org/1999/xlink">
<defs>
<clipPath id="c0_77"><path d="M570.3,292.5V77.3H835.4V292.5Z"/></clipPath>
<clipPath id="c1_77"><path d="M230.4,801.8v-130H501v130Z"/></clipPath>
<clipPath id="c2_77"><path d="M230.4,802V671.8H501V802Z"/></clipPath>
<clipPath id="c3_77"><path d="M549.1,1067.5V901.2H761.3v166.3Z"/></clipPath>
<style type="text/css"><![CDATA[
.g0_77{
fill: #B6D774;
}
.g1_77{
fill: none;
stroke: #000;
stroke-width: 0.677;
stroke-miterlimit: 2;
}
.g2_77{
fill: #000;
}
.g3_77{
fill: none;
stroke: #000;
stroke-width: 0.948;
stroke-miterlimit: 2;
}
.g4_77{
fill: none;
stroke: #000;
stroke-width: 0.677;
stroke-miterlimit: 2;
stroke-dasharray: 4,3;
}
.g5_77{
fill: none;
stroke: #000;
stroke-width: 0.948;
stroke-miterlimit: 2;
stroke-dasharray: 5,3;
}
.g6_77{
fill: none;
stroke: #0EA5DF;
stroke-width: 0.763;
}
.g7_77{
fill: none;
stroke: #0EA5DF;
stroke-width: 3.055;
}
.g8_77{
fill: #E8F1FA;
}
.g9_77{
fill: #FFF;
}
.ga_77{
fill: none;
stroke: #0EA5DF;
stroke-width: 0.45;
stroke-miterlimit: 2;
}
.gb_77{
fill: #FFF;
stroke: #0EA5DF;
stroke-width: 0.45;
stroke-miterlimit: 2;
}
.gc_77{
fill: none;
stroke: #000;
stroke-width: 0.63;
stroke-miterlimit: 2;
}
.gd_77{
fill: none;
stroke: #000;
stroke-width: 0.687;
stroke-miterlimit: 2;
}
.ge_77{
fill: none;
stroke: #000;
stroke-width: 0.687;
stroke-miterlimit: 2;
stroke-dasharray: 4,3;
}
.gf_77{
fill: none;
stroke: #000;
stroke-width: 0.763;
}
.gg_77{
fill: none;
stroke: #000;
stroke-width: 0.679;
stroke-miterlimit: 2;
}
.gh_77{
fill: none;
stroke: #000;
stroke-width: 0.679;
stroke-miterlimit: 2;
stroke-dasharray: 4,3;
}
.gi_77{
fill: #0EA5DF;
}
]]></style>
</defs>
<path d="M835.8,1131h73.6v-51.5H835.8V1131Z" class="g0_77"/>
<path d="M668.6,268.2c-.4,-6.5,-3,-7.4,-7.1,-8m93.2,-59.8c-5.4,-3.7,-7.7,-2.3,-10.7,.6" class="g1_77"/>
<path fill-rule="evenodd" d="M749.4,200.7c-.5,-.1,-.9,.1,-1.1,.5c-.2,.5,.1,1,.5,1.1c.4,.2,.9,0,1.1,-.5c.1,-.4,-.1,-.9,-.5,-1.1Z" class="g2_77"/>
<path fill-rule="evenodd" d="M665.1,264.3c-.2,-.5,-.6,-.7,-1.1,-.6c-.4,.2,-.6,.7,-.5,1.1c.1,.4,.6,.7,1.1,.5c.4,-.1,.6,-.6,.5,-1Z" class="g2_77"/>
<path d="M696.7,268.5L791.4,158M662.2,130.2l128.3,28.2M589.4,268.3H696.9" class="g3_77"/>
<path d="M788.2,158.1l41.1,9.1M679.5,268.3H825.3M715.4,287.1L827.6,156.2M680.8,287.1L807,139.9" class="g4_77"/>
<path d="M590.1,267.9L661.7,129.2" class="g3_77"/>
<path d="M661.4,130.1V268.9M662,130.7l88.4,74.9" class="g5_77"/>
<path clip-path="url(#c0_77)" d="M567.4,75H838.1V292.8H567.4V75Z" class="g1_77"/>
<path fill-rule="evenodd" d="M582.9,83.7l.2,3h-.2c-.3,-.9,-.7,-1.5,-1.2,-1.9c-.5,-.4,-1.1,-.6,-1.8,-.6c-.6,0,-1.1,.1,-1.6,.4c-.5,.3,-.9,.8,-1.2,1.5c-.2,.6,-.4,1.5,-.4,2.4c0,.9,.2,1.6,.4,2.2c.3,.6,.7,1,1.2,1.3c.5,.4,1.1,.5,1.8,.5c.6,0,1.1,-.1,1.5,-.4c.5,-.2,1,-.7,1.5,-1.4l.2,.1c-.4,.8,-1,1.4,-1.6,1.7c-.6,.4,-1.3,.6,-2.1,.6c-1.5,0,-2.6,-.5,-3.5,-1.7c-.6,-.8,-.9,-1.8,-.9,-2.9c0,-.9,.2,-1.7,.6,-2.4c.4,-.8,1,-1.4,1.7,-1.8c.7,-.4,1.5,-.6,2.3,-.6c.6,0,1.3,.1,1.9,.5c.2,.1,.3,.1,.4,.1c.1,0,.2,0,.3,-.1c.1,-.1,.2,-.3,.3,-.5Z" class="g2_77"/>
<path fill-rule="evenodd" d="M592.8,92.7v.2h-2.4c-.2,-.4,-.7,-1.2,-1.5,-2.3c-.9,-1.1,-1.3,-1.7,-1.5,-1.8c-.2,-.2,-.5,-.2,-.8,-.2v2.7c0,.5,.1,.9,.2,1.1c.2,.1,.5,.2,1.1,.3v.2H584v-.2c.6,-.1,.9,-.2,1.1,-.3c.1,-.2,.2,-.5,.2,-1.1V85.5c0,-.6,-.1,-.9,-.2,-1.1c-.2,-.2,-.5,-.2,-1.1,-.3v-.2h3.9v.2c-.6,.1,-.9,.1,-1.1,.3c-.1,.2,-.2,.5,-.2,1.1V88c.5,0,.8,0,1,-.1c.2,0,.4,-.2,.6,-.4c.2,-.2,.4,-.4,.6,-.7c.1,-.2,.3,-.6,.5,-1.2c.2,-.5,.3,-.9,.5,-1.1c.1,-.2,.3,-.3,.6,-.5c.2,-.1,.6,-.2,1,-.2c.6,0,1,.2,1,.7c0,.2,-.1,.3,-.2,.4c-.2,.2,-.3,.2,-.5,.2c-.1,0,-.3,0,-.6,-.2c-.3,-.1,-.4,-.2,-.5,-.2c-.2,0,-.3,.1,-.4,.2c-.1,.2,-.3,.6,-.5,1.2c-.4,1.1,-1,1.8,-1.6,2.1c.4,.1,.9,.7,1.7,1.7c.7,1.1,1.3,1.8,1.6,2.2c.4,.3,.8,.5,1.4,.6Z" class="g2_77"/>
<path fill-rule="evenodd" d="M599.8,85.4c0,-.6,-.1,-.9,-.3,-1.1c-.2,-.1,-.5,-.2,-1,-.2v-.2h3.8v.2c-.5,.1,-.9,.1,-1,.3c-.2,.2,-.3,.5,-.3,1.1v5.8c0,.5,.1,.9,.3,1.1c.1,.1,.5,.2,1,.3v.2h-3.8v-.2c.5,-.1,.9,-.2,1,-.3c.2,-.2,.3,-.6,.3,-1.1V86.1l-4.2,5.3c0,.4,0,.7,.1,.8c0,.1,.1,.3,.3,.3c.2,.1,.5,.1,.9,.2v.2H593v-.2c.6,-.1,1,-.2,1.1,-.3c.2,-.2,.2,-.6,.2,-1.1V85.5c0,-.6,0,-.9,-.2,-1.1c-.1,-.2,-.5,-.2,-1.1,-.3v-.2h3.9v.2c-.5,.1,-.9,.1,-1.1,.3c-.1,.2,-.2,.5,-.2,1.1v5.2Z" class="g2_77"/>
<path fill-rule="evenodd" d="M612.1,92.7v2.8h-.2c-.1,-.7,-.4,-1.3,-.9,-1.8c-.4,-.5,-1.1,-.8,-2.1,-.8h-6.1v-.2c.6,-.1,.9,-.2,1.1,-.3c.1,-.2,.2,-.6,.2,-1.1V85.5c0,-.6,-.1,-.9,-.2,-1.1c-.2,-.2,-.5,-.2,-1.1,-.3v-.2h3.9v.2c-.6,.1,-.9,.1,-1.1,.3c-.1,.2,-.2,.5,-.2,1.1v6c0,.5,0,.7,.1,.8c0,.1,.3,.1,.8,.1h2.3c.5,0,.8,0,.9,-.1c0,-.1,.1,-.4,.1,-.9V85.5c0,-.6,-.1,-.9,-.3,-1.1c-.1,-.2,-.5,-.2,-1.1,-.3v-.2h3.9v.2c-.5,.1,-.9,.1,-1,.3c-.2,.2,-.3,.5,-.3,1.1v5.8c0,.6,.1,1,.2,1.1c.2,.2,.5,.3,1.1,.3Z" class="g2_77"/>
<path fill-rule="evenodd" d="M618.4,89.4l-1.5,-3.7l-1.6,3.7Zm.2,.5h-3.5l-.6,1.4c-.2,.4,-.2,.6,-.2,.8c0,.1,0,.2,.2,.3c.1,.2,.4,.2,.8,.3v.2h-2.8v-.2c.3,-.1,.6,-.2,.7,-.3c.2,-.2,.5,-.7,.7,-1.3l3.2,-7.4h.2l3.2,7.5c.2,.6,.4,1,.6,1.1c.2,.2,.5,.3,.9,.4v.2h-3.5v-.2c.3,-.1,.6,-.1,.7,-.2c.1,-.1,.2,-.3,.2,-.4c0,-.2,-.1,-.5,-.3,-.9Z" class="g2_77"/>
<path fill-rule="evenodd" d="M583.2,107.2h4v.8h-4v-.8Zm1.9,-5.2c-.6,0,-.8,.4,-.8,1.2c0,.6,.1,1.1,.3,1.6c.3,.5,.5,.8,.9,.8c.5,0,.7,-.4,.7,-1.1c0,-.5,-.1,-1.1,-.3,-1.6c-.2,-.6,-.5,-.9,-.8,-.9m0,-.3c.5,0,1,.2,1.4,.5c.5,.4,.7,.9,.7,1.6c0,.6,-.2,1.1,-.6,1.5c-.3,.4,-.8,.6,-1.3,.6c-.5,0,-1,-.2,-1.4,-.7c-.5,-.4,-.7,-.9,-.7,-1.5c0,-.6,.2,-1,.5,-1.4c.4,-.4,.8,-.6,1.4,-.6m-7,-2.7l3.3,6v-2.9c0,-.9,.1,-1.6,.2,-1.9c0,-.4,.2,-.7,.5,-1c.3,-.2,.6,-.3,1.1,-.3c.3,0,.6,0,.7,.2c.2,.2,.3,.4,.3,.6c0,.2,0,.3,-.2,.5c-.1,.1,-.3,.2,-.5,.2c-.2,0,-.4,-.1,-.5,-.2c-.3,-.1,-.4,-.2,-.5,-.2c-.2,0,-.3,.1,-.4,.2c0,.2,-.1,.6,-.1,1.2v6.8h-.3l-4.1,-7.4v4.4c0,.9,0,1.6,-.1,1.9c-.2,.4,-.4,.7,-.6,.8c-.3,.2,-.6,.3,-1,.3c-.4,0,-.6,-.1,-.8,-.3c-.2,-.1,-.3,-.3,-.3,-.5c0,-.2,.1,-.4,.2,-.5c.2,-.1,.3,-.2,.5,-.2c.2,0,.4,.1,.6,.2c.3,.1,.4,.2,.5,.2c.2,0,.3,-.1,.4,-.3c0,-.3,.1,-.8,.1,-1.5v-4.7c0,-.5,-.1,-.8,-.1,-.9c-.1,-.2,-.2,-.3,-.4,-.4c-.2,-.1,-.5,-.1,-.8,-.1V99Z" class="g2_77"/>
<path fill-rule="evenodd" d="M597.3,106.4l-.7,1.8h-5.3v-.3c1.6,-1.4,2.7,-2.6,3.3,-3.5c.7,-.9,1,-1.7,1,-2.5c0,-.5,-.2,-1,-.5,-1.4c-.4,-.3,-.8,-.5,-1.3,-.5c-.4,0,-.8,.1,-1.2,.4c-.3,.2,-.6,.6,-.8,1.1h-.2c.1,-.8,.4,-1.4,.8,-1.9c.5,-.4,1.1,-.6,1.8,-.6c.7,0,1.3,.2,1.8,.7c.5,.4,.7,1,.7,1.6c0,.5,-.1,.9,-.3,1.4c-.3,.7,-.9,1.5,-1.6,2.3c-1.1,1.2,-1.8,1.9,-2.1,2.2h2.4c.5,0,.8,-.1,1,-.1c.2,0,.4,-.1,.5,-.2c.2,-.1,.3,-.3,.4,-.5Z" class="g2_77"/>
<path fill-rule="evenodd" d="M599.6,103.7c0,1.2,.2,2.3,.5,3c.2,.7,.6,1,1.1,1c.2,0,.5,-.1,.7,-.3c.3,-.2,.5,-.6,.6,-1.1c.2,-.7,.3,-1.8,.3,-3.2c0,-1,-.1,-1.9,-.3,-2.6c-.2,-.5,-.4,-.8,-.6,-1c-.2,-.2,-.4,-.3,-.7,-.3c-.3,0,-.5,.2,-.8,.4c-.3,.4,-.5,1,-.6,1.8c-.1,.8,-.2,1.5,-.2,2.3m-1.3,-.2c0,-1,.2,-1.9,.5,-2.6c.3,-.8,.7,-1.3,1.2,-1.7c.4,-.3,.8,-.4,1.2,-.4c.7,0,1.3,.4,1.9,1.1c.7,.8,1,2,1,3.5c0,1.1,-.1,1.9,-.4,2.7c-.3,.7,-.7,1.2,-1.2,1.6c-.5,.3,-.9,.5,-1.3,.5c-.9,0,-1.6,-.6,-2.2,-1.6c-.5,-.8,-.7,-1.9,-.7,-3.1Z" class="g2_77"/>
<path fill-rule="evenodd" d="M610.5,99l-.5,1.1h-2.7l-.6,1.2c1.1,.2,2.1,.6,2.7,1.3c.6,.6,.9,1.3,.9,2.2c0,.4,-.1,.9,-.3,1.3c-.2,.4,-.4,.7,-.7,1c-.3,.3,-.6,.5,-1,.7c-.5,.2,-1,.4,-1.5,.4c-.6,0,-1,-.1,-1.2,-.3c-.2,-.2,-.4,-.4,-.4,-.6c0,-.2,.1,-.3,.2,-.4c.1,-.1,.2,-.1,.4,-.1c.1,0,.2,0,.3,.1c.1,0,.2,.1,.4,.2c.3,.3,.7,.4,1,.4c.5,0,1,-.2,1.4,-.6c.4,-.4,.6,-.9,.6,-1.4c0,-.6,-.2,-1.1,-.6,-1.6c-.3,-.4,-.8,-.8,-1.4,-1.1c-.5,-.2,-1.1,-.3,-2,-.3L607.3,99Z" class="g2_77"/>
<path fill-rule="evenodd" d="M615.2,98.5l-3.3,9.7h-.5l3.2,-9.7Z" class="g2_77"/>
<path fill-rule="evenodd" d="M621,99l-.5,1.1h-2.7l-.6,1.2c1.2,.2,2.1,.6,2.8,1.3c.6,.6,.9,1.3,.9,2.2c0,.4,-.1,.9,-.3,1.3c-.2,.4,-.5,.7,-.8,1c-.2,.3,-.6,.5,-.9,.7c-.5,.2,-1.1,.4,-1.6,.4c-.5,0,-.9,-.1,-1.2,-.3c-.2,-.2,-.3,-.4,-.3,-.6c0,-.2,0,-.3,.1,-.4c.1,-.1,.3,-.1,.4,-.1c.1,0,.2,0,.3,.1c.1,0,.2,.1,.4,.2c.4,.3,.7,.4,1.1,.4c.5,0,.9,-.2,1.3,-.6c.4,-.4,.6,-.9,.6,-1.4c0,-.6,-.2,-1.1,-.5,-1.6c-.4,-.4,-.9,-.8,-1.5,-1.1c-.4,-.2,-1.1,-.3,-1.9,-.3L617.8,99Z" class="g2_77"/>
<path fill-rule="evenodd" d="M623.6,106.7c.2,0,.4,.1,.5,.2c.2,.1,.2,.3,.2,.5c0,.2,-.1,.4,-.2,.5c-.1,.2,-.3,.3,-.5,.3c-.2,0,-.4,-.1,-.5,-.3c-.2,-.1,-.2,-.3,-.2,-.5c0,-.2,0,-.4,.2,-.5c.1,-.1,.3,-.2,.5,-.2Z" class="g2_77"/>
<path fill-rule="evenodd" d="M627.1,103.7c0,1.2,.1,2.3,.4,3c.3,.7,.7,1,1.1,1c.3,0,.5,-.1,.8,-.3c.2,-.2,.4,-.6,.6,-1.1c.2,-.7,.3,-1.8,.3,-3.2c0,-1,-.1,-1.9,-.3,-2.6c-.2,-.5,-.4,-.8,-.7,-1c-.1,-.2,-.4,-.3,-.6,-.3c-.3,0,-.6,.2,-.8,.4c-.3,.4,-.5,1,-.7,1.8c-.1,.8,-.1,1.5,-.1,2.3m-1.3,-.2c0,-1,.1,-1.9,.4,-2.6c.3,-.8,.8,-1.3,1.3,-1.7c.4,-.3,.8,-.4,1.2,-.4c.7,0,1.3,.4,1.8,1.1c.7,.8,1.1,2,1.1,3.5c0,1.1,-.2,1.9,-.5,2.7c-.3,.7,-.7,1.2,-1.1,1.6c-.5,.3,-.9,.5,-1.4,.5c-.8,0,-1.5,-.6,-2.1,-1.6c-.5,-.8,-.7,-1.9,-.7,-3.1Z" class="g2_77"/>
<path fill-rule="evenodd" d="M638.3,106.4l-.7,1.8h-5.3v-.3c1.6,-1.4,2.7,-2.6,3.3,-3.5c.7,-.9,1,-1.7,1,-2.5c0,-.5,-.2,-1,-.5,-1.4c-.4,-.3,-.8,-.5,-1.3,-.5c-.4,0,-.8,.1,-1.2,.4c-.3,.2,-.6,.6,-.8,1.1h-.2c.1,-.8,.4,-1.4,.9,-1.9c.4,-.4,1,-.6,1.7,-.6c.7,0,1.3,.2,1.8,.7c.5,.4,.7,1,.7,1.6c0,.5,-.1,.9,-.3,1.4c-.3,.7,-.9,1.5,-1.6,2.3c-1.1,1.2,-1.8,1.9,-2,2.2h2.3c.5,0,.8,-.1,1,-.1c.2,0,.4,-.1,.5,-.2c.2,-.1,.3,-.3,.4,-.5Z" class="g2_77"/>
<path fill-rule="evenodd" d="M640.5,106.7c.2,0,.4,.1,.5,.2c.2,.1,.3,.3,.3,.5c0,.2,-.1,.4,-.3,.5c-.1,.2,-.3,.3,-.5,.3c-.2,0,-.4,-.1,-.5,-.3c-.1,-.1,-.2,-.3,-.2,-.5c0,-.2,.1,-.4,.2,-.5c.1,-.1,.3,-.2,.5,-.2Z" class="g2_77"/>
<path fill-rule="evenodd" d="M648.4,106.4l-.6,1.8h-5.3v-.3c1.6,-1.4,2.7,-2.6,3.3,-3.5c.6,-.9,.9,-1.7,.9,-2.5c0,-.5,-.1,-1,-.5,-1.4c-.3,-.3,-.7,-.5,-1.2,-.5c-.5,0,-.9,.1,-1.2,.4c-.4,.2,-.6,.6,-.8,1.1h-.2c.1,-.8,.4,-1.4,.8,-1.9c.5,-.4,1,-.6,1.7,-.6c.7,0,1.4,.2,1.8,.7c.5,.4,.8,1,.8,1.6c0,.5,-.1,.9,-.3,1.4c-.4,.7,-.9,1.5,-1.6,2.3c-1.1,1.2,-1.8,1.9,-2.1,2.2h2.4c.4,0,.8,-.1,1,-.1c.1,0,.3,-.1,.5,-.2c.1,-.1,.3,-.3,.4,-.5Z" class="g2_77"/>
<path fill-rule="evenodd" d="M650.8,103.7c0,1.2,.1,2.3,.4,3c.3,.7,.7,1,1.1,1c.3,0,.5,-.1,.8,-.3c.2,-.2,.4,-.6,.6,-1.1c.2,-.7,.3,-1.8,.3,-3.2c0,-1,-.1,-1.9,-.3,-2.6c-.2,-.5,-.4,-.8,-.7,-1c-.1,-.2,-.4,-.3,-.6,-.3c-.3,0,-.6,.2,-.8,.4c-.3,.4,-.5,1,-.7,1.8c-.1,.8,-.1,1.5,-.1,2.3m-1.3,-.2c0,-1,.1,-1.9,.4,-2.6c.3,-.8,.8,-1.3,1.3,-1.7c.4,-.3,.8,-.4,1.2,-.4c.7,0,1.3,.4,1.8,1.1c.7,.8,1.1,2,1.1,3.5c0,1.1,-.2,1.9,-.5,2.7c-.3,.7,-.7,1.2,-1.1,1.6c-.5,.3,-.9,.5,-1.4,.5c-.8,0,-1.5,-.6,-2.1,-1.6c-.5,-.8,-.7,-1.9,-.7,-3.1Z" class="g2_77"/>
<path fill-rule="evenodd" d="M677.9,102.1l.3,1.6h-.3c-.2,-.5,-.4,-.9,-.5,-1c-.2,-.1,-.6,-.2,-1.1,-.2H675v4.2c0,.5,0,.8,.1,.9c0,.1,.1,.1,.2,.2c.1,.1,.3,.1,.6,.1v.3h-3v-.3c.4,0,.7,-.1,.8,-.2c.1,-.1,.2,-.4,.2,-1v-3.2c0,-.4,0,-.7,-.1,-.8c0,-.2,-.1,-.2,-.2,-.3c-.1,0,-.4,-.1,-.7,-.1v-.2Z" class="g2_77"/>
<path fill-rule="evenodd" d="M678.4,106.7c.2,0,.4,.1,.5,.2c.2,.1,.2,.3,.2,.5c0,.2,0,.4,-.2,.5c-.1,.2,-.3,.3,-.5,.3c-.2,0,-.4,-.1,-.5,-.3c-.2,-.1,-.2,-.3,-.2,-.5c0,-.2,0,-.4,.2,-.5c.1,-.1,.3,-.2,.5,-.2Z" class="g2_77"/>
<path fill-rule="evenodd" d="M580.3,123l-3.5,-7.5v6c0,.5,.1,.9,.2,1c.2,.2,.4,.3,.8,.3h.3v.2H575v-.2h.3c.4,0,.6,-.1,.8,-.4c.1,-.1,.1,-.4,.1,-.9v-5.9c0,-.4,0,-.7,-.1,-.9c-.1,-.1,-.2,-.2,-.3,-.3c-.2,-.1,-.5,-.1,-.8,-.1V114h2.5l3.3,7.1L584,114h2.5v.3h-.3c-.4,0,-.7,.1,-.8,.3c-.1,.2,-.2,.5,-.2,1v5.9c0,.5,.1,.9,.2,1c.2,.2,.4,.3,.8,.3h.3v.2h-3.8v-.2h.3c.4,0,.7,-.1,.8,-.4c.1,-.1,.2,-.4,.2,-.9v-6l-3.5,7.5Z" class="g2_77"/>
<path fill-rule="evenodd" d="M591.8,114.9l2.1,-1.1h.3v7.7c0,.5,0,.8,0,.9c.1,.1,.1,.2,.3,.3c.1,0,.4,.1,.8,.1v.2h-3.4v-.2c.4,0,.7,-.1,.8,-.1c.2,-.1,.2,-.2,.3,-.3c0,-.1,.1,-.4,.1,-.9v-4.9c0,-.7,-.1,-1.1,-.1,-1.3c0,-.1,-.1,-.2,-.2,-.3c-.1,-.1,-.2,-.1,-.3,-.1c-.1,0,-.4,.1,-.6,.2Z" class="g2_77"/>
<path fill-rule="evenodd" d="M602.2,121.7c.2,0,.4,.1,.5,.3c.2,.1,.3,.3,.3,.5c0,.2,-.1,.4,-.3,.5c-.1,.2,-.3,.2,-.5,.2c-.2,0,-.4,0,-.5,-.2c-.1,-.1,-.2,-.3,-.2,-.5c0,-.2,.1,-.4,.2,-.5c.1,-.2,.3,-.3,.5,-.3m0,-4.9c.2,0,.4,0,.6,.2c.1,.1,.2,.3,.2,.5c0,.2,-.1,.4,-.2,.5c-.2,.2,-.4,.2,-.6,.2c-.2,0,-.3,0,-.5,-.2c-.1,-.1,-.2,-.3,-.2,-.5c0,-.2,.1,-.4,.2,-.5c.2,-.2,.3,-.2,.5,-.2Z" class="g2_77"/>
<path fill-rule="evenodd" d="M609.1,114.9l2.1,-1.1h.3v7.7c0,.5,0,.8,0,.9c.1,.1,.2,.2,.3,.3c.1,0,.4,.1,.8,.1v.2h-3.4v-.2c.4,0,.7,-.1,.8,-.1c.2,-.1,.2,-.2,.3,-.3c0,-.1,.1,-.4,.1,-.9v-4.9c0,-.7,-.1,-1.1,-.1,-1.3c0,-.1,-.1,-.2,-.2,-.3c0,-.1,-.1,-.1,-.3,-.1c-.1,0,-.3,.1,-.6,.2Z" class="g2_77"/>
<path fill-rule="evenodd" d="M616,118.8c0,1.2,.2,2.2,.5,3c.2,.7,.6,1,1.1,1c.2,0,.5,-.1,.7,-.3c.3,-.3,.5,-.6,.6,-1.1c.2,-.8,.3,-1.9,.3,-3.2c0,-1.1,-.1,-1.9,-.3,-2.6c-.1,-.5,-.3,-.9,-.6,-1.1c-.2,-.1,-.4,-.2,-.6,-.2c-.4,0,-.6,.1,-.9,.4c-.3,.4,-.5,.9,-.6,1.7c-.1,.8,-.2,1.6,-.2,2.4m-1.3,-.2c0,-1,.2,-1.9,.5,-2.7c.3,-.7,.7,-1.3,1.2,-1.6c.4,-.3,.8,-.5,1.3,-.5c.6,0,1.3,.4,1.8,1.1c.7,.9,1,2.1,1,3.5c0,1.1,-.1,2,-.4,2.7c-.3,.7,-.7,1.3,-1.2,1.6c-.4,.3,-.9,.5,-1.3,.5c-.9,0,-1.6,-.5,-2.1,-1.5c-.5,-.9,-.8,-1.9,-.8,-3.1Z" class="g2_77"/>
<path fill-rule="evenodd" d="M622.8,118.8c0,1.2,.2,2.2,.5,3c.2,.7,.6,1,1.1,1c.2,0,.5,-.1,.7,-.3c.3,-.3,.5,-.6,.6,-1.1c.2,-.8,.3,-1.9,.3,-3.2c0,-1.1,-.1,-1.9,-.3,-2.6c-.2,-.5,-.4,-.9,-.6,-1.1c-.2,-.1,-.4,-.2,-.7,-.2c-.3,0,-.5,.1,-.8,.4c-.3,.4,-.5,.9,-.6,1.7c-.1,.8,-.2,1.6,-.2,2.4m-1.3,-.2c0,-1,.2,-1.9,.5,-2.7c.3,-.7,.7,-1.3,1.2,-1.6c.4,-.3,.8,-.5,1.2,-.5c.7,0,1.3,.4,1.9,1.1c.7,.9,1,2.1,1,3.5c0,1.1,-.1,2,-.4,2.7c-.3,.7,-.7,1.3,-1.2,1.6c-.5,.3,-.9,.5,-1.3,.5c-.9,0,-1.6,-.5,-2.2,-1.5c-.5,-.9,-.7,-1.9,-.7,-3.1Z" class="g2_77"/>
<path fill-rule="evenodd" d="M629.6,118.8c0,1.2,.1,2.2,.4,3c.3,.7,.7,1,1.2,1c.2,0,.4,-.1,.7,-.3c.3,-.3,.4,-.6,.6,-1.1c.2,-.8,.3,-1.9,.3,-3.2c0,-1.1,-.1,-1.9,-.3,-2.6c-.2,-.5,-.4,-.9,-.7,-1.1c-.1,-.1,-.4,-.2,-.6,-.2c-.3,0,-.6,.1,-.8,.4c-.3,.4,-.5,.9,-.7,1.7c-.1,.8,-.1,1.6,-.1,2.4m-1.3,-.2c0,-1,.1,-1.9,.4,-2.7c.3,-.7,.8,-1.3,1.3,-1.6c.4,-.3,.8,-.5,1.2,-.5c.7,0,1.3,.4,1.9,1.1c.6,.9,1,2.1,1,3.5c0,1.1,-.2,2,-.5,2.7c-.3,.7,-.7,1.3,-1.1,1.6c-.5,.3,-.9,.5,-1.4,.5c-.8,0,-1.5,-.5,-2.1,-1.5c-.5,-.9,-.7,-1.9,-.7,-3.1Z" class="g2_77"/>
<path fill-rule="evenodd" d="M716.8,128c.3,-.8,.7,-1.3,1.2,-1.7c.4,-.4,1,-.6,1.7,-.6c.9,0,1.5,.3,2,.8c.3,.5,.5,.9,.5,1.4c0,.8,-.5,1.6,-1.4,2.4c.6,.3,1.1,.7,1.4,1.1c.4,.5,.6,1.1,.6,1.7c0,1,-.3,1.8,-.9,2.5c-.8,.9,-1.9,1.3,-3.4,1.3c-.7,0,-1.2,-.1,-1.5,-.3c-.2,-.1,-.4,-.3,-.4,-.5c0,-.2,.1,-.3,.2,-.4c.1,-.2,.3,-.2,.5,-.2c.1,0,.2,0,.4,0c.1,.1,.3,.2,.6,.3c.3,.2,.5,.3,.6,.3c.2,.1,.5,.1,.7,.1c.5,0,1,-.2,1.4,-.6c.4,-.4,.6,-.9,.6,-1.5c0,-.4,-.1,-.8,-.3,-1.2c-.1,-.3,-.3,-.6,-.4,-.7c-.3,-.2,-.6,-.4,-1,-.6c-.4,-.2,-.8,-.2,-1.2,-.2h-.3v-.3c.5,0,.9,-.2,1.3,-.4c.4,-.3,.7,-.6,.9,-.9c.2,-.4,.3,-.8,.3,-1.2c0,-.5,-.2,-1,-.5,-1.3c-.3,-.4,-.8,-.5,-1.3,-.5c-.8,0,-1.5,.4,-2,1.3Z" class="g2_77"/>
<path fill-rule="evenodd" d="M725,139.4v-.3c.5,-.2,.9,-.5,1.2,-.8c.3,-.4,.5,-.8,.5,-1.3q0,-.1,-.1,-.2c0,-.1,-.1,-.1,-.1,-.1c0,0,-.2,.1,-.4,.2c-.1,0,-.2,0,-.3,0c-.2,0,-.4,0,-.6,-.2c-.1,-.1,-.2,-.4,-.2,-.6c0,-.3,.1,-.5,.3,-.7c.2,-.2,.4,-.3,.7,-.3c.4,0,.7,.2,.9,.5c.3,.3,.4,.7,.4,1.2c0,.5,-.1,1.1,-.5,1.5c-.4,.5,-1,.9,-1.8,1.1Z" class="g2_77"/>
<path fill-rule="evenodd" d="M731.7,131.6c-.5,.4,-.8,.8,-1,1.2c-.2,.4,-.3,.9,-.3,1.4c0,.7,.2,1.3,.5,1.7c.4,.4,.9,.6,1.5,.6c.5,0,1,-.2,1.3,-.5c.4,-.3,.5,-.7,.5,-1.2c0,-.4,-.1,-.7,-.3,-1c-.3,-.6,-1.1,-1.3,-2.2,-2.2m.8,-1.2c.7,-.5,1.1,-1,1.2,-1.3c.2,-.4,.3,-.7,.3,-1.2c0,-.5,-.2,-1,-.5,-1.3c-.3,-.3,-.7,-.4,-1.3,-.4c-.5,0,-.9,.1,-1.3,.4c-.3,.3,-.5,.7,-.5,1.1c0,.3,.1,.6,.2,.9c.2,.2,.4,.5,.6,.7Zm-1.2,.9c-.9,-.7,-1.4,-1.3,-1.7,-1.7c-.2,-.4,-.3,-.9,-.3,-1.3c0,-.7,.2,-1.3,.8,-1.9c.5,-.5,1.2,-.7,2.1,-.7c.9,0,1.6,.2,2.1,.7c.6,.5,.8,1,.8,1.6c0,.4,-.1,.8,-.4,1.3c-.3,.4,-.9,.9,-1.8,1.4c.9,.8,1.6,1.3,1.9,1.7c.4,.6,.6,1.2,.6,1.8c0,.7,-.3,1.4,-.9,1.9c-.6,.5,-1.3,.8,-2.3,.8c-1,0,-1.8,-.3,-2.4,-.9c-.4,-.6,-.6,-1.1,-.6,-1.7c0,-.5,.1,-1,.4,-1.5c.4,-.4,.9,-1,1.7,-1.5Z" class="g2_77"/>
<path fill-rule="evenodd" d="M607.5,193.1v-5.4l-3.8,5.4Zm2.8,0v1.1h-1.5v2.9h-1.3v-2.9h-4.6v-1l5,-7.2h.9v7.1Z" class="g2_77"/>
<path fill-rule="evenodd" d="M611.7,199.8v-.4c.5,-.1,1,-.4,1.3,-.8c.3,-.4,.4,-.8,.4,-1.2c0,-.1,0,-.2,-.1,-.3h-.1c0,0,-.2,0,-.4,.1c-.1,.1,-.2,.1,-.3,.1c-.2,0,-.4,-.1,-.6,-.2c-.1,-.2,-.2,-.4,-.2,-.7c0,-.2,.1,-.5,.3,-.6c.2,-.2,.4,-.3,.7,-.3c.4,0,.7,.1,.9,.4c.3,.3,.5,.7,.5,1.3c0,.5,-.2,1,-.6,1.5c-.4,.4,-1,.8,-1.8,1.1Z" class="g2_77"/>
<path fill-rule="evenodd" d="M621.9,186.3l-.6,1.3h-3.2l-.7,1.5c1.4,.2,2.5,.7,3.3,1.5c.7,.8,1.1,1.6,1.1,2.6c0,.6,-.2,1.1,-.4,1.6c-.2,.4,-.5,.9,-.9,1.2c-.3,.3,-.7,.6,-1.1,.8c-.6,.3,-1.3,.5,-1.9,.5c-.6,0,-1.1,-.1,-1.4,-.4c-.3,-.2,-.4,-.4,-.4,-.7c0,-.1,0,-.3,.1,-.4c.2,-.1,.3,-.2,.5,-.2c.1,0,.3,.1,.4,.1c.1,0,.2,.2,.5,.3c.4,.3,.8,.4,1.2,.4c.6,0,1.2,-.2,1.6,-.7c.5,-.4,.7,-1,.7,-1.7c0,-.6,-.2,-1.2,-.6,-1.8c-.4,-.6,-1,-1,-1.7,-1.3c-.6,-.3,-1.4,-.4,-2.4,-.4l2.1,-4.2Z" class="g2_77"/>
<path fill-rule="evenodd" d="M617.6,276c.3,-.7,.7,-1.3,1.1,-1.7c.5,-.4,1.1,-.5,1.8,-.5c.8,0,1.5,.2,2,.8c.3,.4,.5,.9,.5,1.3c0,.8,-.5,1.6,-1.5,2.5c.7,.2,1.2,.6,1.5,1.1c.3,.5,.5,1.1,.5,1.7c0,.9,-.3,1.8,-.9,2.4c-.7,.9,-1.9,1.4,-3.3,1.4c-.8,0,-1.2,-.1,-1.5,-.3c-.3,-.2,-.4,-.4,-.4,-.6c0,-.1,.1,-.3,.2,-.4c.1,-.1,.3,-.2,.4,-.2c.2,0,.3,.1,.4,.1c.1,0,.3,.1,.6,.3c.4,.2,.6,.3,.7,.3c.2,.1,.4,.1,.6,.1c.6,0,1,-.2,1.4,-.6c.4,-.5,.6,-1,.6,-1.5c0,-.5,-.1,-.9,-.2,-1.3c-.2,-.3,-.3,-.5,-.5,-.6c-.2,-.3,-.5,-.4,-.9,-.6c-.4,-.2,-.8,-.3,-1.2,-.3h-.3v-.2c.4,-.1,.8,-.2,1.3,-.5c.4,-.2,.7,-.5,.9,-.9c.2,-.3,.3,-.7,.3,-1.1c0,-.6,-.2,-1,-.5,-1.4c-.4,-.3,-.8,-.5,-1.3,-.5c-.8,0,-1.5,.5,-2.1,1.4Z" class="g2_77"/>
<path fill-rule="evenodd" d="M625.7,287.5v-.3c.6,-.2,1,-.5,1.3,-.9c.3,-.4,.5,-.8,.5,-1.2c0,-.1,-.1,-.2,-.1,-.3q-.1,0,-.1,0c-.1,0,-.2,0,-.4,.1c-.1,.1,-.2,.1,-.3,.1c-.3,0,-.5,-.1,-.6,-.2c-.2,-.2,-.3,-.4,-.3,-.7c0,-.2,.1,-.4,.3,-.6c.2,-.2,.5,-.3,.8,-.3c.3,0,.6,.1,.9,.5c.3,.3,.4,.7,.4,1.2c0,.5,-.2,1,-.6,1.5c-.3,.5,-.9,.8,-1.8,1.1Z" class="g2_77"/>
<path fill-rule="evenodd" d="M630.8,275l2.7,-1.2h.2v9.1c0,.6,0,1,.1,1.1c0,.2,.1,.3,.3,.4c.2,0,.5,.1,1,.1v.3H631v-.3c.5,0,.9,-.1,1,-.1c.2,-.1,.3,-.2,.3,-.4c.1,-.1,.1,-.5,.1,-1.1V277c0,-.7,0,-1.2,-.1,-1.5c0,-.1,-.1,-.3,-.2,-.3c-.1,-.1,-.2,-.2,-.3,-.2c-.2,0,-.5,.1,-.8,.3Z" class="g2_77"/>
<path fill-rule="evenodd" d="M671.2,205.9v-5.4l-3.8,5.4Zm2.8,0V207h-1.5v2.9h-1.3V207h-4.5v-1l5,-7.2h.8v7.1Z" class="g2_77"/>
<path fill-rule="evenodd" d="M686.6,173.9c.3,-.8,.7,-1.3,1.1,-1.7c.5,-.4,1.1,-.6,1.8,-.6c.8,0,1.5,.3,2,.8c.3,.5,.5,.9,.5,1.4c0,.8,-.5,1.6,-1.5,2.4c.7,.3,1.2,.7,1.5,1.1c.3,.5,.5,1.1,.5,1.7c0,1,-.3,1.8,-.9,2.5c-.7,.9,-1.9,1.3,-3.3,1.3c-.8,0,-1.2,-.1,-1.5,-.3c-.3,-.1,-.4,-.3,-.4,-.5c0,-.2,.1,-.3,.2,-.4c.1,-.2,.3,-.2,.4,-.2c.2,0,.3,0,.4,0c.1,.1,.3,.2,.7,.3c.3,.2,.5,.3,.6,.3c.2,.1,.4,.1,.6,.1c.6,0,1,-.2,1.4,-.6c.4,-.4,.6,-.9,.6,-1.5c0,-.4,0,-.8,-.2,-1.2c-.2,-.3,-.3,-.6,-.5,-.7c-.2,-.2,-.5,-.4,-.9,-.6c-.4,-.2,-.8,-.2,-1.2,-.2h-.3V177c.4,0,.8,-.2,1.3,-.4c.4,-.3,.7,-.6,.9,-.9c.2,-.4,.3,-.8,.3,-1.2c0,-.5,-.2,-1,-.5,-1.3c-.4,-.4,-.8,-.5,-1.3,-.5c-.8,0,-1.5,.4,-2.1,1.3Z" class="g2_77"/>
<path fill-rule="evenodd" d="M694.7,185.3V185c.6,-.2,1,-.5,1.3,-.9c.3,-.3,.5,-.7,.5,-1.2c0,-.1,-.1,-.1,-.1,-.2q-.1,-.1,-.1,-.1c-.1,0,-.2,.1,-.4,.2c-.1,0,-.2,0,-.3,0c-.3,0,-.5,0,-.6,-.2c-.2,-.1,-.3,-.4,-.3,-.6c0,-.3,.1,-.5,.3,-.7c.2,-.2,.5,-.3,.8,-.3c.3,0,.6,.2,.9,.5c.3,.3,.4,.7,.4,1.2c0,.5,-.2,1.1,-.6,1.5c-.3,.5,-.9,.9,-1.8,1.1Z" class="g2_77"/>
<path fill-rule="evenodd" d="M702.7,178.6v-5.3l-3.7,5.3Zm2.8,0v1.2h-1.4v2.8h-1.4v-2.8h-4.5v-1.1l5,-7.1h.9v7Z" class="g2_77"/>
<path fill-rule="evenodd" d="M735.6,236.3v-5.4l-3.8,5.4Zm2.8,0v1.1h-1.5v2.9h-1.3v-2.9H731v-1l5,-7.2h.9v7.1Z" class="g2_77"/>
<path fill-rule="evenodd" d="M739.8,243v-.4c.5,-.2,1,-.4,1.3,-.8c.3,-.4,.4,-.8,.4,-1.2c0,-.1,0,-.2,-.1,-.3h-.1c0,0,-.2,0,-.4,.1c-.1,.1,-.2,.1,-.3,.1c-.2,0,-.4,-.1,-.6,-.2c-.1,-.2,-.2,-.4,-.2,-.7c0,-.2,.1,-.5,.3,-.7c.2,-.1,.4,-.2,.7,-.2c.4,0,.7,.1,.9,.4c.3,.3,.5,.7,.5,1.2c0,.6,-.2,1.1,-.6,1.6c-.4,.4,-1,.8,-1.8,1.1Z" class="g2_77"/>
<path fill-rule="evenodd" d="M750.4,238.2l-.7,2.1h-6.4V240c1.9,-1.7,3.2,-3.1,4,-4.2c.7,-1.1,1.1,-2.1,1.1,-3c0,-.7,-.2,-1.3,-.6,-1.7c-.4,-.4,-.9,-.7,-1.5,-.7c-.5,0,-1,.2,-1.4,.5c-.5,.3,-.8,.8,-1,1.4h-.3c.2,-1,.5,-1.8,1.1,-2.3c.5,-.5,1.2,-.8,2,-.8c.9,0,1.6,.3,2.2,.9c.6,.5,.9,1.2,.9,2c0,.5,-.2,1.1,-.4,1.6c-.4,.9,-1,1.8,-1.9,2.7c-1.3,1.5,-2.2,2.4,-2.5,2.7h2.8c.6,0,1,-.1,1.2,-.1c.3,0,.5,-.1,.7,-.3c.1,-.1,.3,-.3,.4,-.5Z" class="g2_77"/>
<path fill-rule="evenodd" d="M585.4,276.1l-3.1,4.2H585Zm1.6,-2.7l-.8,9c-.1,.4,-.1,.7,-.1,.8c0,.2,.1,.4,.1,.5c.1,.2,.3,.3,.4,.4c.2,0,.5,.1,.9,.1l-.1,.3h-4.2l.1,-.3h.2c.3,0,.6,-.1,.8,-.2c.1,-.2,.3,-.3,.4,-.6c0,-.1,.1,-.5,.1,-1.1l.1,-1.4h-3l-1.1,1.5c-.3,.3,-.4,.6,-.5,.7c-.1,.2,-.1,.3,-.1,.4c0,.2,.1,.3,.2,.5c.2,.1,.4,.2,.7,.2l-.1,.3h-3.2l.1,-.3c.4,0,.8,-.2,1.1,-.4c.2,-.3,.7,-.8,1.3,-1.6l6.4,-8.8Z" class="g2_77"/>
<path fill-rule="evenodd" d="M660.2,279.3c.6,.2,1.1,.3,1.5,.3c.6,0,1.1,-.2,1.6,-.4c.4,-.2,.8,-.6,1.1,-1.1c.2,-.4,.4,-.9,.4,-1.5c0,-.5,-.2,-.9,-.5,-1.2c-.4,-.3,-.9,-.5,-1.5,-.5c-.4,0,-.8,0,-1.3,.1Zm-1.5,-5H663c1.1,0,1.9,.2,2.5,.7c.5,.5,.8,1.1,.8,1.8c0,.5,-.2,1.1,-.5,1.6c-.4,.5,-.9,.9,-1.6,1.2c-.7,.3,-1.4,.5,-2.2,.5c-.5,0,-1.1,-.1,-1.9,-.3l-.9,3c-.2,.7,-.3,1.1,-.3,1.4c0,.1,.1,.3,.3,.4c.1,.1,.4,.2,1,.2l-.1,.3h-4.3l.1,-.3c.6,0,1,-.1,1.2,-.3c.2,-.2,.4,-.7,.7,-1.6l1.8,-6.1c.2,-.8,.3,-1.3,.3,-1.5c0,-.2,-.1,-.4,-.2,-.5c-.2,-.1,-.5,-.2,-1,-.2Z" class="g2_77"/>
<path fill-rule="evenodd" d="M695.4,284.4c.6,.1,1,.1,1.3,.1c.9,0,1.6,-.2,2.2,-.7c.7,-.5,1,-1.2,1,-2.1c0,-.6,-.2,-1.1,-.6,-1.5c-.4,-.4,-1,-.5,-1.9,-.5c-.2,0,-.4,0,-.6,0Zm1.6,-5.3c.3,0,.6,0,.7,0c1.1,0,1.9,-.2,2.5,-.7c.5,-.5,.8,-1.1,.8,-1.8c0,-.6,-.2,-1,-.5,-1.3c-.3,-.3,-.9,-.5,-1.6,-.5c-.2,0,-.4,.1,-.7,.1Zm-1.6,-4.5l.1,-.3h3.8c.7,0,1.2,.1,1.7,.3c.5,.2,.9,.5,1.2,.8c.2,.4,.3,.8,.3,1.2c0,.6,-.2,1.2,-.6,1.7c-.5,.5,-1.2,.9,-2.2,1.1c.6,.2,1.1,.6,1.4,1c.3,.4,.5,.8,.5,1.3c0,.5,-.2,1,-.4,1.5c-.3,.5,-.7,.9,-1.1,1.2c-.4,.2,-.9,.4,-1.5,.6c-.5,.1,-1.2,.1,-2.1,.1h-3.9l.1,-.3c.4,0,.7,0,.8,-.1c.2,-.1,.4,-.2,.5,-.4c.1,-.2,.3,-.6,.5,-1.4l1.9,-6.5c.2,-.6,.3,-.9,.3,-1.2c0,-.2,-.1,-.3,-.3,-.4c-.1,-.1,-.4,-.2,-.8,-.2c-.1,0,-.2,0,-.2,0Z" class="g2_77"/>
<path fill-rule="evenodd" d="M761,204c-.5,0,-1.1,.1,-1.6,.4c-.5,.3,-1,.7,-1.5,1.3c-.5,.6,-.9,1.4,-1.3,2.3c-.5,1.2,-.7,2.4,-.7,3.4c0,.8,.2,1.4,.5,2c.4,.6,1,.9,1.8,.9c.5,0,1,-.1,1.4,-.4c.5,-.2,1,-.6,1.5,-1.2c.6,-.7,1.1,-1.6,1.6,-2.8c.4,-1.1,.6,-2.2,.6,-3.1c0,-.8,-.2,-1.4,-.6,-1.9c-.3,-.6,-.9,-.9,-1.7,-.9m-3,10.8l-2,1.7c.3,-.1,.6,-.1,.9,-.1c.2,0,.5,0,.7,0c.2,.1,.7,.2,1.4,.3c.8,.2,1.4,.3,2,.3c.6,0,1.1,-.1,1.5,-.3c.4,-.2,.8,-.6,1.2,-1l.2,.1c-.5,.8,-1.2,1.3,-1.9,1.7c-.7,.3,-1.5,.5,-2.4,.5c-.4,0,-1.1,-.1,-1.9,-.3c-1.2,-.2,-2,-.4,-2.5,-.4c-.2,0,-.4,0,-.5,.1c-.1,0,-.3,.1,-.5,.2l-.2,-.3l3.3,-2.5c-1,-.2,-1.8,-.6,-2.3,-1.4c-.5,-.7,-.8,-1.5,-.8,-2.4c0,-1.1,.4,-2.3,1.1,-3.6c.7,-1.2,1.6,-2.2,2.7,-2.9c1,-.7,2.1,-1,3.2,-1c.8,0,1.4,.2,2,.5c.5,.3,1,.8,1.3,1.4c.3,.6,.4,1.2,.4,1.8c0,1.3,-.3,2.5,-1,3.8c-.7,1.2,-1.6,2.2,-2.6,2.8c-1,.7,-2.1,1,-3.3,1Z" class="g2_77"/>
<path fill-rule="evenodd" d="M795.2,141.7l-.8,3.5h-.3v-.9c-.1,-.3,-.1,-.6,-.2,-.9c-.1,-.2,-.3,-.4,-.4,-.6c-.2,-.2,-.5,-.3,-.8,-.4c-.3,-.1,-.6,-.2,-.9,-.2c-1,0,-1.8,.3,-2.5,.8c-.9,.7,-1.6,1.6,-2.1,2.8c-.5,1,-.7,2,-.7,3c0,1.1,.3,1.9,.9,2.6c.6,.6,1.4,.9,2.4,.9c.7,0,1.4,-.2,2,-.5c.5,-.3,1.1,-.8,1.6,-1.5h.3c-.5,.9,-1.2,1.6,-1.9,2c-.7,.5,-1.6,.7,-2.5,.7c-.9,0,-1.7,-.2,-2.4,-.6c-.7,-.3,-1.2,-.9,-1.5,-1.5c-.4,-.7,-.6,-1.4,-.6,-2.2c0,-1.2,.4,-2.3,1,-3.4c.6,-1.2,1.5,-2,2.6,-2.7c1.1,-.6,2.2,-.9,3.3,-.9c.5,0,1.1,.1,1.8,.3c.2,.2,.5,.2,.6,.2c.1,0,.2,0,.3,-.1c.1,0,.3,-.2,.5,-.4Z" class="g2_77"/>
<path fill-rule="evenodd" d="M650.3,117.2l-2.4,8.1c-.1,.6,-.2,1,-.2,1.1c0,.1,0,.2,.1,.3c0,.1,.1,.1,.2,.1c.1,.1,.4,.1,.7,.1c.8,0,1.6,-.1,2.3,-.2c.7,-.2,1.3,-.5,1.7,-.8c.7,-.5,1.2,-1.2,1.6,-2.1c.4,-.8,.5,-1.8,.5,-2.9c0,-1.3,-.2,-2.2,-.8,-2.8c-.6,-.6,-1.5,-.9,-2.6,-.9c-.3,0,-.7,0,-1.1,0m-2.8,-.3l.1,-.3H651c1.4,0,2.5,.2,3.2,.5c.7,.4,1.3,.9,1.7,1.6c.4,.7,.6,1.5,.6,2.3c0,.7,-.1,1.4,-.3,2.1c-.3,.7,-.5,1.2,-.8,1.6c-.4,.4,-.8,.8,-1.4,1.3c-.7,.5,-1.4,.9,-2.1,1.1c-.7,.2,-1.6,.3,-2.7,.3h-4.6l.1,-.3c.4,0,.7,0,.8,-.1c.3,-.1,.4,-.2,.5,-.3c.2,-.3,.3,-.7,.5,-1.4l1.9,-6.5c.2,-.5,.3,-.9,.3,-1.2c0,-.2,-.1,-.4,-.3,-.5c-.1,-.1,-.4,-.2,-.8,-.2Z" class="g2_77"/>
<path fill-rule="evenodd" d="M662.5,106.4l-.7,1.8h-5.3v-.3c1.6,-1.4,2.7,-2.6,3.3,-3.5c.7,-.9,1,-1.7,1,-2.5c0,-.5,-.2,-1,-.6,-1.4c-.3,-.3,-.7,-.5,-1.2,-.5c-.4,0,-.8,.1,-1.2,.4c-.3,.2,-.6,.6,-.8,1.1h-.2c.1,-.8,.4,-1.4,.8,-1.9c.5,-.4,1.1,-.6,1.8,-.6c.7,0,1.3,.2,1.8,.7c.5,.4,.7,1,.7,1.6c0,.5,-.1,.9,-.3,1.4c-.3,.7,-.9,1.5,-1.6,2.3c-1.1,1.2,-1.8,1.9,-2.1,2.2h2.4c.5,0,.8,-.1,1,-.1c.2,0,.4,-.1,.5,-.2c.2,-.1,.3,-.3,.4,-.5Z" class="g2_77"/>
<path fill-rule="evenodd" d="M669.2,106.4l-.6,1.8h-5.3v-.3c1.6,-1.4,2.7,-2.6,3.3,-3.5c.6,-.9,1,-1.7,1,-2.5c0,-.5,-.2,-1,-.6,-1.4c-.3,-.3,-.7,-.5,-1.2,-.5c-.4,0,-.8,.1,-1.2,.4c-.3,.2,-.6,.6,-.8,1.1h-.2c.1,-.8,.4,-1.4,.8,-1.9c.5,-.4,1.1,-.6,1.7,-.6c.8,0,1.4,.2,1.9,.7c.5,.4,.7,1,.7,1.6c0,.5,-.1,.9,-.3,1.4c-.3,.7,-.9,1.5,-1.6,2.3c-1.1,1.2,-1.8,1.9,-2.1,2.2h2.4c.5,0,.8,-.1,1,-.1c.2,0,.3,-.1,.5,-.2c.2,-.1,.3,-.3,.4,-.5Z" class="g2_77"/>
<path d="M570.3,292.5H835.4V77.3H570.3V292.5Z" class="g6_77"/>
<path d="M73.6,66.5H835.8" class="g7_77"/>
<path d="M186.1,1076.2H836.8v-486H186.1v486Z" class="g8_77"/>
<path d="M74.6,589.5H836.8" class="g7_77"/>
<path d="M230.6,682.8h10.8V672H230.6v10.8Z" class="g9_77"/>
<path d="M230.6,672h10.8v10.8H230.6V672Z" class="ga_77"/>
<path d="M230.6,693.6h10.8V682.8H230.6v10.8Z" class="g9_77"/>
<path d="M230.6,682.8h10.8v10.8H230.6V682.8Z" class="ga_77"/>
<path d="M230.6,704.4h10.8V693.6H230.6v10.8Z" class="g9_77"/>
<path d="M230.6,693.6h10.8v10.8H230.6V693.6Z" class="ga_77"/>
<path d="M230.6,715.2h10.8V704.4H230.6v10.8Z" class="g9_77"/>
<path d="M230.6,704.4h10.8v10.8H230.6V704.4Z" class="ga_77"/>
<path d="M230.6,726h10.8V715.2H230.6V726Z" class="g9_77"/>
<path d="M230.6,715.2h10.8V726H230.6V715.2Z" class="ga_77"/>
<path d="M230.6,736.8h10.8V726H230.6v10.8Z" class="g9_77"/>
<path d="M230.6,726h10.8v10.8H230.6V726Z" class="ga_77"/>
<path d="M230.6,747.6h10.8V736.8H230.6v10.8Z" class="g9_77"/>
<path d="M230.6,736.8h10.8v10.8H230.6V736.8Z" class="ga_77"/>
<path d="M230.6,758.4h10.8V747.6H230.6v10.8Z" class="g9_77"/>
<path d="M230.6,747.6h10.8v10.8H230.6V747.6Z" class="ga_77"/>
<path d="M230.6,769.2h10.8V758.4H230.6v10.8Z" class="g9_77"/>
<path d="M230.6,758.4h10.8v10.8H230.6V758.4Z" class="ga_77"/>
<path d="M230.6,780h10.8V769.2H230.6V780Z" class="g9_77"/>
<path d="M230.6,769.2h10.8V780H230.6V769.2Z" class="ga_77"/>
<path d="M230.6,790.8h10.8V780H230.6v10.8Z" class="g9_77"/>
<path d="M230.6,780h10.8v10.8H230.6V780Z" class="ga_77"/>
<path d="M230.6,801.6h10.8V790.8H230.6v10.8Z" class="g9_77"/>
<path d="M230.6,790.8h10.8v10.8H230.6V790.8Z" class="ga_77"/>
<path d="M241.4,682.8h10.8V672H241.4v10.8Z" class="g9_77"/>
<path d="M241.4,672h10.8v10.8H241.4V672Z" class="ga_77"/>
<path fill-rule="evenodd" d="M241.4,682.8h10.8v10.8H241.4V682.8Z" class="gb_77"/>
<path fill-rule="evenodd" d="M241.4,693.6h10.8v10.8H241.4V693.6Z" class="gb_77"/>
<path fill-rule="evenodd" d="M241.4,704.4h10.8v10.8H241.4V704.4Z" class="gb_77"/>
<path fill-rule="evenodd" d="M241.4,715.2h10.8V726H241.4V715.2Z" class="gb_77"/>
<path fill-rule="evenodd" d="M241.4,726h10.8v10.8H241.4V726Z" class="gb_77"/>
<path fill-rule="evenodd" d="M241.4,736.8h10.8v10.8H241.4V736.8Z" class="gb_77"/>
<path fill-rule="evenodd" d="M241.4,747.6h10.8v10.8H241.4V747.6Z" class="gb_77"/>
<path fill-rule="evenodd" d="M241.4,758.4h10.8v10.8H241.4V758.4Z" class="gb_77"/>
<path fill-rule="evenodd" d="M241.4,769.2h10.8V780H241.4V769.2Z" class="gb_77"/>
<path fill-rule="evenodd" d="M241.4,780h10.8v10.8H241.4V780Z" class="gb_77"/>
<path d="M241.4,801.6h10.8V790.8H241.4v10.8Z" class="g9_77"/>
<path d="M241.4,790.8h10.8v10.8H241.4V790.8Z" class="ga_77"/>
<path d="M252.2,682.8H263V672H252.2v10.8Z" class="g9_77"/>
<path d="M252.2,672H263v10.8H252.2V672Z" class="ga_77"/>
<path fill-rule="evenodd" d="M252.2,682.8H263v10.8H252.2V682.8Z" class="gb_77"/>
<path fill-rule="evenodd" d="M252.2,693.6H263v10.8H252.2V693.6Z" class="gb_77"/>
<path fill-rule="evenodd" d="M252.2,704.4H263v10.8H252.2V704.4Z" class="gb_77"/>
<path fill-rule="evenodd" d="M252.2,715.2H263V726H252.2V715.2Z" class="gb_77"/>
<path fill-rule="evenodd" d="M252.2,726H263v10.8H252.2V726Z" class="gb_77"/>
<path fill-rule="evenodd" d="M252.2,736.8H263v10.8H252.2V736.8Z" class="gb_77"/>
<path fill-rule="evenodd" d="M252.2,747.6H263v10.8H252.2V747.6Z" class="gb_77"/>
<path fill-rule="evenodd" d="M252.2,758.4H263v10.8H252.2V758.4Z" class="gb_77"/>
<path fill-rule="evenodd" d="M252.2,769.2H263V780H252.2V769.2Z" class="gb_77"/>
<path fill-rule="evenodd" d="M252.2,780H263v10.8H252.2V780Z" class="gb_77"/>
<path d="M252.2,801.6H263V790.8H252.2v10.8Z" class="g9_77"/>
<path d="M252.2,790.8H263v10.8H252.2V790.8Z" class="ga_77"/>
<path d="M263,682.8h10.8V672H263v10.8Z" class="g9_77"/>
<path d="M263,672h10.8v10.8H263V672Z" class="ga_77"/>
<path fill-rule="evenodd" d="M263,682.8h10.8v10.8H263V682.8Z" class="gb_77"/>
<path fill-rule="evenodd" d="M263,693.6h10.8v10.8H263V693.6Z" class="gb_77"/>
<path fill-rule="evenodd" d="M263,704.4h10.8v10.8H263V704.4Z" class="gb_77"/>
<path fill-rule="evenodd" d="M263,715.2h10.8V726H263V715.2Z" class="gb_77"/>
<path fill-rule="evenodd" d="M263,726h10.8v10.8H263V726Z" class="gb_77"/>
<path fill-rule="evenodd" d="M263,736.8h10.8v10.8H263V736.8Z" class="gb_77"/>
<path fill-rule="evenodd" d="M263,747.6h10.8v10.8H263V747.6Z" class="gb_77"/>
<path fill-rule="evenodd" d="M263,758.4h10.8v10.8H263V758.4Z" class="gb_77"/>
<path fill-rule="evenodd" d="M263,769.2h10.8V780H263V769.2Z" class="gb_77"/>
<path fill-rule="evenodd" d="M263,780h10.8v10.8H263V780Z" class="gb_77"/>
<path d="M263,801.6h10.8V790.8H263v10.8Z" class="g9_77"/>
<path d="M263,790.8h10.8v10.8H263V790.8Z" class="ga_77"/>
<path d="M273.8,682.8h10.8V672H273.8v10.8Z" class="g9_77"/>
<path d="M273.8,672h10.8v10.8H273.8V672Z" class="ga_77"/>
<path fill-rule="evenodd" d="M273.8,682.8h10.8v10.8H273.8V682.8Z" class="gb_77"/>
<path fill-rule="evenodd" d="M273.8,693.6h10.8v10.8H273.8V693.6Z" class="gb_77"/>
<path fill-rule="evenodd" d="M273.8,704.4h10.8v10.8H273.8V704.4Z" class="gb_77"/>
<path fill-rule="evenodd" d="M273.8,715.2h10.8V726H273.8V715.2Z" class="gb_77"/>
<path fill-rule="evenodd" d="M273.8,726h10.8v10.8H273.8V726Z" class="gb_77"/>
<path fill-rule="evenodd" d="M273.8,736.8h10.8v10.8H273.8V736.8Z" class="gb_77"/>
<path fill-rule="evenodd" d="M273.8,747.6h10.8v10.8H273.8V747.6Z" class="gb_77"/>
<path fill-rule="evenodd" d="M273.8,758.4h10.8v10.8H273.8V758.4Z" class="gb_77"/>
<path fill-rule="evenodd" d="M273.8,769.2h10.8V780H273.8V769.2Z" class="gb_77"/>
<path fill-rule="evenodd" d="M273.8,780h10.8v10.8H273.8V780Z" class="gb_77"/>
<path d="M273.8,801.6h10.8V790.8H273.8v10.8Z" class="g9_77"/>
<path d="M273.8,790.8h10.8v10.8H273.8V790.8Z" class="ga_77"/>
<path d="M284.6,682.8h10.8V672H284.6v10.8Z" class="g9_77"/>
<path d="M284.6,672h10.8v10.8H284.6V672Z" class="ga_77"/>
<path fill-rule="evenodd" d="M284.6,682.8h10.8v10.8H284.6V682.8Z" class="gb_77"/>
<path fill-rule="evenodd" d="M284.6,693.6h10.8v10.8H284.6V693.6Z" class="gb_77"/>
<path fill-rule="evenodd" d="M284.6,704.4h10.8v10.8H284.6V704.4Z" class="gb_77"/>
<path fill-rule="evenodd" d="M284.6,715.2h10.8V726H284.6V715.2Z" class="gb_77"/>
<path fill-rule="evenodd" d="M284.6,726h10.8v10.8H284.6V726Z" class="gb_77"/>
<path fill-rule="evenodd" d="M284.6,736.8h10.8v10.8H284.6V736.8Z" class="gb_77"/>
<path fill-rule="evenodd" d="M284.6,747.6h10.8v10.8H284.6V747.6Z" class="gb_77"/>
<path fill-rule="evenodd" d="M284.6,758.4h10.8v10.8H284.6V758.4Z" class="gb_77"/>
<path fill-rule="evenodd" d="M284.6,769.2h10.8V780H284.6V769.2Z" class="gb_77"/>
<path fill-rule="evenodd" d="M284.6,780h10.8v10.8H284.6V780Z" class="gb_77"/>
<path d="M284.6,801.6h10.8V790.8H284.6v10.8Z" class="g9_77"/>
<path d="M284.6,790.8h10.8v10.8H284.6V790.8Z" class="ga_77"/>
<path d="M295.4,682.8h10.8V672H295.4v10.8Z" class="g9_77"/>
<path d="M295.4,672h10.8v10.8H295.4V672Z" class="ga_77"/>
<path fill-rule="evenodd" d="M295.4,682.8h10.8v10.8H295.4V682.8Z" class="gb_77"/>
<path fill-rule="evenodd" d="M295.4,693.6h10.8v10.8H295.4V693.6Z" class="gb_77"/>
<path fill-rule="evenodd" d="M295.4,704.4h10.8v10.8H295.4V704.4Z" class="gb_77"/>
<path fill-rule="evenodd" d="M295.4,715.2h10.8V726H295.4V715.2Z" class="gb_77"/>
<path fill-rule="evenodd" d="M295.4,726h10.8v10.8H295.4V726Z" class="gb_77"/>
<path fill-rule="evenodd" d="M295.4,736.8h10.8v10.8H295.4V736.8Z" class="gb_77"/>
<path fill-rule="evenodd" d="M295.4,747.6h10.8v10.8H295.4V747.6Z" class="gb_77"/>
<path fill-rule="evenodd" d="M295.4,758.4h10.8v10.8H295.4V758.4Z" class="gb_77"/>
<path fill-rule="evenodd" d="M295.4,769.2h10.8V780H295.4V769.2Z" class="gb_77"/>
<path fill-rule="evenodd" d="M295.4,780h10.8v10.8H295.4V780Z" class="gb_77"/>
<path d="M295.4,801.6h10.8V790.8H295.4v10.8Z" class="g9_77"/>
<path d="M295.4,790.8h10.8v10.8H295.4V790.8Z" class="ga_77"/>
<path d="M306.2,682.8H317V672H306.2v10.8Z" class="g9_77"/>
<path d="M306.2,672H317v10.8H306.2V672Z" class="ga_77"/>
<path fill-rule="evenodd" d="M306.2,682.8H317v10.8H306.2V682.8Z" class="gb_77"/>
<path fill-rule="evenodd" d="M306.2,693.6H317v10.8H306.2V693.6Z" class="gb_77"/>
<path fill-rule="evenodd" d="M306.2,704.4H317v10.8H306.2V704.4Z" class="gb_77"/>
<path fill-rule="evenodd" d="M306.2,715.2H317V726H306.2V715.2Z" class="gb_77"/>
<path fill-rule="evenodd" d="M306.2,726H317v10.8H306.2V726Z" class="gb_77"/>
<path fill-rule="evenodd" d="M306.2,736.8H317v10.8H306.2V736.8Z" class="gb_77"/>
<path fill-rule="evenodd" d="M306.2,747.6H317v10.8H306.2V747.6Z" class="gb_77"/>
<path fill-rule="evenodd" d="M306.2,758.4H317v10.8H306.2V758.4Z" class="gb_77"/>
<path fill-rule="evenodd" d="M306.2,769.2H317V780H306.2V769.2Z" class="gb_77"/>
<path fill-rule="evenodd" d="M306.2,780H317v10.8H306.2V780Z" class="gb_77"/>
<path d="M306.2,801.6H317V790.8H306.2v10.8Z" class="g9_77"/>
<path d="M306.2,790.8H317v10.8H306.2V790.8Z" class="ga_77"/>
<path d="M317,682.8h10.8V672H317v10.8Z" class="g9_77"/>
<path d="M317,672h10.8v10.8H317V672Z" class="ga_77"/>
<path fill-rule="evenodd" d="M317,682.8h10.8v10.8H317V682.8Z" class="gb_77"/>
<path fill-rule="evenodd" d="M317,693.6h10.8v10.8H317V693.6Z" class="gb_77"/>
<path fill-rule="evenodd" d="M317,704.4h10.8v10.8H317V704.4Z" class="gb_77"/>
<path fill-rule="evenodd" d="M317,715.2h10.8V726H317V715.2Z" class="gb_77"/>
<path fill-rule="evenodd" d="M317,726h10.8v10.8H317V726Z" class="gb_77"/>
<path fill-rule="evenodd" d="M317,736.8h10.8v10.8H317V736.8Z" class="gb_77"/>
<path fill-rule="evenodd" d="M317,747.6h10.8v10.8H317V747.6Z" class="gb_77"/>
<path fill-rule="evenodd" d="M317,758.4h10.8v10.8H317V758.4Z" class="gb_77"/>
<path fill-rule="evenodd" d="M317,769.2h10.8V780H317V769.2Z" class="gb_77"/>
<path fill-rule="evenodd" d="M317,780h10.8v10.8H317V780Z" class="gb_77"/>
<path d="M317,801.6h10.8V790.8H317v10.8Z" class="g9_77"/>
<path d="M317,790.8h10.8v10.8H317V790.8Z" class="ga_77"/>
<path d="M327.8,682.8h10.8V672H327.8v10.8Z" class="g9_77"/>
<path d="M327.8,672h10.8v10.8H327.8V672Z" class="ga_77"/>
<path fill-rule="evenodd" d="M327.8,682.8h10.8v10.8H327.8V682.8Z" class="gb_77"/>
<path fill-rule="evenodd" d="M327.8,693.6h10.8v10.8H327.8V693.6Z" class="gb_77"/>
<path fill-rule="evenodd" d="M327.8,704.4h10.8v10.8H327.8V704.4Z" class="gb_77"/>
<path fill-rule="evenodd" d="M327.8,715.2h10.8V726H327.8V715.2Z" class="gb_77"/>
<path fill-rule="evenodd" d="M327.8,726h10.8v10.8H327.8V726Z" class="gb_77"/>
<path fill-rule="evenodd" d="M327.8,736.8h10.8v10.8H327.8V736.8Z" class="gb_77"/>
<path fill-rule="evenodd" d="M327.8,747.6h10.8v10.8H327.8V747.6Z" class="gb_77"/>
<path fill-rule="evenodd" d="M327.8,758.4h10.8v10.8H327.8V758.4Z" class="gb_77"/>
<path fill-rule="evenodd" d="M327.8,769.2h10.8V780H327.8V769.2Z" class="gb_77"/>
<path fill-rule="evenodd" d="M327.8,780h10.8v10.8H327.8V780Z" class="gb_77"/>
<path d="M327.8,801.6h10.8V790.8H327.8v10.8Z" class="g9_77"/>
<path d="M327.8,790.8h10.8v10.8H327.8V790.8Z" class="ga_77"/>
<path d="M338.6,682.8h10.8V672H338.6v10.8Z" class="g9_77"/>
<path d="M338.6,672h10.8v10.8H338.6V672Z" class="ga_77"/>
<path fill-rule="evenodd" d="M338.6,682.8h10.8v10.8H338.6V682.8Z" class="gb_77"/>
<path fill-rule="evenodd" d="M338.6,693.6h10.8v10.8H338.6V693.6Z" class="gb_77"/>
<path fill-rule="evenodd" d="M338.6,704.4h10.8v10.8H338.6V704.4Z" class="gb_77"/>
<path fill-rule="evenodd" d="M338.6,715.2h10.8V726H338.6V715.2Z" class="gb_77"/>
<path fill-rule="evenodd" d="M338.6,726h10.8v10.8H338.6V726Z" class="gb_77"/>
<path fill-rule="evenodd" d="M338.6,736.8h10.8v10.8H338.6V736.8Z" class="gb_77"/>
<path fill-rule="evenodd" d="M338.6,747.6h10.8v10.8H338.6V747.6Z" class="gb_77"/>
<path fill-rule="evenodd" d="M338.6,758.4h10.8v10.8H338.6V758.4Z" class="gb_77"/>
<path fill-rule="evenodd" d="M338.6,769.2h10.8V780H338.6V769.2Z" class="gb_77"/>
<path fill-rule="evenodd" d="M338.6,780h10.8v10.8H338.6V780Z" class="gb_77"/>
<path d="M338.6,801.6h10.8V790.8H338.6v10.8Z" class="g9_77"/>
<path d="M338.6,790.8h10.8v10.8H338.6V790.8Z" class="ga_77"/>
<path d="M349.4,682.8h10.8V672H349.4v10.8Z" class="g9_77"/>
<path d="M349.4,672h10.8v10.8H349.4V672Z" class="ga_77"/>
<path fill-rule="evenodd" d="M349.4,682.8h10.8v10.8H349.4V682.8Z" class="gb_77"/>
<path fill-rule="evenodd" d="M349.4,693.6h10.8v10.8H349.4V693.6Z" class="gb_77"/>
<path fill-rule="evenodd" d="M349.4,704.4h10.8v10.8H349.4V704.4Z" class="gb_77"/>
<path fill-rule="evenodd" d="M349.4,715.2h10.8V726H349.4V715.2Z" class="gb_77"/>
<path fill-rule="evenodd" d="M349.4,726h10.8v10.8H349.4V726Z" class="gb_77"/>
<path fill-rule="evenodd" d="M349.4,736.8h10.8v10.8H349.4V736.8Z" class="gb_77"/>
<path fill-rule="evenodd" d="M349.4,747.6h10.8v10.8H349.4V747.6Z" class="gb_77"/>
<path fill-rule="evenodd" d="M349.4,758.4h10.8v10.8H349.4V758.4Z" class="gb_77"/>
<path fill-rule="evenodd" d="M349.4,769.2h10.8V780H349.4V769.2Z" class="gb_77"/>
<path fill-rule="evenodd" d="M349.4,780h10.8v10.8H349.4V780Z" class="gb_77"/>
<path d="M349.4,801.6h10.8V790.8H349.4v10.8Z" class="g9_77"/>
<path d="M349.4,790.8h10.8v10.8H349.4V790.8Z" class="ga_77"/>
<path d="M360.2,682.8H371V672H360.2v10.8Z" class="g9_77"/>
<path d="M360.2,672H371v10.8H360.2V672Z" class="ga_77"/>
<path fill-rule="evenodd" d="M360.2,682.8H371v10.8H360.2V682.8Z" class="gb_77"/>
<path fill-rule="evenodd" d="M360.2,693.6H371v10.8H360.2V693.6Z" class="gb_77"/>
<path fill-rule="evenodd" d="M360.2,704.4H371v10.8H360.2V704.4Z" class="gb_77"/>
<path fill-rule="evenodd" d="M360.2,715.2H371V726H360.2V715.2Z" class="gb_77"/>
<path fill-rule="evenodd" d="M360.2,726H371v10.8H360.2V726Z" class="gb_77"/>
<path fill-rule="evenodd" d="M360.2,736.8H371v10.8H360.2V736.8Z" class="gb_77"/>
<path fill-rule="evenodd" d="M360.2,747.6H371v10.8H360.2V747.6Z" class="gb_77"/>
<path fill-rule="evenodd" d="M360.2,758.4H371v10.8H360.2V758.4Z" class="gb_77"/>
<path fill-rule="evenodd" d="M360.2,769.2H371V780H360.2V769.2Z" class="gb_77"/>
<path fill-rule="evenodd" d="M360.2,780H371v10.8H360.2V780Z" class="gb_77"/>
<path d="M360.2,801.6H371V790.8H360.2v10.8Z" class="g9_77"/>
<path d="M360.2,790.8H371v10.8H360.2V790.8Z" class="ga_77"/>
<path d="M371,682.8h10.7V672H371v10.8Z" class="g9_77"/>
<path d="M371,672h10.7v10.8H371V672Z" class="ga_77"/>
<path fill-rule="evenodd" d="M371,682.8h10.7v10.8H371V682.8Z" class="gb_77"/>
<path fill-rule="evenodd" d="M371,693.6h10.7v10.8H371V693.6Z" class="gb_77"/>
<path fill-rule="evenodd" d="M371,704.4h10.7v10.8H371V704.4Z" class="gb_77"/>
<path fill-rule="evenodd" d="M371,715.2h10.7V726H371V715.2Z" class="gb_77"/>
<path fill-rule="evenodd" d="M371,726h10.7v10.8H371V726Z" class="gb_77"/>
<path fill-rule="evenodd" d="M371,736.8h10.7v10.8H371V736.8Z" class="gb_77"/>
<path fill-rule="evenodd" d="M371,747.6h10.7v10.8H371V747.6Z" class="gb_77"/>
<path fill-rule="evenodd" d="M371,758.4h10.7v10.8H371V758.4Z" class="gb_77"/>
<path fill-rule="evenodd" d="M371,769.2h10.7V780H371V769.2Z" class="gb_77"/>
<path fill-rule="evenodd" d="M371,780h10.7v10.8H371V780Z" class="gb_77"/>
<path d="M371,801.6h10.7V790.8H371v10.8Z" class="g9_77"/>
<path d="M371,790.8h10.7v10.8H371V790.8Z" class="ga_77"/>
<path d="M381.7,682.8h10.8V672H381.7v10.8Z" class="g9_77"/>
<path d="M381.7,672h10.8v10.8H381.7V672Z" class="ga_77"/>
<path fill-rule="evenodd" d="M381.7,682.8h10.8v10.8H381.7V682.8Z" class="gb_77"/>
<path fill-rule="evenodd" d="M381.7,693.6h10.8v10.8H381.7V693.6Z" class="gb_77"/>
<path fill-rule="evenodd" d="M381.7,704.4h10.8v10.8H381.7V704.4Z" class="gb_77"/>
<path fill-rule="evenodd" d="M381.7,715.2h10.8V726H381.7V715.2Z" class="gb_77"/>
<path fill-rule="evenodd" d="M381.7,726h10.8v10.8H381.7V726Z" class="gb_77"/>
<path fill-rule="evenodd" d="M381.7,736.8h10.8v10.8H381.7V736.8Z" class="gb_77"/>
<path fill-rule="evenodd" d="M381.7,747.6h10.8v10.8H381.7V747.6Z" class="gb_77"/>
<path fill-rule="evenodd" d="M381.7,758.4h10.8v10.8H381.7V758.4Z" class="gb_77"/>
<path fill-rule="evenodd" d="M381.7,769.2h10.8V780H381.7V769.2Z" class="gb_77"/>
<path fill-rule="evenodd" d="M381.7,780h10.8v10.8H381.7V780Z" class="gb_77"/>
<path d="M381.7,801.6h10.8V790.8H381.7v10.8Z" class="g9_77"/>
<path d="M381.7,790.8h10.8v10.8H381.7V790.8Z" class="ga_77"/>
<path d="M392.5,682.8h10.8V672H392.5v10.8Z" class="g9_77"/>
<path d="M392.5,672h10.8v10.8H392.5V672Z" class="ga_77"/>
<path fill-rule="evenodd" d="M392.5,682.8h10.8v10.8H392.5V682.8Z" class="gb_77"/>
<path fill-rule="evenodd" d="M392.5,693.6h10.8v10.8H392.5V693.6Z" class="gb_77"/>
<path fill-rule="evenodd" d="M392.5,704.4h10.8v10.8H392.5V704.4Z" class="gb_77"/>
<path fill-rule="evenodd" d="M392.5,715.2h10.8V726H392.5V715.2Z" class="gb_77"/>
<path fill-rule="evenodd" d="M392.5,726h10.8v10.8H392.5V726Z" class="gb_77"/>
<path fill-rule="evenodd" d="M392.5,736.8h10.8v10.8H392.5V736.8Z" class="gb_77"/>
<path fill-rule="evenodd" d="M392.5,747.6h10.8v10.8H392.5V747.6Z" class="gb_77"/>
<path fill-rule="evenodd" d="M392.5,758.4h10.8v10.8H392.5V758.4Z" class="gb_77"/>
<path fill-rule="evenodd" d="M392.5,769.2h10.8V780H392.5V769.2Z" class="gb_77"/>
<path fill-rule="evenodd" d="M392.5,780h10.8v10.8H392.5V780Z" class="gb_77"/>
<path d="M392.5,801.6h10.8V790.8H392.5v10.8Z" class="g9_77"/>
<path d="M392.5,790.8h10.8v10.8H392.5V790.8Z" class="ga_77"/>
<path d="M403.3,682.8h10.8V672H403.3v10.8Z" class="g9_77"/>
<path d="M403.3,672h10.8v10.8H403.3V672Z" class="ga_77"/>
<path fill-rule="evenodd" d="M403.3,682.8h10.8v10.8H403.3V682.8Z" class="gb_77"/>
<path fill-rule="evenodd" d="M403.3,693.6h10.8v10.8H403.3V693.6Z" class="gb_77"/>
<path fill-rule="evenodd" d="M403.3,704.4h10.8v10.8H403.3V704.4Z" class="gb_77"/>
<path fill-rule="evenodd" d="M403.3,715.2h10.8V726H403.3V715.2Z" class="gb_77"/>
<path fill-rule="evenodd" d="M403.3,726h10.8v10.8H403.3V726Z" class="gb_77"/>
<path fill-rule="evenodd" d="M403.3,736.8h10.8v10.8H403.3V736.8Z" class="gb_77"/>
<path fill-rule="evenodd" d="M403.3,747.6h10.8v10.8H403.3V747.6Z" class="gb_77"/>
<path fill-rule="evenodd" d="M403.3,758.4h10.8v10.8H403.3V758.4Z" class="gb_77"/>
<path fill-rule="evenodd" d="M403.3,769.2h10.8V780H403.3V769.2Z" class="gb_77"/>
<path fill-rule="evenodd" d="M403.3,780h10.8v10.8H403.3V780Z" class="gb_77"/>
<path d="M403.3,801.6h10.8V790.8H403.3v10.8Z" class="g9_77"/>
<path d="M403.3,790.8h10.8v10.8H403.3V790.8Z" class="ga_77"/>
<path d="M414.1,682.8h10.8V672H414.1v10.8Z" class="g9_77"/>
<path d="M414.1,672h10.8v10.8H414.1V672Z" class="ga_77"/>
<path fill-rule="evenodd" d="M414.1,682.8h10.8v10.8H414.1V682.8Z" class="gb_77"/>
<path fill-rule="evenodd" d="M414.1,693.6h10.8v10.8H414.1V693.6Z" class="gb_77"/>
<path fill-rule="evenodd" d="M414.1,704.4h10.8v10.8H414.1V704.4Z" class="gb_77"/>
<path fill-rule="evenodd" d="M414.1,715.2h10.8V726H414.1V715.2Z" class="gb_77"/>
<path fill-rule="evenodd" d="M414.1,726h10.8v10.8H414.1V726Z" class="gb_77"/>
<path fill-rule="evenodd" d="M414.1,736.8h10.8v10.8H414.1V736.8Z" class="gb_77"/>
<path fill-rule="evenodd" d="M414.1,747.6h10.8v10.8H414.1V747.6Z" class="gb_77"/>
<path fill-rule="evenodd" d="M414.1,758.4h10.8v10.8H414.1V758.4Z" class="gb_77"/>
<path fill-rule="evenodd" d="M414.1,769.2h10.8V780H414.1V769.2Z" class="gb_77"/>
<path fill-rule="evenodd" d="M414.1,780h10.8v10.8H414.1V780Z" class="gb_77"/>
<path d="M414.1,801.6h10.8V790.8H414.1v10.8Z" class="g9_77"/>
<path d="M414.1,790.8h10.8v10.8H414.1V790.8Z" class="ga_77"/>
<path d="M424.9,682.8h10.8V672H424.9v10.8Z" class="g9_77"/>
<path d="M424.9,672h10.8v10.8H424.9V672Z" class="ga_77"/>
<path fill-rule="evenodd" d="M424.9,682.8h10.8v10.8H424.9V682.8Z" class="gb_77"/>
<path fill-rule="evenodd" d="M424.9,693.6h10.8v10.8H424.9V693.6Z" class="gb_77"/>
<path fill-rule="evenodd" d="M424.9,704.4h10.8v10.8H424.9V704.4Z" class="gb_77"/>
<path fill-rule="evenodd" d="M424.9,715.2h10.8V726H424.9V715.2Z" class="gb_77"/>
<path fill-rule="evenodd" d="M424.9,726h10.8v10.8H424.9V726Z" class="gb_77"/>
<path fill-rule="evenodd" d="M424.9,736.8h10.8v10.8H424.9V736.8Z" class="gb_77"/>
<path fill-rule="evenodd" d="M424.9,747.6h10.8v10.8H424.9V747.6Z" class="gb_77"/>
<path fill-rule="evenodd" d="M424.9,758.4h10.8v10.8H424.9V758.4Z" class="gb_77"/>
<path fill-rule="evenodd" d="M424.9,769.2h10.8V780H424.9V769.2Z" class="gb_77"/>
<path fill-rule="evenodd" d="M424.9,780h10.8v10.8H424.9V780Z" class="gb_77"/>
<path d="M424.9,801.6h10.8V790.8H424.9v10.8Z" class="g9_77"/>
<path d="M424.9,790.8h10.8v10.8H424.9V790.8Z" class="ga_77"/>
<path d="M435.7,682.8h10.8V672H435.7v10.8Z" class="g9_77"/>
<path d="M435.7,672h10.8v10.8H435.7V672Z" class="ga_77"/>
<path fill-rule="evenodd" d="M435.7,682.8h10.8v10.8H435.7V682.8Z" class="gb_77"/>
<path fill-rule="evenodd" d="M435.7,693.6h10.8v10.8H435.7V693.6Z" class="gb_77"/>
<path fill-rule="evenodd" d="M435.7,704.4h10.8v10.8H435.7V704.4Z" class="gb_77"/>
<path fill-rule="evenodd" d="M435.7,715.2h10.8V726H435.7V715.2Z" class="gb_77"/>
<path fill-rule="evenodd" d="M435.7,726h10.8v10.8H435.7V726Z" class="gb_77"/>
<path fill-rule="evenodd" d="M435.7,736.8h10.8v10.8H435.7V736.8Z" class="gb_77"/>
<path fill-rule="evenodd" d="M435.7,747.6h10.8v10.8H435.7V747.6Z" class="gb_77"/>
<path fill-rule="evenodd" d="M435.7,758.4h10.8v10.8H435.7V758.4Z" class="gb_77"/>
<path fill-rule="evenodd" d="M435.7,769.2h10.8V780H435.7V769.2Z" class="gb_77"/>
<path fill-rule="evenodd" d="M435.7,780h10.8v10.8H435.7V780Z" class="gb_77"/>
<path d="M435.7,801.6h10.8V790.8H435.7v10.8Z" class="g9_77"/>
<path d="M435.7,790.8h10.8v10.8H435.7V790.8Z" class="ga_77"/>
<path d="M446.5,682.8h10.8V672H446.5v10.8Z" class="g9_77"/>
<path d="M446.5,672h10.8v10.8H446.5V672Z" class="ga_77"/>
<path fill-rule="evenodd" d="M446.5,682.8h10.8v10.8H446.5V682.8Z" class="gb_77"/>
<path fill-rule="evenodd" d="M446.5,693.6h10.8v10.8H446.5V693.6Z" class="gb_77"/>
<path fill-rule="evenodd" d="M446.5,704.4h10.8v10.8H446.5V704.4Z" class="gb_77"/>
<path fill-rule="evenodd" d="M446.5,715.2h10.8V726H446.5V715.2Z" class="gb_77"/>
<path fill-rule="evenodd" d="M446.5,726h10.8v10.8H446.5V726Z" class="gb_77"/>
<path fill-rule="evenodd" d="M446.5,736.8h10.8v10.8H446.5V736.8Z" class="gb_77"/>
<path fill-rule="evenodd" d="M446.5,747.6h10.8v10.8H446.5V747.6Z" class="gb_77"/>
<path fill-rule="evenodd" d="M446.5,758.4h10.8v10.8H446.5V758.4Z" class="gb_77"/>
<path fill-rule="evenodd" d="M446.5,769.2h10.8V780H446.5V769.2Z" class="gb_77"/>
<path fill-rule="evenodd" d="M446.5,780h10.8v10.8H446.5V780Z" class="gb_77"/>
<path d="M446.5,801.6h10.8V790.8H446.5v10.8Z" class="g9_77"/>
<path d="M446.5,790.8h10.8v10.8H446.5V790.8Z" class="ga_77"/>
<path d="M457.3,682.8h10.8V672H457.3v10.8Z" class="g9_77"/>
<path d="M457.3,672h10.8v10.8H457.3V672Z" class="ga_77"/>
<path fill-rule="evenodd" d="M457.3,682.8h10.8v10.8H457.3V682.8Z" class="gb_77"/>
<path fill-rule="evenodd" d="M457.3,693.6h10.8v10.8H457.3V693.6Z" class="gb_77"/>
<path fill-rule="evenodd" d="M457.3,704.4h10.8v10.8H457.3V704.4Z" class="gb_77"/>
<path fill-rule="evenodd" d="M457.3,715.2h10.8V726H457.3V715.2Z" class="gb_77"/>
<path fill-rule="evenodd" d="M457.3,726h10.8v10.8H457.3V726Z" class="gb_77"/>
<path fill-rule="evenodd" d="M457.3,736.8h10.8v10.8H457.3V736.8Z" class="gb_77"/>
<path fill-rule="evenodd" d="M457.3,747.6h10.8v10.8H457.3V747.6Z" class="gb_77"/>
<path fill-rule="evenodd" d="M457.3,758.4h10.8v10.8H457.3V758.4Z" class="gb_77"/>
<path fill-rule="evenodd" d="M457.3,769.2h10.8V780H457.3V769.2Z" class="gb_77"/>
<path fill-rule="evenodd" d="M457.3,780h10.8v10.8H457.3V780Z" class="gb_77"/>
<path d="M457.3,801.6h10.8V790.8H457.3v10.8Z" class="g9_77"/>
<path d="M457.3,790.8h10.8v10.8H457.3V790.8Z" class="ga_77"/>
<path d="M468.1,682.8h10.8V672H468.1v10.8Z" class="g9_77"/>
<path d="M468.1,672h10.8v10.8H468.1V672Z" class="ga_77"/>
<path fill-rule="evenodd" d="M468.1,682.8h10.8v10.8H468.1V682.8Z" class="gb_77"/>
<path fill-rule="evenodd" d="M468.1,693.6h10.8v10.8H468.1V693.6Z" class="gb_77"/>
<path fill-rule="evenodd" d="M468.1,704.4h10.8v10.8H468.1V704.4Z" class="gb_77"/>
<path fill-rule="evenodd" d="M468.1,715.2h10.8V726H468.1V715.2Z" class="gb_77"/>
<path fill-rule="evenodd" d="M468.1,726h10.8v10.8H468.1V726Z" class="gb_77"/>
<path fill-rule="evenodd" d="M468.1,736.8h10.8v10.8H468.1V736.8Z" class="gb_77"/>
<path fill-rule="evenodd" d="M468.1,747.6h10.8v10.8H468.1V747.6Z" class="gb_77"/>
<path fill-rule="evenodd" d="M468.1,758.4h10.8v10.8H468.1V758.4Z" class="gb_77"/>
<path fill-rule="evenodd" d="M468.1,769.2h10.8V780H468.1V769.2Z" class="gb_77"/>
<path fill-rule="evenodd" d="M468.1,780h10.8v10.8H468.1V780Z" class="gb_77"/>
<path d="M468.1,801.6h10.8V790.8H468.1v10.8Z" class="g9_77"/>
<path d="M468.1,790.8h10.8v10.8H468.1V790.8Z" class="ga_77"/>
<path d="M478.9,682.8h10.8V672H478.9v10.8Z" class="g9_77"/>
<path d="M478.9,672h10.8v10.8H478.9V672Z" class="ga_77"/>
<path fill-rule="evenodd" d="M478.9,682.8h10.8v10.8H478.9V682.8Z" class="gb_77"/>
<path fill-rule="evenodd" d="M478.9,693.6h10.8v10.8H478.9V693.6Z" class="gb_77"/>
<path fill-rule="evenodd" d="M478.9,704.4h10.8v10.8H478.9V704.4Z" class="gb_77"/>
<path fill-rule="evenodd" d="M478.9,715.2h10.8V726H478.9V715.2Z" class="gb_77"/>
<path fill-rule="evenodd" d="M478.9,726h10.8v10.8H478.9V726Z" class="gb_77"/>
<path fill-rule="evenodd" d="M478.9,736.8h10.8v10.8H478.9V736.8Z" class="gb_77"/>
<path fill-rule="evenodd" d="M478.9,747.6h10.8v10.8H478.9V747.6Z" class="gb_77"/>
<path fill-rule="evenodd" d="M478.9,758.4h10.8v10.8H478.9V758.4Z" class="gb_77"/>
<path fill-rule="evenodd" d="M478.9,769.2h10.8V780H478.9V769.2Z" class="gb_77"/>
<path fill-rule="evenodd" d="M478.9,780h10.8v10.8H478.9V780Z" class="gb_77"/>
<path d="M478.9,801.6h10.8V790.8H478.9v10.8Z" class="g9_77"/>
<path d="M478.9,790.8h10.8v10.8H478.9V790.8Z" class="ga_77"/>
<path d="M489.7,682.8h10.8V672H489.7v10.8Z" class="g9_77"/>
<path d="M489.7,672h10.8v10.8H489.7V672Z" class="ga_77"/>
<path d="M489.7,693.6h10.8V682.8H489.7v10.8Z" class="g9_77"/>
<path d="M489.7,682.8h10.8v10.8H489.7V682.8Z" class="ga_77"/>
<path d="M489.7,704.4h10.8V693.6H489.7v10.8Z" class="g9_77"/>
<path d="M489.7,693.6h10.8v10.8H489.7V693.6Z" class="ga_77"/>
<path d="M489.7,715.2h10.8V704.4H489.7v10.8Z" class="g9_77"/>
<path d="M489.7,704.4h10.8v10.8H489.7V704.4Z" class="ga_77"/>
<path d="M489.7,726h10.8V715.2H489.7V726Z" class="g9_77"/>
<path d="M489.7,715.2h10.8V726H489.7V715.2Z" class="ga_77"/>
<path d="M489.7,736.8h10.8V726H489.7v10.8Z" class="g9_77"/>
<path d="M489.7,726h10.8v10.8H489.7V726Z" class="ga_77"/>
<path d="M489.7,747.6h10.8V736.8H489.7v10.8Z" class="g9_77"/>
<path d="M489.7,736.8h10.8v10.8H489.7V736.8Z" class="ga_77"/>
<path d="M489.7,758.4h10.8V747.6H489.7v10.8Z" class="g9_77"/>
<path d="M489.7,747.6h10.8v10.8H489.7V747.6Z" class="ga_77"/>
<path d="M489.7,769.2h10.8V758.4H489.7v10.8Z" class="g9_77"/>
<path d="M489.7,758.4h10.8v10.8H489.7V758.4Z" class="ga_77"/>
<path d="M489.7,780h10.8V769.2H489.7V780Z" class="g9_77"/>
<path d="M489.7,769.2h10.8V780H489.7V769.2Z" class="ga_77"/>
<path d="M489.7,790.8h10.8V780H489.7v10.8Z" class="g9_77"/>
<path d="M489.7,780h10.8v10.8H489.7V780Z" class="ga_77"/>
<path d="M489.7,801.6h10.8V790.8H489.7v10.8Z" class="g9_77"/>
<path d="M489.7,790.8h10.8v10.8H489.7V790.8Z" class="ga_77"/>
<path d="M500.5,682.8h.5V672h-.5v10.8Z" class="g9_77"/>
<path clip-path="url(#c1_77)" d="M500.5,672h10.8v10.8H500.5V672Z" class="ga_77"/>
<path d="M500.5,693.6h.5V682.8h-.5v10.8Z" class="g9_77"/>
<path clip-path="url(#c2_77)" d="M500.5,682.8h10.8v10.8H500.5V682.8Z" class="ga_77"/>
<path d="M500.5,704.4h.5V693.6h-.5v10.8Z" class="g9_77"/>
<path clip-path="url(#c2_77)" d="M500.5,693.6h10.8v10.8H500.5V693.6Z" class="ga_77"/>
<path d="M500.5,715.2h.5V704.4h-.5v10.8Z" class="g9_77"/>
<path clip-path="url(#c2_77)" d="M500.5,704.4h10.8v10.8H500.5V704.4Z" class="ga_77"/>
<path d="M500.5,726h.5V715.2h-.5V726Z" class="g9_77"/>
<path clip-path="url(#c2_77)" d="M500.5,715.2h10.8V726H500.5V715.2Z" class="ga_77"/>
<path d="M500.5,736.8h.5V726h-.5v10.8Z" class="g9_77"/>
<path clip-path="url(#c2_77)" d="M500.5,726h10.8v10.8H500.5V726Z" class="ga_77"/>
<path d="M500.5,747.6h.5V736.8h-.5v10.8Z" class="g9_77"/>
<path clip-path="url(#c2_77)" d="M500.5,736.8h10.8v10.8H500.5V736.8Z" class="ga_77"/>
<path d="M500.5,758.4h.5V747.6h-.5v10.8Z" class="g9_77"/>
<path clip-path="url(#c2_77)" d="M500.5,747.6h10.8v10.8H500.5V747.6Z" class="ga_77"/>
<path d="M500.5,769.2h.5V758.4h-.5v10.8Z" class="g9_77"/>
<path clip-path="url(#c2_77)" d="M500.5,758.4h10.8v10.8H500.5V758.4Z" class="ga_77"/>
<path d="M500.5,780h.5V769.2h-.5V780Z" class="g9_77"/>
<path clip-path="url(#c2_77)" d="M500.5,769.2h10.8V780H500.5V769.2Z" class="ga_77"/>
<path d="M500.5,790.8h.5V780h-.5v10.8Z" class="g9_77"/>
<path clip-path="url(#c2_77)" d="M500.5,780h10.8v10.8H500.5V780Z" class="ga_77"/>
<path d="M500.5,801.6h.5V790.8h-.5v10.8Z" class="g9_77"/>
<path clip-path="url(#c1_77)" d="M500.5,790.8h10.8v10.8H500.5V790.8Z" class="ga_77"/>
<path clip-path="url(#c2_77)" d="M522,780l32.7,-11V736.6l-33,-32L522,780Zm-86.5,0h54.2V747.4L457.4,725.9L435.5,780ZM349.3,769l32.6,11.3l32.4,-54.4L381.9,693.5L349.3,769Zm-86.5,21.8L241.6,747.4l64.9,-64.6L317,747.7l-54.2,43.1Z" class="gc_77"/>
<path d="M248.8,900.6l114,11l-29,49.6H266.9L248.8,900.6Zm18.1,59.9l95.9,-48.3" class="gd_77"/>
<path d="M276.6,955.4L248.8,900.3m84.8,61L319.8,934" class="ge_77"/>
<path fill-rule="evenodd" d="M272.6,927.6c-.7,-.6,-1.2,-1.1,-1.4,-1.4c-.2,-.4,-.3,-.8,-.3,-1.2c0,-.6,.2,-1.1,.7,-1.5c.4,-.4,1,-.6,1.8,-.6c.7,0,1.3,.2,1.7,.6c.5,.4,.7,.8,.7,1.3c0,.4,-.1,.7,-.3,1.1c-.3,.3,-.8,.7,-1.6,1.2c.8,.6,1.4,1.1,1.6,1.5c.3,.4,.5,.9,.5,1.4c0,.6,-.2,1.2,-.7,1.6c-.5,.5,-1.1,.7,-1.9,.7c-.9,0,-1.6,-.2,-2.1,-.8c-.3,-.4,-.5,-.9,-.5,-1.4c0,-.4,.1,-.8,.4,-1.2c.2,-.4,.7,-.8,1.4,-1.3m1,-.7c.6,-.5,.9,-.9,1,-1.2c.2,-.3,.3,-.6,.3,-.9c0,-.5,-.2,-.9,-.4,-1.1c-.3,-.3,-.7,-.4,-1.1,-.4c-.5,0,-.8,.1,-1.1,.4c-.3,.2,-.5,.5,-.5,.9c0,.2,.1,.4,.2,.7c.1,.2,.3,.4,.5,.6Zm-.7,.9c-.4,.3,-.7,.7,-.8,1.1c-.2,.3,-.3,.7,-.3,1.2c0,.5,.2,1,.5,1.3c.3,.4,.7,.6,1.2,.6c.5,0,.8,-.2,1.1,-.4c.3,-.3,.5,-.7,.5,-1c0,-.4,-.1,-.7,-.3,-.9c-.3,-.5,-.9,-1.1,-1.9,-1.9Z" class="g2_77"/>
<path fill-rule="evenodd" d="M297.4,929.1l2.2,-1.1h.2v7.7c0,.5,0,.8,.1,.9c0,.2,.1,.3,.2,.3c.2,.1,.4,.1,.8,.1v.3h-3.4V937c.5,0,.7,0,.9,-.1c.1,0,.2,-.1,.2,-.2c.1,-.1,.1,-.5,.1,-1v-4.9c0,-.7,0,-1.1,-.1,-1.3c0,-.2,-.1,-.3,-.1,-.3c-.1,-.1,-.2,-.1,-.3,-.1c-.2,0,-.4,0,-.7,.2Z" class="g2_77"/>
<path fill-rule="evenodd" d="M308.9,935.5l-.6,1.8h-5.4V937c1.6,-1.4,2.7,-2.6,3.4,-3.5c.6,-.9,.9,-1.7,.9,-2.5c0,-.6,-.2,-1.1,-.5,-1.4c-.4,-.4,-.8,-.6,-1.3,-.6c-.4,0,-.8,.1,-1.2,.4c-.3,.3,-.6,.7,-.8,1.2h-.2c.1,-.9,.4,-1.5,.8,-1.9c.5,-.5,1.1,-.7,1.8,-.7c.7,0,1.3,.2,1.8,.7c.5,.5,.8,1,.8,1.7c0,.4,-.1,.9,-.4,1.4c-.3,.7,-.8,1.5,-1.6,2.3c-1.1,1.2,-1.8,1.9,-2,2.2h2.3c.5,0,.8,-.1,1,-.1c.2,0,.4,-.1,.6,-.2c.1,-.1,.3,-.3,.4,-.5Z" class="g2_77"/>
<path fill-rule="evenodd" d="M316.6,946.8c.3,-.6,.6,-1,1,-1.4c.4,-.3,.9,-.5,1.5,-.5c.7,0,1.3,.3,1.7,.7c.3,.4,.4,.8,.4,1.2c0,.6,-.4,1.3,-1.2,2c.5,.2,1,.6,1.2,1c.3,.4,.5,.9,.5,1.4c0,.8,-.3,1.5,-.8,2.1c-.6,.7,-1.6,1.1,-2.8,1.1c-.6,0,-1,-.1,-1.3,-.2c-.2,-.2,-.3,-.4,-.3,-.5c0,-.2,.1,-.3,.2,-.4c.1,-.1,.2,-.1,.3,-.1c.2,0,.3,0,.4,0c.1,0,.2,.1,.5,.3c.3,.1,.5,.2,.6,.2c.1,.1,.3,.1,.5,.1c.4,0,.8,-.2,1.2,-.5c.3,-.4,.5,-.8,.5,-1.3c0,-.3,-.1,-.7,-.3,-1c-.1,-.3,-.2,-.5,-.3,-.6c-.2,-.2,-.5,-.3,-.8,-.5c-.4,-.1,-.7,-.2,-1.1,-.2H318v-.2c.4,0,.7,-.2,1.1,-.4c.4,-.2,.6,-.4,.8,-.7c.1,-.3,.2,-.7,.2,-1c0,-.5,-.1,-.8,-.4,-1.1c-.3,-.3,-.7,-.5,-1.1,-.5c-.7,0,-1.3,.4,-1.7,1.2Z" class="g2_77"/>
<path d="M273,947.7c-3.4,3.2,-4.3,6.8,-2.6,10.9m53.4,-17c3.5,-3.3,4.3,-6.9,2.6,-11" class="gd_77"/>
<path fill-rule="evenodd" d="M272.9,953.1c.4,0,.8,.4,.8,.8c0,.5,-.4,.9,-.8,.9c-.5,0,-.8,-.4,-.8,-.9c0,-.4,.3,-.8,.8,-.8Z" class="g2_77"/>
<path d="M272.9,953.1c.4,0,.8,.4,.8,.8c0,.5,-.4,.9,-.8,.9c-.5,0,-.8,-.4,-.8,-.9c0,-.4,.3,-.8,.8,-.8Z" class="gd_77"/>
<path fill-rule="evenodd" d="M324,936.1c-.4,0,-.8,-.4,-.8,-.8c0,-.5,.4,-.8,.8,-.8c.5,0,.8,.3,.8,.8c0,.4,-.3,.8,-.8,.8Z" class="g2_77"/>
<path d="M324,936.1c-.4,0,-.8,-.4,-.8,-.8c0,-.5,.4,-.8,.8,-.8c.5,0,.8,.3,.8,.8c0,.4,-.3,.8,-.8,.8ZM399.6,924l99.2,-16.8l-18.2,60.3h-81V924Zm.1,.2l80.7,43.1" class="gd_77"/>
<path d="M470,961l28.8,-54m-99,60.1l17.9,-33.5" class="ge_77"/>
<path fill-rule="evenodd" d="M470.1,923.3l2.2,-1.1h.2v7.7c0,.5,0,.9,.1,1c0,.1,.1,.2,.3,.3c.1,0,.4,.1,.8,.1v.2h-3.5v-.2c.5,0,.8,-.1,.9,-.1c.1,-.1,.2,-.2,.2,-.3c.1,-.1,.1,-.4,.1,-1V925c0,-.6,0,-1.1,-.1,-1.3c0,-.1,0,-.2,-.1,-.3c-.1,0,-.2,-.1,-.3,-.1c-.2,0,-.4,.1,-.7,.2Z" class="g2_77"/>
<path fill-rule="evenodd" d="M481.7,929.8l-.7,1.7h-5.4v-.2c1.6,-1.5,2.7,-2.6,3.4,-3.5c.6,-1,.9,-1.8,.9,-2.5c0,-.6,-.1,-1.1,-.5,-1.5c-.3,-.3,-.8,-.5,-1.3,-.5c-.4,0,-.8,.1,-1.2,.4c-.3,.2,-.6,.6,-.7,1.1h-.3c.1,-.8,.4,-1.4,.9,-1.9c.4,-.4,1,-.7,1.7,-.7c.7,0,1.4,.3,1.9,.8c.4,.4,.7,1,.7,1.6c0,.5,-.1,1,-.3,1.4c-.4,.7,-.9,1.5,-1.6,2.3c-1.2,1.2,-1.8,2,-2.1,2.2h2.4c.4,0,.8,0,1,0c.2,-.1,.3,-.1,.5,-.2c.2,-.2,.3,-.3,.4,-.5Z" class="g2_77"/>
<path d="M410.9,930.4c-1.5,4.5,-.6,8.1,2.8,10.9M476,964.5c1.7,-4.4,.8,-8.1,-2.5,-11" class="gd_77"/>
<path fill-rule="evenodd" d="M413.3,934.4c.4,-.2,.9,0,1.1,.3c.2,.4,.1,.9,-.3,1.1c-.4,.2,-.9,.1,-1.1,-.3c-.2,-.4,-.1,-.9,.3,-1.1Z" class="g2_77"/>
<path d="M413.3,934.4c.4,-.2,.9,0,1.1,.3c.2,.4,.1,.9,-.3,1.1c-.4,.2,-.9,.1,-1.1,-.3c-.2,-.4,-.1,-.9,.3,-1.1Z" class="gd_77"/>
<path fill-rule="evenodd" d="M474.2,960.5c-.4,.2,-.9,0,-1,-.4c-.2,-.4,-.1,-.9,.3,-1.1c.4,-.2,.9,0,1.1,.4c.2,.4,0,.9,-.4,1.1Z" class="g2_77"/>
<path d="M474.2,960.5c-.4,.2,-.9,0,-1,-.4c-.2,-.4,-.1,-.9,.3,-1.1c.4,-.2,.9,0,1.1,.4c.2,.4,0,.9,-.4,1.1Z" class="gd_77"/>
<path fill-rule="evenodd" d="M412.8,951.4l2.2,-1.1h.2V958c0,.5,0,.8,.1,1c0,.1,.1,.2,.2,.2c.2,.1,.5,.2,.9,.2v.2h-3.5v-.2c.5,0,.7,-.1,.9,-.1c.1,-.1,.2,-.2,.2,-.3c.1,-.1,.1,-.4,.1,-1v-4.9c0,-.7,0,-1.1,-.1,-1.3c0,-.1,0,-.2,-.1,-.3c-.1,-.1,-.2,-.1,-.3,-.1c-.2,0,-.4,.1,-.7,.2Z" class="g2_77"/>
<path fill-rule="evenodd" d="M418.5,955.1c0,-1,.2,-1.9,.5,-2.7c.3,-.7,.7,-1.3,1.3,-1.6c.4,-.3,.8,-.5,1.2,-.5c.7,0,1.3,.4,1.9,1.1c.7,.9,1,2.1,1,3.6c0,1,-.1,1.9,-.4,2.7c-.3,.7,-.7,1.2,-1.2,1.6c-.5,.3,-.9,.5,-1.4,.5c-.8,0,-1.6,-.5,-2.1,-1.6c-.5,-.8,-.8,-1.9,-.8,-3.1m1.4,.2c0,1.2,.1,2.3,.4,3c.3,.7,.7,1.1,1.2,1.1c.2,0,.5,-.2,.7,-.4c.3,-.2,.5,-.6,.6,-1.1c.2,-.7,.3,-1.8,.3,-3.2c0,-1.1,-.1,-1.9,-.3,-2.6c-.2,-.5,-.4,-.9,-.6,-1.1c-.2,-.2,-.4,-.2,-.7,-.2c-.3,0,-.6,.1,-.8,.4c-.3,.3,-.6,.9,-.7,1.7c-.1,.8,-.1,1.6,-.1,2.4Z" class="g2_77"/>
<path fill-rule="evenodd" d="M444.3,936.7l2.2,-1.1h.3v7.7c0,.5,0,.8,0,1c.1,.1,.1,.2,.3,.2c.1,.1,.4,.2,.8,.2v.2h-3.4v-.2c.4,0,.7,-.1,.8,-.1c.1,-.1,.2,-.2,.3,-.3c0,-.1,0,-.4,0,-1v-4.9c0,-.7,0,-1.1,0,-1.3c-.1,-.1,-.1,-.2,-.2,-.3c-.1,-.1,-.2,-.1,-.3,-.1c-.2,0,-.4,.1,-.7,.2Z" class="g2_77"/>
<path fill-rule="evenodd" d="M452.2,940.3c-.7,-.6,-1.2,-1,-1.4,-1.4c-.2,-.4,-.3,-.7,-.3,-1.1c0,-.6,.2,-1.1,.7,-1.5c.5,-.5,1.1,-.7,1.8,-.7c.7,0,1.3,.2,1.8,.6c.4,.4,.7,.9,.7,1.4c0,.3,-.2,.7,-.4,1c-.2,.4,-.7,.8,-1.5,1.3c.8,.6,1.3,1.1,1.6,1.4c.3,.5,.5,.9,.5,1.5c0,.6,-.3,1.1,-.8,1.6c-.5,.4,-1.1,.7,-1.9,.7c-.9,0,-1.5,-.3,-2,-.8c-.4,-.5,-.6,-.9,-.6,-1.5c0,-.4,.1,-.8,.4,-1.2c.3,-.4,.8,-.8,1.4,-1.3m1.1,-.7c.5,-.5,.8,-.9,1,-1.1c.1,-.3,.2,-.6,.2,-1c0,-.5,-.1,-.8,-.4,-1.1c-.3,-.3,-.6,-.4,-1.1,-.4c-.4,0,-.8,.1,-1.1,.4c-.3,.3,-.4,.6,-.4,.9c0,.3,0,.5,.2,.7c.1,.3,.2,.5,.5,.7Zm-.8,1c-.3,.3,-.6,.6,-.8,1c-.2,.4,-.3,.8,-.3,1.2c0,.6,.2,1,.5,1.4c.3,.3,.7,.5,1.2,.5c.5,0,.9,-.1,1.2,-.4c.3,-.3,.4,-.6,.4,-1c0,-.3,-.1,-.6,-.2,-.9c-.4,-.4,-1,-1.1,-2,-1.8Z" class="g2_77"/>
<path d="M573.6,462.7h11.3m85.9,0h11.4" class="gf_77"/>
<path d="M290.3,982.7l59.6,18.4L321.1,1059H261.3l29,-76.3Zm.2,67.7c-4.5,1.4,-6.8,4.3,-7.1,8.7m54.7,-52.4c-1,4.6,.4,8.1,4.1,10.4" class="gd_77"/>
<path fill-rule="evenodd" d="M288.8,1054.7c.4,.2,.5,.7,.3,1.1c-.2,.4,-.6,.5,-1,.3c-.4,-.1,-.6,-.6,-.4,-1c.2,-.4,.7,-.6,1.1,-.4Z" class="g2_77"/>
<path d="M288.8,1054.7c.4,.2,.5,.7,.3,1.1c-.2,.4,-.6,.5,-1,.3c-.4,-.1,-.6,-.6,-.4,-1c.2,-.4,.7,-.6,1.1,-.4Z" class="gd_77"/>
<path fill-rule="evenodd" d="M340.5,1010.4c.3,-.3,.8,-.2,1.1,.2c.2,.3,.1,.8,-.2,1.1c-.4,.2,-.9,.2,-1.2,-.2c-.2,-.4,-.1,-.9,.3,-1.1Z" class="g2_77"/>
<path d="M340.5,1010.4c.3,-.3,.8,-.2,1.1,.2c.2,.3,.1,.8,-.2,1.1c-.4,.2,-.9,.2,-1.2,-.2c-.2,-.4,-.1,-.9,.3,-1.1Z" class="gd_77"/>
<path d="M290.7,982.7v76m-.5,-75.8l55.2,27.3" class="ge_77"/>
<path fill-rule="evenodd" d="M298,1014.3c-.7,-.6,-1.2,-1.1,-1.4,-1.4c-.2,-.4,-.3,-.8,-.3,-1.2c0,-.6,.2,-1.1,.7,-1.5c.4,-.4,1,-.6,1.8,-.6c.7,0,1.3,.2,1.8,.6c.4,.4,.6,.8,.6,1.3c0,.4,-.1,.7,-.3,1.1c-.3,.3,-.8,.7,-1.5,1.2c.7,.6,1.3,1.1,1.5,1.5c.4,.4,.5,.9,.5,1.4c0,.6,-.2,1.2,-.7,1.6c-.5,.5,-1.1,.7,-1.9,.7c-.9,0,-1.6,-.2,-2,-.8c-.4,-.4,-.6,-.9,-.6,-1.4c0,-.4,.1,-.8,.4,-1.2c.3,-.4,.7,-.8,1.4,-1.3m1,-.7c.6,-.5,.9,-.9,1.1,-1.2c.1,-.3,.2,-.6,.2,-.9c0,-.5,-.2,-.9,-.4,-1.1c-.3,-.3,-.6,-.4,-1.1,-.4c-.5,0,-.8,.1,-1.1,.4c-.3,.2,-.4,.5,-.4,.9c0,.2,0,.4,.1,.7c.2,.2,.3,.4,.5,.6Zm-.7,.9c-.4,.3,-.6,.7,-.8,1.1c-.2,.3,-.3,.7,-.3,1.2c0,.5,.2,1,.5,1.3c.3,.4,.7,.6,1.2,.6c.5,0,.9,-.2,1.1,-.4c.3,-.3,.5,-.7,.5,-1c0,-.4,-.1,-.7,-.3,-.9c-.3,-.5,-.9,-1.1,-1.9,-1.9Z" class="g2_77"/>
<path fill-rule="evenodd" d="M320.3,1001.4v.2c-.6,.1,-1.1,.2,-1.5,.4c-.3,.2,-.7,.4,-1.1,.8c-.3,.4,-.6,.8,-.9,1.2c-.2,.4,-.4,1,-.6,1.6c.7,-.5,1.3,-.7,2,-.7c.6,0,1.1,.3,1.6,.8c.4,.5,.7,1.1,.7,1.9c0,.8,-.3,1.5,-.7,2.1c-.6,.8,-1.3,1.1,-2.2,1.1c-.7,0,-1.2,-.2,-1.6,-.6c-.9,-.8,-1.3,-1.8,-1.3,-3.1c0,-.8,.2,-1.6,.5,-2.3c.3,-.8,.8,-1.4,1.4,-2c.6,-.5,1.2,-.9,1.7,-1.1c.6,-.2,1.1,-.3,1.6,-.3Zm-4.2,4.7c-.1,.6,-.1,1.1,-.1,1.4c0,.5,.1,.9,.2,1.4c.2,.5,.4,.9,.7,1.2c.3,.2,.5,.4,.9,.4c.4,0,.7,-.2,1,-.6c.3,-.4,.5,-.9,.5,-1.6c0,-.7,-.2,-1.4,-.5,-2c-.3,-.5,-.7,-.8,-1.3,-.8c-.2,0,-.3,0,-.5,.1c-.2,.1,-.5,.2,-.9,.5Z" class="g2_77"/>
<path fill-rule="evenodd" d="M339.4,1035.6l2.2,-1.1h.2v7.7c0,.5,0,.8,.1,.9c0,.1,.1,.2,.3,.3c.1,.1,.4,.1,.8,.1v.3h-3.5v-.3c.5,0,.8,0,.9,-.1c.1,-.1,.2,-.1,.2,-.3c.1,-.1,.1,-.4,.1,-.9v-5c0,-.6,0,-1,0,-1.2c-.1,-.2,-.1,-.3,-.2,-.3c-.1,-.1,-.2,-.1,-.3,-.1c-.2,0,-.4,0,-.7,.2Z" class="g2_77"/>
<path fill-rule="evenodd" d="M350.8,1034.5v.2c-.6,.1,-1.1,.2,-1.4,.4c-.4,.2,-.8,.4,-1.1,.8c-.4,.3,-.7,.7,-.9,1.2c-.3,.4,-.5,1,-.6,1.6c.6,-.5,1.2,-.7,1.9,-.7c.6,0,1.2,.3,1.6,.8c.5,.5,.7,1.1,.7,1.9c0,.8,-.2,1.5,-.7,2.1c-.5,.7,-1.3,1.1,-2.2,1.1c-.6,0,-1.1,-.2,-1.6,-.6c-.8,-.8,-1.3,-1.8,-1.3,-3.1c0,-.8,.2,-1.6,.5,-2.3c.4,-.8,.8,-1.4,1.4,-2c.6,-.6,1.2,-.9,1.8,-1.1c.5,-.2,1,-.3,1.5,-.3Zm-4.2,4.7c0,.6,-.1,1.1,-.1,1.4c0,.5,.1,.9,.3,1.4c.1,.5,.4,.9,.7,1.2c.2,.2,.5,.3,.8,.3c.4,0,.7,-.1,1,-.5c.3,-.4,.5,-.9,.5,-1.6c0,-.7,-.1,-1.4,-.5,-2c-.3,-.5,-.7,-.8,-1.3,-.8c-.1,0,-.3,0,-.5,.1c-.2,.1,-.5,.2,-.9,.5Z" class="g2_77"/>
<path fill-rule="evenodd" d="M289.9,1064.1l2.2,-1.1h.3v7.7c0,.5,0,.9,0,1c.1,.1,.2,.2,.3,.3c.1,0,.4,.1,.8,.1v.2h-3.4v-.2c.4,0,.7,-.1,.8,-.1c.1,-.1,.2,-.2,.3,-.3c0,-.1,.1,-.4,.1,-1v-4.9c0,-.6,-.1,-1.1,-.1,-1.3c0,-.1,-.1,-.2,-.2,-.3c-.1,0,-.2,-.1,-.3,-.1c-.1,0,-.4,.1,-.7,.2Z" class="g2_77"/>
<path fill-rule="evenodd" d="M301.5,1070.6l-.6,1.7h-5.4v-.2c1.6,-1.5,2.7,-2.6,3.3,-3.5c.7,-1,1,-1.8,1,-2.5c0,-.6,-.2,-1.1,-.5,-1.5c-.4,-.3,-.8,-.5,-1.3,-.5c-.5,0,-.9,.1,-1.2,.4c-.4,.2,-.6,.6,-.8,1.1h-.3c.2,-.8,.4,-1.4,.9,-1.9c.5,-.4,1.1,-.7,1.7,-.7c.8,0,1.4,.3,1.9,.8c.5,.4,.7,1,.7,1.6c0,.5,-.1,1,-.3,1.4c-.3,.7,-.9,1.5,-1.6,2.3c-1.1,1.2,-1.8,2,-2.1,2.2h2.4c.5,0,.8,0,1,0c.2,-.1,.4,-.1,.5,-.3c.2,-.1,.3,-.2,.4,-.4Z" class="g2_77"/>
<path d="M431.4,997.8l42.3,11.9l14.1,49.9H400.5l30.9,-61.8Zm31.8,21.2c-4.2,-2,-7.9,-1.5,-11.1,1.6m-20.7,31.1c-4.6,.8,-7.3,3.4,-8.1,7.8" class="gd_77"/>
<path fill-rule="evenodd" d="M458.1,1020.9c.1,.4,-.1,.9,-.5,1c-.4,.2,-.9,0,-1,-.4c-.2,-.4,0,-.9,.4,-1.1c.5,-.1,.9,.1,1.1,.5Z" class="g2_77"/>
<path d="M458.1,1020.9c.1,.4,-.1,.9,-.5,1c-.4,.2,-.9,0,-1,-.4c-.2,-.4,0,-.9,.4,-1.1c.5,-.1,.9,.1,1.1,.5Z" class="gd_77"/>
<path fill-rule="evenodd" d="M428.3,1056.2c.4,.2,.5,.7,.3,1.1c-.3,.4,-.8,.5,-1.2,.2c-.3,-.2,-.4,-.7,-.2,-1.1c.2,-.3,.7,-.4,1.1,-.2Z" class="g2_77"/>
<path d="M428.3,1056.2c.4,.2,.5,.7,.3,1.1c-.3,.4,-.8,.5,-1.2,.2c-.3,-.2,-.4,-.7,-.2,-1.1c.2,-.3,.7,-.4,1.1,-.2Zm3.4,-58.4l56,61.9" class="gd_77"/>
<path d="M456.4,1025.4l17.4,-15.8M431.5,997.8v61.7" class="ge_77"/>
<path fill-rule="evenodd" d="M418.4,1031.7l2.2,-1.1h.2v7.7c0,.5,0,.9,.1,1c0,.1,.1,.2,.2,.3c.2,0,.4,.1,.8,.1v.2h-3.4v-.2c.5,0,.7,-.1,.9,-.1c.1,-.1,.2,-.2,.2,-.3c.1,-.1,.1,-.4,.1,-1v-4.9c0,-.6,0,-1.1,-.1,-1.3c0,-.1,-.1,-.2,-.1,-.3c-.1,0,-.2,-.1,-.3,-.1c-.2,0,-.4,.1,-.7,.2Z" class="g2_77"/>
<path fill-rule="evenodd" d="M429.9,1038.2l-.6,1.7h-5.4v-.2c1.6,-1.5,2.7,-2.6,3.4,-3.5c.6,-1,.9,-1.8,.9,-2.5c0,-.6,-.2,-1.1,-.5,-1.5c-.4,-.3,-.8,-.5,-1.3,-.5c-.4,0,-.8,.1,-1.2,.4c-.3,.2,-.6,.6,-.8,1.1h-.2c.1,-.8,.4,-1.4,.8,-1.9c.5,-.4,1.1,-.7,1.8,-.7c.7,0,1.3,.3,1.8,.8c.5,.4,.8,1,.8,1.6c0,.5,-.1,1,-.4,1.4c-.3,.7,-.8,1.5,-1.6,2.3c-1.1,1.2,-1.8,2,-2,2.2h2.3c.5,0,.8,0,1,0c.2,-.1,.4,-.1,.6,-.3c.1,-.1,.3,-.2,.4,-.4Z" class="g2_77"/>
<path fill-rule="evenodd" d="M471.2,1018.3l-.5,1.2h-2.8l-.6,1.2c1.2,.2,2.2,.6,2.9,1.3c.6,.6,.9,1.3,.9,2.2c0,.4,-.1,.9,-.3,1.3c-.2,.4,-.5,.7,-.8,1c-.3,.3,-.6,.5,-1,.7c-.5,.3,-1,.4,-1.5,.4c-.6,0,-1,-.1,-1.2,-.3c-.3,-.2,-.4,-.4,-.4,-.6c0,-.1,0,-.2,.1,-.3c.1,-.1,.3,-.2,.4,-.2c.1,0,.3,0,.3,.1c.1,0,.3,.1,.5,.2c.3,.3,.7,.4,1,.4c.5,0,1,-.2,1.4,-.6c.4,-.4,.6,-.9,.6,-1.4c0,-.6,-.2,-1.1,-.6,-1.6c-.3,-.5,-.8,-.8,-1.4,-1.1c-.5,-.2,-1.2,-.3,-2,-.3l1.7,-3.6Z" class="g2_77"/>
<path fill-rule="evenodd" d="M453.7,1040.9l2.2,-1.1h.2v7.7c0,.5,0,.8,.1,.9c0,.2,.1,.3,.2,.3c.2,.1,.4,.1,.8,.1v.3h-3.4v-.3c.5,0,.7,0,.9,-.1c.1,0,.2,-.1,.2,-.2c.1,-.1,.1,-.5,.1,-1v-4.9c0,-.7,0,-1.1,-.1,-1.3c0,-.1,-.1,-.3,-.1,-.3c-.1,-.1,-.2,-.1,-.3,-.1c-.2,0,-.4,.1,-.7,.2Z" class="g2_77"/>
<path fill-rule="evenodd" d="M465.1,1039.8v.3c-.6,0,-1.1,.1,-1.5,.3c-.3,.2,-.7,.4,-1.1,.8c-.3,.4,-.6,.8,-.9,1.2c-.2,.5,-.4,1,-.6,1.6c.7,-.4,1.3,-.7,2,-.7c.6,0,1.1,.3,1.6,.8c.4,.5,.7,1.1,.7,1.9c0,.8,-.3,1.5,-.7,2.1c-.6,.8,-1.3,1.2,-2.2,1.2c-.6,0,-1.2,-.3,-1.6,-.7c-.9,-.8,-1.3,-1.8,-1.3,-3.1c0,-.8,.2,-1.6,.5,-2.3c.3,-.7,.8,-1.4,1.4,-2c.6,-.5,1.2,-.9,1.7,-1.1c.6,-.2,1.1,-.3,1.6,-.3Zm-4.2,4.7c-.1,.6,-.1,1.1,-.1,1.5c0,.4,.1,.9,.2,1.4c.2,.5,.4,.9,.7,1.2c.3,.2,.5,.3,.9,.3c.4,0,.7,-.2,1,-.6c.3,-.3,.5,-.9,.5,-1.5c0,-.8,-.2,-1.5,-.5,-2c-.3,-.6,-.7,-.9,-1.3,-.9c-.1,0,-.3,.1,-.5,.1c-.2,.1,-.5,.3,-.9,.5Z" class="g2_77"/>
<path fill-rule="evenodd" d="M443.9,1071.1l-.7,1.8h-5.4v-.3c1.6,-1.4,2.7,-2.6,3.4,-3.5c.6,-.9,.9,-1.8,.9,-2.5c0,-.6,-.1,-1.1,-.5,-1.4c-.3,-.4,-.8,-.6,-1.3,-.6c-.4,0,-.8,.1,-1.2,.4c-.3,.3,-.6,.6,-.7,1.1h-.3c.1,-.8,.4,-1.4,.9,-1.9c.4,-.4,1,-.6,1.7,-.6c.7,0,1.4,.2,1.9,.7c.4,.5,.7,1,.7,1.7c0,.4,-.1,.9,-.3,1.3c-.4,.8,-.9,1.5,-1.6,2.4c-1.2,1.2,-1.8,1.9,-2.1,2.2h2.3c.5,0,.9,-.1,1.1,-.1c.2,0,.3,-.1,.5,-.2c.1,-.1,.3,-.3,.4,-.5Z" class="g2_77"/>
<path fill-rule="evenodd" d="M444.9,1068.4c0,-1.1,.2,-2,.5,-2.7c.3,-.8,.7,-1.3,1.2,-1.7c.4,-.3,.9,-.4,1.3,-.4c.7,0,1.3,.3,1.9,1c.7,.9,1,2.1,1,3.6c0,1.1,-.1,2,-.4,2.7c-.4,.8,-.7,1.3,-1.2,1.6c-.5,.4,-.9,.5,-1.4,.5c-.8,0,-1.6,-.5,-2.1,-1.5c-.5,-.9,-.8,-1.9,-.8,-3.1m1.3,.1c0,1.3,.2,2.3,.5,3.1c.3,.7,.6,1,1.1,1c.3,0,.5,-.1,.8,-.3c.3,-.2,.4,-.6,.6,-1.1c.2,-.8,.3,-1.9,.3,-3.3c0,-1,-.1,-1.9,-.3,-2.6c-.2,-.5,-.4,-.8,-.7,-1.1c-.1,-.1,-.4,-.2,-.6,-.2c-.3,0,-.6,.2,-.8,.4c-.4,.4,-.6,1,-.7,1.8c-.1,.8,-.2,1.6,-.2,2.3Z" class="g2_77"/>
<path d="M698.8,968.4c.5,5.9,2.8,6.6,6.5,7.1m-66.9,71.2c-1.4,-5.6,-3.7,-6,-7.4,-5.9" class="gg_77"/>
<path fill-rule="evenodd" d="M634.7,1043.8c-.2,-.3,-.6,-.5,-1,-.3c-.4,.2,-.5,.7,-.3,1c.2,.4,.6,.5,1,.3c.4,-.2,.5,-.6,.3,-1Z" class="g2_77"/>
<path fill-rule="evenodd" d="M702,971.9c.1,.4,.6,.6,1,.4c.3,-.1,.5,-.5,.4,-.9c-.1,-.4,-.6,-.6,-.9,-.5c-.4,.2,-.6,.6,-.5,1Z" class="g2_77"/>
<path clip-path="url(#c3_77)" d="M545.9,898.4H765.6v173H545.9v-173Z" class="gg_77"/>
<path fill-rule="evenodd" d="M561.5,905.3l.2,3.1h-.2c-.3,-.9,-.7,-1.6,-1.2,-2c-.5,-.4,-1.1,-.6,-1.8,-.6c-.6,0,-1.1,.1,-1.6,.4c-.5,.3,-.9,.8,-1.2,1.5c-.2,.7,-.4,1.5,-.4,2.5c0,.8,.2,1.5,.4,2.1c.3,.6,.7,1,1.2,1.4c.5,.3,1.1,.4,1.8,.4c.6,0,1.1,-.1,1.5,-.3c.5,-.3,1,-.8,1.5,-1.5l.2,.1c-.4,.8,-1,1.4,-1.6,1.8c-.6,.3,-1.3,.5,-2.1,.5c-1.5,0,-2.7,-.5,-3.5,-1.6c-.6,-.9,-.9,-1.8,-.9,-2.9c0,-.9,.2,-1.8,.6,-2.5c.4,-.8,1,-1.4,1.7,-1.8c.7,-.4,1.5,-.6,2.3,-.6c.6,0,1.3,.2,1.9,.5c.2,.1,.3,.1,.4,.1c.1,0,.2,0,.3,-.1c.1,-.1,.2,-.3,.3,-.5Z" class="g2_77"/>
<path fill-rule="evenodd" d="M571.4,914.3v.2h-2.3c-.3,-.4,-.8,-1.1,-1.6,-2.3c-.8,-1.1,-1.3,-1.7,-1.5,-1.8c-.2,-.1,-.4,-.2,-.8,-.2v2.7c0,.6,.1,.9,.2,1.1c.2,.2,.5,.2,1.1,.3v.2h-3.9v-.2c.6,-.1,.9,-.1,1.1,-.3c.2,-.2,.2,-.5,.2,-1.1v-5.7c0,-.6,0,-1,-.2,-1.2c-.2,-.1,-.5,-.2,-1.1,-.2v-.3h3.9v.3c-.6,0,-.9,.1,-1.1,.2c-.1,.2,-.2,.6,-.2,1.2v2.5c.5,0,.8,-.1,1,-.1c.2,-.1,.4,-.2,.6,-.4c.3,-.3,.5,-.5,.6,-.7c.1,-.3,.3,-.7,.5,-1.2c.2,-.6,.4,-.9,.5,-1.1c.1,-.2,.3,-.4,.6,-.6c.3,-.1,.6,-.2,1,-.2c.7,0,1,.2,1,.7c0,.2,0,.3,-.2,.5c-.1,.1,-.3,.1,-.4,.1c-.2,0,-.4,0,-.7,-.2c-.2,-.1,-.4,-.2,-.5,-.2c-.1,0,-.3,.1,-.4,.3c-.1,.1,-.2,.5,-.5,1.1c-.4,1.1,-.9,1.9,-1.6,2.2c.4,0,1,.6,1.7,1.6c.7,1.1,1.3,1.8,1.7,2.2c.3,.4,.8,.6,1.3,.6Z" class="g2_77"/>
<path fill-rule="evenodd" d="M578.4,907c0,-.5,0,-.9,-.2,-1c-.2,-.2,-.5,-.2,-1.1,-.2v-.3H581v.3c-.5,0,-.9,.1,-1,.2c-.2,.2,-.3,.6,-.3,1.2v5.7c0,.6,.1,.9,.3,1.1c.1,.2,.5,.2,1,.3v.2h-3.9v-.2c.6,-.1,1,-.1,1.1,-.3c.2,-.2,.2,-.5,.2,-1.1v-5.2l-4.1,5.4c0,.3,0,.6,0,.7c.1,.2,.2,.3,.4,.3c.1,.1,.4,.2,.9,.2v.2h-3.9v-.2c.6,-.1,.9,-.1,1.1,-.3c.1,-.2,.2,-.5,.2,-1.1v-5.7c0,-.6,-.1,-1,-.2,-1.2c-.2,-.1,-.5,-.2,-1.1,-.2v-.3h3.9v.3c-.6,0,-.9,.1,-1.1,.2c-.2,.2,-.2,.6,-.2,1.2v5.1Z" class="g2_77"/>
<path fill-rule="evenodd" d="M590.8,914.3v2.8h-.2c-.1,-.7,-.4,-1.3,-.9,-1.8c-.4,-.5,-1.1,-.8,-2.1,-.8h-6.1v-.2c.6,-.1,.9,-.1,1.1,-.3c.1,-.2,.2,-.5,.2,-1.1v-5.7c0,-.6,-.1,-1,-.2,-1.2c-.2,-.1,-.5,-.2,-1.1,-.2v-.3h3.9v.3c-.6,0,-.9,.1,-1.1,.2c-.1,.2,-.2,.6,-.2,1.2v6c0,.4,0,.6,.1,.7c0,.1,.3,.1,.8,.1h2.3c.5,0,.8,0,.9,-.1c0,-.1,.1,-.4,.1,-.9v-5.8c0,-.6,-.1,-1,-.3,-1.2c-.1,-.1,-.5,-.2,-1.1,-.2v-.3h3.9v.3c-.5,0,-.9,.1,-1,.2c-.2,.2,-.3,.6,-.3,1.2v5.7c0,.6,.1,1,.3,1.1c.1,.2,.4,.3,1,.3Z" class="g2_77"/>
<path fill-rule="evenodd" d="M597.1,911l-1.5,-3.6L594,911Zm.2,.5h-3.5l-.6,1.4c-.1,.4,-.2,.6,-.2,.8c0,.1,0,.3,.2,.4c.1,.1,.4,.1,.8,.2v.2h-2.8v-.2c.4,-.1,.6,-.2,.7,-.3c.2,-.2,.5,-.6,.8,-1.3l3.1,-7.4h.3l3.1,7.5c.2,.6,.5,1,.7,1.2c.2,.1,.5,.2,.8,.3v.2h-3.5v-.2c.4,0,.6,-.1,.7,-.2c.1,-.1,.2,-.2,.2,-.4c0,-.2,-.1,-.5,-.3,-.9Z" class="g2_77"/>
<path fill-rule="evenodd" d="M561.9,928.8h3.9v.8h-3.9v-.8Zm1.8,-5.2c-.6,0,-.8,.4,-.8,1.2c0,.6,.1,1.1,.3,1.6c.3,.5,.6,.8,.9,.8c.5,0,.8,-.4,.8,-1.1c0,-.5,-.1,-1.1,-.4,-1.6c-.2,-.6,-.5,-.9,-.8,-.9m0,-.3c.5,0,1,.2,1.5,.5c.4,.4,.6,.9,.6,1.6c0,.6,-.2,1.1,-.5,1.5c-.4,.4,-.8,.6,-1.3,.6c-.6,0,-1.1,-.2,-1.5,-.7c-.4,-.4,-.6,-.9,-.6,-1.5c0,-.6,.1,-1,.5,-1.4c.3,-.4,.8,-.6,1.3,-.6m-7,-2.7l3.4,6v-2.9c0,-.9,0,-1.6,.1,-1.9c0,-.4,.2,-.7,.5,-1c.3,-.2,.6,-.3,1.1,-.3c.3,0,.6,.1,.8,.2c.1,.2,.2,.4,.2,.6c0,.2,0,.3,-.1,.5c-.2,.1,-.3,.2,-.6,.2c-.1,0,-.3,-.1,-.5,-.2c-.3,-.1,-.4,-.2,-.5,-.2c-.2,0,-.3,.1,-.4,.2c0,.2,-.1,.6,-.1,1.2v6.8h-.3l-4.1,-7.4v4.4c0,.9,0,1.6,-.1,1.9c-.2,.4,-.4,.7,-.7,.8c-.2,.2,-.6,.3,-.9,.3c-.4,0,-.6,-.1,-.8,-.3c-.2,-.2,-.3,-.3,-.3,-.5c0,-.2,.1,-.4,.2,-.5c.2,-.1,.3,-.2,.5,-.2c.2,0,.4,.1,.6,.2c.3,.1,.4,.2,.5,.2c.2,0,.3,-.1,.4,-.3c0,-.3,.1,-.8,.1,-1.5v-4.7c0,-.5,-.1,-.8,-.1,-.9c-.1,-.2,-.2,-.3,-.4,-.4c-.2,0,-.5,-.1,-.8,-.1v-.2Z" class="g2_77"/>
<path fill-rule="evenodd" d="M575.9,927.8l-.6,1.8H570v-.3c1.5,-1.4,2.6,-2.6,3.3,-3.5c.6,-.9,.9,-1.7,.9,-2.4c0,-.6,-.1,-1.1,-.5,-1.5c-.3,-.3,-.8,-.5,-1.2,-.5c-.5,0,-.9,.1,-1.2,.4c-.4,.2,-.6,.6,-.8,1.1h-.3c.1,-.8,.4,-1.4,.9,-1.9c.4,-.4,1,-.6,1.7,-.6c.7,0,1.3,.2,1.8,.7c.5,.5,.8,1,.8,1.6c0,.5,-.1,1,-.4,1.4c-.3,.7,-.8,1.5,-1.5,2.3c-1.1,1.2,-1.8,1.9,-2.1,2.2h2.3c.5,0,.9,-.1,1,-.1c.2,0,.4,-.1,.6,-.2c.1,-.1,.3,-.3,.4,-.5Z" class="g2_77"/>
<path fill-rule="evenodd" d="M585.2,925c0,.6,-.1,1.1,-.1,1.5c0,.4,.1,.9,.3,1.4c.1,.5,.3,.8,.7,1.1c.2,.2,.5,.4,.8,.4c.4,0,.7,-.2,1,-.6c.3,-.4,.5,-.9,.5,-1.5c0,-.8,-.2,-1.5,-.5,-2c-.3,-.6,-.7,-.8,-1.3,-.8c-.1,0,-.3,0,-.5,.1c-.2,0,-.5,.2,-.9,.4m4.2,-4.6v.2c-.6,.1,-1.1,.2,-1.5,.4c-.3,.1,-.7,.4,-1.1,.8c-.3,.3,-.6,.7,-.9,1.2c-.2,.4,-.4,.9,-.5,1.5c.6,-.4,1.2,-.6,1.9,-.6c.6,0,1.1,.2,1.6,.7c.4,.5,.7,1.2,.7,1.9c0,.8,-.3,1.5,-.7,2.1c-.6,.7,-1.3,1.1,-2.2,1.1c-.6,0,-1.1,-.2,-1.6,-.6c-.8,-.8,-1.2,-1.8,-1.2,-3.1c0,-.8,.1,-1.5,.4,-2.3c.4,-.7,.8,-1.3,1.4,-1.9c.6,-.6,1.2,-.9,1.8,-1.1c.5,-.2,1,-.3,1.5,-.3Z" class="g2_77"/>
<path fill-rule="evenodd" d="M593.9,920.1l-3.3,9.6h-.5l3.3,-9.6Z" class="g2_77"/>
<path fill-rule="evenodd" d="M599.7,920.6l-.5,1.1h-2.7l-.6,1.2c1.2,.2,2.1,.6,2.8,1.3c.6,.6,.9,1.3,.9,2.1c0,.5,-.1,.9,-.3,1.3c-.2,.4,-.4,.8,-.7,1.1c-.3,.3,-.6,.5,-1,.7c-.5,.2,-1,.3,-1.6,.3c-.5,0,-.9,-.1,-1.1,-.3c-.3,-.1,-.4,-.3,-.4,-.6c0,-.1,.1,-.2,.1,-.3c.2,-.1,.3,-.1,.4,-.1c.2,0,.3,0,.3,0c.1,.1,.3,.1,.5,.3c.3,.2,.6,.3,1,.3c.5,0,1,-.2,1.4,-.5c.3,-.4,.5,-.9,.5,-1.5c0,-.5,-.1,-1,-.5,-1.5c-.3,-.5,-.8,-.8,-1.4,-1.1c-.5,-.2,-1.2,-.3,-2,-.3l1.7,-3.5Z" class="g2_77"/>
<path fill-rule="evenodd" d="M602.3,928.3c.3,0,.4,0,.6,.2c.1,.1,.2,.3,.2,.5c0,.2,-.1,.4,-.2,.5c-.2,.2,-.4,.2,-.6,.2c-.2,0,-.3,0,-.5,-.2c-.1,-.1,-.2,-.3,-.2,-.5c0,-.2,.1,-.4,.2,-.5c.2,-.2,.3,-.2,.5,-.2Z" class="g2_77"/>
<path fill-rule="evenodd" d="M605.8,925.3c0,1.2,.2,2.2,.5,3c.2,.7,.6,1,1.1,1c.3,0,.5,-.1,.8,-.3c.2,-.2,.4,-.6,.5,-1.1c.3,-.8,.4,-1.8,.4,-3.2c0,-1,-.2,-1.9,-.4,-2.6c-.1,-.5,-.3,-.9,-.6,-1.1c-.2,-.1,-.4,-.2,-.6,-.2c-.3,0,-.6,.2,-.8,.4c-.4,.4,-.6,1,-.7,1.8c-.1,.7,-.2,1.5,-.2,2.3m-1.3,-.2c0,-1,.2,-1.9,.5,-2.6c.3,-.8,.7,-1.3,1.2,-1.7c.4,-.3,.8,-.4,1.3,-.4c.7,0,1.3,.3,1.8,1c.7,.9,1.1,2.1,1.1,3.6c0,1,-.2,1.9,-.5,2.6c-.3,.8,-.7,1.3,-1.1,1.6c-.5,.4,-1,.5,-1.4,.5c-.9,0,-1.6,-.5,-2.1,-1.5c-.5,-.9,-.8,-1.9,-.8,-3.1Z" class="g2_77"/>
<path fill-rule="evenodd" d="M617.1,927.8l-.7,1.8h-5.3v-.3c1.6,-1.4,2.7,-2.6,3.3,-3.5c.7,-.9,1,-1.7,1,-2.4c0,-.6,-.2,-1.1,-.5,-1.5c-.4,-.3,-.8,-.5,-1.3,-.5c-.4,0,-.8,.1,-1.2,.4c-.3,.2,-.6,.6,-.8,1.1h-.2c.1,-.8,.4,-1.4,.8,-1.9c.5,-.4,1.1,-.6,1.8,-.6c.7,0,1.3,.2,1.8,.7c.5,.5,.7,1,.7,1.6c0,.5,-.1,1,-.3,1.4c-.3,.7,-.9,1.5,-1.6,2.3c-1.1,1.2,-1.8,1.9,-2.1,2.2h2.4c.5,0,.8,-.1,1,-.1c.2,0,.4,-.1,.5,-.2c.2,-.1,.3,-.3,.4,-.5Z" class="g2_77"/>
<path fill-rule="evenodd" d="M619.3,928.3c.2,0,.4,0,.6,.2c.1,.1,.2,.3,.2,.5c0,.2,-.1,.4,-.2,.5c-.2,.2,-.4,.2,-.6,.2c-.2,0,-.3,0,-.5,-.2c-.1,-.1,-.2,-.3,-.2,-.5c0,-.2,.1,-.4,.2,-.5c.2,-.2,.3,-.2,.5,-.2Z" class="g2_77"/>
<path fill-rule="evenodd" d="M627.3,927.8l-.7,1.8h-5.3v-.3c1.6,-1.4,2.7,-2.6,3.3,-3.5c.7,-.9,1,-1.7,1,-2.4c0,-.6,-.2,-1.1,-.5,-1.5c-.4,-.3,-.8,-.5,-1.3,-.5c-.4,0,-.8,.1,-1.2,.4c-.3,.2,-.6,.6,-.8,1.1h-.2c.1,-.8,.4,-1.4,.8,-1.9c.5,-.4,1.1,-.6,1.7,-.6c.8,0,1.4,.2,1.9,.7c.5,.5,.7,1,.7,1.6c0,.5,-.1,1,-.3,1.4c-.3,.7,-.9,1.5,-1.6,2.3c-1.1,1.2,-1.8,1.9,-2.1,2.2h2.4c.5,0,.8,-.1,1,-.1c.2,0,.4,-.1,.5,-.2c.2,-.1,.3,-.3,.4,-.5Z" class="g2_77"/>
<path fill-rule="evenodd" d="M629.6,925.3c0,1.2,.2,2.2,.5,3c.2,.7,.6,1,1.1,1c.2,0,.5,-.1,.7,-.3c.3,-.2,.5,-.6,.6,-1.1c.2,-.8,.3,-1.8,.3,-3.2c0,-1,-.1,-1.9,-.3,-2.6c-.1,-.5,-.3,-.9,-.6,-1.1c-.2,-.1,-.4,-.2,-.7,-.2c-.3,0,-.5,.2,-.8,.4c-.3,.4,-.5,1,-.6,1.8c-.1,.7,-.2,1.5,-.2,2.3m-1.3,-.2c0,-1,.2,-1.9,.5,-2.6c.3,-.8,.7,-1.3,1.2,-1.7c.4,-.3,.8,-.4,1.3,-.4c.6,0,1.3,.3,1.8,1c.7,.9,1,2.1,1,3.6c0,1,-.1,1.9,-.4,2.6c-.3,.8,-.7,1.3,-1.2,1.6c-.4,.4,-.9,.5,-1.3,.5c-.9,0,-1.6,-.5,-2.2,-1.5c-.4,-.9,-.7,-1.9,-.7,-3.1Z" class="g2_77"/>
<path fill-rule="evenodd" d="M656.8,923.5l.3,1.6h-.3c-.2,-.5,-.3,-.8,-.5,-1c-.2,-.1,-.5,-.2,-1.1,-.2h-1.3v4.2c0,.5,.1,.8,.1,.9q.1,.1,.2,.2c.1,.1,.3,.1,.7,.1v.3h-3.1v-.3c.4,0,.7,-.1,.8,-.2c.2,-.1,.2,-.4,.2,-1v-3.2c0,-.4,0,-.7,0,-.8c-.1,-.1,-.2,-.2,-.3,-.3c-.1,0,-.3,-.1,-.7,-.1v-.2Z" class="g2_77"/>
<path fill-rule="evenodd" d="M657.3,928.3c.3,0,.4,0,.6,.2c.1,.1,.2,.3,.2,.5c0,.2,-.1,.4,-.2,.5c-.2,.2,-.3,.2,-.6,.2c-.2,0,-.3,0,-.5,-.2c-.1,-.1,-.2,-.3,-.2,-.5c0,-.2,.1,-.4,.2,-.5c.2,-.2,.3,-.2,.5,-.2Z" class="g2_77"/>
<path fill-rule="evenodd" d="M558.9,944.6L555.4,937v6.1c0,.5,.1,.9,.2,1c.1,.2,.4,.3,.8,.3h.3v.2h-3.2v-.2h.4c.3,0,.6,-.1,.8,-.4c.1,-.1,.1,-.4,.1,-.9v-5.9c0,-.4,0,-.7,-.1,-.9c-.1,-.1,-.2,-.2,-.4,-.3c-.1,-.1,-.4,-.1,-.8,-.1v-.3h2.6l3.3,7.1l3.2,-7.1h2.5v.3h-.3c-.4,0,-.6,.1,-.8,.3c-.1,.2,-.2,.5,-.2,1v5.9c0,.5,.1,.9,.2,1c.2,.2,.5,.3,.8,.3h.3v.2h-3.8v-.2h.3c.4,0,.7,-.1,.8,-.4c.1,-.1,.2,-.4,.2,-.9V937l-3.5,7.6Z" class="g2_77"/>
<path fill-rule="evenodd" d="M570.4,936.5l2.2,-1.1h.2V943c0,.5,0,.8,.1,1c0,.1,.1,.2,.2,.3c.2,0,.4,.1,.8,.1v.2h-3.3v-.2c.4,0,.7,-.1,.8,-.1c.1,-.1,.2,-.2,.2,-.3c.1,-.1,.1,-.4,.1,-1v-4.8c0,-.7,0,-1.1,-.1,-1.3c0,-.1,0,-.2,-.1,-.3c-.1,-.1,-.2,-.1,-.3,-.1c-.2,0,-.4,.1,-.7,.2Z" class="g2_77"/>
<path fill-rule="evenodd" d="M580.9,943.3c.2,0,.4,.1,.5,.2c.2,.2,.2,.4,.2,.6c0,.2,0,.3,-.2,.5c-.1,.1,-.3,.2,-.5,.2c-.2,0,-.4,-.1,-.5,-.2c-.2,-.2,-.2,-.3,-.2,-.5c0,-.2,0,-.4,.2,-.6c.1,-.1,.3,-.2,.5,-.2m0,-4.9c.2,0,.4,0,.5,.2c.2,.1,.3,.3,.3,.5c0,.2,-.1,.4,-.3,.5c-.1,.2,-.3,.2,-.5,.2c-.2,0,-.4,0,-.5,-.2c-.2,-.1,-.2,-.3,-.2,-.5c0,-.2,0,-.4,.2,-.5c.1,-.2,.3,-.2,.5,-.2Z" class="g2_77"/>
<path fill-rule="evenodd" d="M587.8,936.5l2.2,-1.1h.2V943c0,.5,0,.8,0,1c.1,.1,.2,.2,.3,.3c.1,0,.4,.1,.8,.1v.2h-3.4v-.2c.4,0,.7,-.1,.8,-.1c.2,-.1,.3,-.2,.3,-.3c.1,-.1,.1,-.4,.1,-1v-4.8c0,-.7,0,-1.1,-.1,-1.3c0,-.1,-.1,-.2,-.2,-.3c0,-.1,-.1,-.1,-.3,-.1c-.1,0,-.3,.1,-.6,.2Z" class="g2_77"/>
<path fill-rule="evenodd" d="M594.8,940.3c0,1.3,.1,2.3,.4,3.1c.3,.6,.6,1,1.1,1c.3,0,.5,-.2,.8,-.4c.2,-.2,.4,-.5,.6,-1c.2,-.8,.3,-1.9,.3,-3.3c0,-1,-.1,-1.8,-.3,-2.5c-.2,-.5,-.4,-.9,-.7,-1.1c-.1,-.2,-.4,-.2,-.6,-.2c-.3,0,-.6,.1,-.8,.4c-.3,.3,-.6,.9,-.7,1.7c-.1,.8,-.1,1.6,-.1,2.3m-1.3,-.1c0,-1.1,.1,-1.9,.4,-2.7c.3,-.7,.7,-1.3,1.3,-1.6c.4,-.3,.8,-.5,1.2,-.5c.7,0,1.3,.4,1.8,1.1c.7,.9,1.1,2,1.1,3.5c0,1.1,-.2,2,-.5,2.7c-.3,.7,-.7,1.3,-1.1,1.6c-.5,.3,-.9,.5,-1.4,.5c-.8,0,-1.5,-.5,-2.1,-1.5c-.5,-.9,-.7,-1.9,-.7,-3.1Z" class="g2_77"/>
<path fill-rule="evenodd" d="M601.6,940.3c0,1.3,.1,2.3,.4,3.1c.3,.6,.6,1,1.1,1c.3,0,.5,-.2,.8,-.4c.2,-.2,.4,-.5,.6,-1c.2,-.8,.3,-1.9,.3,-3.3c0,-1,-.1,-1.8,-.3,-2.5c-.2,-.5,-.4,-.9,-.7,-1.1c-.1,-.2,-.4,-.2,-.6,-.2c-.3,0,-.6,.1,-.8,.4c-.3,.3,-.6,.9,-.7,1.7c-.1,.8,-.1,1.6,-.1,2.3m-1.3,-.1c0,-1.1,.1,-1.9,.4,-2.7c.3,-.7,.7,-1.3,1.3,-1.6c.4,-.3,.8,-.5,1.2,-.5c.7,0,1.3,.4,1.8,1.1c.7,.9,1.1,2,1.1,3.5c0,1.1,-.2,2,-.5,2.7c-.3,.7,-.7,1.3,-1.1,1.6c-.5,.3,-.9,.5,-1.4,.5c-.8,0,-1.6,-.5,-2.1,-1.5c-.5,-.9,-.7,-1.9,-.7,-3.1Z" class="g2_77"/>
<path fill-rule="evenodd" d="M608.3,940.3c0,1.3,.2,2.3,.5,3.1c.3,.6,.6,1,1.1,1c.3,0,.5,-.2,.8,-.4c.2,-.2,.4,-.5,.6,-1c.2,-.8,.3,-1.9,.3,-3.3c0,-1,-.1,-1.8,-.4,-2.5c-.1,-.5,-.3,-.9,-.6,-1.1c-.1,-.2,-.4,-.2,-.6,-.2c-.3,0,-.6,.1,-.8,.4c-.3,.3,-.6,.9,-.7,1.7c-.1,.8,-.2,1.6,-.2,2.3m-1.3,-.1c0,-1.1,.2,-1.9,.5,-2.7c.3,-.7,.7,-1.3,1.2,-1.6c.4,-.3,.9,-.5,1.3,-.5c.7,0,1.3,.4,1.8,1.1c.7,.9,1.1,2,1.1,3.5c0,1.1,-.2,2,-.5,2.7c-.3,.7,-.7,1.3,-1.1,1.6c-.5,.3,-1,.5,-1.4,.5c-.8,0,-1.6,-.5,-2.1,-1.5c-.5,-.9,-.8,-1.9,-.8,-3.1Z" class="g2_77"/>
<path d="M705.7,935.8v107.4" class="gg_77"/>
<path d="M726.2,928.7v121.7" class="gh_77"/>
<path d="M753,917.5l-28,11.1m-19.2,7.6L625.3,968" class="gg_77"/>
<path d="M632.2,1048.4l73.8,-5.2M625.7,967.9H706" class="gh_77"/>
<path d="M629.3,1016.5l-3.5,-48.9m101.1,82.8l31.7,11.1m-129.3,-45l75.7,26.7" class="gg_77"/>
<path d="M632.4,1059.5l-3.1,-43" class="gh_77"/>
<path fill-rule="evenodd" d="M653,947.4l-.8,2.1h-6.3v-.3c1.8,-1.7,3.2,-3.1,3.9,-4.2c.8,-1.1,1.2,-2.1,1.2,-3c0,-.7,-.2,-1.2,-.7,-1.7c-.4,-.4,-.9,-.6,-1.5,-.6c-.5,0,-1,.1,-1.4,.4c-.4,.3,-.7,.8,-.9,1.4h-.3c.1,-1,.4,-1.7,1,-2.3c.5,-.5,1.2,-.8,2.1,-.8c.8,0,1.6,.3,2.1,.9c.6,.5,.9,1.2,.9,2c0,.5,-.1,1.1,-.4,1.6c-.3,.9,-1,1.8,-1.9,2.7c-1.3,1.5,-2.1,2.4,-2.4,2.7h2.8c.5,0,1,-.1,1.2,-.1c.2,0,.4,-.1,.6,-.3c.2,-.1,.4,-.3,.5,-.5Z" class="g2_77"/>
<path fill-rule="evenodd" d="M654.5,952.2v-.4c.6,-.2,1,-.4,1.3,-.8c.3,-.4,.5,-.8,.5,-1.2c0,-.1,-.1,-.2,-.1,-.3c0,0,-.1,0,-.1,0c-.1,0,-.2,0,-.4,.1c-.1,.1,-.2,.1,-.3,.1c-.3,0,-.5,-.1,-.6,-.2c-.2,-.2,-.3,-.4,-.3,-.7c0,-.2,.1,-.5,.3,-.7c.2,-.1,.5,-.2,.8,-.2c.3,0,.6,.1,.9,.4c.3,.3,.4,.7,.4,1.2c0,.6,-.2,1.1,-.6,1.6c-.3,.4,-.9,.8,-1.8,1.1Z" class="g2_77"/>
<path fill-rule="evenodd" d="M661.2,944.3c-.4,.4,-.7,.8,-.9,1.2c-.2,.5,-.4,1,-.4,1.5c0,.6,.2,1.2,.6,1.6c.4,.4,.9,.6,1.4,.6c.6,0,1.1,-.1,1.4,-.5c.4,-.3,.5,-.7,.5,-1.1c0,-.4,-.1,-.8,-.3,-1.1c-.3,-.5,-1.1,-1.3,-2.3,-2.2m.9,-1.1c.7,-.6,1.1,-1.1,1.2,-1.4c.2,-.3,.3,-.7,.3,-1.1c0,-.6,-.2,-1,-.5,-1.3c-.3,-.3,-.7,-.5,-1.3,-.5c-.5,0,-.9,.2,-1.3,.5c-.3,.3,-.5,.6,-.5,1.1c0,.2,.1,.5,.2,.8c.2,.3,.4,.5,.6,.8Zm-1.2,.8c-.9,-.7,-1.4,-1.2,-1.7,-1.7c-.2,-.4,-.4,-.8,-.4,-1.3c0,-.7,.3,-1.3,.9,-1.8c.5,-.5,1.2,-.8,2.1,-.8c.9,0,1.6,.3,2.1,.7c.6,.5,.8,1.1,.8,1.7c0,.4,-.1,.8,-.4,1.2c-.3,.4,-.9,.9,-1.8,1.5c.9,.7,1.5,1.3,1.9,1.7c.4,.5,.6,1.1,.6,1.7c0,.8,-.3,1.4,-.9,1.9c-.6,.6,-1.4,.9,-2.3,.9c-1,0,-1.8,-.4,-2.4,-1c-.4,-.5,-.7,-1.1,-.7,-1.7c0,-.5,.2,-1,.5,-1.4c.3,-.5,.9,-1,1.7,-1.6Z" class="g2_77"/>
<path fill-rule="evenodd" d="M663.9,981.3l-.7,2h-6.4V983c1.9,-1.7,3.2,-3.1,4,-4.1c.7,-1.1,1.1,-2.1,1.1,-3c0,-.7,-.2,-1.3,-.6,-1.7c-.4,-.4,-.9,-.7,-1.5,-.7c-.6,0,-1,.2,-1.5,.5c-.4,.3,-.7,.8,-.9,1.4h-.3c.1,-1,.5,-1.8,1,-2.3c.6,-.5,1.3,-.8,2.1,-.8c.9,0,1.6,.3,2.2,.9c.6,.5,.9,1.2,.9,1.9c0,.6,-.2,1.1,-.4,1.7c-.4,.8,-1,1.8,-1.9,2.7c-1.3,1.5,-2.2,2.3,-2.5,2.6h2.8c.6,0,1,0,1.2,0c.3,-.1,.5,-.2,.6,-.3c.2,-.1,.4,-.3,.5,-.5Z" class="g2_77"/>
<path fill-rule="evenodd" d="M665.5,986.1v-.4c.5,-.2,1,-.5,1.3,-.8c.3,-.4,.4,-.8,.4,-1.2c0,-.1,0,-.2,-.1,-.3c0,0,0,-.1,-.1,-.1c0,0,-.2,.1,-.4,.2c-.1,0,-.2,.1,-.3,.1c-.2,0,-.4,-.1,-.6,-.3c-.1,-.1,-.2,-.3,-.2,-.6c0,-.3,.1,-.5,.3,-.7c.2,-.2,.4,-.3,.7,-.3c.4,0,.7,.2,.9,.5c.3,.3,.5,.7,.5,1.2c0,.6,-.2,1.1,-.6,1.5c-.4,.5,-1,.9,-1.8,1.2Z" class="g2_77"/>
<path fill-rule="evenodd" d="M671,977.9c-.1,.7,-.1,1.3,-.1,1.7c0,.5,.1,1.1,.3,1.7c.2,.6,.4,1.1,.8,1.4c.3,.3,.6,.4,1,.4c.5,0,.9,-.2,1.2,-.7c.4,-.4,.6,-1,.6,-1.8c0,-.9,-.2,-1.7,-.6,-2.4c-.3,-.7,-.8,-1,-1.5,-1c-.2,0,-.4,.1,-.6,.1c-.3,.1,-.6,.3,-1.1,.6m5,-5.6v.3c-.7,.1,-1.3,.2,-1.7,.4c-.5,.2,-.9,.6,-1.3,1c-.5,.4,-.8,.9,-1.1,1.4c-.3,.6,-.5,1.2,-.7,1.9c.7,-.5,1.5,-.8,2.3,-.8c.7,0,1.4,.3,1.9,.9c.5,.6,.8,1.4,.8,2.3c0,.9,-.3,1.7,-.8,2.5c-.7,.9,-1.5,1.3,-2.6,1.3c-.8,0,-1.4,-.2,-1.9,-.7c-1,-1,-1.5,-2.2,-1.5,-3.7c0,-1,.2,-1.9,.6,-2.8c.4,-.8,.9,-1.6,1.6,-2.3c.7,-.6,1.4,-1.1,2.1,-1.3c.7,-.3,1.3,-.4,1.8,-.4Z" class="g2_77"/>
<path fill-rule="evenodd" d="M666,1022.1l-.8,2.1h-6.4v-.3c1.9,-1.7,3.2,-3.1,4,-4.2c.8,-1.1,1.1,-2.1,1.1,-3c0,-.7,-.2,-1.2,-.6,-1.7c-.4,-.4,-.9,-.6,-1.5,-.6c-.5,0,-1,.1,-1.4,.4c-.4,.4,-.8,.8,-1,1.4h-.2c.1,-1,.4,-1.7,1,-2.3c.5,-.5,1.2,-.7,2,-.7c.9,0,1.6,.2,2.2,.8c.6,.6,.9,1.2,.9,2c0,.5,-.1,1.1,-.4,1.6c-.4,.9,-1,1.8,-1.9,2.8c-1.3,1.4,-2.1,2.3,-2.5,2.6h2.9c.5,0,.9,0,1.2,-.1c.2,0,.4,-.1,.6,-.2c.2,-.2,.3,-.4,.5,-.6Z" class="g2_77"/>
<path fill-rule="evenodd" d="M667.5,1026.9v-.4c.6,-.1,1,-.4,1.3,-.8c.3,-.4,.4,-.8,.4,-1.2c0,-.1,0,-.2,0,-.3q-.1,0,-.1,0c-.1,0,-.2,0,-.4,.1c-.1,.1,-.2,.1,-.3,.1c-.3,0,-.5,-.1,-.6,-.2c-.2,-.2,-.3,-.4,-.3,-.7c0,-.2,.1,-.4,.3,-.6c.2,-.2,.5,-.3,.7,-.3c.4,0,.7,.1,1,.4c.3,.4,.4,.8,.4,1.3c0,.5,-.2,1,-.6,1.5c-.4,.5,-1,.8,-1.8,1.1Z" class="g2_77"/>
<path fill-rule="evenodd" d="M673.1,1018.7c-.1,.8,-.2,1.3,-.2,1.8c0,.5,.1,1,.3,1.6c.2,.6,.5,1.1,.9,1.5c.2,.2,.6,.3,.9,.3c.5,0,.9,-.2,1.3,-.6c.3,-.5,.5,-1.1,.5,-1.9c0,-.9,-.1,-1.7,-.5,-2.3c-.4,-.7,-.9,-1,-1.6,-1c-.2,0,-.4,0,-.6,.1c-.2,.1,-.6,.3,-1,.5m4.9,-5.5v.3c-.7,0,-1.2,.2,-1.7,.4c-.4,.2,-.9,.5,-1.3,.9c-.4,.5,-.8,.9,-1.1,1.5c-.3,.5,-.5,1.1,-.7,1.9c.8,-.6,1.5,-.8,2.3,-.8c.8,0,1.4,.3,1.9,.9c.6,.5,.8,1.3,.8,2.2c0,1,-.2,1.8,-.8,2.5c-.6,.9,-1.5,1.4,-2.6,1.4c-.7,0,-1.3,-.3,-1.9,-.8c-1,-.9,-1.5,-2.1,-1.5,-3.7c0,-.9,.2,-1.8,.6,-2.7c.4,-.9,.9,-1.7,1.7,-2.3c.7,-.7,1.4,-1.2,2,-1.4c.7,-.2,1.3,-.3,1.9,-.3Z" class="g2_77"/>
<path fill-rule="evenodd" d="M664.2,1059.5l-.7,2h-6.4v-.2c1.9,-1.8,3.2,-3.2,3.9,-4.2c.8,-1.1,1.2,-2.1,1.2,-3c0,-.7,-.2,-1.3,-.6,-1.7c-.5,-.4,-1,-.7,-1.5,-.7c-.6,0,-1.1,.2,-1.5,.5c-.4,.3,-.7,.8,-.9,1.4h-.3c.1,-1,.5,-1.8,1,-2.3c.6,-.5,1.2,-.8,2.1,-.8c.8,0,1.6,.3,2.2,.9c.6,.5,.8,1.2,.8,2c0,.5,-.1,1.1,-.3,1.6c-.4,.9,-1.1,1.8,-1.9,2.7c-1.4,1.5,-2.2,2.3,-2.5,2.6h2.8c.6,0,1,0,1.2,0c.2,-.1,.4,-.1,.6,-.3c.2,-.1,.4,-.3,.5,-.5Z" class="g2_77"/>
<path fill-rule="evenodd" d="M665.8,1064.3v-.4c.5,-.2,.9,-.4,1.2,-.8c.3,-.4,.5,-.8,.5,-1.2c0,-.1,0,-.2,-.1,-.3c0,0,-.1,-.1,-.1,-.1c-.1,0,-.2,.1,-.4,.2c-.1,0,-.2,.1,-.3,.1c-.2,0,-.5,-.1,-.6,-.3c-.2,-.1,-.2,-.3,-.2,-.6c0,-.3,.1,-.5,.3,-.7c.2,-.2,.4,-.2,.7,-.2c.3,0,.7,.1,.9,.4c.3,.3,.4,.7,.4,1.2c0,.6,-.2,1.1,-.5,1.6c-.4,.4,-1,.8,-1.8,1.1Z" class="g2_77"/>
<path fill-rule="evenodd" d="M673.8,1057.6v-5.4l-3.8,5.4Zm2.8,0v1.1h-1.5v2.8h-1.3v-2.8h-4.6v-1l5,-7.2h.9v7.1Z" class="g2_77"/>
<path fill-rule="evenodd" d="M709.8,997.8c.4,-.7,.7,-1.2,1.2,-1.6c.5,-.4,1.1,-.6,1.8,-.6c.8,0,1.5,.2,2,.8c.3,.4,.5,.9,.5,1.4c0,.7,-.5,1.6,-1.5,2.4c.7,.3,1.2,.6,1.5,1.1c.3,.5,.5,1.1,.5,1.7c0,.9,-.3,1.8,-.9,2.4c-.8,.9,-1.9,1.4,-3.3,1.4c-.8,0,-1.3,-.1,-1.5,-.3c-.3,-.2,-.4,-.4,-.4,-.6c0,-.1,0,-.3,.2,-.4c.1,-.1,.2,-.2,.4,-.2c.1,0,.3,.1,.4,.1c.1,0,.3,.1,.6,.3c.4,.2,.6,.3,.7,.3c.2,.1,.4,.1,.6,.1c.6,0,1,-.2,1.4,-.6c.4,-.5,.6,-1,.6,-1.5c0,-.5,-.1,-.9,-.2,-1.3c-.2,-.3,-.3,-.5,-.5,-.6c-.2,-.3,-.5,-.4,-.9,-.6c-.4,-.2,-.8,-.3,-1.3,-.3h-.2v-.2c.4,-.1,.8,-.2,1.3,-.5c.4,-.2,.7,-.5,.9,-.9c.2,-.3,.3,-.7,.3,-1.1c0,-.6,-.2,-1,-.6,-1.3c-.3,-.4,-.7,-.6,-1.2,-.6c-.9,0,-1.5,.5,-2.1,1.4Z" class="g2_77"/>
<path fill-rule="evenodd" d="M718,1009.3v-.3c.6,-.2,1,-.5,1.3,-.9c.3,-.4,.5,-.8,.5,-1.2c0,-.1,-.1,-.2,-.1,-.3c0,0,-.1,0,-.1,0c-.1,0,-.2,0,-.4,.1c-.1,.1,-.2,.1,-.3,.1c-.3,0,-.5,-.1,-.6,-.2c-.2,-.2,-.3,-.4,-.3,-.7c0,-.2,.1,-.4,.3,-.6c.2,-.2,.5,-.3,.8,-.3c.3,0,.6,.1,.9,.5c.3,.3,.4,.7,.4,1.2c0,.5,-.2,1,-.6,1.5c-.3,.5,-.9,.8,-1.8,1.1Z" class="g2_77"/>
<path fill-rule="evenodd" d="M728.7,1004.5l-.7,2.1h-6.4v-.3c1.9,-1.7,3.2,-3.1,4,-4.2c.7,-1.1,1.1,-2.1,1.1,-3c0,-.7,-.2,-1.2,-.6,-1.7c-.4,-.4,-.9,-.6,-1.5,-.6c-.6,0,-1,.1,-1.5,.5c-.4,.3,-.7,.7,-.9,1.3h-.3c.1,-1,.5,-1.7,1,-2.2c.6,-.6,1.3,-.8,2.1,-.8c.9,0,1.6,.2,2.2,.8c.6,.6,.9,1.2,.9,2c0,.5,-.2,1.1,-.4,1.6c-.4,.9,-1.1,1.8,-1.9,2.8c-1.4,1.4,-2.2,2.3,-2.5,2.6h2.8c.6,0,1,0,1.2,-.1c.2,0,.5,-.1,.6,-.2c.2,-.2,.4,-.4,.5,-.6Z" class="g2_77"/>
<path fill-rule="evenodd" d="M604.8,990.6l2.6,-1.3h.3v9.2c0,.6,0,.9,.1,1.1c0,.1,.1,.2,.3,.3c.1,.1,.5,.1,1,.2v.3H605v-.3c.5,-.1,.8,-.1,1,-.2c.1,-.1,.2,-.2,.3,-.3c0,-.1,.1,-.5,.1,-1.1v-5.9c0,-.8,0,-1.3,-.1,-1.5c0,-.2,-.1,-.3,-.2,-.4c-.1,0,-.2,-.1,-.4,-.1c-.2,0,-.4,.1,-.8,.3Z" class="g2_77"/>
<path fill-rule="evenodd" d="M611.9,1003.1v-.4c.6,-.2,1,-.4,1.3,-.8c.3,-.4,.4,-.8,.4,-1.2c0,-.1,0,-.2,0,-.3c-.1,0,-.1,-.1,-.1,-.1c-.1,0,-.2,.1,-.4,.2c-.1,.1,-.2,.1,-.3,.1c-.3,0,-.5,-.1,-.6,-.3c-.2,-.1,-.3,-.3,-.3,-.6c0,-.3,.1,-.5,.3,-.7c.2,-.1,.5,-.2,.7,-.2c.4,0,.7,.1,1,.4c.3,.3,.4,.7,.4,1.2c0,.6,-.2,1.1,-.6,1.6c-.4,.4,-1,.8,-1.8,1.1Z" class="g2_77"/>
<path fill-rule="evenodd" d="M618.6,995.2c-.4,.4,-.7,.8,-1,1.2c-.2,.5,-.3,.9,-.3,1.5c0,.6,.2,1.2,.6,1.6c.4,.4,.8,.6,1.4,.6c.6,0,1.1,-.1,1.4,-.5c.3,-.3,.5,-.7,.5,-1.1c0,-.4,-.1,-.8,-.3,-1.1c-.4,-.5,-1.1,-1.3,-2.3,-2.2m.9,-1.1c.6,-.6,1,-1.1,1.2,-1.4c.2,-.3,.3,-.7,.3,-1.1c0,-.6,-.2,-1,-.5,-1.3c-.3,-.3,-.7,-.5,-1.3,-.5c-.5,0,-1,.2,-1.3,.5c-.3,.3,-.5,.6,-.5,1.1c0,.2,.1,.5,.2,.8c.1,.3,.3,.5,.6,.8Zm-1.2,.8c-.9,-.7,-1.5,-1.3,-1.7,-1.7c-.2,-.4,-.4,-.8,-.4,-1.3c0,-.7,.3,-1.3,.8,-1.8c.6,-.5,1.3,-.8,2.2,-.8c.9,0,1.6,.3,2.1,.7c.5,.5,.8,1,.8,1.7c0,.4,-.1,.8,-.4,1.2c-.3,.4,-.9,.9,-1.8,1.5c.9,.7,1.5,1.3,1.8,1.7c.4,.5,.6,1.1,.6,1.7c0,.7,-.3,1.4,-.8,1.9c-.6,.6,-1.4,.8,-2.3,.8c-1,0,-1.8,-.3,-2.4,-.9c-.5,-.5,-.7,-1.1,-.7,-1.7c0,-.5,.2,-1,.5,-1.4c.3,-.5,.9,-1,1.7,-1.6Z" class="g2_77"/>
<path fill-rule="evenodd" d="M582.3,920.6l-.6,1.1H579l-.6,1.2c1.2,.2,2.1,.6,2.8,1.3c.6,.6,.9,1.3,.9,2.1c0,.5,-.1,.9,-.3,1.3c-.2,.4,-.4,.8,-.7,1.1c-.3,.3,-.6,.5,-1,.7c-.5,.2,-1,.3,-1.6,.3c-.5,0,-.9,-.1,-1.1,-.3c-.3,-.1,-.4,-.3,-.4,-.6c0,-.1,.1,-.2,.2,-.3c.1,-.1,.2,-.1,.3,-.1c.2,0,.3,0,.3,0c.1,.1,.3,.1,.5,.3c.3,.2,.6,.3,1,.3c.5,0,1,-.2,1.4,-.5c.3,-.4,.5,-.9,.5,-1.5c0,-.5,-.1,-1,-.5,-1.5c-.3,-.5,-.8,-.8,-1.4,-1.1c-.5,-.2,-1.2,-.3,-2,-.3l1.7,-3.5Z" class="g2_77"/>
<path fill-rule="evenodd" d="M640.9,927.8l-.6,1.7H635v-.2c1.5,-1.4,2.6,-2.6,3.3,-3.5c.6,-.9,.9,-1.7,.9,-2.5c0,-.6,-.1,-1,-.5,-1.4c-.3,-.4,-.8,-.5,-1.2,-.5c-.5,0,-.9,.1,-1.2,.4c-.4,.2,-.7,.6,-.8,1.1h-.3c.1,-.8,.4,-1.5,.9,-1.9c.4,-.4,1,-.7,1.7,-.7c.7,0,1.3,.3,1.8,.8c.5,.4,.8,1,.8,1.6c0,.5,-.1,.9,-.4,1.4c-.3,.7,-.8,1.5,-1.5,2.3c-1.1,1.2,-1.8,1.9,-2.1,2.1h2.3c.5,0,.8,0,1,0c.2,-.1,.4,-.1,.6,-.2c.1,-.1,.3,-.3,.4,-.5Z" class="g2_77"/>
<path fill-rule="evenodd" d="M648.1,927.8l-.6,1.7h-5.3v-.2c1.6,-1.4,2.7,-2.6,3.3,-3.5c.6,-.9,1,-1.7,1,-2.5c0,-.6,-.2,-1,-.6,-1.4c-.3,-.4,-.7,-.5,-1.2,-.5c-.5,0,-.9,.1,-1.2,.4c-.4,.2,-.6,.6,-.8,1.1h-.2c.1,-.8,.4,-1.5,.8,-1.9c.5,-.4,1,-.7,1.7,-.7c.8,0,1.4,.3,1.9,.8c.4,.4,.7,1,.7,1.6c0,.5,-.1,.9,-.3,1.4c-.4,.7,-.9,1.5,-1.6,2.3c-1.1,1.2,-1.8,1.9,-2.1,2.1H646c.4,0,.8,0,1,0c.2,-.1,.3,-.1,.5,-.2c.1,-.1,.3,-.3,.4,-.5Z" class="g2_77"/>
<path d="M549.1,1067.5H761.3V901.2H549.1v166.3Z" class="g6_77"/>
<path d="M716.8,608.3l80.9,-5.7v60.7H731.3l-14.5,-55Zm39.8,31.6c-3.9,-2.6,-7.7,-2.6,-11.2,0m52.2,16.2c-4.7,.7,-7.5,3.1,-8.5,7.4" class="gd_77"/>
<path fill-rule="evenodd" d="M751.2,641c.1,.5,-.1,.9,-.6,1c-.4,.1,-.8,-.2,-.9,-.6c-.1,-.4,.1,-.9,.6,-1c.4,-.1,.8,.2,.9,.6Z" class="g2_77"/>
<path d="M751.2,641c.1,.5,-.1,.9,-.6,1c-.4,.1,-.8,-.2,-.9,-.6c-.1,-.4,.1,-.9,.6,-1c.4,-.1,.8,.2,.9,.6Z" class="gd_77"/>
<path fill-rule="evenodd" d="M795.2,660c.4,.3,.5,.8,.2,1.1c-.2,.4,-.7,.5,-1.1,.2c-.4,-.2,-.4,-.7,-.2,-1.1c.3,-.4,.8,-.4,1.1,-.2Z" class="g2_77"/>
<path d="M795.2,660c.4,.3,.5,.8,.2,1.1c-.2,.4,-.7,.5,-1.1,.2c-.4,-.2,-.4,-.7,-.2,-1.1c.3,-.4,.8,-.4,1.1,-.2Zm-63.8,3.2l66.3,-60.5" class="gd_77"/>
<path d="M750.7,645.4l-34,-37.2" class="ge_77"/>
<path fill-rule="evenodd" d="M804.7,630.9c-.8,-.6,-1.2,-1,-1.4,-1.4c-.2,-.3,-.3,-.7,-.3,-1.1c0,-.6,.2,-1.1,.7,-1.5c.4,-.5,1,-.7,1.8,-.7c.7,0,1.3,.2,1.7,.6c.5,.4,.7,.9,.7,1.4c0,.3,-.1,.7,-.3,1c-.3,.4,-.8,.8,-1.6,1.3c.8,.6,1.3,1.1,1.6,1.4c.3,.5,.5,1,.5,1.5c0,.6,-.2,1.2,-.7,1.6c-.5,.5,-1.1,.7,-1.9,.7c-.9,0,-1.6,-.3,-2.1,-.8c-.3,-.5,-.5,-.9,-.5,-1.4c0,-.5,.1,-.9,.4,-1.2c.2,-.4,.7,-.9,1.4,-1.4m1,-.7c.6,-.5,.9,-.8,1,-1.1c.2,-.3,.3,-.6,.3,-1c0,-.4,-.2,-.8,-.4,-1.1c-.3,-.2,-.7,-.4,-1.1,-.4c-.5,0,-.8,.2,-1.1,.4c-.3,.3,-.5,.6,-.5,.9c0,.3,.1,.5,.2,.7c.1,.3,.3,.5,.5,.7Zm-.7,1c-.4,.3,-.7,.6,-.8,1c-.2,.4,-.3,.8,-.3,1.2c0,.6,.1,1.1,.5,1.4c.3,.3,.7,.5,1.2,.5c.5,0,.8,-.1,1.1,-.4c.3,-.3,.5,-.6,.5,-1c0,-.3,-.1,-.6,-.3,-.8c-.3,-.5,-.9,-1.1,-1.9,-1.9Z" class="g2_77"/>
<path fill-rule="evenodd" d="M770.1,634.6l2.2,-1.1h.2v7.7c0,.5,.1,.8,.1,.9c0,.2,.1,.3,.3,.3c.1,.1,.4,.1,.8,.2v.2h-3.4v-.2c.4,-.1,.7,-.1,.8,-.2c.1,0,.2,-.1,.3,-.2c0,-.1,0,-.5,0,-1v-4.9c0,-.7,0,-1.1,0,-1.3c-.1,-.1,-.1,-.2,-.2,-.3c-.1,-.1,-.2,-.1,-.3,-.1c-.2,0,-.4,.1,-.7,.2Z" class="g2_77"/>
<path fill-rule="evenodd" d="M775.9,638.3c0,-1,.1,-1.9,.4,-2.7c.3,-.7,.8,-1.3,1.3,-1.7c.4,-.2,.8,-.4,1.2,-.4c.7,0,1.4,.4,1.9,1.1c.7,.9,1,2.1,1,3.6c0,1,-.1,1.9,-.4,2.7c-.3,.7,-.7,1.2,-1.2,1.6c-.4,.3,-.9,.5,-1.3,.5c-.9,0,-1.6,-.6,-2.2,-1.6c-.5,-.8,-.7,-1.9,-.7,-3.1m1.3,.2c0,1.2,.1,2.2,.4,3c.3,.7,.7,1,1.2,1c.2,0,.5,-.1,.7,-.3c.3,-.2,.5,-.6,.6,-1.1c.2,-.7,.3,-1.8,.3,-3.2c0,-1.1,-.1,-1.9,-.3,-2.6c-.2,-.5,-.4,-.9,-.6,-1.1c-.2,-.2,-.4,-.2,-.7,-.2c-.3,0,-.6,.1,-.8,.4c-.3,.3,-.5,.9,-.7,1.7c-.1,.8,-.1,1.6,-.1,2.4Z" class="g2_77"/>
<path fill-rule="evenodd" d="M736.5,623v-.3c.6,0,1.1,-.1,1.6,-.4c.5,-.2,1,-.7,1.5,-1.3c.4,-.7,.8,-1.4,.9,-2.2c-.7,.5,-1.3,.7,-1.9,.7c-.6,0,-1.2,-.3,-1.6,-.8c-.5,-.4,-.7,-1.1,-.7,-1.9c0,-.8,.2,-1.5,.7,-2.2c.5,-.7,1.3,-1.1,2.1,-1.1c.8,0,1.4,.3,2,.9c.6,.8,.9,1.8,.9,2.9c0,1,-.2,1.9,-.7,2.8c-.5,.9,-1.2,1.6,-2.1,2.2c-.7,.5,-1.5,.7,-2.3,.7Zm4.1,-4.7c.1,-.6,.2,-1,.2,-1.4c0,-.4,-.1,-.9,-.3,-1.4c-.1,-.5,-.3,-.9,-.6,-1.1c-.3,-.3,-.6,-.4,-.9,-.4c-.4,0,-.8,.1,-1.1,.5c-.3,.3,-.4,.9,-.4,1.6c0,.9,.2,1.7,.6,2.2c.3,.4,.6,.6,1.1,.6c.2,0,.4,-.1,.7,-.2c.3,-.1,.5,-.2,.7,-.4Z" class="g2_77"/>
<path fill-rule="evenodd" d="M765.8,666.9v.2c-.6,.1,-1.1,.2,-1.4,.4c-.4,.2,-.8,.4,-1.1,.8c-.4,.3,-.7,.8,-1,1.2c-.2,.4,-.4,1,-.6,1.6c.7,-.5,1.3,-.7,2,-.7c.6,0,1.1,.3,1.6,.8c.5,.5,.7,1.1,.7,1.9c0,.8,-.2,1.5,-.7,2.1c-.6,.7,-1.3,1.1,-2.2,1.1c-.6,0,-1.2,-.2,-1.6,-.6c-.8,-.8,-1.3,-1.8,-1.3,-3.1c0,-.8,.2,-1.6,.5,-2.3c.4,-.8,.8,-1.4,1.4,-2c.6,-.5,1.2,-.9,1.8,-1.1c.5,-.2,1,-.3,1.5,-.3Zm-4.2,4.7c0,.6,-.1,1.1,-.1,1.4c0,.5,.1,.9,.2,1.4c.2,.5,.4,.9,.8,1.2c.2,.2,.5,.4,.8,.4c.4,0,.7,-.2,1,-.6c.3,-.4,.5,-.9,.5,-1.6c0,-.7,-.2,-1.4,-.5,-2c-.3,-.5,-.7,-.8,-1.3,-.8c-.1,0,-.3,0,-.5,.1c-.2,.1,-.5,.2,-.9,.5Z" class="g2_77"/>
<path d="M582.1,622.1l92.1,-6.4l-20,60.8H587.9l-5.8,-54.4Zm68.1,2.9c4.6,-1,7.2,-3.8,7.7,-8.2M607.3,651c4.2,2.2,7.9,1.8,11.2,-1.1" class="gd_77"/>
<path fill-rule="evenodd" d="M653.1,620.4c-.4,-.2,-.5,-.7,-.3,-1.1c.2,-.4,.7,-.5,1.1,-.3c.4,.2,.5,.7,.3,1.1c-.2,.4,-.7,.5,-1.1,.3Z" class="g2_77"/>
<path d="M653.1,620.4c-.4,-.2,-.5,-.7,-.3,-1.1c.2,-.4,.7,-.5,1.1,-.3c.4,.2,.5,.7,.3,1.1c-.2,.4,-.7,.5,-1.1,.3Z" class="gd_77"/>
<path fill-rule="evenodd" d="M612.7,648.9c-.1,-.4,.1,-.9,.5,-1c.4,-.2,.9,0,1.1,.5c.1,.4,-.1,.8,-.5,1c-.5,.1,-.9,-.1,-1.1,-.5Z" class="g2_77"/>
<path d="M612.7,648.9c-.1,-.4,.1,-.9,.5,-1c.4,-.2,.9,0,1.1,.5c.1,.4,-.1,.8,-.5,1c-.5,.1,-.9,-.1,-1.1,-.5ZM582.3,622.2l71.8,54.4" class="gd_77"/>
<path d="M587.9,676.6l24.5,-32.3" class="ge_77"/>
<path fill-rule="evenodd" d="M623.4,612.7l-.6,1.8h-5.4v-.3c1.6,-1.4,2.7,-2.6,3.4,-3.5c.6,-.9,.9,-1.7,.9,-2.5c0,-.6,-.1,-1.1,-.5,-1.4c-.3,-.4,-.8,-.6,-1.3,-.6c-.4,0,-.8,.1,-1.2,.4c-.3,.3,-.6,.7,-.8,1.2h-.2c.1,-.9,.4,-1.5,.9,-1.9c.4,-.5,1,-.7,1.7,-.7c.7,0,1.3,.2,1.8,.7c.5,.5,.8,1,.8,1.7c0,.4,-.1,.9,-.3,1.4c-.4,.7,-.9,1.5,-1.6,2.3c-1.2,1.2,-1.9,1.9,-2.1,2.2h2.3c.5,0,.9,-.1,1.1,-.1c.2,0,.3,-.1,.5,-.2c.1,-.1,.3,-.3,.4,-.5Z" class="g2_77"/>
<path fill-rule="evenodd" d="M624.5,610c0,-1.1,.2,-1.9,.5,-2.7c.3,-.7,.7,-1.3,1.2,-1.7c.4,-.3,.8,-.4,1.3,-.4c.7,0,1.3,.3,1.9,1.1c.7,.8,1,2,1,3.5c0,1.1,-.2,2,-.5,2.7c-.3,.8,-.7,1.3,-1.1,1.6c-.5,.4,-1,.5,-1.4,.5c-.9,0,-1.6,-.5,-2.2,-1.5c-.4,-.9,-.7,-1.9,-.7,-3.1m1.3,.1c0,1.3,.2,2.3,.5,3.1c.2,.7,.6,1,1.1,1c.3,0,.5,-.1,.8,-.3c.2,-.2,.4,-.6,.6,-1.1c.2,-.8,.3,-1.9,.3,-3.3c0,-1,-.1,-1.9,-.3,-2.6c-.2,-.5,-.4,-.8,-.7,-1c-.1,-.2,-.4,-.3,-.6,-.3c-.3,0,-.6,.2,-.8,.4c-.4,.4,-.6,1,-.7,1.8c-.1,.8,-.2,1.6,-.2,2.3Z" class="g2_77"/>
<path d="M654,676l-4.2,-58.8" class="ge_77"/>
<path fill-rule="evenodd" d="M644.5,638.3c-.7,-.6,-1.2,-1.1,-1.4,-1.5c-.2,-.3,-.3,-.7,-.3,-1.1c0,-.6,.2,-1.1,.7,-1.5c.4,-.4,1,-.6,1.8,-.6c.7,0,1.3,.1,1.8,.5c.4,.4,.6,.9,.6,1.4c0,.4,-.1,.7,-.3,1.1c-.3,.3,-.8,.7,-1.5,1.2c.8,.6,1.3,1.1,1.5,1.4c.4,.5,.5,1,.5,1.5c0,.6,-.2,1.2,-.7,1.6c-.5,.5,-1.1,.7,-1.9,.7c-.9,0,-1.6,-.3,-2,-.8c-.4,-.4,-.6,-.9,-.6,-1.4c0,-.4,.1,-.8,.4,-1.2c.3,-.4,.7,-.9,1.4,-1.3m1,-.8c.6,-.4,.9,-.8,1.1,-1.1c.1,-.3,.2,-.6,.2,-1c0,-.4,-.1,-.8,-.4,-1.1c-.3,-.2,-.6,-.4,-1.1,-.4c-.4,0,-.8,.2,-1.1,.4c-.3,.3,-.4,.6,-.4,1c0,.2,0,.4,.1,.7c.2,.2,.3,.4,.5,.6Zm-.7,1c-.4,.3,-.6,.7,-.8,1c-.2,.4,-.3,.8,-.3,1.2c0,.6,.2,1.1,.5,1.4c.3,.4,.7,.5,1.2,.5c.5,0,.9,-.1,1.2,-.4c.2,-.2,.4,-.6,.4,-1c0,-.3,-.1,-.6,-.3,-.8c-.3,-.5,-.9,-1.1,-1.9,-1.9Z" class="g2_77"/>
<path fill-rule="evenodd" d="M624.2,642.6l2.2,-1.1h.3v7.7c0,.5,0,.8,0,.9c.1,.2,.2,.3,.3,.3c.1,.1,.4,.1,.8,.1v.3h-3.4v-.3c.4,0,.7,0,.8,-.1c.2,0,.2,-.1,.3,-.2c0,-.1,.1,-.5,.1,-1v-4.9c0,-.7,-.1,-1.1,-.1,-1.3c0,-.1,-.1,-.2,-.2,-.3c-.1,-.1,-.2,-.1,-.3,-.1c-.1,0,-.4,.1,-.7,.2Z" class="g2_77"/>
<path fill-rule="evenodd" d="M630,646.3c0,-1,.1,-1.9,.5,-2.7c.3,-.7,.7,-1.3,1.2,-1.7c.4,-.3,.8,-.4,1.3,-.4c.7,0,1.3,.4,1.8,1.1c.7,.9,1.1,2,1.1,3.6c0,1,-.2,1.9,-.5,2.6c-.3,.8,-.7,1.3,-1.1,1.7c-.5,.3,-1,.5,-1.4,.5c-.9,0,-1.6,-.6,-2.2,-1.6c-.5,-.8,-.7,-1.9,-.7,-3.1m1.3,.2c0,1.2,.2,2.2,.5,3c.2,.7,.6,1,1.1,1c.3,0,.5,-.1,.8,-.3c.2,-.2,.4,-.6,.6,-1.1c.2,-.8,.3,-1.8,.3,-3.2c0,-1.1,-.1,-1.9,-.4,-2.6c-.1,-.6,-.3,-.9,-.6,-1.1c-.2,-.2,-.4,-.3,-.6,-.3c-.4,0,-.6,.2,-.9,.5c-.3,.3,-.5,.9,-.6,1.7c-.1,.8,-.2,1.6,-.2,2.4Z" class="g2_77"/>
<path fill-rule="evenodd" d="M597.1,648.6v.3c-.6,0,-1,.1,-1.4,.3c-.4,.2,-.8,.4,-1.1,.8c-.4,.4,-.7,.8,-.9,1.2c-.3,.5,-.5,1,-.6,1.6c.6,-.4,1.3,-.7,1.9,-.7c.6,0,1.2,.3,1.6,.8c.5,.5,.7,1.1,.7,1.9c0,.8,-.2,1.5,-.7,2.1c-.5,.8,-1.3,1.2,-2.2,1.2c-.6,0,-1.1,-.3,-1.6,-.7c-.8,-.8,-1.2,-1.8,-1.2,-3.1c0,-.8,.1,-1.6,.5,-2.3c.3,-.7,.8,-1.4,1.4,-2c.6,-.5,1.1,-.9,1.7,-1.1c.6,-.2,1.1,-.3,1.6,-.3Zm-4.1,4.7c-.1,.6,-.2,1.1,-.2,1.5c0,.4,.1,.9,.3,1.4c.1,.5,.4,.9,.7,1.2c.2,.2,.5,.3,.8,.3c.4,0,.8,-.2,1.1,-.6c.3,-.3,.4,-.9,.4,-1.5c0,-.8,-.1,-1.5,-.4,-2c-.3,-.6,-.8,-.9,-1.3,-.9c-.2,0,-.4,.1,-.6,.1c-.2,.1,-.5,.3,-.8,.5Z" class="g2_77"/>
<path d="M73.6,95.1H181V65H73.6V95.1Z" class="gi_77"/>
</svg>