<?xml version="1.0" encoding="UTF-8" standalone="no"?>
<!DOCTYPE svg PUBLIC "-//W3C//DTD SVG 1.1//EN"
"http://www.w3.org/Graphics/SVG/1.1/DTD/svg11.dtd">
<svg viewBox="0 0 909 1147" version="1.1" xmlns="http://www.w3.org/2000/svg" xmlns:xlink="http://www.w3.org/1999/xlink">
<defs>
<clipPath id="c0_118"><path d="M185.1,950V877.4H298.9V950Z"/></clipPath>
<clipPath id="c1_118"><path d="M411.6,339.6L433.1,325H534.2l-21.6,14.6Z"/></clipPath>
<style type="text/css"><![CDATA[
.g0_118{
fill: #E7A9A1;
}
.g1_118{
fill: #FFF;
}
.g2_118{
fill: none;
stroke: #000;
stroke-width: 0.33;
stroke-miterlimit: 2;
}
.g3_118{
fill: #000;
}
.g4_118{
fill: none;
stroke: #000;
stroke-width: 1.069;
stroke-miterlimit: 2;
}
.g5_118{
fill: none;
stroke: #000;
stroke-width: 1.069;
stroke-miterlimit: 2;
stroke-dasharray: 6,4;
}
.g6_118{
fill: none;
stroke: #0EA5DF;
stroke-width: 3.055;
}
.g7_118{
fill: #C7EAFB;
}
.g8_118{
fill: #E9F7FE;
}
.g9_118{
fill: none;
stroke: #B8BABC;
stroke-width: 0.33;
stroke-miterlimit: 2;
}
.ga_118{
fill: none;
stroke: #B8BABC;
stroke-width: 1.069;
stroke-miterlimit: 2;
}
.gb_118{
fill: none;
stroke: #000;
stroke-width: 0.33;
stroke-miterlimit: 2;
stroke-dasharray: 6,3;
}
.gc_118{
fill: #0EA5DF;
}
]]></style>
</defs>
<path d="M0,1131H72.3v-51.5H0V1131Z" class="g0_118"/>
<path d="M187.6,665.3l-.8,45.6H289.2l22.4,-15.7V649.9l-101.9,-.4Z" class="g1_118"/>
<path d="M187.6,665.3l22.1,-15.8l101.9,.4v45.3l-22.4,15.7H186.8l.8,-45.6Z" class="g2_118"/>
<path fill-rule="evenodd" d="M240.7,716.8l-1.6,5.5l-.2,.8q0,.1,0,.2q0,.1,.1,.2c0,.1,.1,.1,.2,.1c0,0,.1,-.1,.2,-.2c.3,-.1,.5,-.4,.9,-.9l.3,.2c-.4,.5,-.8,1,-1.2,1.3c-.4,.3,-.8,.4,-1.1,.4c-.2,0,-.4,-.1,-.5,-.2c-.1,-.1,-.2,-.3,-.2,-.5c0,-.2,.1,-.6,.2,-1l.1,-.7c-.7,1,-1.3,1.6,-1.9,2c-.5,.3,-.9,.4,-1.3,.4c-.4,0,-.7,-.2,-1,-.5c-.3,-.3,-.5,-.8,-.5,-1.4c0,-.8,.3,-1.7,.8,-2.7c.5,-1,1.2,-1.7,2,-2.3c.6,-.5,1.2,-.7,1.8,-.7c.3,0,.6,.1,.8,.2c.2,.2,.4,.5,.5,.9l.3,-.9Zm-2.9,.4c-.4,0,-.7,.2,-1.1,.5c-.6,.5,-1.1,1.2,-1.5,2.1c-.4,.9,-.7,1.7,-.7,2.5c0,.3,.1,.6,.3,.8c.2,.2,.4,.4,.7,.4c.6,0,1.2,-.5,1.9,-1.4c.9,-1.1,1.4,-2.3,1.4,-3.6c0,-.4,-.1,-.8,-.3,-1c-.1,-.2,-.4,-.3,-.7,-.3Z" class="g3_118"/>
<path fill-rule="evenodd" d="M322.2,675.2c-.6,.6,-1.2,1.1,-1.8,1.5c-.5,.3,-1.1,.4,-1.8,.4c-.8,0,-1.4,-.2,-1.8,-.6c-.4,-.4,-.7,-1,-.7,-1.8c0,-.8,.3,-1.6,.7,-2.4c.5,-.9,1.1,-1.5,1.9,-2c.8,-.5,1.6,-.8,2.4,-.8c.6,0,1,.1,1.3,.4c.3,.2,.4,.5,.4,.9c0,.4,-.1,.6,-.3,.9c-.1,.2,-.3,.3,-.5,.3c-.2,0,-.4,-.1,-.5,-.2c-.1,-.1,-.1,-.3,-.1,-.4c0,-.1,0,-.2,0,-.3c.1,-.1,.2,-.2,.3,-.3c.1,-.1,.2,-.2,.2,-.3c0,0,.1,-.1,.1,-.2c0,-.1,-.1,-.2,-.2,-.2c-.2,-.2,-.4,-.2,-.7,-.2c-.5,0,-1,.2,-1.6,.6c-.5,.3,-.9,.9,-1.3,1.6c-.5,.8,-.7,1.6,-.7,2.5c0,.6,.2,1,.5,1.3c.3,.3,.7,.5,1.3,.5c.4,0,.8,-.1,1.2,-.3c.5,-.2,.9,-.6,1.4,-1.2Z" class="g3_118"/>
<path fill-rule="evenodd" d="M312.7,706.8l-1.6,5.7c.5,-.6,.9,-.9,1.3,-1.1c.4,-.2,.8,-.3,1.3,-.3c.6,0,1.1,.2,1.4,.6c.4,.4,.6,.9,.6,1.6c0,.9,-.2,1.8,-.7,2.6c-.5,.9,-1.2,1.6,-1.9,2.1c-.8,.4,-1.5,.7,-2.3,.7c-.8,0,-1.7,-.3,-2.5,-.9l2.5,-8.6c.2,-.7,.2,-1.1,.2,-1.2c0,-.1,0,-.2,-.1,-.3c-.1,-.1,-.3,-.2,-.5,-.2c-.2,0,-.3,.1,-.6,.1v-.3Zm-3.2,11.1c.5,.3,1,.4,1.4,.4c.5,0,1,-.2,1.5,-.5c.6,-.4,1,-1,1.4,-1.8c.4,-.8,.6,-1.7,.6,-2.5c0,-.5,-.2,-.9,-.4,-1.2c-.3,-.3,-.6,-.5,-.9,-.5c-.5,0,-1,.3,-1.5,.7c-.5,.4,-.8,.9,-1,1.7Z" class="g3_118"/>
<path d="M186.9,665.5H289.5v45.3H186.9V665.5Z" class="g4_118"/>
<path d="M311.9,695.1H209.3V649.8" class="g5_118"/>
<path d="M209.3,649.8H311.9v45.3M187,665.3l22.5,-15.7m80,16L312,650" class="g4_118"/>
<path d="M186.9,710.6L209.4,695" class="g5_118"/>
<path d="M289.4,710.9l22.5,-15.6M259.8,937.5l25.9,-21.1M259.4,899.6L285.9,878M185.8,898.8L211.3,878m-25.6,21h74.1v38.4H185.7V899Z" class="g4_118"/>
<path d="M185.6,937.5l25.8,-21" class="g5_118"/>
<path d="M285.8,877.9v38.4" class="g4_118"/>
<path d="M211.6,877.9v38.4h73.6" class="g5_118"/>
<path d="M211.6,877.9h74.2" class="g4_118"/>
<path fill-rule="evenodd" d="M219.6,942.1c-.4,0,-.8,.2,-1.2,.6c-.6,.5,-1.2,1.2,-1.7,2.2c-.4,1,-.7,1.9,-.7,2.7c0,.5,.1,.8,.3,1c.2,.2,.5,.4,.7,.4c.7,0,1.4,-.5,2.2,-1.5c1,-1.3,1.5,-2.6,1.5,-3.9c0,-.5,-.1,-.9,-.3,-1.1c-.2,-.2,-.5,-.4,-.8,-.4m3.2,-.4l-1.8,6.1l-.2,.8c0,0,0,.1,0,.2q0,.1,.1,.2c0,.1,.1,.1,.2,.1c0,0,.1,-.1,.3,-.1c.2,-.2,.5,-.6,.9,-1.1l.3,.2c-.4,.6,-.8,1.1,-1.3,1.4c-.4,.3,-.8,.5,-1.2,.5c-.2,0,-.4,-.1,-.5,-.2c-.2,-.1,-.2,-.3,-.2,-.6c0,-.2,0,-.6,.2,-1.1l.1,-.7c-.7,1,-1.5,1.8,-2.1,2.2c-.5,.3,-.9,.4,-1.4,.4c-.4,0,-.8,-.2,-1.1,-.5c-.3,-.4,-.5,-.9,-.5,-1.5c0,-1,.3,-2,.9,-3c.5,-1.1,1.2,-1.9,2.1,-2.6c.7,-.5,1.4,-.7,2,-.7c.3,0,.6,.1,.9,.3c.2,.2,.4,.5,.5,.9l.3,-1Z" class="g3_118"/>
<path fill-rule="evenodd" d="M276.8,939c.6,.4,1.2,.5,1.6,.5c.5,0,1.1,-.2,1.6,-.5c.6,-.4,1.1,-1.1,1.5,-2c.4,-.9,.6,-1.8,.6,-2.8c0,-.5,-.1,-.9,-.4,-1.2c-.2,-.4,-.6,-.5,-.9,-.5c-.6,0,-1.1,.2,-1.7,.7c-.5,.4,-.9,1,-1.1,1.8Zm3.5,-12l-1.8,6.2c.6,-.6,1.1,-1,1.5,-1.2c.5,-.2,.9,-.4,1.4,-.4c.6,0,1.2,.3,1.6,.7c.4,.4,.6,1,.6,1.8c0,.9,-.3,1.9,-.8,2.8c-.6,1,-1.2,1.7,-2.1,2.3c-.8,.5,-1.6,.8,-2.4,.8c-.9,0,-1.9,-.4,-2.8,-1.1l2.7,-9.3c.2,-.7,.3,-1.2,.3,-1.3c0,-.2,0,-.3,-.1,-.3c-.2,-.2,-.4,-.2,-.6,-.2c-.1,0,-.3,0,-.6,.1v-.4Z" class="g3_118"/>
<path clip-path="url(#c0_118)" fill-rule="evenodd" d="M298.2,899.1c-.7,.8,-1.3,1.3,-1.9,1.7c-.6,.3,-1.3,.5,-2,.5c-.9,0,-1.5,-.3,-2,-.7c-.5,-.5,-.7,-1.1,-.7,-2c0,-.9,.2,-1.8,.8,-2.6c.5,-.9,1.1,-1.6,2,-2.2c.9,-.6,1.7,-.8,2.5,-.8c.7,0,1.2,.1,1.5,.4c.3,.3,.5,.6,.5,1c0,.3,-.1,.7,-.3,.9c-.2,.2,-.4,.3,-.7,.3c-.1,0,-.3,0,-.4,-.1c-.1,-.2,-.2,-.3,-.2,-.5c0,-.1,0,-.2,.1,-.3c0,-.1,.1,-.2,.2,-.4c.2,-.1,.3,-.2,.3,-.2c0,-.1,0,-.2,0,-.2c0,-.2,0,-.3,-.1,-.3c-.2,-.2,-.5,-.2,-.8,-.2c-.6,0,-1.1,.2,-1.7,.6c-.6,.4,-1.1,1,-1.5,1.7c-.5,1,-.7,1.9,-.7,2.8c0,.6,.2,1.1,.5,1.4c.4,.4,.8,.6,1.4,.6c.5,0,.9,-.1,1.4,-.4c.4,-.2,.9,-.6,1.5,-1.2Z" class="g3_118"/>
<path d="M73.6,166.9H835.8M73.6,565.3H835.8M73.6,794.4H835.8" class="g6_118"/>
<path d="M0,138.7H120.2V0H0V138.7Z" class="g0_118"/>
<path d="M188,339.9l-.8,45.7h102l22.7,-15.7V324.6L210,324.2Z" class="g7_118"/>
<path d="M188,339.9l22,-15.7l101.9,.4v45.3l-22.4,15.7H187.2l.8,-45.7Z" class="g2_118"/>
<path d="M187.2,340.1H289.8v45.3H187.2V340.1Zm22.5,-15.6H312.3v45.3m-125,-29.9l22.5,-15.6m80,15.9l22.5,-15.6m-22.6,61L312.2,370" class="g4_118"/>
<path d="M411.3,339.9l-.7,45.7H512.5l22.8,-15.7V324.6l-101.9,-.4Z" class="g7_118"/>
<path d="M410.9,339.9l22,-15.7l101.9,.4v45.3l-22.4,15.7H410.1l.8,-45.7Z" class="g2_118"/>
<path d="M410.1,340.1H512.7v45.3H410.1V340.1Zm22.5,-15.6H535.2v45.3m-125,-29.9l22.5,-15.6m80,15.9l22.5,-15.6m-22.6,61L535.1,370" class="g4_118"/>
<path d="M433.1,325l-21.5,14.6h101L534.2,325Z" class="g1_118"/>
<path d="M433.1,325l-17.7,12.1l-3.6,2.5H512.6L534.2,325Z" class="g8_118"/>
<g clip-path="url(#c1_118)">
<path d="M410.9,339.9l22,-15.7l101.9,.4v45.3l-22.4,15.7H410.1l.8,-45.7Z" class="g9_118"/>
<path d="M410.1,340.1H512.7v45.3H410.1V340.1Zm22.5,-15.6H535.2v45.3m-125,-29.9l22.5,-15.6m80,15.9l22.5,-15.6" class="ga_118"/>
</g>
<path d="M432.6,339.6V324.5" class="g4_118"/>
<path fill-rule="evenodd" d="M633.1,384.9l21.2,-14.7H756.7l-21.6,14.7Z" class="g7_118"/>
<path d="M633.2,339.9l22.1,-15.7l101.9,.4v45.3l-22.4,15.7H632.4l.8,-45.7Z" class="g2_118"/>
<path d="M632.4,340.1H735.1v45.3H632.4V340.1Z" class="g4_118"/>
<path d="M757.5,369.8H654.9V324.5" class="gb_118"/>
<path d="M654.9,324.5H757.5v45.3M632.6,339.9l22.5,-15.6m80,15.9l22.5,-15.6" class="g4_118"/>
<path d="M632.5,385.3L655,369.7" class="gb_118"/>
<path d="M735,385.6L757.5,370" class="g4_118"/>
<path d="M73.6,825H181V794.9H73.6V825Z" class="gc_118"/>
</svg>