<?xml version="1.0" encoding="UTF-8" standalone="no"?>
<!DOCTYPE svg PUBLIC "-//W3C//DTD SVG 1.1//EN"
"http://www.w3.org/Graphics/SVG/1.1/DTD/svg11.dtd">
<svg viewBox="0 0 909 1147" version="1.1" xmlns="http://www.w3.org/2000/svg" xmlns:xlink="http://www.w3.org/1999/xlink">
<defs>
<clipPath id="c0_2"><path d="M105.4,264.7v-18h30.2v18Z"/></clipPath>
<clipPath id="c1_2"><path d="M106.8,325.4V299.8h25.6v25.6Z"/></clipPath>
<clipPath id="c2_2"><path d="M125.3,514.2c-.4,0,-.8,0,-1.1,-.1c-4,-1.2,-7.7,-3.3,-10.9,-5.3c-.6,-.2,-1.2,-.4,-1.8,-.6c-.1,-.2,-.2,-.4,-.3,-.6h-.6c-.1,-.2,-.2,-.4,-.3,-.6h-.6c-.1,-.2,-.2,-.4,-.3,-.6c-.5,-.2,-1.1,-.4,-1.7,-.6c-.1,-.2,-.2,-.4,-.3,-.6c-.4,-.1,-.8,-.2,-1.2,-.3c-.1,-.2,-.2,-.4,-.3,-.5h-.6c-.1,-.2,-.2,-.4,-.3,-.6h-.6c-.1,-.2,-.2,-.4,-.3,-.6c-.4,-.1,-.8,-.2,-1.1,-.3v-.3c-.3,-.1,-.6,-.2,-.9,-.3c-.1,-.2,-.2,-.4,-.3,-.6h-.6c-.1,-.2,-.2,-.4,-.3,-.6c-.6,-.5,-1.2,-1,-1.8,-1.5V499c-.3,-.2,-.6,-.4,-.9,-.6c-.3,-.5,0,-.6,-.6,-1.1c0,-.4,0,-.8,0,-1.1c0,-2.3,.3,-3.8,.9,-5.4v-.9c.2,-.1,.4,-.2,.6,-.3c.3,-.9,.6,-1.8,.9,-2.7c.2,-.1,.4,-.2,.6,-.3v-.8c.2,-.1,.4,-.2,.6,-.3v-.6h.3v-.6h.3v-.6h.3v-.6h.3v-.6c.2,-.1,.4,-.2,.6,-.3l.2,-1.2c.2,-.1,.4,-.2,.6,-.3v-.8c.2,-.1,.4,-.2,.6,-.3V479h.3v-.6h.3v-.6h.3v-.6h.3c.1,-.3,.2,-.6,.3,-.9c.2,-.1,.4,-.2,.6,-.3c.2,-.6,.4,-1.2,.6,-1.8c.2,-.1,.4,-.2,.6,-.3c.2,-.5,.4,-1.1,.6,-1.7c.2,-.1,.4,-.2,.6,-.3l.2,-1.2h.3c.1,-.3,.2,-.6,.3,-.9c.2,-.1,.4,-.2,.6,-.3l.3,-1.2h.3l.3,-.8c.2,-.1,.4,-.2,.6,-.3l.3,-1.2c.2,-.1,.4,-.2,.6,-.3c.2,-.6,.4,-1.2,.6,-1.8c.2,-.1,.4,-.2,.6,-.3c.1,-.4,.2,-.8,.3,-1.2c.2,-.1,.4,-.2,.6,-.3c.2,-.6,.4,-1.1,.5,-1.7h.3v-.6h.3c.2,-.6,.4,-1.2,.6,-1.8h.3c.1,-.6,.2,-1.2,.3,-1.8h.3v-.6h.3c.1,-.6,.2,-1.3,.3,-2h.3c.1,-.7,.2,-1.4,.3,-2.1h.3c.2,-.6,.4,-1.2,.6,-1.8h.3c.1,-.4,.2,-.7,.3,-1.1c.2,-.1,.4,-.2,.6,-.3c.2,-.6,.4,-1.2,.6,-1.8c.1,-.1,.3,-.2,.5,-.3v-.6h.3V445c.2,-.1,.4,-.2,.6,-.3v-.6c1.4,-1.6,2.8,-3.3,4.2,-5c1,-.7,2.4,-.9,3.2,-1.8c0,0,.1,0,.1,0c.1,0,.2,0,.2,0c2.7,0,5,.7,7.1,1.5c.6,.2,1.2,.4,1.8,.6c.6,.1,1.3,.2,2,.3v.3c.7,.1,1.4,.2,2.1,.3v.3h.6v.3c1,.2,2,.4,2.9,.6v.3h.6v.3h.9v.3c.4,.1,.8,.2,1.2,.3v.3h.9v.2h.6v.3h.9v.3c.5,.2,1.1,.4,1.7,.6v.3h.6v.3c.6,.2,1.2,.4,1.8,.6c0,.1,.1,.2,.1,.3l.2,.3h.6c.3,.4,.6,.8,.9,1.2c.2,.1,.5,.2,.8,.3v.6c.3,.2,.6,.4,.9,.6v.5c.2,.1,.4,.2,.6,.3c.5,1.7,1,3.4,1.5,5.1v2.9h.3c-.1,1.9,-.2,3.8,-.3,5.6h-.3v.9c-1,1.3,-2,2.6,-3,3.8h-.5c-.2,.3,-.4,.6,-.6,.9c-.2,.1,-.4,.2,-.6,.3v.6c-.3,.2,-.6,.4,-.9,.6v.6c-.2,.1,-.4,.2,-.6,.3c-.2,.6,-.4,1.2,-.6,1.8c-.2,.1,-.4,.2,-.6,.3v.5c-.2,.1,-.4,.2,-.6,.3v.6h-.3v.9c-.2,.1,-.4,.2,-.6,.3c-.2,.6,-.4,1.2,-.5,1.8c-.2,.1,-.4,.2,-.6,.3c-.1,.3,-.2,.5,-.3,.8v.4h-.3v.6h-.3v.5c-.2,.1,-.4,.2,-.6,.3v.6h-.3v.6h-.3v.6H149v.6c-.2,.1,-.4,.2,-.6,.3c-.2,.6,-.4,1.2,-.6,1.8c-.2,.1,-.4,.2,-.6,.3v.6h-.3v.5h-.3v.6h-.3v.6H146v.6h-.2c-.1,.4,-.2,.8,-.3,1.2c-.2,.1,-.4,.2,-.6,.3c-.2,.6,-.4,1.2,-.6,1.8c-.2,.1,-.4,.2,-.6,.3c-.2,.5,-.4,1.1,-.6,1.7h-.3c-.1,.3,-.2,.6,-.3,.9c-.2,.1,-.4,.2,-.6,.3v.6h-.3v.6h-.3v.6H141v.6h-.3v.6c-.2,.1,-.4,.2,-.6,.3l-.3,1.1c-.1,.1,-.3,.2,-.5,.3c-.2,.6,-.4,1.2,-.6,1.8c-.2,.1,-.4,.2,-.6,.3v.6h-.3v.6h-.3v.6h-.3v.6h-.3v.5h-.3c-.1,.3,-.2,.6,-.3,.9c-.2,.1,-.4,.2,-.6,.3v.6h-.3c-.1,.3,-.2,.6,-.3,.9c-.2,.1,-.4,.2,-.6,.3v.6c-.2,.1,-.4,.2,-.6,.3c-.1,.3,-.2,.6,-.2,.9h-.3l-.3,1.2c-.5,.3,-1,.7,-1.5,1.1c-.2,.2,-.3,.4,-.5,.6l-.4,.6c-.5,.3,-2.2,.9,-3.8,1.2c-.2,0,-.3,0,-.4,0c-.3,.1,-.5,.1,-.7,.1c-.2,0,-.4,0,-.5,0Z"/></clipPath>
<style type="text/css"><![CDATA[
.g0_2{
fill: #FFF1E0;
}
.g1_2{
fill: #0EA5DF;
}
.g2_2{
fill: #0C4B7F;
}
.g3_2{
fill: #FFF;
}
.g4_2{
fill: none;
stroke: #939598;
stroke-width: 1.527;
}
.g5_2{
fill: #ED1D24;
}
]]></style>
</defs>
<path d="M152.4,217h648V179.5h-648V217Z" class="g0_2"/>
<path d="M100.4,217h39.7V179.5H100.4V217Z" class="g1_2"/>
<path d="M100.4,159.9h39.7V122.5H100.4v37.4Z" class="g2_2"/>
<path d="M152.4,159.7h648V122.2h-648v37.5Z" class="g0_2"/>
<path d="M100.4,274.1h39.7V236.6H100.4v37.5Z" class="g1_2"/>
<path clip-path="url(#c0_2)" d="M120.7,259.2c-2.1,.1,-3.8,-1.6,-3.6,-3.6c.1,-1.8,1.4,-3.1,3.1,-3.2c2.1,-.2,3.8,1.5,3.7,3.6c-.1,1.7,-1.5,3.1,-3.2,3.2m.2,2.9c-3.9,.3,-7,-2.9,-6.8,-6.7c.2,-3.2,2.8,-5.8,5.9,-6c3.9,-.2,7,3,6.8,6.8c-.2,3.1,-2.8,5.7,-5.9,5.9m-.4,-15.3c-5.8,0,-11,3.1,-14.9,8.3c-.3,.4,-.3,1,0,1.4c3.9,5.1,9.1,8.3,14.9,8.3c5.7,0,11,-3.2,14.8,-8.3c.3,-.4,.3,-1,0,-1.4c-3.8,-5.2,-9.1,-8.3,-14.8,-8.3Z" class="g3_2"/>
<path d="M152.4,274.1h648V236.6h-648v37.5Z" class="g0_2"/>
<path d="M100.4,331.2h39.7V293.8H100.4v37.4Z" class="g1_2"/>
<path clip-path="url(#c1_2)" fill-rule="evenodd" d="M121.9,317.2c3.8,0,6.9,-3.1,6.9,-6.9c0,-3.8,-3.1,-6.8,-6.9,-6.8c-3.8,0,-6.8,3,-6.8,6.8c0,3.8,3,6.9,6.8,6.9m-14.3,4.5l5.5,-5.6h.1c-1.1,-1.7,-1.7,-3.7,-1.7,-5.8c0,-5.8,4.6,-10.5,10.4,-10.5c5.8,0,10.5,4.7,10.5,10.5c0,5.8,-4.7,10.5,-10.5,10.5c-2.1,0,-4.1,-.6,-5.7,-1.7q-.1,0,-.1,.1l-5.5,5.5c-.9,.8,-2.2,.8,-3,0c-.9,-.8,-.9,-2.2,0,-3Z" class="g3_2"/>
<path d="M152.4,331.2h648V293.8h-648v37.4Z" class="g0_2"/>
<path d="M97.9,384.2H205.3V354H97.9v30.2Z" class="g1_2"/>
<path d="M205.8,606.5l-.1,22.6v.1l-17.1,16.4l-24.3,-.2l-17,-16v.2l.1,-23.7l17.2,-16.2l23.8,.2Z" class="g3_2"/>
<path d="M205.8,606.5l-.1,22.6v.1l-17.1,16.4l-24.3,-.2l-17,-16v.2l.1,-23.7l17.2,-16.2l23.8,.2l17.4,16.6Z" class="g4_2"/>
<path d="M204.8,607v21.7l-16.3,15.6l-23.3,-.2L148.8,628.7v.2l.1,-22.6l16.4,-15.5l22.7,.3Z" class="g5_2"/>
<image clip-path="url(#c2_2)" preserveAspectRatio="none" x="95" y="435" width="70" height="81" xlink:href="img/p1.jpg"/>
</svg>
