<?xml version="1.0" encoding="UTF-8" standalone="no"?>
<!DOCTYPE svg PUBLIC "-//W3C//DTD SVG 1.1//EN"
"http://www.w3.org/Graphics/SVG/1.1/DTD/svg11.dtd">
<svg viewBox="0 0 909 1147" version="1.1" xmlns="http://www.w3.org/2000/svg" xmlns:xlink="http://www.w3.org/1999/xlink">
<defs>
<style type="text/css"><![CDATA[
.g0_48{
fill: #FAAF82;
}
.g1_48{
fill: none;
stroke: #0EA5DF;
stroke-width: 0.763;
stroke-miterlimit: 10;
}
.g2_48{
fill: none;
stroke: #0EA5DF;
stroke-width: 3.055;
}
.g3_48{
fill: #C2DDF4;
}
.g4_48{
fill: #0EA5DF;
}
.g5_48{
fill: none;
stroke: #FFF;
stroke-width: 0.791;
}
]]></style>
</defs>
<path d="M0,1131H73.8v-51.5H0V1131Z" class="g0_48"/>
<path d="M184.8,138.6h39m-38.7,43.3V139m38.7,-.4H517.5M223.8,181.9V139m-38.7,64.2V181.9m38.7,21.3V181.9M517.5,138.6h34.2m-34.2,42.9V139m34.2,-.4H759M551.7,181.5V139m206.9,42.5V139M517.1,181.9h34.6m-34.2,21.3V182.3m34.2,-.4H759M551.7,203.5V182.3m206.9,21.2V182.3M551.7,224.8V203.5m206.9,21.3V203.5m-573.8,0h39m-38.7,21.7V203.9m38.7,-.4H517.9M223.8,225.2V203.9m293.7,20.9V203.9M185.1,268.1V225.2m38.7,42.9V225.2m-39,43.3h39m0,0H517.5m-.4,-43.3h34.6m-34.2,42.9V225.6m34.2,-.4H759M551.7,268.1V225.6m206.9,42.5V225.6M517.5,268.5h34.2m0,0H759M742.7,492H778m-35,24.5V492.4m35,-.4h35.3M778,516.5V492.4m35,24.1V492.4m-70.3,24.5H778m-35,24.6V517.3m35,-.4h35.3M778,541.5V517.3m35,24.2V517.3m-70.3,24.6H778m0,0h35.3" class="g1_48"/>
<path d="M73.6,65.7H835.8" class="g2_48"/>
<path d="M73.6,154.7h32v-32h-32v32Z" class="g3_48"/>
<path d="M112.6,154.4h26.1V128.3H112.6v26.1Z" class="g3_48"/>
<path d="M145.9,154.4H166V134.3H145.9v20.1Z" class="g3_48"/>
<path d="M89.8,120.2c3.2,0,5.8,-2.6,5.8,-5.7c0,-3.2,-2.6,-5.7,-5.8,-5.7c-3.1,0,-5.7,2.5,-5.7,5.7c0,3.1,2.6,5.7,5.7,5.7Z" class="g4_48"/>
<path d="M125.9,126.1c3.1,0,5.7,-2.5,5.7,-5.7c0,-3.2,-2.6,-5.7,-5.7,-5.7c-3.2,0,-5.7,2.5,-5.7,5.7c0,3.2,2.5,5.7,5.7,5.7Z" class="g4_48"/>
<path d="M156.2,132.2c3.2,0,5.7,-2.6,5.7,-5.7c0,-3.2,-2.5,-5.8,-5.7,-5.8c-3.2,0,-5.7,2.6,-5.7,5.8c0,3.1,2.5,5.7,5.7,5.7Z" class="g4_48"/>
<path d="M112.6,154.3l26.1,-25.8m7.5,25.9l19.6,-19.8" class="g5_48"/>
<path d="M73.6,579H835.8M73.6,802.7H835.8" class="g2_48"/>
<path d="M216.3,945.3h66.1m-65.7,38.3V945.7m65.7,-.4h59.7m-59.7,38.3V945.7m59.7,-.4h68.5m-68.5,38.3V945.7m68.5,-.4h91.1m-91.1,38.3V945.7m90.7,37.9V945.7M216.3,984h66.1m-65.7,21V984.4m65.7,-.4h59.7m-59.7,21V984.4m59.7,-.4h68.5m-68.5,21V984.4m68.5,-.4h91.1m-91.1,21V984.4m90.7,20.6V984.4m-285,21h66.1m-65.7,24.2v-23.9m65.7,-.3h59.7m-59.7,24.2v-23.9m59.7,-.3h68.5m-68.5,24.2v-23.9m68.5,-.3h91.1m-91.1,24.2v-23.9m90.7,23.9v-23.9m-285,24.2h66.1m0,0h59.7m0,0h68.5m0,0h91.1" class="g1_48"/>
<path d="M73.6,96.4H181V66.3H73.6V96.4Z" class="g4_48"/>
</svg>