<?xml version="1.0" encoding="UTF-8" standalone="no"?>
<!DOCTYPE svg PUBLIC "-//W3C//DTD SVG 1.1//EN"
"http://www.w3.org/Graphics/SVG/1.1/DTD/svg11.dtd">
<svg viewBox="0 0 909 1147" version="1.1" xmlns="http://www.w3.org/2000/svg" xmlns:xlink="http://www.w3.org/1999/xlink">
<defs>
<clipPath id="c0_54"><path d="M185.2,556.4V426.6H399V556.4Z"/></clipPath>
<clipPath id="c1_54"><path d="M139.3,1018.1v-18h30.2v18Z"/></clipPath>
<style type="text/css"><![CDATA[
.g0_54{
fill: #B6D774;
}
.g1_54{
fill: none;
stroke: #0EA5DF;
stroke-width: 3.055;
}
.g2_54{
fill: none;
stroke: #000;
stroke-width: 0.763;
stroke-miterlimit: 2;
}
.g3_54{
fill: none;
stroke: #000;
stroke-width: 1.54;
stroke-miterlimit: 2;
}
.g4_54{
fill: #000;
}
.g5_54{
fill: none;
stroke: #000;
stroke-width: 1.527;
stroke-miterlimit: 2;
}
.g6_54{
fill: #FFF;
}
.g7_54{
fill: none;
stroke: #000;
stroke-width: 0.763;
}
.g8_54{
fill: none;
stroke: #000;
stroke-width: 1.069;
}
.g9_54{
fill: #FFF1E0;
}
.ga_54{
fill: #0C4B7F;
}
.gb_54{
fill: #0EA5DF;
}
]]></style>
</defs>
<path d="M0,1131H73.8v-51.5H0V1131Z" class="g0_54"/>
<path d="M0,138.7H120.6V0H0V138.7Z" class="g0_54"/>
<path d="M71.4,739.6H834.7" class="g1_54"/>
<path d="M430.7,393.5h71.9" class="g2_54"/>
<path d="M430.7,389.5v8" class="g3_54"/>
<path fill-rule="evenodd" d="M508,393.5l-10.8,-4.6c1.6,3.1,1.6,6.2,0,9.2Z" class="g4_54"/>
<path d="M278.3,393.5H430.7" class="g5_54"/>
<path d="M278.3,389.5v8" class="g3_54"/>
<path d="M191,393.5h87.3" class="g2_54"/>
<path d="M191,389.5v8" class="g3_54"/>
<path fill-rule="evenodd" d="M186.7,408.1c0,-1.4,.2,-2.6,.6,-3.6c.5,-1,1,-1.7,1.7,-2.2c.5,-.4,1.1,-.6,1.7,-.6c.9,0,1.7,.5,2.5,1.4c.9,1.2,1.4,2.8,1.4,4.8c0,1.4,-.2,2.6,-.6,3.6c-.5,1,-1,1.7,-1.6,2.1c-.6,.5,-1.2,.7,-1.8,.7c-1.2,0,-2.1,-.7,-2.9,-2.1c-.7,-1.1,-1,-2.5,-1,-4.1m1.8,.2c0,1.7,.2,3,.6,4.1c.3,.9,.8,1.3,1.5,1.3c.3,0,.7,-.1,1,-.4c.4,-.3,.6,-.8,.8,-1.5c.3,-1,.4,-2.4,.4,-4.3c0,-1.4,-.1,-2.5,-.4,-3.5c-.2,-.6,-.5,-1.1,-.9,-1.4c-.2,-.2,-.5,-.3,-.8,-.3c-.4,0,-.8,.2,-1.1,.5c-.5,.5,-.7,1.3,-.9,2.4c-.2,1,-.2,2.1,-.2,3.1Z" class="g4_54"/>
<path fill-rule="evenodd" d="M282.5,411.9l-.9,2.3h-7.2v-.3c2.1,-2,3.6,-3.5,4.5,-4.7c.8,-1.3,1.3,-2.4,1.3,-3.4c0,-.8,-.3,-1.4,-.7,-1.9c-.5,-.5,-1.1,-.7,-1.7,-.7c-.6,0,-1.2,.1,-1.6,.5c-.5,.3,-.9,.9,-1.1,1.5h-.3c.1,-1.1,.5,-1.9,1.1,-2.5c.7,-.6,1.4,-.9,2.4,-.9c.9,0,1.8,.3,2.4,1c.7,.6,1,1.3,1,2.2c0,.6,-.1,1.2,-.4,1.8c-.5,1,-1.2,2,-2.2,3.1c-1.5,1.6,-2.4,2.6,-2.8,2.9h3.2c.7,0,1.1,0,1.4,0c.2,-.1,.5,-.2,.7,-.3c.2,-.2,.4,-.4,.5,-.6Z" class="g4_54"/>
<path fill-rule="evenodd" d="M428.7,400.4l-.7,1.5h-3.7l-.8,1.7c1.6,.2,2.9,.8,3.8,1.7c.8,.8,1.2,1.8,1.2,2.9c0,.6,-.2,1.2,-.4,1.8c-.3,.5,-.6,1,-1,1.3c-.4,.4,-.8,.7,-1.3,1c-.7,.3,-1.4,.5,-2.1,.5c-.8,0,-1.3,-.2,-1.6,-.4c-.4,-.3,-.5,-.5,-.5,-.8c0,-.2,.1,-.3,.2,-.5c.1,-.1,.3,-.2,.5,-.2c.2,0,.3,.1,.4,.1c.1,0,.3,.2,.6,.4c.5,.3,.9,.4,1.4,.4c.7,0,1.3,-.2,1.8,-.8c.5,-.5,.8,-1.1,.8,-1.9c0,-.7,-.2,-1.4,-.7,-2c-.5,-.7,-1.1,-1.2,-2,-1.5c-.6,-.3,-1.5,-.4,-2.6,-.5l2.3,-4.7Z" class="g4_54"/>
<path fill-rule="evenodd" d="M430.9,415.6v-.4c.6,-.2,1,-.5,1.4,-.9c.3,-.5,.5,-.9,.5,-1.4c0,-.1,0,-.2,-.1,-.3c0,0,-.1,-.1,-.1,-.1c-.1,0,-.2,.1,-.4,.2c-.1,.1,-.3,.1,-.4,.1c-.3,0,-.5,-.1,-.7,-.3c-.2,-.1,-.2,-.4,-.2,-.7c0,-.3,.1,-.5,.3,-.7c.2,-.2,.5,-.4,.8,-.4c.4,0,.8,.2,1.1,.6c.3,.3,.4,.8,.4,1.3c0,.6,-.2,1.2,-.6,1.7c-.4,.6,-1.1,1,-2,1.3Z" class="g4_54"/>
<path fill-rule="evenodd" d="M442.4,400.4l-.7,1.5h-3.6l-.8,1.7c1.6,.2,2.8,.8,3.7,1.7c.8,.8,1.2,1.8,1.2,2.9c0,.6,-.1,1.2,-.4,1.8c-.2,.5,-.6,1,-.9,1.3c-.4,.4,-.9,.7,-1.4,1c-.7,.3,-1.4,.5,-2.1,.5c-.7,0,-1.2,-.2,-1.6,-.4c-.3,-.3,-.5,-.5,-.5,-.8c0,-.2,.1,-.3,.2,-.5c.2,-.1,.4,-.2,.6,-.2c.1,0,.3,.1,.4,.1c.1,0,.3,.2,.6,.4c.4,.3,.9,.4,1.3,.4c.7,0,1.3,-.2,1.9,-.8c.5,-.5,.8,-1.1,.8,-1.9c0,-.7,-.3,-1.4,-.8,-2c-.4,-.7,-1.1,-1.2,-1.9,-1.5c-.7,-.3,-1.5,-.4,-2.7,-.5l2.4,-4.7Z" class="g4_54"/>
<path fill-rule="evenodd" d="M286.4,368l-1,10.1c0,.5,0,.8,0,1c0,.2,0,.4,.1,.5c.1,.2,.3,.3,.5,.4c.1,.1,.5,.1,.9,.1l-.1,.4h-4.7l.1,-.4h.2c.3,0,.7,-.1,.9,-.2c.2,-.1,.3,-.3,.4,-.6c.1,-.2,.1,-.6,.2,-1.3l.1,-1.5h-3.4l-1.3,1.6c-.2,.4,-.4,.7,-.5,.8c-.1,.2,-.1,.4,-.1,.5c0,.2,.1,.4,.2,.5c.2,.1,.4,.2,.8,.2l-.1,.4H276l.1,-.4c.5,0,.8,-.1,1.2,-.4c.3,-.3,.8,-.9,1.5,-1.8L286,368Zm-1.8,3l-3.5,4.8h3Z" class="g4_54"/>
<path fill-rule="evenodd" d="M428.1,368.5l.1,-.3h4.4c.7,0,1.3,.1,1.9,.3c.6,.3,1,.6,1.3,1c.3,.4,.4,.8,.4,1.3c0,.7,-.2,1.3,-.8,1.9c-.5,.5,-1.3,.9,-2.4,1.2c.7,.3,1.3,.6,1.6,1.1c.3,.4,.5,.9,.5,1.5c0,.6,-.1,1.2,-.4,1.7c-.4,.6,-.8,1,-1.2,1.3c-.5,.3,-1.1,.5,-1.8,.7c-.5,.1,-1.3,.1,-2.3,.1H425l.1,-.3c.4,0,.8,-.1,.9,-.1c.3,-.1,.4,-.3,.5,-.4c.2,-.3,.4,-.8,.6,-1.6l2.2,-7.4c.2,-.6,.3,-1,.3,-1.3c0,-.2,-.1,-.4,-.3,-.5c-.1,-.1,-.5,-.2,-.9,-.2c-.1,0,-.2,0,-.3,0m1.8,5.1c.4,0,.7,0,.9,0c1.2,0,2.1,-.3,2.7,-.8c.6,-.6,.9,-1.3,.9,-2.1c0,-.6,-.2,-1.1,-.5,-1.4c-.4,-.3,-1,-.5,-1.8,-.5c-.2,0,-.5,0,-.8,.1Zm-1.8,5.9c.7,.1,1.2,.2,1.6,.2c.9,0,1.7,-.3,2.4,-.9c.8,-.5,1.1,-1.3,1.1,-2.3c0,-.7,-.2,-1.3,-.7,-1.7c-.4,-.4,-1.1,-.6,-2.1,-.6c-.2,0,-.4,0,-.7,0Z" class="g4_54"/>
<image clip-path="url(#c0_54)" preserveAspectRatio="none" x="181" y="423" width="218" height="137" xlink:href="img/p1.jpg"/>
<path fill-rule="evenodd" d="M197.3,838.7H401.1c6.3,0,11.4,5.1,11.4,11.4v87.8c0,6.3,-5.1,11.4,-11.4,11.4H197.3c-6.3,0,-11.4,-5.1,-11.4,-11.4V850.1c0,-6.3,5.1,-11.4,11.4,-11.4Z" class="g6_54"/>
<path d="M197.3,838.7H401.1c6.3,0,11.4,5.1,11.4,11.4v87.8c0,6.3,-5.1,11.4,-11.4,11.4H197.3c-6.3,0,-11.4,-5.1,-11.4,-11.4V850.1c0,-6.3,5.1,-11.4,11.4,-11.4Z" class="g7_54"/>
<path fill-rule="evenodd" d="M197.7,927.9c.9,0,1.5,.7,1.5,1.6c0,.8,-.6,1.5,-1.5,1.5c-.8,0,-1.5,-.7,-1.5,-1.5c0,-.9,.7,-1.6,1.5,-1.6Z" class="g4_54"/>
<path d="M197.7,927.9c.9,0,1.5,.7,1.5,1.6c0,.8,-.6,1.5,-1.5,1.5c-.8,0,-1.5,-.7,-1.5,-1.5c0,-.9,.7,-1.6,1.5,-1.6Z" class="g2_54"/>
<path fill-rule="evenodd" d="M256,912.7c.8,0,1.5,.7,1.5,1.5c0,.8,-.7,1.5,-1.5,1.5c-.8,0,-1.5,-.7,-1.5,-1.5c0,-.8,.7,-1.5,1.5,-1.5Z" class="g4_54"/>
<path d="M256,912.7c.8,0,1.5,.7,1.5,1.5c0,.8,-.7,1.5,-1.5,1.5c-.8,0,-1.5,-.7,-1.5,-1.5c0,-.8,.7,-1.5,1.5,-1.5Z" class="g2_54"/>
<path fill-rule="evenodd" d="M287.2,848.6c.8,0,1.5,.7,1.5,1.5c0,.8,-.7,1.5,-1.5,1.5c-.9,0,-1.5,-.7,-1.5,-1.5c0,-.8,.6,-1.5,1.5,-1.5Z" class="g4_54"/>
<path d="M287.2,848.6c.8,0,1.5,.7,1.5,1.5c0,.8,-.7,1.5,-1.5,1.5c-.9,0,-1.5,-.7,-1.5,-1.5c0,-.8,.6,-1.5,1.5,-1.5Z" class="g2_54"/>
<path fill-rule="evenodd" d="M395.1,928.3c.8,0,1.5,.7,1.5,1.5c0,.9,-.7,1.6,-1.5,1.6c-.9,0,-1.6,-.7,-1.6,-1.6c0,-.8,.7,-1.5,1.6,-1.5Z" class="g4_54"/>
<path d="M395.1,928.3c.8,0,1.5,.7,1.5,1.5c0,.9,-.7,1.6,-1.5,1.6c-.9,0,-1.6,-.7,-1.6,-1.6c0,-.8,.7,-1.5,1.6,-1.5Z" class="g2_54"/>
<path fill-rule="evenodd" d="M196.2,916.2l-3.5,4.8h3.1Zm1.8,-3l-.9,10.1c-.1,.5,-.1,.8,-.1,1c0,.2,.1,.4,.1,.5c.2,.2,.3,.3,.5,.4c.2,.1,.5,.1,1,.1l-.1,.3h-4.8l.1,-.3h.2c.4,0,.7,-.1,1,-.2c.1,-.2,.3,-.3,.4,-.6c0,-.2,.1,-.6,.1,-1.3l.2,-1.5h-3.5l-1.2,1.6c-.3,.4,-.5,.7,-.5,.8c-.1,.2,-.2,.4,-.2,.5c0,.2,.1,.4,.3,.5c.1,.1,.4,.2,.8,.2l-.1,.3h-3.6l.1,-.3c.4,0,.8,-.2,1.1,-.4c.4,-.3,.9,-.9,1.5,-1.8l7.3,-9.9Z" class="g4_54"/>
<path fill-rule="evenodd" d="M263.9,896.1L263,900h-.3v-1c-.1,-.4,-.1,-.7,-.2,-1c-.1,-.2,-.3,-.5,-.5,-.7c-.2,-.2,-.5,-.4,-.8,-.5c-.4,-.1,-.7,-.1,-1.1,-.1c-1.1,0,-2,.3,-2.8,.8c-1,.8,-1.8,1.8,-2.4,3.2c-.5,1.1,-.7,2.3,-.7,3.4c0,1.2,.3,2.1,1,2.8c.7,.7,1.6,1.1,2.7,1.1c.8,0,1.5,-.2,2.2,-.6c.6,-.4,1.2,-.9,1.8,-1.7h.4c-.7,1.1,-1.4,1.8,-2.2,2.3c-.8,.5,-1.7,.8,-2.9,.8c-.9,0,-1.8,-.3,-2.6,-.7c-.7,-.4,-1.3,-1,-1.7,-1.7c-.4,-.8,-.6,-1.6,-.6,-2.4c0,-1.4,.3,-2.7,1,-3.9c.7,-1.3,1.7,-2.3,3,-3c1.2,-.7,2.4,-1,3.7,-1c.6,0,1.3,.1,2,.4c.3,.1,.5,.2,.7,.2c.1,0,.3,-.1,.4,-.1c.1,-.1,.3,-.3,.5,-.5Z" class="g4_54"/>
<path fill-rule="evenodd" d="M298,855c.6,.1,1.1,.2,1.5,.2c.9,0,1.7,-.3,2.5,-.9c.7,-.5,1,-1.3,1,-2.3c0,-.7,-.2,-1.3,-.6,-1.7c-.5,-.4,-1.2,-.6,-2.2,-.6c-.2,0,-.4,0,-.7,0Zm1.7,-5.9c.4,0,.7,0,.9,0c1.2,0,2.1,-.3,2.7,-.8c.6,-.6,.9,-1.3,.9,-2.1c0,-.6,-.1,-1.1,-.5,-1.4c-.4,-.3,-1,-.5,-1.8,-.5c-.2,0,-.5,0,-.8,.1ZM297.9,844l.1,-.3h4.4c.7,0,1.3,.1,1.9,.3c.6,.3,1,.6,1.3,1c.3,.4,.4,.8,.4,1.3c0,.7,-.2,1.3,-.7,1.9c-.5,.5,-1.4,.9,-2.5,1.2c.7,.3,1.3,.6,1.6,1.1c.4,.5,.5,.9,.5,1.5c0,.6,-.1,1.2,-.4,1.7c-.3,.6,-.7,1,-1.2,1.3c-.5,.3,-1.1,.5,-1.8,.7c-.5,.1,-1.2,.1,-2.3,.1h-4.4l.1,-.3c.5,0,.8,-.1,.9,-.1c.3,-.1,.5,-.3,.6,-.4c.1,-.3,.3,-.8,.5,-1.6l2.2,-7.4c.2,-.6,.3,-1,.3,-1.3c0,-.2,-.1,-.4,-.3,-.5c-.1,-.1,-.4,-.2,-.9,-.2c-.1,0,-.2,0,-.3,0Z" class="g4_54"/>
<path fill-rule="evenodd" d="M402.5,932.9l-2.7,9.1c-.2,.6,-.3,1.1,-.3,1.2c0,.1,.1,.2,.1,.3c.1,.1,.2,.1,.3,.2c.1,0,.4,.1,.7,.1c1,0,1.8,-.1,2.6,-.3c.8,-.2,1.5,-.5,2,-.9c.7,-.6,1.3,-1.3,1.8,-2.3c.4,-1,.6,-2.1,.6,-3.3c0,-1.4,-.3,-2.5,-1,-3.1c-.7,-.7,-1.6,-1.1,-2.9,-1.1c-.3,0,-.7,0,-1.2,.1m-3.2,-.4l.1,-.3h3.9c1.6,0,2.8,.2,3.6,.6c.8,.3,1.4,.9,1.9,1.7c.5,.9,.7,1.7,.7,2.6c0,.8,-.1,1.6,-.4,2.4c-.3,.7,-.6,1.3,-.9,1.8c-.4,.4,-.9,.9,-1.6,1.4c-.7,.6,-1.5,1,-2.3,1.3c-.8,.2,-1.9,.3,-3.1,.3H396l.2,-.3c.4,0,.8,0,.9,-.1c.3,-.1,.4,-.3,.5,-.4c.2,-.3,.4,-.8,.6,-1.5l2.2,-7.4c.1,-.6,.2,-1,.2,-1.3c0,-.3,-.1,-.5,-.2,-.6c-.2,-.1,-.5,-.2,-.9,-.2Z" class="g4_54"/>
<path d="M194.7,202.6l73.8,-10.3" class="g8_54"/>
<path d="M194.7,204.7c1.2,0,2.1,-1,2.1,-2.1c0,-1.2,-.9,-2.2,-2.1,-2.2c-1.2,0,-2.1,1,-2.1,2.2c0,1.1,.9,2.1,2.1,2.1Z" class="g4_54"/>
<path d="M268.5,194.5c1.1,0,2.1,-1,2.1,-2.2c0,-1.2,-1,-2.1,-2.1,-2.1c-1.2,0,-2.2,.9,-2.2,2.1c0,1.2,1,2.2,2.2,2.2Z" class="g4_54"/>
<path d="M416.7,222.8l70.5,-33.4" class="g8_54"/>
<path d="M416.7,225c1.1,0,2.1,-1,2.1,-2.2c0,-1.1,-1,-2.1,-2.1,-2.1c-1.2,0,-2.2,1,-2.2,2.1c0,1.2,1,2.2,2.2,2.2Z" class="g4_54"/>
<path d="M494.1,186.1l-10.6,1c0,0,3.7,2.3,3.1,6.6l7.5,-7.6Z" class="g4_54"/>
<path d="M638.3,241.8l60.8,-47.7" class="g8_54"/>
<path d="M705.1,189.4l-10.2,3.3c0,0,4.2,1.4,4.6,5.8l5.6,-9.1Z" class="g4_54"/>
<path d="M638.4,241.9h67.7" class="g8_54"/>
<path d="M713.8,241.9l-10.1,-3.7c0,0,2.4,3.7,0,7.4l10.1,-3.7Z" class="g4_54"/>
<path d="M71.4,272.4H834.7" class="g1_54"/>
<path d="M186.3,723.2h648V564.1h-648V723.2Z" class="g9_54"/>
<path fill-rule="evenodd" d="M552.3,838.7H756c6.3,0,11.5,5.1,11.5,11.4v87.8c0,6.3,-5.2,11.4,-11.5,11.4H552.3c-6.3,0,-11.5,-5.1,-11.5,-11.4V850.1c0,-6.3,5.2,-11.4,11.5,-11.4Z" class="g6_54"/>
<path d="M552.3,838.7H756c6.3,0,11.5,5.1,11.5,11.4v87.8c0,6.3,-5.2,11.4,-11.5,11.4H552.3c-6.3,0,-11.5,-5.1,-11.5,-11.4V850.1c0,-6.3,5.2,-11.4,11.5,-11.4Z" class="g7_54"/>
<path d="M560.4,929.5l197.9,.3L650.1,850.1l-31.3,64.1l-58.4,15.3Zm58.4,-15.4l138.3,15.4m-196.9,0l89.7,-79.4" class="g2_54"/>
<path fill-rule="evenodd" d="M554.2,926.9l-3.5,4.8h3.1Zm1.8,-3l-.9,10.1c-.1,.5,-.1,.8,-.1,.9c0,.3,.1,.5,.1,.6c.2,.2,.3,.3,.5,.4c.2,.1,.5,.1,1,.1l-.1,.3h-4.8l.1,-.3h.2c.4,0,.7,-.1,1,-.3c.1,-.1,.3,-.3,.4,-.5c0,-.2,.1,-.6,.2,-1.3l.1,-1.6h-3.5L549,934c-.3,.4,-.5,.7,-.5,.8c-.1,.2,-.1,.3,-.1,.5c0,.2,0,.3,.2,.5c.1,.1,.4,.2,.8,.2l-.1,.3h-3.6l.1,-.3c.4,0,.8,-.2,1.1,-.4c.4,-.3,.9,-.9,1.5,-1.8l7.3,-9.9Z" class="g4_54"/>
<path fill-rule="evenodd" d="M642.5,899.9l-.9,3.9h-.3v-1c0,-.3,-.1,-.7,-.2,-.9c-.1,-.3,-.3,-.6,-.5,-.8c-.2,-.2,-.5,-.3,-.8,-.4c-.4,-.2,-.7,-.2,-1.1,-.2c-1.1,0,-2,.3,-2.8,.9c-1,.7,-1.8,1.8,-2.4,3.1c-.5,1.1,-.7,2.3,-.7,3.4c0,1.2,.3,2.1,1,2.8c.7,.7,1.6,1.1,2.7,1.1c.8,0,1.5,-.2,2.2,-.6c.6,-.3,1.2,-.9,1.8,-1.7h.4c-.6,1.1,-1.4,1.8,-2.2,2.3c-.8,.5,-1.7,.8,-2.8,.8c-1,0,-1.9,-.2,-2.7,-.7c-.7,-.4,-1.3,-1,-1.7,-1.7c-.4,-.8,-.6,-1.6,-.6,-2.4c0,-1.4,.3,-2.6,1,-3.9c.8,-1.3,1.7,-2.2,3,-3c1.2,-.7,2.5,-1,3.7,-1c.6,0,1.3,.1,2,.4c.3,.1,.6,.2,.7,.2c.1,0,.3,-.1,.4,-.1c.1,-.1,.3,-.2,.5,-.5Z" class="g4_54"/>
<path fill-rule="evenodd" d="M662.1,853.5c.6,.1,1.1,.1,1.5,.1c.9,0,1.7,-.2,2.5,-.8c.7,-.6,1,-1.3,1,-2.3c0,-.7,-.2,-1.3,-.6,-1.7c-.5,-.4,-1.2,-.6,-2.2,-.6c-.2,0,-.4,0,-.7,0Zm1.7,-6c.4,0,.7,0,.9,0c1.2,0,2.1,-.2,2.8,-.8c.6,-.5,.9,-1.2,.9,-2c0,-.6,-.2,-1.1,-.6,-1.4c-.4,-.4,-1,-.5,-1.8,-.5c-.2,0,-.5,0,-.8,.1Zm-1.8,-5l.1,-.3h4.4c.7,0,1.4,.1,1.9,.3c.6,.2,1,.5,1.3,.9c.3,.5,.4,.9,.4,1.3c0,.7,-.2,1.4,-.7,1.9c-.5,.6,-1.3,1,-2.5,1.3c.7,.3,1.3,.6,1.6,1.1c.4,.4,.6,.9,.6,1.5c0,.6,-.2,1.1,-.5,1.7c-.3,.5,-.7,1,-1.2,1.3c-.5,.3,-1.1,.5,-1.8,.6c-.5,.1,-1.2,.2,-2.3,.2h-4.4l.1,-.3c.5,0,.8,-.1,1,-.2c.2,-.1,.4,-.2,.5,-.4c.1,-.2,.3,-.7,.5,-1.5l2.2,-7.4c.2,-.6,.3,-1,.3,-1.3c0,-.2,-.1,-.4,-.3,-.5c-.1,-.1,-.4,-.2,-.9,-.2c-.1,0,-.2,0,-.3,0Z" class="g4_54"/>
<path fill-rule="evenodd" d="M755.9,933.6l-2.6,9.1c-.2,.7,-.3,1.1,-.3,1.3c0,.1,0,.2,.1,.3c0,.1,.1,.1,.2,.1c.2,.1,.4,.1,.8,.1c.9,0,1.8,-.1,2.6,-.3c.8,-.2,1.4,-.5,1.9,-.8c.8,-.6,1.4,-1.4,1.8,-2.3c.4,-1,.6,-2.1,.6,-3.3c0,-1.4,-.3,-2.5,-1,-3.2c-.6,-.7,-1.6,-1,-2.9,-1c-.3,0,-.7,0,-1.2,0m-3.2,-.3l.1,-.3h3.9c1.6,0,2.8,.2,3.6,.5c.8,.4,1.5,1,1.9,1.8c.5,.8,.7,1.7,.7,2.6c0,.8,-.1,1.6,-.4,2.3c-.2,.8,-.5,1.4,-.9,1.8c-.3,.5,-.9,1,-1.6,1.5c-.7,.6,-1.5,1,-2.3,1.2c-.8,.3,-1.8,.4,-3.1,.4h-5.1l.1,-.3c.5,0,.8,-.1,.9,-.2c.3,-.1,.5,-.2,.6,-.4c.1,-.2,.3,-.7,.6,-1.5l2.1,-7.3c.2,-.6,.3,-1.1,.3,-1.4c0,-.2,-.1,-.4,-.3,-.5c-.1,-.1,-.4,-.2,-.9,-.2Z" class="g4_54"/>
<path d="M186.3,1078h648V990h-648v88Z" class="g9_54"/>
<path d="M134.4,601.8H174V564.3H134.4v37.5Z" class="ga_54"/>
<path d="M134.4,1027.5H174V990H134.4v37.5Z" class="gb_54"/>
<path clip-path="url(#c1_54)" d="M154.6,1012.5c-2.1,.2,-3.8,-1.5,-3.6,-3.6c.1,-1.7,1.5,-3.1,3.2,-3.2c2,-.1,3.7,1.6,3.6,3.6c-.1,1.8,-1.5,3.1,-3.2,3.2m.2,3c-3.8,.2,-7,-2.9,-6.7,-6.8c.1,-3.1,2.7,-5.7,5.9,-5.9c3.8,-.2,7,2.9,6.7,6.7c-.2,3.2,-2.7,5.8,-5.9,6m-.4,-15.4c-5.8,0,-11,3.2,-14.9,8.3c-.3,.4,-.3,1,0,1.4c3.9,5.2,9.1,8.3,14.9,8.3c5.8,0,11,-3.1,14.8,-8.3c.4,-.4,.4,-1,0,-1.4c-3.8,-5.1,-9,-8.3,-14.8,-8.3Z" class="g6_54"/>
</svg>
