<?xml version="1.0" encoding="UTF-8" standalone="no"?>
<!DOCTYPE svg PUBLIC "-//W3C//DTD SVG 1.1//EN"
"http://www.w3.org/Graphics/SVG/1.1/DTD/svg11.dtd">
<svg viewBox="0 0 909 1147" version="1.1" xmlns="http://www.w3.org/2000/svg" xmlns:xlink="http://www.w3.org/1999/xlink">
<defs>
<style type="text/css"><![CDATA[
.g0_90{
fill: #B6D774;
}
.g1_90{
fill: #FFF1E0;
}
.g2_90{
fill: #0C4B7F;
}
.g3_90{
fill: #000;
}
.g4_90{
fill: none;
stroke: #000;
stroke-width: 1.069;
stroke-miterlimit: 2;
}
.g5_90{
fill: none;
stroke: #0EA5DF;
stroke-width: 3.055;
}
.g6_90{
fill: none;
stroke: #00AEEF;
stroke-width: 0.579;
stroke-miterlimit: 2;
}
.g7_90{
fill: none;
stroke: #000;
stroke-width: 0.81;
stroke-miterlimit: 2;
}
.g8_90{
fill: none;
stroke: #0EA5DF;
stroke-width: 0.763;
}
.g9_90{
fill: none;
stroke: #D82C20;
stroke-width: 1.069;
}
.ga_90{
fill: none;
stroke: #000;
stroke-width: 1.069;
}
.gb_90{
fill: none;
stroke: #D82C20;
stroke-width: 0.763;
}
]]></style>
</defs>
<path d="M0,1131H73.8v-51.5H0V1131Z" class="g0_90"/>
<path d="M184.8,1078.3h651V957.1h-651v121.2Z" class="g1_90"/>
<path d="M135.8,994.8h39.7V957.3H135.8v37.5Z" class="g2_90"/>
<path fill-rule="evenodd" d="M195.3,902.1l-.9,10.1c-.1,.5,-.1,.8,-.1,.9c0,.3,0,.5,.1,.6c.1,.2,.3,.3,.5,.4c.2,.1,.5,.1,1,.1l-.1,.3H191l.1,-.3h.2c.4,0,.7,-.1,.9,-.3c.2,-.1,.3,-.3,.4,-.5c.1,-.2,.2,-.6,.2,-1.3l.2,-1.6h-3.5l-1.2,1.7c-.3,.4,-.5,.7,-.6,.8c0,.2,-.1,.3,-.1,.5c0,.2,.1,.3,.3,.5c.1,.1,.4,.2,.7,.2l-.1,.3h-3.6l.1,-.3c.5,0,.9,-.2,1.2,-.4c.3,-.3,.8,-.9,1.5,-1.8l7.3,-9.9Zm-1.8,3l-3.5,4.8h3Z" class="g3_90"/>
<path fill-rule="evenodd" d="M310.2,903.2l.1,-.4h4.4c.7,0,1.4,.1,1.9,.4c.6,.2,1,.5,1.3,.9c.3,.4,.4,.9,.4,1.3c0,.7,-.2,1.3,-.7,1.9c-.5,.6,-1.4,1,-2.5,1.3c.7,.2,1.3,.6,1.6,1c.4,.5,.6,1,.6,1.5c0,.6,-.2,1.2,-.5,1.8c-.3,.5,-.7,.9,-1.2,1.2c-.5,.4,-1.1,.6,-1.8,.7c-.5,.1,-1.2,.2,-2.3,.2h-4.4l.1,-.4c.5,0,.8,0,1,-.1c.2,-.1,.4,-.2,.5,-.4c.1,-.2,.3,-.7,.5,-1.6l2.2,-7.3c.2,-.6,.3,-1.1,.3,-1.3c0,-.2,-.1,-.4,-.3,-.5c-.1,-.2,-.4,-.2,-.9,-.2c-.1,0,-.2,0,-.3,0m1.8,5c.4,0,.7,0,.9,0c1.2,0,2.1,-.2,2.8,-.8c.6,-.5,.9,-1.2,.9,-2c0,-.6,-.2,-1.1,-.6,-1.5c-.4,-.3,-1,-.5,-1.8,-.5c-.2,0,-.5,.1,-.8,.1Zm-1.7,6c.6,.1,1.1,.1,1.5,.1c.9,0,1.7,-.3,2.5,-.8c.7,-.6,1,-1.4,1,-2.3c0,-.7,-.2,-1.3,-.6,-1.7c-.5,-.4,-1.2,-.7,-2.2,-.7c-.2,0,-.4,.1,-.7,.1Z" class="g3_90"/>
<path fill-rule="evenodd" d="M221.4,818.5l.1,-.4h3.9c1.7,0,2.9,.2,3.7,.6c.8,.4,1.4,1,1.9,1.8c.4,.8,.7,1.6,.7,2.6c0,.8,-.2,1.5,-.4,2.3c-.3,.7,-.6,1.3,-1,1.8c-.3,.4,-.8,.9,-1.5,1.5c-.8,.5,-1.5,.9,-2.4,1.2c-.8,.2,-1.8,.4,-3.1,.4h-5.1l.1,-.4c.5,0,.8,0,1,-.1c.2,-.1,.4,-.2,.5,-.4c.2,-.3,.4,-.8,.6,-1.5l2.1,-7.4c.2,-.5,.3,-1,.3,-1.3c0,-.2,-.1,-.4,-.3,-.6c-.1,-.1,-.4,-.1,-.9,-.1Zm3.2,.3l-2.6,9.1c-.2,.7,-.3,1.1,-.3,1.2c0,.1,0,.2,.1,.3c0,.1,.1,.2,.2,.2c.2,.1,.4,.1,.8,.1c.9,0,1.8,-.1,2.6,-.3c.8,-.2,1.5,-.5,2,-.9c.7,-.5,1.3,-1.3,1.7,-2.3c.4,-.9,.7,-2,.7,-3.3c0,-1.4,-.4,-2.4,-1,-3.1c-.7,-.7,-1.7,-1,-3,-1c-.3,0,-.7,0,-1.2,0Z" class="g3_90"/>
<path fill-rule="evenodd" d="M208.1,862.2c-.6,.7,-1.2,1.3,-1.8,1.6c-.7,.3,-1.3,.5,-2,.5c-.9,0,-1.6,-.2,-2,-.7c-.5,-.5,-.7,-1.1,-.7,-1.9c0,-.9,.2,-1.8,.7,-2.7c.5,-.9,1.2,-1.6,2.1,-2.2c.8,-.5,1.7,-.8,2.5,-.8c.7,0,1.2,.1,1.5,.4c.3,.3,.5,.6,.5,1c0,.4,-.1,.7,-.4,1c-.1,.2,-.4,.3,-.6,.3c-.2,0,-.3,-.1,-.5,-.2c-.1,-.1,-.1,-.3,-.1,-.5c0,-.1,0,-.2,0,-.3c.1,-.1,.2,-.2,.3,-.3c.1,-.2,.2,-.2,.3,-.3q0,-.1,0,-.2c0,-.1,-.1,-.2,-.2,-.3c-.1,-.1,-.4,-.2,-.7,-.2c-.6,0,-1.2,.2,-1.7,.6c-.6,.4,-1.1,1,-1.5,1.8c-.5,.9,-.7,1.8,-.7,2.7c0,.6,.1,1.1,.5,1.5c.3,.3,.8,.5,1.4,.5c.5,0,.9,-.1,1.4,-.3c.4,-.3,.9,-.7,1.5,-1.3Z" class="g3_90"/>
<path fill-rule="evenodd" d="M256.6,905.2l-1.8,6.1l-.2,.8c0,.1,0,.2,0,.2c0,.1,0,.2,.1,.3c0,0,.1,0,.2,0c.1,0,.2,0,.3,-.1c.2,-.2,.5,-.5,.9,-1.1l.3,.2c-.4,.7,-.8,1.1,-1.3,1.5c-.4,.3,-.8,.4,-1.2,.4c-.2,0,-.4,0,-.5,-.1c-.2,-.2,-.2,-.4,-.2,-.6c0,-.3,0,-.7,.2,-1.2l.2,-.6c-.8,1,-1.6,1.7,-2.2,2.1c-.5,.3,-.9,.4,-1.4,.4c-.4,0,-.8,-.1,-1.1,-.5c-.3,-.4,-.5,-.9,-.5,-1.5c0,-.9,.3,-1.9,.9,-3c.5,-1,1.3,-1.9,2.1,-2.5c.7,-.5,1.4,-.8,2,-.8c.3,0,.6,.1,.9,.3c.2,.2,.4,.5,.5,1l.4,-1.1Zm-3.2,.5c-.4,0,-.8,.2,-1.2,.5c-.6,.5,-1.2,1.3,-1.7,2.3c-.4,1,-.7,1.9,-.7,2.7c0,.4,.1,.7,.3,1c.2,.2,.5,.3,.7,.3c.7,0,1.4,-.5,2.2,-1.4c1,-1.3,1.5,-2.6,1.5,-4c0,-.5,-.1,-.8,-.3,-1.1c-.2,-.2,-.5,-.3,-.8,-.3Z" class="g3_90"/>
<path fill-rule="evenodd" d="M252.5,815.6l-1.8,6.2c.6,-.6,1.1,-1,1.5,-1.2c.5,-.2,.9,-.4,1.4,-.4c.6,0,1.2,.3,1.6,.7c.4,.4,.6,1,.6,1.8c0,.9,-.3,1.9,-.8,2.8c-.6,1,-1.3,1.7,-2.1,2.3c-.8,.5,-1.6,.8,-2.4,.8c-.9,0,-1.9,-.4,-2.8,-1.1l2.7,-9.3c.2,-.7,.3,-1.2,.3,-1.3c0,-.2,0,-.3,-.1,-.3c-.2,-.2,-.4,-.2,-.6,-.2c-.2,0,-.3,0,-.6,.1v-.4Zm-3.5,12c.6,.4,1.2,.5,1.6,.5c.5,0,1.1,-.2,1.6,-.5c.6,-.4,1.1,-1.1,1.5,-2c.4,-.9,.6,-1.8,.6,-2.8c0,-.5,-.1,-.9,-.4,-1.2c-.2,-.4,-.6,-.5,-.9,-.5c-.6,0,-1.1,.2,-1.7,.7c-.5,.4,-.9,1,-1.1,1.8Z" class="g3_90"/>
<path fill-rule="evenodd" d="M298.1,862.5c-.6,.8,-1.2,1.3,-1.9,1.7c-.6,.3,-1.3,.5,-2,.5c-.8,0,-1.5,-.2,-1.9,-.7c-.5,-.5,-.8,-1.1,-.8,-1.9c0,-.9,.3,-1.8,.8,-2.7c.5,-.9,1.2,-1.6,2.1,-2.2c.8,-.5,1.7,-.8,2.5,-.8c.7,0,1.1,.1,1.5,.4c.3,.3,.5,.6,.5,1c0,.4,-.2,.7,-.4,.9c-.2,.3,-.4,.4,-.6,.4c-.2,0,-.3,-.1,-.5,-.2c-.1,-.1,-.2,-.3,-.2,-.5c0,-.1,.1,-.2,.1,-.3c.1,-.1,.2,-.2,.3,-.3c.1,-.2,.2,-.3,.3,-.3q0,-.1,0,-.2c0,-.1,-.1,-.2,-.2,-.3c-.1,-.1,-.4,-.2,-.7,-.2c-.6,0,-1.2,.2,-1.7,.6c-.6,.4,-1.1,1,-1.5,1.8c-.5,.9,-.8,1.8,-.8,2.7c0,.6,.2,1.1,.6,1.5c.3,.3,.8,.5,1.4,.5c.4,0,.9,-.1,1.3,-.3c.5,-.3,1,-.7,1.6,-1.3Z" class="g3_90"/>
<path fill-rule="evenodd" d="M285.1,816.5l-.9,3.9h-.3l-.1,-.9c0,-.4,-.1,-.7,-.2,-1c-.1,-.3,-.3,-.5,-.5,-.7c-.2,-.2,-.5,-.4,-.8,-.5c-.3,-.1,-.7,-.2,-1.1,-.2c-1,0,-2,.3,-2.8,.9c-1,.7,-1.8,1.8,-2.4,3.2c-.4,1.1,-.7,2.2,-.7,3.4c0,1.1,.4,2.1,1,2.8c.7,.7,1.6,1,2.7,1c.8,0,1.6,-.2,2.2,-.5c.7,-.4,1.3,-1,1.8,-1.7h.5c-.7,1,-1.4,1.8,-2.2,2.3c-.8,.5,-1.8,.7,-2.9,.7c-1,0,-1.9,-.2,-2.6,-.6c-.8,-.4,-1.4,-1,-1.8,-1.8c-.4,-.7,-.6,-1.5,-.6,-2.4c0,-1.3,.4,-2.6,1.1,-3.9c.7,-1.2,1.7,-2.2,2.9,-2.9c1.2,-.7,2.5,-1.1,3.8,-1.1c.5,0,1.2,.2,1.9,.4c.4,.2,.6,.2,.7,.2c.2,0,.3,0,.4,-.1c.1,0,.3,-.2,.6,-.5Z" class="g3_90"/>
<path d="M199.4,900.6H302.7L268.3,831.7h-35l-33.9,68.9Z" class="g4_90"/>
<path d="M185.4,274.6h651V165.4h-651V274.6Z" class="g1_90"/>
<path d="M73.8,534.6H836M73.8,735.4H836" class="g5_90"/>
<path d="M0,138.7H120.6V0H0V138.7Z" class="g0_90"/>
<path d="M135.8,203h39.7V165.5H135.8V203Z" class="g2_90"/>
<path fill-rule="evenodd" d="M195.6,704.6l-.9,10.1c0,.5,-.1,.8,-.1,.9c0,.3,.1,.5,.2,.6c.1,.2,.2,.3,.4,.4c.2,.1,.5,.1,1,.1l-.1,.3h-4.8l.1,-.3h.2c.4,0,.7,-.1,1,-.3c.2,-.1,.3,-.3,.4,-.5c0,-.2,.1,-.6,.2,-1.3l.1,-1.6h-3.5l-1.2,1.7c-.3,.4,-.4,.7,-.5,.8c-.1,.2,-.1,.3,-.1,.5c0,.2,0,.3,.2,.5c.2,.1,.4,.2,.8,.2l-.1,.3h-3.6l.1,-.3c.4,0,.8,-.2,1.2,-.4c.3,-.3,.8,-.9,1.5,-1.8l7.2,-9.9Zm-1.7,3l-3.6,4.8h3.1Z" class="g3_90"/>
<path fill-rule="evenodd" d="M310.6,705.7l.1,-.4H315c.8,0,1.4,.1,2,.4c.5,.2,1,.5,1.3,.9c.2,.4,.4,.9,.4,1.3c0,.7,-.3,1.3,-.8,1.9c-.5,.6,-1.3,1,-2.4,1.2c.7,.3,1.2,.7,1.6,1.1c.3,.5,.5,1,.5,1.5c0,.6,-.2,1.2,-.5,1.8c-.3,.5,-.7,.9,-1.2,1.2c-.4,.3,-1,.6,-1.7,.7c-.5,.1,-1.3,.2,-2.3,.2h-4.5l.2,-.4c.4,0,.7,0,.9,-.1c.2,-.1,.4,-.2,.5,-.4c.2,-.2,.3,-.7,.6,-1.6l2.2,-7.3c.1,-.6,.2,-1.1,.2,-1.3c0,-.2,0,-.4,-.2,-.5c-.2,-.2,-.5,-.2,-.9,-.2c-.1,0,-.2,0,-.3,0m1.8,5c.4,0,.7,0,.8,0c1.3,0,2.2,-.3,2.8,-.8c.6,-.5,.9,-1.2,.9,-2c0,-.6,-.2,-1.1,-.5,-1.5c-.4,-.3,-1,-.5,-1.8,-.5c-.2,0,-.5,.1,-.8,.1Zm-1.8,6c.7,.1,1.2,.1,1.5,.1c1,0,1.8,-.3,2.5,-.8c.7,-.6,1.1,-1.4,1.1,-2.3c0,-.8,-.2,-1.3,-.7,-1.7c-.4,-.5,-1.1,-.7,-2.1,-.7c-.2,0,-.4,.1,-.7,.1Z" class="g3_90"/>
<path fill-rule="evenodd" d="M221.8,621l.1,-.4h3.9c1.6,0,2.8,.2,3.6,.6c.8,.4,1.4,1,1.9,1.8c.5,.8,.7,1.6,.7,2.6c0,.8,-.1,1.5,-.4,2.3c-.3,.7,-.6,1.3,-.9,1.8c-.4,.4,-.9,.9,-1.6,1.5c-.7,.5,-1.5,.9,-2.3,1.2c-.8,.2,-1.9,.4,-3.1,.4h-5.1l.1,-.4c.4,0,.8,0,.9,-.1c.3,-.1,.4,-.2,.5,-.4c.2,-.3,.4,-.8,.6,-1.5l2.2,-7.4c.1,-.5,.2,-1,.2,-1.3c0,-.3,-.1,-.4,-.2,-.6c-.2,-.1,-.5,-.1,-.9,-.1Zm3.2,.3l-2.7,9.1c-.2,.7,-.3,1.1,-.3,1.2c0,.1,.1,.2,.1,.3c.1,.1,.2,.2,.3,.2c.1,.1,.4,.1,.7,.1c1,0,1.8,-.1,2.6,-.3c.8,-.2,1.5,-.5,2,-.9c.7,-.5,1.3,-1.3,1.8,-2.3c.4,-.9,.6,-2,.6,-3.3c0,-1.4,-.3,-2.4,-1,-3.1c-.7,-.7,-1.6,-1,-2.9,-1c-.3,0,-.7,0,-1.2,0Z" class="g3_90"/>
<path fill-rule="evenodd" d="M208.5,664.7c-.6,.7,-1.3,1.2,-1.9,1.6c-.6,.3,-1.3,.5,-2,.5c-.8,0,-1.5,-.2,-2,-.7c-.5,-.5,-.7,-1.1,-.7,-1.9c0,-.9,.3,-1.8,.8,-2.7c.5,-.9,1.2,-1.6,2,-2.2c.9,-.5,1.7,-.8,2.6,-.8c.6,0,1.1,.1,1.4,.4c.4,.3,.5,.6,.5,1c0,.4,-.1,.7,-.3,1c-.2,.2,-.4,.3,-.6,.3c-.2,0,-.4,-.1,-.5,-.2c-.1,-.1,-.2,-.3,-.2,-.5c0,-.1,0,-.2,.1,-.3c0,-.1,.1,-.2,.3,-.3c.1,-.2,.2,-.3,.2,-.3c0,-.1,.1,-.1,.1,-.2c0,-.1,-.1,-.2,-.2,-.3c-.2,-.1,-.4,-.2,-.7,-.2c-.6,0,-1.2,.2,-1.8,.6c-.6,.4,-1,1,-1.5,1.8c-.4,.9,-.7,1.8,-.7,2.7c0,.6,.2,1.1,.5,1.5c.4,.3,.8,.5,1.4,.5c.5,0,1,-.1,1.4,-.3c.5,-.3,1,-.7,1.5,-1.3Z" class="g3_90"/>
<path fill-rule="evenodd" d="M256.9,707.7l-1.7,6.1l-.2,.8c0,.1,0,.2,0,.2c0,.1,0,.2,0,.3c.1,0,.2,0,.2,0c.1,0,.2,0,.3,-.1c.3,-.2,.6,-.5,1,-1.1l.3,.2c-.4,.7,-.9,1.1,-1.3,1.5c-.4,.3,-.8,.4,-1.2,.4c-.3,0,-.5,0,-.6,-.2c-.1,-.1,-.2,-.3,-.2,-.5c0,-.3,.1,-.7,.2,-1.2l.2,-.6c-.8,1,-1.5,1.7,-2.2,2.1c-.4,.3,-.9,.4,-1.3,.4c-.5,0,-.9,-.1,-1.2,-.5c-.3,-.4,-.4,-.9,-.4,-1.5c0,-.9,.2,-1.9,.8,-3c.6,-1,1.3,-1.9,2.2,-2.5c.7,-.5,1.3,-.8,1.9,-.8c.4,0,.7,.1,.9,.3c.3,.2,.5,.5,.6,1l.3,-1.1Zm-3.2,.5c-.3,0,-.7,.2,-1.2,.5c-.6,.5,-1.1,1.3,-1.6,2.3c-.5,1,-.7,1.9,-.7,2.7c0,.4,.1,.7,.3,1c.2,.2,.4,.3,.7,.3c.6,0,1.3,-.5,2.1,-1.4c1,-1.3,1.5,-2.6,1.5,-4c0,-.5,-.1,-.8,-.3,-1.1c-.2,-.2,-.4,-.3,-.8,-.3Z" class="g3_90"/>
<path fill-rule="evenodd" d="M252.8,618.1l-1.7,6.2c.6,-.6,1.1,-1,1.5,-1.2c.4,-.3,.9,-.4,1.3,-.4c.7,0,1.2,.3,1.6,.7c.4,.4,.7,1,.7,1.8c0,.9,-.3,1.9,-.9,2.8c-.5,1,-1.2,1.7,-2,2.3c-.9,.5,-1.7,.8,-2.5,.8c-.9,0,-1.8,-.4,-2.8,-1.1l2.8,-9.3c.2,-.8,.3,-1.2,.3,-1.3c0,-.2,-.1,-.3,-.2,-.3c-.1,-.2,-.3,-.2,-.6,-.2c-.1,0,-.3,0,-.6,0v-.3Zm-3.4,12c.6,.4,1.1,.5,1.6,.5c.5,0,1,-.2,1.6,-.5c.6,-.4,1,-1.1,1.5,-2c.4,-.9,.6,-1.8,.6,-2.8c0,-.5,-.2,-.9,-.4,-1.2c-.3,-.4,-.6,-.5,-1,-.5c-.5,0,-1.1,.2,-1.6,.7c-.5,.4,-.9,1,-1.2,1.8Z" class="g3_90"/>
<path fill-rule="evenodd" d="M298.5,665c-.6,.8,-1.3,1.3,-1.9,1.7c-.6,.3,-1.3,.5,-2,.5c-.9,0,-1.5,-.2,-2,-.7c-.5,-.5,-.7,-1.1,-.7,-1.9c0,-1,.3,-1.9,.8,-2.7c.5,-.9,1.2,-1.6,2,-2.2c.9,-.5,1.7,-.8,2.6,-.8c.6,0,1.1,.1,1.4,.4c.3,.3,.5,.6,.5,1c0,.4,-.1,.7,-.3,.9c-.2,.2,-.4,.3,-.7,.3c-.1,0,-.3,0,-.4,-.1c-.1,-.2,-.2,-.3,-.2,-.5c0,-.1,0,-.2,.1,-.3c0,-.1,.1,-.2,.2,-.3c.2,-.2,.3,-.3,.3,-.3c0,-.1,0,-.2,0,-.2c0,-.1,0,-.2,-.1,-.3c-.2,-.2,-.4,-.2,-.8,-.2c-.5,0,-1.1,.2,-1.7,.6c-.6,.4,-1.1,1,-1.5,1.8c-.5,.9,-.7,1.8,-.7,2.7c0,.6,.2,1.1,.5,1.5c.4,.3,.8,.5,1.4,.5c.5,0,.9,-.1,1.4,-.3c.4,-.3,1,-.7,1.5,-1.3Z" class="g3_90"/>
<path fill-rule="evenodd" d="M285.4,619l-.9,3.9h-.3V622c-.1,-.4,-.1,-.7,-.2,-1c-.1,-.3,-.3,-.5,-.5,-.7c-.2,-.2,-.5,-.4,-.8,-.5c-.4,-.1,-.7,-.2,-1.1,-.2c-1.1,0,-2,.3,-2.8,.9c-1,.7,-1.8,1.8,-2.4,3.1c-.5,1.2,-.7,2.3,-.7,3.5c0,1.1,.3,2.1,1,2.8c.7,.7,1.6,1,2.7,1c.8,0,1.5,-.2,2.2,-.5c.6,-.4,1.2,-1,1.8,-1.7h.4c-.6,1,-1.4,1.8,-2.2,2.3c-.8,.5,-1.7,.7,-2.9,.7c-.9,0,-1.8,-.2,-2.6,-.6c-.7,-.4,-1.3,-1,-1.7,-1.8c-.4,-.7,-.6,-1.5,-.6,-2.4c0,-1.3,.3,-2.6,1,-3.9c.7,-1.2,1.7,-2.2,3,-2.9c1.2,-.7,2.4,-1.1,3.7,-1.1c.6,0,1.3,.2,2,.4c.3,.2,.6,.2,.7,.2c.1,0,.3,0,.4,-.1c.1,0,.3,-.2,.5,-.5Z" class="g3_90"/>
<path d="M199.7,703.1H303.1L268.6,634.2H233.7l-34,68.9Z" class="g4_90"/>
<path d="M187,513.1V414.8m16.4,98.3V414.8m16.5,98.3V414.8m16.4,98.3V414.8m16.4,98.3V414.8m16.4,98.3V414.8m16.4,98.3V414.8m16.4,98.3V414.8m16.4,98.3V414.8m16.4,98.3V414.8m16.5,98.3V414.8m-164.2,0H351M187,431.2H351M187,447.6H351M187,463.9H351M187,480.3H351M187,496.7H351M187,513.1H351" class="g6_90"/>
<path fill-rule="evenodd" d="M291.4,499.5l-.7,3h-.3v-.8c0,-.3,-.1,-.5,-.1,-.7c-.1,-.2,-.3,-.4,-.4,-.6c-.2,-.1,-.4,-.2,-.6,-.3c-.3,-.1,-.6,-.2,-.9,-.2c-.8,0,-1.5,.3,-2.1,.7c-.8,.6,-1.4,1.4,-1.8,2.4c-.4,.8,-.5,1.7,-.5,2.6c0,.9,.2,1.6,.7,2.1c.6,.5,1.2,.8,2.1,.8c.6,0,1.2,-.1,1.6,-.4c.5,-.3,1,-.7,1.4,-1.3h.3c-.5,.8,-1,1.4,-1.6,1.7c-.6,.4,-1.4,.6,-2.2,.6c-.8,0,-1.4,-.2,-2,-.5c-.6,-.3,-1,-.7,-1.3,-1.3c-.3,-.6,-.5,-1.2,-.5,-1.8c0,-1,.3,-2,.8,-3c.6,-.9,1.3,-1.7,2.2,-2.2c1,-.5,1.9,-.8,2.9,-.8c.4,0,.9,.1,1.5,.3c.2,.1,.4,.1,.5,.1c.1,0,.2,0,.3,0c.1,-.1,.2,-.2,.4,-.4Z" class="g3_90"/>
<path fill-rule="evenodd" d="M299,419.9l-.7,2.9H298v-.7c0,-.3,-.1,-.5,-.1,-.7c-.1,-.2,-.3,-.4,-.4,-.6c-.2,-.1,-.4,-.3,-.6,-.4c-.3,0,-.6,-.1,-.9,-.1c-.8,0,-1.5,.2,-2.1,.7c-.8,.5,-1.4,1.3,-1.8,2.4c-.4,.8,-.5,1.7,-.5,2.6c0,.8,.2,1.5,.7,2.1c.6,.5,1.2,.8,2.1,.8c.6,0,1.2,-.2,1.6,-.4c.5,-.3,1,-.8,1.4,-1.3h.3c-.5,.8,-1,1.3,-1.6,1.7c-.6,.4,-1.4,.6,-2.2,.6c-.8,0,-1.4,-.2,-2,-.5c-.6,-.3,-1,-.8,-1.3,-1.3c-.3,-.6,-.5,-1.2,-.5,-1.9c0,-1,.3,-1.9,.8,-2.9c.6,-.9,1.3,-1.7,2.2,-2.2c1,-.6,1.9,-.8,2.9,-.8c.4,0,.9,.1,1.5,.3c.2,.1,.4,.1,.5,.1c.1,0,.2,0,.3,-.1c.1,0,.2,-.1,.4,-.3Z" class="g3_90"/>
<path fill-rule="evenodd" d="M249.9,500l.1,-.3h3c1.2,0,2.1,.1,2.7,.4c.6,.3,1.1,.8,1.5,1.4c.3,.6,.5,1.2,.5,1.9c0,.6,-.1,1.2,-.3,1.8c-.2,.6,-.5,1,-.7,1.4c-.3,.3,-.7,.7,-1.2,1.1c-.5,.4,-1.1,.7,-1.8,.9c-.6,.2,-1.4,.3,-2.3,.3h-3.9l.1,-.3c.3,0,.6,0,.7,-.1c.2,0,.3,-.1,.4,-.3c.1,-.2,.3,-.5,.4,-1.1l1.7,-5.6c.1,-.4,.2,-.8,.2,-1c0,-.2,-.1,-.3,-.2,-.4c-.1,-.1,-.4,-.1,-.7,-.1Zm2.4,.2l-1.9,6.9c-.2,.5,-.3,.8,-.3,.9c0,.1,.1,.2,.1,.3c0,0,.1,.1,.2,.1c.1,0,.3,0,.6,0c.7,0,1.3,0,1.9,-.2c.7,-.1,1.1,-.3,1.5,-.6c.6,-.4,1,-1,1.4,-1.8c.3,-.7,.5,-1.5,.5,-2.5c0,-1,-.3,-1.8,-.8,-2.3c-.5,-.6,-1.2,-.8,-2.2,-.8c-.3,0,-.6,0,-1,0Z" class="g3_90"/>
<path fill-rule="evenodd" d="M243.6,420.3l.1,-.2h2.9c1.3,0,2.2,.1,2.8,.4c.6,.3,1.1,.7,1.4,1.3c.4,.7,.6,1.3,.6,2c0,.6,-.1,1.2,-.3,1.8c-.2,.5,-.5,1,-.7,1.3c-.3,.4,-.7,.7,-1.2,1.2c-.6,.4,-1.1,.7,-1.8,.9c-.6,.2,-1.4,.3,-2.3,.3h-3.9l.1,-.3c.3,0,.6,0,.7,-.1c.2,-.1,.3,-.2,.4,-.3c.1,-.2,.3,-.6,.4,-1.1l1.7,-5.6c.1,-.4,.1,-.8,.1,-1c0,-.2,0,-.3,-.1,-.4c-.2,-.1,-.4,-.2,-.7,-.2Zm2.4,.3l-2,6.9c-.1,.5,-.2,.8,-.2,.9c0,.1,0,.2,.1,.2c0,.1,.1,.1,.2,.2c.1,0,.3,0,.5,0c.8,0,1.4,-.1,2,-.2c.6,-.2,1.1,-.4,1.5,-.7c.6,-.4,1,-1,1.3,-1.7c.4,-.7,.5,-1.6,.5,-2.5c0,-1.1,-.2,-1.9,-.7,-2.4c-.5,-.5,-1.3,-.7,-2.2,-.7c-.3,0,-.6,0,-1,0Z" class="g3_90"/>
<path fill-rule="evenodd" d="M199,499.3l-.7,7.7c0,.3,0,.6,0,.7c0,.2,0,.3,.1,.4c.1,.1,.2,.2,.3,.3c.2,0,.4,.1,.8,.1l-.1,.2h-3.6l.1,-.2h.1c.3,0,.6,-.1,.7,-.2c.2,-.1,.3,-.2,.3,-.4c.1,-.2,.1,-.5,.2,-1l.1,-1.2h-2.6l-1,1.3c-.2,.3,-.3,.5,-.4,.6c0,.1,-.1,.2,-.1,.3c0,.2,.1,.3,.2,.4c.1,.1,.3,.2,.6,.2l-.1,.2h-2.7l.1,-.2c.3,0,.6,-.2,.9,-.4c.2,-.2,.6,-.6,1.1,-1.3l5.5,-7.5Zm-1.3,2.3l-2.7,3.6h2.4Z" class="g3_90"/>
<path fill-rule="evenodd" d="M340.8,498.8l.1,-.3h3.2c.6,0,1.1,.1,1.5,.3c.4,.1,.8,.4,1,.7c.2,.3,.3,.6,.3,1c0,.5,-.2,1,-.6,1.4c-.4,.4,-1,.7,-1.8,.9c.5,.2,.9,.5,1.2,.9c.3,.3,.4,.7,.4,1.1c0,.4,-.1,.9,-.4,1.3c-.2,.4,-.5,.7,-.9,1c-.3,.2,-.8,.4,-1.3,.5c-.4,0,-1,.1,-1.7,.1h-3.4l.1,-.3c.3,0,.6,0,.7,-.1c.2,0,.3,-.1,.4,-.3c.1,-.1,.2,-.5,.4,-1.1l1.7,-5.6c.1,-.5,.2,-.8,.2,-1c0,-.2,-.1,-.3,-.2,-.4c-.1,-.1,-.4,-.1,-.7,-.1c-.1,0,-.2,0,-.2,0m1.3,3.8c.3,0,.5,0,.7,0c.9,0,1.6,-.2,2.1,-.6c.4,-.4,.7,-1,.7,-1.6c0,-.4,-.2,-.8,-.5,-1.1c-.2,-.2,-.7,-.3,-1.3,-.3c-.2,0,-.4,0,-.6,0Zm-1.3,4.5c.5,.1,.9,.1,1.1,.1c.8,0,1.4,-.2,1.9,-.7c.6,-.4,.8,-1,.8,-1.7c0,-.5,-.1,-1,-.5,-1.3c-.3,-.3,-.8,-.4,-1.6,-.4c-.1,0,-.3,0,-.5,0Z" class="g3_90"/>
<path fill-rule="evenodd" d="M292.3,506.6l1.9,-.9h.2v6.4c0,.5,0,.7,0,.8c.1,.1,.1,.2,.2,.3c.2,0,.4,.1,.7,.1v.2h-2.9v-.2c.4,0,.6,-.1,.7,-.1q.2,-.1,.3,-.2c0,-.1,0,-.4,0,-.9V508c0,-.6,0,-.9,0,-1.1c-.1,-.1,-.1,-.2,-.2,-.2c0,-.1,-.1,-.1,-.2,-.1c-.2,0,-.4,0,-.6,.2Z" class="g3_90"/>
<path fill-rule="evenodd" d="M258.6,506.6l1.9,-.9h.2v6.4c0,.5,0,.7,0,.8c.1,.1,.1,.2,.3,.3c.1,0,.3,.1,.6,.1v.2h-2.8v-.2c.3,0,.6,-.1,.7,-.1q.1,-.1,.2,-.2c0,-.1,0,-.4,0,-.9V508c0,-.6,0,-.9,0,-1.1c0,-.1,-.1,-.2,-.2,-.2c0,-.1,-.1,-.1,-.2,-.1c-.1,0,-.3,0,-.6,.2Z" class="g3_90"/>
<path d="M203.4,497H334.9L285.7,431.3H252.5L203.4,497Zm49.1,-65.7v65.3m33.1,-65.3v65.3" class="g7_90"/>
<path d="M73.6,291.7H835.8" class="g5_90"/>
<path d="M581.4,188.4H737.3M581.4,210H737.3M581.4,231.7H737.3M581.4,253.3H737.3" class="g8_90"/>
<path d="M630.7,188.3L600.3,253" class="g9_90"/>
<path d="M600.2,253.2h90.5" class="ga_90"/>
<path d="M659.6,188.3L690,253" class="g9_90"/>
<path d="M630.3,188.4h29.3" class="ga_90"/>
<path d="M581.4,982.6H737.3m-155.9,21.7H737.3m-155.9,21.6H737.3m-155.9,21.7H737.3" class="g8_90"/>
<path d="M614,1047.4h90.5M673.4,982.6l30.4,64.6M613.6,982.6h59.7" class="ga_90"/>
<path d="M613.8,1047.8V982.9" class="g9_90"/>
<path d="M625.1,1047.2c.4,-11.3,-11.3,-10.7,-11.3,-10.7m4.6,7c-.2,0,-.4,-.1,-.4,-.3c0,-.2,.2,-.4,.4,-.4c.2,0,.4,.2,.4,.4c0,.2,-.2,.3,-.4,.3Zm6.7,-60.4c.4,11.3,-11.3,10.7,-11.3,10.7m4.6,-7c-.2,0,-.4,.1,-.4,.3c0,.3,.2,.4,.4,.4c.2,0,.4,-.1,.4,-.4c0,-.2,-.2,-.3,-.4,-.3Z" class="gb_90"/>
</svg>