<?xml version="1.0" encoding="UTF-8" standalone="no"?>
<!DOCTYPE svg PUBLIC "-//W3C//DTD SVG 1.1//EN"
"http://www.w3.org/Graphics/SVG/1.1/DTD/svg11.dtd">
<svg viewBox="0 0 909 1147" version="1.1" xmlns="http://www.w3.org/2000/svg" xmlns:xlink="http://www.w3.org/1999/xlink">
<defs>
<clipPath id="c0_112"><path d="M520.7,661.4V527.1H727.4V661.4Z"/></clipPath>
<clipPath id="c1_112"><path d="M293.1,291.8L290.8,160.9l79.9,-1.4L373,290.4l-79.9,1.4Z"/></clipPath>
<clipPath id="c2_112"><path d="M179.7,244.2V166.9h91.2v77.3Z"/></clipPath>
<clipPath id="c3_112"><path d="M190.6,281.7V239.3h55v42.4Z"/></clipPath>
<clipPath id="c4_112"><path d="M141.5,695V677h30.3v18Z"/></clipPath>
<clipPath id="c5_112"><path d="M595.2,863V766.9H734.1V863Z"/></clipPath>
<clipPath id="c6_112"><path d="M589.6,768.2V673.8H728.5v94.4Z"/></clipPath>
<clipPath id="c7_112"><path d="M589.1,958.7V861.3H728v97.4Z"/></clipPath>
<style type="text/css"><![CDATA[
.g0_112{
fill: #E7A9A1;
}
.g1_112{
fill: none;
stroke: #000;
stroke-width: 1.052;
stroke-miterlimit: 2;
}
.g2_112{
fill: none;
stroke: #000;
stroke-width: 1.052;
stroke-miterlimit: 2;
stroke-dasharray: 6,4;
}
.g3_112{
fill: #00AEEF;
}
.g4_112{
fill: #00A651;
}
.g5_112{
fill: #EC008C;
}
.g6_112{
fill: #000;
}
.g7_112{
fill: #CCE7D3;
}
.g8_112{
fill: none;
stroke: #000;
stroke-width: 0.609;
stroke-miterlimit: 2;
}
.g9_112{
fill: none;
stroke: #000;
stroke-width: 0.435;
stroke-miterlimit: 2;
}
.ga_112{
fill: #ED1651;
}
.gb_112{
fill: #0C4B7F;
}
.gc_112{
fill: #FFF1E0;
}
.gd_112{
fill: none;
stroke: #0EA5DF;
stroke-width: 3.055;
}
.ge_112{
fill: #0EA5DF;
}
.gf_112{
fill: #FFF;
}
.gg_112{
fill: #FFFCD5;
}
.gh_112{
fill: none;
stroke: #000;
stroke-width: 0.596;
stroke-miterlimit: 2;
}
.gi_112{
fill: none;
stroke: #000;
stroke-width: 0.596;
stroke-miterlimit: 2;
stroke-dasharray: 3,2;
}
.gj_112{
fill: #C7EAFB;
}
.gk_112{
fill: #FCD3C1;
}
.gl_112{
fill: none;
stroke: #0EA5DF;
stroke-width: 1.069;
}
.gm_112{
fill: none;
stroke: #00A651;
stroke-width: 1.069;
}
.gn_112{
fill: none;
stroke: #D82C20;
stroke-width: 1.069;
}
.go_112{
fill: none;
stroke: #D82C20;
stroke-width: 1.069;
stroke-dasharray: 5,5;
}
.gp_112{
fill: none;
stroke: #00A651;
stroke-width: 1.069;
stroke-dasharray: 5,5;
}
.gq_112{
fill: none;
stroke: #0EA5DF;
stroke-width: 1.069;
stroke-dasharray: 5,5;
}
]]></style>
</defs>
<path d="M0,1131H72.3v-51.5H0V1131Z" class="g0_112"/>
<path d="M537.1,568.5H669.7v77.4H537.1V568.5Z" class="g1_112"/>
<path d="M698.7,619.2H566.1V541.8" class="g2_112"/>
<path d="M669.7,568.7L698.8,542M537.3,568.2l29.1,-26.7m-.3,.3H698.7v77.4" class="g1_112"/>
<path d="M537.2,645.7l29,-26.7" class="g2_112"/>
<path d="M669.6,646.2l29,-26.7" class="g1_112"/>
<path fill-rule="evenodd" d="M617.9,531l1.8,-.9h.2v6.5c0,.4,0,.7,.1,.8c0,.1,.1,.2,.2,.2c.1,.1,.3,.1,.7,.1v.2H618v-.2c.4,0,.6,0,.7,-.1c.1,0,.2,-.1,.2,-.2c.1,-.1,.1,-.4,.1,-.8v-4.2c0,-.5,0,-.9,-.1,-1c0,-.2,0,-.3,-.1,-.3c-.1,-.1,-.2,-.1,-.3,-.1c-.1,0,-.3,.1,-.5,.2Z" class="g3_112"/>
<path fill-rule="evenodd" d="M627.6,536.4l-.5,1.5h-4.5v-.2c1.3,-1.2,2.2,-2.2,2.8,-3c.5,-.7,.8,-1.4,.8,-2.1c0,-.5,-.2,-.9,-.5,-1.2c-.3,-.3,-.6,-.4,-1,-.4c-.4,0,-.8,.1,-1.1,.3c-.2,.2,-.5,.5,-.6,1h-.2c.1,-.7,.3,-1.3,.7,-1.6c.4,-.4,.9,-.6,1.5,-.6c.6,0,1.1,.2,1.5,.6c.4,.4,.6,.9,.6,1.4c0,.4,0,.8,-.2,1.2c-.3,.6,-.8,1.2,-1.4,1.9c-.9,1,-1.5,1.7,-1.7,1.9h2c.4,0,.7,-.1,.8,-.1c.2,0,.3,-.1,.5,-.2c.1,-.1,.2,-.2,.3,-.4Z" class="g3_112"/>
<path fill-rule="evenodd" d="M541.1,597.7h4.1v.2l-2.5,7.6H542l2.3,-6.9h-2.1c-.4,0,-.7,.1,-.9,.2c-.3,.2,-.6,.4,-.8,.8l-.1,-.1Z" class="g4_112"/>
<path fill-rule="evenodd" d="M674.1,595.1h4.1v.2l-2.5,7.6H675l2.3,-6.9h-2.1c-.4,0,-.7,.1,-.9,.2c-.3,.1,-.6,.4,-.8,.8l-.1,-.1Z" class="g4_112"/>
<path fill-rule="evenodd" d="M569.8,577.1h4.1v.2l-2.6,7.6h-.6l2.3,-6.8h-2.1c-.5,0,-.8,0,-.9,.1c-.4,.2,-.6,.4,-.8,.8l-.2,-.1Z" class="g4_112"/>
<path clip-path="url(#c0_112)" fill-rule="evenodd" d="M523.9,548.2v-3.8l-2.6,3.8Zm2,0v.8h-1v2.1h-1V549h-3.2v-.7l3.6,-5.1h.6v5Z" class="g5_112"/>
<path fill-rule="evenodd" d="M526.9,553v-.3c.4,-.1,.7,-.3,.9,-.6c.2,-.2,.4,-.5,.4,-.8c0,-.1,-.1,-.1,-.1,-.2c0,0,-.1,0,-.1,0c0,0,-.1,0,-.2,.1c-.1,0,-.2,0,-.3,0c-.1,0,-.3,0,-.4,-.1c-.1,-.2,-.2,-.3,-.2,-.5c0,-.2,.1,-.3,.2,-.5c.2,-.1,.4,-.2,.6,-.2c.2,0,.4,.1,.6,.4c.2,.2,.3,.5,.3,.8c0,.4,-.1,.8,-.4,1.1c-.3,.3,-.7,.6,-1.3,.8Z" class="g5_112"/>
<path fill-rule="evenodd" d="M534.2,543.4l-.4,1h-2.3l-.5,1c1,.1,1.8,.5,2.4,1.1c.5,.5,.7,1.1,.7,1.8c0,.4,-.1,.8,-.2,1.1c-.2,.4,-.4,.7,-.7,.9c-.2,.2,-.5,.4,-.8,.6c-.4,.2,-.9,.3,-1.3,.3c-.5,0,-.8,-.1,-1,-.2c-.2,-.2,-.3,-.4,-.3,-.6c0,-.1,0,-.2,.1,-.2c.1,-.1,.2,-.2,.3,-.2c.1,0,.2,.1,.3,.1c0,0,.2,.1,.4,.2c.2,.2,.5,.3,.8,.3c.5,0,.8,-.2,1.2,-.5c.3,-.3,.5,-.7,.5,-1.2c0,-.5,-.2,-.9,-.5,-1.3c-.3,-.4,-.7,-.7,-1.2,-.9c-.4,-.2,-1,-.3,-1.7,-.3l1.5,-3Z" class="g5_112"/>
<path fill-rule="evenodd" d="M560,634.5v-3.8l-2.6,3.8Zm2,0v.8h-1v2.1h-1v-2.1h-3.2v-.7l3.6,-5.1h.6v5Z" class="g5_112"/>
<path fill-rule="evenodd" d="M563,639.3V639c.4,-.1,.7,-.3,.9,-.6c.3,-.2,.4,-.5,.4,-.8c0,-.1,-.1,-.1,-.1,-.2h-.1c0,0,-.1,0,-.2,.1c-.1,0,-.2,0,-.3,0c-.1,0,-.3,0,-.4,-.1c-.1,-.2,-.2,-.3,-.2,-.5c0,-.2,.1,-.3,.2,-.5c.2,-.1,.4,-.2,.6,-.2c.2,0,.4,.1,.6,.4c.2,.2,.3,.5,.3,.8c0,.4,-.1,.8,-.4,1.1c-.3,.3,-.7,.6,-1.3,.8Z" class="g5_112"/>
<path fill-rule="evenodd" d="M570.3,629.7l-.4,1h-2.3l-.5,1c1,.1,1.8,.5,2.4,1.1c.5,.5,.7,1.1,.7,1.8c0,.4,-.1,.8,-.2,1.1c-.2,.4,-.4,.7,-.7,.9c-.2,.2,-.5,.4,-.8,.6c-.4,.2,-.9,.3,-1.3,.3c-.5,0,-.8,-.1,-1,-.2c-.2,-.2,-.3,-.4,-.3,-.6c0,-.1,0,-.2,.1,-.2c.1,-.1,.2,-.2,.3,-.2c.1,0,.2,.1,.3,.1c.1,0,.2,.1,.4,.2c.2,.2,.5,.3,.8,.3c.5,0,.8,-.2,1.2,-.5c.3,-.3,.5,-.7,.5,-1.2c0,-.5,-.2,-.9,-.5,-1.3c-.3,-.4,-.7,-.7,-1.2,-.9c-.4,-.2,-1,-.3,-1.7,-.3l1.5,-3Z" class="g5_112"/>
<path fill-rule="evenodd" d="M690,637.6v-3.8l-2.7,3.8Zm1.9,0v.8h-1v2H690v-2h-3.3v-.7l3.6,-5.1h.6v5Z" class="g5_112"/>
<path fill-rule="evenodd" d="M693,642.4v-.3c.4,-.1,.7,-.3,.9,-.6c.2,-.3,.3,-.5,.3,-.8c0,-.1,0,-.2,-.1,-.2q0,-.1,0,-.1c-.1,0,-.2,.1,-.3,.1c-.1,.1,-.2,.1,-.2,.1c-.2,0,-.4,-.1,-.5,-.2c-.1,-.1,-.1,-.2,-.1,-.4c0,-.2,0,-.4,.2,-.5c.1,-.1,.3,-.2,.5,-.2c.2,0,.5,.1,.7,.3c.2,.2,.2,.5,.2,.9c0,.4,-.1,.7,-.4,1.1c-.2,.3,-.7,.6,-1.2,.8Z" class="g5_112"/>
<path fill-rule="evenodd" d="M700.3,632.8l-.5,.9h-2.3l-.5,1.1c1,.1,1.8,.5,2.4,1.1c.5,.5,.7,1.1,.7,1.8c0,.4,0,.8,-.2,1.1c-.2,.3,-.4,.6,-.6,.9c-.3,.2,-.6,.4,-.9,.6c-.4,.2,-.8,.3,-1.3,.3c-.5,0,-.8,-.1,-1,-.3c-.2,-.1,-.3,-.3,-.3,-.5c0,-.1,0,-.2,.1,-.3c.1,0,.2,-.1,.3,-.1c.1,0,.2,0,.3,.1c.1,0,.2,.1,.4,.2c.3,.2,.6,.3,.8,.3c.5,0,.9,-.2,1.2,-.5c.3,-.4,.5,-.8,.5,-1.2c0,-.5,-.1,-.9,-.4,-1.3c-.3,-.4,-.7,-.7,-1.3,-1c-.4,-.1,-.9,-.2,-1.7,-.3l1.5,-2.9Z" class="g5_112"/>
<path fill-rule="evenodd" d="M686.2,561.8V558l-2.7,3.8Zm1.9,0v.8h-1v2h-.9v-2h-3.3v-.7l3.6,-5.1h.6v5Z" class="g5_112"/>
<path fill-rule="evenodd" d="M689.2,566.6v-.3c.4,-.1,.7,-.3,.9,-.6c.2,-.2,.3,-.5,.3,-.8c0,-.1,0,-.2,-.1,-.2c0,0,0,-.1,0,-.1c-.1,0,-.2,.1,-.3,.1q-.1,.1,-.2,.1c-.2,0,-.4,-.1,-.5,-.2c-.1,-.1,-.1,-.2,-.1,-.4c0,-.2,0,-.4,.2,-.5c.1,-.1,.3,-.2,.5,-.2c.2,0,.5,.1,.7,.3c.2,.3,.3,.5,.3,.9c0,.4,-.2,.7,-.4,1.1c-.3,.3,-.7,.6,-1.3,.8Z" class="g5_112"/>
<path fill-rule="evenodd" d="M696.5,557l-.5,.9h-2.3l-.5,1.1c1,.1,1.8,.5,2.4,1.1c.5,.5,.7,1.1,.7,1.8c0,.4,0,.8,-.2,1.1c-.2,.3,-.4,.6,-.6,.9c-.3,.2,-.5,.4,-.8,.6c-.5,.2,-.9,.3,-1.4,.3c-.4,0,-.8,-.1,-1,-.3c-.2,-.1,-.3,-.3,-.3,-.5c0,-.1,0,-.2,.1,-.3c.1,0,.2,-.1,.4,-.1q.1,0,.2,.1c.1,0,.2,.1,.4,.2c.3,.2,.6,.3,.9,.3c.4,0,.8,-.2,1.1,-.5c.3,-.3,.5,-.7,.5,-1.2c0,-.5,-.1,-.9,-.4,-1.3c-.3,-.4,-.7,-.7,-1.3,-1c-.4,-.1,-.9,-.2,-1.6,-.2l1.4,-3Z" class="g5_112"/>
<path fill-rule="evenodd" d="M704.5,574.5h4.1v.2l-2.5,7.6h-.7l2.3,-6.9h-2.1c-.4,0,-.7,.1,-.9,.2c-.3,.1,-.6,.4,-.8,.8l-.1,-.1Z" class="g4_112"/>
<path fill-rule="evenodd" d="M597.4,557.3l1.9,-.9h.2v6.5c0,.4,0,.6,0,.8q.1,.1,.2,.2c.2,.1,.4,.1,.7,.1v.2h-2.8V564c.3,0,.6,0,.7,-.1q.1,-.1,.2,-.2c0,-.1,0,-.4,0,-.8v-4.2c0,-.5,0,-.9,0,-1.1c0,-.1,-.1,-.2,-.2,-.2c0,-.1,-.1,-.1,-.2,-.1c-.2,0,-.3,0,-.6,.2Z" class="g3_112"/>
<path fill-rule="evenodd" d="M607.2,562.7l-.6,1.5h-4.5V564c1.3,-1.2,2.3,-2.2,2.8,-3c.6,-.7,.8,-1.5,.8,-2.1c0,-.5,-.1,-.9,-.4,-1.2c-.3,-.3,-.7,-.5,-1.1,-.5c-.4,0,-.7,.2,-1,.4c-.3,.2,-.5,.5,-.7,.9h-.2c.1,-.7,.4,-1.2,.7,-1.6c.4,-.3,.9,-.5,1.5,-.5c.6,0,1.2,.2,1.6,.6c.4,.4,.6,.9,.6,1.4c0,.4,-.1,.8,-.3,1.2c-.3,.6,-.7,1.2,-1.3,1.9c-1,1,-1.6,1.6,-1.8,1.8h2c.4,0,.7,0,.9,0c.1,0,.3,-.1,.4,-.2c.1,-.1,.3,-.2,.4,-.4Z" class="g3_112"/>
<path fill-rule="evenodd" d="M616,608.1l1.9,-.9h.1v6.5c0,.4,.1,.7,.1,.8c0,.1,.1,.2,.2,.2c.1,.1,.4,.1,.7,.1v.2h-2.9v-.2c.4,0,.6,0,.7,-.1c.1,0,.2,-.1,.2,-.2c.1,-.1,.1,-.4,.1,-.8v-4.2c0,-.5,0,-.9,-.1,-1c0,-.2,0,-.3,-.1,-.3q-.1,-.1,-.2,-.1c-.2,0,-.4,.1,-.6,.2Z" class="g3_112"/>
<path fill-rule="evenodd" d="M625.7,613.5l-.5,1.5h-4.5v-.2c1.3,-1.2,2.2,-2.2,2.8,-3c.5,-.7,.8,-1.4,.8,-2.1c0,-.5,-.2,-.9,-.5,-1.2c-.3,-.3,-.6,-.4,-1,-.4c-.4,0,-.7,.1,-1,.3c-.3,.2,-.6,.5,-.7,1h-.2c.1,-.7,.3,-1.3,.7,-1.6c.4,-.4,.9,-.6,1.5,-.6c.6,0,1.1,.2,1.5,.6c.5,.4,.7,.9,.7,1.4c0,.4,-.1,.8,-.3,1.2c-.3,.6,-.7,1.2,-1.4,1.9c-.9,1,-1.5,1.7,-1.7,1.9h2c.4,0,.7,0,.8,-.1c.2,0,.3,-.1,.5,-.2c.1,-.1,.2,-.2,.3,-.4Z" class="g3_112"/>
<path fill-rule="evenodd" d="M595.1,651l1.9,-.9h.1v6.5c0,.4,.1,.7,.1,.8c0,.1,.1,.2,.2,.2c.1,.1,.4,.1,.7,.1v.3h-2.9v-.3c.4,0,.6,0,.7,-.1c.1,0,.2,-.1,.3,-.2c0,-.1,0,-.3,0,-.8v-4.1c0,-.6,0,-1,0,-1.1c-.1,-.1,-.1,-.2,-.2,-.3c-.1,0,-.1,-.1,-.2,-.1c-.2,0,-.4,.1,-.6,.2Z" class="g3_112"/>
<path fill-rule="evenodd" d="M604.8,656.5l-.5,1.5h-4.5v-.3c1.3,-1.2,2.2,-2.2,2.8,-2.9c.5,-.8,.8,-1.5,.8,-2.1c0,-.5,-.1,-.9,-.4,-1.2c-.3,-.3,-.7,-.5,-1.1,-.5c-.4,0,-.7,.1,-1,.3c-.3,.2,-.6,.6,-.7,1H600c.1,-.7,.3,-1.2,.7,-1.6c.4,-.4,.9,-.6,1.5,-.6c.6,0,1.1,.2,1.5,.6c.5,.4,.7,.9,.7,1.4c0,.4,-.1,.8,-.3,1.2c-.3,.6,-.7,1.3,-1.4,1.9c-.9,1.1,-1.5,1.7,-1.7,1.9h2c.4,0,.7,0,.8,0c.2,-.1,.4,-.1,.5,-.2c.1,-.1,.2,-.3,.3,-.4Z" class="g3_112"/>
<path fill-rule="evenodd" d="M529.5,648.9l-2.3,3h2Zm1.1,-1.9l-.6,6.4c0,.3,0,.5,0,.6c0,.2,0,.3,0,.3c.1,.2,.2,.2,.3,.3c.2,0,.4,.1,.7,.1l-.1,.2h-3v-.2h.2c.2,0,.4,-.1,.6,-.2c.1,-.1,.2,-.2,.2,-.3c.1,-.2,.1,-.4,.1,-.9l.1,-.9h-2.2l-.7,1c-.2,.3,-.3,.4,-.4,.5c0,.1,0,.2,0,.3c0,.1,0,.2,.1,.3c.1,.1,.3,.2,.5,.2l-.1,.2h-2.2v-.2c.3,0,.5,-.1,.8,-.3c.2,-.2,.5,-.6,.9,-1.1l4.6,-6.3Z" class="g6_112"/>
<path fill-rule="evenodd" d="M527,565.2l-2.2,3.1h1.9Zm1.1,-1.8l-.6,6.3c0,.3,0,.5,0,.6c0,.2,0,.3,.1,.4c0,.1,.1,.2,.3,.2c.1,.1,.3,.1,.6,.1l-.1,.2h-3l.1,-.2h.1c.2,0,.4,-.1,.6,-.2c.1,0,.2,-.2,.2,-.3c.1,-.1,.1,-.4,.2,-.8l.1,-1h-2.2l-.8,1c-.2,.3,-.3,.4,-.4,.6c0,.1,0,.2,0,.2c0,.2,0,.3,.1,.4c.1,0,.3,.1,.5,.1l-.1,.2h-2.2V571c.3,0,.6,-.1,.8,-.3c.2,-.2,.5,-.5,.9,-1.1l4.6,-6.2Z" class="g6_112"/>
<path fill-rule="evenodd" d="M555.8,531.5l-1.6,5.8c-.2,.4,-.2,.7,-.2,.8c0,0,0,.1,0,.2q.1,0,.2,.1c.1,0,.2,0,.5,0c.6,0,1.1,0,1.6,-.2c.5,-.1,.9,-.3,1.3,-.5c.4,-.4,.8,-.8,1.1,-1.5c.2,-.6,.4,-1.3,.4,-2.1c0,-.8,-.2,-1.5,-.7,-1.9c-.4,-.5,-1,-.7,-1.8,-.7c-.2,0,-.5,0,-.8,0m-2,-.2l.1,-.2h2.4c1.1,0,1.8,.1,2.3,.4c.5,.2,.9,.6,1.2,1.1c.3,.5,.5,1.1,.5,1.6c0,.5,-.1,1,-.3,1.5c-.2,.5,-.4,.9,-.6,1.1c-.2,.3,-.5,.6,-1,1c-.4,.3,-.9,.6,-1.4,.7c-.5,.2,-1.2,.3,-2,.3h-3.2v-.2c.3,0,.5,-.1,.6,-.1c.2,-.1,.3,-.2,.4,-.3c.1,-.1,.2,-.4,.3,-.9l1.4,-4.7c.1,-.3,.2,-.6,.2,-.8c0,-.2,-.1,-.3,-.2,-.3c-.1,-.1,-.3,-.2,-.6,-.2Z" class="g6_112"/>
<path fill-rule="evenodd" d="M710.6,535.8l-.5,2.4h-.2l-.1,-.6c0,-.2,0,-.4,-.1,-.6c-.1,-.2,-.2,-.3,-.3,-.4c-.1,-.2,-.3,-.3,-.5,-.3c-.2,-.1,-.4,-.2,-.7,-.2c-.7,0,-1.3,.2,-1.8,.6c-.6,.5,-1.1,1.1,-1.5,2c-.3,.7,-.4,1.4,-.4,2.1c0,.8,.2,1.4,.6,1.8c.5,.5,1,.7,1.7,.7c.5,0,1,-.1,1.4,-.4c.4,-.2,.8,-.6,1.1,-1h.3c-.4,.6,-.9,1.1,-1.4,1.4c-.5,.3,-1.1,.5,-1.8,.5c-.6,0,-1.2,-.2,-1.6,-.4c-.5,-.3,-.9,-.6,-1.1,-1.1c-.3,-.5,-.4,-1,-.4,-1.5c0,-.9,.2,-1.7,.6,-2.5c.5,-.8,1.1,-1.4,1.9,-1.9c.8,-.4,1.6,-.6,2.4,-.6c.3,0,.8,.1,1.2,.2c.2,.1,.4,.1,.5,.1c0,0,.1,0,.2,0c.1,0,.2,-.2,.3,-.3Z" class="g6_112"/>
<path fill-rule="evenodd" d="M674.4,576c.4,0,.8,0,1,0c.6,0,1.1,-.1,1.5,-.5c.5,-.3,.7,-.8,.7,-1.4c0,-.5,-.1,-.9,-.4,-1.1c-.3,-.3,-.7,-.4,-1.4,-.4c-.1,0,-.2,0,-.4,0Zm1.1,-3.8c.3,0,.5,0,.6,0c.8,0,1.3,-.2,1.7,-.5c.4,-.4,.6,-.8,.6,-1.3c0,-.4,-.1,-.7,-.4,-.9c-.2,-.2,-.6,-.3,-1.1,-.3c-.1,0,-.3,0,-.5,0ZM674.4,569l.1,-.2h2.7c.5,0,.9,.1,1.2,.2c.4,.2,.7,.4,.8,.6c.2,.3,.3,.5,.3,.8c0,.5,-.1,.9,-.5,1.2c-.3,.4,-.8,.6,-1.5,.8c.4,.2,.8,.4,1,.7c.2,.3,.3,.6,.3,.9c0,.4,-.1,.8,-.3,1.1c-.2,.4,-.4,.6,-.7,.8c-.3,.2,-.7,.4,-1.1,.5c-.3,0,-.8,.1,-1.5,.1h-2.8l.1,-.2c.3,-.1,.5,-.1,.6,-.1c.1,-.1,.2,-.2,.3,-.3c.1,-.1,.2,-.5,.4,-1l1.3,-4.6c.2,-.4,.2,-.7,.2,-.8c0,-.2,0,-.3,-.1,-.4c-.1,0,-.3,-.1,-.6,-.1q-.1,0,-.2,0Z" class="g6_112"/>
<path fill-rule="evenodd" d="M671.6,657c.5,.1,.8,.1,1,.1c.6,0,1.1,-.2,1.6,-.5c.4,-.4,.6,-.9,.6,-1.5c0,-.4,-.1,-.8,-.4,-1.1c-.3,-.2,-.7,-.4,-1.3,-.4c-.2,0,-.3,0,-.5,.1Zm1.2,-3.8c.2,0,.4,0,.5,0c.8,0,1.4,-.1,1.7,-.5c.4,-.3,.6,-.7,.6,-1.2c0,-.4,-.1,-.7,-.3,-1c-.3,-.2,-.6,-.3,-1.2,-.3c-.1,0,-.3,0,-.5,.1Zm-1.2,-3.1l.1,-.3h2.7c.5,0,.9,.1,1.3,.3c.3,.1,.6,.3,.8,.6c.1,.2,.2,.5,.2,.8c0,.4,-.1,.8,-.4,1.2c-.4,.3,-.9,.6,-1.6,.8c.5,.1,.8,.4,1,.6c.2,.3,.4,.6,.4,1c0,.4,-.1,.7,-.3,1.1c-.2,.3,-.5,.6,-.8,.8c-.3,.2,-.7,.3,-1.1,.4c-.3,.1,-.8,.1,-1.5,.1h-2.8l.1,-.2c.3,0,.5,0,.6,-.1c.2,-.1,.3,-.1,.3,-.2c.1,-.2,.2,-.5,.4,-1l1.4,-4.7c.1,-.4,.1,-.6,.1,-.8c0,-.1,0,-.2,-.1,-.3c-.1,-.1,-.3,-.1,-.6,-.1q-.1,0,-.2,0Z" class="g6_112"/>
<path fill-rule="evenodd" d="M709.3,617.3l-.5,2.4h-.2l-.1,-.6c0,-.2,0,-.4,-.1,-.6c-.1,-.2,-.2,-.3,-.3,-.5c-.1,-.1,-.3,-.2,-.5,-.3c-.2,0,-.5,-.1,-.7,-.1c-.7,0,-1.3,.2,-1.8,.6c-.6,.5,-1.1,1.1,-1.5,2c-.3,.7,-.4,1.4,-.4,2.1c0,.8,.2,1.4,.6,1.8c.4,.4,1,.7,1.7,.7c.5,0,1,-.1,1.4,-.4c.4,-.2,.8,-.6,1.1,-1.1h.3c-.4,.7,-.9,1.2,-1.4,1.5c-.5,.3,-1.1,.5,-1.8,.5c-.6,0,-1.2,-.2,-1.7,-.4c-.4,-.3,-.8,-.7,-1.1,-1.1c-.2,-.5,-.3,-1,-.3,-1.6c0,-.8,.2,-1.6,.6,-2.4c.5,-.8,1.1,-1.4,1.9,-1.9c.8,-.4,1.5,-.6,2.3,-.6c.4,0,.8,0,1.3,.2c.2,.1,.4,.1,.4,.1c.1,0,.2,0,.3,0c0,-.1,.2,-.2,.3,-.3Z" class="g6_112"/>
<path fill-rule="evenodd" d="M557.3,613.5l-1.7,5.7c-.1,.4,-.2,.7,-.2,.8c0,.1,.1,.1,.1,.2c0,0,.1,.1,.2,.1c.1,0,.2,0,.4,0c.6,0,1.2,0,1.7,-.1c.5,-.2,.9,-.3,1.2,-.6c.5,-.3,.9,-.8,1.1,-1.4c.3,-.6,.4,-1.3,.4,-2.1c0,-.9,-.2,-1.6,-.6,-2c-.4,-.4,-1,-.7,-1.8,-.7c-.2,0,-.5,.1,-.8,.1m-2,-.2V613h2.5c1,0,1.8,.2,2.3,.4c.5,.2,.9,.6,1.2,1.1c.3,.5,.4,1.1,.4,1.7c0,.5,0,1,-.2,1.4c-.2,.5,-.4,.9,-.6,1.2c-.2,.2,-.5,.6,-1,.9c-.4,.3,-.9,.6,-1.5,.8c-.5,.1,-1.1,.2,-1.9,.2h-3.3l.1,-.2c.3,0,.5,0,.6,-.1c.2,0,.3,-.1,.3,-.2c.2,-.2,.3,-.5,.4,-1l1.4,-4.6c.1,-.4,.1,-.7,.1,-.9c0,-.1,0,-.2,-.1,-.3c-.1,-.1,-.3,-.1,-.6,-.1Z" class="g6_112"/>
<path fill-rule="evenodd" d="M531.6,569.9l1.2,-.6h.1v4.1c0,.3,0,.5,.1,.5q0,.1,.1,.2c.1,0,.2,0,.4,0v.2h-1.8v-.2c.2,0,.4,0,.5,0c0,-.1,.1,-.1,.1,-.2c0,0,0,-.2,0,-.5v-2.6c0,-.4,0,-.6,0,-.7q0,-.1,-.1,-.2c0,0,-.1,0,-.1,0c-.1,0,-.3,0,-.4,.1Z" class="g6_112"/>
<path fill-rule="evenodd" d="M561.6,537.5l1.2,-.6h.1V541c0,.3,0,.4,0,.5q.1,.1,.2,.2c0,0,.2,0,.4,0v.2h-1.8v-.2c.2,0,.4,0,.4,0q.1,-.1,.2,-.2c0,0,0,-.2,0,-.5v-2.6c0,-.4,0,-.6,0,-.7c0,-.1,-.1,-.2,-.1,-.2q-.1,0,-.2,0c-.1,0,-.2,0,-.4,.1Z" class="g6_112"/>
<path fill-rule="evenodd" d="M712,542.3l1.2,-.6h.1v4.1c0,.3,0,.5,0,.5c0,.1,.1,.1,.2,.2c0,0,.2,0,.4,0v.2h-1.8v-.2c.2,0,.3,0,.4,0q.1,-.1,.1,-.2c.1,0,.1,-.2,.1,-.5v-2.6c0,-.4,0,-.6,-.1,-.7q0,-.1,0,-.2q-.1,0,-.2,0c-.1,0,-.2,0,-.4,.1Z" class="g6_112"/>
<path fill-rule="evenodd" d="M682.2,575.1l1.1,-.5h.2v4.1c0,.2,0,.4,0,.5c0,0,.1,.1,.1,.1c.1,.1,.3,.1,.5,.1v.1h-1.9v-.1c.3,0,.4,0,.5,-.1q.1,0,.1,-.1c.1,-.1,.1,-.2,.1,-.5V576c0,-.3,0,-.5,-.1,-.6c0,-.1,0,-.2,-.1,-.2c0,-.1,-.1,-.1,-.1,-.1c-.1,0,-.2,.1,-.4,.1Z" class="g6_112"/>
<image clip-path="url(#c1_112)" preserveAspectRatio="none" x="142" y="156" width="236" height="141" xlink:href="img/p1.jpg"/>
<image clip-path="url(#c2_112)" preserveAspectRatio="none" x="114" y="158" width="257" height="150" xlink:href="img/p2.jpg"/>
<image clip-path="url(#c3_112)" preserveAspectRatio="none" x="189" y="195" width="271" height="158" xlink:href="img/p3.jpg"/>
<path d="M185.9,549.2v45.1H263l17.4,-16l.1,-45.1l-76.9,-.4Z" class="g7_112"/>
<path d="M185.9,549.2H263v45.1H185.9V549.2Zm-.3,0l17.2,-16m59.8,16l17.2,-16m-16.9,61.4l17.2,-16" class="g8_112"/>
<path d="M202.8,533.1h77.6v45.5" class="g9_112"/>
<path fill-rule="evenodd" d="M227.2,578.4l.7,-2.1c.2,-.7,.4,-1.1,.3,-1.3c0,-.2,0,-.3,-.2,-.4c-.2,-.1,-.5,-.2,-.9,-.2l.1,-.4h4.7l-.1,.4c-.5,0,-.9,.1,-1,.2c-.2,.1,-.4,.2,-.5,.3c-.2,.2,-.4,.6,-.6,1.4l-1.7,5.1c-.2,.7,-.4,1.1,-.4,1.3c0,.2,.1,.3,.3,.4c.2,.1,.5,.2,.9,.2l-.1,.4h-4.9l.1,-.4c.6,0,1,-.1,1.2,-.1c.1,-.1,.3,-.2,.5,-.4c.2,-.2,.4,-.7,.6,-1.4l.8,-2.3c-1.2,.5,-2.4,.8,-3.5,.8c-.6,0,-1.1,-.1,-1.4,-.3c-.3,-.1,-.4,-.3,-.5,-.5c0,-.2,.1,-.6,.2,-1l.6,-1.8c.2,-.6,.3,-1,.3,-1.2c0,-.2,0,-.4,-.2,-.5c-.1,-.1,-.4,-.2,-.8,-.2l.1,-.4h4.6l-.2,.4c-.4,0,-.8,.1,-1,.2c-.2,.1,-.3,.2,-.5,.3c-.1,.2,-.3,.6,-.5,1.4l-.4,1.2c-.2,.5,-.3,.8,-.3,.9c.1,.2,.2,.3,.4,.4c.2,.1,.5,.2,.9,.2c.8,0,1.6,-.2,2.4,-.6Z" class="ga_112"/>
<path fill-rule="evenodd" d="M235.8,582.3c-1.3,.8,-2.1,1.2,-2.3,1.3c-.5,.2,-.9,.3,-1.3,.3c-.7,0,-1.2,-.2,-1.5,-.7c-.2,-.5,-.3,-1.1,0,-1.8c.1,-.5,.4,-.9,.7,-1.2c.5,-.5,1.1,-.9,2,-1.4c.8,-.4,2.2,-.9,4,-1.5l.1,-.4c.4,-.9,.4,-1.6,.2,-2c-.1,-.3,-.5,-.5,-1.1,-.5c-.4,0,-.8,.1,-1.2,.4c-.3,.2,-.5,.5,-.7,.8l-.1,.6c-.1,.3,-.3,.6,-.5,.7c-.3,.2,-.5,.3,-.8,.3c-.2,0,-.4,-.1,-.5,-.3c-.1,-.2,-.1,-.4,0,-.7c.2,-.6,.7,-1.2,1.5,-1.7c.8,-.5,1.7,-.7,2.8,-.7c.9,0,1.5,.1,2,.4c.3,.2,.5,.5,.6,1c0,.3,-.2,.9,-.5,1.9l-1.1,3.2c-.3,1,-.4,1.5,-.5,1.7c0,.2,0,.4,.1,.4c0,.1,.1,.1,.2,.1c.1,0,.2,0,.3,0c.2,-.1,.6,-.4,1.1,-.8l-.2,.6c-1.1,1,-2,1.6,-2.7,1.6c-.4,0,-.6,-.1,-.7,-.4c-.2,-.2,-.1,-.6,.1,-1.2m.2,-.7l1.2,-3.7c-1.2,.5,-2,.8,-2.3,.9c-.7,.3,-1.2,.7,-1.6,1c-.3,.3,-.5,.7,-.7,1.1c-.1,.5,-.1,.9,.1,1.3c.1,.3,.4,.5,.8,.5c.6,0,1.4,-.4,2.5,-1.1Z" class="ga_112"/>
<path fill-rule="evenodd" d="M245.5,570.2c.1,-.3,.3,-.5,.4,-.6c.2,-.2,.4,-.2,.6,-.2c.5,0,.8,.4,.8,1.3c.1,.5,.2,.8,.4,.9c.2,.1,.5,.2,.7,.2c.5,0,.8,-.1,1.1,-.3c.3,-.2,.6,-.6,1,-1c.5,-.8,1,-1.1,1.5,-1.1c.2,0,.3,0,.4,.2c.1,.1,.1,.3,0,.6c-.1,.5,-.7,1,-1.5,1.5c-.9,.4,-1.8,.7,-2.6,.7c-1.2,0,-2,-.3,-2.4,-.7c-.5,-.4,-.6,-.9,-.4,-1.5m-2.1,10.5l5.8,-4.8c.1,-.5,.2,-.9,0,-1.1c-.1,-.2,-.4,-.4,-.8,-.4l.1,-.4H253l-.1,.4c-.5,0,-.8,.1,-1,.2c-.2,.1,-.4,.2,-.5,.3c-.2,.2,-.4,.6,-.6,1.4l-1.7,5.1c-.3,.8,-.4,1.2,-.4,1.4c.1,.1,.2,.2,.3,.3c.1,.1,.4,.2,.9,.2l-.1,.4h-4.7l.1,-.4c.6,0,1.1,-.1,1.3,-.3c.3,-.2,.6,-.8,.8,-1.6l1.5,-4.5l-5.7,4.8c-.2,.6,-.3,1,-.2,1.2c.1,.3,.4,.4,.9,.4l-.1,.4h-4.5l.1,-.4c.7,0,1.1,-.1,1.4,-.3c.2,-.3,.5,-.8,.7,-1.6l1.7,-5.1c.3,-.8,.4,-1.2,.4,-1.3c-.1,-.2,-.2,-.3,-.3,-.4c-.1,-.1,-.4,-.2,-.9,-.2l.1,-.4h4.7l-.1,.4c-.5,0,-.9,.1,-1,.2c-.2,.1,-.4,.2,-.5,.3c-.2,.2,-.4,.6,-.6,1.4Z" class="ga_112"/>
<path d="M135.8,335.9h39.7V298.4H135.8v37.5Z" class="gb_112"/>
<path d="M184.8,388.4h651V298.2h-651v90.2Z" class="gc_112"/>
<path d="M73.8,403.4H836" class="gd_112"/>
<path d="M0,138.7H120.2V0H0V138.7Z" class="g0_112"/>
<path d="M136.6,704.4h39.6V666.9H136.6v37.5Z" class="ge_112"/>
<path clip-path="url(#c4_112)" d="M156.8,689.5c-2,.1,-3.7,-1.6,-3.6,-3.6c.1,-1.7,1.5,-3.1,3.2,-3.2c2,-.2,3.8,1.5,3.6,3.6c-.1,1.7,-1.5,3.1,-3.2,3.2m.2,2.9c-3.8,.3,-7,-2.9,-6.7,-6.7c.2,-3.2,2.7,-5.8,5.9,-6c3.8,-.2,7,3,6.7,6.8c-.2,3.1,-2.7,5.7,-5.9,5.9m-.4,-15.3c-5.8,0,-11,3.1,-14.9,8.3c-.3,.4,-.3,1,0,1.4c3.9,5.1,9.1,8.3,14.9,8.3c5.8,0,11,-3.2,14.9,-8.3c.3,-.4,.3,-1,0,-1.4c-3.9,-5.2,-9.1,-8.3,-14.9,-8.3Z" class="gf_112"/>
<path d="M185.5,962.5h651V666.9h-651V962.5Z" class="gc_112"/>
<path d="M609.9,797.6l18.9,-16.8l-.4,49L609.8,847Z" class="gg_112"/>
<path d="M693.9,797.6l18.9,-16.8l-.4,49L693.8,847Z" class="gg_112"/>
<g clip-path="url(#c5_112)">
<path d="M616.4,705.7h83.9v48.9H616.4V705.7Zm-6.6,92.1h84v48.9h-84V797.8Zm6.8,98.1h83.9v48.9H616.6V895.9Z" class="gh_112"/>
<path d="M718.7,737.7h-84V688.8m77.4,141H628.2V780.9M718.9,928h-84V879" class="gi_112"/>
<path d="M634.7,688.8h84v48.9m-90.5,43.2h83.9v48.9M634.9,879h84v49M616.5,705.5l18.4,-16.9m-25,109l18.5,-16.9m-11.7,115l18.4,-16.9m65.2,-173l18.4,-16.9m-24.9,109l18.4,-16.8M700.5,896l18.4,-16.8" class="gh_112"/>
<path d="M616.4,754.5l18.4,-16.9m-24.9,109l18.4,-16.9m-11.7,115L635,927.8" class="gi_112"/>
<path d="M700.2,754.8l18.5,-16.9m-25,109L712.1,830M700.4,945l18.4,-16.8" class="gh_112"/>
</g>
<path fill-rule="evenodd" d="M601.2,814.5h4.3v.2l-2.7,7.8h-.6l2.3,-7.1h-2.1c-.5,0,-.8,.1,-1,.2c-.3,.2,-.6,.4,-.8,.8l-.1,-.1Z" class="g6_112"/>
<path fill-rule="evenodd" d="M716.4,804.6h4.2v.2l-2.6,7.8h-.6l2.3,-7.1h-2.2c-.4,0,-.7,.1,-.9,.2c-.3,.1,-.6,.4,-.8,.8l-.1,-.1Z" class="g6_112"/>
<path fill-rule="evenodd" d="M629.4,839v.8h-1v2.1h-1v-2.1h-3.3v-.7l3.6,-5.3h.7V839Zm-2,0v-3.9l-2.8,3.9Z" class="g6_112"/>
<path fill-rule="evenodd" d="M630.5,843.9v-.3c.4,-.1,.7,-.3,.9,-.6c.2,-.3,.3,-.6,.3,-.9q0,-.1,0,-.2q-.1,0,-.1,0c0,0,-.1,0,-.3,.1q-.1,0,-.2,0c-.2,0,-.3,0,-.5,-.1c-.1,-.1,-.1,-.3,-.1,-.5c0,-.2,0,-.3,.2,-.5c.1,-.1,.3,-.2,.5,-.2c.3,0,.5,.1,.7,.4c.2,.2,.3,.5,.3,.8c0,.4,-.1,.8,-.4,1.1c-.3,.4,-.7,.7,-1.3,.9Z" class="g6_112"/>
<path fill-rule="evenodd" d="M638,834l-.5,1h-2.3l-.6,1c1.1,.2,1.9,.6,2.5,1.2c.5,.5,.8,1.1,.8,1.8c0,.5,-.1,.8,-.3,1.2c-.2,.4,-.4,.7,-.6,.9c-.3,.2,-.6,.4,-.9,.6c-.4,.2,-.9,.3,-1.4,.3c-.4,0,-.8,-.1,-1,-.2c-.2,-.2,-.3,-.4,-.3,-.6c0,-.1,0,-.2,.1,-.2c.1,-.1,.2,-.2,.4,-.2q.1,0,.2,.1c.1,0,.2,.1,.4,.2c.3,.2,.6,.3,.9,.3c.4,0,.8,-.2,1.2,-.5c.3,-.3,.5,-.8,.5,-1.2c0,-.5,-.1,-1,-.5,-1.4c-.3,-.4,-.7,-.7,-1.2,-.9c-.4,-.2,-1,-.3,-1.8,-.3l1.6,-3.1Z" class="g6_112"/>
<path fill-rule="evenodd" d="M710.6,842.3v.8h-1.1v2.1h-1v-2.1h-3.3v-.7l3.7,-5.3h.6v5.2Zm-2.1,0v-3.9l-2.7,3.9Z" class="g6_112"/>
<path fill-rule="evenodd" d="M711.6,847.2v-.3c.4,-.1,.7,-.3,.9,-.6c.3,-.3,.4,-.6,.4,-.9q0,-.1,-.1,-.2h-.1c0,0,-.1,0,-.2,.1c-.1,0,-.2,0,-.3,0c-.2,0,-.3,0,-.4,-.1c-.1,-.1,-.2,-.3,-.2,-.5c0,-.2,.1,-.3,.2,-.5c.2,-.1,.4,-.2,.6,-.2c.2,0,.5,.1,.6,.4c.3,.2,.4,.5,.4,.8c0,.4,-.2,.8,-.5,1.2c-.2,.3,-.7,.6,-1.3,.8Z" class="g6_112"/>
<path fill-rule="evenodd" d="M719.1,837.3l-.4,1h-2.4l-.5,1c1,.2,1.8,.6,2.4,1.2c.5,.5,.8,1.1,.8,1.9c0,.4,-.1,.8,-.2,1.1c-.2,.4,-.4,.7,-.7,.9c-.2,.2,-.5,.4,-.8,.6c-.5,.2,-.9,.3,-1.4,.3c-.5,0,-.8,-.1,-1,-.2c-.3,-.2,-.4,-.4,-.4,-.6c0,-.1,.1,-.2,.2,-.2c.1,-.1,.2,-.2,.3,-.2c.1,0,.2,0,.3,.1c0,0,.2,.1,.4,.2c.2,.2,.5,.3,.8,.3c.5,0,.9,-.1,1.2,-.5c.4,-.3,.5,-.8,.5,-1.2c0,-.5,-.1,-1,-.4,-1.4c-.3,-.4,-.7,-.7,-1.3,-.9c-.4,-.2,-1,-.3,-1.7,-.3l1.5,-3.1Z" class="g6_112"/>
<path fill-rule="evenodd" d="M606,848.6l-.6,6.6c0,.3,-.1,.5,-.1,.6c0,.2,.1,.3,.1,.4c.1,.1,.2,.1,.3,.2c.2,.1,.4,.1,.7,.1l-.1,.2h-3.1l.1,-.2h.1c.2,0,.5,-.1,.6,-.2c.1,-.1,.2,-.2,.3,-.3c0,-.2,.1,-.5,.1,-.9l.1,-1h-2.3l-.8,1.1c-.2,.2,-.3,.4,-.3,.5c-.1,.1,-.1,.2,-.1,.3c0,.1,.1,.2,.2,.3c.1,.1,.2,.2,.5,.2l-.1,.2h-2.3v-.2c.3,0,.6,-.1,.8,-.3c.2,-.2,.5,-.6,1,-1.2l4.7,-6.4Zm-1.2,2l-2.3,3.1h2Z" class="g6_112"/>
<path fill-rule="evenodd" d="M602.2,791.8l-.6,6.6c0,.3,-.1,.5,-.1,.6c0,.2,.1,.3,.1,.4c.1,.1,.2,.2,.3,.2c.2,.1,.4,.1,.7,.1l-.1,.2h-3.1l.1,-.2h.1c.2,0,.5,-.1,.6,-.2c.1,-.1,.2,-.2,.3,-.3c0,-.2,.1,-.4,.1,-.9l.1,-1h-2.3l-.8,1.1c-.2,.2,-.3,.4,-.3,.5c-.1,.1,-.1,.2,-.1,.3c0,.1,.1,.3,.2,.3c.1,.1,.2,.2,.5,.2l-.1,.2h-2.3v-.2c.3,0,.6,-.1,.8,-.3c.2,-.2,.5,-.6,1,-1.2l4.7,-6.4Zm-1.2,2l-2.3,3.1h2Z" class="g6_112"/>
<path fill-rule="evenodd" d="M618.2,770.6v-.2h2.6c1,0,1.8,.1,2.3,.4c.5,.2,1,.6,1.3,1.1c.3,.6,.4,1.1,.4,1.7c0,.5,-.1,1,-.2,1.5c-.2,.5,-.4,.9,-.6,1.2c-.3,.3,-.6,.6,-1.1,1c-.4,.3,-.9,.6,-1.5,.7c-.5,.2,-1.2,.3,-2,.3h-3.3v-.2c.3,0,.5,-.1,.7,-.1c.1,-.1,.2,-.2,.3,-.3c.1,-.1,.2,-.5,.4,-1l1.4,-4.7c.1,-.4,.1,-.7,.1,-.9c0,-.2,0,-.3,-.1,-.3c-.1,-.1,-.3,-.2,-.6,-.2Zm2,.2l-1.7,5.9c-.1,.5,-.2,.8,-.2,.9c0,0,0,.1,.1,.1c0,.1,.1,.1,.2,.2c.1,0,.2,0,.4,0c.7,0,1.2,0,1.7,-.2c.6,-.1,1,-.3,1.3,-.5c.5,-.4,.9,-.9,1.2,-1.5c.2,-.7,.4,-1.4,.4,-2.2c0,-.9,-.2,-1.6,-.7,-2c-.4,-.5,-1,-.7,-1.9,-.7c-.2,0,-.4,0,-.8,0Z" class="g6_112"/>
<path fill-rule="evenodd" d="M722.3,775l-.6,2.5h-.2l-.1,-.6c0,-.3,0,-.5,-.1,-.7c-.1,-.1,-.2,-.3,-.3,-.4c-.1,-.2,-.3,-.3,-.5,-.3c-.2,-.1,-.5,-.2,-.7,-.2c-.7,0,-1.3,.2,-1.9,.6c-.6,.5,-1.2,1.2,-1.5,2.1c-.3,.7,-.5,1.4,-.5,2.2c0,.7,.2,1.3,.7,1.8c.4,.5,1,.7,1.7,.7c.6,0,1,-.1,1.5,-.4c.4,-.2,.8,-.6,1.1,-1.1h.3c-.4,.7,-.9,1.2,-1.4,1.5c-.5,.3,-1.2,.5,-1.9,.5c-.6,0,-1.2,-.1,-1.7,-.4c-.5,-.3,-.9,-.7,-1.1,-1.1c-.3,-.5,-.4,-1.1,-.4,-1.6c0,-.9,.2,-1.7,.7,-2.5c.4,-.8,1.1,-1.5,1.9,-2c.8,-.4,1.6,-.6,2.4,-.6c.4,0,.8,0,1.3,.2c.2,.1,.4,.1,.5,.1c0,0,.1,0,.2,0c.1,-.1,.2,-.2,.4,-.3Z" class="g6_112"/>
<path fill-rule="evenodd" d="M697.9,798.3l.1,-.2h2.8c.5,0,.9,.1,1.2,.3c.4,.1,.7,.3,.9,.6c.2,.2,.3,.5,.3,.8c0,.5,-.2,.9,-.5,1.2c-.4,.4,-.9,.7,-1.6,.8c.4,.2,.8,.5,1,.8c.2,.2,.4,.6,.4,.9c0,.4,-.2,.8,-.4,1.1c-.2,.4,-.4,.7,-.7,.9c-.3,.2,-.7,.3,-1.2,.4c-.3,.1,-.8,.1,-1.5,.1h-2.9l.1,-.2c.3,0,.5,0,.6,-.1c.2,-.1,.3,-.1,.4,-.3c.1,-.1,.2,-.4,.3,-1l1.5,-4.7c.1,-.4,.1,-.7,.1,-.9c0,-.1,0,-.2,-.1,-.3c-.1,-.1,-.3,-.1,-.6,-.1c-.1,0,-.2,-.1,-.2,-.1m1.2,3.3c.2,0,.4,0,.5,0c.8,0,1.4,-.1,1.8,-.5c.4,-.3,.6,-.8,.6,-1.3c0,-.4,-.1,-.7,-.4,-.9c-.2,-.3,-.6,-.4,-1.1,-.4c-.2,0,-.3,0,-.5,.1Zm-1.2,3.9c.4,.1,.8,.1,1,.1c.6,0,1.1,-.2,1.6,-.6c.5,-.3,.7,-.8,.7,-1.4c0,-.5,-.1,-.9,-.4,-1.2c-.3,-.2,-.8,-.4,-1.4,-.4c-.2,0,-.3,0,-.5,.1Z" class="g6_112"/>
<path fill-rule="evenodd" d="M698.3,849l.1,-.2h2.9c.4,0,.8,.1,1.2,.2c.4,.2,.7,.4,.9,.6c.1,.3,.2,.6,.2,.9c0,.4,-.1,.8,-.5,1.2c-.3,.4,-.8,.6,-1.6,.8c.5,.2,.9,.4,1.1,.7c.2,.3,.3,.6,.3,1c0,.4,-.1,.8,-.3,1.1c-.2,.4,-.4,.7,-.8,.8c-.3,.2,-.7,.4,-1.1,.5c-.3,.1,-.8,.1,-1.5,.1h-2.9l.1,-.2c.3,0,.5,-.1,.6,-.1c.2,-.1,.3,-.2,.3,-.3c.1,-.1,.3,-.5,.4,-1l1.4,-4.8c.1,-.4,.2,-.6,.2,-.8c0,-.2,0,-.3,-.2,-.3c-.1,-.1,-.3,-.2,-.6,-.2c0,0,-.1,0,-.2,0m1.2,3.3c.3,0,.5,0,.6,0c.8,0,1.4,-.2,1.8,-.5c.4,-.4,.6,-.8,.6,-1.3c0,-.4,-.1,-.7,-.4,-1c-.2,-.2,-.6,-.3,-1.1,-.3c-.2,0,-.4,0,-.6,.1Zm-1.1,3.9c.4,0,.7,.1,1,.1c.6,0,1.1,-.2,1.6,-.6c.4,-.4,.7,-.8,.7,-1.5c0,-.4,-.2,-.8,-.5,-1.1c-.2,-.3,-.7,-.4,-1.4,-.4c-.1,0,-.2,0,-.4,0Z" class="g6_112"/>
<path fill-rule="evenodd" d="M722,825.9l-.6,2.6h-.2v-.7c0,-.2,-.1,-.4,-.2,-.6c0,-.2,-.1,-.3,-.3,-.5c-.1,-.1,-.3,-.2,-.5,-.3c-.2,-.1,-.5,-.1,-.7,-.1c-.7,0,-1.3,.2,-1.8,.6c-.7,.4,-1.2,1.1,-1.6,2c-.3,.7,-.5,1.5,-.5,2.2c0,.8,.3,1.4,.7,1.9c.4,.4,1,.6,1.7,.6c.6,0,1.1,-.1,1.5,-.3c.4,-.3,.8,-.6,1.2,-1.1h.2c-.4,.6,-.9,1.1,-1.4,1.5c-.5,.3,-1.1,.4,-1.9,.4c-.6,0,-1.2,-.1,-1.7,-.4c-.5,-.2,-.8,-.6,-1.1,-1.1c-.3,-.5,-.4,-1,-.4,-1.6c0,-.8,.2,-1.7,.7,-2.5c.5,-.8,1.1,-1.4,1.9,-1.9c.8,-.5,1.6,-.7,2.4,-.7c.4,0,.9,.1,1.3,.3c.2,.1,.4,.1,.5,.1c.1,0,.2,0,.2,-.1c.1,0,.2,-.1,.4,-.3Z" class="g6_112"/>
<path fill-rule="evenodd" d="M619.1,823l.1,-.2h2.5c1.1,0,1.8,.1,2.4,.3c.5,.3,.9,.7,1.2,1.2c.3,.5,.5,1.1,.5,1.7c0,.5,-.1,1,-.3,1.5c-.2,.5,-.4,.8,-.6,1.1c-.2,.3,-.6,.7,-1,1c-.5,.4,-1,.6,-1.5,.8c-.6,.2,-1.3,.2,-2.1,.2H617l.1,-.2c.3,0,.5,0,.6,-.1c.1,0,.3,-.1,.3,-.2c.1,-.2,.3,-.5,.4,-1l1.4,-4.8c.1,-.3,.2,-.6,.2,-.9c0,-.1,-.1,-.2,-.2,-.3c-.1,-.1,-.3,-.1,-.6,-.1Zm2.1,.2l-1.8,5.9c-.1,.4,-.1,.7,-.1,.8q0,.1,0,.2c.1,0,.1,.1,.2,.1c.1,0,.2,.1,.5,.1c.6,0,1.1,-.1,1.7,-.2c.5,-.2,.9,-.3,1.3,-.6c.4,-.4,.8,-.8,1.1,-1.5c.3,-.6,.4,-1.3,.4,-2.1c0,-.9,-.2,-1.6,-.6,-2.1c-.5,-.4,-1.1,-.6,-1.9,-.6c-.2,0,-.5,0,-.8,0Z" class="g6_112"/>
<path fill-rule="evenodd" d="M604.7,796.9l1.4,-.7h.1v4.7c0,.3,0,.5,0,.5c.1,.1,.1,.2,.2,.2c.1,.1,.2,.1,.5,.1v.1h-2.1v-.1c.3,0,.4,0,.5,-.1c.1,0,.1,-.1,.2,-.1c0,-.1,0,-.3,0,-.6v-3c0,-.4,0,-.7,0,-.8c0,-.1,-.1,-.1,-.1,-.2q-.1,0,-.2,0c-.1,0,-.2,0,-.4,.1Z" class="g6_112"/>
<path fill-rule="evenodd" d="M626.5,775.3l1.3,-.7h.2v4.7c0,.3,0,.5,0,.5c0,.1,.1,.2,.2,.2c0,.1,.2,.1,.5,.1v.1h-2.1v-.1c.2,0,.4,0,.5,-.1c.1,0,.1,-.1,.1,-.1c.1,-.1,.1,-.3,.1,-.6v-3c0,-.4,0,-.7,-.1,-.8q0,-.1,-.1,-.2c0,0,-.1,0,-.1,0c-.1,0,-.3,0,-.5,.1Z" class="g6_112"/>
<path fill-rule="evenodd" d="M724.5,779.1l1.3,-.6h.2v4.6c0,.4,0,.5,0,.6c0,.1,.1,.2,.2,.2c.1,0,.2,.1,.5,.1v.1h-2.1V784c.3,0,.4,-.1,.5,-.1c.1,0,.1,-.1,.2,-.2c0,0,0,-.2,0,-.6v-2.9c0,-.4,0,-.7,0,-.8c-.1,-.1,-.1,-.2,-.1,-.2c-.1,0,-.2,-.1,-.2,-.1c-.1,0,-.3,.1,-.4,.2Z" class="g6_112"/>
<path fill-rule="evenodd" d="M705.1,803.5l1.3,-.6h.1v4.6c0,.3,.1,.5,.1,.6c0,.1,.1,.1,.1,.2c.1,0,.3,.1,.5,.1v.1h-2v-.1c.2,0,.4,-.1,.5,-.1c0,-.1,.1,-.1,.1,-.2c.1,0,.1,-.2,.1,-.6v-2.9c0,-.4,0,-.7,-.1,-.8c0,-.1,0,-.2,-.1,-.2c0,0,-.1,-.1,-.2,-.1c-.1,0,-.2,.1,-.4,.2Z" class="g6_112"/>
<path d="M610.8,704.6l19,-16.9h83.9l-19,16.9Z" class="gj_112"/>
<path d="M610.2,754.4l18.9,-17H713l-18.9,17Z" class="gj_112"/>
<g clip-path="url(#c6_112)">
<path d="M610.8,705.4h83.9v49.2H610.8V705.4Zm-6.6,92.7h84v49.3h-84V798.1Zm6.8,98.8h83.9v49.3H611V896.9Z" class="gh_112"/>
<path d="M713.1,737.6H629.2V688.4m77.4,142h-84V781.1m90.7,148.1h-84V879.9" class="gi_112"/>
<path d="M629.2,688.4h83.9v49.2m-90.5,43.5h84v49.3m-77.3,49.5h84v49.3M610.9,705.1l18.4,-16.9M604.4,797.9l18.4,-17M611.1,896.7l18.4,-17M694.7,705.5l18.5,-17m-25,109.7l18.4,-16.9M694.9,897l18.4,-16.9" class="gh_112"/>
<path d="M610.8,754.5l18.4,-17M604.3,847.2l18.4,-16.9M611,946l18.4,-16.9" class="gi_112"/>
<path d="M694.7,754.8l18.4,-17m-25,109.8l18.4,-17M694.8,946.4l18.5,-17" class="gh_112"/>
</g>
<path fill-rule="evenodd" d="M608.8,694v.9h-1V697h-1v-2.1h-3.3v-.8l3.6,-5.2h.7V694Zm-2,0v-3.9L604,694Z" class="g6_112"/>
<path fill-rule="evenodd" d="M609.9,699v-.3c.4,-.1,.7,-.3,.9,-.6c.2,-.3,.3,-.6,.3,-.9q0,-.1,0,-.2c0,0,-.1,0,-.1,0c0,0,-.1,0,-.3,.1c0,0,-.1,0,-.2,0c-.2,0,-.3,0,-.4,-.1c-.2,-.1,-.2,-.3,-.2,-.5c0,-.2,.1,-.4,.2,-.5c.1,-.1,.3,-.2,.5,-.2c.3,0,.5,.1,.7,.3c.2,.3,.3,.6,.3,.9c0,.4,-.1,.8,-.4,1.1c-.3,.4,-.7,.7,-1.3,.9Z" class="g6_112"/>
<path fill-rule="evenodd" d="M617.4,689l-.4,1h-2.4l-.5,1.1c1,.1,1.8,.5,2.4,1.1c.5,.6,.8,1.2,.8,1.9c0,.4,-.1,.8,-.3,1.2c-.1,.3,-.4,.6,-.6,.9c-.3,.2,-.6,.4,-.9,.6c-.4,.2,-.9,.3,-1.3,.3c-.5,0,-.9,-.1,-1.1,-.2c-.2,-.2,-.3,-.4,-.3,-.6c0,-.1,0,-.2,.1,-.3c.1,0,.2,-.1,.4,-.1c.1,0,.2,0,.2,.1c.1,0,.2,.1,.4,.2c.3,.2,.6,.3,.9,.3c.5,0,.9,-.2,1.2,-.5c.3,-.4,.5,-.8,.5,-1.3c0,-.4,-.1,-.9,-.4,-1.3c-.3,-.4,-.8,-.7,-1.3,-1c-.4,-.2,-1,-.3,-1.7,-.3l1.5,-3.1Z" class="g6_112"/>
<path fill-rule="evenodd" d="M629.3,748v.8h-1.1v2.1h-1v-2.1h-3.3V748l3.7,-5.2h.6V748Zm-2.1,0v-4l-2.7,4Z" class="g6_112"/>
<path fill-rule="evenodd" d="M630.3,752.9v-.3c.4,-.1,.7,-.3,1,-.6c.2,-.3,.3,-.6,.3,-.9q0,-.1,-.1,-.2h-.1c0,0,-.1,0,-.2,.1c-.1,0,-.2,0,-.3,0c-.1,0,-.3,0,-.4,-.1c-.1,-.1,-.2,-.3,-.2,-.5c0,-.2,.1,-.4,.2,-.5c.2,-.1,.4,-.2,.6,-.2c.2,0,.5,.1,.7,.3c.2,.3,.3,.6,.3,.9c0,.4,-.2,.8,-.5,1.2c-.2,.3,-.7,.6,-1.3,.8Z" class="g6_112"/>
<path fill-rule="evenodd" d="M637.8,742.9l-.4,1H635l-.5,1.1c1,.2,1.8,.5,2.4,1.2c.6,.5,.8,1.1,.8,1.8c0,.4,-.1,.8,-.2,1.2c-.2,.3,-.4,.6,-.7,.9c-.2,.2,-.5,.4,-.8,.6c-.5,.2,-.9,.3,-1.4,.3c-.5,0,-.8,-.1,-1,-.2c-.3,-.2,-.4,-.4,-.4,-.6c0,-.1,.1,-.2,.2,-.3c.1,0,.2,-.1,.3,-.1c.1,0,.2,0,.3,.1c0,0,.2,.1,.4,.2c.3,.2,.5,.3,.8,.3c.5,0,.9,-.2,1.2,-.5c.4,-.3,.6,-.8,.6,-1.3c0,-.4,-.2,-.9,-.5,-1.3c-.3,-.4,-.7,-.7,-1.3,-1c-.4,-.1,-1,-.2,-1.7,-.3l1.5,-3.1Z" class="g6_112"/>
<path fill-rule="evenodd" d="M649.7,709.5l2,-1h.2v6.7c0,.5,0,.7,0,.9c.1,.1,.1,.2,.2,.2c.2,.1,.4,.1,.8,.1v.2h-3v-.2c.4,0,.6,0,.7,-.1c.1,0,.2,-.1,.2,-.2c.1,-.1,.1,-.4,.1,-.9v-4.3c0,-.5,0,-.9,-.1,-1.1c0,-.1,0,-.2,-.1,-.2c-.1,-.1,-.2,-.1,-.3,-.1c-.1,0,-.3,0,-.6,.2Z" class="g6_112"/>
<path fill-rule="evenodd" d="M659.8,715.1l-.6,1.5h-4.6v-.2c1.3,-1.2,2.3,-2.3,2.9,-3.1c.5,-.8,.8,-1.5,.8,-2.2c0,-.5,-.1,-.9,-.5,-1.2c-.3,-.3,-.6,-.5,-1.1,-.5c-.3,0,-.7,.1,-1,.4c-.3,.2,-.5,.5,-.7,1h-.2c.1,-.8,.3,-1.3,.7,-1.7c.4,-.4,.9,-.6,1.6,-.6c.6,0,1.1,.2,1.6,.6c.4,.5,.6,.9,.6,1.5c0,.4,-.1,.8,-.3,1.2c-.3,.6,-.7,1.3,-1.4,2c-.9,1.1,-1.5,1.7,-1.8,1.9h2.1c.4,0,.7,0,.9,0c.1,0,.3,-.1,.4,-.2c.1,-.1,.3,-.2,.4,-.4Z" class="g6_112"/>
<path fill-rule="evenodd" d="M648.3,758.8l2,-1h.2v6.7c0,.5,0,.8,0,.9c0,.1,.1,.2,.2,.2c.2,.1,.4,.1,.7,.1v.2h-2.9v-.2c.3,0,.6,0,.7,-.1c.1,0,.2,-.1,.2,-.2c.1,-.1,.1,-.4,.1,-.9v-4.2c0,-.6,0,-1,-.1,-1.1c0,-.2,0,-.3,-.1,-.3c-.1,-.1,-.2,-.1,-.3,-.1c-.1,0,-.3,.1,-.6,.2Z" class="g6_112"/>
<path fill-rule="evenodd" d="M658.4,764.4l-.6,1.5h-4.6v-.2c1.3,-1.2,2.3,-2.3,2.9,-3c.5,-.8,.8,-1.6,.8,-2.2c0,-.5,-.2,-.9,-.5,-1.3c-.3,-.3,-.6,-.5,-1.1,-.5c-.4,0,-.7,.2,-1,.4c-.3,.2,-.6,.5,-.7,1h-.2c.1,-.7,.3,-1.3,.7,-1.7c.4,-.4,.9,-.6,1.5,-.6c.7,0,1.2,.3,1.6,.7c.5,.4,.7,.9,.7,1.4c0,.4,-.1,.8,-.3,1.2c-.3,.7,-.7,1.3,-1.4,2c-1,1.1,-1.6,1.7,-1.8,2h2.1c.4,0,.7,-.1,.8,-.1c.2,0,.4,-.1,.5,-.2c.1,-.1,.3,-.2,.4,-.4Z" class="g6_112"/>
<path fill-rule="evenodd" d="M606,754.5l-.6,6.6c-.1,.3,-.1,.5,-.1,.6c0,.1,.1,.3,.1,.3c.1,.2,.2,.2,.3,.3c.1,0,.3,.1,.6,.1v.2h-3.1v-.2h.2c.2,0,.4,-.1,.6,-.2c.1,-.1,.2,-.2,.3,-.4c0,-.1,0,-.4,.1,-.8l.1,-1h-2.3l-.8,1.1c-.2,.2,-.3,.4,-.3,.5c-.1,.1,-.1,.2,-.1,.3c0,.1,0,.2,.1,.3c.1,.1,.3,.2,.5,.2v.2h-2.4l.1,-.2c.3,0,.5,-.1,.8,-.3c.2,-.2,.5,-.6,.9,-1.2l4.8,-6.4Zm-1.2,1.9l-2.3,3.2h2Z" class="g6_112"/>
<path fill-rule="evenodd" d="M602.7,699l-.6,6.6c0,.3,0,.5,0,.6c0,.1,0,.3,.1,.3c0,.1,.1,.2,.3,.3c.1,0,.3,.1,.6,.1l-.1,.2h-3.1l.1,-.2h.1c.3,0,.5,-.1,.6,-.2c.2,-.1,.2,-.2,.3,-.4c0,-.1,.1,-.4,.1,-.8l.1,-1H599l-.8,1.1c-.2,.2,-.3,.4,-.4,.5c0,.1,-.1,.2,-.1,.3c0,.1,.1,.2,.2,.3c.1,.1,.3,.2,.5,.2l-.1,.2H596l.1,-.2c.2,0,.5,-.1,.7,-.3c.2,-.2,.6,-.6,1,-1.2l4.7,-6.4Zm-1.1,1.9l-2.3,3.1h2Z" class="g6_112"/>
<path fill-rule="evenodd" d="M619.3,677v-.2h2.5c1.1,0,1.9,.2,2.4,.4c.5,.2,.9,.6,1.3,1.2c.3,.5,.4,1.1,.4,1.7c0,.5,-.1,1,-.3,1.5c-.1,.5,-.3,.9,-.6,1.1c-.2,.3,-.5,.7,-1,1c-.4,.4,-.9,.6,-1.5,.8c-.5,.2,-1.2,.3,-2,.3h-3.3v-.3c.3,0,.5,0,.6,0c.2,-.1,.3,-.2,.4,-.3c.1,-.2,.2,-.5,.4,-1l1.4,-4.8c.1,-.4,.1,-.7,.1,-.9c0,-.1,0,-.3,-.1,-.3c-.1,-.1,-.3,-.2,-.6,-.2Zm2,.3l-1.7,5.9c-.1,.4,-.2,.7,-.2,.8c0,.1,0,.2,.1,.2c0,.1,.1,.1,.1,.1c.1,.1,.3,.1,.5,.1c.6,0,1.2,-.1,1.7,-.2c.6,-.1,1,-.3,1.3,-.6c.5,-.3,.9,-.8,1.2,-1.5c.2,-.6,.4,-1.3,.4,-2.1c0,-1,-.2,-1.6,-.7,-2.1c-.4,-.4,-1,-.7,-1.9,-.7c-.2,0,-.5,.1,-.8,.1Z" class="g6_112"/>
<path fill-rule="evenodd" d="M723.4,681.4l-.6,2.6h-.2l-.1,-.7c0,-.2,0,-.4,-.1,-.6c-.1,-.2,-.2,-.3,-.3,-.5c-.2,-.1,-.3,-.2,-.5,-.3c-.3,-.1,-.5,-.1,-.8,-.1c-.6,0,-1.3,.2,-1.8,.6c-.6,.4,-1.2,1.1,-1.5,2c-.3,.8,-.5,1.5,-.5,2.3c0,.7,.2,1.3,.7,1.8c.4,.5,1,.7,1.7,.7c.5,0,1,-.1,1.4,-.4c.5,-.2,.9,-.6,1.2,-1.1h.3c-.4,.7,-.9,1.2,-1.4,1.5c-.5,.3,-1.2,.5,-1.9,.5c-.6,0,-1.2,-.1,-1.7,-.4c-.5,-.3,-.9,-.7,-1.1,-1.2c-.3,-.4,-.4,-1,-.4,-1.5c0,-.9,.2,-1.8,.7,-2.6c.4,-.8,1.1,-1.4,1.9,-1.9c.8,-.5,1.6,-.7,2.4,-.7c.4,0,.8,.1,1.3,.3c.2,0,.4,.1,.4,.1c.1,0,.2,0,.3,-.1c.1,0,.2,-.1,.3,-.3Z" class="g6_112"/>
<path fill-rule="evenodd" d="M698.4,705.5l.1,-.2h2.8c.5,0,.9,.1,1.3,.2c.3,.2,.6,.4,.8,.6c.2,.3,.3,.6,.3,.9c0,.4,-.2,.9,-.5,1.2c-.3,.4,-.9,.7,-1.6,.8c.5,.2,.8,.5,1,.8c.3,.2,.4,.6,.4,.9c0,.4,-.1,.8,-.3,1.2c-.2,.3,-.5,.6,-.8,.8c-.3,.2,-.7,.3,-1.1,.4c-.4,.1,-.9,.1,-1.5,.1h-2.9V713c.3,0,.6,0,.7,-.1c.1,0,.2,-.1,.3,-.2c.1,-.2,.2,-.5,.4,-1.1l1.4,-4.8c.1,-.4,.2,-.6,.2,-.8c0,-.2,-.1,-.3,-.2,-.4c-.1,0,-.3,-.1,-.6,-.1q-.1,0,-.2,0m1.2,3.3c.2,0,.4,0,.5,0c.8,0,1.4,-.2,1.8,-.5c.4,-.4,.6,-.8,.6,-1.3c0,-.4,-.1,-.7,-.3,-1c-.3,-.2,-.7,-.3,-1.2,-.3c-.1,0,-.3,0,-.5,.1Zm-1.2,3.9c.5,.1,.8,.1,1,.1c.6,0,1.2,-.2,1.6,-.5c.5,-.4,.7,-.9,.7,-1.5c0,-.5,-.1,-.9,-.4,-1.2c-.3,-.2,-.7,-.4,-1.4,-.4c-.1,0,-.3,0,-.4,0Z" class="g6_112"/>
<path fill-rule="evenodd" d="M698.3,754.9l.1,-.3h2.8c.5,0,.9,.1,1.3,.3c.4,.1,.6,.3,.8,.6c.2,.3,.3,.5,.3,.8c0,.5,-.2,.9,-.5,1.3c-.3,.3,-.9,.6,-1.6,.8c.5,.2,.8,.4,1.1,.7c.2,.3,.3,.6,.3,1c0,.4,-.1,.7,-.3,1.1c-.2,.4,-.5,.6,-.8,.8c-.3,.2,-.7,.4,-1.1,.5c-.3,0,-.8,.1,-1.5,.1h-2.9l.1,-.2c.3,0,.5,-.1,.6,-.1c.1,-.1,.2,-.2,.3,-.3c.1,-.1,.2,-.5,.4,-1l1.4,-4.8c.1,-.4,.2,-.7,.2,-.9c0,-.1,-.1,-.2,-.2,-.3c-.1,-.1,-.3,-.1,-.6,-.1q-.1,0,-.2,0m1.2,3.3c.3,0,.4,0,.6,0c.8,0,1.4,-.2,1.8,-.6c.4,-.3,.5,-.8,.5,-1.3c0,-.4,-.1,-.7,-.3,-.9c-.3,-.3,-.6,-.4,-1.2,-.4c-.1,0,-.3,.1,-.5,.1Zm-1.1,3.9c.4,0,.7,0,.9,0c.6,0,1.2,-.1,1.7,-.5c.4,-.4,.7,-.9,.7,-1.5c0,-.5,-.2,-.9,-.5,-1.1c-.3,-.3,-.7,-.4,-1.4,-.4c-.1,0,-.3,0,-.4,0Z" class="g6_112"/>
<path fill-rule="evenodd" d="M723.1,733.3l-.6,2.5h-.2v-.6c-.1,-.2,-.1,-.5,-.2,-.6c0,-.2,-.1,-.4,-.3,-.5c-.1,-.1,-.3,-.3,-.5,-.3c-.2,-.1,-.5,-.1,-.7,-.1c-.7,0,-1.3,.1,-1.9,.5c-.6,.5,-1.1,1.2,-1.5,2.1c-.3,.7,-.5,1.5,-.5,2.2c0,.8,.2,1.4,.7,1.9c.4,.4,1,.7,1.7,.7c.6,0,1.1,-.2,1.5,-.4c.4,-.3,.8,-.6,1.2,-1.1h.2c-.4,.7,-.9,1.2,-1.4,1.5c-.5,.3,-1.1,.5,-1.9,.5c-.6,0,-1.2,-.2,-1.7,-.4c-.5,-.3,-.9,-.7,-1.1,-1.2c-.3,-.5,-.4,-1,-.4,-1.6c0,-.8,.2,-1.7,.7,-2.5c.4,-.8,1.1,-1.5,1.9,-1.9c.8,-.5,1.6,-.7,2.4,-.7c.4,0,.8,.1,1.3,.2c.2,.1,.4,.2,.5,.2c.1,0,.1,-.1,.2,-.1c.1,0,.2,-.2,.4,-.3Z" class="g6_112"/>
<path fill-rule="evenodd" d="M620.2,730.3l.1,-.2h2.5c1,0,1.8,.1,2.4,.4c.5,.2,.9,.6,1.2,1.1c.3,.6,.4,1.1,.4,1.7c0,.5,0,1,-.2,1.5c-.2,.5,-.4,.9,-.6,1.2c-.2,.3,-.6,.6,-1.1,1c-.4,.3,-.9,.6,-1.5,.8c-.5,.1,-1.2,.2,-2,.2h-3.3l.1,-.2c.3,0,.5,0,.6,-.1c.1,0,.2,-.1,.3,-.2c.1,-.2,.3,-.5,.4,-1l1.4,-4.8c.1,-.4,.2,-.7,.2,-.9c0,-.2,-.1,-.3,-.2,-.4c-.1,0,-.3,-.1,-.6,-.1Zm2.1,.2l-1.8,6c-.1,.4,-.2,.7,-.2,.8c0,.1,.1,.1,.1,.2c0,0,.1,.1,.2,.1c.1,0,.2,.1,.5,.1c.6,0,1.1,-.1,1.7,-.2c.5,-.2,.9,-.4,1.2,-.6c.5,-.4,.9,-.9,1.2,-1.5c.3,-.6,.4,-1.4,.4,-2.2c0,-.9,-.2,-1.6,-.6,-2c-.5,-.5,-1.1,-.7,-1.9,-.7c-.3,0,-.5,0,-.8,0Z" class="g6_112"/>
<path fill-rule="evenodd" d="M605.2,704l1.4,-.6h.1v4.7c0,.3,0,.5,.1,.5c0,.1,0,.2,.1,.2c.1,.1,.3,.1,.5,.1v.1h-2.1v-.1c.3,0,.5,0,.6,-.1c0,0,.1,-.1,.1,-.1c0,-.1,.1,-.3,.1,-.6v-3c0,-.4,-.1,-.7,-.1,-.8c0,-.1,0,-.2,-.1,-.2c0,-.1,-.1,-.1,-.2,-.1c-.1,0,-.2,.1,-.4,.2Z" class="g6_112"/>
<path fill-rule="evenodd" d="M627.6,681.7l1.3,-.7h.2v4.7c0,.3,0,.5,0,.6c0,.1,.1,.2,.2,.2c0,0,.2,.1,.5,.1v.1h-2.1v-.1c.2,0,.4,-.1,.5,-.1c.1,0,.1,-.1,.1,-.2c.1,0,.1,-.2,.1,-.6v-3c0,-.4,0,-.6,-.1,-.7c0,-.1,0,-.2,-.1,-.2c0,-.1,-.1,-.1,-.1,-.1c-.1,0,-.3,0,-.5,.1Z" class="g6_112"/>
<path fill-rule="evenodd" d="M725,685.6l1.4,-.6h.1v4.6c0,.4,0,.5,0,.6c.1,.1,.1,.2,.2,.2c.1,0,.3,.1,.5,.1v.1h-2.1v-.1c.3,0,.5,-.1,.5,-.1c.1,0,.2,-.1,.2,-.2c0,0,0,-.2,0,-.6v-3c0,-.4,0,-.6,0,-.7c0,-.1,-.1,-.2,-.1,-.2q-.1,-.1,-.2,-.1c-.1,0,-.2,.1,-.4,.1Z" class="g6_112"/>
<path fill-rule="evenodd" d="M705.6,710.7l1.3,-.6h.2v4.7c0,.3,0,.5,0,.6c0,0,.1,.1,.2,.1c.1,.1,.2,.1,.5,.1v.1h-2.1v-.1c.3,0,.4,0,.5,-.1c.1,0,.1,-.1,.2,-.1c0,-.1,0,-.3,0,-.6v-3c0,-.4,0,-.7,0,-.8c-.1,-.1,-.1,-.2,-.1,-.2c-.1,0,-.2,-.1,-.2,-.1c-.1,0,-.3,.1,-.4,.2Z" class="g6_112"/>
<path d="M610.5,896.1h83.7v48.5H610.5V896.1Z" class="gk_112"/>
<path d="M628.5,879.9h83.7v48.5H628.5V879.9Z" class="gk_112"/>
<g clip-path="url(#c7_112)">
<path d="M610.3,708.2h84v48.3h-84V708.2Zm-6.5,91h83.9v48.4H603.8V799.2Zm6.7,97.1h84v48.3h-84V896.3Z" class="gh_112"/>
<path d="M712.7,739.8h-84V691.5m77.4,139.4H622.2V782.5m90.6,145.4H628.9V879.6" class="gi_112"/>
<path d="M628.7,691.5h84v48.3m-90.5,42.7h83.9v48.4m-77.2,48.7h83.9v48.3M610.4,707.9l18.5,-16.6M603.9,799l18.4,-16.6M610.6,896l18.5,-16.6M694.3,708.3l18.4,-16.7m-25,107.7l18.5,-16.6M694.5,896.4l18.4,-16.7" class="gh_112"/>
<path d="M610.4,756.4l18.4,-16.7m-25,107.8l18.4,-16.7M610.6,944.5L629,927.8" class="gi_112"/>
<path d="M694.2,756.7L712.6,740M687.7,847.8l18.4,-16.7M694.4,944.8l18.4,-16.7" class="gh_112"/>
</g>
<path fill-rule="evenodd" d="M662.2,870.1l1.9,-.9h.2v6.6c0,.4,0,.7,.1,.8c0,.1,.1,.2,.2,.2c.1,.1,.4,.1,.7,.1v.2h-3v-.2c.4,0,.7,0,.8,-.1c.1,0,.2,-.1,.2,-.2c0,-.1,.1,-.4,.1,-.8v-4.3c0,-.5,-.1,-.9,-.1,-1c0,-.2,-.1,-.3,-.1,-.3c-.1,-.1,-.2,-.1,-.3,-.1c-.2,0,-.4,.1,-.6,.2Z" class="g6_112"/>
<path fill-rule="evenodd" d="M672.2,875.6l-.5,1.5H667v-.2c1.4,-1.2,2.4,-2.2,2.9,-3c.6,-.8,.9,-1.5,.9,-2.2c0,-.4,-.2,-.9,-.5,-1.2c-.3,-.3,-.7,-.4,-1.1,-.4c-.4,0,-.7,.1,-1,.3c-.4,.2,-.6,.5,-.7,1h-.2c.1,-.7,.3,-1.3,.7,-1.7c.4,-.3,.9,-.5,1.5,-.5c.7,0,1.2,.2,1.6,.6c.4,.4,.7,.9,.7,1.4c0,.4,-.1,.8,-.3,1.2c-.3,.6,-.8,1.3,-1.4,2c-1,1,-1.6,1.6,-1.8,1.9h2c.5,0,.7,-.1,.9,-.1c.2,0,.3,-.1,.5,-.2c.1,-.1,.2,-.2,.3,-.4Z" class="g6_112"/>
<path fill-rule="evenodd" d="M601.9,912.7h4.3v.2l-2.7,7.8h-.6l2.3,-7.1h-2.1c-.5,0,-.8,.1,-1,.2c-.3,.2,-.6,.4,-.8,.8l-.1,-.1Z" class="g6_112"/>
<path fill-rule="evenodd" d="M717.1,902.9h4.3v.2l-2.7,7.8h-.6l2.3,-7.1h-2.1c-.5,0,-.8,.1,-1,.2c-.3,.2,-.6,.4,-.8,.8l-.1,-.1Z" class="g6_112"/>
<path fill-rule="evenodd" d="M647.2,949.5l1.9,-.9h.2v6.6c0,.4,.1,.7,.1,.8c0,.1,.1,.2,.2,.2c.1,.1,.4,.1,.7,.1v.3h-2.9v-.3c.3,0,.6,0,.7,-.1c.1,0,.2,-.1,.2,-.2c.1,-.1,.1,-.3,.1,-.8V951c0,-.6,0,-1,-.1,-1.1c0,-.1,-.1,-.2,-.1,-.3c-.1,0,-.2,-.1,-.3,-.1c-.1,0,-.3,.1,-.6,.2Z" class="g6_112"/>
<path fill-rule="evenodd" d="M657.3,955.1l-.6,1.5H652v-.3c1.4,-1.2,2.4,-2.2,2.9,-3c.6,-.8,.9,-1.5,.9,-2.1c0,-.5,-.2,-.9,-.5,-1.2c-.3,-.4,-.7,-.5,-1.1,-.5c-.4,0,-.7,.1,-1,.3c-.3,.2,-.6,.6,-.7,1h-.2c.1,-.7,.3,-1.2,.7,-1.6c.4,-.4,.9,-.6,1.5,-.6c.7,0,1.2,.2,1.6,.6c.5,.4,.7,.9,.7,1.4c0,.4,-.1,.8,-.3,1.2c-.3,.7,-.8,1.3,-1.4,2c-1,1,-1.6,1.7,-1.8,1.9h2c.5,0,.8,0,.9,-.1c.2,0,.4,0,.5,-.1c.1,-.1,.2,-.3,.3,-.4Z" class="g6_112"/>
<path fill-rule="evenodd" d="M606.7,946.5l-.6,6.5c0,.3,0,.5,0,.6c0,.1,0,.2,0,.3c.1,.1,.2,.2,.3,.3c.2,0,.4,0,.7,0l-.1,.3h-3.1l.1,-.3h.1c.3,0,.5,0,.6,-.1c.1,-.1,.2,-.2,.3,-.4c0,-.1,.1,-.4,.1,-.8l.1,-1h-2.3l-.8,1.1c-.1,.2,-.3,.4,-.3,.5c-.1,.1,-.1,.2,-.1,.3c0,.1,.1,.2,.2,.3c.1,.1,.2,.1,.5,.1l-.1,.3H600v-.3c.3,0,.6,-.1,.8,-.2c.2,-.2,.5,-.6,1,-1.2l4.7,-6.3Zm-1.2,1.9l-2.2,3.1h1.9Z" class="g6_112"/>
<path fill-rule="evenodd" d="M602.9,890.3l-.6,6.5c0,.3,-.1,.5,-.1,.6c0,.2,.1,.3,.1,.4c.1,.1,.2,.1,.3,.2c.2,.1,.4,.1,.7,.1l-.1,.2h-3.1l.1,-.2h.1c.2,0,.5,-.1,.6,-.2c.1,-.1,.2,-.2,.3,-.3c0,-.2,.1,-.4,.1,-.9l.1,-1h-2.3l-.8,1.1c-.2,.2,-.3,.4,-.3,.5c-.1,.1,-.1,.2,-.1,.3c0,.1,.1,.3,.2,.3c.1,.1,.2,.2,.5,.2l-.1,.2h-2.3v-.2c.3,0,.6,-.1,.8,-.3c.2,-.2,.5,-.6,1,-1.1l4.7,-6.4Zm-1.2,1.9l-2.2,3.1h1.9Z" class="g6_112"/>
<path fill-rule="evenodd" d="M618.9,869.4v-.3h2.6c1,0,1.8,.2,2.3,.4c.5,.2,1,.6,1.3,1.1c.3,.6,.4,1.1,.4,1.7c0,.5,-.1,1,-.2,1.5c-.2,.5,-.4,.9,-.6,1.2c-.3,.2,-.6,.6,-1.1,.9c-.4,.4,-.9,.6,-1.5,.8c-.5,.2,-1.2,.2,-2,.2h-3.3v-.2c.3,0,.6,0,.7,-.1c.1,0,.2,-.1,.3,-.2c.1,-.2,.2,-.5,.4,-1l1.4,-4.7c.1,-.4,.1,-.7,.1,-.9c0,-.1,0,-.2,-.1,-.3c-.1,-.1,-.3,-.1,-.6,-.1Zm2,.2l-1.7,5.8c-.1,.4,-.2,.7,-.2,.8c0,.1,.1,.1,.1,.2c0,.1,.1,.1,.2,.1c.1,0,.2,.1,.4,.1c.7,0,1.2,-.1,1.7,-.2c.6,-.2,1,-.3,1.3,-.6c.5,-.3,.9,-.8,1.2,-1.5c.3,-.6,.4,-1.3,.4,-2.1c0,-.9,-.2,-1.6,-.7,-2c-.4,-.4,-1,-.7,-1.9,-.7c-.2,0,-.4,.1,-.8,.1Z" class="g6_112"/>
<path fill-rule="evenodd" d="M723,873.6l-.6,2.6h-.2v-.7c-.1,-.2,-.1,-.4,-.2,-.6c-.1,-.2,-.2,-.3,-.3,-.5c-.1,-.1,-.3,-.2,-.5,-.3c-.2,0,-.5,-.1,-.7,-.1c-.7,0,-1.3,.2,-1.9,.6c-.6,.5,-1.1,1.1,-1.5,2c-.3,.7,-.5,1.5,-.5,2.2c0,.7,.2,1.4,.7,1.8c.4,.5,1,.7,1.7,.7c.6,0,1,-.1,1.5,-.4c.4,-.2,.8,-.6,1.1,-1.1h.3c-.4,.7,-.9,1.2,-1.4,1.5c-.5,.3,-1.2,.5,-1.9,.5c-.6,0,-1.2,-.2,-1.7,-.4c-.5,-.3,-.9,-.7,-1.1,-1.1c-.3,-.5,-.4,-1,-.4,-1.6c0,-.9,.2,-1.7,.7,-2.5c.4,-.8,1.1,-1.4,1.9,-1.9c.8,-.4,1.6,-.7,2.4,-.7c.4,0,.8,.1,1.3,.3c.2,.1,.4,.1,.5,.1q.1,0,.2,0c.1,-.1,.2,-.2,.4,-.4Z" class="g6_112"/>
<path fill-rule="evenodd" d="M698.6,896.8l.1,-.3h2.8c.5,0,.9,.1,1.3,.3c.3,.1,.6,.3,.8,.6c.2,.2,.3,.5,.3,.8c0,.5,-.2,.9,-.5,1.2c-.4,.4,-.9,.6,-1.6,.8c.4,.2,.8,.4,1,.7c.2,.3,.4,.6,.4,1c0,.4,-.1,.7,-.3,1.1c-.2,.3,-.5,.6,-.8,.8c-.3,.2,-.7,.3,-1.2,.4c-.3,.1,-.8,.1,-1.5,.1h-2.9l.1,-.2c.3,0,.5,0,.6,-.1c.2,0,.3,-.1,.4,-.2c.1,-.2,.2,-.5,.3,-1l1.5,-4.7c.1,-.4,.1,-.7,.1,-.9c0,-.1,0,-.2,-.1,-.3c-.1,-.1,-.3,-.1,-.6,-.1c-.1,0,-.2,0,-.2,0m1.2,3.2c.2,0,.4,0,.5,0c.8,0,1.4,-.2,1.8,-.5c.4,-.4,.6,-.8,.6,-1.3c0,-.4,-.1,-.7,-.4,-.9c-.2,-.3,-.6,-.4,-1.1,-.4c-.1,0,-.3,.1,-.5,.1Zm-1.2,3.8c.4,.1,.8,.1,1,.1c.6,0,1.1,-.2,1.6,-.5c.5,-.4,.7,-.9,.7,-1.5c0,-.5,-.1,-.8,-.4,-1.1c-.3,-.3,-.8,-.4,-1.4,-.4c-.1,0,-.3,0,-.5,0Z" class="g6_112"/>
<path fill-rule="evenodd" d="M699.1,946.9v-.3H702c.4,0,.9,.1,1.2,.3c.4,.1,.7,.3,.9,.6c.1,.2,.2,.5,.2,.8c0,.5,-.1,.9,-.5,1.2c-.3,.4,-.8,.6,-1.6,.8c.5,.2,.9,.4,1.1,.7c.2,.3,.3,.6,.3,1c0,.4,-.1,.7,-.3,1.1c-.2,.3,-.4,.6,-.8,.8c-.3,.2,-.6,.4,-1.1,.4c-.3,.1,-.8,.1,-1.5,.1H697l.1,-.2c.3,0,.5,0,.6,-.1c.2,0,.3,-.1,.3,-.2c.1,-.2,.3,-.5,.4,-1l1.4,-4.7c.2,-.4,.2,-.7,.2,-.9c0,-.1,0,-.2,-.1,-.3c-.2,-.1,-.4,-.1,-.7,-.1c0,0,-.1,0,-.1,0m1.1,3.2c.3,0,.5,0,.6,0c.8,0,1.4,-.2,1.8,-.5c.4,-.4,.6,-.8,.6,-1.3c0,-.4,-.1,-.7,-.4,-.9c-.2,-.3,-.6,-.4,-1.1,-.4c-.2,0,-.4,.1,-.6,.1Zm-1.1,3.8c.4,.1,.7,.1,1,.1c.6,0,1.1,-.2,1.6,-.5c.5,-.4,.7,-.9,.7,-1.5c0,-.5,-.2,-.8,-.4,-1.1c-.3,-.3,-.8,-.4,-1.4,-.4c-.2,0,-.3,0,-.5,0Z" class="g6_112"/>
<path fill-rule="evenodd" d="M722.7,924l-.6,2.5h-.2v-.6c0,-.2,-.1,-.4,-.2,-.6c0,-.2,-.1,-.4,-.3,-.5c-.1,-.1,-.3,-.2,-.5,-.3c-.2,-.1,-.5,-.1,-.7,-.1c-.7,0,-1.3,.2,-1.8,.6c-.7,.4,-1.2,1.1,-1.6,2c-.3,.7,-.5,1.4,-.5,2.2c0,.7,.3,1.3,.7,1.8c.5,.4,1,.7,1.7,.7c.6,0,1.1,-.2,1.5,-.4c.4,-.2,.8,-.6,1.2,-1.1h.2c-.4,.7,-.9,1.2,-1.4,1.5c-.5,.3,-1.1,.5,-1.9,.5c-.6,0,-1.2,-.2,-1.7,-.4c-.5,-.3,-.8,-.7,-1.1,-1.2c-.3,-.5,-.4,-1,-.4,-1.5c0,-.9,.2,-1.7,.7,-2.5c.5,-.8,1.1,-1.4,1.9,-1.9c.8,-.5,1.6,-.7,2.4,-.7c.4,0,.9,.1,1.3,.3c.2,.1,.4,.1,.5,.1c.1,0,.2,0,.2,-.1c.1,0,.2,-.1,.4,-.3Z" class="g6_112"/>
<path fill-rule="evenodd" d="M619.8,921.1l.1,-.2h2.5c1.1,0,1.9,.1,2.4,.4c.5,.2,.9,.6,1.2,1.1c.3,.5,.5,1.1,.5,1.7c0,.5,-.1,1,-.3,1.5c-.2,.4,-.4,.8,-.6,1.1c-.2,.3,-.6,.6,-1,1c-.5,.3,-1,.6,-1.5,.7c-.6,.2,-1.3,.3,-2.1,.3h-3.3l.1,-.2c.3,0,.5,-.1,.6,-.1c.1,-.1,.3,-.2,.3,-.3c.1,-.1,.3,-.5,.4,-.9l1.4,-4.8c.1,-.3,.2,-.6,.2,-.8c0,-.2,-.1,-.3,-.2,-.4c-.1,-.1,-.3,-.1,-.6,-.1Zm2.1,.2l-1.7,5.9c-.2,.4,-.2,.7,-.2,.8c0,0,0,.1,0,.1q.1,.1,.2,.2c.1,0,.3,0,.5,0c.6,0,1.2,0,1.7,-.2c.5,-.1,.9,-.3,1.3,-.5c.4,-.4,.8,-.9,1.1,-1.5c.3,-.6,.4,-1.3,.4,-2.1c0,-.9,-.2,-1.6,-.6,-2c-.5,-.5,-1.1,-.7,-1.9,-.7c-.2,0,-.5,0,-.8,0Z" class="g6_112"/>
<path fill-rule="evenodd" d="M605.4,895.3l1.4,-.7h.1v4.7c0,.3,0,.4,0,.5c.1,.1,.1,.2,.2,.2c.1,0,.2,.1,.5,.1v.1h-2.1v-.1c.3,0,.4,-.1,.5,-.1c.1,0,.2,-.1,.2,-.2c0,0,0,-.2,0,-.5v-3c0,-.4,0,-.6,0,-.8c0,0,-.1,-.1,-.1,-.1q-.1,-.1,-.2,-.1c-.1,0,-.2,0,-.4,.1Z" class="g6_112"/>
<path fill-rule="evenodd" d="M627.2,873.9l1.3,-.6h.2v4.6c0,.3,0,.5,0,.6c0,0,.1,.1,.2,.1c0,.1,.2,.1,.5,.1v.1h-2.1v-.1c.2,0,.4,0,.5,-.1c.1,0,.1,-.1,.1,-.1c.1,-.1,.1,-.3,.1,-.6v-3c0,-.4,0,-.6,0,-.7c-.1,-.1,-.1,-.2,-.2,-.2c0,0,-.1,-.1,-.1,-.1c-.1,0,-.3,.1,-.5,.2Z" class="g6_112"/>
<path fill-rule="evenodd" d="M725.2,877.8l1.3,-.7h.2v4.6c0,.3,0,.5,0,.6c0,.1,.1,.1,.2,.2c.1,0,.2,0,.5,0v.2h-2.1v-.2c.3,0,.4,0,.5,0q.1,-.1,.2,-.2c0,-.1,0,-.2,0,-.6v-2.9c0,-.4,0,-.7,0,-.8q-.1,-.1,-.1,-.2q-.1,0,-.2,0c-.1,0,-.3,0,-.4,.1Z" class="g6_112"/>
<path fill-rule="evenodd" d="M705.8,901.9l1.3,-.7h.1v4.6c0,.3,.1,.5,.1,.6c0,.1,.1,.1,.1,.2c.1,0,.3,.1,.5,.1v.1h-2v-.1c.2,0,.4,-.1,.5,-.1c0,0,.1,-.1,.1,-.2c.1,0,.1,-.2,.1,-.6v-2.9c0,-.4,0,-.7,-.1,-.8q0,-.1,-.1,-.2c0,0,-.1,0,-.2,0c-.1,0,-.2,0,-.4,.1Z" class="g6_112"/>
<path d="M184.1,1058.6H291.5m-107.4,-63H291.5" class="gl_112"/>
<path d="M184.6,995.5v63m106.7,-63v63.3" class="gm_112"/>
<path d="M291.4,1058.6l23.8,-21.5M291.5,995.7l23.8,-21.4" class="gn_112"/>
<path d="M315.1,973.9v63.7" class="gm_112"/>
<path d="M185.1,1058.5l23.8,-21.4" class="go_112"/>
<path d="M184.5,995.6l23.8,-21.5" class="gn_112"/>
<path d="M208.4,974.1v63" class="gp_112"/>
<path d="M208.2,1037.4h107" class="gq_112"/>
<path d="M208.2,974.5H315.6" class="gl_112"/>
</svg>
