<?xml version="1.0" encoding="UTF-8" standalone="no"?>
<!DOCTYPE svg PUBLIC "-//W3C//DTD SVG 1.1//EN"
"http://www.w3.org/Graphics/SVG/1.1/DTD/svg11.dtd">
<svg viewBox="0 0 909 1147" version="1.1" xmlns="http://www.w3.org/2000/svg" xmlns:xlink="http://www.w3.org/1999/xlink">
<defs>
<clipPath id="c0_106"><path d="M323.7,233.8l-59.2,-8.3l11.6,-83.2l59.2,8.2l-11.6,83.3Z"/></clipPath>
<clipPath id="c1_106"><path d="M185.1,245.7V177.8h78.7v67.9Z"/></clipPath>
<clipPath id="c2_106"><path d="M666.8,763.7V660H789.1V763.7Z"/></clipPath>
<style type="text/css"><![CDATA[
.g0_106{
fill: #E7A9A1;
}
.g1_106{
fill: #FFF1E0;
}
.g2_106{
fill: #0EA5DF;
}
.g3_106{
fill: #F15844;
}
.g4_106{
fill: #FFF;
}
.g5_106{
fill: #7F1416;
}
.g6_106{
fill: #EE362B;
}
.g7_106{
fill: #ED1D24;
}
.g8_106{
fill: #EF4435;
}
.g9_106{
fill: none;
stroke: #818181;
stroke-width: 0.195;
}
.ga_106{
fill: #000;
}
.gb_106{
fill: none;
stroke: #000;
stroke-width: 0.152;
stroke-miterlimit: 10;
}
.gc_106{
fill: #FFF200;
}
.gd_106{
fill: #00A651;
stroke: #000;
stroke-width: 0.152;
stroke-miterlimit: 10;
}
.ge_106{
fill: #00AEEF;
stroke: #000;
stroke-width: 0.152;
stroke-miterlimit: 10;
}
.gf_106{
fill: #FFF;
stroke: #000;
stroke-width: 0.152;
stroke-miterlimit: 10;
}
.gg_106{
fill: #FFF200;
stroke: #000;
stroke-width: 0.152;
stroke-miterlimit: 10;
}
.gh_106{
fill: #00AEEF;
}
.gi_106{
fill: #F7941E;
stroke: #000;
stroke-width: 0.152;
stroke-miterlimit: 10;
}
.gj_106{
fill: #00A651;
}
.gk_106{
fill: #F15A29;
}
.gl_106{
fill: #F7941E;
}
.gm_106{
fill: #70AEDF;
}
.gn_106{
fill: #1683C6;
}
.go_106{
fill: #0F94D3;
}
.gp_106{
fill: #55A4DA;
}
.gq_106{
fill: #FEC514;
}
.gr_106{
fill: #F79421;
}
.gs_106{
fill: #FBAC18;
}
.gt_106{
fill: #8CCA85;
}
.gu_106{
fill: #3DB54A;
}
.gv_106{
fill: #4BB74E;
}
.gw_106{
fill: #79C473;
}
.gx_106{
fill: #F15C25;
}
.gy_106{
fill: #DC5526;
}
.gz_106{
fill: #E35526;
}
.g10_106{
fill: none;
stroke: #000;
stroke-width: 1.564;
stroke-miterlimit: 2;
}
.g11_106{
fill: #FFE6CA;
}
.g12_106{
fill: none;
stroke: #000;
stroke-width: 1.095;
stroke-miterlimit: 2;
stroke-dasharray: 3,3;
}
.g13_106{
fill: none;
stroke: #000;
stroke-width: 0.782;
stroke-miterlimit: 2;
}
.g14_106{
fill: none;
stroke: #000;
stroke-width: 1.095;
stroke-miterlimit: 2;
stroke-dasharray: 6,4;
}
.g15_106{
fill: none;
stroke: #000;
stroke-width: 1.535;
stroke-miterlimit: 2;
}
.g16_106{
fill: none;
stroke: #000;
stroke-width: 1.074;
stroke-miterlimit: 2;
}
.g17_106{
fill: none;
stroke: #000;
stroke-width: 1.074;
stroke-miterlimit: 2;
stroke-dasharray: 2,2;
}
.g18_106{
fill: none;
stroke: #000;
stroke-width: 1.074;
stroke-miterlimit: 2;
stroke-dasharray: 6,4;
}
.g19_106{
fill: none;
stroke: #000;
stroke-width: 0.766;
stroke-miterlimit: 2;
}
.g1a_106{
fill: none;
stroke: #000;
stroke-width: 1.546;
stroke-miterlimit: 2;
}
.g1b_106{
fill: none;
stroke: #000;
stroke-width: 1.081;
stroke-miterlimit: 2;
stroke-dasharray: 2,2;
}
.g1c_106{
fill: #0C4B7F;
}
.g1d_106{
fill: #E8ADA5;
}
.g1e_106{
fill: #FFFAC2;
}
.g1f_106{
fill: none;
stroke: #000;
stroke-width: 1.069;
stroke-miterlimit: 2;
}
.g1g_106{
fill: none;
stroke: #000;
stroke-width: 1.069;
stroke-miterlimit: 2;
stroke-dasharray: 6,4;
}
]]></style>
</defs>
<path d="M0,1131H72.3v-51.5H0V1131Z" class="g0_106"/>
<path d="M184.8,646.3h651V577.5h-651v68.8Z" class="g1_106"/>
<path d="M135.8,615h39.7V577.5H135.8V615Z" class="g2_106"/>
<g clip-path="url(#c0_106)">
<path d="M273.8,203.8c.2,2.6,-.4,6.4,-1.3,8.6c.9,-2.2,3.7,-4,6.2,-4.1c-2.5,.1,-4.7,-1.9,-4.9,-4.5Z" class="g3_106"/>
<path d="M272.5,212.4c-.5,1.1,-1,1.6,-1.3,1.4c.6,1,1.6,1.8,2.7,2.2c-1.5,-.6,-2.1,-2,-1.4,-3.6Z" class="g3_106"/>
<path d="M292.4,208.1V208c-.2,0,-.5,0,-.7,0c.2,0,.5,.1,.7,.1Z" class="g4_106"/>
<path d="M292.4,208v.1c2.1,.3,3.1,1.8,2.3,3.8c.9,-2.2,1.4,-6,1.3,-8.6c.1,2.3,-1.4,4.3,-3.6,4.7Z" class="g3_106"/>
<path d="M293.9,213.2c.2,-.3,.5,-.7,.8,-1.3c-.2,.4,-.5,.8,-.8,1.3Z" class="g4_106"/>
<path d="M275.5,216.2c-.6,0,-1.1,-.1,-1.6,-.2c.5,.1,1,.2,1.6,.2Z" class="g4_106"/>
<path d="M272.5,212.4c-.7,1.6,-.1,3,1.4,3.6c.5,.1,1,.2,1.6,.2l12.9,-.3c.1,0,.2,0,.3,0c1.9,-.1,4,-1.3,5.2,-2.7c.3,-.5,.6,-.9,.8,-1.3c.8,-2,-.2,-3.5,-2.3,-3.8c-.2,0,-.5,-.1,-.7,-.1l-13,.3c-2.5,.1,-5.3,1.9,-6.2,4.1Z" class="g5_106"/>
<path d="M271.7,189.9c-.3,.2,-.6,.7,-.8,1.3c.2,-.4,.4,-.9,.8,-1.3Z" class="g4_106"/>
<path d="M271.7,189.9c.5,-.5,1,.2,1.2,2c-.2,-2.6,1.7,-4.7,4.2,-4.7c-2,0,-4.2,1.2,-5.4,2.7Z" class="g6_106"/>
<path d="M290.1,186.9c.5,0,1,.1,1.5,.2c-.4,-.1,-.9,-.2,-1.5,-.2Z" class="g4_106"/>
<path d="M272.8,192l.3,3.1v.1l.7,8.7c.2,2.5,2.5,4.5,5,4.5l13,-.4c.2,0,.5,0,.7,-.1c2.2,-.4,3.7,-2.4,3.5,-4.6l-1,-12c-.1,-.7,-.3,-1.4,-.7,-2.1c-.6,-1,-1.6,-1.8,-2.8,-2.1c-.5,-.2,-1,-.3,-1.5,-.3l-12.9,.4c-2.6,.1,-4.5,2.2,-4.3,4.8Z" class="g7_106"/>
<path d="M271.7,189.9c-.4,.4,-.6,.9,-.8,1.3c-.9,2.2,-1.5,6,-1.3,8.5l.9,12c.1,.7,.3,1.4,.7,2.1c.3,.2,.8,-.3,1.3,-1.4c.9,-2.2,1.5,-6,1.3,-8.6l-.7,-8.7V195l-.2,-3.1c-.2,-1.8,-.7,-2.5,-1.2,-2Z" class="g8_106"/>
</g>
<image x="270" y="199" width="3" height="6" xlink:href="shade/1.png"/>
<path clip-path="url(#c0_106)" d="M272.5,201.1c.1,1.2,-.2,2.4,-.7,2.9c-.5,.4,-1,-.2,-1.1,-1.4c-.1,-1.1,.2,-2.4,.7,-2.8c.5,-.4,1,.2,1.1,1.3Z" class="g9_106"/>
<image x="284" y="212" width="7" height="4" xlink:href="shade/2.png"/>
<path clip-path="url(#c0_106)" d="M286.5,212.7c1.3,-.4,2.8,-.1,3.4,.7c.5,.7,-.2,1.6,-1.5,1.9c-1.3,.4,-2.9,0,-3.4,-.7c-.5,-.7,.1,-1.6,1.5,-1.9Z" class="g9_106"/>
<image x="276" y="212" width="6" height="4" xlink:href="shade/3.png"/>
<path clip-path="url(#c0_106)" d="M278.4,212.6c1.3,-.3,2.8,0,3.3,.7c.6,.8,-.1,1.7,-1.4,2c-1.4,.3,-2.9,0,-3.4,-.7c-.5,-.8,.1,-1.6,1.5,-2Z" class="g9_106"/>
<image x="286" y="208" width="6" height="4" xlink:href="shade/4.png"/>
<path clip-path="url(#c0_106)" d="M287.8,209c1.3,-.4,2.8,-.1,3.4,.7c.5,.7,-.2,1.6,-1.5,1.9c-1.4,.4,-2.9,.1,-3.4,-.7c-.5,-.7,.1,-1.6,1.5,-1.9Z" class="g9_106"/>
<image x="277" y="209" width="6" height="4" xlink:href="shade/5.png"/>
<path clip-path="url(#c0_106)" d="M279,209.3c1.4,-.4,2.9,-.1,3.4,.7c.5,.7,-.1,1.6,-1.4,1.9c-1.4,.4,-2.9,0,-3.4,-.7c-.5,-.7,.1,-1.6,1.4,-1.9Z" class="g9_106"/>
<image x="277" y="200" width="7" height="5" xlink:href="shade/6.png"/>
<path clip-path="url(#c0_106)" d="M280.4,200.3c1.4,0,2.7,1,2.7,2.1c.1,1.2,-1,2.1,-2.4,2.1c-1.5,0,-2.7,-1,-2.8,-2.2c-.1,-1.1,1,-2.1,2.5,-2Z" class="g9_106"/>
<image x="281" y="194" width="6" height="5" xlink:href="shade/7.png"/>
<path clip-path="url(#c0_106)" d="M284.2,194.5c1.4,0,2.6,1,2.7,2.1c.1,1.2,-1,2.1,-2.4,2.1c-1.5,0,-2.7,-1,-2.8,-2.2c-.1,-1.1,1,-2,2.5,-2Z" class="g9_106"/>
<image x="276" y="189" width="6" height="5" xlink:href="shade/8.png"/>
<path clip-path="url(#c0_106)" d="M279.2,189.2c1.5,.1,2.7,1,2.8,2.2c.1,1.2,-1,2.1,-2.5,2.1c-1.4,-.1,-2.6,-1,-2.7,-2.2c-.1,-1.2,1,-2.1,2.4,-2.1Z" class="g9_106"/>
<image x="286" y="199" width="6" height="6" xlink:href="shade/9.png"/>
<path clip-path="url(#c0_106)" d="M289.1,199.9c1.5,0,2.7,1,2.8,2.2c.1,1.1,-1,2.1,-2.5,2c-1.4,0,-2.6,-1,-2.7,-2.1c-.1,-1.2,1,-2.1,2.4,-2.1Z" class="g9_106"/>
<image x="285" y="189" width="7" height="5" xlink:href="shade/10.png"/>
<g clip-path="url(#c0_106)">
<path d="M288.4,189.2c1.4,.1,2.7,1,2.7,2.2c.1,1.2,-1,2.1,-2.4,2.1c-1.5,-.1,-2.7,-1,-2.8,-2.2c-.1,-1.2,1,-2.1,2.5,-2.1Z" class="g9_106"/>
<path d="M305.6,172.6c-1.6,2,-4.8,4.4,-7,5.3c2.2,-.9,5.5,-.2,7.4,1.5c-1.9,-1.7,-2,-4.8,-.4,-6.8Z" class="g3_106"/>
<path d="M298.6,177.9c-1.1,.5,-1.8,.5,-1.9,.1c-.3,1.2,-.1,2.5,.4,3.6c-.7,-1.5,-.1,-2.9,1.5,-3.7Z" class="g3_106"/>
<path d="M316.2,188.9v-.1c-.2,-.1,-.4,-.3,-.5,-.5c.1,.2,.3,.4,.5,.6Z" class="g4_106"/>
<path d="M316.2,188.8v.1c1.3,1.6,.9,3.5,-1.1,4.3c2.2,-.9,5.3,-3.3,7,-5.3c-1.5,1.8,-4,2.1,-5.9,.9Z" class="g3_106"/>
<path d="M313.6,193.6c.4,0,.9,-.1,1.5,-.4c-.4,.2,-.9,.3,-1.5,.4Z" class="g4_106"/>
<path d="M298.1,182.8c-.4,-.3,-.7,-.8,-1,-1.2c.2,.4,.6,.8,1,1.2Z" class="g4_106"/>
<path d="M298.6,177.9c-1.6,.8,-2.2,2.2,-1.5,3.7c.3,.4,.6,.9,1,1.2l9.6,8.9c.1,.1,.2,.2,.2,.2c1.5,1.3,3.8,1.9,5.7,1.7c.6,-.1,1.1,-.2,1.5,-.4c2,-.8,2.4,-2.7,1.1,-4.3c-.2,-.2,-.4,-.4,-.5,-.6L306,179.4c-1.9,-1.7,-5.2,-2.4,-7.4,-1.5Z" class="g5_106"/>
<path d="M313.9,161c-.4,0,-.9,.1,-1.5,.4c.4,-.2,.9,-.3,1.5,-.4Z" class="g4_106"/>
<path d="M313.9,161c.7,.1,.6,.9,-.5,2.3c1.6,-2,4.5,-2.2,6.4,-.4c-1.5,-1.4,-3.9,-2.1,-5.9,-1.9Z" class="g3_106"/>
<path d="M329.4,171.8c.4,.4,.7,.8,1,1.2c-.2,-.4,-.6,-.8,-1,-1.2Z" class="g4_106"/>
<path d="M313.4,163.3l-2.1,2.4v.1l-5.7,6.8c-1.7,2,-1.5,5.1,.4,6.8l9.7,8.9c.1,.2,.3,.4,.5,.5c1.9,1.2,4.4,.9,5.9,-.9l7.7,-9.3c.5,-.6,.9,-1.3,1,-2c.3,-1.2,.2,-2.5,-.4,-3.6c-.3,-.4,-.6,-.8,-1,-1.2l-9.6,-8.9c-1.9,-1.8,-4.8,-1.6,-6.4,.4Z" class="g7_106"/>
<path d="M313.9,161c-.6,.1,-1.1,.2,-1.5,.4c-2.2,.9,-5.3,3.3,-7,5.3l-7.7,9.3c-.5,.6,-.8,1.3,-1,2c.1,.4,.8,.4,1.9,-.1c2.2,-.9,5.4,-3.3,7,-5.3l5.7,-6.8v-.1l2.1,-2.4c1.1,-1.4,1.2,-2.2,.5,-2.3Z" class="g8_106"/>
</g>
<image x="298" y="172" width="5" height="5" xlink:href="shade/11.png"/>
<path clip-path="url(#c0_106)" d="M301.9,174.7c-.7,.9,-1.9,1.6,-2.5,1.6c-.7,-.1,-.6,-.8,.1,-1.8c.7,-.9,1.9,-1.6,2.5,-1.5c.7,0,.6,.8,-.1,1.7Z" class="g9_106"/>
<image x="303" y="168" width="5" height="4" xlink:href="shade/12.png"/>
<path clip-path="url(#c0_106)" d="M306.6,169.7c-.7,1,-1.9,1.7,-2.5,1.6c-.7,0,-.6,-.8,.1,-1.7c.7,-.9,1.9,-1.6,2.5,-1.6c.7,.1,.6,.8,-.1,1.7Z" class="g9_106"/>
<image x="308" y="162" width="5" height="5" xlink:href="shade/13.png"/>
<path clip-path="url(#c0_106)" d="M311.5,164.6c-.7,.9,-1.8,1.6,-2.5,1.5c-.6,0,-.6,-.8,.2,-1.7c.7,-.9,1.8,-1.6,2.5,-1.6c.6,.1,.6,.9,-.2,1.8Z" class="g9_106"/>
<image x="300" y="180" width="6" height="6" xlink:href="shade/14.png"/>
<path clip-path="url(#c0_106)" d="M302.8,181.2c1.4,.7,2.4,2.2,2.2,3.2c-.1,1,-1.4,1.2,-2.7,.4c-1.4,-.8,-2.4,-2.2,-2.2,-3.2c.1,-1,1.3,-1.2,2.7,-.4Z" class="g9_106"/>
<image x="308" y="186" width="6" height="5" xlink:href="shade/15.png"/>
<path clip-path="url(#c0_106)" d="M311.5,186.8c1.4,.7,2.4,2.2,2.2,3.2c-.1,1,-1.4,1.2,-2.7,.4c-1.4,-.7,-2.4,-2.2,-2.2,-3.2c.1,-1,1.3,-1.2,2.7,-.4Z" class="g9_106"/>
<image x="312" y="169" width="6" height="6" xlink:href="shade/16.png"/>
<path clip-path="url(#c0_106)" d="M316.4,170c1,1,1.2,2.6,.5,3.5c-.8,.9,-2.2,.8,-3.3,-.2c-1,-1.1,-1.2,-2.6,-.5,-3.5c.8,-1,2.3,-.8,3.3,.2Z" class="g9_106"/>
<image x="309" y="173" width="5" height="6" xlink:href="shade/17.png"/>
<path clip-path="url(#c0_106)" d="M312.9,174.7c1,1,1.3,2.6,.5,3.5c-.8,.9,-2.2,.8,-3.3,-.2c-1,-1.1,-1.2,-2.6,-.4,-3.5c.7,-.9,2.2,-.8,3.2,.2Z" class="g9_106"/>
<image x="316" y="165" width="5" height="5" xlink:href="shade/18.png"/>
<path clip-path="url(#c0_106)" d="M319.9,165.9c1,1,1.2,2.6,.4,3.5c-.7,.9,-2.2,.8,-3.2,-.3c-1,-1,-1.2,-2.6,-.5,-3.5c.8,-.9,2.2,-.8,3.3,.3Z" class="g9_106"/>
<image x="315" y="179" width="6" height="6" xlink:href="shade/19.png"/>
<path clip-path="url(#c0_106)" d="M319.5,180.6c1.1,1,1.3,2.6,.5,3.5c-.7,.9,-2.2,.8,-3.2,-.2c-1.1,-1,-1.3,-2.6,-.5,-3.5c.7,-.9,2.2,-.8,3.2,.2Z" class="g9_106"/>
<image x="319" y="175" width="5" height="6" xlink:href="shade/20.png"/>
<path clip-path="url(#c0_106)" d="M323,176.4c1.1,1.1,1.3,2.7,.5,3.6c-.7,.9,-2.2,.8,-3.2,-.3c-1.1,-1,-1.3,-2.6,-.5,-3.5c.8,-.9,2.2,-.8,3.2,.2Z" class="g9_106"/>
<image x="322" y="171" width="6" height="6" xlink:href="shade/21.png"/>
<path clip-path="url(#c0_106)" d="M326.5,172.3c1,1.1,1.3,2.6,.5,3.5c-.8,.9,-2.2,.8,-3.2,-.2c-1.1,-1,-1.3,-2.6,-.5,-3.5c.7,-.9,2.2,-.8,3.2,.2Z" class="g9_106"/>
<path d="M340,184.8l-14,16.8l45.5,.3l13.2,-17.1l-44.3,-.5Z" class="ga_106"/>
<path d="M340,184.8l.4,-.5l44.3,.5l-13.2,17.1L326,201.6l14,-16.8Z" class="gb_106"/>
<path d="M371.9,200.6v46.8L385,230.5l-.2,-45.6Z" class="ga_106"/>
<path d="M371.9,200.6l12.9,-15.7l.2,45.6l-13.1,16.9V200.6Z" class="gb_106"/>
<path d="M325.9,247.4H372V201.6H325.9v45.8Z" class="ga_106"/>
<path d="M326.6,216.3h14V202.4h-14v13.9Z" class="gc_106"/>
<path d="M326.6,202.4h14v13.9h-14V202.4Z" class="gb_106"/>
<path d="M342,202.4h13.9v13.9H342V202.4Z" class="gd_106"/>
<path d="M357.3,202.4h13.9v13.9H357.3V202.4Z" class="ge_106"/>
<path d="M326.6,231.4h14v-14h-14v14Z" class="g7_106"/>
<path d="M326.6,217.4h14v14h-14v-14Z" class="gb_106"/>
<path d="M342,217.4h13.9v14H342v-14Z" class="gf_106"/>
<path d="M357.3,217.4h13.9v14H357.3v-14Z" class="gg_106"/>
<path d="M326.6,246.2h14V232.3h-14v13.9Z" class="gh_106"/>
<path d="M326.6,232.3h14v13.9h-14V232.3Z" class="gb_106"/>
<path d="M342,232.3h13.9v13.9H342V232.3Z" class="gi_106"/>
<path d="M357.3,232.3h13.9v13.9H357.3V232.3Z" class="gd_106"/>
<path d="M384.3,186.1l-3.5,4.5v14l3.5,-4.6Z" class="gc_106"/>
<path d="M384.3,186.1l-3.5,4.5v14l3.5,-4.6V186.1Z" class="gb_106"/>
<path d="M380.4,191.1l-4,5.3v13.9l4,-5.2Z" class="gj_106"/>
<path d="M380.4,191.1l-4,5.3v13.9l4,-5.2v-14Z" class="gb_106"/>
<path d="M376,196.9l-4,5.2v14l4,-5.3Z" class="gh_106"/>
<path d="M376,196.9l-4,5.2v14l4,-5.3V196.9Z" class="gb_106"/>
<path d="M380.4,206.4l-4,5.3v13.9l4,-5.2Z" class="gh_106"/>
<path d="M380.4,206.4l-4,5.3v13.9l4,-5.2v-14Z" class="gb_106"/>
<path d="M376,212.2l-4,5.2v14l4,-5.3Z" class="g7_106"/>
<path d="M376,212.2l-4,5.2v14l4,-5.3V212.2Z" class="gb_106"/>
<path d="M380.4,221.7l-4,5.3v14l4,-5.3Z" class="gj_106"/>
<path d="M380.4,221.7l-4,5.3v14l4,-5.3v-14Z" class="gb_106"/>
<path d="M372,232.7v14l4,-5.2v-14Z" class="gj_106"/>
<path d="M376,227.5l-4,5.2v14l4,-5.2v-14Z" class="gb_106"/>
<path d="M384.3,201.6l-3.5,4.5v14l3.5,-4.6Z" class="gk_106"/>
<path d="M384.3,201.6l-3.5,4.5v14l3.5,-4.6V201.6Z" class="gb_106"/>
<path d="M384.3,216.8l-3.5,4.5v14l3.5,-4.5Z" class="g4_106"/>
<path d="M384.3,216.8l-3.5,4.5v14l3.5,-4.5v-14Z" class="gb_106"/>
<path d="M336.2,190l13.8,.1l4.1,-5.1l-13.8,-.1Z" class="gc_106"/>
<path d="M340.3,184.9l13.8,.1l-4.1,5.1L336.2,190l4.1,-5.1Z" class="gb_106"/>
<path d="M351.3,190.1l13.8,.1l4.1,-5.1L355.4,185Z" class="gj_106"/>
<path d="M355.4,185l13.8,.1l-4.1,5.1l-13.8,-.1l4.1,-5.1Z" class="gb_106"/>
<path d="M370.5,185.1l13.8,.2l-4.1,5.1l-13.8,-.2Z" class="gl_106"/>
<path d="M370.5,185.1l13.8,.2l-4.1,5.1l-13.8,-.2l4.1,-5.1Z" class="gb_106"/>
<path d="M335.8,190.5l13.8,.1l-4.1,5.1l-13.8,-.1Z" class="gl_106"/>
<path d="M335.8,190.5l13.8,.1l-4.1,5.1l-13.8,-.1l4.1,-5.1Z" class="gb_106"/>
<path d="M350.9,190.6l13.8,.1l-4.1,5.1l-13.8,-.1Z" class="g7_106"/>
<path d="M350.9,190.6l13.8,.1l-4.1,5.1l-13.8,-.1l4.1,-5.1Z" class="gb_106"/>
<path d="M366,190.7l13.8,.2l-4.1,5.1l-13.8,-.2Z" class="gc_106"/>
<path d="M366,190.7l13.8,.2l-4.1,5.1l-13.8,-.2l4.1,-5.1Z" class="gb_106"/>
<path d="M331.3,196.1l13.8,.1l-4.1,5.1l-13.8,-.1Z" class="gh_106"/>
<path d="M331.3,196.1l13.8,.1l-4.1,5.1l-13.8,-.1l4.1,-5.1Z" class="gb_106"/>
<path d="M346.4,196.2l13.8,.1l-4.1,5.1l-13.8,-.1Z" class="g4_106"/>
<path d="M346.4,196.2l13.8,.1l-4.1,5.1l-13.8,-.1l4.1,-5.1Z" class="gb_106"/>
<path d="M361.8,196.3l13.7,.2l-4.1,5.1l-13.8,-.2Z" class="g7_106"/>
<path d="M361.8,196.3l13.7,.2l-4.1,5.1l-13.8,-.2l4.2,-5.1Z" class="gb_106"/>
<path clip-path="url(#c1_106)" d="M225.2,186.3l-13.1,-5.1c0,0,21.4,-3.4,21.6,-3.4c.2,0,.3,0,.4,0c.2,.1,13,5.1,13,5.1Z" class="gm_106"/>
<path d="M225.1,208.5c-4.4,-1.7,-8.7,-3.4,-13.1,-5.1c-.1,-.1,-.2,-.2,-.2,-.4l13.1,5.1c0,.2,.1,.3,.2,.4Z" class="gn_106"/>
<path d="M224.9,208.1L211.8,203V181.6l13.1,5.1Z" class="go_106"/>
<path d="M247.4,183.1l-.6,.1l-21.2,3.4c-.2,0,-.3,.2,-.3,.4l-.1,21v.3c0,.2,.1,.3,.3,.3l21.8,-3.4c.2,-.1,.3,-.2,.3,-.4l.1,-21.4c0,-.2,-.2,-.3,-.3,-.3Z" class="gp_106"/>
<image x="224" y="186" width="2" height="23" xlink:href="shade/22.png"/>
<image x="225" y="182" width="23" height="5" xlink:href="shade/23.png"/>
<image x="211" y="181" width="15" height="6" xlink:href="shade/24.png"/>
<path d="M199.5,201.8l-14,-5.9c0,0,22.8,-4,23,-4.1c.2,0,.3,.1,.5,.1c.1,.1,13.7,5.9,13.7,5.9Z" class="gq_106"/>
<path d="M199.3,227.7c-4.6,-2,-9.3,-4,-13.9,-6c-.2,0,-.3,-.2,-.3,-.3l14,5.9c0,.2,.1,.4,.2,.4Z" class="gr_106"/>
<path d="M199.1,227.3l-14,-5.9l.1,-25.1l13.9,6Z" class="gs_106"/>
<path d="M223.1,198.1l-.6,.1l-22.7,3.9c-.2,.1,-.3,.3,-.3,.5v25c0,.2,.1,.3,.3,.3l23.2,-4c.2,-.1,.3,-.3,.3,-.5l.1,-25c0,-.2,-.2,-.3,-.3,-.3Z" class="gq_106"/>
<image x="198" y="201" width="2" height="27" xlink:href="shade/25.png"/>
<image x="199" y="197" width="25" height="6" xlink:href="shade/26.png"/>
<image x="185" y="195" width="15" height="8" xlink:href="shade/27.png"/>
<path d="M240.4,206.2l-13.6,-5.6c0,0,22.3,-3.7,22.5,-3.8c.2,0,.3,0,.4,.1c.2,0,13.4,5.5,13.4,5.5Z" class="gt_106"/>
<path d="M240.3,230.5c-4.5,-1.9,-9.1,-3.7,-13.6,-5.6c-.2,-.1,-.3,-.2,-.3,-.4l13.7,5.6c0,.2,.1,.4,.2,.4Z" class="gu_106"/>
<path d="M240.1,230.1l-13.7,-5.6l.1,-23.5l13.6,5.7Z" class="gv_106"/>
<path clip-path="url(#c1_106)" d="M263.5,202.7l-.6,.1l-22.1,3.7c-.2,0,-.3,.2,-.3,.4l-.1,23.1v.4c0,.2,.1,.3,.3,.3l22.7,-3.8c.2,-.1,.3,-.2,.3,-.4l.1,-23.5c0,-.2,-.2,-.4,-.3,-.3Z" class="gw_106"/>
<image x="239" y="206" width="2" height="25" xlink:href="shade/28.png"/>
<image x="240" y="202" width="24" height="5" xlink:href="shade/29.png"/>
<image x="226" y="200" width="15" height="7" xlink:href="shade/30.png"/>
<path d="M215.7,219.6l-13.9,-6c0,0,22.8,-3.9,23,-4c.2,0,.3,0,.4,.1c.2,0,13.8,5.9,13.8,5.9Z" class="gx_106"/>
<path d="M215.6,245.5c-4.7,-2,-9.3,-4,-14,-6c-.1,0,-.2,-.2,-.2,-.4l14,6c0,.2,.1,.3,.2,.4Z" class="gy_106"/>
<path d="M215.4,245.1l-14,-6l.1,-25l13.9,6Z" class="gz_106"/>
<path clip-path="url(#c1_106)" d="M239.3,215.9l-.5,.1l-22.7,3.9c-.2,.1,-.3,.2,-.3,.5l-.1,24.6v.4c0,.2,.1,.3,.3,.3l23.3,-4.1c.2,0,.3,-.2,.3,-.4l.1,-25c0,-.2,-.2,-.4,-.4,-.3Z" class="gx_106"/>
<image x="215" y="219" width="2" height="27" xlink:href="shade/31.png"/>
<image x="215" y="215" width="25" height="6" xlink:href="shade/32.png"/>
<image x="201" y="213" width="15" height="8" xlink:href="shade/33.png"/>
<path d="M211.2,860.8L233.9,840" class="g10_106"/>
<path d="M270.6,861.8v60l22.6,-20.6l-.1,-60.7Z" class="g11_106"/>
<path fill-rule="evenodd" d="M211.1,861.1h59.8v60.4H211.1V861.1Z" class="g11_106"/>
<path d="M293.5,900.6H233.7V840.2m-22.6,81.1l22.7,-20.8" class="g12_106"/>
<path d="M293.5,840.4H233.4V780.3h60.1v60.1Zm-22.3,80.8H211.1V861.1h60.1v60.1Zm-.3,-60l22.7,-20.8m-22.8,81.3l22.7,-20.8M233.7,840.2h59.8v60.4" class="g10_106"/>
<path d="M271.8,845.6c-1.5,-4.9,.3,-8.5,5.6,-10.9m4.8,12.3l-1.4,9.5m-2.3,-7.7l6.7,7m-42.6,.7l-1.3,9.5m-2.4,-7.7l6.8,7M223,844.9l-1.4,9.5m-2.3,-7.6l6.7,6.9" class="g13_106"/>
<path fill-rule="evenodd" d="M281,833l-4.5,-.2l1.7,3.8Z" class="ga_106"/>
<path d="M444.7,860.8L467.4,840" class="g10_106"/>
<path fill-rule="evenodd" d="M526.6,840.5l.1,60.7l-22.6,20.6v-60Z" class="g11_106"/>
<path d="M444.6,921.5h59.8V861.1H444.6v60.4Z" class="g11_106"/>
<path d="M527,900.6H467.2V840.2m-22.6,81.1l22.7,-20.8" class="g12_106"/>
<path d="M527,900.8v60.1m0,-120.5H466.9V780.3H527v60.1Zm-22.3,80.8H444.6V861.1h60.1v60.1Zm-.3,-60l22.7,-20.8m-22.8,81.3L527,900.9M467.2,840.2H527v60.4" class="g10_106"/>
<path d="M466.9,921.1V900.8" class="g14_106"/>
<path d="M527,960.9H466.9m0,0V921.1" class="g10_106"/>
<path d="M505.3,845.6c-1.5,-4.9,.3,-8.5,5.6,-10.9" class="g13_106"/>
<path fill-rule="evenodd" d="M514.5,833l-4.5,-.2l1.7,3.8Z" class="ga_106"/>
<path d="M510.5,910.3c-1.5,4.9,.3,8.5,5.6,10.9m1.4,-15.3l-1.4,9.5m-2.3,-7.6l6.7,6.9m-43.5,2l-1.4,9.5m-2.3,-7.6l6.7,6.9M456.4,906.3l-1.3,9.5m-2.4,-7.7l6.8,7" class="g13_106"/>
<path fill-rule="evenodd" d="M519.8,922.9l-2.9,-3.6l-1.7,3.8Z" class="ga_106"/>
<path fill-rule="evenodd" d="M752.5,839.2l-.1,59.6l22.1,12.1V852Z" class="g4_106"/>
<path d="M752.5,839.2l-.1,59.6l22.1,12.1V852l-22,-12.8Z" class="g15_106"/>
<path d="M664.5,909.2h58.7V849.9H664.5v59.3Z" class="g11_106"/>
<path d="M693.9,850.3V839" class="g16_106"/>
<path d="M724.3,898.3H693.9V848.7" class="g17_106"/>
<path d="M752.5,898.3H724.3" class="g16_106"/>
<path d="M665.4,908.7L694,898.2" class="g17_106"/>
<path d="M752.5,898.4v59m0,-118.2H693.6V780.3h58.9v58.9Zm-29,69.7h-59v-59h59v59ZM693.9,839h58.6m0,0v59.3M664.9,849.8l28.4,-10.3" class="g15_106"/>
<path d="M693.8,909.4v-20" class="g18_106"/>
<path d="M752.5,957.4H693.6m0,0V907.2" class="g15_106"/>
<path d="M745.3,884.3c3.4,3.6,7.4,3.7,12,.3" class="g19_106"/>
<path fill-rule="evenodd" d="M760.4,882.3l-4.4,.8l2.4,3.2Z" class="ga_106"/>
<path d="M737.8,886.2c-3.4,3.6,-7.4,3.7,-11.9,.4" class="g19_106"/>
<path fill-rule="evenodd" d="M722.7,884.2l2,4l2.4,-3.2Z" class="ga_106"/>
<path d="M721.7,866.2l4.7,8.2m-6.5,-4.5l9.4,1.3" class="g19_106"/>
<path clip-path="url(#c2_106)" fill-rule="evenodd" d="M677.5,752.2l-.8,9.4c-.1,.4,-.1,.7,-.1,.9c0,.2,0,.4,.1,.5c.1,.1,.3,.2,.5,.3c.1,.1,.4,.1,.9,.1l-.1,.3h-4.5l.1,-.3h.2c.4,0,.7,0,.9,-.2c.2,-.1,.3,-.3,.4,-.5c0,-.2,.1,-.6,.1,-1.2l.2,-1.5h-3.2l-1.2,1.6c-.2,.3,-.4,.6,-.5,.7c0,.2,-.1,.3,-.1,.5c0,.2,.1,.3,.2,.4c.2,.2,.4,.2,.8,.2l-.1,.3h-3.4l.1,-.3c.4,0,.8,-.1,1.1,-.4c.3,-.2,.8,-.8,1.4,-1.6l6.7,-9.2Zm-1.6,2.8l-3.3,4.4h2.8Z" class="ga_106"/>
<path fill-rule="evenodd" d="M676.4,687.2l-.8,9.4c-.1,.4,-.1,.7,-.1,.9c0,.2,0,.4,.1,.5c.1,.1,.3,.2,.5,.3c.1,.1,.4,.1,.9,.1l-.1,.3h-4.5l.1,-.3h.2c.4,0,.7,0,.9,-.2c.2,-.1,.3,-.3,.4,-.5c0,-.2,.1,-.6,.2,-1.2l.1,-1.5h-3.2l-1.2,1.6c-.2,.3,-.4,.6,-.5,.7c0,.2,-.1,.3,-.1,.5c0,.2,.1,.3,.2,.4c.2,.2,.4,.2,.8,.2l-.1,.3h-3.4l.1,-.3c.4,0,.8,-.1,1.1,-.4c.3,-.2,.8,-.8,1.4,-1.6l6.7,-9.2Zm-1.6,2.8l-3.3,4.4h2.9Z" class="ga_106"/>
<path fill-rule="evenodd" d="M680.1,696.8l1.8,-.9h.2V702c0,.4,0,.6,0,.7c0,.1,.1,.2,.2,.3c.1,0,.3,.1,.7,.1v.2h-2.7v-.2c.3,0,.5,-.1,.6,-.1c.1,-.1,.2,-.1,.2,-.2c.1,-.1,.1,-.4,.1,-.8v-3.9c0,-.5,0,-.8,-.1,-1c0,-.1,0,-.2,-.1,-.2q-.1,-.1,-.2,-.1c-.2,0,-.4,0,-.6,.2Z" class="ga_106"/>
<path fill-rule="evenodd" d="M688.8,660.3l.1,-.3h3.6c1.5,0,2.6,.2,3.4,.5c.7,.4,1.3,.9,1.7,1.7c.5,.7,.7,1.5,.7,2.4c0,.7,-.1,1.4,-.4,2.1c-.2,.7,-.5,1.3,-.8,1.7c-.4,.4,-.9,.9,-1.5,1.4c-.7,.5,-1.4,.9,-2.2,1.1c-.7,.2,-1.7,.4,-2.8,.4h-4.8l.1,-.3c.4,-.1,.7,-.1,.9,-.2c.2,-.1,.4,-.2,.5,-.3c.1,-.3,.3,-.7,.5,-1.4l2,-6.9c.2,-.5,.2,-.9,.2,-1.2c0,-.2,0,-.4,-.2,-.5c-.1,-.1,-.4,-.2,-.8,-.2Zm2.9,.3l-2.4,8.5c-.2,.6,-.3,1,-.3,1.1c0,.1,.1,.2,.1,.3c.1,.1,.2,.1,.2,.1c.2,.1,.4,.1,.7,.1c.9,0,1.7,-.1,2.5,-.2c.7,-.2,1.3,-.5,1.8,-.8c.7,-.6,1.2,-1.3,1.6,-2.2c.4,-.9,.6,-1.9,.6,-3.1c0,-1.3,-.3,-2.2,-.9,-2.9c-.6,-.6,-1.5,-.9,-2.7,-.9c-.3,0,-.7,0,-1.2,0Z" class="ga_106"/>
<path fill-rule="evenodd" d="M700.2,669.3l1.8,-.8h.1v6c0,.4,.1,.7,.1,.8c0,.1,.1,.1,.2,.2c.1,0,.3,.1,.6,.1v.2h-2.6v-.2c.3,0,.5,-.1,.6,-.1c.1,-.1,.2,-.1,.2,-.2c.1,-.1,.1,-.4,.1,-.8v-3.9c0,-.5,0,-.8,-.1,-1c0,-.1,-.1,-.2,-.1,-.2c-.1,-.1,-.2,-.1,-.3,-.1c-.1,0,-.3,.1,-.5,.2Z" class="ga_106"/>
<path fill-rule="evenodd" d="M785.4,666.9l-.9,3.6h-.3v-.9c0,-.3,-.1,-.6,-.2,-.9c-.1,-.2,-.2,-.4,-.4,-.6c-.2,-.2,-.5,-.4,-.8,-.5c-.3,-.1,-.6,-.1,-1,-.1c-1,0,-1.9,.2,-2.6,.8c-1,.7,-1.7,1.6,-2.2,2.9c-.5,1,-.7,2.1,-.7,3.2c0,1.1,.3,1.9,1,2.6c.6,.6,1.4,1,2.4,1c.8,0,1.5,-.2,2.1,-.6c.6,-.3,1.1,-.8,1.7,-1.5h.4c-.7,.9,-1.3,1.6,-2.1,2.1c-.7,.5,-1.6,.7,-2.6,.7c-1,0,-1.8,-.2,-2.5,-.6c-.7,-.4,-1.2,-.9,-1.6,-1.6c-.4,-.7,-.6,-1.5,-.6,-2.3c0,-1.2,.4,-2.4,1,-3.6c.7,-1.1,1.6,-2,2.7,-2.7c1.2,-.7,2.4,-1,3.5,-1c.6,0,1.2,.1,1.9,.4c.3,.1,.5,.2,.6,.2c.1,0,.3,-.1,.4,-.1c.1,-.1,.2,-.2,.5,-.5Z" class="ga_106"/>
<path clip-path="url(#c2_106)" fill-rule="evenodd" d="M786.2,676.5l1.8,-.9h.2v6.1c0,.4,0,.6,0,.7c0,.1,.1,.2,.2,.2c.1,.1,.3,.1,.7,.1v.2h-2.7v-.2c.3,0,.5,0,.6,-.1c.1,0,.2,-.1,.2,-.2c.1,0,.1,-.3,.1,-.7v-3.9c0,-.5,0,-.9,-.1,-1c0,-.1,0,-.2,-.1,-.3q-.1,0,-.2,0c-.2,0,-.4,0,-.6,.1Z" class="ga_106"/>
<path fill-rule="evenodd" d="M756.3,751.6l.2,-.4h4c.6,0,1.2,.2,1.8,.4c.5,.2,.9,.5,1.2,.8c.2,.4,.4,.8,.4,1.2c0,.7,-.3,1.3,-.7,1.8c-.5,.5,-1.3,.9,-2.3,1.2c.7,.2,1.2,.6,1.5,1c.3,.4,.5,.9,.5,1.4c0,.5,-.2,1.1,-.5,1.6c-.3,.5,-.6,.9,-1.1,1.2c-.4,.2,-1,.4,-1.6,.6c-.5,.1,-1.2,.1,-2.1,.1h-4.2l.1,-.3c.5,0,.8,0,.9,-.1c.2,-.1,.4,-.2,.5,-.4c.1,-.2,.3,-.7,.5,-1.4l2,-6.9c.2,-.5,.3,-.9,.3,-1.2c0,-.2,-.1,-.3,-.2,-.5c-.2,-.1,-.5,-.1,-.9,-.1c-.1,0,-.2,0,-.3,0m1.7,4.6c.4,0,.6,.1,.8,.1c1.2,0,2,-.3,2.6,-.8c.5,-.5,.8,-1.1,.8,-1.9c0,-.6,-.2,-1,-.5,-1.3c-.3,-.3,-.9,-.5,-1.6,-.5c-.2,0,-.5,0,-.8,.1Zm-1.6,5.6c.6,.1,1,.1,1.4,.1c.9,0,1.6,-.3,2.3,-.8c.7,-.5,1,-1.2,1,-2.1c0,-.7,-.2,-1.2,-.6,-1.6c-.4,-.4,-1.1,-.6,-2,-.6c-.2,0,-.4,0,-.7,.1Z" class="ga_106"/>
<path fill-rule="evenodd" d="M784.1,727.6l-.8,3.7H783l-.1,-.9c0,-.4,0,-.6,-.1,-.9c-.1,-.3,-.3,-.5,-.5,-.7c-.2,-.2,-.4,-.3,-.8,-.4c-.3,-.1,-.6,-.2,-1,-.2c-1,0,-1.8,.3,-2.6,.8c-.9,.7,-1.7,1.7,-2.2,3c-.4,1,-.7,2.1,-.7,3.1c0,1.1,.4,2,1,2.6c.6,.7,1.5,1,2.5,1c.8,0,1.4,-.2,2,-.5c.6,-.4,1.2,-.9,1.7,-1.6h.4c-.6,1,-1.3,1.7,-2,2.1c-.8,.5,-1.7,.7,-2.7,.7c-.9,0,-1.7,-.2,-2.4,-.5c-.7,-.4,-1.3,-1,-1.7,-1.7c-.3,-.7,-.5,-1.4,-.5,-2.2c0,-1.3,.3,-2.5,1,-3.6c.6,-1.2,1.5,-2.1,2.7,-2.8c1.1,-.6,2.3,-1,3.5,-1c.5,0,1.1,.2,1.8,.4c.3,.1,.5,.2,.7,.2c.1,0,.2,0,.3,-.1c.1,0,.3,-.2,.5,-.5Z" class="ga_106"/>
<path fill-rule="evenodd" d="M711.3,673.4l58.5,.4l-14.5,20.4l-66.9,-.1l22.5,-20.7Z" class="g11_106"/>
<path d="M688.4,694.3l22.5,-20.6" class="g1a_106"/>
<path fill-rule="evenodd" d="M769.4,674.2l.1,60l-22.3,20.4V695.3Z" class="g11_106"/>
<path fill-rule="evenodd" d="M688.3,694.5h59.1v59.8H688.3V694.5Z" class="g11_106"/>
<path d="M769.8,733.7H710.7V673.9m-22.4,80.2l22.5,-20.6" class="g1b_106"/>
<path d="M747.4,694.7l22.5,-20.6m-22.6,80.4l22.5,-20.6m-59.1,-60h59.1v59.8" class="g1a_106"/>
<path fill-rule="evenodd" d="M698.1,724.4l.1,-.3h3.6c1.5,0,2.7,.2,3.4,.6c.7,.3,1.3,.9,1.7,1.6c.5,.8,.7,1.6,.7,2.4c0,.8,-.1,1.5,-.4,2.2c-.2,.7,-.5,1.2,-.8,1.6c-.4,.5,-.8,.9,-1.5,1.4c-.7,.5,-1.4,.9,-2.1,1.1c-.8,.3,-1.8,.4,-2.9,.4h-4.8l.1,-.3c.5,0,.7,-.1,.9,-.1c.2,-.1,.4,-.3,.5,-.4c.1,-.2,.3,-.7,.5,-1.4l2,-6.8c.2,-.6,.3,-1,.3,-1.3c0,-.2,-.1,-.4,-.3,-.5c-.1,-.1,-.4,-.2,-.8,-.2Zm3,.4l-2.5,8.4c-.2,.6,-.3,1,-.3,1.2c0,0,.1,.1,.1,.2c.1,.1,.2,.2,.3,.2c.1,0,.3,.1,.7,.1c.8,0,1.6,-.1,2.4,-.3c.7,-.2,1.3,-.5,1.8,-.8c.7,-.5,1.2,-1.2,1.6,-2.1c.4,-.9,.6,-2,.6,-3.1c0,-1.3,-.3,-2.3,-.9,-2.9c-.6,-.7,-1.5,-1,-2.7,-1c-.3,0,-.7,0,-1.1,.1Z" class="ga_106"/>
<path fill-rule="evenodd" d="M753.2,694.4l.1,-.3h4c.7,0,1.3,.1,1.8,.3c.6,.2,1,.5,1.2,.9c.3,.3,.4,.7,.4,1.2c0,.6,-.2,1.2,-.7,1.7c-.4,.5,-1.2,.9,-2.3,1.2c.7,.2,1.2,.6,1.5,1c.4,.4,.5,.9,.5,1.4c0,.5,-.1,1.1,-.4,1.6c-.3,.5,-.7,.9,-1.1,1.2c-.5,.2,-1,.4,-1.7,.6c-.4,.1,-1.1,.1,-2.1,.1h-4.1l.1,-.3c.4,0,.7,0,.9,-.1c.2,-.1,.4,-.2,.5,-.4c.1,-.2,.3,-.7,.5,-1.4l2,-6.8c.2,-.6,.3,-1,.3,-1.3c0,-.2,-.1,-.3,-.3,-.4c-.1,-.2,-.4,-.2,-.8,-.2c-.1,0,-.2,0,-.3,0m1.7,4.6c.3,.1,.6,.1,.8,.1c1.1,0,2,-.3,2.5,-.8c.6,-.5,.9,-1.1,.9,-1.9c0,-.5,-.2,-1,-.5,-1.3c-.4,-.3,-.9,-.5,-1.7,-.5c-.2,0,-.4,0,-.7,.1Zm-1.6,5.6c.6,.1,1,.1,1.4,.1c.8,0,1.6,-.3,2.3,-.8c.6,-.5,1,-1.2,1,-2.1c0,-.7,-.3,-1.2,-.7,-1.6c-.4,-.4,-1,-.6,-2,-.6c-.1,0,-.4,.1,-.6,.1Z" class="ga_106"/>
<path fill-rule="evenodd" d="M763.2,703.4l1.7,-.9h.2v6.1c0,.4,0,.6,0,.7c.1,.1,.1,.2,.2,.2c.1,.1,.4,.1,.7,.1v.2h-2.7v-.2c.3,0,.5,0,.6,-.1c.1,0,.2,-.1,.2,-.2c.1,0,.1,-.3,.1,-.7v-3.9c0,-.5,0,-.9,0,-1c-.1,-.1,-.1,-.2,-.2,-.3q-.1,0,-.2,0c-.1,0,-.3,0,-.6,.1Z" class="ga_106"/>
<path d="M747.7,753.9H688.3V694.5h59.4v59.4Z" class="g1a_106"/>
<path d="M135.8,298.9h39.7V261.5H135.8v37.4Z" class="g1c_106"/>
<path d="M184.8,328.9h651V261.3h-651v67.6Z" class="g1_106"/>
<path d="M0,138.7H120.2V0H0V138.7Z" class="g1d_106"/>
<path d="M308.2,445v96.1l40.2,-41.4v-97Z" class="g1e_106"/>
<path d="M210.6,444.5h97.1v97.1H210.6V444.5Z" class="g1f_106"/>
<path d="M349.1,499.7H252V402.6" class="g1g_106"/>
<path d="M252,402.6h97.1v97.1m-41.9,41.5l41.6,-41.6m-41.6,-54l42.3,-42.2M209.7,445.6l42.7,-42.7" class="g1f_106"/>
<path d="M211.6,540.6L253.2,499" class="g1g_106"/>
</svg>