<?xml version="1.0" encoding="UTF-8" standalone="no"?>
<!DOCTYPE svg PUBLIC "-//W3C//DTD SVG 1.1//EN"
"http://www.w3.org/Graphics/SVG/1.1/DTD/svg11.dtd">
<svg viewBox="0 0 909 1147" version="1.1" xmlns="http://www.w3.org/2000/svg" xmlns:xlink="http://www.w3.org/1999/xlink">
<defs>
<style type="text/css"><![CDATA[
.g0_49{
fill: #FAAF82;
}
.g1_49{
fill: none;
stroke: #0EA5DF;
stroke-width: 3.055;
}
.g2_49{
fill: none;
stroke: #0EA5DF;
stroke-width: 0.763;
stroke-miterlimit: 10;
}
.g3_49{
fill: none;
stroke: #000;
stroke-width: 0.763;
stroke-miterlimit: 2;
}
.g4_49{
fill: none;
stroke: #000;
stroke-width: 0.458;
stroke-miterlimit: 2;
}
.g5_49{
fill: none;
stroke: #000;
stroke-width: 1.54;
stroke-miterlimit: 2;
}
.g6_49{
fill: none;
stroke: #000;
stroke-width: 1.069;
stroke-miterlimit: 2;
}
.g7_49{
fill: #000;
}
.g8_49{
fill: none;
stroke: #000;
stroke-width: 0.763;
}
.g9_49{
fill: #0EA5DF;
}
]]></style>
</defs>
<path d="M835.8,1129.8h73.6v-51.5H835.8v51.5Z" class="g0_49"/>
<path d="M72.7,66.4H834.9" class="g1_49"/>
<path d="M339.6,225.5h59.3m-58.9,43V225.9m58.9,-.4h68.4m-68.4,43V225.9m68.4,-.4h91.2m-91.2,43V225.9m90.8,42.6V225.9m-343.7,43H340m-125.2,21V269.3M340,268.9h58.9m-58.9,21V269.3m58.9,-.4h68.4m-68.4,21V269.3m68.4,-.4h91.2m-91.2,21V269.3m90.8,20.6V269.3m-343.7,21H340M214.8,314.5V290.6M340,290.3h58.9M340,314.5V290.6m58.9,-.3h68.4m-68.4,24.2V290.6m68.4,-.3h91.2m-91.2,24.2V290.6m90.8,23.9V290.6M214.4,314.8H340m0,0h58.9m0,0h68.4m0,0h91.2" class="g2_49"/>
<path d="M234,334.9h89.7m0,0H481.6" class="g3_49"/>
<path d="M244,342.7H481.7" class="g4_49"/>
<path d="M234,342.7h16.8" class="g3_49"/>
<path d="M246,338.8l6,3.9l-6,4" class="g5_49"/>
<path d="M305.4,342.7h16.9" class="g3_49"/>
<path d="M317.4,338.8l6.1,3.9l-6.1,4" class="g5_49"/>
<path d="M481.6,342.7H464.8" class="g3_49"/>
<path d="M469.7,346.7l-6.1,-4l6.1,-3.9" class="g5_49"/>
<path d="M343.4,342.7H326.6" class="g3_49"/>
<path d="M331.4,346.7l-6,-4l6,-3.9" class="g5_49"/>
<path d="M234,334.7v8.1m247.6,-.2v-7.1m-157.9,0v7.2" class="g6_49"/>
<path fill-rule="evenodd" d="M234.1,333.6c.7,0,1.3,.5,1.3,1.2c0,.7,-.6,1.2,-1.3,1.2c-.7,0,-1.2,-.5,-1.2,-1.2c0,-.7,.5,-1.2,1.2,-1.2Z" class="g7_49"/>
<path d="M234.1,333.6c.7,0,1.3,.5,1.3,1.2c0,.7,-.6,1.2,-1.3,1.2c-.7,0,-1.2,-.5,-1.2,-1.2c0,-.7,.5,-1.2,1.2,-1.2Z" class="g6_49"/>
<path fill-rule="evenodd" d="M481.3,333.6c.7,0,1.2,.5,1.2,1.2c0,.7,-.5,1.2,-1.2,1.2c-.7,0,-1.2,-.5,-1.2,-1.2c0,-.7,.5,-1.2,1.2,-1.2Z" class="g7_49"/>
<path d="M481.3,333.6c.7,0,1.2,.5,1.2,1.2c0,.7,-.5,1.2,-1.2,1.2c-.7,0,-1.2,-.5,-1.2,-1.2c0,-.7,.5,-1.2,1.2,-1.2Z" class="g6_49"/>
<path d="M631.1,429.7h51.4m-51,36.8V430.1m51,-.4h78.8m-78.8,36.8V430.1m78.8,-.4h74.5m-74.5,36.8V430.1m74.1,36.4V430.1M631.1,466.9h51.4m-51,29.9V467.3m51,-.4h78.8m-78.8,29.9V467.3m78.8,-.4h74.5m-74.5,29.9V467.3m74.1,29.5V467.3M631.1,497.2h51.4m-51,29.9V497.6m51,-.4h78.8m-78.8,29.9V497.6m78.8,-.4h74.5m-74.5,29.9V497.6m74.1,29.5V497.6M631.1,527.5h51.4m-51,30V527.9m51,-.4h78.8m-78.8,30V527.9m78.8,-.4h74.5m-74.5,30V527.9m74.1,29.6V527.9M631.1,557.8h51.4m-51,30V558.2m51,-.4h78.8m-78.8,30V558.2m78.8,-.4h74.5m-74.5,30V558.2m74.1,29.6V558.2m-204.3,30h51.4m-51,29.9V588.5m51,-.3h78.8m-78.8,29.9V588.5m78.8,-.3h74.5m-74.5,29.9V588.5m74.1,29.6V588.5m-204.3,30h51.4m0,0h78.8m0,0h74.5" class="g2_49"/>
<path d="M73.6,419.3H835.8" class="g1_49"/>
<path d="M219.2,766h26.1m77,29.2h26.1M321.8,833h19.9" class="g8_49"/>
<path d="M631.1,887.3h51.4m-51,36.8V887.7m51,-.4h78.8m-78.8,36.8V887.7m78.8,-.4h74.5m-74.5,36.8V887.7m74.1,36.4V887.7M631.1,924.5h51.4m-51,26.7V924.9m51,-.4h78.8m-78.8,26.7V924.9m78.8,-.4h74.5m-74.5,26.7V924.9m74.1,26.3V924.9M631.1,951.6h51.4m-51,27.7V952m51,-.4h78.8m-78.8,27.7V952m78.8,-.4h74.5m-74.5,27.7V952m74.1,27.3V952M631.1,979.7h51.4m-51,28.9V980.1m51,-.4h78.8m-78.8,28.9V980.1m78.8,-.4h74.5m-74.5,28.9V980.1m74.1,28.5V980.1M631.1,1009h51.4m-51,27.8v-27.5m51,-.3h78.8m-78.8,27.8v-27.5m78.8,-.3h74.5m-74.5,27.8v-27.5m74.1,27.5v-27.5m-204.3,27.9h51.4m-51,25.6v-25.2m51,-.4h78.8m-78.8,25.6v-25.2m78.8,-.4h74.5m-74.5,25.6v-25.2m74.1,25.2v-25.2m-204.3,25.6h51.4m0,0h78.8m0,0h74.5" class="g2_49"/>
<path d="M225,983.9h26M467.1,811.7h26.1" class="g8_49"/>
<path d="M74.5,450.6H181.9V420.5H74.5v30.1Z" class="g9_49"/>
</svg>