<?xml version="1.0" encoding="UTF-8" standalone="no"?>
<!DOCTYPE svg PUBLIC "-//W3C//DTD SVG 1.1//EN"
"http://www.w3.org/Graphics/SVG/1.1/DTD/svg11.dtd">
<svg viewBox="0 0 909 1147" version="1.1" xmlns="http://www.w3.org/2000/svg" xmlns:xlink="http://www.w3.org/1999/xlink">
<defs>
<clipPath id="c0_34"><path d="M140.8,1041.6v-18H171v18Z"/></clipPath>
<style type="text/css"><![CDATA[
.g0_34{
fill: #FAAF82;
}
.g1_34{
fill: #FFF;
}
.g2_34{
fill: none;
stroke: #0EA5DF;
stroke-width: 3.055;
}
.g3_34{
fill: #FFF1E0;
}
.g4_34{
fill: #0EA5DF;
}
.g5_34{
fill: none;
stroke: #000;
stroke-width: 0.763;
}
]]></style>
</defs>
<path d="M0,1131H73.8v-51.5H0V1131Z" class="g0_34"/>
<path fill-rule="evenodd" d="M606.9,547.8H642V525.7H606.9v22.1Z" class="g1_34"/>
<path d="M73.6,166.9H835.8M73.6,680.1H835.8" class="g2_34"/>
<path d="M187.8,1078.3h648v-64.8h-648v64.8Z" class="g3_34"/>
<path d="M0,141.1H120.6V0H0V141.1Z" class="g0_34"/>
<path d="M135.8,1051h39.7v-37.5H135.8V1051Z" class="g4_34"/>
<path clip-path="url(#c0_34)" d="M156.1,1036.1c-2.1,.1,-3.8,-1.6,-3.6,-3.7c.1,-1.7,1.5,-3,3.2,-3.2c2,-.1,3.7,1.6,3.6,3.7c-.1,1.7,-1.5,3.1,-3.2,3.2m.2,2.9c-3.8,.2,-7,-2.9,-6.8,-6.8c.2,-3.1,2.8,-5.7,6,-5.9c3.8,-.2,7,2.9,6.7,6.8c-.2,3.1,-2.8,5.7,-5.9,5.9m-.4,-15.3c-5.8,0,-11,3.1,-14.9,8.2c-.3,.5,-.3,1.1,0,1.5c3.9,5.1,9.1,8.3,14.9,8.3c5.7,0,11,-3.2,14.8,-8.3c.4,-.4,.4,-1,0,-1.4c-3.8,-5.2,-9.1,-8.3,-14.8,-8.3Z" class="g1_34"/>
<path d="M226.1,571.5h28.7" class="g5_34"/>
</svg>