<?xml version="1.0" encoding="UTF-8" standalone="no"?>
<!DOCTYPE svg PUBLIC "-//W3C//DTD SVG 1.1//EN"
"http://www.w3.org/Graphics/SVG/1.1/DTD/svg11.dtd">
<svg viewBox="0 0 909 1147" version="1.1" xmlns="http://www.w3.org/2000/svg" xmlns:xlink="http://www.w3.org/1999/xlink">
<defs>
<clipPath id="c0_114"><path d="M140.4,633.1v-18h30.3v18Z"/></clipPath>
<clipPath id="c1_114"><path d="M185.1,1031.3V934.9h167v96.4Z"/></clipPath>
<style type="text/css"><![CDATA[
.g0_114{
fill: #E7A9A1;
}
.g1_114{
fill: #000;
}
.g2_114{
fill: none;
stroke: #000;
stroke-width: 0.152;
stroke-miterlimit: 2;
}
.g3_114{
fill: none;
stroke: #000;
stroke-width: 1.069;
stroke-miterlimit: 2;
}
.g4_114{
fill: none;
stroke: #000;
stroke-width: 1.069;
stroke-miterlimit: 2;
stroke-dasharray: 6,4;
}
.g5_114{
fill: none;
stroke: #0EA5DF;
stroke-width: 3.055;
}
.g6_114{
fill: #0EA5DF;
}
.g7_114{
fill: #FFF;
}
.g8_114{
fill: #FFF1E0;
}
]]></style>
</defs>
<path d="M0,1131H72.3v-51.5H0V1131Z" class="g0_114"/>
<path fill-rule="evenodd" d="M255.3,433.3l-1.7,5.9c-.1,.3,-.2,.5,-.2,.7c0,.2,.1,.3,.3,.3c.3,0,.7,-.4,1.2,-1.2l.2,.2c-.3,.5,-.6,.9,-1.1,1.3c-.5,.3,-.9,.5,-1.3,.5c-.4,0,-.6,-.2,-.6,-.8c0,-.3,.2,-.9,.4,-1.7c-.6,.8,-1.3,1.5,-1.8,1.9c-.6,.4,-1.1,.6,-1.6,.6c-.5,0,-.8,-.2,-1.1,-.6c-.3,-.3,-.4,-.8,-.4,-1.3c0,-1.3,.5,-2.6,1.6,-4c1.1,-1.3,2.1,-2,3.2,-2c.4,0,.6,.1,.9,.4c.2,.2,.4,.5,.4,.8l.3,-1Zm-2,2.6c.1,-.4,.1,-.8,.1,-1.2c0,-.4,0,-.7,-.2,-.9c-.2,-.2,-.4,-.3,-.7,-.3c-.8,0,-1.6,.6,-2.4,1.9c-.8,1.4,-1.1,2.5,-1.1,3.4c0,.4,.1,.7,.2,.9c.2,.2,.5,.3,.8,.3c.5,0,1.1,-.3,1.7,-1.1c.7,-.7,1.1,-1.4,1.3,-2.2Z" class="g1_114"/>
<path d="M255.3,433.3l-1.7,5.9c-.1,.3,-.2,.5,-.2,.7c0,.2,.1,.3,.3,.3c.3,0,.7,-.4,1.2,-1.2l.2,.2c-.3,.5,-.6,.9,-1.1,1.3c-.5,.3,-.9,.5,-1.3,.5c-.4,0,-.6,-.2,-.6,-.8c0,-.3,.2,-.9,.4,-1.7c-.6,.8,-1.3,1.5,-1.8,1.9c-.6,.4,-1.1,.6,-1.6,.6c-.5,0,-.8,-.2,-1.1,-.6c-.3,-.3,-.4,-.8,-.4,-1.3c0,-1.3,.5,-2.6,1.6,-4c1.1,-1.3,2.1,-2,3.2,-2c.4,0,.6,.1,.9,.4c.2,.2,.4,.5,.4,.8l.3,-1h1.3Zm-2,2.6c.1,-.4,.1,-.8,.1,-1.2c0,-.4,0,-.7,-.2,-.9c-.2,-.2,-.4,-.3,-.7,-.3c-.8,0,-1.6,.6,-2.4,1.9c-.8,1.4,-1.1,2.5,-1.1,3.4c0,.4,.1,.7,.2,.9c.2,.2,.5,.3,.8,.3c.5,0,1.1,-.3,1.7,-1.1c.7,-.7,1.1,-1.4,1.3,-2.2l.3,-.8Z" class="g2_114"/>
<path fill-rule="evenodd" d="M353.1,387.6c-1.1,1.3,-2.2,1.9,-3.4,1.9c-.6,0,-1.2,-.2,-1.6,-.6c-.4,-.5,-.6,-1.1,-.6,-1.8c0,-1.3,.5,-2.5,1.5,-3.7c1,-1.2,2.1,-1.8,3.3,-1.8c.4,0,.8,.2,1.1,.4c.3,.3,.4,.6,.4,1c0,.3,-.1,.5,-.2,.8c-.2,.2,-.4,.3,-.7,.3c-.1,0,-.2,-.1,-.4,-.2c-.1,-.1,-.1,-.2,-.1,-.4c0,-.2,.1,-.4,.3,-.5c.2,-.2,.3,-.4,.3,-.5c0,-.2,-.1,-.3,-.3,-.4c-.1,-.1,-.3,-.1,-.4,-.1c-.9,0,-1.6,.5,-2.3,1.6c-.8,1.2,-1.1,2.3,-1.1,3.3c0,.6,.1,1.1,.4,1.4c.3,.4,.7,.6,1.2,.6c.8,0,1.6,-.5,2.3,-1.4Z" class="g1_114"/>
<path d="M353.1,387.6c-1.1,1.3,-2.2,1.9,-3.4,1.9c-.6,0,-1.2,-.2,-1.6,-.6c-.4,-.5,-.6,-1.1,-.6,-1.8c0,-1.3,.5,-2.5,1.5,-3.7c1,-1.2,2.1,-1.8,3.3,-1.8c.4,0,.8,.2,1.1,.4c.3,.3,.4,.6,.4,1c0,.3,-.1,.5,-.2,.8c-.2,.2,-.4,.3,-.7,.3c-.1,0,-.2,-.1,-.4,-.2c-.1,-.1,-.1,-.2,-.1,-.4c0,-.2,.1,-.4,.3,-.5c.2,-.2,.3,-.4,.3,-.5c0,-.2,-.1,-.3,-.3,-.4c-.1,-.1,-.3,-.1,-.4,-.1c-.9,0,-1.6,.5,-2.3,1.6c-.8,1.2,-1.1,2.3,-1.1,3.3c0,.6,.1,1.1,.4,1.4c.3,.4,.7,.6,1.2,.6c.8,0,1.6,-.5,2.3,-1.4l.3,.1Z" class="g2_114"/>
<path fill-rule="evenodd" d="M336.2,419.2l-1.8,5.9c.9,-1,1.8,-1.5,2.7,-1.5c.6,0,1.1,.2,1.5,.6c.3,.4,.5,.9,.5,1.7c0,1.2,-.5,2.5,-1.5,3.7c-1.1,1.2,-2.2,1.8,-3.4,1.8c-.8,0,-1.7,-.3,-2.6,-1l2.7,-9.1c.1,-.5,.2,-.8,.2,-.9c0,-.3,-.2,-.5,-.5,-.5c-.2,0,-.4,0,-.6,.1v-.4l2.5,-.4Zm-3.4,11.4c.6,.3,1,.5,1.5,.5c.9,0,1.7,-.6,2.4,-1.6c.7,-1.1,1.1,-2.3,1.1,-3.5c0,-.5,-.1,-.9,-.3,-1.2c-.2,-.3,-.6,-.4,-1,-.4c-.5,0,-1,.2,-1.5,.6c-.5,.4,-.8,1,-1,1.8Z" class="g1_114"/>
<path d="M336.2,419.2l-1.8,5.9c.9,-1,1.8,-1.5,2.7,-1.5c.6,0,1.1,.2,1.5,.6c.3,.4,.5,.9,.5,1.7c0,1.2,-.5,2.5,-1.5,3.7c-1.1,1.2,-2.2,1.8,-3.4,1.8c-.8,0,-1.7,-.3,-2.6,-1l2.7,-9.1c.1,-.5,.2,-.8,.2,-.9c0,-.3,-.2,-.5,-.5,-.5c-.2,0,-.4,0,-.6,.1v-.4l2.5,-.4h.3Zm-3.4,11.4c.6,.3,1,.5,1.5,.5c.9,0,1.7,-.6,2.4,-1.6c.7,-1.1,1.1,-2.3,1.1,-3.5c0,-.5,-.1,-.9,-.3,-1.2c-.2,-.3,-.6,-.4,-1,-.4c-.5,0,-1,.2,-1.5,.6c-.5,.4,-.8,1,-1,1.8l-1.2,3.8Z" class="g2_114"/>
<path d="M187.4,380H313.5v44.3H187.4V380Z" class="g3_114"/>
<path d="M341.1,409H215V364.8" class="g4_114"/>
<path d="M215,364.8H341.1V409M187.5,379.8l27.7,-15.2m98.3,15.5l27.6,-15.2" class="g3_114"/>
<path d="M187.4,424.2l27.7,-15.3" class="g4_114"/>
<path d="M313.4,424.5L341,409.2" class="g3_114"/>
<path d="M73.6,166.9H835.8" class="g5_114"/>
<path d="M135.5,642.5h39.6V605H135.5v37.5Z" class="g6_114"/>
<path clip-path="url(#c0_114)" d="M155.7,627.6c-2,.1,-3.8,-1.6,-3.6,-3.7c.1,-1.7,1.5,-3.1,3.2,-3.2c2,-.1,3.7,1.6,3.6,3.7c-.1,1.7,-1.5,3.1,-3.2,3.2m.2,2.9c-3.8,.2,-7,-2.9,-6.7,-6.8c.2,-3.1,2.7,-5.7,5.9,-5.9c3.8,-.2,7,2.9,6.7,6.8c-.2,3.1,-2.7,5.7,-5.9,5.9m-.4,-15.3c-5.8,0,-11,3.1,-14.9,8.2c-.3,.5,-.3,1,0,1.5c3.9,5.1,9.1,8.2,14.9,8.2c5.8,0,11,-3.1,14.9,-8.2c.3,-.5,.3,-1,0,-1.5c-3.9,-5.1,-9.1,-8.2,-14.9,-8.2Z" class="g7_114"/>
<path d="M184.4,790h651V605h-651V790Z" class="g8_114"/>
<path d="M73.6,812.7H835.8" class="g5_114"/>
<path d="M0,138.7H120.2V0H0V138.7Z" class="g0_114"/>
<g clip-path="url(#c1_114)">
<path fill-rule="evenodd" d="M251.5,1026.1c.2,-.4,.2,-.8,.2,-1.2c0,-.3,-.1,-.6,-.2,-.9c-.2,-.2,-.5,-.3,-.8,-.3c-.7,0,-1.5,.7,-2.3,2c-.8,1.3,-1.2,2.4,-1.2,3.3c0,.4,.1,.7,.3,1c.2,.2,.4,.3,.7,.3c.6,0,1.2,-.4,1.8,-1.1c.7,-.8,1.1,-1.5,1.3,-2.3Zm2.1,-2.5l-1.7,5.8c-.1,.4,-.2,.6,-.2,.7c0,.2,.1,.3,.2,.3c.4,0,.8,-.4,1.3,-1.1l.2,.1c-.3,.5,-.6,1,-1.1,1.3c-.5,.4,-.9,.6,-1.3,.6c-.4,0,-.6,-.3,-.6,-.8c0,-.3,.1,-.9,.4,-1.8c-.7,.9,-1.3,1.5,-1.8,1.9c-.6,.4,-1.2,.7,-1.7,.7c-.4,0,-.7,-.2,-1,-.6c-.3,-.4,-.4,-.8,-.4,-1.4c0,-1.3,.5,-2.6,1.6,-3.9c1.1,-1.4,2.1,-2,3.2,-2c.3,0,.6,.1,.9,.3c.2,.2,.4,.5,.4,.9l.3,-1Z" class="g1_114"/>
<path d="M251.5,1026.1c.2,-.4,.2,-.8,.2,-1.2c0,-.3,-.1,-.6,-.2,-.9c-.2,-.2,-.5,-.3,-.8,-.3c-.7,0,-1.5,.7,-2.3,2c-.8,1.3,-1.2,2.4,-1.2,3.3c0,.4,.1,.7,.3,1c.2,.2,.4,.3,.7,.3c.6,0,1.2,-.4,1.8,-1.1c.7,-.8,1.1,-1.5,1.3,-2.3l.2,-.8Zm2.1,-2.5l-1.7,5.8c-.1,.4,-.2,.6,-.2,.7c0,.2,.1,.3,.2,.3c.4,0,.8,-.4,1.3,-1.1l.2,.1c-.3,.5,-.6,1,-1.1,1.3c-.5,.4,-.9,.6,-1.3,.6c-.4,0,-.6,-.3,-.6,-.8c0,-.3,.1,-.9,.4,-1.8c-.7,.9,-1.3,1.5,-1.8,1.9c-.6,.4,-1.2,.7,-1.7,.7c-.4,0,-.7,-.2,-1,-.6c-.3,-.4,-.4,-.8,-.4,-1.4c0,-1.3,.5,-2.6,1.6,-3.9c1.1,-1.4,2.1,-2,3.2,-2c.3,0,.6,.1,.9,.3c.2,.2,.4,.5,.4,.9l.3,-1h1.3Z" class="g2_114"/>
</g>
<path fill-rule="evenodd" d="M351.4,970.2c-1.1,1.3,-2.2,1.9,-3.4,1.9c-.6,0,-1.2,-.2,-1.6,-.6c-.4,-.5,-.6,-1.1,-.6,-1.8c0,-1.3,.5,-2.5,1.5,-3.7c1,-1.2,2.1,-1.7,3.3,-1.7c.4,0,.8,.1,1.1,.3c.3,.3,.4,.6,.4,1c0,.3,-.1,.6,-.2,.8c-.2,.2,-.4,.3,-.7,.3c-.1,0,-.3,-.1,-.4,-.2c-.1,-.1,-.1,-.2,-.1,-.4c0,-.2,.1,-.4,.2,-.5c.3,-.2,.4,-.4,.4,-.5c0,-.2,-.1,-.3,-.3,-.4c-.1,-.1,-.3,-.1,-.4,-.1c-.9,0,-1.6,.5,-2.4,1.7c-.7,1.1,-1,2.2,-1,3.2c0,.6,.1,1.1,.4,1.4c.3,.4,.7,.6,1.1,.6c.9,0,1.7,-.5,2.4,-1.4Z" class="g1_114"/>
<path clip-path="url(#c1_114)" d="M351.4,970.2c-1.1,1.3,-2.2,1.9,-3.4,1.9c-.6,0,-1.2,-.2,-1.6,-.6c-.4,-.5,-.6,-1.1,-.6,-1.8c0,-1.3,.5,-2.5,1.5,-3.7c1,-1.2,2.1,-1.7,3.3,-1.7c.4,0,.8,.1,1.1,.3c.3,.3,.4,.6,.4,1c0,.3,-.1,.6,-.2,.8c-.2,.2,-.4,.3,-.7,.3c-.1,0,-.3,-.1,-.4,-.2c-.1,-.1,-.1,-.2,-.1,-.4c0,-.2,.1,-.4,.2,-.5c.3,-.2,.4,-.4,.4,-.5c0,-.2,-.1,-.3,-.3,-.4c-.1,-.1,-.3,-.1,-.4,-.1c-.9,0,-1.6,.5,-2.4,1.7c-.7,1.1,-1,2.2,-1,3.2c0,.6,.1,1.1,.4,1.4c.3,.4,.7,.6,1.1,.6c.9,0,1.7,-.5,2.4,-1.4l.3,.1Z" class="g2_114"/>
<path fill-rule="evenodd" d="M331.1,1020.9c.5,.3,1,.4,1.5,.4c.9,0,1.7,-.5,2.4,-1.6c.7,-1.1,1,-2.2,1,-3.4c0,-.6,-.1,-1,-.3,-1.3c-.2,-.2,-.5,-.4,-.9,-.4c-.5,0,-1,.2,-1.5,.6c-.5,.4,-.8,1,-1.1,1.8Zm3.4,-11.5l-1.8,6c.9,-1.1,1.8,-1.6,2.7,-1.6c.6,0,1.1,.2,1.4,.6c.4,.4,.6,1,.6,1.7c0,1.3,-.5,2.5,-1.6,3.7c-1,1.3,-2.1,1.9,-3.3,1.9c-.9,0,-1.7,-.4,-2.6,-1l2.7,-9.2c.1,-.4,.2,-.7,.2,-.9c0,-.3,-.2,-.5,-.5,-.5c-.2,0,-.4,.1,-.6,.1v-.3l2.5,-.5Z" class="g1_114"/>
<path d="M331.1,1020.9c.5,.3,1,.4,1.5,.4c.9,0,1.7,-.5,2.4,-1.6c.7,-1.1,1,-2.2,1,-3.4c0,-.6,-.1,-1,-.3,-1.3c-.2,-.2,-.5,-.4,-.9,-.4c-.5,0,-1,.2,-1.5,.6c-.5,.4,-.8,1,-1.1,1.8l-1.1,3.9Zm3.4,-11.5l-1.8,6c.9,-1.1,1.8,-1.6,2.7,-1.6c.6,0,1.1,.2,1.4,.6c.4,.4,.6,1,.6,1.7c0,1.3,-.5,2.5,-1.6,3.7c-1,1.3,-2.1,1.9,-3.3,1.9c-.9,0,-1.7,-.4,-2.6,-1l2.7,-9.2c.1,-.4,.2,-.7,.2,-.9c0,-.3,-.2,-.5,-.5,-.5c-.2,0,-.4,.1,-.6,.1v-.3l2.5,-.5h.3Z" class="g2_114"/>
<path d="M185.7,951h126v63.6h-126V951Z" class="g3_114"/>
<path d="M339.3,999.3h-126V935.2" class="g4_114"/>
<path d="M213.1,935.5H339.2v63.8M185.7,950.6l27.7,-15.3m98.2,15.6l27.7,-15.3" class="g3_114"/>
<path d="M185.7,1014.4l27.7,-15.2" class="g4_114"/>
<path d="M311.6,1014.7l27.7,-15.2" class="g3_114"/>
</svg>