<?xml version="1.0" encoding="UTF-8" standalone="no"?>
<!DOCTYPE svg PUBLIC "-//W3C//DTD SVG 1.1//EN"
"http://www.w3.org/Graphics/SVG/1.1/DTD/svg11.dtd">
<svg viewBox="0 0 909 1147" version="1.1" xmlns="http://www.w3.org/2000/svg" xmlns:xlink="http://www.w3.org/1999/xlink">
<defs>
<clipPath id="c0_110"><path d="M632.3,689.8V550H804.8V689.8Z"/></clipPath>
<style type="text/css"><![CDATA[
.g0_110{
fill: #E7A9A1;
}
.g1_110{
fill: #0C4B7F;
}
.g2_110{
fill: #FFF1E0;
}
.g3_110{
fill: none;
stroke: #0EA5DF;
stroke-width: 3.055;
}
.g4_110{
fill: #D4EFFC;
}
.g5_110{
fill: none;
stroke: #000;
stroke-width: 1.069;
stroke-miterlimit: 2;
}
.g6_110{
fill: #C1D9E6;
}
.g7_110{
fill: #FFF;
}
.g8_110{
fill: none;
stroke: #000;
stroke-width: 0.687;
stroke-miterlimit: 2;
}
.g9_110{
fill: #000;
}
.ga_110{
fill: none;
stroke: #000;
stroke-width: 0.962;
stroke-miterlimit: 2;
}
]]></style>
</defs>
<path d="M0,1131H72.3v-51.5H0V1131Z" class="g0_110"/>
<path d="M135.8,416.6h39.7V379.1H135.8v37.5Z" class="g1_110"/>
<path d="M184.8,523.7h651V378.9h-651V523.7Z" class="g2_110"/>
<path d="M73.6,707.4H835.8M73.6,860.2H835.8" class="g3_110"/>
<path d="M0,132.7H120.2V0H0V132.7Z" class="g0_110"/>
<path d="M75.3,160.8H837.5" class="g3_110"/>
<path d="M185.6,298.8h72.7V226.1H185.6v72.7Z" class="g4_110"/>
<path d="M212,200.4l-26.4,25.1h72.7l26.4,-25.1Z" class="g4_110"/>
<path d="M185.8,225.7L212.3,201" class="g5_110"/>
<path d="M258.5,226.7v72.7l26,-24.8V201.9Z" class="g6_110"/>
<path d="M258.4,226.5l26.5,-25.6m-72.6,-.2h72.6v73.4m-26.7,25.5l26.3,-25.2M258.3,226v73.4H185.7m0,0V226h72.6" class="g5_110"/>
<path d="M409.4,298.8h72.7V226.1H409.4v72.7Z" class="g4_110"/>
<path d="M435.8,200.4l-26.4,25.1h72.7l26.4,-25.1Z" class="g4_110"/>
<path d="M409.5,225.7L436.1,201" class="g5_110"/>
<path fill-rule="evenodd" d="M482.3,226.7l26,-24.8v72.7l-26,24.8Z" class="g6_110"/>
<path d="M482.2,226.5l26.5,-25.6m-72.6,-.2h72.6v73.4M482,299.6l26.3,-25.2M482,226v73.4H409.4m0,0V226H482" class="g5_110"/>
<path d="M631.6,298.8h72.7V226.1H631.6v72.7Z" class="g4_110"/>
<path d="M658,200.4l-26.4,25.1h72.7l26.4,-25.1Z" class="g4_110"/>
<path d="M631.8,225.7L658.3,201" class="g5_110"/>
<path d="M704.6,226.7v72.7l26,-24.8V201.9Z" class="g6_110"/>
<path d="M704.4,226.5L731,200.9m-72.7,-.2h72.6v73.4m-26.7,25.5l26.3,-25.2M704.3,226v73.4H631.7m0,0V226h72.6" class="g5_110"/>
<path fill-rule="evenodd" d="M711.9,589l23,3.7l28.7,-31c-3.5,-2.3,-3.2,-8.8,-6.4,-11.7c-19.5,8,-34.3,21.3,-45.3,39Z" class="g7_110"/>
<path fill-rule="evenodd" d="M789.9,579.6c-1.5,-8.9,-2.9,-15.1,-4.2,-18.5c-1.3,-3.5,-2.5,-5.1,-3.5,-4.8c-1,.3,-1.8,2,-2.3,5.1c-.6,3.1,-.8,6.8,-.6,11Zm5.8,3.8l8.7,5.9c-3.1,18.2,-12.4,30.9,-27.9,37.9L735.1,593.5l28.7,-31.3l10.7,7.2c.1,-4.4,.9,-8.5,2.5,-12.2c1.5,-3.7,3.3,-5.7,5.5,-5.9c2.1,-.2,4.4,2,6.8,6.7c2.4,4.6,4.5,13.1,6.4,25.4Z" class="g7_110"/>
<path clip-path="url(#c0_110)" d="M756.7,550.7c-19.6,8.1,-33.6,19.7,-44.7,37.8m-.6,.5c19.6,-8.1,33.7,-19.7,44.8,-37.8m0,0c1.2,-2.1,3.2,-.2,3.7,3.3c.4,3.6,1.8,6.1,3.2,7.1l-28.8,31.3L711.4,589m78.5,-9.4c-1.5,-8.9,-2.9,-15.1,-4.2,-18.5c-1.3,-3.5,-2.5,-5.1,-3.5,-4.8c-1,.3,-1.8,2,-2.3,5.1c-.6,3.1,-.8,6.8,-.6,11l10.6,7.2Zm5.8,3.8l8.7,5.9c-3.1,18.2,-12.4,30.9,-27.9,37.9L735.1,593.5l28.7,-31.3l10.7,7.2c.1,-4.4,.9,-8.5,2.5,-12.2c1.5,-3.7,3.3,-5.7,5.5,-5.9c2.1,-.2,4.4,2,6.8,6.7c2.4,4.6,4.5,13.1,6.4,25.4Z" class="g8_110"/>
<path fill-rule="evenodd" d="M758.9,578.8l2.4,-1.2h.3v8.5c0,.5,0,.9,.1,1c0,.2,.1,.3,.3,.3c.1,.1,.4,.1,.9,.2v.2h-3.8v-.2c.5,-.1,.8,-.1,.9,-.2c.1,0,.2,-.1,.3,-.3c0,-.1,.1,-.4,.1,-1v-5.4c0,-.8,-.1,-1.2,-.1,-1.4c0,-.2,-.1,-.3,-.2,-.4c-.1,-.1,-.2,-.1,-.3,-.1c-.2,0,-.5,.1,-.8,.2Z" class="g9_110"/>
<path fill-rule="evenodd" d="M759.7,604c.3,.1,.6,.1,.9,.1c.6,0,1,-.1,1.3,-.4c.3,-.2,.4,-.6,.4,-1c0,-.4,-.2,-.8,-.5,-1c-.4,-.3,-.9,-.4,-1.6,-.4c-.1,0,-.3,0,-.5,0Zm0,-3.2c.2,0,.4,0,.4,0c.7,0,1.2,-.1,1.5,-.3c.3,-.3,.4,-.6,.4,-1c0,-.4,-.1,-.7,-.4,-.9c-.3,-.2,-.8,-.3,-1.5,-.3h-.4Zm2.2,.2c1.2,.3,1.9,.8,1.9,1.7c0,.7,-.3,1.1,-.8,1.4c-.5,.3,-1.3,.5,-2.2,.5h-3.3v-.3c.4,0,.7,-.1,.8,-.2c.1,-.2,.2,-.6,.2,-1.1v-3.6c0,-.5,0,-.8,-.1,-.9c0,-.1,-.1,-.2,-.2,-.3c-.1,-.1,-.4,-.1,-.7,-.1v-.3h3.1c.6,0,1.1,.1,1.5,.2c.3,.1,.6,.2,.9,.5c.2,.3,.3,.6,.3,1c0,.8,-.4,1.3,-1.4,1.5Z" class="g9_110"/>
<path fill-rule="evenodd" d="M767.7,598.1c-.2,0,-.5,.1,-.8,.2c-.2,.2,-.4,.5,-.6,.8c-.2,.4,-.2,.9,-.2,1.5c0,1,.2,1.9,.5,2.6c.4,.7,.9,1.1,1.6,1.1c.5,0,.9,-.2,1.2,-.6c.3,-.4,.4,-1.1,.4,-2.1c0,-1.2,-.2,-2.1,-.7,-2.8c-.4,-.5,-.8,-.7,-1.4,-.7m.3,-.5c1,0,1.8,.4,2.4,1.2c.5,.6,.8,1.4,.8,2.3c0,.6,-.1,1.2,-.4,1.8c-.3,.6,-.7,1.1,-1.2,1.4c-.5,.3,-1.1,.5,-1.7,.5c-1,0,-1.9,-.4,-2.5,-1.2c-.5,-.7,-.7,-1.5,-.7,-2.3c0,-.7,.1,-1.3,.4,-1.9c.4,-.6,.8,-1,1.3,-1.3c.5,-.3,1,-.5,1.6,-.5Z" class="g9_110"/>
<path fill-rule="evenodd" d="M774.3,598.3v.4c0,2.4,-.4,4.2,-1.3,5.4h2.5c.5,0,.7,0,.8,-.1c.1,-.1,.1,-.4,.1,-.9v-4.8Zm-1.6,-.5h6v.3c-.4,0,-.6,0,-.7,.1c-.1,.1,-.2,.1,-.3,.2c0,.1,-.1,.5,-.1,1v3.4c0,.7,.1,1.1,.2,1.2c.1,.2,.4,.3,.9,.3v2.2h-.3c0,-.4,-.1,-.8,-.3,-1.1c-.2,-.3,-.4,-.5,-.8,-.6c-.3,-.2,-.8,-.2,-1.4,-.2h-1.7c-.6,0,-1,0,-1.3,.1c-.3,.1,-.6,.3,-.8,.6c-.2,.3,-.3,.7,-.3,1.2h-.3v-2.2c.4,0,.8,-.2,1.1,-.5c.3,-.3,.6,-.9,.9,-1.8c.2,-.9,.3,-1.7,.3,-2.6c0,-.8,-.3,-1.3,-1.1,-1.3Z" class="g9_110"/>
<path fill-rule="evenodd" d="M783.3,603.1v-2.6c-.7,.3,-1.2,.6,-1.4,.7c-.4,.2,-.7,.4,-.9,.7c-.1,.2,-.2,.5,-.2,.7c0,.4,.1,.7,.3,.9c.2,.2,.4,.4,.7,.4c.4,0,.9,-.3,1.5,-.8m0,.5c-.7,.5,-1.1,.9,-1.3,.9c-.3,.2,-.6,.2,-.9,.2c-.4,0,-.8,-.1,-1.1,-.5c-.3,-.3,-.5,-.7,-.5,-1.2c0,-.4,.1,-.6,.3,-.9c.2,-.3,.5,-.6,1,-.9c.5,-.3,1.3,-.7,2.5,-1.1v-.3c0,-.6,-.1,-1.1,-.3,-1.4c-.2,-.2,-.5,-.3,-1,-.3c-.3,0,-.5,.1,-.7,.2c-.2,.2,-.3,.4,-.3,.6v.4c0,.3,0,.4,-.1,.5c-.1,.2,-.3,.2,-.5,.2c-.2,0,-.3,0,-.4,-.2c-.2,-.1,-.2,-.3,-.2,-.5c0,-.4,.2,-.8,.6,-1.2c.5,-.3,1.1,-.5,1.9,-.5c.6,0,1.1,.1,1.4,.3c.3,.2,.5,.4,.7,.7c.1,.2,.1,.7,.1,1.3v2.3c0,.7,0,1.1,.1,1.2c0,.2,0,.3,.1,.3c0,.1,.1,.1,.2,.1q.1,0,.2,-.1c.1,0,.3,-.2,.6,-.5v.4c-.6,.7,-1.1,1.1,-1.6,1.1c-.2,0,-.4,-.1,-.6,-.2c-.1,-.2,-.2,-.5,-.2,-.9Z" class="g9_110"/>
<path fill-rule="evenodd" d="M657.7,600.1h65.4l-23.8,22.7H633.9Z" class="g7_110"/>
<path fill-rule="evenodd" d="M632.7,623.3h65.4v65.4H632.7V623.3Z" class="g4_110"/>
<path d="M632.9,622.9l23.9,-22.2m-.1,22.1V600.5" class="ga_110"/>
<path fill-rule="evenodd" d="M698.4,623.9l23.4,-22.4v65.4l-23.4,22.4Z" class="g6_110"/>
<path d="M698.2,623.6l23.9,-23m-65.4,-.1h65.4v66m-24,23l23.6,-22.8M698.1,623.2v66H632.8m0,0v-66h65.3" class="ga_110"/>
<path d="M73.6,535.1H835.8" class="g3_110"/>
</svg>