<?xml version="1.0" encoding="UTF-8" standalone="no"?>
<!DOCTYPE svg PUBLIC "-//W3C//DTD SVG 1.1//EN"
"http://www.w3.org/Graphics/SVG/1.1/DTD/svg11.dtd">
<svg viewBox="0 0 909 1147" version="1.1" xmlns="http://www.w3.org/2000/svg" xmlns:xlink="http://www.w3.org/1999/xlink">
<defs>
<clipPath id="c0_91"><path d="M187.1,543V427.8H474V543Z"/></clipPath>
<clipPath id="c1_91"><path d="M185.1,275.6v-131h202v131Z"/></clipPath>
<style type="text/css"><![CDATA[
.g0_91{
fill: #B6D774;
}
.g1_91{
fill: #FFFAC2;
}
.g2_91{
fill: #FFE4B8;
}
.g3_91{
fill: #000;
}
.g4_91{
fill: none;
stroke: #8ED8F8;
stroke-width: 0.763;
stroke-miterlimit: 2;
}
.g5_91{
fill: none;
stroke: #000;
stroke-width: 0.763;
stroke-miterlimit: 2;
}
.g6_91{
fill: none;
stroke: #0EA5DF;
stroke-width: 3.055;
}
.g7_91{
fill: #E8F1FA;
}
.g8_91{
fill: none;
stroke: #8ED8F8;
stroke-width: 0.687;
stroke-miterlimit: 2;
}
.g9_91{
fill: none;
stroke: #000;
stroke-width: 0.152;
stroke-miterlimit: 2;
}
.ga_91{
fill: none;
stroke: #000;
stroke-width: 0.687;
stroke-miterlimit: 2;
}
.gb_91{
fill: none;
stroke: #000;
stroke-width: 1.385;
stroke-miterlimit: 2;
}
.gc_91{
fill: #0EA5DF;
}
]]></style>
</defs>
<path d="M835.8,1131h73.6v-51.5H835.8V1131Z" class="g0_91"/>
<path fill-rule="evenodd" d="M349.3,433.2h-75l113.3,91.2h74.9Z" class="g1_91"/>
<path fill-rule="evenodd" d="M275.1,434.4l112.8,90l-182.1,-.7Z" class="g2_91"/>
<path fill-rule="evenodd" d="M203,531.3l-3.5,4.8h3.1Zm1.8,-3l-.9,10.1c-.1,.5,-.1,.8,-.1,.9c0,.3,.1,.5,.2,.6c.1,.2,.2,.3,.4,.4c.2,.1,.5,.1,1,.1l-.1,.3h-4.8l.1,-.3h.2c.4,0,.7,-.1,1,-.2c.1,-.2,.3,-.3,.4,-.6c0,-.2,.1,-.6,.2,-1.3l.1,-1.6H199l-1.2,1.7c-.3,.4,-.5,.7,-.5,.8c-.1,.2,-.1,.3,-.1,.5c0,.2,0,.3,.2,.5c.2,.1,.4,.2,.8,.2l-.1,.3h-3.6l.1,-.3c.4,0,.8,-.2,1.1,-.4c.4,-.3,.9,-.9,1.6,-1.8l7.2,-9.9Z" class="g3_91"/>
<path fill-rule="evenodd" d="M463.6,540.1c.6,.1,1.1,.1,1.5,.1c.9,0,1.7,-.3,2.5,-.9c.7,-.5,1,-1.3,1,-2.2c0,-.8,-.2,-1.3,-.6,-1.8c-.5,-.4,-1.2,-.6,-2.2,-.6c-.2,0,-.4,0,-.7,.1Zm1.7,-6c.4,0,.7,0,.9,0c1.2,0,2.1,-.3,2.8,-.8c.6,-.5,.9,-1.2,.9,-2c0,-.6,-.2,-1.1,-.6,-1.5c-.4,-.3,-1,-.5,-1.8,-.5c-.2,0,-.5,0,-.8,.1ZM463.5,529l.2,-.3H468c.7,0,1.4,.1,1.9,.4c.6,.2,1,.5,1.3,.9c.3,.4,.4,.8,.4,1.3c0,.7,-.2,1.3,-.7,1.9c-.5,.5,-1.3,1,-2.5,1.2c.7,.3,1.3,.7,1.6,1.1c.4,.5,.6,1,.6,1.5c0,.6,-.2,1.2,-.5,1.8c-.3,.5,-.7,.9,-1.2,1.2c-.5,.3,-1.1,.6,-1.8,.7c-.5,.1,-1.2,.2,-2.3,.2h-4.4l.1,-.4c.5,0,.8,0,1,-.1c.2,-.1,.4,-.2,.5,-.4c.1,-.2,.3,-.8,.5,-1.6l2.2,-7.3c.2,-.6,.3,-1.1,.3,-1.3c0,-.2,-.1,-.4,-.3,-.6c-.1,-.1,-.4,-.1,-.9,-.1c-.1,0,-.2,0,-.3,-.1Z" class="g3_91"/>
<path fill-rule="evenodd" d="M387.5,530.9l1.1,9.7l7,-9.7h3v.3c-.6,0,-1,.1,-1.1,.1c-.2,.1,-.4,.3,-.6,.5c-.1,.2,-.3,.7,-.5,1.3l-2.3,7.7c-.1,.5,-.2,.8,-.2,1.1c0,.2,.1,.4,.3,.5c.2,.2,.6,.3,1.1,.3h.2l-.1,.3h-5.1l.1,-.3h.2c.5,0,.8,-.1,1.1,-.2c.1,-.1,.3,-.3,.5,-.6c.1,-.2,.3,-.8,.6,-1.7l2,-7.1l-7.1,9.9h-.4l-1.1,-9.9l-2.2,7.5c-.2,.7,-.2,1.1,-.2,1.3c0,.2,0,.4,.2,.5c.2,.1,.5,.2,1.2,.3l-.1,.3h-4l.1,-.3h.2c.6,0,1,-.2,1.3,-.5c.2,-.2,.4,-.7,.6,-1.4l2.6,-9c-.2,-.2,-.4,-.4,-.5,-.4c-.2,-.1,-.5,-.2,-1,-.2l.1,-.3Z" class="g3_91"/>
<path clip-path="url(#c0_91)" d="M187.1,433.7H474M187.1,464.1H474M187.1,494.4H474M187.1,524.7H474" class="g4_91"/>
<path d="M275.1,434.4l112.8,90l-182.1,-.7l69.3,-89.3Zm74.2,-1.2h-75l113.3,91.2h74.9L349.3,433.2Z" class="g5_91"/>
<path fill-rule="evenodd" d="M257.9,428.5l-2.6,9c-.2,.7,-.3,1.1,-.3,1.3c0,.1,0,.2,.1,.3c0,.1,.1,.1,.2,.2c.2,0,.4,0,.8,0c.9,0,1.8,-.1,2.6,-.3c.8,-.1,1.5,-.4,2,-.8c.7,-.6,1.3,-1.3,1.7,-2.3c.4,-1,.7,-2.1,.7,-3.3c0,-1.4,-.4,-2.5,-1,-3.2c-.7,-.6,-1.7,-1,-3,-1c-.3,0,-.7,0,-1.2,.1m-3.2,-.4l.1,-.3h3.9c1.7,0,2.9,.2,3.7,.5c.8,.4,1.4,1,1.9,1.8c.4,.8,.7,1.7,.7,2.6c0,.8,-.2,1.6,-.4,2.3c-.3,.8,-.6,1.4,-1,1.8c-.3,.5,-.8,1,-1.6,1.5c-.7,.6,-1.4,1,-2.3,1.2c-.8,.3,-1.8,.4,-3.1,.4h-5.1l.1,-.3c.5,0,.8,-.1,1,-.1c.2,-.1,.4,-.3,.5,-.5c.2,-.2,.4,-.7,.6,-1.5l2.1,-7.3c.2,-.6,.3,-1,.3,-1.4c0,-.2,-.1,-.4,-.3,-.5c-.1,-.1,-.4,-.2,-.9,-.2Z" class="g3_91"/>
<path fill-rule="evenodd" d="M376.4,428l-.9,4h-.3l-.1,-1c0,-.4,-.1,-.7,-.2,-1c-.1,-.3,-.2,-.5,-.5,-.7c-.2,-.2,-.4,-.4,-.8,-.5c-.3,-.1,-.7,-.2,-1.1,-.2c-1,0,-2,.3,-2.8,.9c-1,.8,-1.8,1.8,-2.4,3.2c-.4,1.1,-.7,2.2,-.7,3.4c0,1.2,.4,2.1,1,2.8c.7,.7,1.6,1.1,2.7,1.1c.9,0,1.6,-.2,2.2,-.6c.7,-.4,1.3,-.9,1.8,-1.7h.5c-.7,1,-1.4,1.8,-2.2,2.3c-.8,.5,-1.8,.7,-2.9,.7c-1,0,-1.9,-.2,-2.6,-.6c-.8,-.4,-1.4,-1,-1.8,-1.7c-.4,-.8,-.6,-1.6,-.6,-2.5c0,-1.3,.4,-2.6,1.1,-3.8c.7,-1.3,1.7,-2.3,2.9,-3c1.3,-.7,2.5,-1.1,3.8,-1.1c.6,0,1.2,.2,2,.5c.3,.1,.5,.1,.7,.1c.1,0,.2,0,.3,0c.1,-.1,.3,-.3,.6,-.6Z" class="g3_91"/>
<path d="M73.6,301.3H835.8" class="g6_91"/>
<path d="M185.1,1077.3H835.8V705H185.1v372.3Z" class="g7_91"/>
<path d="M73.6,703.5H835.8" class="g6_91"/>
<path clip-path="url(#c1_91)" d="M167.7,147.4h18.2v18.1H167.7V147.4Zm0,18.1h18.2v18.2H167.7V165.5Zm0,18.2h18.2v18.2H167.7V183.7Zm0,18.2h18.2v18.2H167.7V201.9Zm0,18.2h18.2v18.2H167.7V220.1Zm0,18.2h18.2v18.1H167.7V238.3Zm0,18.1h18.2v18.2H167.7V256.4Zm0,18.2h18.2v18.2H167.7V274.6Zm0,18.2h18.2V311H167.7V292.8ZM185.9,147.4h18.2v18.1H185.9V147.4Zm0,18.1h18.2v18.2H185.9V165.5Zm0,18.2h18.2v18.2H185.9V183.7Zm0,18.2h18.2v18.2H185.9V201.9Zm0,18.2h18.2v18.2H185.9V220.1Zm0,18.2h18.2v18.1H185.9V238.3Zm0,18.1h18.2v18.2H185.9V256.4Zm0,18.2h18.2v18.2H185.9V274.6Zm0,18.2h18.2V311H185.9V292.8ZM204.1,147.4h18.1v18.1H204.1V147.4Zm0,18.1h18.1v18.2H204.1V165.5Zm0,18.2h18.1v18.2H204.1V183.7Zm0,18.2h18.1v18.2H204.1V201.9Zm0,18.2h18.1v18.2H204.1V220.1Zm0,18.2h18.1v18.1H204.1V238.3Zm0,18.1h18.1v18.2H204.1V256.4Zm0,18.2h18.1v18.2H204.1V274.6Zm0,18.2h18.1V311H204.1V292.8ZM222.2,147.4h18.2v18.1H222.2V147.4Zm0,18.1h18.2v18.2H222.2V165.5Zm0,18.2h18.2v18.2H222.2V183.7Zm0,18.2h18.2v18.2H222.2V201.9Zm0,18.2h18.2v18.2H222.2V220.1Zm0,18.2h18.2v18.1H222.2V238.3Zm0,18.1h18.2v18.2H222.2V256.4Zm0,18.2h18.2v18.2H222.2V274.6Zm0,18.2h18.2V311H222.2V292.8ZM240.4,147.4h18.2v18.1H240.4V147.4Zm0,18.1h18.2v18.2H240.4V165.5Zm0,18.2h18.2v18.2H240.4V183.7Zm0,18.2h18.2v18.2H240.4V201.9Zm0,18.2h18.2v18.2H240.4V220.1Zm0,18.2h18.2v18.1H240.4V238.3Zm0,18.1h18.2v18.2H240.4V256.4Zm0,18.2h18.2v18.2H240.4V274.6Zm0,18.2h18.2V311H240.4V292.8ZM258.6,147.4h18.2v18.1H258.6V147.4Zm0,18.1h18.2v18.2H258.6V165.5Zm0,18.2h18.2v18.2H258.6V183.7Zm0,18.2h18.2v18.2H258.6V201.9Zm0,18.2h18.2v18.2H258.6V220.1Zm0,18.2h18.2v18.1H258.6V238.3Zm0,18.1h18.2v18.2H258.6V256.4Zm0,18.2h18.2v18.2H258.6V274.6Zm0,18.2h18.2V311H258.6V292.8ZM276.8,147.4H295v18.1H276.8V147.4Zm0,18.1H295v18.2H276.8V165.5Zm0,18.2H295v18.2H276.8V183.7Zm0,18.2H295v18.2H276.8V201.9Zm0,18.2H295v18.2H276.8V220.1Zm0,18.2H295v18.1H276.8V238.3Zm0,18.1H295v18.2H276.8V256.4Zm0,18.2H295v18.2H276.8V274.6Zm0,18.2H295V311H276.8V292.8ZM295,147.4h18.2v18.1H295V147.4Zm0,18.1h18.2v18.2H295V165.5Zm0,18.2h18.2v18.2H295V183.7Zm0,18.2h18.2v18.2H295V201.9Zm0,18.2h18.2v18.2H295V220.1Zm0,18.2h18.2v18.1H295V238.3Zm0,18.1h18.2v18.2H295V256.4Zm0,18.2h18.2v18.2H295V274.6Zm0,18.2h18.2V311H295V292.8ZM313.2,147.4h18.1v18.1H313.2V147.4Zm0,18.1h18.1v18.2H313.2V165.5Zm0,18.2h18.1v18.2H313.2V183.7Zm0,18.2h18.1v18.2H313.2V201.9Zm0,18.2h18.1v18.2H313.2V220.1Zm0,18.2h18.1v18.1H313.2V238.3Zm0,18.1h18.1v18.2H313.2V256.4Zm0,18.2h18.1v18.2H313.2V274.6Zm0,18.2h18.1V311H313.2V292.8ZM331.3,147.4h18.2v18.1H331.3V147.4Zm0,18.1h18.2v18.2H331.3V165.5Zm0,18.2h18.2v18.2H331.3V183.7Zm0,18.2h18.2v18.2H331.3V201.9Zm0,18.2h18.2v18.2H331.3V220.1Zm0,18.2h18.2v18.1H331.3V238.3Zm0,18.1h18.2v18.2H331.3V256.4Zm0,18.2h18.2v18.2H331.3V274.6Zm0,18.2h18.2V311H331.3V292.8ZM349.5,147.4h18.2v18.1H349.5V147.4Zm0,18.1h18.2v18.2H349.5V165.5Zm0,18.2h18.2v18.2H349.5V183.7Zm0,18.2h18.2v18.2H349.5V201.9Zm0,18.2h18.2v18.2H349.5V220.1Zm0,18.2h18.2v18.1H349.5V238.3Zm0,18.1h18.2v18.2H349.5V256.4Zm0,18.2h18.2v18.2H349.5V274.6Zm0,18.2h18.2V311H349.5V292.8ZM367.7,147.4h18.2v18.1H367.7V147.4Zm0,18.1h18.2v18.2H367.7V165.5Zm0,18.2h18.2v18.2H367.7V183.7Zm0,18.2h18.2v18.2H367.7V201.9Zm0,18.2h18.2v18.2H367.7V220.1Zm0,18.2h18.2v18.1H367.7V238.3Zm0,18.1h18.2v18.2H367.7V256.4Zm0,18.2h18.2v18.2H367.7V274.6Zm0,18.2h18.2V311H367.7V292.8Z" class="g8_91"/>
<path fill-rule="evenodd" d="M194.3,170.8l.1,-.3h3.4c1.5,0,2.6,.2,3.3,.6c.7,.3,1.3,.8,1.7,1.6c.5,.7,.7,1.5,.7,2.3c0,.7,-.2,1.4,-.4,2.1c-.2,.7,-.5,1.2,-.8,1.6c-.3,.4,-.8,.9,-1.5,1.3c-.6,.5,-1.3,.9,-2,1.1c-.8,.3,-1.7,.4,-2.8,.4h-4.7l.2,-.3c.4,0,.7,-.1,.8,-.1c.2,-.1,.4,-.3,.5,-.4c.1,-.2,.3,-.7,.5,-1.4l1.9,-6.6c.2,-.5,.3,-.9,.3,-1.2c0,-.2,-.1,-.4,-.2,-.5c-.2,-.1,-.5,-.2,-.9,-.2Zm2.8,.4l-2.4,8.1c-.1,.6,-.2,1,-.2,1.2q0,.1,.1,.2c0,.1,.1,.1,.2,.2c.1,0,.4,0,.7,0c.8,0,1.6,0,2.3,-.2c.7,-.2,1.3,-.4,1.8,-.8c.7,-.5,1.2,-1.2,1.6,-2.1c.4,-.8,.6,-1.8,.6,-2.9c0,-1.3,-.3,-2.2,-.9,-2.9c-.6,-.6,-1.5,-.9,-2.7,-.9c-.3,0,-.6,0,-1.1,.1Z" class="g3_91"/>
<path d="M194.3,170.8l.1,-.3h3.4c1.5,0,2.6,.2,3.3,.6c.7,.3,1.3,.8,1.7,1.6c.5,.7,.7,1.5,.7,2.3c0,.7,-.2,1.4,-.4,2.1c-.2,.7,-.5,1.2,-.8,1.6c-.3,.4,-.8,.9,-1.5,1.3c-.6,.5,-1.3,.9,-2,1.1c-.8,.3,-1.7,.4,-2.8,.4h-4.7l.2,-.3c.4,0,.7,-.1,.8,-.1c.2,-.1,.4,-.3,.5,-.4c.1,-.2,.3,-.7,.5,-1.4l1.9,-6.6c.2,-.5,.3,-.9,.3,-1.2c0,-.2,-.1,-.4,-.2,-.5c-.2,-.1,-.5,-.2,-.9,-.2h-.1Zm2.8,.4l-2.4,8.1c-.1,.6,-.2,1,-.2,1.2q0,.1,.1,.2c0,.1,.1,.1,.2,.2c.1,0,.4,0,.7,0c.8,0,1.6,0,2.3,-.2c.7,-.2,1.3,-.4,1.8,-.8c.7,-.5,1.2,-1.2,1.6,-2.1c.4,-.8,.6,-1.8,.6,-2.9c0,-1.3,-.3,-2.2,-.9,-2.9c-.6,-.6,-1.5,-.9,-2.7,-.9c-.3,0,-.6,0,-1.1,.1Z" class="g9_91"/>
<path fill-rule="evenodd" d="M326.8,170.9l-.8,3.5h-.3v-.9c0,-.3,-.1,-.6,-.2,-.8c-.1,-.3,-.2,-.5,-.4,-.7c-.2,-.2,-.5,-.3,-.8,-.4c-.3,-.1,-.6,-.2,-.9,-.2c-1,0,-1.8,.3,-2.6,.8c-.9,.7,-1.6,1.6,-2.1,2.9c-.5,1,-.7,2,-.7,3c0,1.1,.3,1.9,1,2.6c.6,.6,1.4,.9,2.4,.9c.7,0,1.4,-.2,2,-.5c.5,-.3,1.1,-.8,1.6,-1.5h.4c-.6,.9,-1.3,1.6,-2,2c-.7,.5,-1.6,.7,-2.6,.7c-.9,0,-1.7,-.2,-2.4,-.5c-.6,-.4,-1.2,-.9,-1.5,-1.6c-.4,-.7,-.6,-1.4,-.6,-2.2c0,-1.2,.3,-2.4,1,-3.5c.6,-1.1,1.5,-2,2.6,-2.6c1.1,-.7,2.3,-1,3.4,-1c.5,0,1.1,.1,1.8,.4c.3,.1,.5,.1,.6,.1c.1,0,.2,0,.3,-.1c.1,0,.3,-.2,.5,-.4Z" class="g3_91"/>
<path d="M326.8,170.9l-.8,3.5h-.3v-.9c0,-.3,-.1,-.6,-.2,-.8c-.1,-.3,-.2,-.5,-.4,-.7c-.2,-.2,-.5,-.3,-.8,-.4c-.3,-.1,-.6,-.2,-.9,-.2c-1,0,-1.8,.3,-2.6,.8c-.9,.7,-1.6,1.6,-2.1,2.9c-.5,1,-.7,2,-.7,3c0,1.1,.3,1.9,1,2.6c.6,.6,1.4,.9,2.4,.9c.7,0,1.4,-.2,2,-.5c.5,-.3,1.1,-.8,1.6,-1.5h.4c-.6,.9,-1.3,1.6,-2,2c-.7,.5,-1.6,.7,-2.6,.7c-.9,0,-1.7,-.2,-2.4,-.5c-.6,-.4,-1.2,-.9,-1.5,-1.6c-.4,-.7,-.6,-1.4,-.6,-2.2c0,-1.2,.3,-2.4,1,-3.5c.6,-1.1,1.5,-2,2.6,-2.6c1.1,-.7,2.3,-1,3.4,-1c.5,0,1.1,.1,1.8,.4c.3,.1,.5,.1,.6,.1c.1,0,.2,0,.3,-.1c.1,0,.3,-.2,.5,-.4h.3Z" class="g9_91"/>
<path fill-rule="evenodd" d="M200.5,257.4l-.8,9.1c0,.4,0,.7,0,.8c0,.2,0,.4,.1,.5c.1,.2,.2,.3,.4,.3c.2,.1,.5,.2,.9,.2l-.1,.3h-4.3l.1,-.3h.2c.3,0,.6,-.1,.8,-.3c.2,-.1,.3,-.2,.4,-.5c0,-.1,.1,-.5,.1,-1.2l.2,-1.3h-3.2l-1.1,1.5c-.2,.3,-.4,.6,-.4,.7c-.1,.1,-.1,.3,-.1,.4c0,.2,0,.3,.2,.5c.1,.1,.3,.1,.7,.2l-.1,.3h-3.3l.1,-.3c.4,-.1,.8,-.2,1.1,-.4c.3,-.3,.7,-.8,1.3,-1.6l6.6,-8.9Zm-1.5,2.7l-3.2,4.3h2.7Z" class="g3_91"/>
<path d="M200.5,257.4l-.8,9.1c0,.4,0,.7,0,.8c0,.2,0,.4,.1,.5c.1,.2,.2,.3,.4,.3c.2,.1,.5,.2,.9,.2l-.1,.3h-4.3l.1,-.3h.2c.3,0,.6,-.1,.8,-.3c.2,-.1,.3,-.2,.4,-.5c0,-.1,.1,-.5,.1,-1.2l.2,-1.3h-3.2l-1.1,1.5c-.2,.3,-.4,.6,-.4,.7c-.1,.1,-.1,.3,-.1,.4c0,.2,0,.3,.2,.5c.1,.1,.3,.1,.7,.2l-.1,.3h-3.3l.1,-.3c.4,-.1,.8,-.2,1.1,-.4c.3,-.3,.7,-.8,1.3,-1.6l6.6,-8.9h.2Zm-1.5,2.7l-3.2,4.3h2.7l.5,-4.3Z" class="g9_91"/>
<path fill-rule="evenodd" d="M371.8,259.4l.1,-.3h3.9c.6,0,1.2,.1,1.7,.3c.6,.2,.9,.5,1.2,.9c.3,.4,.4,.7,.4,1.2c0,.6,-.2,1.1,-.7,1.7c-.5,.5,-1.2,.8,-2.2,1.1c.6,.2,1.1,.6,1.4,1c.3,.4,.5,.8,.5,1.3c0,.6,-.1,1.1,-.4,1.6c-.3,.5,-.7,.8,-1.1,1.1c-.4,.3,-1,.5,-1.6,.6c-.4,.1,-1.1,.2,-2,.2h-4l.1,-.3c.4,-.1,.7,-.1,.8,-.2c.2,-.1,.4,-.2,.5,-.3c.1,-.2,.3,-.7,.5,-1.4l1.9,-6.6c.2,-.6,.3,-1,.3,-1.2c0,-.2,-.1,-.4,-.2,-.5c-.2,-.1,-.4,-.2,-.9,-.2q-.1,0,-.2,0m1.6,4.6c.4,0,.6,0,.8,0c1.1,0,1.9,-.3,2.5,-.7c.5,-.5,.8,-1.1,.8,-1.9c0,-.5,-.2,-1,-.5,-1.3c-.3,-.3,-.9,-.4,-1.6,-.4c-.2,0,-.5,0,-.8,.1Zm-1.6,5.3c.6,.1,1.1,.2,1.4,.2c.8,0,1.6,-.3,2.2,-.8c.7,-.5,1,-1.2,1,-2c0,-.7,-.2,-1.2,-.6,-1.6c-.4,-.4,-1.1,-.6,-2,-.6c-.1,0,-.3,.1,-.6,.1Z" class="g3_91"/>
<path d="M371.8,259.4l.1,-.3h3.9c.6,0,1.2,.1,1.7,.3c.6,.2,.9,.5,1.2,.9c.3,.4,.4,.7,.4,1.2c0,.6,-.2,1.1,-.7,1.7c-.5,.5,-1.2,.8,-2.2,1.1c.6,.2,1.1,.6,1.4,1c.3,.4,.5,.8,.5,1.3c0,.6,-.1,1.1,-.4,1.6c-.3,.5,-.7,.8,-1.1,1.1c-.4,.3,-1,.5,-1.6,.6c-.4,.1,-1.1,.2,-2,.2h-4l.1,-.3c.4,-.1,.7,-.1,.8,-.2c.2,-.1,.4,-.2,.5,-.3c.1,-.2,.3,-.7,.5,-1.4l1.9,-6.6c.2,-.6,.3,-1,.3,-1.2c0,-.2,-.1,-.4,-.2,-.5c-.2,-.1,-.4,-.2,-.9,-.2q-.1,0,-.2,0Zm1.6,4.6c.4,0,.6,0,.8,0c1.1,0,1.9,-.3,2.5,-.7c.5,-.5,.8,-1.1,.8,-1.9c0,-.5,-.2,-1,-.5,-1.3c-.3,-.3,-.9,-.4,-1.6,-.4c-.2,0,-.5,0,-.8,.1l-1.2,4.2Zm-1.6,5.3c.6,.1,1.1,.2,1.4,.2c.8,0,1.6,-.3,2.2,-.8c.7,-.5,1,-1.2,1,-2c0,-.7,-.2,-1.2,-.6,-1.6c-.4,-.4,-1.1,-.6,-2,-.6c-.1,0,-.3,.1,-.6,.1l-1.4,4.7Z" class="g9_91"/>
<path d="M203.4,246.5c7.3,.4,10.7,3.8,10.3,10.3m-8.6,-63.1c7.3,-.4,10.8,-3.9,10.3,-10.3" class="ga_91"/>
<path fill-rule="evenodd" d="M208.4,252c.4,.2,.6,.7,.4,1.1c-.2,.4,-.7,.6,-1.1,.4c-.4,-.2,-.6,-.7,-.4,-1.1c.2,-.4,.7,-.6,1.1,-.4Z" class="g3_91"/>
<path d="M208.4,252c.4,.2,.6,.7,.4,1.1c-.2,.4,-.7,.6,-1.1,.4c-.4,-.2,-.6,-.7,-.4,-1.1c.2,-.4,.7,-.6,1.1,-.4Z" class="g9_91"/>
<path fill-rule="evenodd" d="M210.2,188.1c.4,-.2,.5,-.6,.3,-1c-.2,-.4,-.7,-.6,-1.1,-.4c-.4,.2,-.5,.7,-.3,1.1c.2,.4,.7,.5,1.1,.3Z" class="g3_91"/>
<path d="M210.2,188.1c.4,-.2,.5,-.6,.3,-1c-.2,-.4,-.7,-.6,-1.1,-.4c-.4,.2,-.5,.7,-.3,1.1c.2,.4,.7,.5,1.1,.3Z" class="g9_91"/>
<path d="M204.5,183l109.2,-.1l54.5,74H204.4l.1,-73.9Zm145,-17.2h18.7" class="ga_91"/>
<path d="M349.5,162.2v7.2m18.7,-7.2v7.2" class="gb_91"/>
<path fill-rule="evenodd" d="M336.1,149.8l2.6,-1.3h.3v9.2c0,.6,0,1,.1,1.2c0,.1,.1,.2,.3,.3c.1,.1,.5,.1,1,.2v.3h-4.2v-.3c.6,-.1,.9,-.1,1,-.2c.2,-.1,.3,-.2,.4,-.3c0,-.1,0,-.5,0,-1.2v-5.9c0,-.8,0,-1.3,0,-1.5c-.1,-.2,-.1,-.3,-.2,-.4c-.1,-.1,-.3,-.1,-.4,-.1c-.2,0,-.5,.1,-.8,.3Z" class="g3_91"/>
<path d="M336.1,149.8l2.6,-1.3h.3v9.2c0,.6,0,1,.1,1.2c0,.1,.1,.2,.3,.3c.1,.1,.5,.1,1,.2v.3h-4.2v-.3c.6,-.1,.9,-.1,1,-.2c.2,-.1,.3,-.2,.4,-.3c0,-.1,0,-.5,0,-1.2v-5.9c0,-.8,0,-1.3,0,-1.5c-.1,-.2,-.1,-.3,-.2,-.4c-.1,-.1,-.3,-.1,-.4,-.1c-.2,0,-.5,.1,-.8,.3l-.1,-.3Z" class="g9_91"/>
<path fill-rule="evenodd" d="M351.8,157.7l2.3,-5.4h2.5v.3c-.4,0,-.6,0,-.8,.1c-.1,.1,-.2,.2,-.2,.3c-.1,.1,-.1,.4,-.1,1v3.9c0,.5,0,.9,0,1c.1,.2,.2,.3,.3,.3c.2,.1,.4,.2,.8,.2v.3H353v-.3c.4,0,.7,-.1,.9,-.3c.1,-.2,.2,-.5,.2,-1.2v-4.4l-2.6,6.2h-.3l-2.6,-6.2v4.4c0,.5,0,.9,0,1c.1,.2,.2,.3,.4,.3c.1,.1,.4,.2,.7,.2v.3h-2.8v-.3c.4,0,.7,-.1,.9,-.3c.1,-.2,.2,-.6,.2,-1.2V154c0,-.6,0,-.9,-.1,-1c-.1,-.1,-.2,-.2,-.3,-.3c-.1,-.1,-.4,-.1,-.7,-.1v-.3h2.6Z" class="g3_91"/>
<path d="M351.8,157.7l2.3,-5.4h2.5v.3c-.4,0,-.6,0,-.8,.1c-.1,.1,-.2,.2,-.2,.3c-.1,.1,-.1,.4,-.1,1v3.9c0,.5,0,.9,0,1c.1,.2,.2,.3,.3,.3c.2,.1,.4,.2,.8,.2v.3H353v-.3c.4,0,.7,-.1,.9,-.3c.1,-.2,.2,-.5,.2,-1.2v-4.4l-2.6,6.2h-.3l-2.6,-6.2v4.4c0,.5,0,.9,0,1c.1,.2,.2,.3,.4,.3c.1,.1,.4,.2,.7,.2v.3h-2.8v-.3c.4,0,.7,-.1,.9,-.3c.1,-.2,.2,-.6,.2,-1.2V154c0,-.6,0,-.9,-.1,-1c-.1,-.1,-.2,-.2,-.3,-.3c-.1,-.1,-.4,-.1,-.7,-.1v-.3h2.6l2.3,5.4Z" class="g9_91"/>
<path fill-rule="evenodd" d="M359,158.1c.3,0,.5,.1,.6,.3c.2,.1,.3,.3,.3,.6c0,.2,-.1,.4,-.3,.6c-.1,.2,-.4,.3,-.6,.3c-.2,0,-.5,-.1,-.6,-.3c-.2,-.2,-.3,-.4,-.3,-.6c0,-.3,.1,-.5,.3,-.6c.1,-.2,.4,-.3,.6,-.3Z" class="g3_91"/>
<path d="M359,158.1c.3,0,.5,.1,.6,.3c.2,.1,.3,.3,.3,.6c0,.2,-.1,.4,-.3,.6c-.1,.2,-.4,.3,-.6,.3c-.2,0,-.5,-.1,-.6,-.3c-.2,-.2,-.3,-.4,-.3,-.6c0,-.3,.1,-.5,.3,-.6c.1,-.2,.4,-.3,.6,-.3Z" class="g9_91"/>
<path fill-rule="evenodd" d="M362.8,155.1c0,1.1,.3,1.9,.8,2.5c.6,.7,1.2,1,1.9,1c.5,0,.9,-.2,1.3,-.4c.3,-.3,.6,-.8,.9,-1.4l.2,.2c-.1,.7,-.4,1.4,-1,2c-.5,.6,-1.2,.9,-2,.9c-.9,0,-1.6,-.4,-2.3,-1.1c-.6,-.6,-.9,-1.6,-.9,-2.7c0,-1.3,.3,-2.3,.9,-3c.7,-.7,1.5,-1,2.5,-1c.8,0,1.5,.2,2,.8c.6,.5,.8,1.2,.8,2.2Zm0,-.5h3.4c0,-.5,0,-.8,-.1,-1c-.2,-.3,-.4,-.5,-.6,-.7c-.3,-.2,-.6,-.3,-.9,-.3c-.4,0,-.8,.2,-1.2,.5c-.3,.4,-.5,.9,-.6,1.5Z" class="g3_91"/>
<path d="M362.8,155.1c0,1.1,.3,1.9,.8,2.5c.6,.7,1.2,1,1.9,1c.5,0,.9,-.2,1.3,-.4c.3,-.3,.6,-.8,.9,-1.4l.2,.2c-.1,.7,-.4,1.4,-1,2c-.5,.6,-1.2,.9,-2,.9c-.9,0,-1.6,-.4,-2.3,-1.1c-.6,-.6,-.9,-1.6,-.9,-2.7c0,-1.3,.3,-2.3,.9,-3c.7,-.7,1.5,-1,2.5,-1c.8,0,1.5,.2,2,.8c.6,.5,.8,1.2,.8,2.2h-5.1Zm0,-.5h3.4c0,-.5,0,-.8,-.1,-1c-.2,-.3,-.4,-.5,-.6,-.7c-.3,-.2,-.6,-.3,-.9,-.3c-.4,0,-.8,.2,-1.2,.5c-.3,.4,-.5,.9,-.6,1.5Z" class="g9_91"/>
<path fill-rule="evenodd" d="M369.7,152.3h6.5v.3c-.4,0,-.6,0,-.7,.1c-.2,.1,-.2,.2,-.3,.3c-.1,.1,-.1,.4,-.1,1v3.7c0,.7,0,1.2,.2,1.4c.1,.1,.4,.2,.9,.3v2.3h-.3c0,-.4,-.1,-.8,-.3,-1.2c-.2,-.3,-.5,-.5,-.8,-.6c-.4,-.2,-.9,-.2,-1.6,-.2h-1.9c-.6,0,-1.1,0,-1.4,.1c-.3,.1,-.6,.3,-.8,.7c-.2,.3,-.4,.7,-.4,1.2h-.3v-2.3c.4,-.1,.8,-.2,1.2,-.6c.3,-.3,.7,-.9,.9,-1.9c.3,-1,.4,-2,.4,-2.9c0,-.9,-.4,-1.4,-1.2,-1.4Zm1.8,.5v.4c0,2.7,-.5,4.6,-1.5,5.9h2.8c.5,0,.8,0,.8,-.1c.1,-.1,.1,-.4,.1,-.9v-5.3Z" class="g3_91"/>
<path d="M369.7,152.3h6.5v.3c-.4,0,-.6,0,-.7,.1c-.2,.1,-.2,.2,-.3,.3c-.1,.1,-.1,.4,-.1,1v3.7c0,.7,0,1.2,.2,1.4c.1,.1,.4,.2,.9,.3v2.3h-.3c0,-.4,-.1,-.8,-.3,-1.2c-.2,-.3,-.5,-.5,-.8,-.6c-.4,-.2,-.9,-.2,-1.6,-.2h-1.9c-.6,0,-1.1,0,-1.4,.1c-.3,.1,-.6,.3,-.8,.7c-.2,.3,-.4,.7,-.4,1.2h-.3v-2.3c.4,-.1,.8,-.2,1.2,-.6c.3,-.3,.7,-.9,.9,-1.9c.3,-1,.4,-2,.4,-2.9c0,-.9,-.4,-1.4,-1.2,-1.4v-.3Zm1.8,.5v.4c0,2.7,-.5,4.6,-1.5,5.9h2.8c.5,0,.8,0,.8,-.1c.1,-.1,.1,-.4,.1,-.9v-5.3h-2.2Z" class="g9_91"/>
<path fill-rule="evenodd" d="M378.6,158.1c.3,0,.5,.1,.7,.3c.1,.1,.2,.3,.2,.6c0,.2,-.1,.4,-.2,.6c-.2,.2,-.4,.3,-.7,.3c-.2,0,-.4,-.1,-.6,-.3c-.2,-.2,-.3,-.4,-.3,-.6c0,-.3,.1,-.5,.3,-.6c.2,-.2,.4,-.3,.6,-.3Z" class="g3_91"/>
<path d="M378.6,158.1c.3,0,.5,.1,.7,.3c.1,.1,.2,.3,.2,.6c0,.2,-.1,.4,-.2,.6c-.2,.2,-.4,.3,-.7,.3c-.2,0,-.4,-.1,-.6,-.3c-.2,-.2,-.3,-.4,-.3,-.6c0,-.3,.1,-.5,.3,-.6c.2,-.2,.4,-.3,.6,-.3Z" class="g9_91"/>
<path fill-rule="evenodd" d="M346.3,203.7l-.6,1.4h-3.3l-.7,1.4c1.4,.2,2.5,.8,3.4,1.6c.7,.7,1.1,1.6,1.1,2.6c0,.6,-.2,1.1,-.4,1.6c-.2,.5,-.5,.9,-.9,1.2c-.3,.4,-.7,.7,-1.2,.9c-.6,.3,-1.2,.4,-1.9,.4c-.6,0,-1.1,-.1,-1.4,-.3c-.3,-.2,-.4,-.5,-.4,-.8c0,-.1,0,-.2,.1,-.4c.2,-.1,.3,-.1,.5,-.1c.1,0,.3,0,.4,0c.1,.1,.3,.2,.5,.4c.4,.2,.8,.4,1.2,.4c.7,0,1.2,-.3,1.7,-.7c.5,-.5,.7,-1.1,.7,-1.8c0,-.6,-.2,-1.2,-.6,-1.8c-.5,-.6,-1,-1,-1.8,-1.3c-.6,-.3,-1.4,-.4,-2.4,-.5l2.1,-4.2Z" class="g3_91"/>
<path d="M346.3,203.7l-.6,1.4h-3.3l-.7,1.4c1.4,.2,2.5,.8,3.4,1.6c.7,.7,1.1,1.6,1.1,2.6c0,.6,-.2,1.1,-.4,1.6c-.2,.5,-.5,.9,-.9,1.2c-.3,.4,-.7,.7,-1.2,.9c-.6,.3,-1.2,.4,-1.9,.4c-.6,0,-1.1,-.1,-1.4,-.3c-.3,-.2,-.4,-.5,-.4,-.8c0,-.1,0,-.2,.1,-.4c.2,-.1,.3,-.1,.5,-.1c.1,0,.3,0,.4,0c.1,.1,.3,.2,.5,.4c.4,.2,.8,.4,1.2,.4c.7,0,1.2,-.3,1.7,-.7c.5,-.5,.7,-1.1,.7,-1.8c0,-.6,-.2,-1.2,-.6,-1.8c-.5,-.6,-1,-1,-1.8,-1.3c-.6,-.3,-1.4,-.4,-2.4,-.5l2.1,-4.2h3.9Z" class="g9_91"/>
<path fill-rule="evenodd" d="M356.8,212.7l2.3,-5.5h2.5v.3c-.3,0,-.6,.1,-.7,.2c-.1,0,-.2,.1,-.3,.2c-.1,.1,-.1,.5,-.1,1.1v3.9c0,.5,0,.8,.1,1c0,.1,.1,.2,.3,.3c.2,.1,.4,.1,.7,.1v.3h-3.5v-.3c.4,0,.7,-.1,.8,-.2c.2,-.2,.3,-.6,.3,-1.2v-4.4l-2.6,6.1h-.3l-2.7,-6.1v4.4c0,.5,0,.8,.1,1c0,.1,.2,.2,.3,.3c.2,.1,.4,.1,.7,.1v.3h-2.8v-.3c.5,0,.8,-.1,.9,-.2c.2,-.2,.2,-.6,.2,-1.2V209c0,-.6,0,-.9,-.1,-1c0,-.2,-.1,-.2,-.2,-.3c-.2,-.1,-.4,-.2,-.8,-.2v-.3h2.6Z" class="g3_91"/>
<path d="M356.8,212.7l2.3,-5.5h2.5v.3c-.3,0,-.6,.1,-.7,.2c-.1,0,-.2,.1,-.3,.2c-.1,.1,-.1,.5,-.1,1.1v3.9c0,.5,0,.8,.1,1c0,.1,.1,.2,.3,.3c.2,.1,.4,.1,.7,.1v.3h-3.5v-.3c.4,0,.7,-.1,.8,-.2c.2,-.2,.3,-.6,.3,-1.2v-4.4l-2.6,6.1h-.3l-2.7,-6.1v4.4c0,.5,0,.8,.1,1c0,.1,.2,.2,.3,.3c.2,.1,.4,.1,.7,.1v.3h-2.8v-.3c.5,0,.8,-.1,.9,-.2c.2,-.2,.2,-.6,.2,-1.2V209c0,-.6,0,-.9,-.1,-1c0,-.2,-.1,-.2,-.2,-.3c-.2,-.1,-.4,-.2,-.8,-.2v-.3h2.6l2.3,5.5Z" class="g9_91"/>
<path fill-rule="evenodd" d="M364,213.1c.3,0,.5,0,.7,.2c.2,.2,.2,.4,.2,.7c0,.2,0,.4,-.2,.6c-.2,.2,-.4,.2,-.7,.2c-.2,0,-.4,0,-.6,-.2c-.2,-.2,-.2,-.4,-.2,-.6c0,-.3,0,-.5,.2,-.7c.2,-.2,.4,-.2,.6,-.2Z" class="g3_91"/>
<path d="M364,213.1c.3,0,.5,0,.7,.2c.2,.2,.2,.4,.2,.7c0,.2,0,.4,-.2,.6c-.2,.2,-.4,.2,-.7,.2c-.2,0,-.4,0,-.6,-.2c-.2,-.2,-.2,-.4,-.2,-.6c0,-.3,0,-.5,.2,-.7c.2,-.2,.4,-.2,.6,-.2Z" class="g9_91"/>
<path fill-rule="evenodd" d="M367.9,210c0,1.1,.2,2,.8,2.6c.5,.6,1.1,.9,1.9,.9c.4,0,.9,-.1,1.2,-.4c.4,-.2,.7,-.7,.9,-1.3l.3,.1c-.2,.8,-.5,1.4,-1,2c-.6,.6,-1.2,.9,-2.1,.9c-.8,0,-1.6,-.3,-2.2,-1c-.7,-.7,-1,-1.6,-1,-2.8c0,-1.2,.3,-2.2,1,-2.9c.6,-.7,1.4,-1.1,2.4,-1.1c.9,0,1.5,.3,2.1,.8c.5,.6,.8,1.3,.8,2.2Zm0,-.4h3.4c0,-.5,-.1,-.9,-.2,-1c-.1,-.3,-.3,-.6,-.6,-.8c-.3,-.1,-.5,-.2,-.8,-.2c-.5,0,-.9,.2,-1.2,.5c-.4,.4,-.6,.8,-.6,1.5Z" class="g3_91"/>
<path d="M367.9,210c0,1.1,.2,2,.8,2.6c.5,.6,1.1,.9,1.9,.9c.4,0,.9,-.1,1.2,-.4c.4,-.2,.7,-.7,.9,-1.3l.3,.1c-.2,.8,-.5,1.4,-1,2c-.6,.6,-1.2,.9,-2.1,.9c-.8,0,-1.6,-.3,-2.2,-1c-.7,-.7,-1,-1.6,-1,-2.8c0,-1.2,.3,-2.2,1,-2.9c.6,-.7,1.4,-1.1,2.4,-1.1c.9,0,1.5,.3,2.1,.8c.5,.6,.8,1.3,.8,2.2h-5.1Zm0,-.4h3.4c0,-.5,-.1,-.9,-.2,-1c-.1,-.3,-.3,-.6,-.6,-.8c-.3,-.1,-.5,-.2,-.8,-.2c-.5,0,-.9,.2,-1.2,.5c-.4,.4,-.6,.8,-.6,1.5Z" class="g9_91"/>
<path fill-rule="evenodd" d="M374.7,207.2h6.5v.3c-.3,0,-.6,.1,-.7,.2c-.1,0,-.2,.1,-.3,.2c0,.1,-.1,.5,-.1,1.1v3.6c0,.8,.1,1.3,.2,1.4c.2,.2,.5,.3,.9,.3v2.4h-.3c0,-.5,-.1,-.9,-.3,-1.2c-.2,-.3,-.5,-.5,-.8,-.7c-.4,-.1,-.9,-.2,-1.6,-.2h-1.9c-.5,0,-1,.1,-1.3,.2c-.4,.1,-.6,.3,-.9,.6c-.2,.4,-.3,.8,-.4,1.3h-.3v-2.4c.5,0,.9,-.2,1.2,-.5c.4,-.3,.7,-1,1,-2c.2,-.9,.4,-1.9,.4,-2.8c0,-1,-.4,-1.4,-1.3,-1.5Zm1.8,.6v.4c0,2.6,-.5,4.6,-1.4,5.9h2.7c.5,0,.8,0,.9,-.1c.1,-.1,.1,-.4,.1,-.9v-5.3Z" class="g3_91"/>
<path d="M374.7,207.2h6.5v.3c-.3,0,-.6,.1,-.7,.2c-.1,0,-.2,.1,-.3,.2c0,.1,-.1,.5,-.1,1.1v3.6c0,.8,.1,1.3,.2,1.4c.2,.2,.5,.3,.9,.3v2.4h-.3c0,-.5,-.1,-.9,-.3,-1.2c-.2,-.3,-.5,-.5,-.8,-.7c-.4,-.1,-.9,-.2,-1.6,-.2h-1.9c-.5,0,-1,.1,-1.3,.2c-.4,.1,-.6,.3,-.9,.6c-.2,.4,-.3,.8,-.4,1.3h-.3v-2.4c.5,0,.9,-.2,1.2,-.5c.4,-.3,.7,-1,1,-2c.2,-.9,.4,-1.9,.4,-2.8c0,-1,-.4,-1.4,-1.3,-1.5v-.3Zm1.8,.6v.4c0,2.6,-.5,4.6,-1.4,5.9h2.7c.5,0,.8,0,.9,-.1c.1,-.1,.1,-.4,.1,-.9v-5.3h-2.3Z" class="g9_91"/>
<path fill-rule="evenodd" d="M383.7,213.1c.2,0,.4,0,.6,.2c.2,.2,.3,.4,.3,.7c0,.2,-.1,.4,-.3,.6c-.2,.2,-.4,.2,-.6,.2c-.3,0,-.5,0,-.7,-.2c-.1,-.2,-.2,-.4,-.2,-.6c0,-.3,.1,-.5,.2,-.7c.2,-.2,.4,-.2,.7,-.2Z" class="g3_91"/>
<path d="M383.7,213.1c.2,0,.4,0,.6,.2c.2,.2,.3,.4,.3,.7c0,.2,-.1,.4,-.3,.6c-.2,.2,-.4,.2,-.6,.2c-.3,0,-.5,0,-.7,-.2c-.1,-.2,-.2,-.4,-.2,-.6c0,-.3,.1,-.5,.2,-.7c.2,-.2,.4,-.2,.7,-.2Z" class="g9_91"/>
<path d="M73.6,66.5H835.8" class="g6_91"/>
<path d="M73.6,330.7H181V300.6H73.6v30.1Z" class="gc_91"/>
</svg>