<?xml version="1.0" encoding="UTF-8" standalone="no"?>
<!DOCTYPE svg PUBLIC "-//W3C//DTD SVG 1.1//EN"
"http://www.w3.org/Graphics/SVG/1.1/DTD/svg11.dtd">
<svg viewBox="0 0 909 1147" version="1.1" xmlns="http://www.w3.org/2000/svg" xmlns:xlink="http://www.w3.org/1999/xlink">
<defs>
<clipPath id="c0_33"><path d="M140.8,617.1v-18H171v18Z"/></clipPath>
<style type="text/css"><![CDATA[
.g0_33{
fill: #FAAF82;
}
.g1_33{
fill: none;
stroke: #000;
stroke-width: 0.763;
}
.g2_33{
fill: none;
stroke: #0EA5DF;
stroke-width: 3.055;
}
.g3_33{
fill: #FFF1E0;
}
.g4_33{
fill: #E8F1FA;
}
.g5_33{
fill: #0EA5DF;
}
.g6_33{
fill: #FFF;
}
.g7_33{
fill: #D5E7F7;
}
.g8_33{
fill: none;
stroke: #0EA5DF;
stroke-width: 0.763;
}
]]></style>
</defs>
<path d="M835.8,1129.8h73.6v-51.5H835.8v51.5Z" class="g0_33"/>
<path d="M218.8,204.7h28.6M260,238.2h28.6M551.5,202.7h28.6m12.7,33.5H635" class="g1_33"/>
<path d="M73.6,330.3H835.8" class="g2_33"/>
<path d="M186.3,755.7h648V589h-648V755.7Z" class="g3_33"/>
<path d="M184.7,1079.2H835.9V788.1H184.7v291.1Z" class="g4_33"/>
<path d="M73.6,788.9H836.9" class="g2_33"/>
<path d="M135.8,626.4h39.7V589H135.8v37.4Z" class="g5_33"/>
<path clip-path="url(#c0_33)" d="M156.1,611.5c-2.1,.2,-3.8,-1.5,-3.6,-3.6c.1,-1.7,1.5,-3.1,3.2,-3.2c2,-.1,3.7,1.6,3.6,3.6c-.1,1.8,-1.5,3.1,-3.2,3.2m.2,3c-3.8,.2,-7,-3,-6.8,-6.8c.2,-3.1,2.8,-5.7,6,-5.9c3.8,-.3,7,2.9,6.7,6.7c-.2,3.2,-2.8,5.8,-5.9,6m-.4,-15.4c-5.8,0,-11,3.2,-14.9,8.3c-.3,.4,-.3,1,0,1.4c3.9,5.2,9.1,8.3,14.9,8.3c5.7,0,11,-3.1,14.8,-8.3c.4,-.4,.4,-1,0,-1.4c-3.8,-5.1,-9.1,-8.3,-14.8,-8.3Z" class="g6_33"/>
<path d="M74.3,94.7H836.5" class="g2_33"/>
<path d="M185.4,82.3h17.3V65H185.4V82.3Z" class="g7_33"/>
<path d="M556.8,606.7c0,0,-18.3,0,-18.3,18.3v41.6c0,0,0,18.4,18.3,18.4H779.2c0,0,18.4,0,18.4,-18.4V625c0,0,0,-18.3,-18.4,-18.3H556.8Z" class="g8_33"/>
</svg>