<?xml version="1.0" encoding="UTF-8" standalone="no"?>
<!DOCTYPE svg PUBLIC "-//W3C//DTD SVG 1.1//EN"
"http://www.w3.org/Graphics/SVG/1.1/DTD/svg11.dtd">
<svg viewBox="0 0 909 1147" version="1.1" xmlns="http://www.w3.org/2000/svg" xmlns:xlink="http://www.w3.org/1999/xlink">
<defs>
<style type="text/css"><![CDATA[
.g0_8{
fill: #FAAF82;
}
.g1_8{
fill: #FFF1E0;
}
.g2_8{
fill: none;
stroke: #0EA5DF;
stroke-width: 3.055;
}
.g3_8{
fill: #0C4B7F;
}
.g4_8{
fill: none;
stroke: #0EA5DF;
stroke-width: 0.763;
}
.g5_8{
fill: none;
stroke: #D82C20;
stroke-width: 0.763;
}
.g6_8{
fill: #D82C20;
}
.g7_8{
fill: #0EA5DF;
}
]]></style>
</defs>
<path d="M0,1131H73.8v-51.5H0V1131Z" class="g0_8"/>
<path d="M184.8,1078.3h651V902.9h-651v175.4Z" class="g1_8"/>
<path d="M186.3,303.9h648V164.6h-648V303.9Z" class="g1_8"/>
<path d="M186.3,580.3h648V434.2h-648V580.3Z" class="g1_8"/>
<path d="M73.8,319.8H836M73.8,600.3H836M73.8,724.7H836" class="g2_8"/>
<path d="M0,141.1H120.6V0H0V141.1Z" class="g0_8"/>
<path d="M134.4,202.2H174V164.8H134.4v37.4Z" class="g3_8"/>
<path d="M134.4,471.8H174V434.4H134.4v37.4Z" class="g3_8"/>
<path d="M610.6,175.1c0,0,-18.3,0,-18.3,18.4v82.7c0,0,0,18.3,18.3,18.3H798.4c0,0,18.3,0,18.3,-18.3V193.5c0,0,0,-18.4,-18.3,-18.4H610.6Z" class="g4_8"/>
<path d="M617.4,207.5c6,5.4,12.3,2.2,12.8,.9" class="g5_8"/>
<path d="M632.9,201.7l-6.9,7.7c0,0,4.2,-1,6.5,2.6l.4,-10.3Z" class="g6_8"/>
<path d="M617.4,243.7c9.3,8.2,19,3.4,19.8,1.4" class="g5_8"/>
<path d="M640,238.4l-7,7.6c0,0,4.2,-.9,6.5,2.7l.5,-10.3Z" class="g6_8"/>
<path d="M617.4,280.4c14.8,9.2,30.2,3.7,31.5,1.5" class="g5_8"/>
<path d="M652.5,275.7l-7.9,6.6c0,0,4.3,-.4,6.1,3.5l1.8,-10.1Z" class="g6_8"/>
<path d="M610.6,448.6c0,0,-18.3,0,-18.3,18.3v82.8c0,0,0,18.3,18.3,18.3H798.4c0,0,18.3,0,18.3,-18.3V466.9c0,0,0,-18.3,-18.3,-18.3H610.6ZM649.4,481c-5.9,5.4,-12.2,2.2,-12.7,.9" class="g4_8"/>
<path d="M634,475.2l6.9,7.6c0,0,-4.2,-.9,-6.6,2.6L634,475.2Z" class="g7_8"/>
<path d="M649.4,517.2c-9.3,8.2,-19,3.3,-19.8,1.4" class="g4_8"/>
<path d="M626.9,511.9l6.9,7.6c0,0,-4.2,-.9,-6.5,2.7l-.4,-10.3Z" class="g7_8"/>
<path d="M649.4,553.8c-14.8,9.3,-30.2,3.8,-31.5,1.6" class="g4_8"/>
<path d="M614.3,549.1l7.9,6.6c0,0,-4.3,-.3,-6.1,3.6l-1.8,-10.2Z" class="g7_8"/>
<path d="M136,939.8h39.6V902.3H136v37.5Z" class="g7_8"/>
<path d="M206.7,985.2H716m-509.3,54.6H716" class="g4_8"/>
</svg>