<?xml version="1.0" encoding="UTF-8" standalone="no"?>
<!DOCTYPE svg PUBLIC "-//W3C//DTD SVG 1.1//EN"
"http://www.w3.org/Graphics/SVG/1.1/DTD/svg11.dtd">
<svg viewBox="0 0 909 1147" version="1.1" xmlns="http://www.w3.org/2000/svg" xmlns:xlink="http://www.w3.org/1999/xlink">
<defs>
<style type="text/css"><![CDATA[
.g0_136{
fill: #DCE5C9;
}
.g1_136{
fill: #D5DFBD;
}
.g2_136{
fill: none;
stroke: #000;
stroke-width: 0.728;
}
]]></style>
</defs>
<path d="M0,1131H73.8v-51.5H0V1131Z" class="g0_136"/>
<path d="M0,138.7H120.2V0H0V138.7Z" class="g1_136"/>
<path d="M235.2,239.6h10.9m21.6,0h10.8m31.4,0h10.8m30.8,0h10.8M235.2,283.1h10.9m21.6,-.7h10.8m21.6,.7h10.8m32,0h10.8M235.2,326.7h10.9m21.6,0h10.8m28.8,0h10.9m21.4,0h16.5M238.3,370.2h10.8m21.6,0h10.9m50,0h10.8M238.3,413.8h10.8m25.3,0h10.9m25.2,0h10.9m25.3,0h10.8m-94.3,43.5H274m56.3,0h10.9m56.3,0h10.8m-133,82.6h10.8m21.6,0h10.9m108.6,0h10.9m30.5,0h16.5m-210,39.2h16.5m20.5,0h16.5m98.6,0h10.9m30.7,0h10.9m-232,39.2h16.6m48,0h10.8m76.8,0h10.8m57.9,0h16.5M270.3,657.5h10.9m21.4,0h16.5m94,0h10.8m30.8,0h10.8M269.8,696.7h10.9m21.4,0h16.5m103.1,0h10.9M247.7,735.9h16.6m42.6,0h16.5m136.4,.1h10.9m-6.3,43h10.9m-227,73.1h16.5m128.7,0h10.8m59.6,43h10.8M248.5,968.2h10.8m134.2,0h10.8M801,210.9h10.9M683.8,358.2h10.9M823.6,533h10.9M675.2,928H686m-30.4,30.5h10.8" class="g2_136"/>
</svg>