<?xml version="1.0" encoding="UTF-8" standalone="no"?>
<!DOCTYPE svg PUBLIC "-//W3C//DTD SVG 1.1//EN"
"http://www.w3.org/Graphics/SVG/1.1/DTD/svg11.dtd">
<svg viewBox="0 0 909 1147" version="1.1" xmlns="http://www.w3.org/2000/svg" xmlns:xlink="http://www.w3.org/1999/xlink">
<defs>
<clipPath id="c0_119"><path d="M185.1,287.2V204.7h165v82.5Z"/></clipPath>
<style type="text/css"><![CDATA[
.g0_119{
fill: #E7A9A1;
}
.g1_119{
fill: none;
stroke: #000;
stroke-width: 1.09;
stroke-miterlimit: 2;
}
.g2_119{
fill: #FEE7DC;
}
.g3_119{
fill: #000;
}
.g4_119{
fill: none;
stroke: #000;
stroke-width: 0.336;
stroke-miterlimit: 2;
}
.g5_119{
fill: #FCD3C1;
}
.g6_119{
fill: none;
stroke: #000;
stroke-width: 1.069;
stroke-linejoin: round;
}
.g7_119{
fill: none;
stroke: #000;
stroke-width: 1.069;
stroke-linejoin: round;
stroke-dasharray: 6,4;
}
.g8_119{
fill: none;
stroke: #0EA5DF;
stroke-width: 3.055;
}
.g9_119{
fill: #E8F1FA;
}
.ga_119{
fill: #0EA5DF;
}
]]></style>
</defs>
<path d="M835.8,1131h73.6v-51.5H835.8V1131Z" class="g0_119"/>
<path d="M213.5,205.3H338v48.9H213.5V205.3Z" class="g1_119"/>
<path fill-rule="evenodd" d="M310.2,222.7l27.2,-17.3v48.7l-27.2,17.3Z" class="g2_119"/>
<path fill-rule="evenodd" d="M246.7,276c-.4,0,-.8,.2,-1.2,.6c-.6,.5,-1.2,1.3,-1.7,2.3c-.5,1,-.7,1.9,-.7,2.7c0,.4,.1,.8,.3,1c.2,.2,.5,.4,.7,.4c.7,0,1.4,-.5,2.2,-1.5c1,-1.3,1.6,-2.6,1.6,-4c0,-.5,-.1,-.9,-.3,-1.1c-.2,-.3,-.5,-.4,-.9,-.4m3.3,-.5l-1.8,6.2l-.2,.9c0,0,0,.1,0,.2c0,.1,0,.2,.1,.2c0,.1,.1,.1,.1,.1c.1,0,.2,0,.4,-.1c.2,-.2,.5,-.6,.9,-1.1l.3,.2c-.4,.6,-.8,1.1,-1.3,1.4c-.4,.4,-.8,.5,-1.2,.5c-.3,0,-.5,0,-.6,-.2c-.1,-.1,-.2,-.3,-.2,-.5c0,-.3,.1,-.7,.2,-1.2l.2,-.7c-.8,1,-1.5,1.8,-2.2,2.2c-.5,.3,-1,.4,-1.4,.4c-.5,0,-.9,-.2,-1.2,-.5c-.3,-.4,-.5,-.9,-.5,-1.5c0,-1,.3,-2,.9,-3.1c.6,-1.1,1.3,-1.9,2.2,-2.6c.7,-.5,1.4,-.8,2,-.8c.4,0,.7,.1,.9,.3c.3,.2,.5,.6,.6,1l.3,-1Z" class="g3_119"/>
<path fill-rule="evenodd" d="M329,276.1c.6,.3,1.2,.5,1.6,.5c.6,0,1.1,-.2,1.7,-.6c.6,-.4,1.1,-1.1,1.5,-2c.4,-.9,.6,-1.9,.6,-2.8c0,-.6,-.1,-1,-.4,-1.4c-.3,-.3,-.6,-.4,-1,-.4c-.5,0,-1.1,.2,-1.6,.7c-.6,.4,-.9,1,-1.2,1.8Zm3.6,-12.3l-1.8,6.3c.6,-.6,1.1,-1,1.5,-1.3c.4,-.2,.9,-.3,1.4,-.3c.6,0,1.2,.2,1.6,.7c.4,.4,.6,1,.6,1.8c0,1,-.2,1.9,-.8,2.9c-.6,1,-1.3,1.7,-2.1,2.3c-.9,.5,-1.7,.8,-2.5,.8c-.9,0,-1.9,-.4,-2.8,-1l2.7,-9.6c.3,-.7,.4,-1.2,.4,-1.3c0,-.2,-.1,-.3,-.2,-.4c-.1,-.1,-.3,-.1,-.6,-.1c-.1,0,-.3,0,-.6,0v-.3Z" class="g3_119"/>
<path clip-path="url(#c0_119)" fill-rule="evenodd" d="M349.4,231.2c-.6,.8,-1.3,1.3,-1.9,1.7c-.7,.3,-1.4,.5,-2.1,.5c-.8,0,-1.5,-.2,-2,-.7c-.5,-.5,-.7,-1.2,-.7,-2c0,-.9,.2,-1.8,.8,-2.7c.5,-.9,1.2,-1.7,2.1,-2.2c.8,-.6,1.7,-.9,2.5,-.9c.7,0,1.2,.2,1.5,.4c.4,.3,.5,.7,.5,1.1c0,.3,-.1,.7,-.3,.9c-.2,.2,-.4,.3,-.7,.3c-.1,0,-.3,0,-.4,-.1c-.1,-.2,-.2,-.3,-.2,-.5c0,-.1,0,-.2,.1,-.3c0,-.1,.1,-.2,.2,-.4c.2,-.1,.3,-.2,.3,-.3c0,0,0,-.1,0,-.2c0,-.1,0,-.2,-.1,-.3c-.2,-.1,-.5,-.2,-.8,-.2c-.6,0,-1.2,.2,-1.7,.7c-.6,.4,-1.1,1,-1.5,1.8c-.5,.9,-.8,1.8,-.8,2.8c0,.6,.2,1.1,.5,1.4c.4,.4,.9,.6,1.5,.6c.5,0,.9,-.1,1.4,-.4c.4,-.2,.9,-.6,1.5,-1.2Z" class="g3_119"/>
<path fill-rule="evenodd" d="M185.7,222.4H310.2v49H185.7v-49Z" class="g2_119"/>
<path d="M310.1,271.6l27.3,-16.9M310.2,222.5l27.3,-16.8M185.8,222.2l27.4,-16.9m-27.5,17.1H310.2v49H185.7v-49Z" class="g1_119"/>
<path d="M199.7,222.5l13.6,-8.6m-27.2,8.4l27.2,-17.2m115.1,.5v6.2m-8.8,-6.2V217m-8.8,-11.4v16.7m-8.9,-16.7v16.7m-8.8,-16.7v16.7m-8.8,-16.7v16.7m-8.9,-16.7v16.7m-8.8,-16.7v16.7m-8.9,-16.7v16.7m-8.8,-16.7v16.7m-8.8,-16.7v16.7m-8.9,-16.7v16.7m-8.8,-16.7v16.7m-28,-5.1v5.1m6.3,-8.9v8.9m6.6,-12.4v12.4m6,-8.1H323.6" class="g4_119"/>
<path d="M276.9,472.2l-.2,31.3L295.4,485V453.8Z" class="g5_119"/>
<path d="M230.2,472H277v31.2H230.2V472Zm46.7,-.1h46.8v31.2H276.9V471.9Z" class="g6_119"/>
<path d="M295.1,485.2H248.4V454m93.4,31.1H295.1V453.9" class="g7_119"/>
<path d="M230.2,472.1l18.3,-18.3m28.3,18.6l18.3,-18.3M323.8,472l18.3,-18.3M323.8,503l18.3,-18.3M248.3,453.9h93.5v31.2" class="g6_119"/>
<path d="M230.2,503.2l18.3,-18.3M276.9,503l18.3,-18.3" class="g7_119"/>
<path d="M269.7,575.6l-.2,31.7l22,-22V553.9Z" class="g5_119"/>
<path d="M252.2,554.1h78.2v31.2M230.2,576.1h39v31.2h-39V576.1Zm39.2,0h39v31.2h-39V576.1Z" class="g6_119"/>
<path d="M291.2,585.3h-39V554.1m78.2,31.2h-39V554.1" class="g7_119"/>
<path d="M230.3,576.1l22,-22.1m17,22.1l22,-22.1m17.2,22.1l22,-22.1m-22,53.2l22,-22" class="g6_119"/>
<path d="M230.5,607.2l22,-22m17.1,22l22.1,-22" class="g7_119"/>
<path fill-rule="evenodd" d="M261.7,680.9l21.8,-21.8v38.7l-22,21.9Z" class="g5_119"/>
<path d="M252.2,658.9h62.2v39M230.3,680.8h31.2v39H230.3v-39Zm31.2,0h31.2v39H261.5v-39Z" class="g6_119"/>
<path d="M283.2,697.9H252v-39m62.4,39H283.3v-39" class="g7_119"/>
<path d="M230.1,681l22,-22m9.2,22l22,-22m-22,22l22,-22m9.2,22l22.1,-22m-22.1,60.8l22.1,-22" class="g6_119"/>
<path d="M230.5,719.8l22,-22m9.2,22l22,-22" class="g7_119"/>
<path d="M73.6,331.3H835.8" class="g8_119"/>
<path d="M183.7,1077.8H834.8V746.1H183.7v331.7Z" class="g9_119"/>
<path d="M72.5,746.9H835.8M73.6,66.5H835.8" class="g8_119"/>
<path d="M74.7,360.1H182.1V330H74.7v30.1Z" class="ga_119"/>
</svg>