<?xml version="1.0" encoding="UTF-8" standalone="no"?>
<!DOCTYPE svg PUBLIC "-//W3C//DTD SVG 1.1//EN"
"http://www.w3.org/Graphics/SVG/1.1/DTD/svg11.dtd">
<svg viewBox="0 0 909 1147" version="1.1" xmlns="http://www.w3.org/2000/svg" xmlns:xlink="http://www.w3.org/1999/xlink">
<defs>
<style type="text/css"><![CDATA[
.g0_11{
fill: #FAAF82;
}
.g1_11{
fill: #E8F1FA;
}
.g2_11{
fill: none;
stroke: #0EA5DF;
stroke-width: 3.055;
}
.g3_11{
fill: none;
stroke: #000;
stroke-width: 0.763;
}
.g4_11{
fill: #0EA5DF;
}
]]></style>
</defs>
<path d="M835.8,1129.8h73.6v-51.5H835.8v51.5Z" class="g0_11"/>
<path d="M184.2,1079.3H835.3v-240H184.2v240Z" class="g1_11"/>
<path d="M73.1,840.2H836.4M73.3,675.8H835.5" class="g2_11"/>
<path d="M228.4,200.8h16.4m-8.6,40.6h21.6m-15.1,39.8h21.6M452.6,199.3h16.5m-8.7,40.6h21.7m-15.2,39.9h21.7M675,200.8h16.5m-8.7,40.6h21.6m-15.1,39.9h21.6M228.5,438.8h16.4m-8.6,40.6h21.6M452.7,438.7h26.6m-18.8,40.6h26.6m188,-40.8h17.3m-9.5,40.6h21.6" class="g3_11"/>
<path d="M75.1,66.5H837.3M73.6,303.5H835.8M73.6,504.3H835.8" class="g2_11"/>
<path d="M73.4,705.3H180.8V675.2H73.4v30.1Z" class="g4_11"/>
</svg>