<?xml version="1.0" encoding="UTF-8" standalone="no"?>
<!DOCTYPE svg PUBLIC "-//W3C//DTD SVG 1.1//EN"
"http://www.w3.org/Graphics/SVG/1.1/DTD/svg11.dtd">
<svg viewBox="0 0 909 1147" version="1.1" xmlns="http://www.w3.org/2000/svg" xmlns:xlink="http://www.w3.org/1999/xlink">
<defs>
<style type="text/css"><![CDATA[
.g0_141{
fill: #DCE5C9;
}
.g1_141{
fill: none;
stroke: #ABE1FA;
stroke-width: 0.763;
stroke-miterlimit: 10;
}
.g2_141{
fill: none;
stroke: #000;
stroke-width: 1.527;
}
.g3_141{
fill: none;
stroke: #000;
stroke-width: 0.736;
stroke-linejoin: round;
}
.g4_141{
fill: #D1D3D4;
}
.g5_141{
fill: #FFF;
}
.g6_141{
fill: #FFF;
stroke: #000;
stroke-width: 0.736;
stroke-linejoin: round;
}
]]></style>
</defs>
<path d="M835.8,1131h73.6v-51.5H835.8V1131Z" class="g0_141"/>
<path d="M216.5,728.6h17.7m-17.3,17V729m17.3,-.4h17.4m-17.4,17V729m17.4,-.4h17.3m-17.3,17V729m17.3,-.4h17.3m-17.3,17V729m17.3,-.4h17.3m-17.3,17V729m17.3,-.4h17.4m-17.4,17V729m17.4,-.4h17.3m-17.3,17V729m17.3,-.4h17.3m-17.3,17V729m17.3,-.4h17.3m-17.3,17V729m17.3,-.4h17.3m-17.3,17V729m17.3,-.4h17.4m-17.4,17V729m17.4,-.4h17.3m-17.3,17V729m17.3,-.4h17.3m-17.3,17V729m17.3,-.4h17.3m-17.3,17V729m17.3,-.4h17.7m-17.7,17V729m17.4,16.6V729M216.5,745.9h17.7m-17.3,17V746.3m17.3,-.4h17.4m-17.4,17V746.3m17.4,-.4h17.3m-17.3,17V746.3m17.3,-.4h17.3m-17.3,17V746.3m17.3,-.4h17.3m-17.3,17V746.3m17.3,-.4h17.4m-17.4,17V746.3m17.4,-.4h17.3m-17.3,17V746.3m17.3,-.4h17.3m-17.3,17V746.3m17.3,-.4h17.3m-17.3,17V746.3m17.3,-.4h17.3m-17.3,17V746.3m17.3,-.4h17.4m-17.4,17V746.3m17.4,-.4h17.3m-17.3,17V746.3m17.3,-.4h17.3m-17.3,17V746.3m17.3,-.4h17.3m-17.3,17V746.3m17.3,-.4h17.7m-17.7,17V746.3m17.4,16.6V746.3m-260.3,17h17.7m-17.3,16.9V763.6m17.3,-.3h17.4m-17.4,16.9V763.6m17.4,-.3h17.3m-17.3,16.9V763.6m17.3,-.3h17.3m-17.3,16.9V763.6m17.3,-.3h17.3m-17.3,16.9V763.6m17.3,-.3h17.4m-17.4,16.9V763.6m17.4,-.3h17.3m-17.3,16.9V763.6m17.3,-.3h17.3m-17.3,16.9V763.6m17.3,-.3h17.3m-17.3,16.9V763.6m17.3,-.3h17.3m-17.3,16.9V763.6m17.3,-.3h17.4m-17.4,16.9V763.6m17.4,-.3h17.3m-17.3,16.9V763.6m17.3,-.3h17.3m-17.3,16.9V763.6m17.3,-.3h17.3m-17.3,16.9V763.6m17.3,-.3h17.7m-17.7,16.9V763.6m17.4,16.6V763.6m-260.3,17h17.7m-17.3,16.9V781m17.3,-.4h17.4m-17.4,16.9V781m17.4,-.4h17.3m-17.3,16.9V781m17.3,-.4h17.3m-17.3,16.9V781m17.3,-.4h17.3m-17.3,16.9V781m17.3,-.4h17.4m-17.4,16.9V781m17.4,-.4h17.3m-17.3,16.9V781m17.3,-.4h17.3m-17.3,16.9V781m17.3,-.4h17.3m-17.3,16.9V781m17.3,-.4h17.3m-17.3,16.9V781m17.3,-.4h17.4m-17.4,16.9V781m17.4,-.4h17.3m-17.3,16.9V781m17.3,-.4h17.3m-17.3,16.9V781m17.3,-.4h17.3m-17.3,16.9V781m17.3,-.4h17.7m-17.7,16.9V781m17.4,16.5V781M216.5,797.9h17.7m-17.3,16.9V798.3m17.3,-.4h17.4m-17.4,16.9V798.3m17.4,-.4h17.3m-17.3,16.9V798.3m17.3,-.4h17.3m-17.3,16.9V798.3m17.3,-.4h17.3m-17.3,16.9V798.3m17.3,-.4h17.4m-17.4,16.9V798.3m17.4,-.4h17.3m-17.3,16.9V798.3m17.3,-.4h17.3m-17.3,16.9V798.3m17.3,-.4h17.3m-17.3,16.9V798.3m17.3,-.4h17.3m-17.3,16.9V798.3m17.3,-.4h17.4m-17.4,16.9V798.3m17.4,-.4h17.3m-17.3,16.9V798.3m17.3,-.4h17.3m-17.3,16.9V798.3m17.3,-.4h17.3m-17.3,16.9V798.3m17.3,-.4h17.7m-17.7,16.9V798.3m17.4,16.5V798.3M216.5,815.2h17.7m-17.3,17V815.6m17.3,-.4h17.4m-17.4,17V815.6m17.4,-.4h17.3m-17.3,17V815.6m17.3,-.4h17.3m-17.3,17V815.6m17.3,-.4h17.3m-17.3,17V815.6m17.3,-.4h17.4m-17.4,17V815.6m17.4,-.4h17.3m-17.3,17V815.6m17.3,-.4h17.3m-17.3,17V815.6m17.3,-.4h17.3m-17.3,17V815.6m17.3,-.4h17.3m-17.3,17V815.6m17.3,-.4h17.4m-17.4,17V815.6m17.4,-.4h17.3m-17.3,17V815.6m17.3,-.4h17.3m-17.3,17V815.6m17.3,-.4h17.3m-17.3,17V815.6m17.3,-.4h17.7m-17.7,17V815.6m17.4,16.6V815.6M216.5,832.5h17.7m-17.3,17V832.9m17.3,-.4h17.4m-17.4,17V832.9m17.4,-.4h17.3m-17.3,17V832.9m17.3,-.4h17.3m-17.3,17V832.9m17.3,-.4h17.3m-17.3,17V832.9m17.3,-.4h17.4m-17.4,17V832.9m17.4,-.4h17.3m-17.3,17V832.9m17.3,-.4h17.3m-17.3,17V832.9m17.3,-.4h17.3m-17.3,17V832.9m17.3,-.4h17.3m-17.3,17V832.9m17.3,-.4h17.4m-17.4,17V832.9m17.4,-.4h17.3m-17.3,17V832.9m17.3,-.4h17.3m-17.3,17V832.9m17.3,-.4h17.3m-17.3,17V832.9m17.3,-.4h17.7m-17.7,17V832.9m17.4,16.6V832.9m-260.3,17h17.7m-17.3,16.9V850.3m17.3,-.4h17.4m-17.4,16.9V850.3m17.4,-.4h17.3m-17.3,16.9V850.3m17.3,-.4h17.3m-17.3,16.9V850.3m17.3,-.4h17.3m-17.3,16.9V850.3m17.3,-.4h17.4m-17.4,16.9V850.3m17.4,-.4h17.3m-17.3,16.9V850.3m17.3,-.4h17.3m-17.3,16.9V850.3m17.3,-.4h17.3m-17.3,16.9V850.3m17.3,-.4h17.3m-17.3,16.9V850.3m17.3,-.4h17.4m-17.4,16.9V850.3m17.4,-.4h17.3m-17.3,16.9V850.3m17.3,-.4h17.3m-17.3,16.9V850.3m17.3,-.4h17.3m-17.3,16.9V850.3m17.3,-.4h17.7m-17.7,16.9V850.3m17.4,16.5V850.3M216.5,867.2h17.7m-17.3,16.9V867.6m17.3,-.4h17.4m-17.4,16.9V867.6m17.4,-.4h17.3m-17.3,16.9V867.6m17.3,-.4h17.3m-17.3,16.9V867.6m17.3,-.4h17.3m-17.3,16.9V867.6m17.3,-.4h17.4m-17.4,16.9V867.6m17.4,-.4h17.3m-17.3,16.9V867.6m17.3,-.4h17.3m-17.3,16.9V867.6m17.3,-.4h17.3m-17.3,16.9V867.6m17.3,-.4h17.3m-17.3,16.9V867.6m17.3,-.4h17.4m-17.4,16.9V867.6m17.4,-.4h17.3m-17.3,16.9V867.6m17.3,-.4h17.3m-17.3,16.9V867.6m17.3,-.4h17.3m-17.3,16.9V867.6m17.3,-.4h17.7m-17.7,16.9V867.6m17.4,16.5V867.6M216.5,884.5h17.7m-17.3,17V884.9m17.3,-.4h17.4m-17.4,17V884.9m17.4,-.4h17.3m-17.3,17V884.9m17.3,-.4h17.3m-17.3,17V884.9m17.3,-.4h17.3m-17.3,17V884.9m17.3,-.4h17.4m-17.4,17V884.9m17.4,-.4h17.3m-17.3,17V884.9m17.3,-.4h17.3m-17.3,17V884.9m17.3,-.4h17.3m-17.3,17V884.9m17.3,-.4h17.3m-17.3,17V884.9m17.3,-.4h17.4m-17.4,17V884.9m17.4,-.4h17.3m-17.3,17V884.9m17.3,-.4h17.3m-17.3,17V884.9m17.3,-.4h17.3m-17.3,17V884.9m17.3,-.4h17.7m-17.7,17V884.9m17.4,16.6V884.9M216.5,901.8h17.7m-17.3,17V902.2m17.3,-.4h17.4m-17.4,17V902.2m17.4,-.4h17.3m-17.3,17V902.2m17.3,-.4h17.3m-17.3,17V902.2m17.3,-.4h17.3m-17.3,17V902.2m17.3,-.4h17.4m-17.4,17V902.2m17.4,-.4h17.3m-17.3,17V902.2m17.3,-.4h17.3m-17.3,17V902.2m17.3,-.4h17.3m-17.3,17V902.2m17.3,-.4h17.3m-17.3,17V902.2m17.3,-.4h17.4m-17.4,17V902.2m17.4,-.4h17.3m-17.3,17V902.2m17.3,-.4h17.3m-17.3,17V902.2m17.3,-.4h17.3m-17.3,17V902.2m17.3,-.4h17.7m-17.7,17V902.2m17.4,16.6V902.2m-260.3,17h17.7m0,0h17.4m0,0h17.3m0,0h17.3m0,0h17.3m0,0h17.4m0,0h17.3m0,0h17.3m0,0h17.3m0,0h17.3m0,0h17.4m0,0h17.3m0,0h17.3m0,0h17.3m0,0h17.7" class="g1_141"/>
<path d="M233.9,902.1H425.3l33.8,-86.6L389.8,745.3H268.5v69.3l-34.6,87.5Z" class="g2_141"/>
<path d="M679.1,577.5h29.8v29.9H679.1V577.5Zm16.7,-14.4h29.8l-16.7,14.4H679.1l16.7,-14.4Z" class="g3_141"/>
<path fill-rule="evenodd" d="M708.9,577.5l16.6,-14.1v29.8l-16.6,14.2Z" class="g4_141"/>
<path d="M708.9,577.5l16.6,-14.1v29.8l-16.6,14.2V577.5Z" class="g3_141"/>
<path fill-rule="evenodd" d="M708.1,577.8h29.8l-16.7,14.5H691.4Z" class="g5_141"/>
<path d="M708.1,577.8h29.8l-16.7,14.5H691.4l16.7,-14.5Z" class="g3_141"/>
<path fill-rule="evenodd" d="M721.2,592.3l16.6,-14.1V608l-16.6,14.1Z" class="g4_141"/>
<path d="M721.2,592.3l16.6,-14.1V608l-16.6,14.1V592.3Zm-88.8,0h29.8v29.8H632.4V592.3ZM649,577.8h29.9l-16.7,14.5H632.4L649,577.8Zm13.2,14.5l16.6,-14.1V608l-16.6,14.1V592.3Zm.4,29.1h29.8v29.9H662.6V621.4ZM679.2,607h29.9l-16.7,14.4H662.6L679.2,607Z" class="g3_141"/>
<path fill-rule="evenodd" d="M692.4,621.4L709,607.3v29.9l-16.6,14.1Z" class="g4_141"/>
<path d="M692.4,621.4L709,607.3v29.9l-16.6,14.1V621.4Z" class="g3_141"/>
<path fill-rule="evenodd" d="M662.3,561.7h29.8v29.8H662.3V561.7Z" class="g6_141"/>
<path fill-rule="evenodd" d="M678.9,547.3h29.8l-16.6,14.4H662.3Z" class="g5_141"/>
<path d="M678.9,547.3h29.8l-16.6,14.4H662.3l16.6,-14.4Z" class="g3_141"/>
<path fill-rule="evenodd" d="M692.1,561.7l16.6,-14.1v29.8l-16.6,14.1Z" class="g4_141"/>
<path d="M692.1,561.7l16.6,-14.1v29.8l-16.6,14.1V561.7Z" class="g3_141"/>
<path fill-rule="evenodd" d="M691.4,592.3h29.8v29.8H691.4V592.3Z" class="g6_141"/>
<path fill-rule="evenodd" d="M645.4,606h29.8v29.8H645.4V606Z" class="g6_141"/>
<path fill-rule="evenodd" d="M662,591.5h29.9L675.2,606H645.4Z" class="g5_141"/>
<path d="M662,591.5h29.9L675.2,606H645.4L662,591.5Z" class="g3_141"/>
<path fill-rule="evenodd" d="M675.2,606l16.6,-14.1v29.8l-16.6,14.1Z" class="g4_141"/>
<path d="M675.2,606l16.6,-14.1v29.8l-16.6,14.1V606Z" class="g3_141"/>
</svg>