<?xml version="1.0" encoding="UTF-8" standalone="no"?>
<!DOCTYPE svg PUBLIC "-//W3C//DTD SVG 1.1//EN"
"http://www.w3.org/Graphics/SVG/1.1/DTD/svg11.dtd">
<svg viewBox="0 0 909 1147" version="1.1" xmlns="http://www.w3.org/2000/svg" xmlns:xlink="http://www.w3.org/1999/xlink">
<defs>
<style type="text/css"><![CDATA[
.g0_9{
fill: #FAAF82;
}
.g1_9{
fill: none;
stroke: #0EA5DF;
stroke-width: 3.055;
}
.g2_9{
fill: #FFF1E0;
}
.g3_9{
fill: #E8F1FA;
}
.g4_9{
fill: #0EA5DF;
}
.g5_9{
fill: none;
stroke: #0EA5DF;
stroke-width: 0.763;
}
]]></style>
</defs>
<path d="M835.8,1129.8h73.6v-51.5H835.8v51.5Z" class="g0_9"/>
<path d="M73.6,65H835.8" class="g1_9"/>
<path d="M184.8,238.2h651V192.3h-651v45.9Z" class="g2_9"/>
<path d="M73.6,253.4H835.8" class="g1_9"/>
<path d="M184.8,500.4h651V424.9h-651v75.5Z" class="g2_9"/>
<path d="M73.6,518H835.8" class="g1_9"/>
<path d="M184.2,1081.1H835.3V739.4H184.2v341.7Z" class="g3_9"/>
<path d="M73.1,740.3H836.4" class="g1_9"/>
<path d="M184.8,717.4h651V671.6h-651v45.8Z" class="g2_9"/>
<path d="M136.4,231.1h39.7V193.6H136.4v37.5Z" class="g4_9"/>
<path d="M136.4,464h39.7V426.6H136.4V464Z" class="g4_9"/>
<path d="M136.4,708.7h39.7V671.3H136.4v37.4Z" class="g4_9"/>
<path d="M201.4,464.2H686.9" class="g5_9"/>
</svg>