<?xml version="1.0" encoding="UTF-8" standalone="no"?>
<!DOCTYPE svg PUBLIC "-//W3C//DTD SVG 1.1//EN"
"http://www.w3.org/Graphics/SVG/1.1/DTD/svg11.dtd">
<svg viewBox="0 0 909 1147" version="1.1" xmlns="http://www.w3.org/2000/svg" xmlns:xlink="http://www.w3.org/1999/xlink">
<defs>
<clipPath id="c0_23"><path d="M127.1,741.5c-.3,0,-.7,0,-.9,-.1q-.1,0,-.1,0c-4,-1.3,-7.7,-3.3,-11,-5.4c-.6,-.1,-1.1,-.3,-1.7,-.5c-.1,-.2,-.2,-.4,-.3,-.6h-.6c-.1,-.2,-.2,-.4,-.3,-.6h-.6c-.1,-.2,-.2,-.4,-.3,-.6c-.6,-.2,-1.2,-.4,-1.8,-.6c-.1,-.2,-.2,-.4,-.3,-.6c-.4,-.1,-.8,-.2,-1.1,-.3c-.1,-.2,-.2,-.4,-.3,-.6h-.6c-.1,-.2,-.2,-.4,-.3,-.6h-.6c-.1,-.2,-.2,-.4,-.3,-.6c-.4,-.1,-.8,-.2,-1.2,-.3v-.3c-.3,0,-.6,-.1,-.9,-.2c-.1,-.2,-.2,-.4,-.3,-.6H103c-.1,-.2,-.2,-.4,-.3,-.6c-.6,-.5,-1.1,-1,-1.7,-1.5v-.6c-.3,-.2,-.6,-.4,-.9,-.6c-.4,-.5,0,-.6,-.6,-1.2c0,-.3,0,-.7,0,-1c0,-2.3,.2,-3.8,.9,-5.5v-.8c.2,-.1,.4,-.2,.6,-.3c.3,-.9,.6,-1.8,.9,-2.7c.1,-.1,.3,-.2,.5,-.3V713c.2,-.1,.4,-.2,.6,-.3v-.6h.3v-.6h.3V711h.3v-.6h.3v-.6c.2,-.1,.4,-.2,.6,-.3l.3,-1.2c.2,-.1,.4,-.2,.6,-.3v-.9c.2,-.1,.4,-.2,.6,-.3v-.6h.3v-.6h.3v-.5h.3v-.6h.3c.1,-.3,.2,-.6,.3,-.9c.2,-.1,.3,-.2,.5,-.3c.2,-.6,.4,-1.2,.6,-1.8c.2,-.1,.4,-.2,.6,-.3c.2,-.6,.4,-1.2,.6,-1.8c.2,-.1,.4,-.2,.6,-.3L111,698h.3c.1,-.3,.2,-.6,.3,-.9c.2,-.1,.4,-.2,.6,-.3l.1,-.4c0,-.3,.1,-.5,.2,-.8h.3l.3,-.9c.2,-.1,.4,-.2,.6,-.3l.3,-1.2c.2,-.1,.3,-.2,.5,-.3c.2,-.5,.4,-1.1,.6,-1.7c.2,-.1,.4,-.2,.6,-.3l.3,-1.2c.2,-.1,.4,-.2,.6,-.3c.2,-.6,.4,-1.2,.6,-1.8h.3V687h.3c.2,-.5,.4,-1.1,.6,-1.7h.3c.1,-.6,.2,-1.2,.3,-1.8h.3v-.6h.3c.1,-.7,.2,-1.4,.3,-2.1h.3c.1,-.6,.1,-1.3,.2,-2h.3c.2,-.6,.4,-1.2,.6,-1.8h.3c.1,-.4,.2,-.8,.3,-1.2c.2,-.1,.4,-.2,.6,-.3c.2,-.6,.4,-1.1,.6,-1.7c.2,-.1,.4,-.2,.6,-.3v-.6h.3v-.6c.2,-.1,.4,-.2,.6,-.3v-.6c1.4,-1.7,2.7,-3.3,4.1,-5c1,-.7,2.5,-.9,3.3,-1.8h.1c0,0,.1,0,.2,0c2.6,0,4.9,.7,7,1.4c.6,.2,1.2,.5,1.8,.7c.7,.1,1.4,.2,2.1,.3v.3c.7,.1,1.4,.2,2,.3v.3h.6v.3c1,.2,2,.3,3,.5v.3h.6v.3h.9v.3c.4,.1,.7,.2,1.1,.3v.3h.9v.3h.6v.3h.9v.3c.6,.2,1.2,.4,1.8,.6v.3h.6v.3c.6,.2,1.1,.4,1.7,.6l.2,.3c0,.1,.1,.2,.1,.3h.6c.3,.4,.6,.8,.9,1.1c.3,.1,.6,.2,.9,.3v.6c.3,.2,.6,.4,.9,.6v.6c.2,.1,.4,.2,.6,.3c.5,1.7,1,3.4,1.4,5v3h.3c-.1,1.8,-.2,3.7,-.3,5.6h-.2v.9c-1,1.3,-2,2.5,-3,3.8h-.6c-.2,.3,-.4,.6,-.6,.9c-.2,.1,-.4,.2,-.6,.3v.6c-.3,.2,-.6,.4,-.9,.6v.6c-.2,.1,-.4,.2,-.5,.3c-.2,.5,-.4,1.1,-.6,1.7c-.2,.1,-.4,.2,-.6,.3v.6c-.2,.1,-.4,.2,-.6,.3v.6H155v.9c-.2,.1,-.4,.2,-.6,.3c-.2,.6,-.4,1.2,-.6,1.8c-.2,.1,-.4,.1,-.6,.2l-.1,.4c0,.3,-.1,.6,-.2,.8h-.3v.6h-.3v.6c-.2,.1,-.4,.2,-.6,.3v.6h-.3v.6h-.3v.6h-.2v.6c-.2,.1,-.4,.2,-.6,.3c-.2,.6,-.4,1.1,-.6,1.7c-.2,.1,-.4,.2,-.6,.3v.6h-.3v.6h-.3v.6h-.3v.6h-.3v.6h-.3c-.1,.4,-.2,.8,-.3,1.2c-.2,.1,-.4,.2,-.6,.3c-.2,.5,-.4,1.1,-.6,1.7c-.2,.1,-.4,.2,-.6,.3c-.2,.6,-.4,1.2,-.6,1.8h-.2c-.1,.3,-.2,.6,-.3,.9c-.2,.1,-.4,.2,-.6,.3v.6h-.3v.6h-.3v.5h-.3v.6h-.3v.6c-.2,.1,-.4,.2,-.6,.3l-.3,1.2c-.2,.1,-.4,.2,-.6,.3c-.2,.6,-.4,1.2,-.6,1.8c-.2,.1,-.4,.2,-.6,.3v.6h-.3v.5h-.3v.6H139v.6h-.3v.6h-.2c-.1,.3,-.2,.6,-.3,.9c-.2,.1,-.4,.2,-.6,.3v.6h-.3c-.1,.3,-.2,.6,-.3,.9c-.2,.1,-.4,.2,-.6,.3v.6c-.2,.1,-.4,.2,-.6,.3c-.1,.2,-.2,.5,-.3,.8h-.3c-.1,.4,-.2,.8,-.3,1.2c-.5,.4,-1,.8,-1.5,1.2c-.3,.4,-.6,.8,-.8,1.2c-.1,0,-.2,.1,-.3,.1c-.7,.4,-2.3,.9,-3.8,1.1c-.1,0,-.2,0,-.3,0c-.3,.1,-.5,.1,-.8,.1c-.1,0,-.2,0,-.3,0Z"/></clipPath>
<style type="text/css"><![CDATA[
.g0_23{
fill: #FAAF82;
}
.g1_23{
fill: none;
stroke: #000;
stroke-width: 0.763;
}
.g2_23{
fill: #FFF;
}
.g3_23{
fill: none;
stroke: #000;
stroke-width: 0.649;
}
.g4_23{
fill: none;
stroke: #0EA5DF;
stroke-width: 3.055;
}
.g5_23{
fill: #E8F1FA;
}
.g6_23{
fill: #FFF1E0;
}
.g7_23{
fill: #0EA5DF;
}
.g8_23{
fill: none;
stroke: #0EA5DF;
stroke-width: 0.763;
}
]]></style>
</defs>
<path d="M835.8,1129.8h73.6v-51.5H835.8v51.5Z" class="g0_23"/>
<path d="M205.4,135.5h11.9m212.3,0h11.9m209,0h17.3m-463.5,61h11.9m22.7,54.1h19.5m-11.3,43.7h19.5M238.5,206.9H258m172,-8.2h12m22.7,54.1h19.5m-11.3,43.7h19.5m-9.8,43.3h19.5M463.8,209.5h19.5M650.9,196.6h17.3m25.4,31.5h19.5m-13.7,44.3h19.4M708.7,317h19.4m-12.2,42.9h19.4" class="g1_23"/>
<path fill-rule="evenodd" d="M531.4,294.8h19.9V276.1H531.4v18.7Z" class="g2_23"/>
<path fill-rule="evenodd" d="M841.8,377.4h20V358.8h-20v18.6Z" class="g2_23"/>
<path d="M205.4,526.1h17.3m206.9,0h26.1m194.8,0h17.3M205.4,585.9h17.3" class="g1_23"/>
<path d="M237.7,585.9h36.4" class="g3_23"/>
<path d="M289.9,585.9H316m113.6,0h26.1m15.5,0h45.3m14.6,0h26.1m93.3,0h17.3" class="g1_23"/>
<path d="M682.8,585.9h36.4" class="g3_23"/>
<path d="M735,585.9h26.1M222.6,671.6h17.3m208.5,0h17.3m214.5,0h17.4m-475,59.9h17.3m58.1,0h17.3" class="g1_23"/>
<path d="M73.6,97.3H835.8M73.6,461.5H835.8M73.6,626H835.8" class="g4_23"/>
<path d="M183.7,1080.1H834.8V812.9H183.7v267.2Z" class="g5_23"/>
<path d="M72.5,813.8H835.8" class="g4_23"/>
<path d="M580.6,883.1h11.9m74.8,0h12m68.3,0h12m-179,38.6h17.3m69.4,0h17.4m62.9,0H765M580.6,960.4h17.3m69.4,0h17.4m67.5,0h26.1M598.9,999h17.3m69.5,0H703m72.1,0h17.4m-184.4,38.7h17.3m69.4,0h12m67.7,0h17.3m-606.7,24H401.7" class="g1_23"/>
<image clip-path="url(#c0_23)" preserveAspectRatio="none" x="97" y="662" width="70" height="82" xlink:href="img/p1.jpg"/>
<path d="M185.7,446.7h648V382.9h-648v63.8Z" class="g6_23"/>
<path d="M133.7,420.4h39.6V382.9H133.7v37.5Z" class="g7_23"/>
<path d="M448.5,729.9h17.3m58.1,0h17.3M645.7,415.5h16" class="g1_23"/>
<path d="M649.3,390.9c0,0,-18.4,0,-18.4,18.3v11.1c0,0,0,18.4,18.4,18.4H763c0,0,18.3,0,18.3,-18.4V409.2c0,0,0,-18.3,-18.3,-18.3H649.3Z" class="g8_23"/>
<path d="M681,729.9h17.3m67.2,0h17.4" class="g1_23"/>
</svg>
