<?xml version="1.0" encoding="UTF-8" standalone="no"?>
<!DOCTYPE svg PUBLIC "-//W3C//DTD SVG 1.1//EN"
"http://www.w3.org/Graphics/SVG/1.1/DTD/svg11.dtd">
<svg viewBox="0 0 909 1147" version="1.1" xmlns="http://www.w3.org/2000/svg" xmlns:xlink="http://www.w3.org/1999/xlink">
<defs>
<style type="text/css"><![CDATA[
.g0_116{
fill: #E7A9A1;
}
.g1_116{
fill: #FFF;
stroke: #000;
stroke-width: 1.222;
stroke-miterlimit: 2;
}
.g2_116{
fill: #FFF;
}
.g3_116{
fill: none;
stroke: #000;
stroke-width: 1.222;
stroke-miterlimit: 2;
}
.g4_116{
fill: #000;
}
.g5_116{
fill: none;
stroke: #000;
stroke-width: 0.152;
stroke-miterlimit: 2;
}
.g6_116{
fill: #E1F4FD;
}
.g7_116{
fill: none;
stroke: #000;
stroke-width: 1.546;
stroke-miterlimit: 2;
}
.g8_116{
fill: none;
stroke: #000;
stroke-width: 1.081;
stroke-miterlimit: 2;
stroke-dasharray: 6,4;
}
.g9_116{
fill: none;
stroke: #000;
stroke-width: 1.555;
stroke-miterlimit: 2;
}
.ga_116{
fill: none;
stroke: #000;
stroke-width: 1.087;
stroke-miterlimit: 2;
}
.gb_116{
fill: none;
stroke: #000;
stroke-width: 1.087;
stroke-miterlimit: 2;
stroke-dasharray: 6,4;
}
.gc_116{
fill: none;
stroke: #000;
stroke-width: 1.533;
stroke-miterlimit: 2;
}
.gd_116{
fill: none;
stroke: #000;
stroke-width: 1.072;
stroke-miterlimit: 2;
}
.ge_116{
fill: none;
stroke: #000;
stroke-width: 1.072;
stroke-miterlimit: 2;
stroke-dasharray: 6,4;
}
.gf_116{
fill: none;
stroke: #000;
stroke-width: 1.547;
stroke-miterlimit: 2;
}
.gg_116{
fill: none;
stroke: #000;
stroke-width: 1.083;
stroke-miterlimit: 2;
stroke-dasharray: 6,4;
}
.gh_116{
fill: #0C4B7F;
}
.gi_116{
fill: #FFF1E0;
}
]]></style>
</defs>
<path d="M0,1131H72.3v-51.5H0V1131Z" class="g0_116"/>
<path fill-rule="evenodd" d="M373.3,964.1H481v49.7H373.3V964.1Z" class="g1_116"/>
<path fill-rule="evenodd" d="M203.3,901H311v62.9H203.3V901Z" class="g1_116"/>
<path fill-rule="evenodd" d="M480.9,901H543v62.9H480.9V901Z" class="g1_116"/>
<path fill-rule="evenodd" d="M310.9,901H373v62.9H310.9V901Z" class="g1_116"/>
<path fill-rule="evenodd" d="M372.9,851.3H480.6V901H372.9V851.3Z" class="g2_116"/>
<path d="M372.9,851.3H480.6V901H372.9V851.3Z" class="g3_116"/>
<path fill-rule="evenodd" d="M425.3,858.1l-1.4,4.7c-.1,.3,-.1,.4,-.1,.5c0,.2,.1,.3,.2,.3c.3,0,.6,-.3,.9,-.9l.2,.1c-.2,.4,-.5,.7,-.8,1c-.4,.3,-.8,.4,-1.1,.4c-.3,0,-.4,-.2,-.4,-.6c0,-.2,.1,-.7,.3,-1.4c-.6,.7,-1,1.2,-1.5,1.5c-.5,.4,-.9,.5,-1.3,.5c-.3,0,-.6,-.1,-.8,-.4c-.3,-.3,-.4,-.7,-.4,-1.1c0,-1,.5,-2.1,1.3,-3.2c.9,-1,1.7,-1.6,2.6,-1.6c.3,0,.5,.1,.7,.3c.2,.2,.3,.4,.3,.7l.3,-.8Zm-1.6,2.1c.1,-.4,.1,-.7,.1,-1c0,-.3,-.1,-.5,-.2,-.7c-.2,-.2,-.3,-.3,-.6,-.3c-.6,0,-1.2,.5,-1.8,1.6c-.7,1.1,-1,1.9,-1,2.7c0,.3,.1,.5,.2,.7c.2,.2,.4,.3,.6,.3c.5,0,.9,-.3,1.5,-.9c.5,-.6,.8,-1.2,1,-1.8Z" class="g4_116"/>
<path d="M425.3,858.1l-1.4,4.7c-.1,.3,-.1,.4,-.1,.5c0,.2,.1,.3,.2,.3c.3,0,.6,-.3,.9,-.9l.2,.1c-.2,.4,-.5,.7,-.8,1c-.4,.3,-.8,.4,-1.1,.4c-.3,0,-.4,-.2,-.4,-.6c0,-.2,.1,-.7,.3,-1.4c-.6,.7,-1,1.2,-1.5,1.5c-.5,.4,-.9,.5,-1.3,.5c-.3,0,-.6,-.1,-.8,-.4c-.3,-.3,-.4,-.7,-.4,-1.1c0,-1,.5,-2.1,1.3,-3.2c.9,-1,1.7,-1.6,2.6,-1.6c.3,0,.5,.1,.7,.3c.2,.2,.3,.4,.3,.7l.3,-.8h1Zm-1.6,2.1c.1,-.4,.1,-.7,.1,-1c0,-.3,-.1,-.5,-.2,-.7c-.2,-.2,-.3,-.3,-.6,-.3c-.6,0,-1.2,.5,-1.8,1.6c-.7,1.1,-1,1.9,-1,2.7c0,.3,.1,.5,.2,.7c.2,.2,.4,.3,.6,.3c.5,0,.9,-.3,1.5,-.9c.5,-.6,.8,-1.2,1,-1.8l.2,-.6Z" class="g5_116"/>
<path fill-rule="evenodd" d="M258,890.1l-1.3,4.7c-.1,.3,-.1,.5,-.1,.6c0,.1,0,.2,.1,.2c.3,0,.6,-.3,1,-.9l.2,.1c-.2,.5,-.5,.8,-.9,1.1c-.4,.3,-.7,.4,-1,.4c-.3,0,-.5,-.2,-.5,-.6c0,-.3,.1,-.7,.3,-1.4c-.5,.7,-1,1.2,-1.5,1.5c-.4,.3,-.8,.5,-1.2,.5c-.4,0,-.7,-.2,-.9,-.5c-.2,-.3,-.3,-.6,-.3,-1c0,-1.1,.4,-2.1,1.3,-3.2c.8,-1.1,1.7,-1.6,2.5,-1.6c.3,0,.5,.1,.7,.3c.2,.1,.4,.4,.4,.6l.2,-.8Zm-1.6,2.1c.1,-.3,.2,-.6,.2,-.9c0,-.4,-.1,-.6,-.3,-.8c-.1,-.2,-.3,-.2,-.5,-.2c-.7,0,-1.3,.5,-1.9,1.5c-.6,1.1,-.9,2,-.9,2.7c0,.3,0,.6,.2,.8c.1,.1,.3,.2,.6,.2c.4,0,.9,-.3,1.4,-.9c.5,-.6,.9,-1.1,1,-1.8Z" class="g4_116"/>
<path d="M258,890.1l-1.3,4.7c-.1,.3,-.1,.5,-.1,.6c0,.1,0,.2,.1,.2c.3,0,.6,-.3,1,-.9l.2,.1c-.2,.5,-.5,.8,-.9,1.1c-.4,.3,-.7,.4,-1,.4c-.3,0,-.5,-.2,-.5,-.6c0,-.3,.1,-.7,.3,-1.4c-.5,.7,-1,1.2,-1.5,1.5c-.4,.3,-.8,.5,-1.2,.5c-.4,0,-.7,-.2,-.9,-.5c-.2,-.3,-.3,-.6,-.3,-1c0,-1.1,.4,-2.1,1.3,-3.2c.8,-1.1,1.7,-1.6,2.5,-1.6c.3,0,.5,.1,.7,.3c.2,.1,.4,.4,.4,.6l.2,-.8h1Zm-1.6,2.1c.1,-.3,.2,-.6,.2,-.9c0,-.4,-.1,-.6,-.3,-.8c-.1,-.2,-.3,-.2,-.5,-.2c-.7,0,-1.3,.5,-1.9,1.5c-.6,1.1,-.9,2,-.9,2.7c0,.3,0,.6,.2,.8c.1,.1,.3,.2,.6,.2c.4,0,.9,-.3,1.4,-.9c.5,-.6,.9,-1.1,1,-1.8l.2,-.6Z" class="g5_116"/>
<path fill-rule="evenodd" d="M257.3,969.1l-1.3,4.7c-.1,.3,-.1,.5,-.1,.6c0,.1,0,.2,.1,.2c.3,0,.7,-.3,1,-.9l.2,.1c-.2,.4,-.5,.8,-.9,1.1c-.4,.2,-.7,.4,-1,.4c-.3,0,-.5,-.2,-.5,-.6c0,-.3,.1,-.8,.3,-1.4c-.5,.6,-1,1.1,-1.4,1.5c-.5,.3,-.9,.5,-1.3,.5c-.4,0,-.7,-.2,-.9,-.5c-.2,-.3,-.3,-.6,-.3,-1.1c0,-1,.4,-2.1,1.3,-3.1c.8,-1.1,1.7,-1.6,2.6,-1.6c.2,0,.4,.1,.6,.2c.2,.2,.4,.5,.4,.7l.2,-.8Zm-1.6,2.1c.1,-.3,.2,-.7,.2,-1c0,-.3,-.1,-.5,-.2,-.7c-.2,-.2,-.4,-.3,-.6,-.3c-.6,0,-1.3,.6,-1.9,1.6c-.6,1.1,-.9,2,-.9,2.7c0,.3,.1,.6,.2,.7c.2,.2,.3,.3,.6,.3c.4,0,.9,-.3,1.4,-.9c.5,-.6,.9,-1.2,1,-1.8Z" class="g4_116"/>
<path d="M257.3,969.1l-1.3,4.7c-.1,.3,-.1,.5,-.1,.6c0,.1,0,.2,.1,.2c.3,0,.7,-.3,1,-.9l.2,.1c-.2,.4,-.5,.8,-.9,1.1c-.4,.2,-.7,.4,-1,.4c-.3,0,-.5,-.2,-.5,-.6c0,-.3,.1,-.8,.3,-1.4c-.5,.6,-1,1.1,-1.4,1.5c-.5,.3,-.9,.5,-1.3,.5c-.4,0,-.7,-.2,-.9,-.5c-.2,-.3,-.3,-.6,-.3,-1.1c0,-1,.4,-2.1,1.3,-3.1c.8,-1.1,1.7,-1.6,2.6,-1.6c.2,0,.4,.1,.6,.2c.2,.2,.4,.5,.4,.7l.2,-.8h1Zm-1.6,2.1c.1,-.3,.2,-.7,.2,-1c0,-.3,-.1,-.5,-.2,-.7c-.2,-.2,-.4,-.3,-.6,-.3c-.6,0,-1.3,.6,-1.9,1.6c-.6,1.1,-.9,2,-.9,2.7c0,.3,.1,.6,.2,.7c.2,.2,.3,.3,.6,.3c.4,0,.9,-.3,1.4,-.9c.5,-.6,.9,-1.2,1,-1.8l.2,-.6Z" class="g5_116"/>
<path fill-rule="evenodd" d="M425.7,907.3l-1.3,4.7c-.1,.3,-.2,.5,-.2,.6c0,.1,.1,.2,.2,.2c.3,0,.6,-.3,1,-.9l.2,.1c-.2,.4,-.5,.8,-.9,1c-.4,.3,-.7,.5,-1,.5c-.3,0,-.5,-.2,-.5,-.6c0,-.3,.1,-.8,.3,-1.4c-.5,.6,-1,1.1,-1.5,1.5c-.4,.3,-.8,.5,-1.2,.5c-.4,0,-.7,-.2,-.9,-.5c-.2,-.3,-.3,-.6,-.3,-1.1c0,-1,.4,-2.1,1.3,-3.1c.8,-1.1,1.7,-1.6,2.5,-1.6c.3,0,.5,.1,.7,.2c.2,.2,.4,.4,.4,.7l.2,-.8Zm-1.6,2.1c.1,-.4,.2,-.7,.2,-1c0,-.3,-.1,-.5,-.3,-.7c-.1,-.2,-.3,-.3,-.5,-.3c-.7,0,-1.3,.6,-1.9,1.6c-.6,1.1,-.9,2,-.9,2.7c0,.3,0,.6,.2,.7c.1,.2,.3,.3,.6,.3c.4,0,.9,-.3,1.4,-.9c.5,-.6,.9,-1.2,1,-1.8Z" class="g4_116"/>
<path d="M425.7,907.3l-1.3,4.7c-.1,.3,-.2,.5,-.2,.6c0,.1,.1,.2,.2,.2c.3,0,.6,-.3,1,-.9l.2,.1c-.2,.4,-.5,.8,-.9,1c-.4,.3,-.7,.5,-1,.5c-.3,0,-.5,-.2,-.5,-.6c0,-.3,.1,-.8,.3,-1.4c-.5,.6,-1,1.1,-1.5,1.5c-.4,.3,-.8,.5,-1.2,.5c-.4,0,-.7,-.2,-.9,-.5c-.2,-.3,-.3,-.6,-.3,-1.1c0,-1,.4,-2.1,1.3,-3.1c.8,-1.1,1.7,-1.6,2.5,-1.6c.3,0,.5,.1,.7,.2c.2,.2,.4,.4,.4,.7l.2,-.8h1Zm-1.6,2.1c.1,-.4,.2,-.7,.2,-1c0,-.3,-.1,-.5,-.3,-.7c-.1,-.2,-.3,-.3,-.5,-.3c-.7,0,-1.3,.6,-1.9,1.6c-.6,1.1,-.9,2,-.9,2.7c0,.3,0,.6,.2,.7c.1,.2,.3,.3,.6,.3c.4,0,.9,-.3,1.4,-.9c.5,-.6,.9,-1.2,1,-1.8l.2,-.6Z" class="g5_116"/>
<path fill-rule="evenodd" d="M426.2,954.2l-1.4,4.7c-.1,.3,-.1,.5,-.1,.6c0,.2,.1,.2,.2,.2c.3,0,.6,-.3,.9,-.9l.3,.1c-.3,.5,-.6,.8,-.9,1.1c-.4,.3,-.8,.4,-1.1,.4c-.3,0,-.4,-.2,-.4,-.6c0,-.3,.1,-.7,.3,-1.4c-.6,.7,-1,1.2,-1.5,1.5c-.5,.3,-.9,.5,-1.3,.5c-.3,0,-.6,-.2,-.8,-.5c-.2,-.3,-.4,-.6,-.4,-1c0,-1.1,.5,-2.1,1.3,-3.2c.9,-1.1,1.7,-1.6,2.6,-1.6c.3,0,.5,.1,.7,.3c.2,.1,.3,.4,.3,.6l.3,-.8Zm-1.6,2.1c.1,-.3,.1,-.6,.1,-.9c0,-.3,-.1,-.6,-.2,-.8c-.1,-.2,-.3,-.2,-.6,-.2c-.6,0,-1.2,.5,-1.8,1.6c-.7,1,-1,1.9,-1,2.6c0,.3,.1,.6,.2,.8c.2,.1,.4,.2,.6,.2c.5,0,.9,-.3,1.5,-.9c.5,-.5,.8,-1.1,1,-1.7Z" class="g4_116"/>
<path d="M426.2,954.2l-1.4,4.7c-.1,.3,-.1,.5,-.1,.6c0,.2,.1,.2,.2,.2c.3,0,.6,-.3,.9,-.9l.3,.1c-.3,.5,-.6,.8,-.9,1.1c-.4,.3,-.8,.4,-1.1,.4c-.3,0,-.4,-.2,-.4,-.6c0,-.3,.1,-.7,.3,-1.4c-.6,.7,-1,1.2,-1.5,1.5c-.5,.3,-.9,.5,-1.3,.5c-.3,0,-.6,-.2,-.8,-.5c-.2,-.3,-.4,-.6,-.4,-1c0,-1.1,.5,-2.1,1.3,-3.2c.9,-1.1,1.7,-1.6,2.6,-1.6c.3,0,.5,.1,.7,.3c.2,.1,.3,.4,.3,.6l.3,-.8h1Zm-1.6,2.1c.1,-.3,.1,-.6,.1,-.9c0,-.3,-.1,-.6,-.2,-.8c-.1,-.2,-.3,-.2,-.6,-.2c-.6,0,-1.2,.5,-1.8,1.6c-.7,1,-1,1.9,-1,2.6c0,.3,.1,.6,.2,.8c.2,.1,.4,.2,.6,.2c.5,0,.9,-.3,1.5,-.9c.5,-.5,.8,-1.1,1,-1.7l.2,-.7Z" class="g5_116"/>
<path fill-rule="evenodd" d="M426.6,1003.5l-1.3,4.7c-.1,.2,-.1,.4,-.1,.5q0,.2,.1,.2c.3,0,.6,-.3,1,-.9l.2,.2c-.2,.4,-.5,.7,-.9,1c-.4,.3,-.7,.4,-1,.4c-.3,0,-.5,-.2,-.5,-.6c0,-.3,.1,-.7,.3,-1.4c-.5,.7,-1,1.2,-1.5,1.5c-.4,.4,-.8,.5,-1.2,.5c-.4,0,-.7,-.1,-.9,-.4c-.2,-.3,-.3,-.7,-.3,-1.1c0,-1.1,.4,-2.1,1.3,-3.2c.8,-1.1,1.7,-1.6,2.5,-1.6c.3,0,.5,.1,.7,.3c.2,.2,.4,.4,.4,.7l.2,-.8Zm-1.6,2c.1,-.3,.2,-.6,.2,-.9c0,-.3,-.1,-.6,-.3,-.8c-.1,-.1,-.3,-.2,-.5,-.2c-.7,0,-1.3,.5,-1.9,1.6c-.6,1,-.9,1.9,-.9,2.6c0,.4,0,.6,.2,.8c.1,.2,.3,.2,.6,.2c.4,0,.9,-.3,1.4,-.8c.5,-.6,.9,-1.2,1,-1.8Z" class="g4_116"/>
<path d="M426.6,1003.5l-1.3,4.7c-.1,.2,-.1,.4,-.1,.5q0,.2,.1,.2c.3,0,.6,-.3,1,-.9l.2,.2c-.2,.4,-.5,.7,-.9,1c-.4,.3,-.7,.4,-1,.4c-.3,0,-.5,-.2,-.5,-.6c0,-.3,.1,-.7,.3,-1.4c-.5,.7,-1,1.2,-1.5,1.5c-.4,.4,-.8,.5,-1.2,.5c-.4,0,-.7,-.1,-.9,-.4c-.2,-.3,-.3,-.7,-.3,-1.1c0,-1.1,.4,-2.1,1.3,-3.2c.8,-1.1,1.7,-1.6,2.5,-1.6c.3,0,.5,.1,.7,.3c.2,.2,.4,.4,.4,.7l.2,-.8h1Zm-1.6,2c.1,-.3,.2,-.6,.2,-.9c0,-.3,-.1,-.6,-.3,-.8c-.1,-.1,-.3,-.2,-.5,-.2c-.7,0,-1.3,.5,-1.9,1.6c-.6,1,-.9,1.9,-.9,2.6c0,.4,0,.6,.2,.8c.1,.2,.3,.2,.6,.2c.4,0,.9,-.3,1.4,-.8c.5,-.6,.9,-1.2,1,-1.8l.2,-.7Z" class="g5_116"/>
<path fill-rule="evenodd" d="M197,935.5c-.8,1.1,-1.7,1.6,-2.7,1.6c-.5,0,-.9,-.2,-1.2,-.6c-.4,-.3,-.5,-.8,-.5,-1.4c0,-1,.4,-2,1.2,-2.9c.8,-1,1.7,-1.4,2.6,-1.4c.4,0,.6,.1,.9,.3c.2,.2,.3,.4,.3,.7c0,.3,0,.5,-.2,.7c-.1,.1,-.3,.2,-.5,.2c-.1,0,-.2,0,-.3,-.1c-.1,-.1,-.1,-.2,-.1,-.3c0,-.2,0,-.4,.2,-.5c.2,-.1,.2,-.3,.2,-.4c0,-.1,0,-.2,-.1,-.3c-.2,0,-.3,-.1,-.4,-.1c-.7,0,-1.3,.5,-1.9,1.4c-.5,.9,-.8,1.7,-.8,2.5c0,.5,.1,.9,.3,1.2c.3,.3,.6,.4,.9,.4c.7,0,1.3,-.3,1.9,-1.1Z" class="g4_116"/>
<path d="M197,935.5c-.8,1.1,-1.7,1.6,-2.7,1.6c-.5,0,-.9,-.2,-1.2,-.6c-.4,-.3,-.5,-.8,-.5,-1.4c0,-1,.4,-2,1.2,-2.9c.8,-1,1.7,-1.4,2.6,-1.4c.4,0,.6,.1,.9,.3c.2,.2,.3,.4,.3,.7c0,.3,0,.5,-.2,.7c-.1,.1,-.3,.2,-.5,.2c-.1,0,-.2,0,-.3,-.1c-.1,-.1,-.1,-.2,-.1,-.3c0,-.2,0,-.4,.2,-.5c.2,-.1,.2,-.3,.2,-.4c0,-.1,0,-.2,-.1,-.3c-.2,0,-.3,-.1,-.4,-.1c-.7,0,-1.3,.5,-1.9,1.4c-.5,.9,-.8,1.7,-.8,2.5c0,.5,.1,.9,.3,1.2c.3,.3,.6,.4,.9,.4c.7,0,1.3,-.3,1.9,-1.1l.2,.1Z" class="g5_116"/>
<path fill-rule="evenodd" d="M303.9,933.8c-.8,1,-1.7,1.6,-2.7,1.6c-.5,0,-.9,-.2,-1.2,-.6c-.4,-.4,-.5,-.8,-.5,-1.4c0,-1,.4,-2,1.2,-2.9c.8,-1,1.7,-1.5,2.6,-1.5c.4,0,.6,.1,.9,.3c.2,.2,.3,.5,.3,.8c0,.3,0,.5,-.2,.6c-.1,.2,-.3,.3,-.5,.3c-.1,0,-.2,0,-.3,-.1c-.1,-.1,-.1,-.2,-.1,-.4c0,-.1,0,-.3,.2,-.4c.2,-.2,.2,-.3,.2,-.4c0,-.1,0,-.2,-.1,-.3c-.1,-.1,-.3,-.1,-.4,-.1c-.7,0,-1.3,.4,-1.9,1.3c-.5,1,-.8,1.8,-.8,2.6c0,.5,.1,.9,.3,1.2c.3,.3,.6,.4,.9,.4c.7,0,1.3,-.4,1.9,-1.1Z" class="g4_116"/>
<path d="M303.9,933.8c-.8,1,-1.7,1.6,-2.7,1.6c-.5,0,-.9,-.2,-1.2,-.6c-.4,-.4,-.5,-.8,-.5,-1.4c0,-1,.4,-2,1.2,-2.9c.8,-1,1.7,-1.5,2.6,-1.5c.4,0,.6,.1,.9,.3c.2,.2,.3,.5,.3,.8c0,.3,0,.5,-.2,.6c-.1,.2,-.3,.3,-.5,.3c-.1,0,-.2,0,-.3,-.1c-.1,-.1,-.1,-.2,-.1,-.4c0,-.1,0,-.3,.2,-.4c.2,-.2,.2,-.3,.2,-.4c0,-.1,0,-.2,-.1,-.3c-.1,-.1,-.3,-.1,-.4,-.1c-.7,0,-1.3,.4,-1.9,1.3c-.5,1,-.8,1.8,-.8,2.6c0,.5,.1,.9,.3,1.2c.3,.3,.6,.4,.9,.4c.7,0,1.3,-.4,1.9,-1.1l.2,.1Z" class="g5_116"/>
<path fill-rule="evenodd" d="M382.2,932.1c-.8,1,-1.7,1.5,-2.7,1.5c-.5,0,-.9,-.1,-1.2,-.5c-.4,-.4,-.5,-.8,-.5,-1.4c0,-1,.4,-2,1.2,-3c.8,-.9,1.7,-1.4,2.6,-1.4c.4,0,.6,.1,.9,.3c.2,.2,.3,.5,.3,.8c0,.2,0,.4,-.2,.6c-.1,.2,-.3,.3,-.5,.3c-.1,0,-.2,-.1,-.3,-.2c-.1,0,-.1,-.1,-.1,-.3c0,-.1,0,-.3,.2,-.4c.2,-.2,.2,-.3,.2,-.4c0,-.1,0,-.2,-.1,-.3c-.2,-.1,-.3,-.1,-.4,-.1c-.7,0,-1.3,.4,-1.9,1.3c-.5,.9,-.8,1.8,-.8,2.6c0,.5,.1,.9,.3,1.2c.3,.3,.6,.4,.9,.4c.7,0,1.3,-.4,1.9,-1.1Z" class="g4_116"/>
<path d="M382.2,932.1c-.8,1,-1.7,1.5,-2.7,1.5c-.5,0,-.9,-.1,-1.2,-.5c-.4,-.4,-.5,-.8,-.5,-1.4c0,-1,.4,-2,1.2,-3c.8,-.9,1.7,-1.4,2.6,-1.4c.4,0,.6,.1,.9,.3c.2,.2,.3,.5,.3,.8c0,.2,0,.4,-.2,.6c-.1,.2,-.3,.3,-.5,.3c-.1,0,-.2,-.1,-.3,-.2c-.1,0,-.1,-.1,-.1,-.3c0,-.1,0,-.3,.2,-.4c.2,-.2,.2,-.3,.2,-.4c0,-.1,0,-.2,-.1,-.3c-.2,-.1,-.3,-.1,-.4,-.1c-.7,0,-1.3,.4,-1.9,1.3c-.5,.9,-.8,1.8,-.8,2.6c0,.5,.1,.9,.3,1.2c.3,.3,.6,.4,.9,.4c.7,0,1.3,-.4,1.9,-1.1l.2,.1Z" class="g5_116"/>
<path fill-rule="evenodd" d="M490.8,932.7c-.8,1,-1.7,1.5,-2.7,1.5c-.5,0,-.9,-.2,-1.2,-.5c-.4,-.4,-.5,-.9,-.5,-1.5c0,-1,.4,-2,1.2,-2.9c.8,-.9,1.7,-1.4,2.6,-1.4c.4,0,.7,.1,.9,.3c.2,.2,.3,.5,.3,.8c0,.2,0,.4,-.2,.6c-.1,.2,-.3,.3,-.5,.3c-.1,0,-.2,-.1,-.3,-.2c-.1,-.1,-.1,-.2,-.1,-.3c0,-.2,.1,-.3,.2,-.5c.2,-.1,.3,-.2,.3,-.3c0,-.2,-.1,-.3,-.2,-.3c-.1,-.1,-.3,-.1,-.4,-.1c-.7,0,-1.3,.4,-1.8,1.3c-.6,.9,-.9,1.8,-.9,2.6c0,.5,.1,.8,.3,1.1c.3,.3,.6,.5,.9,.5c.7,0,1.4,-.4,1.9,-1.2Z" class="g4_116"/>
<path d="M490.8,932.7c-.8,1,-1.7,1.5,-2.7,1.5c-.5,0,-.9,-.2,-1.2,-.5c-.4,-.4,-.5,-.9,-.5,-1.5c0,-1,.4,-2,1.2,-2.9c.8,-.9,1.7,-1.4,2.6,-1.4c.4,0,.7,.1,.9,.3c.2,.2,.3,.5,.3,.8c0,.2,0,.4,-.2,.6c-.1,.2,-.3,.3,-.5,.3c-.1,0,-.2,-.1,-.3,-.2c-.1,-.1,-.1,-.2,-.1,-.3c0,-.2,.1,-.3,.2,-.5c.2,-.1,.3,-.2,.3,-.3c0,-.2,-.1,-.3,-.2,-.3c-.1,-.1,-.3,-.1,-.4,-.1c-.7,0,-1.3,.4,-1.8,1.3c-.6,.9,-.9,1.8,-.9,2.6c0,.5,.1,.8,.3,1.1c.3,.3,.6,.5,.9,.5c.7,0,1.4,-.4,1.9,-1.2l.2,.2Z" class="g5_116"/>
<path fill-rule="evenodd" d="M552,935c-.9,1,-1.8,1.5,-2.7,1.5c-.5,0,-1,-.2,-1.3,-.5c-.3,-.4,-.5,-.9,-.5,-1.5c0,-1,.4,-2,1.2,-2.9c.8,-.9,1.7,-1.4,2.7,-1.4c.3,0,.6,.1,.8,.3c.2,.2,.4,.4,.4,.8c0,.2,-.1,.4,-.2,.6c-.2,.2,-.3,.2,-.5,.2c-.2,0,-.3,0,-.4,-.1c-.1,-.1,-.1,-.2,-.1,-.3c0,-.2,.1,-.3,.2,-.5c.2,-.1,.3,-.2,.3,-.3c0,-.2,-.1,-.3,-.2,-.3c-.1,-.1,-.2,-.2,-.4,-.2c-.6,0,-1.3,.5,-1.8,1.4c-.6,.9,-.9,1.8,-.9,2.6c0,.5,.1,.8,.4,1.1c.2,.3,.5,.5,.9,.5c.6,0,1.3,-.4,1.9,-1.2Z" class="g4_116"/>
<path d="M552,935c-.9,1,-1.8,1.5,-2.7,1.5c-.5,0,-1,-.2,-1.3,-.5c-.3,-.4,-.5,-.9,-.5,-1.5c0,-1,.4,-2,1.2,-2.9c.8,-.9,1.7,-1.4,2.7,-1.4c.3,0,.6,.1,.8,.3c.2,.2,.4,.4,.4,.8c0,.2,-.1,.4,-.2,.6c-.2,.2,-.3,.2,-.5,.2c-.2,0,-.3,0,-.4,-.1c-.1,-.1,-.1,-.2,-.1,-.3c0,-.2,.1,-.3,.2,-.5c.2,-.1,.3,-.2,.3,-.3c0,-.2,-.1,-.3,-.2,-.3c-.1,-.1,-.2,-.2,-.4,-.2c-.6,0,-1.3,.5,-1.8,1.4c-.6,.9,-.9,1.8,-.9,2.6c0,.5,.1,.8,.4,1.1c.2,.3,.5,.5,.9,.5c.6,0,1.3,-.4,1.9,-1.2l.2,.2Z" class="g5_116"/>
<path fill-rule="evenodd" d="M339.7,884.3l-1.4,4.8c.7,-.8,1.4,-1.3,2.1,-1.3c.5,0,.9,.2,1.2,.5c.3,.3,.4,.8,.4,1.4c0,1,-.4,2,-1.2,3c-.9,1,-1.8,1.4,-2.7,1.4c-.7,0,-1.4,-.2,-2.1,-.8l2.2,-7.3c.1,-.3,.1,-.6,.1,-.7c0,-.3,-.1,-.4,-.4,-.4c-.1,0,-.3,0,-.5,.1v-.3l2,-.4Zm-2.7,9.2c.4,.2,.8,.4,1.1,.4c.8,0,1.5,-.5,2,-1.3c.6,-.9,.8,-1.8,.8,-2.8c0,-.4,-.1,-.8,-.2,-1c-.2,-.2,-.4,-.3,-.7,-.3c-.5,0,-.9,.2,-1.3,.5c-.3,.3,-.6,.8,-.8,1.4Z" class="g4_116"/>
<path d="M339.7,884.3l-1.4,4.8c.7,-.8,1.4,-1.3,2.1,-1.3c.5,0,.9,.2,1.2,.5c.3,.3,.4,.8,.4,1.4c0,1,-.4,2,-1.2,3c-.9,1,-1.8,1.4,-2.7,1.4c-.7,0,-1.4,-.2,-2.1,-.8l2.2,-7.3c.1,-.3,.1,-.6,.1,-.7c0,-.3,-.1,-.4,-.4,-.4c-.1,0,-.3,0,-.5,.1v-.3l2,-.4h.3Zm-2.7,9.2c.4,.2,.8,.4,1.1,.4c.8,0,1.5,-.5,2,-1.3c.6,-.9,.8,-1.8,.8,-2.8c0,-.4,-.1,-.8,-.2,-1c-.2,-.2,-.4,-.3,-.7,-.3c-.5,0,-.9,.2,-1.3,.5c-.3,.3,-.6,.8,-.8,1.4l-.9,3.1Z" class="g5_116"/>
<path fill-rule="evenodd" d="M511.8,884.3l-1.4,4.8c.7,-.8,1.4,-1.3,2.1,-1.3c.5,0,.9,.2,1.2,.5c.3,.3,.5,.8,.5,1.4c0,1,-.4,2,-1.3,3c-.8,1,-1.7,1.4,-2.7,1.4c-.6,0,-1.3,-.2,-2,-.8l2.1,-7.3c.1,-.3,.2,-.6,.2,-.7c0,-.3,-.2,-.4,-.4,-.4c-.2,0,-.3,0,-.5,.1v-.3l2,-.4Zm-2.6,9.2c.4,.2,.7,.4,1.1,.4c.8,0,1.4,-.5,2,-1.3c.5,-.9,.8,-1.8,.8,-2.8c0,-.4,-.1,-.8,-.3,-1c-.1,-.2,-.4,-.3,-.7,-.3c-.4,0,-.8,.2,-1.2,.5c-.4,.3,-.7,.8,-.9,1.4Z" class="g4_116"/>
<path d="M511.8,884.3l-1.4,4.8c.7,-.8,1.4,-1.3,2.1,-1.3c.5,0,.9,.2,1.2,.5c.3,.3,.5,.8,.5,1.4c0,1,-.4,2,-1.3,3c-.8,1,-1.7,1.4,-2.7,1.4c-.6,0,-1.3,-.2,-2,-.8l2.1,-7.3c.1,-.3,.2,-.6,.2,-.7c0,-.3,-.2,-.4,-.4,-.4c-.2,0,-.3,0,-.5,.1v-.3l2,-.4h.2Zm-2.6,9.2c.4,.2,.7,.4,1.1,.4c.8,0,1.4,-.5,2,-1.3c.5,-.9,.8,-1.8,.8,-2.8c0,-.4,-.1,-.8,-.3,-1c-.1,-.2,-.4,-.3,-.7,-.3c-.4,0,-.8,.2,-1.2,.5c-.4,.3,-.7,.8,-.9,1.4l-.8,3.1Z" class="g5_116"/>
<path fill-rule="evenodd" d="M514.8,969.6l-1.4,4.8c.7,-.9,1.4,-1.3,2.1,-1.3c.5,0,.9,.2,1.2,.5c.3,.3,.4,.8,.4,1.4c0,1,-.4,2,-1.2,2.9c-.9,1,-1.8,1.5,-2.7,1.5c-.7,0,-1.4,-.2,-2.1,-.8l2.2,-7.3c.1,-.4,.1,-.6,.1,-.7c0,-.3,-.1,-.4,-.4,-.4c-.1,0,-.3,0,-.5,0V970l2,-.4Zm-2.7,9.2c.4,.2,.8,.3,1.1,.3c.8,0,1.5,-.4,2,-1.3c.6,-.8,.8,-1.7,.8,-2.7c0,-.4,0,-.8,-.2,-1c-.2,-.2,-.4,-.3,-.7,-.3c-.5,0,-.9,.1,-1.2,.5c-.4,.3,-.7,.8,-.9,1.4Z" class="g4_116"/>
<path d="M514.8,969.6l-1.4,4.8c.7,-.9,1.4,-1.3,2.1,-1.3c.5,0,.9,.2,1.2,.5c.3,.3,.4,.8,.4,1.4c0,1,-.4,2,-1.2,2.9c-.9,1,-1.8,1.5,-2.7,1.5c-.7,0,-1.4,-.2,-2.1,-.8l2.2,-7.3c.1,-.4,.1,-.6,.1,-.7c0,-.3,-.1,-.4,-.4,-.4c-.1,0,-.3,0,-.5,0V970l2,-.4h.3Zm-2.7,9.2c.4,.2,.8,.3,1.1,.3c.8,0,1.5,-.4,2,-1.3c.6,-.8,.8,-1.7,.8,-2.7c0,-.4,0,-.8,-.2,-1c-.2,-.2,-.4,-.3,-.7,-.3c-.5,0,-.9,.1,-1.2,.5c-.4,.3,-.7,.8,-.9,1.4l-.9,3.1Z" class="g5_116"/>
<path fill-rule="evenodd" d="M490,982.8l-1.4,4.7c.7,-.8,1.5,-1.2,2.2,-1.2c.4,0,.8,.1,1.1,.5c.3,.3,.5,.7,.5,1.3c0,1,-.4,2,-1.3,3c-.8,1,-1.7,1.5,-2.7,1.5c-.6,0,-1.3,-.3,-2,-.8l2.1,-7.3c.1,-.4,.2,-.6,.2,-.7c0,-.3,-.1,-.4,-.4,-.4c-.2,0,-.3,0,-.5,0v-.3l2,-.3Zm-2.6,9.1c.4,.3,.8,.4,1.1,.4c.8,0,1.4,-.4,2,-1.3c.5,-.9,.8,-1.8,.8,-2.7c0,-.5,-.1,-.8,-.2,-1c-.2,-.3,-.4,-.4,-.8,-.4c-.4,0,-.8,.2,-1.2,.5c-.4,.3,-.7,.8,-.8,1.5Z" class="g4_116"/>
<path d="M490,982.8l-1.4,4.7c.7,-.8,1.5,-1.2,2.2,-1.2c.4,0,.8,.1,1.1,.5c.3,.3,.5,.7,.5,1.3c0,1,-.4,2,-1.3,3c-.8,1,-1.7,1.5,-2.7,1.5c-.6,0,-1.3,-.3,-2,-.8l2.1,-7.3c.1,-.4,.2,-.6,.2,-.7c0,-.3,-.1,-.4,-.4,-.4c-.2,0,-.3,0,-.5,0v-.3l2,-.3h.2Zm-2.6,9.1c.4,.3,.8,.4,1.1,.4c.8,0,1.4,-.4,2,-1.3c.5,-.9,.8,-1.8,.8,-2.7c0,-.5,-.1,-.8,-.2,-1c-.2,-.3,-.4,-.4,-.8,-.4c-.4,0,-.8,.2,-1.2,.5c-.4,.3,-.7,.8,-.8,1.5l-.9,3Z" class="g5_116"/>
<path fill-rule="evenodd" d="M340.7,967.3l-1.4,4.8c.7,-.9,1.4,-1.3,2.1,-1.3c.5,0,.9,.2,1.2,.5c.3,.3,.4,.8,.4,1.4c0,1,-.4,2,-1.2,3c-.8,.9,-1.7,1.4,-2.7,1.4c-.7,0,-1.4,-.2,-2,-.8l2.1,-7.3c.1,-.3,.1,-.6,.1,-.7c0,-.3,-.1,-.4,-.4,-.4c-.1,0,-.3,0,-.4,.1v-.3l1.9,-.4Zm-2.7,9.2c.4,.2,.8,.4,1.2,.4c.7,0,1.4,-.5,1.9,-1.3c.6,-.9,.9,-1.8,.9,-2.8c0,-.4,-.1,-.8,-.3,-1c-.1,-.2,-.4,-.3,-.7,-.3c-.4,0,-.8,.1,-1.2,.5c-.4,.3,-.7,.8,-.9,1.4Z" class="g4_116"/>
<path d="M340.7,967.3l-1.4,4.8c.7,-.9,1.4,-1.3,2.1,-1.3c.5,0,.9,.2,1.2,.5c.3,.3,.4,.8,.4,1.4c0,1,-.4,2,-1.2,3c-.8,.9,-1.7,1.4,-2.7,1.4c-.7,0,-1.4,-.2,-2,-.8l2.1,-7.3c.1,-.3,.1,-.6,.1,-.7c0,-.3,-.1,-.4,-.4,-.4c-.1,0,-.3,0,-.4,.1v-.3l1.9,-.4h.3Zm-2.7,9.2c.4,.2,.8,.4,1.2,.4c.7,0,1.4,-.5,1.9,-1.3c.6,-.9,.9,-1.8,.9,-2.8c0,-.4,-.1,-.8,-.3,-1c-.1,-.2,-.4,-.3,-.7,-.3c-.4,0,-.8,.1,-1.2,.5c-.4,.3,-.7,.8,-.9,1.4l-.9,3.1Z" class="g5_116"/>
<path fill-rule="evenodd" d="M365.9,868.3l-1.4,4.8c.7,-.9,1.4,-1.3,2.1,-1.3c.5,0,.9,.2,1.2,.5c.3,.3,.4,.8,.4,1.4c0,1,-.4,2,-1.2,2.9c-.9,1,-1.8,1.5,-2.7,1.5c-.7,0,-1.4,-.3,-2.1,-.8l2.2,-7.3c.1,-.4,.1,-.6,.1,-.7c0,-.3,-.1,-.4,-.4,-.4c-.1,0,-.3,0,-.5,0v-.2l2,-.4Zm-2.7,9.2c.4,.2,.8,.3,1.1,.3c.8,0,1.5,-.4,2,-1.3c.6,-.8,.8,-1.7,.8,-2.7c0,-.4,0,-.8,-.2,-1c-.2,-.2,-.4,-.3,-.7,-.3c-.5,0,-.9,.1,-1.2,.4c-.4,.4,-.7,.9,-.9,1.5Z" class="g4_116"/>
<path d="M365.9,868.3l-1.4,4.8c.7,-.9,1.4,-1.3,2.1,-1.3c.5,0,.9,.2,1.2,.5c.3,.3,.4,.8,.4,1.4c0,1,-.4,2,-1.2,2.9c-.9,1,-1.8,1.5,-2.7,1.5c-.7,0,-1.4,-.3,-2.1,-.8l2.2,-7.3c.1,-.4,.1,-.6,.1,-.7c0,-.3,-.1,-.4,-.4,-.4c-.1,0,-.3,0,-.5,0v-.2l2,-.4h.3Zm-2.7,9.2c.4,.2,.8,.3,1.1,.3c.8,0,1.5,-.4,2,-1.3c.6,-.8,.8,-1.7,.8,-2.7c0,-.4,0,-.8,-.2,-1c-.2,-.2,-.4,-.3,-.7,-.3c-.5,0,-.9,.1,-1.2,.4c-.4,.4,-.7,.9,-.9,1.5l-.9,3.1Z" class="g5_116"/>
<path fill-rule="evenodd" d="M490.5,868.9l-1.4,4.7c.7,-.8,1.4,-1.2,2.1,-1.2c.5,0,.9,.1,1.2,.5c.3,.3,.5,.7,.5,1.3c0,1,-.4,2,-1.3,3c-.8,1,-1.7,1.5,-2.7,1.5c-.6,0,-1.3,-.3,-2,-.8l2.1,-7.3c.1,-.4,.2,-.6,.2,-.7c0,-.3,-.2,-.4,-.4,-.4c-.2,0,-.3,0,-.5,0v-.2l2,-.4Zm-2.6,9.1c.4,.3,.7,.4,1.1,.4c.8,0,1.4,-.4,2,-1.3c.5,-.9,.8,-1.8,.8,-2.7c0,-.5,-.1,-.8,-.3,-1c-.1,-.2,-.4,-.4,-.7,-.4c-.4,0,-.8,.2,-1.2,.5c-.4,.3,-.7,.8,-.9,1.5Z" class="g4_116"/>
<path d="M490.5,868.9l-1.4,4.7c.7,-.8,1.4,-1.2,2.1,-1.2c.5,0,.9,.1,1.2,.5c.3,.3,.5,.7,.5,1.3c0,1,-.4,2,-1.3,3c-.8,1,-1.7,1.5,-2.7,1.5c-.6,0,-1.3,-.3,-2,-.8l2.1,-7.3c.1,-.4,.2,-.6,.2,-.7c0,-.3,-.2,-.4,-.4,-.4c-.2,0,-.3,0,-.5,0v-.2l2,-.4h.2Zm-2.6,9.1c.4,.3,.7,.4,1.1,.4c.8,0,1.4,-.4,2,-1.3c.5,-.9,.8,-1.8,.8,-2.7c0,-.5,-.1,-.8,-.3,-1c-.1,-.2,-.4,-.4,-.7,-.4c-.4,0,-.8,.2,-1.2,.5c-.4,.3,-.7,.8,-.9,1.5l-.8,3Z" class="g5_116"/>
<path fill-rule="evenodd" d="M226.9,898H369V855.2H226.9V898Z" class="g2_116"/>
<path fill-rule="evenodd" d="M224.3,1008.9H366.4V966H224.3v42.9Z" class="g2_116"/>
<path fill-rule="evenodd" d="M388,896.3h68V853.4H388v42.9Z" class="g2_116"/>
<path fill-rule="evenodd" d="M187,958.2h13.5V915.4H187v42.8Z" class="g2_116"/>
<path fill-rule="evenodd" d="M293.6,956.1H307V913.2H293.6v42.9Z" class="g2_116"/>
<path fill-rule="evenodd" d="M375,961.7h99.6V904.5H375v57.2Z" class="g2_116"/>
<path fill-rule="evenodd" d="M545.7,953.9h13.4V911H545.7v42.9Z" class="g2_116"/>
<path fill-rule="evenodd" d="M482.8,955.2h13.5V912.3H482.8v42.9Z" class="g2_116"/>
<path fill-rule="evenodd" d="M484.6,896.3h38.1V853.4H484.6v42.9Z" class="g2_116"/>
<path fill-rule="evenodd" d="M417.4,1011.7h13.5V992.1H417.4v19.6Z" class="g2_116"/>
<path fill-rule="evenodd" d="M483.7,1009.8h37.7V966.9H483.7v42.9Z" class="g2_116"/>
<path fill-rule="evenodd" d="M640.2,397.5l-3.3,4.4h2.9Zm1.6,-2.8l-.8,9.4c-.1,.4,-.1,.7,-.1,.8c0,.3,.1,.4,.1,.5c.1,.2,.3,.3,.5,.4c.1,.1,.5,.1,.9,.1l-.1,.3h-4.4v-.3h.2c.4,0,.7,-.1,.9,-.2c.2,-.1,.3,-.3,.4,-.5c0,-.2,.1,-.6,.2,-1.2l.1,-1.5h-3.2l-1.2,1.6c-.2,.3,-.4,.6,-.5,.7c0,.2,-.1,.3,-.1,.5c0,.1,.1,.3,.3,.4c.1,.1,.3,.2,.7,.2l-.1,.3h-3.4l.1,-.3c.4,0,.8,-.1,1.1,-.4c.3,-.2,.8,-.8,1.4,-1.6l6.7,-9.2Z" class="g4_116"/>
<path fill-rule="evenodd" d="M639.1,332.5l-3.3,4.4h2.9Zm1.6,-2.8l-.8,9.4c-.1,.4,-.1,.7,-.1,.9c0,.2,.1,.3,.1,.5c.1,.1,.3,.2,.5,.3c.2,.1,.5,.1,.9,.1l-.1,.3h-4.4v-.3h.2c.4,0,.7,0,.9,-.2c.2,-.1,.3,-.3,.4,-.5c.1,-.2,.1,-.6,.2,-1.2l.1,-1.5h-3.2l-1.2,1.6c-.2,.3,-.4,.6,-.5,.7c0,.2,-.1,.3,-.1,.5c0,.1,.1,.3,.3,.4c.1,.2,.3,.2,.7,.2l-.1,.3h-3.4l.1,-.3c.5,0,.8,-.1,1.1,-.4c.3,-.2,.8,-.8,1.4,-1.6l6.7,-9.2Z" class="g4_116"/>
<path fill-rule="evenodd" d="M644.4,339.3l1.8,-.9h.2v6.1c0,.4,0,.6,0,.7c0,.1,.1,.2,.2,.3c.1,0,.3,0,.7,.1v.1h-2.7v-.1c.3,-.1,.5,-.1,.6,-.1c.1,-.1,.2,-.2,.2,-.2c.1,-.1,.1,-.4,.1,-.8v-3.9c0,-.5,0,-.8,-.1,-1c0,-.1,0,-.2,-.1,-.2q-.1,-.1,-.2,-.1c-.2,0,-.3,0,-.6,.1Z" class="g4_116"/>
<path fill-rule="evenodd" d="M656.1,303.1l-2.5,8.5c-.2,.6,-.3,1,-.3,1.1c0,.1,.1,.2,.1,.3c.1,.1,.2,.1,.3,.1c.1,.1,.3,.1,.7,.1c.8,0,1.6,-.1,2.4,-.2c.7,-.2,1.3,-.5,1.8,-.8c.7,-.6,1.2,-1.3,1.6,-2.2c.4,-.9,.6,-1.9,.6,-3.1c0,-1.3,-.3,-2.2,-.9,-2.9c-.6,-.6,-1.5,-.9,-2.7,-.9c-.3,0,-.7,0,-1.1,0m-3,-.3l.1,-.3h3.6c1.5,0,2.7,.2,3.4,.5c.7,.4,1.3,.9,1.7,1.7c.5,.7,.7,1.5,.7,2.4c0,.7,-.1,1.4,-.4,2.1c-.2,.7,-.5,1.3,-.8,1.7c-.4,.4,-.8,.9,-1.5,1.4c-.7,.5,-1.4,.9,-2.1,1.1c-.8,.2,-1.8,.4,-2.9,.4h-4.8l.1,-.3c.5,-.1,.7,-.1,.9,-.2c.2,-.1,.4,-.2,.5,-.3c.1,-.3,.3,-.7,.5,-1.4l2,-6.9c.2,-.5,.2,-.9,.2,-1.2c0,-.2,0,-.4,-.2,-.5c-.1,-.1,-.4,-.2,-.8,-.2Z" class="g4_116"/>
<path fill-rule="evenodd" d="M664.5,311.8l1.8,-.8h.2v6c0,.4,0,.7,0,.8c0,.1,.1,.1,.2,.2c.1,0,.3,.1,.7,.1v.2h-2.7v-.2c.3,0,.5,-.1,.6,-.1c.1,-.1,.2,-.1,.2,-.2c.1,-.1,.1,-.4,.1,-.8v-3.9c0,-.5,0,-.8,-.1,-1c0,-.1,0,-.2,-.1,-.2c-.1,-.1,-.2,-.1,-.2,-.1c-.2,0,-.4,.1,-.6,.2Z" class="g4_116"/>
<path fill-rule="evenodd" d="M792.5,303.6l-.9,3.7h-.3v-1c0,-.3,-.1,-.6,-.2,-.9c-.1,-.2,-.3,-.4,-.5,-.6c-.1,-.2,-.4,-.4,-.7,-.5c-.3,-.1,-.6,-.1,-1,-.1c-1,0,-1.9,.2,-2.6,.8c-1,.7,-1.7,1.6,-2.2,2.9c-.5,1,-.7,2.1,-.7,3.2c0,1.1,.3,1.9,.9,2.6c.7,.6,1.5,1,2.5,1c.8,0,1.5,-.2,2.1,-.6c.6,-.3,1.1,-.8,1.7,-1.5h.3c-.6,.9,-1.2,1.6,-2,2.1c-.7,.5,-1.6,.7,-2.6,.7c-1,0,-1.8,-.2,-2.5,-.6c-.7,-.4,-1.2,-.9,-1.6,-1.6c-.4,-.7,-.6,-1.5,-.6,-2.3c0,-1.2,.4,-2.4,1,-3.6c.7,-1.1,1.6,-2,2.7,-2.7c1.2,-.7,2.3,-1,3.5,-1c.6,0,1.2,.1,1.9,.4c.3,.1,.5,.2,.6,.2c.1,0,.3,-.1,.4,-.1c.1,-.1,.2,-.2,.5,-.5Z" class="g4_116"/>
<path fill-rule="evenodd" d="M793.3,313.2l1.8,-.9h.1v6.1c0,.4,.1,.6,.1,.7c0,.1,.1,.2,.2,.2c.1,.1,.3,.1,.6,.1v.2h-2.6v-.2c.3,0,.5,0,.6,-.1c.1,0,.2,-.1,.2,-.2c.1,0,.1,-.3,.1,-.7v-3.9c0,-.5,0,-.9,-.1,-1c0,-.1,-.1,-.2,-.1,-.3c-.1,0,-.2,0,-.3,0c-.1,0,-.3,0,-.5,.1Z" class="g4_116"/>
<path fill-rule="evenodd" d="M764.1,407.7c.6,.1,1.1,.1,1.5,.1c.8,0,1.6,-.2,2.2,-.7c.7,-.6,1,-1.3,1,-2.2c0,-.6,-.2,-1.2,-.6,-1.6c-.4,-.3,-1,-.5,-2,-.5c-.1,0,-.4,0,-.6,0Zm1.7,-5.5c.3,0,.6,0,.8,0c1.1,0,2,-.3,2.5,-.8c.6,-.5,.9,-1.1,.9,-1.8c0,-.6,-.2,-1.1,-.5,-1.4c-.4,-.3,-.9,-.4,-1.7,-.4c-.2,0,-.4,0,-.7,.1Zm-1.7,-4.7l.1,-.3h4c.7,0,1.3,.1,1.8,.3c.6,.2,1,.5,1.2,.9c.3,.4,.4,.8,.4,1.2c0,.6,-.2,1.2,-.7,1.7c-.4,.6,-1.2,1,-2.3,1.2c.7,.3,1.2,.6,1.5,1c.4,.4,.5,.9,.5,1.4c0,.6,-.1,1.1,-.4,1.6c-.3,.5,-.7,.9,-1.1,1.2c-.5,.3,-1,.5,-1.7,.6c-.4,.1,-1.1,.2,-2.1,.2h-4.1l.1,-.3c.4,-.1,.7,-.1,.9,-.2c.2,-.1,.4,-.2,.5,-.3c.1,-.3,.3,-.7,.5,-1.5l2,-6.8c.2,-.6,.3,-1,.3,-1.2c0,-.2,-.1,-.4,-.3,-.5c-.1,-.1,-.4,-.2,-.8,-.2c-.1,0,-.2,0,-.3,0Z" class="g4_116"/>
<path fill-rule="evenodd" d="M795.6,372.5l-.9,3.6h-.3v-.9c0,-.3,-.1,-.6,-.2,-.9c-.1,-.3,-.2,-.5,-.4,-.7c-.2,-.2,-.5,-.3,-.8,-.4c-.3,-.1,-.6,-.2,-1,-.2c-1,0,-1.9,.3,-2.6,.8c-1,.7,-1.7,1.7,-2.2,3c-.5,1,-.7,2.1,-.7,3.1c0,1.1,.3,2,1,2.6c.6,.7,1.4,1,2.4,1c.8,0,1.5,-.2,2.1,-.5c.6,-.3,1.2,-.9,1.7,-1.6h.4c-.6,1,-1.3,1.7,-2.1,2.1c-.7,.5,-1.6,.7,-2.6,.7c-1,0,-1.8,-.2,-2.5,-.5c-.7,-.4,-1.2,-1,-1.6,-1.7c-.4,-.7,-.5,-1.4,-.5,-2.2c0,-1.2,.3,-2.4,.9,-3.6c.7,-1.2,1.6,-2.1,2.7,-2.7c1.2,-.7,2.4,-1,3.5,-1c.6,0,1.2,.1,1.9,.3c.3,.2,.5,.2,.6,.2c.1,0,.3,0,.4,-.1c.1,0,.2,-.2,.5,-.4Z" class="g4_116"/>
<path fill-rule="evenodd" d="M674.5,315.9l103.3,.4l-22.3,20.4l-102.8,-.1Z" class="g6_116"/>
<path d="M652.8,336.8l22.4,-20.6" class="g7_116"/>
<path fill-rule="evenodd" d="M777,316.5l.1,60l-22.3,20.4V337.6Z" class="g6_116"/>
<path fill-rule="evenodd" d="M652.6,337H754.8v59.8H652.6V337Z" class="g6_116"/>
<path d="M652.6,337H754.8v59.8H652.6V337Z" class="g7_116"/>
<path d="M652.7,396.6L675.1,376m102.1,.1H675V316.4" class="g8_116"/>
<path d="M675,316.4H777.2v59.7M754.7,397l22.5,-20.6M754.8,337.2l22.5,-20.6" class="g7_116"/>
<path fill-rule="evenodd" d="M665.4,367.2l-2.5,8.5c-.2,.6,-.3,1,-.3,1.1c0,.1,.1,.2,.1,.3c.1,.1,.2,.1,.3,.2c.1,0,.3,0,.7,0c.8,0,1.6,0,2.4,-.2c.7,-.2,1.3,-.5,1.8,-.8c.7,-.5,1.2,-1.3,1.6,-2.2c.4,-.9,.6,-1.9,.6,-3c0,-1.3,-.3,-2.3,-.9,-2.9c-.6,-.7,-1.5,-1,-2.7,-1c-.3,0,-.7,0,-1.1,0m-3,-.3l.1,-.3h3.6c1.5,0,2.7,.2,3.4,.5c.7,.4,1.3,.9,1.8,1.7c.4,.7,.6,1.5,.6,2.4c0,.7,-.1,1.5,-.4,2.2c-.2,.6,-.5,1.2,-.8,1.6c-.3,.4,-.8,.9,-1.5,1.4c-.6,.5,-1.4,.9,-2.1,1.1c-.8,.3,-1.8,.4,-2.9,.4h-4.8l.1,-.3c.5,0,.8,-.1,.9,-.1c.2,-.1,.4,-.3,.5,-.4c.2,-.3,.3,-.7,.5,-1.4l2,-6.8c.2,-.6,.3,-1,.3,-1.3c0,-.2,-.1,-.4,-.3,-.5c-.1,-.1,-.4,-.2,-.8,-.2Z" class="g4_116"/>
<path fill-rule="evenodd" d="M761.4,346.3c.6,0,1.1,.1,1.4,.1c.9,0,1.7,-.3,2.3,-.8c.7,-.5,1,-1.2,1,-2.1c0,-.7,-.2,-1.2,-.6,-1.6c-.4,-.4,-1.1,-.6,-2,-.6c-.2,0,-.4,0,-.6,0Zm1.7,-5.6c.3,0,.6,0,.7,0c1.2,0,2.1,-.2,2.6,-.7c.6,-.5,.9,-1.2,.9,-1.9c0,-.6,-.2,-1,-.6,-1.3c-.3,-.4,-.8,-.5,-1.6,-.5c-.2,0,-.5,0,-.8,.1ZM761.4,336l.1,-.3h4c.7,0,1.3,.1,1.8,.3c.5,.3,.9,.5,1.2,.9c.3,.4,.4,.8,.4,1.2c0,.7,-.2,1.2,-.7,1.8c-.5,.5,-1.2,.9,-2.3,1.1c.7,.3,1.2,.6,1.5,1c.3,.5,.5,.9,.5,1.4c0,.6,-.1,1.1,-.4,1.6c-.3,.5,-.7,.9,-1.1,1.2c-.5,.3,-1,.5,-1.7,.6c-.4,.1,-1.1,.2,-2.1,.2h-4.1l.1,-.3c.4,0,.7,-.1,.9,-.1c.2,-.1,.3,-.3,.4,-.4c.2,-.2,.3,-.7,.6,-1.5l2,-6.8c.2,-.6,.2,-1,.2,-1.2c0,-.2,0,-.4,-.2,-.5c-.1,-.1,-.4,-.2,-.9,-.2q-.1,0,-.2,0Z" class="g4_116"/>
<path fill-rule="evenodd" d="M771.3,345l1.8,-.8h.1v6c0,.4,.1,.7,.1,.8c0,.1,.1,.2,.2,.2c.1,.1,.3,.1,.7,.1v.2h-2.7v-.2c.3,0,.5,0,.6,-.1c.1,0,.2,-.1,.2,-.2c.1,-.1,.1,-.3,.1,-.8v-3.8c0,-.6,0,-.9,-.1,-1q0,-.2,-.1,-.3c-.1,0,-.2,-.1,-.2,-.1c-.2,0,-.4,.1,-.6,.2Z" class="g4_116"/>
<path d="M186,496.2l22.6,-20.7" class="g9_116"/>
<path d="M288.6,497v59.6l22.5,-20.5l-.2,-60.3Z" class="g6_116"/>
<path d="M185.9,556.5H288.7V496.4H185.9v60.1Z" class="g6_116"/>
<path d="M185.9,496.4H288.7v60.1H185.9V496.4Z" class="g9_116"/>
<path fill-rule="evenodd" d="M208.3,428.5H311v47.4H208.3V428.5Z" class="g2_116"/>
<path d="M208.3,428.5H311v47.4H208.3V428.5Z" class="g9_116"/>
<path d="M208.4,496.5V475.7" class="ga_116"/>
<path d="M186,556.3l22.5,-20.7m102.7,.1H208.4V496.5" class="gb_116"/>
<path d="M208.4,475.7H311.2v60m-22.6,21L311.1,536M288.7,496.6l22.5,-20.7" class="g9_116"/>
<path fill-rule="evenodd" d="M201.1,482.3c-.1,.1,-.1,.2,0,.3q.2,0,.3,-.1c.1,-.1,.1,-.2,0,-.3c-.1,-.1,-.2,0,-.3,.1m.2,-2.2l.1,-1.1c0,-.4,0,-.6,-.1,-.7c-.1,-.1,-.2,-.1,-.3,0c-.1,0,-.2,.1,-.3,.2c-.3,.3,-.4,.7,-.3,1.2c0,.4,.1,.7,.3,.9c.2,.2,.3,.1,.4,0c.1,-.1,.1,-.3,.2,-.5m2.9,1.1l-.2,.1c-.2,.1,-.3,.2,-.4,.3c-.1,.2,0,.4,.2,.6c.2,.1,.4,.2,.7,.1c.3,0,.5,-.2,.6,-.4c.1,-.1,.2,-.2,.2,-.4c-.1,-.1,-.1,-.2,-.2,-.3c-.2,-.2,-.5,-.1,-.9,0m-3.5,1.1l-.1,.8l-4.4,1.8c.1,-.3,.3,-.6,.5,-.9c0,-.1,.1,-.2,.2,-.3Zm1,-.9l-.5,5.6c0,0,-.1,.1,-.1,.2c-.2,.3,-.5,.5,-.9,.7l.7,-5.8c.1,-.1,.1,-.3,.1,-.3v-.1c.1,-.3,0,-.5,-.1,-.6h-.1l-.1,-.1l-.1,-.1c-.4,-.2,-.5,-.6,-.5,-1.2c-.1,-.5,.1,-1,.3,-1.4c.2,-.2,.4,-.3,.5,-.3c.2,-.1,.4,-.1,.6,.1c.2,.1,.2,.5,.2,1l-.2,1.6c0,.3,0,.6,.2,.6q0,.1,0,.1m.1,1.2l.1,-.7l.4,-.2c.1,.1,.4,0,.7,-.2l.8,-.4c.6,-.4,1.1,-.4,1.5,-.2c.1,.2,.2,.4,.3,.6c0,.2,-.1,.4,-.2,.6c-.2,.3,-.5,.5,-.8,.5c-.4,.1,-.7,0,-.9,-.1c0,-.1,-.1,-.1,-.2,-.2l-.1,-.1c0,0,-.1,0,-.1,0c-.1,-.2,-.4,-.1,-.7,0c0,0,-.1,.1,-.2,.1Z" class="g4_116"/>
<path fill-rule="evenodd" d="M240.3,496.4c.1,0,.1,.1,.1,.3c0,.1,-.1,.1,-.2,.1c-.1,0,-.2,-.1,-.2,-.2c0,-.1,.1,-.2,.3,-.2M238.6,495l-.9,-.7c-.3,-.2,-.4,-.4,-.4,-.5c0,-.1,.1,-.2,.2,-.3c.1,0,.2,0,.4,0c.4,0,.7,.2,1,.6c.3,.3,.5,.6,.4,.9c0,.2,-.1,.3,-.3,.3c-.1,0,-.2,-.1,-.4,-.3m-1.2,2.9l.2,-.1c.2,0,.3,0,.4,0c.3,0,.3,.2,.3,.5c0,.2,-.1,.4,-.4,.6c-.2,.1,-.4,.2,-.7,.2c-.1,0,-.3,-.1,-.4,-.2c-.1,-.1,-.1,-.3,-.1,-.4c.1,-.2,.3,-.4,.7,-.6m3.2,-1.7l.6,.4l4.4,-1.8c-.4,-.2,-.7,-.3,-1,-.3c-.1,0,-.3,-.1,-.4,0Zm-1.4,.1l4.3,3.5c.1,0,.2,0,.3,0c.3,.1,.7,.1,1.1,0l-4.6,-3.6c-.2,-.1,-.3,-.2,-.3,-.2h-.1c-.2,-.2,-.3,-.3,-.3,-.6v-.1l.1,-.2c0,-.4,-.1,-.8,-.5,-1.2c-.4,-.4,-.8,-.6,-1.3,-.7c-.2,0,-.4,0,-.6,.1c-.2,.1,-.3,.2,-.3,.4c0,.3,.2,.6,.6,.9l1.2,1c.3,.2,.4,.4,.4,.6v.1m.8,.8l-.6,-.4l-.3,.2c-.1,.1,-.3,.3,-.7,.4l-.9,.2c-.7,.2,-1,.5,-1.1,1c0,.2,0,.4,.2,.6c.1,.1,.3,.2,.6,.3c.3,0,.6,-.1,.9,-.3c.3,-.2,.5,-.4,.5,-.7c0,0,0,-.1,0,-.2v-.1q0,-.1,0,-.2c.1,-.2,.2,-.3,.6,-.4c0,-.1,.1,-.1,.1,-.1Z" class="g4_116"/>
<path fill-rule="evenodd" d="M300,486.1q.1,-.2,0,-.3c-.1,-.1,-.2,-.1,-.3,0c-.1,.1,-.1,.2,0,.3c.1,.1,.2,.1,.3,0m-.2,2.1l-.1,1.2c0,.3,.1,.5,.2,.6q.1,.1,.2,.1c.1,-.1,.3,-.2,.4,-.3c.2,-.3,.3,-.7,.3,-1.1c0,-.5,-.2,-.8,-.4,-1c-.2,-.1,-.3,-.1,-.4,0c-.1,.1,-.1,.3,-.2,.5m-2.9,-1.1l.2,-.1c.2,-.1,.3,-.2,.4,-.3c.1,-.2,.1,-.4,-.2,-.6c-.2,-.1,-.4,-.1,-.7,-.1c-.3,.1,-.5,.2,-.6,.4c-.1,.1,-.1,.2,-.1,.4c0,.1,.1,.3,.2,.3c.2,.2,.4,.2,.8,0m3.5,-1.1l.1,-.7l4.4,-1.9c-.1,.4,-.3,.7,-.4,.9c-.1,.1,-.2,.2,-.3,.3Zm-1,.9l.5,-5.5c0,-.1,.1,-.2,.1,-.2c.3,-.3,.6,-.6,.9,-.8l-.7,5.8c0,.2,-.1,.3,-.1,.4c-.1,.3,0,.5,.2,.6l.1,.1l.2,.1c.3,.2,.4,.6,.5,1.2c0,.5,-.1,1,-.4,1.4c-.2,.2,-.3,.3,-.5,.4c-.2,0,-.4,0,-.5,-.1c-.2,-.2,-.3,-.5,-.2,-1.1l.1,-1.6c0,-.3,0,-.5,-.1,-.6c0,0,-.1,0,-.1,-.1m-.1,-1.1l-.1,.7l-.3,.1c-.2,-.1,-.4,0,-.7,.2l-.9,.4c-.6,.4,-1.1,.4,-1.4,.2c-.2,-.2,-.3,-.3,-.3,-.6c-.1,-.2,0,-.4,.1,-.6c.3,-.3,.5,-.4,.9,-.5c.3,-.1,.6,0,.9,.2l.1,.1l.1,.1c0,0,.1,.1,.1,.1c.2,.1,.4,.1,.7,-.1q.1,0,.2,-.1Z" class="g4_116"/>
<path d="M277.6,488.3c-3.6,-11.3,.8,-17.7,8.8,-21.9" class="g9_116"/>
<path fill-rule="evenodd" d="M291.2,463.8l-11.8,1c2.8,2,4.3,4.8,4.3,8.3Z" class="g4_116"/>
<path fill-rule="evenodd" d="M431.3,534.9H532.6v46.8H431.3V534.9Z" class="g2_116"/>
<path d="M409,495.2l22.3,-20.4m0,60.1H532.6v46.8H431.3V534.9Z" class="gc_116"/>
<path fill-rule="evenodd" d="M532.2,475.2l.1,59.4l-22.1,20.2V496Z" class="g6_116"/>
<path d="M408.9,554.7H510.3V495.5H408.9v59.2Z" class="g6_116"/>
<path d="M408.9,495.5H510.3v59.2H408.9V495.5Z" class="gc_116"/>
<path fill-rule="evenodd" d="M430.9,428.5H532.3v46.8H430.9V428.5Z" class="g2_116"/>
<path d="M430.9,428.5H532.3v46.8H430.9V428.5Z" class="gc_116"/>
<path d="M431.1,495.6V475.1" class="gd_116"/>
<path d="M408.9,554.5l22.3,-20.4m101.2,.2H431.1m0,20.8V495.6" class="ge_116"/>
<path d="M431.1,475.1H532.4v59.2m-22.2,20.6l22.2,-20.4M510.3,495.6l22.2,-20.4" class="gc_116"/>
<path fill-rule="evenodd" d="M423.9,541.2c-.1,.1,-.1,.2,0,.3c.1,.1,.2,0,.3,-.1c.1,-.1,.1,-.2,0,-.2c-.1,-.1,-.2,-.1,-.3,0m.2,-2.1l.1,-1.2c0,-.3,0,-.5,-.1,-.6c-.1,-.1,-.2,-.1,-.3,0c-.1,0,-.2,.1,-.3,.2c-.3,.3,-.4,.7,-.3,1.1c0,.5,.1,.8,.3,1c.2,.1,.3,.1,.4,0c.1,-.1,.1,-.3,.2,-.5m2.9,1.1l-.2,.1c-.2,.1,-.3,.2,-.4,.3c-.1,.1,-.1,.3,.2,.5c.1,.1,.4,.2,.6,.1c.3,0,.5,-.1,.7,-.3c.1,-.1,.1,-.3,.1,-.4c0,-.2,-.1,-.3,-.2,-.4c-.2,-.1,-.5,-.1,-.8,.1m-3.5,1l-.1,.8l-4.3,1.8c.1,-.3,.2,-.6,.4,-.9c.1,-.1,.2,-.2,.3,-.3Zm1,-.9l-.5,5.5c0,.1,-.1,.2,-.1,.2c-.2,.3,-.5,.6,-.9,.8l.7,-5.7c.1,-.2,.1,-.3,.1,-.4v-.1c.1,-.2,0,-.4,-.2,-.6h-.1l-.1,-.1c-.3,-.3,-.5,-.6,-.5,-1.2c-.1,-.5,.1,-1,.3,-1.4c.2,-.2,.4,-.3,.5,-.3c.2,-.1,.4,-.1,.5,.1c.2,.1,.3,.4,.3,1l-.2,1.5c0,.4,0,.6,.1,.7q.1,0,.1,0m.1,1.2l.1,-.7l.3,-.1c.2,0,.4,0,.7,-.2l.9,-.5c.6,-.3,1.1,-.4,1.4,-.1c.2,.1,.3,.3,.3,.5c0,.3,0,.5,-.2,.7c-.2,.2,-.5,.4,-.8,.5c-.3,0,-.6,0,-.9,-.2c0,0,0,-.1,-.1,-.2h-.1q-.1,-.1,-.1,-.1c-.2,-.1,-.4,-.1,-.7,.1q-.1,0,-.2,0Z" class="g4_116"/>
<path fill-rule="evenodd" d="M462.5,555.2c.1,0,.2,.1,.2,.2c0,.1,-.1,.2,-.2,.2q-.2,-.1,-.2,-.3c0,-.1,.1,-.2,.2,-.1m-1.6,-1.4l-.9,-.7c-.3,-.2,-.4,-.4,-.4,-.6c0,-.1,.1,-.1,.2,-.2c.1,0,.2,0,.4,0c.4,0,.7,.2,1,.5c.3,.4,.5,.7,.4,1c0,.2,-.1,.3,-.3,.2c-.1,0,-.2,-.1,-.4,-.2m-1.3,2.8h.3c.2,-.1,.3,-.1,.4,-.1c.2,0,.3,.2,.3,.5c0,.2,-.2,.4,-.4,.6c-.2,.1,-.5,.2,-.7,.2c-.1,0,-.3,-.1,-.4,-.2c-.1,-.1,-.1,-.3,-.1,-.4c.1,-.2,.3,-.4,.6,-.6m3.2,-1.7l.6,.5l4.3,-1.8c-.3,-.2,-.6,-.3,-.9,-.4c-.1,0,-.3,0,-.4,0Zm-1.3,.1l4.2,3.5c.1,0,.2,0,.3,0c.3,.1,.7,0,1.1,-.1l-4.6,-3.5c-.1,-.1,-.2,-.1,-.3,-.2c-.3,-.1,-.4,-.3,-.3,-.5v-.4c.1,-.3,-.1,-.7,-.4,-1.1c-.4,-.4,-.8,-.7,-1.3,-.7c-.2,-.1,-.4,0,-.6,.1c-.2,.1,-.3,.2,-.3,.4c0,.2,.2,.5,.6,.9l1.2,1c.3,.2,.4,.4,.4,.5c0,0,0,.1,0,.1m.7,.9l-.5,-.5l-.4,.2c0,.1,-.2,.3,-.6,.4l-.9,.2c-.7,.2,-1,.6,-1.1,1c0,.2,0,.4,.2,.6c.1,.1,.3,.2,.6,.3c.3,0,.6,-.1,.9,-.3c.3,-.2,.4,-.4,.5,-.7c0,0,0,-.1,0,-.2v-.1q0,-.1,0,-.2c0,-.2,.2,-.3,.5,-.4c.1,0,.2,-.1,.2,-.1Z" class="g4_116"/>
<path fill-rule="evenodd" d="M521.4,544.9c.1,-.1,.1,-.2,0,-.2c-.1,-.1,-.2,-.1,-.3,0c0,.1,0,.2,.1,.3c.1,.1,.2,0,.2,-.1m-.1,2.2l-.1,1.1c0,.3,0,.6,.1,.6c.1,.1,.2,.1,.3,.1c.1,-.1,.2,-.1,.3,-.3c.2,-.3,.3,-.7,.3,-1.1c0,-.5,-.1,-.8,-.4,-.9c-.1,-.2,-.3,-.2,-.4,0c0,.1,-.1,.2,-.1,.5m-2.9,-1.2l.2,-.1c.2,0,.3,-.1,.4,-.2c.1,-.2,0,-.4,-.2,-.6c-.2,-.1,-.4,-.2,-.7,-.1c-.3,0,-.5,.2,-.6,.4c-.1,.1,-.2,.2,-.1,.4c0,.1,0,.2,.2,.3c.1,.1,.4,.1,.8,-.1m3.5,-1v-.8l4.4,-1.8c-.1,.4,-.3,.7,-.5,.9c0,.1,-.1,.2,-.2,.3Zm-1.1,.9l.5,-5.5q.1,-.1,.2,-.2c.2,-.3,.5,-.5,.8,-.8l-.7,5.8c0,.1,0,.3,0,.3l-.1,.1c0,.3,0,.4,.2,.6l.1,.1l.2,.1c.3,.2,.5,.6,.5,1.1c0,.6,-.1,1,-.4,1.4c-.1,.2,-.3,.3,-.5,.4c-.2,0,-.3,0,-.5,-.1c-.2,-.2,-.3,-.5,-.2,-1.1l.1,-1.5c.1,-.3,0,-.6,-.1,-.6q0,-.1,-.1,-.1m-.1,-1.1v.6l-.4,.2c-.1,-.1,-.4,0,-.7,.1l-.8,.5c-.6,.4,-1.1,.4,-1.4,.1c-.2,-.1,-.3,-.3,-.3,-.5c-.1,-.2,0,-.4,.1,-.6c.2,-.3,.5,-.5,.9,-.5c.3,-.1,.6,0,.8,.1c0,.1,.1,.1,.2,.2l.1,.1l.1,.1c.1,.1,.4,0,.7,-.1c0,0,.1,-.1,.1,-.1Z" class="g4_116"/>
<path d="M514.5,542.1c-3.6,11.1,.7,17.4,8.6,21.6" class="gc_116"/>
<path fill-rule="evenodd" d="M527.9,566.2l-7.4,-9.1c-.1,3.4,-1.5,6.2,-4.4,8.2Z" class="g4_116"/>
<path d="M666.2,582.9H768.5V535.7H666.2v47.2Z" class="g2_116"/>
<path d="M632.3,495.9l33.9,-20.6m0,60.4H768.5v47.2H666.2V535.7Z" class="gf_116"/>
<path d="M631.9,555.9H734.2V496.1H631.9v59.8Z" class="g6_116"/>
<path d="M631.9,496.1H734.2v59.8H631.9V496.1Z" class="gf_116"/>
<path fill-rule="evenodd" d="M665.9,428.5H768.2v47.2H665.9V428.5Z" class="g2_116"/>
<path d="M666,496.2V475.5m-.1,-47H768.2v47.2H665.9V428.5Z" class="gf_116"/>
<path d="M632.3,555.7l33.8,-20.6m67.2,.2H665.7m.3,29.5V496.2" class="gg_116"/>
<path d="M666,475.5H768.3v59.8M800,556.1L768.5,535.5m31.3,-39.2L768.4,475.7" class="gf_116"/>
<path fill-rule="evenodd" d="M734,544.9c0,-.1,.1,-.2,.2,-.1q.2,0,.2,.2c0,.1,-.1,.2,-.2,.2c-.1,-.1,-.2,-.1,-.2,-.3m-1.3,1.8l-.6,.9c-.2,.3,-.4,.4,-.5,.4q-.2,0,-.3,-.1c0,-.1,-.1,-.3,0,-.4c0,-.4,.1,-.8,.5,-1.1c.3,-.3,.6,-.5,.9,-.5c.2,0,.3,.1,.2,.3c0,.1,0,.3,-.2,.5m3,1l-.1,-.2c-.1,-.2,-.1,-.3,-.1,-.4c0,-.3,.2,-.4,.5,-.3c.2,0,.4,.1,.6,.3c.2,.2,.3,.5,.2,.7c0,.2,0,.3,-.1,.4c-.2,.1,-.3,.1,-.4,.1c-.3,0,-.5,-.2,-.6,-.6m-2,-3.1l.4,-.6l-2,-4.2c-.2,.3,-.3,.6,-.3,.9c0,.2,0,.3,0,.5Zm.2,1.4l3.2,-4.5c.1,-.1,.1,-.2,.1,-.3c0,-.3,-.1,-.7,-.2,-1.1l-3.2,4.8c-.1,.2,-.2,.3,-.2,.3v.1c-.1,.3,-.3,.4,-.5,.4H733l-.1,-.1h-.2c-.4,0,-.7,.2,-1.1,.6c-.4,.4,-.6,.8,-.7,1.3c0,.2,.1,.4,.2,.6c.1,.1,.3,.2,.4,.2c.3,.1,.6,-.2,.9,-.6l.9,-1.3c.2,-.3,.4,-.4,.5,-.4c0,0,.1,0,.1,0m.8,-.8l-.4,.6l.2,.3c.2,.1,.3,.3,.4,.6l.4,.9c.2,.7,.6,1,1,1c.2,0,.4,0,.6,-.2c.1,-.1,.2,-.3,.2,-.6c.1,-.3,0,-.6,-.3,-.9c-.2,-.3,-.4,-.4,-.7,-.4q-.1,0,-.3,0h-.1c0,0,-.1,0,-.1,0c-.2,-.1,-.4,-.2,-.5,-.5c0,-.1,0,-.2,-.1,-.2Z" class="g4_116"/>
<path d="M760,512.8c6.3,9.9,14,10.6,22.3,7.1" class="gf_116"/>
<path fill-rule="evenodd" d="M787.4,517.7H775.5c2.7,2.2,3.9,5.1,3.6,8.6Z" class="g4_116"/>
<path d="M755.8,511.7c-6.6,7.3,-11.8,8.4,-18.7,7.1" class="gf_116"/>
<path fill-rule="evenodd" d="M731.7,517.8l9.8,6.6c-.9,-3.3,-.3,-6.4,1.8,-9.2Z" class="g4_116"/>
<path d="M800,496.3v59.4" class="gf_116"/>
<path d="M135.5,232.4h39.6V195H135.5v37.4Z" class="gh_116"/>
<path d="M184.4,285h651V194.8h-651V285Z" class="gi_116"/>
<path d="M0,138.7H120.2V0H0V138.7Z" class="g0_116"/>
</svg>