<?xml version="1.0" encoding="UTF-8" standalone="no"?>
<!DOCTYPE svg PUBLIC "-//W3C//DTD SVG 1.1//EN"
"http://www.w3.org/Graphics/SVG/1.1/DTD/svg11.dtd">
<svg viewBox="0 0 909 1147" version="1.1" xmlns="http://www.w3.org/2000/svg" xmlns:xlink="http://www.w3.org/1999/xlink">
<defs>
<clipPath id="c0_42"><path d="M138.7,862.1v-18H169v18Z"/></clipPath>
<style type="text/css"><![CDATA[
.g0_42{
fill: #FAAF82;
}
.g1_42{
fill: none;
stroke: #0EA5DF;
stroke-width: 3.055;
}
.g2_42{
fill: none;
stroke: #9CCCEE;
stroke-width: 0.763;
stroke-linejoin: round;
}
.g3_42{
fill: none;
stroke: #000;
stroke-width: 0.763;
stroke-linejoin: round;
}
.g4_42{
fill: #000;
}
.g5_42{
fill: none;
stroke: #0EA5DF;
stroke-width: 1.527;
stroke-linejoin: round;
}
.g6_42{
fill: none;
stroke: #000;
stroke-width: 0.763;
}
.g7_42{
fill: none;
stroke: #ED1D24;
stroke-width: 1.527;
stroke-linejoin: round;
}
.g8_42{
fill: #ED1D24;
}
.g9_42{
fill: none;
stroke: #ED1D24;
stroke-width: 1.069;
stroke-linejoin: round;
}
.ga_42{
fill: none;
stroke: #000;
stroke-width: 1.069;
stroke-linejoin: round;
stroke-dasharray: 6,4;
}
.gb_42{
fill: none;
stroke: #ED1D24;
stroke-width: 1.069;
stroke-linejoin: round;
stroke-dasharray: 6,4;
}
.gc_42{
fill: #FFF1E0;
}
.gd_42{
fill: #0EA5DF;
}
.ge_42{
fill: #FFF;
}
]]></style>
</defs>
<path d="M0,1131H73.8v-51.5H0V1131Z" class="g0_42"/>
<path d="M73.6,66.5H835.8" class="g1_42"/>
<path d="M558.8,331H818.6M558.8,351.5V92.9m21.6,258.6V92.9m21.7,258.6V92.9m21.6,258.6V92.9m21.7,258.6V92.9m21.7,258.6V92.9m21.6,258.6V92.9m21.7,258.6V92.9M732,351.5V92.9m21.7,258.6V92.9m21.6,258.6V92.9M797,351.5V92.9m21.6,258.6V92.9M558.8,309.3H818.6M558.8,287.7H818.6M558.8,266H818.6M558.8,244.3H818.6M558.8,222.7H818.6M558.8,201H818.6M558.8,179.4H818.6M558.8,157.7H818.6M558.8,136.1H818.6M558.8,114.4H818.6M558.8,92.8H819" class="g2_42"/>
<path d="M558.8,84.4V352.6" class="g3_42"/>
<path fill-rule="evenodd" d="M558.8,79l4.6,10.8c-3.1,-1.6,-6.2,-1.6,-9.2,0Z" class="g4_42"/>
<path d="M827.2,351.9H559.4" class="g3_42"/>
<path fill-rule="evenodd" d="M832.6,351.9l-10.8,4.6c1.6,-3,1.6,-6.1,0,-9.2Z" class="g4_42"/>
<path d="M545.7,358.9c0,-1.3,.1,-2.4,.5,-3.3c.4,-.9,.9,-1.6,1.6,-2c.4,-.4,1,-.6,1.5,-.6c.8,0,1.6,.5,2.3,1.4c.8,1,1.2,2.5,1.2,4.3c0,1.3,-.1,2.4,-.5,3.3c-.4,.9,-.9,1.6,-1.4,2c-.6,.4,-1.2,.6,-1.7,.6c-1.1,0,-1.9,-.6,-2.7,-1.9c-.6,-1,-.8,-2.3,-.8,-3.8m1.6,.2c0,1.5,.1,2.8,.5,3.8c.3,.8,.8,1.2,1.4,1.2c.3,0,.6,-.1,.9,-.4c.4,-.3,.6,-.7,.8,-1.3c.2,-1,.3,-2.3,.3,-4c0,-1.3,-.1,-2.4,-.4,-3.2c-.2,-.6,-.4,-1.1,-.7,-1.3c-.2,-.2,-.5,-.3,-.8,-.3c-.4,0,-.7,.2,-1,.5c-.4,.4,-.7,1.2,-.8,2.1c-.2,1,-.2,2,-.2,2.9Z" class="g4_42"/>
<path d="M584.3,359.7l-.7,1.4h-3.3l-.8,1.5c1.5,.2,2.6,.8,3.5,1.6c.7,.8,1.1,1.7,1.1,2.7c0,.5,-.1,1.1,-.4,1.6c-.2,.5,-.5,.9,-.9,1.3c-.3,.3,-.7,.6,-1.2,.8c-.6,.3,-1.3,.4,-1.9,.4c-.7,0,-1.2,-.1,-1.5,-.3c-.3,-.2,-.4,-.5,-.4,-.7c0,-.2,0,-.3,.2,-.4c.1,-.2,.2,-.2,.4,-.2c.2,0,.3,0,.4,0c.1,.1,.3,.2,.6,.4c.4,.3,.8,.4,1.2,.4c.6,0,1.2,-.2,1.7,-.7c.5,-.5,.7,-1.1,.7,-1.8c0,-.7,-.2,-1.3,-.6,-1.9c-.5,-.6,-1.1,-1,-1.8,-1.3c-.6,-.3,-1.4,-.4,-2.5,-.4l2.2,-4.4Z" class="g4_42"/>
<path d="M596.4,360.8l2.7,-1.3h.3v9.4c0,.6,0,1,0,1.2c.1,.1,.2,.2,.4,.3c.1,.1,.5,.1,1,.2v.3h-4.2v-.3c.5,-.1,.8,-.1,1,-.2c.2,-.1,.3,-.2,.3,-.3c.1,-.1,.1,-.5,.1,-1.2v-6c0,-.8,0,-1.3,-.1,-1.6c0,-.1,-.1,-.3,-.2,-.4c-.1,0,-.2,-.1,-.3,-.1c-.2,0,-.5,.1,-.9,.3Z" class="g4_42"/>
<path d="M603.4,365.4c0,-1.3,.2,-2.4,.6,-3.3c.4,-.9,.9,-1.6,1.5,-2.1c.5,-.3,1,-.5,1.6,-.5c.8,0,1.6,.4,2.3,1.3c.8,1.1,1.2,2.5,1.2,4.4c0,1.3,-.2,2.4,-.5,3.3c-.4,.9,-.9,1.5,-1.5,1.9c-.5,.4,-1.1,.6,-1.6,.6c-1.1,0,-2,-.6,-2.7,-1.8c-.6,-1.1,-.9,-2.4,-.9,-3.8m1.6,.2c0,1.5,.2,2.7,.6,3.7c.3,.8,.8,1.2,1.4,1.2c.3,0,.6,-.1,.9,-.4c.3,-.2,.6,-.7,.7,-1.3c.3,-.9,.4,-2.3,.4,-4c0,-1.2,-.1,-2.3,-.4,-3.2c-.2,-.6,-.4,-1,-.7,-1.3c-.3,-.2,-.5,-.3,-.9,-.3c-.3,0,-.7,.2,-.9,.5c-.4,.5,-.7,1.2,-.9,2.2c-.1,1,-.2,1.9,-.2,2.9Z" class="g4_42"/>
<path d="M618,360.8l2.7,-1.3h.3v9.4c0,.6,0,1,.1,1.2c.1,.1,.2,.2,.3,.3c.2,.1,.5,.1,1,.2v.3h-4.2v-.3c.6,-.1,.9,-.1,1.1,-.2c.1,-.1,.2,-.2,.3,-.3c0,-.1,.1,-.5,.1,-1.2v-6c0,-.8,-.1,-1.3,-.1,-1.6c-.1,-.1,-.1,-.3,-.2,-.4c-.1,0,-.2,-.1,-.4,-.1c-.2,0,-.5,.1,-.8,.3Z" class="g4_42"/>
<path d="M631.8,359.7l-.7,1.4h-3.3l-.7,1.5c1.4,.2,2.6,.8,3.4,1.6c.7,.8,1.1,1.7,1.1,2.7c0,.5,-.1,1.1,-.4,1.6c-.2,.5,-.5,.9,-.9,1.3c-.3,.3,-.7,.6,-1.2,.8c-.6,.3,-1.2,.4,-1.9,.4c-.7,0,-1.2,-.1,-1.5,-.3c-.3,-.2,-.4,-.5,-.4,-.7c0,-.2,0,-.3,.2,-.4c.1,-.2,.3,-.2,.4,-.2c.2,0,.3,0,.4,0c.1,.1,.3,.2,.6,.4c.4,.3,.8,.4,1.2,.4c.6,0,1.2,-.2,1.7,-.7c.5,-.5,.7,-1.1,.7,-1.8c0,-.7,-.2,-1.3,-.6,-1.9c-.5,-.6,-1.1,-1,-1.8,-1.3c-.6,-.3,-1.4,-.4,-2.5,-.4l2.2,-4.4Z" class="g4_42"/>
<path d="M645.4,368.7l-.7,2.2h-6.6v-.3c1.9,-1.8,3.3,-3.3,4.1,-4.4c.8,-1.1,1.1,-2.1,1.1,-3c0,-.7,-.2,-1.3,-.6,-1.8c-.4,-.4,-.9,-.6,-1.6,-.6c-.5,0,-1,.1,-1.4,.4c-.5,.4,-.8,.8,-1,1.4h-.3c.1,-1,.5,-1.7,1.1,-2.3c.5,-.5,1.2,-.8,2.1,-.8c.9,0,1.6,.3,2.2,.9c.6,.5,.9,1.2,.9,2c0,.6,-.1,1.1,-.3,1.7c-.4,.9,-1.1,1.8,-2,2.8c-1.4,1.5,-2.2,2.4,-2.6,2.7h2.9c.6,0,1,0,1.3,-.1c.2,0,.4,-.1,.6,-.2c.2,-.2,.4,-.3,.5,-.6Z" class="g4_42"/>
<path d="M646.7,365.4c0,-1.3,.2,-2.4,.6,-3.3c.4,-.9,.9,-1.6,1.5,-2.1c.5,-.3,1,-.5,1.6,-.5c.8,0,1.6,.4,2.3,1.3c.8,1.1,1.2,2.5,1.2,4.4c0,1.3,-.2,2.4,-.5,3.3c-.4,.9,-.9,1.5,-1.4,1.9c-.6,.4,-1.2,.6,-1.7,.6c-1.1,0,-2,-.6,-2.7,-1.8c-.6,-1.1,-.9,-2.4,-.9,-3.8m1.6,.2c0,1.5,.2,2.7,.6,3.7c.3,.8,.8,1.2,1.4,1.2c.3,0,.6,-.1,.9,-.4c.3,-.2,.6,-.7,.7,-1.3c.3,-.9,.4,-2.3,.4,-4c0,-1.2,-.1,-2.3,-.4,-3.2c-.2,-.6,-.4,-1,-.7,-1.3c-.3,-.2,-.5,-.3,-.8,-.3c-.4,0,-.7,.2,-1,.5c-.4,.5,-.7,1.2,-.8,2.2c-.2,1,-.3,1.9,-.3,2.9Z" class="g4_42"/>
<path d="M667.1,368.7l-.8,2.2h-6.6v-.3c2,-1.8,3.3,-3.3,4.1,-4.4c.8,-1.1,1.2,-2.1,1.2,-3c0,-.7,-.2,-1.3,-.6,-1.8c-.5,-.4,-1,-.6,-1.6,-.6c-.5,0,-1,.1,-1.5,.4c-.4,.4,-.7,.8,-.9,1.4h-.3c.1,-1,.4,-1.7,1,-2.3c.6,-.5,1.3,-.8,2.1,-.8c.9,0,1.7,.3,2.3,.9c.6,.5,.9,1.2,.9,2c0,.6,-.1,1.1,-.4,1.7c-.4,.9,-1.1,1.8,-2,2.8c-1.3,1.5,-2.2,2.4,-2.5,2.7h2.9c.6,0,1,0,1.2,-.1c.3,0,.5,-.1,.7,-.2c.2,-.2,.3,-.3,.5,-.6Z" class="g4_42"/>
<path d="M675.1,359.7l-.7,1.4h-3.3l-.7,1.5c1.4,.2,2.6,.8,3.4,1.6c.7,.8,1.1,1.7,1.1,2.7c0,.5,-.1,1.1,-.4,1.6c-.2,.5,-.5,.9,-.9,1.3c-.3,.3,-.7,.6,-1.2,.8c-.6,.3,-1.2,.4,-1.9,.4c-.7,0,-1.2,-.1,-1.5,-.3c-.3,-.2,-.4,-.5,-.4,-.7c0,-.2,.1,-.3,.2,-.4c.1,-.2,.3,-.2,.4,-.2c.2,0,.3,0,.4,0c.1,.1,.3,.2,.6,.4c.4,.3,.8,.4,1.2,.4c.7,0,1.2,-.2,1.7,-.7c.5,-.5,.7,-1.1,.7,-1.8c0,-.7,-.2,-1.3,-.6,-1.9c-.5,-.6,-1,-1,-1.8,-1.3c-.6,-.3,-1.4,-.4,-2.4,-.4l2.1,-4.4Z" class="g4_42"/>
<path d="M681.9,361.8c.3,-.7,.7,-1.3,1.2,-1.7c.5,-.4,1.1,-.6,1.8,-.6c.9,0,1.6,.3,2,.9c.4,.4,.6,.9,.6,1.4c0,.8,-.5,1.6,-1.5,2.5c.6,.2,1.2,.6,1.5,1.1c.4,.5,.5,1.1,.5,1.8c0,.9,-.3,1.8,-.9,2.5c-.8,.9,-1.9,1.4,-3.4,1.4c-.8,0,-1.3,-.1,-1.6,-.3c-.2,-.2,-.4,-.4,-.4,-.6c0,-.2,.1,-.3,.2,-.4c.1,-.2,.3,-.2,.5,-.2c.1,0,.2,0,.4,0c.1,.1,.3,.2,.6,.3c.3,.2,.6,.3,.7,.3c.2,.1,.4,.1,.6,.1c.6,0,1.1,-.2,1.5,-.6c.4,-.4,.6,-1,.6,-1.5c0,-.5,-.1,-.9,-.3,-1.3c-.1,-.3,-.3,-.5,-.4,-.7c-.3,-.2,-.6,-.4,-1,-.6c-.4,-.2,-.8,-.3,-1.3,-.3h-.2v-.2c.4,-.1,.8,-.2,1.3,-.5c.4,-.2,.7,-.5,.9,-.9c.2,-.4,.3,-.8,.3,-1.2c0,-.6,-.1,-1,-.5,-1.4c-.4,-.3,-.8,-.5,-1.3,-.5c-.9,0,-1.6,.5,-2.1,1.4Z" class="g4_42"/>
<path d="M690,365.4c0,-1.3,.2,-2.4,.6,-3.3c.4,-.9,.9,-1.6,1.5,-2.1c.5,-.3,1,-.5,1.6,-.5c.8,0,1.6,.4,2.3,1.3c.8,1.1,1.2,2.5,1.2,4.4c0,1.3,-.1,2.4,-.5,3.3c-.4,.9,-.9,1.5,-1.4,1.9c-.6,.4,-1.2,.6,-1.7,.6c-1.1,0,-2,-.6,-2.7,-1.8c-.6,-1.1,-.9,-2.4,-.9,-3.8m1.7,.2c0,1.5,.1,2.7,.5,3.7c.3,.8,.8,1.2,1.4,1.2c.3,0,.6,-.1,.9,-.4c.3,-.2,.6,-.7,.8,-1.3c.2,-.9,.3,-2.3,.3,-4c0,-1.2,-.1,-2.3,-.4,-3.2c-.2,-.6,-.4,-1,-.7,-1.3c-.2,-.2,-.5,-.3,-.8,-.3c-.4,0,-.7,.2,-1,.5c-.4,.5,-.7,1.2,-.8,2.2c-.2,1,-.2,1.9,-.2,2.9Z" class="g4_42"/>
<path d="M703.5,361.8c.4,-.7,.8,-1.3,1.2,-1.7c.5,-.4,1.1,-.6,1.9,-.6c.8,0,1.5,.3,2,.9c.4,.4,.5,.9,.5,1.4c0,.8,-.5,1.6,-1.5,2.5c.7,.2,1.2,.6,1.6,1.1c.3,.5,.5,1.1,.5,1.8c0,.9,-.3,1.8,-.9,2.5c-.8,.9,-2,1.4,-3.5,1.4c-.7,0,-1.3,-.1,-1.5,-.3c-.3,-.2,-.4,-.4,-.4,-.6c0,-.2,0,-.3,.2,-.4c.1,-.2,.2,-.2,.4,-.2c.2,0,.3,0,.4,0c.1,.1,.3,.2,.7,.3c.3,.2,.5,.3,.7,.3c.2,.1,.4,.1,.6,.1c.6,0,1,-.2,1.5,-.6c.4,-.4,.6,-1,.6,-1.5c0,-.5,-.1,-.9,-.3,-1.3c-.1,-.3,-.3,-.5,-.5,-.7c-.2,-.2,-.5,-.4,-.9,-.6c-.5,-.2,-.9,-.3,-1.3,-.3h-.3v-.2c.5,-.1,.9,-.2,1.3,-.5c.5,-.2,.8,-.5,1,-.9c.2,-.4,.3,-.8,.3,-1.2c0,-.6,-.2,-1,-.5,-1.4c-.4,-.3,-.8,-.5,-1.4,-.5c-.8,0,-1.5,.5,-2.1,1.4Z" class="g4_42"/>
<path d="M718.4,359.7l-.7,1.4h-3.3l-.7,1.5c1.4,.2,2.6,.8,3.4,1.6c.7,.8,1.1,1.7,1.1,2.7c0,.5,-.1,1.1,-.4,1.6c-.2,.5,-.5,.9,-.9,1.3c-.3,.3,-.7,.6,-1.2,.8c-.6,.3,-1.2,.4,-1.9,.4c-.7,0,-1.1,-.1,-1.5,-.3c-.3,-.2,-.4,-.5,-.4,-.7c0,-.2,.1,-.3,.2,-.4c.1,-.2,.3,-.2,.5,-.2c.1,0,.2,0,.3,0c.1,.1,.3,.2,.6,.4c.4,.3,.8,.4,1.2,.4c.7,0,1.2,-.2,1.7,-.7c.5,-.5,.7,-1.1,.7,-1.8c0,-.7,-.2,-1.3,-.6,-1.9c-.4,-.6,-1,-1,-1.8,-1.3c-.6,-.3,-1.4,-.4,-2.4,-.4l2.1,-4.4Z" class="g4_42"/>
<path d="M732.2,366.8v1.1h-1.5v3h-1.4v-3h-4.7v-1l5.2,-7.4h.9v7.3Zm-2.9,0v-5.6l-3.9,5.6Z" class="g4_42"/>
<path d="M733.3,365.4c0,-1.3,.2,-2.4,.6,-3.3c.4,-.9,.9,-1.6,1.6,-2.1c.4,-.3,1,-.5,1.5,-.5c.8,0,1.6,.4,2.3,1.3c.8,1.1,1.2,2.5,1.2,4.4c0,1.3,-.1,2.4,-.5,3.3c-.4,.9,-.9,1.5,-1.4,1.9c-.6,.4,-1.2,.6,-1.7,.6c-1.1,0,-2,-.6,-2.7,-1.8c-.6,-1.1,-.9,-2.4,-.9,-3.8m1.7,.2c0,1.5,.1,2.7,.5,3.7c.3,.8,.8,1.2,1.4,1.2c.3,0,.6,-.1,.9,-.4c.4,-.2,.6,-.7,.8,-1.3c.2,-.9,.3,-2.3,.3,-4c0,-1.2,-.1,-2.3,-.4,-3.2c-.2,-.6,-.4,-1,-.7,-1.3c-.2,-.2,-.5,-.3,-.8,-.3c-.4,0,-.7,.2,-1,.5c-.4,.5,-.7,1.2,-.8,2.2c-.2,1,-.2,1.9,-.2,2.9Z" class="g4_42"/>
<path d="M753.8,366.8v1.1h-1.5v3H751v-3h-4.7v-1l5.1,-7.4h.9v7.3Zm-2.8,0v-5.6l-3.9,5.6Z" class="g4_42"/>
<path d="M761.7,359.7l-.6,1.4h-3.4l-.7,1.5c1.4,.2,2.6,.8,3.4,1.6c.7,.8,1.1,1.7,1.1,2.7c0,.5,-.1,1.1,-.3,1.6c-.3,.5,-.6,.9,-.9,1.3c-.4,.3,-.8,.6,-1.3,.8c-.6,.3,-1.2,.4,-1.9,.4c-.7,0,-1.1,-.1,-1.4,-.3c-.3,-.2,-.5,-.5,-.5,-.7c0,-.2,.1,-.3,.2,-.4c.1,-.2,.3,-.2,.5,-.2c.1,0,.2,0,.3,0c.1,.1,.3,.2,.6,.4c.4,.3,.8,.4,1.2,.4c.7,0,1.2,-.2,1.7,-.7c.5,-.5,.7,-1.1,.7,-1.8c0,-.7,-.2,-1.3,-.6,-1.9c-.4,-.6,-1,-1,-1.8,-1.3c-.6,-.3,-1.4,-.4,-2.4,-.4l2.1,-4.4Z" class="g4_42"/>
<path d="M774.9,359.7l-.6,1.4H771l-.8,1.5c1.5,.2,2.6,.8,3.5,1.6c.7,.8,1.1,1.7,1.1,2.7c0,.5,-.2,1.1,-.4,1.6c-.2,.5,-.5,.9,-.9,1.3c-.4,.3,-.8,.6,-1.2,.8c-.6,.3,-1.3,.4,-1.9,.4c-.7,0,-1.2,-.1,-1.5,-.3c-.3,-.2,-.5,-.5,-.5,-.7c0,-.2,.1,-.3,.2,-.4c.2,-.2,.3,-.2,.5,-.2c.2,0,.3,0,.4,0c.1,.1,.3,.2,.5,.4c.4,.3,.9,.4,1.3,.4c.6,0,1.2,-.2,1.7,-.7c.5,-.5,.7,-1.1,.7,-1.8c0,-.7,-.2,-1.3,-.7,-1.9c-.4,-.6,-1,-1,-1.7,-1.3c-.6,-.3,-1.5,-.4,-2.5,-.4l2.2,-4.4Z" class="g4_42"/>
<path d="M776.7,365.4c0,-1.3,.1,-2.4,.5,-3.3c.4,-.9,.9,-1.6,1.6,-2.1c.5,-.3,1,-.5,1.5,-.5c.8,0,1.6,.4,2.3,1.3c.8,1.1,1.3,2.5,1.3,4.4c0,1.3,-.2,2.4,-.6,3.3c-.4,.9,-.8,1.5,-1.4,1.9c-.6,.4,-1.2,.6,-1.7,.6c-1.1,0,-1.9,-.6,-2.6,-1.8c-.6,-1.1,-.9,-2.4,-.9,-3.8m1.6,.2c0,1.5,.2,2.7,.5,3.7c.3,.8,.8,1.2,1.4,1.2c.3,0,.6,-.1,.9,-.4c.4,-.2,.6,-.7,.8,-1.3c.2,-.9,.3,-2.3,.3,-4c0,-1.2,-.1,-2.3,-.3,-3.2c-.2,-.6,-.5,-1,-.8,-1.3c-.2,-.2,-.5,-.3,-.8,-.3c-.4,0,-.7,.2,-1,.5c-.4,.5,-.7,1.2,-.8,2.2c-.2,1,-.2,1.9,-.2,2.9Z" class="g4_42"/>
<path d="M796.6,359.7l-.6,1.4h-3.4l-.7,1.5c1.4,.2,2.6,.8,3.4,1.6c.8,.8,1.1,1.7,1.1,2.7c0,.5,-.1,1.1,-.3,1.6c-.3,.5,-.6,.9,-.9,1.3c-.4,.3,-.8,.6,-1.2,.8c-.7,.3,-1.3,.4,-2,.4c-.7,0,-1.1,-.1,-1.4,-.3c-.3,-.2,-.5,-.5,-.5,-.7c0,-.2,.1,-.3,.2,-.4c.1,-.2,.3,-.2,.5,-.2c.1,0,.2,0,.3,0c.1,.1,.3,.2,.6,.4c.4,.3,.8,.4,1.2,.4c.7,0,1.2,-.2,1.7,-.7c.5,-.5,.7,-1.1,.7,-1.8c0,-.7,-.2,-1.3,-.6,-1.9c-.4,-.6,-1,-1,-1.8,-1.3c-.6,-.3,-1.4,-.4,-2.4,-.4l2.1,-4.4Z" class="g4_42"/>
<path d="M805,359.7l-.6,1.4H801l-.7,1.5c1.4,.2,2.6,.8,3.4,1.6c.8,.8,1.1,1.7,1.1,2.7c0,.5,-.1,1.1,-.3,1.6c-.3,.5,-.6,.9,-.9,1.3c-.4,.3,-.8,.6,-1.2,.8c-.7,.3,-1.3,.4,-2,.4c-.7,0,-1.1,-.1,-1.4,-.3c-.3,-.2,-.5,-.5,-.5,-.7c0,-.2,.1,-.3,.2,-.4c.1,-.2,.3,-.2,.5,-.2c.1,0,.2,0,.3,0c.2,.1,.3,.2,.6,.4c.4,.3,.8,.4,1.2,.4c.7,0,1.2,-.2,1.7,-.7c.5,-.5,.7,-1.1,.7,-1.8c0,-.7,-.2,-1.3,-.6,-1.9c-.4,-.6,-1,-1,-1.8,-1.3c-.6,-.3,-1.4,-.4,-2.4,-.4l2.1,-4.4Z" class="g4_42"/>
<path d="M818.5,359.5v.3c-.7,.1,-1.3,.2,-1.8,.4c-.4,.2,-.9,.6,-1.3,1c-.5,.5,-.8,1,-1.1,1.5c-.3,.5,-.6,1.2,-.8,1.9c.8,-.5,1.6,-.8,2.4,-.8c.8,0,1.4,.3,2,.9c.5,.7,.8,1.4,.8,2.4c0,.9,-.3,1.8,-.8,2.6c-.7,.9,-1.6,1.3,-2.7,1.3c-.8,0,-1.4,-.2,-2,-.7c-1,-1,-1.5,-2.3,-1.5,-3.8c0,-1,.2,-2,.6,-2.8c.4,-.9,.9,-1.7,1.7,-2.4c.7,-.7,1.4,-1.2,2.1,-1.4c.7,-.3,1.3,-.4,1.9,-.4Zm-5.1,5.7c-.1,.8,-.2,1.4,-.2,1.8c0,.6,.1,1.1,.3,1.7c.2,.7,.5,1.1,.9,1.5c.3,.3,.6,.4,1,.4c.5,0,.9,-.2,1.3,-.7c.4,-.4,.5,-1.1,.5,-1.9c0,-.9,-.1,-1.7,-.5,-2.4c-.4,-.7,-.9,-1.1,-1.6,-1.1c-.2,0,-.4,.1,-.7,.2c-.2,.1,-.6,.3,-1,.5Z" class="g4_42"/>
<path d="M820,365.4c0,-1.3,.2,-2.4,.5,-3.3c.4,-.9,.9,-1.6,1.6,-2.1c.5,-.3,1,-.5,1.5,-.5c.8,0,1.6,.4,2.3,1.3c.8,1.1,1.3,2.5,1.3,4.4c0,1.3,-.2,2.4,-.6,3.3c-.4,.9,-.8,1.5,-1.4,1.9c-.6,.4,-1.2,.6,-1.7,.6c-1.1,0,-1.9,-.6,-2.6,-1.8c-.6,-1.1,-.9,-2.4,-.9,-3.8m1.6,.2c0,1.5,.2,2.7,.5,3.7c.3,.8,.8,1.2,1.4,1.2c.3,0,.6,-.1,1,-.4c.3,-.2,.5,-.7,.7,-1.3c.2,-.9,.4,-2.3,.4,-4c0,-1.2,-.2,-2.3,-.4,-3.2c-.2,-.6,-.5,-1,-.8,-1.3c-.2,-.2,-.5,-.3,-.8,-.3c-.4,0,-.7,.2,-1,.5c-.4,.5,-.7,1.2,-.8,2.2c-.2,1,-.2,1.9,-.2,2.9Z" class="g4_42"/>
<path d="M546.5,326.3l2.7,-1.4h.3v9.4c0,.7,0,1.1,0,1.2c.1,.2,.2,.3,.4,.4c.1,0,.5,.1,1,.1v.3h-4.2V336c.5,0,.8,-.1,1,-.1c.1,-.1,.2,-.2,.3,-.4c.1,-.1,.1,-.5,.1,-1.2v-6c0,-.8,0,-1.3,-.1,-1.5c0,-.2,-.1,-.3,-.2,-.4c-.1,-.1,-.2,-.1,-.4,-.1c-.2,0,-.4,0,-.8,.2Z" class="g4_42"/>
<path d="M552.2,312.5l-.8,2.1h-6.5v-.3c1.9,-1.7,3.3,-3.2,4,-4.3c.8,-1.1,1.2,-2.1,1.2,-3c0,-.7,-.2,-1.3,-.6,-1.8c-.5,-.4,-1,-.7,-1.6,-.7c-.5,0,-1,.2,-1.4,.5c-.5,.3,-.8,.8,-1,1.4h-.3c.1,-1,.5,-1.8,1,-2.3c.6,-.5,1.3,-.8,2.2,-.8c.9,0,1.6,.3,2.2,.9c.6,.5,.9,1.2,.9,2c0,.6,-.1,1.1,-.4,1.7c-.4,.9,-1,1.8,-1.9,2.8c-1.4,1.5,-2.2,2.4,-2.6,2.7h2.9c.6,0,1,0,1.3,-.1c.2,0,.4,-.1,.6,-.2c.2,-.2,.4,-.3,.5,-.6Z" class="g4_42"/>
<path d="M545.4,284c.3,-.8,.7,-1.3,1.2,-1.7c.4,-.5,1,-.7,1.8,-.7c.9,0,1.5,.3,2,.9c.4,.4,.6,.9,.6,1.4c0,.8,-.5,1.6,-1.6,2.5c.7,.3,1.2,.7,1.6,1.2c.3,.5,.5,1,.5,1.7c0,1,-.3,1.8,-.9,2.5c-.8,.9,-2,1.4,-3.5,1.4c-.7,0,-1.2,-.1,-1.5,-.3c-.3,-.2,-.4,-.4,-.4,-.6c0,-.1,.1,-.3,.2,-.4c.1,-.1,.3,-.2,.4,-.2c.2,0,.3,0,.5,.1c.1,0,.3,.1,.6,.3c.3,.2,.6,.3,.7,.3c.2,0,.4,.1,.6,.1c.6,0,1.1,-.2,1.5,-.7c.4,-.4,.6,-.9,.6,-1.5c0,-.4,-.1,-.9,-.3,-1.3c-.1,-.3,-.3,-.5,-.5,-.7c-.2,-.2,-.5,-.4,-.9,-.6c-.4,-.1,-.9,-.2,-1.3,-.2h-.2v-.3c.4,0,.8,-.2,1.3,-.4c.4,-.3,.7,-.6,.9,-1c.2,-.3,.3,-.7,.3,-1.2c0,-.5,-.2,-1,-.5,-1.3c-.4,-.4,-.8,-.5,-1.3,-.5c-.9,0,-1.6,.4,-2.2,1.3Z" class="g4_42"/>
<path d="M552.3,267.2v1.2h-1.5v2.9h-1.3v-2.9h-4.7v-1l5.1,-7.4h.9v7.2Zm-2.8,0v-5.5l-3.9,5.5Z" class="g4_42"/>
<path d="M551.8,238.6l-.6,1.4h-3.4l-.7,1.5c1.4,.2,2.6,.7,3.4,1.6c.8,.7,1.1,1.6,1.1,2.6c0,.6,-.1,1.1,-.3,1.6c-.3,.5,-.6,.9,-.9,1.3c-.4,.3,-.8,.6,-1.2,.8c-.7,.3,-1.3,.5,-2,.5c-.6,0,-1.1,-.1,-1.4,-.4c-.3,-.2,-.5,-.4,-.5,-.7c0,-.2,.1,-.3,.2,-.4c.1,-.1,.3,-.2,.5,-.2c.1,0,.2,0,.3,.1c.2,0,.3,.1,.6,.3c.4,.3,.8,.4,1.2,.4c.7,0,1.2,-.2,1.7,-.7c.5,-.5,.8,-1.1,.8,-1.8c0,-.6,-.3,-1.3,-.7,-1.8c-.4,-.6,-1,-1.1,-1.8,-1.4c-.6,-.2,-1.4,-.4,-2.4,-.4l2.1,-4.3Z" class="g4_42"/>
<path d="M552,216.7v.3c-.7,.1,-1.3,.2,-1.7,.4c-.5,.2,-.9,.6,-1.4,1c-.4,.4,-.8,.9,-1.1,1.5c-.3,.5,-.5,1.2,-.7,1.9c.8,-.5,1.6,-.8,2.3,-.8c.8,0,1.5,.3,2,.9c.6,.6,.9,1.4,.9,2.4c0,.9,-.3,1.8,-.9,2.5c-.7,1,-1.6,1.4,-2.7,1.4c-.7,0,-1.4,-.2,-1.9,-.7c-1.1,-1,-1.6,-2.3,-1.6,-3.8c0,-1,.2,-2,.6,-2.9c.4,-.9,1,-1.7,1.7,-2.4c.8,-.7,1.5,-1.1,2.2,-1.4c.6,-.2,1.3,-.3,1.9,-.3Zm-5.1,5.7c-.1,.8,-.1,1.4,-.1,1.8c0,.5,.1,1.1,.3,1.7c.2,.6,.5,1.1,.8,1.5c.3,.2,.7,.4,1.1,.4c.4,0,.9,-.3,1.2,-.7c.4,-.5,.6,-1.1,.6,-1.9c0,-1,-.2,-1.8,-.6,-2.5c-.3,-.6,-.9,-1,-1.5,-1c-.3,0,-.5,.1,-.7,.2c-.2,0,-.6,.2,-1.1,.5Z" class="g4_42"/>
<path d="M546.2,195.3h6v.3l-3.7,11h-1l3.4,-10h-3.1c-.6,0,-1.1,.1,-1.3,.2c-.5,.3,-.9,.7,-1.1,1.2l-.3,-.1Z" class="g4_42"/>
<path d="M547.7,179.1c-.9,-.7,-1.4,-1.3,-1.7,-1.7c-.2,-.5,-.4,-.9,-.4,-1.4c0,-.7,.3,-1.3,.9,-1.8c.5,-.6,1.3,-.8,2.2,-.8c.9,0,1.6,.2,2.2,.7c.5,.5,.8,1,.8,1.7c0,.4,-.2,.8,-.4,1.2c-.3,.5,-1,1,-1.9,1.6c1,.7,1.6,1.3,1.9,1.7c.4,.6,.6,1.2,.6,1.8c0,.8,-.3,1.4,-.9,2c-.6,.5,-1.3,.8,-2.3,.8c-1.1,0,-1.9,-.3,-2.5,-1c-.4,-.5,-.7,-1.1,-.7,-1.7c0,-.5,.2,-1,.5,-1.5c.4,-.5,.9,-1,1.7,-1.6m1.3,-.9c.7,-.5,1.1,-1,1.3,-1.4c.1,-.3,.2,-.7,.2,-1.1c0,-.6,-.1,-1,-.5,-1.4c-.3,-.3,-.7,-.5,-1.3,-.5c-.5,0,-1,.2,-1.3,.5c-.4,.4,-.6,.7,-.6,1.2c0,.2,.1,.5,.3,.8c.1,.3,.3,.6,.6,.8Zm-.9,1.2c-.4,.4,-.8,.8,-1,1.3c-.2,.4,-.3,.9,-.3,1.5c0,.7,.2,1.2,.6,1.6c.3,.5,.8,.7,1.4,.7c.6,0,1.1,-.2,1.5,-.5c.3,-.4,.5,-.8,.5,-1.2c0,-.4,-.1,-.8,-.3,-1.1c-.4,-.6,-1.2,-1.3,-2.4,-2.3Z" class="g4_42"/>
<path d="M545.4,163.3V163c.7,0,1.4,-.2,2,-.5c.6,-.3,1.2,-.9,1.8,-1.7c.5,-.8,.9,-1.7,1.1,-2.6c-.8,.5,-1.6,.8,-2.3,.8c-.8,0,-1.4,-.3,-2,-.9c-.5,-.6,-.8,-1.4,-.8,-2.4c0,-1,.3,-1.8,.8,-2.6c.7,-.9,1.6,-1.4,2.6,-1.4c1,0,1.7,.4,2.4,1.2c.8,.9,1.2,2,1.2,3.4c0,1.2,-.3,2.4,-.9,3.5c-.6,1,-1.5,1.9,-2.6,2.6c-.8,.6,-1.8,.9,-2.8,.9Zm5.1,-5.7c.1,-.7,.1,-1.3,.1,-1.7c0,-.6,-.1,-1.1,-.2,-1.7c-.2,-.7,-.5,-1.1,-.8,-1.5c-.3,-.3,-.7,-.4,-1.1,-.4c-.5,0,-1,.2,-1.3,.6c-.4,.4,-.6,1.1,-.6,2c0,1.1,.3,2,.8,2.7c.3,.4,.8,.7,1.3,.7c.2,0,.5,-.1,.9,-.2c.3,-.1,.6,-.3,.9,-.5Z" class="g4_42"/>
<path d="M538.1,131.4l2.7,-1.3h.3v9.4c0,.6,0,1,0,1.1c.1,.2,.2,.3,.4,.4c.1,.1,.5,.1,1,.1v.3h-4.2v-.3c.5,0,.8,0,1,-.1c.1,-.1,.2,-.2,.3,-.3c.1,-.2,.1,-.6,.1,-1.2v-6c0,-.9,0,-1.4,-.1,-1.6c0,-.2,-.1,-.3,-.2,-.4c-.1,-.1,-.2,-.1,-.4,-.1c-.2,0,-.4,.1,-.8,.2Z" class="g4_42"/>
<path d="M545.1,135.9c0,-1.2,.2,-2.3,.6,-3.3c.4,-.9,.9,-1.6,1.5,-2c.5,-.4,1,-.5,1.5,-.5c.9,0,1.7,.4,2.3,1.3c.9,1,1.3,2.5,1.3,4.4c0,1.2,-.2,2.3,-.5,3.2c-.4,.9,-.9,1.6,-1.5,2c-.5,.4,-1.1,.6,-1.6,.6c-1.1,0,-2,-.6,-2.7,-1.9c-.6,-1,-.9,-2.3,-.9,-3.8m1.6,.2c0,1.6,.2,2.8,.6,3.8c.3,.8,.8,1.2,1.4,1.2c.3,0,.6,-.1,.9,-.4c.3,-.3,.6,-.7,.7,-1.3c.3,-1,.4,-2.3,.4,-4c0,-1.3,-.1,-2.3,-.4,-3.2c-.2,-.6,-.4,-1.1,-.8,-1.3c-.2,-.2,-.5,-.3,-.8,-.3c-.3,0,-.7,.2,-1,.5c-.4,.5,-.6,1.2,-.8,2.1c-.1,1,-.2,2,-.2,2.9Z" class="g4_42"/>
<path d="M538.7,109.7l2.7,-1.3h.3v9.4c0,.6,0,1,.1,1.2c0,.1,.1,.2,.3,.3c.1,.1,.5,.2,1,.2v.3h-4.2v-.3c.5,0,.9,-.1,1,-.2c.2,-.1,.3,-.2,.3,-.3c.1,-.1,.1,-.5,.1,-1.2v-6c0,-.8,0,-1.3,-.1,-1.6c0,-.1,-.1,-.3,-.2,-.3c-.1,-.1,-.2,-.2,-.3,-.2c-.2,0,-.5,.1,-.9,.3Z" class="g4_42"/>
<path d="M546.5,109.7l2.7,-1.3h.3v9.4c0,.6,0,1,0,1.2c.1,.1,.2,.2,.4,.3c.1,.1,.5,.2,1,.2v.3h-4.2v-.3c.5,0,.8,-.1,1,-.2c.1,-.1,.2,-.2,.3,-.3c.1,-.1,.1,-.5,.1,-1.2v-6c0,-.8,0,-1.3,-.1,-1.6c0,-.1,-.1,-.3,-.2,-.3c-.1,-.1,-.2,-.2,-.4,-.2c-.2,0,-.4,.1,-.8,.3Z" class="g4_42"/>
<path d="M538.1,88.1l2.7,-1.3h.3v9.4c0,.6,0,1,0,1.1c.1,.2,.2,.3,.4,.4c.1,.1,.5,.1,1,.1v.3h-4.2v-.3c.5,0,.8,0,1,-.1c.1,-.1,.2,-.2,.3,-.3c.1,-.2,.1,-.6,.1,-1.2V90.1c0,-.8,0,-1.3,-.1,-1.5c0,-.2,-.1,-.3,-.2,-.4c-.1,-.1,-.2,-.1,-.4,-.1c-.2,0,-.4,.1,-.8,.2Z" class="g4_42"/>
<path d="M552.2,96l-.8,2.1h-6.5v-.3c1.9,-1.8,3.3,-3.2,4,-4.3c.8,-1.1,1.2,-2.1,1.2,-3.1c0,-.7,-.2,-1.3,-.6,-1.7c-.5,-.5,-1,-.7,-1.6,-.7c-.5,0,-1,.2,-1.4,.5c-.5,.3,-.8,.8,-1,1.4h-.3c.1,-1,.5,-1.8,1,-2.3c.6,-.6,1.3,-.8,2.2,-.8c.9,0,1.6,.2,2.2,.8c.6,.6,.9,1.3,.9,2.1c0,.5,-.1,1.1,-.4,1.7c-.4,.9,-1,1.8,-1.9,2.8c-1.4,1.5,-2.2,2.4,-2.6,2.7h2.9c.6,0,1,0,1.3,-.1c.2,0,.4,-.1,.6,-.3c.2,-.1,.4,-.3,.5,-.5Z" class="g4_42"/>
<path d="M558.8,352.2L645.6,222.7l86.5,-43.1L818,92.7" class="g5_42"/>
<path d="M278,699.6h17.3m34.3,0H342M230.7,777.1h12.5" class="g6_42"/>
<path d="M562.6,659.6H822.4M562.6,680.2V421.5m21.6,258.7V421.5m21.7,258.7V421.5m21.7,258.7V421.5m21.6,258.7V421.5m21.7,258.7V421.5m21.6,258.7V421.5m21.7,258.7V421.5m21.6,258.7V421.5m21.7,258.7V421.5m21.6,258.7V421.5m21.7,258.7V421.5m21.6,258.7V421.5M562.6,638H822.4M562.6,616.3H822.4M562.6,594.7H822.4M562.6,573H822.4M562.6,551.4H822.4M562.6,529.7H822.4M562.6,508.1H822.4M562.6,486.4H822.4M562.6,464.8H822.4M562.6,443.1H822.4M562.6,421.4H822.8" class="g2_42"/>
<path d="M562.6,413.1V681.3" class="g3_42"/>
<path fill-rule="evenodd" d="M562.6,407.7l4.6,10.8c-3.1,-1.6,-6.1,-1.6,-9.2,0Z" class="g4_42"/>
<path d="M831,680.6H563.2" class="g3_42"/>
<path fill-rule="evenodd" d="M836.4,680.6l-10.8,4.6c1.6,-3.1,1.6,-6.1,0,-9.2Z" class="g4_42"/>
<path d="M549.5,687.6c0,-1.3,.1,-2.4,.5,-3.3c.4,-.9,.9,-1.6,1.6,-2c.5,-.4,1,-.6,1.5,-.6c.8,0,1.6,.5,2.3,1.3c.8,1.1,1.3,2.6,1.3,4.4c0,1.3,-.2,2.4,-.6,3.3c-.4,.9,-.8,1.6,-1.4,2c-.6,.4,-1.2,.6,-1.7,.6c-1.1,0,-1.9,-.7,-2.6,-1.9c-.6,-1.1,-.9,-2.3,-.9,-3.8m1.6,.2c0,1.5,.2,2.8,.5,3.7c.3,.8,.8,1.3,1.4,1.3c.3,0,.6,-.2,.9,-.4c.4,-.3,.6,-.8,.8,-1.4c.2,-.9,.3,-2.2,.3,-4c0,-1.2,-.1,-2.3,-.3,-3.1c-.2,-.7,-.5,-1.1,-.8,-1.4c-.2,-.2,-.5,-.2,-.8,-.2c-.4,0,-.7,.1,-1,.5c-.4,.4,-.7,1.1,-.8,2.1c-.2,1,-.2,1.9,-.2,2.9Z" class="g4_42"/>
<path d="M588.1,688.4l-.7,1.4h-3.3l-.8,1.5c1.5,.2,2.6,.7,3.5,1.6c.7,.7,1.1,1.6,1.1,2.6c0,.6,-.1,1.2,-.4,1.7c-.2,.4,-.5,.9,-.9,1.2c-.3,.4,-.7,.7,-1.2,.9c-.6,.3,-1.3,.4,-1.9,.4c-.7,0,-1.2,-.1,-1.5,-.3c-.3,-.2,-.4,-.5,-.4,-.8c0,-.1,0,-.3,.2,-.4c.1,-.1,.2,-.2,.4,-.2c.2,0,.3,.1,.4,.1c.1,.1,.3,.2,.6,.3c.4,.3,.8,.5,1.2,.5c.6,0,1.2,-.3,1.7,-.8c.5,-.4,.7,-1,.7,-1.7c0,-.7,-.2,-1.3,-.6,-1.9c-.5,-.6,-1.1,-1,-1.8,-1.4c-.6,-.2,-1.4,-.3,-2.5,-.4l2.2,-4.3Z" class="g4_42"/>
<path d="M600.2,689.5l2.7,-1.3h.3v9.4c0,.6,0,1,0,1.1c.1,.2,.2,.3,.4,.4c.1,.1,.5,.1,1,.1v.3h-4.2v-.3c.5,0,.9,0,1,-.1c.2,-.1,.3,-.2,.3,-.3c.1,-.2,.1,-.6,.1,-1.2v-6c0,-.9,0,-1.4,-.1,-1.6c0,-.2,-.1,-.3,-.2,-.4c-.1,-.1,-.2,-.1,-.3,-.1c-.2,0,-.5,.1,-.9,.2Z" class="g4_42"/>
<path d="M607.2,694c0,-1.2,.2,-2.3,.6,-3.3c.4,-.9,.9,-1.6,1.5,-2c.5,-.4,1,-.5,1.6,-.5c.8,0,1.6,.4,2.3,1.3c.8,1,1.2,2.5,1.2,4.4c0,1.2,-.2,2.3,-.5,3.2c-.4,.9,-.9,1.6,-1.4,2c-.6,.4,-1.2,.6,-1.7,.6c-1.1,0,-2,-.6,-2.7,-1.9c-.6,-1,-.9,-2.3,-.9,-3.8m1.6,.2c0,1.6,.2,2.8,.6,3.8c.3,.8,.8,1.2,1.4,1.2c.3,0,.6,-.1,.9,-.4c.3,-.3,.6,-.7,.7,-1.3c.3,-1,.4,-2.3,.4,-4c0,-1.3,-.1,-2.3,-.4,-3.2c-.2,-.6,-.4,-1.1,-.7,-1.3c-.3,-.2,-.5,-.3,-.8,-.3c-.4,0,-.7,.2,-1,.5c-.4,.5,-.7,1.2,-.8,2.2c-.2,.9,-.3,1.9,-.3,2.8Z" class="g4_42"/>
<path d="M621.8,689.5l2.8,-1.3h.2v9.4c0,.6,.1,1,.1,1.1c.1,.2,.2,.3,.3,.4c.2,.1,.5,.1,1,.1v.3H622v-.3c.6,0,.9,0,1.1,-.1c.1,-.1,.2,-.2,.3,-.3c0,-.2,.1,-.6,.1,-1.2v-6c0,-.9,-.1,-1.4,-.1,-1.6c0,-.2,-.1,-.3,-.2,-.4c-.1,-.1,-.2,-.1,-.4,-.1c-.2,0,-.5,.1,-.8,.2Z" class="g4_42"/>
<path d="M635.6,688.4l-.7,1.4h-3.3l-.7,1.5c1.4,.2,2.6,.7,3.4,1.6c.7,.7,1.1,1.6,1.1,2.6c0,.6,-.1,1.2,-.4,1.7c-.2,.4,-.5,.9,-.9,1.2c-.3,.4,-.7,.7,-1.2,.9c-.6,.3,-1.2,.4,-1.9,.4c-.7,0,-1.2,-.1,-1.5,-.3c-.3,-.2,-.4,-.5,-.4,-.8c0,-.1,0,-.3,.2,-.4c.1,-.1,.3,-.2,.4,-.2c.2,0,.3,.1,.4,.1c.1,.1,.3,.2,.6,.3c.4,.3,.8,.5,1.2,.5c.7,0,1.2,-.3,1.7,-.8c.5,-.4,.7,-1,.7,-1.7c0,-.7,-.2,-1.3,-.6,-1.9c-.5,-.6,-1,-1,-1.8,-1.4c-.6,-.2,-1.4,-.3,-2.4,-.4l2.1,-4.3Z" class="g4_42"/>
<path d="M649.2,697.4l-.7,2.1h-6.6v-.3c1.9,-1.7,3.3,-3.2,4.1,-4.3c.8,-1.1,1.2,-2.1,1.2,-3.1c0,-.7,-.3,-1.2,-.7,-1.7c-.4,-.5,-.9,-.7,-1.5,-.7c-.6,0,-1.1,.2,-1.5,.5c-.5,.3,-.8,.8,-1,1.4h-.3c.2,-1,.5,-1.8,1.1,-2.3c.5,-.6,1.2,-.8,2.1,-.8c.9,0,1.6,.3,2.2,.8c.7,.6,1,1.3,1,2.1c0,.5,-.2,1.1,-.4,1.7c-.4,.9,-1.1,1.8,-2,2.8c-1.4,1.5,-2.2,2.4,-2.6,2.7h2.9c.6,0,1.1,0,1.3,-.1c.2,0,.4,-.1,.6,-.2c.2,-.2,.4,-.4,.5,-.6Z" class="g4_42"/>
<path d="M650.5,694c0,-1.2,.2,-2.3,.6,-3.3c.4,-.9,.9,-1.6,1.5,-2c.5,-.4,1,-.5,1.6,-.5c.8,0,1.6,.4,2.3,1.3c.8,1,1.2,2.5,1.2,4.4c0,1.2,-.1,2.3,-.5,3.2c-.4,.9,-.9,1.6,-1.4,2c-.6,.4,-1.2,.6,-1.7,.6c-1.1,0,-2,-.6,-2.7,-1.9c-.6,-1,-.9,-2.3,-.9,-3.8m1.6,.2c0,1.6,.2,2.8,.6,3.8c.3,.8,.8,1.2,1.4,1.2c.3,0,.6,-.1,.9,-.4c.3,-.3,.6,-.7,.8,-1.3c.2,-1,.3,-2.3,.3,-4c0,-1.3,-.1,-2.3,-.4,-3.2c-.2,-.6,-.4,-1.1,-.7,-1.3c-.3,-.2,-.5,-.3,-.8,-.3c-.4,0,-.7,.2,-1,.5c-.4,.5,-.7,1.2,-.8,2.2c-.2,.9,-.3,1.9,-.3,2.8Z" class="g4_42"/>
<path d="M670.9,697.4l-.8,2.1h-6.6v-.3c2,-1.7,3.3,-3.2,4.1,-4.3c.8,-1.1,1.2,-2.1,1.2,-3.1c0,-.7,-.2,-1.2,-.6,-1.7c-.5,-.5,-1,-.7,-1.6,-.7c-.5,0,-1,.2,-1.5,.5c-.4,.3,-.7,.8,-.9,1.4h-.3c.1,-1,.5,-1.8,1,-2.3c.6,-.6,1.3,-.8,2.1,-.8c.9,0,1.7,.3,2.3,.8c.6,.6,.9,1.3,.9,2.1c0,.5,-.1,1.1,-.4,1.7c-.4,.9,-1,1.8,-2,2.8c-1.3,1.5,-2.2,2.4,-2.5,2.7h2.9c.6,0,1,0,1.2,-.1c.3,0,.5,-.1,.7,-.2c.2,-.2,.3,-.4,.5,-.6Z" class="g4_42"/>
<path d="M678.9,688.4l-.7,1.4h-3.3l-.7,1.5c1.4,.2,2.6,.7,3.4,1.6c.7,.7,1.1,1.6,1.1,2.6c0,.6,-.1,1.2,-.4,1.7c-.2,.4,-.5,.9,-.9,1.2c-.3,.4,-.7,.7,-1.2,.9c-.6,.3,-1.2,.4,-1.9,.4c-.7,0,-1.1,-.1,-1.5,-.3c-.3,-.2,-.4,-.5,-.4,-.8c0,-.1,.1,-.3,.2,-.4c.1,-.1,.3,-.2,.5,-.2c.1,0,.2,.1,.3,.1c.1,.1,.3,.2,.6,.3c.4,.3,.8,.5,1.2,.5c.7,0,1.2,-.3,1.7,-.8c.5,-.4,.7,-1,.7,-1.7c0,-.7,-.2,-1.3,-.6,-1.9c-.4,-.6,-1,-1,-1.8,-1.4c-.6,-.2,-1.4,-.3,-2.4,-.4l2.1,-4.3Z" class="g4_42"/>
<path d="M685.7,690.5c.3,-.7,.7,-1.3,1.2,-1.7c.5,-.4,1.1,-.6,1.8,-.6c.9,0,1.6,.3,2.1,.8c.3,.5,.5,.9,.5,1.4c0,.8,-.5,1.7,-1.5,2.5c.7,.3,1.2,.7,1.5,1.2c.4,.5,.5,1.1,.5,1.7c0,1,-.3,1.8,-.9,2.5c-.8,1,-1.9,1.4,-3.4,1.4c-.8,0,-1.3,-.1,-1.6,-.3c-.2,-.1,-.4,-.3,-.4,-.6c0,-.1,.1,-.3,.2,-.4c.1,-.1,.3,-.2,.5,-.2c.1,0,.3,.1,.4,.1c.1,0,.3,.1,.6,.3c.4,.2,.6,.3,.7,.3c.2,.1,.4,.1,.7,.1c.5,0,1,-.2,1.4,-.6c.4,-.5,.6,-1,.6,-1.6c0,-.4,-.1,-.8,-.3,-1.2c-.1,-.3,-.3,-.6,-.4,-.7c-.3,-.3,-.6,-.5,-1,-.6c-.4,-.2,-.8,-.3,-1.2,-.3h-.3v-.2c.4,-.1,.9,-.3,1.3,-.5c.4,-.3,.7,-.6,.9,-.9c.2,-.4,.3,-.8,.3,-1.2c0,-.6,-.1,-1,-.5,-1.4c-.3,-.3,-.8,-.5,-1.3,-.5c-.9,0,-1.6,.4,-2.1,1.3Z" class="g4_42"/>
<path d="M693.8,694c0,-1.2,.2,-2.3,.6,-3.3c.4,-.9,.9,-1.6,1.5,-2c.5,-.4,1.1,-.5,1.6,-.5c.8,0,1.6,.4,2.3,1.3c.8,1,1.2,2.5,1.2,4.4c0,1.2,-.1,2.3,-.5,3.2c-.4,.9,-.9,1.6,-1.4,2c-.6,.4,-1.2,.6,-1.7,.6c-1.1,0,-2,-.6,-2.7,-1.9c-.6,-1,-.9,-2.3,-.9,-3.8m1.7,.2c0,1.6,.1,2.8,.5,3.8c.3,.8,.8,1.2,1.4,1.2c.3,0,.6,-.1,.9,-.4c.4,-.3,.6,-.7,.8,-1.3c.2,-1,.3,-2.3,.3,-4c0,-1.3,-.1,-2.3,-.4,-3.2c-.2,-.6,-.4,-1.1,-.7,-1.3c-.2,-.2,-.5,-.3,-.8,-.3c-.4,0,-.7,.2,-1,.5c-.4,.5,-.7,1.2,-.8,2.2c-.2,.9,-.2,1.9,-.2,2.8Z" class="g4_42"/>
<path d="M707.3,690.5c.4,-.7,.8,-1.3,1.2,-1.7c.5,-.4,1.1,-.6,1.9,-.6c.8,0,1.5,.3,2,.8c.4,.5,.6,.9,.6,1.4c0,.8,-.6,1.7,-1.6,2.5c.7,.3,1.2,.7,1.6,1.2c.3,.5,.5,1.1,.5,1.7c0,1,-.3,1.8,-.9,2.5c-.8,1,-2,1.4,-3.5,1.4c-.7,0,-1.2,-.1,-1.5,-.3c-.3,-.1,-.4,-.3,-.4,-.6c0,-.1,0,-.3,.2,-.4c.1,-.1,.2,-.2,.4,-.2c.2,0,.3,.1,.4,.1c.1,0,.4,.1,.7,.3c.3,.2,.5,.3,.7,.3c.2,.1,.4,.1,.6,.1c.6,0,1.1,-.2,1.5,-.6c.4,-.5,.6,-1,.6,-1.6c0,-.4,-.1,-.8,-.3,-1.2c-.1,-.3,-.3,-.6,-.5,-.7c-.2,-.3,-.5,-.5,-.9,-.6c-.4,-.2,-.9,-.3,-1.3,-.3H709v-.2c.5,-.1,.9,-.3,1.3,-.5c.5,-.3,.8,-.6,1,-.9c.2,-.4,.3,-.8,.3,-1.2c0,-.6,-.2,-1,-.5,-1.4c-.4,-.3,-.8,-.5,-1.4,-.5c-.8,0,-1.5,.4,-2.1,1.3Z" class="g4_42"/>
<path d="M722.2,688.4l-.7,1.4h-3.3l-.7,1.5c1.4,.2,2.6,.7,3.4,1.6c.7,.7,1.1,1.6,1.1,2.6c0,.6,-.1,1.2,-.3,1.7c-.3,.4,-.6,.9,-.9,1.2c-.4,.4,-.8,.7,-1.3,.9c-.6,.3,-1.2,.4,-1.9,.4c-.7,0,-1.1,-.1,-1.4,-.3c-.4,-.2,-.5,-.5,-.5,-.8c0,-.1,.1,-.3,.2,-.4c.1,-.1,.3,-.2,.5,-.2c.1,0,.2,.1,.3,.1c.1,.1,.3,.2,.6,.3c.4,.3,.8,.5,1.2,.5c.7,0,1.2,-.3,1.7,-.8c.5,-.4,.7,-1,.7,-1.7c0,-.7,-.2,-1.3,-.6,-1.9c-.4,-.6,-1,-1,-1.8,-1.4c-.6,-.2,-1.4,-.3,-2.4,-.4l2.1,-4.3Z" class="g4_42"/>
<path d="M736,695.4v1.2h-1.5v2.9h-1.4v-2.9h-4.7v-1.1l5.2,-7.3h.9v7.2Zm-2.9,0v-5.5l-3.9,5.5Z" class="g4_42"/>
<path d="M737.2,694c0,-1.2,.1,-2.3,.5,-3.3c.4,-.9,.9,-1.6,1.6,-2c.5,-.4,1,-.5,1.5,-.5c.8,0,1.6,.4,2.3,1.3c.8,1,1.3,2.5,1.3,4.4c0,1.2,-.2,2.3,-.6,3.2c-.4,.9,-.9,1.6,-1.4,2c-.6,.4,-1.2,.6,-1.7,.6c-1.1,0,-1.9,-.6,-2.7,-1.9c-.5,-1,-.8,-2.3,-.8,-3.8m1.6,.2c0,1.6,.2,2.8,.5,3.8c.3,.8,.8,1.2,1.4,1.2c.3,0,.6,-.1,.9,-.4c.4,-.3,.6,-.7,.8,-1.3c.2,-1,.3,-2.3,.3,-4c0,-1.3,-.1,-2.3,-.4,-3.2c-.1,-.6,-.4,-1.1,-.7,-1.3c-.2,-.2,-.5,-.3,-.8,-.3c-.4,0,-.7,.2,-1,.5c-.4,.5,-.7,1.2,-.8,2.2c-.2,.9,-.2,1.9,-.2,2.8Z" class="g4_42"/>
<path d="M757.6,695.4v1.2h-1.5v2.9h-1.3v-2.9h-4.7v-1.1l5.1,-7.3h.9v7.2Zm-2.8,0v-5.5l-3.9,5.5Z" class="g4_42"/>
<path d="M765.5,688.4l-.6,1.4h-3.4l-.7,1.5c1.4,.2,2.6,.7,3.4,1.6c.8,.7,1.1,1.6,1.1,2.6c0,.6,-.1,1.2,-.3,1.7c-.3,.4,-.6,.9,-.9,1.2c-.4,.4,-.8,.7,-1.2,.9c-.7,.3,-1.3,.4,-2,.4c-.7,0,-1.1,-.1,-1.4,-.3c-.3,-.2,-.5,-.5,-.5,-.8c0,-.1,.1,-.3,.2,-.4c.1,-.1,.3,-.2,.5,-.2c.1,0,.2,.1,.3,.1c.2,.1,.3,.2,.6,.3c.4,.3,.8,.5,1.2,.5c.7,0,1.2,-.3,1.7,-.8c.5,-.4,.8,-1,.8,-1.7c0,-.7,-.3,-1.3,-.7,-1.9c-.4,-.6,-1,-1,-1.8,-1.4c-.6,-.2,-1.4,-.3,-2.4,-.4l2.1,-4.3Z" class="g4_42"/>
<path d="M778.7,688.4l-.6,1.4h-3.3l-.8,1.5c1.5,.2,2.6,.7,3.5,1.6c.7,.7,1.1,1.6,1.1,2.6c0,.6,-.2,1.2,-.4,1.7c-.2,.4,-.5,.9,-.9,1.2c-.3,.4,-.8,.7,-1.2,.9c-.6,.3,-1.3,.4,-1.9,.4c-.7,0,-1.2,-.1,-1.5,-.3c-.3,-.2,-.4,-.5,-.4,-.8c0,-.1,0,-.3,.1,-.4c.2,-.1,.3,-.2,.5,-.2c.2,0,.3,.1,.4,.1c.1,.1,.3,.2,.5,.3c.5,.3,.9,.5,1.3,.5c.6,0,1.2,-.3,1.7,-.8c.5,-.4,.7,-1,.7,-1.7c0,-.7,-.2,-1.3,-.6,-1.9c-.5,-.6,-1.1,-1,-1.8,-1.4c-.6,-.2,-1.4,-.3,-2.5,-.4l2.2,-4.3Z" class="g4_42"/>
<path d="M780.5,694c0,-1.2,.2,-2.3,.5,-3.3c.4,-.9,.9,-1.6,1.6,-2c.5,-.4,1,-.5,1.5,-.5c.8,0,1.6,.4,2.3,1.3c.8,1,1.3,2.5,1.3,4.4c0,1.2,-.2,2.3,-.6,3.2c-.4,.9,-.8,1.6,-1.4,2c-.6,.4,-1.2,.6,-1.7,.6c-1.1,0,-1.9,-.6,-2.6,-1.9c-.6,-1,-.9,-2.3,-.9,-3.8m1.6,.2c0,1.6,.2,2.8,.5,3.8c.3,.8,.8,1.2,1.4,1.2c.3,0,.6,-.1,1,-.4c.3,-.3,.5,-.7,.7,-1.3c.2,-1,.4,-2.3,.4,-4c0,-1.3,-.2,-2.3,-.4,-3.2c-.2,-.6,-.5,-1.1,-.8,-1.3c-.2,-.2,-.5,-.3,-.8,-.3c-.4,0,-.7,.2,-1,.5c-.4,.5,-.7,1.2,-.8,2.2c-.2,.9,-.2,1.9,-.2,2.8Z" class="g4_42"/>
<path d="M800.4,688.4l-.6,1.4h-3.4l-.7,1.5c1.4,.2,2.6,.7,3.4,1.6c.8,.7,1.1,1.6,1.1,2.6c0,.6,-.1,1.2,-.3,1.7c-.3,.4,-.6,.9,-.9,1.2c-.4,.4,-.8,.7,-1.2,.9c-.7,.3,-1.3,.4,-2,.4c-.6,0,-1.1,-.1,-1.4,-.3c-.3,-.2,-.5,-.5,-.5,-.8c0,-.1,.1,-.3,.2,-.4c.1,-.1,.3,-.2,.5,-.2c.1,0,.2,.1,.4,.1c.1,.1,.2,.2,.5,.3c.4,.3,.8,.5,1.2,.5c.7,0,1.2,-.3,1.7,-.8c.5,-.4,.8,-1,.8,-1.7c0,-.7,-.3,-1.3,-.7,-1.9c-.4,-.6,-1,-1,-1.8,-1.4c-.6,-.2,-1.4,-.3,-2.4,-.4l2.1,-4.3Z" class="g4_42"/>
<path d="M808.8,688.4l-.6,1.4h-3.4l-.7,1.5c1.4,.2,2.6,.7,3.4,1.6c.8,.7,1.1,1.6,1.1,2.6c0,.6,-.1,1.2,-.3,1.7c-.3,.4,-.6,.9,-.9,1.2c-.4,.4,-.8,.7,-1.2,.9c-.7,.3,-1.3,.4,-2,.4c-.6,0,-1.1,-.1,-1.4,-.3c-.3,-.2,-.5,-.5,-.5,-.8c0,-.1,.1,-.3,.2,-.4c.1,-.1,.3,-.2,.5,-.2c.1,0,.2,.1,.4,.1c.1,.1,.2,.2,.5,.3c.4,.3,.8,.5,1.2,.5c.7,0,1.2,-.3,1.7,-.8c.5,-.4,.8,-1,.8,-1.7c0,-.7,-.3,-1.3,-.7,-1.9c-.4,-.6,-1,-1,-1.8,-1.4c-.6,-.2,-1.4,-.3,-2.4,-.4l2.1,-4.3Z" class="g4_42"/>
<path d="M822.3,688.2v.3c-.7,0,-1.3,.2,-1.8,.4c-.4,.2,-.9,.5,-1.3,1c-.5,.4,-.8,.9,-1.1,1.5c-.3,.5,-.6,1.2,-.8,1.9c.8,-.5,1.6,-.8,2.4,-.8c.8,0,1.4,.3,2,.9c.5,.6,.8,1.4,.8,2.4c0,.9,-.3,1.8,-.8,2.5c-.7,1,-1.6,1.4,-2.7,1.4c-.8,0,-1.4,-.2,-2,-.7c-1,-1,-1.5,-2.3,-1.5,-3.8c0,-1,.2,-2,.6,-2.9c.4,-.9,1,-1.7,1.7,-2.4c.7,-.7,1.4,-1.1,2.1,-1.4c.7,-.2,1.3,-.3,1.9,-.3Zm-5.1,5.7c-.1,.7,-.2,1.3,-.2,1.8c0,.5,.1,1.1,.3,1.7c.2,.6,.5,1.1,.9,1.5c.3,.2,.6,.4,1,.4c.5,0,.9,-.3,1.3,-.7c.4,-.5,.6,-1.1,.6,-1.9c0,-1,-.2,-1.8,-.6,-2.5c-.4,-.6,-.9,-1,-1.6,-1c-.2,0,-.4,.1,-.7,.1c-.2,.1,-.5,.3,-1,.6Z" class="g4_42"/>
<path d="M823.8,694c0,-1.2,.2,-2.3,.5,-3.3c.4,-.9,.9,-1.6,1.6,-2c.5,-.4,1,-.5,1.5,-.5c.8,0,1.6,.4,2.3,1.3c.8,1,1.3,2.5,1.3,4.4c0,1.2,-.2,2.3,-.6,3.2c-.4,.9,-.8,1.6,-1.4,2c-.6,.4,-1.1,.6,-1.7,.6c-1,0,-1.9,-.6,-2.6,-1.9c-.6,-1,-.9,-2.3,-.9,-3.8m1.6,.2c0,1.6,.2,2.8,.5,3.8c.4,.8,.8,1.2,1.4,1.2c.3,0,.6,-.1,1,-.4c.3,-.3,.5,-.7,.7,-1.3c.2,-1,.4,-2.3,.4,-4c0,-1.3,-.2,-2.3,-.4,-3.2c-.2,-.6,-.5,-1.1,-.8,-1.3c-.2,-.2,-.5,-.3,-.8,-.3c-.4,0,-.7,.2,-1,.5c-.4,.5,-.7,1.2,-.8,2.2c-.2,.9,-.2,1.9,-.2,2.8Z" class="g4_42"/>
<path d="M550.3,654.9l2.7,-1.3h.3V663c0,.6,0,1,0,1.2c.1,.1,.2,.2,.4,.3c.1,.1,.5,.2,1,.2v.3h-4.2v-.3c.5,0,.8,-.1,1,-.2c.1,0,.3,-.2,.3,-.3c.1,-.1,.1,-.5,.1,-1.2v-6c0,-.8,0,-1.3,-.1,-1.6c0,-.1,-.1,-.3,-.2,-.3c-.1,-.1,-.2,-.2,-.3,-.2c-.3,0,-.5,.1,-.9,.3Z" class="g4_42"/>
<path d="M556,641.2l-.8,2.1h-6.5V643c1.9,-1.7,3.3,-3.2,4.1,-4.3c.7,-1.1,1.1,-2.1,1.1,-3.1c0,-.7,-.2,-1.2,-.6,-1.7c-.4,-.5,-1,-.7,-1.6,-.7c-.5,0,-1,.2,-1.4,.5c-.5,.3,-.8,.8,-1,1.4H549c.1,-1,.5,-1.8,1,-2.3c.6,-.6,1.3,-.8,2.2,-.8c.9,0,1.6,.3,2.2,.8c.6,.6,.9,1.3,.9,2.1c0,.5,-.1,1.1,-.4,1.7c-.4,.9,-1,1.8,-1.9,2.8c-1.4,1.5,-2.2,2.4,-2.6,2.7h2.9c.6,0,1,0,1.3,-.1c.2,0,.4,-.1,.6,-.3c.2,-.1,.4,-.3,.5,-.5Z" class="g4_42"/>
<path d="M549.2,612.7c.3,-.8,.7,-1.4,1.2,-1.8c.5,-.4,1.1,-.6,1.8,-.6c.9,0,1.6,.3,2,.9c.4,.4,.6,.9,.6,1.4c0,.8,-.5,1.6,-1.6,2.5c.7,.2,1.2,.6,1.6,1.1c.3,.5,.5,1.1,.5,1.8c0,.9,-.3,1.8,-.9,2.5c-.8,.9,-2,1.4,-3.5,1.4c-.7,0,-1.2,-.1,-1.5,-.3c-.3,-.2,-.4,-.4,-.4,-.6c0,-.2,.1,-.3,.2,-.4c.1,-.2,.3,-.2,.5,-.2c.1,0,.2,0,.4,0c.1,.1,.3,.2,.6,.3c.3,.2,.6,.3,.7,.4c.2,0,.4,0,.6,0c.6,0,1.1,-.2,1.5,-.6c.4,-.4,.6,-.9,.6,-1.5c0,-.5,-.1,-.9,-.3,-1.3c-.1,-.3,-.3,-.5,-.4,-.7c-.3,-.2,-.6,-.4,-1,-.6c-.4,-.2,-.8,-.3,-1.3,-.3h-.2v-.2c.4,-.1,.8,-.2,1.3,-.5c.4,-.2,.7,-.5,.9,-.9c.2,-.4,.3,-.8,.3,-1.2c0,-.6,-.2,-1,-.5,-1.4c-.4,-.3,-.8,-.5,-1.3,-.5c-.9,0,-1.6,.5,-2.2,1.4Z" class="g4_42"/>
<path d="M556.1,595.9v1.2h-1.5V600h-1.3v-2.9h-4.7V596l5.1,-7.3h.9v7.2Zm-2.8,0v-5.5l-3.9,5.5Z" class="g4_42"/>
<path d="M555.6,567.2l-.6,1.4h-3.4l-.7,1.5c1.4,.2,2.6,.8,3.4,1.6c.8,.8,1.1,1.7,1.1,2.7c0,.5,-.1,1.1,-.3,1.6c-.3,.5,-.6,.9,-.9,1.3c-.4,.3,-.8,.6,-1.2,.8c-.7,.3,-1.3,.5,-2,.5c-.6,0,-1.1,-.2,-1.4,-.4c-.3,-.2,-.5,-.5,-.5,-.7c0,-.2,.1,-.3,.2,-.4c.1,-.2,.3,-.2,.5,-.2c.1,0,.2,0,.4,0c.1,.1,.2,.2,.5,.4c.4,.3,.8,.4,1.2,.4c.7,0,1.3,-.2,1.7,-.7c.5,-.5,.8,-1.1,.8,-1.8c0,-.7,-.3,-1.3,-.7,-1.9c-.4,-.5,-1,-1,-1.8,-1.3c-.6,-.3,-1.4,-.4,-2.4,-.4l2.1,-4.4Z" class="g4_42"/>
<path d="M555.8,545.3v.4c-.7,0,-1.3,.2,-1.7,.4c-.5,.2,-.9,.5,-1.4,1c-.4,.4,-.8,.9,-1.1,1.4c-.3,.6,-.5,1.2,-.7,2c.8,-.5,1.6,-.8,2.4,-.8c.7,0,1.4,.3,1.9,.9c.6,.6,.9,1.4,.9,2.4c0,.9,-.3,1.7,-.9,2.5c-.7,.9,-1.6,1.4,-2.7,1.4c-.7,0,-1.4,-.3,-1.9,-.8c-1,-.9,-1.6,-2.2,-1.6,-3.8c0,-1,.2,-1.9,.6,-2.8c.4,-.9,1,-1.7,1.7,-2.4c.8,-.7,1.5,-1.2,2.2,-1.4c.7,-.2,1.3,-.4,1.9,-.4Zm-5.1,5.8c-.1,.7,-.1,1.3,-.1,1.8c0,.5,.1,1.1,.3,1.7c.2,.6,.5,1.1,.9,1.5c.2,.2,.6,.3,1,.3c.4,0,.9,-.2,1.2,-.6c.4,-.5,.6,-1.1,.6,-2c0,-.9,-.2,-1.7,-.6,-2.4c-.3,-.7,-.9,-1,-1.5,-1c-.2,0,-.5,0,-.7,.1c-.2,.1,-.6,.3,-1.1,.6Z" class="g4_42"/>
<path d="M550,523.9h6v.3l-3.7,11.1h-1l3.4,-10h-3.1c-.6,0,-1.1,0,-1.3,.2c-.5,.2,-.8,.6,-1.1,1.1h-.3Z" class="g4_42"/>
<path d="M551.5,507.8c-.8,-.7,-1.4,-1.3,-1.7,-1.7c-.2,-.5,-.3,-.9,-.3,-1.4c0,-.7,.2,-1.4,.8,-1.9c.5,-.5,1.3,-.8,2.2,-.8c.9,0,1.6,.3,2.2,.8c.5,.5,.8,1,.8,1.6c0,.5,-.1,.9,-.4,1.3c-.3,.4,-1,.9,-1.9,1.5c1,.8,1.6,1.4,1.9,1.8c.4,.5,.6,1.1,.6,1.8c0,.7,-.3,1.4,-.8,2c-.6,.5,-1.4,.8,-2.4,.8c-1.1,0,-1.9,-.3,-2.5,-1c-.4,-.5,-.7,-1.1,-.7,-1.7c0,-.5,.2,-1,.5,-1.5c.4,-.5,.9,-1,1.7,-1.6m1.3,-.9c.7,-.6,1.1,-1,1.3,-1.4c.1,-.3,.2,-.7,.2,-1.1c0,-.6,-.1,-1.1,-.4,-1.4c-.4,-.3,-.8,-.5,-1.4,-.5c-.5,0,-1,.2,-1.3,.5c-.4,.3,-.6,.7,-.6,1.1c0,.3,.1,.6,.3,.9c.1,.3,.3,.5,.6,.8Zm-.9,1.2c-.4,.4,-.8,.8,-1,1.3c-.2,.4,-.3,.9,-.3,1.4c0,.7,.2,1.3,.6,1.7c.3,.4,.8,.6,1.4,.6c.6,0,1.1,-.1,1.5,-.5c.3,-.3,.5,-.7,.5,-1.2c0,-.4,-.1,-.7,-.3,-1c-.4,-.6,-1.2,-1.4,-2.4,-2.3Z" class="g4_42"/>
<path d="M549.2,492v-.3c.7,0,1.4,-.2,2,-.5c.6,-.3,1.2,-.9,1.8,-1.7c.5,-.8,.9,-1.7,1.2,-2.6c-.9,.5,-1.7,.8,-2.4,.8c-.8,0,-1.4,-.3,-2,-.9c-.5,-.6,-.8,-1.4,-.8,-2.4c0,-1,.3,-1.9,.8,-2.6c.7,-1,1.6,-1.4,2.7,-1.4c.9,0,1.6,.4,2.3,1.1c.8,1,1.2,2.1,1.2,3.5c0,1.2,-.3,2.4,-.9,3.4c-.6,1.1,-1.5,2,-2.6,2.7c-.8,.6,-1.8,.9,-2.8,.9Zm5.1,-5.7c.1,-.8,.1,-1.3,.1,-1.8c0,-.5,-.1,-1.1,-.2,-1.7c-.2,-.6,-.5,-1.1,-.8,-1.4c-.3,-.3,-.7,-.5,-1.1,-.5c-.5,0,-.9,.2,-1.3,.7c-.4,.4,-.6,1.1,-.6,1.9c0,1.2,.3,2.1,.8,2.7c.3,.5,.8,.7,1.3,.7c.2,0,.5,0,.9,-.1c.3,-.2,.6,-.3,.9,-.5Z" class="g4_42"/>
<path d="M541.9,460.1l2.7,-1.4h.3v9.4c0,.7,0,1,0,1.2c.1,.1,.2,.3,.4,.3c.1,.1,.5,.2,1,.2v.3h-4.2v-.3c.5,0,.8,-.1,1,-.2c.1,0,.3,-.1,.3,-.3c.1,-.1,.1,-.5,.1,-1.2v-6c0,-.8,0,-1.3,-.1,-1.5c0,-.2,-.1,-.3,-.2,-.4c-.1,-.1,-.2,-.1,-.4,-.1c-.2,0,-.4,0,-.8,.2Z" class="g4_42"/>
<path d="M548.9,464.6c0,-1.3,.2,-2.4,.6,-3.3c.4,-.9,.9,-1.6,1.5,-2c.5,-.4,1,-.6,1.5,-.6c.9,0,1.7,.5,2.3,1.3c.9,1.1,1.3,2.6,1.3,4.4c0,1.3,-.2,2.4,-.5,3.3c-.4,.9,-.9,1.6,-1.5,2c-.5,.4,-1.1,.6,-1.6,.6c-1.1,0,-2,-.6,-2.7,-1.9c-.6,-1,-.9,-2.3,-.9,-3.8m1.6,.2c0,1.5,.2,2.8,.6,3.7c.3,.9,.8,1.3,1.4,1.3c.3,0,.6,-.2,.9,-.4c.3,-.3,.6,-.7,.7,-1.4c.3,-.9,.4,-2.2,.4,-3.9c0,-1.3,-.1,-2.4,-.4,-3.2c-.2,-.6,-.4,-1.1,-.7,-1.4c-.3,-.1,-.5,-.2,-.9,-.2c-.3,0,-.7,.1,-1,.5c-.3,.4,-.6,1.1,-.8,2.1c-.1,1,-.2,1.9,-.2,2.9Z" class="g4_42"/>
<path d="M542.5,438.4l2.7,-1.3h.3v9.4c0,.6,0,1,.1,1.1c0,.2,.1,.3,.3,.4c.1,.1,.5,.1,1,.1v.3h-4.2v-.3c.5,0,.9,0,1,-.1c.2,-.1,.3,-.2,.3,-.3c.1,-.2,.1,-.6,.1,-1.2v-6c0,-.8,0,-1.4,-.1,-1.6c0,-.2,-.1,-.3,-.2,-.4c-.1,-.1,-.2,-.1,-.3,-.1c-.2,0,-.5,.1,-.9,.3Z" class="g4_42"/>
<path d="M550.3,438.4l2.7,-1.3h.3v9.4c0,.6,0,1,0,1.1c.1,.2,.2,.3,.4,.4c.1,.1,.5,.1,1,.1v.3h-4.2v-.3c.5,0,.8,0,1,-.1c.1,-.1,.3,-.2,.3,-.3c.1,-.2,.1,-.6,.1,-1.2v-6c0,-.8,0,-1.4,-.1,-1.6c0,-.2,-.1,-.3,-.2,-.4c-.1,-.1,-.2,-.1,-.3,-.1c-.3,0,-.5,.1,-.9,.3Z" class="g4_42"/>
<path d="M541.9,416.7l2.7,-1.3h.3v9.4c0,.6,0,1,0,1.2c.1,.1,.2,.3,.4,.3c.1,.1,.5,.2,1,.2v.3h-4.2v-.3c.5,0,.8,-.1,1,-.2c.1,0,.3,-.1,.3,-.3c.1,-.1,.1,-.5,.1,-1.2v-6c0,-.8,0,-1.3,-.1,-1.5c0,-.2,-.1,-.3,-.2,-.4c-.1,-.1,-.2,-.2,-.4,-.2c-.2,0,-.4,.1,-.8,.3Z" class="g4_42"/>
<path d="M556,424.6l-.8,2.2h-6.5v-.3c1.9,-1.8,3.3,-3.2,4.1,-4.3c.7,-1.2,1.1,-2.2,1.1,-3.1c0,-.7,-.2,-1.3,-.6,-1.7c-.4,-.5,-1,-.7,-1.6,-.7c-.5,0,-1,.1,-1.4,.5c-.5,.3,-.8,.8,-1,1.4H549c.1,-1,.5,-1.8,1,-2.4c.6,-.5,1.3,-.8,2.2,-.8c.9,0,1.6,.3,2.2,.9c.6,.6,.9,1.3,.9,2c0,.6,-.1,1.2,-.4,1.7c-.4,.9,-1,1.9,-1.9,2.9c-1.4,1.4,-2.2,2.3,-2.6,2.6h2.9c.6,0,1,0,1.3,0c.2,-.1,.4,-.2,.6,-.3c.2,-.1,.4,-.3,.5,-.6Z" class="g4_42"/>
<path d="M735.9,508.3l85.9,-86.9" class="g7_42"/>
<path d="M562.7,680.8L649.4,551.4l86.5,-43.1" class="g5_42"/>
<path fill-rule="evenodd" d="M649.3,548.6c1.3,0,2.4,1.1,2.4,2.5c0,1.3,-1.1,2.4,-2.4,2.4c-1.4,0,-2.5,-1.1,-2.5,-2.4c0,-1.4,1.1,-2.5,2.5,-2.5Z" class="g8_42"/>
<path d="M649.3,548.6c1.3,0,2.4,1.1,2.4,2.5c0,1.3,-1.1,2.4,-2.4,2.4c-1.4,0,-2.5,-1.1,-2.5,-2.4c0,-1.4,1.1,-2.5,2.5,-2.5Z" class="g9_42"/>
<path fill-rule="evenodd" d="M757.4,484.7c1.3,0,2.4,1.1,2.4,2.4c0,1.4,-1.1,2.5,-2.4,2.5c-1.3,0,-2.4,-1.1,-2.4,-2.5c0,-1.3,1.1,-2.4,2.4,-2.4Z" class="g8_42"/>
<path d="M757.4,484.7c1.3,0,2.4,1.1,2.4,2.4c0,1.4,-1.1,2.5,-2.4,2.5c-1.3,0,-2.4,-1.1,-2.4,-2.5c0,-1.3,1.1,-2.4,2.4,-2.4Z" class="g9_42"/>
<path fill-rule="evenodd" d="M735.2,506.4c1.3,0,2.4,1.1,2.4,2.4c0,1.4,-1.1,2.4,-2.4,2.4c-1.3,0,-2.4,-1,-2.4,-2.4c0,-1.3,1.1,-2.4,2.4,-2.4Z" class="g8_42"/>
<path d="M735.2,506.4c1.3,0,2.4,1.1,2.4,2.4c0,1.4,-1.1,2.4,-2.4,2.4c-1.3,0,-2.4,-1,-2.4,-2.4c0,-1.3,1.1,-2.4,2.4,-2.4Z" class="g9_42"/>
<path fill-rule="evenodd" d="M822.2,418.9c1.4,0,2.5,1,2.5,2.4c0,1.3,-1.1,2.4,-2.5,2.4c-1.3,0,-2.4,-1.1,-2.4,-2.4c0,-1.4,1.1,-2.4,2.4,-2.4Z" class="g8_42"/>
<path d="M822.2,418.9c1.4,0,2.5,1,2.5,2.4c0,1.3,-1.1,2.4,-2.5,2.4c-1.3,0,-2.4,-1.1,-2.4,-2.4c0,-1.4,1.1,-2.4,2.4,-2.4Z" class="g9_42"/>
<path d="M649.2,680.8V556.1m0,-5.4H567.8" class="ga_42"/>
<path fill-rule="evenodd" d="M649.2,550.7l-4.7,10.8c3.1,-1.5,6.2,-1.5,9.3,0Z" class="g4_42"/>
<path fill-rule="evenodd" d="M562.4,550.7l10.8,4.6c-1.5,-3,-1.5,-6.1,0,-9.2Z" class="g4_42"/>
<path d="M562.5,486.7H752.1m5.4,0V675.8" class="ga_42"/>
<path fill-rule="evenodd" d="M757.5,486.7l-10.8,-4.6c1.6,3.1,1.6,6.2,0,9.2Z" class="g4_42"/>
<path fill-rule="evenodd" d="M757.5,681.2l4.6,-10.8c-3.1,1.6,-6.1,1.6,-9.2,0Z" class="g4_42"/>
<path d="M736,680.8V508.5H562.3M822.3,679V421.3h-260" class="gb_42"/>
<path d="M736.2,680.8h86.2M562.6,508V421.9" class="g9_42"/>
<path d="M185.8,973.6h648V834h-648V973.6Z" class="gc_42"/>
<path d="M133.8,871.4h39.7V834H133.8v37.4Z" class="gd_42"/>
<path clip-path="url(#c0_42)" d="M154.1,856.5c-2.1,.2,-3.8,-1.5,-3.7,-3.6c.1,-1.7,1.5,-3.1,3.2,-3.2c2.1,-.1,3.8,1.6,3.7,3.6c-.2,1.8,-1.5,3.1,-3.2,3.2m.2,3c-3.9,.2,-7,-3,-6.8,-6.8c.2,-3.2,2.8,-5.7,5.9,-5.9c3.9,-.3,7,2.9,6.8,6.7c-.2,3.2,-2.8,5.8,-5.9,6m-.5,-15.4c-5.7,0,-11,3.2,-14.8,8.3c-.3,.4,-.3,1,0,1.4c3.8,5.2,9.1,8.3,14.8,8.3c5.8,0,11,-3.1,14.9,-8.3c.3,-.4,.3,-1,0,-1.4c-3.9,-5.1,-9.1,-8.3,-14.9,-8.3Z" class="ge_42"/>
<path d="M185.4,1077.9h651V985.5h-651v92.4Z" class="gc_42"/>
<path d="M136.4,1022.9h39.7V985.5H136.4v37.4Z" class="gd_42"/>
</svg>