<?xml version="1.0" encoding="UTF-8" standalone="no"?>
<!DOCTYPE svg PUBLIC "-//W3C//DTD SVG 1.1//EN"
"http://www.w3.org/Graphics/SVG/1.1/DTD/svg11.dtd">
<svg viewBox="0 0 909 1147" version="1.1" xmlns="http://www.w3.org/2000/svg" xmlns:xlink="http://www.w3.org/1999/xlink">
<defs>
<clipPath id="c0_85"><path d="M186.2,199.6V116H390.8v83.6Z"/></clipPath>
<clipPath id="c1_85"><path d="M186.2,480.7V391.9H380.7v88.8Z"/></clipPath>
<style type="text/css"><![CDATA[
.g0_85{
fill: #B6D774;
}
.g1_85{
fill: none;
stroke: #000;
stroke-width: 0.763;
}
.g2_85{
fill: #FFFAC2;
}
.g3_85{
fill: #CCE2F5;
}
.g4_85{
fill: none;
stroke: #000;
stroke-width: 1.069;
stroke-miterlimit: 2;
}
.g5_85{
fill: #000;
}
.g6_85{
fill: none;
stroke: #ED1D24;
stroke-width: 1.069;
stroke-miterlimit: 2;
}
.g7_85{
fill: none;
stroke: #000;
stroke-width: 0.763;
stroke-miterlimit: 2;
}
.g8_85{
fill: none;
stroke: #00A651;
stroke-width: 1.069;
stroke-miterlimit: 2;
}
.g9_85{
fill: #FFF1E0;
}
.ga_85{
fill: none;
stroke: #0EA5DF;
stroke-width: 3.055;
}
.gb_85{
fill: #E8F1FA;
}
.gc_85{
fill: #0C4B7F;
}
.gd_85{
fill: none;
stroke: #D82C20;
stroke-width: 1.069;
}
.ge_85{
fill: none;
stroke: #0EA5DF;
stroke-width: 1.069;
}
.gf_85{
fill: none;
stroke: #000;
stroke-width: 0.381;
}
]]></style>
</defs>
<path d="M835.8,1131h73.6v-51.5H835.8V1131Z" class="g0_85"/>
<path d="M511.7,192.9V156.1m0,78.8V198.1M437.6,305.5H449m72.9,0h11.3m-72.7,37.8h11.4" class="g1_85"/>
<path fill-rule="evenodd" d="M201.2,181.3H328L249.1,133.8Z" class="g2_85"/>
<path fill-rule="evenodd" d="M376.9,134.1H250.2L329,181.6Z" class="g3_85"/>
<path d="M248.7,133.7H377.1l-48.2,47.7H200.6l48.1,-47.7Z" class="g4_85"/>
<path fill-rule="evenodd" d="M257.1,154.9l-2.5,8.7c1,-1.6,1.9,-2.7,2.5,-3.2c.6,-.6,1.2,-.8,1.7,-.8c.3,0,.6,0,.8,.2c.2,.2,.3,.5,.3,.8c0,.4,-.1,.9,-.3,1.5l-1.1,3.7c-.1,.5,-.2,.7,-.2,.8q0,.1,.1,.2c0,0,.1,.1,.2,.1c0,0,.1,-.1,.2,-.2c.4,-.2,.7,-.6,1,-1.1l.3,.2c-.2,.3,-.5,.7,-.8,1.1c-.4,.3,-.7,.6,-1,.7c-.2,.2,-.5,.3,-.7,.3c-.2,0,-.4,-.1,-.5,-.2c-.1,-.2,-.2,-.4,-.2,-.6c0,-.2,.1,-.7,.3,-1.5l1,-3.5c.2,-.5,.2,-.8,.2,-1.1c0,-.1,0,-.2,-.1,-.3c-.1,0,-.2,-.1,-.3,-.1c-.1,0,-.3,.1,-.6,.2c-.4,.3,-.8,.7,-1.4,1.4c-.1,.2,-.6,.9,-1.4,2.2c-.3,.5,-.5,.9,-.6,1.4l-.6,1.9h-1.3L255,157.4l.3,-1.1c0,-.2,0,-.3,-.2,-.4c-.1,-.1,-.3,-.2,-.4,-.2c-.1,0,-.3,0,-.5,.1H254v-.4Z" class="g5_85"/>
<path fill-rule="evenodd" d="M314.2,143.6l-2.6,8.7c1.1,-1.6,2,-2.7,2.6,-3.2c.6,-.6,1.2,-.8,1.7,-.8c.3,0,.6,.1,.7,.2c.2,.2,.3,.5,.3,.8c0,.4,0,.9,-.2,1.5l-1.1,3.7c-.1,.5,-.2,.7,-.2,.8q0,.1,.1,.2c0,0,.1,.1,.1,.1c.1,0,.2,-.1,.3,-.2c.3,-.2,.7,-.6,1,-1l.3,.1c-.2,.3,-.5,.7,-.9,1.1c-.3,.3,-.6,.6,-.9,.8c-.2,.1,-.5,.2,-.7,.2c-.2,0,-.4,-.1,-.5,-.2c-.2,-.2,-.2,-.4,-.2,-.6c0,-.2,.1,-.7,.3,-1.4l1,-3.6c.1,-.5,.2,-.8,.2,-1.1c0,-.1,0,-.2,-.1,-.3c-.1,0,-.2,-.1,-.3,-.1c-.2,0,-.4,.1,-.6,.2c-.4,.3,-.9,.7,-1.4,1.4c-.1,.2,-.6,.9,-1.4,2.2c-.3,.5,-.5,.9,-.6,1.4l-.6,1.9h-1.4l3,-10.3l.3,-1.1c0,-.2,-.1,-.3,-.2,-.4c-.1,-.1,-.3,-.2,-.5,-.2c-.1,0,-.2,0,-.4,.1h-.2v-.4Z" class="g5_85"/>
<path fill-rule="evenodd" d="M266,166.1c-.3,0,-.6,.1,-.9,.3c-.4,.4,-.7,.9,-1,1.5c-.4,.7,-.5,1.3,-.5,1.8c0,.3,.1,.5,.2,.7c.1,.1,.3,.2,.5,.2c.4,0,.9,-.3,1.4,-.9c.7,-.9,1,-1.8,1,-2.7c0,-.3,-.1,-.5,-.2,-.7c-.1,-.1,-.3,-.2,-.5,-.2m2.1,-.3l-1.2,4l-.1,.6v.1c0,0,0,.1,0,.2q.1,0,.2,0c0,0,.1,0,.2,-.1c.1,-.1,.3,-.3,.6,-.7l.2,.1c-.3,.4,-.6,.8,-.9,1c-.3,.2,-.5,.3,-.8,.3c-.1,0,-.3,0,-.4,-.1c0,-.1,-.1,-.2,-.1,-.4c0,-.2,.1,-.4,.1,-.8l.2,-.4c-.6,.7,-1,1.1,-1.5,1.4c-.3,.2,-.6,.3,-.9,.3c-.3,0,-.5,-.1,-.7,-.4c-.3,-.2,-.4,-.5,-.4,-.9c0,-.7,.2,-1.3,.6,-2c.4,-.7,.9,-1.3,1.5,-1.7c.4,-.4,.8,-.5,1.2,-.5c.3,0,.5,0,.7,.2c.1,.1,.2,.3,.3,.6l.2,-.7Z" class="g5_85"/>
<path fill-rule="evenodd" d="M323,154.8c-.2,0,-.5,.1,-.8,.3c-.4,.4,-.7,.9,-1.1,1.5c-.3,.7,-.4,1.3,-.4,1.8c0,.3,0,.5,.2,.7c.1,.1,.3,.2,.4,.2c.5,0,.9,-.3,1.5,-.9c.6,-.9,1,-1.8,1,-2.7c0,-.3,-.1,-.5,-.2,-.7c-.1,-.1,-.3,-.2,-.6,-.2m2.2,-.3l-1.2,4l-.1,.6c0,0,0,.1,0,.1q0,.1,0,.2c0,0,.1,0,.1,0c.1,0,.2,0,.2,-.1c.2,-.1,.4,-.3,.7,-.7l.2,.1c-.3,.5,-.6,.8,-.9,1c-.3,.2,-.5,.3,-.8,.3c-.2,0,-.3,0,-.4,-.1c-.1,-.1,-.1,-.2,-.1,-.4c0,-.2,0,-.4,.1,-.8l.2,-.4c-.6,.7,-1,1.2,-1.5,1.4c-.3,.2,-.6,.3,-.9,.3c-.3,0,-.6,-.1,-.8,-.3c-.2,-.3,-.3,-.6,-.3,-1c0,-.7,.2,-1.3,.6,-2c.4,-.7,.9,-1.3,1.4,-1.7c.5,-.4,.9,-.5,1.3,-.5c.3,0,.5,0,.6,.2c.2,.1,.3,.3,.4,.6l.2,-.7Z" class="g5_85"/>
<path fill-rule="evenodd" d="M245.6,184.6l-2.6,9.1c-.2,.7,-.3,1.1,-.3,1.3c0,.1,0,.2,.1,.3c.1,.1,.2,.1,.3,.1c.1,.1,.4,.1,.7,.1c1,0,1.8,-.1,2.6,-.3c.8,-.2,1.5,-.4,2,-.8c.7,-.6,1.3,-1.3,1.7,-2.3c.5,-1,.7,-2.1,.7,-3.3c0,-1.4,-.3,-2.5,-1,-3.2c-.7,-.7,-1.6,-1,-2.9,-1c-.3,0,-.8,0,-1.3,0m-3.1,-.3l.1,-.3h3.9c1.6,0,2.8,.2,3.6,.5c.8,.4,1.4,1,1.9,1.8c.5,.8,.7,1.7,.7,2.6c0,.8,-.1,1.6,-.4,2.3c-.3,.8,-.6,1.4,-.9,1.8c-.4,.5,-.9,1,-1.6,1.5c-.7,.6,-1.5,1,-2.3,1.2c-.9,.3,-1.9,.4,-3.1,.4h-5.2l.1,-.3c.5,0,.8,-.1,1,-.1c.2,-.2,.4,-.3,.5,-.5c.2,-.2,.4,-.7,.6,-1.5l2.2,-7.3c.1,-.6,.2,-1,.2,-1.4c0,-.2,-.1,-.4,-.2,-.5c-.2,-.1,-.5,-.2,-.9,-.2Z" class="g5_85"/>
<path clip-path="url(#c0_85)" fill-rule="evenodd" d="M328.5,127.3c.7,.1,1.2,.1,1.5,.1c1,0,1.8,-.2,2.5,-.8c.7,-.6,1.1,-1.3,1.1,-2.3c0,-.7,-.2,-1.3,-.7,-1.7c-.4,-.4,-1.1,-.6,-2.1,-.6c-.2,0,-.5,0,-.7,0Zm1.8,-6c.4,0,.7,0,.8,0c1.3,0,2.2,-.2,2.8,-.8c.6,-.5,.9,-1.2,.9,-2c0,-.6,-.2,-1.1,-.5,-1.4c-.4,-.4,-1,-.5,-1.8,-.5c-.2,0,-.5,0,-.8,.1Zm-1.8,-5l.1,-.3h4.3c.8,0,1.4,.1,2,.3c.5,.2,1,.5,1.3,.9c.2,.5,.4,.9,.4,1.3c0,.7,-.3,1.4,-.8,1.9c-.5,.6,-1.3,1,-2.4,1.3c.7,.2,1.2,.6,1.6,1.1c.3,.4,.5,.9,.5,1.5c0,.6,-.2,1.1,-.5,1.7c-.3,.5,-.7,1,-1.2,1.3c-.4,.3,-1,.5,-1.7,.6c-.5,.1,-1.3,.2,-2.3,.2h-4.5l.2,-.3c.4,0,.7,-.1,.9,-.2c.2,-.1,.4,-.2,.5,-.4c.2,-.2,.3,-.7,.6,-1.5l2.2,-7.4c.1,-.6,.2,-1,.2,-1.3c0,-.2,0,-.4,-.2,-.5c-.2,-.1,-.5,-.2,-.9,-.2c-.1,0,-.2,0,-.3,0Z" class="g5_85"/>
<path fill-rule="evenodd" d="M237,124.6l-2.6,9.1c-.2,.7,-.3,1.1,-.3,1.3q0,.1,.1,.2c.1,.1,.1,.2,.2,.2c.2,.1,.5,.1,.8,.1c.9,0,1.8,-.1,2.6,-.3c.8,-.2,1.5,-.5,2,-.9c.7,-.5,1.3,-1.3,1.7,-2.2c.5,-1,.7,-2.1,.7,-3.4c0,-1.4,-.4,-2.4,-1,-3.1c-.7,-.7,-1.7,-1,-3,-1c-.3,0,-.7,0,-1.2,0m-3.2,-.3l.2,-.4h3.8c1.7,0,2.9,.2,3.7,.6c.8,.4,1.4,1,1.9,1.8c.4,.8,.7,1.7,.7,2.6c0,.8,-.2,1.5,-.4,2.3c-.3,.7,-.6,1.3,-1,1.8c-.3,.4,-.8,.9,-1.5,1.5c-.7,.5,-1.5,.9,-2.3,1.2c-.9,.2,-1.9,.4,-3.1,.4h-5.2l.1,-.4c.5,0,.8,0,1,-.1c.2,-.1,.4,-.2,.5,-.4c.2,-.2,.4,-.7,.6,-1.5l2.1,-7.3c.2,-.6,.3,-1.1,.3,-1.4c0,-.2,-.1,-.4,-.2,-.5c-.2,-.2,-.5,-.2,-1,-.2Z" class="g5_85"/>
<path clip-path="url(#c0_85)" fill-rule="evenodd" d="M194.8,182.4l-3.5,4.7h3Zm1.8,-3l-1,10.1c0,.4,0,.8,0,.9c0,.2,0,.4,.1,.6c.1,.1,.3,.3,.5,.3c.2,.1,.5,.2,.9,.2l-.1,.3h-4.7l.1,-.3h.2c.4,0,.7,-.1,.9,-.3c.2,-.1,.3,-.3,.4,-.6c.1,-.1,.1,-.6,.2,-1.3l.2,-1.5h-3.5l-1.3,1.7c-.2,.3,-.4,.6,-.5,.8c-.1,.2,-.1,.3,-.1,.4c0,.2,.1,.4,.2,.5c.2,.2,.5,.3,.8,.3l-.1,.3h-3.6l.1,-.3c.5,-.1,.8,-.2,1.2,-.5c.3,-.3,.8,-.8,1.5,-1.8l7.2,-9.8Z" class="g5_85"/>
<path fill-rule="evenodd" d="M334.1,190.9c.7,.1,1.2,.1,1.6,.1c.9,0,1.7,-.3,2.4,-.8c.8,-.6,1.1,-1.4,1.1,-2.3c0,-.8,-.2,-1.3,-.7,-1.7c-.4,-.5,-1.1,-.7,-2.1,-.7c-.2,0,-.4,0,-.7,.1Zm1.8,-6c.4,0,.7,0,.9,0c1.2,0,2.1,-.3,2.7,-.8c.6,-.5,.9,-1.2,.9,-2c0,-.6,-.2,-1.1,-.5,-1.5c-.4,-.3,-1,-.5,-1.8,-.5c-.2,0,-.5,.1,-.8,.1Zm-1.8,-5.1l.1,-.3h4.4c.7,0,1.3,.1,1.9,.4c.6,.2,1,.5,1.3,.9c.3,.4,.4,.8,.4,1.3c0,.7,-.3,1.3,-.8,1.9c-.5,.6,-1.3,1,-2.4,1.2c.7,.3,1.3,.7,1.6,1.1c.3,.5,.5,1,.5,1.5c0,.6,-.1,1.2,-.4,1.8c-.4,.5,-.8,.9,-1.2,1.2c-.5,.3,-1.1,.6,-1.8,.7c-.5,.1,-1.3,.2,-2.3,.2H331l.1,-.4c.4,0,.8,0,.9,-.1c.3,-.1,.4,-.2,.5,-.4c.2,-.2,.4,-.8,.6,-1.6l2.2,-7.3c.2,-.6,.3,-1.1,.3,-1.3c0,-.2,-.1,-.4,-.3,-.5c-.1,-.2,-.5,-.2,-.9,-.2c-.1,0,-.2,0,-.3,-.1Z" class="g5_85"/>
<path fill-rule="evenodd" d="M390.8,125.9l-.9,3.9h-.4v-1c0,-.3,-.1,-.6,-.2,-.9c-.1,-.3,-.3,-.5,-.5,-.7c-.2,-.2,-.5,-.4,-.8,-.5c-.3,-.1,-.7,-.2,-1.1,-.2c-1.1,0,-2,.3,-2.8,.9c-1,.7,-1.8,1.8,-2.4,3.1c-.5,1.2,-.7,2.3,-.7,3.5c0,1.1,.3,2.1,1,2.8c.7,.7,1.6,1,2.7,1c.8,0,1.6,-.2,2.2,-.5c.6,-.4,1.2,-1,1.8,-1.7h.4c-.6,1,-1.4,1.8,-2.2,2.3c-.8,.5,-1.7,.7,-2.8,.7c-1,0,-1.9,-.2,-2.7,-.6c-.7,-.4,-1.3,-1,-1.7,-1.8c-.4,-.7,-.6,-1.5,-.6,-2.4c0,-1.3,.3,-2.6,1.1,-3.9c.7,-1.2,1.6,-2.2,2.9,-2.9c1.2,-.7,2.5,-1.1,3.7,-1.1c.6,0,1.3,.1,2,.4c.3,.1,.6,.2,.7,.2c.2,0,.3,0,.4,-.1c.1,0,.3,-.2,.5,-.5Z" class="g5_85"/>
<path fill-rule="evenodd" d="M255.2,192.3l1.9,-.9h.2v6.8c0,.4,0,.7,.1,.8c0,.2,.1,.2,.2,.3c.1,.1,.4,.1,.7,.1v.2h-3v-.2c.4,0,.6,0,.7,-.1q.2,-.1,.3,-.2c0,-.1,0,-.4,0,-.9v-4.4c0,-.6,0,-.9,0,-1.1c0,-.1,-.1,-.2,-.2,-.3c0,0,-.1,-.1,-.2,-.1c-.2,0,-.4,.1,-.7,.2Z" class="g5_85"/>
<path fill-rule="evenodd" d="M338.8,124.3l2,-.9h.2v6.8c0,.4,0,.7,.1,.8c0,.1,.1,.2,.2,.3c.1,0,.3,.1,.7,.1v.2h-3v-.2c.4,0,.6,-.1,.7,-.1c.1,-.1,.2,-.1,.2,-.2c.1,-.1,.1,-.4,.1,-.9v-4.4c0,-.6,0,-1,0,-1.1c-.1,-.1,-.1,-.2,-.2,-.3c-.1,-.1,-.2,-.1,-.3,-.1c-.1,0,-.3,.1,-.6,.2Z" class="g5_85"/>
<path fill-rule="evenodd" d="M302.8,122.2c-.4,0,-.8,.2,-1.2,.6c-.6,.5,-1.2,1.2,-1.6,2.2c-.5,1,-.8,1.9,-.8,2.7c0,.4,.1,.7,.4,1c.2,.2,.4,.3,.7,.3c.6,0,1.3,-.5,2.1,-1.4c1,-1.3,1.5,-2.6,1.5,-3.9c0,-.6,-.1,-.9,-.3,-1.1c-.2,-.3,-.5,-.4,-.8,-.4m3.2,-.5l-1.8,6.1l-.2,.8c0,.1,0,.2,0,.2c0,.1,0,.2,.1,.3c.1,0,.1,.1,.2,.1c.1,0,.2,-.1,.3,-.2c.2,-.2,.5,-.5,.9,-1.1l.3,.3c-.4,.6,-.8,1.1,-1.2,1.4c-.5,.3,-.9,.5,-1.3,.5c-.2,0,-.4,-.1,-.5,-.2c-.2,-.2,-.2,-.3,-.2,-.6c0,-.3,0,-.7,.2,-1.1l.2,-.7c-.8,1,-1.5,1.7,-2.2,2.1c-.5,.3,-.9,.5,-1.4,.5c-.4,0,-.8,-.2,-1.1,-.6c-.3,-.3,-.5,-.8,-.5,-1.5c0,-.9,.3,-1.9,.9,-3c.5,-1,1.3,-1.9,2.1,-2.5c.7,-.5,1.4,-.8,2,-.8c.3,0,.7,.1,.9,.3c.2,.2,.4,.5,.5,1l.4,-1Z" class="g5_85"/>
<path fill-rule="evenodd" d="M285.6,188.1c-.4,0,-.8,.2,-1.2,.5c-.6,.5,-1.1,1.3,-1.6,2.3c-.5,1,-.7,1.9,-.7,2.7c0,.4,.1,.7,.3,1c.2,.2,.4,.3,.7,.3c.6,0,1.3,-.5,2.1,-1.4c1,-1.3,1.5,-2.6,1.5,-4c0,-.5,-.1,-.8,-.3,-1.1c-.2,-.2,-.4,-.3,-.8,-.3m3.2,-.5l-1.7,6.1l-.2,.8c0,.1,-.1,.2,-.1,.2c0,.1,.1,.2,.1,.3q.1,0,.2,0c.1,0,.2,0,.3,-.1c.3,-.2,.6,-.5,1,-1.1l.3,.2c-.5,.7,-.9,1.1,-1.3,1.5c-.5,.3,-.9,.5,-1.2,.5c-.3,0,-.5,-.1,-.6,-.2c-.1,-.2,-.2,-.4,-.2,-.6c0,-.3,.1,-.7,.2,-1.2l.2,-.6c-.8,1,-1.5,1.7,-2.2,2.1c-.4,.3,-.9,.5,-1.4,.5c-.4,0,-.8,-.2,-1.1,-.6c-.3,-.3,-.5,-.8,-.5,-1.5c0,-.9,.3,-1.9,.9,-3c.6,-1,1.3,-1.9,2.2,-2.5c.7,-.5,1.3,-.8,1.9,-.8c.4,0,.7,.1,.9,.3c.3,.2,.4,.5,.6,1l.3,-1Z" class="g5_85"/>
<path d="M328.4,181.2V133.8m-79.6,0v47.5" class="g6_85"/>
<path d="M248.8,133.8l79.6,47.4" class="g4_85"/>
<path fill-rule="evenodd" d="M199.4,472.3H319.8L244.9,402.9Z" class="g2_85"/>
<path fill-rule="evenodd" d="M366.3,403.5H245.9l74.9,69.3Z" class="g3_85"/>
<path d="M244.6,402.9H366.5l-45.8,69.5H198.8l45.8,-69.5Z" class="g4_85"/>
<path fill-rule="evenodd" d="M253.6,438.7l-2.5,8.7c1.1,-1.6,2,-2.7,2.6,-3.3c.6,-.5,1.2,-.8,1.7,-.8c.3,0,.5,.1,.7,.3c.2,.2,.3,.5,.3,.8c0,.4,-.1,.9,-.2,1.4l-1.1,3.8c-.2,.5,-.2,.7,-.2,.7c0,.1,0,.2,0,.3q.1,0,.2,0c.1,0,.2,0,.3,-.1c.3,-.2,.7,-.6,1,-1.1l.3,.2c-.2,.3,-.5,.7,-.9,1c-.3,.4,-.6,.7,-.9,.8c-.3,.2,-.5,.2,-.7,.2c-.2,0,-.4,0,-.5,-.2c-.2,-.1,-.3,-.3,-.3,-.5c0,-.3,.2,-.8,.4,-1.5l1,-3.6c.1,-.4,.2,-.8,.2,-1c0,-.1,0,-.2,-.1,-.3c-.1,-.1,-.2,-.1,-.3,-.1c-.2,0,-.4,.1,-.6,.2c-.4,.2,-.9,.7,-1.4,1.4c-.2,.2,-.6,.9,-1.4,2.2c-.3,.4,-.5,.9,-.7,1.4l-.5,1.8h-1.4l3,-10.2l.3,-1.1c0,-.2,-.1,-.3,-.2,-.4c-.1,-.1,-.3,-.2,-.5,-.2c-.1,0,-.3,0,-.5,0l-.2,.1v-.4Z" class="g5_85"/>
<path fill-rule="evenodd" d="M299.1,413.7l-2.5,8.7c1.1,-1.6,2,-2.7,2.6,-3.2c.6,-.6,1.2,-.8,1.7,-.8c.3,0,.5,.1,.7,.3c.2,.2,.3,.4,.3,.8c0,.3,-.1,.8,-.2,1.4l-1.1,3.7c-.2,.5,-.2,.7,-.2,.8q0,.1,.1,.2c0,0,.1,.1,.1,.1c.1,0,.2,-.1,.3,-.1c.3,-.3,.7,-.7,1,-1.1l.3,.1c-.2,.4,-.5,.7,-.9,1.1c-.3,.4,-.6,.6,-.9,.8c-.3,.1,-.5,.2,-.7,.2c-.2,0,-.4,-.1,-.5,-.2c-.2,-.2,-.2,-.3,-.2,-.6c0,-.2,.1,-.7,.3,-1.4l1,-3.6c.1,-.5,.2,-.8,.2,-1.1c0,-.1,0,-.2,-.1,-.3c-.1,0,-.2,-.1,-.3,-.1c-.2,0,-.4,.1,-.6,.2c-.4,.3,-.9,.8,-1.4,1.4c-.1,.2,-.6,1,-1.4,2.3c-.3,.4,-.5,.8,-.6,1.3l-.6,1.9h-1.4l3,-10.3l.3,-1.1c0,-.1,-.1,-.3,-.2,-.4c-.1,-.1,-.3,-.2,-.5,-.2c-.1,0,-.2,.1,-.5,.1h-.1v-.3Z" class="g5_85"/>
<path fill-rule="evenodd" d="M260.1,454.5c.4,.2,.8,.3,1.1,.3c.3,0,.7,-.1,1.1,-.4c.3,-.2,.7,-.7,.9,-1.3c.3,-.6,.5,-1.2,.5,-1.8c0,-.4,-.1,-.7,-.3,-.9c-.2,-.2,-.4,-.3,-.7,-.3c-.3,0,-.7,.2,-1,.5c-.4,.3,-.6,.7,-.8,1.2Zm2.3,-8l-1.1,4.1c.3,-.4,.7,-.7,1,-.8c.2,-.2,.5,-.3,.9,-.3c.4,0,.8,.2,1,.5c.3,.3,.4,.7,.4,1.2c0,.6,-.1,1.2,-.5,1.9c-.4,.6,-.8,1.1,-1.4,1.5c-.5,.3,-1.1,.5,-1.6,.5c-.6,0,-1.2,-.2,-1.9,-.7l1.8,-6.2c.2,-.5,.3,-.8,.3,-.9c0,-.1,-.1,-.2,-.1,-.2c-.1,-.1,-.3,-.1,-.4,-.1c-.1,0,-.3,0,-.4,0v-.2Z" class="g5_85"/>
<path fill-rule="evenodd" d="M305.6,429.5c.4,.2,.8,.4,1.1,.4c.3,0,.7,-.2,1.1,-.4c.4,-.3,.7,-.7,1,-1.3c.2,-.6,.4,-1.3,.4,-1.9c0,-.3,-.1,-.6,-.3,-.8c-.2,-.2,-.4,-.3,-.6,-.3c-.4,0,-.8,.1,-1.1,.4c-.4,.3,-.6,.7,-.8,1.2Zm2.3,-8l-1.1,4.1c.4,-.4,.7,-.6,1,-.8c.3,-.1,.6,-.2,.9,-.2c.4,0,.8,.1,1,.4c.3,.3,.5,.7,.5,1.2c0,.6,-.2,1.3,-.6,1.9c-.4,.7,-.8,1.1,-1.4,1.5c-.5,.4,-1.1,.5,-1.6,.5c-.6,0,-1.2,-.2,-1.9,-.6l1.9,-6.3c.1,-.5,.2,-.8,.2,-.8c0,-.1,-.1,-.2,-.1,-.3c-.1,0,-.3,-.1,-.4,-.1c-.1,0,-.2,0,-.4,.1v-.3Z" class="g5_85"/>
<path d="M334,452.3c-4.5,-4.7,-8.4,-4.2,-12.4,0M230.3,425.4c5.5,3.4,9.1,1.9,11.9,-3.2" class="g7_85"/>
<path fill-rule="evenodd" d="M236,423.3c.4,0,.9,-.3,.9,-.8c0,-.5,-.4,-1,-.9,-1c-.5,0,-.9,.4,-.9,.9c0,.5,.4,.9,.9,.9Z" class="g5_85"/>
<path fill-rule="evenodd" d="M328,452.8c-.5,-.1,-1,.2,-1.1,.6c-.2,.5,.1,1,.5,1.2c.5,.1,1,-.2,1.2,-.6c.1,-.5,-.1,-1,-.6,-1.2Z" class="g5_85"/>
<path fill-rule="evenodd" d="M339.6,454.8l-2.7,9.1c-.2,.7,-.3,1.1,-.3,1.3c0,.1,.1,.2,.1,.3c.1,.1,.2,.1,.3,.1c.2,.1,.4,.1,.7,.1c1,0,1.9,-.1,2.7,-.3c.8,-.2,1.4,-.4,1.9,-.8c.8,-.6,1.3,-1.3,1.8,-2.3c.4,-1,.6,-2.1,.6,-3.3c0,-1.4,-.3,-2.5,-1,-3.2c-.6,-.7,-1.6,-1,-2.9,-1c-.3,0,-.7,0,-1.2,0m-3.2,-.3l.1,-.3h3.9c1.6,0,2.8,.2,3.6,.5c.8,.4,1.5,1,1.9,1.8c.5,.8,.7,1.7,.7,2.6c0,.8,-.1,1.6,-.4,2.3c-.3,.8,-.6,1.4,-.9,1.8c-.3,.5,-.9,1,-1.6,1.5c-.7,.6,-1.5,1,-2.3,1.2c-.8,.3,-1.9,.4,-3.1,.4h-5.1l.1,-.3c.5,0,.8,-.1,.9,-.1c.3,-.1,.4,-.3,.6,-.5c.1,-.2,.3,-.7,.5,-1.5l2.2,-7.3c.2,-.6,.2,-1,.2,-1.4c0,-.2,0,-.4,-.2,-.5c-.2,-.1,-.5,-.2,-.9,-.2Z" class="g5_85"/>
<path fill-rule="evenodd" d="M213.2,415.4c.7,.1,1.2,.1,1.5,.1c1,0,1.8,-.2,2.5,-.8c.7,-.6,1.1,-1.3,1.1,-2.3c0,-.7,-.2,-1.3,-.7,-1.7c-.4,-.4,-1.2,-.6,-2.1,-.6c-.2,0,-.5,0,-.7,0Zm1.8,-6c.4,.1,.6,.1,.8,.1c1.3,0,2.2,-.3,2.8,-.9c.6,-.5,.9,-1.2,.9,-2c0,-.6,-.2,-1.1,-.6,-1.4c-.3,-.4,-.9,-.5,-1.7,-.5c-.3,0,-.5,0,-.9,.1Zm-1.8,-5l.1,-.3h4.3c.7,0,1.4,.1,2,.3c.5,.2,1,.6,1.2,1c.3,.4,.5,.8,.5,1.2c0,.7,-.3,1.4,-.8,1.9c-.5,.6,-1.3,1,-2.5,1.3c.8,.3,1.3,.6,1.7,1.1c.3,.4,.5,.9,.5,1.5c0,.6,-.2,1.2,-.5,1.7c-.3,.6,-.7,1,-1.2,1.3c-.5,.3,-1.1,.5,-1.7,.7c-.5,.1,-1.3,.1,-2.3,.1H210l.1,-.3c.5,0,.8,-.1,1,-.2c.2,-.1,.4,-.2,.5,-.4c.1,-.2,.3,-.7,.6,-1.5l2.1,-7.4c.2,-.6,.3,-1,.3,-1.3c0,-.2,-.1,-.4,-.2,-.5c-.2,-.1,-.5,-.2,-1,-.2c-.1,0,-.2,0,-.2,0Z" class="g5_85"/>
<g clip-path="url(#c1_85)">
<path fill-rule="evenodd" d="M234.8,392.6l-2.7,9.1c-.2,.7,-.3,1.1,-.3,1.2c0,.1,.1,.2,.1,.3c.1,.1,.2,.2,.3,.2c.1,.1,.4,.1,.7,.1c1,0,1.8,-.1,2.6,-.3c.8,-.2,1.5,-.5,2,-.9c.7,-.5,1.3,-1.3,1.8,-2.3c.4,-.9,.6,-2,.6,-3.3c0,-1.4,-.3,-2.4,-1,-3.1c-.7,-.7,-1.6,-1,-2.9,-1c-.3,0,-.7,0,-1.2,0m-3.2,-.3l.1,-.4h3.9c1.6,0,2.8,.2,3.6,.6c.8,.4,1.4,1,1.9,1.8c.5,.8,.7,1.6,.7,2.6c0,.8,-.1,1.5,-.4,2.3c-.3,.7,-.6,1.3,-.9,1.8c-.4,.4,-.9,.9,-1.6,1.5c-.7,.5,-1.5,.9,-2.3,1.2c-.8,.2,-1.9,.4,-3.1,.4h-5.2l.2,-.4c.4,0,.8,0,.9,-.1c.3,-.1,.4,-.2,.5,-.4c.2,-.3,.4,-.8,.6,-1.5l2.2,-7.4c.1,-.5,.2,-1,.2,-1.3c0,-.2,-.1,-.4,-.2,-.6c-.2,-.1,-.5,-.1,-.9,-.1Z" class="g5_85"/>
<path fill-rule="evenodd" d="M194.8,467.9l-3.5,4.8h3Zm1.8,-3l-1,10.1c0,.5,0,.8,0,1c0,.2,0,.4,.1,.5c.1,.2,.3,.3,.5,.4c.2,.1,.5,.1,.9,.1l-.1,.4h-4.7l.1,-.4h.2c.4,0,.7,-.1,.9,-.2c.2,-.1,.3,-.3,.4,-.6c.1,-.2,.1,-.6,.2,-1.3l.2,-1.5h-3.5l-1.3,1.6c-.2,.4,-.4,.7,-.5,.9c-.1,.1,-.1,.3,-.1,.4c0,.2,.1,.4,.2,.5c.2,.1,.5,.2,.8,.2l-.1,.4h-3.6l.1,-.4c.5,0,.8,-.1,1.2,-.4c.3,-.3,.8,-.9,1.5,-1.8l7.2,-9.9Z" class="g5_85"/>
<path fill-rule="evenodd" d="M327.1,479.9c.6,.1,1.1,.1,1.5,.1c.9,0,1.7,-.2,2.5,-.8c.7,-.6,1,-1.3,1,-2.3c0,-.7,-.2,-1.3,-.6,-1.7c-.5,-.4,-1.2,-.6,-2.2,-.6c-.2,0,-.4,0,-.7,0Zm1.7,-6c.4,.1,.7,.1,.9,.1c1.2,0,2.1,-.3,2.8,-.8c.6,-.6,.9,-1.3,.9,-2.1c0,-.6,-.2,-1.1,-.6,-1.4c-.4,-.4,-1,-.5,-1.8,-.5c-.2,0,-.5,0,-.8,.1Zm-1.8,-5l.2,-.3h4.3c.7,0,1.4,.1,1.9,.3c.6,.2,1,.6,1.3,1c.3,.4,.4,.8,.4,1.3c0,.7,-.2,1.3,-.7,1.8c-.5,.6,-1.4,1,-2.5,1.3c.7,.3,1.3,.6,1.6,1.1c.4,.4,.6,.9,.6,1.5c0,.6,-.2,1.2,-.5,1.7c-.3,.6,-.7,1,-1.2,1.3c-.5,.3,-1.1,.5,-1.8,.7c-.5,.1,-1.2,.1,-2.3,.1h-4.4l.1,-.3c.5,0,.8,-.1,1,-.2c.2,-.1,.4,-.2,.5,-.4c.1,-.2,.3,-.7,.5,-1.5l2.2,-7.4c.2,-.6,.3,-1,.3,-1.3c0,-.2,-.1,-.4,-.3,-.5c-.1,-.1,-.4,-.2,-.9,-.2c-.1,0,-.2,0,-.3,0Z" class="g5_85"/>
</g>
<path fill-rule="evenodd" d="M380.7,394.4l-.9,4h-.3v-1c0,-.4,-.1,-.7,-.2,-1c-.1,-.3,-.3,-.5,-.5,-.7c-.2,-.2,-.5,-.4,-.8,-.5c-.3,-.1,-.7,-.2,-1.1,-.2c-1.1,0,-2,.3,-2.8,.9c-1,.8,-1.8,1.8,-2.4,3.2c-.5,1.1,-.7,2.2,-.7,3.4c0,1.2,.3,2.1,1,2.8c.7,.7,1.6,1,2.7,1c.8,0,1.5,-.1,2.2,-.5c.6,-.4,1.2,-1,1.8,-1.7h.4c-.6,1,-1.4,1.8,-2.2,2.3c-.8,.5,-1.7,.7,-2.8,.7c-1,0,-1.9,-.2,-2.7,-.6c-.7,-.4,-1.3,-1,-1.7,-1.8c-.4,-.7,-.6,-1.5,-.6,-2.4c0,-1.3,.3,-2.6,1,-3.8c.8,-1.3,1.7,-2.3,3,-3c1.2,-.7,2.5,-1.1,3.7,-1.1c.6,0,1.3,.2,2,.4c.3,.2,.6,.2,.7,.2c.1,0,.3,0,.4,-.1c.1,0,.3,-.2,.5,-.5Z" class="g5_85"/>
<path fill-rule="evenodd" d="M353.3,468.3l-.6,1.5h-4.8v-.2c1.4,-1.3,2.4,-2.3,3,-3.1c.6,-.8,.8,-1.6,.8,-2.3c0,-.5,-.1,-.9,-.4,-1.2c-.3,-.4,-.7,-.5,-1.2,-.5c-.4,0,-.7,.1,-1,.3c-.3,.3,-.6,.6,-.7,1h-.2c0,-.7,.3,-1.2,.7,-1.6c.4,-.4,.9,-.6,1.6,-.6c.6,0,1.2,.2,1.6,.6c.4,.4,.7,.9,.7,1.5c0,.4,-.1,.8,-.3,1.2c-.3,.7,-.8,1.3,-1.5,2.1c-.9,1,-1.6,1.7,-1.8,1.9h2.1c.4,0,.7,0,.9,0c.2,-.1,.3,-.1,.5,-.2c.1,-.1,.2,-.3,.3,-.4Z" class="g5_85"/>
<path fill-rule="evenodd" d="M227.7,418.2l-.6,1.5h-4.8v-.2c1.4,-1.3,2.4,-2.3,3,-3.1c.6,-.9,.9,-1.6,.9,-2.3c0,-.5,-.2,-.9,-.5,-1.2c-.3,-.4,-.7,-.5,-1.1,-.5c-.4,0,-.8,.1,-1.1,.3c-.3,.3,-.6,.6,-.7,1h-.2c.1,-.7,.3,-1.3,.7,-1.6c.5,-.4,1,-.6,1.6,-.6c.6,0,1.2,.2,1.6,.6c.5,.4,.7,.9,.7,1.5c0,.4,-.1,.8,-.3,1.2c-.3,.7,-.8,1.3,-1.4,2.1c-1,1,-1.6,1.7,-1.9,1.9h2.1c.5,0,.8,0,.9,0c.2,-.1,.4,-.1,.5,-.2c.1,-.1,.3,-.3,.4,-.4Z" class="g5_85"/>
<path fill-rule="evenodd" d="M207.3,443.5c.6,.3,1.1,.4,1.6,.4c.5,0,1,-.1,1.6,-.5c.6,-.4,1.1,-1.1,1.5,-2c.4,-.9,.6,-1.8,.6,-2.7c0,-.6,-.1,-1,-.4,-1.3c-.3,-.3,-.6,-.5,-1,-.5c-.5,0,-1.1,.2,-1.6,.7c-.5,.4,-.9,1,-1.1,1.8Zm3.5,-12.1l-1.8,6.2c.6,-.6,1.1,-1,1.5,-1.2c.4,-.2,.9,-.3,1.3,-.3c.7,0,1.2,.2,1.7,.6c.4,.4,.6,1,.6,1.8c0,.9,-.3,1.9,-.8,2.8c-.6,1,-1.3,1.7,-2.1,2.3c-.8,.5,-1.7,.8,-2.5,.8c-.9,0,-1.8,-.4,-2.7,-1l2.7,-9.4c.2,-.7,.3,-1.2,.3,-1.3c0,-.1,-.1,-.3,-.1,-.3c-.2,-.1,-.4,-.2,-.7,-.2c-.1,0,-.3,0,-.5,.1v-.4Z" class="g5_85"/>
<path fill-rule="evenodd" d="M354.6,439.1c.6,.3,1.1,.5,1.6,.5c.5,0,1,-.2,1.6,-.6c.6,-.4,1.1,-1,1.5,-1.9c.4,-.9,.6,-1.9,.6,-2.8c0,-.6,-.1,-1,-.4,-1.3c-.3,-.3,-.6,-.5,-1,-.5c-.5,0,-1.1,.3,-1.6,.7c-.5,.5,-.9,1.1,-1.1,1.9Zm3.5,-12l-1.8,6.2c.6,-.6,1.1,-1.1,1.5,-1.3c.4,-.2,.9,-.3,1.3,-.3c.7,0,1.2,.2,1.7,.6c.4,.5,.6,1.1,.6,1.8c0,1,-.3,1.9,-.8,2.9c-.6,.9,-1.3,1.7,-2.1,2.2c-.8,.5,-1.7,.8,-2.5,.8c-.9,0,-1.8,-.3,-2.7,-1l2.7,-9.4c.2,-.7,.3,-1.1,.3,-1.2c0,-.2,-.1,-.3,-.1,-.4c-.2,-.1,-.4,-.2,-.7,-.2c-.1,0,-.3,.1,-.5,.1v-.3Z" class="g5_85"/>
<path d="M244.6,403.1l75.6,69" class="g4_85"/>
<path d="M245.7,403.1l84.5,55.6M234.9,417.1l84.5,55.6" class="g8_85"/>
<path d="M186.3,618.2H837.4V506.7H186.3V618.2Z" class="g9_85"/>
<path d="M73.8,638.1H836" class="ga_85"/>
<path d="M185.1,1078.3H835.8V813.9H185.1v264.4Z" class="gb_85"/>
<path d="M73.6,813.5H835.8" class="ga_85"/>
<path d="M137.4,544.4h39.7V506.9H137.4v37.5Z" class="gc_85"/>
<path d="M635.5,587.4H738.4M757,539.9H654.4m-.6,.1v47.2" class="gd_85"/>
<path d="M738,587l18.6,-47m-13.3,35.1l-88.8,-35" class="ge_85"/>
<path d="M647.4,587.2c-.2,-6.4,6.4,-6,6.4,-6" class="gf_85"/>
<path d="M651.3,585.3c.3,0,.4,-.2,.4,-.4c0,-.2,-.1,-.3,-.4,-.3c-.2,0,-.3,.1,-.3,.3c0,.2,.1,.4,.3,.4Z" class="g1_85"/>
<path d="M736.2,571.4c2.9,-5.7,8.5,-2.2,8.5,-2.2" class="gf_85"/>
<path d="M740.5,571.6c.2,0,.4,-.2,.4,-.4c0,-.2,-.2,-.4,-.4,-.4c-.2,0,-.4,.2,-.4,.4c0,.2,.2,.4,.4,.4Z" class="g1_85"/>
<path d="M635.4,587.6L654.1,540" class="ge_85"/>
</svg>