<?xml version="1.0" encoding="UTF-8" standalone="no"?>
<!DOCTYPE svg PUBLIC "-//W3C//DTD SVG 1.1//EN"
"http://www.w3.org/Graphics/SVG/1.1/DTD/svg11.dtd">
<svg viewBox="0 0 909 1147" version="1.1" xmlns="http://www.w3.org/2000/svg" xmlns:xlink="http://www.w3.org/1999/xlink">
<defs>
<clipPath id="c0_74"><path d="M633.5,324.2V218.4h200V324.2Z"/></clipPath>
<clipPath id="c1_74"><path d="M142.1,965V947h30.2v18Z"/></clipPath>
<clipPath id="c2_74"><path d="M203.3,629.4V503.7H329.2V629.4Z"/></clipPath>
<clipPath id="c3_74"><path d="M649.9,628.3V502.9H789.3V628.3Z"/></clipPath>
<style type="text/css"><![CDATA[
.g0_74{
fill: #B6D774;
}
.g1_74{
fill: none;
stroke: #000;
stroke-width: 0.763;
}
.g2_74{
fill: none;
stroke: #000;
stroke-width: 0.763;
stroke-miterlimit: 2;
}
.g3_74{
fill: #000;
}
.g4_74{
fill: none;
stroke: #000;
stroke-width: 0.763;
stroke-miterlimit: 2;
stroke-dasharray: 4,3;
}
.g5_74{
fill: none;
stroke: #0EA5DF;
stroke-width: 3.055;
}
.g6_74{
fill: #FFF1E0;
}
.g7_74{
fill: #0EA5DF;
}
.g8_74{
fill: #FFF;
}
.g9_74{
fill: none;
stroke: #8ED8F8;
stroke-width: 0.763;
stroke-miterlimit: 2;
}
.ga_74{
fill: none;
stroke: #000;
stroke-width: 1.069;
stroke-miterlimit: 2;
}
]]></style>
</defs>
<path d="M0,1131H73.8v-51.5H0V1131Z" class="g0_74"/>
<path d="M460.2,795.1h11.4m232.6,0h11.3M458.2,832.9h11.4" class="g1_74"/>
<path d="M306.5,318.6c-7.1,4,-6.8,7.4,-5.2,12.4" class="g2_74"/>
<path fill-rule="evenodd" d="M304.8,324.3c-.5,.4,-.5,1.1,-.1,1.5c.4,.4,1.1,.4,1.5,0c.4,-.4,.4,-1.1,0,-1.5c-.4,-.4,-1,-.4,-1.4,0Z" class="g3_74"/>
<path fill-rule="evenodd" d="M194.9,367.3l-1,10.1c0,.5,0,.8,0,.9c0,.3,0,.5,.1,.6c.1,.2,.3,.3,.5,.4c.1,0,.5,.1,.9,.1l-.1,.3h-4.7l.1,-.3h.2c.3,0,.7,-.1,.9,-.3c.2,-.1,.3,-.3,.4,-.5c.1,-.2,.1,-.6,.2,-1.3l.1,-1.6h-3.4l-1.3,1.7c-.2,.4,-.4,.6,-.5,.8c-.1,.2,-.1,.3,-.1,.5c0,.2,.1,.3,.2,.5c.2,.1,.4,.2,.8,.2l-.1,.3h-3.6l.1,-.3c.5,0,.8,-.2,1.2,-.5c.3,-.2,.8,-.8,1.5,-1.7l7.2,-9.9Zm-1.8,3l-3.5,4.8h3Z" class="g3_74"/>
<path fill-rule="evenodd" d="M334.8,365.8l.1,-.4h4.4c.7,0,1.3,.1,1.9,.4c.6,.2,1,.5,1.3,.9c.3,.4,.4,.9,.4,1.3c0,.7,-.2,1.3,-.7,1.9c-.5,.6,-1.4,1,-2.5,1.3c.7,.2,1.3,.6,1.6,1c.4,.5,.5,1,.5,1.5c0,.6,-.1,1.2,-.4,1.8c-.3,.5,-.7,.9,-1.2,1.2c-.5,.4,-1.1,.6,-1.8,.7c-.5,.1,-1.2,.2,-2.3,.2h-4.4l.1,-.4c.5,0,.8,0,.9,-.1c.3,-.1,.4,-.2,.5,-.4c.2,-.2,.4,-.7,.6,-1.6l2.2,-7.3c.2,-.6,.3,-1.1,.3,-1.3c0,-.2,-.1,-.4,-.3,-.5c-.1,-.2,-.4,-.2,-.9,-.2c-.1,0,-.2,0,-.3,0m1.8,5c.4,0,.7,0,.9,0c1.2,0,2.1,-.2,2.7,-.8c.6,-.5,.9,-1.2,.9,-2c0,-.6,-.1,-1.1,-.5,-1.4c-.4,-.4,-1,-.6,-1.8,-.6c-.2,0,-.5,.1,-.8,.1Zm-1.7,6c.6,.1,1.1,.1,1.5,.1c.9,0,1.7,-.3,2.4,-.8c.8,-.6,1.1,-1.4,1.1,-2.3c0,-.7,-.2,-1.3,-.6,-1.7c-.5,-.4,-1.2,-.6,-2.2,-.6c-.2,0,-.4,0,-.7,0Z" class="g3_74"/>
<path fill-rule="evenodd" d="M284.9,222.3l-.9,4h-.3l-.1,-1c0,-.4,-.1,-.7,-.2,-1c-.1,-.3,-.3,-.5,-.5,-.7c-.2,-.2,-.5,-.4,-.8,-.5c-.3,-.1,-.7,-.2,-1.1,-.2c-1,0,-2,.3,-2.8,.9c-1,.8,-1.8,1.8,-2.4,3.2c-.5,1.1,-.7,2.2,-.7,3.4c0,1.2,.4,2.1,1,2.8c.7,.7,1.6,1,2.7,1c.8,0,1.6,-.1,2.2,-.5c.7,-.4,1.3,-.9,1.8,-1.7h.5c-.7,1,-1.4,1.8,-2.2,2.3c-.8,.5,-1.8,.7,-2.9,.7c-1,0,-1.9,-.2,-2.6,-.6c-.8,-.4,-1.4,-1,-1.8,-1.8c-.4,-.7,-.6,-1.5,-.6,-2.4c0,-1.3,.4,-2.6,1.1,-3.8c.7,-1.3,1.7,-2.3,2.9,-3c1.2,-.7,2.5,-1.1,3.8,-1.1c.5,0,1.2,.2,1.9,.4c.4,.2,.6,.2,.7,.2c.2,0,.3,0,.4,-.1c.1,0,.3,-.2,.6,-.5Z" class="g3_74"/>
<path d="M203.1,369.8l72,-132.6L327,369.8H203.1Z" class="g2_74"/>
<path d="M203.2,369.7l108,-42.2" class="g4_74"/>
<path fill-rule="evenodd" d="M268.4,328.6l-.7,1.5h-3.6l-.8,1.6c1.6,.3,2.8,.9,3.7,1.8c.8,.8,1.2,1.8,1.2,2.9c0,.6,-.1,1.2,-.3,1.7c-.3,.6,-.6,1,-1,1.4c-.4,.4,-.9,.7,-1.3,1c-.7,.3,-1.4,.4,-2.2,.4c-.7,0,-1.2,-.1,-1.5,-.3c-.4,-.3,-.5,-.5,-.5,-.8c0,-.2,0,-.4,.2,-.5c.1,-.1,.3,-.2,.5,-.2c.1,0,.3,0,.4,.1c.1,0,.3,.2,.6,.4c.4,.3,.9,.4,1.3,.4c.7,0,1.4,-.2,1.9,-.8c.5,-.5,.8,-1.1,.8,-1.9c0,-.7,-.3,-1.4,-.7,-2.1c-.5,-.6,-1.2,-1.1,-2,-1.4c-.6,-.3,-1.5,-.4,-2.6,-.5l2.3,-4.7Z" class="g3_74"/>
<path fill-rule="evenodd" d="M342.7,293.1c-1,-.8,-1.6,-1.4,-1.9,-1.9c-.2,-.5,-.4,-.9,-.4,-1.5c0,-.8,.3,-1.4,.9,-2c.6,-.6,1.5,-.9,2.5,-.9c.9,0,1.7,.3,2.3,.8c.6,.6,.9,1.2,.9,1.9c0,.4,-.1,.9,-.5,1.3c-.3,.5,-1,1.1,-2,1.7c1.1,.8,1.8,1.5,2.1,1.9c.5,.6,.7,1.3,.7,2c0,.8,-.3,1.5,-1,2.1c-.6,.6,-1.5,.9,-2.5,.9c-1.2,0,-2.1,-.3,-2.7,-1c-.6,-.6,-.8,-1.2,-.8,-1.9c0,-.6,.2,-1.1,.5,-1.6c.4,-.6,1,-1.1,1.9,-1.8m1.4,-.9c.7,-.7,1.2,-1.2,1.4,-1.6c.2,-.3,.2,-.8,.2,-1.2c0,-.7,-.1,-1.1,-.5,-1.5c-.3,-.4,-.8,-.5,-1.4,-.5c-.6,0,-1.1,.1,-1.5,.5c-.4,.3,-.6,.8,-.6,1.2c0,.3,.1,.6,.3,1c.1,.3,.3,.6,.6,.8Zm-1,1.3c-.5,.4,-.8,.8,-1.1,1.3c-.2,.5,-.3,1.1,-.3,1.6c0,.8,.2,1.4,.6,1.9c.4,.4,.9,.7,1.6,.7c.6,0,1.2,-.2,1.5,-.6c.4,-.3,.6,-.8,.6,-1.3c0,-.4,-.1,-.8,-.3,-1.2c-.4,-.6,-1.3,-1.4,-2.6,-2.4Z" class="g3_74"/>
<path fill-rule="evenodd" d="M349.6,346.9l-.8,.4l4,10c.2,.6,.4,1.1,.5,1.6c.1,.5,.2,1,.1,1.4c-.1,.3,-.2,.5,-.3,.8c-.1,.2,-.2,.5,-.4,.6c-.1,.2,-.3,.4,-.4,.6c-.2,.1,-.4,.2,-.5,.3l.1,.4c.7,-.4,1.2,-.9,1.6,-1.3c.3,-.4,.6,-.9,.7,-1.4c.1,-.6,.1,-1.1,-.1,-1.7c-.1,-.5,-.3,-1.1,-.5,-1.6Zm-5.9,-14.8l-.8,.3l5.9,14.9l.8,-.4Zm-5.8,-14.7l-.8,.3l5.9,14.9l.8,-.3Zm-5.8,-14.7l-.8,.4l5.9,14.8l.8,-.3ZM326.2,288l-.8,.3l1.4,3.5c.2,.4,.4,.8,.5,1c.2,.3,.4,.6,.6,.8c.1,.1,.3,.3,.5,.4c.1,.1,.3,.2,.4,.3c.2,.1,.4,.2,.6,.2c.2,.1,.3,.1,.5,.2c.2,0,.4,0,.6,0c.3,0,.6,-.1,.9,-.1c-.2,.3,-.5,.5,-.7,.6c-.1,.2,-.3,.3,-.4,.5c-.1,.1,-.2,.2,-.3,.4c-.1,.2,-.2,.3,-.2,.6c-.1,.1,-.1,.3,-.2,.5c0,.2,0,.4,0,.7c0,.2,0,.5,.1,.8c0,.4,.1,.7,.3,1.1l1.4,3.5l.8,-.3l-1.5,-3.7c-.1,-.1,-.1,-.3,-.2,-.5c0,-.3,0,-.5,-.1,-.7c0,-.2,0,-.4,0,-.6c0,-.2,0,-.3,0,-.5c.1,-.5,.3,-.9,.6,-1.3c.3,-.4,.7,-.7,1,-1l-.2,-.5c-.4,0,-.9,0,-1.4,-.1c-.5,0,-.9,-.2,-1.3,-.5c-.1,-.1,-.3,-.2,-.4,-.4c-.1,-.1,-.3,-.3,-.4,-.4c-.1,-.2,-.2,-.4,-.3,-.6c-.2,-.2,-.2,-.3,-.3,-.5Zm-5.9,-14.9l-.8,.4l5.9,14.8l.8,-.3Zm-5.8,-14.6l-.8,.3l5.9,14.9l.8,-.3Zm-5.8,-14.7l-.8,.3l5.9,14.9l.8,-.3Zm-9.2,-13l.2,.4c.2,-.1,.4,-.1,.6,-.1c.2,0,.4,0,.7,.1c.2,0,.5,.1,.7,.2c.3,.1,.5,.2,.8,.4c.3,.2,.6,.6,.8,1c.3,.5,.5,1,.8,1.6l3.9,9.9l.8,-.3l-4,-9.9c-.2,-.6,-.4,-1.1,-.7,-1.6c-.2,-.5,-.6,-.9,-1.1,-1.3c-.4,-.3,-.9,-.5,-1.5,-.5c-.5,-.1,-1.2,0,-2,.1Z" class="g3_74"/>
<path fill-rule="evenodd" d="M327.9,316.9l-1,10.1c0,.5,0,.8,0,.9c0,.3,0,.4,.1,.6c.1,.1,.3,.3,.5,.4c.2,0,.5,.1,1,.1l-.1,.3h-4.8l.1,-.3h.2c.4,0,.7,-.1,.9,-.3c.2,-.1,.3,-.3,.4,-.5c.1,-.2,.2,-.7,.2,-1.3l.2,-1.6h-3.5l-1.2,1.7c-.3,.4,-.5,.6,-.6,.8c0,.2,-.1,.3,-.1,.5c0,.2,.1,.3,.2,.5c.2,.1,.5,.2,.8,.2l-.1,.3h-3.6l.1,-.3c.5,0,.9,-.2,1.2,-.5c.3,-.2,.8,-.8,1.5,-1.7l7.3,-9.9Zm-1.8,3l-3.5,4.8h3Z" class="g3_74"/>
<path fill-rule="evenodd" d="M332.6,325.5l2,-.9h.2v6.8c0,.5,0,.7,0,.8q.1,.2,.3,.3c.1,.1,.3,.1,.7,.1v.2h-3.1v-.2c.4,0,.7,0,.8,-.1c.1,-.1,.2,-.1,.2,-.2c.1,-.1,.1,-.4,.1,-.9V327c0,-.6,0,-.9,-.1,-1.1c0,-.1,0,-.2,-.1,-.3c-.1,0,-.2,-.1,-.3,-.1c-.1,0,-.3,.1,-.6,.2Z" class="g3_74"/>
<path d="M483.9,297.2c8.2,.1,9.5,3.2,10.6,8.3" class="g2_74"/>
<path fill-rule="evenodd" d="M489,301c.4,.4,.4,1.1,0,1.5c-.4,.4,-1,.4,-1.5,0c-.4,-.4,-.4,-1,0,-1.5c.4,-.4,1.1,-.4,1.5,0Z" class="g3_74"/>
<path fill-rule="evenodd" d="M418.4,300.9l-.9,10.1c-.1,.5,-.1,.8,-.1,1c0,.2,0,.4,.1,.5c.1,.2,.3,.3,.5,.4c.2,.1,.5,.1,1,.1l-.1,.4h-4.8l.1,-.4h.2c.4,0,.7,-.1,.9,-.2c.2,-.1,.3,-.3,.4,-.6c.1,-.2,.2,-.6,.2,-1.3l.2,-1.5h-3.5l-1.2,1.6c-.3,.4,-.5,.7,-.6,.8c0,.2,-.1,.4,-.1,.5c0,.2,.1,.4,.3,.5c.1,.1,.4,.2,.7,.2l-.1,.4H408l.1,-.4c.5,0,.9,-.1,1.2,-.4c.3,-.3,.8,-.9,1.5,-1.8l7.3,-9.9Zm-1.8,3l-3.5,4.8h3Z" class="g3_74"/>
<path fill-rule="evenodd" d="M605.6,303l.1,-.4H610c.7,0,1.4,.2,2,.4c.5,.2,1,.5,1.2,.9c.3,.4,.5,.9,.5,1.3c0,.7,-.3,1.4,-.8,1.9c-.5,.6,-1.3,1,-2.5,1.3c.8,.2,1.3,.6,1.7,1.1c.3,.4,.5,.9,.5,1.5c0,.6,-.2,1.1,-.5,1.7c-.3,.5,-.7,1,-1.2,1.3c-.5,.3,-1.1,.5,-1.7,.6c-.5,.1,-1.3,.2,-2.3,.2h-4.5l.1,-.3c.5,-.1,.8,-.1,1,-.2c.2,-.1,.4,-.2,.5,-.4c.1,-.2,.3,-.7,.6,-1.5l2.1,-7.4c.2,-.6,.3,-1,.3,-1.3c0,-.2,-.1,-.4,-.2,-.5c-.2,-.2,-.5,-.2,-1,-.2c-.1,0,-.2,0,-.2,0m1.8,5c.4,0,.6,0,.8,0c1.3,0,2.2,-.2,2.8,-.8c.6,-.5,.9,-1.2,.9,-2c0,-.6,-.2,-1.1,-.6,-1.4c-.3,-.4,-.9,-.6,-1.7,-.6c-.2,0,-.5,.1,-.9,.2Zm-1.8,6c.7,.1,1.2,.1,1.5,.1c1,0,1.8,-.3,2.5,-.8c.7,-.6,1.1,-1.3,1.1,-2.3c0,-.7,-.2,-1.3,-.7,-1.7c-.4,-.4,-1.2,-.6,-2.1,-.6c-.2,0,-.5,0,-.7,0Z" class="g3_74"/>
<path fill-rule="evenodd" d="M489.8,222.5l-.9,3.9h-.3v-1c-.1,-.3,-.1,-.6,-.3,-.9c-.1,-.3,-.2,-.5,-.4,-.7c-.3,-.3,-.5,-.4,-.9,-.5c-.3,-.1,-.6,-.2,-1,-.2c-1.1,0,-2,.3,-2.8,.9c-1.1,.7,-1.9,1.8,-2.4,3.1c-.5,1.2,-.8,2.3,-.8,3.4c0,1.2,.4,2.2,1.1,2.9c.7,.7,1.5,1,2.6,1c.9,0,1.6,-.2,2.3,-.5c.6,-.4,1.2,-1,1.8,-1.8h.4c-.7,1.1,-1.4,1.9,-2.2,2.4c-.8,.4,-1.8,.7,-2.9,.7c-1,0,-1.8,-.2,-2.6,-.6c-.8,-.4,-1.4,-1,-1.7,-1.8c-.5,-.7,-.7,-1.5,-.7,-2.4c0,-1.3,.4,-2.6,1.1,-3.9c.7,-1.2,1.7,-2.2,2.9,-2.9c1.3,-.7,2.5,-1.1,3.8,-1.1c.6,0,1.2,.1,2,.4c.3,.1,.5,.2,.7,.2c.1,0,.2,0,.3,-.1c.2,-.1,.3,-.2,.6,-.5Z" class="g3_74"/>
<path d="M426.6,305.8l57.2,-67l116.3,67H426.6Z" class="g2_74"/>
<path d="M483.8,305.8V238.6" class="g4_74"/>
<path fill-rule="evenodd" d="M506.5,343.5l3,-1.4h.3v10.3c0,.6,0,1.1,.1,1.2c0,.2,.1,.3,.3,.4c.2,.1,.6,.1,1.1,.2v.3h-4.6v-.3c.6,-.1,1,-.1,1.2,-.2c.1,-.1,.2,-.2,.3,-.3c.1,-.2,.1,-.6,.1,-1.3v-6.6c0,-.9,0,-1.5,-.1,-1.7c0,-.2,-.1,-.3,-.2,-.4c-.1,-.1,-.3,-.2,-.4,-.2c-.2,0,-.5,.1,-.9,.3Z" class="g3_74"/>
<path fill-rule="evenodd" d="M514.2,348.5c0,-1.4,.2,-2.6,.6,-3.6c.5,-1,1,-1.7,1.7,-2.2c.5,-.4,1.1,-.6,1.7,-.6c.9,0,1.7,.5,2.5,1.4c.9,1.2,1.4,2.8,1.4,4.8c0,1.4,-.2,2.6,-.7,3.6c-.4,1,-.9,1.7,-1.5,2.1c-.6,.5,-1.2,.7,-1.8,.7c-1.2,0,-2.1,-.7,-2.9,-2c-.7,-1.2,-1,-2.6,-1,-4.2m1.8,.2c0,1.7,.2,3.1,.6,4.1c.3,.9,.8,1.3,1.5,1.3c.3,0,.7,-.1,1,-.4c.4,-.3,.6,-.8,.8,-1.4c.3,-1.1,.4,-2.5,.4,-4.4c0,-1.4,-.1,-2.5,-.4,-3.5c-.2,-.6,-.5,-1.1,-.9,-1.4c-.2,-.2,-.5,-.3,-.8,-.3c-.5,0,-.8,.2,-1.1,.5c-.5,.5,-.8,1.3,-.9,2.4c-.2,1,-.2,2.1,-.2,3.1Z" class="g3_74"/>
<path fill-rule="evenodd" d="M471.7,275.3c.3,-.9,.8,-1.5,1.3,-1.9c.5,-.5,1.2,-.7,2,-.7c.9,0,1.7,.3,2.2,1c.4,.4,.6,.9,.6,1.5c0,.8,-.6,1.8,-1.7,2.7c.8,.3,1.3,.7,1.7,1.3c.4,.5,.6,1.1,.6,1.9c0,1,-.3,1.9,-1,2.7c-.9,1,-2.1,1.5,-3.8,1.5c-.8,0,-1.4,-.1,-1.7,-.3c-.3,-.2,-.4,-.4,-.4,-.6c0,-.2,.1,-.4,.2,-.5c.1,-.1,.3,-.2,.5,-.2c.2,0,.3,0,.5,.1c.1,0,.3,.1,.7,.3c.3,.2,.6,.3,.7,.3c.2,.1,.5,.1,.7,.1c.6,0,1.1,-.2,1.6,-.7c.4,-.4,.7,-1,.7,-1.7c0,-.4,-.1,-.9,-.3,-1.3c-.2,-.4,-.4,-.6,-.6,-.8c-.2,-.2,-.6,-.4,-1,-.6c-.5,-.2,-.9,-.3,-1.4,-.3h-.3v-.3c.5,-.1,1,-.2,1.5,-.5c.4,-.3,.8,-.6,1,-1c.2,-.4,.3,-.8,.3,-1.3c0,-.6,-.2,-1.1,-.6,-1.5c-.4,-.4,-.8,-.6,-1.4,-.6c-.9,0,-1.7,.5,-2.3,1.5Z" class="g3_74"/>
<path fill-rule="evenodd" d="M445.7,332.2v-.8H432.5c-.8,0,-1.5,-.1,-2.1,-.1c-.6,-.1,-1.2,-.2,-1.6,-.5c-.3,-.1,-.6,-.3,-.8,-.5c-.2,-.2,-.4,-.4,-.6,-.6c-.1,-.2,-.2,-.4,-.3,-.6c-.1,-.2,-.2,-.4,-.2,-.6h-.5c.2,.8,.4,1.4,.7,1.9c.3,.5,.8,.9,1.4,1.2c.6,.3,1.2,.5,1.9,.5c.6,.1,1.3,.1,2.1,.1Zm19.6,.1v-.9H445.7v.8Zm19.3,0v-.9H465v.9Zm19.3,0v-.9H484.3v.9Zm19.4,0v-.8h-4.6c-.5,-.1,-1,0,-1.4,0c-.4,.1,-.7,.2,-1,.3c-.3,.1,-.6,.2,-.8,.3c-.2,.1,-.3,.2,-.5,.3c-.2,.1,-.4,.3,-.5,.4c-.2,.2,-.3,.3,-.4,.5c-.1,.1,-.2,.3,-.3,.5c-.1,.3,-.2,.6,-.3,.9c-.2,-.3,-.3,-.6,-.4,-.9c-.1,-.2,-.2,-.4,-.3,-.5c-.1,-.2,-.2,-.3,-.4,-.5c-.1,-.1,-.3,-.3,-.5,-.4c-.2,-.1,-.3,-.2,-.5,-.3c-.2,-.1,-.5,-.2,-.8,-.3c-.3,-.1,-.6,-.2,-1,-.3c-.4,0,-.9,-.1,-1.4,-.1h-4.5v.9h4.7c.3,0,.5,0,.8,0c.2,.1,.5,.1,.7,.2c.3,0,.5,.1,.7,.2c.3,0,.4,.1,.6,.2c.5,.3,1,.6,1.3,1c.2,.5,.5,.9,.6,1.3h.7c.1,-.4,.4,-.8,.7,-1.3c.3,-.4,.7,-.7,1.2,-1c.2,-.1,.4,-.2,.6,-.2c.2,-.1,.4,-.2,.7,-.2c.2,-.1,.5,-.1,.8,-.2c.2,0,.5,0,.7,0Zm19.6,0v-.8H523.3v.8Zm19.3,0v-.8H542.6v.8Zm19.3,.1v-.9H562v.8Zm19,-3.8h-.4c-.1,.2,-.2,.4,-.3,.6c-.1,.2,-.2,.4,-.3,.6c-.2,.2,-.4,.4,-.6,.6c-.2,.2,-.5,.4,-.8,.6c-.5,.2,-1,.3,-1.6,.4c-.6,.1,-1.3,.1,-2.1,.1H581.3v.9h13.1c.8,0,1.5,-.1,2.1,-.1c.7,-.1,1.3,-.3,1.9,-.6c.6,-.3,1.1,-.7,1.4,-1.2c.3,-.4,.5,-1.1,.7,-1.9Z" class="g3_74"/>
<path fill-rule="evenodd" d="M490.9,310.6l-.9,3.9h-.4v-1c0,-.3,-.1,-.6,-.2,-.9c-.1,-.3,-.3,-.5,-.5,-.8c-.2,-.2,-.5,-.3,-.8,-.4c-.3,-.1,-.7,-.2,-1.1,-.2c-1.1,0,-2,.3,-2.8,.9c-1,.7,-1.8,1.8,-2.4,3.1c-.5,1.2,-.7,2.3,-.7,3.4c0,1.2,.3,2.2,1,2.9c.7,.7,1.6,1,2.7,1c.8,0,1.6,-.2,2.2,-.5c.7,-.4,1.3,-1,1.8,-1.8h.4c-.6,1.1,-1.4,1.9,-2.1,2.3c-.8,.5,-1.8,.8,-2.9,.8c-1,0,-1.9,-.2,-2.7,-.6c-.7,-.5,-1.3,-1,-1.7,-1.8c-.4,-.7,-.6,-1.5,-.6,-2.4c0,-1.3,.4,-2.6,1.1,-3.9c.7,-1.2,1.6,-2.2,2.9,-2.9c1.2,-.7,2.5,-1.1,3.7,-1.1c.6,0,1.3,.1,2,.4c.3,.1,.6,.2,.7,.2c.2,0,.3,0,.4,-.1c.1,-.1,.3,-.2,.5,-.5Z" class="g3_74"/>
<path fill-rule="evenodd" d="M492.1,319.2l2,-.9h.2v6.8c0,.4,0,.7,.1,.8c0,.2,.1,.2,.2,.3c.1,.1,.4,.1,.7,.1v.2h-3v-.2c.4,0,.6,0,.7,-.1c.1,-.1,.2,-.1,.3,-.2c0,-.1,0,-.4,0,-.9v-4.4c0,-.6,0,-.9,0,-1.1c-.1,-.1,-.1,-.2,-.2,-.3c-.1,0,-.1,-.1,-.3,-.1c-.1,0,-.3,.1,-.6,.2Z" class="g3_74"/>
<path d="M288.1,813.4l-9.3,6.6c4,4.2,9.1,5.9,15.5,2l-6.2,-8.6Zm.3,-.4l-87.3,60.8m130.1,.4L201,873.9m87.1,-61.1L331,874.4" class="g2_74"/>
<path fill-rule="evenodd" d="M286.2,820.9c-.6,.3,-1.3,.1,-1.6,-.5c-.3,-.5,-.1,-1.2,.4,-1.5c.6,-.3,1.3,-.1,1.6,.4c.3,.6,.1,1.3,-.4,1.6Z" class="g3_74"/>
<path fill-rule="evenodd" d="M195.9,870.4l-.9,10.1c0,.4,-.1,.7,-.1,.9c0,.2,.1,.4,.2,.5c.1,.2,.2,.3,.4,.4c.2,.1,.5,.2,1,.2l-.1,.3h-4.8l.1,-.3h.2c.4,0,.7,-.1,1,-.3c.2,-.1,.3,-.3,.4,-.6c0,-.1,.1,-.6,.2,-1.3l.1,-1.5h-3.5l-1.2,1.7c-.3,.3,-.5,.6,-.5,.8c-.1,.1,-.1,.3,-.1,.4c0,.2,0,.4,.2,.5c.2,.2,.4,.2,.8,.3l-.1,.3h-3.6l.1,-.3c.4,-.1,.8,-.2,1.2,-.5c.3,-.3,.8,-.9,1.5,-1.8l7.2,-9.8Zm-1.7,3l-3.6,4.7h3.1Z" class="g3_74"/>
<path fill-rule="evenodd" d="M336,872.4l.2,-.3h4.3c.7,0,1.4,.1,2,.3c.5,.2,.9,.6,1.2,1c.3,.4,.5,.8,.5,1.3c0,.7,-.3,1.3,-.8,1.9c-.5,.5,-1.3,.9,-2.5,1.2c.8,.3,1.3,.6,1.7,1.1c.3,.4,.5,.9,.5,1.5c0,.6,-.2,1.2,-.5,1.7c-.3,.6,-.7,1,-1.2,1.3c-.5,.3,-1.1,.5,-1.7,.7c-.5,.1,-1.3,.1,-2.3,.1h-4.5l.1,-.3c.5,0,.8,-.1,1,-.1c.2,-.2,.4,-.3,.5,-.5c.1,-.2,.3,-.7,.6,-1.5l2.1,-7.4c.2,-.6,.3,-1,.3,-1.3c0,-.2,-.1,-.4,-.2,-.5c-.2,-.1,-.5,-.2,-1,-.2c-.1,0,-.2,0,-.3,0m1.9,5c.3,.1,.6,.1,.8,.1c1.2,0,2.2,-.3,2.8,-.8c.6,-.6,.9,-1.3,.9,-2.1c0,-.6,-.2,-1.1,-.6,-1.4c-.3,-.3,-.9,-.5,-1.7,-.5c-.3,0,-.5,0,-.9,.1Zm-1.8,6c.6,.1,1.1,.2,1.5,.2c.9,0,1.8,-.3,2.5,-.9c.7,-.5,1.1,-1.3,1.1,-2.3c0,-.7,-.3,-1.3,-.7,-1.7c-.4,-.4,-1.2,-.6,-2.2,-.6c-.1,0,-.4,0,-.7,0Z" class="g3_74"/>
<path fill-rule="evenodd" d="M299.9,795.3l-.9,3.9h-.3v-1c-.1,-.4,-.1,-.7,-.2,-1c-.2,-.2,-.3,-.5,-.5,-.7c-.2,-.2,-.5,-.4,-.8,-.5c-.4,-.1,-.7,-.2,-1.1,-.2c-1.1,0,-2,.3,-2.8,.9c-1.1,.8,-1.9,1.8,-2.4,3.2c-.5,1.1,-.8,2.2,-.8,3.4c0,1.2,.4,2.1,1.1,2.8c.7,.7,1.6,1.1,2.6,1.1c.9,0,1.6,-.2,2.3,-.6c.6,-.4,1.2,-.9,1.8,-1.7h.4c-.7,1,-1.4,1.8,-2.2,2.3c-.8,.5,-1.8,.7,-2.9,.7c-1,0,-1.8,-.2,-2.6,-.6c-.8,-.4,-1.3,-1,-1.7,-1.7c-.4,-.8,-.6,-1.6,-.6,-2.5c0,-1.3,.3,-2.6,1,-3.8c.7,-1.3,1.7,-2.3,2.9,-3c1.3,-.7,2.5,-1,3.8,-1c.6,0,1.2,.1,2,.4c.3,.1,.5,.1,.7,.1c.1,0,.2,0,.4,0c.1,-.1,.2,-.3,.5,-.5Z" class="g3_74"/>
<path d="M288.5,813.1v60.8" class="g4_74"/>
<path fill-rule="evenodd" d="M326.4,836.2l-1.7,6l-.2,.8c0,.1,0,.2,0,.2c0,.1,0,.2,0,.3c.1,0,.1,.1,.2,.1c.1,0,.2,-.1,.3,-.2c.3,-.2,.6,-.5,1,-1.1l.3,.3c-.5,.6,-.9,1.1,-1.3,1.4c-.4,.3,-.8,.5,-1.2,.5c-.3,0,-.5,-.1,-.6,-.2c-.1,-.2,-.2,-.3,-.2,-.6c0,-.3,.1,-.7,.2,-1.1l.2,-.7c-.8,1,-1.5,1.7,-2.2,2.1c-.4,.3,-.9,.5,-1.3,.5c-.5,0,-.9,-.2,-1.2,-.6c-.3,-.3,-.4,-.8,-.4,-1.5c0,-.9,.2,-1.9,.8,-3c.6,-1,1.3,-1.9,2.2,-2.5c.7,-.5,1.3,-.7,1.9,-.7c.4,0,.7,0,.9,.2c.3,.2,.5,.5,.6,1l.3,-1Zm-3.2,.4c-.3,0,-.8,.2,-1.2,.6c-.6,.5,-1.1,1.2,-1.6,2.2c-.5,1,-.7,1.9,-.7,2.7c0,.4,.1,.7,.3,1c.2,.2,.4,.3,.7,.3c.6,0,1.3,-.5,2.1,-1.4c1,-1.3,1.5,-2.6,1.5,-3.9c0,-.5,-.1,-.9,-.3,-1.1c-.2,-.3,-.4,-.4,-.8,-.4Z" class="g3_74"/>
<path fill-rule="evenodd" d="M331.9,836.3h9.7v.8h-9.7v-.8Zm0,3h9.7v.7h-9.7v-.7Z" class="g3_74"/>
<path fill-rule="evenodd" d="M354.7,831.9v.3c-.8,.1,-1.4,.2,-1.9,.5c-.5,.2,-1,.6,-1.5,1c-.5,.5,-.9,1.1,-1.2,1.7c-.3,.6,-.6,1.3,-.8,2.1c.9,-.6,1.7,-.9,2.6,-.9c.8,0,1.5,.3,2.1,1c.6,.7,1,1.5,1,2.6c0,1,-.4,1.9,-1,2.7c-.7,1.1,-1.7,1.6,-2.9,1.6c-.8,0,-1.5,-.3,-2.1,-.9c-1.2,-1,-1.7,-2.4,-1.7,-4.1c0,-1.1,.2,-2.1,.6,-3.1c.5,-1,1.1,-1.9,1.9,-2.6c.8,-.8,1.6,-1.3,2.3,-1.5c.8,-.3,1.5,-.4,2.1,-.4Zm-5.6,6.2c-.1,.8,-.1,1.5,-.1,2c0,.6,.1,1.2,.3,1.8c.2,.7,.5,1.3,.9,1.6c.3,.3,.7,.5,1.2,.5c.5,0,.9,-.3,1.3,-.8c.5,-.5,.7,-1.2,.7,-2.1c0,-1,-.2,-1.9,-.6,-2.6c-.5,-.8,-1,-1.1,-1.8,-1.1c-.2,0,-.4,0,-.7,.1c-.3,.1,-.7,.3,-1.2,.6Z" class="g3_74"/>
<path fill-rule="evenodd" d="M260.2,891.7c-.6,.7,-1.3,1.3,-1.9,1.6c-.6,.4,-1.3,.5,-2,.5c-.9,0,-1.5,-.2,-2,-.7c-.5,-.5,-.7,-1.1,-.7,-1.9c0,-.9,.3,-1.8,.8,-2.7c.5,-.9,1.2,-1.6,2,-2.2c.9,-.5,1.7,-.8,2.6,-.8c.6,0,1.1,.2,1.4,.4c.3,.3,.5,.6,.5,1c0,.4,-.1,.7,-.3,1c-.2,.2,-.4,.3,-.7,.3c-.1,0,-.3,-.1,-.4,-.2c-.1,-.1,-.2,-.3,-.2,-.5c0,-.1,0,-.2,.1,-.3c0,-.1,.1,-.2,.2,-.3c.2,-.1,.3,-.2,.3,-.3q0,-.1,0,-.2c0,-.1,0,-.2,-.1,-.3c-.2,-.1,-.4,-.2,-.8,-.2c-.5,0,-1.1,.2,-1.7,.6c-.6,.4,-1.1,1,-1.5,1.8c-.5,.9,-.7,1.8,-.7,2.7c0,.7,.2,1.1,.5,1.5c.4,.4,.8,.5,1.4,.5c.5,0,.9,-.1,1.4,-.3c.5,-.2,1,-.7,1.5,-1.3Z" class="g3_74"/>
<path fill-rule="evenodd" d="M266.1,885.7h9.7v.7h-9.7v-.7Zm0,2.9h9.7v.8h-9.7v-.8Z" class="g3_74"/>
<path fill-rule="evenodd" d="M282.9,882.7l2.9,-1.5h.3v10.3c0,.7,.1,1.1,.1,1.2c.1,.2,.2,.3,.4,.4c.2,.1,.5,.2,1.1,.2v.3h-4.6v-.3c.6,0,.9,-.1,1.1,-.2c.2,0,.3,-.2,.4,-.3c0,-.2,.1,-.6,.1,-1.3v-6.6c0,-.9,-.1,-1.4,-.1,-1.7c-.1,-.2,-.1,-.3,-.3,-.4c-.1,-.1,-.2,-.1,-.4,-.1c-.2,0,-.5,.1,-.9,.2Z" class="g3_74"/>
<path fill-rule="evenodd" d="M290.6,887.6c0,-1.4,.2,-2.6,.6,-3.6c.4,-1,1,-1.7,1.7,-2.2c.5,-.4,1.1,-.6,1.6,-.6c1,0,1.8,.5,2.5,1.5c1,1.1,1.4,2.7,1.4,4.7c0,1.4,-.2,2.6,-.6,3.6c-.4,1,-.9,1.7,-1.5,2.2c-.7,.4,-1.3,.6,-1.9,.6c-1.1,0,-2.1,-.7,-2.9,-2c-.6,-1.2,-.9,-2.6,-.9,-4.2m1.7,.2c0,1.7,.2,3.1,.6,4.1c.4,.9,.9,1.4,1.6,1.4c.3,0,.6,-.2,1,-.5c.3,-.3,.6,-.7,.8,-1.4c.2,-1,.4,-2.5,.4,-4.4c0,-1.3,-.2,-2.5,-.5,-3.4c-.2,-.7,-.5,-1.2,-.8,-1.5c-.2,-.2,-.5,-.3,-.9,-.3c-.4,0,-.7,.2,-1.1,.6c-.4,.5,-.7,1.2,-.8,2.3c-.2,1.1,-.3,2.1,-.3,3.1Z" class="g3_74"/>
<path fill-rule="evenodd" d="M206.5,825.1l-1.7,6.2c.6,-.6,1,-1,1.5,-1.3c.4,-.2,.9,-.3,1.3,-.3c.7,0,1.2,.2,1.6,.7c.4,.4,.7,1,.7,1.7c0,1,-.3,2,-.9,2.9c-.5,1,-1.2,1.7,-2,2.2c-.9,.6,-1.7,.8,-2.5,.8c-.9,0,-1.8,-.3,-2.8,-1l2.8,-9.4c.2,-.7,.3,-1.1,.3,-1.2c0,-.2,-.1,-.3,-.2,-.4c-.1,-.1,-.3,-.1,-.6,-.1c-.1,0,-.3,0,-.6,0v-.3Zm-3.4,12c.6,.3,1.1,.5,1.6,.5c.5,0,1,-.2,1.6,-.6c.6,-.4,1,-1,1.5,-1.9c.4,-.9,.6,-1.9,.6,-2.8c0,-.5,-.2,-1,-.4,-1.3c-.3,-.3,-.6,-.4,-1,-.4c-.5,0,-1.1,.2,-1.6,.6c-.6,.5,-.9,1.1,-1.2,1.9Z" class="g3_74"/>
<path fill-rule="evenodd" d="M215.3,829.9H225v.7h-9.7v-.7Zm0,2.9H225v.8h-9.7v-.8Z" class="g3_74"/>
<path fill-rule="evenodd" d="M233.4,831.7c-.9,-.8,-1.5,-1.4,-1.8,-1.9c-.3,-.5,-.4,-1,-.4,-1.5c0,-.8,.3,-1.4,.9,-2c.6,-.6,1.4,-.9,2.4,-.9c1,0,1.8,.3,2.4,.8c.6,.6,.9,1.2,.9,1.8c0,.5,-.2,1,-.5,1.4c-.3,.5,-1,1.1,-2,1.7c1,.8,1.7,1.4,2.1,1.9c.4,.6,.6,1.3,.6,1.9c0,.9,-.3,1.6,-.9,2.2c-.7,.6,-1.5,.9,-2.6,.9c-1.2,0,-2.1,-.3,-2.7,-1.1c-.5,-.5,-.8,-1.2,-.8,-1.9c0,-.5,.2,-1,.6,-1.5c.3,-.6,1,-1.2,1.8,-1.8m1.4,-1c.8,-.6,1.2,-1.1,1.4,-1.5c.2,-.4,.3,-.8,.3,-1.3c0,-.6,-.2,-1.1,-.5,-1.4c-.4,-.4,-.9,-.6,-1.5,-.6c-.6,0,-1.1,.2,-1.5,.6c-.3,.3,-.5,.7,-.5,1.2c0,.3,0,.6,.2,.9c.2,.3,.4,.6,.7,.9Zm-.9,1.3c-.5,.5,-.9,.9,-1.1,1.4c-.3,.5,-.4,1,-.4,1.6c0,.8,.2,1.4,.6,1.9c.5,.4,1,.6,1.6,.6c.7,0,1.2,-.1,1.6,-.5c.4,-.4,.6,-.8,.6,-1.3c0,-.5,-.1,-.8,-.4,-1.2c-.4,-.6,-1.2,-1.4,-2.5,-2.5Z" class="g3_74"/>
<path fill-rule="evenodd" d="M298.3,845.1l-2.5,8.7c1.1,-1.6,1.9,-2.7,2.5,-3.2c.6,-.6,1.2,-.8,1.8,-.8c.2,0,.5,.1,.7,.3c.2,.2,.3,.4,.3,.7c0,.4,-.1,.9,-.3,1.5l-1.1,3.7c-.1,.5,-.2,.7,-.2,.8q0,.1,.1,.2c0,0,.1,.1,.2,.1c0,0,.1,-.1,.2,-.1c.4,-.3,.7,-.7,1,-1.1l.3,.1c-.2,.3,-.5,.7,-.8,1.1c-.4,.4,-.7,.6,-1,.8c-.2,.1,-.4,.2,-.7,.2c-.2,0,-.4,-.1,-.5,-.2c-.1,-.2,-.2,-.4,-.2,-.6c0,-.2,.1,-.7,.3,-1.4l1,-3.6c.2,-.5,.2,-.8,.2,-1.1c0,-.1,0,-.2,-.1,-.3c0,0,-.1,-.1,-.3,-.1c-.1,0,-.3,.1,-.6,.2c-.4,.3,-.8,.7,-1.4,1.4c-.1,.2,-.6,1,-1.4,2.3c-.2,.4,-.4,.8,-.6,1.3l-.6,1.9h-1.3l2.9,-10.3l.3,-1.1c0,-.1,0,-.3,-.2,-.4c-.1,-.1,-.2,-.2,-.4,-.2c-.1,0,-.3,0,-.5,.1h-.2v-.3Z" class="g3_74"/>
<path fill-rule="evenodd" d="M306.4,860.1c-.5,.5,-.9,.8,-1.3,1.1c-.4,.2,-.9,.3,-1.3,.3c-.6,0,-1,-.1,-1.4,-.5c-.3,-.3,-.4,-.7,-.4,-1.2c0,-.6,.1,-1.2,.5,-1.8c.3,-.6,.8,-1.1,1.4,-1.5c.5,-.3,1.1,-.5,1.6,-.5c.5,0,.8,.1,1,.3c.2,.1,.3,.4,.3,.6c0,.3,0,.5,-.2,.6c-.1,.2,-.2,.3,-.4,.3c-.1,0,-.2,-.1,-.3,-.2c-.1,0,-.1,-.1,-.1,-.3c0,0,0,-.1,0,-.2c.1,0,.1,-.1,.2,-.2c.1,-.1,.2,-.2,.2,-.2c0,0,0,-.1,0,-.1c0,-.1,0,-.2,-.1,-.2c-.1,-.1,-.3,-.2,-.5,-.2c-.4,0,-.8,.2,-1.2,.5c-.3,.2,-.7,.6,-.9,1.1c-.4,.6,-.5,1.3,-.5,1.9c0,.4,.1,.7,.3,.9c.3,.3,.6,.4,1,.4c.3,0,.6,-.1,.9,-.2c.3,-.2,.6,-.5,1,-.9Z" class="g3_74"/>
<path d="M74.9,165.3H837.1" class="g5_74"/>
<path d="M717.4,289.1c-6.2,2.1,-8,.1,-10.1,-3.5" class="g2_74"/>
<path fill-rule="evenodd" d="M712.6,287.6c-.4,-.2,-.6,-.7,-.4,-1.1c.2,-.4,.7,-.6,1.1,-.4c.4,.2,.6,.7,.4,1.1c-.2,.4,-.7,.6,-1.1,.4Z" class="g3_74"/>
<g clip-path="url(#c0_74)">
<path fill-rule="evenodd" d="M642.1,309.6l-3.5,4.8h3Zm1.8,-3l-1,10.1c0,.5,0,.8,0,.9c0,.3,0,.5,.1,.6c.1,.2,.3,.3,.5,.4c.2,.1,.5,.1,.9,.1l-.1,.3h-4.7l.1,-.3h.2c.4,0,.7,-.1,.9,-.3c.2,-.1,.3,-.3,.4,-.5c.1,-.2,.2,-.6,.2,-1.3l.2,-1.6h-3.5l-1.3,1.7c-.2,.4,-.4,.7,-.5,.8c-.1,.2,-.1,.3,-.1,.5c0,.2,.1,.3,.2,.5c.2,.1,.5,.2,.8,.2l-.1,.3h-3.6l.1,-.3c.5,0,.9,-.2,1.2,-.4c.3,-.3,.8,-.9,1.5,-1.8l7.2,-9.9Z" class="g3_74"/>
<path fill-rule="evenodd" d="M731.1,323.4c.6,.1,1.1,.2,1.5,.2c.9,0,1.7,-.3,2.5,-.9c.7,-.5,1,-1.3,1,-2.3c0,-.7,-.2,-1.3,-.6,-1.7c-.5,-.4,-1.2,-.6,-2.2,-.6c-.2,0,-.4,0,-.7,0Zm1.7,-5.9c.4,0,.7,0,.9,0c1.2,0,2.1,-.3,2.8,-.8c.6,-.6,.9,-1.3,.9,-2.1c0,-.6,-.2,-1.1,-.6,-1.4c-.4,-.3,-1,-.5,-1.8,-.5c-.2,0,-.5,0,-.8,.1ZM731,312.4l.1,-.3h4.4c.7,0,1.4,.1,1.9,.3c.6,.3,1,.6,1.3,1c.3,.4,.4,.8,.4,1.3c0,.7,-.2,1.3,-.7,1.9c-.5,.5,-1.4,.9,-2.5,1.2c.7,.3,1.3,.6,1.6,1.1c.4,.5,.5,.9,.5,1.5c0,.6,-.1,1.2,-.4,1.7c-.3,.6,-.7,1,-1.2,1.3c-.5,.3,-1.1,.5,-1.8,.7c-.5,.1,-1.2,.1,-2.3,.1h-4.4l.1,-.3c.5,0,.8,-.1,1,-.1c.2,-.1,.4,-.3,.5,-.4c.1,-.3,.3,-.8,.5,-1.6l2.2,-7.3c.2,-.7,.3,-1.1,.3,-1.4c0,-.2,-.1,-.4,-.3,-.5c-.1,-.1,-.4,-.2,-.9,-.2c-.1,0,-.2,0,-.3,0Z" class="g3_74"/>
</g>
<path fill-rule="evenodd" d="M833.5,233.5l-1,4h-.3v-1c0,-.4,-.1,-.7,-.2,-1c-.1,-.3,-.3,-.5,-.5,-.7c-.2,-.2,-.5,-.4,-.8,-.5c-.3,-.1,-.7,-.2,-1.1,-.2c-1.1,0,-2,.3,-2.8,.9c-1,.8,-1.8,1.8,-2.4,3.2c-.5,1.1,-.7,2.2,-.7,3.4c0,1.2,.3,2.1,1,2.8c.7,.7,1.6,1.1,2.7,1.1c.8,0,1.6,-.2,2.2,-.6c.6,-.4,1.2,-.9,1.8,-1.7h.4c-.6,1,-1.4,1.8,-2.2,2.3c-.8,.5,-1.7,.7,-2.8,.7c-1,0,-1.9,-.2,-2.7,-.6c-.7,-.4,-1.3,-1,-1.7,-1.7c-.4,-.8,-.6,-1.6,-.6,-2.5c0,-1.3,.3,-2.6,1.1,-3.8c.7,-1.3,1.6,-2.3,2.9,-3c1.2,-.7,2.5,-1.1,3.7,-1.1c.6,0,1.3,.2,2,.5c.3,.1,.6,.1,.7,.1c.1,0,.3,0,.4,0c.1,-.1,.3,-.3,.5,-.6Z" class="g3_74"/>
<path d="M650.4,308.1L814.6,242.5l-89.5,65.6H650.4Z" class="g2_74"/>
<path d="M724.9,308.1L714.6,282.2" class="g4_74"/>
<path fill-rule="evenodd" d="M703.4,231.3l2.9,-1.5h.3v10.3c0,.6,0,1.1,.1,1.2c.1,.2,.2,.3,.3,.4c.2,.1,.6,.2,1.1,.2v.3h-4.5v-.3c.5,0,.9,-.1,1.1,-.2c.2,-.1,.3,-.2,.3,-.3c.1,-.2,.1,-.6,.1,-1.3v-6.6c0,-.9,0,-1.4,-.1,-1.7c0,-.2,-.1,-.3,-.2,-.4c-.1,-.1,-.2,-.1,-.4,-.1c-.2,0,-.5,0,-.9,.2Z" class="g3_74"/>
<path fill-rule="evenodd" d="M718.8,239.9l-.9,2.3h-7.1v-.3c2.1,-2,3.6,-3.5,4.4,-4.7c.9,-1.3,1.3,-2.4,1.3,-3.4c0,-.8,-.2,-1.4,-.7,-1.9c-.5,-.5,-1,-.7,-1.7,-.7c-.6,0,-1.1,.2,-1.6,.5c-.5,.4,-.8,.9,-1,1.5h-.4c.2,-1.1,.6,-1.9,1.2,-2.5c.6,-.6,1.4,-.9,2.3,-.9c1,0,1.8,.3,2.5,1c.6,.6,.9,1.3,.9,2.2c0,.6,-.1,1.2,-.4,1.8c-.4,1,-1.1,2,-2.1,3.1c-1.5,1.6,-2.5,2.6,-2.8,2.9h3.1c.7,0,1.1,0,1.4,0c.3,-.1,.5,-.2,.7,-.3c.2,-.2,.4,-.4,.6,-.6Z" class="g3_74"/>
<path fill-rule="evenodd" d="M733.9,294.1l-.8,2.3h-7.2v-.3c2.1,-2,3.6,-3.5,4.5,-4.7c.8,-1.3,1.3,-2.4,1.3,-3.4c0,-.8,-.3,-1.4,-.8,-1.9c-.4,-.5,-1,-.7,-1.6,-.7c-.6,0,-1.2,.1,-1.6,.5c-.5,.3,-.9,.9,-1.1,1.5h-.3c.1,-1.1,.5,-1.9,1.1,-2.5c.6,-.6,1.4,-.9,2.3,-.9c1,0,1.8,.3,2.5,1c.7,.6,1,1.3,1,2.2c0,.6,-.2,1.2,-.4,1.8c-.5,1,-1.2,2,-2.2,3.1c-1.5,1.6,-2.4,2.6,-2.8,2.9H731c.6,0,1.1,0,1.3,0c.3,-.1,.5,-.2,.8,-.3c.2,-.2,.3,-.4,.5,-.6Z" class="g3_74"/>
<path clip-path="url(#c0_74)" fill-rule="evenodd" d="M641.9,288.7l.4,-.1c0,-.2,0,-.5,0,-.7c0,-.2,0,-.5,.1,-.7c.1,-.3,.2,-.6,.3,-.8c.1,-.3,.3,-.6,.6,-.9c.3,-.3,.7,-.7,1.3,-1c.6,-.3,1.2,-.6,1.9,-.9L659,278.5l-.4,-.8l-12.4,5.1c-.7,.3,-1.4,.6,-2,.9c-.6,.3,-1.1,.8,-1.6,1.3c-.4,.5,-.7,1,-.8,1.6c-.1,.6,-.1,1.3,.1,2.1m16.5,-10.9l.3,.8l18.6,-7.7l-.4,-.8Zm18.3,-7.6l.3,.8l18.6,-7.7l-.3,-.8ZM695,262.6l.3,.8l18.6,-7.6l-.3,-.8ZM713.6,255l.3,.8l4.4,-1.8c.5,-.2,.9,-.4,1.3,-.7c.3,-.2,.6,-.4,.9,-.6c.2,-.2,.4,-.4,.5,-.6c.2,-.1,.3,-.3,.4,-.5c.2,-.2,.3,-.4,.4,-.6c0,-.2,.1,-.4,.1,-.5c.1,-.2,.1,-.5,.1,-.7c0,-.3,0,-.6,0,-1c.3,.3,.5,.5,.7,.7c.2,.2,.3,.3,.5,.4c.1,.1,.3,.2,.5,.3c.2,.1,.4,.1,.7,.2c.2,0,.4,.1,.6,.1c.2,0,.5,0,.8,0c.4,0,.7,-.1,1.1,-.2c.4,-.1,.9,-.2,1.4,-.5l4.3,-1.7l-.4,-.8l-4.5,1.8c-.2,.1,-.5,.2,-.7,.3c-.3,.1,-.5,.1,-.8,.2c-.3,0,-.5,0,-.7,.1c-.3,0,-.5,0,-.7,0c-.6,-.1,-1.1,-.2,-1.6,-.5c-.4,-.3,-.8,-.7,-1.1,-1l-.6,.2c0,.5,0,1,-.2,1.6c-.1,.5,-.3,1,-.7,1.4c-.2,.2,-.3,.3,-.5,.5c-.2,.1,-.4,.3,-.6,.4c-.2,.2,-.4,.3,-.7,.4c-.2,.2,-.4,.3,-.6,.4ZM732,247.4l.3,.8l18.6,-7.7l-.4,-.8Zm18.3,-7.6l.3,.8L769.2,233l-.4,-.9Zm18.3,-7.5l.3,.8l18.6,-7.7l-.3,-.8Zm18.6,-7.7l.3,.8L800,220.2c.7,-.3,1.4,-.5,2,-.7c.7,-.2,1.2,-.2,1.7,-.2c.4,0,.7,.1,1,.2c.3,.1,.5,.2,.8,.3c.2,.2,.4,.3,.6,.5c.1,.1,.3,.3,.4,.5l.4,-.2c-.4,-.7,-.9,-1.2,-1.4,-1.6c-.5,-.3,-1.1,-.5,-1.7,-.6c-.7,0,-1.4,.1,-2,.3c-.7,.2,-1.4,.4,-2.1,.7Z" class="g3_74"/>
<path fill-rule="evenodd" d="M704.5,275.3c.6,.1,1.1,.1,1.5,.1c.9,0,1.7,-.2,2.5,-.8c.7,-.6,1,-1.3,1,-2.3c0,-.7,-.2,-1.3,-.6,-1.7c-.5,-.4,-1.2,-.6,-2.2,-.6c-.2,0,-.4,0,-.7,0Zm1.7,-6c.4,.1,.7,.1,.9,.1c1.2,0,2.1,-.3,2.7,-.8c.6,-.6,.9,-1.3,.9,-2.1c0,-.6,-.1,-1.1,-.5,-1.4c-.4,-.4,-1,-.5,-1.8,-.5c-.2,0,-.5,0,-.8,.1Zm-1.8,-5l.1,-.3h4.4c.7,0,1.3,.1,1.9,.3c.6,.2,1,.6,1.3,1c.3,.4,.4,.8,.4,1.3c0,.7,-.2,1.3,-.7,1.8c-.5,.6,-1.4,1,-2.5,1.3c.7,.3,1.3,.6,1.6,1.1c.4,.4,.5,.9,.5,1.5c0,.6,-.1,1.2,-.4,1.7c-.3,.6,-.7,1,-1.2,1.3c-.5,.3,-1.1,.5,-1.8,.7c-.5,.1,-1.2,.1,-2.3,.1h-4.4l.1,-.3c.5,0,.8,-.1,.9,-.2c.3,-.1,.5,-.2,.6,-.4c.1,-.2,.3,-.7,.5,-1.5l2.2,-7.4c.2,-.6,.3,-1,.3,-1.3c0,-.2,-.1,-.4,-.3,-.5c-.1,-.1,-.4,-.2,-.9,-.2c-.1,0,-.2,0,-.3,0Z" class="g3_74"/>
<path fill-rule="evenodd" d="M715.9,272.3l1.9,-.9h.2v6.8c0,.5,.1,.7,.1,.8c0,.2,.1,.2,.2,.3c.2,.1,.4,.1,.8,.1v.2H716v-.2c.4,0,.7,0,.8,-.1q.1,-.1,.2,-.2c0,-.1,.1,-.4,.1,-.9v-4.4c0,-.6,-.1,-.9,-.1,-1.1c0,-.1,-.1,-.2,-.2,-.3c0,0,-.1,-.1,-.2,-.1c-.2,0,-.4,.1,-.6,.2Z" class="g3_74"/>
<path d="M244.5,423.6h11.4m208.6,0h11.4m214.7,0H702" class="g1_74"/>
<path d="M74.9,685.8H837.1" class="g5_74"/>
<path d="M186.1,1019.2h651V936.9h-651v82.3Z" class="g6_74"/>
<path d="M234,992.4h14.7m143.8,0h14.8" class="g1_74"/>
<path d="M73.6,1032.2H835.8" class="g5_74"/>
<path d="M0,138.7H120.6V0H0V138.7Z" class="g0_74"/>
<path d="M137.2,974.3h39.6V936.9H137.2v37.4Z" class="g7_74"/>
<path clip-path="url(#c1_74)" d="M157.4,959.4c-2.1,.2,-3.8,-1.5,-3.6,-3.6c.1,-1.7,1.5,-3.1,3.2,-3.2c2,-.1,3.7,1.6,3.6,3.6c-.1,1.8,-1.5,3.1,-3.2,3.2m.2,3c-3.8,.2,-7,-3,-6.7,-6.8c.1,-3.1,2.7,-5.7,5.9,-5.9c3.8,-.3,7,2.9,6.7,6.7c-.2,3.2,-2.7,5.8,-5.9,6M157.2,947c-5.8,0,-11,3.2,-14.9,8.3c-.3,.4,-.3,1,0,1.4c3.9,5.2,9.1,8.3,14.9,8.3c5.8,0,11,-3.1,14.8,-8.3c.4,-.4,.4,-1,0,-1.4c-3.8,-5.1,-9,-8.3,-14.8,-8.3Z" class="g8_74"/>
<path clip-path="url(#c2_74)" d="M204.1,503.7V629.3M218,503.7V629.3M231.8,503.7V629.3M245.7,503.7V629.3M259.5,503.7V629.3M273.4,503.7V629.3M287.3,503.7V629.3M301.1,503.7V629.3M315,503.7V629.3M328.8,503.7V629.3M204.5,504.3H328.8M204.5,518.1H328.8M204.5,532H328.8M204.5,545.9H328.8M204.5,559.7H328.8M204.5,573.6H328.8M204.5,587.4H328.8M204.5,601.3H328.8M204.5,615.1H328.8M204.5,629H328.8" class="g9_74"/>
<path d="M218.2,601.6L287.3,518l13.6,83.6H218.2Z" class="ga_74"/>
<path fill-rule="evenodd" d="M211.9,598.2l-3.5,4.8h3Zm1.7,-3l-.9,10.1c0,.5,0,.8,0,.9c0,.3,0,.5,.1,.6c.1,.2,.3,.3,.4,.4c.2,.1,.6,.1,1,.1l-.1,.3h-4.8l.1,-.3h.2c.4,0,.8,-.1,1,-.3c.2,-.1,.3,-.3,.4,-.5c.1,-.2,.1,-.6,.2,-1.3l.1,-1.6h-3.4l-1.3,1.7c-.3,.4,-.4,.7,-.5,.8c-.1,.2,-.1,.3,-.1,.5c0,.2,.1,.3,.2,.5c.2,.1,.4,.2,.8,.2l-.1,.3h-3.6l.1,-.3c.4,0,.8,-.2,1.2,-.4c.3,-.3,.8,-.9,1.5,-1.8l7.2,-9.9Z" class="g3_74"/>
<path fill-rule="evenodd" d="M306.9,608.2c.6,.1,1.1,.1,1.5,.1c.9,0,1.8,-.3,2.5,-.8c.7,-.6,1.1,-1.3,1.1,-2.3c0,-.7,-.3,-1.3,-.7,-1.7c-.4,-.4,-1.2,-.6,-2.2,-.6c-.1,0,-.4,0,-.7,0Zm1.8,-6c.3,0,.6,0,.8,0c1.2,0,2.2,-.2,2.8,-.8c.6,-.5,.9,-1.2,.9,-2c0,-.6,-.2,-1.1,-.6,-1.4c-.3,-.4,-.9,-.6,-1.7,-.6c-.3,0,-.5,.1,-.9,.1Zm-1.9,-5l.2,-.4h4.3c.7,0,1.4,.2,1.9,.4c.6,.2,1,.5,1.3,.9c.3,.4,.5,.9,.5,1.3c0,.7,-.3,1.3,-.8,1.9c-.5,.6,-1.3,1,-2.5,1.3c.8,.2,1.3,.6,1.7,1.1c.3,.4,.5,.9,.5,1.4c0,.6,-.2,1.2,-.5,1.8c-.3,.5,-.7,.9,-1.2,1.3c-.5,.3,-1.1,.5,-1.7,.6c-.5,.1,-1.3,.2,-2.3,.2h-4.5l.1,-.4c.5,0,.8,0,1,-.1c.2,-.1,.4,-.2,.5,-.4c.1,-.2,.3,-.7,.6,-1.5l2.1,-7.4c.2,-.6,.3,-1.1,.3,-1.3c0,-.2,-.1,-.4,-.2,-.5c-.2,-.2,-.5,-.2,-1,-.2c-.1,0,-.2,0,-.3,0Z" class="g3_74"/>
<path fill-rule="evenodd" d="M303.7,507.7l-.9,3.9h-.3l-.1,-1c0,-.3,-.1,-.6,-.2,-.9c-.1,-.3,-.2,-.5,-.4,-.7c-.3,-.2,-.5,-.4,-.9,-.5c-.3,-.1,-.6,-.2,-1,-.2c-1.1,0,-2.1,.3,-2.9,.9c-1,.7,-1.8,1.8,-2.4,3.1c-.4,1.2,-.7,2.3,-.7,3.5c0,1.1,.4,2.1,1.1,2.8c.6,.7,1.5,1,2.6,1c.9,0,1.6,-.2,2.3,-.5c.6,-.4,1.2,-1,1.8,-1.7h.4c-.7,1,-1.4,1.8,-2.2,2.3c-.8,.5,-1.8,.7,-2.9,.7c-1,0,-1.8,-.2,-2.6,-.6c-.8,-.4,-1.4,-1,-1.8,-1.8c-.4,-.7,-.6,-1.5,-.6,-2.4c0,-1.3,.4,-2.6,1.1,-3.9c.7,-1.2,1.7,-2.2,2.9,-2.9c1.3,-.7,2.5,-1.1,3.8,-1.1c.6,0,1.2,.1,2,.4c.3,.1,.5,.2,.7,.2c.1,0,.2,0,.3,-.1c.1,0,.3,-.2,.6,-.5Z" class="g3_74"/>
<path d="M429.5,503.1V628.2M443.3,503.1V628.2M457.2,503.1V628.2M471,503.1V628.2M484.9,503.1V628.2M498.8,503.1V628.2M512.6,503.1V628.2M526.5,503.1V628.2M540.3,503.1V628.2M554.2,503.1V628.2M429.5,503.2H554.2M429.5,517H554.2M429.5,530.9H554.2M429.5,544.7H554.2M429.5,558.6H554.2M429.5,572.5H554.2M429.5,586.3H554.2M429.5,600.2H554.2M429.5,614H554.2M429.5,627.9H554.2" class="g9_74"/>
<path d="M471.4,614.4V516.9l55.1,27.8l-55.1,69.7Z" class="ga_74"/>
<path fill-rule="evenodd" d="M464,615.6l-3.5,4.8h3.1Zm1.8,-3l-.9,10.1c-.1,.5,-.1,.8,-.1,.9c0,.3,.1,.4,.2,.6c.1,.1,.2,.3,.4,.3c.2,.1,.5,.2,1,.2l-.1,.3h-4.8l.1,-.3h.2c.4,0,.7,-.1,1,-.3c.1,-.1,.3,-.3,.4,-.5c0,-.2,.1,-.7,.2,-1.4l.1,-1.5H460l-1.2,1.7c-.3,.4,-.5,.6,-.5,.8c-.1,.2,-.1,.3,-.1,.5c0,.1,0,.3,.2,.4c.1,.2,.4,.3,.8,.3l-.1,.3h-3.6l.1,-.3c.4,0,.8,-.2,1.1,-.5c.4,-.3,.9,-.8,1.5,-1.7l7.3,-9.9Z" class="g3_74"/>
<path fill-rule="evenodd" d="M533.2,550c.6,.1,1.1,.1,1.5,.1c.9,0,1.8,-.2,2.5,-.8c.7,-.6,1.1,-1.3,1.1,-2.3c0,-.7,-.3,-1.3,-.7,-1.7c-.4,-.4,-1.2,-.6,-2.2,-.6c-.1,0,-.4,0,-.7,0Zm1.8,-6c.4,.1,.6,.1,.8,.1c1.2,0,2.2,-.3,2.8,-.9c.6,-.5,.9,-1.2,.9,-2c0,-.6,-.2,-1.1,-.6,-1.4c-.3,-.4,-.9,-.5,-1.7,-.5c-.3,0,-.5,0,-.9,.1Zm-1.9,-5l.2,-.3h4.3c.7,0,1.4,.1,2,.3c.5,.2,.9,.5,1.2,1c.3,.4,.5,.8,.5,1.2c0,.7,-.3,1.4,-.8,1.9c-.5,.6,-1.3,1,-2.5,1.3c.8,.3,1.3,.6,1.7,1.1c.3,.4,.5,.9,.5,1.5c0,.6,-.2,1.2,-.5,1.7c-.3,.6,-.7,1,-1.2,1.3c-.5,.3,-1.1,.5,-1.7,.7c-.5,.1,-1.3,.1,-2.3,.1H530l.1,-.3c.5,0,.8,-.1,1,-.2c.2,-.1,.4,-.2,.5,-.4c.1,-.2,.3,-.7,.6,-1.5l2.1,-7.4c.2,-.6,.3,-1,.3,-1.3c0,-.2,-.1,-.4,-.2,-.5c-.2,-.1,-.5,-.2,-1,-.2c-.1,0,-.2,0,-.3,0Z" class="g3_74"/>
<path fill-rule="evenodd" d="M468.5,507.4l-.9,3.9h-.3l-.1,-1c0,-.3,-.1,-.6,-.2,-.9c-.1,-.3,-.3,-.6,-.5,-.8c-.2,-.2,-.5,-.3,-.8,-.4c-.3,-.2,-.7,-.2,-1.1,-.2c-1,0,-2,.3,-2.8,.9c-1,.7,-1.8,1.8,-2.4,3.1c-.5,1.1,-.7,2.3,-.7,3.4c0,1.2,.4,2.1,1,2.8c.7,.7,1.6,1.1,2.7,1.1c.8,0,1.6,-.2,2.2,-.6c.7,-.3,1.3,-.9,1.8,-1.7h.5c-.7,1.1,-1.4,1.8,-2.2,2.3c-.8,.5,-1.8,.8,-2.9,.8c-1,0,-1.9,-.2,-2.6,-.6c-.8,-.5,-1.4,-1,-1.8,-1.8c-.4,-.7,-.6,-1.6,-.6,-2.4c0,-1.3,.4,-2.6,1.1,-3.9c.7,-1.2,1.7,-2.2,2.9,-2.9c1.2,-.8,2.5,-1.1,3.8,-1.1c.5,0,1.2,.1,1.9,.4c.4,.1,.6,.2,.7,.2c.2,0,.3,0,.4,-.1c.1,-.1,.3,-.2,.6,-.5Z" class="g3_74"/>
<path clip-path="url(#c3_74)" d="M650.3,503.6V642.2M664.2,503.6V642.2M678,503.6V642.2M691.9,503.6V642.2M705.7,503.6V642.2M719.6,503.6V642.2M733.5,503.6V642.2M747.3,503.6V642.2M761.2,503.6V642.2M775,503.6V642.2M788.9,503.6V642.2M650.3,503.3H788.9M650.3,517.1H788.9M650.3,531H788.9M650.3,544.8H788.9M650.3,558.7H788.9M650.3,572.6H788.9M650.3,586.4H788.9M650.3,600.3H788.9M650.3,614.1H788.9M650.3,628H788.9M650.3,641.8H788.9" class="g9_74"/>
<path d="M678,531.3h41.6l41.6,68.9L678,531.3Z" class="ga_74"/>
<path fill-rule="evenodd" d="M767.9,603.2l-3.5,4.7h3Zm1.8,-3l-.9,10.1c-.1,.4,-.1,.8,-.1,.9c0,.2,0,.4,.1,.5c.1,.2,.3,.3,.5,.4c.2,.1,.5,.2,1,.2l-.1,.3h-4.8l.1,-.3h.2c.4,0,.7,-.1,.9,-.3c.2,-.1,.3,-.3,.4,-.6c.1,-.1,.2,-.6,.2,-1.3l.2,-1.5h-3.5l-1.2,1.7c-.3,.3,-.5,.6,-.6,.8c0,.1,-.1,.3,-.1,.4c0,.2,.1,.4,.3,.5c.1,.2,.4,.2,.7,.3l-.1,.3h-3.6l.1,-.3c.5,-.1,.9,-.2,1.2,-.5c.3,-.3,.8,-.9,1.5,-1.8l7.3,-9.8Z" class="g3_74"/>
<path fill-rule="evenodd" d="M731,533.2c.7,.1,1.2,.1,1.5,.1c1,0,1.8,-.3,2.5,-.8c.7,-.6,1.1,-1.3,1.1,-2.3c0,-.7,-.2,-1.3,-.7,-1.7c-.4,-.4,-1.1,-.6,-2.1,-.6c-.2,0,-.4,0,-.7,0Zm1.8,-6c.4,0,.7,0,.8,0c1.3,0,2.2,-.2,2.8,-.8c.6,-.5,.9,-1.2,.9,-2c0,-.6,-.2,-1.1,-.5,-1.4c-.4,-.4,-1,-.5,-1.8,-.5c-.2,0,-.5,0,-.8,.1Zm-1.8,-5l.1,-.3h4.3c.8,0,1.4,.1,2,.3c.6,.2,1,.5,1.3,.9c.2,.4,.4,.9,.4,1.3c0,.7,-.3,1.4,-.8,1.9c-.5,.6,-1.3,1,-2.4,1.3c.7,.2,1.2,.6,1.6,1.1c.3,.4,.5,.9,.5,1.5c0,.6,-.1,1.1,-.5,1.7c-.3,.5,-.7,1,-1.2,1.3c-.4,.3,-1,.5,-1.7,.6c-.5,.1,-1.3,.2,-2.3,.2h-4.5l.2,-.3c.4,-.1,.7,-.1,.9,-.2c.2,-.1,.4,-.2,.5,-.4c.2,-.2,.4,-.7,.6,-1.5l2.2,-7.4c.2,-.6,.2,-1,.2,-1.3c0,-.2,0,-.4,-.2,-.5c-.2,-.1,-.5,-.2,-.9,-.2c-.1,0,-.2,0,-.3,0Z" class="g3_74"/>
<path fill-rule="evenodd" d="M674.7,524.6l-.9,4h-.3l-.1,-1c0,-.4,-.1,-.7,-.2,-1c-.1,-.2,-.2,-.5,-.5,-.7c-.2,-.2,-.4,-.4,-.8,-.5c-.3,-.1,-.7,-.2,-1.1,-.2c-1,0,-2,.3,-2.8,.9c-1,.8,-1.8,1.8,-2.4,3.2c-.4,1.1,-.7,2.2,-.7,3.4c0,1.2,.4,2.1,1,2.8c.7,.7,1.6,1.1,2.7,1.1c.9,0,1.6,-.2,2.2,-.6c.7,-.4,1.3,-.9,1.8,-1.7h.5c-.7,1,-1.4,1.8,-2.2,2.3c-.8,.5,-1.8,.7,-2.9,.7c-1,0,-1.9,-.2,-2.6,-.6c-.8,-.4,-1.4,-1,-1.8,-1.7c-.4,-.8,-.6,-1.6,-.6,-2.5c0,-1.3,.4,-2.6,1.1,-3.8c.7,-1.3,1.7,-2.3,2.9,-3c1.3,-.7,2.5,-1.1,3.8,-1.1c.6,0,1.2,.2,2,.5c.3,.1,.5,.1,.7,.1c.1,0,.2,0,.3,0c.1,-.1,.3,-.3,.6,-.6Z" class="g3_74"/>
<path d="M73.6,474.6H835.8" class="g5_74"/>
<path d="M73.6,715.8H181V685.7H73.6v30.1Z" class="g7_74"/>
<path d="M73.6,1062.6H181v-30.2H73.6v30.2Z" class="g7_74"/>
</svg>