<?xml version="1.0" encoding="UTF-8" standalone="no"?>
<!DOCTYPE svg PUBLIC "-//W3C//DTD SVG 1.1//EN"
"http://www.w3.org/Graphics/SVG/1.1/DTD/svg11.dtd">
<svg viewBox="0 0 909 1147" version="1.1" xmlns="http://www.w3.org/2000/svg" xmlns:xlink="http://www.w3.org/1999/xlink">
<defs>
<clipPath id="c0_127"><path d="M210.2,654.7c-1.8,0,-3.2,-.3,-3.5,-.9c-3.6,-7.1,.7,-8.1,1.6,-14.4c0,-2.8,2.4,-3.7,5.2,-3.7c3.2,0,7,1.3,8,2.2c4.1,4.1,7.3,5,1.5,10.8c-1.4,1.3,-.4,4,-2.7,4.7c-.9,.3,-6.4,1.3,-10.1,1.3Z"/></clipPath>
<clipPath id="c1_127"><path d="M227.1,642.2c-1.1,0,-7.9,-4.9,-7.7,-7.9c0,-5,6.9,-11.8,12.7,-11.8c9,0,4.9,5.4,10.3,8.1c4,1.8,2.1,6.9,-1.8,6.9c-7.7,0,-8.8,.2,-13.3,4.7q-.1,0,-.2,0Z"/></clipPath>
<clipPath id="c2_127"><path d="M238.5,653.8c-7.3,0,-12,-.6,-12,-7.3c0,-5.8,4.6,-8.4,9.6,-8.4c.1,0,.3,0,.4,0c.5,0,.9,0,1.3,0c6.8,0,10.1,4.2,11.4,10.1c1.2,5.3,-5.8,5.6,-10.7,5.6Z"/></clipPath>
<clipPath id="c3_127"><path d="M252.5,647.6c-1.8,0,-3.5,-.8,-4.6,-3.2c-1.2,-2.4,-3,-4.1,-4.5,-5.6c-2.1,-2.1,3,-3.6,3.2,-5.6c.7,-2.5,2,-3.4,3.7,-3.4c3.5,0,8.2,4.3,9.4,5.4c1.3,1.4,8.4,5.3,3.1,7.9c-2.3,1.1,-6.6,4.5,-10.3,4.5Z"/></clipPath>
<clipPath id="c4_127"><path d="M278.2,661.1c-1.9,-1,-3.7,-1.3,-5.3,-1.3c-1,0,-2,.1,-2.9,.2c-.9,.1,-1.8,.2,-2.6,.2c-2.2,0,-3.7,-.9,-4.2,-5.3c0,-3.6,7.9,-5.4,11.1,-5.4c5.6,.3,9.7,11,3.9,11.6Z"/></clipPath>
<clipPath id="c5_127"><path d="M140.8,183.2v-18H171v18Z"/></clipPath>
<clipPath id="c6_127"><path d="M142.3,293.5V268h25.5v25.5Z"/></clipPath>
<style type="text/css"><![CDATA[
.g0_127{
fill: #E7A9A1;
}
.g1_127{
fill: none;
stroke: #000;
stroke-width: 0.763;
}
.g2_127{
fill: #C9E3F0;
}
.g3_127{
fill: none;
stroke: #000;
stroke-width: 1.527;
stroke-miterlimit: 2;
stroke-dasharray: 8,5;
}
.g4_127{
fill: none;
stroke: #000;
stroke-width: 1.527;
stroke-miterlimit: 2;
}
.g5_127{
fill: none;
stroke: #D1D3D4;
stroke-width: 0.763;
stroke-miterlimit: 2;
}
.g6_127{
fill: none;
stroke: #000;
stroke-width: 0.763;
stroke-miterlimit: 2;
}
.g7_127{
fill: none;
stroke: #000;
stroke-width: 1.069;
stroke-miterlimit: 2;
}
.g8_127{
fill: #0EA5DF;
}
.g9_127{
fill: #FFF;
}
.ga_127{
fill: #FFF1E0;
}
.gb_127{
fill: none;
stroke: #0EA5DF;
stroke-width: 3.055;
}
.gc_127{
fill: #E8F1FA;
}
.gd_127{
fill: #BCBEC0;
}
.ge_127{
fill: none;
stroke: #BCBEC0;
stroke-width: 0.152;
stroke-miterlimit: 2;
}
.gf_127{
fill: #E6E7E8;
}
.gg_127{
fill: none;
stroke: #E6E7E8;
stroke-width: 0.152;
stroke-miterlimit: 2;
}
.gh_127{
fill: none;
stroke: #000;
stroke-width: 0.647;
stroke-miterlimit: 2;
}
.gi_127{
fill: none;
stroke: #000;
stroke-width: 0.763;
stroke-miterlimit: 10;
}
.gj_127{
fill: #464343;
}
]]></style>
</defs>
<path d="M835.8,1131h73.6v-51.5H835.8V1131Z" class="g0_127"/>
<path d="M74.1,1059.2H290.6" class="g1_127"/>
<path fill-rule="evenodd" d="M183.5,606.8h112v59.3h-112V606.8Z" class="g2_127"/>
<path d="M183.2,606.5l112.7,59.8l40.9,-23.6V582.2l-113.4,-.3Z" class="g2_127"/>
<path d="M336.6,641.9H224.1V571.1" class="g3_127"/>
<path d="M183,595.2l41.2,-23.9m71.1,24.2v70.8H182.9" class="g4_127"/>
<path d="M337.2,581.7l-41.1,24.7H183.5" class="g5_127"/>
<path d="M337.3,587.2l-41.1,24.7H182.6m-.2,0l41.2,-24.7H336.1" class="g6_127"/>
<path d="M182.3,606.4l41.1,-24.7H337" class="g5_127"/>
<path d="M182.9,666.1l40.7,-23.9" class="g3_127"/>
<path d="M295.2,666.6l40.7,-24.4M224.1,571.1H336.6v70.8M182.9,666.3V595.5H295.3m.2,.4l41.1,-24.6" class="g4_127"/>
<image clip-path="url(#c0_127)" preserveAspectRatio="none" x="201" y="632" width="30" height="26" xlink:href="img/p1.jpg"/>
<path d="M208.3,639.4c-.9,6.3,-5.2,7.3,-1.6,14.4c.9,2,12.3,0,13.6,-.4c2.3,-.7,1.3,-3.4,2.7,-4.7c5.8,-5.8,2.6,-6.7,-1.5,-10.8c-1.7,-1.7,-13.3,-4.5,-13.2,1.5Z" class="g7_127"/>
<image clip-path="url(#c1_127)" preserveAspectRatio="none" x="217" y="622" width="33" height="23" xlink:href="img/p2.jpg"/>
<path d="M219.4,634.3c0,-5.1,6.9,-11.8,12.7,-11.8c9,0,4.9,5.4,10.3,8.1c4,1.8,2.1,6.9,-1.8,6.9c-7.7,0,-8.8,.2,-13.3,4.7c-.6,.5,-8.1,-4.7,-7.9,-7.9Z" class="g7_127"/>
<image clip-path="url(#c2_127)" preserveAspectRatio="none" x="224" y="637" width="30" height="19" xlink:href="img/p3.jpg"/>
<path d="M226.5,646.5c0,6.7,4.7,7.3,12,7.3c4.9,0,11.9,-.3,10.7,-5.6c-1.4,-6.2,-5,-10.7,-12.7,-10.1c-5.2,-.1,-10,2.4,-10,8.4Z" class="g7_127"/>
<image clip-path="url(#c3_127)" preserveAspectRatio="none" x="239" y="624" width="33" height="29" xlink:href="img/p4.jpg"/>
<path d="M246.6,633.2c2.2,-7.9,11.4,.4,13.1,2c1.3,1.4,8.4,5.3,3.1,7.9c-3.5,1.7,-11.4,8.4,-14.9,1.3c-1.2,-2.4,-3,-4.1,-4.5,-5.6c-2.1,-2.1,3,-3.6,3.2,-5.6Z" class="g7_127"/>
<image clip-path="url(#c4_127)" preserveAspectRatio="none" x="261" y="648" width="27" height="19" xlink:href="img/p5.jpg"/>
<path d="M263.2,654.9c0,-3.6,7.9,-5.4,11.1,-5.4c5.6,.3,9.7,11,3.9,11.6c-7.5,-4.1,-13.9,3.7,-15,-6.2Z" class="g7_127"/>
<path d="M135.8,192.6h39.7V155.1H135.8v37.5Z" class="g8_127"/>
<path clip-path="url(#c5_127)" d="M156.1,177.7c-2.1,.1,-3.8,-1.6,-3.6,-3.7c.1,-1.7,1.5,-3,3.2,-3.2c2,-.1,3.7,1.6,3.6,3.7c-.1,1.7,-1.5,3.1,-3.2,3.2m.2,2.9c-3.8,.2,-7,-2.9,-6.8,-6.8c.2,-3.1,2.8,-5.7,6,-5.9c3.8,-.2,7,2.9,6.7,6.8c-.2,3.1,-2.8,5.7,-5.9,5.9m-.4,-15.3c-5.8,0,-11,3.1,-14.9,8.2c-.3,.5,-.3,1,0,1.5c3.9,5.1,9.1,8.3,14.9,8.3c5.7,0,11,-3.2,14.8,-8.3c.4,-.4,.4,-1,0,-1.5c-3.8,-5.1,-9.1,-8.2,-14.8,-8.2Z" class="g9_127"/>
<path d="M184.8,248.2h651V155.1h-651v93.1Z" class="ga_127"/>
<path d="M74.1,463.6H836.3" class="gb_127"/>
<path d="M183.7,1048.1H834.8V697H183.7v351.1Z" class="gc_127"/>
<path d="M72.5,697.8H835.8" class="gb_127"/>
<path d="M184.8,449.5h651V261.9h-651V449.5Z" class="ga_127"/>
<path fill-rule="evenodd" d="M291.4,311.6H321v6.9H291.4v-6.9Z" class="gd_127"/>
<path d="M291.4,311.6H321v6.9H291.4v-6.9Z" class="ge_127"/>
<path fill-rule="evenodd" d="M321.2,311.6L334,303.9v6.9l-12.8,7.7Z" class="gd_127"/>
<path d="M321.2,311.6L334,303.9v6.9l-12.8,7.7v-6.9Z" class="ge_127"/>
<path fill-rule="evenodd" d="M220.5,284.8h29.6v6.9H220.5v-6.9Z" class="gf_127"/>
<path d="M220.5,284.8h29.6v6.9H220.5v-6.9Z" class="gg_127"/>
<path fill-rule="evenodd" d="M250.3,284.8L263.1,277v7l-12.8,7.7Z" class="gf_127"/>
<path d="M250.3,284.8L263.1,277v7l-12.8,7.7v-6.9Z" class="gg_127"/>
<path fill-rule="evenodd" d="M233.5,276.8H263l-12.9,8.1H220.7Z" class="gf_127"/>
<path d="M233.5,276.8H263l-12.9,8.1H220.7l12.8,-8.1Z" class="gh_127"/>
<path fill-rule="evenodd" d="M304.8,303.6h29.5l-12.9,8H292Z" class="gd_127"/>
<path d="M304.8,303.6h29.5l-12.9,8H292l12.8,-8ZM263.1,284.2l-12.9,8H220.7M334.3,311l-12.8,8H292M220.6,284.7v7.6m71.3,19.2v7.6M250.3,284.7v7.6m71.2,19.2v7.6M263,276.8v7.5m71.3,19.3v7.5M220.6,287.3l-7.5,5h46.8l13.5,-8H263.3m28.6,29.8l-7.5,4.9h46.8l13.5,-7.9H334.6M225,292.1l10.9,13.1l11.9,-12.7m47.7,26.2l10.9,13L318.3,319M235.7,305.2v12.9m70.5,13.6v13m-82,-31L319.3,350M267.1,330l-7.4,32.2h13.9L267.1,330Z" class="gh_127"/>
<path fill-rule="evenodd" d="M305.1,303.6h29.5l-12.9,8.1H292.2Z" class="gd_127"/>
<path d="M305.1,303.6h29.5l-12.9,8.1H292.2l12.9,-8.1Z" class="gh_127"/>
<path d="M135.8,299.4h39.7V261.9H135.8v37.5Z" class="g8_127"/>
<path clip-path="url(#c6_127)" fill-rule="evenodd" d="M157.3,285.3c3.8,0,6.9,-3.1,6.9,-6.9c0,-3.7,-3.1,-6.8,-6.9,-6.8c-3.7,0,-6.8,3.1,-6.8,6.8c0,3.8,3.1,6.9,6.8,6.9M143,289.8l5.5,-5.5c0,-.1,.1,-.1,.1,-.1c-1.1,-1.7,-1.7,-3.6,-1.7,-5.8c0,-5.7,4.7,-10.4,10.4,-10.4c5.8,0,10.5,4.7,10.5,10.4c0,5.8,-4.7,10.5,-10.5,10.5c-2.1,0,-4.1,-.6,-5.7,-1.7c0,0,-.1,.1,-.1,.1l-5.5,5.5c-.9,.8,-2.2,.8,-3,0c-.9,-.8,-.9,-2.2,0,-3Z" class="g9_127"/>
<path d="M200.2,371.7h94.6m-94.2,19.9V372.1m94.2,-.4h94.7m-94.7,19.9V372.1m94.3,19.5V372.1M200.2,392h94.6m-94.2,19.9V392.4m94.2,-.4h94.7m-94.7,19.9V392.4m94.3,19.5V392.4M200.2,412.3h94.6m-94.2,20V412.7m94.2,-.4h94.7m-94.7,20V412.7m94.3,19.6V412.7M200.2,432.6h94.6m0,0h94.7" class="gi_127"/>
<path d="M604.6,889.8V891h79.8l.6,-.6l-.6,.6h.6v-.6l-.6,-.6Z" class="gj_127"/>
<path d="M684.4,861.9l.6,.6v-.6Zm0,0l-.5,.6v27.9H685V862.5Z" class="gj_127"/>
<path d="M604.6,861.9l-.6,.6l.6,-.6H604v.6l.6,.5h79.8v-1.1Z" class="gj_127"/>
<path d="M604,862.5v27.9l.6,.6l.5,-.6V862.5Zm0,28.5h.6l-.6,-.6Z" class="gj_127"/>
<path d="M684.2,861.4l.6,1l30.5,-15l-.5,-1.1Z" class="gj_127"/>
<path d="M603.8,861.4l.5,1L636,846.8l-.5,-1Z" class="gj_127"/>
<path fill-rule="evenodd" d="M715.5,874.7l-30.6,15l.5,1l30.6,-15Z" class="gj_127"/>
<path d="M715.1,845.7l.6,.6v-.6Zm-79.4,0v1.2h79.4l.6,-.6l-.6,-.6Z" class="gj_127"/>
<path d="M714.5,875.7h1.2V846.3h-1.2v29.4Z" class="gj_127"/>
<path fill-rule="evenodd" d="M631.8,896.6l2,-.9h.2v7.6l.1,.2v.2h.1v.1h.1l.1,.1h.7v.3h-3.2v-.3h.7l.1,-.1h.1v-.1h.1v-.1l.1,-.1v-6.3l-.1,-.2v-.1l-.1,-.1v-.1h-.2l-.1,-.1v.1h-.3l-.1,.1h-.2Z" class="gj_127"/>
<path fill-rule="evenodd" d="M637.3,906.3V906l.1,-.1h.2l.1,-.1l.1,-.1h.2l.1,-.1l.1,-.1l.1,-.2v-.1l.1,-.1l.1,-.1v-.1l.1,-.1v-.6h-.3l-.1,.1h-.6v-.1h-.1l-.1,-.1V904h-.1v-.6l.1,-.1l.1,-.1l.1,-.1l.1,-.1h.2l.1,-.1h.2l.1,.1h.2l.1,.1l.1,.1l.1,.1l.1,.1v.1l.1,.1v.1l.1,.1v.9l-.1,.1l-.1,.2v.1l-.1,.2l-.1,.1l-.1,.1l-.2,.2l-.1,.1l-.2,.1l-.2,.1l-.2,.1l-.2,.1Z" class="gj_127"/>
<path fill-rule="evenodd" d="M645.5,902.6l-.5,1.6h-5v-.3l.6,-.4l.4,-.5l.5,-.4l.4,-.5l.3,-.3l.4,-.4l.2,-.4l.3,-.3l.1,-.1l.1,-.2l.1,-.2l.1,-.1l.1,-.2v-.1l.1,-.1l.1,-.2v-.1l.1,-.2v-.4l.1,-.1v-.5l-.1,-.2v-.3l-.1,-.2l-.1,-.1l-.1,-.2l-.1,-.1l-.1,-.1l-.2,-.1l-.1,-.1l-.1,-.1h-.2l-.1,-.1h-.8l-.2,.1h-.1l-.1,.1l-.2,.1l-.1,.1l-.1,.1l-.1,.1l-.1,.1l-.1,.1l-.1,.1l-.1,.2v.1l-.1,.2h-.2v-.4l.1,-.1v-.1l.1,-.2V897l.1,-.1l.1,-.1v-.1l.1,-.1v-.1l.1,-.1l.1,-.1h.1v-.1l.1,-.1h.1l.1,-.1l.1,-.1h.1l.1,-.1h.2l.1,-.1h1.4l.1,.1h.1l.1,.1h.1l.1,.1h.1l.1,.1l.1,.1h.1v.1l.1,.1l.1,.1l.1,.1l.1,.1l.1,.1v.1l.1,.1v.2l.1,.1v1.2l-.1,.1v.2l-.1,.2l-.1,.1l-.1,.3l-.1,.2l-.2,.3l-.2,.2l-.2,.3l-.2,.3l-.2,.2l-.2,.3l-.4,.4l-.3,.4l-.3,.3l-.3,.3l-.2,.2l-.2,.2l-.1,.1l-.2,.1h3.3l.1,-.1h.1l.1,-.1l.1,-.1l.1,-.1l.1,-.1l.1,-.1Z" class="gj_127"/>
<path fill-rule="evenodd" d="M724.3,856v1.2l.1,.4v.3l.1,.3l.1,.2v.3l.1,.1v.1l.1,.1v.1l.1,.1v.1l.1,.1l.1,.1l.1,.1h.1v.1h.8l.1,-.1h.1v-.1l.1,-.1h.1l.1,-.1l.1,-.1V859l.1,-.1l.1,-.1v-.2l.1,-.2v-.2l.1,-.3v-.4l.1,-.3v-.8l.1,-.5v-.8l-.1,-.3v-.6l-.1,-.3v-.3l-.1,-.3v-.2l-.1,-.2l-.1,-.2v-.1l-.1,-.1l-.1,-.1v-.2h-.1l-.1,-.1l-.1,-.1h-.1l-.1,-.1h-.6l-.1,.1h-.1l-.1,.1l-.1,.1H725l-.1,.2l-.1,.1l-.1,.2v.2l-.1,.2l-.1,.2v.3l-.1,.3v.5l-.1,.3v1Zm-1.2,-.1v-1.1l.1,-.3v-.3l.1,-.3l.1,-.2l.1,-.3l.1,-.2l.1,-.3l.2,-.2l.1,-.2l.1,-.2l.2,-.1l.1,-.1l.1,-.1l.1,-.1l.2,-.1l.1,-.1l.2,-.1h.1l.1,-.1h1l.1,.1h.1l.1,.1h.1l.1,.1h.1l.1,.1l.1,.1l.1,.1l.1,.1l.1,.1l.1,.1l.1,.2l.1,.2l.1,.1l.1,.2l.1,.2l.1,.2l.1,.2v.2l.1,.2v.2l.1,.2v.7l.1,.3v.6l-.1,.3v.7l-.1,.3l-.1,.3l-.1,.2l-.1,.3l-.1,.2l-.1,.3l-.1,.2l-.1,.2l-.2,.2l-.1,.1l-.2,.1l-.1,.2l-.2,.1l-.1,.1l-.2,.1h-.2l-.1,.1h-.9l-.1,-.1H725l-.1,-.1h-.1l-.2,-.1l-.1,-.1l-.1,-.1l-.1,-.1l-.1,-.2l-.2,-.1l-.1,-.1l-.1,-.2l-.1,-.2v-.1l-.1,-.2l-.1,-.1l-.1,-.2v-.2l-.1,-.1v-.2l-.1,-.2V857l-.1,-.1v-.8Z" class="gj_127"/>
<path fill-rule="evenodd" d="M729.6,862.1v-.3h.1l.2,-.1l.1,-.1l.2,-.1h.1l.1,-.1l.1,-.1l.1,-.1l.1,-.1v-.2l.1,-.1v-.1l.1,-.1V860h-.3l-.1,.1h-.1l-.1,.1h-.1l-.1,-.1h-.2l-.1,-.1l-.1,-.1v-.1h-.1v-.6l.1,-.1l.1,-.1l.1,-.1l.1,-.1h.8l.1,.1v.1h.1l.1,.1l.1,.1v.1l.1,.1v.1l.1,.1v.9l-.1,.2v.1l-.1,.1l-.1,.2l-.1,.1l-.1,.2l-.2,.1l-.1,.1l-.2,.1l-.2,.1l-.2,.1l-.2,.1Z" class="gj_127"/>
<path fill-rule="evenodd" d="M733.3,851.6h4.5v.3l-2.8,8.3h-.7l2.5,-7.6h-2.4l-.2,.1h-.5l-.1,.1h-.1l-.1,.1l-.1,.1l-.1,.1l-.1,.1l-.1,.1l-.1,.1l-.1,.1l-.1,.2l-.2,-.1Z" class="gj_127"/>
<path fill-rule="evenodd" d="M703.2,890v.4l.1,.4v.8l.1,.3l.1,.3v.3l.1,.2v.1l.1,.1v.1l.1,.1l.1,.1v.1l.1,.1l.1,.1l.1,.1h.1l.1,.1h.6l.1,-.1h.1l.1,-.1l.1,-.1h.1l.1,-.1v-.1l.1,-.2l.1,-.1v-.1l.1,-.2v-.2l.1,-.2l.1,-.3v-.7l.1,-.4v-2.4l-.1,-.3v-.5l-.1,-.3l-.1,-.2v-.2l-.1,-.2l-.1,-.1v-.1l-.1,-.2l-.1,-.1l-.1,-.1h-.1V886h-.1l-.1,-.1h-.7l-.1,.1h-.1v.1l-.1,.1H704l-.1,.2l-.1,.1l-.1,.2l-.1,.2l-.1,.2v.2l-.1,.3v.2l-.1,.3v1.1l-.1,.3v.2Zm-1.2,-.1v-.7l.1,-.4v-.3l.1,-.3l.1,-.3v-.2l.1,-.3l.2,-.3l.1,-.2l.1,-.2l.2,-.2l.1,-.2l.2,-.2l.1,-.1l.1,-.1h.1l.1,-.1l.2,-.1l.1,-.1h.2l.1,-.1h.9l.1,.1h.2l.1,.1l.2,.1h.1l.1,.1l.1,.1l.1,.1l.1,.1l.1,.1l.1,.1l.1,.2l.1,.2l.1,.1l.1,.2l.1,.2v.2l.1,.2l.1,.2v.2l.1,.2v.2l.1,.2v2.1l-.1,.3v.3l-.1,.3l-.1,.2l-.1,.3l-.1,.2l-.1,.3l-.2,.2l-.1,.2l-.1,.1l-.2,.2l-.1,.1l-.2,.2l-.1,.1l-.2,.1h-.2l-.1,.1l-.2,.1h-.9l-.1,-.1H704l-.2,-.1h-.1l-.1,-.1l-.1,-.1l-.2,-.1l-.1,-.2l-.1,-.1l-.1,-.1l-.1,-.2l-.1,-.1l-.1,-.2l-.1,-.1l-.1,-.2v-.1l-.1,-.2l-.1,-.2v-.1l-.1,-.2v-.2l-.1,-.2v-.5l-.1,-.2v-.4Z" class="gj_127"/>
<path fill-rule="evenodd" d="M708.5,896.1v-.3l.2,-.1h.1l.2,-.1l.1,-.1h.1l.1,-.1l.1,-.1l.1,-.1l.1,-.2l.1,-.1v-.1l.1,-.1v-.2l.1,-.2v-.2h-.1V894h-.3l-.1,.1h-.5l-.1,-.1h-.1v-.1h-.1v-.3h-.1v-.2l.1,-.1v-.2h.1V893h.1v-.1h.1l.1,-.1h.2l.1,-.1l.1,.1h.3l.1,.1h.1l.1,.1l.1,.1v.1l.1,.1l.1,.1v.2l.1,.2v.4l-.1,.1v.3l-.1,.2l-.1,.1l-.1,.2l-.1,.1l-.1,.1l-.1,.2l-.2,.1l-.1,.1l-.2,.1l-.2,.1l-.2,.1Z" class="gj_127"/>
<path fill-rule="evenodd" d="M714.7,890.9v-4.1l-2.9,4.1Zm2.2,0v.9h-1.1V894h-1.1v-2.2h-3.5V891l3.9,-5.5h.7v5.4Z" class="gj_127"/>
</svg>
