<?xml version="1.0" encoding="UTF-8" standalone="no"?>
<!DOCTYPE svg PUBLIC "-//W3C//DTD SVG 1.1//EN"
"http://www.w3.org/Graphics/SVG/1.1/DTD/svg11.dtd">
<svg viewBox="0 0 909 1147" version="1.1" xmlns="http://www.w3.org/2000/svg" xmlns:xlink="http://www.w3.org/1999/xlink">
<defs>
<clipPath id="c0_111"><path d="M140.8,398.7v-18H171v18Z"/></clipPath>
<style type="text/css"><![CDATA[
.g0_111{
fill: #E7A9A1;
}
.g1_111{
fill: #E7EFC1;
}
.g2_111{
fill: none;
stroke: #000;
stroke-width: 1.077;
stroke-linejoin: round;
}
.g3_111{
fill: none;
stroke: #000;
stroke-width: 1.077;
stroke-linejoin: round;
stroke-dasharray: 6,4;
}
.g4_111{
fill: none;
stroke: #87AC3F;
stroke-width: 0.77;
stroke-linejoin: round;
}
.g5_111{
fill: none;
stroke: #9CB33A;
stroke-width: 0.77;
stroke-linejoin: round;
}
.g6_111{
fill: none;
stroke: #000;
stroke-width: 0.763;
}
.g7_111{
fill: none;
stroke: #0EA5DF;
stroke-width: 3.055;
}
.g8_111{
fill: #0EA5DF;
}
.g9_111{
fill: #FFF;
}
.ga_111{
fill: #FFF1E0;
}
.gb_111{
fill: #E8F1FA;
}
]]></style>
</defs>
<path d="M835.8,1131h73.6v-51.5H835.8V1131Z" class="g0_111"/>
<path d="M343.7,553.3l-42.4,49.3l-.3,87.1h88.2l42.4,-50.1V553.3Z" class="g1_111"/>
<path d="M207.6,621.8l-21.1,24.6l-.1,43.5h43.9l21.1,-25V621.8Z" class="g1_111"/>
<path d="M186.5,646.3h43.6v43.6H186.5V646.3Z" class="g2_111"/>
<path d="M251.5,665.1H207.9m-.3,0V621.5" class="g3_111"/>
<path d="M186.5,646.4l21.3,-24.7m22.3,24.7l21.3,-24.7M230.1,690l21.3,-24.7M207.9,621.5h43.6v43.6" class="g2_111"/>
<path d="M431.3,640.2H344.1m0,0V553.1M186.3,690l21.3,-24.7" class="g3_111"/>
<path d="M301.5,602.5l42.7,-49.4m44.5,49.7l42.6,-49.4m-87.2,-.3h87.2v87.1" class="g2_111"/>
<path d="M301.3,690L344,640.6" class="g3_111"/>
<path d="M345.4,646.2L387.6,597m-64.8,24.1h88m-44.4,-44v88m44.1,-.3H322.9V577.6h87.6v87.2ZM344.1,596.7h86.6m-86.6,-.1l-42.4,49.5h87.2l42.4,-49.2M387.4,553.4v86.7m-.2,-86.9l-41.7,49.5v86.7l41.7,-49.5" class="g4_111"/>
<path d="M388.7,690l42.6,-49.4M301.5,602.3h87.2v87.2H301.5V602.3Z" class="g2_111"/>
<path d="M561.7,552.1l-42.3,49.3l-.2,87H607l42.2,-50.1V552.1Z" class="g1_111"/>
<path d="M519.4,601.1h87.2v87.2H519.4V601.1Z" class="g2_111"/>
<path d="M649.5,638.7H562.3m-.8,0V551.5" class="g3_111"/>
<path d="M519.4,601.3L562,551.9m44.5,49.4l42.7,-49.4M606.5,688.4l42.7,-49.3M562.3,551.5h87.2v87.2" class="g2_111"/>
<path d="M519,688.4l42.7,-49.3" class="g3_111"/>
<path fill-rule="evenodd" d="M710.4,687.9h43.9l21.1,-25.3V619.3H731.6l-21.1,24.8Z" class="g1_111"/>
<path d="M796.1,638.7H708.9m0,0V551.5" class="g3_111"/>
<path d="M666.3,600.9L709,551.5m44.5,49.7l42.6,-49.3m-87.2,-.4h87.2v87.2" class="g2_111"/>
<path d="M666.1,688.4l42.7,-49.3" class="g3_111"/>
<path d="M710.1,644.7l42.2,-49.2m-64.7,24.1h87.9m-44.4,-44v87.9m44.1,-.2H687.7V576.1h87.5v87.2ZM708.8,595.2h86.7m-86.6,-.1l-42.4,49.5h87.1l42.5,-49.3M752.2,551.9v86.6M752,551.6l-41.8,49.6v86.6L752,638.4" class="g5_111"/>
<path d="M753.5,688.4l42.6,-49.3M666.3,600.8h87.2V688H666.3V600.8Z" class="g2_111"/>
<path d="M556.8,749.7h11.3m16.3,0h11.4m16.2,0h11.4m22,0h56m22.3,0h11.4" class="g6_111"/>
<path d="M74.6,60.7H836.8" class="g7_111"/>
<path d="M135.8,408h39.7V370.6H135.8V408Z" class="g8_111"/>
<path clip-path="url(#c0_111)" d="M156.1,393.1c-2.1,.2,-3.8,-1.5,-3.6,-3.6c.1,-1.7,1.5,-3.1,3.2,-3.2c2,-.1,3.7,1.6,3.6,3.6c-.1,1.8,-1.5,3.1,-3.2,3.2m.2,3c-3.8,.2,-7,-3,-6.8,-6.8c.2,-3.1,2.8,-5.7,6,-5.9c3.8,-.3,7,2.9,6.7,6.7c-.2,3.2,-2.8,5.8,-5.9,6m-.4,-15.4c-5.8,0,-11,3.2,-14.9,8.3c-.3,.4,-.3,1,0,1.4c3.9,5.2,9.1,8.3,14.9,8.3c5.7,0,11,-3.1,14.8,-8.3c.4,-.4,.4,-1,0,-1.4c-3.8,-5.1,-9.1,-8.3,-14.8,-8.3Z" class="g9_111"/>
<path d="M184.8,439.3h651V370.6h-651v68.7Z" class="ga_111"/>
<path d="M74.6,456.5H836.8" class="g7_111"/>
<path d="M184.2,1072.3H835.3v-265H184.2v265Z" class="gb_111"/>
<path d="M73.1,808.1H836.4" class="g7_111"/>
<path d="M725.4,705.3h11.4M765.5,689h11.3m22.4,-71.9h11.4" class="g6_111"/>
<path d="M74.7,487.4H182.1V457.3H74.7v30.1Z" class="g8_111"/>
</svg>