<?xml version="1.0" encoding="UTF-8" standalone="no"?>
<!DOCTYPE svg PUBLIC "-//W3C//DTD SVG 1.1//EN"
"http://www.w3.org/Graphics/SVG/1.1/DTD/svg11.dtd">
<svg viewBox="0 0 909 1147" version="1.1" xmlns="http://www.w3.org/2000/svg" xmlns:xlink="http://www.w3.org/1999/xlink">
<defs>
<clipPath id="c0_59"><path d="M624.1,521.8V336.9H835.8V521.8Z"/></clipPath>
<clipPath id="c1_59"><path d="M673.9,674.1V533.5H820.3V674.1Z"/></clipPath>
<clipPath id="c2_59"><path d="M242.5,1071.7V939.1H487.1v132.6Z"/></clipPath>
<clipPath id="c3_59"><path d="M545.6,887.4V735H817.4V887.4Z"/></clipPath>
<style type="text/css"><![CDATA[
.g0_59{
fill: #B6D774;
}
.g1_59{
fill: none;
stroke: #000;
stroke-width: 0.611;
stroke-miterlimit: 2;
}
.g2_59{
fill: #000;
}
.g3_59{
fill: none;
stroke: #000;
stroke-width: 0.152;
stroke-miterlimit: 2;
}
.g4_59{
fill: #FCD3C1;
}
.g5_59{
fill: none;
stroke: #FCD3C1;
stroke-width: 0.152;
stroke-miterlimit: 2;
}
.g6_59{
fill: #FFF;
}
.g7_59{
fill: none;
stroke: #FFF;
stroke-width: 0.152;
stroke-miterlimit: 2;
}
.g8_59{
fill: none;
stroke: #0EA5DF;
stroke-width: 3.055;
}
.g9_59{
fill: #E8F1FA;
}
.ga_59{
fill: none;
stroke: #008FD5;
stroke-width: 0.687;
stroke-miterlimit: 2;
}
.gb_59{
fill: #FFF;
stroke: #008FD5;
stroke-width: 0.687;
stroke-miterlimit: 2;
}
.gc_59{
fill: none;
stroke: #000;
stroke-width: 0.296;
stroke-miterlimit: 2;
}
.gd_59{
fill: none;
stroke: #000;
stroke-width: 1.375;
stroke-miterlimit: 2;
}
.ge_59{
fill: none;
stroke: #000;
stroke-width: 0.687;
stroke-miterlimit: 2;
}
.gf_59{
fill: none;
stroke: #000;
stroke-width: 1.385;
stroke-miterlimit: 2;
}
.gg_59{
fill: none;
stroke: #000;
stroke-width: 0.33;
stroke-miterlimit: 2;
}
.gh_59{
fill: none;
stroke: #000;
stroke-width: 0.763;
stroke-miterlimit: 2;
}
.gi_59{
fill: none;
stroke: #000;
stroke-width: 0.763;
stroke-miterlimit: 2;
stroke-dasharray: 7,7;
}
.gj_59{
fill: none;
stroke: #2E3092;
stroke-width: 0.763;
}
.gk_59{
fill: none;
stroke: #000;
stroke-width: 1.069;
}
.gl_59{
fill: #FFF1E0;
}
.gm_59{
fill: #0EA5DF;
}
]]></style>
</defs>
<path d="M835.8,1131h73.6v-51.5H835.8V1131Z" class="g0_59"/>
<path d="M652.1,429.3c.1,-8.3,4.2,-13.1,12.2,-14.3m91.6,14.4c.1,8.4,4.2,13.2,12.2,14.4" class="g1_59"/>
<path fill-rule="evenodd" d="M657.2,359.6l-2.8,3.9h2.4Zm1.4,-2.4l-.7,8.1c-.1,.4,-.1,.6,-.1,.8c0,.2,.1,.3,.1,.4c.1,.1,.2,.2,.4,.3c.1,.1,.4,.1,.8,.1l-.1,.3h-3.8l.1,-.3h.1c.3,0,.6,-.1,.8,-.2c.1,-.1,.2,-.2,.3,-.4c.1,-.2,.1,-.5,.1,-1.1l.2,-1.2H654l-1,1.3c-.2,.3,-.4,.5,-.4,.7c-.1,.1,-.1,.2,-.1,.3c0,.2,0,.3,.2,.4c.1,.1,.3,.2,.6,.2l-.1,.3h-2.9l.1,-.3c.4,0,.7,-.1,1,-.3c.2,-.3,.6,-.7,1.2,-1.5l5.8,-7.9Z" class="g2_59"/>
<path d="M657.2,359.6l-2.8,3.9h2.4l.4,-3.9Zm1.4,-2.4l-.7,8.1c-.1,.4,-.1,.6,-.1,.8c0,.2,.1,.3,.1,.4c.1,.1,.2,.2,.4,.3c.1,.1,.4,.1,.8,.1l-.1,.3h-3.8l.1,-.3h.1c.3,0,.6,-.1,.8,-.2c.1,-.1,.2,-.2,.3,-.4c.1,-.2,.1,-.5,.1,-1.1l.2,-1.2H654l-1,1.3c-.2,.3,-.4,.5,-.4,.7c-.1,.1,-.1,.2,-.1,.3c0,.2,0,.3,.2,.4c.1,.1,.3,.2,.6,.2l-.1,.3h-2.9l.1,-.3c.4,0,.7,-.1,1,-.3c.2,-.3,.6,-.7,1.2,-1.5l5.8,-7.9h.2Z" class="g3_59"/>
<path fill-rule="evenodd" d="M770.5,414.5l3,7.6l1.6,-5.7c.1,-.5,.2,-.8,.2,-1.1c0,-.2,-.1,-.3,-.2,-.4c-.1,-.1,-.4,-.1,-.7,-.1q-.1,0,-.2,-.1l.1,-.2h3.1l-.1,.2c-.3,0,-.5,.1,-.7,.1c-.2,.1,-.4,.3,-.5,.4c-.1,.3,-.3,.7,-.5,1.2l-2.2,8h-.3l-3.2,-8.2l-1.8,6.1c-.1,.4,-.1,.8,-.1,1c0,.2,0,.3,.1,.4c.1,.1,.4,.2,.9,.2l-.1,.3h-3.1l.1,-.3c.4,0,.7,0,.8,-.1c.2,-.1,.3,-.2,.4,-.3c.2,-.2,.3,-.6,.5,-1.2l1.9,-6.8c-.2,-.3,-.4,-.5,-.6,-.6c-.2,-.1,-.5,-.1,-1,-.2l.1,-.2Z" class="g2_59"/>
<path d="M770.5,414.5l3,7.6l1.6,-5.7c.1,-.5,.2,-.8,.2,-1.1c0,-.2,-.1,-.3,-.2,-.4c-.1,-.1,-.4,-.1,-.7,-.1q-.1,0,-.2,-.1l.1,-.2h3.1l-.1,.2c-.3,0,-.5,.1,-.7,.1c-.2,.1,-.4,.3,-.5,.4c-.1,.3,-.3,.7,-.5,1.2l-2.2,8h-.3l-3.2,-8.2l-1.8,6.1c-.1,.4,-.1,.8,-.1,1c0,.2,0,.3,.1,.4c.1,.1,.4,.2,.9,.2l-.1,.3h-3.1l.1,-.3c.4,0,.7,0,.8,-.1c.2,-.1,.3,-.2,.4,-.3c.2,-.2,.3,-.6,.5,-1.2l1.9,-6.8c-.2,-.3,-.4,-.5,-.6,-.6c-.2,-.1,-.5,-.1,-1,-.2l.1,-.2h2.5Z" class="g3_59"/>
<path fill-rule="evenodd" d="M663.9,433.9l.9,7.9l5.6,-7.9h2.4v.3c-.5,0,-.8,.1,-.9,.1c-.2,.1,-.3,.2,-.4,.4c-.2,.2,-.3,.5,-.5,1.1l-1.8,6.1c-.1,.4,-.1,.7,-.1,.9c0,.1,0,.3,.2,.4c.2,.1,.4,.2,.8,.2h.2l-.1,.3h-4v-.3h.2c.4,0,.7,-.1,.9,-.2c.1,0,.2,-.2,.3,-.4c.2,-.2,.3,-.7,.5,-1.4l1.6,-5.6l-5.6,7.9h-.3l-.9,-7.9l-1.8,6c-.1,.5,-.2,.8,-.2,1c0,.2,.1,.3,.2,.4c.1,.1,.5,.2,1,.2l-.1,.3h-3.2l.1,-.3h.2c.4,0,.8,-.1,1,-.4c.1,-.1,.3,-.5,.5,-1.1l2.1,-7.2c-.2,-.2,-.3,-.3,-.5,-.4c-.1,0,-.4,-.1,-.8,-.1l.1,-.3Z" class="g2_59"/>
<path d="M663.9,433.9l.9,7.9l5.6,-7.9h2.4v.3c-.5,0,-.8,.1,-.9,.1c-.2,.1,-.3,.2,-.4,.4c-.2,.2,-.3,.5,-.5,1.1l-1.8,6.1c-.1,.4,-.1,.7,-.1,.9c0,.1,0,.3,.2,.4c.2,.1,.4,.2,.8,.2h.2l-.1,.3h-4v-.3h.2c.4,0,.7,-.1,.9,-.2c.1,0,.2,-.2,.3,-.4c.2,-.2,.3,-.7,.5,-1.4l1.6,-5.6l-5.6,7.9h-.3l-.9,-7.9l-1.8,6c-.1,.5,-.2,.8,-.2,1c0,.2,.1,.3,.2,.4c.1,.1,.5,.2,1,.2l-.1,.3h-3.2l.1,-.3h.2c.4,0,.8,-.1,1,-.4c.1,-.1,.3,-.5,.5,-1.1l2.1,-7.2c-.2,-.2,-.3,-.3,-.5,-.4c-.1,0,-.4,-.1,-.8,-.1l.1,-.3h2.4Z" class="g3_59"/>
<path fill-rule="evenodd" d="M727.2,444.6c.5,.1,.9,.1,1.2,.1c.7,0,1.4,-.2,2,-.7c.5,-.4,.8,-1,.8,-1.8c0,-.6,-.2,-1,-.5,-1.4c-.4,-.3,-.9,-.5,-1.7,-.5c-.2,0,-.4,.1,-.6,.1Zm1.4,-4.8c.3,0,.5,0,.7,0c.9,0,1.7,-.2,2.2,-.6c.5,-.4,.7,-1,.7,-1.6c0,-.5,-.1,-.9,-.4,-1.2c-.3,-.2,-.8,-.4,-1.5,-.4c-.1,0,-.4,0,-.6,.1Zm-1.5,-4l.1,-.3h3.5c.6,0,1.1,.1,1.6,.3c.4,.2,.8,.4,1,.8c.2,.3,.3,.6,.3,1c0,.6,-.2,1.1,-.6,1.5c-.4,.5,-1,.8,-2,1c.6,.2,1.1,.5,1.3,.9c.3,.3,.5,.7,.5,1.2c0,.5,-.2,.9,-.4,1.4c-.3,.4,-.6,.7,-1,1c-.4,.2,-.8,.4,-1.4,.5c-.4,.1,-1,.1,-1.8,.1h-3.6l.1,-.2c.4,0,.6,-.1,.8,-.1c.2,-.1,.3,-.2,.4,-.3c.1,-.2,.2,-.6,.4,-1.3l1.8,-5.9c.1,-.5,.2,-.8,.2,-1c0,-.2,-.1,-.3,-.2,-.4c-.1,-.1,-.4,-.2,-.7,-.2c-.1,0,-.2,0,-.3,0Z" class="g2_59"/>
<path d="M727.2,444.6c.5,.1,.9,.1,1.2,.1c.7,0,1.4,-.2,2,-.7c.5,-.4,.8,-1,.8,-1.8c0,-.6,-.2,-1,-.5,-1.4c-.4,-.3,-.9,-.5,-1.7,-.5c-.2,0,-.4,.1,-.6,.1l-1.2,4.2Zm1.4,-4.8c.3,0,.5,0,.7,0c.9,0,1.7,-.2,2.2,-.6c.5,-.4,.7,-1,.7,-1.6c0,-.5,-.1,-.9,-.4,-1.2c-.3,-.2,-.8,-.4,-1.5,-.4c-.1,0,-.4,0,-.6,.1l-1.1,3.7Zm-1.5,-4l.1,-.3h3.5c.6,0,1.1,.1,1.6,.3c.4,.2,.8,.4,1,.8c.2,.3,.3,.6,.3,1c0,.6,-.2,1.1,-.6,1.5c-.4,.5,-1,.8,-2,1c.6,.2,1.1,.5,1.3,.9c.3,.3,.5,.7,.5,1.2c0,.5,-.2,.9,-.4,1.4c-.3,.4,-.6,.7,-1,1c-.4,.2,-.8,.4,-1.4,.5c-.4,.1,-1,.1,-1.8,.1h-3.6l.1,-.2c.4,0,.6,-.1,.8,-.1c.2,-.1,.3,-.2,.4,-.3c.1,-.2,.2,-.6,.4,-1.3l1.8,-5.9c.1,-.5,.2,-.8,.2,-1c0,-.2,-.1,-.3,-.2,-.4c-.1,-.1,-.4,-.2,-.7,-.2c-.1,0,-.2,0,-.3,0Z" class="g3_59"/>
<path fill-rule="evenodd" d="M763.2,459.9l-.7,3.1h-.3v-.8c0,-.3,-.1,-.5,-.2,-.7c-.1,-.3,-.2,-.4,-.4,-.6c-.1,-.2,-.4,-.3,-.6,-.4c-.3,-.1,-.6,-.1,-.9,-.1c-.9,0,-1.6,.2,-2.2,.7c-.9,.6,-1.5,1.4,-2,2.5c-.3,.9,-.5,1.8,-.5,2.7c0,1,.2,1.7,.8,2.3c.5,.5,1.3,.8,2.1,.8c.7,0,1.3,-.1,1.8,-.4c.5,-.3,1,-.8,1.4,-1.4h.4c-.5,.8,-1.1,1.4,-1.8,1.8c-.6,.4,-1.4,.6,-2.3,.6c-.8,0,-1.5,-.1,-2.1,-.5c-.6,-.3,-1,-.8,-1.4,-1.4c-.3,-.6,-.4,-1.2,-.4,-1.9c0,-1.1,.2,-2.1,.8,-3.1c.6,-1,1.4,-1.8,2.3,-2.4c1,-.5,2,-.8,3,-.8c.5,0,1,.1,1.6,.3c.3,.1,.5,.2,.6,.2c.1,0,.2,-.1,.3,-.1c.1,-.1,.2,-.2,.4,-.4Z" class="g2_59"/>
<path d="M763.2,459.9l-.7,3.1h-.3v-.8c0,-.3,-.1,-.5,-.2,-.7c-.1,-.3,-.2,-.4,-.4,-.6c-.1,-.2,-.4,-.3,-.6,-.4c-.3,-.1,-.6,-.1,-.9,-.1c-.9,0,-1.6,.2,-2.2,.7c-.9,.6,-1.5,1.4,-2,2.5c-.3,.9,-.5,1.8,-.5,2.7c0,1,.2,1.7,.8,2.3c.5,.5,1.3,.8,2.1,.8c.7,0,1.3,-.1,1.8,-.4c.5,-.3,1,-.8,1.4,-1.4h.4c-.5,.8,-1.1,1.4,-1.8,1.8c-.6,.4,-1.4,.6,-2.3,.6c-.8,0,-1.5,-.1,-2.1,-.5c-.6,-.3,-1,-.8,-1.4,-1.4c-.3,-.6,-.4,-1.2,-.4,-1.9c0,-1.1,.2,-2.1,.8,-3.1c.6,-1,1.4,-1.8,2.3,-2.4c1,-.5,2,-.8,3,-.8c.5,0,1,.1,1.6,.3c.3,.1,.5,.2,.6,.2c.1,0,.2,-.1,.3,-.1c.1,-.1,.2,-.2,.4,-.4h.3Z" class="g3_59"/>
<path fill-rule="evenodd" d="M658.1,425.1c0,-.6,.5,-1.1,1.1,-1.1c.6,0,1.1,.5,1.1,1.1c.1,.6,-.4,1.1,-1,1.1c-.6,0,-1.1,-.5,-1.2,-1.1Z" class="g2_59"/>
<path d="M658.1,425.1c0,-.6,.5,-1.1,1.1,-1.1c.6,0,1.1,.5,1.1,1.1c.1,.6,-.4,1.1,-1,1.1c-.6,0,-1.1,-.5,-1.2,-1.1Z" class="g1_59"/>
<path fill-rule="evenodd" d="M761.9,433.9c0,-.6,.5,-1.1,1.1,-1.1c.6,0,1.1,.5,1.1,1.1c0,.6,-.4,1.1,-1,1.1c-.6,0,-1.1,-.5,-1.2,-1.1Z" class="g2_59"/>
<path d="M761.9,433.9c0,-.6,.5,-1.1,1.1,-1.1c.6,0,1.1,.5,1.1,1.1c0,.6,-.4,1.1,-1,1.1c-.6,0,-1.1,-.5,-1.2,-1.1Z" class="g1_59"/>
<path fill-rule="evenodd" d="M665.3,428.1c.6,0,1.1,.5,1.1,1.1c0,.6,-.5,1.1,-1.1,1.1c-.6,0,-1.1,-.5,-1.1,-1.1c0,-.6,.5,-1.1,1.1,-1.1Z" class="g2_59"/>
<path d="M665.3,428.1c.6,0,1.1,.5,1.1,1.1c0,.6,-.5,1.1,-1.1,1.1c-.6,0,-1.1,-.5,-1.1,-1.1c0,-.6,.5,-1.1,1.1,-1.1Z" class="g1_59"/>
<path fill-rule="evenodd" d="M768.7,428.1c.6,0,1.1,.5,1.1,1.1c0,.6,-.5,1.1,-1.1,1.1c-.6,0,-1.1,-.5,-1.1,-1.1c0,-.6,.5,-1.1,1.1,-1.1Z" class="g2_59"/>
<path d="M768.7,428.1c.6,0,1.1,.5,1.1,1.1c0,.6,-.5,1.1,-1.1,1.1c-.6,0,-1.1,-.5,-1.1,-1.1c0,-.6,.5,-1.1,1.1,-1.1Z" class="g1_59"/>
<path fill-rule="evenodd" d="M729.6,428.1c.6,0,1.1,.5,1.1,1.1c0,.6,-.5,1.1,-1.1,1.1c-.6,0,-1.1,-.5,-1.1,-1.1c0,-.6,.5,-1.1,1.1,-1.1Z" class="g2_59"/>
<path d="M729.6,428.1c.6,0,1.1,.5,1.1,1.1c0,.6,-.5,1.1,-1.1,1.1c-.6,0,-1.1,-.5,-1.1,-1.1c0,-.6,.5,-1.1,1.1,-1.1Z" class="g1_59"/>
<path fill-rule="evenodd" d="M768.4,462.4c.6,0,1.1,.4,1.1,1.1c0,.6,-.5,1,-1.1,1c-.6,0,-1.1,-.4,-1.1,-1c0,-.7,.5,-1.1,1.1,-1.1Z" class="g2_59"/>
<path d="M768.4,462.4c.6,0,1.1,.4,1.1,1.1c0,.6,-.5,1,-1.1,1c-.6,0,-1.1,-.4,-1.1,-1c0,-.7,.5,-1.1,1.1,-1.1Z" class="g1_59"/>
<path fill-rule="evenodd" d="M665.1,359.7c.6,0,1.1,.5,1.1,1.1c0,.6,-.5,1.1,-1.1,1.1c-.6,0,-1.1,-.5,-1.1,-1.1c0,-.6,.5,-1.1,1.1,-1.1Z" class="g2_59"/>
<g clip-path="url(#c0_59)">
<path d="M665.1,359.7c.6,0,1.1,.5,1.1,1.1c0,.6,-.5,1.1,-1.1,1.1c-.6,0,-1.1,-.5,-1.1,-1.1c0,-.6,.5,-1.1,1.1,-1.1Zm-41,69.8H835.8" class="g1_59"/>
<path fill-rule="evenodd" d="M666.1,336.9l58.7,91.6H666.1Z" class="g4_59"/>
<path d="M666.1,336.9l58.7,91.6H666.1V336.9Z" class="g5_59"/>
</g>
<path fill-rule="evenodd" d="M674.8,367.9l33.3,51.9H674.8Z" class="g6_59"/>
<path d="M674.8,367.9l33.3,51.9H674.8V367.9Z" class="g7_59"/>
<path fill-rule="evenodd" d="M769.9,521.8l58.7,-91.6H769.9Z" class="g4_59"/>
<path d="M769.9,521.8l58.7,-91.6H769.9v91.6Z" class="g5_59"/>
<path fill-rule="evenodd" d="M778.6,490.9l33.3,-52H778.6Z" class="g6_59"/>
<path d="M778.6,490.9l33.3,-52H778.6v52Z" class="g7_59"/>
<path d="M664.9,360.2v69.3" class="g1_59"/>
<path fill-rule="evenodd" d="M630.3,433.9c-.3,0,-.7,.1,-1,.4c-.5,.4,-.9,1,-1.3,1.8c-.4,.8,-.6,1.5,-.6,2.2c0,.3,.1,.6,.3,.7c.1,.2,.3,.3,.5,.3c.5,0,1.1,-.4,1.7,-1.1c.8,-1,1.2,-2.1,1.2,-3.2c0,-.4,0,-.7,-.2,-.9c-.2,-.1,-.4,-.2,-.6,-.2m2.5,-.4l-1.4,4.9l-.1,.6q-.1,.1,-.1,.2c0,0,.1,.1,.1,.2c0,0,.1,0,.1,0c.1,0,.2,0,.3,-.1c.2,-.1,.4,-.4,.7,-.8l.3,.1c-.4,.5,-.7,.9,-1,1.2c-.4,.2,-.7,.4,-1,.4c-.2,0,-.4,-.1,-.5,-.2c-.1,-.1,-.1,-.2,-.1,-.4c0,-.3,0,-.6,.1,-1l.2,-.5c-.6,.8,-1.2,1.4,-1.7,1.7c-.4,.2,-.8,.4,-1.1,.4c-.4,0,-.7,-.2,-1,-.5c-.2,-.3,-.3,-.7,-.3,-1.2c0,-.7,.2,-1.5,.7,-2.4c.4,-.8,1,-1.5,1.7,-2c.5,-.4,1.1,-.6,1.5,-.6c.3,0,.6,.1,.8,.2c.2,.2,.3,.4,.4,.8l.3,-.8Z" class="g2_59"/>
<path d="M768.4,463.4V428.8M777.7,606c-1.9,-7.1,1.4,-12.4,9.9,-16" class="g1_59"/>
<path fill-rule="evenodd" d="M684,659.9l-.7,8.1c-.1,.3,-.1,.6,-.1,.7c0,.2,.1,.3,.1,.4c.1,.2,.2,.3,.4,.4c.2,0,.4,.1,.8,.1l-.1,.2h-3.8l.1,-.2h.1c.3,0,.6,-.1,.8,-.2c.1,-.1,.2,-.3,.3,-.5c.1,-.1,.1,-.5,.2,-1l.1,-1.3h-2.8l-1,1.4c-.2,.3,-.4,.5,-.4,.6c-.1,.1,-.1,.3,-.1,.4c0,.1,.1,.3,.2,.4c.1,.1,.3,.1,.6,.2l-.1,.2h-2.9l.1,-.2c.4,-.1,.7,-.2,1,-.4c.2,-.2,.6,-.7,1.2,-1.4l5.8,-7.9Zm-1.4,2.4l-2.8,3.8h2.4Z" class="g2_59"/>
<path d="M684,659.9l-.7,8.1c-.1,.3,-.1,.6,-.1,.7c0,.2,.1,.3,.1,.4c.1,.2,.2,.3,.4,.4c.2,0,.4,.1,.8,.1l-.1,.2h-3.8l.1,-.2h.1c.3,0,.6,-.1,.8,-.2c.1,-.1,.2,-.3,.3,-.5c.1,-.1,.1,-.5,.2,-1l.1,-1.3h-2.8l-1,1.4c-.2,.3,-.4,.5,-.4,.6c-.1,.1,-.1,.3,-.1,.4c0,.1,.1,.3,.2,.4c.1,.1,.3,.1,.6,.2l-.1,.2h-2.9l.1,-.2c.4,-.1,.7,-.2,1,-.4c.2,-.2,.6,-.7,1.2,-1.4l5.8,-7.9h.2Zm-1.4,2.4l-2.8,3.8h2.4l.4,-3.8Z" class="g3_59"/>
<path fill-rule="evenodd" d="M784.9,536.7l-.8,3.2h-.2v-.8c-.1,-.3,-.1,-.6,-.2,-.8c-.1,-.2,-.2,-.4,-.4,-.6c-.2,-.1,-.4,-.3,-.6,-.3c-.3,-.1,-.6,-.2,-.9,-.2c-.9,0,-1.6,.2,-2.3,.7c-.8,.6,-1.4,1.5,-1.9,2.5c-.4,.9,-.6,1.8,-.6,2.8c0,.9,.3,1.7,.9,2.2c.5,.6,1.2,.9,2.1,.9c.7,0,1.3,-.2,1.8,-.5c.5,-.3,1,-.7,1.4,-1.3h.4c-.6,.8,-1.1,1.4,-1.8,1.8c-.6,.4,-1.4,.6,-2.3,.6c-.8,0,-1.5,-.2,-2.1,-.5c-.6,-.3,-1.1,-.8,-1.4,-1.4c-.3,-.6,-.5,-1.3,-.5,-2c0,-1,.3,-2,.9,-3c.6,-1,1.3,-1.8,2.3,-2.4c1,-.6,2,-.9,3,-.9c.5,0,1,.1,1.6,.4c.3,.1,.5,.1,.6,.1c.1,0,.2,0,.3,-.1c.1,0,.2,-.1,.4,-.4Z" class="g2_59"/>
<path d="M784.9,536.7l-.8,3.2h-.2v-.8c-.1,-.3,-.1,-.6,-.2,-.8c-.1,-.2,-.2,-.4,-.4,-.6c-.2,-.1,-.4,-.3,-.6,-.3c-.3,-.1,-.6,-.2,-.9,-.2c-.9,0,-1.6,.2,-2.3,.7c-.8,.6,-1.4,1.5,-1.9,2.5c-.4,.9,-.6,1.8,-.6,2.8c0,.9,.3,1.7,.9,2.2c.5,.6,1.2,.9,2.1,.9c.7,0,1.3,-.2,1.8,-.5c.5,-.3,1,-.7,1.4,-1.3h.4c-.6,.8,-1.1,1.4,-1.8,1.8c-.6,.4,-1.4,.6,-2.3,.6c-.8,0,-1.5,-.2,-2.1,-.5c-.6,-.3,-1.1,-.8,-1.4,-1.4c-.3,-.6,-.5,-1.3,-.5,-2c0,-1,.3,-2,.9,-3c.6,-1,1.3,-1.8,2.3,-2.4c1,-.6,2,-.9,3,-.9c.5,0,1,.1,1.6,.4c.3,.1,.5,.1,.6,.1c.1,0,.2,0,.3,-.1c.1,0,.2,-.1,.4,-.4h.3Z" class="g3_59"/>
<path fill-rule="evenodd" d="M748.3,597.9l.9,7.8l5.6,-7.8h2.4v.3c-.5,0,-.8,.1,-.9,.1c-.2,.1,-.3,.2,-.4,.4c-.2,.2,-.3,.5,-.5,1l-1.8,6.2c-.1,.4,-.1,.6,-.1,.8c0,.2,0,.4,.2,.5c.2,.1,.4,.2,.8,.2h.2l-.1,.2h-4v-.2h.2c.4,0,.7,-.1,.8,-.2c.2,-.1,.3,-.2,.4,-.4c.2,-.2,.3,-.7,.5,-1.4l1.6,-5.7l-5.6,7.9h-.3l-.9,-7.9l-1.8,6c-.1,.6,-.2,.9,-.2,1.1c0,.2,.1,.3,.2,.4c.1,.1,.5,.1,1,.2l-.1,.2h-3.2l.1,-.2h.1c.5,0,.9,-.1,1.1,-.4c.1,-.2,.3,-.5,.5,-1.1l2.1,-7.2c-.2,-.2,-.3,-.3,-.5,-.4c-.1,0,-.4,-.1,-.8,-.1l.1,-.3Z" class="g2_59"/>
<path d="M748.3,597.9l.9,7.8l5.6,-7.8h2.4v.3c-.5,0,-.8,.1,-.9,.1c-.2,.1,-.3,.2,-.4,.4c-.2,.2,-.3,.5,-.5,1l-1.8,6.2c-.1,.4,-.1,.6,-.1,.8c0,.2,0,.4,.2,.5c.2,.1,.4,.2,.8,.2h.2l-.1,.2h-4v-.2h.2c.4,0,.7,-.1,.8,-.2c.2,-.1,.3,-.2,.4,-.4c.2,-.2,.3,-.7,.5,-1.4l1.6,-5.7l-5.6,7.9h-.3l-.9,-7.9l-1.8,6c-.1,.6,-.2,.9,-.2,1.1c0,.2,.1,.3,.2,.4c.1,.1,.5,.1,1,.2l-.1,.2h-3.2l.1,-.2h.1c.5,0,.9,-.1,1.1,-.4c.1,-.2,.3,-.5,.5,-1.1l2.1,-7.2c-.2,-.2,-.3,-.3,-.5,-.4c-.1,0,-.4,-.1,-.8,-.1l.1,-.3h2.4Z" class="g3_59"/>
<path fill-rule="evenodd" d="M800.5,594.3l3,7.6l1.6,-5.7c.2,-.5,.2,-.8,.2,-1.1c0,-.2,0,-.3,-.2,-.4c-.1,-.1,-.3,-.2,-.7,-.2c0,0,-.1,0,-.1,0v-.2h3.2l-.1,.2c-.3,0,-.6,.1,-.7,.1c-.3,.1,-.4,.3,-.5,.4c-.2,.3,-.3,.6,-.5,1.2l-2.3,8h-.2L799.9,596l-1.7,6.1c-.1,.4,-.2,.8,-.2,1c0,.2,.1,.3,.2,.4c.1,.1,.4,.2,.8,.2l-.1,.3h-3l.1,-.3c.4,0,.6,0,.8,-.1c.2,-.1,.3,-.2,.4,-.3c.1,-.2,.3,-.6,.5,-1.2l1.9,-6.8c-.2,-.3,-.4,-.5,-.6,-.6c-.2,-.1,-.6,-.1,-1,-.2l.1,-.2Z" class="g2_59"/>
<path d="M800.5,594.3l3,7.6l1.6,-5.7c.2,-.5,.2,-.8,.2,-1.1c0,-.2,0,-.3,-.2,-.4c-.1,-.1,-.3,-.2,-.7,-.2c0,0,-.1,0,-.1,0v-.2h3.2l-.1,.2c-.3,0,-.6,.1,-.7,.1c-.3,.1,-.4,.3,-.5,.4c-.2,.3,-.3,.6,-.5,1.2l-2.3,8h-.2L799.9,596l-1.7,6.1c-.1,.4,-.2,.8,-.2,1c0,.2,.1,.3,.2,.4c.1,.1,.4,.2,.8,.2l-.1,.3h-3l.1,-.3c.4,0,.6,0,.8,-.1c.2,-.1,.3,-.2,.4,-.3c.1,-.2,.3,-.6,.5,-1.2l1.9,-6.8c-.2,-.3,-.4,-.5,-.6,-.6c-.2,-.1,-.6,-.1,-1,-.2l.1,-.2h2.4Z" class="g3_59"/>
<path fill-rule="evenodd" d="M812.6,659.3l.1,-.2h3.4c.6,0,1.1,0,1.6,.2c.5,.2,.8,.5,1,.8c.2,.3,.4,.7,.4,1c0,.6,-.2,1.1,-.6,1.5c-.4,.5,-1.1,.8,-2,1c.6,.2,1,.5,1.3,.9c.3,.4,.4,.8,.4,1.2c0,.5,-.1,.9,-.4,1.4c-.2,.4,-.5,.8,-.9,1c-.4,.2,-.9,.4,-1.4,.5c-.4,.1,-1,.2,-1.9,.2h-3.5l.1,-.3c.3,0,.6,0,.7,-.1c.2,-.1,.3,-.2,.4,-.3c.1,-.2,.3,-.6,.5,-1.3l1.7,-5.9c.2,-.5,.2,-.8,.2,-1c0,-.2,0,-.3,-.1,-.4c-.2,-.1,-.4,-.2,-.8,-.2c-.1,0,-.2,0,-.2,0m1.4,4c.3,.1,.6,.1,.7,.1c1,0,1.7,-.3,2.2,-.7c.5,-.4,.7,-1,.7,-1.6c0,-.5,-.1,-.9,-.4,-1.2c-.3,-.2,-.8,-.4,-1.4,-.4c-.2,0,-.4,.1,-.7,.1Zm-1.4,4.8c.5,.1,.9,.1,1.2,.1c.8,0,1.4,-.2,2,-.6c.6,-.5,.9,-1.1,.9,-1.9c0,-.6,-.2,-1,-.6,-1.3c-.3,-.4,-.9,-.5,-1.7,-.5c-.1,0,-.3,0,-.5,0Z" class="g2_59"/>
<path d="M812.6,659.3l.1,-.2h3.4c.6,0,1.1,0,1.6,.2c.5,.2,.8,.5,1,.8c.2,.3,.4,.7,.4,1c0,.6,-.2,1.1,-.6,1.5c-.4,.5,-1.1,.8,-2,1c.6,.2,1,.5,1.3,.9c.3,.4,.4,.8,.4,1.2c0,.5,-.1,.9,-.4,1.4c-.2,.4,-.5,.8,-.9,1c-.4,.2,-.9,.4,-1.4,.5c-.4,.1,-1,.2,-1.9,.2h-3.5l.1,-.3c.3,0,.6,0,.7,-.1c.2,-.1,.3,-.2,.4,-.3c.1,-.2,.3,-.6,.5,-1.3l1.7,-5.9c.2,-.5,.2,-.8,.2,-1c0,-.2,0,-.3,-.1,-.4c-.2,-.1,-.4,-.2,-.8,-.2c-.1,0,-.2,0,-.2,0Zm1.4,4c.3,.1,.6,.1,.7,.1c1,0,1.7,-.3,2.2,-.7c.5,-.4,.7,-1,.7,-1.6c0,-.5,-.1,-.9,-.4,-1.2c-.3,-.2,-.8,-.4,-1.4,-.4c-.2,0,-.4,.1,-.7,.1l-1.1,3.7Zm-1.4,4.8c.5,.1,.9,.1,1.2,.1c.8,0,1.4,-.2,2,-.6c.6,-.5,.9,-1.1,.9,-1.9c0,-.6,-.2,-1,-.6,-1.3c-.3,-.4,-.9,-.5,-1.7,-.5c-.1,0,-.3,0,-.5,0l-1.3,4.2Z" class="g3_59"/>
<path fill-rule="evenodd" d="M748.5,614.9c0,-1,.8,-1.8,1.8,-1.8c.9,-.1,1.8,.7,1.8,1.7c0,1,-.8,1.9,-1.8,1.9c-1,0,-1.8,-.8,-1.8,-1.8Z" class="g2_59"/>
<path d="M748.5,614.9c0,-1,.8,-1.8,1.8,-1.8c.9,-.1,1.8,.7,1.8,1.7c0,1,-.8,1.9,-1.8,1.9c-1,0,-1.8,-.8,-1.8,-1.8Z" class="g1_59"/>
<path fill-rule="evenodd" d="M783.4,599.6c-.3,-.8,.1,-1.5,.9,-1.8c.7,-.2,1.5,.2,1.7,.9c.2,.7,-.2,1.5,-.9,1.8c-.7,.2,-1.5,-.2,-1.7,-.9Z" class="g2_59"/>
<path d="M783.4,599.6c-.3,-.8,.1,-1.5,.9,-1.8c.7,-.2,1.5,.2,1.7,.9c.2,.7,-.2,1.5,-.9,1.8c-.7,.2,-1.5,-.2,-1.7,-.9Z" class="g3_59"/>
<path clip-path="url(#c1_59)" d="M688.3,660.4L775.2,549.6l33.3,110.8H688.3Zm-153.4,0L621.8,549.6l33.3,110.8H534.9ZM749.8,614.8l41.3,-12.3" class="g1_59"/>
<path fill-rule="evenodd" d="M711.2,628.7l95,26.7L790.7,604.5Z" class="g4_59"/>
<path d="M711.2,628.7l95,26.7L790.7,604.5l-79.5,24.2Z" class="g5_59"/>
<path fill-rule="evenodd" d="M740.3,628.1l53.9,15.2l-8.8,-28.9Z" class="g6_59"/>
<path d="M740.3,628.1l53.9,15.2l-8.8,-28.9l-45.1,13.7Z" class="g7_59"/>
<path d="M73.8,329.8H836" class="g8_59"/>
<path d="M185.1,1078.7H835.8V682.4H185.1v396.3Z" class="g9_59"/>
<path d="M73.6,678.7H835.8" class="g8_59"/>
<path d="M232.1,777.1h18.1V758.9H232.1v18.2Z" class="g6_59"/>
<path d="M232.1,758.9h18.1v18.2H232.1V758.9Z" class="ga_59"/>
<path d="M232.1,795.3h18.1V777.1H232.1v18.2Z" class="g6_59"/>
<path d="M232.1,777.1h18.1v18.2H232.1V777.1Z" class="ga_59"/>
<path d="M232.1,813.4h18.1V795.3H232.1v18.1Z" class="g6_59"/>
<path d="M232.1,795.3h18.1v18.1H232.1V795.3Z" class="ga_59"/>
<path d="M232.1,831.6h18.1V813.4H232.1v18.2Z" class="g6_59"/>
<path d="M232.1,813.4h18.1v18.2H232.1V813.4Z" class="ga_59"/>
<path d="M232.1,849.8h18.1V831.6H232.1v18.2Z" class="g6_59"/>
<path d="M232.1,831.6h18.1v18.2H232.1V831.6Z" class="ga_59"/>
<path d="M232.1,868h18.1V849.8H232.1V868Z" class="g6_59"/>
<path d="M232.1,849.8h18.1V868H232.1V849.8Z" class="ga_59"/>
<path d="M232.1,886.2h18.1V868H232.1v18.2Z" class="g6_59"/>
<path d="M232.1,868h18.1v18.2H232.1V868Z" class="ga_59"/>
<path d="M250.2,777.1h18.2V758.9H250.2v18.2Z" class="g6_59"/>
<path d="M250.2,758.9h18.2v18.2H250.2V758.9Z" class="ga_59"/>
<path fill-rule="evenodd" d="M250.2,777.1h18.2v18.2H250.2V777.1Z" class="gb_59"/>
<path fill-rule="evenodd" d="M250.2,795.3h18.2v18.1H250.2V795.3Z" class="gb_59"/>
<path fill-rule="evenodd" d="M250.2,813.4h18.2v18.2H250.2V813.4Z" class="gb_59"/>
<path fill-rule="evenodd" d="M250.2,831.6h18.2v18.2H250.2V831.6Z" class="gb_59"/>
<path fill-rule="evenodd" d="M250.2,849.8h18.2V868H250.2V849.8Z" class="gb_59"/>
<path fill-rule="evenodd" d="M250.2,868h18.2v18.2H250.2V868Z" class="gb_59"/>
<path d="M268.4,777.1h18.2V758.9H268.4v18.2Z" class="g6_59"/>
<path d="M268.4,758.9h18.2v18.2H268.4V758.9Z" class="ga_59"/>
<path fill-rule="evenodd" d="M268.4,777.1h18.2v18.2H268.4V777.1Z" class="gb_59"/>
<path fill-rule="evenodd" d="M268.4,795.3h18.2v18.1H268.4V795.3Z" class="gb_59"/>
<path fill-rule="evenodd" d="M268.4,813.4h18.2v18.2H268.4V813.4Z" class="gb_59"/>
<path fill-rule="evenodd" d="M268.4,831.6h18.2v18.2H268.4V831.6Z" class="gb_59"/>
<path fill-rule="evenodd" d="M268.4,849.8h18.2V868H268.4V849.8Z" class="gb_59"/>
<path fill-rule="evenodd" d="M268.4,868h18.2v18.2H268.4V868Z" class="gb_59"/>
<path d="M286.6,777.1h18.2V758.9H286.6v18.2Z" class="g6_59"/>
<path d="M286.6,758.9h18.2v18.2H286.6V758.9Z" class="ga_59"/>
<path fill-rule="evenodd" d="M286.6,777.1h18.2v18.2H286.6V777.1Z" class="gb_59"/>
<path fill-rule="evenodd" d="M286.6,795.3h18.2v18.1H286.6V795.3Z" class="gb_59"/>
<path fill-rule="evenodd" d="M286.6,813.4h18.2v18.2H286.6V813.4Z" class="gb_59"/>
<path fill-rule="evenodd" d="M286.6,831.6h18.2v18.2H286.6V831.6Z" class="gb_59"/>
<path fill-rule="evenodd" d="M286.6,849.8h18.2V868H286.6V849.8Z" class="gb_59"/>
<path fill-rule="evenodd" d="M286.6,868h18.2v18.2H286.6V868Z" class="gb_59"/>
<path d="M304.8,777.1H323V758.9H304.8v18.2Z" class="g6_59"/>
<path d="M304.8,758.9H323v18.2H304.8V758.9Z" class="ga_59"/>
<path fill-rule="evenodd" d="M304.8,777.1H323v18.2H304.8V777.1Z" class="gb_59"/>
<path fill-rule="evenodd" d="M304.8,795.3H323v18.1H304.8V795.3Z" class="gb_59"/>
<path fill-rule="evenodd" d="M304.8,813.4H323v18.2H304.8V813.4Z" class="gb_59"/>
<path fill-rule="evenodd" d="M304.8,831.6H323v18.2H304.8V831.6Z" class="gb_59"/>
<path fill-rule="evenodd" d="M304.8,849.8H323V868H304.8V849.8Z" class="gb_59"/>
<path fill-rule="evenodd" d="M304.8,868H323v18.2H304.8V868Z" class="gb_59"/>
<path d="M323,777.1h18.1V758.9H323v18.2Z" class="g6_59"/>
<path d="M323,758.9h18.1v18.2H323V758.9Z" class="ga_59"/>
<path fill-rule="evenodd" d="M323,777.1h18.1v18.2H323V777.1Z" class="gb_59"/>
<path fill-rule="evenodd" d="M323,795.3h18.1v18.1H323V795.3Z" class="gb_59"/>
<path fill-rule="evenodd" d="M323,813.4h18.1v18.2H323V813.4Z" class="gb_59"/>
<path fill-rule="evenodd" d="M323,831.6h18.1v18.2H323V831.6Z" class="gb_59"/>
<path fill-rule="evenodd" d="M323,849.8h18.1V868H323V849.8Z" class="gb_59"/>
<path fill-rule="evenodd" d="M323,868h18.1v18.2H323V868Z" class="gb_59"/>
<path d="M341.1,777.1h18.2V758.9H341.1v18.2Z" class="g6_59"/>
<path d="M341.1,758.9h18.2v18.2H341.1V758.9Z" class="ga_59"/>
<path fill-rule="evenodd" d="M341.1,777.1h18.2v18.2H341.1V777.1Z" class="gb_59"/>
<path fill-rule="evenodd" d="M341.1,795.3h18.2v18.1H341.1V795.3Z" class="gb_59"/>
<path fill-rule="evenodd" d="M341.1,813.4h18.2v18.2H341.1V813.4Z" class="gb_59"/>
<path fill-rule="evenodd" d="M341.1,831.6h18.2v18.2H341.1V831.6Z" class="gb_59"/>
<path fill-rule="evenodd" d="M341.1,849.8h18.2V868H341.1V849.8Z" class="gb_59"/>
<path fill-rule="evenodd" d="M341.1,868h18.2v18.2H341.1V868Z" class="gb_59"/>
<path d="M359.3,777.1h18.2V758.9H359.3v18.2Z" class="g6_59"/>
<path d="M359.3,758.9h18.2v18.2H359.3V758.9Z" class="ga_59"/>
<path fill-rule="evenodd" d="M359.3,777.1h18.2v18.2H359.3V777.1Z" class="gb_59"/>
<path fill-rule="evenodd" d="M359.3,795.3h18.2v18.1H359.3V795.3Z" class="gb_59"/>
<path fill-rule="evenodd" d="M359.3,813.4h18.2v18.2H359.3V813.4Z" class="gb_59"/>
<path fill-rule="evenodd" d="M359.3,831.6h18.2v18.2H359.3V831.6Z" class="gb_59"/>
<path fill-rule="evenodd" d="M359.3,849.8h18.2V868H359.3V849.8Z" class="gb_59"/>
<path fill-rule="evenodd" d="M359.3,868h18.2v18.2H359.3V868Z" class="gb_59"/>
<path d="M377.5,777.1h18.2V758.9H377.5v18.2Z" class="g6_59"/>
<path d="M377.5,758.9h18.2v18.2H377.5V758.9Z" class="ga_59"/>
<path fill-rule="evenodd" d="M377.5,777.1h18.2v18.2H377.5V777.1Z" class="gb_59"/>
<path fill-rule="evenodd" d="M377.5,795.3h18.2v18.1H377.5V795.3Z" class="gb_59"/>
<path fill-rule="evenodd" d="M377.5,813.4h18.2v18.2H377.5V813.4Z" class="gb_59"/>
<path fill-rule="evenodd" d="M377.5,831.6h18.2v18.2H377.5V831.6Z" class="gb_59"/>
<path fill-rule="evenodd" d="M377.5,849.8h18.2V868H377.5V849.8Z" class="gb_59"/>
<path fill-rule="evenodd" d="M377.5,868h18.2v18.2H377.5V868Z" class="gb_59"/>
<path d="M395.7,777.1h18.2V758.9H395.7v18.2Z" class="g6_59"/>
<path d="M395.7,758.9h18.2v18.2H395.7V758.9Z" class="ga_59"/>
<path fill-rule="evenodd" d="M395.7,777.1h18.2v18.2H395.7V777.1Z" class="gb_59"/>
<path fill-rule="evenodd" d="M395.7,795.3h18.2v18.1H395.7V795.3Z" class="gb_59"/>
<path fill-rule="evenodd" d="M395.7,813.4h18.2v18.2H395.7V813.4Z" class="gb_59"/>
<path fill-rule="evenodd" d="M395.7,831.6h18.2v18.2H395.7V831.6Z" class="gb_59"/>
<path fill-rule="evenodd" d="M395.7,849.8h18.2V868H395.7V849.8Z" class="gb_59"/>
<path fill-rule="evenodd" d="M395.7,868h18.2v18.2H395.7V868Z" class="gb_59"/>
<path d="M413.9,777.1h18.2V758.9H413.9v18.2Z" class="g6_59"/>
<path d="M413.9,758.9h18.2v18.2H413.9V758.9Z" class="ga_59"/>
<path fill-rule="evenodd" d="M413.9,777.1h18.2v18.2H413.9V777.1Z" class="gb_59"/>
<path fill-rule="evenodd" d="M413.9,795.3h18.2v18.1H413.9V795.3Z" class="gb_59"/>
<path fill-rule="evenodd" d="M413.9,813.4h18.2v18.2H413.9V813.4Z" class="gb_59"/>
<path fill-rule="evenodd" d="M413.9,831.6h18.2v18.2H413.9V831.6Z" class="gb_59"/>
<path fill-rule="evenodd" d="M413.9,849.8h18.2V868H413.9V849.8Z" class="gb_59"/>
<path fill-rule="evenodd" d="M413.9,868h18.2v18.2H413.9V868Z" class="gb_59"/>
<path d="M432.1,777.1h18.1V758.9H432.1v18.2Z" class="g6_59"/>
<path d="M432.1,758.9h18.1v18.2H432.1V758.9Z" class="ga_59"/>
<path fill-rule="evenodd" d="M432.1,777.1h18.1v18.2H432.1V777.1Z" class="gb_59"/>
<path fill-rule="evenodd" d="M432.1,795.3h18.1v18.1H432.1V795.3Z" class="gb_59"/>
<path fill-rule="evenodd" d="M432.1,813.4h18.1v18.2H432.1V813.4Z" class="gb_59"/>
<path fill-rule="evenodd" d="M432.1,831.6h18.1v18.2H432.1V831.6Z" class="gb_59"/>
<path fill-rule="evenodd" d="M432.1,849.8h18.1V868H432.1V849.8Z" class="gb_59"/>
<path fill-rule="evenodd" d="M432.1,868h18.1v18.2H432.1V868Z" class="gb_59"/>
<path d="M450.2,777.1h18.2V758.9H450.2v18.2Z" class="g6_59"/>
<path d="M450.2,758.9h18.2v18.2H450.2V758.9Z" class="ga_59"/>
<path fill-rule="evenodd" d="M450.2,777.1h18.2v18.2H450.2V777.1Z" class="gb_59"/>
<path fill-rule="evenodd" d="M450.2,795.3h18.2v18.1H450.2V795.3Z" class="gb_59"/>
<path fill-rule="evenodd" d="M450.2,813.4h18.2v18.2H450.2V813.4Z" class="gb_59"/>
<path fill-rule="evenodd" d="M450.2,831.6h18.2v18.2H450.2V831.6Z" class="gb_59"/>
<path fill-rule="evenodd" d="M450.2,849.8h18.2V868H450.2V849.8Z" class="gb_59"/>
<path fill-rule="evenodd" d="M450.2,868h18.2v18.2H450.2V868Z" class="gb_59"/>
<path d="M468.4,777.1h18.2V758.9H468.4v18.2Z" class="g6_59"/>
<path d="M468.4,758.9h18.2v18.2H468.4V758.9Z" class="ga_59"/>
<path d="M468.4,795.3h18.2V777.1H468.4v18.2Z" class="g6_59"/>
<path d="M468.4,777.1h18.2v18.2H468.4V777.1Z" class="ga_59"/>
<path d="M468.4,813.4h18.2V795.3H468.4v18.1Z" class="g6_59"/>
<path d="M468.4,795.3h18.2v18.1H468.4V795.3Z" class="ga_59"/>
<path d="M468.4,831.6h18.2V813.4H468.4v18.2Z" class="g6_59"/>
<path d="M468.4,813.4h18.2v18.2H468.4V813.4Z" class="ga_59"/>
<path d="M468.4,849.8h18.2V831.6H468.4v18.2Z" class="g6_59"/>
<path d="M468.4,831.6h18.2v18.2H468.4V831.6Z" class="ga_59"/>
<path d="M468.4,868h18.2V849.8H468.4V868Z" class="g6_59"/>
<path d="M468.4,849.8h18.2V868H468.4V849.8Z" class="ga_59"/>
<path d="M468.4,886.2h18.2V868H468.4v18.2Z" class="g6_59"/>
<path d="M468.4,868h18.2v18.2H468.4V868Z" class="ga_59"/>
<path fill-rule="evenodd" d="M412.5,812.2c-.6,.8,-.4,1.9,.4,2.5c.9,.5,2,.3,2.5,-.5c.6,-.8,.4,-1.9,-.4,-2.5c-.8,-.6,-2,-.4,-2.5,.5Z" class="g2_59"/>
<path d="M412.5,812.2c-.6,.8,-.4,1.9,.4,2.5c.9,.5,2,.3,2.5,-.5c.6,-.8,.4,-1.9,-.4,-2.5c-.8,-.6,-2,-.4,-2.5,.5Z" class="gc_59"/>
<path d="M304.8,769.6V884.9M250,868.1H469" class="gd_59"/>
<path d="M431.9,777.3h36.4" class="ge_59"/>
<path d="M468.3,773.7v7.2m-36.4,-7.2v7.2" class="gf_59"/>
<path fill-rule="evenodd" d="M437.1,763l2.6,-1.3h.3v9.2c0,.6,0,1,.1,1.1c0,.2,.1,.3,.3,.4c.2,.1,.5,.1,1,.1v.3h-4.1v-.3c.5,0,.8,0,1,-.1c.1,-.1,.2,-.2,.3,-.3c0,-.2,.1,-.6,.1,-1.2V765c0,-.8,0,-1.3,-.1,-1.5c0,-.2,-.1,-.3,-.2,-.4c-.1,-.1,-.2,-.1,-.4,-.1c-.2,0,-.4,0,-.8,.2Z" class="g2_59"/>
<path d="M437.1,763l2.6,-1.3h.3v9.2c0,.6,0,1,.1,1.1c0,.2,.1,.3,.3,.4c.2,.1,.5,.1,1,.1v.3h-4.1v-.3c.5,0,.8,0,1,-.1c.1,-.1,.2,-.2,.3,-.3c0,-.2,.1,-.6,.1,-1.2V765c0,-.8,0,-1.3,-.1,-1.5c0,-.2,-.1,-.3,-.2,-.4c-.1,-.1,-.2,-.1,-.4,-.1c-.2,0,-.4,0,-.8,.2l-.1,-.2Z" class="g3_59"/>
<path fill-rule="evenodd" d="M312.2,774.1c.5,.3,1,.5,1.4,.5c.5,0,1,-.2,1.5,-.6c.5,-.3,.9,-.9,1.3,-1.7c.4,-.8,.6,-1.7,.6,-2.5c0,-.5,-.2,-.9,-.4,-1.2c-.2,-.2,-.5,-.4,-.9,-.4c-.5,0,-1,.2,-1.4,.6c-.5,.4,-.8,1,-1.1,1.7Zm3.1,-10.8l-1.6,5.6c.5,-.6,1,-.9,1.4,-1.1c.4,-.2,.8,-.3,1.2,-.3c.6,0,1.1,.2,1.4,.5c.4,.4,.6,1,.6,1.6c0,.9,-.2,1.8,-.7,2.6c-.5,.9,-1.2,1.5,-1.9,2c-.7,.5,-1.5,.7,-2.2,.7c-.8,0,-1.7,-.3,-2.5,-.9l2.4,-8.4c.2,-.7,.3,-1,.3,-1.1c0,-.2,0,-.3,-.1,-.4c-.1,-.1,-.3,-.1,-.6,-.1c-.1,0,-.2,0,-.5,0v-.3Z" class="g2_59"/>
<path d="M312.2,774.1c.5,.3,1,.5,1.4,.5c.5,0,1,-.2,1.5,-.6c.5,-.3,.9,-.9,1.3,-1.7c.4,-.8,.6,-1.7,.6,-2.5c0,-.5,-.2,-.9,-.4,-1.2c-.2,-.2,-.5,-.4,-.9,-.4c-.5,0,-1,.2,-1.4,.6c-.5,.4,-.8,1,-1.1,1.7l-1,3.6Zm3.1,-10.8l-1.6,5.6c.5,-.6,1,-.9,1.4,-1.1c.4,-.2,.8,-.3,1.2,-.3c.6,0,1.1,.2,1.4,.5c.4,.4,.6,1,.6,1.6c0,.9,-.2,1.8,-.7,2.6c-.5,.9,-1.2,1.5,-1.9,2c-.7,.5,-1.5,.7,-2.2,.7c-.8,0,-1.7,-.3,-2.5,-.9l2.4,-8.4c.2,-.7,.3,-1,.3,-1.1c0,-.2,0,-.3,-.1,-.4c-.1,-.1,-.3,-.1,-.6,-.1c-.1,0,-.2,0,-.5,0v-.3l2.8,-.4Z" class="g3_59"/>
<path fill-rule="evenodd" d="M425.9,798.9l1,8.8l6.3,-8.8h2.7v.3c-.6,.1,-.9,.1,-1,.1c-.2,.1,-.4,.2,-.5,.4c-.2,.3,-.3,.7,-.5,1.3l-2,6.9c-.1,.4,-.2,.7,-.2,.9c0,.2,.1,.4,.2,.5c.2,.2,.6,.2,1,.2h.2l-.1,.3h-4.6l.1,-.3h.2c.4,0,.7,0,1,-.1c.1,-.1,.3,-.3,.4,-.5c.1,-.3,.3,-.8,.6,-1.6l1.8,-6.3l-6.4,8.8h-.3L424.7,801l-1.9,6.7c-.2,.6,-.3,1,-.3,1.2c0,.2,.1,.3,.3,.4c.1,.1,.5,.2,1,.2l-.1,.3h-3.6l.1,-.3h.2c.6,0,.9,-.1,1.2,-.4c.2,-.2,.3,-.6,.5,-1.2l2.4,-8.2c-.2,-.1,-.3,-.3,-.5,-.3c-.2,-.1,-.5,-.1,-.9,-.2l.1,-.3Z" class="g2_59"/>
<path d="M425.9,798.9l1,8.8l6.3,-8.8h2.7v.3c-.6,.1,-.9,.1,-1,.1c-.2,.1,-.4,.2,-.5,.4c-.2,.3,-.3,.7,-.5,1.3l-2,6.9c-.1,.4,-.2,.7,-.2,.9c0,.2,.1,.4,.2,.5c.2,.2,.6,.2,1,.2h.2l-.1,.3h-4.6l.1,-.3h.2c.4,0,.7,0,1,-.1c.1,-.1,.3,-.3,.4,-.5c.1,-.3,.3,-.8,.6,-1.6l1.8,-6.3l-6.4,8.8h-.3L424.7,801l-1.9,6.7c-.2,.6,-.3,1,-.3,1.2c0,.2,.1,.3,.3,.4c.1,.1,.5,.2,1,.2l-.1,.3h-3.6l.1,-.3h.2c.6,0,.9,-.1,1.2,-.4c.2,-.2,.3,-.6,.5,-1.2l2.4,-8.2c-.2,-.1,-.3,-.3,-.5,-.3c-.2,-.1,-.5,-.1,-.9,-.2l.1,-.3h2.7Z" class="g3_59"/>
<path fill-rule="evenodd" d="M460.9,875.7c-.3,0,-.7,.2,-1,.5c-.6,.5,-1.1,1.1,-1.5,2c-.4,.9,-.6,1.7,-.6,2.5c0,.3,0,.6,.2,.8c.2,.3,.4,.4,.7,.4c.5,0,1.2,-.5,1.9,-1.3c.9,-1.2,1.3,-2.4,1.3,-3.6c0,-.4,0,-.8,-.2,-1c-.2,-.2,-.4,-.3,-.8,-.3m2.9,-.4l-1.6,5.5l-.1,.7c0,.1,-.1,.1,-.1,.2c0,.1,.1,.1,.1,.2q.1,.1,.2,.1c.1,0,.1,-.1,.3,-.1c.2,-.2,.4,-.5,.8,-1l.3,.2c-.4,.5,-.8,1,-1.2,1.3c-.4,.2,-.7,.4,-1.1,.4c-.2,0,-.4,-.1,-.5,-.2c-.1,-.1,-.2,-.3,-.2,-.5c0,-.2,.1,-.6,.2,-1l.2,-.6c-.7,.9,-1.4,1.5,-1.9,1.9c-.5,.3,-.9,.4,-1.3,.4c-.4,0,-.7,-.2,-1,-.5c-.3,-.3,-.4,-.8,-.4,-1.3c0,-.9,.2,-1.8,.7,-2.7c.5,-1,1.2,-1.7,2,-2.3c.6,-.5,1.2,-.7,1.7,-.7c.4,0,.6,.1,.9,.3c.2,.1,.3,.4,.4,.8l.3,-.9Z" class="g2_59"/>
<path d="M460.9,875.7c-.3,0,-.7,.2,-1,.5c-.6,.5,-1.1,1.1,-1.5,2c-.4,.9,-.6,1.7,-.6,2.5c0,.3,0,.6,.2,.8c.2,.3,.4,.4,.7,.4c.5,0,1.2,-.5,1.9,-1.3c.9,-1.2,1.3,-2.4,1.3,-3.6c0,-.4,0,-.8,-.2,-1c-.2,-.2,-.4,-.3,-.8,-.3Zm2.9,-.4l-1.6,5.5l-.1,.7c0,.1,-.1,.1,-.1,.2c0,.1,.1,.1,.1,.2q.1,.1,.2,.1c.1,0,.1,-.1,.3,-.1c.2,-.2,.4,-.5,.8,-1l.3,.2c-.4,.5,-.8,1,-1.2,1.3c-.4,.2,-.7,.4,-1.1,.4c-.2,0,-.4,-.1,-.5,-.2c-.1,-.1,-.2,-.3,-.2,-.5c0,-.2,.1,-.6,.2,-1l.2,-.6c-.7,.9,-1.4,1.5,-1.9,1.9c-.5,.3,-.9,.4,-1.3,.4c-.4,0,-.7,-.2,-1,-.5c-.3,-.3,-.4,-.8,-.4,-1.3c0,-.9,.2,-1.8,.7,-2.7c.5,-1,1.2,-1.7,2,-2.3c.6,-.5,1.2,-.7,1.7,-.7c.4,0,.6,.1,.9,.3c.2,.1,.3,.4,.4,.8l.3,-.9l1.3,-.2Z" class="g3_59"/>
<path fill-rule="evenodd" d="M288.1,954.8c-.9,.6,-1.1,1.9,-.4,2.8c.6,.9,1.9,1.1,2.8,.4c.9,-.6,1.1,-1.9,.4,-2.8c-.6,-.9,-1.9,-1.1,-2.8,-.4Z" class="g2_59"/>
<path d="M288.1,954.8c-.9,.6,-1.1,1.9,-.4,2.8c.6,.9,1.9,1.1,2.8,.4c.9,-.6,1.1,-1.9,.4,-2.8c-.6,-.9,-1.9,-1.1,-2.8,-.4Z" class="gg_59"/>
<path fill-rule="evenodd" d="M346.9,1054.1c-.9,.7,-1.1,1.9,-.4,2.8c.6,.9,1.9,1.1,2.8,.5c.9,-.7,1.1,-1.9,.4,-2.8c-.6,-.9,-1.9,-1.1,-2.8,-.5Z" class="g2_59"/>
<path d="M346.9,1054.1c-.9,.7,-1.1,1.9,-.4,2.8c.6,.9,1.9,1.1,2.8,.5c.9,-.7,1.1,-1.9,.4,-2.8c-.6,-.9,-1.9,-1.1,-2.8,-.5Z" class="gg_59"/>
<path fill-rule="evenodd" d="M463.2,994c-.9,.6,-1.1,1.9,-.4,2.8c.6,.9,1.9,1.1,2.8,.4c.9,-.6,1.1,-1.9,.5,-2.8c-.7,-.9,-2,-1.1,-2.9,-.4Z" class="g2_59"/>
<path d="M463.2,994c-.9,.6,-1.1,1.9,-.4,2.8c.6,.9,1.9,1.1,2.8,.4c.9,-.6,1.1,-1.9,.5,-2.8c-.7,-.9,-2,-1.1,-2.9,-.4Z" class="gg_59"/>
<path fill-rule="evenodd" d="M279.6,942l-3.6,4.8h3.1Zm1.7,-2.9l-.9,10.1c0,.4,-.1,.7,-.1,.9c0,.2,.1,.4,.2,.5c.1,.2,.2,.3,.4,.4c.2,.1,.6,.1,1,.1l-.1,.4H277l.1,-.4h.2c.4,0,.8,0,1,-.2c.2,-.1,.3,-.3,.4,-.6c.1,-.2,.1,-.6,.2,-1.3l.1,-1.5h-3.4l-1.3,1.7c-.3,.3,-.4,.6,-.5,.8c-.1,.1,-.1,.3,-.1,.4c0,.2,.1,.4,.2,.5c.2,.2,.4,.2,.8,.2l-.1,.4H271l.1,-.4c.4,0,.8,-.1,1.2,-.4c.3,-.3,.8,-.9,1.5,-1.8l7.2,-9.8Z" class="g2_59"/>
<path d="M279.6,942l-3.6,4.8h3.1l.5,-4.8Zm1.7,-2.9l-.9,10.1c0,.4,-.1,.7,-.1,.9c0,.2,.1,.4,.2,.5c.1,.2,.2,.3,.4,.4c.2,.1,.6,.1,1,.1l-.1,.4H277l.1,-.4h.2c.4,0,.8,0,1,-.2c.2,-.1,.3,-.3,.4,-.6c.1,-.2,.1,-.6,.2,-1.3l.1,-1.5h-3.4l-1.3,1.7c-.3,.3,-.4,.6,-.5,.8c-.1,.1,-.1,.3,-.1,.4c0,.2,.1,.4,.2,.5c.2,.2,.4,.2,.8,.2l-.1,.4H271l.1,-.4c.4,0,.8,-.1,1.2,-.4c.3,-.3,.8,-.9,1.5,-1.8l7.2,-9.8h.3Z" class="g3_59"/>
<g clip-path="url(#c2_59)">
<path fill-rule="evenodd" d="M487.1,987.5l-1,3.9h-.3v-1c0,-.3,-.1,-.6,-.2,-.9c-.1,-.3,-.3,-.6,-.5,-.8c-.2,-.2,-.5,-.3,-.8,-.4c-.3,-.2,-.7,-.2,-1.1,-.2c-1.1,0,-2,.3,-2.8,.9c-1,.7,-1.8,1.8,-2.4,3.1c-.5,1.1,-.7,2.3,-.7,3.4c0,1.2,.3,2.1,1,2.8c.7,.7,1.6,1.1,2.7,1.1c.8,0,1.6,-.2,2.2,-.6c.6,-.3,1.2,-.9,1.8,-1.7h.4c-.6,1.1,-1.4,1.8,-2.2,2.3c-.8,.5,-1.7,.8,-2.8,.8c-1,0,-1.9,-.2,-2.7,-.6c-.7,-.5,-1.3,-1,-1.7,-1.8c-.4,-.7,-.6,-1.6,-.6,-2.4c0,-1.3,.3,-2.6,1.1,-3.9c.7,-1.2,1.6,-2.2,2.9,-2.9c1.2,-.8,2.5,-1.1,3.7,-1.1c.6,0,1.3,.1,2,.4c.3,.1,.6,.2,.7,.2c.1,0,.3,0,.4,-.1c.1,-.1,.3,-.2,.5,-.5Z" class="g2_59"/>
<path d="M487.1,987.5l-1,3.9h-.3v-1c0,-.3,-.1,-.6,-.2,-.9c-.1,-.3,-.3,-.6,-.5,-.8c-.2,-.2,-.5,-.3,-.8,-.4c-.3,-.2,-.7,-.2,-1.1,-.2c-1.1,0,-2,.3,-2.8,.9c-1,.7,-1.8,1.8,-2.4,3.1c-.5,1.1,-.7,2.3,-.7,3.4c0,1.2,.3,2.1,1,2.8c.7,.7,1.6,1.1,2.7,1.1c.8,0,1.6,-.2,2.2,-.6c.6,-.3,1.2,-.9,1.8,-1.7h.4c-.6,1.1,-1.4,1.8,-2.2,2.3c-.8,.5,-1.7,.8,-2.8,.8c-1,0,-1.9,-.2,-2.7,-.6c-.7,-.5,-1.3,-1,-1.7,-1.8c-.4,-.7,-.6,-1.6,-.6,-2.4c0,-1.3,.3,-2.6,1.1,-3.9c.7,-1.2,1.6,-2.2,2.9,-2.9c1.2,-.8,2.5,-1.1,3.7,-1.1c.6,0,1.3,.1,2,.4c.3,.1,.6,.2,.7,.2c.1,0,.3,0,.4,-.1c.1,-.1,.3,-.2,.5,-.5h.4Z" class="g3_59"/>
<path fill-rule="evenodd" d="M352.2,1070.9c.7,.1,1.2,.2,1.5,.2c1,0,1.8,-.3,2.5,-.9c.7,-.5,1.1,-1.3,1.1,-2.3c0,-.7,-.2,-1.3,-.7,-1.7c-.4,-.4,-1.1,-.6,-2.1,-.6c-.2,0,-.4,0,-.7,0ZM354,1065c.4,0,.7,0,.8,0c1.3,0,2.2,-.3,2.8,-.8c.6,-.6,.9,-1.2,.9,-2.1c0,-.6,-.2,-1,-.5,-1.4c-.4,-.3,-1,-.5,-1.8,-.5c-.2,0,-.5,0,-.8,.1Zm-1.8,-5.1l.1,-.3h4.3c.8,0,1.4,.1,2,.3c.6,.3,1,.6,1.3,1c.3,.4,.4,.8,.4,1.3c0,.7,-.3,1.3,-.8,1.9c-.5,.5,-1.3,.9,-2.4,1.2c.7,.3,1.2,.7,1.6,1.1c.3,.5,.5,1,.5,1.5c0,.6,-.1,1.2,-.5,1.7c-.3,.6,-.7,1,-1.2,1.3c-.4,.3,-1,.5,-1.7,.7c-.5,.1,-1.3,.1,-2.3,.1H349l.2,-.3c.4,0,.7,-.1,.9,-.1c.3,-.1,.4,-.3,.5,-.4c.2,-.3,.4,-.8,.6,-1.6l2.2,-7.3c.2,-.7,.3,-1.1,.3,-1.3c0,-.3,-.1,-.4,-.3,-.6c-.2,-.1,-.5,-.2,-.9,-.2c-.1,0,-.2,0,-.3,0Z" class="g2_59"/>
<path d="M352.2,1070.9c.7,.1,1.2,.2,1.5,.2c1,0,1.8,-.3,2.5,-.9c.7,-.5,1.1,-1.3,1.1,-2.3c0,-.7,-.2,-1.3,-.7,-1.7c-.4,-.4,-1.1,-.6,-2.1,-.6c-.2,0,-.4,0,-.7,0l-1.6,5.3ZM354,1065c.4,0,.7,0,.8,0c1.3,0,2.2,-.3,2.8,-.8c.6,-.6,.9,-1.2,.9,-2.1c0,-.6,-.2,-1,-.5,-1.4c-.4,-.3,-1,-.5,-1.8,-.5c-.2,0,-.5,0,-.8,.1L354,1065Zm-1.8,-5.1l.1,-.3h4.3c.8,0,1.4,.1,2,.3c.6,.3,1,.6,1.3,1c.3,.4,.4,.8,.4,1.3c0,.7,-.3,1.3,-.8,1.9c-.5,.5,-1.3,.9,-2.4,1.2c.7,.3,1.2,.7,1.6,1.1c.3,.5,.5,1,.5,1.5c0,.6,-.1,1.2,-.5,1.7c-.3,.6,-.7,1,-1.2,1.3c-.4,.3,-1,.5,-1.7,.7c-.5,.1,-1.3,.1,-2.3,.1H349l.2,-.3c.4,0,.7,-.1,.9,-.1c.3,-.1,.4,-.3,.5,-.4c.2,-.3,.4,-.8,.6,-1.6l2.2,-7.3c.2,-.7,.3,-1.1,.3,-1.3c0,-.3,-.1,-.4,-.3,-.6c-.2,-.1,-.5,-.2,-.9,-.2c-.1,0,-.2,0,-.3,0Z" class="g3_59"/>
</g>
<path fill-rule="evenodd" d="M454.3,1055.2c-.3,0,-.7,.2,-1.2,.6c-.6,.5,-1.1,1.2,-1.6,2.2c-.5,1,-.7,1.9,-.7,2.7c0,.4,.1,.7,.3,1c.2,.2,.4,.3,.7,.3c.6,0,1.3,-.4,2.1,-1.4c1,-1.3,1.5,-2.6,1.5,-3.9c0,-.5,-.1,-.9,-.3,-1.1c-.2,-.3,-.4,-.4,-.8,-.4m3.2,-.4l-1.7,6l-.2,.8c0,.1,0,.2,0,.2c0,.1,0,.2,0,.3c.1,0,.2,.1,.2,.1c.1,0,.2,-.1,.3,-.2c.3,-.1,.6,-.5,1,-1l.3,.2c-.4,.6,-.9,1.1,-1.3,1.4c-.4,.3,-.8,.5,-1.2,.5c-.3,0,-.5,-.1,-.6,-.2c-.1,-.1,-.2,-.3,-.2,-.6c0,-.3,.1,-.7,.2,-1.1l.2,-.7c-.8,1,-1.5,1.7,-2.2,2.1c-.4,.3,-.9,.5,-1.3,.5c-.5,0,-.9,-.2,-1.2,-.6c-.3,-.3,-.4,-.8,-.4,-1.5c0,-.9,.2,-1.9,.8,-3c.6,-1,1.3,-1.9,2.2,-2.5c.7,-.5,1.3,-.7,1.9,-.7c.4,0,.7,.1,.9,.2c.3,.2,.5,.5,.6,1l.3,-1Z" class="g2_59"/>
<path d="M454.3,1055.2c-.3,0,-.7,.2,-1.2,.6c-.6,.5,-1.1,1.2,-1.6,2.2c-.5,1,-.7,1.9,-.7,2.7c0,.4,.1,.7,.3,1c.2,.2,.4,.3,.7,.3c.6,0,1.3,-.4,2.1,-1.4c1,-1.3,1.5,-2.6,1.5,-3.9c0,-.5,-.1,-.9,-.3,-1.1c-.2,-.3,-.4,-.4,-.8,-.4Zm3.2,-.4l-1.7,6l-.2,.8c0,.1,0,.2,0,.2c0,.1,0,.2,0,.3c.1,0,.2,.1,.2,.1c.1,0,.2,-.1,.3,-.2c.3,-.1,.6,-.5,1,-1l.3,.2c-.4,.6,-.9,1.1,-1.3,1.4c-.4,.3,-.8,.5,-1.2,.5c-.3,0,-.5,-.1,-.6,-.2c-.1,-.1,-.2,-.3,-.2,-.6c0,-.3,.1,-.7,.2,-1.1l.2,-.7c-.8,1,-1.5,1.7,-2.2,2.1c-.4,.3,-.9,.5,-1.3,.5c-.5,0,-.9,-.2,-1.2,-.6c-.3,-.3,-.4,-.8,-.4,-1.5c0,-.9,.2,-1.9,.8,-3c.6,-1,1.3,-1.9,2.2,-2.5c.7,-.5,1.3,-.7,1.9,-.7c.4,0,.7,.1,.9,.2c.3,.2,.5,.5,.6,1l.3,-1l1.4,-.2Z" class="g3_59"/>
<path d="M242.6,972.8l238.8,84.4" class="gh_59"/>
<path d="M278.3,986l10.6,-30m59.2,99.3l14.1,-40m84.5,29.3l17.1,-48.4M289.4,956.5l58,99.5m.3,-.5L465.1,995.2m-.3,0L289.4,956" class="gi_59"/>
<path fill-rule="evenodd" d="M750.7,806c-.9,.6,-1.1,1.9,-.4,2.8c.6,.9,1.9,1.1,2.8,.4c.9,-.6,1.1,-1.9,.5,-2.8c-.7,-.9,-2,-1.1,-2.9,-.4Z" class="g2_59"/>
<path d="M750.7,806c-.9,.6,-1.1,1.9,-.4,2.8c.6,.9,1.9,1.1,2.8,.4c.9,-.6,1.1,-1.9,.5,-2.8c-.7,-.9,-2,-1.1,-2.9,-.4Z" class="gg_59"/>
<path fill-rule="evenodd" d="M553.2,863.4c-.6,0,-1.1,.1,-1.7,.4c-.6,.3,-1.1,.8,-1.7,1.5c-.6,.6,-1.1,1.5,-1.5,2.6c-.6,1.4,-.8,2.6,-.8,3.8c0,.8,.2,1.6,.6,2.3c.5,.6,1.1,.9,2,.9c.6,0,1.1,-.1,1.6,-.4c.5,-.2,1.1,-.7,1.7,-1.4c.7,-.8,1.3,-1.8,1.7,-3.1c.5,-1.2,.8,-2.4,.8,-3.5c0,-.8,-.2,-1.6,-.7,-2.2c-.4,-.6,-1.1,-.9,-2,-.9m.3,-.6c.9,0,1.6,.2,2.2,.5c.6,.4,1.1,.9,1.4,1.6c.4,.7,.6,1.4,.6,2.1c0,1.3,-.4,2.7,-1.2,4.1c-.7,1.4,-1.7,2.5,-2.9,3.3c-1.2,.7,-2.5,1.1,-3.8,1.1c-.9,0,-1.7,-.2,-2.3,-.6c-.7,-.4,-1.1,-1,-1.4,-1.7c-.3,-.6,-.5,-1.3,-.5,-1.9c0,-1.2,.3,-2.3,.8,-3.4c.6,-1.1,1.2,-2,2,-2.8c.7,-.7,1.5,-1.3,2.4,-1.7c.9,-.4,1.8,-.6,2.7,-.6Z" class="g2_59"/>
<path d="M553.2,863.4c-.6,0,-1.1,.1,-1.7,.4c-.6,.3,-1.1,.8,-1.7,1.5c-.6,.6,-1.1,1.5,-1.5,2.6c-.6,1.4,-.8,2.6,-.8,3.8c0,.8,.2,1.6,.6,2.3c.5,.6,1.1,.9,2,.9c.6,0,1.1,-.1,1.6,-.4c.5,-.2,1.1,-.7,1.7,-1.4c.7,-.8,1.3,-1.8,1.7,-3.1c.5,-1.2,.8,-2.4,.8,-3.5c0,-.8,-.2,-1.6,-.7,-2.2c-.4,-.6,-1.1,-.9,-2,-.9Zm.3,-.6c.9,0,1.6,.2,2.2,.5c.6,.4,1.1,.9,1.4,1.6c.4,.7,.6,1.4,.6,2.1c0,1.3,-.4,2.7,-1.2,4.1c-.7,1.4,-1.7,2.5,-2.9,3.3c-1.2,.7,-2.5,1.1,-3.8,1.1c-.9,0,-1.7,-.2,-2.3,-.6c-.7,-.4,-1.1,-1,-1.4,-1.7c-.3,-.6,-.5,-1.3,-.5,-1.9c0,-1.2,.3,-2.3,.8,-3.4c.6,-1.1,1.2,-2,2,-2.8c.7,-.7,1.5,-1.3,2.4,-1.7c.9,-.4,1.8,-.6,2.7,-.6Z" class="g3_59"/>
<path fill-rule="evenodd" d="M768.9,805.1c.7,.1,1.2,.2,1.6,.2c.7,0,1.3,-.1,1.8,-.4c.5,-.2,.9,-.6,1.2,-1.2c.3,-.5,.5,-1.1,.5,-1.7c0,-.6,-.2,-1,-.6,-1.4c-.3,-.3,-.9,-.5,-1.6,-.5c-.4,0,-.9,0,-1.5,.1Zm-1.7,-5.7H772c1.2,0,2.2,.3,2.8,.8c.6,.6,.9,1.2,.9,2c0,.6,-.2,1.2,-.6,1.8c-.4,.6,-.9,1,-1.7,1.4c-.8,.4,-1.6,.5,-2.5,.5c-.6,0,-1.3,-.1,-2.2,-.3l-.9,3.3c-.3,.8,-.4,1.4,-.4,1.6c0,.2,.1,.4,.3,.5c.1,.1,.5,.2,1.1,.2l-.1,.4h-4.8l.1,-.4c.6,0,1.1,-.1,1.3,-.3c.3,-.2,.5,-.8,.8,-1.8l2,-6.9c.3,-.8,.4,-1.4,.4,-1.7c0,-.2,-.1,-.4,-.3,-.5c-.1,-.1,-.5,-.2,-1.1,-.3Z" class="g2_59"/>
<path d="M768.9,805.1c.7,.1,1.2,.2,1.6,.2c.7,0,1.3,-.1,1.8,-.4c.5,-.2,.9,-.6,1.2,-1.2c.3,-.5,.5,-1.1,.5,-1.7c0,-.6,-.2,-1,-.6,-1.4c-.3,-.3,-.9,-.5,-1.6,-.5c-.4,0,-.9,0,-1.5,.1l-1.4,4.9Zm-1.7,-5.7H772c1.2,0,2.2,.3,2.8,.8c.6,.6,.9,1.2,.9,2c0,.6,-.2,1.2,-.6,1.8c-.4,.6,-.9,1,-1.7,1.4c-.8,.4,-1.6,.5,-2.5,.5c-.6,0,-1.3,-.1,-2.2,-.3l-.9,3.3c-.3,.8,-.4,1.4,-.4,1.6c0,.2,.1,.4,.3,.5c.1,.1,.5,.2,1.1,.2l-.1,.4h-4.8l.1,-.4c.6,0,1.1,-.1,1.3,-.3c.3,-.2,.5,-.8,.8,-1.8l2,-6.9c.3,-.8,.4,-1.4,.4,-1.7c0,-.2,-.1,-.4,-.3,-.5c-.1,-.1,-.5,-.2,-1.1,-.3l.1,-.3Z" class="g3_59"/>
<g clip-path="url(#c3_59)">
<path fill-rule="evenodd" d="M744,735l3.8,9.5l2,-7.1c.2,-.6,.3,-1,.3,-1.3c0,-.2,-.1,-.4,-.3,-.5c-.1,-.2,-.4,-.2,-.8,-.2c-.1,0,-.2,0,-.3,0l.1,-.4h3.9l-.1,.4c-.4,0,-.7,0,-.9,.1c-.2,.1,-.5,.3,-.6,.5c-.2,.2,-.4,.7,-.6,1.4l-2.8,10h-.4l-4,-10.2l-2.1,7.6c-.2,.5,-.3,1,-.3,1.3c0,.2,.1,.4,.2,.5c.2,.1,.5,.2,1.1,.2l-.1,.4h-3.8l.1,-.4c.5,0,.8,0,1,-.1c.2,-.1,.4,-.2,.5,-.4c.2,-.3,.4,-.8,.6,-1.5l2.4,-8.5c-.2,-.3,-.5,-.6,-.8,-.7c-.2,-.1,-.6,-.2,-1.2,-.2l.1,-.4Z" class="g2_59"/>
<path d="M744,735l3.8,9.5l2,-7.1c.2,-.6,.3,-1,.3,-1.3c0,-.2,-.1,-.4,-.3,-.5c-.1,-.2,-.4,-.2,-.8,-.2c-.1,0,-.2,0,-.3,0l.1,-.4h3.9l-.1,.4c-.4,0,-.7,0,-.9,.1c-.2,.1,-.5,.3,-.6,.5c-.2,.2,-.4,.7,-.6,1.4l-2.8,10h-.4l-4,-10.2l-2.1,7.6c-.2,.5,-.3,1,-.3,1.3c0,.2,.1,.4,.2,.5c.2,.1,.5,.2,1.1,.2l-.1,.4h-3.8l.1,-.4c.5,0,.8,0,1,-.1c.2,-.1,.4,-.2,.5,-.4c.2,-.3,.4,-.8,.6,-1.5l2.4,-8.5c-.2,-.3,-.5,-.6,-.8,-.7c-.2,-.1,-.6,-.2,-1.2,-.2l.1,-.4h3Z" class="g3_59"/>
</g>
<path fill-rule="evenodd" d="M806.3,875.3l1.1,9.7l7.1,-9.7h2.9v.3c-.6,0,-1,.1,-1.1,.1c-.2,.1,-.4,.2,-.5,.5c-.2,.2,-.4,.7,-.6,1.3l-2.2,7.7c-.2,.5,-.2,.8,-.2,1.1c0,.2,.1,.4,.2,.5c.2,.2,.6,.3,1.1,.3h.2l-.1,.3h-5.1l.1,-.3h.3c.4,0,.7,-.1,1,-.2c.2,-.1,.3,-.3,.5,-.6c.1,-.2,.3,-.8,.6,-1.7l2,-7.1l-7.1,9.9h-.3L805,877.5l-2.1,7.5c-.2,.7,-.3,1.1,-.3,1.3c0,.2,.1,.4,.2,.5c.2,.1,.6,.2,1.2,.3l-.1,.3h-4l.1,-.3h.2c.6,0,1.1,-.2,1.3,-.5c.2,-.2,.4,-.7,.6,-1.4l2.7,-9c-.2,-.2,-.4,-.4,-.6,-.4c-.2,-.1,-.5,-.2,-1,-.2l.1,-.3Z" class="g2_59"/>
<path d="M806.3,875.3l1.1,9.7l7.1,-9.7h2.9v.3c-.6,0,-1,.1,-1.1,.1c-.2,.1,-.4,.2,-.5,.5c-.2,.2,-.4,.7,-.6,1.3l-2.2,7.7c-.2,.5,-.2,.8,-.2,1.1c0,.2,.1,.4,.2,.5c.2,.2,.6,.3,1.1,.3h.2l-.1,.3h-5.1l.1,-.3h.3c.4,0,.7,-.1,1,-.2c.2,-.1,.3,-.3,.5,-.6c.1,-.2,.3,-.8,.6,-1.7l2,-7.1l-7.1,9.9h-.3L805,877.5l-2.1,7.5c-.2,.7,-.3,1.1,-.3,1.3c0,.2,.1,.4,.2,.5c.2,.1,.6,.2,1.2,.3l-.1,.3h-4l.1,-.3h.2c.6,0,1.1,-.2,1.3,-.5c.2,-.2,.4,-.7,.6,-1.4l2.7,-9c-.2,-.2,-.4,-.4,-.6,-.4c-.2,-.1,-.5,-.2,-1,-.2l.1,-.3h3Z" class="g3_59"/>
<path d="M562.2,867.7H800.9" class="gh_59"/>
<path fill-rule="evenodd" d="M806.3,867.7l-10.8,-4.6c1.6,3.1,1.6,6.2,0,9.2Z" class="g2_59"/>
<path d="M562.2,867.6L768.6,746" class="gh_59"/>
<path fill-rule="evenodd" d="M773.2,743.2l-11.6,1.5c2.9,1.9,4.4,4.5,4.7,8Z" class="g2_59"/>
<path d="M751.9,808L729.1,769.3m22.7,98.2V806.4m-.3,1.2L750.3,756m.8,51.9l-63.4,59.3" class="gi_59"/>
<path d="M73.8,531.5H836" class="g8_59"/>
<path d="M73.6,63.4H835.8" class="gj_59"/>
<path d="M73.6,64.9H835.8" class="g8_59"/>
<path d="M724.3,75c.7,0,1.3,-.6,1.3,-1.3c0,-.7,-.6,-1.3,-1.3,-1.3c-.7,0,-1.3,.6,-1.3,1.3c0,.7,.6,1.3,1.3,1.3Z" class="g2_59"/>
<path d="M724.3,75c.7,0,1.3,-.6,1.3,-1.3c0,-.7,-.6,-1.3,-1.3,-1.3c-.7,0,-1.3,.6,-1.3,1.3c0,.7,.6,1.3,1.3,1.3Z" class="gk_59"/>
<path d="M185.6,317H835.8V228.7H185.6V317Z" class="gl_59"/>
<path d="M135.8,266.1h39.7V228.7H135.8v37.4Z" class="gm_59"/>
<path d="M618.9,206.5H833.2M724.3,75.8V205.7m0,-129.9L646.6,206.4M724.3,75.8L825,206.2" class="gk_59"/>
<path d="M646.6,207.8c.7,0,1.3,-.6,1.3,-1.3c0,-.7,-.6,-1.3,-1.3,-1.3c-.7,0,-1.3,.6,-1.3,1.3c0,.7,.6,1.3,1.3,1.3Z" class="g2_59"/>
<path d="M646.6,207.8c.7,0,1.3,-.6,1.3,-1.3c0,-.7,-.6,-1.3,-1.3,-1.3c-.7,0,-1.3,.6,-1.3,1.3c0,.7,.6,1.3,1.3,1.3Z" class="gk_59"/>
<path d="M724.3,207.8c.7,0,1.3,-.6,1.3,-1.3c0,-.7,-.6,-1.3,-1.3,-1.3c-.7,0,-1.3,.6,-1.3,1.3c0,.7,.6,1.3,1.3,1.3Z" class="g2_59"/>
<path d="M724.3,207.8c.7,0,1.3,-.6,1.3,-1.3c0,-.7,-.6,-1.3,-1.3,-1.3c-.7,0,-1.3,.6,-1.3,1.3c0,.7,.6,1.3,1.3,1.3Z" class="gk_59"/>
<path d="M824.8,207.8c.7,0,1.3,-.6,1.3,-1.3c0,-.7,-.6,-1.3,-1.3,-1.3c-.7,0,-1.3,.6,-1.3,1.3c0,.7,.6,1.3,1.3,1.3Z" class="g2_59"/>
<path d="M824.8,207.8c.7,0,1.3,-.6,1.3,-1.3c0,-.7,-.6,-1.3,-1.3,-1.3c-.7,0,-1.3,.6,-1.3,1.3c0,.7,.6,1.3,1.3,1.3Z" class="gk_59"/>
</svg>