<?xml version="1.0" encoding="UTF-8" standalone="no"?>
<!DOCTYPE svg PUBLIC "-//W3C//DTD SVG 1.1//EN"
"http://www.w3.org/Graphics/SVG/1.1/DTD/svg11.dtd">
<svg viewBox="0 0 909 1147" version="1.1" xmlns="http://www.w3.org/2000/svg" xmlns:xlink="http://www.w3.org/1999/xlink">
<defs>
<style type="text/css"><![CDATA[
.g0_86{
fill: #B6D774;
}
.g1_86{
fill: none;
stroke: #000;
stroke-width: 0.763;
stroke-miterlimit: 2;
}
.g2_86{
fill: #000;
}
.g3_86{
fill: none;
stroke: #000;
stroke-width: 1.069;
stroke-miterlimit: 2;
}
.g4_86{
fill: none;
stroke: #ED1D24;
stroke-width: 1.069;
stroke-miterlimit: 2;
}
.g5_86{
fill: #FFF1E0;
}
.g6_86{
fill: none;
stroke: #0EA5DF;
stroke-width: 3.055;
}
.g7_86{
fill: #0C4B7F;
}
.g8_86{
fill: none;
stroke: #0EA5DF;
stroke-width: 0.763;
}
.g9_86{
fill: none;
stroke: #D82C20;
stroke-width: 0.644;
}
.ga_86{
fill: none;
stroke: #000;
stroke-width: 0.644;
}
.gb_86{
fill: none;
stroke: #000;
stroke-width: 0.381;
}
.gc_86{
fill: none;
stroke: #000;
stroke-width: 0.763;
}
]]></style>
</defs>
<path d="M0,1131H73.8v-51.5H0V1131Z" class="g0_86"/>
<path d="M313.1,284.7c-6.8,-3.3,-10.9,-1.1,-13.5,5m-64.2,45.6c-7.6,.1,-10.2,3.9,-9.8,10.6" class="g1_86"/>
<path fill-rule="evenodd" d="M306.7,287.7c-.6,.1,-1,.6,-1,1.2c.1,.5,.6,1,1.1,.9c.6,0,1.1,-.5,1,-1.1c0,-.5,-.5,-1,-1.1,-1Z" class="g2_86"/>
<path fill-rule="evenodd" d="M231.1,340.9c-.5,.3,-.7,.9,-.4,1.4c.3,.5,.9,.7,1.4,.4c.5,-.3,.7,-.9,.4,-1.4c-.3,-.5,-.9,-.7,-1.4,-.4Z" class="g2_86"/>
<path fill-rule="evenodd" d="M321.1,288.8l.1,-.3h3.9c1.6,0,2.9,.2,3.6,.6c.8,.3,1.5,.9,1.9,1.7c.5,.9,.8,1.7,.8,2.7c0,.7,-.2,1.5,-.5,2.3c-.2,.7,-.5,1.3,-.9,1.8c-.3,.4,-.8,.9,-1.6,1.5c-.7,.5,-1.4,.9,-2.3,1.2c-.8,.2,-1.8,.3,-3.1,.3h-5.1l.1,-.3c.5,0,.8,0,1,-.1c.2,-.1,.4,-.2,.5,-.4c.2,-.3,.3,-.8,.6,-1.5l2.1,-7.4c.2,-.6,.3,-1,.3,-1.3c0,-.3,-.1,-.4,-.3,-.6c-.1,-.1,-.4,-.2,-.9,-.2Zm3.2,.4l-2.6,9.1c-.2,.6,-.3,1.1,-.3,1.2c0,.1,0,.2,.1,.3c0,.1,.1,.2,.2,.2c.2,0,.4,.1,.8,.1c.9,0,1.8,-.1,2.6,-.3c.8,-.2,1.4,-.5,2,-.9c.7,-.5,1.3,-1.3,1.7,-2.3c.4,-1,.7,-2.1,.7,-3.3c0,-1.4,-.4,-2.4,-1.1,-3.1c-.6,-.7,-1.6,-1.1,-2.9,-1.1c-.3,0,-.7,.1,-1.2,.1Z" class="g2_86"/>
<path fill-rule="evenodd" d="M232.3,354.1l.1,-.3h3.9c1.6,0,2.8,.2,3.6,.6c.8,.3,1.4,.9,1.9,1.7c.5,.8,.7,1.7,.7,2.6c0,.8,-.1,1.6,-.4,2.3c-.3,.8,-.6,1.4,-.9,1.8c-.4,.5,-.9,1,-1.6,1.5c-.7,.6,-1.5,1,-2.3,1.2c-.8,.3,-1.9,.4,-3.1,.4H229l.2,-.3c.4,0,.8,-.1,.9,-.1c.3,-.1,.4,-.3,.5,-.4c.2,-.3,.4,-.8,.6,-1.6l2.2,-7.3c.1,-.6,.2,-1,.2,-1.4c0,-.2,-.1,-.4,-.2,-.5c-.2,-.1,-.5,-.2,-.9,-.2Zm3.2,.4l-2.7,9c-.2,.7,-.3,1.1,-.3,1.3c0,.1,.1,.2,.1,.3c.1,.1,.2,.1,.3,.2c.1,0,.4,0,.7,0c1,0,1.8,-.1,2.6,-.2c.8,-.2,1.5,-.5,2,-.9c.7,-.6,1.3,-1.3,1.8,-2.3c.4,-1,.6,-2.1,.6,-3.3c0,-1.4,-.3,-2.5,-1,-3.1c-.7,-.7,-1.6,-1.1,-2.9,-1.1c-.3,0,-.7,0,-1.2,.1Z" class="g2_86"/>
<path fill-rule="evenodd" d="M217.3,255.6l.1,-.3h3.9c1.7,0,2.9,.2,3.7,.6c.8,.3,1.4,.9,1.9,1.7c.4,.8,.7,1.7,.7,2.6c0,.8,-.2,1.6,-.4,2.4c-.3,.7,-.6,1.3,-1,1.8c-.3,.4,-.8,.9,-1.5,1.4c-.8,.6,-1.5,1,-2.3,1.2c-.9,.3,-1.9,.4,-3.2,.4h-5.1l.1,-.3c.5,0,.8,-.1,1,-.1c.2,-.1,.4,-.3,.5,-.4c.2,-.3,.4,-.8,.6,-1.5l2.1,-7.4c.2,-.6,.3,-1,.3,-1.3c0,-.3,-.1,-.5,-.3,-.6c-.1,-.1,-.4,-.2,-.9,-.2Zm3.2,.4l-2.6,9.1c-.2,.6,-.3,1.1,-.3,1.2c0,.1,0,.2,.1,.3c0,.1,.1,.1,.2,.2c.2,0,.4,.1,.8,.1c.9,0,1.8,-.1,2.6,-.3c.8,-.2,1.5,-.5,2,-.9c.7,-.6,1.3,-1.3,1.7,-2.3c.5,-1,.7,-2.1,.7,-3.3c0,-1.4,-.4,-2.5,-1,-3.1c-.7,-.7,-1.7,-1.1,-3,-1.1c-.3,0,-.7,0,-1.2,.1Z" class="g2_86"/>
<path fill-rule="evenodd" d="M196.1,343.7l-.9,10.1c0,.5,-.1,.8,-.1,.9c0,.3,.1,.4,.2,.6c.1,.1,.2,.3,.4,.3c.2,.1,.5,.2,1,.2l-.1,.3h-4.8l.1,-.3h.2c.4,0,.7,-.1,1,-.3c.2,-.1,.3,-.3,.4,-.5c0,-.2,.1,-.7,.2,-1.3l.1,-1.6h-3.5l-1.2,1.7c-.3,.4,-.4,.6,-.5,.8c-.1,.2,-.1,.3,-.1,.5c0,.1,0,.3,.2,.4c.2,.2,.4,.3,.8,.3l-.1,.3h-3.6l.1,-.3c.4,0,.8,-.2,1.2,-.5c.3,-.2,.8,-.8,1.5,-1.7l7.2,-9.9Zm-1.7,3l-3.6,4.8h3.1Z" class="g2_86"/>
<path fill-rule="evenodd" d="M301.9,346.2l.1,-.3h4.3c.8,0,1.4,.1,2,.3c.6,.3,1,.6,1.3,1c.3,.4,.4,.8,.4,1.3c0,.7,-.3,1.3,-.8,1.9c-.5,.5,-1.3,.9,-2.4,1.2c.7,.3,1.3,.6,1.6,1.1c.3,.5,.5,1,.5,1.5c0,.6,-.1,1.2,-.4,1.7c-.4,.6,-.8,1,-1.2,1.3c-.5,.3,-1.1,.5,-1.8,.7c-.5,.1,-1.3,.1,-2.3,.1h-4.4l.1,-.3c.4,0,.8,-.1,.9,-.1c.3,-.1,.4,-.3,.5,-.4c.2,-.3,.4,-.8,.6,-1.6l2.2,-7.3c.2,-.7,.3,-1.1,.3,-1.4c0,-.2,-.1,-.3,-.3,-.5c-.2,-.1,-.5,-.2,-.9,-.2c-.1,0,-.2,0,-.3,0m1.8,5.1c.4,0,.7,0,.8,0c1.3,0,2.2,-.3,2.8,-.8c.6,-.6,.9,-1.2,.9,-2.1c0,-.6,-.2,-1.1,-.5,-1.4c-.4,-.3,-1,-.5,-1.8,-.5c-.2,0,-.5,0,-.8,.1Zm-1.8,5.9c.7,.1,1.2,.2,1.6,.2c.9,0,1.7,-.3,2.4,-.9c.8,-.5,1.1,-1.3,1.1,-2.3c0,-.7,-.2,-1.3,-.7,-1.7c-.4,-.4,-1.1,-.6,-2.1,-.6c-.2,0,-.4,0,-.7,0Z" class="g2_86"/>
<path fill-rule="evenodd" d="M341.3,256.6l-.9,3.9h-.3l-.1,-1c0,-.3,-.1,-.7,-.2,-.9c-.1,-.3,-.2,-.6,-.5,-.8c-.2,-.2,-.4,-.3,-.8,-.4c-.3,-.2,-.7,-.2,-1.1,-.2c-1,0,-2,.3,-2.8,.9c-1,.7,-1.8,1.8,-2.4,3.1c-.4,1.1,-.7,2.3,-.7,3.4c0,1.2,.4,2.1,1,2.8c.7,.7,1.6,1.1,2.7,1.1c.9,0,1.6,-.2,2.2,-.6c.7,-.3,1.3,-.9,1.8,-1.7h.5c-.7,1.1,-1.4,1.8,-2.2,2.3c-.8,.5,-1.8,.8,-2.9,.8c-1,0,-1.9,-.2,-2.6,-.7c-.8,-.4,-1.4,-.9,-1.8,-1.7c-.4,-.8,-.6,-1.6,-.6,-2.4c0,-1.4,.4,-2.6,1.1,-3.9c.7,-1.2,1.7,-2.2,2.9,-2.9c1.3,-.8,2.5,-1.1,3.8,-1.1c.6,0,1.2,.1,2,.4c.3,.1,.5,.2,.6,.2c.2,0,.3,-.1,.4,-.1c.1,-.1,.3,-.2,.6,-.5Z" class="g2_86"/>
<path fill-rule="evenodd" d="M338,302.6l-.6,1.6h-4.8v-.3c1.4,-1.2,2.4,-2.3,3,-3.1c.6,-.8,.9,-1.6,.9,-2.2c0,-.5,-.2,-1,-.5,-1.3c-.3,-.3,-.7,-.5,-1.1,-.5c-.4,0,-.8,.1,-1.1,.4c-.3,.2,-.6,.5,-.7,1h-.2c.1,-.7,.3,-1.3,.7,-1.7c.4,-.4,1,-.6,1.6,-.6c.6,0,1.2,.2,1.6,.6c.5,.5,.7,1,.7,1.5c0,.4,-.1,.8,-.3,1.3c-.3,.6,-.8,1.3,-1.4,2c-1,1.1,-1.6,1.7,-1.9,2H336c.5,0,.8,-.1,.9,-.1c.2,0,.4,-.1,.5,-.2c.1,-.1,.3,-.2,.4,-.4Z" class="g2_86"/>
<path fill-rule="evenodd" d="M245,362.1l1.9,-.9h.2V368c0,.5,.1,.8,.1,.9c0,.1,.1,.2,.2,.2c.2,.1,.4,.1,.8,.1v.2h-3.1v-.2c.4,0,.6,0,.8,-.1c.1,0,.1,-.1,.2,-.2c0,-.1,.1,-.4,.1,-.9v-4.4c0,-.5,-.1,-.9,-.1,-1.1c0,-.1,-.1,-.2,-.2,-.3c0,0,-.1,-.1,-.2,-.1c-.2,0,-.4,.1,-.6,.2Z" class="g2_86"/>
<path fill-rule="evenodd" d="M279.6,251.2l-1.7,6.1l-.2,.8q-.1,.1,-.1,.2c0,.1,.1,.2,.1,.2q.1,.1,.2,.1c.1,0,.2,0,.3,-.1c.2,-.2,.6,-.5,.9,-1.1l.3,.2c-.4,.6,-.8,1.1,-1.2,1.4c-.5,.4,-.9,.5,-1.2,.5c-.3,0,-.5,0,-.6,-.2c-.1,-.1,-.2,-.3,-.2,-.5c0,-.3,.1,-.7,.2,-1.2l.2,-.6c-.8,1,-1.5,1.7,-2.2,2.1c-.4,.3,-.9,.4,-1.4,.4c-.4,0,-.8,-.2,-1.1,-.5c-.3,-.4,-.5,-.9,-.5,-1.5c0,-1,.3,-2,.9,-3c.6,-1.1,1.3,-1.9,2.2,-2.5c.6,-.5,1.3,-.8,1.9,-.8c.4,0,.7,.1,.9,.3c.3,.2,.4,.5,.6,.9l.3,-1Zm-3.2,.5c-.4,0,-.8,.2,-1.2,.5c-.6,.5,-1.1,1.3,-1.6,2.3c-.5,1,-.7,1.9,-.7,2.7c0,.4,.1,.7,.3,.9c.2,.3,.4,.4,.7,.4c.6,0,1.3,-.5,2.1,-1.5c1,-1.2,1.5,-2.5,1.5,-3.9c0,-.5,-.1,-.9,-.3,-1.1c-.2,-.2,-.4,-.3,-.8,-.3Z" class="g2_86"/>
<path fill-rule="evenodd" d="M210.3,299l-1.8,6.1l-.2,.8q0,.1,0,.2c0,.1,.1,.2,.1,.2q.1,.1,.2,.1c.1,0,.2,0,.3,-.1c.2,-.2,.5,-.6,.9,-1.1l.3,.2c-.4,.6,-.8,1.1,-1.2,1.4c-.5,.3,-.9,.5,-1.3,.5c-.2,0,-.4,-.1,-.5,-.2c-.2,-.1,-.2,-.3,-.2,-.5c0,-.3,0,-.7,.2,-1.2l.2,-.7c-.8,1.1,-1.5,1.8,-2.2,2.2c-.5,.3,-.9,.4,-1.4,.4c-.4,0,-.8,-.2,-1.1,-.5c-.3,-.4,-.5,-.9,-.5,-1.5c0,-1,.3,-2,.9,-3c.5,-1.1,1.3,-1.9,2.1,-2.6c.7,-.5,1.4,-.7,2,-.7c.3,0,.7,.1,.9,.3c.2,.2,.4,.5,.5,.9l.4,-1Zm-3.2,.5c-.4,0,-.8,.1,-1.2,.5c-.6,.5,-1.2,1.3,-1.6,2.3c-.5,.9,-.8,1.9,-.8,2.7c0,.4,.2,.7,.4,.9c.2,.3,.4,.4,.7,.4c.6,0,1.3,-.5,2.1,-1.5c1,-1.2,1.5,-2.6,1.5,-3.9c0,-.5,-.1,-.9,-.3,-1.1c-.2,-.2,-.5,-.3,-.8,-.3Z" class="g2_86"/>
<path fill-rule="evenodd" d="M246.8,299.1l-2.5,8.7c1,-1.7,1.9,-2.8,2.5,-3.3c.6,-.5,1.2,-.8,1.7,-.8c.3,0,.6,.1,.8,.3c.2,.2,.2,.5,.2,.8c0,.4,0,.9,-.2,1.4l-1.1,3.8c-.1,.4,-.2,.7,-.2,.7c0,.1,0,.2,.1,.2c0,.1,.1,.1,.1,.1c.1,0,.2,0,.3,-.1c.4,-.3,.7,-.6,1,-1.1l.3,.2c-.2,.3,-.5,.6,-.8,1c-.4,.4,-.7,.7,-1,.8c-.2,.1,-.5,.2,-.7,.2c-.2,0,-.4,0,-.5,-.2c-.1,-.1,-.2,-.3,-.2,-.5c0,-.3,.1,-.8,.3,-1.5l1,-3.6c.2,-.4,.2,-.8,.2,-1q0,-.2,-.1,-.3c-.1,-.1,-.2,-.1,-.3,-.1c-.2,0,-.3,0,-.6,.2c-.4,.2,-.8,.7,-1.4,1.4c-.1,.1,-.6,.9,-1.4,2.2c-.3,.4,-.5,.9,-.6,1.4l-.6,1.8h-1.3l2.9,-10.2l.3,-1.1c0,-.2,0,-.3,-.2,-.5c-.1,-.1,-.3,-.1,-.4,-.1c-.2,0,-.3,0,-.5,0h-.2v-.3Z" class="g2_86"/>
<path fill-rule="evenodd" d="M270.3,286.3l-2.5,8.7c1.1,-1.6,1.9,-2.7,2.6,-3.3c.6,-.5,1.1,-.8,1.7,-.8c.3,0,.5,.1,.7,.3c.2,.2,.3,.5,.3,.8c0,.4,-.1,.9,-.2,1.4l-1.1,3.8c-.2,.4,-.2,.7,-.2,.7c0,.1,0,.2,0,.2q.1,.1,.2,.1c.1,0,.2,0,.3,-.1c.3,-.3,.7,-.6,1,-1.1l.3,.2c-.2,.3,-.5,.7,-.9,1c-.3,.4,-.7,.7,-.9,.8c-.3,.2,-.5,.2,-.7,.2c-.2,0,-.4,0,-.6,-.2c-.1,-.1,-.2,-.3,-.2,-.5c0,-.3,.1,-.8,.4,-1.5l1,-3.6c.1,-.4,.2,-.8,.2,-1c0,-.1,-.1,-.2,-.1,-.3c-.1,-.1,-.2,-.1,-.3,-.1c-.2,0,-.4,.1,-.6,.2c-.4,.2,-.9,.7,-1.4,1.4c-.2,.2,-.6,.9,-1.5,2.2c-.2,.4,-.4,.9,-.6,1.4l-.5,1.8h-1.4l3,-10.2l.3,-1.1c0,-.2,-.1,-.3,-.2,-.4c-.1,-.2,-.3,-.2,-.5,-.2c-.1,0,-.3,0,-.5,0l-.2,.1v-.4Z" class="g2_86"/>
<path fill-rule="evenodd" d="M268.2,351.5l-1.8,6.1l-.2,.8q0,.1,0,.2q0,.1,.1,.2c0,.1,.1,.1,.2,.1c0,0,.1,0,.3,-.1c.2,-.2,.5,-.6,.9,-1.1l.3,.2c-.4,.6,-.8,1.1,-1.3,1.4c-.4,.3,-.8,.5,-1.2,.5c-.2,0,-.4,-.1,-.6,-.2c-.1,-.1,-.1,-.3,-.1,-.5c0,-.3,0,-.7,.2,-1.2l.1,-.7c-.7,1,-1.5,1.8,-2.1,2.2c-.5,.3,-1,.4,-1.4,.4c-.4,0,-.8,-.2,-1.1,-.5c-.3,-.4,-.5,-.9,-.5,-1.5c0,-1,.3,-2,.8,-3c.6,-1.1,1.3,-1.9,2.2,-2.6c.7,-.5,1.4,-.7,2,-.7c.3,0,.6,.1,.9,.3c.2,.2,.4,.5,.5,.9l.3,-1ZM265,352c-.4,0,-.8,.1,-1.2,.5c-.6,.5,-1.2,1.3,-1.7,2.2c-.4,1,-.7,1.9,-.7,2.8c0,.4,.1,.7,.3,.9c.2,.2,.5,.4,.7,.4c.7,0,1.4,-.5,2.2,-1.5c1,-1.3,1.5,-2.6,1.5,-3.9c0,-.5,-.1,-.9,-.3,-1.1c-.2,-.2,-.5,-.3,-.8,-.3Z" class="g2_86"/>
<path fill-rule="evenodd" d="M316.6,314.5l-1.7,6l-.2,.9c0,0,0,.1,0,.2c0,0,0,.1,0,.2q.1,.1,.2,.1c.1,0,.2,-.1,.3,-.2c.3,-.1,.6,-.5,1,-1l.3,.2c-.5,.6,-.9,1.1,-1.3,1.4c-.4,.3,-.8,.5,-1.2,.5c-.3,0,-.5,-.1,-.6,-.2c-.1,-.1,-.2,-.3,-.2,-.6c0,-.3,.1,-.6,.2,-1.1l.2,-.7c-.8,1,-1.5,1.7,-2.2,2.2c-.4,.2,-.9,.4,-1.3,.4c-.5,0,-.9,-.2,-1.2,-.6c-.3,-.3,-.4,-.8,-.4,-1.4c0,-1,.2,-2,.8,-3c.6,-1.1,1.3,-1.9,2.2,-2.6c.7,-.5,1.3,-.7,1.9,-.7c.4,0,.7,.1,.9,.3c.3,.2,.5,.5,.6,.9l.3,-1Zm-3.2,.4c-.3,0,-.8,.2,-1.2,.6c-.6,.5,-1.1,1.2,-1.6,2.2c-.5,1,-.7,1.9,-.7,2.7c0,.4,.1,.8,.3,1c.2,.2,.4,.4,.7,.4c.6,0,1.3,-.5,2.1,-1.5c1,-1.3,1.5,-2.6,1.5,-3.9c0,-.5,-.1,-.9,-.3,-1.1c-.2,-.2,-.4,-.4,-.8,-.4Z" class="g2_86"/>
<path d="M206.4,345.8h85.3m29.4,-79.4H235.8m-28.7,79.8L235.9,266m84.5,0l-28.9,80.2" class="g3_86"/>
<path d="M236.3,267v78.8m-.2,-79l74.3,26.7" class="g4_86"/>
<path fill-rule="evenodd" d="M714.8,712.3l-2.5,8.7c1.1,-1.7,1.9,-2.7,2.5,-3.3c.6,-.5,1.2,-.8,1.8,-.8c.3,0,.5,.1,.7,.3c.2,.2,.3,.5,.3,.8c0,.4,-.1,.9,-.3,1.4l-1.1,3.8c-.1,.4,-.2,.7,-.2,.7c0,.1,.1,.2,.1,.2q.1,.1,.2,.1c.1,0,.2,0,.3,-.1c.3,-.3,.6,-.6,1,-1.1l.2,.2c-.2,.3,-.4,.6,-.8,1c-.4,.4,-.7,.7,-.9,.8c-.3,.2,-.5,.2,-.7,.2c-.2,0,-.4,0,-.6,-.2c-.1,-.1,-.2,-.3,-.2,-.5c0,-.3,.1,-.8,.3,-1.5l1.1,-3.6c.1,-.4,.2,-.8,.2,-1c0,-.1,-.1,-.2,-.1,-.3c-.1,-.1,-.2,-.1,-.3,-.1c-.2,0,-.4,0,-.6,.2c-.4,.2,-.9,.7,-1.4,1.4c-.2,.2,-.7,.9,-1.5,2.2c-.2,.4,-.4,.9,-.6,1.4l-.6,1.8h-1.3l2.9,-10.2l.4,-1.1c0,-.2,-.1,-.3,-.2,-.5c-.2,-.1,-.3,-.1,-.5,-.1c-.1,0,-.3,0,-.5,0l-.2,.1v-.4Z" class="g2_86"/>
<path fill-rule="evenodd" d="M666.7,725.7l-2.5,8.7c1.1,-1.6,1.9,-2.7,2.5,-3.2c.6,-.6,1.2,-.8,1.8,-.8c.3,0,.5,.1,.7,.3c.2,.2,.3,.4,.3,.7c0,.4,-.1,.9,-.3,1.5l-1.1,3.7c-.1,.5,-.2,.7,-.2,.8c0,.1,.1,.1,.1,.2c.1,0,.1,.1,.2,.1c.1,0,.2,-.1,.3,-.2c.3,-.2,.6,-.6,1,-1l.2,.1c-.2,.3,-.4,.7,-.8,1.1c-.4,.3,-.7,.6,-.9,.8c-.3,.1,-.5,.2,-.7,.2c-.3,0,-.4,-.1,-.6,-.2c-.1,-.2,-.2,-.4,-.2,-.6c0,-.2,.1,-.7,.3,-1.4l1.1,-3.6c.1,-.5,.2,-.8,.2,-1.1c0,-.1,-.1,-.2,-.2,-.3c0,0,-.1,-.1,-.2,-.1c-.2,0,-.4,.1,-.6,.2c-.4,.3,-.9,.7,-1.4,1.4c-.2,.2,-.7,.9,-1.5,2.3c-.2,.4,-.4,.8,-.6,1.3l-.6,1.9h-1.3l2.9,-10.3l.4,-1.1c0,-.1,-.1,-.3,-.2,-.4c-.2,-.1,-.3,-.2,-.5,-.2c-.1,0,-.3,0,-.5,.1h-.2v-.3Z" class="g2_86"/>
<path fill-rule="evenodd" d="M723.6,720l-1.2,4.2c.4,-.4,.8,-.7,1,-.9c.3,-.1,.6,-.2,.9,-.2c.5,0,.8,.2,1.1,.5c.3,.3,.4,.6,.4,1.1c0,.7,-.2,1.3,-.5,2c-.4,.6,-.9,1.1,-1.4,1.4c-.6,.4,-1.1,.6,-1.6,.6c-.6,0,-1.3,-.3,-1.9,-.7l1.8,-6.3c.2,-.4,.2,-.7,.2,-.8c0,-.1,0,-.2,-.1,-.2c-.1,-.1,-.2,-.1,-.4,-.1c-.1,0,-.2,0,-.4,0v-.2Zm-2.3,8.1c.4,.2,.8,.3,1.1,.3c.3,0,.7,-.1,1,-.4c.4,-.3,.7,-.7,1,-1.3c.3,-.6,.4,-1.2,.4,-1.8c0,-.4,-.1,-.7,-.2,-.9c-.2,-.2,-.4,-.3,-.7,-.3c-.3,0,-.7,.1,-1.1,.4c-.3,.3,-.6,.7,-.7,1.3Z" class="g2_86"/>
<path fill-rule="evenodd" d="M677.7,736.6l-1.1,4l-.2,.6c0,0,0,.1,0,.1q0,.1,.1,.2h.1c0,0,.1,0,.2,-.1c.1,-.1,.3,-.3,.6,-.7l.2,.1c-.3,.5,-.6,.8,-.8,1c-.3,.2,-.6,.3,-.8,.3c-.2,0,-.3,0,-.4,-.1c-.1,-.1,-.2,-.2,-.2,-.4c0,-.2,.1,-.4,.2,-.8l.1,-.4c-.5,.7,-1,1.2,-1.4,1.4c-.4,.2,-.7,.3,-1,.3c-.3,0,-.5,-.1,-.7,-.3c-.2,-.3,-.3,-.6,-.3,-1c0,-.7,.2,-1.3,.5,-2c.4,-.7,.9,-1.3,1.5,-1.7c.4,-.4,.9,-.5,1.3,-.5c.2,0,.4,0,.6,.2c.1,.1,.3,.3,.4,.6l.2,-.7Zm-2.1,.3c-.3,0,-.5,.1,-.8,.3c-.4,.4,-.8,.9,-1.1,1.5c-.3,.7,-.5,1.3,-.5,1.8c0,.3,.1,.5,.2,.7c.2,.1,.3,.2,.5,.2c.4,0,.9,-.3,1.4,-.9c.7,-.9,1,-1.8,1,-2.7c0,-.3,0,-.5,-.2,-.7c-.1,-.1,-.3,-.2,-.5,-.2Z" class="g2_86"/>
<path d="M657.6,703.6v53.3" class="g3_86"/>
<path fill-rule="evenodd" d="M695.5,762l-1.8,6.1l-.2,.8c0,.1,0,.2,0,.2c0,.1,0,.2,.1,.3c0,0,.1,.1,.2,.1c0,0,.1,-.1,.3,-.2c.2,-.2,.5,-.5,.9,-1.1l.3,.3c-.4,.6,-.8,1,-1.3,1.4c-.4,.3,-.8,.5,-1.2,.5c-.2,0,-.4,-.1,-.6,-.2c-.1,-.2,-.2,-.3,-.2,-.6c0,-.3,.1,-.7,.2,-1.1l.2,-.7c-.8,1,-1.5,1.7,-2.1,2.1c-.5,.3,-1,.5,-1.4,.5c-.5,0,-.8,-.2,-1.1,-.6c-.4,-.3,-.5,-.8,-.5,-1.5c0,-.9,.3,-1.9,.8,-3c.6,-1,1.3,-1.9,2.2,-2.5c.7,-.5,1.3,-.8,1.9,-.8c.4,0,.7,.1,1,.3c.2,.2,.4,.5,.5,1l.3,-1Zm-3.2,.5c-.4,0,-.8,.2,-1.3,.6c-.6,.5,-1.1,1.2,-1.6,2.2c-.5,1,-.7,1.9,-.7,2.7c0,.4,.1,.7,.3,1c.2,.2,.5,.3,.7,.3c.7,0,1.4,-.5,2.1,-1.4c1.1,-1.3,1.6,-2.6,1.6,-3.9c0,-.6,-.1,-.9,-.3,-1.1c-.2,-.3,-.5,-.4,-.8,-.4Z" class="g2_86"/>
<path fill-rule="evenodd" d="M771.2,725.4l-1.8,6.2c.6,-.6,1.1,-1.1,1.5,-1.3c.5,-.2,.9,-.3,1.4,-.3c.6,0,1.2,.2,1.6,.6c.4,.5,.6,1.1,.6,1.8c0,1,-.3,1.9,-.8,2.9c-.6,.9,-1.2,1.7,-2.1,2.2c-.8,.5,-1.6,.8,-2.4,.8c-.9,0,-1.8,-.3,-2.8,-1l2.7,-9.4c.2,-.7,.3,-1.1,.3,-1.2c0,-.2,0,-.3,-.1,-.4c-.1,-.1,-.3,-.2,-.6,-.2c-.1,0,-.3,.1,-.6,.1v-.3Zm-3.5,12c.6,.3,1.2,.5,1.6,.5c.5,0,1.1,-.2,1.7,-.6c.5,-.4,1,-1,1.4,-1.9c.4,-.9,.6,-1.9,.6,-2.8c0,-.5,-.1,-1,-.4,-1.3c-.2,-.3,-.6,-.5,-.9,-.5c-.6,0,-1.1,.3,-1.7,.7c-.5,.5,-.9,1.1,-1.1,1.9Z" class="g2_86"/>
<path d="M760.4,730.2l-12.3,26.6M657.9,703.9l94.5,43.6m-4.4,9.3H633.2l24.5,-53.2h115l-12.3,26.6" class="g3_86"/>
<path d="M657.6,747.7c6.5,.4,9.5,3.4,9.1,9.1m76.2,-13.6c4,-5.2,8.2,-6,12.7,-2.5" class="g1_86"/>
<path fill-rule="evenodd" d="M662.2,752.4c.5,.2,.7,.8,.4,1.3c-.2,.5,-.8,.7,-1.3,.5c-.5,-.3,-.7,-.9,-.5,-1.4c.3,-.5,.9,-.7,1.4,-.4Z" class="g2_86"/>
<path fill-rule="evenodd" d="M748.9,741.2c.5,-.3,1.1,0,1.3,.5c.2,.5,0,1.1,-.5,1.3c-.5,.2,-1.1,0,-1.4,-.5c-.2,-.5,.1,-1.1,.6,-1.3Z" class="g2_86"/>
<path d="M184.8,512.8H835.9V426.6H184.8v86.2Z" class="g5_86"/>
<path d="M73.7,532H835.9M73.7,679.3H835.9M73.7,899.4H835.9" class="g6_86"/>
<path d="M0,138.7H120.6V0H0V138.7Z" class="g0_86"/>
<path d="M135.9,464.3h39.6V426.8H135.9v37.5Z" class="g7_86"/>
<path d="M73.6,166.9H835.8" class="g6_86"/>
<path d="M520,450.8c0,0,-18.3,0,-18.3,18.3v3.8c0,0,0,18.4,18.3,18.4H790.1c0,0,18.3,0,18.3,-18.4v-3.8c0,0,0,-18.3,-18.3,-18.3H520Z" class="g8_86"/>
<path d="M355.3,494.2h54.5" class="g9_86"/>
<path d="M355.4,494.4l26,-47.9m54.4,.1H381.3" class="ga_86"/>
<path d="M381.6,446.7V494m28.2,.6l26,-47.9m-12.7,22.9L381.3,446.9" class="g9_86"/>
<path d="M375.2,493.9c-.2,-6.4,6.4,-6,6.4,-6" class="gb_86"/>
<path d="M379.1,492c.2,0,.4,-.1,.4,-.4c0,-.2,-.2,-.3,-.4,-.3c-.2,0,-.3,.1,-.3,.3c0,.3,.1,.4,.3,.4Z" class="gc_86"/>
<path d="M417.7,466.3c2.9,-5.8,8.5,-2.2,8.5,-2.2" class="gb_86"/>
<path d="M422,466.4c.2,0,.4,-.1,.4,-.3c0,-.2,-.2,-.4,-.4,-.4c-.2,0,-.4,.2,-.4,.4c0,.2,.2,.3,.4,.3Z" class="gc_86"/>
</svg>