<?xml version="1.0" encoding="UTF-8" standalone="no"?>
<!DOCTYPE svg PUBLIC "-//W3C//DTD SVG 1.1//EN"
"http://www.w3.org/Graphics/SVG/1.1/DTD/svg11.dtd">
<svg viewBox="0 0 909 1147" version="1.1" xmlns="http://www.w3.org/2000/svg" xmlns:xlink="http://www.w3.org/1999/xlink">
<defs>
<style type="text/css"><![CDATA[
.g0_50{
fill: #FAAF82;
}
.g1_50{
fill: none;
stroke: #0EA5DF;
stroke-width: 0.763;
stroke-miterlimit: 10;
}
]]></style>
</defs>
<path d="M0,1131H73.8v-51.5H0V1131Z" class="g0_50"/>
<path d="M508.9,707.3H537m-27.8,28.9V707.7m27.8,-.4H686.9M537,736.2V707.7M509.2,754V736.2M537,754V736.2M686.9,707.3h27.6m-27.6,28.5V707.7m27.6,-.4H835.4M714.5,735.8V707.7M835,735.8V707.7M686.5,736.2h28M686.9,754V736.6m27.6,-.4H835.4M714.5,754.4V736.6M835,754.4V736.6M714.5,772.2V754.4M835,772.2V754.4m-326.1,0H537m-27.8,18.2V754.8m27.8,-.4H687.2M537,772.6V754.8m-27.8,51.7V772.6M537,806.5V772.6m-28.1,34.3H537m0,0H686.9m0,-34.7V754.8m-.4,17.8h28m-27.6,33.9V773m27.6,-.4H835.4M714.5,806.5V773M835,806.5V773M686.9,806.9h27.6m0,0H835.4" class="g1_50"/>
<path d="M0,141.1H120.6V0H0V141.1Z" class="g0_50"/>
</svg>