<?xml version="1.0" encoding="UTF-8" standalone="no"?>
<!DOCTYPE svg PUBLIC "-//W3C//DTD SVG 1.1//EN"
"http://www.w3.org/Graphics/SVG/1.1/DTD/svg11.dtd">
<svg viewBox="0 0 909 1147" version="1.1" xmlns="http://www.w3.org/2000/svg" xmlns:xlink="http://www.w3.org/1999/xlink">
<defs>
<clipPath id="c0_66"><path d="M185.1,545.2V363.5H726.8V545.2Z"/></clipPath>
<style type="text/css"><![CDATA[
.g0_66{
fill: #B6D774;
}
.g1_66{
fill: none;
stroke: #0EA5DF;
stroke-width: 3.055;
}
.g2_66{
fill: #FFF1E0;
}
.g3_66{
fill: none;
stroke: #000;
stroke-width: 0.763;
}
.g4_66{
fill: #0C4B7F;
}
.g5_66{
fill: none;
stroke: #8ED8F8;
stroke-width: 0.763;
stroke-miterlimit: 2;
}
.g6_66{
fill: none;
stroke: #000;
stroke-width: 0.763;
stroke-miterlimit: 2;
}
.g7_66{
fill: #FFF;
}
.g8_66{
fill: #000;
}
.g9_66{
fill: #D82C20;
}
.ga_66{
fill: none;
stroke: #D82C20;
stroke-width: 1.527;
}
.gb_66{
fill: none;
stroke: #0EA5DF;
stroke-width: 1.527;
}
.gc_66{
fill: #0EA5DF;
}
]]></style>
</defs>
<path d="M0,1131H73.8v-51.5H0V1131Z" class="g0_66"/>
<path d="M73.6,265.7H835.8" class="g1_66"/>
<path d="M184.5,872.5H835.6V754.6H184.5V872.5Z" class="g2_66"/>
<path d="M73.6,896.5H835.8" class="g1_66"/>
<path d="M73.6,1053.8H296.7" class="g3_66"/>
<path d="M0,138.7H120.6V0H0V138.7Z" class="g0_66"/>
<path d="M135.6,792.3h39.6V754.8H135.6v37.5Z" class="g4_66"/>
<path d="M682.7,369.9h43.7v43.7H682.7V369.9ZM245.5,501.1h43.7v43.7H245.5V501.1ZM464.2,369.9h43.7v43.7H464.2V369.9Zm87.3,0h43.7v43.7H551.5V369.9Z" class="g5_66"/>
<path d="M595.2,369.9h43.7v43.7H595.2V369.9Zm0,43.7h43.7v43.8H595.2V413.6Z" class="g6_66"/>
<path d="M595.2,457.4h43.7v43.7H595.2V457.4Zm0,43.7h43.7v43.7H595.2V501.1Z" class="g5_66"/>
<path d="M201.8,544.8h43.7V501.1H201.8v43.7Z" class="g7_66"/>
<path d="M201.8,501.1h43.7v43.7H201.8V501.1Zm87.4,0H333v43.7H289.2V501.1Zm43.8,0h43.7v43.7H333V501.1Zm43.7,0h43.7v43.7H376.7V501.1Zm43.7,0h43.8v43.7H420.4V501.1Zm43.8,-87.5h43.7v43.8H464.2V413.6Zm0,43.8h43.7v43.7H464.2V457.4Zm0,43.7h43.7v43.7H464.2V501.1Zm87.3,-87.5h43.7v43.8H551.5V413.6Zm0,43.8h43.7v43.7H551.5V457.4Zm0,43.7h43.7v43.7H551.5V501.1Z" class="g5_66"/>
<path fill-rule="evenodd" d="M195.2,506.4l-3.5,4.7h3Zm1.8,-3l-1,10.1c0,.4,0,.7,0,.9c0,.2,0,.4,.1,.5c.1,.2,.3,.3,.5,.4c.1,.1,.5,.2,.9,.2l-.1,.3h-4.7l.1,-.3h.2c.3,0,.7,-.1,.9,-.3c.2,-.1,.3,-.3,.4,-.6c.1,-.1,.1,-.6,.2,-1.3l.1,-1.5h-3.4l-1.3,1.7c-.2,.3,-.4,.6,-.5,.8c-.1,.1,-.1,.3,-.1,.4c0,.2,.1,.4,.2,.5c.2,.2,.4,.2,.8,.3l-.1,.3h-3.6l.1,-.3c.5,-.1,.8,-.2,1.2,-.5c.3,-.3,.8,-.9,1.5,-1.8l7.2,-9.8Z" class="g8_66"/>
<path fill-rule="evenodd" d="M471.5,509.7c.7,.1,1.2,.1,1.5,.1c1,0,1.8,-.2,2.5,-.8c.7,-.6,1.1,-1.3,1.1,-2.3c0,-.7,-.2,-1.3,-.7,-1.7c-.4,-.4,-1.1,-.6,-2.1,-.6c-.2,0,-.4,0,-.7,0Zm1.8,-6c.4,0,.7,0,.8,0c1.3,0,2.2,-.2,2.8,-.8c.6,-.5,.9,-1.2,.9,-2c0,-.6,-.2,-1.1,-.5,-1.4c-.4,-.4,-1,-.5,-1.8,-.5c-.2,0,-.5,0,-.8,.1Zm-1.8,-5l.1,-.3h4.3c.8,0,1.4,.1,2,.3c.6,.2,1,.5,1.3,.9c.2,.5,.4,.9,.4,1.3c0,.7,-.3,1.4,-.8,1.9c-.5,.6,-1.3,1,-2.4,1.3c.7,.3,1.2,.6,1.6,1.1c.3,.4,.5,.9,.5,1.5c0,.6,-.1,1.1,-.5,1.7c-.3,.5,-.7,1,-1.2,1.3c-.4,.3,-1,.5,-1.7,.6c-.5,.1,-1.3,.2,-2.3,.2h-4.5l.2,-.3c.4,0,.7,-.1,.9,-.2c.2,-.1,.4,-.2,.5,-.4c.2,-.2,.4,-.7,.6,-1.5l2.2,-7.4c.2,-.6,.2,-1,.2,-1.3c0,-.2,0,-.4,-.2,-.5c-.2,-.1,-.5,-.2,-.9,-.2c-.1,0,-.2,0,-.3,0Z" class="g8_66"/>
<path fill-rule="evenodd" d="M481.2,364l-.9,3.9H480v-1c0,-.3,-.1,-.7,-.2,-.9c-.1,-.3,-.3,-.6,-.5,-.8c-.2,-.2,-.5,-.3,-.8,-.5c-.3,-.1,-.7,-.1,-1.1,-.1c-1.1,0,-2,.3,-2.8,.8c-1,.8,-1.8,1.8,-2.4,3.2c-.5,1.1,-.7,2.3,-.7,3.4c0,1.2,.3,2.1,1,2.8c.7,.7,1.6,1.1,2.7,1.1c.8,0,1.5,-.2,2.2,-.6c.6,-.3,1.2,-.9,1.8,-1.7h.4c-.6,1.1,-1.4,1.8,-2.2,2.3c-.8,.5,-1.7,.8,-2.8,.8c-1,0,-1.9,-.2,-2.7,-.7c-.7,-.4,-1.3,-1,-1.7,-1.7c-.4,-.8,-.6,-1.6,-.6,-2.4c0,-1.4,.3,-2.7,1,-3.9c.8,-1.3,1.7,-2.2,3,-3c1.2,-.7,2.5,-1,3.7,-1c.6,0,1.3,.1,2,.4c.3,.1,.6,.2,.7,.2c.1,0,.3,-.1,.4,-.1c.1,-.1,.3,-.3,.5,-.5Z" class="g8_66"/>
<path clip-path="url(#c0_66)" fill-rule="evenodd" d="M191.5,364.2l-2.6,9.1c-.2,.7,-.3,1.1,-.3,1.2c0,.1,0,.2,.1,.3c.1,.1,.2,.2,.3,.2c.1,.1,.4,.1,.7,.1c.9,0,1.8,-.1,2.6,-.3c.8,-.2,1.5,-.5,2,-.9c.7,-.5,1.3,-1.3,1.7,-2.3c.5,-.9,.7,-2,.7,-3.3c0,-1.4,-.3,-2.4,-1,-3.1c-.7,-.7,-1.7,-1,-2.9,-1c-.4,0,-.8,0,-1.3,0m-3.1,-.3l.1,-.4h3.8c1.7,0,2.9,.2,3.7,.6c.8,.4,1.4,1,1.9,1.8c.5,.8,.7,1.6,.7,2.6c0,.8,-.1,1.5,-.4,2.3c-.3,.7,-.6,1.3,-.9,1.8c-.4,.4,-.9,.9,-1.6,1.5c-.7,.5,-1.5,.9,-2.3,1.2c-.9,.2,-1.9,.4,-3.1,.4h-5.2l.1,-.4c.5,0,.8,0,1,-.1c.2,-.1,.4,-.2,.5,-.4c.2,-.3,.4,-.8,.6,-1.5l2.2,-7.4c.1,-.5,.2,-1,.2,-1.3c0,-.2,-.1,-.4,-.2,-.6c-.2,-.1,-.5,-.1,-.9,-.1Z" class="g8_66"/>
<path fill-rule="evenodd" d="M507.9,369.9h43.8v43.7H507.9V369.9Z" class="g9_66"/>
<path d="M420.4,457.4h43.8v43.7H420.4V457.4Zm0,-43.8h43.8v43.8H420.4V413.6Zm-43.7,43.8h43.7v43.7H376.7V457.4Zm0,-43.8h43.7v43.8H376.7V413.6ZM333,457.4h43.7v43.7H333V457.4Zm0,-43.8h43.7v43.8H333V413.6Zm-43.8,43.8H333v43.7H289.2V457.4Zm0,-43.8H333v43.8H289.2V413.6ZM420.4,369.9h43.8v43.7H420.4V369.9Zm-43.7,0h43.7v43.7H376.7V369.9Zm-43.7,0h43.7v43.7H333V369.9Zm-43.8,0H333v43.7H289.2V369.9Zm-43.7,87.5h43.7v43.7H245.5V457.4Zm0,-43.8h43.7v43.8H245.5V413.6Zm0,-43.7h43.7v43.7H245.5V369.9Zm-43.7,87.5h43.7v43.7H201.8V457.4Zm0,-43.8h43.7v43.8H201.8V413.6Zm0,-43.7h43.7v43.7H201.8V369.9Z" class="g6_66"/>
<path fill-rule="evenodd" d="M581.7,460.5l1.1,9.8l7,-9.8h3v.3c-.7,.1,-1,.1,-1.2,.2c-.2,0,-.3,.2,-.5,.4c-.2,.3,-.3,.7,-.5,1.4l-2.3,7.7c-.1,.4,-.2,.8,-.2,1c0,.3,.1,.4,.3,.6c.2,.1,.6,.2,1,.2h.3l-.1,.3h-5.1l.1,-.3h.2c.5,0,.8,0,1,-.2c.2,-.1,.4,-.3,.5,-.5c.2,-.3,.4,-.9,.6,-1.8l2.1,-7l-7.1,9.8h-.4l-1.1,-9.8l-2.2,7.5c-.2,.6,-.3,1.1,-.3,1.3c0,.2,.1,.4,.3,.5c.1,.1,.5,.2,1.1,.2l-.1,.3h-4l.1,-.3h.3c.6,0,1,-.1,1.3,-.4c.2,-.2,.4,-.7,.6,-1.4l2.6,-9.1c-.2,-.2,-.4,-.3,-.6,-.4c-.1,-.1,-.5,-.1,-.9,-.2v-.3Z" class="g8_66"/>
<path fill-rule="evenodd" d="M691.6,460.4l3.7,9.5l2,-7.1c.2,-.6,.3,-1.1,.3,-1.4c0,-.2,-.1,-.4,-.2,-.5c-.2,-.1,-.5,-.2,-.9,-.2c-.1,0,-.2,0,-.2,0l.1,-.3h3.9l-.1,.3c-.5,0,-.8,0,-1,.1c-.2,.2,-.4,.3,-.6,.5c-.2,.3,-.4,.8,-.6,1.5l-2.8,10h-.3l-4.1,-10.3l-2.1,7.6c-.2,.6,-.3,1,-.3,1.3c0,.3,.1,.4,.2,.5c.2,.2,.5,.2,1.1,.3l-.1,.3h-3.8l.1,-.3c.5,0,.8,-.1,1,-.1c.2,-.2,.4,-.3,.5,-.5c.2,-.2,.4,-.7,.6,-1.5l2.4,-8.4c-.2,-.4,-.5,-.6,-.7,-.8c-.3,-.1,-.7,-.2,-1.3,-.2l.1,-.3Z" class="g8_66"/>
<path fill-rule="evenodd" d="M692.1,371.7c.7,.2,1.2,.3,1.6,.3c.7,0,1.3,-.2,1.8,-.4c.5,-.3,.9,-.7,1.2,-1.3c.3,-.5,.5,-1,.5,-1.6c0,-.6,-.2,-1.1,-.6,-1.5c-.3,-.3,-.9,-.5,-1.6,-.5c-.4,0,-.9,.1,-1.5,.2ZM690.4,366h4.8c1.2,0,2.2,.3,2.8,.8c.6,.6,.9,1.2,.9,2c0,.6,-.2,1.2,-.6,1.8c-.3,.6,-.9,1.1,-1.7,1.4c-.8,.4,-1.6,.6,-2.5,.6c-.6,0,-1.3,-.1,-2.2,-.3l-.9,3.3c-.3,.8,-.4,1.3,-.4,1.5c0,.2,.1,.4,.3,.5c.1,.1,.5,.2,1.1,.2l-.1,.4h-4.8l.1,-.4c.6,0,1.1,-.1,1.3,-.3c.3,-.2,.5,-.8,.8,-1.8l2,-6.9c.3,-.8,.4,-1.4,.4,-1.7c0,-.2,-.1,-.3,-.3,-.5c-.1,-.1,-.5,-.2,-1.1,-.2Z" class="g8_66"/>
<path fill-rule="evenodd" d="M585.7,364.5c-.6,0,-1.2,.2,-1.7,.5c-.6,.3,-1.2,.8,-1.7,1.4c-.6,.7,-1.1,1.6,-1.5,2.7c-.6,1.3,-.8,2.6,-.8,3.8c0,.8,.2,1.6,.6,2.2c.4,.7,1.1,1,2,1c.5,0,1.1,-.1,1.6,-.4c.5,-.3,1.1,-.7,1.6,-1.4c.7,-.8,1.3,-1.9,1.8,-3.1c.5,-1.3,.8,-2.5,.8,-3.6c0,-.8,-.3,-1.5,-.7,-2.1c-.4,-.6,-1.1,-1,-2,-1m-3.3,12.2l-2.3,1.8c.3,0,.7,-.1,1,-.1c.3,0,.5,0,.8,.1c.3,0,.8,.1,1.6,.3c.9,.2,1.6,.3,2.2,.3c.7,0,1.2,-.1,1.7,-.3c.5,-.3,.9,-.7,1.3,-1.2l.3,.1c-.6,.9,-1.3,1.6,-2.1,2c-.9,.4,-1.8,.5,-2.7,.5c-.5,0,-1.2,-.1,-2.1,-.3c-1.4,-.3,-2.4,-.4,-2.9,-.4c-.2,0,-.4,0,-.5,0c-.2,.1,-.4,.1,-.6,.2l-.2,-.2l3.6,-2.9c-1.1,-.2,-1.9,-.6,-2.5,-1.5c-.6,-.8,-.9,-1.7,-.9,-2.7c0,-1.3,.4,-2.6,1.2,-4c.8,-1.4,1.8,-2.5,3,-3.3c1.2,-.8,2.5,-1.1,3.6,-1.1c.9,0,1.7,.1,2.3,.5c.6,.4,1.1,.9,1.4,1.6c.4,.6,.6,1.3,.6,2.1c0,1.3,-.4,2.7,-1.2,4.1c-.8,1.4,-1.8,2.5,-2.9,3.2c-1.2,.8,-2.4,1.1,-3.7,1.2Z" class="g8_66"/>
<path d="M638.9,369.9h43.8v43.7H638.9V369.9Zm0,43.7h43.8v43.8H638.9V413.6Z" class="g6_66"/>
<path d="M638.9,457.4h43.8v43.7H638.9V457.4Zm0,43.7h43.8v43.7H638.9V501.1Zm43.8,-87.5h43.7v43.8H682.7V413.6Zm0,43.8h43.7v43.7H682.7V457.4Zm0,43.7h43.7v43.7H682.7V501.1Z" class="g5_66"/>
<path d="M595.2,413.6h43.7v43.8H595.2V413.6Zm43.7,0h43.8v43.8H638.9V413.6Zm0,-43.7h43.8v43.7H638.9V369.9Z" class="g6_66"/>
<path d="M507.9,369.9h43.8v43.7H507.9V369.9Zm0,43.7h43.8v43.8H507.9V413.6Zm0,43.8h43.8v43.7H507.9V457.4Zm0,43.7h43.8v43.7H507.9V501.1Z" class="g5_66"/>
<path d="M595.3,847h52.2V794.8H595.3V847ZM265.9,795.1H392.4M265.9,848.9H392.4" class="ga_66"/>
<path d="M266.4,794.7v54.1M391.9,794.7v54.1" class="gb_66"/>
<path d="M204.3,1027.8H308.9V980.6H204.3v47.2Z" class="g3_66"/>
<path d="M184.8,252.9h651V165.3h-651v87.6Z" class="g2_66"/>
<path d="M135.8,202.8h39.7V165.3H135.8v37.5Z" class="gc_66"/>
</svg>