<?xml version="1.0" encoding="UTF-8" standalone="no"?>
<!DOCTYPE svg PUBLIC "-//W3C//DTD SVG 1.1//EN"
"http://www.w3.org/Graphics/SVG/1.1/DTD/svg11.dtd">
<svg viewBox="0 0 909 1147" version="1.1" xmlns="http://www.w3.org/2000/svg" xmlns:xlink="http://www.w3.org/1999/xlink">
<defs>
<clipPath id="c0_68"><path d="M140.8,1037.9v-18H171v18Z"/></clipPath>
<style type="text/css"><![CDATA[
.g0_68{
fill: #B6D774;
}
.g1_68{
fill: none;
stroke: #8ED8F8;
stroke-width: 0.763;
stroke-miterlimit: 2;
}
.g2_68{
fill: none;
stroke: #8ED8F8;
stroke-width: 0.152;
stroke-miterlimit: 2;
}
.g3_68{
fill: none;
stroke: #8ED8F8;
stroke-width: 0.458;
stroke-miterlimit: 2;
}
.g4_68{
fill: none;
stroke: #0EA5DF;
stroke-width: 3.055;
}
.g5_68{
fill: #FFF1E0;
}
.g6_68{
fill: none;
stroke: #000;
stroke-width: 0.682;
stroke-miterlimit: 2;
}
.g7_68{
fill: #000;
}
.g8_68{
fill: none;
stroke: #000;
stroke-width: 0.152;
stroke-miterlimit: 2;
}
.g9_68{
fill: #0C4B7F;
}
.ga_68{
fill: #0EA5DF;
}
.gb_68{
fill: #FFF;
}
]]></style>
</defs>
<path d="M0,1131H73.8v-51.5H0V1131Z" class="g0_68"/>
<path d="M401.8,168.3V601.4" class="g1_68"/>
<path d="M406.1,168.3V601.4M449.4,168.3V601.4M492.7,168.3V601.4M536,168.3V601.4M579.4,168.3V601.4M622.7,168.3V601.4M666,168.3V601.4M709.3,168.3V601.4M752.6,168.3V601.4M795.9,168.3V601.4M410.5,168.3V601.4M453.8,168.3V601.4M497.1,168.3V601.4M540.4,168.3V601.4M583.7,168.3V601.4M627,168.3V601.4M670.3,168.3V601.4M713.6,168.3V601.4M756.9,168.3V601.4M800.2,168.3V601.4M414.8,168.3V601.4M458.1,168.3V601.4M501.4,168.3V601.4M544.7,168.3V601.4M588,168.3V601.4M631.3,168.3V601.4M674.6,168.3V601.4M717.9,168.3V601.4M761.2,168.3V601.4M804.5,168.3V601.4M419.1,168.3V601.4M462.4,168.3V601.4M505.7,168.3V601.4M549,168.3V601.4M592.3,168.3V601.4M635.7,168.3V601.4M679,168.3V601.4M722.3,168.3V601.4M765.6,168.3V601.4M808.9,168.3V601.4" class="g2_68"/>
<path d="M423.4,168.3V601.4M466.8,168.3V601.4M510.1,168.3V601.4M553.4,168.3V601.4M596.7,168.3V601.4M640,168.3V601.4M683.3,168.3V601.4M726.6,168.3V601.4M769.9,168.3V601.4M813.2,168.3V601.4" class="g3_68"/>
<path d="M427.8,168.3V601.4M471.1,168.3V601.4M514.4,168.3V601.4M557.7,168.3V601.4M601,168.3V601.4M644.3,168.3V601.4M687.6,168.3V601.4M730.9,168.3V601.4M774.2,168.3V601.4M817.5,168.3V601.4M432.1,168.3V601.4M475.4,168.3V601.4M518.7,168.3V601.4M562,168.3V601.4M605.3,168.3V601.4M648.6,168.3V601.4M692,168.3V601.4M735.3,168.3V601.4M778.6,168.3V601.4M821.9,168.3V601.4M436.4,168.3V601.4M479.7,168.3V601.4M523.1,168.3V601.4M566.4,168.3V601.4M609.7,168.3V601.4M653,168.3V601.4M696.3,168.3V601.4M739.6,168.3V601.4M782.9,168.3V601.4M826.2,168.3V601.4M440.8,168.3V601.4M484.1,168.3V601.4M527.4,168.3V601.4M570.7,168.3V601.4M614,168.3V601.4M657.3,168.3V601.4M700.6,168.3V601.4M743.9,168.3V601.4M787.2,168.3V601.4M830.5,168.3V601.4" class="g2_68"/>
<path d="M445.1,168.3V601.4M488.4,168.3V601.4M531.7,168.3V601.4M575,168.3V601.4M618.3,168.3V601.4M661.6,168.3V601.4M704.9,168.3V601.4M748.2,168.3V601.4M791.6,168.3V601.4M834.9,168.3V601.4m-433.1,0H834.9" class="g1_68"/>
<path d="M401.8,597.1H834.9M401.8,553.8H834.9M401.8,510.4H834.9M401.8,467.1H834.9M401.8,423.8H834.9M401.8,380.5H834.9M401.8,337.2H834.9M401.8,293.9H834.9M401.8,250.6H834.9M401.8,207.3H834.9M401.8,592.7H834.9M401.8,549.4H834.9M401.8,506.1H834.9M401.8,462.8H834.9M401.8,419.5H834.9M401.8,376.2H834.9M401.8,332.9H834.9M401.8,289.6H834.9M401.8,246.3H834.9M401.8,203H834.9M401.8,588.4H834.9M401.8,545.1H834.9M401.8,501.8H834.9M401.8,458.5H834.9M401.8,415.2H834.9M401.8,371.9H834.9M401.8,328.6H834.9M401.8,285.3H834.9M401.8,241.9H834.9M401.8,198.6H834.9M401.8,584.1H834.9M401.8,540.8H834.9M401.8,497.5H834.9M401.8,454.1H834.9M401.8,410.8H834.9M401.8,367.5H834.9M401.8,324.2H834.9M401.8,280.9H834.9M401.8,237.6H834.9M401.8,194.3H834.9" class="g2_68"/>
<path d="M401.8,579.7H834.9M401.8,536.4H834.9M401.8,493.1H834.9M401.8,449.8H834.9M401.8,406.5H834.9M401.8,363.2H834.9M401.8,319.9H834.9M401.8,276.6H834.9M401.8,233.3H834.9M401.8,190H834.9" class="g3_68"/>
<path d="M401.8,575.4H834.9M401.8,532.1H834.9M401.8,488.8H834.9M401.8,445.5H834.9M401.8,402.2H834.9M401.8,358.9H834.9M401.8,315.6H834.9M401.8,272.3H834.9M401.8,228.9H834.9M401.8,185.6H834.9M401.8,571.1H834.9M401.8,527.8H834.9M401.8,484.5H834.9M401.8,441.2H834.9M401.8,397.8H834.9M401.8,354.5H834.9M401.8,311.2H834.9M401.8,267.9H834.9M401.8,224.6H834.9M401.8,181.3H834.9M401.8,566.7H834.9M401.8,523.4H834.9M401.8,480.1H834.9M401.8,436.8H834.9M401.8,393.5H834.9M401.8,350.2H834.9M401.8,306.9H834.9M401.8,263.6H834.9M401.8,220.3H834.9M401.8,177H834.9M401.8,562.4H834.9M401.8,519.1H834.9M401.8,475.8H834.9M401.8,432.5H834.9M401.8,389.2H834.9M401.8,345.9H834.9M401.8,302.6H834.9M401.8,259.3H834.9M401.8,216H834.9M401.8,172.7H834.9" class="g2_68"/>
<path d="M401.8,558.1H834.9M401.8,514.8H834.9M401.8,471.5H834.9M401.8,428.2H834.9M401.8,384.9H834.9M401.8,341.5H834.9M401.8,298.2H834.9M401.8,254.9H834.9M401.8,211.6H834.9M401.8,168.3H834.9" class="g1_68"/>
<path d="M72.6,164.9H834.9" class="g4_68"/>
<path d="M184.6,490.8H835.7V330.3H184.6V490.8Z" class="g5_68"/>
<path d="M706.2,376.1h88.3v88.4H706.2V376.1Zm-161.2,0h88.3v88.4H545V376.1Zm-161.2,0h88.3v88.4H383.8V376.1Zm-161.3,0h88.4v88.4H222.5V376.1Z" class="g6_68"/>
<path fill-rule="evenodd" d="M230.9,357.8l.9,-4.1h.2c0,.4,0,.7,0,1c0,.7,.2,1.3,.7,1.8c.5,.4,1.1,.7,1.8,.7c.7,0,1.3,-.2,1.6,-.7c.4,-.4,.6,-.9,.6,-1.5c0,-.3,-.1,-.7,-.3,-1c-.2,-.4,-.9,-1.2,-2,-2.3c-.5,-.5,-.9,-.9,-1,-1.2c-.3,-.4,-.4,-.9,-.4,-1.3c0,-.8,.3,-1.5,.9,-2c.5,-.5,1.3,-.8,2.1,-.8c.3,0,.6,0,.9,.1c.2,0,.5,.1,.9,.3c.3,.1,.5,.2,.5,.2c.1,0,.2,0,.3,0c.1,0,.2,0,.4,-.1c.1,-.1,.2,-.2,.4,-.5h.3l-.9,3.6h-.2c0,-.3,0,-.6,0,-.8c0,-.6,-.2,-1.2,-.7,-1.6c-.4,-.4,-.9,-.6,-1.6,-.6c-.6,0,-1.1,.2,-1.4,.5c-.3,.3,-.5,.7,-.5,1.1c0,.4,.1,.8,.3,1.1c.2,.3,.7,.9,1.5,1.7c.8,.7,1.4,1.3,1.6,1.8c.2,.4,.3,.8,.3,1.3c0,.6,-.1,1.1,-.4,1.6c-.3,.5,-.7,.9,-1.2,1.2c-.6,.3,-1.2,.5,-1.8,.5c-.4,0,-.7,-.1,-.9,-.1c-.3,-.1,-.8,-.2,-1.4,-.5c-.2,0,-.3,-.1,-.5,-.1c-.3,0,-.5,.2,-.7,.7Z" class="g7_68"/>
<path d="M230.9,357.8l.9,-4.1h.2c0,.4,0,.7,0,1c0,.7,.2,1.3,.7,1.8c.5,.4,1.1,.7,1.8,.7c.7,0,1.3,-.2,1.6,-.7c.4,-.4,.6,-.9,.6,-1.5c0,-.3,-.1,-.7,-.3,-1c-.2,-.4,-.9,-1.2,-2,-2.3c-.5,-.5,-.9,-.9,-1,-1.2c-.3,-.4,-.4,-.9,-.4,-1.3c0,-.8,.3,-1.5,.9,-2c.5,-.5,1.3,-.8,2.1,-.8c.3,0,.6,0,.9,.1c.2,0,.5,.1,.9,.3c.3,.1,.5,.2,.5,.2c.1,0,.2,0,.3,0c.1,0,.2,0,.4,-.1c.1,-.1,.2,-.2,.4,-.5h.3l-.9,3.6h-.2c0,-.3,0,-.6,0,-.8c0,-.6,-.2,-1.2,-.7,-1.6c-.4,-.4,-.9,-.6,-1.6,-.6c-.6,0,-1.1,.2,-1.4,.5c-.3,.3,-.5,.7,-.5,1.1c0,.4,.1,.8,.3,1.1c.2,.3,.7,.9,1.5,1.7c.8,.7,1.4,1.3,1.6,1.8c.2,.4,.3,.8,.3,1.3c0,.6,-.1,1.1,-.4,1.6c-.3,.5,-.7,.9,-1.2,1.2c-.6,.3,-1.2,.5,-1.8,.5c-.4,0,-.7,-.1,-.9,-.1c-.3,-.1,-.8,-.2,-1.4,-.5c-.2,0,-.3,-.1,-.5,-.1c-.3,0,-.5,.2,-.7,.7h-.3Z" class="g8_68"/>
<path fill-rule="evenodd" d="M243.4,353H252v.7h-8.6V353Zm0,-2.6H252v.7h-8.6v-.7Z" class="g7_68"/>
<path d="M243.4,353H252v.7h-8.6V353Zm0,-2.6H252v.7h-8.6v-.7Z" class="g8_68"/>
<path fill-rule="evenodd" d="M258.3,347.7l2.7,-1.3h.2v9.2c0,.6,.1,1,.1,1.1c.1,.2,.2,.3,.3,.4c.2,.1,.5,.1,1,.1v.3h-4.1v-.3c.5,0,.9,0,1,-.1c.2,-.1,.3,-.2,.3,-.3c.1,-.2,.1,-.6,.1,-1.2v-5.9c0,-.8,0,-1.3,-.1,-1.5c0,-.2,-.1,-.3,-.2,-.4c-.1,0,-.2,-.1,-.3,-.1c-.2,0,-.5,.1,-.8,.3Z" class="g7_68"/>
<path d="M258.3,347.7l2.7,-1.3h.2v9.2c0,.6,.1,1,.1,1.1c.1,.2,.2,.3,.3,.4c.2,.1,.5,.1,1,.1v.3h-4.1v-.3c.5,0,.9,0,1,-.1c.2,-.1,.3,-.2,.3,-.3c.1,-.2,.1,-.6,.1,-1.2v-5.9c0,-.8,0,-1.3,-.1,-1.5c0,-.2,-.1,-.3,-.2,-.4c-.1,0,-.2,-.1,-.3,-.1c-.2,0,-.5,.1,-.8,.3l-.2,-.3Z" class="g8_68"/>
<path fill-rule="evenodd" d="M373.6,356.9l.9,-4.1h.3c-.1,.4,-.1,.7,-.1,1c0,.7,.2,1.3,.7,1.8c.5,.4,1.1,.7,1.8,.7c.7,0,1.3,-.2,1.6,-.7c.4,-.4,.6,-.9,.6,-1.5c0,-.3,-.1,-.6,-.3,-.9c-.2,-.5,-.9,-1.3,-2,-2.4c-.5,-.5,-.9,-.9,-1,-1.2c-.3,-.4,-.4,-.9,-.4,-1.3c0,-.8,.3,-1.4,.9,-2c.5,-.5,1.3,-.8,2.1,-.8c.3,0,.6,0,.9,.1c.2,0,.5,.1,.9,.3c.3,.1,.5,.2,.5,.2c.1,0,.2,0,.3,0c.1,0,.2,0,.4,-.1c.1,-.1,.2,-.2,.4,-.5h.3l-.9,3.6h-.2c0,-.3,0,-.6,0,-.8c0,-.6,-.2,-1.1,-.7,-1.6c-.4,-.4,-.9,-.6,-1.6,-.6c-.6,0,-1.1,.2,-1.4,.5c-.3,.3,-.5,.7,-.5,1.1c0,.4,.1,.8,.3,1.1c.2,.4,.7,.9,1.5,1.7c.8,.7,1.4,1.3,1.6,1.8c.2,.4,.3,.9,.3,1.3c0,.6,-.1,1.1,-.4,1.6c-.3,.6,-.7,1,-1.2,1.2c-.6,.3,-1.2,.5,-1.8,.5c-.3,0,-.7,-.1,-.9,-.1c-.3,-.1,-.7,-.2,-1.4,-.5c-.2,0,-.3,-.1,-.5,-.1c-.3,0,-.5,.2,-.7,.7Z" class="g7_68"/>
<path d="M373.6,356.9l.9,-4.1h.3c-.1,.4,-.1,.7,-.1,1c0,.7,.2,1.3,.7,1.8c.5,.4,1.1,.7,1.8,.7c.7,0,1.3,-.2,1.6,-.7c.4,-.4,.6,-.9,.6,-1.5c0,-.3,-.1,-.6,-.3,-.9c-.2,-.5,-.9,-1.3,-2,-2.4c-.5,-.5,-.9,-.9,-1,-1.2c-.3,-.4,-.4,-.9,-.4,-1.3c0,-.8,.3,-1.4,.9,-2c.5,-.5,1.3,-.8,2.1,-.8c.3,0,.6,0,.9,.1c.2,0,.5,.1,.9,.3c.3,.1,.5,.2,.5,.2c.1,0,.2,0,.3,0c.1,0,.2,0,.4,-.1c.1,-.1,.2,-.2,.4,-.5h.3l-.9,3.6h-.2c0,-.3,0,-.6,0,-.8c0,-.6,-.2,-1.1,-.7,-1.6c-.4,-.4,-.9,-.6,-1.6,-.6c-.6,0,-1.1,.2,-1.4,.5c-.3,.3,-.5,.7,-.5,1.1c0,.4,.1,.8,.3,1.1c.2,.4,.7,.9,1.5,1.7c.8,.7,1.4,1.3,1.6,1.8c.2,.4,.3,.9,.3,1.3c0,.6,-.1,1.1,-.4,1.6c-.3,.6,-.7,1,-1.2,1.2c-.6,.3,-1.2,.5,-1.8,.5c-.3,0,-.7,-.1,-.9,-.1c-.3,-.1,-.7,-.2,-1.4,-.5c-.2,0,-.3,-.1,-.5,-.1c-.3,0,-.5,.2,-.7,.7h-.3Z" class="g8_68"/>
<path fill-rule="evenodd" d="M386.1,352.1h8.6v.7h-8.6v-.7Zm0,-2.6h8.6v.7h-8.6v-.7Z" class="g7_68"/>
<path d="M386.1,352.1h8.6v.7h-8.6v-.7Zm0,-2.6h8.6v.7h-8.6v-.7Z" class="g8_68"/>
<path fill-rule="evenodd" d="M401,346.8l2.7,-1.3h.2v9.2c0,.6,.1,1,.1,1.1c.1,.2,.2,.3,.3,.4c.2,.1,.5,.1,1,.1v.3h-4.1v-.3c.5,0,.9,0,1,-.1c.2,-.1,.3,-.2,.3,-.3c.1,-.2,.1,-.6,.1,-1.2v-5.9c0,-.8,0,-1.3,-.1,-1.5c0,-.2,-.1,-.3,-.2,-.4c-.1,0,-.2,-.1,-.3,-.1c-.2,0,-.5,.1,-.8,.3Z" class="g7_68"/>
<path d="M401,346.8l2.7,-1.3h.2v9.2c0,.6,.1,1,.1,1.1c.1,.2,.2,.3,.3,.4c.2,.1,.5,.1,1,.1v.3h-4.1v-.3c.5,0,.9,0,1,-.1c.2,-.1,.3,-.2,.3,-.3c.1,-.2,.1,-.6,.1,-1.2v-5.9c0,-.8,0,-1.3,-.1,-1.5c0,-.2,-.1,-.3,-.2,-.4c-.1,0,-.2,-.1,-.3,-.1c-.2,0,-.5,.1,-.8,.3l-.2,-.3Z" class="g8_68"/>
<path fill-rule="evenodd" d="M409.5,351.4c0,1.5,.2,2.8,.5,3.7c.3,.8,.8,1.2,1.4,1.2c.3,0,.6,-.1,.9,-.4c.3,-.2,.5,-.7,.7,-1.3c.2,-.9,.4,-2.2,.4,-3.9c0,-1.2,-.2,-2.2,-.4,-3.1c-.2,-.6,-.5,-1,-.8,-1.3c-.2,-.2,-.5,-.2,-.8,-.2c-.3,0,-.6,.1,-.9,.4c-.4,.5,-.7,1.2,-.8,2.1c-.2,1,-.2,1.9,-.2,2.8m-1.6,-.2c0,-1.2,.2,-2.3,.6,-3.2c.3,-.8,.8,-1.5,1.5,-1.9c.4,-.4,.9,-.6,1.4,-.6c.9,0,1.6,.5,2.3,1.3c.8,1.1,1.2,2.5,1.2,4.3c0,1.2,-.2,2.3,-.5,3.2c-.4,.9,-.8,1.5,-1.4,1.9c-.6,.4,-1.1,.6,-1.6,.6c-1.1,0,-1.9,-.6,-2.6,-1.8c-.6,-1.1,-.9,-2.3,-.9,-3.8Z" class="g7_68"/>
<path d="M409.5,351.4c0,1.5,.2,2.8,.5,3.7c.3,.8,.8,1.2,1.4,1.2c.3,0,.6,-.1,.9,-.4c.3,-.2,.5,-.7,.7,-1.3c.2,-.9,.4,-2.2,.4,-3.9c0,-1.2,-.2,-2.2,-.4,-3.1c-.2,-.6,-.5,-1,-.8,-1.3c-.2,-.2,-.5,-.2,-.8,-.2c-.3,0,-.6,.1,-.9,.4c-.4,.5,-.7,1.2,-.8,2.1c-.2,1,-.2,1.9,-.2,2.8Zm-1.6,-.2c0,-1.2,.2,-2.3,.6,-3.2c.3,-.8,.8,-1.5,1.5,-1.9c.4,-.4,.9,-.6,1.4,-.6c.9,0,1.6,.5,2.3,1.3c.8,1.1,1.2,2.5,1.2,4.3c0,1.2,-.2,2.3,-.5,3.2c-.4,.9,-.8,1.5,-1.4,1.9c-.6,.4,-1.1,.6,-1.6,.6c-1.1,0,-1.9,-.6,-2.6,-1.8c-.6,-1.1,-.9,-2.3,-.9,-3.8Z" class="g8_68"/>
<path fill-rule="evenodd" d="M417.6,355.1c.2,0,.4,0,.6,.2c.2,.2,.2,.4,.2,.6c0,.3,0,.5,-.2,.7c-.2,.1,-.4,.2,-.6,.2c-.3,0,-.5,-.1,-.7,-.2c-.1,-.2,-.2,-.4,-.2,-.7c0,-.2,.1,-.4,.2,-.6c.2,-.2,.4,-.2,.7,-.2Z" class="g7_68"/>
<path d="M417.6,355.1c.2,0,.4,0,.6,.2c.2,.2,.2,.4,.2,.6c0,.3,0,.5,-.2,.7c-.2,.1,-.4,.2,-.6,.2c-.3,0,-.5,-.1,-.7,-.2c-.1,-.2,-.2,-.4,-.2,-.7c0,-.2,.1,-.4,.2,-.6c.2,-.2,.4,-.2,.7,-.2Z" class="g8_68"/>
<path fill-rule="evenodd" d="M421.5,346.8l2.7,-1.3h.2v9.2c0,.6,.1,1,.1,1.1c.1,.2,.2,.3,.3,.4c.2,.1,.5,.1,1,.1v.3h-4.1v-.3c.5,0,.9,0,1,-.1c.2,-.1,.3,-.2,.3,-.3c.1,-.2,.1,-.6,.1,-1.2v-5.9c0,-.8,0,-1.3,-.1,-1.5c0,-.2,-.1,-.3,-.2,-.4c-.1,0,-.2,-.1,-.3,-.1c-.2,0,-.5,.1,-.8,.3Z" class="g7_68"/>
<path d="M421.5,346.8l2.7,-1.3h.2v9.2c0,.6,.1,1,.1,1.1c.1,.2,.2,.3,.3,.4c.2,.1,.5,.1,1,.1v.3h-4.1v-.3c.5,0,.9,0,1,-.1c.2,-.1,.3,-.2,.3,-.3c.1,-.2,.1,-.6,.1,-1.2v-5.9c0,-.8,0,-1.3,-.1,-1.5c0,-.2,-.1,-.3,-.2,-.4c-.1,0,-.2,-.1,-.3,-.1c-.2,0,-.5,.1,-.8,.3l-.2,-.3Z" class="g8_68"/>
<path fill-rule="evenodd" d="M430,351.4c0,1.5,.2,2.8,.5,3.7c.3,.8,.8,1.2,1.4,1.2c.3,0,.6,-.1,.9,-.4c.3,-.2,.5,-.7,.7,-1.3c.2,-.9,.4,-2.2,.4,-3.9c0,-1.2,-.2,-2.2,-.4,-3.1c-.2,-.6,-.5,-1,-.8,-1.3c-.2,-.2,-.5,-.2,-.8,-.2c-.3,0,-.7,.1,-.9,.4c-.4,.5,-.7,1.2,-.8,2.1c-.2,1,-.2,1.9,-.2,2.8m-1.6,-.2c0,-1.2,.2,-2.3,.6,-3.2c.3,-.8,.8,-1.5,1.5,-1.9c.4,-.4,.9,-.6,1.4,-.6c.9,0,1.6,.5,2.3,1.3c.8,1.1,1.2,2.5,1.2,4.3c0,1.2,-.2,2.3,-.5,3.2c-.4,.9,-.8,1.5,-1.4,1.9c-.6,.4,-1.1,.6,-1.6,.6c-1.1,0,-1.9,-.6,-2.6,-1.8c-.6,-1.1,-.9,-2.3,-.9,-3.8Z" class="g7_68"/>
<path d="M430,351.4c0,1.5,.2,2.8,.5,3.7c.3,.8,.8,1.2,1.4,1.2c.3,0,.6,-.1,.9,-.4c.3,-.2,.5,-.7,.7,-1.3c.2,-.9,.4,-2.2,.4,-3.9c0,-1.2,-.2,-2.2,-.4,-3.1c-.2,-.6,-.5,-1,-.8,-1.3c-.2,-.2,-.5,-.2,-.8,-.2c-.3,0,-.7,.1,-.9,.4c-.4,.5,-.7,1.2,-.8,2.1c-.2,1,-.2,1.9,-.2,2.8Zm-1.6,-.2c0,-1.2,.2,-2.3,.6,-3.2c.3,-.8,.8,-1.5,1.5,-1.9c.4,-.4,.9,-.6,1.4,-.6c.9,0,1.6,.5,2.3,1.3c.8,1.1,1.2,2.5,1.2,4.3c0,1.2,-.2,2.3,-.5,3.2c-.4,.9,-.8,1.5,-1.4,1.9c-.6,.4,-1.1,.6,-1.6,.6c-1.1,0,-1.9,-.6,-2.6,-1.8c-.6,-1.1,-.9,-2.3,-.9,-3.8Z" class="g8_68"/>
<path fill-rule="evenodd" d="M527.1,357.8l.9,-4.1h.3c0,.4,0,.7,0,1c0,.7,.2,1.3,.7,1.8c.4,.4,1,.7,1.8,.7c.7,0,1.2,-.2,1.6,-.7c.3,-.4,.5,-.9,.5,-1.5c0,-.3,-.1,-.7,-.2,-1c-.3,-.4,-.9,-1.2,-2,-2.3c-.6,-.5,-.9,-.9,-1.1,-1.2c-.2,-.4,-.3,-.9,-.3,-1.3c0,-.8,.3,-1.5,.8,-2c.6,-.5,1.3,-.8,2.2,-.8c.3,0,.6,0,.9,.1c.1,0,.4,.1,.9,.3c.3,.1,.4,.2,.5,.2c0,0,.1,0,.2,0c.2,0,.3,0,.4,-.1c.1,-.1,.3,-.2,.4,-.5h.3l-.8,3.6h-.3c0,-.3,0,-.6,0,-.8c0,-.6,-.2,-1.2,-.6,-1.6c-.4,-.4,-1,-.6,-1.7,-.6c-.5,0,-1,.2,-1.3,.5c-.4,.3,-.6,.7,-.6,1.1c0,.4,.1,.8,.4,1.1c.2,.3,.7,.9,1.5,1.7c.8,.7,1.3,1.3,1.5,1.8c.3,.4,.4,.8,.4,1.3c0,.6,-.1,1.1,-.4,1.6c-.3,.5,-.7,.9,-1.3,1.2c-.5,.3,-1.1,.5,-1.8,.5c-.3,0,-.6,-.1,-.9,-.1c-.3,-.1,-.7,-.2,-1.3,-.5c-.2,0,-.4,-.1,-.5,-.1c-.3,0,-.6,.2,-.8,.7Z" class="g7_68"/>
<path d="M527.1,357.8l.9,-4.1h.3c0,.4,0,.7,0,1c0,.7,.2,1.3,.7,1.8c.4,.4,1,.7,1.8,.7c.7,0,1.2,-.2,1.6,-.7c.3,-.4,.5,-.9,.5,-1.5c0,-.3,-.1,-.7,-.2,-1c-.3,-.4,-.9,-1.2,-2,-2.3c-.6,-.5,-.9,-.9,-1.1,-1.2c-.2,-.4,-.3,-.9,-.3,-1.3c0,-.8,.3,-1.5,.8,-2c.6,-.5,1.3,-.8,2.2,-.8c.3,0,.6,0,.9,.1c.1,0,.4,.1,.9,.3c.3,.1,.4,.2,.5,.2c0,0,.1,0,.2,0c.2,0,.3,0,.4,-.1c.1,-.1,.3,-.2,.4,-.5h.3l-.8,3.6h-.3c0,-.3,0,-.6,0,-.8c0,-.6,-.2,-1.2,-.6,-1.6c-.4,-.4,-1,-.6,-1.7,-.6c-.5,0,-1,.2,-1.3,.5c-.4,.3,-.6,.7,-.6,1.1c0,.4,.1,.8,.4,1.1c.2,.3,.7,.9,1.5,1.7c.8,.7,1.3,1.3,1.5,1.8c.3,.4,.4,.8,.4,1.3c0,.6,-.1,1.1,-.4,1.6c-.3,.5,-.7,.9,-1.3,1.2c-.5,.3,-1.1,.5,-1.8,.5c-.3,0,-.6,-.1,-.9,-.1c-.3,-.1,-.7,-.2,-1.3,-.5c-.2,0,-.4,-.1,-.5,-.1c-.3,0,-.6,.2,-.8,.7h-.3Z" class="g8_68"/>
<path fill-rule="evenodd" d="M539.6,353h8.7v.7h-8.7V353Zm0,-2.6h8.7v.7h-8.7v-.7Z" class="g7_68"/>
<path d="M539.6,353h8.7v.7h-8.7V353Zm0,-2.6h8.7v.7h-8.7v-.7Z" class="g8_68"/>
<path fill-rule="evenodd" d="M554.6,347.7l2.6,-1.3h.3v9.2c0,.6,0,1,.1,1.1c0,.2,.1,.3,.3,.4c.2,.1,.5,.1,1,.1v.3h-4.1v-.3c.5,0,.8,0,1,-.1c.1,-.1,.2,-.2,.3,-.3c0,-.2,.1,-.6,.1,-1.2v-5.9c0,-.8,0,-1.3,-.1,-1.5c0,-.2,-.1,-.3,-.2,-.4c-.1,0,-.2,-.1,-.4,-.1c-.2,0,-.4,.1,-.8,.3Z" class="g7_68"/>
<path d="M554.6,347.7l2.6,-1.3h.3v9.2c0,.6,0,1,.1,1.1c0,.2,.1,.3,.3,.4c.2,.1,.5,.1,1,.1v.3h-4.1v-.3c.5,0,.8,0,1,-.1c.1,-.1,.2,-.2,.3,-.3c0,-.2,.1,-.6,.1,-1.2v-5.9c0,-.8,0,-1.3,-.1,-1.5c0,-.2,-.1,-.3,-.2,-.4c-.1,0,-.2,-.1,-.4,-.1c-.2,0,-.4,.1,-.8,.3l-.1,-.3Z" class="g8_68"/>
<path fill-rule="evenodd" d="M563,352.3c0,1.5,.2,2.8,.6,3.7c.3,.8,.7,1.2,1.3,1.2c.3,0,.6,-.1,.9,-.4c.4,-.3,.6,-.7,.7,-1.3c.3,-.9,.4,-2.2,.4,-3.9c0,-1.2,-.1,-2.3,-.4,-3.1c-.2,-.6,-.4,-1,-.7,-1.3c-.2,-.2,-.5,-.2,-.8,-.2c-.4,0,-.7,.1,-1,.4c-.4,.5,-.6,1.2,-.8,2.1c-.1,1,-.2,1.9,-.2,2.8m-1.5,-.2c0,-1.2,.1,-2.3,.5,-3.2c.4,-.9,.9,-1.5,1.5,-2c.5,-.3,1,-.5,1.5,-.5c.8,0,1.6,.4,2.2,1.3c.9,1,1.3,2.5,1.3,4.3c0,1.2,-.2,2.3,-.6,3.2c-.3,.9,-.8,1.5,-1.4,1.9c-.5,.4,-1.1,.6,-1.6,.6c-1,0,-1.9,-.6,-2.6,-1.8c-.5,-1.1,-.8,-2.3,-.8,-3.8Z" class="g7_68"/>
<path d="M563,352.3c0,1.5,.2,2.8,.6,3.7c.3,.8,.7,1.2,1.3,1.2c.3,0,.6,-.1,.9,-.4c.4,-.3,.6,-.7,.7,-1.3c.3,-.9,.4,-2.2,.4,-3.9c0,-1.2,-.1,-2.3,-.4,-3.1c-.2,-.6,-.4,-1,-.7,-1.3c-.2,-.2,-.5,-.2,-.8,-.2c-.4,0,-.7,.1,-1,.4c-.4,.5,-.6,1.2,-.8,2.1c-.1,1,-.2,1.9,-.2,2.8Zm-1.5,-.2c0,-1.2,.1,-2.3,.5,-3.2c.4,-.9,.9,-1.5,1.5,-2c.5,-.3,1,-.5,1.5,-.5c.8,0,1.6,.4,2.2,1.3c.9,1,1.3,2.5,1.3,4.3c0,1.2,-.2,2.3,-.6,3.2c-.3,.9,-.8,1.5,-1.4,1.9c-.5,.4,-1.1,.6,-1.6,.6c-1,0,-1.9,-.6,-2.6,-1.8c-.5,-1.1,-.8,-2.3,-.8,-3.8Z" class="g8_68"/>
<path fill-rule="evenodd" d="M571.2,352.3c0,1.5,.2,2.8,.6,3.7c.3,.8,.7,1.2,1.3,1.2c.3,0,.6,-.1,.9,-.4c.4,-.3,.6,-.7,.7,-1.3c.3,-.9,.4,-2.2,.4,-3.9c0,-1.2,-.1,-2.3,-.4,-3.1c-.2,-.6,-.4,-1,-.7,-1.3c-.2,-.2,-.5,-.2,-.8,-.2c-.4,0,-.7,.1,-1,.4c-.4,.5,-.6,1.2,-.8,2.1c-.1,1,-.2,1.9,-.2,2.8m-1.5,-.2c0,-1.2,.1,-2.3,.5,-3.2c.4,-.9,.9,-1.5,1.5,-2c.5,-.3,1,-.5,1.5,-.5c.8,0,1.6,.4,2.2,1.3c.9,1,1.3,2.5,1.3,4.3c0,1.2,-.2,2.3,-.6,3.2c-.3,.9,-.8,1.5,-1.4,1.9c-.5,.4,-1.1,.6,-1.6,.6c-1,0,-1.9,-.6,-2.6,-1.8c-.6,-1.1,-.8,-2.3,-.8,-3.8Z" class="g7_68"/>
<path d="M571.2,352.3c0,1.5,.2,2.8,.6,3.7c.3,.8,.7,1.2,1.3,1.2c.3,0,.6,-.1,.9,-.4c.4,-.3,.6,-.7,.7,-1.3c.3,-.9,.4,-2.2,.4,-3.9c0,-1.2,-.1,-2.3,-.4,-3.1c-.2,-.6,-.4,-1,-.7,-1.3c-.2,-.2,-.5,-.2,-.8,-.2c-.4,0,-.7,.1,-1,.4c-.4,.5,-.6,1.2,-.8,2.1c-.1,1,-.2,1.9,-.2,2.8Zm-1.5,-.2c0,-1.2,.1,-2.3,.5,-3.2c.4,-.9,.9,-1.5,1.5,-2c.5,-.3,1,-.5,1.5,-.5c.8,0,1.6,.4,2.2,1.3c.9,1,1.3,2.5,1.3,4.3c0,1.2,-.2,2.3,-.6,3.2c-.3,.9,-.8,1.5,-1.4,1.9c-.5,.4,-1.1,.6,-1.6,.6c-1,0,-1.9,-.6,-2.6,-1.8c-.6,-1.1,-.8,-2.3,-.8,-3.8Z" class="g8_68"/>
<path fill-rule="evenodd" d="M579.3,355.9c.3,0,.5,.1,.6,.3c.2,.2,.3,.4,.3,.6c0,.3,-.1,.5,-.3,.7c-.1,.1,-.3,.2,-.6,.2c-.2,0,-.4,-.1,-.6,-.2c-.2,-.2,-.3,-.4,-.3,-.7c0,-.2,.1,-.4,.3,-.6c.2,-.2,.4,-.3,.6,-.3Z" class="g7_68"/>
<path d="M579.3,355.9c.3,0,.5,.1,.6,.3c.2,.2,.3,.4,.3,.6c0,.3,-.1,.5,-.3,.7c-.1,.1,-.3,.2,-.6,.2c-.2,0,-.4,-.1,-.6,-.2c-.2,-.2,-.3,-.4,-.3,-.7c0,-.2,.1,-.4,.3,-.6c.2,-.2,.4,-.3,.6,-.3Z" class="g8_68"/>
<path fill-rule="evenodd" d="M583.3,347.7l2.6,-1.3h.3v9.2c0,.6,0,1,.1,1.1c0,.2,.1,.3,.3,.4c.1,.1,.5,.1,1,.1v.3h-4.1v-.3c.5,0,.8,0,1,-.1c.1,-.1,.2,-.2,.3,-.3c0,-.2,.1,-.6,.1,-1.2v-5.9c0,-.8,-.1,-1.3,-.1,-1.5c0,-.2,-.1,-.3,-.2,-.4c-.1,0,-.2,-.1,-.4,-.1c-.2,0,-.4,.1,-.8,.3Z" class="g7_68"/>
<path d="M583.3,347.7l2.6,-1.3h.3v9.2c0,.6,0,1,.1,1.1c0,.2,.1,.3,.3,.4c.1,.1,.5,.1,1,.1v.3h-4.1v-.3c.5,0,.8,0,1,-.1c.1,-.1,.2,-.2,.3,-.3c0,-.2,.1,-.6,.1,-1.2v-5.9c0,-.8,-.1,-1.3,-.1,-1.5c0,-.2,-.1,-.3,-.2,-.4c-.1,0,-.2,-.1,-.4,-.1c-.2,0,-.4,.1,-.8,.3l-.1,-.3Z" class="g8_68"/>
<path fill-rule="evenodd" d="M591.7,352.3c0,1.5,.2,2.8,.6,3.7c.3,.8,.7,1.2,1.3,1.2c.3,0,.6,-.1,.9,-.4c.3,-.3,.6,-.7,.7,-1.3c.3,-.9,.4,-2.2,.4,-3.9c0,-1.2,-.1,-2.3,-.4,-3.1c-.2,-.6,-.4,-1,-.7,-1.3c-.2,-.2,-.5,-.2,-.8,-.2c-.4,0,-.7,.1,-1,.4c-.4,.5,-.6,1.2,-.8,2.1c-.1,1,-.2,1.9,-.2,2.8m-1.5,-.2c0,-1.2,.1,-2.3,.5,-3.2c.4,-.9,.9,-1.5,1.5,-2c.5,-.3,1,-.5,1.5,-.5c.8,0,1.6,.4,2.2,1.3c.9,1,1.3,2.5,1.3,4.3c0,1.2,-.2,2.3,-.6,3.2c-.3,.9,-.8,1.5,-1.4,1.9c-.5,.4,-1.1,.6,-1.6,.6c-1,0,-1.9,-.6,-2.6,-1.8c-.6,-1.1,-.8,-2.3,-.8,-3.8Z" class="g7_68"/>
<path d="M591.7,352.3c0,1.5,.2,2.8,.6,3.7c.3,.8,.7,1.2,1.3,1.2c.3,0,.6,-.1,.9,-.4c.3,-.3,.6,-.7,.7,-1.3c.3,-.9,.4,-2.2,.4,-3.9c0,-1.2,-.1,-2.3,-.4,-3.1c-.2,-.6,-.4,-1,-.7,-1.3c-.2,-.2,-.5,-.2,-.8,-.2c-.4,0,-.7,.1,-1,.4c-.4,.5,-.6,1.2,-.8,2.1c-.1,1,-.2,1.9,-.2,2.8Zm-1.5,-.2c0,-1.2,.1,-2.3,.5,-3.2c.4,-.9,.9,-1.5,1.5,-2c.5,-.3,1,-.5,1.5,-.5c.8,0,1.6,.4,2.2,1.3c.9,1,1.3,2.5,1.3,4.3c0,1.2,-.2,2.3,-.6,3.2c-.3,.9,-.8,1.5,-1.4,1.9c-.5,.4,-1.1,.6,-1.6,.6c-1,0,-1.9,-.6,-2.6,-1.8c-.6,-1.1,-.8,-2.3,-.8,-3.8Z" class="g8_68"/>
<path fill-rule="evenodd" d="M599.9,352.3c0,1.5,.2,2.8,.6,3.7c.3,.8,.7,1.2,1.3,1.2c.3,0,.6,-.1,.9,-.4c.3,-.3,.6,-.7,.7,-1.3c.3,-.9,.4,-2.2,.4,-3.9c0,-1.2,-.1,-2.3,-.4,-3.1c-.2,-.6,-.4,-1,-.7,-1.3c-.2,-.2,-.5,-.2,-.8,-.2c-.4,0,-.7,.1,-1,.4c-.4,.5,-.6,1.2,-.8,2.1c-.1,1,-.2,1.9,-.2,2.8m-1.5,-.2c0,-1.2,.1,-2.3,.5,-3.2c.4,-.9,.9,-1.5,1.5,-2c.5,-.3,1,-.5,1.5,-.5c.8,0,1.6,.4,2.2,1.3c.9,1,1.3,2.5,1.3,4.3c0,1.2,-.2,2.3,-.6,3.2c-.3,.9,-.8,1.5,-1.4,1.9c-.5,.4,-1.1,.6,-1.6,.6c-1,0,-1.9,-.6,-2.6,-1.8c-.6,-1.1,-.8,-2.3,-.8,-3.8Z" class="g7_68"/>
<path d="M599.9,352.3c0,1.5,.2,2.8,.6,3.7c.3,.8,.7,1.2,1.3,1.2c.3,0,.6,-.1,.9,-.4c.3,-.3,.6,-.7,.7,-1.3c.3,-.9,.4,-2.2,.4,-3.9c0,-1.2,-.1,-2.3,-.4,-3.1c-.2,-.6,-.4,-1,-.7,-1.3c-.2,-.2,-.5,-.2,-.8,-.2c-.4,0,-.7,.1,-1,.4c-.4,.5,-.6,1.2,-.8,2.1c-.1,1,-.2,1.9,-.2,2.8Zm-1.5,-.2c0,-1.2,.1,-2.3,.5,-3.2c.4,-.9,.9,-1.5,1.5,-2c.5,-.3,1,-.5,1.5,-.5c.8,0,1.6,.4,2.2,1.3c.9,1,1.3,2.5,1.3,4.3c0,1.2,-.2,2.3,-.6,3.2c-.3,.9,-.8,1.5,-1.4,1.9c-.5,.4,-1.1,.6,-1.6,.6c-1,0,-1.9,-.6,-2.6,-1.8c-.6,-1.1,-.8,-2.3,-.8,-3.8Z" class="g8_68"/>
<path fill-rule="evenodd" d="M678.6,357.8l.9,-4.1h.3c-.1,.4,-.1,.7,-.1,1c0,.7,.3,1.3,.7,1.8c.5,.4,1.1,.7,1.9,.7c.7,0,1.2,-.2,1.5,-.7c.4,-.4,.6,-.9,.6,-1.5c0,-.3,-.1,-.7,-.3,-1c-.2,-.4,-.9,-1.2,-2,-2.3c-.5,-.5,-.8,-.9,-1,-1.2c-.2,-.4,-.4,-.9,-.4,-1.3c0,-.8,.3,-1.5,.9,-2c.6,-.5,1.3,-.8,2.2,-.8c.3,0,.6,0,.8,.1c.2,0,.5,.1,.9,.3c.3,.1,.5,.2,.5,.2c.1,0,.2,0,.3,0c.1,0,.3,0,.4,-.1c.1,-.1,.2,-.2,.4,-.5h.3l-.8,3.6h-.3c0,-.3,0,-.6,0,-.8c0,-.6,-.2,-1.2,-.6,-1.6c-.5,-.4,-1,-.6,-1.7,-.6c-.6,0,-1,.2,-1.4,.5c-.3,.3,-.5,.7,-.5,1.1c0,.4,.1,.8,.3,1.1c.3,.3,.8,.9,1.6,1.7c.8,.7,1.3,1.3,1.5,1.8c.3,.4,.4,.8,.4,1.3c0,.6,-.2,1.1,-.5,1.6c-.3,.5,-.7,.9,-1.2,1.2c-.6,.3,-1.2,.5,-1.8,.5c-.3,0,-.6,-.1,-.9,-.1c-.3,-.1,-.7,-.2,-1.3,-.5c-.2,0,-.4,-.1,-.5,-.1c-.4,0,-.6,.2,-.8,.7Z" class="g7_68"/>
<path d="M678.6,357.8l.9,-4.1h.3c-.1,.4,-.1,.7,-.1,1c0,.7,.3,1.3,.7,1.8c.5,.4,1.1,.7,1.9,.7c.7,0,1.2,-.2,1.5,-.7c.4,-.4,.6,-.9,.6,-1.5c0,-.3,-.1,-.7,-.3,-1c-.2,-.4,-.9,-1.2,-2,-2.3c-.5,-.5,-.8,-.9,-1,-1.2c-.2,-.4,-.4,-.9,-.4,-1.3c0,-.8,.3,-1.5,.9,-2c.6,-.5,1.3,-.8,2.2,-.8c.3,0,.6,0,.8,.1c.2,0,.5,.1,.9,.3c.3,.1,.5,.2,.5,.2c.1,0,.2,0,.3,0c.1,0,.3,0,.4,-.1c.1,-.1,.2,-.2,.4,-.5h.3l-.8,3.6h-.3c0,-.3,0,-.6,0,-.8c0,-.6,-.2,-1.2,-.6,-1.6c-.5,-.4,-1,-.6,-1.7,-.6c-.6,0,-1,.2,-1.4,.5c-.3,.3,-.5,.7,-.5,1.1c0,.4,.1,.8,.3,1.1c.3,.3,.8,.9,1.6,1.7c.8,.7,1.3,1.3,1.5,1.8c.3,.4,.4,.8,.4,1.3c0,.6,-.2,1.1,-.5,1.6c-.3,.5,-.7,.9,-1.2,1.2c-.6,.3,-1.2,.5,-1.8,.5c-.3,0,-.6,-.1,-.9,-.1c-.3,-.1,-.7,-.2,-1.3,-.5c-.2,0,-.4,-.1,-.5,-.1c-.4,0,-.6,.2,-.8,.7h-.3Z" class="g8_68"/>
<path fill-rule="evenodd" d="M691.1,353h8.6v.7h-8.6V353Zm0,-2.6h8.6v.7h-8.6v-.7Z" class="g7_68"/>
<path d="M691.1,353h8.6v.7h-8.6V353Zm0,-2.6h8.6v.7h-8.6v-.7Z" class="g8_68"/>
<path fill-rule="evenodd" d="M706.1,347.7l2.6,-1.3h.3v9.2c0,.6,0,1,0,1.1c.1,.2,.2,.3,.4,.4c.1,.1,.4,.1,.9,.1v.3h-4v-.3c.5,0,.8,0,1,-.1c.1,-.1,.2,-.2,.3,-.3c0,-.2,.1,-.6,.1,-1.2v-5.9c0,-.8,-.1,-1.3,-.1,-1.5c-.1,-.2,-.1,-.3,-.2,-.4c-.1,0,-.2,-.1,-.4,-.1c-.2,0,-.5,.1,-.8,.3Z" class="g7_68"/>
<path d="M706.1,347.7l2.6,-1.3h.3v9.2c0,.6,0,1,0,1.1c.1,.2,.2,.3,.4,.4c.1,.1,.4,.1,.9,.1v.3h-4v-.3c.5,0,.8,0,1,-.1c.1,-.1,.2,-.2,.3,-.3c0,-.2,.1,-.6,.1,-1.2v-5.9c0,-.8,-.1,-1.3,-.1,-1.5c-.1,-.2,-.1,-.3,-.2,-.4c-.1,0,-.2,-.1,-.4,-.1c-.2,0,-.5,.1,-.8,.3l-.1,-.3Z" class="g8_68"/>
<path fill-rule="evenodd" d="M714.5,352.3c0,1.5,.2,2.8,.6,3.7c.3,.8,.7,1.2,1.3,1.2c.3,0,.6,-.1,.9,-.4c.3,-.3,.6,-.7,.7,-1.3c.3,-.9,.4,-2.2,.4,-3.9c0,-1.2,-.1,-2.3,-.4,-3.1c-.2,-.6,-.4,-1,-.7,-1.3c-.3,-.2,-.5,-.2,-.8,-.2c-.4,0,-.7,.1,-1,.4c-.4,.5,-.6,1.2,-.8,2.1c-.1,1,-.2,1.9,-.2,2.8m-1.6,-.2c0,-1.2,.2,-2.3,.6,-3.2c.4,-.9,.9,-1.5,1.5,-2c.5,-.3,1,-.5,1.5,-.5c.8,0,1.6,.4,2.2,1.3c.8,1,1.3,2.5,1.3,4.3c0,1.2,-.2,2.3,-.6,3.2c-.4,.9,-.8,1.5,-1.4,1.9c-.5,.4,-1.1,.6,-1.6,.6c-1,0,-1.9,-.6,-2.6,-1.8c-.6,-1.1,-.9,-2.3,-.9,-3.8Z" class="g7_68"/>
<path d="M714.5,352.3c0,1.5,.2,2.8,.6,3.7c.3,.8,.7,1.2,1.3,1.2c.3,0,.6,-.1,.9,-.4c.3,-.3,.6,-.7,.7,-1.3c.3,-.9,.4,-2.2,.4,-3.9c0,-1.2,-.1,-2.3,-.4,-3.1c-.2,-.6,-.4,-1,-.7,-1.3c-.3,-.2,-.5,-.2,-.8,-.2c-.4,0,-.7,.1,-1,.4c-.4,.5,-.6,1.2,-.8,2.1c-.1,1,-.2,1.9,-.2,2.8Zm-1.6,-.2c0,-1.2,.2,-2.3,.6,-3.2c.4,-.9,.9,-1.5,1.5,-2c.5,-.3,1,-.5,1.5,-.5c.8,0,1.6,.4,2.2,1.3c.8,1,1.3,2.5,1.3,4.3c0,1.2,-.2,2.3,-.6,3.2c-.4,.9,-.8,1.5,-1.4,1.9c-.5,.4,-1.1,.6,-1.6,.6c-1,0,-1.9,-.6,-2.6,-1.8c-.6,-1.1,-.9,-2.3,-.9,-3.8Z" class="g8_68"/>
<path fill-rule="evenodd" d="M722.7,352.3c0,1.5,.2,2.8,.6,3.7c.3,.8,.7,1.2,1.3,1.2c.3,0,.6,-.1,.9,-.4c.3,-.3,.6,-.7,.7,-1.3c.3,-.9,.4,-2.2,.4,-3.9c0,-1.2,-.1,-2.3,-.4,-3.1c-.2,-.6,-.4,-1,-.7,-1.3c-.3,-.2,-.5,-.2,-.8,-.2c-.4,0,-.7,.1,-1,.4c-.4,.5,-.7,1.2,-.8,2.1c-.1,1,-.2,1.9,-.2,2.8m-1.6,-.2c0,-1.2,.2,-2.3,.6,-3.2c.4,-.9,.9,-1.5,1.5,-2c.5,-.3,1,-.5,1.5,-.5c.8,0,1.6,.4,2.2,1.3c.8,1,1.3,2.5,1.3,4.3c0,1.2,-.2,2.3,-.6,3.2c-.4,.9,-.8,1.5,-1.4,1.9c-.5,.4,-1.1,.6,-1.6,.6c-1,0,-1.9,-.6,-2.6,-1.8c-.6,-1.1,-.9,-2.3,-.9,-3.8Z" class="g7_68"/>
<path d="M722.7,352.3c0,1.5,.2,2.8,.6,3.7c.3,.8,.7,1.2,1.3,1.2c.3,0,.6,-.1,.9,-.4c.3,-.3,.6,-.7,.7,-1.3c.3,-.9,.4,-2.2,.4,-3.9c0,-1.2,-.1,-2.3,-.4,-3.1c-.2,-.6,-.4,-1,-.7,-1.3c-.3,-.2,-.5,-.2,-.8,-.2c-.4,0,-.7,.1,-1,.4c-.4,.5,-.7,1.2,-.8,2.1c-.1,1,-.2,1.9,-.2,2.8Zm-1.6,-.2c0,-1.2,.2,-2.3,.6,-3.2c.4,-.9,.9,-1.5,1.5,-2c.5,-.3,1,-.5,1.5,-.5c.8,0,1.6,.4,2.2,1.3c.8,1,1.3,2.5,1.3,4.3c0,1.2,-.2,2.3,-.6,3.2c-.4,.9,-.8,1.5,-1.4,1.9c-.5,.4,-1.1,.6,-1.6,.6c-1,0,-1.9,-.6,-2.6,-1.8c-.6,-1.1,-.9,-2.3,-.9,-3.8Z" class="g8_68"/>
<path fill-rule="evenodd" d="M730.9,352.3c0,1.5,.2,2.8,.6,3.7c.3,.8,.7,1.2,1.3,1.2c.3,0,.6,-.1,.9,-.4c.3,-.3,.6,-.7,.7,-1.3c.3,-.9,.4,-2.2,.4,-3.9c0,-1.2,-.1,-2.3,-.4,-3.1c-.2,-.6,-.4,-1,-.7,-1.3c-.3,-.2,-.5,-.2,-.8,-.2c-.4,0,-.7,.1,-1,.4c-.4,.5,-.7,1.2,-.8,2.1c-.1,1,-.2,1.9,-.2,2.8m-1.6,-.2c0,-1.2,.2,-2.3,.6,-3.2c.4,-.9,.9,-1.5,1.5,-2c.5,-.3,1,-.5,1.5,-.5c.8,0,1.6,.4,2.2,1.3c.8,1,1.3,2.5,1.3,4.3c0,1.2,-.2,2.3,-.6,3.2c-.4,.9,-.8,1.5,-1.4,1.9c-.5,.4,-1.1,.6,-1.6,.6c-1,0,-1.9,-.6,-2.6,-1.8c-.6,-1.1,-.9,-2.3,-.9,-3.8Z" class="g7_68"/>
<path d="M730.9,352.3c0,1.5,.2,2.8,.6,3.7c.3,.8,.7,1.2,1.3,1.2c.3,0,.6,-.1,.9,-.4c.3,-.3,.6,-.7,.7,-1.3c.3,-.9,.4,-2.2,.4,-3.9c0,-1.2,-.1,-2.3,-.4,-3.1c-.2,-.6,-.4,-1,-.7,-1.3c-.3,-.2,-.5,-.2,-.8,-.2c-.4,0,-.7,.1,-1,.4c-.4,.5,-.7,1.2,-.8,2.1c-.1,1,-.2,1.9,-.2,2.8Zm-1.6,-.2c0,-1.2,.2,-2.3,.6,-3.2c.4,-.9,.9,-1.5,1.5,-2c.5,-.3,1,-.5,1.5,-.5c.8,0,1.6,.4,2.2,1.3c.8,1,1.3,2.5,1.3,4.3c0,1.2,-.2,2.3,-.6,3.2c-.4,.9,-.8,1.5,-1.4,1.9c-.5,.4,-1.1,.6,-1.6,.6c-1,0,-1.9,-.6,-2.6,-1.8c-.6,-1.1,-.9,-2.3,-.9,-3.8Z" class="g8_68"/>
<path fill-rule="evenodd" d="M739,355.9c.2,0,.4,.1,.6,.3c.2,.2,.3,.4,.3,.6c0,.3,-.1,.5,-.3,.7c-.2,.1,-.4,.2,-.6,.2c-.3,0,-.5,-.1,-.6,-.2c-.2,-.2,-.3,-.4,-.3,-.7c0,-.2,.1,-.4,.3,-.6c.1,-.2,.3,-.3,.6,-.3Z" class="g7_68"/>
<path d="M739,355.9c.2,0,.4,.1,.6,.3c.2,.2,.3,.4,.3,.6c0,.3,-.1,.5,-.3,.7c-.2,.1,-.4,.2,-.6,.2c-.3,0,-.5,-.1,-.6,-.2c-.2,-.2,-.3,-.4,-.3,-.7c0,-.2,.1,-.4,.3,-.6c.1,-.2,.3,-.3,.6,-.3Z" class="g8_68"/>
<path fill-rule="evenodd" d="M743,347.7l2.6,-1.3h.3v9.2c0,.6,0,1,0,1.1c.1,.2,.2,.3,.4,.4c.1,.1,.4,.1,.9,.1v.3h-4v-.3c.5,0,.8,0,.9,-.1c.2,-.1,.3,-.2,.4,-.3c0,-.2,0,-.6,0,-1.2v-5.9c0,-.8,0,-1.3,0,-1.5c-.1,-.2,-.1,-.3,-.2,-.4c-.1,0,-.3,-.1,-.4,-.1c-.2,0,-.5,.1,-.8,.3Z" class="g7_68"/>
<path d="M743,347.7l2.6,-1.3h.3v9.2c0,.6,0,1,0,1.1c.1,.2,.2,.3,.4,.4c.1,.1,.4,.1,.9,.1v.3h-4v-.3c.5,0,.8,0,.9,-.1c.2,-.1,.3,-.2,.4,-.3c0,-.2,0,-.6,0,-1.2v-5.9c0,-.8,0,-1.3,0,-1.5c-.1,-.2,-.1,-.3,-.2,-.4c-.1,0,-.3,-.1,-.4,-.1c-.2,0,-.5,.1,-.8,.3l-.1,-.3Z" class="g8_68"/>
<path fill-rule="evenodd" d="M751.4,352.3c0,1.5,.2,2.8,.5,3.7c.4,.8,.8,1.2,1.4,1.2c.3,0,.6,-.1,.9,-.4c.3,-.3,.6,-.7,.7,-1.3c.3,-.9,.4,-2.2,.4,-3.9c0,-1.2,-.1,-2.3,-.4,-3.1c-.2,-.6,-.4,-1,-.7,-1.3c-.3,-.2,-.5,-.2,-.8,-.2c-.4,0,-.7,.1,-1,.4c-.4,.5,-.7,1.2,-.8,2.1c-.1,1,-.2,1.9,-.2,2.8m-1.6,-.2c0,-1.2,.2,-2.3,.6,-3.2c.4,-.9,.9,-1.5,1.5,-2c.5,-.3,1,-.5,1.5,-.5c.8,0,1.5,.4,2.2,1.3c.8,1,1.2,2.5,1.2,4.3c0,1.2,-.1,2.3,-.5,3.2c-.4,.9,-.8,1.5,-1.4,1.9c-.5,.4,-1.1,.6,-1.6,.6c-1,0,-1.9,-.6,-2.6,-1.8c-.6,-1.1,-.9,-2.3,-.9,-3.8Z" class="g7_68"/>
<path d="M751.4,352.3c0,1.5,.2,2.8,.5,3.7c.4,.8,.8,1.2,1.4,1.2c.3,0,.6,-.1,.9,-.4c.3,-.3,.6,-.7,.7,-1.3c.3,-.9,.4,-2.2,.4,-3.9c0,-1.2,-.1,-2.3,-.4,-3.1c-.2,-.6,-.4,-1,-.7,-1.3c-.3,-.2,-.5,-.2,-.8,-.2c-.4,0,-.7,.1,-1,.4c-.4,.5,-.7,1.2,-.8,2.1c-.1,1,-.2,1.9,-.2,2.8Zm-1.6,-.2c0,-1.2,.2,-2.3,.6,-3.2c.4,-.9,.9,-1.5,1.5,-2c.5,-.3,1,-.5,1.5,-.5c.8,0,1.5,.4,2.2,1.3c.8,1,1.2,2.5,1.2,4.3c0,1.2,-.1,2.3,-.5,3.2c-.4,.9,-.8,1.5,-1.4,1.9c-.5,.4,-1.1,.6,-1.6,.6c-1,0,-1.9,-.6,-2.6,-1.8c-.6,-1.1,-.9,-2.3,-.9,-3.8Z" class="g8_68"/>
<path fill-rule="evenodd" d="M759.6,352.3c0,1.5,.2,2.8,.5,3.7c.4,.8,.8,1.2,1.4,1.2c.3,0,.6,-.1,.9,-.4c.3,-.3,.6,-.7,.7,-1.3c.3,-.9,.4,-2.2,.4,-3.9c0,-1.2,-.1,-2.3,-.4,-3.1c-.2,-.6,-.4,-1,-.8,-1.3c-.2,-.2,-.4,-.2,-.7,-.2c-.4,0,-.7,.1,-1,.4c-.4,.5,-.7,1.2,-.8,2.1c-.1,1,-.2,1.9,-.2,2.8m-1.6,-.2c0,-1.2,.2,-2.3,.6,-3.2c.4,-.9,.9,-1.5,1.5,-2c.5,-.3,1,-.5,1.5,-.5c.8,0,1.5,.4,2.2,1.3c.8,1,1.2,2.5,1.2,4.3c0,1.2,-.1,2.3,-.5,3.2c-.4,.9,-.8,1.5,-1.4,1.9c-.5,.4,-1.1,.6,-1.6,.6c-1,0,-1.9,-.6,-2.6,-1.8c-.6,-1.1,-.9,-2.3,-.9,-3.8Z" class="g7_68"/>
<path d="M759.6,352.3c0,1.5,.2,2.8,.5,3.7c.4,.8,.8,1.2,1.4,1.2c.3,0,.6,-.1,.9,-.4c.3,-.3,.6,-.7,.7,-1.3c.3,-.9,.4,-2.2,.4,-3.9c0,-1.2,-.1,-2.3,-.4,-3.1c-.2,-.6,-.4,-1,-.8,-1.3c-.2,-.2,-.4,-.2,-.7,-.2c-.4,0,-.7,.1,-1,.4c-.4,.5,-.7,1.2,-.8,2.1c-.1,1,-.2,1.9,-.2,2.8Zm-1.6,-.2c0,-1.2,.2,-2.3,.6,-3.2c.4,-.9,.9,-1.5,1.5,-2c.5,-.3,1,-.5,1.5,-.5c.8,0,1.5,.4,2.2,1.3c.8,1,1.2,2.5,1.2,4.3c0,1.2,-.1,2.3,-.5,3.2c-.4,.9,-.8,1.5,-1.4,1.9c-.5,.4,-1.1,.6,-1.6,.6c-1,0,-1.9,-.6,-2.6,-1.8c-.6,-1.1,-.9,-2.3,-.9,-3.8Z" class="g8_68"/>
<path fill-rule="evenodd" d="M767.8,352.3c0,1.5,.2,2.8,.5,3.7c.4,.8,.8,1.2,1.4,1.2c.3,0,.6,-.1,.9,-.4c.3,-.3,.6,-.7,.7,-1.3c.3,-.9,.4,-2.2,.4,-3.9c0,-1.2,-.2,-2.3,-.4,-3.1c-.2,-.6,-.4,-1,-.8,-1.3c-.2,-.2,-.4,-.2,-.7,-.2c-.4,0,-.7,.1,-1,.4c-.4,.5,-.7,1.2,-.8,2.1c-.1,1,-.2,1.9,-.2,2.8m-1.6,-.2c0,-1.2,.2,-2.3,.6,-3.2c.4,-.9,.9,-1.5,1.5,-2c.5,-.3,1,-.5,1.5,-.5c.8,0,1.5,.4,2.2,1.3c.8,1,1.2,2.5,1.2,4.3c0,1.2,-.1,2.3,-.5,3.2c-.4,.9,-.8,1.5,-1.4,1.9c-.5,.4,-1.1,.6,-1.6,.6c-1,0,-1.9,-.6,-2.6,-1.8c-.6,-1.1,-.9,-2.3,-.9,-3.8Z" class="g7_68"/>
<path d="M767.8,352.3c0,1.5,.2,2.8,.5,3.7c.4,.8,.8,1.2,1.4,1.2c.3,0,.6,-.1,.9,-.4c.3,-.3,.6,-.7,.7,-1.3c.3,-.9,.4,-2.2,.4,-3.9c0,-1.2,-.2,-2.3,-.4,-3.1c-.2,-.6,-.4,-1,-.8,-1.3c-.2,-.2,-.4,-.2,-.7,-.2c-.4,0,-.7,.1,-1,.4c-.4,.5,-.7,1.2,-.8,2.1c-.1,1,-.2,1.9,-.2,2.8Zm-1.6,-.2c0,-1.2,.2,-2.3,.6,-3.2c.4,-.9,.9,-1.5,1.5,-2c.5,-.3,1,-.5,1.5,-.5c.8,0,1.5,.4,2.2,1.3c.8,1,1.2,2.5,1.2,4.3c0,1.2,-.1,2.3,-.5,3.2c-.4,.9,-.8,1.5,-1.4,1.9c-.5,.4,-1.1,.6,-1.6,.6c-1,0,-1.9,-.6,-2.6,-1.8c-.6,-1.1,-.9,-2.3,-.9,-3.8Z" class="g8_68"/>
<path fill-rule="evenodd" d="M264.7,406.9l2.6,-1.3h.3v9.1c0,.6,0,1,.1,1.2c0,.1,.1,.2,.3,.3c.2,.1,.5,.1,1,.1v.3h-4.1v-.3c.5,0,.8,0,1,-.1c.1,-.1,.2,-.2,.3,-.3c.1,-.1,.1,-.5,.1,-1.2v-5.8c0,-.8,0,-1.3,-.1,-1.6c0,-.1,-.1,-.2,-.2,-.3c-.1,-.1,-.2,-.1,-.4,-.1c-.1,0,-.4,0,-.8,.2Z" class="g7_68"/>
<path d="M264.7,406.9l2.6,-1.3h.3v9.1c0,.6,0,1,.1,1.2c0,.1,.1,.2,.3,.3c.2,.1,.5,.1,1,.1v.3h-4.1v-.3c.5,0,.8,0,1,-.1c.1,-.1,.2,-.2,.3,-.3c.1,-.1,.1,-.5,.1,-1.2v-5.8c0,-.8,0,-1.3,-.1,-1.6c0,-.1,-.1,-.2,-.2,-.3c-.1,-.1,-.2,-.1,-.4,-.1c-.1,0,-.4,0,-.8,.2l-.1,-.2Z" class="g8_68"/>
<path fill-rule="evenodd" d="M417.7,405.9l2.7,-1.2h.2v9.1c0,.6,.1,1,.1,1.2c.1,.1,.2,.2,.3,.3c.2,.1,.5,.1,1,.1v.3h-4.1v-.3c.5,0,.9,0,1,-.1c.2,-.1,.3,-.2,.3,-.3c.1,-.1,.1,-.5,.1,-1.2V408c0,-.8,0,-1.3,-.1,-1.6c0,-.1,-.1,-.3,-.2,-.3c-.1,-.1,-.2,-.2,-.3,-.2c-.2,0,-.5,.1,-.9,.3Z" class="g7_68"/>
<path d="M417.7,405.9l2.7,-1.2h.2v9.1c0,.6,.1,1,.1,1.2c.1,.1,.2,.2,.3,.3c.2,.1,.5,.1,1,.1v.3h-4.1v-.3c.5,0,.9,0,1,-.1c.2,-.1,.3,-.2,.3,-.3c.1,-.1,.1,-.5,.1,-1.2V408c0,-.8,0,-1.3,-.1,-1.6c0,-.1,-.1,-.3,-.2,-.3c-.1,-.1,-.2,-.2,-.3,-.2c-.2,0,-.5,.1,-.9,.3l-.1,-.3Z" class="g8_68"/>
<path fill-rule="evenodd" d="M426.2,410.6c0,1.5,.1,2.7,.5,3.6c.3,.8,.8,1.2,1.4,1.2c.3,0,.6,-.1,.9,-.4c.3,-.2,.5,-.7,.7,-1.3c.2,-.9,.3,-2.2,.3,-3.8c0,-1.3,-.1,-2.3,-.3,-3.1c-.2,-.7,-.5,-1.1,-.8,-1.4c-.2,-.1,-.5,-.2,-.8,-.2c-.3,0,-.7,.1,-.9,.5c-.4,.4,-.7,1.1,-.8,2.1c-.2,.9,-.2,1.9,-.2,2.8m-1.6,-.2c0,-1.3,.2,-2.3,.6,-3.2c.3,-.9,.8,-1.6,1.4,-2c.5,-.4,1,-.5,1.5,-.5c.9,0,1.6,.4,2.3,1.2c.8,1.1,1.2,2.5,1.2,4.3c0,1.3,-.2,2.3,-.5,3.2c-.4,.9,-.9,1.5,-1.4,1.9c-.6,.4,-1.1,.6,-1.6,.6c-1.1,0,-1.9,-.6,-2.6,-1.8c-.6,-1,-.9,-2.3,-.9,-3.7Z" class="g7_68"/>
<path d="M426.2,410.6c0,1.5,.1,2.7,.5,3.6c.3,.8,.8,1.2,1.4,1.2c.3,0,.6,-.1,.9,-.4c.3,-.2,.5,-.7,.7,-1.3c.2,-.9,.3,-2.2,.3,-3.8c0,-1.3,-.1,-2.3,-.3,-3.1c-.2,-.7,-.5,-1.1,-.8,-1.4c-.2,-.1,-.5,-.2,-.8,-.2c-.3,0,-.7,.1,-.9,.5c-.4,.4,-.7,1.1,-.8,2.1c-.2,.9,-.2,1.9,-.2,2.8Zm-1.6,-.2c0,-1.3,.2,-2.3,.6,-3.2c.3,-.9,.8,-1.6,1.4,-2c.5,-.4,1,-.5,1.5,-.5c.9,0,1.6,.4,2.3,1.2c.8,1.1,1.2,2.5,1.2,4.3c0,1.3,-.2,2.3,-.5,3.2c-.4,.9,-.9,1.5,-1.4,1.9c-.6,.4,-1.1,.6,-1.6,.6c-1.1,0,-1.9,-.6,-2.6,-1.8c-.6,-1,-.9,-2.3,-.9,-3.7Z" class="g8_68"/>
<path fill-rule="evenodd" d="M434.4,410.6c0,1.5,.1,2.7,.5,3.6c.3,.8,.8,1.2,1.4,1.2c.3,0,.6,-.1,.9,-.4c.3,-.2,.5,-.7,.7,-1.3c.2,-.9,.3,-2.2,.3,-3.8c0,-1.3,-.1,-2.3,-.3,-3.1c-.2,-.7,-.5,-1.1,-.8,-1.4c-.2,-.1,-.5,-.2,-.8,-.2c-.3,0,-.7,.1,-.9,.5c-.4,.4,-.7,1.1,-.8,2.1c-.2,.9,-.2,1.9,-.2,2.8m-1.6,-.2c0,-1.3,.2,-2.3,.6,-3.2c.3,-.9,.8,-1.6,1.4,-2c.5,-.4,1,-.5,1.5,-.5c.9,0,1.6,.4,2.3,1.2c.8,1.1,1.2,2.5,1.2,4.3c0,1.3,-.2,2.3,-.5,3.2c-.4,.9,-.9,1.5,-1.4,1.9c-.6,.4,-1.1,.6,-1.6,.6c-1.1,0,-1.9,-.6,-2.6,-1.8c-.6,-1,-.9,-2.3,-.9,-3.7Z" class="g7_68"/>
<path d="M434.4,410.6c0,1.5,.1,2.7,.5,3.6c.3,.8,.8,1.2,1.4,1.2c.3,0,.6,-.1,.9,-.4c.3,-.2,.5,-.7,.7,-1.3c.2,-.9,.3,-2.2,.3,-3.8c0,-1.3,-.1,-2.3,-.3,-3.1c-.2,-.7,-.5,-1.1,-.8,-1.4c-.2,-.1,-.5,-.2,-.8,-.2c-.3,0,-.7,.1,-.9,.5c-.4,.4,-.7,1.1,-.8,2.1c-.2,.9,-.2,1.9,-.2,2.8Zm-1.6,-.2c0,-1.3,.2,-2.3,.6,-3.2c.3,-.9,.8,-1.6,1.4,-2c.5,-.4,1,-.5,1.5,-.5c.9,0,1.6,.4,2.3,1.2c.8,1.1,1.2,2.5,1.2,4.3c0,1.3,-.2,2.3,-.5,3.2c-.4,.9,-.9,1.5,-1.4,1.9c-.6,.4,-1.1,.6,-1.6,.6c-1.1,0,-1.9,-.6,-2.6,-1.8c-.6,-1,-.9,-2.3,-.9,-3.7Z" class="g8_68"/>
<path fill-rule="evenodd" d="M568.8,406.9l2.7,-1.3h.2v9.1c0,.6,0,1,.1,1.2c0,.1,.2,.2,.3,.3c.2,.1,.5,.1,1,.1v.3H569v-.3c.5,0,.8,0,1,-.1c.1,-.1,.2,-.2,.3,-.3c.1,-.1,.1,-.5,.1,-1.2v-5.8c0,-.8,0,-1.3,-.1,-1.6c0,-.1,-.1,-.2,-.2,-.3c-.1,-.1,-.2,-.1,-.3,-.1c-.2,0,-.5,0,-.9,.2Z" class="g7_68"/>
<path d="M568.8,406.9l2.7,-1.3h.2v9.1c0,.6,0,1,.1,1.2c0,.1,.2,.2,.3,.3c.2,.1,.5,.1,1,.1v.3H569v-.3c.5,0,.8,0,1,-.1c.1,-.1,.2,-.2,.3,-.3c.1,-.1,.1,-.5,.1,-1.2v-5.8c0,-.8,0,-1.3,-.1,-1.6c0,-.1,-.1,-.2,-.2,-.3c-.1,-.1,-.2,-.1,-.3,-.1c-.2,0,-.5,0,-.9,.2l-.1,-.2Z" class="g8_68"/>
<path fill-rule="evenodd" d="M577.2,411.5c0,1.5,.2,2.7,.6,3.6c.3,.8,.8,1.2,1.4,1.2c.3,0,.5,-.1,.9,-.4c.3,-.2,.5,-.7,.7,-1.3c.2,-.9,.3,-2.2,.3,-3.8c0,-1.3,-.1,-2.3,-.4,-3.1c-.1,-.7,-.4,-1.1,-.7,-1.3c-.2,-.2,-.5,-.3,-.8,-.3c-.4,0,-.7,.2,-1,.5c-.3,.4,-.6,1.1,-.7,2.1c-.2,.9,-.3,1.9,-.3,2.8m-1.5,-.2c0,-1.3,.2,-2.3,.5,-3.2c.4,-.9,.9,-1.6,1.5,-2c.5,-.4,1,-.5,1.5,-.5c.9,0,1.6,.4,2.3,1.2c.8,1.1,1.2,2.5,1.2,4.3c0,1.3,-.2,2.3,-.5,3.2c-.4,.9,-.9,1.5,-1.4,1.9c-.6,.4,-1.1,.6,-1.7,.6c-1,0,-1.9,-.6,-2.5,-1.8c-.6,-1,-.9,-2.3,-.9,-3.7Z" class="g7_68"/>
<path d="M577.2,411.5c0,1.5,.2,2.7,.6,3.6c.3,.8,.8,1.2,1.4,1.2c.3,0,.5,-.1,.9,-.4c.3,-.2,.5,-.7,.7,-1.3c.2,-.9,.3,-2.2,.3,-3.8c0,-1.3,-.1,-2.3,-.4,-3.1c-.1,-.7,-.4,-1.1,-.7,-1.3c-.2,-.2,-.5,-.3,-.8,-.3c-.4,0,-.7,.2,-1,.5c-.3,.4,-.6,1.1,-.7,2.1c-.2,.9,-.3,1.9,-.3,2.8Zm-1.5,-.2c0,-1.3,.2,-2.3,.5,-3.2c.4,-.9,.9,-1.6,1.5,-2c.5,-.4,1,-.5,1.5,-.5c.9,0,1.6,.4,2.3,1.2c.8,1.1,1.2,2.5,1.2,4.3c0,1.3,-.2,2.3,-.5,3.2c-.4,.9,-.9,1.5,-1.4,1.9c-.6,.4,-1.1,.6,-1.7,.6c-1,0,-1.9,-.6,-2.5,-1.8c-.6,-1,-.9,-2.3,-.9,-3.7Z" class="g8_68"/>
<path fill-rule="evenodd" d="M589.5,411.5c0,1.5,.2,2.7,.6,3.6c.3,.8,.8,1.2,1.4,1.2c.3,0,.5,-.1,.9,-.4c.3,-.2,.5,-.7,.7,-1.3c.2,-.9,.3,-2.2,.3,-3.8c0,-1.3,-.1,-2.3,-.4,-3.1c-.1,-.7,-.4,-1.1,-.7,-1.3c-.2,-.2,-.5,-.3,-.8,-.3c-.4,0,-.7,.2,-1,.5c-.3,.4,-.6,1.1,-.7,2.1c-.2,.9,-.3,1.9,-.3,2.8m-1.5,-.2c0,-1.3,.2,-2.3,.5,-3.2c.4,-.9,.9,-1.6,1.5,-2c.5,-.4,1,-.5,1.5,-.5c.8,0,1.6,.4,2.3,1.2c.8,1.1,1.2,2.5,1.2,4.3c0,1.3,-.2,2.3,-.5,3.2c-.4,.9,-.9,1.5,-1.4,1.9c-.6,.4,-1.1,.6,-1.7,.6c-1,0,-1.9,-.6,-2.5,-1.8c-.6,-1,-.9,-2.3,-.9,-3.7Z" class="g7_68"/>
<path d="M589.5,411.5c0,1.5,.2,2.7,.6,3.6c.3,.8,.8,1.2,1.4,1.2c.3,0,.5,-.1,.9,-.4c.3,-.2,.5,-.7,.7,-1.3c.2,-.9,.3,-2.2,.3,-3.8c0,-1.3,-.1,-2.3,-.4,-3.1c-.1,-.7,-.4,-1.1,-.7,-1.3c-.2,-.2,-.5,-.3,-.8,-.3c-.4,0,-.7,.2,-1,.5c-.3,.4,-.6,1.1,-.7,2.1c-.2,.9,-.3,1.9,-.3,2.8Zm-1.5,-.2c0,-1.3,.2,-2.3,.5,-3.2c.4,-.9,.9,-1.6,1.5,-2c.5,-.4,1,-.5,1.5,-.5c.8,0,1.6,.4,2.3,1.2c.8,1.1,1.2,2.5,1.2,4.3c0,1.3,-.2,2.3,-.5,3.2c-.4,.9,-.9,1.5,-1.4,1.9c-.6,.4,-1.1,.6,-1.7,.6c-1,0,-1.9,-.6,-2.5,-1.8c-.6,-1,-.9,-2.3,-.9,-3.7Z" class="g8_68"/>
<path fill-rule="evenodd" d="M597.7,411.5c0,1.5,.2,2.7,.6,3.6c.3,.8,.8,1.2,1.4,1.2c.2,0,.5,-.1,.9,-.4c.3,-.2,.5,-.7,.7,-1.3c.2,-.9,.3,-2.2,.3,-3.8c0,-1.3,-.1,-2.3,-.4,-3.1c-.1,-.7,-.4,-1.1,-.7,-1.3c-.2,-.2,-.5,-.3,-.8,-.3c-.4,0,-.7,.2,-1,.5c-.3,.4,-.6,1.1,-.7,2.1c-.2,.9,-.3,1.9,-.3,2.8m-1.5,-.2c0,-1.3,.2,-2.3,.5,-3.2c.4,-.9,.9,-1.6,1.5,-2c.5,-.4,1,-.5,1.5,-.5c.8,0,1.6,.4,2.3,1.2c.8,1.1,1.2,2.5,1.2,4.3c0,1.3,-.2,2.3,-.5,3.2c-.4,.9,-.9,1.5,-1.4,1.9c-.6,.4,-1.1,.6,-1.7,.6c-1,0,-1.9,-.6,-2.6,-1.8c-.5,-1,-.8,-2.3,-.8,-3.7Z" class="g7_68"/>
<path d="M597.7,411.5c0,1.5,.2,2.7,.6,3.6c.3,.8,.8,1.2,1.4,1.2c.2,0,.5,-.1,.9,-.4c.3,-.2,.5,-.7,.7,-1.3c.2,-.9,.3,-2.2,.3,-3.8c0,-1.3,-.1,-2.3,-.4,-3.1c-.1,-.7,-.4,-1.1,-.7,-1.3c-.2,-.2,-.5,-.3,-.8,-.3c-.4,0,-.7,.2,-1,.5c-.3,.4,-.6,1.1,-.7,2.1c-.2,.9,-.3,1.9,-.3,2.8Zm-1.5,-.2c0,-1.3,.2,-2.3,.5,-3.2c.4,-.9,.9,-1.6,1.5,-2c.5,-.4,1,-.5,1.5,-.5c.8,0,1.6,.4,2.3,1.2c.8,1.1,1.2,2.5,1.2,4.3c0,1.3,-.2,2.3,-.5,3.2c-.4,.9,-.9,1.5,-1.4,1.9c-.6,.4,-1.1,.6,-1.7,.6c-1,0,-1.9,-.6,-2.6,-1.8c-.5,-1,-.8,-2.3,-.8,-3.7Z" class="g8_68"/>
<path fill-rule="evenodd" d="M605.9,411.5c0,1.5,.2,2.7,.6,3.6c.3,.8,.8,1.2,1.4,1.2c.2,0,.5,-.1,.9,-.4c.3,-.2,.5,-.7,.7,-1.3c.2,-.9,.3,-2.2,.3,-3.8c0,-1.3,-.1,-2.3,-.4,-3.1c-.2,-.7,-.4,-1.1,-.7,-1.3c-.2,-.2,-.5,-.3,-.8,-.3c-.4,0,-.7,.2,-1,.5c-.3,.4,-.6,1.1,-.7,2.1c-.2,.9,-.3,1.9,-.3,2.8m-1.5,-.2c0,-1.3,.2,-2.3,.5,-3.2c.4,-.9,.9,-1.6,1.5,-2c.5,-.4,1,-.5,1.5,-.5c.8,0,1.6,.4,2.3,1.2c.8,1.1,1.2,2.5,1.2,4.3c0,1.3,-.2,2.3,-.5,3.2c-.4,.9,-.9,1.5,-1.4,1.9c-.6,.4,-1.1,.6,-1.7,.6c-1,0,-1.9,-.6,-2.6,-1.8c-.5,-1,-.8,-2.3,-.8,-3.7Z" class="g7_68"/>
<path d="M605.9,411.5c0,1.5,.2,2.7,.6,3.6c.3,.8,.8,1.2,1.4,1.2c.2,0,.5,-.1,.9,-.4c.3,-.2,.5,-.7,.7,-1.3c.2,-.9,.3,-2.2,.3,-3.8c0,-1.3,-.1,-2.3,-.4,-3.1c-.2,-.7,-.4,-1.1,-.7,-1.3c-.2,-.2,-.5,-.3,-.8,-.3c-.4,0,-.7,.2,-1,.5c-.3,.4,-.6,1.1,-.7,2.1c-.2,.9,-.3,1.9,-.3,2.8Zm-1.5,-.2c0,-1.3,.2,-2.3,.5,-3.2c.4,-.9,.9,-1.6,1.5,-2c.5,-.4,1,-.5,1.5,-.5c.8,0,1.6,.4,2.3,1.2c.8,1.1,1.2,2.5,1.2,4.3c0,1.3,-.2,2.3,-.5,3.2c-.4,.9,-.9,1.5,-1.4,1.9c-.6,.4,-1.1,.6,-1.7,.6c-1,0,-1.9,-.6,-2.6,-1.8c-.5,-1,-.8,-2.3,-.8,-3.7Z" class="g8_68"/>
<path fill-rule="evenodd" d="M719.8,406.9l2.6,-1.3h.3v9.1c0,.6,0,1,.1,1.2c0,.1,.1,.2,.3,.3c.1,.1,.5,.1,1,.1v.3H720v-.3c.5,0,.8,0,1,-.1c.1,-.1,.2,-.2,.3,-.3c0,-.1,.1,-.5,.1,-1.2v-5.8c0,-.8,-.1,-1.3,-.1,-1.6c0,-.1,-.1,-.2,-.2,-.3c-.1,-.1,-.2,-.1,-.4,-.1c-.2,0,-.4,0,-.8,.2Z" class="g7_68"/>
<path d="M719.8,406.9l2.6,-1.3h.3v9.1c0,.6,0,1,.1,1.2c0,.1,.1,.2,.3,.3c.1,.1,.5,.1,1,.1v.3H720v-.3c.5,0,.8,0,1,-.1c.1,-.1,.2,-.2,.3,-.3c0,-.1,.1,-.5,.1,-1.2v-5.8c0,-.8,-.1,-1.3,-.1,-1.6c0,-.1,-.1,-.2,-.2,-.3c-.1,-.1,-.2,-.1,-.4,-.1c-.2,0,-.4,0,-.8,.2l-.1,-.2Z" class="g8_68"/>
<path fill-rule="evenodd" d="M732.3,411.5c0,1.5,.2,2.7,.6,3.6c.3,.8,.7,1.2,1.3,1.2c.3,0,.6,-.1,.9,-.4c.3,-.2,.6,-.7,.7,-1.3c.3,-.9,.4,-2.2,.4,-3.8c0,-1.3,-.1,-2.3,-.4,-3.1c-.2,-.7,-.4,-1.1,-.7,-1.3c-.2,-.2,-.5,-.3,-.8,-.3c-.4,0,-.7,.2,-1,.5c-.4,.4,-.6,1.1,-.8,2.1c-.1,.9,-.2,1.9,-.2,2.8m-1.5,-.2c0,-1.3,.1,-2.3,.5,-3.2c.4,-.9,.9,-1.6,1.5,-2c.5,-.4,1,-.5,1.5,-.5c.8,0,1.6,.4,2.2,1.2c.9,1.1,1.3,2.5,1.3,4.3c0,1.3,-.2,2.3,-.6,3.2c-.3,.9,-.8,1.5,-1.4,1.9c-.5,.4,-1.1,.6,-1.6,.6c-1,0,-1.9,-.6,-2.6,-1.8c-.6,-1,-.8,-2.3,-.8,-3.7Z" class="g7_68"/>
<path d="M732.3,411.5c0,1.5,.2,2.7,.6,3.6c.3,.8,.7,1.2,1.3,1.2c.3,0,.6,-.1,.9,-.4c.3,-.2,.6,-.7,.7,-1.3c.3,-.9,.4,-2.2,.4,-3.8c0,-1.3,-.1,-2.3,-.4,-3.1c-.2,-.7,-.4,-1.1,-.7,-1.3c-.2,-.2,-.5,-.3,-.8,-.3c-.4,0,-.7,.2,-1,.5c-.4,.4,-.6,1.1,-.8,2.1c-.1,.9,-.2,1.9,-.2,2.8Zm-1.5,-.2c0,-1.3,.1,-2.3,.5,-3.2c.4,-.9,.9,-1.6,1.5,-2c.5,-.4,1,-.5,1.5,-.5c.8,0,1.6,.4,2.2,1.2c.9,1.1,1.3,2.5,1.3,4.3c0,1.3,-.2,2.3,-.6,3.2c-.3,.9,-.8,1.5,-1.4,1.9c-.5,.4,-1.1,.6,-1.6,.6c-1,0,-1.9,-.6,-2.6,-1.8c-.6,-1,-.8,-2.3,-.8,-3.7Z" class="g8_68"/>
<path fill-rule="evenodd" d="M740.5,411.5c0,1.5,.2,2.7,.6,3.6c.3,.8,.7,1.2,1.3,1.2c.3,0,.6,-.1,.9,-.4c.3,-.2,.6,-.7,.7,-1.3c.3,-.9,.4,-2.2,.4,-3.8c0,-1.3,-.1,-2.3,-.4,-3.1c-.2,-.7,-.4,-1.1,-.7,-1.3c-.2,-.2,-.5,-.3,-.8,-.3c-.4,0,-.7,.2,-1,.5c-.4,.4,-.6,1.1,-.8,2.1c-.1,.9,-.2,1.9,-.2,2.8m-1.5,-.2c0,-1.3,.1,-2.3,.5,-3.2c.4,-.9,.9,-1.6,1.5,-2c.5,-.4,1,-.5,1.5,-.5c.8,0,1.6,.4,2.2,1.2c.9,1.1,1.3,2.5,1.3,4.3c0,1.3,-.2,2.3,-.6,3.2c-.3,.9,-.8,1.5,-1.4,1.9c-.5,.4,-1.1,.6,-1.6,.6c-1,0,-1.9,-.6,-2.6,-1.8c-.6,-1,-.8,-2.3,-.8,-3.7Z" class="g7_68"/>
<path d="M740.5,411.5c0,1.5,.2,2.7,.6,3.6c.3,.8,.7,1.2,1.3,1.2c.3,0,.6,-.1,.9,-.4c.3,-.2,.6,-.7,.7,-1.3c.3,-.9,.4,-2.2,.4,-3.8c0,-1.3,-.1,-2.3,-.4,-3.1c-.2,-.7,-.4,-1.1,-.7,-1.3c-.2,-.2,-.5,-.3,-.8,-.3c-.4,0,-.7,.2,-1,.5c-.4,.4,-.6,1.1,-.8,2.1c-.1,.9,-.2,1.9,-.2,2.8Zm-1.5,-.2c0,-1.3,.1,-2.3,.5,-3.2c.4,-.9,.9,-1.6,1.5,-2c.5,-.4,1,-.5,1.5,-.5c.8,0,1.6,.4,2.2,1.2c.9,1.1,1.3,2.5,1.3,4.3c0,1.3,-.2,2.3,-.6,3.2c-.3,.9,-.8,1.5,-1.4,1.9c-.5,.4,-1.1,.6,-1.6,.6c-1,0,-1.9,-.6,-2.6,-1.8c-.6,-1,-.8,-2.3,-.8,-3.7Z" class="g8_68"/>
<path fill-rule="evenodd" d="M748.7,411.5c0,1.5,.2,2.7,.6,3.6c.3,.8,.7,1.2,1.3,1.2c.3,0,.6,-.1,.9,-.4c.3,-.2,.6,-.7,.7,-1.3c.3,-.9,.4,-2.2,.4,-3.8c0,-1.3,-.1,-2.3,-.4,-3.1c-.2,-.7,-.4,-1.1,-.7,-1.3c-.2,-.2,-.5,-.3,-.8,-.3c-.4,0,-.7,.2,-1,.5c-.4,.4,-.6,1.1,-.8,2.1c-.1,.9,-.2,1.9,-.2,2.8m-1.5,-.2c0,-1.3,.1,-2.3,.5,-3.2c.4,-.9,.9,-1.6,1.5,-2c.5,-.4,1,-.5,1.5,-.5c.8,0,1.6,.4,2.2,1.2c.9,1.1,1.3,2.5,1.3,4.3c0,1.3,-.2,2.3,-.6,3.2c-.3,.9,-.8,1.5,-1.4,1.9c-.5,.4,-1.1,.6,-1.6,.6c-1,0,-1.9,-.6,-2.6,-1.8c-.6,-1,-.8,-2.3,-.8,-3.7Z" class="g7_68"/>
<path d="M748.7,411.5c0,1.5,.2,2.7,.6,3.6c.3,.8,.7,1.2,1.3,1.2c.3,0,.6,-.1,.9,-.4c.3,-.2,.6,-.7,.7,-1.3c.3,-.9,.4,-2.2,.4,-3.8c0,-1.3,-.1,-2.3,-.4,-3.1c-.2,-.7,-.4,-1.1,-.7,-1.3c-.2,-.2,-.5,-.3,-.8,-.3c-.4,0,-.7,.2,-1,.5c-.4,.4,-.6,1.1,-.8,2.1c-.1,.9,-.2,1.9,-.2,2.8Zm-1.5,-.2c0,-1.3,.1,-2.3,.5,-3.2c.4,-.9,.9,-1.6,1.5,-2c.5,-.4,1,-.5,1.5,-.5c.8,0,1.6,.4,2.2,1.2c.9,1.1,1.3,2.5,1.3,4.3c0,1.3,-.2,2.3,-.6,3.2c-.3,.9,-.8,1.5,-1.4,1.9c-.5,.4,-1.1,.6,-1.6,.6c-1,0,-1.9,-.6,-2.6,-1.8c-.6,-1,-.8,-2.3,-.8,-3.7Z" class="g8_68"/>
<path fill-rule="evenodd" d="M761,411.5c0,1.5,.2,2.7,.6,3.6c.3,.8,.7,1.2,1.3,1.2c.3,0,.6,-.1,.9,-.4c.3,-.2,.6,-.7,.7,-1.3c.3,-.9,.4,-2.2,.4,-3.8c0,-1.3,-.1,-2.3,-.4,-3.1c-.2,-.7,-.4,-1.1,-.7,-1.3c-.2,-.2,-.5,-.3,-.8,-.3c-.4,0,-.7,.2,-1,.5c-.4,.4,-.6,1.1,-.8,2.1c-.1,.9,-.2,1.9,-.2,2.8m-1.6,-.2c0,-1.3,.2,-2.3,.6,-3.2c.4,-.9,.9,-1.6,1.5,-2c.5,-.4,1,-.5,1.5,-.5c.8,0,1.6,.4,2.2,1.2c.9,1.1,1.3,2.5,1.3,4.3c0,1.3,-.2,2.3,-.6,3.2c-.3,.9,-.8,1.5,-1.4,1.9c-.5,.4,-1.1,.6,-1.6,.6c-1,0,-1.9,-.6,-2.6,-1.8c-.6,-1,-.9,-2.3,-.9,-3.7Z" class="g7_68"/>
<path d="M761,411.5c0,1.5,.2,2.7,.6,3.6c.3,.8,.7,1.2,1.3,1.2c.3,0,.6,-.1,.9,-.4c.3,-.2,.6,-.7,.7,-1.3c.3,-.9,.4,-2.2,.4,-3.8c0,-1.3,-.1,-2.3,-.4,-3.1c-.2,-.7,-.4,-1.1,-.7,-1.3c-.2,-.2,-.5,-.3,-.8,-.3c-.4,0,-.7,.2,-1,.5c-.4,.4,-.6,1.1,-.8,2.1c-.1,.9,-.2,1.9,-.2,2.8Zm-1.6,-.2c0,-1.3,.2,-2.3,.6,-3.2c.4,-.9,.9,-1.6,1.5,-2c.5,-.4,1,-.5,1.5,-.5c.8,0,1.6,.4,2.2,1.2c.9,1.1,1.3,2.5,1.3,4.3c0,1.3,-.2,2.3,-.6,3.2c-.3,.9,-.8,1.5,-1.4,1.9c-.5,.4,-1.1,.6,-1.6,.6c-1,0,-1.9,-.6,-2.6,-1.8c-.6,-1,-.9,-2.3,-.9,-3.7Z" class="g8_68"/>
<path fill-rule="evenodd" d="M769.2,411.5c0,1.5,.2,2.7,.6,3.6c.3,.8,.7,1.2,1.3,1.2c.3,0,.6,-.1,.9,-.4c.3,-.2,.6,-.7,.7,-1.3c.3,-.9,.4,-2.2,.4,-3.8c0,-1.3,-.1,-2.3,-.4,-3.1c-.2,-.7,-.4,-1.1,-.7,-1.3c-.2,-.2,-.5,-.3,-.8,-.3c-.4,0,-.7,.2,-1,.5c-.4,.4,-.6,1.1,-.8,2.1c-.1,.9,-.2,1.9,-.2,2.8m-1.6,-.2c0,-1.3,.2,-2.3,.6,-3.2c.4,-.9,.9,-1.6,1.5,-2c.5,-.4,1,-.5,1.5,-.5c.8,0,1.6,.4,2.2,1.2c.9,1.1,1.3,2.5,1.3,4.3c0,1.3,-.2,2.3,-.6,3.2c-.3,.9,-.8,1.5,-1.4,1.9c-.5,.4,-1.1,.6,-1.6,.6c-1,0,-1.9,-.6,-2.6,-1.8c-.6,-1,-.9,-2.3,-.9,-3.7Z" class="g7_68"/>
<path d="M769.2,411.5c0,1.5,.2,2.7,.6,3.6c.3,.8,.7,1.2,1.3,1.2c.3,0,.6,-.1,.9,-.4c.3,-.2,.6,-.7,.7,-1.3c.3,-.9,.4,-2.2,.4,-3.8c0,-1.3,-.1,-2.3,-.4,-3.1c-.2,-.7,-.4,-1.1,-.7,-1.3c-.2,-.2,-.5,-.3,-.8,-.3c-.4,0,-.7,.2,-1,.5c-.4,.4,-.6,1.1,-.8,2.1c-.1,.9,-.2,1.9,-.2,2.8Zm-1.6,-.2c0,-1.3,.2,-2.3,.6,-3.2c.4,-.9,.9,-1.6,1.5,-2c.5,-.4,1,-.5,1.5,-.5c.8,0,1.6,.4,2.2,1.2c.9,1.1,1.3,2.5,1.3,4.3c0,1.3,-.2,2.3,-.6,3.2c-.3,.9,-.8,1.5,-1.4,1.9c-.5,.4,-1.1,.6,-1.6,.6c-1,0,-1.9,-.6,-2.6,-1.8c-.6,-1,-.9,-2.3,-.9,-3.7Z" class="g8_68"/>
<path fill-rule="evenodd" d="M777.4,411.5c0,1.5,.2,2.7,.6,3.6c.3,.8,.7,1.2,1.3,1.2c.3,0,.6,-.1,.9,-.4c.3,-.2,.6,-.7,.7,-1.3c.3,-.9,.4,-2.2,.4,-3.8c0,-1.3,-.1,-2.3,-.4,-3.1c-.2,-.7,-.4,-1.1,-.7,-1.3c-.2,-.2,-.5,-.3,-.8,-.3c-.4,0,-.7,.2,-1,.5c-.4,.4,-.6,1.1,-.8,2.1c-.1,.9,-.2,1.9,-.2,2.8m-1.6,-.2c0,-1.3,.2,-2.3,.6,-3.2c.4,-.9,.9,-1.6,1.5,-2c.5,-.4,1,-.5,1.5,-.5c.8,0,1.6,.4,2.2,1.2c.9,1.1,1.3,2.5,1.3,4.3c0,1.3,-.2,2.3,-.6,3.2c-.3,.9,-.8,1.5,-1.4,1.9c-.5,.4,-1.1,.6,-1.6,.6c-1,0,-1.9,-.6,-2.6,-1.8c-.6,-1,-.9,-2.3,-.9,-3.7Z" class="g7_68"/>
<path d="M777.4,411.5c0,1.5,.2,2.7,.6,3.6c.3,.8,.7,1.2,1.3,1.2c.3,0,.6,-.1,.9,-.4c.3,-.2,.6,-.7,.7,-1.3c.3,-.9,.4,-2.2,.4,-3.8c0,-1.3,-.1,-2.3,-.4,-3.1c-.2,-.7,-.4,-1.1,-.7,-1.3c-.2,-.2,-.5,-.3,-.8,-.3c-.4,0,-.7,.2,-1,.5c-.4,.4,-.6,1.1,-.8,2.1c-.1,.9,-.2,1.9,-.2,2.8Zm-1.6,-.2c0,-1.3,.2,-2.3,.6,-3.2c.4,-.9,.9,-1.6,1.5,-2c.5,-.4,1,-.5,1.5,-.5c.8,0,1.6,.4,2.2,1.2c.9,1.1,1.3,2.5,1.3,4.3c0,1.3,-.2,2.3,-.6,3.2c-.3,.9,-.8,1.5,-1.4,1.9c-.5,.4,-1.1,.6,-1.6,.6c-1,0,-1.9,-.6,-2.6,-1.8c-.6,-1,-.9,-2.3,-.9,-3.7Z" class="g8_68"/>
<path fill-rule="evenodd" d="M339.4,398.3h11.5v.9H339.4v-.9Zm0,-3.4h11.5v.8H339.4v-.8Z" class="g7_68"/>
<path d="M339.4,398.3h11.5v.9H339.4v-.9Zm0,-3.4h11.5v.8H339.4v-.8Z" class="g8_68"/>
<path fill-rule="evenodd" d="M502.2,398.3h11.5v.9H502.2v-.9Zm0,-3.4h11.5v.8H502.2v-.8Z" class="g7_68"/>
<path d="M502.2,398.3h11.5v.9H502.2v-.9Zm0,-3.4h11.5v.8H502.2v-.8Z" class="g8_68"/>
<path fill-rule="evenodd" d="M665,398.3h11.5v.9H665v-.9Zm0,-3.4h11.5v.8H665v-.8Z" class="g7_68"/>
<path d="M665,398.3h11.5v.9H665v-.9Zm0,-3.4h11.5v.8H665v-.8Z" class="g8_68"/>
<path fill-rule="evenodd" d="M197,442.4l2.7,-1.3h.3v9.2c0,.6,0,1,0,1.1c.1,.2,.2,.3,.3,.4c.2,.1,.5,.1,1,.1v.3h-4.1v-.3c.6,0,.9,0,1,-.1c.2,-.1,.3,-.2,.3,-.3c.1,-.2,.1,-.6,.1,-1.2v-5.9c0,-.8,0,-1.3,0,-1.5c-.1,-.2,-.2,-.3,-.3,-.4c-.1,0,-.2,-.1,-.3,-.1c-.2,0,-.5,.1,-.8,.3Z" class="g7_68"/>
<path d="M197,442.4l2.7,-1.3h.3v9.2c0,.6,0,1,0,1.1c.1,.2,.2,.3,.3,.4c.2,.1,.5,.1,1,.1v.3h-4.1v-.3c.6,0,.9,0,1,-.1c.2,-.1,.3,-.2,.3,-.3c.1,-.2,.1,-.6,.1,-1.2v-5.9c0,-.8,0,-1.3,0,-1.5c-.1,-.2,-.2,-.3,-.3,-.4c-.1,0,-.2,-.1,-.3,-.1c-.2,0,-.5,.1,-.8,.3l-.2,-.3Z" class="g8_68"/>
<path fill-rule="evenodd" d="M257.5,469.3l2.6,-1.3h.3v9.2c0,.6,0,1,0,1.1c.1,.1,.2,.3,.4,.3c.1,.1,.4,.2,.9,.2v.3h-4v-.3c.5,0,.8,-.1,.9,-.2c.2,0,.3,-.1,.4,-.3c0,-.1,0,-.5,0,-1.1v-5.9c0,-.8,0,-1.3,0,-1.5c-.1,-.2,-.1,-.3,-.2,-.4c-.1,-.1,-.3,-.1,-.4,-.1c-.2,0,-.5,.1,-.8,.2Z" class="g7_68"/>
<path d="M257.5,469.3l2.6,-1.3h.3v9.2c0,.6,0,1,0,1.1c.1,.1,.2,.3,.4,.3c.1,.1,.4,.2,.9,.2v.3h-4v-.3c.5,0,.8,-.1,.9,-.2c.2,0,.3,-.1,.4,-.3c0,-.1,0,-.5,0,-1.1v-5.9c0,-.8,0,-1.3,0,-1.5c-.1,-.2,-.1,-.3,-.2,-.4c-.1,-.1,-.3,-.1,-.4,-.1c-.2,0,-.5,.1,-.8,.2l-.1,-.2Z" class="g8_68"/>
<path fill-rule="evenodd" d="M343.5,441.4l2.7,-1.3h.2v9.2c0,.6,.1,1,.1,1.1c.1,.2,.2,.3,.3,.4c.2,0,.5,.1,1,.1v.3h-4.1v-.3c.5,0,.9,-.1,1,-.1c.2,-.1,.3,-.2,.3,-.4c.1,-.1,.1,-.5,.1,-1.1v-5.9c0,-.8,0,-1.3,-.1,-1.5c0,-.2,-.1,-.3,-.2,-.4c-.1,-.1,-.2,-.1,-.3,-.1c-.2,0,-.5,.1,-.8,.2Z" class="g7_68"/>
<path d="M343.5,441.4l2.7,-1.3h.2v9.2c0,.6,.1,1,.1,1.1c.1,.2,.2,.3,.3,.4c.2,0,.5,.1,1,.1v.3h-4.1v-.3c.5,0,.9,-.1,1,-.1c.2,-.1,.3,-.2,.3,-.4c.1,-.1,.1,-.5,.1,-1.1v-5.9c0,-.8,0,-1.3,-.1,-1.5c0,-.2,-.1,-.3,-.2,-.4c-.1,-.1,-.2,-.1,-.3,-.1c-.2,0,-.5,.1,-.8,.2l-.2,-.2Z" class="g8_68"/>
<path fill-rule="evenodd" d="M352,446c0,1.5,.2,2.7,.5,3.7c.3,.8,.8,1.2,1.4,1.2c.3,0,.6,-.2,.9,-.4c.3,-.3,.5,-.7,.7,-1.3c.2,-.9,.4,-2.2,.4,-3.9c0,-1.2,-.2,-2.3,-.4,-3.1c-.2,-.6,-.5,-1,-.8,-1.3c-.2,-.2,-.5,-.3,-.8,-.3c-.3,0,-.7,.2,-.9,.5c-.4,.5,-.7,1.2,-.8,2.1c-.2,1,-.2,1.9,-.2,2.8m-1.6,-.2c0,-1.2,.2,-2.3,.6,-3.2c.3,-.9,.8,-1.5,1.5,-2c.4,-.3,.9,-.5,1.4,-.5c.9,0,1.6,.4,2.3,1.3c.8,1,1.2,2.5,1.2,4.3c0,1.2,-.2,2.3,-.5,3.2c-.4,.8,-.8,1.5,-1.4,1.9c-.6,.4,-1.1,.6,-1.6,.6c-1.1,0,-1.9,-.6,-2.6,-1.9c-.6,-1,-.9,-2.2,-.9,-3.7Z" class="g7_68"/>
<path d="M352,446c0,1.5,.2,2.7,.5,3.7c.3,.8,.8,1.2,1.4,1.2c.3,0,.6,-.2,.9,-.4c.3,-.3,.5,-.7,.7,-1.3c.2,-.9,.4,-2.2,.4,-3.9c0,-1.2,-.2,-2.3,-.4,-3.1c-.2,-.6,-.5,-1,-.8,-1.3c-.2,-.2,-.5,-.3,-.8,-.3c-.3,0,-.7,.2,-.9,.5c-.4,.5,-.7,1.2,-.8,2.1c-.2,1,-.2,1.9,-.2,2.8Zm-1.6,-.2c0,-1.2,.2,-2.3,.6,-3.2c.3,-.9,.8,-1.5,1.5,-2c.4,-.3,.9,-.5,1.4,-.5c.9,0,1.6,.4,2.3,1.3c.8,1,1.2,2.5,1.2,4.3c0,1.2,-.2,2.3,-.5,3.2c-.4,.8,-.8,1.5,-1.4,1.9c-.6,.4,-1.1,.6,-1.6,.6c-1.1,0,-1.9,-.6,-2.6,-1.9c-.6,-1,-.9,-2.2,-.9,-3.7Z" class="g8_68"/>
<path fill-rule="evenodd" d="M411.4,468.3l2.5,-1.3h.2v9.1c0,.7,0,1,.1,1.2c0,.1,.1,.2,.3,.3c.1,.1,.4,.2,.9,.2v.3h-3.8v-.3c.4,0,.8,-.1,.9,-.2c.1,0,.2,-.1,.3,-.3c0,-.1,.1,-.5,.1,-1.2v-5.8c0,-.8,-.1,-1.3,-.1,-1.5c0,-.2,-.1,-.3,-.2,-.4c-.1,-.1,-.2,-.1,-.3,-.1c-.2,0,-.5,.1,-.8,.2Z" class="g7_68"/>
<path d="M411.4,468.3l2.5,-1.3h.2v9.1c0,.7,0,1,.1,1.2c0,.1,.1,.2,.3,.3c.1,.1,.4,.2,.9,.2v.3h-3.8v-.3c.4,0,.8,-.1,.9,-.2c.1,0,.2,-.1,.3,-.3c0,-.1,.1,-.5,.1,-1.2v-5.8c0,-.8,-.1,-1.3,-.1,-1.5c0,-.2,-.1,-.3,-.2,-.4c-.1,-.1,-.2,-.1,-.3,-.1c-.2,0,-.5,.1,-.8,.2l-.1,-.2Z" class="g8_68"/>
<path fill-rule="evenodd" d="M419.4,472.9c0,1.5,.1,2.7,.5,3.7c.3,.8,.7,1.1,1.3,1.1c.2,0,.5,-.1,.8,-.3c.3,-.3,.5,-.7,.7,-1.3c.2,-1,.3,-2.3,.3,-3.9c0,-1.3,-.1,-2.3,-.3,-3.1c-.2,-.6,-.5,-1.1,-.7,-1.3c-.3,-.2,-.5,-.3,-.8,-.3c-.3,0,-.6,.2,-.9,.5c-.4,.4,-.6,1.1,-.8,2.1c-.1,.9,-.1,1.9,-.1,2.8m-1.5,-.2c0,-1.2,.1,-2.3,.5,-3.2c.3,-.9,.8,-1.6,1.4,-2c.5,-.3,.9,-.5,1.4,-.5c.8,0,1.5,.4,2.1,1.3c.8,1,1.2,2.4,1.2,4.2c0,1.3,-.2,2.4,-.5,3.2c-.4,.9,-.8,1.6,-1.3,2c-.6,.4,-1.1,.6,-1.6,.6c-.9,0,-1.8,-.7,-2.4,-1.9c-.6,-1,-.8,-2.3,-.8,-3.7Z" class="g7_68"/>
<path d="M419.4,472.9c0,1.5,.1,2.7,.5,3.7c.3,.8,.7,1.1,1.3,1.1c.2,0,.5,-.1,.8,-.3c.3,-.3,.5,-.7,.7,-1.3c.2,-1,.3,-2.3,.3,-3.9c0,-1.3,-.1,-2.3,-.3,-3.1c-.2,-.6,-.5,-1.1,-.7,-1.3c-.3,-.2,-.5,-.3,-.8,-.3c-.3,0,-.6,.2,-.9,.5c-.4,.4,-.6,1.1,-.8,2.1c-.1,.9,-.1,1.9,-.1,2.8Zm-1.5,-.2c0,-1.2,.1,-2.3,.5,-3.2c.3,-.9,.8,-1.6,1.4,-2c.5,-.3,.9,-.5,1.4,-.5c.8,0,1.5,.4,2.1,1.3c.8,1,1.2,2.4,1.2,4.2c0,1.3,-.2,2.4,-.5,3.2c-.4,.9,-.8,1.6,-1.3,2c-.6,.4,-1.1,.6,-1.6,.6c-.9,0,-1.8,-.7,-2.4,-1.9c-.6,-1,-.8,-2.3,-.8,-3.7Z" class="g8_68"/>
<path fill-rule="evenodd" d="M496.5,442.3l2.6,-1.3h.3v9.2c0,.6,0,1,.1,1.1c0,.2,.1,.3,.3,.4c.2,0,.5,.1,1,.1v.3h-4.2v-.3c.6,0,.9,-.1,1.1,-.1c.1,-.1,.2,-.2,.3,-.3c0,-.2,.1,-.6,.1,-1.2v-5.9c0,-.8,-.1,-1.3,-.1,-1.5c-.1,-.2,-.1,-.3,-.2,-.4c-.1,-.1,-.2,-.1,-.4,-.1c-.2,0,-.5,.1,-.8,.2Z" class="g7_68"/>
<path d="M496.5,442.3l2.6,-1.3h.3v9.2c0,.6,0,1,.1,1.1c0,.2,.1,.3,.3,.4c.2,0,.5,.1,1,.1v.3h-4.2v-.3c.6,0,.9,-.1,1.1,-.1c.1,-.1,.2,-.2,.3,-.3c0,-.2,.1,-.6,.1,-1.2v-5.9c0,-.8,-.1,-1.3,-.1,-1.5c-.1,-.2,-.1,-.3,-.2,-.4c-.1,-.1,-.2,-.1,-.4,-.1c-.2,0,-.5,.1,-.8,.2l-.1,-.2Z" class="g8_68"/>
<path fill-rule="evenodd" d="M505,446.9c0,1.5,.2,2.7,.6,3.7c.3,.8,.8,1.2,1.4,1.2c.3,0,.6,-.2,.9,-.4c.3,-.3,.6,-.7,.7,-1.3c.3,-.9,.4,-2.2,.4,-3.9c0,-1.2,-.1,-2.3,-.4,-3.1c-.2,-.6,-.4,-1,-.8,-1.3c-.2,-.2,-.4,-.3,-.8,-.3c-.3,0,-.7,.2,-.9,.5c-.4,.5,-.7,1.2,-.8,2.1c-.2,1,-.3,1.9,-.3,2.8m-1.6,-.2c0,-1.2,.2,-2.3,.6,-3.2c.4,-.9,.9,-1.5,1.5,-2c.5,-.3,1,-.5,1.5,-.5c.9,0,1.7,.4,2.3,1.3c.9,1,1.3,2.5,1.3,4.3c0,1.2,-.2,2.3,-.6,3.2c-.3,.9,-.8,1.5,-1.4,1.9c-.6,.4,-1.1,.6,-1.6,.6c-1.1,0,-2,-.6,-2.7,-1.9c-.6,-1,-.9,-2.2,-.9,-3.7Z" class="g7_68"/>
<path d="M505,446.9c0,1.5,.2,2.7,.6,3.7c.3,.8,.8,1.2,1.4,1.2c.3,0,.6,-.2,.9,-.4c.3,-.3,.6,-.7,.7,-1.3c.3,-.9,.4,-2.2,.4,-3.9c0,-1.2,-.1,-2.3,-.4,-3.1c-.2,-.6,-.4,-1,-.8,-1.3c-.2,-.2,-.4,-.3,-.8,-.3c-.3,0,-.7,.2,-.9,.5c-.4,.5,-.7,1.2,-.8,2.1c-.2,1,-.3,1.9,-.3,2.8Zm-1.6,-.2c0,-1.2,.2,-2.3,.6,-3.2c.4,-.9,.9,-1.5,1.5,-2c.5,-.3,1,-.5,1.5,-.5c.9,0,1.7,.4,2.3,1.3c.9,1,1.3,2.5,1.3,4.3c0,1.2,-.2,2.3,-.6,3.2c-.3,.9,-.8,1.5,-1.4,1.9c-.6,.4,-1.1,.6,-1.6,.6c-1.1,0,-2,-.6,-2.7,-1.9c-.6,-1,-.9,-2.2,-.9,-3.7Z" class="g8_68"/>
<path fill-rule="evenodd" d="M513.4,446.9c0,1.5,.2,2.7,.5,3.7c.4,.8,.8,1.2,1.4,1.2c.3,0,.6,-.2,.9,-.4c.4,-.3,.6,-.7,.8,-1.3c.2,-.9,.3,-2.2,.3,-3.9c0,-1.2,-.1,-2.3,-.4,-3.1c-.1,-.6,-.4,-1,-.7,-1.3c-.2,-.2,-.5,-.3,-.8,-.3c-.4,0,-.7,.2,-1,.5c-.4,.5,-.7,1.2,-.8,2.1c-.1,1,-.2,1.9,-.2,2.8m-1.6,-.2c0,-1.2,.2,-2.3,.6,-3.2c.3,-.9,.8,-1.5,1.5,-2c.5,-.3,1,-.5,1.5,-.5c.8,0,1.6,.4,2.3,1.3c.8,1,1.2,2.5,1.2,4.3c0,1.2,-.2,2.3,-.5,3.2c-.4,.9,-.9,1.5,-1.4,1.9c-.6,.4,-1.2,.6,-1.7,.6c-1,0,-1.9,-.6,-2.6,-1.9c-.6,-1,-.9,-2.2,-.9,-3.7Z" class="g7_68"/>
<path d="M513.4,446.9c0,1.5,.2,2.7,.5,3.7c.4,.8,.8,1.2,1.4,1.2c.3,0,.6,-.2,.9,-.4c.4,-.3,.6,-.7,.8,-1.3c.2,-.9,.3,-2.2,.3,-3.9c0,-1.2,-.1,-2.3,-.4,-3.1c-.1,-.6,-.4,-1,-.7,-1.3c-.2,-.2,-.5,-.3,-.8,-.3c-.4,0,-.7,.2,-1,.5c-.4,.5,-.7,1.2,-.8,2.1c-.1,1,-.2,1.9,-.2,2.8Zm-1.6,-.2c0,-1.2,.2,-2.3,.6,-3.2c.3,-.9,.8,-1.5,1.5,-2c.5,-.3,1,-.5,1.5,-.5c.8,0,1.6,.4,2.3,1.3c.8,1,1.2,2.5,1.2,4.3c0,1.2,-.2,2.3,-.5,3.2c-.4,.9,-.9,1.5,-1.4,1.9c-.6,.4,-1.2,.6,-1.7,.6c-1,0,-1.9,-.6,-2.6,-1.9c-.6,-1,-.9,-2.2,-.9,-3.7Z" class="g8_68"/>
<path fill-rule="evenodd" d="M567.7,469.2l2.7,-1.3h.3v9.2c0,.6,0,.9,0,1.1c.1,.1,.2,.3,.4,.3c.1,.1,.5,.2,1,.2v.3h-4.2v-.3c.5,0,.9,-.1,1,-.2c.2,0,.3,-.1,.3,-.3c.1,-.1,.1,-.5,.1,-1.1v-5.9c0,-.8,0,-1.3,-.1,-1.5c0,-.2,-.1,-.3,-.2,-.4c-.1,-.1,-.2,-.1,-.3,-.1c-.2,0,-.5,.1,-.9,.2Z" class="g7_68"/>
<path d="M567.7,469.2l2.7,-1.3h.3v9.2c0,.6,0,.9,0,1.1c.1,.1,.2,.3,.4,.3c.1,.1,.5,.2,1,.2v.3h-4.2v-.3c.5,0,.9,-.1,1,-.2c.2,0,.3,-.1,.3,-.3c.1,-.1,.1,-.5,.1,-1.1v-5.9c0,-.8,0,-1.3,-.1,-1.5c0,-.2,-.1,-.3,-.2,-.4c-.1,-.1,-.2,-.1,-.3,-.1c-.2,0,-.5,.1,-.9,.2l-.1,-.2Z" class="g8_68"/>
<path fill-rule="evenodd" d="M576.3,473.8c0,1.5,.2,2.7,.5,3.7c.4,.8,.8,1.2,1.4,1.2c.3,0,.6,-.2,.9,-.4c.4,-.3,.6,-.7,.8,-1.3c.2,-1,.3,-2.2,.3,-3.9c0,-1.3,-.1,-2.3,-.4,-3.1c-.1,-.6,-.4,-1.1,-.7,-1.3c-.2,-.2,-.5,-.3,-.8,-.3c-.4,0,-.7,.2,-1,.5c-.4,.4,-.7,1.1,-.8,2.1c-.1,.9,-.2,1.9,-.2,2.8m-1.6,-.2c0,-1.2,.2,-2.3,.6,-3.2c.3,-.9,.8,-1.6,1.5,-2c.5,-.3,1,-.5,1.5,-.5c.8,0,1.6,.4,2.3,1.3c.8,1,1.2,2.4,1.2,4.2c0,1.3,-.1,2.4,-.5,3.2c-.4,.9,-.9,1.6,-1.4,2c-.6,.4,-1.2,.6,-1.7,.6c-1,0,-1.9,-.7,-2.6,-1.9c-.6,-1,-.9,-2.2,-.9,-3.7Z" class="g7_68"/>
<path d="M576.3,473.8c0,1.5,.2,2.7,.5,3.7c.4,.8,.8,1.2,1.4,1.2c.3,0,.6,-.2,.9,-.4c.4,-.3,.6,-.7,.8,-1.3c.2,-1,.3,-2.2,.3,-3.9c0,-1.3,-.1,-2.3,-.4,-3.1c-.1,-.6,-.4,-1.1,-.7,-1.3c-.2,-.2,-.5,-.3,-.8,-.3c-.4,0,-.7,.2,-1,.5c-.4,.4,-.7,1.1,-.8,2.1c-.1,.9,-.2,1.9,-.2,2.8Zm-1.6,-.2c0,-1.2,.2,-2.3,.6,-3.2c.3,-.9,.8,-1.6,1.5,-2c.5,-.3,1,-.5,1.5,-.5c.8,0,1.6,.4,2.3,1.3c.8,1,1.2,2.4,1.2,4.2c0,1.3,-.1,2.4,-.5,3.2c-.4,.9,-.9,1.6,-1.4,2c-.6,.4,-1.2,.6,-1.7,.6c-1,0,-1.9,-.7,-2.6,-1.9c-.6,-1,-.9,-2.2,-.9,-3.7Z" class="g8_68"/>
<path fill-rule="evenodd" d="M584.6,473.8c0,1.5,.2,2.7,.6,3.7c.3,.8,.8,1.2,1.4,1.2c.3,0,.6,-.2,.9,-.4c.3,-.3,.5,-.7,.7,-1.3c.3,-1,.4,-2.2,.4,-3.9c0,-1.3,-.1,-2.3,-.4,-3.1c-.2,-.6,-.5,-1.1,-.8,-1.3c-.2,-.2,-.5,-.3,-.8,-.3c-.3,0,-.7,.2,-1,.5c-.3,.4,-.6,1.1,-.8,2.1c-.1,.9,-.2,1.9,-.2,2.8m-1.6,-.2c0,-1.2,.2,-2.3,.6,-3.2c.4,-.9,.9,-1.6,1.5,-2c.5,-.3,1,-.5,1.5,-.5c.9,0,1.6,.4,2.3,1.3c.9,1,1.3,2.4,1.3,4.2c0,1.3,-.2,2.4,-.6,3.2c-.3,.9,-.8,1.6,-1.4,2c-.6,.4,-1.1,.6,-1.6,.6c-1.1,0,-2,-.7,-2.7,-1.9c-.6,-1,-.9,-2.2,-.9,-3.7Z" class="g7_68"/>
<path d="M584.6,473.8c0,1.5,.2,2.7,.6,3.7c.3,.8,.8,1.2,1.4,1.2c.3,0,.6,-.2,.9,-.4c.3,-.3,.5,-.7,.7,-1.3c.3,-1,.4,-2.2,.4,-3.9c0,-1.3,-.1,-2.3,-.4,-3.1c-.2,-.6,-.5,-1.1,-.8,-1.3c-.2,-.2,-.5,-.3,-.8,-.3c-.3,0,-.7,.2,-1,.5c-.3,.4,-.6,1.1,-.8,2.1c-.1,.9,-.2,1.9,-.2,2.8Zm-1.6,-.2c0,-1.2,.2,-2.3,.6,-3.2c.4,-.9,.9,-1.6,1.5,-2c.5,-.3,1,-.5,1.5,-.5c.9,0,1.6,.4,2.3,1.3c.9,1,1.3,2.4,1.3,4.2c0,1.3,-.2,2.4,-.6,3.2c-.3,.9,-.8,1.6,-1.4,2c-.6,.4,-1.1,.6,-1.6,.6c-1.1,0,-2,-.7,-2.7,-1.9c-.6,-1,-.9,-2.2,-.9,-3.7Z" class="g8_68"/>
<path fill-rule="evenodd" d="M644.7,442.3l2.6,-1.3h.3v9.2c0,.6,0,1,0,1.1c.1,.2,.2,.3,.3,.4c.2,.1,.5,.1,1,.1v.3h-4v-.3c.5,0,.8,0,1,-.1c.1,-.1,.2,-.2,.3,-.3c0,-.2,.1,-.6,.1,-1.2v-5.9c0,-.8,-.1,-1.3,-.1,-1.5c-.1,-.2,-.1,-.3,-.2,-.4c-.1,0,-.2,-.1,-.4,-.1c-.2,0,-.5,.1,-.8,.3Z" class="g7_68"/>
<path d="M644.7,442.3l2.6,-1.3h.3v9.2c0,.6,0,1,0,1.1c.1,.2,.2,.3,.3,.4c.2,.1,.5,.1,1,.1v.3h-4v-.3c.5,0,.8,0,1,-.1c.1,-.1,.2,-.2,.3,-.3c0,-.2,.1,-.6,.1,-1.2v-5.9c0,-.8,-.1,-1.3,-.1,-1.5c-.1,-.2,-.1,-.3,-.2,-.4c-.1,0,-.2,-.1,-.4,-.1c-.2,0,-.5,.1,-.8,.3l-.1,-.3Z" class="g8_68"/>
<path fill-rule="evenodd" d="M653,446.9c0,1.5,.2,2.8,.6,3.7c.3,.8,.7,1.2,1.3,1.2c.3,0,.6,-.1,.9,-.4c.3,-.3,.6,-.7,.7,-1.3c.3,-.9,.4,-2.2,.4,-3.9c0,-1.2,-.1,-2.2,-.4,-3.1c-.2,-.6,-.4,-1,-.7,-1.3c-.2,-.2,-.5,-.2,-.8,-.2c-.4,0,-.7,.1,-1,.4c-.4,.5,-.6,1.2,-.8,2.1c-.1,1,-.2,1.9,-.2,2.8m-1.5,-.2c0,-1.2,.2,-2.3,.5,-3.2c.4,-.8,.9,-1.5,1.5,-2c.5,-.3,1,-.5,1.5,-.5c.8,0,1.6,.5,2.2,1.3c.8,1.1,1.2,2.5,1.2,4.3c0,1.2,-.1,2.3,-.5,3.2c-.4,.9,-.8,1.5,-1.4,1.9c-.5,.4,-1.1,.6,-1.6,.6c-1,0,-1.9,-.6,-2.5,-1.8c-.6,-1.1,-.9,-2.3,-.9,-3.8Z" class="g7_68"/>
<path d="M653,446.9c0,1.5,.2,2.8,.6,3.7c.3,.8,.7,1.2,1.3,1.2c.3,0,.6,-.1,.9,-.4c.3,-.3,.6,-.7,.7,-1.3c.3,-.9,.4,-2.2,.4,-3.9c0,-1.2,-.1,-2.2,-.4,-3.1c-.2,-.6,-.4,-1,-.7,-1.3c-.2,-.2,-.5,-.2,-.8,-.2c-.4,0,-.7,.1,-1,.4c-.4,.5,-.6,1.2,-.8,2.1c-.1,1,-.2,1.9,-.2,2.8Zm-1.5,-.2c0,-1.2,.2,-2.3,.5,-3.2c.4,-.8,.9,-1.5,1.5,-2c.5,-.3,1,-.5,1.5,-.5c.8,0,1.6,.5,2.2,1.3c.8,1.1,1.2,2.5,1.2,4.3c0,1.2,-.1,2.3,-.5,3.2c-.4,.9,-.8,1.5,-1.4,1.9c-.5,.4,-1.1,.6,-1.6,.6c-1,0,-1.9,-.6,-2.5,-1.8c-.6,-1.1,-.9,-2.3,-.9,-3.8Z" class="g8_68"/>
<path fill-rule="evenodd" d="M661.2,446.9c0,1.5,.2,2.8,.5,3.7c.3,.8,.8,1.2,1.4,1.2c.3,0,.5,-.1,.9,-.4c.3,-.3,.5,-.7,.7,-1.3c.2,-.9,.3,-2.2,.3,-3.9c0,-1.2,-.1,-2.2,-.4,-3.1c-.2,-.6,-.4,-1,-.7,-1.3c-.2,-.2,-.5,-.2,-.8,-.2c-.3,0,-.7,.1,-.9,.4c-.4,.5,-.7,1.2,-.8,2.1c-.2,1,-.2,1.9,-.2,2.8m-1.6,-.2c0,-1.2,.2,-2.3,.6,-3.2c.3,-.8,.8,-1.5,1.4,-2c.5,-.3,1,-.5,1.5,-.5c.8,0,1.6,.5,2.2,1.3c.9,1.1,1.3,2.5,1.3,4.3c0,1.2,-.2,2.3,-.6,3.2c-.3,.9,-.8,1.5,-1.3,1.9c-.6,.4,-1.1,.6,-1.7,.6c-1,0,-1.8,-.6,-2.5,-1.8c-.6,-1.1,-.9,-2.3,-.9,-3.8Z" class="g7_68"/>
<path d="M661.2,446.9c0,1.5,.2,2.8,.5,3.7c.3,.8,.8,1.2,1.4,1.2c.3,0,.5,-.1,.9,-.4c.3,-.3,.5,-.7,.7,-1.3c.2,-.9,.3,-2.2,.3,-3.9c0,-1.2,-.1,-2.2,-.4,-3.1c-.2,-.6,-.4,-1,-.7,-1.3c-.2,-.2,-.5,-.2,-.8,-.2c-.3,0,-.7,.1,-.9,.4c-.4,.5,-.7,1.2,-.8,2.1c-.2,1,-.2,1.9,-.2,2.8Zm-1.6,-.2c0,-1.2,.2,-2.3,.6,-3.2c.3,-.8,.8,-1.5,1.4,-2c.5,-.3,1,-.5,1.5,-.5c.8,0,1.6,.5,2.2,1.3c.9,1.1,1.3,2.5,1.3,4.3c0,1.2,-.2,2.3,-.6,3.2c-.3,.9,-.8,1.5,-1.3,1.9c-.6,.4,-1.1,.6,-1.7,.6c-1,0,-1.8,-.6,-2.5,-1.8c-.6,-1.1,-.9,-2.3,-.9,-3.8Z" class="g8_68"/>
<path fill-rule="evenodd" d="M669.3,446.9c0,1.5,.2,2.8,.5,3.7c.3,.8,.8,1.2,1.4,1.2c.3,0,.6,-.1,.9,-.4c.3,-.3,.5,-.7,.7,-1.3c.2,-.9,.3,-2.2,.3,-3.9c0,-1.2,-.1,-2.2,-.3,-3.1c-.2,-.6,-.5,-1,-.8,-1.3c-.2,-.2,-.5,-.2,-.8,-.2c-.3,0,-.6,.1,-.9,.4c-.4,.5,-.7,1.2,-.8,2.1c-.1,1,-.2,1.9,-.2,2.8m-1.6,-.2c0,-1.2,.2,-2.3,.6,-3.2c.4,-.8,.9,-1.5,1.5,-2c.4,-.3,.9,-.5,1.4,-.5c.9,0,1.6,.5,2.3,1.3c.8,1.1,1.2,2.5,1.2,4.3c0,1.2,-.2,2.3,-.5,3.2c-.4,.9,-.9,1.5,-1.4,1.9c-.6,.4,-1.1,.6,-1.6,.6c-1.1,0,-1.9,-.6,-2.6,-1.8c-.6,-1.1,-.9,-2.3,-.9,-3.8Z" class="g7_68"/>
<path d="M669.3,446.9c0,1.5,.2,2.8,.5,3.7c.3,.8,.8,1.2,1.4,1.2c.3,0,.6,-.1,.9,-.4c.3,-.3,.5,-.7,.7,-1.3c.2,-.9,.3,-2.2,.3,-3.9c0,-1.2,-.1,-2.2,-.3,-3.1c-.2,-.6,-.5,-1,-.8,-1.3c-.2,-.2,-.5,-.2,-.8,-.2c-.3,0,-.6,.1,-.9,.4c-.4,.5,-.7,1.2,-.8,2.1c-.1,1,-.2,1.9,-.2,2.8Zm-1.6,-.2c0,-1.2,.2,-2.3,.6,-3.2c.4,-.8,.9,-1.5,1.5,-2c.4,-.3,.9,-.5,1.4,-.5c.9,0,1.6,.5,2.3,1.3c.8,1.1,1.2,2.5,1.2,4.3c0,1.2,-.2,2.3,-.5,3.2c-.4,.9,-.9,1.5,-1.4,1.9c-.6,.4,-1.1,.6,-1.6,.6c-1.1,0,-1.9,-.6,-2.6,-1.8c-.6,-1.1,-.9,-2.3,-.9,-3.8Z" class="g8_68"/>
<path fill-rule="evenodd" d="M723.9,469.2l2.6,-1.3h.3v9.2c0,.6,0,1,0,1.1c.1,.2,.2,.3,.4,.3c.1,.1,.4,.2,.9,.2v.3h-4v-.3c.5,0,.8,-.1,1,-.1c.1,-.1,.2,-.2,.3,-.4c0,-.1,.1,-.5,.1,-1.1v-5.9c0,-.8,-.1,-1.3,-.1,-1.5c-.1,-.2,-.1,-.3,-.2,-.4c-.1,-.1,-.2,-.1,-.4,-.1c-.2,0,-.4,.1,-.8,.2Z" class="g7_68"/>
<path d="M723.9,469.2l2.6,-1.3h.3v9.2c0,.6,0,1,0,1.1c.1,.2,.2,.3,.4,.3c.1,.1,.4,.2,.9,.2v.3h-4v-.3c.5,0,.8,-.1,1,-.1c.1,-.1,.2,-.2,.3,-.4c0,-.1,.1,-.5,.1,-1.1v-5.9c0,-.8,-.1,-1.3,-.1,-1.5c-.1,-.2,-.1,-.3,-.2,-.4c-.1,-.1,-.2,-.1,-.4,-.1c-.2,0,-.4,.1,-.8,.2l-.1,-.2Z" class="g8_68"/>
<path fill-rule="evenodd" d="M732.2,473.8c0,1.5,.2,2.7,.6,3.7c.3,.8,.7,1.2,1.3,1.2c.3,0,.6,-.2,.9,-.4c.3,-.3,.6,-.7,.7,-1.3c.3,-.9,.4,-2.2,.4,-3.9c0,-1.2,-.1,-2.3,-.4,-3.1c-.2,-.6,-.4,-1,-.7,-1.3c-.2,-.2,-.5,-.3,-.8,-.3c-.4,0,-.7,.2,-1,.5c-.4,.5,-.6,1.2,-.7,2.1c-.2,1,-.3,1.9,-.3,2.8m-1.5,-.2c0,-1.2,.2,-2.3,.5,-3.2c.4,-.9,.9,-1.5,1.5,-2c.5,-.3,1,-.5,1.5,-.5c.8,0,1.6,.4,2.2,1.3c.8,1,1.3,2.4,1.3,4.3c0,1.2,-.2,2.3,-.6,3.2c-.3,.8,-.8,1.5,-1.4,1.9c-.5,.4,-1.1,.6,-1.6,.6c-1,0,-1.9,-.6,-2.5,-1.9c-.6,-1,-.9,-2.2,-.9,-3.7Z" class="g7_68"/>
<path d="M732.2,473.8c0,1.5,.2,2.7,.6,3.7c.3,.8,.7,1.2,1.3,1.2c.3,0,.6,-.2,.9,-.4c.3,-.3,.6,-.7,.7,-1.3c.3,-.9,.4,-2.2,.4,-3.9c0,-1.2,-.1,-2.3,-.4,-3.1c-.2,-.6,-.4,-1,-.7,-1.3c-.2,-.2,-.5,-.3,-.8,-.3c-.4,0,-.7,.2,-1,.5c-.4,.5,-.6,1.2,-.7,2.1c-.2,1,-.3,1.9,-.3,2.8Zm-1.5,-.2c0,-1.2,.2,-2.3,.5,-3.2c.4,-.9,.9,-1.5,1.5,-2c.5,-.3,1,-.5,1.5,-.5c.8,0,1.6,.4,2.2,1.3c.8,1,1.3,2.4,1.3,4.3c0,1.2,-.2,2.3,-.6,3.2c-.3,.8,-.8,1.5,-1.4,1.9c-.5,.4,-1.1,.6,-1.6,.6c-1,0,-1.9,-.6,-2.5,-1.9c-.6,-1,-.9,-2.2,-.9,-3.7Z" class="g8_68"/>
<path fill-rule="evenodd" d="M740.4,473.8c0,1.5,.2,2.7,.5,3.7c.3,.8,.8,1.2,1.4,1.2c.3,0,.5,-.2,.9,-.4c.3,-.3,.5,-.7,.7,-1.3c.2,-.9,.3,-2.2,.3,-3.9c0,-1.2,-.1,-2.3,-.4,-3.1c-.2,-.6,-.4,-1,-.7,-1.3c-.2,-.2,-.5,-.3,-.8,-.3c-.3,0,-.7,.2,-.9,.5c-.4,.5,-.7,1.2,-.8,2.1c-.2,1,-.2,1.9,-.2,2.8m-1.6,-.2c0,-1.2,.2,-2.3,.6,-3.2c.3,-.9,.8,-1.5,1.4,-2c.5,-.3,1,-.5,1.5,-.5c.8,0,1.6,.4,2.2,1.3c.9,1,1.3,2.4,1.3,4.3c0,1.2,-.2,2.3,-.6,3.2c-.3,.8,-.8,1.5,-1.3,1.9c-.6,.4,-1.1,.6,-1.7,.6c-1,0,-1.8,-.6,-2.5,-1.9c-.6,-1,-.9,-2.2,-.9,-3.7Z" class="g7_68"/>
<path d="M740.4,473.8c0,1.5,.2,2.7,.5,3.7c.3,.8,.8,1.2,1.4,1.2c.3,0,.5,-.2,.9,-.4c.3,-.3,.5,-.7,.7,-1.3c.2,-.9,.3,-2.2,.3,-3.9c0,-1.2,-.1,-2.3,-.4,-3.1c-.2,-.6,-.4,-1,-.7,-1.3c-.2,-.2,-.5,-.3,-.8,-.3c-.3,0,-.7,.2,-.9,.5c-.4,.5,-.7,1.2,-.8,2.1c-.2,1,-.2,1.9,-.2,2.8Zm-1.6,-.2c0,-1.2,.2,-2.3,.6,-3.2c.3,-.9,.8,-1.5,1.4,-2c.5,-.3,1,-.5,1.5,-.5c.8,0,1.6,.4,2.2,1.3c.9,1,1.3,2.4,1.3,4.3c0,1.2,-.2,2.3,-.6,3.2c-.3,.8,-.8,1.5,-1.3,1.9c-.6,.4,-1.1,.6,-1.7,.6c-1,0,-1.8,-.6,-2.5,-1.9c-.6,-1,-.9,-2.2,-.9,-3.7Z" class="g8_68"/>
<path fill-rule="evenodd" d="M748.5,473.8c0,1.5,.2,2.7,.5,3.7c.3,.8,.8,1.2,1.4,1.2c.3,0,.6,-.2,.9,-.4c.3,-.3,.5,-.7,.7,-1.3c.2,-.9,.3,-2.2,.3,-3.9c0,-1.2,-.1,-2.3,-.3,-3.1c-.2,-.6,-.5,-1,-.8,-1.3c-.2,-.2,-.5,-.3,-.8,-.3c-.3,0,-.6,.2,-.9,.5c-.4,.5,-.7,1.2,-.8,2.1c-.1,1,-.2,1.9,-.2,2.8m-1.6,-.2c0,-1.2,.2,-2.3,.6,-3.2c.4,-.9,.9,-1.5,1.5,-2c.5,-.3,.9,-.5,1.5,-.5c.8,0,1.5,.4,2.2,1.3c.8,1,1.2,2.4,1.2,4.3c0,1.2,-.2,2.3,-.5,3.2c-.4,.8,-.9,1.5,-1.4,1.9c-.6,.4,-1.1,.6,-1.6,.6c-1.1,0,-1.9,-.6,-2.6,-1.9c-.6,-1,-.9,-2.2,-.9,-3.7Z" class="g7_68"/>
<path d="M748.5,473.8c0,1.5,.2,2.7,.5,3.7c.3,.8,.8,1.2,1.4,1.2c.3,0,.6,-.2,.9,-.4c.3,-.3,.5,-.7,.7,-1.3c.2,-.9,.3,-2.2,.3,-3.9c0,-1.2,-.1,-2.3,-.3,-3.1c-.2,-.6,-.5,-1,-.8,-1.3c-.2,-.2,-.5,-.3,-.8,-.3c-.3,0,-.6,.2,-.9,.5c-.4,.5,-.7,1.2,-.8,2.1c-.1,1,-.2,1.9,-.2,2.8Zm-1.6,-.2c0,-1.2,.2,-2.3,.6,-3.2c.4,-.9,.9,-1.5,1.5,-2c.5,-.3,.9,-.5,1.5,-.5c.8,0,1.5,.4,2.2,1.3c.8,1,1.2,2.4,1.2,4.3c0,1.2,-.2,2.3,-.5,3.2c-.4,.8,-.9,1.5,-1.4,1.9c-.6,.4,-1.1,.6,-1.6,.6c-1.1,0,-1.9,-.6,-2.6,-1.9c-.6,-1,-.9,-2.2,-.9,-3.7Z" class="g8_68"/>
<path d="M186,589H837V513.2H186V589Z" class="g5_68"/>
<path d="M73.3,608.5H835.5M73.3,744.2H835.5" class="g4_68"/>
<path d="M184.5,1077.4H835.6v-67.6H184.5v67.6Z" class="g5_68"/>
<path d="M0,138.7H120.6V0H0V138.7Z" class="g0_68"/>
<path d="M137,550.9h39.7V513.4H137v37.5Z" class="g9_68"/>
<path d="M135.7,367.8h39.7V330.3H135.7v37.5Z" class="ga_68"/>
<path d="M135.8,1047.2h39.7v-37.4H135.8v37.4Z" class="ga_68"/>
<path clip-path="url(#c0_68)" d="M156.1,1032.3c-2.1,.2,-3.8,-1.5,-3.6,-3.6c.1,-1.7,1.5,-3.1,3.2,-3.2c2,-.1,3.7,1.6,3.6,3.6c-.1,1.8,-1.5,3.1,-3.2,3.2m.2,3c-3.8,.2,-7,-3,-6.8,-6.8c.2,-3.1,2.8,-5.7,6,-5.9c3.8,-.3,7,2.9,6.7,6.7c-.2,3.2,-2.8,5.8,-5.9,6m-.4,-15.4c-5.8,0,-11,3.2,-14.9,8.3c-.3,.4,-.3,1,0,1.4c3.9,5.2,9.1,8.3,14.9,8.3c5.7,0,11,-3.1,14.8,-8.3c.4,-.4,.4,-1,0,-1.4c-3.8,-5.1,-9.1,-8.3,-14.8,-8.3Z" class="gb_68"/>
</svg>