<?xml version="1.0" encoding="UTF-8" standalone="no"?>
<!DOCTYPE svg PUBLIC "-//W3C//DTD SVG 1.1//EN"
"http://www.w3.org/Graphics/SVG/1.1/DTD/svg11.dtd">
<svg viewBox="0 0 909 1147" version="1.1" xmlns="http://www.w3.org/2000/svg" xmlns:xlink="http://www.w3.org/1999/xlink">
<defs>
<clipPath id="c0_109"><path d="M273.6,668.8V370.9H835.8V668.8Z"/></clipPath>
<clipPath id="c1_109"><path d="M140.8,990.9v-18H171v18Z"/></clipPath>
<style type="text/css"><![CDATA[
.g0_109{
fill: #E7A9A1;
}
.g1_109{
fill: #C1D9E6;
}
.g2_109{
fill: #D4EFFC;
}
.g3_109{
fill: none;
stroke: #000;
stroke-width: 1.061;
stroke-miterlimit: 2;
}
.g4_109{
fill: none;
stroke: #8ED8F8;
stroke-width: 0.766;
stroke-miterlimit: 2;
}
.g5_109{
fill: #000;
}
.g6_109{
fill: none;
stroke: #000;
stroke-width: 0.766;
stroke-miterlimit: 2;
}
.g7_109{
fill: none;
stroke: #000;
stroke-width: 0.766;
stroke-miterlimit: 2;
stroke-dasharray: 4,3;
}
.g8_109{
fill: none;
stroke: #000;
stroke-width: 1.072;
stroke-miterlimit: 2;
}
.g9_109{
fill: none;
stroke: #ED1D24;
stroke-width: 1.072;
stroke-miterlimit: 2;
}
.ga_109{
fill: #ED1D24;
}
.gb_109{
fill: #0EA5DF;
}
.gc_109{
fill: #FFF;
}
.gd_109{
fill: #FFF1E0;
}
.ge_109{
fill: none;
stroke: #2E3092;
stroke-width: 0.763;
}
]]></style>
</defs>
<path d="M835.8,1131h73.6v-51.5H835.8V1131Z" class="g0_109"/>
<path fill-rule="evenodd" d="M753.7,892.7l26.7,-15.3v45.5l-26.7,15.4Z" class="g1_109"/>
<path d="M707.9,938.3h45.6V892.7H707.9v45.6Z" class="g2_109"/>
<path d="M735,877.1v15.6m-.3,-15.6h45.9v45.8M707.8,892.8l27.1,-15.7m18.5,61.3l27.1,-15.7M753.4,892.8l27.1,-15.7m-72.6,15.6h45.6v45.6H707.9V892.7Z" class="g3_109"/>
<path d="M281.8,660.4V373m13.1,287.4V373m13,287.4V373m13,287.4V373M334,660.4V373m13,287.4V373m13,287.4V373m13,287.4V373m13.1,287.4V373m13,287.4V373m13,287.4V373m13.1,287.4V373m13,287.4V373m13,287.4V373m13,287.4V373m13.1,287.4V373m13,287.4V373m13,287.4V373m13.1,287.4V373m13,287.4V373m13,287.4V373m13.1,287.4V373m13,287.4V373m13,287.4V373m13,287.4V373m13.1,287.4V373m13,287.4V373m13,287.4V373m13.1,287.4V373m13,287.4V373m13,287.4V373m13,287.4V373m13.1,287.4V373m13,287.4V373m13,287.4V373m13.1,287.4V373m13,287.4V373m13,287.4V373m13,287.4V373M790,660.4V373m13,287.4V373m13,287.4V373m13.1,287.4V373m-547.3,0H828.9M281.8,386.1H828.9M281.8,399.2H828.9m-547.1,13H828.9M281.8,425.3H828.9M281.8,438.4H828.9m-547.1,13H828.9M281.8,464.5H828.9m-547.1,13H828.9M281.8,490.6H828.9M281.8,503.7H828.9m-547.1,13H828.9M281.8,529.8H828.9M281.8,542.9H828.9m-547.1,13H828.9M281.8,569H828.9M281.8,582.1H828.9m-547.1,13H828.9M281.8,608.2H828.9M281.8,621.3H828.9m-547.1,13H828.9M281.8,647.4H828.9m-547.1,13H828.9" class="g4_109"/>
<path fill-rule="evenodd" d="M818.5,420.7l1.9,-.9h.2v6.5c0,.5,0,.7,.1,.8c0,.1,.1,.2,.2,.3c.1,0,.3,.1,.7,.1v.2h-2.9v-.2c.3,0,.6,-.1,.7,-.1c.1,-.1,.2,-.1,.2,-.2c.1,-.1,.1,-.4,.1,-.9v-4.2c0,-.5,0,-.9,-.1,-1.1c0,-.1,-.1,-.2,-.1,-.2c-.1,-.1,-.2,-.1,-.3,-.1c-.1,0,-.3,.1,-.6,.2Z" class="g5_109"/>
<path fill-rule="evenodd" d="M696,562.4l-.6,1.5h-4.6v-.3c1.4,-1.2,2.3,-2.2,2.9,-3c.5,-.7,.8,-1.5,.8,-2.1c0,-.5,-.1,-.9,-.4,-1.2c-.4,-.3,-.7,-.5,-1.1,-.5c-.4,0,-.7,.1,-1.1,.4c-.3,.2,-.5,.5,-.6,.9h-.2c.1,-.7,.3,-1.2,.7,-1.6c.4,-.4,.9,-.6,1.5,-.6c.6,0,1.1,.2,1.5,.6c.5,.5,.7,.9,.7,1.5c0,.4,-.1,.8,-.3,1.2c-.3,.6,-.7,1.2,-1.4,1.9c-.9,1.1,-1.5,1.7,-1.7,1.9h2c.4,0,.7,0,.8,0c.2,-.1,.4,-.1,.5,-.2c.1,-.1,.2,-.3,.3,-.4Z" class="g5_109"/>
<path fill-rule="evenodd" d="M552.8,564.6v.9h-1.1v2h-.9v-2h-3.3v-.8l3.6,-5.1h.6v5Zm-2,0v-3.8l-2.7,3.8Z" class="g5_109"/>
<path fill-rule="evenodd" d="M622.2,652c.2,-.5,.5,-.9,.8,-1.2c.3,-.3,.8,-.4,1.3,-.4c.6,0,1.1,.2,1.4,.6c.2,.3,.4,.6,.4,.9c0,.6,-.4,1.2,-1.1,1.8c.5,.2,.8,.4,1.1,.8c.2,.3,.3,.7,.3,1.2c0,.7,-.2,1.3,-.6,1.7c-.6,.7,-1.4,1,-2.4,1c-.5,0,-.9,-.1,-1.1,-.2c-.2,-.1,-.3,-.3,-.3,-.4c0,-.1,.1,-.2,.2,-.3c.1,-.1,.2,-.1,.3,-.1c.1,0,.2,0,.3,0c.1,0,.2,.1,.4,.2c.3,.2,.4,.2,.5,.2c.1,.1,.3,.1,.5,.1c.3,0,.7,-.1,1,-.4c.3,-.3,.4,-.7,.4,-1.1c0,-.3,-.1,-.6,-.2,-.9c-.1,-.2,-.2,-.4,-.3,-.5c-.2,-.1,-.4,-.3,-.7,-.4c-.3,-.1,-.6,-.2,-.9,-.2h-.2v-.2c.3,0,.6,-.1,.9,-.3c.4,-.2,.6,-.4,.7,-.6c.1,-.3,.2,-.5,.2,-.9c0,-.3,-.1,-.7,-.4,-.9c-.2,-.2,-.5,-.4,-.9,-.4c-.6,0,-1.1,.3,-1.5,1Z" class="g5_109"/>
<path d="M819.4,415.8c4.3,0,7.8,3.5,7.8,7.8c0,4.3,-3.5,7.8,-7.8,7.8c-4.3,0,-7.8,-3.5,-7.8,-7.8c0,-4.3,3.5,-7.8,7.8,-7.8ZM693.4,552c4.3,0,7.8,3.5,7.8,7.8c0,4.3,-3.5,7.8,-7.8,7.8c-4.3,0,-7.8,-3.5,-7.8,-7.8c0,-4.3,3.5,-7.8,7.8,-7.8Zm-143.3,3.6c4.3,0,7.8,3.5,7.8,7.8c0,4.3,-3.5,7.8,-7.8,7.8c-4.3,0,-7.8,-3.5,-7.8,-7.8c0,-4.3,3.5,-7.8,7.8,-7.8Zm73.7,90.8c4.3,0,7.8,3.5,7.8,7.8c0,4.3,-3.5,7.8,-7.8,7.8c-4.3,0,-7.8,-3.5,-7.8,-7.8c0,-4.3,3.5,-7.8,7.8,-7.8Z" class="g6_109"/>
<path d="M687.7,636.8H554.4M805.3,385.2V518.8M675.4,517.2V649.1M567.3,517.2V649.1" class="g7_109"/>
<path d="M554.4,636.8v22.3H687.7V636.8m117.6,-118h22.2V385.2H805.3M675.4,649.1h22.3V517.2H675.4M567.3,649.1H545V517.2h22.3" class="g6_109"/>
<path d="M294.9,386.6H816.5V517H294.9V386.6Z" class="g8_109"/>
<path d="M425.1,386.8V517M555.4,386.8V517m1,0H686.2m-.5,-130.2V517" class="g9_109"/>
<path d="M555.5,517.8V647.4H685.9V517.2" class="g8_109"/>
<path d="M702.8,560.6c22.2,-1.1,39,-11.7,43.2,-34.5" class="g9_109"/>
<path fill-rule="evenodd" d="M747,520.7l-6.5,9.8c3.3,-.9,6.3,-.4,9.1,1.7Z" class="ga_109"/>
<path d="M540.8,560.6c-22.1,-1.1,-39,-11.7,-43.2,-34.5" class="g9_109"/>
<path fill-rule="evenodd" d="M496.7,520.7L494,532.2c2.8,-2.1,5.8,-2.6,9.2,-1.7Z" class="ga_109"/>
<path d="M623.2,663.5l-.3,5.2C426.8,666.3,352.1,647.1,352.5,528.1" class="g9_109"/>
<path fill-rule="evenodd" d="M352.5,522.7l-4.6,10.8c3.1,-1.5,6.2,-1.5,9.2,0Z" class="ga_109"/>
<path clip-path="url(#c0_109)" d="M828.9,424.5c10.1,0,10.8,-53.5,0,-52.8L291,371.6c-13.3,-1.6,-25.2,74.8,-4.1,77.2" class="g9_109"/>
<path fill-rule="evenodd" d="M292.3,449.5l-10.2,-5.9c1.2,3.3,.8,6.3,-1.1,9.2Z" class="ga_109"/>
<path fill-rule="evenodd" d="M353.5,395.7l2.7,-1.4h.2v9.5c0,.6,.1,1,.1,1.2c.1,.1,.2,.2,.3,.3c.2,.1,.5,.1,1.1,.1v.4h-4.2v-.4c.5,0,.8,0,1,-.1c.1,-.1,.2,-.2,.3,-.3c.1,-.1,.1,-.5,.1,-1.2v-6.1c0,-.8,0,-1.3,-.1,-1.5c0,-.2,-.1,-.3,-.2,-.4c-.1,-.1,-.2,-.1,-.4,-.1c-.2,0,-.5,0,-.8,.2Z" class="g5_109"/>
<path fill-rule="evenodd" d="M360.5,400.2c0,-1.3,.2,-2.3,.6,-3.3c.4,-.9,.9,-1.6,1.5,-2c.5,-.4,1,-.6,1.6,-.6c.8,0,1.6,.5,2.3,1.3c.8,1.1,1.2,2.6,1.2,4.5c0,1.2,-.2,2.4,-.5,3.3c-.4,.9,-.9,1.5,-1.5,1.9c-.5,.4,-1.1,.6,-1.6,.6c-1.1,0,-2,-.6,-2.7,-1.8c-.6,-1.1,-.9,-2.4,-.9,-3.9m1.6,.2c0,1.6,.2,2.8,.6,3.8c.3,.8,.8,1.2,1.4,1.2c.3,0,.6,-.1,.9,-.4c.3,-.2,.6,-.7,.7,-1.3c.3,-1,.4,-2.3,.4,-4c0,-1.3,-.1,-2.4,-.4,-3.2c-.2,-.6,-.4,-1.1,-.7,-1.4c-.3,-.1,-.5,-.2,-.9,-.2c-.3,0,-.7,.1,-1,.5c-.3,.4,-.6,1.2,-.8,2.1c-.1,1,-.2,2,-.2,2.9Z" class="g5_109"/>
<path fill-rule="evenodd" d="M301.9,447.4l2.7,-1.3h.3v9.4c0,.6,0,1,0,1.2c.1,.1,.2,.2,.4,.3c.1,.1,.5,.2,1,.2v.3h-4.2v-.3c.5,0,.8,-.1,1,-.2c.1,0,.3,-.2,.3,-.3c.1,-.1,.1,-.5,.1,-1.2v-6c0,-.9,0,-1.4,-.1,-1.6c0,-.2,-.1,-.3,-.2,-.4c-.1,-.1,-.2,-.1,-.4,-.1c-.2,0,-.4,.1,-.8,.2Z" class="g5_109"/>
<path fill-rule="evenodd" d="M308.9,451.9c0,-1.2,.2,-2.3,.6,-3.3c.4,-.9,.9,-1.6,1.5,-2c.5,-.4,1,-.5,1.6,-.5c.8,0,1.6,.4,2.3,1.3c.8,1,1.3,2.5,1.3,4.4c0,1.3,-.2,2.4,-.6,3.3c-.4,.9,-.9,1.5,-1.4,2c-.6,.4,-1.2,.6,-1.7,.6c-1.1,0,-2,-.7,-2.7,-1.9c-.6,-1.1,-.9,-2.4,-.9,-3.9m1.6,.3c0,1.5,.2,2.7,.6,3.7c.3,.8,.8,1.3,1.4,1.3c.3,0,.6,-.2,.9,-.4c.4,-.3,.6,-.8,.8,-1.4c.2,-.9,.3,-2.3,.3,-4c0,-1.3,-.1,-2.3,-.4,-3.2c-.2,-.6,-.4,-1.1,-.7,-1.3c-.2,-.2,-.5,-.3,-.8,-.3c-.4,0,-.7,.2,-1,.5c-.4,.5,-.7,1.2,-.8,2.2c-.2,.9,-.3,1.9,-.3,2.9Z" class="g5_109"/>
<path fill-rule="evenodd" d="M484.4,395.7l2.7,-1.4h.3v9.5c0,.6,0,1,0,1.2c.1,.1,.2,.2,.4,.3c.1,.1,.5,.1,1,.1v.4h-4.2v-.4c.5,0,.8,0,1,-.1c.2,-.1,.3,-.2,.3,-.3c.1,-.1,.1,-.5,.1,-1.2v-6.1c0,-.8,0,-1.3,-.1,-1.5c0,-.2,-.1,-.3,-.2,-.4c-.1,-.1,-.2,-.1,-.3,-.1c-.2,0,-.5,0,-.9,.2Z" class="g5_109"/>
<path fill-rule="evenodd" d="M491.4,400.2c0,-1.3,.2,-2.3,.6,-3.3c.4,-.9,.9,-1.6,1.6,-2c.4,-.4,1,-.6,1.5,-.6c.8,0,1.6,.5,2.3,1.3c.8,1.1,1.3,2.6,1.3,4.5c0,1.2,-.2,2.4,-.6,3.3c-.4,.9,-.8,1.5,-1.4,1.9c-.6,.4,-1.2,.6,-1.7,.6c-1.1,0,-1.9,-.6,-2.7,-1.8c-.6,-1.1,-.9,-2.4,-.9,-3.9m1.7,.2c0,1.6,.1,2.8,.5,3.8c.3,.8,.8,1.2,1.4,1.2c.3,0,.6,-.1,.9,-.4c.4,-.2,.6,-.7,.8,-1.3c.2,-1,.3,-2.3,.3,-4c0,-1.3,-.1,-2.4,-.3,-3.2c-.2,-.6,-.5,-1.1,-.8,-1.4c-.2,-.1,-.5,-.2,-.8,-.2c-.4,0,-.7,.1,-1,.5c-.4,.4,-.7,1.2,-.8,2.1c-.2,1,-.2,2,-.2,2.9Z" class="g5_109"/>
<path fill-rule="evenodd" d="M615.3,395.7l2.7,-1.4h.3v9.5c0,.6,0,1,.1,1.2c0,.1,.1,.2,.3,.3c.2,.1,.5,.1,1,.1v.4h-4.2v-.4c.5,0,.9,0,1,-.1c.2,-.1,.3,-.2,.4,-.3c0,-.1,0,-.5,0,-1.2v-6.1c0,-.8,0,-1.3,0,-1.5c-.1,-.2,-.1,-.3,-.2,-.4c-.1,-.1,-.3,-.1,-.4,-.1c-.2,0,-.5,0,-.9,.2Z" class="g5_109"/>
<path fill-rule="evenodd" d="M622.4,400.2c0,-1.3,.2,-2.3,.6,-3.3c.3,-.9,.8,-1.6,1.5,-2c.5,-.4,1,-.6,1.5,-.6c.9,0,1.6,.5,2.3,1.3c.9,1.1,1.3,2.6,1.3,4.5c0,1.2,-.2,2.4,-.6,3.3c-.3,.9,-.8,1.5,-1.4,1.9c-.6,.4,-1.1,.6,-1.7,.6c-1,0,-1.9,-.6,-2.6,-1.8c-.6,-1.1,-.9,-2.4,-.9,-3.9m1.6,.2c0,1.6,.2,2.8,.6,3.8c.3,.8,.7,1.2,1.4,1.2c.3,0,.6,-.1,.9,-.4c.3,-.2,.5,-.7,.7,-1.3c.3,-1,.4,-2.3,.4,-4c0,-1.3,-.2,-2.4,-.4,-3.2c-.2,-.6,-.5,-1.1,-.8,-1.4c-.2,-.1,-.5,-.2,-.8,-.2c-.4,0,-.7,.1,-1,.5c-.4,.4,-.7,1.2,-.8,2.1c-.1,1,-.2,2,-.2,2.9Z" class="g5_109"/>
<path fill-rule="evenodd" d="M746.2,395.7l2.8,-1.4h.2v9.5c0,.6,.1,1,.1,1.2c.1,.1,.2,.2,.3,.3c.2,.1,.5,.1,1,.1v.4h-4.2v-.4c.6,0,.9,0,1.1,-.1c.1,-.1,.2,-.2,.3,-.3c0,-.1,.1,-.5,.1,-1.2v-6.1c0,-.8,-.1,-1.3,-.1,-1.5c0,-.2,-.1,-.3,-.2,-.4c-.1,-.1,-.2,-.1,-.4,-.1c-.2,0,-.5,0,-.8,.2Z" class="g5_109"/>
<path fill-rule="evenodd" d="M753.3,400.2c0,-1.3,.2,-2.3,.6,-3.3c.4,-.9,.9,-1.6,1.5,-2c.5,-.4,1,-.6,1.5,-.6c.9,0,1.7,.5,2.3,1.3c.9,1.1,1.3,2.6,1.3,4.5c0,1.2,-.2,2.4,-.5,3.3c-.4,.9,-.9,1.5,-1.5,1.9c-.5,.4,-1.1,.6,-1.6,.6c-1.1,0,-2,-.6,-2.7,-1.8c-.6,-1.1,-.9,-2.4,-.9,-3.9m1.6,.2c0,1.6,.2,2.8,.6,3.8c.3,.8,.8,1.2,1.4,1.2c.3,0,.6,-.1,.9,-.4c.3,-.2,.6,-.7,.7,-1.3c.3,-1,.4,-2.3,.4,-4c0,-1.3,-.1,-2.4,-.4,-3.2c-.2,-.6,-.4,-1.1,-.7,-1.4c-.3,-.1,-.5,-.2,-.9,-.2c-.3,0,-.7,.1,-1,.5c-.4,.4,-.6,1.2,-.8,2.1c-.1,1,-.2,2,-.2,2.9Z" class="g5_109"/>
<path d="M135.8,1000.3h39.7V962.8H135.8v37.5Z" class="gb_109"/>
<path clip-path="url(#c1_109)" d="M156.1,985.4c-2.1,.1,-3.8,-1.6,-3.6,-3.6c.1,-1.8,1.5,-3.1,3.2,-3.2c2,-.2,3.7,1.5,3.6,3.6c-.1,1.7,-1.5,3.1,-3.2,3.2m.2,2.9c-3.8,.3,-7,-2.9,-6.8,-6.7c.2,-3.2,2.8,-5.8,6,-6c3.8,-.2,7,3,6.7,6.8c-.2,3.1,-2.8,5.7,-5.9,5.9M155.9,973c-5.8,0,-11,3.1,-14.9,8.3c-.3,.4,-.3,1,0,1.4c3.9,5.1,9.1,8.3,14.9,8.3c5.7,0,11,-3.2,14.8,-8.3c.4,-.4,.4,-1,0,-1.4c-3.8,-5.2,-9.1,-8.3,-14.8,-8.3Z" class="gc_109"/>
<path d="M184.8,1078.3h651V962.8h-651v115.5Z" class="gd_109"/>
<path d="M380.7,870.1c4.6,0,8.3,-3.7,8.3,-8.3c0,-4.6,-3.7,-8.3,-8.3,-8.3c-4.6,0,-8.3,3.7,-8.3,8.3c0,4.6,3.7,8.3,8.3,8.3Zm28.5,0c4.6,0,8.3,-3.7,8.3,-8.3c0,-4.6,-3.7,-8.3,-8.3,-8.3c-4.6,0,-8.3,3.7,-8.3,8.3c0,4.6,3.7,8.3,8.3,8.3Zm28.5,0c4.5,0,8.2,-3.7,8.2,-8.3c0,-4.6,-3.7,-8.3,-8.2,-8.3c-4.6,0,-8.3,3.7,-8.3,8.3c0,4.6,3.7,8.3,8.3,8.3Zm40.2,0c4.6,0,8.3,-3.7,8.3,-8.3c0,-4.6,-3.7,-8.3,-8.3,-8.3c-4.5,0,-8.2,3.7,-8.2,8.3c0,4.6,3.7,8.3,8.2,8.3Z" class="ge_109"/>
</svg>