<?xml version="1.0" encoding="UTF-8" standalone="no"?>
<!DOCTYPE svg PUBLIC "-//W3C//DTD SVG 1.1//EN"
"http://www.w3.org/Graphics/SVG/1.1/DTD/svg11.dtd">
<svg viewBox="0 0 909 1147" version="1.1" xmlns="http://www.w3.org/2000/svg" xmlns:xlink="http://www.w3.org/1999/xlink">
<defs>
<clipPath id="c0_107"><path d="M185.9,830.3V750.1h78.7v80.2Z"/></clipPath>
<style type="text/css"><![CDATA[
.g0_107{
fill: #E7A9A1;
}
.g1_107{
fill: none;
stroke: #000;
stroke-width: 1.527;
stroke-miterlimit: 2;
}
.g2_107{
fill: #FFFAC2;
}
.g3_107{
fill: none;
stroke: #78ABD5;
stroke-width: 0.76;
stroke-miterlimit: 2;
}
.g4_107{
fill: none;
stroke: #B6B8BA;
stroke-width: 0.76;
stroke-miterlimit: 2;
}
.g5_107{
fill: none;
stroke: #464343;
stroke-width: 1.079;
stroke-miterlimit: 2;
}
.g6_107{
fill: #464343;
}
.g7_107{
fill: none;
stroke: #000;
stroke-width: 1.069;
stroke-miterlimit: 2;
}
.g8_107{
fill: none;
stroke: #000;
stroke-width: 1.069;
stroke-miterlimit: 2;
stroke-dasharray: 6,4;
}
.g9_107{
fill: #000;
}
.ga_107{
fill: none;
stroke: #000;
stroke-width: 0.152;
stroke-miterlimit: 2;
}
.gb_107{
fill: none;
stroke: #000;
stroke-width: 0.763;
}
.gc_107{
fill: #0C4B7F;
}
.gd_107{
fill: #FFF1E0;
}
.ge_107{
fill: #FFF;
}
.gf_107{
fill: none;
stroke: #2E3092;
stroke-width: 0.763;
}
.gg_107{
fill: none;
stroke: #0EA5DF;
stroke-width: 3.055;
}
.gh_107{
fill: #E8F1FA;
}
.gi_107{
fill: #E7EFC1;
}
.gj_107{
fill: none;
stroke: #78ABD5;
stroke-width: 0.757;
stroke-miterlimit: 2;
}
.gk_107{
fill: none;
stroke: #B6B8BA;
stroke-width: 0.757;
stroke-miterlimit: 2;
}
.gl_107{
fill: none;
stroke: #464343;
stroke-width: 1.075;
stroke-miterlimit: 2;
}
]]></style>
</defs>
<path d="M835.8,1131h73.6v-51.5H835.8V1131Z" class="g0_107"/>
<path d="M714.7,257.6H656V199h58.7v58.6Zm0,-58.6H656V140.3h58.7V199ZM656,199H597.4V140.3H656V199Zm-58.6,0H538.7V140.3h58.7V199Zm176,0H714.7V140.3h58.7V199ZM714.7,140.3H656V81.6h58.7v58.7Z" class="g1_107"/>
<path d="M326.1,656.1h58.2V486.8H326.1V656.1Z" class="g2_107"/>
<path d="M328.8,598.7h112V543.4h-112v55.3Z" class="g2_107"/>
<path d="M214.4,598.9H326.3V542.5H214.4v56.4Z" class="g2_107"/>
<path d="M298.5,655.9V485.8M270.3,655.9V485.8M242,655.9V485.8M213.8,655.9V485.8M185.5,655.9V485.8" class="g3_107"/>
<path d="M326.8,655.9V485.8" class="g4_107"/>
<path d="M355,655.9V485.8" class="g3_107"/>
<path d="M383.3,655.9V485.8" class="g4_107"/>
<path d="M185.5,485.8H467.9M185.5,514.2H467.9M185.5,542.6H467.9M185.5,571H467.9M185.5,599.4H467.9M185.5,627.8H467.9M185.5,656.2H467.9m.2,-.3V485.8M439.8,655.9V485.8M411.6,655.9V485.8" class="g3_107"/>
<path d="M383.3,599.2h56.9V542.4H383.3v56.8ZM326.8,542.4h56.9V485.6H326.8v56.8Zm0,113.6h56.9V599.2H326.8V656Zm0,-56.8h56.9V542.4H326.8v56.8Zm-56.5,0h56.9V542.4H270.3v56.8Zm-56.8,0h56.9V542.4H213.5v56.8Z" class="g5_107"/>
<path d="M350.9,652.5v-.3l.7,-.7l.7,-.6l.6,-.6l.5,-.5l.5,-.6l.4,-.4l.4,-.5l.3,-.5l.3,-.4l.2,-.4l.3,-.4l.1,-.4l.2,-.4v-.3l.1,-.4v-.9l-.1,-.2v-.2l-.1,-.2l-.2,-.2l-.1,-.2l-.1,-.2l-.2,-.2l-.2,-.1l-.2,-.1l-.1,-.1l-.2,-.1h-.3l-.2,-.1h-.6l-.2,.1h-.2l-.2,.1l-.1,.1l-.2,.1l-.2,.1l-.1,.1l-.2,.2l-.1,.1l-.1,.2l-.2,.2l-.1,.2l-.1,.2v.2h-.3v-.4l.1,-.3l.1,-.3l.1,-.3l.2,-.3l.1,-.3l.2,-.2l.2,-.2l.2,-.2l.3,-.2l.2,-.1l.3,-.2l.2,-.1h.6l.3,-.1l.4,.1h.3l.3,.1l.3,.1l.3,.1l.2,.1l.3,.2l.2,.2l.2,.2l.2,.3l.2,.2l.1,.3l.1,.2l.1,.3v1.2l-.1,.2v.2l-.1,.3l-.1,.2l-.1,.2l-.1,.3l-.2,.4l-.2,.3l-.3,.4l-.2,.3l-.3,.4l-.3,.4l-.3,.3l-.5,.6l-.5,.5l-.4,.4l-.3,.3l-.3,.4l-.3,.2l-.2,.2l-.1,.2h2.9l.4,-.1h.9l.1,-.1h.2l.1,-.1l.2,-.1l.1,-.1l.2,-.1l.1,-.2l.1,-.2h.3l-.8,2.2Z" class="g6_107"/>
<path d="M350.9,616.8v-.3l.7,-.7l.6,-.6l.6,-.6l.5,-.5l.5,-.6l.4,-.5l.4,-.4l.4,-.5l.2,-.4l.3,-.4l.2,-.4l.1,-.4l.2,-.4l.1,-.3v-1.5l-.1,-.2l-.1,-.3l-.1,-.1l-.2,-.2l-.1,-.2l-.2,-.2l-.1,-.1l-.2,-.1l-.2,-.1l-.2,-.1l-.2,-.1h-.9l-.2,.1h-.1l-.2,.1l-.2,.1l-.2,.1l-.1,.1l-.2,.1l-.1,.2l-.2,.1l-.1,.2l-.1,.2l-.1,.2l-.1,.2l-.1,.2h-.3v-.4l.1,-.3l.1,-.3l.2,-.3l.1,-.3l.2,-.3l.1,-.2l.2,-.3l.3,-.1l.2,-.2l.2,-.2l.3,-.1l.3,-.1h.3l.3,-.1h.6l.3,.1h.3l.3,.2l.3,.1l.3,.1l.2,.2l.2,.2l.3,.2l.1,.3l.2,.2l.1,.3l.1,.2l.1,.3v.3l.1,.3l-.1,.2v.6l-.1,.2l-.1,.3l-.1,.2v.2l-.2,.3l-.2,.4l-.2,.3l-.2,.4l-.3,.3l-.3,.4l-.3,.4l-.3,.3l-.5,.6l-.5,.4l-.3,.5l-.4,.3l-.3,.3l-.2,.3l-.2,.2l-.2,.1h4.2l.2,-.1h.1l.2,-.1l.1,-.1l.2,-.1l.1,-.1l.1,-.2l.1,-.2h.3l-.7,2.2Z" class="g6_107"/>
<path d="M352.1,560.4V560l.8,-.6l.6,-.6l.6,-.6l.5,-.6l.5,-.5l.4,-.5l.4,-.5l.3,-.4l.3,-.4l.2,-.4l.3,-.4l.1,-.4l.2,-.4v-.4l.1,-.3v-.9l-.1,-.2v-.3l-.1,-.2l-.1,-.2l-.2,-.2l-.1,-.1l-.2,-.2l-.2,-.1l-.1,-.2l-.2,-.1h-.2l-.3,-.1h-1l-.2,.1l-.2,.1h-.1l-.2,.1l-.2,.1l-.1,.2l-.2,.1l-.1,.2l-.1,.1l-.2,.2l-.1,.2v.2l-.1,.3h-.3v-.4l.1,-.3l.1,-.4l.1,-.3l.2,-.3l.1,-.2l.2,-.3l.2,-.2l.2,-.2l.3,-.1l.2,-.2l.3,-.1l.2,-.1l.3,-.1h1.3l.3,.1l.3,.1l.3,.1l.2,.2l.3,.2l.2,.2l.2,.2l.2,.2l.2,.3l.1,.2l.1,.3l.1,.3v1.2l-.1,.2v.2l-.1,.2l-.1,.2l-.1,.2l-.1,.4l-.2,.3l-.2,.4l-.3,.3l-.2,.4l-.3,.3l-.3,.4l-.3,.4l-.5,.5l-.5,.5l-.4,.4l-.3,.4l-.3,.3l-.3,.3l-.1,.2l-.2,.1h3.9l.3,-.1h.1l.2,-.1h.2l.1,-.1l.2,-.1l.1,-.2l.1,-.1l.1,-.2h.3l-.8,2.2Z" class="g6_107"/>
<path d="M388.3,633.7v-.3l.7,-.6l.7,-.7l.6,-.6l.5,-.5l.5,-.5l.4,-.6l.4,-.4l.3,-.4l.3,-.5l.3,-.4l.2,-.4l.1,-.4l.2,-.4v-.3l.1,-.4v-.9l-.1,-.2V625l-.1,-.2l-.1,-.2l-.2,-.2l-.1,-.2l-.2,-.2l-.2,-.1l-.2,-.1l-.1,-.1l-.2,-.1h-.3l-.2,-.1h-.4l-.2,.1h-.4l-.2,.1l-.1,.1l-.2,.1l-.2,.1l-.1,.1l-.2,.2l-.1,.1l-.1,.2l-.1,.2l-.1,.2l-.2,.2v.2h-.3V625l.1,-.3l.1,-.3l.1,-.3l.2,-.3l.1,-.3l.2,-.2l.2,-.2l.2,-.2l.3,-.2l.2,-.1l.3,-.1l.3,-.1l.2,-.1h1.3l.3,.1l.3,.1l.3,.1l.2,.1l.3,.2l.2,.2l.2,.3l.2,.2l.2,.2l.1,.3l.1,.3l.1,.2v1.2l-.1,.2v.3l-.1,.2l-.1,.2l-.1,.2l-.1,.3l-.2,.4l-.2,.3l-.3,.4l-.2,.3l-.3,.4l-.3,.4l-.3,.4l-.5,.5l-.5,.5l-.4,.4l-.3,.3l-.3,.4l-.3,.2l-.2,.2l-.1,.2h3.3l.4,-.1h.6l.2,-.1l.2,-.1l.1,-.1l.1,-.1l.2,-.1l.1,-.2l.1,-.2h.3l-.8,2.2Z" class="g6_107"/>
<path d="M295,616.8v-.3l.7,-.7l.6,-.6l.6,-.6l.5,-.5l.5,-.6l.4,-.5l.4,-.4l.4,-.5l.2,-.4l.3,-.4l.2,-.4l.1,-.4l.2,-.4l.1,-.3v-1.5l-.1,-.2l-.1,-.3l-.1,-.1l-.2,-.2l-.1,-.2l-.2,-.2l-.2,-.1l-.1,-.1l-.2,-.1l-.2,-.1l-.2,-.1h-.9l-.2,.1h-.2l-.1,.1l-.2,.1l-.2,.1l-.1,.1l-.2,.1l-.1,.2l-.2,.1l-.1,.2l-.1,.2l-.1,.2l-.1,.2l-.1,.2h-.3v-.4l.1,-.3l.1,-.3l.2,-.3l.1,-.3l.2,-.3l.1,-.2l.2,-.3l.3,-.1l.2,-.2l.2,-.2l.3,-.1l.3,-.1h.2l.3,-.1h.7l.3,.1h.3l.3,.2l.3,.1l.3,.1l.2,.2l.2,.2l.2,.2l.2,.3l.2,.2l.1,.3l.1,.2l.1,.3v.3l.1,.3l-.1,.2v.4l-.1,.2v.2l-.1,.3l-.1,.2l-.1,.2l-.1,.3l-.2,.4l-.2,.3l-.2,.4l-.3,.3l-.3,.4l-.3,.4l-.3,.3l-.5,.6l-.5,.4l-.3,.5l-.4,.3l-.3,.3l-.2,.3l-.2,.2l-.2,.1h4.2l.2,-.1h.1l.2,-.1l.1,-.1l.2,-.1l.1,-.1l.1,-.2l.1,-.2h.3l-.8,2.2Z" class="g6_107"/>
<path d="M237.5,616.8v-.3l.7,-.7l.6,-.6l.6,-.6l.5,-.5l.5,-.6l.5,-.5l.3,-.4l.4,-.5l.2,-.4l.3,-.4l.2,-.4l.1,-.4l.2,-.4l.1,-.3v-1.5l-.1,-.2l-.1,-.3l-.1,-.1l-.2,-.2l-.1,-.2l-.2,-.2l-.2,-.1l-.1,-.1l-.2,-.1l-.2,-.1l-.2,-.1h-.9l-.2,.1h-.2l-.1,.1l-.2,.1l-.2,.1l-.1,.1l-.2,.1l-.1,.2l-.2,.1l-.1,.2l-.1,.2l-.1,.2l-.1,.2l-.1,.2h-.3l.1,-.4v-.3l.1,-.3l.2,-.3l.1,-.3l.2,-.3l.1,-.2l.2,-.3l.3,-.1l.2,-.2l.2,-.2l.3,-.1l.3,-.1h.3l.3,-.1h.6l.3,.1h.3l.3,.2l.3,.1l.3,.1l.2,.2l.2,.2l.2,.2l.2,.3l.2,.2l.1,.3l.1,.2l.1,.3v.3l.1,.3l-.1,.2v.6l-.1,.2l-.1,.3v.2l-.2,.2l-.1,.3l-.2,.4l-.2,.3l-.2,.4l-.3,.3l-.3,.4l-.3,.4l-.3,.3l-.5,.6l-.5,.4l-.3,.5l-.4,.3l-.3,.3l-.2,.3l-.2,.2l-.2,.1h4.2l.2,-.1h.1l.2,-.1l.1,-.1l.2,-.1l.1,-.1l.1,-.2l.1,-.2h.3l-.7,2.2Z" class="g6_107"/>
<path d="M408.2,538.2v-.3l.7,-.7l.6,-.6l.6,-.6l.5,-.5l.5,-.6l.5,-.5l.3,-.4l.4,-.5l.2,-.4l.3,-.4l.2,-.4l.2,-.4l.1,-.4l.1,-.4v-.3l.1,-.4l-.1,-.2v-.5l-.1,-.2l-.1,-.3l-.1,-.2l-.1,-.2l-.2,-.1l-.2,-.2l-.1,-.1l-.2,-.1l-.2,-.1l-.2,-.1l-.2,-.1h-1.1l-.1,.1l-.2,.1l-.2,.1h-.2l-.1,.2l-.2,.1l-.1,.1l-.2,.2l-.1,.2l-.1,.2l-.1,.2l-.1,.2l-.1,.2h-.3l.1,-.4v-.3l.2,-.4l.1,-.3l.1,-.3l.2,-.2l.2,-.3l.2,-.2l.2,-.2l.2,-.1l.3,-.2l.2,-.1l.3,-.1h.3l.3,-.1h.6l.3,.1h.4l.2,.1l.3,.2l.3,.1l.2,.2l.3,.2l.2,.2l.2,.2l.1,.3l.1,.2l.1,.3l.1,.3v.3l.1,.3v.2l-.1,.2v.4l-.1,.2v.2l-.1,.3l-.1,.2l-.2,.3l-.2,.3l-.2,.4l-.2,.3l-.3,.4l-.3,.4l-.3,.3l-.3,.4l-.5,.5l-.4,.5l-.4,.4l-.4,.4l-.3,.3l-.2,.3l-.2,.2l-.2,.1h4.2l.2,-.1h.1l.2,-.1l.1,-.1l.2,-.1l.1,-.2l.1,-.1l.2,-.2h.3l-.8,2.2Z" class="g6_107"/>
<path d="M295.1,538.2v-.3l.7,-.7l.6,-.6l.6,-.6l.5,-.5l.5,-.6l.5,-.5l.3,-.4l.4,-.5l.2,-.4l.3,-.4l.2,-.4l.1,-.4l.2,-.4l.1,-.4v-1.4l-.1,-.2l-.1,-.3L300,529l-.2,-.2l-.1,-.1l-.2,-.2l-.1,-.1l-.2,-.1l-.2,-.1l-.2,-.1l-.2,-.1h-1.1l-.1,.1l-.2,.1l-.2,.1h-.2l-.1,.2l-.2,.1l-.2,.1l-.1,.2l-.1,.2l-.1,.2l-.1,.2l-.1,.2l-.1,.2h-.3v-.4l.1,-.3l.1,-.4l.2,-.3l.1,-.3l.2,-.2l.1,-.3l.2,-.2l.3,-.2l.2,-.1l.2,-.2l.3,-.1l.3,-.1h.3l.3,-.1h.6l.3,.1h.3l.3,.1l.3,.2l.3,.1l.2,.2l.2,.2l.3,.2l.1,.2l.2,.3l.1,.2l.1,.3l.1,.3v1.4l-.1,.2l-.1,.2l-.1,.3v.2l-.2,.3l-.2,.3l-.2,.4l-.2,.3l-.3,.4l-.3,.4l-.3,.3l-.3,.4l-.5,.5l-.4,.5l-.4,.4l-.4,.4l-.3,.3l-.2,.3l-.2,.2l-.2,.1H301l.2,-.1h.1l.2,-.1l.1,-.1l.2,-.1l.1,-.2l.1,-.1l.1,-.2h.3l-.7,2.2Z" class="g6_107"/>
<path d="M351.9,501.1v-.3l.7,-.6l.6,-.6l.6,-.6l.6,-.6l.4,-.5l.5,-.5l.3,-.5l.4,-.4l.3,-.4l.2,-.4l.2,-.4l.2,-.4l.1,-.4l.1,-.4v-.4l.1,-.3v-.3l-.1,-.2v-.3l-.1,-.2l-.1,-.2l-.1,-.2l-.1,-.2l-.2,-.2l-.2,-.1l-.1,-.2l-.2,-.1l-.2,-.1l-.2,-.1h-1.2l-.2,.1l-.2,.1h-.2l-.2,.1l-.1,.1l-.2,.2l-.1,.1l-.2,.2l-.1,.1l-.1,.2l-.1,.2l-.1,.2l-.1,.3h-.3l.1,-.4v-.4l.1,-.3l.2,-.3l.1,-.3l.2,-.2l.2,-.3l.2,-.2l.2,-.2l.2,-.1l.3,-.2l.2,-.1l.3,-.1l.3,-.1H356l.3,.1l.3,.1l.3,.1l.3,.2l.2,.2l.3,.2l.2,.2l.2,.2l.1,.3l.1,.2l.1,.3l.1,.3l.1,.2v.8l-.1,.2v.2l-.1,.2l-.1,.2v.2l-.1,.2l-.2,.4l-.2,.3l-.2,.4l-.2,.3l-.3,.4l-.3,.3l-.3,.4l-.3,.4l-.5,.5l-.4,.5l-.4,.4l-.4,.4l-.3,.3l-.2,.3l-.2,.1l-.2,.2h4l.2,-.1h.2l.1,-.1h.2l.1,-.1l.2,-.2l.1,-.1l.1,-.1l.1,-.2h.4l-.8,2.1Z" class="g6_107"/>
<path d="M237.9,538.2v-.3l.7,-.7l.7,-.6l.6,-.6l.5,-.5l.5,-.6l.4,-.5l.4,-.4l.3,-.5l.3,-.4l.2,-.4l.2,-.4l.2,-.4l.1,-.4l.1,-.4l.1,-.3v-.6l-.1,-.3v-.2l-.1,-.2l-.1,-.3l-.1,-.2l-.1,-.2l-.2,-.1l-.1,-.2l-.2,-.1l-.2,-.1l-.2,-.1l-.2,-.1l-.2,-.1h-1l-.2,.1l-.2,.1l-.1,.1h-.2l-.2,.2l-.1,.1l-.2,.1l-.1,.2l-.2,.2l-.1,.2l-.1,.2l-.1,.2l-.1,.2h-.3l.1,-.4l.1,-.3l.1,-.4l.1,-.3l.1,-.3l.2,-.2l.2,-.3l.2,-.2l.2,-.2l.2,-.1l.3,-.2l.3,-.1l.2,-.1h.3l.3,-.1h.6l.4,.1h.3l.3,.1l.3,.2l.2,.1l.3,.2l.2,.2l.2,.2l.2,.2l.1,.3l.2,.2l.1,.3v.3l.1,.3v.7l-.1,.2v.4l-.1,.2l-.1,.3l-.1,.2l-.2,.3l-.1,.3l-.3,.4l-.2,.3l-.3,.4l-.2,.4l-.3,.3l-.4,.4l-.5,.5l-.4,.5l-.4,.4l-.3,.4l-.3,.3l-.3,.3l-.2,.2l-.1,.1h4.1l.2,-.1h.2l.1,-.1l.2,-.1l.1,-.1l.2,-.2l.1,-.1l.1,-.2h.3l-.8,2.2Z" class="g6_107"/>
<path d="M449.9,576.4v-.3l.7,-.6l.6,-.6l.6,-.7l.6,-.5l.4,-.5l.5,-.5l.3,-.5l.4,-.4l.2,-.5l.3,-.4l.2,-.4l.1,-.4l.2,-.3l.1,-.4V569l.1,-.3l-.1,-.3v-.5l-.1,-.2l-.1,-.2l-.1,-.2l-.1,-.2l-.2,-.2l-.2,-.1l-.1,-.2l-.2,-.1l-.2,-.1l-.2,-.1h-.2l-.2,-.1h-.5l-.2,.1h-.3l-.2,.1l-.2,.1l-.2,.1l-.1,.1l-.2,.1l-.1,.2l-.2,.1l-.1,.2l-.1,.2l-.1,.2l-.1,.2l-.1,.2h-.3v-.3l.1,-.4l.1,-.3l.2,-.3l.1,-.3l.2,-.3l.1,-.2l.3,-.2l.2,-.2l.2,-.2l.2,-.1l.3,-.1l.3,-.1l.3,-.1H454l.3,.1l.3,.1l.3,.1l.3,.2l.2,.1l.2,.2l.3,.3l.2,.2l.1,.2l.1,.3l.1,.3l.1,.2v1.5l-.1,.2l-.1,.2l-.1,.2v.2l-.2,.4l-.2,.3l-.2,.4l-.2,.3l-.3,.3l-.3,.4l-.3,.4l-.3,.4l-.5,.5l-.4,.5l-.4,.4l-.4,.4l-.3,.3l-.2,.2l-.2,.2l-.2,.2h3.7l.3,-.1h.4l.1,-.1l.2,-.1l.1,-.1l.2,-.1l.1,-.1l.1,-.2l.1,-.1h.3l-.7,2.1Z" class="g6_107"/>
<path d="M390.1,520.7v-.3l.7,-.6l.6,-.7l.6,-.5l.6,-.6l.4,-.5l.5,-.5l.4,-.5l.3,-.4l.3,-.5l.2,-.4l.2,-.4l.2,-.4l.1,-.3l.1,-.4v-.4l.1,-.3l-.1,-.3v-.5l-.1,-.2l-.1,-.2l-.1,-.2l-.1,-.2l-.2,-.2l-.1,-.1l-.2,-.2l-.2,-.1l-.2,-.1l-.2,-.1h-.2l-.2,-.1H393l-.2,.1h-.4l-.2,.1l-.2,.1l-.2,.1l-.1,.1l-.2,.1l-.1,.2l-.2,.1l-.1,.2l-.1,.2l-.1,.2l-.1,.2l-.1,.2h-.3l.1,-.3l.1,-.4l.1,-.3l.1,-.3l.1,-.3l.2,-.3l.2,-.2l.2,-.2l.2,-.2l.2,-.2l.3,-.1l.2,-.1l.3,-.1l.3,-.1h1.3l.3,.1l.2,.1l.3,.1l.3,.2l.2,.1l.3,.2l.2,.3l.2,.2l.1,.2l.2,.3v.3l.1,.2l.1,.3v.5l-.1,.2v.5l-.1,.2v.2l-.1,.2l-.1,.2l-.2,.3l-.2,.4l-.2,.3l-.2,.4l-.3,.4l-.3,.3l-.3,.4l-.3,.4l-.5,.5l-.4,.5l-.4,.4l-.4,.4l-.3,.3l-.2,.2l-.2,.2l-.2,.2h3.7l.3,-.1h.4l.1,-.1l.2,-.1l.2,-.1l.1,-.1l.1,-.1l.2,-.2l.1,-.1h.3l-.8,2.1Z" class="g6_107"/>
<path d="M196.3,576.4v-.3l.7,-.6l.6,-.6l.6,-.7l.6,-.5l.4,-.5l.5,-.5l.4,-.5l.3,-.4l.3,-.5l.2,-.4l.2,-.4l.2,-.4l.1,-.3l.1,-.4l.1,-.4v-.6l-.1,-.2v-.3l-.1,-.2l-.1,-.2l-.1,-.2l-.1,-.2l-.2,-.2l-.1,-.1l-.2,-.2l-.2,-.1l-.2,-.1l-.2,-.1h-.2l-.2,-.1h-.4l-.2,.1h-.4l-.2,.1l-.2,.1l-.1,.1l-.2,.1l-.2,.1l-.1,.2l-.2,.1l-.1,.2l-.1,.2l-.1,.2l-.1,.2l-.1,.2h-.3l.1,-.3l.1,-.4l.1,-.3l.1,-.3l.1,-.3l.2,-.3l.2,-.2l.2,-.2l.2,-.2l.2,-.2l.3,-.1l.2,-.1l.3,-.1l.3,-.1h1.3l.3,.1l.3,.1l.2,.1l.3,.2l.2,.1l.3,.2l.2,.3l.2,.2l.1,.2l.2,.3l.1,.3v.2l.1,.3v.7l-.1,.3v.2l-.1,.2v.2l-.1,.2l-.1,.2l-.2,.4l-.2,.3l-.2,.4l-.2,.3l-.3,.3l-.3,.4l-.3,.4l-.3,.4l-.5,.5l-.4,.5l-.4,.4l-.4,.4l-.3,.3l-.2,.2l-.2,.2l-.2,.2h3.7l.3,-.1h.4l.2,-.1l.1,-.1l.2,-.1l.1,-.1l.1,-.1l.2,-.2l.1,-.1h.3l-.8,2.1Z" class="g6_107"/>
<path d="M407.9,616.8v-.3l.7,-.7l.6,-.6l.6,-.6l.6,-.5l.4,-.6l.5,-.5l.4,-.4l.3,-.5l.3,-.4l.2,-.4l.2,-.4l.2,-.4l.1,-.4l.1,-.3v-.4l.1,-.4v-.2l-.1,-.3v-.2l-.1,-.2l-.1,-.3l-.1,-.1l-.1,-.2l-.2,-.2l-.2,-.2l-.1,-.1l-.2,-.1l-.2,-.1l-.2,-.1l-.2,-.1h-.8l-.2,.1h-.2l-.2,.1l-.2,.1l-.2,.1l-.1,.1l-.2,.1l-.1,.2l-.2,.1l-.1,.2l-.1,.2l-.1,.2l-.1,.2l-.1,.2h-.3l.1,-.4v-.3l.2,-.3l.1,-.3l.1,-.3l.2,-.3l.2,-.2l.2,-.3l.2,-.1l.2,-.2l.3,-.2l.2,-.1l.3,-.1h.3l.3,-.1h.6l.3,.1h.3l.4,.2l.2,.1l.3,.1l.2,.2l.3,.2l.2,.2l.2,.3l.1,.2l.2,.3l.1,.2v.3l.1,.3v.5l-.1,.2v.4l-.1,.2v.3l-.1,.2l-.1,.2l-.2,.3l-.2,.4l-.2,.3l-.2,.4l-.3,.3l-.3,.4l-.3,.4l-.3,.3l-.5,.6l-.4,.4l-.4,.5l-.4,.3l-.3,.3l-.2,.3l-.2,.2l-.2,.1h4.2l.2,-.1h.2l.1,-.1l.2,-.1l.1,-.1l.1,-.1l.1,-.2l.2,-.2h.3l-.8,2.2Z" class="g6_107"/>
<path d="M186.4,816.8V767.6h48.7m0,0v49.2H186.4" class="g7_107"/>
<path d="M253,799.8H204.3V750.7" class="g8_107"/>
<path d="M235.2,767.9L253,750.8m-66.5,16.6l17.8,-16.5m0,-.2H253v49.1" class="g7_107"/>
<path d="M186.5,816.7l17.6,-16.6" class="g8_107"/>
<path d="M235.1,817l17.6,-16.9" class="g7_107"/>
<g clip-path="url(#c0_107)">
<path fill-rule="evenodd" d="M212.6,825.2c.1,-.4,.2,-.8,.2,-1.2c0,-.4,-.1,-.7,-.3,-.9c-.2,-.2,-.4,-.3,-.7,-.3c-.8,0,-1.6,.6,-2.4,2c-.7,1.3,-1.1,2.4,-1.1,3.3c0,.4,.1,.7,.3,.9c.1,.3,.4,.4,.7,.4c.5,0,1.1,-.4,1.8,-1.1c.6,-.8,1,-1.5,1.3,-2.3Zm2,-2.6l-1.7,5.9c-.1,.3,-.1,.6,-.1,.7c0,.2,0,.3,.2,.3c.3,0,.8,-.4,1.2,-1.1l.2,.1c-.2,.5,-.6,1,-1.1,1.3c-.4,.4,-.9,.5,-1.2,.5c-.4,0,-.6,-.2,-.6,-.7c0,-.4,.1,-.9,.3,-1.8c-.6,.9,-1.2,1.5,-1.8,1.9c-.6,.4,-1.1,.6,-1.6,.6c-.4,0,-.8,-.2,-1.1,-.5c-.2,-.4,-.4,-.9,-.4,-1.4c0,-1.3,.6,-2.6,1.6,-3.9c1.1,-1.4,2.2,-2.1,3.3,-2.1c.3,0,.6,.2,.8,.4c.3,.2,.4,.5,.4,.8l.3,-1Z" class="g9_107"/>
<path d="M212.6,825.2c.1,-.4,.2,-.8,.2,-1.2c0,-.4,-.1,-.7,-.3,-.9c-.2,-.2,-.4,-.3,-.7,-.3c-.8,0,-1.6,.6,-2.4,2c-.7,1.3,-1.1,2.4,-1.1,3.3c0,.4,.1,.7,.3,.9c.1,.3,.4,.4,.7,.4c.5,0,1.1,-.4,1.8,-1.1c.6,-.8,1,-1.5,1.3,-2.3l.2,-.8Zm2,-2.6l-1.7,5.9c-.1,.3,-.1,.6,-.1,.7c0,.2,0,.3,.2,.3c.3,0,.8,-.4,1.2,-1.1l.2,.1c-.2,.5,-.6,1,-1.1,1.3c-.4,.4,-.9,.5,-1.2,.5c-.4,0,-.6,-.2,-.6,-.7c0,-.4,.1,-.9,.3,-1.8c-.6,.9,-1.2,1.5,-1.8,1.9c-.6,.4,-1.1,.6,-1.6,.6c-.4,0,-.8,-.2,-1.1,-.5c-.2,-.4,-.4,-.9,-.4,-1.4c0,-1.3,.6,-2.6,1.6,-3.9c1.1,-1.4,2.2,-2.1,3.3,-2.1c.3,0,.6,.2,.8,.4c.3,.2,.4,.5,.4,.8l.3,-1h1.3Z" class="ga_107"/>
</g>
<path fill-rule="evenodd" d="M251,811.9c.1,-.4,.2,-.8,.2,-1.2c0,-.4,-.1,-.7,-.3,-.9c-.2,-.2,-.4,-.4,-.7,-.4c-.8,0,-1.6,.7,-2.4,2c-.7,1.4,-1.1,2.5,-1.1,3.4c0,.4,.1,.7,.3,.9c.1,.2,.4,.3,.7,.3c.5,0,1.1,-.3,1.8,-1.1c.6,-.7,1,-1.5,1.2,-2.2Zm2,-2.6l-1.7,5.9c-.1,.3,-.2,.5,-.2,.7c0,.2,.1,.3,.3,.3c.3,0,.7,-.4,1.2,-1.2l.2,.2c-.2,.5,-.6,.9,-1.1,1.3c-.4,.3,-.9,.5,-1.3,.5c-.3,0,-.5,-.3,-.5,-.8c0,-.3,.1,-.9,.3,-1.7c-.6,.8,-1.2,1.4,-1.8,1.9c-.6,.4,-1.1,.6,-1.6,.6c-.5,0,-.8,-.2,-1.1,-.6c-.2,-.3,-.4,-.8,-.4,-1.3c0,-1.3,.6,-2.6,1.6,-4c1.1,-1.3,2.2,-2,3.2,-2c.4,0,.7,.1,.9,.4c.3,.2,.4,.5,.4,.8l.3,-1Z" class="g9_107"/>
<path d="M251,811.9c.1,-.4,.2,-.8,.2,-1.2c0,-.4,-.1,-.7,-.3,-.9c-.2,-.2,-.4,-.4,-.7,-.4c-.8,0,-1.6,.7,-2.4,2c-.7,1.4,-1.1,2.5,-1.1,3.4c0,.4,.1,.7,.3,.9c.1,.2,.4,.3,.7,.3c.5,0,1.1,-.3,1.8,-1.1c.6,-.7,1,-1.5,1.2,-2.2l.3,-.8Zm2,-2.6l-1.7,5.9c-.1,.3,-.2,.5,-.2,.7c0,.2,.1,.3,.3,.3c.3,0,.7,-.4,1.2,-1.2l.2,.2c-.2,.5,-.6,.9,-1.1,1.3c-.4,.3,-.9,.5,-1.3,.5c-.3,0,-.5,-.3,-.5,-.8c0,-.3,.1,-.9,.3,-1.7c-.6,.8,-1.2,1.4,-1.8,1.9c-.6,.4,-1.1,.6,-1.6,.6c-.5,0,-.8,-.2,-1.1,-.6c-.2,-.3,-.4,-.8,-.4,-1.3c0,-1.3,.6,-2.6,1.6,-4c1.1,-1.3,2.2,-2,3.2,-2c.4,0,.7,.1,.9,.4c.3,.2,.4,.5,.4,.8l.3,-1H253Z" class="ga_107"/>
<path fill-rule="evenodd" d="M262.6,776.5c.1,-.4,.2,-.8,.2,-1.2c0,-.4,-.1,-.7,-.3,-.9c-.2,-.2,-.4,-.3,-.7,-.3c-.8,0,-1.6,.6,-2.4,2c-.7,1.3,-1.1,2.4,-1.1,3.3c0,.4,.1,.7,.3,.9c.1,.2,.4,.3,.7,.3c.5,0,1.1,-.3,1.8,-1.1c.6,-.7,1,-1.4,1.2,-2.2Zm2,-2.6l-1.7,5.9c-.1,.3,-.2,.6,-.2,.7c0,.2,.1,.3,.3,.3c.3,0,.7,-.4,1.2,-1.2l.2,.2c-.2,.5,-.6,.9,-1.1,1.3c-.4,.3,-.9,.5,-1.3,.5c-.3,0,-.5,-.2,-.5,-.7c0,-.4,.1,-1,.3,-1.8c-.6,.8,-1.2,1.5,-1.8,1.9c-.6,.4,-1.1,.6,-1.6,.6c-.5,0,-.8,-.2,-1.1,-.5c-.2,-.4,-.4,-.9,-.4,-1.4c0,-1.3,.6,-2.6,1.6,-4c1.1,-1.3,2.2,-2,3.2,-2c.4,0,.7,.1,.9,.4c.3,.2,.4,.5,.4,.8l.3,-1Z" class="g9_107"/>
<path d="M262.6,776.5c.1,-.4,.2,-.8,.2,-1.2c0,-.4,-.1,-.7,-.3,-.9c-.2,-.2,-.4,-.3,-.7,-.3c-.8,0,-1.6,.6,-2.4,2c-.7,1.3,-1.1,2.4,-1.1,3.3c0,.4,.1,.7,.3,.9c.1,.2,.4,.3,.7,.3c.5,0,1.1,-.3,1.8,-1.1c.6,-.7,1,-1.4,1.2,-2.2l.3,-.8Zm2,-2.6l-1.7,5.9c-.1,.3,-.2,.6,-.2,.7c0,.2,.1,.3,.3,.3c.3,0,.7,-.4,1.2,-1.2l.2,.2c-.2,.5,-.6,.9,-1.1,1.3c-.4,.3,-.9,.5,-1.3,.5c-.3,0,-.5,-.2,-.5,-.7c0,-.4,.1,-1,.3,-1.8c-.6,.8,-1.2,1.5,-1.8,1.9c-.6,.4,-1.1,.6,-1.6,.6c-.5,0,-.8,-.2,-1.1,-.5c-.2,-.4,-.4,-.9,-.4,-1.4c0,-1.3,.6,-2.6,1.6,-4c1.1,-1.3,2.2,-2,3.2,-2c.4,0,.7,.1,.9,.4c.3,.2,.4,.5,.4,.8l.3,-1h1.3Z" class="ga_107"/>
<path d="M74.5,1043.6H291" class="gb_107"/>
<path d="M135.8,319.3h39.7V281.8H135.8v37.5Z" class="gc_107"/>
<path d="M184.8,377.9h651V281.6h-651v96.3Z" class="gd_107"/>
<path d="M538.5,292.2l-19.1,17.2l.9,51.7h49.3l17.7,-17.7V292.2Z" class="ge_107"/>
<path d="M569.5,309.9v50.3H519.6" class="g1_107"/>
<path d="M519.6,360.2V309.9h49.9" class="g7_107"/>
<path d="M587.8,342.8H537.9V292.5" class="g8_107"/>
<path d="M537.9,292.5h49.9v50.3M519.7,309.6l18.2,-16.9m31.6,17.5l18.3,-17.6" class="g7_107"/>
<path d="M519.6,360l18.1,-16.9" class="g8_107"/>
<path d="M569.4,360.4L587.5,343" class="g1_107"/>
<path fill-rule="evenodd" d="M547,363.6l-1.6,5.6l-.2,.8c0,0,0,.1,0,.1c0,.1,0,.2,0,.3q.1,0,.2,0c.1,0,.2,0,.3,-.1c.2,-.2,.5,-.5,.8,-1l.3,.2c-.4,.6,-.7,1,-1.1,1.3c-.4,.3,-.8,.5,-1.2,.5c-.2,0,-.4,-.1,-.5,-.2c-.1,-.1,-.2,-.3,-.2,-.5c0,-.3,.1,-.6,.2,-1.1l.2,-.6c-.7,.9,-1.4,1.6,-2,2c-.4,.2,-.8,.4,-1.3,.4c-.4,0,-.7,-.2,-1,-.5c-.3,-.4,-.4,-.8,-.4,-1.4c0,-.9,.2,-1.8,.8,-2.8c.5,-.9,1.1,-1.7,1.9,-2.3c.7,-.4,1.3,-.7,1.8,-.7c.4,0,.6,.1,.9,.3c.2,.2,.4,.5,.5,.9l.3,-1Zm-3,.5c-.3,0,-.7,.1,-1.1,.5c-.5,.4,-1,1.1,-1.5,2c-.4,.9,-.6,1.8,-.6,2.5c0,.4,.1,.7,.3,.9c.2,.2,.4,.3,.6,.3c.6,0,1.3,-.4,2,-1.3c.9,-1.2,1.4,-2.4,1.4,-3.6c0,-.5,-.1,-.8,-.3,-1c-.2,-.2,-.4,-.3,-.8,-.3Z" class="g9_107"/>
<path fill-rule="evenodd" d="M588.1,352.6l-1.6,5.6l-.2,.7q0,.1,0,.2c0,.1,0,.2,.1,.2c0,.1,.1,.1,.1,.1c.1,0,.2,-.1,.3,-.1c.2,-.2,.5,-.5,.9,-1l.2,.2c-.3,.5,-.7,1,-1.1,1.3c-.4,.3,-.8,.4,-1.1,.4c-.3,0,-.4,0,-.6,-.2c-.1,-.1,-.1,-.2,-.1,-.5c0,-.2,0,-.6,.1,-1l.2,-.6c-.7,.9,-1.4,1.5,-2,1.9c-.4,.3,-.8,.4,-1.2,.4c-.4,0,-.8,-.1,-1.1,-.5c-.3,-.3,-.4,-.8,-.4,-1.3c0,-.9,.3,-1.8,.8,-2.8c.5,-1,1.2,-1.7,2,-2.3c.6,-.5,1.2,-.7,1.8,-.7c.3,0,.6,.1,.8,.3c.2,.1,.4,.4,.5,.8l.3,-.9Zm-2.9,.4c-.4,0,-.8,.2,-1.1,.5c-.6,.5,-1.1,1.2,-1.5,2.1c-.5,.9,-.7,1.7,-.7,2.5c0,.3,.1,.6,.3,.8c.2,.3,.4,.4,.6,.4c.6,0,1.3,-.5,2,-1.4c.9,-1.1,1.4,-2.3,1.4,-3.6c0,-.4,-.1,-.8,-.3,-1c-.2,-.2,-.4,-.3,-.7,-.3Z" class="g9_107"/>
<path fill-rule="evenodd" d="M579.7,322.5l-1.6,5.5l-.2,.8c0,0,-.1,.1,-.1,.1c0,.1,.1,.2,.1,.3q.1,0,.2,0c.1,0,.2,0,.3,-.1c.2,-.1,.5,-.5,.8,-1l.3,.2c-.4,.6,-.8,1,-1.2,1.3c-.4,.3,-.7,.5,-1.1,.5c-.2,0,-.4,-.1,-.5,-.2c-.1,-.1,-.2,-.3,-.2,-.5c0,-.3,.1,-.6,.2,-1.1l.2,-.6c-.7,1,-1.4,1.6,-2,2c-.4,.2,-.9,.4,-1.3,.4c-.4,0,-.7,-.2,-1,-.5c-.3,-.3,-.4,-.8,-.4,-1.4c0,-.9,.2,-1.8,.7,-2.7c.6,-1,1.2,-1.8,2,-2.4c.7,-.4,1.3,-.6,1.8,-.6c.4,0,.6,0,.8,.2c.3,.2,.4,.5,.6,.9l.3,-.9Zm-3,.4c-.3,0,-.7,.1,-1.1,.5c-.5,.4,-1,1.1,-1.5,2c-.4,1,-.6,1.8,-.6,2.5c0,.4,.1,.7,.3,.9c.1,.2,.4,.3,.6,.3c.6,0,1.2,-.4,1.9,-1.3c1,-1.2,1.4,-2.4,1.4,-3.6c0,-.5,0,-.8,-.2,-1c-.2,-.2,-.5,-.3,-.8,-.3Z" class="g9_107"/>
<path d="M74.5,384.7H836.7" class="gf_107"/>
<path d="M74.5,386.3H836.7" class="gg_107"/>
<path d="M74.5,665.8H836.7" class="gf_107"/>
<path d="M74.5,667.3H836.7" class="gg_107"/>
<path d="M185.6,1032.1H836.7V834.2H185.6v197.9Z" class="gh_107"/>
<path d="M74.5,835H837.8" class="gg_107"/>
<path d="M547.8,598H773.4V542.5H547.8V598Z" class="gi_107"/>
<path d="M661.7,654.3h55V598h-55v56.3Z" class="gi_107"/>
<path d="M716.7,541.3h56.7V485H716.7v56.3Z" class="gi_107"/>
<path d="M632.6,654.2V485.8M604.4,654.2V485.8M576.3,654.2V485.8M548.2,654.2V485.8M520,654.2V485.8" class="gj_107"/>
<path d="M660.7,654.2V485.8" class="gk_107"/>
<path d="M688.9,654.2V485.8" class="gj_107"/>
<path d="M717,654.2V485.8" class="gk_107"/>
<path d="M520,485.8H801.3M520,513.9H801.3M520,542.1H801.3M520,570.2H801.3M520,598.3H801.3M520,626.5H801.3M520,654.6H801.3m.1,-.4V485.8M773.3,654.2V485.8M745.2,654.2V485.8" class="gj_107"/>
<path d="M547.9,598.1h56.7V541.9H547.9v56.2Zm56.5,0h56.8V541.9H604.4v56.2Zm56.3,0h56.7V541.9H660.7v56.2Zm0,56.3h56.7V598.1H660.7v56.3ZM717.1,541.9h56.7V485.6H717.1v56.3Zm-.1,56.2h56.7V541.9H717v56.2Z" class="gl_107"/>
<path fill-rule="evenodd" d="M692.1,648.8l-.8,2.1h-6.5v-.3l.7,-.6l.6,-.7l.6,-.5l.6,-.6l.4,-.5l.5,-.5l.3,-.5l.4,-.4l.2,-.4l.3,-.4l.2,-.4l.1,-.4l.2,-.4l.1,-.4v-1.4l-.1,-.2l-.1,-.2l-.1,-.2l-.2,-.2l-.1,-.2l-.2,-.2l-.1,-.1l-.2,-.1l-.2,-.1l-.2,-.1h-.2l-.2,-.1h-.7l-.1,.1h-.2l-.2,.1l-.2,.1l-.2,.1l-.1,.1l-.2,.1l-.1,.2l-.2,.1l-.1,.2l-.1,.2l-.1,.2l-.1,.2l-.1,.2h-.3l.1,-.4V642l.1,-.3l.2,-.3l.1,-.3l.2,-.3l.1,-.2l.3,-.2l.2,-.2l.2,-.2l.2,-.1l.3,-.2h.3l.3,-.1h1.2l.3,.1l.3,.1l.3,.1l.3,.2l.2,.1l.2,.2l.2,.3l.2,.2l.2,.2l.1,.3l.1,.2l.1,.3v.3l.1,.3l-.1,.2v.4l-.1,.2v.2l-.1,.2l-.1,.2l-.1,.3l-.1,.3l-.2,.3l-.2,.4l-.2,.3l-.3,.4l-.3,.3l-.3,.4l-.3,.4l-.5,.5l-.4,.5l-.4,.4l-.4,.4l-.3,.3l-.2,.2l-.2,.2l-.2,.2h3.7l.3,-.1h.4l.1,-.1l.2,-.1l.1,-.1l.2,-.1l.1,-.1l.1,-.2l.1,-.1Z" class="g6_107"/>
<path fill-rule="evenodd" d="M692.1,613.4l-.8,2.1h-6.6v-.3l.7,-.6l.7,-.6l.5,-.6l.6,-.6l.5,-.5l.4,-.5l.4,-.4l.3,-.5l.3,-.4l.2,-.4l.2,-.4l.2,-.4l.1,-.4l.1,-.3l.1,-.4v-.6l-.1,-.2v-.3l-.1,-.2l-.1,-.2l-.1,-.2l-.1,-.2l-.2,-.2l-.1,-.1l-.2,-.2l-.2,-.1l-.2,-.1l-.2,-.1h-.2l-.2,-.1h-.4l-.2,.1h-.2l-.2,.1h-.2l-.2,.1l-.1,.1l-.2,.1l-.2,.1l-.1,.2l-.1,.1l-.2,.2l-.1,.2l-.1,.2l-.1,.2l-.1,.2H685l.1,-.3l.1,-.4l.1,-.3l.1,-.3l.1,-.3l.2,-.3l.2,-.2l.2,-.2l.2,-.2l.2,-.2l.3,-.1l.2,-.1l.3,-.1l.3,-.1h.9l.4,.1h.3l.2,.1l.3,.1l.3,.2l.2,.1l.3,.3l.2,.2l.2,.2l.1,.2l.2,.3v.3l.1,.2l.1,.3v.5l-.1,.2v.5l-.1,.2v.2l-.1,.2l-.1,.2l-.2,.3l-.2,.4l-.2,.3l-.2,.4l-.3,.3l-.3,.4l-.3,.4l-.3,.3l-.5,.6l-.4,.4l-.4,.4l-.3,.4l-.3,.3l-.3,.3l-.2,.2l-.1,.1h3.9l.2,-.1h.2l.1,-.1h.2l.2,-.1l.1,-.1l.1,-.2l.1,-.1l.2,-.2Z" class="g6_107"/>
<path fill-rule="evenodd" d="M692.1,535.5l-.8,2.2h-6.6v-.3l.7,-.7l.7,-.6l.6,-.6l.5,-.5l.5,-.6l.4,-.5l.4,-.4l.3,-.4l.3,-.5l.2,-.4l.2,-.4l.2,-.4l.1,-.3l.1,-.4l.1,-.4v-.6l-.1,-.2v-.3l-.1,-.2l-.1,-.2l-.1,-.2l-.1,-.2l-.2,-.1l-.1,-.2L689,528l-.2,-.2l-.2,-.1h-.2l-.2,-.1h-1l-.2,.1l-.2,.1h-.2l-.1,.1l-.2,.1l-.2,.2l-.1,.1l-.1,.2l-.2,.1l-.1,.2l-.1,.2l-.1,.2l-.1,.3H685l.1,-.4l.1,-.4l.1,-.3l.1,-.3l.1,-.3l.2,-.2l.2,-.3l.2,-.2l.2,-.2l.2,-.1l.3,-.2l.2,-.1l.3,-.1h.3l.3,-.1h.6l.4,.1h.3l.3,.1l.2,.1l.3,.2l.2,.2l.3,.2l.2,.2l.2,.2l.1,.3l.2,.2l.1,.3v.3l.1,.2v.5l-.1,.2v.5l-.1,.2v.2l-.1,.2l-.1,.2l-.2,.4l-.2,.3l-.2,.3l-.2,.4l-.3,.3l-.2,.4l-.4,.4l-.3,.3l-.5,.6l-.4,.4l-.4,.5l-.3,.3l-.3,.3l-.3,.3l-.2,.2l-.1,.1h4.1l.2,-.1h.2l.1,-.1l.2,-.1l.1,-.1l.1,-.1l.1,-.2l.2,-.2Z" class="g6_107"/>
<path fill-rule="evenodd" d="M729.4,630.2l-.8,2.1H722V632l.7,-.6l.7,-.7l.6,-.5l.5,-.6l.5,-.5l.4,-.5l.4,-.5l.3,-.4l.3,-.4l.2,-.4l.2,-.4l.2,-.4l.1,-.4l.1,-.4l.1,-.3v-.9l-.1,-.2l-.1,-.3l-.1,-.2l-.1,-.2l-.1,-.1l-.1,-.2l-.2,-.2l-.2,-.1l-.2,-.1l-.2,-.1l-.2,-.1l-.2,-.1h-.8l-.2,.1h-.2l-.2,.1l-.1,.1l-.2,.1l-.2,.1l-.1,.1l-.2,.1l-.1,.2l-.1,.2l-.1,.2l-.2,.1l-.1,.3v.2h-.3v-.4l.1,-.3l.1,-.4l.1,-.2l.2,-.3l.1,-.3l.2,-.2l.2,-.2l.2,-.2l.3,-.2l.2,-.1l.3,-.2h.2l.3,-.1h1.3l.3,.1l.3,.1l.2,.1l.3,.1l.3,.2l.2,.2l.2,.2l.2,.3l.1,.2l.2,.3l.1,.2v.3l.1,.3v.7l-.1,.2v.2l-.1,.2v.2l-.1,.2l-.1,.3l-.2,.3l-.1,.3l-.3,.4l-.2,.3l-.2,.4l-.3,.3l-.3,.4l-.4,.4l-.5,.5l-.4,.5l-.4,.4l-.3,.4l-.3,.3l-.3,.2l-.2,.2l-.1,.2h3.3l.3,-.1h.7l.2,-.1l.1,-.1l.2,-.1l.1,-.1l.1,-.1l.2,-.2l.1,-.1Z" class="g6_107"/>
<path fill-rule="evenodd" d="M636.4,613.4l-.8,2.1H629v-.3l.7,-.6l.7,-.6l.6,-.6l.5,-.6l.5,-.5l.4,-.5l.4,-.4l.3,-.5l.3,-.4l.2,-.4l.2,-.4l.2,-.4l.1,-.4l.1,-.3l.1,-.4v-.8l-.1,-.3l-.1,-.2l-.1,-.2l-.1,-.2l-.1,-.2l-.2,-.2l-.1,-.1l-.2,-.2l-.2,-.1l-.2,-.1l-.2,-.1h-.2l-.2,-.1h-.4l-.2,.1h-.2l-.2,.1h-.2l-.1,.1l-.2,.1l-.2,.1l-.1,.1l-.2,.2l-.1,.1l-.1,.2l-.2,.2l-.1,.2l-.1,.2v.2h-.3V607l.1,-.4l.1,-.3l.1,-.3l.2,-.3l.1,-.3l.2,-.2l.2,-.2l.2,-.2l.3,-.2l.2,-.1l.3,-.1l.2,-.1l.3,-.1h1l.3,.1h.3l.3,.1l.2,.1l.3,.2l.3,.1l.2,.3l.2,.2l.2,.2l.1,.2l.2,.3l.1,.3v.2l.1,.3v.7l-.1,.2v.3l-.1,.2v.2l-.1,.2l-.1,.2l-.2,.3l-.2,.4l-.2,.3l-.2,.4l-.3,.3l-.2,.4l-.3,.4l-.4,.3l-.5,.6l-.4,.4l-.4,.4l-.3,.4l-.3,.3l-.3,.3l-.2,.2l-.1,.1h3.9l.2,-.1h.2l.2,-.1h.1l.2,-.1l.1,-.1l.1,-.2l.2,-.1l.1,-.2Z" class="g6_107"/>
<path fill-rule="evenodd" d="M579.1,613.4l-.8,2.1h-6.5v-.3l.7,-.6l.6,-.6l.6,-.6l.5,-.6l.5,-.5l.5,-.5l.3,-.4l.3,-.5l.3,-.4l.3,-.4l.2,-.4l.1,-.4l.2,-.4l.1,-.3v-1.2l-.1,-.3v-.2l-.1,-.2l-.1,-.2l-.2,-.2l-.1,-.2l-.2,-.1l-.2,-.2l-.1,-.1l-.2,-.1l-.2,-.1h-.2l-.3,-.1h-.4l-.2,.1h-.2l-.2,.1h-.1l-.2,.1l-.2,.1l-.1,.1l-.2,.1l-.1,.2l-.2,.1l-.1,.2l-.1,.2l-.1,.2l-.1,.2l-.1,.2h-.3l.1,-.3v-.4l.1,-.3l.2,-.3l.1,-.3l.2,-.3l.1,-.2l.2,-.2l.3,-.2l.2,-.2l.2,-.1l.3,-.1l.3,-.1l.3,-.1h.9l.3,.1h.3l.3,.1l.3,.1l.2,.2l.3,.1l.2,.3l.2,.2l.2,.2l.2,.2l.1,.3l.1,.3l.1,.2v1.2l-.1,.3v.2l-.1,.2l-.1,.2l-.1,.2l-.1,.3l-.2,.4l-.2,.3l-.3,.4l-.2,.3l-.3,.4l-.3,.4l-.3,.3l-.5,.6l-.5,.4l-.4,.4l-.3,.4l-.3,.3l-.2,.3l-.2,.2l-.2,.1h3.9l.3,-.1h.1l.2,-.1h.2l.1,-.1l.2,-.1l.1,-.2l.1,-.1l.1,-.2Z" class="g6_107"/>
<path fill-rule="evenodd" d="M749.1,555.4l-.7,2.2h-6.6v-.3l.7,-.7l.6,-.6l.6,-.6l.6,-.5l.4,-.6l.5,-.4l.3,-.5l.4,-.4l.2,-.5l.3,-.4l.2,-.4l.2,-.4l.1,-.3l.1,-.4v-.3l.1,-.4l-.1,-.3v-.4l-.1,-.3l-.1,-.2l-.1,-.2l-.1,-.2l-.2,-.1l-.2,-.2l-.1,-.1l-.2,-.2l-.2,-.1h-.2l-.2,-.1h-1l-.2,.1l-.2,.1h-.2l-.2,.1l-.1,.2l-.2,.1l-.1,.1l-.1,.2l-.2,.1l-.1,.2l-.1,.2l-.1,.2l-.1,.3h-.3l.1,-.4l.1,-.4l.1,-.3l.1,-.3l.1,-.3l.2,-.2l.2,-.3l.2,-.2l.2,-.2l.2,-.1l.3,-.2l.2,-.1l.3,-.1h.3l.3,-.1h.6l.3,.1h.3l.3,.1l.3,.2l.3,.1l.2,.2l.3,.2l.2,.2l.1,.2l.2,.3l.1,.2l.1,.3l.1,.3v.2l.1,.3v.3l-.1,.2v.4l-.1,.2l-.1,.2v.2l-.1,.2l-.2,.4l-.2,.3l-.2,.3l-.2,.4l-.3,.3l-.3,.4l-.3,.4l-.3,.3l-.5,.6l-.4,.4l-.4,.5l-.4,.3l-.3,.3l-.2,.3l-.2,.2l-.2,.1h4.2l.2,-.1h.1l.2,-.1l.1,-.1l.2,-.1l.1,-.1l.1,-.2l.1,-.2Z" class="g6_107"/>
<path fill-rule="evenodd" d="M636.5,535.5l-.8,2.2h-6.6v-.3l.7,-.7l.7,-.6l.6,-.6l.5,-.5l.5,-.6l.4,-.5l.4,-.4l.3,-.5l.3,-.4l.2,-.4l.2,-.4l.2,-.4l.1,-.3l.1,-.4l.1,-.3v-.9l-.1,-.2l-.1,-.3l-.1,-.2l-.1,-.2l-.1,-.2l-.2,-.1l-.1,-.2l-.2,-.1l-.2,-.2l-.2,-.1h-.2l-.2,-.1h-1l-.2,.1l-.2,.1h-.1l-.2,.1l-.2,.2l-.1,.1l-.2,.1l-.1,.2l-.1,.1l-.2,.2l-.1,.2l-.1,.2v.3h-.3v-.4l.1,-.4l.1,-.3l.1,-.3l.2,-.3l.1,-.2l.2,-.3l.2,-.2l.2,-.2l.3,-.1l.2,-.2l.3,-.1l.2,-.1h.3l.3,-.1h.7l.3,.1h.3l.3,.1l.2,.2l.3,.1l.3,.2l.2,.2l.2,.2l.2,.2l.1,.3l.2,.2l.1,.3v.3l.1,.2v.8l-.1,.2v.2l-.1,.2v.2l-.1,.2l-.1,.2l-.2,.4l-.2,.3l-.2,.3l-.2,.4l-.3,.3l-.2,.4l-.3,.4l-.4,.3l-.4,.6l-.5,.4l-.4,.5l-.3,.3l-.3,.3l-.3,.3l-.2,.2l-.1,.1H635l.2,-.1h.2l.1,-.1l.2,-.1l.1,-.1l.1,-.1l.2,-.2l.1,-.2Z" class="g6_107"/>
<path fill-rule="evenodd" d="M749.1,498.9l-.7,2.1h-6.6v-.3l.7,-.6l.6,-.7l.6,-.5l.6,-.6l.4,-.5l.5,-.5l.4,-.5l.3,-.4l.3,-.4l.2,-.4l.2,-.4l.2,-.4l.1,-.4l.1,-.4v-1.4l-.1,-.2l-.1,-.3l-.1,-.2l-.1,-.1l-.2,-.2l-.2,-.2l-.1,-.1l-.2,-.1l-.2,-.1l-.2,-.1l-.2,-.1h-.8l-.2,.1h-.2l-.2,.1l-.2,.1l-.1,.1l-.2,.1l-.2,.1l-.1,.1l-.2,.2l-.1,.2l-.1,.1l-.1,.2l-.1,.3l-.1,.2h-.3l.1,-.4l.1,-.3l.1,-.4l.1,-.3l.1,-.2l.2,-.3l.2,-.2l.2,-.2l.2,-.2l.2,-.2l.3,-.1l.2,-.2h.3l.3,-.1l.3,-.1h.3l.3,.1h.3l.3,.1l.3,.1l.3,.1l.3,.1l.2,.2l.3,.2l.2,.2l.1,.3l.2,.2l.1,.3l.1,.2l.1,.3v.3l.1,.3v.2l-.1,.2v.4l-.1,.2l-.1,.2v.2l-.1,.2l-.2,.4l-.2,.3l-.2,.4l-.2,.3l-.3,.4l-.3,.3l-.3,.4l-.3,.4l-.5,.5l-.4,.5l-.4,.4l-.4,.4l-.3,.3l-.2,.2l-.2,.2l-.2,.2h3.4l.3,-.1h.5l.2,-.1h.1l.2,-.1l.1,-.1l.2,-.1l.1,-.1l.1,-.2l.1,-.1Z" class="g6_107"/>
<path fill-rule="evenodd" d="M579.6,535.5l-.8,2.2h-6.6v-.3l.7,-.7l.7,-.6l.5,-.6l.6,-.5l.5,-.6l.4,-.5l.4,-.4l.3,-.5l.3,-.4l.2,-.4l.2,-.4l.2,-.4l.1,-.3l.1,-.4l.1,-.3v-.7l-.1,-.2v-.2l-.1,-.3l-.1,-.2l-.1,-.2l-.1,-.2l-.2,-.1l-.1,-.2l-.2,-.1l-.2,-.2l-.2,-.1h-.2l-.2,-.1h-1l-.2,.1l-.2,.1h-.2l-.1,.1l-.2,.2l-.1,.1l-.2,.1l-.1,.2l-.2,.1l-.1,.2l-.1,.2l-.1,.2l-.1,.3h-.3l.1,-.4l.1,-.4l.1,-.3l.1,-.3l.1,-.3l.2,-.2l.2,-.3l.2,-.2l.2,-.2l.2,-.1l.3,-.2l.3,-.1l.2,-.1h.3l.3,-.1h.6l.4,.1h.3l.3,.1l.2,.2l.3,.1l.2,.2l.3,.2l.2,.2l.2,.2l.1,.3l.1,.2l.2,.3v.3l.1,.2v.8l-.1,.2v.2l-.1,.2v.2l-.1,.2l-.1,.2l-.2,.4l-.2,.3l-.2,.3l-.2,.4l-.3,.3l-.3,.4l-.3,.4l-.3,.3l-.5,.6l-.4,.4l-.4,.5l-.3,.3l-.3,.3l-.3,.3l-.2,.2l-.1,.1h4.1l.2,-.1h.2l.1,-.1l.2,-.1l.1,-.1l.1,-.1l.1,-.2l.2,-.2Z" class="g6_107"/>
<path fill-rule="evenodd" d="M790.7,573.4l-.8,2.2h-6.6v-.3l.7,-.7l.7,-.6l.5,-.6l.6,-.5l.5,-.6l.4,-.5l.4,-.4l.3,-.5l.3,-.4l.2,-.4l.2,-.4l.2,-.4l.1,-.3l.1,-.4l.1,-.4v-.6l-.1,-.2v-.3l-.1,-.2l-.1,-.2l-.1,-.2l-.1,-.2l-.2,-.2l-.1,-.1l-.2,-.2l-.2,-.1l-.2,-.1H787l-.2,-.1h-1l-.2,.1h-.2l-.2,.1l-.1,.1l-.2,.1l-.2,.2l-.1,.1l-.1,.2l-.2,.1l-.1,.2l-.1,.2l-.1,.2l-.1,.2h-.3l.1,-.3l.1,-.4l.1,-.3l.1,-.3l.2,-.3l.1,-.2l.2,-.3l.2,-.2l.2,-.2l.2,-.1l.3,-.2l.2,-.1l.3,-.1l.3,-.1h1.3l.3,.1l.2,.1l.3,.1l.3,.2l.2,.2l.3,.2l.2,.2l.2,.2l.1,.3l.2,.2v.3l.1,.3l.1,.2v.7l-.1,.3v.2l-.1,.2v.2l-.1,.2l-.1,.2l-.2,.4l-.2,.3l-.2,.3l-.2,.4l-.3,.3l-.3,.4l-.3,.4l-.3,.3l-.5,.5l-.4,.5l-.4,.5l-.4,.3l-.2,.3l-.3,.3l-.2,.2l-.1,.1H789l.2,-.1h.3l.2,-.1l.2,-.1l.1,-.1l.1,-.2l.2,-.1l.1,-.2Z" class="g6_107"/>
<path fill-rule="evenodd" d="M787,518.2l-.8,2.2h-6.5v-.3l.6,-.7l.7,-.6l.6,-.6l.5,-.5l.5,-.5l.4,-.5l.4,-.5l.3,-.4l.3,-.5l.2,-.3l.2,-.5l.2,-.3l.1,-.4l.1,-.4l.1,-.4v-.8l-.1,-.2l-.1,-.3v-.2l-.2,-.2l-.1,-.2l-.1,-.1l-.2,-.2l-.2,-.1l-.2,-.2h-.2l-.1,-.1l-.3,-.1h-.8l-.2,.1h-.2l-.1,.1l-.2,.1l-.2,.1l-.2,.1l-.1,.1l-.2,.1l-.1,.2l-.1,.2l-.1,.1l-.2,.2v.2l-.1,.3H780v-.4l.1,-.3l.1,-.4l.1,-.3l.2,-.3l.1,-.2l.2,-.2l.2,-.3l.2,-.2l.3,-.1l.2,-.2l.3,-.1l.2,-.1h.3l.3,-.1h.7l.3,.1l.3,.1h.3l.3,.2l.2,.1l.3,.2l.2,.2l.2,.2l.2,.3l.1,.2l.2,.2l.1,.3v.3l.1,.3v.7l-.1,.2v.4l-.1,.2l-.1,.2l-.1,.2l-.1,.4l-.2,.3l-.3,.4l-.2,.3l-.2,.4l-.3,.3l-.3,.4l-.3,.4l-.5,.5l-.5,.5l-.4,.4l-.3,.3l-.3,.4l-.2,.2l-.3,.2l-.1,.2h2.9l.4,-.1h.8l.2,-.1h.2l.1,-.1l.2,-.1l.1,-.1l.2,-.1l.1,-.2l.1,-.2Z" class="g6_107"/>
<path fill-rule="evenodd" d="M538.1,573.4l-.8,2.2h-6.5v-.3l.7,-.7l.6,-.6l.6,-.6l.5,-.5l.5,-.6l.4,-.5l.4,-.4l.3,-.5l.3,-.4l.3,-.4l.2,-.4l.1,-.4l.2,-.3v-.4l.1,-.4v-.8l-.1,-.3v-.2l-.1,-.2l-.1,-.2l-.2,-.2l-.1,-.2l-.2,-.1l-.2,-.2l-.1,-.1l-.2,-.1h-.2l-.2,-.1h-1.1l-.1,.1h-.2l-.2,.1l-.2,.1l-.2,.1l-.1,.2l-.1,.1l-.2,.2l-.1,.1l-.1,.2l-.1,.2l-.1,.2l-.1,.2h-.3l.1,-.3v-.4l.1,-.3l.2,-.3l.1,-.3l.2,-.2l.1,-.3l.2,-.2l.3,-.2l.2,-.1l.2,-.2l.3,-.1l.3,-.1l.3,-.1h1.2l.3,.1l.3,.1l.3,.1l.2,.2l.3,.2l.2,.2l.2,.2l.2,.2l.2,.3l.1,.2l.1,.3l.1,.3v1.2l-.1,.2v.2l-.1,.2l-.1,.2l-.1,.2l-.1,.4l-.2,.3l-.2,.3l-.3,.4l-.2,.3l-.3,.4l-.3,.4l-.3,.3l-.5,.5l-.5,.5l-.4,.5l-.3,.3l-.3,.3l-.2,.3l-.2,.2l-.2,.1h3.9l.3,-.1h.3l.2,-.1l.1,-.1l.1,-.1l.2,-.2l.1,-.1l.1,-.2Z" class="g6_107"/>
<path fill-rule="evenodd" d="M748.8,613.4l-.7,2.1h-6.6v-.3l.7,-.6l.6,-.6l.6,-.6l.6,-.6l.4,-.5l.5,-.5l.4,-.4l.3,-.5l.3,-.4l.2,-.4l.2,-.4l.2,-.4l.1,-.4l.1,-.3v-.4l.1,-.3v-.3l-.1,-.2v-.3l-.1,-.2l-.1,-.2l-.1,-.2l-.1,-.2l-.2,-.2l-.2,-.1l-.1,-.2l-.2,-.1l-.2,-.1l-.2,-.1H745l-.2,-.1h-.4l-.2,.1H744l-.2,.1h-.2l-.2,.1l-.1,.1l-.2,.1l-.2,.1l-.1,.2l-.1,.1l-.2,.2l-.1,.2l-.1,.2l-.1,.2l-.1,.2h-.3l.1,-.3l.1,-.4l.1,-.3l.1,-.3l.1,-.3l.2,-.3l.2,-.2l.2,-.2l.2,-.2l.2,-.2l.3,-.1l.2,-.1l.3,-.1l.3,-.1h.9l.3,.1h.3l.3,.1l.3,.1l.3,.2l.2,.1l.3,.3l.2,.2l.2,.2l.1,.2l.1,.3l.1,.3l.1,.2l.1,.3v.5l-.1,.2v.5l-.1,.2l-.1,.2v.2l-.1,.2l-.2,.3l-.2,.4l-.2,.3l-.2,.4l-.3,.3l-.3,.4l-.3,.4l-.3,.3l-.5,.6l-.4,.4l-.4,.4l-.4,.4l-.3,.3l-.2,.3l-.2,.2l-.1,.1h3.9l.2,-.1h.2l.1,-.1h.2l.1,-.1l.2,-.1l.1,-.2l.1,-.1l.1,-.2Z" class="g6_107"/>
</svg>