<?xml version="1.0" encoding="UTF-8" standalone="no"?>
<!DOCTYPE svg PUBLIC "-//W3C//DTD SVG 1.1//EN"
"http://www.w3.org/Graphics/SVG/1.1/DTD/svg11.dtd">
<svg viewBox="0 0 909 1147" version="1.1" xmlns="http://www.w3.org/2000/svg" xmlns:xlink="http://www.w3.org/1999/xlink">
<defs>
<style type="text/css"><![CDATA[
.g0_125{
fill: #E7A9A1;
}
.g1_125{
fill: none;
stroke: #000;
stroke-width: 1.069;
stroke-linejoin: round;
}
.g2_125{
fill: none;
stroke: #000;
stroke-width: 1.069;
stroke-linejoin: round;
stroke-dasharray: 6,4;
}
.g3_125{
fill: #D5EEF0;
}
.g4_125{
fill: none;
stroke: #47A5AE;
stroke-width: 0.763;
stroke-linejoin: round;
stroke-dasharray: 4,3;
}
.g5_125{
fill: none;
stroke: #0EA5DF;
stroke-width: 0.763;
stroke-miterlimit: 10;
}
.g6_125{
fill: none;
stroke: #000;
stroke-width: 1.069;
}
]]></style>
</defs>
<path d="M835.8,1131h73.6v-51.5H835.8V1131Z" class="g0_125"/>
<path d="M216.2,697.7H340.3V739H216.2V697.7Zm123.9,41.4l35.7,-35.6" class="g1_125"/>
<path d="M216.3,739.1L252,703.5H375.5" class="g2_125"/>
<path d="M340.1,697.7l35.6,-35.6M216.3,697.7L252,662.1" class="g1_125"/>
<path d="M251.7,703.3V662.2" class="g2_125"/>
<path d="M375.7,703.3V662.2m-.2,.1h-124" class="g1_125"/>
<path d="M243.9,918.5l-34.7,35.3l-.1,20.2H333l35,-34.7l.3,-20.8Z" class="g3_125"/>
<path d="M208.7,932.9H332.8v41.4H208.7V932.9Zm123.9,41.5l35.7,-35.7" class="g1_125"/>
<path d="M208.8,974.4l35.7,-35.7H368" class="g2_125"/>
<path d="M332.6,933l35.6,-35.7" class="g1_125"/>
<path d="M332.6,953.7l35.6,-35.6m-35.6,35.6l35.6,-35.6" class="g4_125"/>
<path d="M208.8,933l35.7,-35.7" class="g1_125"/>
<path d="M244.5,918.1l-35.7,35.6H333M244.5,918.1l-35.7,35.6H333" class="g4_125"/>
<path d="M244.2,938.5v-41" class="g2_125"/>
<path d="M368.2,938.5v-41m-.2,0H244" class="g1_125"/>
<path d="M368,918.3H244" class="g4_125"/>
<path d="M442.6,912.7l-.8,60.8H565.1l20.3,-19.8l.3,-59.4L461.9,894Z" class="g3_125"/>
<path d="M565.5,973.3L585.9,953" class="g1_125"/>
<path d="M442.2,973.3L462.5,953" class="g2_125"/>
<path d="M565.5,892.1l20.4,-20.4M442.2,892.1l20.3,-20.4" class="g1_125"/>
<path d="M565.6,913l20,-20m-123.1,.9L441.8,913H566m19.1,-19.2h-124" class="g4_125"/>
<path d="M442,891.9H565.5v81.6H442V891.9Z" class="g1_125"/>
<path d="M585.6,953.4H462.1V871.8" class="g2_125"/>
<path d="M462.1,871.8H585.6v81.6" class="g1_125"/>
<path fill-rule="evenodd" d="M677.2,973.7l82.2,-.3l20.2,-20.9l.1,-100.7l-82.3,-.3L678,870.2Z" class="g3_125"/>
<path d="M759.2,974.1l20.4,-20.3M759.2,850.4L779.6,830" class="g1_125"/>
<path d="M677.2,974.1l20.4,-20.3" class="g2_125"/>
<path d="M677.7,850.2L698,829.8" class="g1_125"/>
<path d="M759.3,871.8l20,-20m-82,.2l-20.7,19.1h82.8m19.3,-19.2H697.2" class="g4_125"/>
<path d="M677.6,850.3h81.6V973.8H677.6V850.3Z" class="g1_125"/>
<path d="M779.3,954.2H697.5" class="g2_125"/>
<path d="M779.6,829.9V954" class="g1_125"/>
<path d="M697.7,829.6V953.8" class="g2_125"/>
<path d="M697.7,829.9h81.7" class="g1_125"/>
<path d="M213.8,288.1h96.3m-95.9,24.3V288.5m95.9,-.4H457.5M310.1,312.4V288.5m147.4,-.4H571.3M457.5,312.4V288.5m113.8,-.4H740M571.3,312.4V288.5m168.3,23.9V288.5M213.8,312.8h96.3m-95.9,81.9V313.1m95.9,-.3H457.5M310.1,394.7V313.1m147.4,-.3H571.3M457.5,394.7V313.1m113.8,-.3H740M571.3,394.7V313.1m168.3,81.6V313.1M213.8,395h96.3m-95.9,81.9V395.4m95.9,-.4H457.5M310.1,476.9V395.4M457.5,395H571.3M457.5,476.9V395.4M571.3,395H740M571.3,476.9V395.4m168.3,81.5V395.4M213.8,477.3h96.3m-95.9,81.9V477.7m95.9,-.4H457.5M310.1,559.2V477.7m147.4,-.4H571.3M457.5,559.2V477.7m113.8,-.4H740M571.3,559.2V477.7m168.3,81.5V477.7M213.8,559.6h96.3m0,0H457.5m0,0H571.3m0,0H740" class="g5_125"/>
<path d="M325.4,357.7h50.9V332.8H325.4v24.9Zm0,82h76.9V414.8H325.4v24.9Zm0,95.6h76.9V484.4H325.4v50.9Z" class="g6_125"/>
</svg>