<?xml version="1.0" encoding="UTF-8" standalone="no"?>
<!DOCTYPE svg PUBLIC "-//W3C//DTD SVG 1.1//EN"
"http://www.w3.org/Graphics/SVG/1.1/DTD/svg11.dtd">
<svg viewBox="0 0 909 1147" version="1.1" xmlns="http://www.w3.org/2000/svg" xmlns:xlink="http://www.w3.org/1999/xlink">
<defs>
<clipPath id="c0_75"><path d="M573,635.2V468.1H835.8V635.2Z"/></clipPath>
<clipPath id="c1_75"><path d="M573,827.7v-172H835.8v172Z"/></clipPath>
<style type="text/css"><![CDATA[
.g0_75{
fill: #B6D774;
}
.g1_75{
fill: none;
stroke: #000;
stroke-width: 0.763;
}
.g2_75{
fill: none;
stroke: #8ED8F8;
stroke-width: 0.617;
stroke-miterlimit: 2;
}
.g3_75{
fill: #FFF1E0;
}
.g4_75{
fill: none;
stroke: #000;
stroke-width: 0.617;
stroke-miterlimit: 2;
}
.g5_75{
fill: none;
stroke: #000;
stroke-width: 1.244;
stroke-miterlimit: 2;
}
.g6_75{
fill: #000;
}
.g7_75{
fill: none;
stroke: #000;
stroke-width: 0.763;
stroke-miterlimit: 2;
}
.g8_75{
fill: none;
stroke: #000;
stroke-width: 1.069;
stroke-miterlimit: 2;
}
.g9_75{
fill: none;
stroke: #0EA5DF;
stroke-width: 3.055;
}
.ga_75{
fill: #E8F1FA;
}
.gb_75{
fill: none;
stroke: #000;
stroke-width: 0.741;
stroke-miterlimit: 2;
}
]]></style>
</defs>
<path d="M835.8,1131h73.6v-51.5H835.8V1131Z" class="g0_75"/>
<path d="M287.4,550.4h33.5M287.4,742.2h33.5" class="g1_75"/>
<path clip-path="url(#c0_75)" d="M573,627.9H837.3" class="g2_75"/>
<path d="M757.5,628.1L792,487.8l.2,-.3l-.2,.2l.2,-.8l-.4,1L653.4,628.1H582.8L792.2,486.9l36.4,141.2Zm-86.8,0L791.8,488L740.1,628.1ZM791.8,487.9l.2,-.2v.1l-.2,.2Z" class="g3_75"/>
<path d="M582.8,628.1L792.2,486.9l36.4,141.2H757.5L792.2,486.9L740.1,628.1H670.7L792.2,487.5L653.4,628.1H582.8Z" class="g4_75"/>
<path clip-path="url(#c0_75)" d="M827.8,478.8V635.2M810.3,478.8V635.2M792.8,478.8V635.2M775.3,478.8V635.2M757.8,478.8V635.2M573,504.8H837.3M573,487.2H837.3m-97,-8.4V635.2M722.8,478.8V635.2M573,540H837.3M573,522.4H837.3m-132,-43.6V635.2M687.8,478.8V635.2M573,575.2H837.3M573,557.6H837.3m-167,-78.8V635.2M652.8,478.8V635.2M573,610.3H837.3M573,592.7H837.3M635.3,478.8V635.2M617.8,478.8V635.2M600.3,478.8V635.2M582.8,478.8V635.2" class="g2_75"/>
<path d="M583.4,487.5h34.7" class="g4_75"/>
<path d="M618.1,484.3v6.5m-34.7,-6.5v6.5" class="g5_75"/>
<path fill-rule="evenodd" d="M587.5,471.1l2.4,-1.2h.2v8.3c0,.6,0,.9,.1,1.1c0,.1,.1,.2,.3,.3c.1,.1,.4,.1,.8,.1v.3h-3.7v-.3c.5,0,.8,0,.9,-.1c.2,-.1,.3,-.2,.3,-.3c.1,-.1,.1,-.5,.1,-1.1v-5.3c0,-.7,0,-1.2,-.1,-1.4c0,-.1,-.1,-.2,-.1,-.3c-.1,-.1,-.2,-.1,-.4,-.1c-.1,0,-.4,.1,-.7,.2Z" class="g6_75"/>
<path fill-rule="evenodd" d="M642.4,606.7l.8,-3.7h.3c0,.4,-.1,.7,-.1,.9c0,.7,.3,1.2,.7,1.6c.4,.5,.9,.7,1.6,.7c.7,0,1.1,-.2,1.5,-.6c.3,-.4,.5,-.9,.5,-1.4c0,-.3,-.1,-.6,-.3,-.9c-.2,-.4,-.8,-1.1,-1.8,-2.1c-.5,-.5,-.8,-.8,-.9,-1.1c-.2,-.4,-.3,-.8,-.3,-1.2c0,-.7,.2,-1.3,.7,-1.8c.5,-.5,1.2,-.7,2,-.7c.3,0,.5,0,.8,.1c.1,0,.4,.1,.8,.3c.3,.1,.4,.1,.5,.1c0,.1,.1,.1,.2,.1c.1,0,.2,-.1,.3,-.2c.1,0,.3,-.2,.4,-.4h.3l-.8,3.3h-.2c0,-.3,0,-.6,0,-.7c0,-.6,-.2,-1.1,-.6,-1.5c-.4,-.4,-.9,-.5,-1.5,-.5c-.5,0,-.9,.1,-1.2,.4c-.3,.3,-.5,.6,-.5,1c0,.4,.1,.7,.3,1c.2,.3,.7,.8,1.4,1.5c.7,.7,1.2,1.2,1.4,1.6c.2,.4,.3,.8,.3,1.3c0,.5,-.1,1,-.4,1.4c-.3,.5,-.6,.9,-1.1,1.1c-.5,.3,-1.1,.4,-1.6,.4c-.3,0,-.6,0,-.9,-.1c-.2,0,-.6,-.2,-1.2,-.4c-.1,-.1,-.3,-.1,-.4,-.1c-.3,0,-.5,.2,-.7,.6Z" class="g6_75"/>
<path fill-rule="evenodd" d="M714.7,605.9l.8,-3.6h.2c0,.3,0,.6,0,.8c0,.7,.2,1.2,.6,1.7c.4,.4,1,.6,1.7,.6c.6,0,1.1,-.2,1.4,-.6c.3,-.4,.5,-.8,.5,-1.4c0,-.3,-.1,-.6,-.2,-.9c-.2,-.4,-.8,-1.1,-1.8,-2.1c-.5,-.5,-.8,-.8,-1,-1.1c-.2,-.4,-.3,-.8,-.3,-1.2c0,-.7,.3,-1.3,.8,-1.8c.5,-.5,1.1,-.7,1.9,-.7c.3,0,.6,0,.8,.1c.2,0,.4,.1,.8,.3c.3,.1,.5,.1,.5,.2q.1,0,.2,0c.2,0,.3,-.1,.4,-.1c.1,-.1,.2,-.3,.3,-.5h.3l-.7,3.3h-.3c0,-.3,0,-.6,0,-.7c0,-.6,-.2,-1.1,-.5,-1.5c-.4,-.3,-.9,-.5,-1.6,-.5c-.5,0,-.9,.1,-1.2,.4c-.3,.3,-.5,.7,-.5,1c0,.4,.1,.7,.3,1c.2,.3,.7,.8,1.4,1.5c.7,.7,1.2,1.3,1.4,1.6c.2,.4,.3,.8,.3,1.3c0,.5,-.1,1,-.3,1.4c-.3,.5,-.7,.9,-1.2,1.1c-.5,.3,-1,.4,-1.6,.4c-.3,0,-.6,0,-.8,-.1c-.3,0,-.7,-.2,-1.2,-.4c-.2,0,-.4,-.1,-.5,-.1c-.3,0,-.5,.2,-.6,.6Z" class="g6_75"/>
<path fill-rule="evenodd" d="M783.4,606l.9,-3.7h.2c0,.4,0,.7,0,.9c0,.7,.2,1.2,.6,1.6c.4,.5,1,.7,1.6,.7c.7,0,1.1,-.2,1.5,-.6c.3,-.4,.5,-.9,.5,-1.4c0,-.3,-.1,-.6,-.3,-.9c-.2,-.4,-.8,-1.1,-1.8,-2.1c-.4,-.5,-.8,-.8,-.9,-1.1c-.2,-.4,-.3,-.8,-.3,-1.2c0,-.7,.2,-1.3,.7,-1.8c.6,-.5,1.2,-.7,2,-.7c.3,0,.5,0,.8,.1c.1,0,.4,.1,.8,.3c.3,.1,.4,.1,.5,.1c0,.1,.1,.1,.2,.1c.1,0,.2,-.1,.3,-.1c.1,-.1,.3,-.3,.4,-.5h.3l-.8,3.3h-.2c0,-.3,0,-.6,0,-.7c0,-.6,-.2,-1.1,-.6,-1.5c-.4,-.4,-.9,-.5,-1.5,-.5c-.5,0,-.9,.1,-1.2,.4c-.3,.3,-.5,.6,-.5,1c0,.4,.1,.7,.3,1c.2,.3,.7,.8,1.4,1.5c.7,.7,1.2,1.2,1.4,1.6c.2,.4,.3,.8,.3,1.3c0,.5,-.1,1,-.4,1.4c-.2,.5,-.6,.9,-1.1,1.1c-.5,.3,-1,.4,-1.6,.4c-.3,0,-.6,0,-.8,-.1c-.3,0,-.7,-.2,-1.2,-.4c-.2,0,-.4,-.1,-.5,-.1c-.3,0,-.5,.2,-.7,.6Z" class="g6_75"/>
<path fill-rule="evenodd" d="M653.8,603.4l1.6,-.8h.1v5.6c0,.3,.1,.6,.1,.7c0,0,.1,.1,.2,.2c.1,0,.3,0,.6,0v.2h-2.5v-.2c.3,0,.5,0,.6,0c.1,-.1,.2,-.1,.2,-.2c0,-.1,0,-.3,0,-.7v-3.6c0,-.5,0,-.8,0,-.9c0,-.1,-.1,-.2,-.1,-.2c-.1,-.1,-.2,-.1,-.2,-.1c-.2,0,-.3,0,-.5,.1Z" class="g6_75"/>
<path fill-rule="evenodd" d="M729.4,607.3l-.4,1.2h-3.9v-.1c1.1,-1.1,1.9,-1.9,2.4,-2.6c.5,-.6,.7,-1.3,.7,-1.8c0,-.4,-.1,-.8,-.4,-1c-.2,-.3,-.5,-.4,-.9,-.4c-.3,0,-.6,.1,-.9,.3c-.2,.1,-.4,.4,-.5,.8h-.2c.1,-.6,.3,-1.1,.6,-1.4c.3,-.3,.8,-.5,1.3,-.5c.5,0,.9,.2,1.3,.5c.3,.4,.5,.8,.5,1.3c0,.3,-.1,.6,-.2,1c-.3,.5,-.6,1,-1.2,1.6c-.8,.9,-1.3,1.4,-1.5,1.6h1.7c.4,0,.6,0,.8,0c.1,-.1,.2,-.1,.3,-.2c.2,-.1,.3,-.2,.3,-.3Z" class="g6_75"/>
<path fill-rule="evenodd" d="M794.2,603.3c.1,-.4,.4,-.8,.7,-1c.2,-.3,.6,-.4,1,-.4c.5,0,.9,.2,1.2,.5c.2,.3,.3,.6,.3,.9c0,.4,-.3,.9,-.9,1.4c.4,.2,.8,.4,1,.7c.2,.3,.3,.7,.3,1.1c0,.5,-.2,1,-.6,1.4c-.4,.6,-1.1,.8,-2,.8c-.5,0,-.8,0,-.9,-.1c-.2,-.1,-.3,-.2,-.3,-.4c0,-.1,.1,-.1,.2,-.2c0,-.1,.1,-.1,.2,-.1c.1,0,.2,0,.3,0c0,0,.2,.1,.4,.2c.1,.1,.3,.2,.4,.2c.1,0,.2,0,.3,0c.4,0,.6,-.1,.9,-.4c.2,-.2,.4,-.5,.4,-.9c0,-.2,-.1,-.5,-.2,-.7c-.1,-.2,-.2,-.3,-.3,-.4c-.1,-.2,-.3,-.3,-.6,-.4c-.2,-.1,-.4,-.1,-.7,-.1h-.2v-.2c.3,0,.6,-.1,.8,-.3c.3,-.1,.5,-.3,.6,-.5c.1,-.2,.1,-.4,.1,-.7c0,-.3,-.1,-.6,-.3,-.8c-.2,-.2,-.4,-.3,-.7,-.3c-.5,0,-1,.3,-1.3,.8Z" class="g6_75"/>
<path fill-rule="evenodd" d="M644.1,819.4l-2.8,3.9h2.5Zm1.5,-2.4l-.8,8.2c0,.4,0,.7,0,.8c0,.2,0,.3,.1,.4c.1,.2,.2,.3,.4,.3c.1,.1,.4,.1,.7,.1v.3h-3.9l.1,-.3h.2c.3,0,.5,0,.7,-.2c.2,-.1,.3,-.2,.3,-.4c.1,-.2,.1,-.5,.2,-1.1l.1,-1.2h-2.8l-1,1.3c-.2,.3,-.4,.5,-.4,.7c-.1,.1,-.1,.2,-.1,.4c0,.1,.1,.2,.2,.4c.1,.1,.3,.1,.6,.1l-.1,.3h-2.9l.1,-.3c.4,0,.7,-.1,.9,-.3c.3,-.3,.7,-.7,1.3,-1.5l5.8,-8Z" class="g6_75"/>
<path fill-rule="evenodd" d="M799.8,827c.5,.1,.9,.1,1.2,.1c.8,0,1.4,-.2,2,-.6c.6,-.5,.9,-1.1,.9,-1.9c0,-.6,-.2,-1.1,-.6,-1.4c-.3,-.3,-.9,-.5,-1.7,-.5c-.2,0,-.3,0,-.6,0Zm1.4,-4.8c.3,0,.5,0,.7,0c1,0,1.7,-.2,2.2,-.7c.5,-.4,.8,-.9,.8,-1.6c0,-.5,-.2,-.9,-.5,-1.2c-.3,-.2,-.8,-.4,-1.4,-.4c-.2,0,-.4,0,-.7,.1Zm-1.5,-4.1l.1,-.3h3.5c.6,0,1.2,.1,1.6,.3c.5,.2,.8,.4,1,.8c.3,.3,.4,.7,.4,1c0,.6,-.2,1.1,-.6,1.6c-.4,.4,-1.1,.8,-2,1c.6,.2,1,.5,1.3,.9c.3,.3,.4,.7,.4,1.2c0,.5,-.1,.9,-.4,1.4c-.2,.4,-.5,.8,-.9,1c-.4,.3,-.9,.4,-1.4,.6c-.4,0,-1.1,.1,-1.9,.1h-3.6l.1,-.3c.4,0,.6,0,.8,-.1c.2,-.1,.3,-.2,.4,-.3c.1,-.2,.2,-.6,.4,-1.3l1.8,-6c.2,-.5,.2,-.8,.2,-1c0,-.2,0,-.3,-.2,-.4c-.1,-.1,-.4,-.2,-.7,-.2c-.1,0,-.2,0,-.3,0Z" class="g6_75"/>
<path fill-rule="evenodd" d="M799.8,703.4c.5,.1,1,.2,1.3,.2c.5,0,1,-.1,1.4,-.4c.5,-.2,.8,-.5,1.1,-.9c.2,-.5,.3,-.9,.3,-1.4c0,-.5,-.1,-.9,-.4,-1.2c-.3,-.2,-.8,-.4,-1.4,-.4c-.3,0,-.7,.1,-1.2,.1Zm-1.4,-4.6h3.9c1,0,1.8,.2,2.3,.6c.5,.5,.7,1,.7,1.6c0,.5,-.1,1,-.5,1.5c-.3,.5,-.7,.8,-1.4,1.1c-.6,.3,-1.3,.5,-2,.5c-.5,0,-1,-.1,-1.7,-.3l-.8,2.7c-.2,.7,-.3,1.1,-.3,1.3c0,.1,.1,.3,.2,.4c.1,.1,.4,.1,.9,.2v.2h-3.9v-.2c.6,0,.9,-.1,1.1,-.3c.2,-.2,.4,-.7,.7,-1.5l1.6,-5.6c.2,-.7,.3,-1.1,.3,-1.3c0,-.2,-.1,-.3,-.2,-.5c-.2,-.1,-.5,-.1,-.9,-.2Z" class="g6_75"/>
<path fill-rule="evenodd" d="M705.3,697l3,7.8l1.6,-5.8c.2,-.5,.2,-.9,.2,-1.1c0,-.2,0,-.3,-.1,-.4c-.2,-.1,-.4,-.2,-.7,-.2c-.1,0,-.2,0,-.2,0l.1,-.3h3.1l-.1,.3c-.3,0,-.5,0,-.7,.1c-.2,.1,-.4,.2,-.5,.4c-.2,.2,-.3,.6,-.5,1.2l-2.3,8.1h-.3l-3.2,-8.3l-1.8,6.1c-.1,.5,-.2,.9,-.2,1.1c0,.2,.1,.3,.2,.4c.1,.1,.4,.2,.9,.2l-.1,.3h-3.1l.1,-.3c.4,0,.7,0,.8,-.1c.2,-.1,.3,-.2,.4,-.3c.2,-.2,.3,-.7,.5,-1.3l1.9,-6.8c-.1,-.3,-.3,-.5,-.6,-.6c-.2,-.1,-.5,-.2,-1,-.2l.1,-.3Z" class="g6_75"/>
<path fill-rule="evenodd" d="M614.7,698.8l.9,7.9l5.7,-7.9h2.4v.2c-.6,.1,-.9,.1,-1,.1c-.1,.1,-.3,.2,-.4,.4c-.1,.2,-.3,.6,-.4,1.1l-1.8,6.3c-.1,.3,-.2,.6,-.2,.8c0,.2,.1,.4,.2,.4c.2,.2,.5,.3,.9,.3h.1v.2h-4.2l.1,-.2h.2c.4,0,.7,-.1,.9,-.2c.1,-.1,.2,-.2,.4,-.4c.1,-.3,.2,-.7,.5,-1.5l1.6,-5.7l-5.8,8h-.2l-1,-8l-1.7,6.1c-.2,.5,-.2,.9,-.2,1.1c0,.1,0,.3,.2,.4c.1,.1,.4,.1,.9,.2l-.1,.2h-3.2l.1,-.2h.2c.4,0,.8,-.2,1,-.4c.2,-.2,.3,-.6,.5,-1.1l2.1,-7.4c-.1,-.2,-.3,-.3,-.4,-.3c-.2,-.1,-.4,-.1,-.8,-.2v-.2Z" class="g6_75"/>
<path clip-path="url(#c1_75)" d="M827.8,667.9V824.2m-35,-156.3V824.2m-35,-156.3V824.2M573,676.3H837.3M722.8,667.9V824.2M573,711.5H837.3M687.8,667.9V824.2M573,746.6H837.3M652.8,667.9V824.2M573,781.8H837.3M617.8,667.9V824.2M573,816.9H837.3M582.8,667.9V824.2" class="g2_75"/>
<path d="M583.4,676h34.7m35,141.2L617.8,711.5L793,817.2L705.7,711.5L653.1,817.2Zm0,0H793V710.9L653.1,817.2Z" class="g4_75"/>
<path d="M618.1,672.8v6.5m-34.7,-6.5v6.5" class="g5_75"/>
<path fill-rule="evenodd" d="M587.5,659.6l2.4,-1.2h.2v8.3c0,.6,0,.9,.1,1.1c0,.1,.1,.2,.3,.3c.1,.1,.4,.1,.8,.1v.3h-3.7v-.3c.5,0,.8,0,.9,-.1c.2,-.1,.3,-.2,.3,-.3c.1,-.1,.1,-.5,.1,-1.1v-5.3c0,-.7,0,-1.1,-.1,-1.4c0,-.1,-.1,-.2,-.1,-.3c-.1,-.1,-.2,-.1,-.4,-.1c-.1,0,-.4,.1,-.7,.2Z" class="g6_75"/>
<path fill-rule="evenodd" d="M655,760.8l.8,-3.6h.3c-.1,.3,-.1,.6,-.1,.9c0,.6,.2,1.2,.7,1.6c.4,.4,.9,.6,1.6,.6c.6,0,1.1,-.2,1.5,-.6c.3,-.4,.4,-.8,.4,-1.3c0,-.3,0,-.6,-.2,-.9c-.2,-.4,-.8,-1.1,-1.8,-2.1c-.5,-.5,-.8,-.9,-.9,-1.1c-.2,-.4,-.3,-.8,-.3,-1.3c0,-.6,.2,-1.2,.7,-1.7c.5,-.5,1.2,-.8,2,-.8c.3,0,.5,.1,.8,.1c.1,.1,.4,.2,.8,.3c.3,.1,.4,.2,.4,.2c.1,0,.2,0,.3,0c.1,0,.2,0,.3,-.1c.1,-.1,.2,-.2,.4,-.5h.3l-.8,3.3H662c0,-.3,0,-.5,0,-.7c0,-.6,-.2,-1.1,-.6,-1.4c-.4,-.4,-.9,-.6,-1.5,-.6c-.5,0,-.9,.2,-1.2,.5c-.4,.2,-.5,.6,-.5,1c0,.3,.1,.6,.3,.9c.2,.4,.6,.9,1.4,1.6c.7,.6,1.2,1.2,1.4,1.6c.2,.4,.3,.8,.3,1.2c0,.5,-.1,1,-.4,1.5c-.3,.4,-.7,.8,-1.1,1.1c-.5,.2,-1.1,.3,-1.7,.3c-.2,0,-.5,0,-.8,0c-.2,-.1,-.6,-.2,-1.2,-.4c-.2,-.1,-.3,-.1,-.4,-.1c-.3,0,-.5,.2,-.7,.5Z" class="g6_75"/>
<path fill-rule="evenodd" d="M701.2,742.6l.8,-3.7h.2c0,.4,0,.7,0,.9c0,.7,.2,1.2,.6,1.6c.4,.4,1,.6,1.6,.6c.7,0,1.2,-.1,1.5,-.5c.3,-.4,.5,-.9,.5,-1.4c0,-.3,-.1,-.6,-.2,-.9c-.3,-.4,-.9,-1.1,-1.9,-2.1c-.4,-.5,-.7,-.9,-.9,-1.1c-.2,-.4,-.3,-.8,-.3,-1.2c0,-.7,.2,-1.3,.8,-1.8c.5,-.5,1.1,-.7,1.9,-.7c.3,0,.5,0,.8,.1c.1,0,.4,.1,.8,.2c.3,.2,.4,.2,.5,.2c0,0,.1,0,.2,0c.1,0,.3,0,.4,-.1c.1,0,.2,-.2,.3,-.4h.3l-.8,3.2h-.2c0,-.2,0,-.5,0,-.7c0,-.5,-.2,-1,-.6,-1.4c-.3,-.4,-.9,-.6,-1.5,-.6c-.5,0,-.9,.2,-1.2,.5c-.3,.3,-.5,.6,-.5,1c0,.3,.1,.7,.3,1c.2,.3,.7,.8,1.4,1.5c.7,.7,1.2,1.2,1.4,1.6c.2,.4,.3,.8,.3,1.3c0,.5,-.1,.9,-.4,1.4c-.2,.5,-.6,.8,-1.1,1.1c-.5,.3,-1,.4,-1.6,.4c-.3,0,-.6,0,-.8,-.1c-.3,-.1,-.7,-.2,-1.2,-.4c-.2,-.1,-.4,-.1,-.5,-.1c-.3,0,-.5,.2,-.7,.6Z" class="g6_75"/>
<path fill-rule="evenodd" d="M769.9,766.3l.8,-3.7h.3c-.1,.4,-.1,.7,-.1,.9c0,.7,.2,1.2,.7,1.6c.4,.4,.9,.6,1.6,.6c.6,0,1.1,-.2,1.5,-.5c.3,-.4,.4,-.9,.4,-1.4c0,-.3,0,-.6,-.2,-.9c-.2,-.4,-.8,-1.1,-1.8,-2.1c-.5,-.5,-.8,-.9,-.9,-1.1c-.2,-.4,-.3,-.8,-.3,-1.2c0,-.7,.2,-1.3,.7,-1.8c.5,-.5,1.2,-.7,2,-.7c.3,0,.5,0,.8,.1c.1,0,.4,.1,.8,.2c.3,.2,.4,.2,.4,.2c.1,0,.2,0,.3,0c.1,0,.2,0,.3,-.1c.1,0,.2,-.2,.4,-.4h.2l-.7,3.2h-.2c0,-.2,0,-.5,0,-.7c0,-.5,-.2,-1,-.6,-1.4c-.4,-.4,-.9,-.6,-1.5,-.6c-.5,0,-.9,.2,-1.2,.5c-.4,.3,-.5,.6,-.5,1c0,.3,.1,.7,.3,1c.2,.3,.6,.8,1.4,1.5c.7,.7,1.1,1.2,1.4,1.6c.2,.4,.3,.8,.3,1.3c0,.5,-.2,.9,-.4,1.4c-.3,.5,-.7,.8,-1.1,1.1c-.5,.2,-1.1,.4,-1.7,.4c-.2,0,-.5,-.1,-.8,-.1c-.2,-.1,-.6,-.2,-1.2,-.4c-.2,-.1,-.3,-.1,-.4,-.1c-.3,0,-.5,.2,-.7,.6Z" class="g6_75"/>
<path fill-rule="evenodd" d="M666.4,757.6l1.6,-.8h.1v5.5c0,.4,0,.6,.1,.7c0,.1,.1,.2,.2,.2c.1,.1,.3,.1,.6,.1v.2h-2.5v-.2c.3,0,.5,0,.6,-.1c.1,0,.1,-.1,.2,-.2c0,-.1,0,-.3,0,-.7v-3.5c0,-.5,0,-.8,0,-.9c0,-.2,-.1,-.2,-.1,-.3c-.1,0,-.2,0,-.3,0c-.1,0,-.2,0,-.4,.1Z" class="g6_75"/>
<path fill-rule="evenodd" d="M715.9,743.9l-.5,1.3h-3.8V745c1.1,-1,1.9,-1.9,2.4,-2.5c.4,-.7,.7,-1.3,.7,-1.8c0,-.4,-.2,-.8,-.4,-1.1c-.3,-.2,-.6,-.4,-.9,-.4c-.4,0,-.6,.1,-.9,.3c-.3,.2,-.4,.5,-.6,.9h-.1c0,-.6,.2,-1.1,.6,-1.4c.3,-.3,.7,-.5,1.2,-.5c.6,0,1,.2,1.4,.5c.3,.4,.5,.8,.5,1.2c0,.4,-.1,.7,-.2,1c-.3,.5,-.7,1.1,-1.2,1.7c-.8,.9,-1.3,1.4,-1.5,1.6h1.7c.4,0,.6,0,.7,-.1c.2,0,.3,0,.4,-.1c.1,-.1,.2,-.2,.3,-.4Z" class="g6_75"/>
<path fill-rule="evenodd" d="M780.6,763.6c.2,-.5,.4,-.8,.7,-1c.3,-.3,.7,-.4,1.1,-.4c.5,0,.9,.2,1.2,.5c.2,.3,.3,.5,.3,.8c0,.5,-.3,1,-.9,1.5c.4,.2,.7,.4,.9,.7c.2,.3,.3,.6,.3,1c0,.6,-.1,1.1,-.5,1.5c-.5,.5,-1.1,.8,-2,.8c-.5,0,-.8,0,-.9,-.1c-.2,-.2,-.3,-.3,-.3,-.4c0,-.1,.1,-.2,.1,-.2c.1,-.1,.2,-.2,.3,-.2c.1,0,.2,.1,.3,.1c0,0,.1,.1,.3,.2c.2,.1,.4,.1,.4,.1c.1,.1,.3,.1,.4,.1c.3,0,.6,-.1,.9,-.4c.2,-.2,.3,-.5,.3,-.9c0,-.2,0,-.5,-.1,-.7c-.1,-.2,-.2,-.4,-.3,-.4c-.2,-.2,-.3,-.3,-.6,-.4c-.2,-.1,-.5,-.2,-.7,-.2h-.2v-.1c.3,0,.5,-.1,.8,-.3c.2,-.1,.4,-.3,.5,-.5c.2,-.2,.2,-.5,.2,-.7c0,-.4,-.1,-.6,-.3,-.8c-.2,-.2,-.5,-.3,-.8,-.3c-.5,0,-.9,.2,-1.2,.8Z" class="g6_75"/>
<path fill-rule="evenodd" d="M279.7,376.6l-2.5,8.7c1.1,-1.7,1.9,-2.8,2.5,-3.3c.6,-.5,1.2,-.8,1.8,-.8c.3,0,.5,.1,.7,.3c.2,.2,.3,.4,.3,.8c0,.4,-.1,.8,-.3,1.4l-1.1,3.8c-.1,.4,-.2,.7,-.2,.7c0,.1,.1,.2,.1,.2q.1,.1,.2,.1q.1,0,.2,-.1c.4,-.3,.7,-.7,1.1,-1.1l.2,.2c-.2,.3,-.5,.6,-.8,1c-.4,.4,-.7,.6,-.9,.8c-.3,.1,-.5,.2,-.7,.2c-.3,0,-.4,-.1,-.6,-.2c-.1,-.1,-.2,-.3,-.2,-.6c0,-.2,.1,-.7,.3,-1.4l1.1,-3.6c.1,-.4,.2,-.8,.2,-1.1c0,-.1,-.1,-.2,-.2,-.2c0,-.1,-.1,-.2,-.3,-.2c-.1,0,-.3,.1,-.5,.2c-.4,.3,-.9,.8,-1.4,1.4c-.2,.2,-.7,1,-1.5,2.3c-.2,.4,-.4,.9,-.6,1.4l-.6,1.8h-1.3L277.6,379l.3,-1.1c0,-.1,0,-.3,-.1,-.4c-.2,-.1,-.3,-.2,-.5,-.2c-.1,0,-.3,.1,-.5,.1h-.2v-.3Z" class="g6_75"/>
<path fill-rule="evenodd" d="M290.7,387.4l-1.2,4l-.1,.6c0,0,0,.1,0,.1q0,.1,.1,.2h.1c0,0,.1,0,.2,-.1c.1,-.1,.3,-.3,.6,-.7l.2,.2c-.3,.4,-.6,.7,-.8,.9c-.3,.2,-.6,.3,-.9,.3c-.1,0,-.3,0,-.3,-.1c-.1,-.1,-.2,-.2,-.2,-.4c0,-.2,.1,-.4,.2,-.7l.1,-.5c-.5,.7,-1,1.2,-1.4,1.5c-.4,.1,-.7,.2,-1,.2c-.3,0,-.5,-.1,-.7,-.3c-.2,-.3,-.3,-.6,-.3,-1c0,-.6,.2,-1.3,.5,-2c.4,-.7,.9,-1.3,1.5,-1.7c.4,-.3,.9,-.5,1.3,-.5c.2,0,.4,.1,.6,.2c.1,.1,.3,.3,.3,.6l.3,-.7Zm-2.1,.3c-.3,0,-.5,.1,-.8,.4c-.4,.3,-.8,.8,-1.1,1.5c-.3,.6,-.5,1.2,-.5,1.8c0,.2,.1,.5,.2,.6c.2,.2,.3,.3,.5,.3c.4,0,.9,-.4,1.4,-1c.7,-.9,1,-1.7,1,-2.6c0,-.4,0,-.6,-.2,-.8c-.1,-.1,-.3,-.2,-.5,-.2Z" class="g6_75"/>
<path d="M317.1,385.1c4.5,6.8,7.8,6.3,12.7,4.4" class="g7_75"/>
<path fill-rule="evenodd" d="M322.9,386.5c.5,.4,1.1,.3,1.5,-.1c.4,-.4,.4,-1.1,0,-1.5c-.5,-.4,-1.1,-.3,-1.5,.1c-.4,.4,-.4,1.1,0,1.5Z" class="g6_75"/>
<path fill-rule="evenodd" d="M202.1,432l-.9,10.1c0,.5,-.1,.8,-.1,.9c0,.3,.1,.4,.2,.6c.1,.1,.2,.3,.4,.4c.2,0,.5,.1,1,.1l-.1,.3h-4.8l.1,-.3h.2c.4,0,.7,-.1,1,-.3c.2,-.1,.3,-.3,.4,-.5c0,-.2,.1,-.7,.2,-1.3l.1,-1.6h-3.5l-1.2,1.7c-.3,.4,-.4,.6,-.5,.8c-.1,.2,-.1,.3,-.1,.5c0,.2,0,.3,.2,.5c.2,.1,.4,.2,.8,.2l-.1,.3h-3.6l.1,-.3c.4,0,.8,-.2,1.2,-.5c.3,-.2,.8,-.8,1.5,-1.7l7.2,-9.9Zm-1.7,3l-3.6,4.8h3.1Z" class="g6_75"/>
<path fill-rule="evenodd" d="M366.6,433.9l.2,-.3h4.3c.7,0,1.4,.1,2,.3c.5,.2,.9,.5,1.2,.9c.3,.5,.5,.9,.5,1.3c0,.7,-.3,1.4,-.8,1.9c-.5,.6,-1.3,1,-2.5,1.3c.8,.3,1.3,.6,1.7,1.1c.3,.4,.5,.9,.5,1.5c0,.6,-.2,1.1,-.5,1.7c-.3,.5,-.7,1,-1.2,1.3c-.5,.3,-1.1,.5,-1.7,.6c-.5,.1,-1.3,.2,-2.3,.2h-4.5l.1,-.3c.5,0,.8,-.1,1,-.2c.2,-.1,.4,-.2,.5,-.4c.1,-.2,.3,-.7,.6,-1.5l2.1,-7.4c.2,-.6,.3,-1,.3,-1.3c0,-.2,-.1,-.4,-.2,-.5c-.2,-.1,-.5,-.2,-1,-.2c-.1,0,-.2,0,-.3,0m1.9,5c.4,0,.6,0,.8,0c1.2,0,2.2,-.2,2.8,-.8c.6,-.5,.9,-1.2,.9,-2c0,-.6,-.2,-1.1,-.6,-1.4c-.3,-.4,-.9,-.5,-1.7,-.5c-.3,0,-.5,0,-.9,.1Zm-1.8,6c.6,.1,1.1,.1,1.5,.1c.9,0,1.8,-.2,2.5,-.8c.7,-.6,1.1,-1.3,1.1,-2.3c0,-.7,-.3,-1.3,-.7,-1.7c-.4,-.4,-1.2,-.6,-2.2,-.6c-.1,0,-.4,0,-.7,0Z" class="g6_75"/>
<path fill-rule="evenodd" d="M318.6,319.6l-.9,4h-.3l-.1,-1c0,-.4,-.1,-.7,-.2,-1c-.1,-.3,-.2,-.5,-.4,-.7c-.3,-.2,-.5,-.4,-.9,-.5c-.3,-.1,-.7,-.2,-1.1,-.2c-1,0,-2,.3,-2.8,.9c-1,.8,-1.8,1.8,-2.4,3.2c-.4,1.1,-.7,2.2,-.7,3.4c0,1.2,.4,2.1,1.1,2.8c.6,.7,1.5,1,2.6,1c.9,0,1.6,-.1,2.2,-.5c.7,-.4,1.3,-.9,1.9,-1.7h.4c-.7,1,-1.4,1.8,-2.2,2.3c-.8,.5,-1.8,.7,-2.9,.7c-1,0,-1.8,-.2,-2.6,-.6c-.8,-.4,-1.4,-1,-1.8,-1.7c-.4,-.8,-.6,-1.6,-.6,-2.5c0,-1.3,.4,-2.6,1.1,-3.8c.7,-1.3,1.7,-2.3,2.9,-3c1.3,-.7,2.5,-1.1,3.8,-1.1c.6,0,1.2,.2,2,.5c.3,.1,.5,.1,.7,.1c.1,0,.2,0,.3,-.1c.1,0,.3,-.2,.6,-.5Z" class="g6_75"/>
<path d="M352.8,435.1H212.7l93.4,-97.2l46.7,97.2ZM214,434.5L325.9,380.4" class="g8_75"/>
<path fill-rule="evenodd" d="M346.8,373l-1.7,6l-.2,.8c-.1,.1,-.1,.2,-.1,.2c0,.1,.1,.2,.1,.3c.1,0,.1,.1,.2,.1c.1,0,.2,-.1,.3,-.2c.2,-.1,.6,-.5,.9,-1l.3,.2c-.4,.6,-.8,1.1,-1.2,1.4c-.5,.3,-.9,.5,-1.2,.5c-.3,0,-.5,-.1,-.6,-.2c-.1,-.2,-.2,-.3,-.2,-.6c0,-.3,.1,-.7,.2,-1.1l.2,-.7c-.8,1,-1.5,1.7,-2.2,2.1c-.4,.3,-.9,.5,-1.4,.5c-.4,0,-.8,-.2,-1.1,-.6c-.3,-.3,-.5,-.8,-.5,-1.5c0,-.9,.3,-1.9,.9,-3c.6,-1,1.3,-1.9,2.2,-2.5c.6,-.5,1.3,-.7,1.9,-.7c.4,0,.7,.1,.9,.2c.3,.2,.4,.5,.6,1l.3,-1Zm-3.2,.4c-.4,0,-.8,.2,-1.2,.6c-.6,.5,-1.1,1.2,-1.6,2.2c-.5,1,-.7,1.9,-.7,2.7c0,.4,.1,.7,.3,1c.2,.2,.4,.3,.7,.3c.6,0,1.3,-.4,2.1,-1.4c1,-1.3,1.5,-2.6,1.5,-3.9c0,-.5,-.1,-.9,-.3,-1.1c-.2,-.3,-.4,-.4,-.8,-.4Z" class="g6_75"/>
<path d="M461.6,99.5H473m18.3,37.8h11.4m-71.9,37.8h11.4" class="g1_75"/>
<path d="M73.6,253H835.8" class="g9_75"/>
<path d="M186.1,1077.3H836.8V839H186.1v238.3Z" class="ga_75"/>
<path d="M74.6,838.3H836.8M73.6,458.1H835.8M73.6,645.4H835.8" class="g9_75"/>
<path fill-rule="evenodd" d="M293.3,166l-2.5,8.4c1.1,-1.6,1.9,-2.6,2.5,-3.2c.6,-.5,1.2,-.7,1.7,-.7c.3,0,.5,.1,.7,.2c.2,.2,.3,.5,.3,.8c0,.4,-.1,.9,-.3,1.4l-1,3.6c-.2,.5,-.2,.7,-.2,.8q0,.1,0,.2q.1,0,.2,0c.1,0,.2,0,.3,-.1c.3,-.2,.6,-.6,1,-1l.2,.1c-.2,.3,-.5,.7,-.8,1.1c-.4,.3,-.7,.6,-.9,.7c-.3,.2,-.5,.2,-.7,.2c-.2,0,-.4,0,-.5,-.2c-.1,-.1,-.2,-.3,-.2,-.5c0,-.3,.1,-.7,.3,-1.4l1,-3.5c.1,-.4,.2,-.8,.2,-1c0,-.1,0,-.2,-.1,-.3c-.1,-.1,-.2,-.1,-.3,-.1c-.2,0,-.4,.1,-.6,.2c-.4,.2,-.8,.7,-1.3,1.3c-.2,.2,-.6,.9,-1.4,2.2c-.3,.4,-.5,.9,-.6,1.3l-.6,1.8h-1.3l2.9,-9.9l.3,-1.1c0,-.1,-.1,-.3,-.2,-.4c-.1,-.1,-.3,-.2,-.5,-.2c-.1,0,-.2,.1,-.5,.1h-.1v-.3Z" class="g6_75"/>
<path fill-rule="evenodd" d="M301.8,173.5l-1.1,4c.4,-.4,.7,-.7,.9,-.8c.3,-.1,.6,-.2,.9,-.2c.4,0,.8,.1,1.1,.4c.2,.3,.4,.7,.4,1.2c0,.6,-.2,1.2,-.6,1.8c-.3,.6,-.8,1.1,-1.3,1.5c-.5,.3,-1.1,.5,-1.6,.5c-.6,0,-1.2,-.2,-1.8,-.7l1.8,-6c.1,-.5,.2,-.8,.2,-.9c0,-.1,-.1,-.1,-.1,-.2c-.1,-.1,-.2,-.1,-.4,-.1c-.1,0,-.2,0,-.4,0v-.2Zm-2.2,7.8c.4,.2,.7,.3,1,.3c.3,0,.7,-.1,1.1,-.4c.3,-.2,.6,-.6,.9,-1.2c.3,-.6,.4,-1.2,.4,-1.8c0,-.4,-.1,-.7,-.3,-.9c-.1,-.2,-.3,-.3,-.6,-.3c-.3,0,-.7,.2,-1,.5c-.4,.3,-.6,.7,-.8,1.2Z" class="g6_75"/>
<path d="M253.2,170.7c7.3,3,9.7,.8,12.6,-3.4" class="gb_75"/>
<path fill-rule="evenodd" d="M258.6,168.6c.6,.1,1.1,-.3,1.2,-.8c0,-.6,-.4,-1.1,-.9,-1.2c-.6,-.1,-1.1,.3,-1.2,.9c0,.5,.3,1,.9,1.1Z" class="g6_75"/>
<path fill-rule="evenodd" d="M214,212l-.9,9.8c0,.4,0,.7,0,.9c0,.2,0,.4,.1,.5c.1,.2,.3,.3,.5,.4c.1,.1,.5,.1,.9,.1l-.1,.3h-4.6l.1,-.3h.2c.3,0,.6,-.1,.9,-.2c.2,-.1,.3,-.3,.4,-.6c0,-.2,.1,-.6,.2,-1.3l.1,-1.4h-3.4l-1.2,1.6c-.2,.3,-.4,.6,-.5,.8c-.1,.1,-.1,.3,-.1,.4c0,.2,.1,.4,.2,.5c.2,.1,.4,.2,.8,.2l-.1,.3H204l.1,-.3c.4,0,.8,-.2,1.1,-.4c.4,-.3,.8,-.9,1.5,-1.7l7,-9.6Zm-1.7,2.9l-3.4,4.6h3Z" class="g6_75"/>
<path fill-rule="evenodd" d="M338.9,213.3l.1,-.4h4.2c.7,0,1.3,.2,1.9,.4c.5,.2,.9,.5,1.2,.9c.3,.4,.4,.8,.4,1.2c0,.7,-.2,1.3,-.7,1.9c-.5,.5,-1.3,.9,-2.4,1.2c.7,.3,1.2,.6,1.6,1.1c.3,.4,.5,.9,.5,1.4c0,.6,-.2,1.2,-.5,1.7c-.3,.5,-.7,.9,-1.1,1.2c-.5,.3,-1.1,.5,-1.7,.7c-.5,.1,-1.3,.1,-2.3,.1h-4.3l.1,-.3c.5,0,.8,-.1,.9,-.1c.3,-.1,.4,-.3,.5,-.4c.2,-.2,.4,-.7,.6,-1.5l2.1,-7.2c.2,-.6,.3,-1,.3,-1.2c0,-.2,-.1,-.4,-.3,-.5c-.1,-.2,-.4,-.2,-.9,-.2c-.1,0,-.2,0,-.2,0m1.7,4.9c.4,0,.7,0,.8,0c1.2,0,2.1,-.3,2.7,-.8c.6,-.5,.9,-1.2,.9,-2c0,-.6,-.2,-1,-.5,-1.4c-.4,-.3,-1,-.5,-1.8,-.5c-.2,0,-.4,.1,-.7,.1Zm-1.7,5.8c.6,0,1.1,.1,1.5,.1c.9,0,1.7,-.3,2.4,-.8c.7,-.6,1,-1.3,1,-2.2c0,-.8,-.2,-1.3,-.6,-1.7c-.5,-.4,-1.1,-.6,-2.1,-.6c-.2,0,-.4,0,-.7,0Z" class="g6_75"/>
<path fill-rule="evenodd" d="M322.7,76.4l-.8,3.8h-.4v-1c0,-.3,-.1,-.6,-.2,-.9c-.1,-.3,-.3,-.5,-.5,-.7c-.2,-.2,-.4,-.4,-.8,-.5c-.3,-.1,-.6,-.1,-1,-.1c-1.1,0,-2,.2,-2.7,.8c-1,.7,-1.8,1.8,-2.4,3.1c-.4,1.1,-.7,2.2,-.7,3.3c0,1.1,.4,2,1,2.7c.7,.7,1.6,1,2.6,1c.8,0,1.6,-.1,2.2,-.5c.6,-.4,1.2,-.9,1.7,-1.7h.4c-.6,1.1,-1.3,1.8,-2.1,2.3c-.7,.5,-1.7,.7,-2.8,.7c-.9,0,-1.8,-.2,-2.5,-.6c-.8,-.4,-1.3,-1,-1.7,-1.7c-.4,-.7,-.6,-1.5,-.6,-2.4c0,-1.2,.3,-2.5,1,-3.7c.7,-1.2,1.7,-2.2,2.9,-2.9c1.2,-.7,2.4,-1,3.6,-1c.6,0,1.2,.1,1.9,.4c.4,.1,.6,.2,.7,.2c.2,0,.3,-.1,.4,-.1c.1,-.1,.3,-.2,.5,-.5Z" class="g6_75"/>
<path fill-rule="evenodd" d="M256.7,238.9c-.6,.7,-1.2,1.3,-1.8,1.6c-.6,.3,-1.3,.5,-2,.5c-.8,0,-1.4,-.2,-1.9,-.7c-.4,-.4,-.7,-1.1,-.7,-1.8c0,-.9,.3,-1.8,.8,-2.7c.5,-.8,1.1,-1.5,2,-2c.8,-.6,1.6,-.8,2.4,-.8c.7,0,1.1,.1,1.5,.3c.3,.3,.4,.6,.4,1c0,.4,-.1,.7,-.3,.9c-.2,.2,-.4,.3,-.6,.3c-.2,0,-.3,0,-.5,-.1c-.1,-.2,-.1,-.3,-.1,-.5c0,-.1,0,-.2,0,-.3c.1,-.1,.2,-.2,.3,-.3c.1,-.1,.2,-.2,.3,-.3q0,-.1,0,-.2c0,-.1,-.1,-.2,-.2,-.3c-.1,-.1,-.4,-.2,-.7,-.2c-.6,0,-1.1,.2,-1.7,.6c-.5,.4,-1,1,-1.4,1.7c-.5,.9,-.7,1.8,-.7,2.7c0,.6,.2,1.1,.5,1.4c.3,.4,.8,.5,1.4,.5c.4,0,.9,-.1,1.3,-.3c.4,-.2,.9,-.6,1.5,-1.2Z" class="g6_75"/>
<path fill-rule="evenodd" d="M278.2,229h6.3v.4l-3.9,11.7h-1l3.6,-10.7h-3.3c-.6,0,-1.1,.1,-1.4,.3c-.5,.2,-.9,.7,-1.2,1.2l-.2,-.1Z" class="g6_75"/>
<path fill-rule="evenodd" d="M262.5,234.2h9.2v.9h-9.2v-.9Zm0,3.3h9.2v.8h-9.2v-.8Z" class="g6_75"/>
<path fill-rule="evenodd" d="M343.3,146.9l-1.7,5.9l-.1,.8q-.1,.1,-.1,.2c0,.1,.1,.1,.1,.2q.1,.1,.2,.1c.1,0,.2,-.1,.3,-.1c.2,-.2,.5,-.6,.9,-1.1l.3,.2c-.4,.6,-.8,1.1,-1.2,1.4c-.5,.3,-.9,.5,-1.2,.5c-.3,0,-.5,-.1,-.6,-.2c-.1,-.1,-.2,-.3,-.2,-.6c0,-.2,.1,-.6,.2,-1.1l.2,-.6c-.8,1,-1.5,1.6,-2.1,2c-.4,.3,-.9,.5,-1.3,.5c-.5,0,-.8,-.2,-1.1,-.6c-.3,-.3,-.5,-.8,-.5,-1.4c0,-.9,.3,-1.9,.8,-2.9c.6,-1,1.3,-1.9,2.1,-2.5c.7,-.5,1.3,-.7,1.9,-.7c.4,0,.7,.1,.9,.3c.2,.2,.4,.5,.5,.9l.4,-1Zm-3.1,.4c-.3,0,-.7,.2,-1.1,.6c-.6,.5,-1.1,1.2,-1.6,2.2c-.5,.9,-.7,1.8,-.7,2.6c0,.4,.1,.7,.3,.9c.2,.2,.4,.4,.7,.4c.6,0,1.3,-.5,2,-1.4c1,-1.3,1.5,-2.6,1.5,-3.9c0,-.4,-.1,-.8,-.3,-1c-.2,-.2,-.4,-.4,-.8,-.4Z" class="g6_75"/>
<path fill-rule="evenodd" d="M363.5,155v-.3c.8,0,1.5,-.2,2.1,-.5c.7,-.4,1.3,-1,1.9,-1.8c.6,-.9,1,-1.8,1.3,-2.8c-1,.6,-1.8,.9,-2.5,.9c-.8,0,-1.6,-.4,-2.1,-1c-.6,-.6,-.9,-1.5,-.9,-2.5c0,-1.1,.3,-2,.9,-2.8c.7,-1,1.6,-1.5,2.8,-1.5c.9,0,1.7,.4,2.4,1.2c.9,1,1.3,2.2,1.3,3.7c0,1.3,-.3,2.5,-1,3.7c-.6,1.1,-1.5,2,-2.6,2.8c-1,.6,-2,.9,-3.1,.9Zm5.4,-6.1c.1,-.7,.2,-1.3,.2,-1.8c0,-.5,-.1,-1.1,-.3,-1.8c-.2,-.6,-.5,-1.1,-.8,-1.5c-.4,-.3,-.8,-.5,-1.2,-.5c-.6,0,-1,.2,-1.4,.7c-.4,.5,-.6,1.2,-.6,2.1c0,1.2,.3,2.1,.8,2.8c.4,.5,.8,.8,1.4,.8c.3,0,.6,-.1,.9,-.2c.4,-.1,.7,-.3,1,-.6Z" class="g6_75"/>
<path fill-rule="evenodd" d="M348.7,148.2h9.1v.8h-9.1v-.8Zm0,3.2h9.1v.9h-9.1v-.9Z" class="g6_75"/>
<path d="M310.8,93.6l20.7,123.1H217.8l93,-123.1ZM259,161.9l72.3,54.8" class="gb_75"/>
<path fill-rule="evenodd" d="M258.2,139.9l-1.7,6c.6,-.6,1.1,-1,1.5,-1.2c.4,-.2,.8,-.4,1.3,-.4c.6,0,1.1,.3,1.5,.7c.4,.4,.6,1,.6,1.7c0,.9,-.2,1.9,-.8,2.8c-.5,.9,-1.2,1.6,-2,2.1c-.8,.6,-1.6,.8,-2.3,.8c-.9,0,-1.8,-.3,-2.7,-1l2.6,-9.1c.2,-.7,.3,-1.1,.3,-1.2c0,-.1,0,-.3,-.1,-.3c-.2,-.1,-.4,-.2,-.6,-.2c-.1,0,-.3,0,-.6,.1v-.4Zm-3.3,11.6c.5,.3,1.1,.5,1.5,.5c.5,0,1,-.2,1.6,-.6c.5,-.3,1,-1,1.4,-1.8c.4,-.9,.6,-1.8,.6,-2.7c0,-.6,-.1,-1,-.4,-1.3c-.2,-.3,-.6,-.4,-.9,-.4c-.6,0,-1.1,.2,-1.6,.6c-.5,.4,-.9,1,-1.1,1.8Z" class="g6_75"/>
<path d="M709.5,330.7h11.4m-11.4,37.8h11.4" class="g1_75"/>
</svg>