<?xml version="1.0" encoding="UTF-8" standalone="no"?>
<!DOCTYPE svg PUBLIC "-//W3C//DTD SVG 1.1//EN"
"http://www.w3.org/Graphics/SVG/1.1/DTD/svg11.dtd">
<svg viewBox="0 0 909 1147" version="1.1" xmlns="http://www.w3.org/2000/svg" xmlns:xlink="http://www.w3.org/1999/xlink">
<defs>
<style type="text/css"><![CDATA[
.g0_10{
fill: #FAAF82;
}
.g1_10{
fill: #FFF1E0;
}
.g2_10{
fill: #0C4B7F;
}
.g3_10{
fill: none;
stroke: #0EA5DF;
stroke-width: 3.055;
}
.g4_10{
fill: #0EA5DF;
}
.g5_10{
fill: none;
stroke: #D82C20;
stroke-width: 0.763;
}
.g6_10{
fill: #D82C20;
}
.g7_10{
fill: none;
stroke: #00AEEF;
stroke-width: 0.763;
}
.g8_10{
fill: #00AEEF;
}
]]></style>
</defs>
<path d="M0,1131H73.8v-51.5H0V1131Z" class="g0_10"/>
<path d="M187.2,897.9h648V753.5h-648V897.9Z" class="g1_10"/>
<path d="M135.2,791.2h39.7V753.7H135.2v37.5Z" class="g2_10"/>
<path d="M0,141.1H120.6V0H0V141.1Z" class="g0_10"/>
<path d="M73.8,166.1H836" class="g3_10"/>
<path d="M185.6,494.8h648v-118h-648v118Z" class="g1_10"/>
<path d="M133.6,414.2h39.7V376.8H133.6v37.4Z" class="g4_10"/>
<path d="M73.8,518.3H836" class="g3_10"/>
<path d="M640.7,708.8c12.6,8.9,25.7,3.6,26.8,1.5" class="g5_10"/>
<path d="M670.8,703.9l-7.5,7c0,0,4.2,-.6,6.2,3.2l1.3,-10.2Z" class="g6_10"/>
<path d="M705.3,708.8c12.5,8.9,25.6,3.6,26.7,1.5" class="g5_10"/>
<path d="M735.4,703.9l-7.6,7c0,0,4.2,-.6,6.2,3.2l1.4,-10.2Z" class="g6_10"/>
<path d="M640.8,663.9c8,7.6,16.3,3.1,17,1.3" class="g5_10"/>
<path d="M660.4,658.5l-6.7,7.7c0,0,4.1,-1,6.5,2.5l.2,-10.2Z" class="g6_10"/>
<path d="M640.8,618.8c4.8,7.3,9.9,2.9,10.3,1.2" class="g5_10"/>
<path d="M652.8,613l-5.7,8.5c0,0,4,-1.5,6.8,1.7L652.8,613Z" class="g6_10"/>
<path d="M688.5,618.8c4.8,7.3,9.8,2.9,10.2,1.2" class="g5_10"/>
<path d="M700.4,613l-5.7,8.5c0,0,4,-1.5,6.9,1.7L700.4,613Z" class="g6_10"/>
<path d="M697.7,663.9c8,7.6,16.4,3.1,17.1,1.3" class="g5_10"/>
<path d="M717.4,658.5l-6.8,7.7c0,0,4.2,-1,6.6,2.5l.2,-10.2Z" class="g6_10"/>
<path d="M213.8,1024.4c4.8,7.3,9.9,2.9,10.3,1.2" class="g7_10"/>
<path d="M225.8,1018.6l-5.7,8.5c0,0,4,-1.5,6.8,1.7l-1.1,-10.2Z" class="g8_10"/>
<path d="M270.1,1024.4c4.8,7.3,9.9,2.9,10.3,1.2" class="g7_10"/>
<path d="M282.1,1018.6l-5.7,8.5c0,0,4,-1.5,6.8,1.7l-1.1,-10.2Z" class="g8_10"/>
<path d="M447.8,1023c8.1,7.3,16.6,3,17.4,1.2" class="g7_10"/>
<path d="M467.9,1017.5l-6.9,7.7c0,0,4.2,-1,6.5,2.6l.4,-10.3Z" class="g8_10"/>
<path d="M495.2,1023c8.1,7.3,16.7,3,17.4,1.2" class="g7_10"/>
<path d="M515.3,1017.5l-6.9,7.7c0,0,4.2,-1,6.5,2.6l.4,-10.3Z" class="g8_10"/>
<path d="M660.6,1021.7c12.4,8.8,25.3,3.6,26.4,1.5" class="g7_10"/>
<path d="M690.2,1016.8l-7.5,7c0,0,4.3,-.6,6.3,3.2l1.2,-10.2Z" class="g8_10"/>
<path d="M716.9,1021.7c12.4,8.8,25.3,3.6,26.4,1.5" class="g7_10"/>
<path d="M746.5,1016.8l-7.5,7c0,0,4.3,-.6,6.3,3.2l1.2,-10.2Z" class="g8_10"/>
<path d="M74.1,922.9H836.3" class="g3_10"/>
</svg>