<?xml version="1.0" encoding="UTF-8" standalone="no"?>
<!DOCTYPE svg PUBLIC "-//W3C//DTD SVG 1.1//EN"
"http://www.w3.org/Graphics/SVG/1.1/DTD/svg11.dtd">
<svg viewBox="0 0 909 1147" version="1.1" xmlns="http://www.w3.org/2000/svg" xmlns:xlink="http://www.w3.org/1999/xlink">
<defs>
<clipPath id="c0_145"><path d="M631.1,585.7V474.2H742.7V585.7Z"/></clipPath>
<clipPath id="c1_145"><path d="M0,1147.6V0H909.4V1147.6Z"/></clipPath>
<style type="text/css"><![CDATA[
.g0_145{
fill: #DCE5C9;
}
.g1_145{
fill: none;
stroke: #000;
stroke-width: 0.763;
}
.g2_145{
fill: #FFF;
}
.g3_145{
fill: none;
stroke: #000;
stroke-width: 0.469;
stroke-linejoin: round;
}
.g4_145{
fill: #FFF;
stroke: #000;
stroke-width: 0.469;
stroke-linejoin: round;
}
.g5_145{
fill: none;
stroke: #000;
stroke-width: 0.469;
stroke-linejoin: round;
stroke-dasharray: 3,2;
}
.g6_145{
fill: none;
stroke: #000;
stroke-width: 0.716;
stroke-miterlimit: 2;
}
.g7_145{
fill: #FEE7DC;
}
.g8_145{
fill: none;
stroke: #000;
stroke-width: 0.696;
stroke-miterlimit: 2;
}
.g9_145{
fill: #D4EFFC;
}
.ga_145{
fill: #FFFCDF;
}
.gb_145{
fill: #47A5AE;
}
.gc_145{
fill: none;
stroke: #6DCFF6;
stroke-width: 0.763;
stroke-miterlimit: 10;
}
.gd_145{
fill: none;
stroke: #000;
stroke-width: 1.197;
}
]]></style>
</defs>
<path d="M835.8,1131h73.6v-51.5H835.8V1131Z" class="g0_145"/>
<path d="M291.7,217.4h11.4m21.7,0h11.4m21.7,0h11.3M253.4,255.2h11.4m52.5,0h11.4m53.7,0h11.3m53.1,0h11.3M410.8,302h11.4m20.8,0h11.4M326.5,335.4h11.3m53.7,0h11.4m53,0h11.4m-183,182.8h11.3m-5.5,266.5h11.4" class="g1_145"/>
<path fill-rule="evenodd" d="M758.2,278h19l-10.4,7.7h-19Z" class="g2_145"/>
<path d="M758.2,278h19l-10.4,7.7h-19L758.2,278Z" class="g3_145"/>
<path fill-rule="evenodd" d="M777.2,278h19l-10.4,7.7h-19Z" class="g2_145"/>
<path d="M777.2,278h19l-10.4,7.7h-19L777.2,278Z" class="g3_145"/>
<path fill-rule="evenodd" d="M796.6,278h18.9l-10.4,7.7h-19Z" class="g2_145"/>
<path d="M796.6,278h18.9l-10.4,7.7h-19L796.6,278Z" class="g3_145"/>
<path fill-rule="evenodd" d="M766.7,285.9h19.1l-10.5,7.7h-19Z" class="g2_145"/>
<path d="M766.7,285.9h19.1l-10.5,7.7h-19l10.4,-7.7Z" class="g3_145"/>
<path d="M756.4,293.7L746,301.5h19l10.4,-7.8Z" class="g2_145"/>
<path d="M756.4,293.7h19L765,301.5H746l10.4,-7.8Z" class="g3_145"/>
<path fill-rule="evenodd" d="M796.2,278h19l-10.4,7.7h-19Z" class="g2_145"/>
<path d="M796.2,278h19l-10.4,7.7h-19L796.2,278Z" class="g3_145"/>
<path fill-rule="evenodd" d="M815.5,278h19.1l-10.5,7.7h-19Z" class="g2_145"/>
<path d="M815.5,278h19.1l-10.5,7.7h-19L815.5,278Z" class="g3_145"/>
<path fill-rule="evenodd" d="M785.8,285.9h19l-10.5,7.7h-19Z" class="g2_145"/>
<path d="M785.8,285.9h19l-10.5,7.7h-19l10.5,-7.7Z" class="g3_145"/>
<path fill-rule="evenodd" d="M805.1,285.9h19l-10.4,7.7H794.6Z" class="g2_145"/>
<path d="M805.1,285.9h19l-10.4,7.7H794.6l10.5,-7.7Z" class="g3_145"/>
<path d="M775.4,293.7L765,301.5h19l10.5,-7.8Z" class="g2_145"/>
<path d="M775.4,293.7h19.1L784,301.5H765l10.4,-7.8Z" class="g3_145"/>
<path d="M794.8,293.7l-10.5,7.8h19.1l10.4,-7.8Z" class="g2_145"/>
<path d="M794.8,293.7h19l-10.4,7.8H784.3l10.5,-7.8Z" class="g3_145"/>
<path fill-rule="evenodd" d="M766.6,266.5L777,258.6v19l-10.4,7.9Z" class="g2_145"/>
<path d="M766.6,266.5L777,258.6v19l-10.4,7.9v-19Z" class="g3_145"/>
<path fill-rule="evenodd" d="M756.1,274.4l10.4,-7.9v19l-10.4,8Z" class="g2_145"/>
<path d="M756.1,274.4l10.4,-7.9v19l-10.4,8V274.4Z" class="g3_145"/>
<path fill-rule="evenodd" d="M745.8,282.2l10.4,-7.9v19l-10.4,7.9Z" class="g2_145"/>
<path d="M745.8,282.2l10.4,-7.9v19l-10.4,7.9v-19Z" class="g3_145"/>
<path fill-rule="evenodd" d="M766.6,266.5h19v19h-19v-19Z" class="g4_145"/>
<path fill-rule="evenodd" d="M785.6,266.5L796,258.6v19l-10.4,7.9Z" class="g2_145"/>
<path d="M785.6,266.5L796,258.6v19l-10.4,7.9v-19Z" class="g3_145"/>
<path fill-rule="evenodd" d="M805,266.5l10.3,-7.9v19L805,285.5Z" class="g2_145"/>
<path d="M805,266.5l10.3,-7.9v19L805,285.5v-19Z" class="g3_145"/>
<path fill-rule="evenodd" d="M777,258.5h19.1l-10.5,7.8h-19Z" class="g2_145"/>
<path d="M777,258.5h19.1l-10.5,7.8h-19L777,258.5Z" class="g3_145"/>
<path fill-rule="evenodd" d="M756.1,274.4h19v19.1h-19V274.4Z" class="g4_145"/>
<path fill-rule="evenodd" d="M775.1,274.4l10.4,-7.9v19l-10.4,8Z" class="g2_145"/>
<path d="M775.1,274.4l10.4,-7.9v19l-10.4,8V274.4Z" class="g3_145"/>
<path fill-rule="evenodd" d="M794.5,274.4l10.4,-7.9v19l-10.4,8Z" class="g2_145"/>
<path d="M794.5,274.4l10.4,-7.9v19l-10.4,8V274.4Z" class="g3_145"/>
<path fill-rule="evenodd" d="M766.5,266.5h19.1l-10.5,7.7h-19Z" class="g2_145"/>
<path d="M766.5,266.5h19.1l-10.5,7.7h-19l10.4,-7.7Z" class="g3_145"/>
<path fill-rule="evenodd" d="M745.8,282.2h19.1v19H745.8v-19Z" class="g4_145"/>
<path fill-rule="evenodd" d="M764.9,282.2l10.3,-7.9v19l-10.3,7.9Z" class="g2_145"/>
<path d="M764.9,282.2l10.3,-7.9v19l-10.3,7.9v-19Z" class="g3_145"/>
<path fill-rule="evenodd" d="M784.2,282.2l10.3,-7.9v19l-10.3,7.9Z" class="g2_145"/>
<path d="M784.2,282.2l10.3,-7.9v19l-10.3,7.9v-19Z" class="g3_145"/>
<path fill-rule="evenodd" d="M756.3,274.2h19L764.9,282H745.8Z" class="g2_145"/>
<path d="M756.3,274.2h19L764.9,282H745.8l10.5,-7.8Z" class="g3_145"/>
<path fill-rule="evenodd" d="M785.6,266.5h19.1v19H785.6v-19Z" class="g4_145"/>
<path fill-rule="evenodd" d="M805,266.5h19v19H805v-19Z" class="g4_145"/>
<path fill-rule="evenodd" d="M804.7,266.5L815,258.6v19l-10.3,7.9Z" class="g2_145"/>
<path d="M804.7,266.5L815,258.6v19l-10.3,7.9v-19Z" class="g3_145"/>
<path fill-rule="evenodd" d="M824,266.5l10.3,-7.9v19L824,285.5Z" class="g2_145"/>
<path d="M824,266.5l10.3,-7.9v19L824,285.5v-19Z" class="g3_145"/>
<path fill-rule="evenodd" d="M796.1,258.5h19l-10.4,7.8H785.6Z" class="g2_145"/>
<path d="M796.1,258.5h19l-10.4,7.8H785.6l10.5,-7.8Z" class="g3_145"/>
<path fill-rule="evenodd" d="M815.4,258.5h19L824,266.3H805Z" class="g2_145"/>
<path d="M815.4,258.5h19L824,266.3H805l10.4,-7.8Z" class="g3_145"/>
<path fill-rule="evenodd" d="M775.1,274.4h19.1v19.1H775.1V274.4Z" class="g4_145"/>
<path fill-rule="evenodd" d="M794.5,274.4h19v19.1h-19V274.4Z" class="g4_145"/>
<path fill-rule="evenodd" d="M794.2,274.4l10.3,-7.9v19l-10.3,8Z" class="g2_145"/>
<path d="M794.2,274.4l10.3,-7.9v19l-10.3,8V274.4Z" class="g3_145"/>
<path fill-rule="evenodd" d="M813.5,274.4l10.4,-7.9v19l-10.4,8Z" class="g2_145"/>
<path d="M813.5,274.4l10.4,-7.9v19l-10.4,8V274.4Z" class="g3_145"/>
<path fill-rule="evenodd" d="M785.6,266.5h19l-10.4,7.7H775.1Z" class="g2_145"/>
<path d="M785.6,266.5h19l-10.4,7.7H775.1l10.5,-7.7Z" class="g3_145"/>
<path fill-rule="evenodd" d="M804.9,266.5h19l-10.4,7.7h-19Z" class="g2_145"/>
<path d="M804.9,266.5h19l-10.4,7.7h-19l10.4,-7.7Z" class="g3_145"/>
<path fill-rule="evenodd" d="M764.9,282.2h18.9v19H764.9v-19Z" class="g4_145"/>
<path fill-rule="evenodd" d="M784.2,282.2h19v19h-19v-19Z" class="g4_145"/>
<path fill-rule="evenodd" d="M803.2,282.2l10.4,-7.9v19l-10.4,7.9Z" class="g2_145"/>
<path d="M803.2,282.2l10.4,-7.9v19l-10.4,7.9v-19Z" class="g3_145"/>
<path fill-rule="evenodd" d="M775.3,274.2h19L783.8,282H764.9Z" class="g2_145"/>
<path d="M775.3,274.2h19L783.8,282H764.9l10.4,-7.8Z" class="g3_145"/>
<path fill-rule="evenodd" d="M794.6,274.2h19L803.2,282h-19Z" class="g2_145"/>
<path d="M794.6,274.2h19L803.2,282h-19l10.4,-7.8ZM745.9,223.7h58v58h-58v-58Z" class="g3_145"/>
<path d="M776.6,258.6v-58" class="g5_145"/>
<path d="M776.6,200.6h58v58h-58" class="g3_145"/>
<path d="M745.8,223.8l31,-23.1m26.6,23.1l31,-23.1" class="g6_145"/>
<g clip-path="url(#c0_145)">
<path fill-rule="evenodd" d="M687.1,530.3l3.1,-54.8c27.6,1.6,49.7,23.5,51.6,51c2,30.2,-20.8,56.4,-51,58.4Z" class="g7_145"/>
<path d="M687.1,530.3l3.1,-54.8c27.6,1.6,49.7,23.5,51.6,51c2,30.2,-20.8,56.4,-51,58.4l-3.7,-54.6Z" class="g8_145"/>
<path fill-rule="evenodd" d="M687,530.2l3.7,54.7c-28.8,2,-54.3,-18.8,-58.1,-47.5Z" class="g9_145"/>
<path d="M687,530.2l3.7,54.7c-28.8,2,-54.3,-18.8,-58.1,-47.5L687,530.2Z" class="g8_145"/>
<path fill-rule="evenodd" d="M687.1,530.3l-54.4,7.2c-.4,-3.4,-.5,-6.9,-.3,-10.3C634.1,497,660,473.9,690.2,475.6Z" class="ga_145"/>
<path d="M687.1,530.3l-54.4,7.2c-.4,-3.4,-.5,-6.9,-.3,-10.3C634.1,497,660,473.9,690.2,475.6l-3.1,54.7Z" class="g8_145"/>
</g>
<g clip-path="url(#c1_145)" opacity="0.5">
<path d="M702.7,936.3l-76.9,51.1l50.4,78.2Z" class="gb_145"/>
</g>
<path d="M612.8,922.4h13.3m-12.9,12.5V922.8m12.9,-.4h13m-13,12.5V922.8m13,-.4H652m-12.9,12.5V922.8m12.9,-.4h12.9M652,934.9V922.8m12.9,-.4h13m-13,12.5V922.8m13,-.4h12.9m-12.9,12.5V922.8m12.9,-.4h12.9m-12.9,12.5V922.8m12.9,-.4h13m-13,12.5V922.8m13,-.4h12.9m-12.9,12.5V922.8m12.9,-.4h12.9m-12.9,12.5V922.8m12.9,-.4h13m-13,12.5V922.8m13,-.4h13.3m-13.3,12.5V922.8m12.9,12.1V922.8M612.8,935.3h13.3m-12.9,12.6V935.7m12.9,-.4h13m-13,12.6V935.7m13,-.4H652m-12.9,12.6V935.7m12.9,-.4h12.9M652,947.9V935.7m12.9,-.4h13m-13,12.6V935.7m13,-.4h12.9m-12.9,12.6V935.7m12.9,-.4h12.9m-12.9,12.6V935.7m12.9,-.4h13m-13,12.6V935.7m13,-.4h12.9m-12.9,12.6V935.7m12.9,-.4h12.9m-12.9,12.6V935.7m12.9,-.4h13m-13,12.6V935.7m13,-.4h13.3m-13.3,12.6V935.7m12.9,12.2V935.7M612.8,948.3h13.3m-12.9,12.5V948.6m12.9,-.3h13m-13,12.5V948.6m13,-.3H652m-12.9,12.5V948.6m12.9,-.3h12.9M652,960.8V948.6m12.9,-.3h13m-13,12.5V948.6m13,-.3h12.9m-12.9,12.5V948.6m12.9,-.3h12.9m-12.9,12.5V948.6m12.9,-.3h13m-13,12.5V948.6m13,-.3h12.9m-12.9,12.5V948.6m12.9,-.3h12.9m-12.9,12.5V948.6m12.9,-.3h13m-13,12.5V948.6m13,-.3h13.3m-13.3,12.5V948.6m12.9,12.2V948.6M612.8,961.2h13.3m-12.9,12.5V961.6m12.9,-.4h13m-13,12.5V961.6m13,-.4H652m-12.9,12.5V961.6m12.9,-.4h12.9M652,973.7V961.6m12.9,-.4h13m-13,12.5V961.6m13,-.4h12.9m-12.9,12.5V961.6m12.9,-.4h12.9m-12.9,12.5V961.6m12.9,-.4h13m-13,12.5V961.6m13,-.4h12.9m-12.9,12.5V961.6m12.9,-.4h12.9m-12.9,12.5V961.6m12.9,-.4h13m-13,12.5V961.6m13,-.4h13.3m-13.3,12.5V961.6m12.9,12.1V961.6M612.8,974.1h13.3m-12.9,12.6V974.5m12.9,-.4h13m-13,12.6V974.5m13,-.4H652m-12.9,12.6V974.5m12.9,-.4h12.9M652,986.7V974.5m12.9,-.4h13m-13,12.6V974.5m13,-.4h12.9m-12.9,12.6V974.5m12.9,-.4h12.9m-12.9,12.6V974.5m12.9,-.4h13m-13,12.6V974.5m13,-.4h12.9m-12.9,12.6V974.5m12.9,-.4h12.9m-12.9,12.6V974.5m12.9,-.4h13m-13,12.6V974.5m13,-.4h13.3m-13.3,12.6V974.5m12.9,12.2V974.5M612.8,987.1h13.3m-12.9,12.5V987.4m12.9,-.3h13m-13,12.5V987.4m13,-.3H652m-12.9,12.5V987.4m12.9,-.3h12.9M652,999.6V987.4m12.9,-.3h13m-13,12.5V987.4m13,-.3h12.9m-12.9,12.5V987.4m12.9,-.3h12.9m-12.9,12.5V987.4m12.9,-.3h13m-13,12.5V987.4m13,-.3h12.9m-12.9,12.5V987.4m12.9,-.3h12.9m-12.9,12.5V987.4m12.9,-.3h13m-13,12.5V987.4m13,-.3h13.3m-13.3,12.5V987.4m12.9,12.2V987.4M612.8,1000h13.3m-12.9,12.5v-12.1m12.9,-.4h13m-13,12.5v-12.1m13,-.4H652m-12.9,12.5v-12.1M652,1000h12.9M652,1012.5v-12.1m12.9,-.4h13m-13,12.5v-12.1m13,-.4h12.9m-12.9,12.5v-12.1m12.9,-.4h12.9m-12.9,12.5v-12.1m12.9,-.4h13m-13,12.5v-12.1m13,-.4h12.9m-12.9,12.5v-12.1m12.9,-.4h12.9m-12.9,12.5v-12.1m12.9,-.4h13m-13,12.5v-12.1m13,-.4h13.3m-13.3,12.5v-12.1m12.9,12.1v-12.1m-155.6,12.5h13.3m-12.9,12.6v-12.2m12.9,-.4h13m-13,12.6v-12.2m13,-.4H652m-12.9,12.6v-12.2m12.9,-.4h12.9M652,1025.5v-12.2m12.9,-.4h13m-13,12.6v-12.2m13,-.4h12.9m-12.9,12.6v-12.2m12.9,-.4h12.9m-12.9,12.6v-12.2m12.9,-.4h13m-13,12.6v-12.2m13,-.4h12.9m-12.9,12.6v-12.2m12.9,-.4h12.9m-12.9,12.6v-12.2m12.9,-.4h13m-13,12.6v-12.2m13,-.4h13.3m-13.3,12.6v-12.2m12.9,12.2v-12.2m-155.6,12.6h13.3m-12.9,12.5v-12.2m12.9,-.3h13m-13,12.5v-12.2m13,-.3H652m-12.9,12.5v-12.2m12.9,-.3h12.9M652,1038.4v-12.2m12.9,-.3h13m-13,12.5v-12.2m13,-.3h12.9m-12.9,12.5v-12.2m12.9,-.3h12.9m-12.9,12.5v-12.2m12.9,-.3h13m-13,12.5v-12.2m13,-.3h12.9m-12.9,12.5v-12.2m12.9,-.3h12.9m-12.9,12.5v-12.2m12.9,-.3h13m-13,12.5v-12.2m13,-.3h13.3m-13.3,12.5v-12.2m12.9,12.2v-12.2m-155.6,12.6h13.3m-12.9,12.5v-12.1m12.9,-.4h13m-13,12.5v-12.1m13,-.4H652m-12.9,12.5v-12.1m12.9,-.4h12.9M652,1051.3v-12.1m12.9,-.4h13m-13,12.5v-12.1m13,-.4h12.9m-12.9,12.5v-12.1m12.9,-.4h12.9m-12.9,12.5v-12.1m12.9,-.4h13m-13,12.5v-12.1m13,-.4h12.9m-12.9,12.5v-12.1m12.9,-.4h12.9m-12.9,12.5v-12.1m12.9,-.4h13m-13,12.5v-12.1m13,-.4h13.3m-13.3,12.5v-12.1m12.9,12.1v-12.1m-155.6,12.5h13.3m-12.9,12.6v-12.2m12.9,-.4h13m-13,12.6v-12.2m13,-.4H652m-12.9,12.6v-12.2m12.9,-.4h12.9M652,1064.3v-12.2m12.9,-.4h13m-13,12.6v-12.2m13,-.4h12.9m-12.9,12.6v-12.2m12.9,-.4h12.9m-12.9,12.6v-12.2m12.9,-.4h13m-13,12.6v-12.2m13,-.4h12.9m-12.9,12.6v-12.2m12.9,-.4h12.9m-12.9,12.6v-12.2m12.9,-.4h13m-13,12.6v-12.2m13,-.4h13.3m-13.3,12.6v-12.2m12.9,12.2v-12.2m-155.6,12.6h13.3m-12.9,12.5V1065m12.9,-.3h13m-13,12.5V1065m13,-.3H652m-12.9,12.5V1065m12.9,-.3h12.9M652,1077.2V1065m12.9,-.3h13m-13,12.5V1065m13,-.3h12.9m-12.9,12.5V1065m12.9,-.3h12.9m-12.9,12.5V1065m12.9,-.3h13m-13,12.5V1065m13,-.3h12.9m-12.9,12.5V1065m12.9,-.3h12.9m-12.9,12.5V1065m12.9,-.3h13m-13,12.5V1065m13,-.3h13.3m-13.3,12.5V1065m12.9,12.2V1065m-155.6,12.6h13.3m0,0h13m0,0H652m0,0h12.9m0,0h13m0,0h12.9m0,0h12.9m0,0h13m0,0h12.9m0,0h12.9m0,0h13m0,0h13.3" class="gc_145"/>
<path d="M626.6,1064.9H755.9V935.5H626.6v129.4Z" class="g1_145"/>
<path d="M703.9,935.8L627,986.9l50.4,78.2L703.9,935.8Z" class="gd_145"/>
</svg>