<?xml version="1.0" encoding="UTF-8" standalone="no"?>
<!DOCTYPE svg PUBLIC "-//W3C//DTD SVG 1.1//EN"
"http://www.w3.org/Graphics/SVG/1.1/DTD/svg11.dtd">
<svg viewBox="0 0 909 1147" version="1.1" xmlns="http://www.w3.org/2000/svg" xmlns:xlink="http://www.w3.org/1999/xlink">
<defs>
<clipPath id="c0_92"><path d="M184.9,285.8V154.7H389.8V285.8Z"/></clipPath>
<clipPath id="c1_92"><path d="M203.2,566.3V429.2H340.4V566.3Z"/></clipPath>
<clipPath id="c2_92"><path d="M596.2,780.7v-139H799.4v139Z"/></clipPath>
<clipPath id="c3_92"><path d="M596.2,773.5V641.7H799.4V773.5Z"/></clipPath>
<clipPath id="c4_92"><path d="M375.5,566.3V429.2h77.1V566.3Z"/></clipPath>
<clipPath id="c5_92"><path d="M708.1,566.3V429.2h76.6V566.3Z"/></clipPath>
<clipPath id="c6_92"><path d="M540.9,566.3V429.2H663.4V566.3Z"/></clipPath>
<clipPath id="c7_92"><path d="M185.1,1080.7v-73.2h82v73.2Z"/></clipPath>
<style type="text/css"><![CDATA[
.g0_92{
fill: #B6D774;
}
.g1_92{
fill: #FFF1E0;
}
.g2_92{
fill: #000;
}
.g3_92{
fill: none;
stroke: #000;
stroke-width: 0.687;
stroke-miterlimit: 2;
}
.g4_92{
fill: none;
stroke: #8ED8F8;
stroke-width: 0.687;
stroke-miterlimit: 2;
}
.g5_92{
fill: none;
stroke: #000;
stroke-width: 0.962;
stroke-miterlimit: 2;
}
.g6_92{
fill: none;
stroke: #EC008C;
stroke-width: 0.962;
stroke-miterlimit: 2;
}
.g7_92{
fill: none;
stroke: #000;
stroke-width: 0.687;
stroke-miterlimit: 2;
stroke-dasharray: 4,3;
}
.g8_92{
fill: none;
stroke: #8ED8F8;
stroke-width: 0.572;
stroke-miterlimit: 2;
}
.g9_92{
fill: none;
stroke: #000;
stroke-width: 0.572;
stroke-miterlimit: 2;
}
.ga_92{
fill: none;
stroke: #000;
stroke-width: 1.155;
stroke-miterlimit: 2;
}
.gb_92{
fill: none;
stroke: #000;
stroke-width: 0.152;
stroke-miterlimit: 2;
}
.gc_92{
fill: none;
stroke: #000;
stroke-width: 0.763;
}
.gd_92{
fill: none;
stroke: #0EA5DF;
stroke-width: 3.055;
}
.ge_92{
fill: #FFF;
}
.gf_92{
fill: #FCD3C1;
}
.gg_92{
fill: none;
stroke: #000;
stroke-width: 0.764;
stroke-miterlimit: 2;
}
.gh_92{
fill: none;
stroke: #000;
stroke-width: 1.07;
stroke-miterlimit: 2;
}
.gi_92{
fill: none;
stroke: #ED1D24;
stroke-width: 1.07;
stroke-miterlimit: 2;
}
.gj_92{
fill: none;
stroke: #000;
stroke-width: 0.764;
stroke-miterlimit: 2;
stroke-dasharray: 4,3;
}
.gk_92{
fill: #0C4B7F;
}
.gl_92{
fill: #0EA5DF;
}
.gm_92{
fill: none;
stroke: #000;
stroke-width: 1.069;
stroke-miterlimit: 2;
}
.gn_92{
fill: none;
stroke: #000;
stroke-width: 0.763;
stroke-miterlimit: 2;
}
.go_92{
fill: none;
stroke: #D82C20;
stroke-width: 0.751;
}
.gp_92{
fill: none;
stroke: #000;
stroke-width: 0.751;
}
.gq_92{
fill: none;
stroke: #000;
stroke-width: 0.537;
}
]]></style>
</defs>
<path d="M0,1131H73.8v-51.5H0V1131Z" class="g0_92"/>
<path d="M184.4,933.3h651V845.1h-651v88.2Z" class="g1_92"/>
<path fill-rule="evenodd" d="M282.8,166.2l.1,-.3h3.5c1.4,0,2.5,.2,3.2,.5c.8,.3,1.3,.9,1.7,1.6c.5,.7,.7,1.5,.7,2.4c0,.7,-.1,1.4,-.4,2c-.2,.7,-.5,1.3,-.8,1.7c-.3,.4,-.8,.8,-1.4,1.3c-.7,.5,-1.4,.9,-2.1,1.1c-.8,.2,-1.7,.4,-2.8,.4h-4.6l.1,-.3c.4,-.1,.7,-.1,.8,-.2c.2,0,.4,-.2,.5,-.3c.2,-.3,.3,-.7,.5,-1.4l2,-6.6c.1,-.5,.2,-1,.2,-1.3c0,-.2,-.1,-.3,-.2,-.4c-.2,-.2,-.4,-.2,-.9,-.2Zm2.8,.3l-2.3,8.2c-.2,.6,-.3,1,-.3,1.1c0,.1,0,.2,.1,.3c0,.1,.1,.1,.2,.2c.2,0,.4,0,.7,0c.8,0,1.6,-.1,2.3,-.2c.8,-.2,1.3,-.5,1.8,-.8c.7,-.5,1.2,-1.2,1.6,-2.1c.4,-.9,.6,-1.9,.6,-3c0,-1.2,-.3,-2.2,-.9,-2.8c-.6,-.6,-1.5,-.9,-2.7,-.9c-.2,0,-.6,0,-1.1,0Z" class="g2_92"/>
<path fill-rule="evenodd" d="M355.6,166.8l-.8,3.5h-.3l-.1,-.9c0,-.3,0,-.6,-.1,-.8c-.1,-.3,-.3,-.5,-.5,-.7c-.2,-.2,-.4,-.3,-.7,-.4c-.3,-.1,-.6,-.2,-1,-.2c-1,0,-1.8,.3,-2.5,.8c-.9,.7,-1.7,1.6,-2.2,2.9c-.4,1,-.6,2,-.6,3c0,1.1,.3,2,.9,2.6c.6,.6,1.4,.9,2.4,.9c.8,0,1.4,-.1,2,-.5c.6,-.3,1.1,-.8,1.6,-1.5h.4c-.6,.9,-1.2,1.6,-2,2.1c-.7,.4,-1.5,.6,-2.5,.6c-.9,0,-1.7,-.1,-2.4,-.5c-.7,-.4,-1.2,-.9,-1.6,-1.6c-.3,-.7,-.5,-1.4,-.5,-2.2c0,-1.2,.3,-2.4,.9,-3.5c.7,-1.1,1.6,-2,2.7,-2.7c1.1,-.6,2.2,-.9,3.3,-.9c.6,0,1.2,.1,1.8,.4c.3,.1,.5,.1,.7,.1c.1,0,.2,0,.3,-.1c.1,0,.3,-.2,.5,-.4Z" class="g2_92"/>
<path fill-rule="evenodd" d="M217.5,268.5l-.9,9.1c0,.4,0,.7,0,.8c0,.2,0,.4,.1,.5c.1,.2,.2,.3,.4,.4c.2,0,.5,.1,.9,.1l-.1,.3h-4.3l.1,-.3h.2c.3,0,.6,-.1,.8,-.3c.2,-.1,.3,-.2,.4,-.5c0,-.1,.1,-.5,.1,-1.1l.2,-1.4h-3.2l-1.1,1.5c-.2,.3,-.4,.6,-.4,.7c-.1,.2,-.1,.3,-.1,.4c0,.2,0,.3,.2,.5c.1,.1,.3,.2,.7,.2l-.1,.3h-3.3l.1,-.3c.4,0,.8,-.2,1.1,-.4c.3,-.3,.7,-.8,1.3,-1.6l6.6,-8.9Zm-1.6,2.6l-3.2,4.4h2.7Z" class="g2_92"/>
<path fill-rule="evenodd" d="M376.3,269.8l.1,-.3h3.9c.6,0,1.2,.1,1.7,.3c.5,.2,.9,.5,1.2,.8c.2,.4,.4,.8,.4,1.2c0,.6,-.3,1.2,-.7,1.7c-.5,.5,-1.2,.9,-2.2,1.1c.6,.3,1.1,.6,1.4,1c.3,.4,.5,.9,.5,1.4c0,.5,-.2,1,-.4,1.5c-.3,.5,-.7,.9,-1.1,1.2c-.4,.3,-1,.5,-1.6,.6c-.4,.1,-1.1,.1,-2.1,.1h-4l.1,-.3c.5,0,.7,0,.9,-.1c.2,-.1,.4,-.2,.5,-.4c.1,-.2,.3,-.6,.5,-1.4l1.9,-6.6c.2,-.6,.3,-1,.3,-1.2c0,-.2,-.1,-.3,-.2,-.5c-.2,-.1,-.5,-.1,-.9,-.1c-.1,0,-.2,0,-.2,0m1.6,4.5c.3,0,.6,0,.8,0c1.1,0,1.9,-.2,2.4,-.7c.6,-.5,.9,-1.1,.9,-1.8c0,-.6,-.2,-1,-.5,-1.3c-.4,-.3,-.9,-.5,-1.6,-.5c-.2,0,-.5,0,-.8,.1Zm-1.6,5.4c.6,.1,1,.1,1.4,.1c.8,0,1.5,-.2,2.2,-.7c.6,-.5,1,-1.2,1,-2.1c0,-.7,-.2,-1.2,-.6,-1.5c-.4,-.4,-1.1,-.6,-2,-.6c-.1,0,-.4,0,-.6,0Z" class="g2_92"/>
<path d="M343.7,255.1c-7.3,.4,-10.8,3.9,-10.3,10.4m38.2,-71.8c-7.3,-.4,-10.7,-3.9,-10.3,-10.3M223.4,193.7c7.3,-.4,10.8,-3.9,10.3,-10.3m56.1,71.7c-7.3,.4,-10.7,3.9,-10.3,10.4" class="g3_92"/>
<path fill-rule="evenodd" d="M338.6,260.7c-.4,.2,-.5,.7,-.3,1.1c.2,.4,.6,.5,1,.3c.4,-.2,.6,-.6,.4,-1c-.2,-.4,-.7,-.6,-1.1,-.4Z" class="g2_92"/>
<path fill-rule="evenodd" d="M366.6,188.2c-.4,-.2,-.6,-.7,-.4,-1.1c.2,-.4,.7,-.6,1.1,-.4c.4,.2,.5,.7,.3,1.1c-.2,.4,-.6,.5,-1,.4Z" class="g2_92"/>
<path fill-rule="evenodd" d="M228.4,188.2c.4,-.2,.6,-.7,.4,-1.1c-.2,-.4,-.7,-.6,-1.1,-.4c-.4,.2,-.5,.7,-.3,1.1c.2,.4,.6,.5,1,.4Z" class="g2_92"/>
<path fill-rule="evenodd" d="M284.8,260.7c-.4,.2,-.6,.7,-.4,1.1c.2,.4,.7,.5,1.1,.3c.4,-.2,.6,-.6,.4,-1c-.2,-.4,-.7,-.6,-1.1,-.4Z" class="g2_92"/>
<path clip-path="url(#c0_92)" d="M206.3,265.4H391M206.3,238H391M206.3,210.6H391M206.3,183.3H391M206.3,155.9H391" class="g4_92"/>
<path d="M290.2,183.4h54.5l27,82.6h-149l67.5,-82.6Z" class="g5_92"/>
<path d="M290,183.6v82.1M223.3,183.6v82.1" class="g6_92"/>
<path d="M217.9,183.3H381.1" class="g7_92"/>
<path d="M344.3,183.6v82.1m27.3,-82.1v82.1" class="g6_92"/>
<path fill-rule="evenodd" d="M226.6,165.6l-.8,9.1c-.1,.5,-.1,.7,-.1,.9c0,.2,.1,.3,.1,.5c.1,.1,.3,.2,.5,.3c.1,.1,.4,.1,.8,.1l-.1,.3h-4.3l.1,-.3h.2c.4,0,.7,-.1,.9,-.2c.1,-.1,.3,-.3,.3,-.5c.1,-.2,.2,-.6,.2,-1.2l.1,-1.4h-3.1l-1.1,1.5c-.3,.4,-.4,.6,-.5,.8c0,.1,-.1,.2,-.1,.4c0,.1,.1,.3,.2,.4c.2,.1,.4,.2,.7,.2l-.1,.3h-3.2l.1,-.3c.4,0,.7,-.1,1,-.4c.4,-.2,.8,-.8,1.4,-1.6l6.5,-8.9Zm-1.6,2.7l-3.1,4.3h2.7Z" class="g2_92"/>
<path fill-rule="evenodd" d="M283.5,270.7l.1,-.3h3.5c1.5,0,2.6,.2,3.3,.5c.7,.4,1.3,.9,1.7,1.6c.4,.8,.6,1.6,.6,2.4c0,.7,-.1,1.4,-.3,2.1c-.3,.7,-.5,1.2,-.9,1.6c-.3,.4,-.7,.9,-1.4,1.4c-.6,.4,-1.3,.8,-2.1,1c-.7,.3,-1.6,.4,-2.8,.4h-4.6l.1,-.3c.5,0,.7,-.1,.9,-.1c.2,-.1,.4,-.2,.5,-.4c.1,-.2,.3,-.7,.5,-1.4l1.9,-6.6c.2,-.5,.2,-.9,.2,-1.2c0,-.2,0,-.4,-.2,-.5c-.1,-.1,-.4,-.2,-.8,-.2Zm2.9,.3l-2.4,8.2c-.2,.7,-.2,1,-.2,1.2q0,.1,0,.2c.1,.1,.2,.2,.3,.2c.1,0,.3,.1,.6,.1c.9,0,1.7,-.1,2.4,-.3c.7,-.2,1.3,-.4,1.8,-.8c.6,-.5,1.2,-1.2,1.5,-2c.4,-.9,.6,-1.9,.6,-3c0,-1.3,-.3,-2.3,-.9,-2.9c-.6,-.6,-1.5,-.9,-2.6,-.9c-.3,0,-.7,0,-1.1,0Z" class="g2_92"/>
<path fill-rule="evenodd" d="M351.7,270.2l-.8,3.5h-.3l-.1,-.9c0,-.3,0,-.6,-.1,-.8c-.1,-.3,-.3,-.5,-.5,-.7c-.2,-.2,-.4,-.3,-.7,-.4c-.3,-.1,-.6,-.2,-1,-.2c-1,0,-1.8,.3,-2.5,.8c-.9,.7,-1.7,1.6,-2.2,2.9c-.4,1,-.6,2,-.6,3c0,1.1,.3,2,.9,2.6c.6,.6,1.4,.9,2.4,.9c.8,0,1.4,-.1,2,-.5c.6,-.3,1.1,-.8,1.6,-1.5h.4c-.6,.9,-1.2,1.6,-1.9,2.1c-.8,.4,-1.6,.6,-2.6,.6c-.9,0,-1.7,-.1,-2.4,-.5c-.7,-.4,-1.2,-.9,-1.6,-1.6c-.3,-.7,-.5,-1.4,-.5,-2.2c0,-1.2,.3,-2.4,.9,-3.5c.7,-1.1,1.6,-2,2.7,-2.7c1.1,-.6,2.2,-.9,3.3,-.9c.6,0,1.2,.1,1.8,.4c.3,.1,.5,.1,.7,.1c.1,0,.2,0,.3,-.1c.1,0,.3,-.2,.5,-.4Z" class="g2_92"/>
<path fill-rule="evenodd" d="M371.2,167.2l.1,-.3h3.9c.6,0,1.2,.1,1.7,.3c.5,.2,.9,.5,1.2,.9c.2,.4,.4,.8,.4,1.2c0,.6,-.3,1.2,-.7,1.7c-.5,.5,-1.2,.9,-2.2,1.1c.6,.3,1.1,.6,1.4,1c.3,.4,.5,.8,.5,1.3c0,.6,-.2,1.1,-.4,1.6c-.3,.5,-.7,.9,-1.1,1.2c-.5,.2,-1,.4,-1.6,.6c-.4,.1,-1.1,.1,-2.1,.1h-4l.1,-.3c.5,0,.7,0,.9,-.1c.2,-.1,.4,-.2,.5,-.4c.1,-.2,.3,-.7,.5,-1.4l1.9,-6.6c.2,-.6,.3,-1,.3,-1.2c0,-.2,-.1,-.4,-.2,-.5c-.2,-.1,-.5,-.2,-.9,-.2c-.1,0,-.2,0,-.2,0m1.6,4.6c.3,0,.6,0,.7,0c1.2,0,2,-.2,2.5,-.7c.6,-.5,.9,-1.1,.9,-1.9c0,-.5,-.2,-.9,-.5,-1.3c-.4,-.3,-.9,-.4,-1.6,-.4c-.2,0,-.5,0,-.8,.1Zm-1.6,5.4c.6,.1,1,.1,1.4,.1c.8,0,1.5,-.3,2.2,-.8c.6,-.5,1,-1.2,1,-2c0,-.7,-.2,-1.2,-.6,-1.6c-.4,-.3,-1.1,-.5,-2,-.5c-.1,0,-.4,0,-.6,0Z" class="g2_92"/>
<path fill-rule="evenodd" d="M230.9,173.4l1.7,-.9h.2v6.2c0,.4,0,.7,.1,.8c0,.1,.1,.2,.2,.2c.1,.1,.3,.1,.6,.1v.2H231v-.2c.4,0,.6,0,.7,-.1c.1,0,.1,-.1,.2,-.2c0,-.1,0,-.4,0,-.8v-3.9c0,-.6,0,-.9,0,-1.1c0,-.1,-.1,-.2,-.1,-.2c-.1,-.1,-.2,-.1,-.3,-.1c-.1,0,-.3,.1,-.5,.2Z" class="g2_92"/>
<path fill-rule="evenodd" d="M295.1,278l1.8,-.9h.1v6.2c0,.4,.1,.6,.1,.7c0,.1,.1,.2,.2,.3c.1,0,.3,.1,.7,.1v.2h-2.8v-.2c.4,0,.6,-.1,.7,-.1c.1,-.1,.2,-.1,.2,-.2c0,-.1,.1,-.4,.1,-.8v-4c0,-.5,-.1,-.8,-.1,-1c0,-.1,-.1,-.2,-.1,-.2c-.1,-.1,-.2,-.1,-.3,-.1c-.1,0,-.3,0,-.5,.1Z" class="g2_92"/>
<path fill-rule="evenodd" d="M354,278l1.8,-.9h.2v6.2c0,.4,0,.6,0,.7c.1,.1,.2,.2,.3,.3c.1,0,.3,.1,.6,.1v.2h-2.7v-.2c.3,0,.5,-.1,.6,-.1c.1,-.1,.2,-.1,.3,-.2c0,-.1,0,-.4,0,-.8v-4c0,-.5,0,-.8,0,-1c-.1,-.1,-.1,-.2,-.2,-.2c0,-.1,-.1,-.1,-.2,-.1c-.2,0,-.3,0,-.6,.1Z" class="g2_92"/>
<path fill-rule="evenodd" d="M381.5,174.5l1.7,-.9h.2v6.2c0,.4,0,.7,.1,.8c0,.1,.1,.1,.2,.2c.1,0,.3,.1,.6,.1v.2h-2.7v-.2c.4,0,.6,-.1,.7,-.1q.1,-.1,.2,-.2c0,-.1,0,-.4,0,-.8v-4c0,-.5,0,-.8,0,-1c0,-.1,-.1,-.2,-.1,-.2c-.1,-.1,-.2,-.1,-.3,-.1c-.1,0,-.3,0,-.5,.2Z" class="g2_92"/>
<path fill-rule="evenodd" d="M193.8,262.1l-1.6,5.5l-.2,.7q0,.1,0,.2q0,.1,.1,.2c0,.1,.1,.1,.2,.1c0,0,.1,-.1,.2,-.1c.2,-.2,.5,-.5,.9,-1l.2,.2c-.3,.5,-.7,1,-1.1,1.3c-.4,.3,-.8,.4,-1.1,.4c-.2,0,-.4,-.1,-.5,-.2c-.1,-.1,-.2,-.3,-.2,-.5c0,-.2,.1,-.6,.2,-1l.2,-.6c-.7,.9,-1.4,1.5,-2,1.9c-.4,.3,-.8,.4,-1.2,.4c-.4,0,-.8,-.2,-1,-.5c-.3,-.3,-.5,-.8,-.5,-1.3c0,-.9,.3,-1.8,.8,-2.7c.5,-1,1.2,-1.8,2,-2.3c.6,-.5,1.2,-.7,1.7,-.7c.3,0,.6,.1,.8,.2c.2,.2,.4,.5,.5,.9l.3,-.9Zm-2.9,.4c-.3,0,-.7,.2,-1.1,.5c-.5,.5,-1,1.1,-1.4,2c-.5,.9,-.7,1.7,-.7,2.5c0,.3,.1,.6,.3,.8c.2,.3,.4,.4,.6,.4c.6,0,1.2,-.5,1.9,-1.3c.9,-1.2,1.4,-2.4,1.4,-3.6c0,-.4,-.1,-.8,-.3,-1c-.1,-.2,-.4,-.3,-.7,-.3Z" class="g2_92"/>
<path fill-rule="evenodd" d="M192.7,178l-1.5,5.6c.5,-.6,.9,-.9,1.3,-1.1c.4,-.2,.8,-.3,1.2,-.3c.6,0,1.1,.2,1.5,.6c.3,.3,.5,.9,.5,1.6c0,.8,-.2,1.7,-.7,2.5c-.5,.9,-1.1,1.6,-1.9,2.1c-.7,.4,-1.5,.7,-2.2,.7c-.8,0,-1.6,-.3,-2.5,-.9l2.5,-8.5c.2,-.7,.2,-1,.2,-1.2c0,-.1,0,-.2,-.1,-.3c-.1,-.1,-.3,-.1,-.5,-.1c-.1,0,-.3,0,-.5,0v-.3Zm-3.1,10.9c.6,.2,1,.4,1.4,.4c.5,0,1,-.2,1.5,-.5c.5,-.4,1,-1,1.3,-1.8c.4,-.8,.6,-1.6,.6,-2.5c0,-.5,-.1,-.9,-.4,-1.1c-.2,-.3,-.5,-.5,-.8,-.5c-.5,0,-1,.2,-1.5,.6c-.5,.4,-.8,1,-1,1.7Z" class="g2_92"/>
<path clip-path="url(#c1_92)" d="M597.4,429.6h15.1v15.2H597.4V429.6Zm0,15.2h15.1v15.1H597.4V444.8Zm0,15.1h15.1v15.2H597.4V459.9Zm0,15.2h15.1v15.1H597.4V475.1Zm0,15.1h15.1v15.2H597.4V490.2Zm0,15.2h15.1v15.1H597.4V505.4Zm0,15.1h15.1v15.2H597.4V520.5Zm0,15.2h15.1v15.1H597.4V535.7Zm0,15.1h15.1V566H597.4V550.8ZM536.8,444.7h15.1v15.1H536.8V444.7Zm0,-15.2h15.1v15.2H536.8V429.5ZM521.6,550.7h15.2v15.2H521.6V550.7Zm0,-15.1h15.2v15.1H521.6V535.6Zm0,-15.2h15.2v15.2H521.6V520.4Zm0,-15.1h15.2v15.1H521.6V505.3Zm0,-15.2h15.2v15.2H521.6V490.1Zm0,-15.1h15.2v15.1H521.6V475Zm0,-15.2h15.2V475H521.6V459.8Zm0,-15.1h15.2v15.1H521.6V444.7Zm0,-15.2h15.2v15.2H521.6V429.5ZM506.5,550.7h15.1v15.2H506.5V550.7Zm0,-15.1h15.1v15.1H506.5V535.6Zm0,-15.2h15.1v15.2H506.5V520.4Zm0,-15.1h15.1v15.1H506.5V505.3Zm0,-15.2h15.1v15.2H506.5V490.1Zm0,-15.1h15.1v15.1H506.5V475Zm0,-15.2h15.1V475H506.5V459.8Zm0,-15.1h15.1v15.1H506.5V444.7Zm0,-15.2h15.1v15.2H506.5V429.5ZM491.3,550.7h15.2v15.2H491.3V550.7Zm0,-15.1h15.2v15.1H491.3V535.6Zm0,-15.2h15.2v15.2H491.3V520.4Zm0,-15.1h15.2v15.1H491.3V505.3Zm0,-15.2h15.2v15.2H491.3V490.1Zm0,-15.1h15.2v15.1H491.3V475Zm0,-15.2h15.2V475H491.3V459.8Zm0,-15.1h15.2v15.1H491.3V444.7Zm0,-15.2h15.2v15.2H491.3V429.5ZM476.2,550.7h15.1v15.2H476.2V550.7Zm0,-15.1h15.1v15.1H476.2V535.6Zm0,-15.2h15.1v15.2H476.2V520.4Zm0,-15.1h15.1v15.1H476.2V505.3Zm0,-15.2h15.1v15.2H476.2V490.1Zm0,-15.1h15.1v15.1H476.2V475Zm0,-15.2h15.1V475H476.2V459.8Zm0,-15.1h15.1v15.1H476.2V444.7Zm0,-15.2h15.1v15.2H476.2V429.5ZM461,550.7h15.2v15.2H461V550.7Zm0,-15.1h15.2v15.1H461V535.6Zm0,-15.2h15.2v15.2H461V520.4Zm0,-15.1h15.2v15.1H461V505.3Zm0,-15.2h15.2v15.2H461V490.1ZM461,475h15.2v15.1H461V475Zm0,-15.2h15.2V475H461V459.8Zm0,-15.1h15.2v15.1H461V444.7Zm0,-15.2h15.2v15.2H461V429.5ZM445.9,550.7H461v15.2H445.9V550.7Zm0,-15.1H461v15.1H445.9V535.6Zm0,-15.2H461v15.2H445.9V520.4Zm0,-15.1H461v15.1H445.9V505.3Zm0,-15.2H461v15.2H445.9V490.1Zm0,-15.1H461v15.1H445.9V475Zm0,-15.2H461V475H445.9V459.8Zm0,-15.1H461v15.1H445.9V444.7Zm0,-15.2H461v15.2H445.9V429.5ZM430.7,550.7h15.2v15.2H430.7V550.7Zm0,-15.1h15.2v15.1H430.7V535.6Zm0,-15.2h15.2v15.2H430.7V520.4Zm0,-15.1h15.2v15.1H430.7V505.3Zm0,-15.2h15.2v15.2H430.7V490.1Zm0,-15.1h15.2v15.1H430.7V475Zm0,-15.2h15.2V475H430.7V459.8Zm0,-15.1h15.2v15.1H430.7V444.7Zm0,-15.2h15.2v15.2H430.7V429.5ZM415.6,550.7h15.1v15.2H415.6V550.7Zm0,-15.1h15.1v15.1H415.6V535.6Zm0,-15.2h15.1v15.2H415.6V520.4Zm0,-15.1h15.1v15.1H415.6V505.3Zm0,-15.2h15.1v15.2H415.6V490.1Zm0,-15.1h15.1v15.1H415.6V475Zm0,-15.2h15.1V475H415.6V459.8Zm0,-15.1h15.1v15.1H415.6V444.7Zm0,-15.2h15.1v15.2H415.6V429.5ZM400.4,550.7h15.2v15.2H400.4V550.7Zm0,-15.1h15.2v15.1H400.4V535.6Zm0,-15.2h15.2v15.2H400.4V520.4Zm0,-15.1h15.2v15.1H400.4V505.3Zm0,-15.2h15.2v15.2H400.4V490.1Zm0,-15.1h15.2v15.1H400.4V475Zm0,-15.2h15.2V475H400.4V459.8Zm0,-15.1h15.2v15.1H400.4V444.7Zm0,-15.2h15.2v15.2H400.4V429.5ZM385.3,550.7h15.1v15.2H385.3V550.7Zm0,-15.1h15.1v15.1H385.3V535.6Zm0,-15.2h15.1v15.2H385.3V520.4Zm0,-15.1h15.1v15.1H385.3V505.3Zm0,-15.2h15.1v15.2H385.3V490.1Zm0,-15.1h15.1v15.1H385.3V475Zm0,-15.2h15.1V475H385.3V459.8Zm0,-15.1h15.1v15.1H385.3V444.7Zm0,-15.2h15.1v15.2H385.3V429.5ZM370.1,550.7h15.2v15.2H370.1V550.7Zm0,-15.1h15.2v15.1H370.1V535.6Zm0,-15.2h15.2v15.2H370.1V520.4Zm0,-15.1h15.2v15.1H370.1V505.3Zm0,-15.2h15.2v15.2H370.1V490.1Zm0,-15.1h15.2v15.1H370.1V475Zm0,-15.2h15.2V475H370.1V459.8Zm0,-15.1h15.2v15.1H370.1V444.7Zm0,-15.2h15.2v15.2H370.1V429.5ZM355,550.7h15.1v15.2H355V550.7Zm0,-15.1h15.1v15.1H355V535.6Zm0,-15.2h15.1v15.2H355V520.4Zm0,-15.1h15.1v15.1H355V505.3Zm0,-15.2h15.1v15.2H355V490.1ZM355,475h15.1v15.1H355V475Zm0,-15.2h15.1V475H355V459.8Zm0,-15.1h15.1v15.1H355V444.7Zm0,-15.2h15.1v15.2H355V429.5ZM339.8,550.7H355v15.2H339.8V550.7Zm0,-15.1H355v15.1H339.8V535.6Zm0,-15.2H355v15.2H339.8V520.4Zm0,-15.1H355v15.1H339.8V505.3Zm0,-15.2H355v15.2H339.8V490.1Zm0,-15.1H355v15.1H339.8V475Zm0,-15.2H355V475H339.8V459.8Zm0,-15.1H355v15.1H339.8V444.7Zm0,-15.2H355v15.2H339.8V429.5ZM324.7,550.7h15.1v15.2H324.7V550.7Zm0,-15.1h15.1v15.1H324.7V535.6Zm0,-15.2h15.1v15.2H324.7V520.4Zm0,-15.1h15.1v15.1H324.7V505.3Zm0,-15.2h15.1v15.2H324.7V490.1Zm0,-15.1h15.1v15.1H324.7V475Zm0,-15.2h15.1V475H324.7V459.8Zm0,-15.1h15.1v15.1H324.7V444.7Zm0,-15.2h15.1v15.2H324.7V429.5ZM309.5,550.7h15.2v15.2H309.5V550.7Zm0,-15.1h15.2v15.1H309.5V535.6Zm0,-15.2h15.2v15.2H309.5V520.4Zm0,-15.1h15.2v15.1H309.5V505.3Zm0,-15.2h15.2v15.2H309.5V490.1Zm0,-15.1h15.2v15.1H309.5V475Zm0,-15.2h15.2V475H309.5V459.8Zm0,-15.1h15.2v15.1H309.5V444.7Zm0,-15.2h15.2v15.2H309.5V429.5ZM294.4,550.7h15.1v15.2H294.4V550.7Zm0,-15.1h15.1v15.1H294.4V535.6Zm0,-15.2h15.1v15.2H294.4V520.4Zm0,-15.1h15.1v15.1H294.4V505.3Zm0,-15.2h15.1v15.2H294.4V490.1Zm0,-15.1h15.1v15.1H294.4V475Zm0,-15.2h15.1V475H294.4V459.8Zm0,-15.1h15.1v15.1H294.4V444.7Zm0,-15.2h15.1v15.2H294.4V429.5ZM279.2,550.7h15.2v15.2H279.2V550.7Zm0,-15.1h15.2v15.1H279.2V535.6Zm0,-15.2h15.2v15.2H279.2V520.4Zm0,-15.1h15.2v15.1H279.2V505.3Zm0,-15.2h15.2v15.2H279.2V490.1Zm0,-15.1h15.2v15.1H279.2V475Zm0,-15.2h15.2V475H279.2V459.8Zm0,-15.1h15.2v15.1H279.2V444.7Zm0,-15.2h15.2v15.2H279.2V429.5ZM264.1,550.7h15.1v15.2H264.1V550.7Zm0,-15.1h15.1v15.1H264.1V535.6Zm0,-15.2h15.1v15.2H264.1V520.4Zm0,-15.1h15.1v15.1H264.1V505.3Zm0,-15.2h15.1v15.2H264.1V490.1Zm0,-15.1h15.1v15.1H264.1V475Zm0,-15.2h15.1V475H264.1V459.8Zm0,-15.1h15.1v15.1H264.1V444.7Zm0,-15.2h15.1v15.2H264.1V429.5ZM248.9,550.7h15.2v15.2H248.9V550.7Zm0,-15.1h15.2v15.1H248.9V535.6Zm0,-15.2h15.2v15.2H248.9V520.4Zm0,-15.1h15.2v15.1H248.9V505.3Zm0,-15.2h15.2v15.2H248.9V490.1Zm0,-15.1h15.2v15.1H248.9V475Zm0,-15.2h15.2V475H248.9V459.8Zm0,-15.1h15.2v15.1H248.9V444.7Zm0,-15.2h15.2v15.2H248.9V429.5ZM233.8,550.7h15.1v15.2H233.8V550.7Zm0,-15.1h15.1v15.1H233.8V535.6Zm0,-15.2h15.1v15.2H233.8V520.4Zm0,-15.1h15.1v15.1H233.8V505.3Zm0,-15.2h15.1v15.2H233.8V490.1Zm0,-15.1h15.1v15.1H233.8V475Zm0,-15.2h15.1V475H233.8V459.8Zm0,-15.1h15.1v15.1H233.8V444.7Zm0,-15.2h15.1v15.2H233.8V429.5ZM218.6,550.7h15.2v15.2H218.6V550.7Zm0,-15.1h15.2v15.1H218.6V535.6Zm0,-15.2h15.2v15.2H218.6V520.4Zm0,-15.1h15.2v15.1H218.6V505.3Zm0,-15.2h15.2v15.2H218.6V490.1Zm0,-15.1h15.2v15.1H218.6V475Zm0,-15.2h15.2V475H218.6V459.8Zm0,-15.1h15.2v15.1H218.6V444.7Zm0,-15.2h15.2v15.2H218.6V429.5ZM203.5,550.7h15.1v15.2H203.5V550.7Zm0,-15.1h15.1v15.1H203.5V535.6Zm0,-15.2h15.1v15.2H203.5V520.4Zm0,-15.1h15.1v15.1H203.5V505.3Zm0,-15.2h15.1v15.2H203.5V490.1Zm0,-15.1h15.1v15.1H203.5V475Zm0,-15.2h15.1V475H203.5V459.8Zm0,-15.1h15.1v15.1H203.5V444.7Zm0,-15.2h15.1v15.2H203.5V429.5Zm333.3,30.3h15.1V475H536.8V459.8Zm0,15.2h15.1v15.1H536.8V475Zm0,15.1h15.1v15.2H536.8V490.1Zm0,15.2h15.1v15.1H536.8V505.3Zm0,15.1h15.1v15.2H536.8V520.4Zm0,15.2h15.1v15.1H536.8V535.6Zm0,15.1h15.1v15.2H536.8V550.7ZM551.9,429.5h15.2v15.2H551.9V429.5Zm0,15.2h15.2v15.1H551.9V444.7Zm0,15.1h15.2V475H551.9V459.8Zm0,15.2h15.2v15.1H551.9V475Zm0,15.1h15.2v15.2H551.9V490.1Zm0,15.2h15.2v15.1H551.9V505.3Zm0,15.1h15.2v15.2H551.9V520.4Zm0,15.2h15.2v15.1H551.9V535.6Zm0,15.1h15.2v15.2H551.9V550.7ZM567.1,429.5h15.1v15.2H567.1V429.5Zm0,15.2h15.1v15.1H567.1V444.7Zm0,15.1h15.1V475H567.1V459.8Zm0,15.2h15.1v15.1H567.1V475Zm0,15.1h15.1v15.2H567.1V490.1Zm0,15.2h15.1v15.1H567.1V505.3Zm0,15.1h15.1v15.2H567.1V520.4Zm0,15.2h15.1v15.1H567.1V535.6Zm0,15.1h15.1v15.2H567.1V550.7ZM582.2,429.5h15.2v15.2H582.2V429.5Zm0,15.2h15.2v15.1H582.2V444.7Zm0,15.1h15.2V475H582.2V459.8Zm0,15.2h15.2v15.1H582.2V475Zm0,15.1h15.2v15.2H582.2V490.1Zm0,15.2h15.2v15.1H582.2V505.3Zm0,15.1h15.2v15.2H582.2V520.4Zm0,15.2h15.2v15.1H582.2V535.6Zm0,15.1h15.2v15.2H582.2V550.7Z" class="g8_92"/>
<path d="M218.1,444.4h15.6" class="g9_92"/>
<path d="M233.7,441.4v6.1m-15.6,-6.1v6.1" class="ga_92"/>
<path fill-rule="evenodd" d="M206.9,432.2l2.2,-1.1h.2v7.7c0,.5,.1,.8,.1,1c0,.1,.1,.2,.3,.3c.1,0,.4,.1,.8,.1v.2h-3.4v-.2c.4,0,.7,-.1,.8,-.1c.1,-.1,.2,-.2,.3,-.3c0,-.1,0,-.4,0,-1v-4.9c0,-.7,0,-1.1,0,-1.3c-.1,-.1,-.1,-.2,-.2,-.3c-.1,-.1,-.2,-.1,-.3,-.1c-.2,0,-.4,.1,-.7,.2Z" class="g2_92"/>
<path d="M206.9,432.2l2.2,-1.1h.2v7.7c0,.5,.1,.8,.1,1c0,.1,.1,.2,.3,.3c.1,0,.4,.1,.8,.1v.2h-3.4v-.2c.4,0,.7,-.1,.8,-.1c.1,-.1,.2,-.2,.3,-.3c0,-.1,0,-.4,0,-1v-4.9c0,-.7,0,-1.1,0,-1.3c-.1,-.1,-.1,-.2,-.2,-.3c-.1,-.1,-.2,-.1,-.3,-.1c-.2,0,-.4,.1,-.7,.2l-.1,-.2Z" class="gb_92"/>
<path fill-rule="evenodd" d="M220,438.8l1.9,-4.5H224v.2c-.3,0,-.5,.1,-.6,.1c-.1,.1,-.2,.1,-.2,.2c-.1,.1,-.1,.4,-.1,.9V439c0,.4,0,.7,0,.8c.1,.1,.2,.2,.3,.3c.1,0,.3,.1,.6,.1v.2h-3v-.2c.4,0,.6,-.1,.8,-.2c.1,-.2,.1,-.5,.1,-1v-3.7l-2.1,5.1h-.3l-2.2,-5.1V439c0,.4,0,.7,.1,.8c0,.1,.1,.2,.3,.3c.1,0,.3,.1,.6,.1v.2h-2.4v-.2c.4,0,.7,-.1,.8,-.2c.1,-.2,.1,-.5,.1,-1v-3.3c0,-.5,0,-.7,0,-.8c-.1,-.1,-.2,-.2,-.3,-.3c-.1,0,-.3,-.1,-.6,-.1v-.2h2.2Z" class="g2_92"/>
<path d="M220,438.8l1.9,-4.5H224v.2c-.3,0,-.5,.1,-.6,.1c-.1,.1,-.2,.1,-.2,.2c-.1,.1,-.1,.4,-.1,.9V439c0,.4,0,.7,0,.8c.1,.1,.2,.2,.3,.3c.1,0,.3,.1,.6,.1v.2h-3v-.2c.4,0,.6,-.1,.8,-.2c.1,-.2,.1,-.5,.1,-1v-3.7l-2.1,5.1h-.3l-2.2,-5.1V439c0,.4,0,.7,.1,.8c0,.1,.1,.2,.3,.3c.1,0,.3,.1,.6,.1v.2h-2.4v-.2c.4,0,.7,-.1,.8,-.2c.1,-.2,.1,-.5,.1,-1v-3.3c0,-.5,0,-.7,0,-.8c-.1,-.1,-.2,-.2,-.3,-.3c-.1,0,-.3,-.1,-.6,-.1v-.2h2.2l1.9,4.5Z" class="gb_92"/>
<path fill-rule="evenodd" d="M226,439.1c.2,0,.4,.1,.5,.2c.2,.2,.3,.4,.3,.6c0,.2,-.1,.3,-.3,.5c-.1,.1,-.3,.2,-.5,.2c-.2,0,-.4,-.1,-.5,-.2c-.2,-.2,-.2,-.3,-.2,-.5c0,-.2,0,-.4,.2,-.6c.1,-.1,.3,-.2,.5,-.2Z" class="g2_92"/>
<path d="M226,439.1c.2,0,.4,.1,.5,.2c.2,.2,.3,.4,.3,.6c0,.2,-.1,.3,-.3,.5c-.1,.1,-.3,.2,-.5,.2c-.2,0,-.4,-.1,-.5,-.2c-.2,-.2,-.2,-.3,-.2,-.5c0,-.2,0,-.4,.2,-.6c.1,-.1,.3,-.2,.5,-.2Z" class="gb_92"/>
<path fill-rule="evenodd" d="M232.6,436.2h2.9c0,-.4,-.1,-.7,-.2,-.8c-.1,-.3,-.2,-.5,-.5,-.6c-.2,-.2,-.4,-.2,-.7,-.2c-.3,0,-.7,.1,-.9,.4c-.3,.3,-.5,.7,-.6,1.2m0,.4c0,.9,.3,1.6,.7,2.1c.4,.6,1,.8,1.6,.8c.4,0,.7,-.1,1,-.3c.3,-.2,.6,-.6,.8,-1.2l.2,.2c-.1,.6,-.4,1.1,-.8,1.7c-.5,.5,-1.1,.7,-1.7,.7c-.8,0,-1.4,-.3,-1.9,-.9c-.6,-.5,-.8,-1.3,-.8,-2.3c0,-1,.3,-1.8,.8,-2.4c.5,-.6,1.2,-.9,2,-.9c.7,0,1.3,.2,1.7,.7c.5,.4,.7,1,.7,1.8Z" class="g2_92"/>
<path d="M232.6,436.2h2.9c0,-.4,-.1,-.7,-.2,-.8c-.1,-.3,-.2,-.5,-.5,-.6c-.2,-.2,-.4,-.2,-.7,-.2c-.3,0,-.7,.1,-.9,.4c-.3,.3,-.5,.7,-.6,1.2Zm0,.4c0,.9,.3,1.6,.7,2.1c.4,.6,1,.8,1.6,.8c.4,0,.7,-.1,1,-.3c.3,-.2,.6,-.6,.8,-1.2l.2,.2c-.1,.6,-.4,1.1,-.8,1.7c-.5,.5,-1.1,.7,-1.7,.7c-.8,0,-1.4,-.3,-1.9,-.9c-.6,-.5,-.8,-1.3,-.8,-2.3c0,-1,.3,-1.8,.8,-2.4c.5,-.6,1.2,-.9,2,-.9c.7,0,1.3,.2,1.7,.7c.5,.4,.7,1,.7,1.8h-4.3Z" class="gb_92"/>
<path fill-rule="evenodd" d="M239.8,434.7v.4c0,2.2,-.4,3.8,-1.1,4.9h2.2c.4,0,.7,-.1,.7,-.1c.1,-.1,.1,-.3,.1,-.8v-4.4Zm-1.4,-.4h5.4v.2c-.3,0,-.5,.1,-.6,.1c-.1,.1,-.2,.1,-.3,.2c0,.1,0,.4,0,.9v3.1c0,.6,0,1,.1,1.1c.1,.2,.4,.3,.8,.3v1.9h-.3c0,-.3,-.1,-.7,-.2,-.9c-.2,-.3,-.4,-.5,-.7,-.6c-.3,-.1,-.7,-.2,-1.3,-.2h-1.6c-.5,0,-.9,.1,-1.1,.1c-.3,.1,-.6,.3,-.7,.6c-.2,.3,-.3,.6,-.4,1h-.2v-1.9c.3,0,.7,-.2,1,-.5c.3,-.2,.5,-.8,.8,-1.6c.2,-.8,.3,-1.6,.3,-2.4c0,-.8,-.3,-1.2,-1,-1.2Z" class="g2_92"/>
<path d="M239.8,434.7v.4c0,2.2,-.4,3.8,-1.1,4.9h2.2c.4,0,.7,-.1,.7,-.1c.1,-.1,.1,-.3,.1,-.8v-4.4h-1.9Zm-1.4,-.4h5.4v.2c-.3,0,-.5,.1,-.6,.1c-.1,.1,-.2,.1,-.3,.2c0,.1,0,.4,0,.9v3.1c0,.6,0,1,.1,1.1c.1,.2,.4,.3,.8,.3v1.9h-.3c0,-.3,-.1,-.7,-.2,-.9c-.2,-.3,-.4,-.5,-.7,-.6c-.3,-.1,-.7,-.2,-1.3,-.2h-1.6c-.5,0,-.9,.1,-1.1,.1c-.3,.1,-.6,.3,-.7,.6c-.2,.3,-.3,.6,-.4,1h-.2v-1.9c.3,0,.7,-.2,1,-.5c.3,-.2,.5,-.8,.8,-1.6c.2,-.8,.3,-1.6,.3,-2.4c0,-.8,-.3,-1.2,-1,-1.2v-.2Z" class="gb_92"/>
<path fill-rule="evenodd" d="M245.8,439.1c.2,0,.4,.1,.5,.2c.2,.2,.3,.4,.3,.6c0,.2,-.1,.3,-.3,.5c-.1,.1,-.3,.2,-.5,.2c-.2,0,-.4,-.1,-.5,-.2c-.2,-.2,-.2,-.3,-.2,-.5c0,-.2,0,-.4,.2,-.6c.1,-.1,.3,-.2,.5,-.2Z" class="g2_92"/>
<path d="M245.8,439.1c.2,0,.4,.1,.5,.2c.2,.2,.3,.4,.3,.6c0,.2,-.1,.3,-.3,.5c-.1,.1,-.3,.2,-.5,.2c-.2,0,-.4,-.1,-.5,-.2c-.2,-.2,-.2,-.3,-.2,-.5c0,-.2,0,-.4,.2,-.6c.1,-.1,.3,-.2,.5,-.2Z" class="gb_92"/>
<path clip-path="url(#c1_92)" d="M264.2,444.4h45.6l15.5,76.2H233.1l31.1,-76.2Zm91.4,0h45.6V550.7L355.6,490V444.4Zm90.3,.6h75.7L475.4,551.2l-45.6,-.5L445.9,445Zm105.9,30l45.7,-30V551.2L551.8,520.1V475Z" class="g9_92"/>
<path d="M419.3,1030.1h37.2" class="gc_92"/>
<path d="M73.6,397.8H835.8" class="gd_92"/>
<path d="M185.3,832.2H836.4V624.3H185.3V832.2Z" class="g1_92"/>
<path d="M612.6,752.9L688,660.5l89.2,92.4Z" class="ge_92"/>
<path d="M688.6,661.7h59.9l29.9,91.2Z" class="gf_92"/>
<path clip-path="url(#c2_92)" fill-rule="evenodd" d="M682.3,642.3l-2.6,9.2c-.2,.6,-.3,1.1,-.3,1.2c0,.1,0,.2,.1,.3c.1,.1,.2,.2,.3,.2c.1,0,.4,.1,.7,.1c1,0,1.8,-.1,2.6,-.3c.8,-.2,1.5,-.5,2,-.9c.7,-.6,1.3,-1.3,1.7,-2.3c.5,-1,.7,-2.1,.7,-3.3c0,-1.4,-.3,-2.5,-1,-3.2c-.7,-.7,-1.6,-1,-2.9,-1c-.3,0,-.8,0,-1.3,0m-3.1,-.3l.1,-.3h3.8c1.7,0,2.9,.2,3.7,.5c.8,.4,1.4,1,1.9,1.8c.5,.8,.7,1.7,.7,2.6c0,.8,-.1,1.6,-.4,2.3c-.3,.8,-.6,1.4,-.9,1.9c-.4,.4,-.9,.9,-1.6,1.4c-.7,.6,-1.5,1,-2.3,1.3c-.9,.2,-1.9,.3,-3.1,.3h-5.2l.1,-.3c.5,0,.8,0,1,-.1c.2,-.1,.4,-.3,.5,-.4c.2,-.3,.4,-.8,.6,-1.5l2.2,-7.4c.1,-.6,.2,-1,.2,-1.4c0,-.2,-.1,-.4,-.2,-.5c-.2,-.1,-.5,-.2,-.9,-.2Z" class="g2_92"/>
<path fill-rule="evenodd" d="M760.1,642.6l-.9,4h-.3l-.1,-1c0,-.4,-.1,-.7,-.2,-1c-.1,-.2,-.2,-.5,-.4,-.7c-.3,-.2,-.5,-.4,-.9,-.5c-.3,-.1,-.7,-.2,-1.1,-.2c-1,0,-2,.3,-2.8,.9c-1,.8,-1.8,1.8,-2.4,3.2c-.4,1.1,-.7,2.3,-.7,3.4c0,1.2,.4,2.1,1.1,2.8c.6,.7,1.5,1.1,2.6,1.1c.9,0,1.6,-.2,2.2,-.6c.7,-.3,1.3,-.9,1.9,-1.7h.4c-.7,1.1,-1.4,1.8,-2.2,2.3c-.8,.5,-1.8,.8,-2.9,.8c-1,0,-1.9,-.2,-2.6,-.6c-.8,-.5,-1.4,-1,-1.8,-1.8c-.4,-.8,-.6,-1.6,-.6,-2.4c0,-1.4,.4,-2.7,1.1,-3.9c.7,-1.3,1.7,-2.3,2.9,-3c1.3,-.7,2.5,-1.1,3.8,-1.1c.6,0,1.2,.2,2,.5c.3,.1,.5,.1,.7,.1c.1,0,.2,0,.3,0c.1,-.1,.3,-.3,.6,-.6Z" class="g2_92"/>
<path fill-rule="evenodd" d="M604.8,758.6l-3.6,4.8h3.1Zm1.7,-3l-.9,10.1c0,.5,-.1,.8,-.1,1c0,.2,.1,.4,.2,.5c.1,.2,.2,.3,.4,.4c.2,.1,.6,.1,1,.1l-.1,.3h-4.8l.1,-.3h.2c.4,0,.8,-.1,1,-.2c.2,-.2,.3,-.3,.4,-.6c.1,-.2,.1,-.6,.2,-1.3l.1,-1.6h-3.4l-1.3,1.7c-.3,.4,-.4,.7,-.5,.8c-.1,.2,-.1,.4,-.1,.5c0,.2,.1,.3,.2,.5c.2,.1,.4,.2,.8,.2l-.1,.3h-3.6l.1,-.3c.4,0,.8,-.2,1.2,-.4c.3,-.3,.8,-.9,1.5,-1.8l7.2,-9.9Z" class="g2_92"/>
<path fill-rule="evenodd" d="M783.2,768.1c.6,.1,1.1,.1,1.5,.1c.9,0,1.7,-.3,2.4,-.8c.8,-.6,1.1,-1.4,1.1,-2.3c0,-.8,-.2,-1.3,-.6,-1.7c-.5,-.5,-1.2,-.7,-2.2,-.7c-.2,0,-.4,.1,-.7,.1Zm1.7,-6c.4,0,.7,0,.9,0c1.2,0,2.1,-.3,2.7,-.8c.6,-.5,.9,-1.2,.9,-2c0,-.7,-.1,-1.1,-.5,-1.5c-.4,-.3,-1,-.5,-1.8,-.5c-.2,0,-.5,0,-.8,.1ZM783.1,757l.1,-.3h4.4c.7,0,1.3,.1,1.9,.3c.6,.3,1,.6,1.3,1c.3,.4,.4,.8,.4,1.3c0,.7,-.2,1.3,-.7,1.9c-.5,.6,-1.4,1,-2.5,1.2c.7,.3,1.3,.7,1.6,1.1c.4,.5,.5,1,.5,1.5c0,.6,-.1,1.2,-.4,1.8c-.3,.5,-.7,1,-1.2,1.3c-.5,.3,-1.1,.5,-1.8,.6c-.5,.1,-1.2,.2,-2.3,.2H780l.1,-.3c.4,-.1,.8,-.1,.9,-.2c.3,-.1,.4,-.2,.5,-.4c.2,-.2,.4,-.7,.6,-1.5l2.2,-7.4c.2,-.6,.3,-1.1,.3,-1.3c0,-.3,-.1,-.4,-.3,-.6c-.1,-.1,-.5,-.2,-.9,-.2c-.1,0,-.2,0,-.3,0Z" class="g2_92"/>
<path d="M686.9,740.8c8.1,.4,11.9,4.3,11.4,11.5M779,672.6c8.1,-.5,11.9,-4.3,11.4,-11.5" class="gg_92"/>
<path fill-rule="evenodd" d="M784.6,666.4c.4,-.2,.6,-.8,.4,-1.2c-.2,-.5,-.8,-.6,-1.2,-.4c-.5,.2,-.6,.7,-.4,1.2c.2,.4,.7,.6,1.2,.4Z" class="g2_92"/>
<path fill-rule="evenodd" d="M692.5,747c.4,.2,.6,.7,.4,1.2c-.3,.4,-.8,.6,-1.2,.4c-.5,-.3,-.7,-.8,-.4,-1.2c.2,-.5,.7,-.7,1.2,-.4Z" class="g2_92"/>
<path d="M687.4,661.1H748l30.1,91.7H612.4l75,-91.7Z" class="gh_92"/>
<path d="M687.2,661.3v91.2" class="gi_92"/>
<path clip-path="url(#c3_92)" d="M764,752.8h36.6M708.4,661h85" class="gj_92"/>
<path d="M777.9,661.3v91.2" class="gi_92"/>
<path fill-rule="evenodd" d="M683.2,758.4l-2.6,9.2c-.2,.6,-.3,1.1,-.3,1.2c0,.1,0,.2,.1,.3c0,.1,.1,.2,.2,.2c.2,0,.4,.1,.8,.1c.9,0,1.8,-.1,2.6,-.3c.8,-.2,1.4,-.5,1.9,-.9c.8,-.5,1.4,-1.3,1.8,-2.3c.4,-1,.6,-2.1,.6,-3.3c0,-1.4,-.3,-2.5,-1,-3.2c-.6,-.6,-1.6,-1,-2.9,-1c-.3,0,-.7,0,-1.2,0m-3.2,-.3l.1,-.3H684c1.6,0,2.9,.2,3.6,.5c.8,.4,1.5,1,1.9,1.8c.5,.8,.7,1.7,.7,2.6c0,.8,-.1,1.6,-.4,2.4c-.2,.7,-.5,1.3,-.9,1.8c-.3,.4,-.9,.9,-1.6,1.5c-.7,.5,-1.4,.9,-2.3,1.2c-.8,.2,-1.8,.4,-3.1,.4h-5.1l.1,-.4c.5,0,.8,0,.9,-.1c.3,-.1,.5,-.2,.6,-.4c.1,-.3,.3,-.8,.5,-1.5l2.2,-7.4c.2,-.6,.2,-1,.2,-1.4c0,-.2,0,-.4,-.2,-.5c-.1,-.1,-.4,-.2,-.9,-.2Z" class="g2_92"/>
<path fill-rule="evenodd" d="M777.5,654.2c.6,.1,1.1,.1,1.5,.1c.9,0,1.7,-.2,2.5,-.8c.7,-.6,1,-1.3,1,-2.3c0,-.7,-.2,-1.3,-.6,-1.7c-.5,-.4,-1.2,-.6,-2.2,-.6c-.2,0,-.4,0,-.7,0Zm1.7,-6c.4,0,.7,0,.9,0c1.2,0,2.2,-.2,2.8,-.8c.6,-.5,.9,-1.2,.9,-2c0,-.6,-.2,-1.1,-.6,-1.5c-.4,-.3,-.9,-.5,-1.8,-.5c-.2,0,-.4,.1,-.8,.1Zm-1.8,-5l.2,-.4h4.3c.7,0,1.4,.1,1.9,.4c.6,.2,1,.5,1.3,.9c.3,.4,.4,.9,.4,1.3c0,.7,-.2,1.3,-.7,1.9c-.5,.6,-1.3,1,-2.5,1.3c.8,.2,1.3,.6,1.6,1.1c.4,.4,.6,.9,.6,1.5c0,.6,-.2,1.1,-.5,1.7c-.3,.5,-.7,1,-1.2,1.3c-.5,.3,-1.1,.5,-1.8,.7c-.5,.1,-1.2,.1,-2.3,.1h-4.4l.1,-.3c.5,0,.8,-.1,1,-.2c.2,-.1,.4,-.2,.5,-.4c.1,-.2,.3,-.7,.5,-1.5l2.2,-7.4c.2,-.6,.3,-1.1,.3,-1.3c0,-.2,-.1,-.4,-.2,-.5c-.2,-.2,-.5,-.2,-1,-.2c-.1,0,-.2,0,-.3,0Z" class="g2_92"/>
<path fill-rule="evenodd" d="M692.9,766.2l1.9,-1h.2v6.9c0,.4,0,.7,.1,.8c0,.1,.1,.2,.2,.3c.1,0,.4,.1,.7,.1v.2h-3v-.2c.4,0,.6,-.1,.7,-.1c.1,-.1,.2,-.2,.3,-.3c0,-.1,0,-.4,0,-.8v-4.4c0,-.6,0,-1,0,-1.2c-.1,-.1,-.1,-.2,-.2,-.3q-.1,0,-.2,0c-.2,0,-.4,0,-.7,.1Z" class="g2_92"/>
<path fill-rule="evenodd" d="M788.9,651.2l2,-1h.2v6.9c0,.5,0,.7,0,.9c.1,.1,.1,.2,.3,.2c.1,.1,.3,.1,.7,.1v.2H789v-.2c.4,0,.7,0,.8,-.1c.1,0,.2,-.1,.2,-.2c.1,-.1,.1,-.4,.1,-.9v-4.4c0,-.6,0,-.9,-.1,-1.1c0,-.1,-.1,-.2,-.1,-.3c-.1,-.1,-.2,-.1,-.3,-.1c-.1,0,-.3,.1,-.6,.2Z" class="g2_92"/>
<path fill-rule="evenodd" d="M725.2,761.4c-.4,0,-.8,.2,-1.2,.6c-.6,.5,-1.2,1.3,-1.7,2.3c-.4,.9,-.7,1.9,-.7,2.7c0,.4,.1,.7,.3,.9c.2,.3,.5,.4,.7,.4c.7,0,1.4,-.5,2.2,-1.5c1,-1.2,1.5,-2.6,1.5,-3.9c0,-.5,-.1,-.9,-.3,-1.1c-.2,-.2,-.5,-.4,-.8,-.4m3.2,-.4l-1.8,6.1l-.2,.8q0,.1,0,.2c0,.1,0,.2,.1,.2c0,.1,.1,.1,.2,.1c0,0,.1,0,.3,-.1c.2,-.2,.5,-.6,.9,-1.1l.3,.2c-.4,.6,-.8,1.1,-1.3,1.4c-.4,.4,-.8,.5,-1.2,.5c-.2,0,-.4,0,-.6,-.2c-.1,-.1,-.1,-.3,-.1,-.5c0,-.3,0,-.7,.2,-1.2l.1,-.7c-.7,1.1,-1.5,1.8,-2.1,2.2c-.5,.3,-1,.4,-1.4,.4c-.4,0,-.8,-.2,-1.1,-.5c-.4,-.4,-.5,-.9,-.5,-1.5c0,-1,.3,-2,.8,-3c.6,-1.1,1.3,-1.9,2.2,-2.6c.7,-.5,1.4,-.7,2,-.7c.3,0,.6,.1,.9,.3c.2,.2,.4,.5,.5,.9l.3,-1Z" class="g2_92"/>
<path fill-rule="evenodd" d="M697,703.5l-2.5,8.8c1.1,-1.7,1.9,-2.8,2.5,-3.3c.7,-.6,1.2,-.8,1.8,-.8c.3,0,.5,.1,.7,.3c.2,.2,.3,.4,.3,.8c0,.4,-.1,.8,-.3,1.4l-1.1,3.8c-.1,.4,-.2,.7,-.2,.7c0,.1,.1,.2,.1,.2q.1,.1,.2,.1c.1,0,.2,0,.3,-.1c.3,-.3,.6,-.6,1,-1.1l.3,.2c-.3,.3,-.5,.6,-.9,1c-.4,.4,-.7,.7,-.9,.8c-.3,.1,-.5,.2,-.7,.2c-.2,0,-.4,-.1,-.6,-.2c-.1,-.1,-.2,-.3,-.2,-.5c0,-.3,.1,-.8,.3,-1.5l1.1,-3.6c.1,-.5,.2,-.8,.2,-1.1c0,-.1,-.1,-.2,-.1,-.3c-.1,0,-.2,-.1,-.3,-.1c-.2,0,-.4,.1,-.6,.2c-.4,.3,-.9,.8,-1.4,1.4c-.2,.2,-.7,1,-1.5,2.3c-.2,.4,-.4,.9,-.6,1.4l-.6,1.8H692L694.9,706l.4,-1.1c0,-.1,-.1,-.3,-.2,-.4c-.2,-.1,-.3,-.2,-.5,-.2c-.1,0,-.3,0,-.5,.1h-.2v-.3Z" class="g2_92"/>
<path fill-rule="evenodd" d="M789.8,703.5l-2.5,8.8c1.1,-1.7,1.9,-2.8,2.5,-3.3c.6,-.6,1.2,-.8,1.8,-.8c.2,0,.5,.1,.7,.3c.2,.2,.3,.4,.3,.8c0,.4,-.1,.8,-.3,1.4l-1.1,3.8c-.1,.4,-.2,.7,-.2,.7c0,.1,0,.2,.1,.2c0,.1,.1,.1,.2,.1c0,0,.1,0,.2,-.1c.4,-.3,.7,-.6,1,-1.1l.3,.2c-.2,.3,-.5,.6,-.8,1c-.4,.4,-.7,.7,-1,.8c-.2,.1,-.5,.2,-.7,.2c-.2,0,-.4,-.1,-.5,-.2c-.1,-.1,-.2,-.3,-.2,-.5c0,-.3,.1,-.8,.3,-1.5l1,-3.6c.2,-.5,.2,-.8,.2,-1.1c0,-.1,0,-.2,-.1,-.3c-.1,0,-.2,-.1,-.3,-.1c-.1,0,-.3,.1,-.6,.2c-.4,.3,-.8,.8,-1.4,1.4c-.1,.2,-.6,1,-1.4,2.3c-.3,.4,-.5,.9,-.6,1.4l-.6,1.8h-1.3L787.7,706l.3,-1.1c0,-.1,0,-.3,-.2,-.4c-.1,-.1,-.3,-.2,-.4,-.2c-.1,0,-.3,0,-.5,.1h-.2v-.3Z" class="g2_92"/>
<path fill-rule="evenodd" d="M715.6,654.4c.6,.3,1.1,.5,1.6,.5c.5,0,1,-.2,1.6,-.6c.6,-.4,1.1,-1,1.5,-1.9c.4,-1,.6,-1.9,.6,-2.8c0,-.6,-.1,-1,-.4,-1.3c-.3,-.3,-.6,-.5,-1,-.5c-.5,0,-1.1,.2,-1.6,.7c-.5,.4,-.9,1.1,-1.1,1.9Zm3.5,-12.1l-1.8,6.2c.6,-.6,1.1,-1,1.5,-1.2c.4,-.2,.9,-.3,1.3,-.3c.7,0,1.2,.2,1.7,.6c.4,.5,.6,1,.6,1.8c0,1,-.3,1.9,-.8,2.9c-.6,.9,-1.3,1.7,-2.1,2.2c-.8,.5,-1.7,.8,-2.5,.8c-.9,0,-1.8,-.3,-2.7,-1l2.7,-9.4c.2,-.7,.3,-1.2,.3,-1.3c0,-.1,-.1,-.3,-.1,-.3c-.2,-.1,-.4,-.2,-.7,-.2c-.1,0,-.3,0,-.5,.1v-.4Z" class="g2_92"/>
<path d="M687.4,661.1l90.4,91.8" class="gh_92"/>
<path d="M232.8,801.9h37.5m21.9,0h37.5m27.3,0h12.4m23.6,0h12.4m50.2,0h42.1" class="gc_92"/>
<path d="M73.6,949.2H835.8" class="gd_92"/>
<path d="M0,138.7H120.6V0H0V138.7Z" class="g0_92"/>
<path d="M135.5,882.8h39.6V845.4H135.5v37.4Z" class="gk_92"/>
<path d="M136.4,661.8H176V624.3H136.4v37.5Z" class="gl_92"/>
<g clip-path="url(#c4_92)">
<path d="M633.8,429.6h15.1v15.2H633.8V429.6Zm0,15.2h15.1v15.1H633.8V444.8Zm0,15.1h15.1v15.2H633.8V459.9Zm0,15.2h15.1v15.1H633.8V475.1Zm0,15.1h15.1v15.2H633.8V490.2Zm0,15.2h15.1v15.1H633.8V505.4Zm0,15.1h15.1v15.2H633.8V520.5Zm0,15.2h15.1v15.1H633.8V535.7Zm0,15.1h15.1V566H633.8V550.8ZM573.2,444.7h15.1v15.1H573.2V444.7Zm0,-15.2h15.1v15.2H573.2V429.5ZM558,550.7h15.2v15.2H558V550.7Zm0,-15.1h15.2v15.1H558V535.6Zm0,-15.2h15.2v15.2H558V520.4Zm0,-15.1h15.2v15.1H558V505.3Zm0,-15.2h15.2v15.2H558V490.1ZM558,475h15.2v15.1H558V475Zm0,-15.2h15.2V475H558V459.8Zm0,-15.1h15.2v15.1H558V444.7Zm0,-15.2h15.2v15.2H558V429.5ZM542.9,550.7H558v15.2H542.9V550.7Zm0,-15.1H558v15.1H542.9V535.6Zm0,-15.2H558v15.2H542.9V520.4Zm0,-15.1H558v15.1H542.9V505.3Zm0,-15.2H558v15.2H542.9V490.1Zm0,-15.1H558v15.1H542.9V475Zm0,-15.2H558V475H542.9V459.8Zm0,-15.1H558v15.1H542.9V444.7Zm0,-15.2H558v15.2H542.9V429.5ZM527.7,550.7h15.2v15.2H527.7V550.7Zm0,-15.1h15.2v15.1H527.7V535.6Zm0,-15.2h15.2v15.2H527.7V520.4Zm0,-15.1h15.2v15.1H527.7V505.3Zm0,-15.2h15.2v15.2H527.7V490.1Zm0,-15.1h15.2v15.1H527.7V475Zm0,-15.2h15.2V475H527.7V459.8Zm0,-15.1h15.2v15.1H527.7V444.7Zm0,-15.2h15.2v15.2H527.7V429.5ZM512.5,550.7h15.2v15.2H512.5V550.7Zm0,-15.1h15.2v15.1H512.5V535.6Zm0,-15.2h15.2v15.2H512.5V520.4Zm0,-15.1h15.2v15.1H512.5V505.3Zm0,-15.2h15.2v15.2H512.5V490.1Zm0,-15.1h15.2v15.1H512.5V475Zm0,-15.2h15.2V475H512.5V459.8Zm0,-15.1h15.2v15.1H512.5V444.7Zm0,-15.2h15.2v15.2H512.5V429.5ZM497.4,550.7h15.1v15.2H497.4V550.7Zm0,-15.1h15.1v15.1H497.4V535.6Zm0,-15.2h15.1v15.2H497.4V520.4Zm0,-15.1h15.1v15.1H497.4V505.3Zm0,-15.2h15.1v15.2H497.4V490.1Zm0,-15.1h15.1v15.1H497.4V475Zm0,-15.2h15.1V475H497.4V459.8Zm0,-15.1h15.1v15.1H497.4V444.7Zm0,-15.2h15.1v15.2H497.4V429.5ZM482.2,550.7h15.2v15.2H482.2V550.7Zm0,-15.1h15.2v15.1H482.2V535.6Zm0,-15.2h15.2v15.2H482.2V520.4Zm0,-15.1h15.2v15.1H482.2V505.3Zm0,-15.2h15.2v15.2H482.2V490.1Zm0,-15.1h15.2v15.1H482.2V475Zm0,-15.2h15.2V475H482.2V459.8Zm0,-15.1h15.2v15.1H482.2V444.7Zm0,-15.2h15.2v15.2H482.2V429.5ZM467.1,550.7h15.1v15.2H467.1V550.7Zm0,-15.1h15.1v15.1H467.1V535.6Zm0,-15.2h15.1v15.2H467.1V520.4Zm0,-15.1h15.1v15.1H467.1V505.3Zm0,-15.2h15.1v15.2H467.1V490.1Zm0,-15.1h15.1v15.1H467.1V475Zm0,-15.2h15.1V475H467.1V459.8Zm0,-15.1h15.1v15.1H467.1V444.7Zm0,-15.2h15.1v15.2H467.1V429.5ZM451.9,550.7h15.2v15.2H451.9V550.7Zm0,-15.1h15.2v15.1H451.9V535.6Zm0,-15.2h15.2v15.2H451.9V520.4Zm0,-15.1h15.2v15.1H451.9V505.3Zm0,-15.2h15.2v15.2H451.9V490.1Zm0,-15.1h15.2v15.1H451.9V475Zm0,-15.2h15.2V475H451.9V459.8Zm0,-15.1h15.2v15.1H451.9V444.7Zm0,-15.2h15.2v15.2H451.9V429.5ZM436.8,550.7h15.1v15.2H436.8V550.7Zm0,-15.1h15.1v15.1H436.8V535.6Zm0,-15.2h15.1v15.2H436.8V520.4Zm0,-15.1h15.1v15.1H436.8V505.3Zm0,-15.2h15.1v15.2H436.8V490.1Zm0,-15.1h15.1v15.1H436.8V475Zm0,-15.2h15.1V475H436.8V459.8Zm0,-15.1h15.1v15.1H436.8V444.7Zm0,-15.2h15.1v15.2H436.8V429.5ZM421.6,550.7h15.2v15.2H421.6V550.7Zm0,-15.1h15.2v15.1H421.6V535.6Zm0,-15.2h15.2v15.2H421.6V520.4Zm0,-15.1h15.2v15.1H421.6V505.3Zm0,-15.2h15.2v15.2H421.6V490.1Zm0,-15.1h15.2v15.1H421.6V475Zm0,-15.2h15.2V475H421.6V459.8Zm0,-15.1h15.2v15.1H421.6V444.7Zm0,-15.2h15.2v15.2H421.6V429.5ZM406.5,550.7h15.1v15.2H406.5V550.7Zm0,-15.1h15.1v15.1H406.5V535.6Zm0,-15.2h15.1v15.2H406.5V520.4Zm0,-15.1h15.1v15.1H406.5V505.3Zm0,-15.2h15.1v15.2H406.5V490.1Zm0,-15.1h15.1v15.1H406.5V475Zm0,-15.2h15.1V475H406.5V459.8Zm0,-15.1h15.1v15.1H406.5V444.7Zm0,-15.2h15.1v15.2H406.5V429.5ZM391.3,550.7h15.2v15.2H391.3V550.7Zm0,-15.1h15.2v15.1H391.3V535.6Zm0,-15.2h15.2v15.2H391.3V520.4Zm0,-15.1h15.2v15.1H391.3V505.3Zm0,-15.2h15.2v15.2H391.3V490.1Zm0,-15.1h15.2v15.1H391.3V475Zm0,-15.2h15.2V475H391.3V459.8Zm0,-15.1h15.2v15.1H391.3V444.7Zm0,-15.2h15.2v15.2H391.3V429.5ZM376.2,550.7h15.1v15.2H376.2V550.7Zm0,-15.1h15.1v15.1H376.2V535.6Zm0,-15.2h15.1v15.2H376.2V520.4Zm0,-15.1h15.1v15.1H376.2V505.3Zm0,-15.2h15.1v15.2H376.2V490.1Zm0,-15.1h15.1v15.1H376.2V475Zm0,-15.2h15.1V475H376.2V459.8Zm0,-15.1h15.1v15.1H376.2V444.7Zm0,-15.2h15.1v15.2H376.2V429.5ZM361,550.7h15.2v15.2H361V550.7Zm0,-15.1h15.2v15.1H361V535.6Zm0,-15.2h15.2v15.2H361V520.4Zm0,-15.1h15.2v15.1H361V505.3Zm0,-15.2h15.2v15.2H361V490.1ZM361,475h15.2v15.1H361V475Zm0,-15.2h15.2V475H361V459.8Zm0,-15.1h15.2v15.1H361V444.7Zm0,-15.2h15.2v15.2H361V429.5ZM345.9,550.7H361v15.2H345.9V550.7Zm0,-15.1H361v15.1H345.9V535.6Zm0,-15.2H361v15.2H345.9V520.4Zm0,-15.1H361v15.1H345.9V505.3Zm0,-15.2H361v15.2H345.9V490.1Zm0,-15.1H361v15.1H345.9V475Zm0,-15.2H361V475H345.9V459.8Zm0,-15.1H361v15.1H345.9V444.7Zm0,-15.2H361v15.2H345.9V429.5ZM330.7,550.7h15.2v15.2H330.7V550.7Zm0,-15.1h15.2v15.1H330.7V535.6Zm0,-15.2h15.2v15.2H330.7V520.4Zm0,-15.1h15.2v15.1H330.7V505.3Zm0,-15.2h15.2v15.2H330.7V490.1Zm0,-15.1h15.2v15.1H330.7V475Zm0,-15.2h15.2V475H330.7V459.8Zm0,-15.1h15.2v15.1H330.7V444.7Zm0,-15.2h15.2v15.2H330.7V429.5ZM315.6,550.7h15.1v15.2H315.6V550.7Zm0,-15.1h15.1v15.1H315.6V535.6Zm0,-15.2h15.1v15.2H315.6V520.4Zm0,-15.1h15.1v15.1H315.6V505.3Zm0,-15.2h15.1v15.2H315.6V490.1Zm0,-15.1h15.1v15.1H315.6V475Zm0,-15.2h15.1V475H315.6V459.8Zm0,-15.1h15.1v15.1H315.6V444.7Zm0,-15.2h15.1v15.2H315.6V429.5ZM300.4,550.7h15.2v15.2H300.4V550.7Zm0,-15.1h15.2v15.1H300.4V535.6Zm0,-15.2h15.2v15.2H300.4V520.4Zm0,-15.1h15.2v15.1H300.4V505.3Zm0,-15.2h15.2v15.2H300.4V490.1Zm0,-15.1h15.2v15.1H300.4V475Zm0,-15.2h15.2V475H300.4V459.8Zm0,-15.1h15.2v15.1H300.4V444.7Zm0,-15.2h15.2v15.2H300.4V429.5ZM285.3,550.7h15.1v15.2H285.3V550.7Zm0,-15.1h15.1v15.1H285.3V535.6Zm0,-15.2h15.1v15.2H285.3V520.4Zm0,-15.1h15.1v15.1H285.3V505.3Zm0,-15.2h15.1v15.2H285.3V490.1Zm0,-15.1h15.1v15.1H285.3V475Zm0,-15.2h15.1V475H285.3V459.8Zm0,-15.1h15.1v15.1H285.3V444.7Zm0,-15.2h15.1v15.2H285.3V429.5ZM270.1,550.7h15.2v15.2H270.1V550.7Zm0,-15.1h15.2v15.1H270.1V535.6Zm0,-15.2h15.2v15.2H270.1V520.4Zm0,-15.1h15.2v15.1H270.1V505.3Zm0,-15.2h15.2v15.2H270.1V490.1Zm0,-15.1h15.2v15.1H270.1V475Zm0,-15.2h15.2V475H270.1V459.8Zm0,-15.1h15.2v15.1H270.1V444.7Zm0,-15.2h15.2v15.2H270.1V429.5ZM255,550.7h15.1v15.2H255V550.7Zm0,-15.1h15.1v15.1H255V535.6Zm0,-15.2h15.1v15.2H255V520.4Zm0,-15.1h15.1v15.1H255V505.3Zm0,-15.2h15.1v15.2H255V490.1ZM255,475h15.1v15.1H255V475Zm0,-15.2h15.1V475H255V459.8Zm0,-15.1h15.1v15.1H255V444.7Zm0,-15.2h15.1v15.2H255V429.5ZM239.8,550.7H255v15.2H239.8V550.7Zm0,-15.1H255v15.1H239.8V535.6Zm0,-15.2H255v15.2H239.8V520.4Zm0,-15.1H255v15.1H239.8V505.3Zm0,-15.2H255v15.2H239.8V490.1Zm0,-15.1H255v15.1H239.8V475Zm0,-15.2H255V475H239.8V459.8Zm0,-15.1H255v15.1H239.8V444.7Zm0,-15.2H255v15.2H239.8V429.5Zm333.4,30.3h15.1V475H573.2V459.8Zm0,15.2h15.1v15.1H573.2V475Zm0,15.1h15.1v15.2H573.2V490.1Zm0,15.2h15.1v15.1H573.2V505.3Zm0,15.1h15.1v15.2H573.2V520.4Zm0,15.2h15.1v15.1H573.2V535.6Zm0,15.1h15.1v15.2H573.2V550.7ZM588.3,429.5h15.2v15.2H588.3V429.5Zm0,15.2h15.2v15.1H588.3V444.7Zm0,15.1h15.2V475H588.3V459.8Zm0,15.2h15.2v15.1H588.3V475Zm0,15.1h15.2v15.2H588.3V490.1Zm0,15.2h15.2v15.1H588.3V505.3Zm0,15.1h15.2v15.2H588.3V520.4Zm0,15.2h15.2v15.1H588.3V535.6Zm0,15.1h15.2v15.2H588.3V550.7ZM603.5,429.5h15.1v15.2H603.5V429.5Zm0,15.2h15.1v15.1H603.5V444.7Zm0,15.1h15.1V475H603.5V459.8Zm0,15.2h15.1v15.1H603.5V475Zm0,15.1h15.1v15.2H603.5V490.1Zm0,15.2h15.1v15.1H603.5V505.3Zm0,15.1h15.1v15.2H603.5V520.4Zm0,15.2h15.1v15.1H603.5V535.6Zm0,15.1h15.1v15.2H603.5V550.7ZM618.6,429.5h15.2v15.2H618.6V429.5Zm0,15.2h15.2v15.1H618.6V444.7Zm0,15.1h15.2V475H618.6V459.8Zm0,15.2h15.2v15.1H618.6V475Zm0,15.1h15.2v15.2H618.6V490.1Zm0,15.2h15.2v15.1H618.6V505.3Zm0,15.1h15.2v15.2H618.6V520.4Zm0,15.2h15.2v15.1H618.6V535.6Zm0,15.1h15.2v15.2H618.6V550.7Z" class="g8_92"/>
<path d="M300.6,444.4h45.6l15.5,76.2H269.4l31.2,-76.2Zm91.4,0h45.6V550.7L392,490V444.4Zm90.3,.6H558L511.8,551.2l-45.6,-.5L482.3,445Zm105.9,30l45.6,-30V551.2L588.2,520.1V475Z" class="g9_92"/>
</g>
<g clip-path="url(#c5_92)">
<path d="M769.3,429.6h15.2v15.2H769.3V429.6Zm0,15.2h15.2v15.1H769.3V444.8Zm0,15.1h15.2v15.2H769.3V459.9Zm0,15.2h15.2v15.1H769.3V475.1Zm0,15.1h15.2v15.2H769.3V490.2Zm0,15.2h15.2v15.1H769.3V505.4Zm0,15.1h15.2v15.2H769.3V520.5Zm0,15.2h15.2v15.1H769.3V535.7Zm0,15.1h15.2V566H769.3V550.8ZM708.7,444.7h15.2v15.1H708.7V444.7Zm0,-15.2h15.2v15.2H708.7V429.5ZM693.6,550.7h15.1v15.2H693.6V550.7Zm0,-15.1h15.1v15.1H693.6V535.6Zm0,-15.2h15.1v15.2H693.6V520.4Zm0,-15.1h15.1v15.1H693.6V505.3Zm0,-15.2h15.1v15.2H693.6V490.1Zm0,-15.1h15.1v15.1H693.6V475Zm0,-15.2h15.1V475H693.6V459.8Zm0,-15.1h15.1v15.1H693.6V444.7Zm0,-15.2h15.1v15.2H693.6V429.5ZM678.4,550.7h15.2v15.2H678.4V550.7Zm0,-15.1h15.2v15.1H678.4V535.6Zm0,-15.2h15.2v15.2H678.4V520.4Zm0,-15.1h15.2v15.1H678.4V505.3Zm0,-15.2h15.2v15.2H678.4V490.1Zm0,-15.1h15.2v15.1H678.4V475Zm0,-15.2h15.2V475H678.4V459.8Zm0,-15.1h15.2v15.1H678.4V444.7Zm0,-15.2h15.2v15.2H678.4V429.5ZM663.3,550.7h15.1v15.2H663.3V550.7Zm0,-15.1h15.1v15.1H663.3V535.6Zm0,-15.2h15.1v15.2H663.3V520.4Zm0,-15.1h15.1v15.1H663.3V505.3Zm0,-15.2h15.1v15.2H663.3V490.1Zm0,-15.1h15.1v15.1H663.3V475Zm0,-15.2h15.1V475H663.3V459.8Zm0,-15.1h15.1v15.1H663.3V444.7Zm0,-15.2h15.1v15.2H663.3V429.5ZM648.1,550.7h15.2v15.2H648.1V550.7Zm0,-15.1h15.2v15.1H648.1V535.6Zm0,-15.2h15.2v15.2H648.1V520.4Zm0,-15.1h15.2v15.1H648.1V505.3Zm0,-15.2h15.2v15.2H648.1V490.1Zm0,-15.1h15.2v15.1H648.1V475Zm0,-15.2h15.2V475H648.1V459.8Zm0,-15.1h15.2v15.1H648.1V444.7Zm0,-15.2h15.2v15.2H648.1V429.5ZM632.9,550.7h15.2v15.2H632.9V550.7Zm0,-15.1h15.2v15.1H632.9V535.6Zm0,-15.2h15.2v15.2H632.9V520.4Zm0,-15.1h15.2v15.1H632.9V505.3Zm0,-15.2h15.2v15.2H632.9V490.1Zm0,-15.1h15.2v15.1H632.9V475Zm0,-15.2h15.2V475H632.9V459.8Zm0,-15.1h15.2v15.1H632.9V444.7Zm0,-15.2h15.2v15.2H632.9V429.5ZM617.8,550.7h15.1v15.2H617.8V550.7Zm0,-15.1h15.1v15.1H617.8V535.6Zm0,-15.2h15.1v15.2H617.8V520.4Zm0,-15.1h15.1v15.1H617.8V505.3Zm0,-15.2h15.1v15.2H617.8V490.1Zm0,-15.1h15.1v15.1H617.8V475Zm0,-15.2h15.1V475H617.8V459.8Zm0,-15.1h15.1v15.1H617.8V444.7Zm0,-15.2h15.1v15.2H617.8V429.5ZM602.6,550.7h15.2v15.2H602.6V550.7Zm0,-15.1h15.2v15.1H602.6V535.6Zm0,-15.2h15.2v15.2H602.6V520.4Zm0,-15.1h15.2v15.1H602.6V505.3Zm0,-15.2h15.2v15.2H602.6V490.1Zm0,-15.1h15.2v15.1H602.6V475Zm0,-15.2h15.2V475H602.6V459.8Zm0,-15.1h15.2v15.1H602.6V444.7Zm0,-15.2h15.2v15.2H602.6V429.5ZM587.5,550.7h15.1v15.2H587.5V550.7Zm0,-15.1h15.1v15.1H587.5V535.6Zm0,-15.2h15.1v15.2H587.5V520.4Zm0,-15.1h15.1v15.1H587.5V505.3Zm0,-15.2h15.1v15.2H587.5V490.1Zm0,-15.1h15.1v15.1H587.5V475Zm0,-15.2h15.1V475H587.5V459.8Zm0,-15.1h15.1v15.1H587.5V444.7Zm0,-15.2h15.1v15.2H587.5V429.5ZM572.3,550.7h15.2v15.2H572.3V550.7Zm0,-15.1h15.2v15.1H572.3V535.6Zm0,-15.2h15.2v15.2H572.3V520.4Zm0,-15.1h15.2v15.1H572.3V505.3Zm0,-15.2h15.2v15.2H572.3V490.1Zm0,-15.1h15.2v15.1H572.3V475Zm0,-15.2h15.2V475H572.3V459.8Zm0,-15.1h15.2v15.1H572.3V444.7Zm0,-15.2h15.2v15.2H572.3V429.5ZM557.2,550.7h15.1v15.2H557.2V550.7Zm0,-15.1h15.1v15.1H557.2V535.6Zm0,-15.2h15.1v15.2H557.2V520.4Zm0,-15.1h15.1v15.1H557.2V505.3Zm0,-15.2h15.1v15.2H557.2V490.1Zm0,-15.1h15.1v15.1H557.2V475Zm0,-15.2h15.1V475H557.2V459.8Zm0,-15.1h15.1v15.1H557.2V444.7Zm0,-15.2h15.1v15.2H557.2V429.5ZM542,550.7h15.2v15.2H542V550.7Zm0,-15.1h15.2v15.1H542V535.6Zm0,-15.2h15.2v15.2H542V520.4Zm0,-15.1h15.2v15.1H542V505.3Zm0,-15.2h15.2v15.2H542V490.1ZM542,475h15.2v15.1H542V475Zm0,-15.2h15.2V475H542V459.8Zm0,-15.1h15.2v15.1H542V444.7Zm0,-15.2h15.2v15.2H542V429.5ZM526.9,550.7H542v15.2H526.9V550.7Zm0,-15.1H542v15.1H526.9V535.6Zm0,-15.2H542v15.2H526.9V520.4Zm0,-15.1H542v15.1H526.9V505.3Zm0,-15.2H542v15.2H526.9V490.1Zm0,-15.1H542v15.1H526.9V475Zm0,-15.2H542V475H526.9V459.8Zm0,-15.1H542v15.1H526.9V444.7Zm0,-15.2H542v15.2H526.9V429.5ZM511.7,550.7h15.2v15.2H511.7V550.7Zm0,-15.1h15.2v15.1H511.7V535.6Zm0,-15.2h15.2v15.2H511.7V520.4Zm0,-15.1h15.2v15.1H511.7V505.3Zm0,-15.2h15.2v15.2H511.7V490.1Zm0,-15.1h15.2v15.1H511.7V475Zm0,-15.2h15.2V475H511.7V459.8Zm0,-15.1h15.2v15.1H511.7V444.7Zm0,-15.2h15.2v15.2H511.7V429.5ZM496.6,550.7h15.1v15.2H496.6V550.7Zm0,-15.1h15.1v15.1H496.6V535.6Zm0,-15.2h15.1v15.2H496.6V520.4Zm0,-15.1h15.1v15.1H496.6V505.3Zm0,-15.2h15.1v15.2H496.6V490.1Zm0,-15.1h15.1v15.1H496.6V475Zm0,-15.2h15.1V475H496.6V459.8Zm0,-15.1h15.1v15.1H496.6V444.7Zm0,-15.2h15.1v15.2H496.6V429.5ZM481.4,550.7h15.2v15.2H481.4V550.7Zm0,-15.1h15.2v15.1H481.4V535.6Zm0,-15.2h15.2v15.2H481.4V520.4Zm0,-15.1h15.2v15.1H481.4V505.3Zm0,-15.2h15.2v15.2H481.4V490.1Zm0,-15.1h15.2v15.1H481.4V475Zm0,-15.2h15.2V475H481.4V459.8Zm0,-15.1h15.2v15.1H481.4V444.7Zm0,-15.2h15.2v15.2H481.4V429.5ZM466.3,550.7h15.1v15.2H466.3V550.7Zm0,-15.1h15.1v15.1H466.3V535.6Zm0,-15.2h15.1v15.2H466.3V520.4Zm0,-15.1h15.1v15.1H466.3V505.3Zm0,-15.2h15.1v15.2H466.3V490.1Zm0,-15.1h15.1v15.1H466.3V475Zm0,-15.2h15.1V475H466.3V459.8Zm0,-15.1h15.1v15.1H466.3V444.7Zm0,-15.2h15.1v15.2H466.3V429.5ZM451.1,550.7h15.2v15.2H451.1V550.7Zm0,-15.1h15.2v15.1H451.1V535.6Zm0,-15.2h15.2v15.2H451.1V520.4Zm0,-15.1h15.2v15.1H451.1V505.3Zm0,-15.2h15.2v15.2H451.1V490.1Zm0,-15.1h15.2v15.1H451.1V475Zm0,-15.2h15.2V475H451.1V459.8Zm0,-15.1h15.2v15.1H451.1V444.7Zm0,-15.2h15.2v15.2H451.1V429.5ZM436,550.7h15.1v15.2H436V550.7Zm0,-15.1h15.1v15.1H436V535.6Zm0,-15.2h15.1v15.2H436V520.4Zm0,-15.1h15.1v15.1H436V505.3Zm0,-15.2h15.1v15.2H436V490.1ZM436,475h15.1v15.1H436V475Zm0,-15.2h15.1V475H436V459.8Zm0,-15.1h15.1v15.1H436V444.7Zm0,-15.2h15.1v15.2H436V429.5ZM420.8,550.7H436v15.2H420.8V550.7Zm0,-15.1H436v15.1H420.8V535.6Zm0,-15.2H436v15.2H420.8V520.4Zm0,-15.1H436v15.1H420.8V505.3Zm0,-15.2H436v15.2H420.8V490.1Zm0,-15.1H436v15.1H420.8V475Zm0,-15.2H436V475H420.8V459.8Zm0,-15.1H436v15.1H420.8V444.7Zm0,-15.2H436v15.2H420.8V429.5ZM405.7,550.7h15.1v15.2H405.7V550.7Zm0,-15.1h15.1v15.1H405.7V535.6Zm0,-15.2h15.1v15.2H405.7V520.4Zm0,-15.1h15.1v15.1H405.7V505.3Zm0,-15.2h15.1v15.2H405.7V490.1Zm0,-15.1h15.1v15.1H405.7V475Zm0,-15.2h15.1V475H405.7V459.8Zm0,-15.1h15.1v15.1H405.7V444.7Zm0,-15.2h15.1v15.2H405.7V429.5ZM390.5,550.7h15.2v15.2H390.5V550.7Zm0,-15.1h15.2v15.1H390.5V535.6Zm0,-15.2h15.2v15.2H390.5V520.4Zm0,-15.1h15.2v15.1H390.5V505.3Zm0,-15.2h15.2v15.2H390.5V490.1Zm0,-15.1h15.2v15.1H390.5V475Zm0,-15.2h15.2V475H390.5V459.8Zm0,-15.1h15.2v15.1H390.5V444.7Zm0,-15.2h15.2v15.2H390.5V429.5ZM375.4,550.7h15.1v15.2H375.4V550.7Zm0,-15.1h15.1v15.1H375.4V535.6Zm0,-15.2h15.1v15.2H375.4V520.4Zm0,-15.1h15.1v15.1H375.4V505.3Zm0,-15.2h15.1v15.2H375.4V490.1Zm0,-15.1h15.1v15.1H375.4V475Zm0,-15.2h15.1V475H375.4V459.8Zm0,-15.1h15.1v15.1H375.4V444.7Zm0,-15.2h15.1v15.2H375.4V429.5Zm333.3,30.3h15.2V475H708.7V459.8Zm0,15.2h15.2v15.1H708.7V475Zm0,15.1h15.2v15.2H708.7V490.1Zm0,15.2h15.2v15.1H708.7V505.3Zm0,15.1h15.2v15.2H708.7V520.4Zm0,15.2h15.2v15.1H708.7V535.6Zm0,15.1h15.2v15.2H708.7V550.7ZM723.9,429.5H739v15.2H723.9V429.5Zm0,15.2H739v15.1H723.9V444.7Zm0,15.1H739V475H723.9V459.8Zm0,15.2H739v15.1H723.9V475Zm0,15.1H739v15.2H723.9V490.1Zm0,15.2H739v15.1H723.9V505.3Zm0,15.1H739v15.2H723.9V520.4Zm0,15.2H739v15.1H723.9V535.6Zm0,15.1H739v15.2H723.9V550.7ZM739,429.5h15.2v15.2H739V429.5Zm0,15.2h15.2v15.1H739V444.7Zm0,15.1h15.2V475H739V459.8Zm0,15.2h15.2v15.1H739V475Zm0,15.1h15.2v15.2H739V490.1Zm0,15.2h15.2v15.1H739V505.3Zm0,15.1h15.2v15.2H739V520.4Zm0,15.2h15.2v15.1H739V535.6Zm0,15.1h15.2v15.2H739V550.7ZM754.2,429.5h15.1v15.2H754.2V429.5Zm0,15.2h15.1v15.1H754.2V444.7Zm0,15.1h15.1V475H754.2V459.8Zm0,15.2h15.1v15.1H754.2V475Zm0,15.1h15.1v15.2H754.2V490.1Zm0,15.2h15.1v15.1H754.2V505.3Zm0,15.1h15.1v15.2H754.2V520.4Zm0,15.2h15.1v15.1H754.2V535.6Zm0,15.1h15.1v15.2H754.2V550.7Z" class="g8_92"/>
<path d="M436.1,444.4h45.6l15.6,76.2H405l31.1,-76.2Zm91.4,0h45.6V550.7L527.5,490V444.4Zm90.4,.6h75.6L647.4,551.2l-45.6,-.5L617.9,445Zm105.9,30l45.6,-30V551.2L723.8,520.1V475Z" class="g9_92"/>
</g>
<g clip-path="url(#c6_92)">
<path d="M723.3,429.6h15.2v15.2H723.3V429.6Zm0,15.2h15.2v15.1H723.3V444.8Zm0,15.1h15.2v15.2H723.3V459.9Zm0,15.2h15.2v15.1H723.3V475.1Zm0,15.1h15.2v15.2H723.3V490.2Zm0,15.2h15.2v15.1H723.3V505.4Zm0,15.1h15.2v15.2H723.3V520.5Zm0,15.2h15.2v15.1H723.3V535.7Zm0,15.1h15.2V566H723.3V550.8ZM662.7,444.7h15.2v15.1H662.7V444.7Zm0,-15.2h15.2v15.2H662.7V429.5ZM647.6,550.7h15.1v15.2H647.6V550.7Zm0,-15.1h15.1v15.1H647.6V535.6Zm0,-15.2h15.1v15.2H647.6V520.4Zm0,-15.1h15.1v15.1H647.6V505.3Zm0,-15.2h15.1v15.2H647.6V490.1Zm0,-15.1h15.1v15.1H647.6V475Zm0,-15.2h15.1V475H647.6V459.8Zm0,-15.1h15.1v15.1H647.6V444.7Zm0,-15.2h15.1v15.2H647.6V429.5ZM632.4,550.7h15.2v15.2H632.4V550.7Zm0,-15.1h15.2v15.1H632.4V535.6Zm0,-15.2h15.2v15.2H632.4V520.4Zm0,-15.1h15.2v15.1H632.4V505.3Zm0,-15.2h15.2v15.2H632.4V490.1Zm0,-15.1h15.2v15.1H632.4V475Zm0,-15.2h15.2V475H632.4V459.8Zm0,-15.1h15.2v15.1H632.4V444.7Zm0,-15.2h15.2v15.2H632.4V429.5ZM617.3,550.7h15.1v15.2H617.3V550.7Zm0,-15.1h15.1v15.1H617.3V535.6Zm0,-15.2h15.1v15.2H617.3V520.4Zm0,-15.1h15.1v15.1H617.3V505.3Zm0,-15.2h15.1v15.2H617.3V490.1Zm0,-15.1h15.1v15.1H617.3V475Zm0,-15.2h15.1V475H617.3V459.8Zm0,-15.1h15.1v15.1H617.3V444.7Zm0,-15.2h15.1v15.2H617.3V429.5ZM602.1,550.7h15.2v15.2H602.1V550.7Zm0,-15.1h15.2v15.1H602.1V535.6Zm0,-15.2h15.2v15.2H602.1V520.4Zm0,-15.1h15.2v15.1H602.1V505.3Zm0,-15.2h15.2v15.2H602.1V490.1Zm0,-15.1h15.2v15.1H602.1V475Zm0,-15.2h15.2V475H602.1V459.8Zm0,-15.1h15.2v15.1H602.1V444.7Zm0,-15.2h15.2v15.2H602.1V429.5ZM587,550.7h15.1v15.2H587V550.7Zm0,-15.1h15.1v15.1H587V535.6Zm0,-15.2h15.1v15.2H587V520.4Zm0,-15.1h15.1v15.1H587V505.3Zm0,-15.2h15.1v15.2H587V490.1ZM587,475h15.1v15.1H587V475Zm0,-15.2h15.1V475H587V459.8Zm0,-15.1h15.1v15.1H587V444.7Zm0,-15.2h15.1v15.2H587V429.5ZM571.8,550.7H587v15.2H571.8V550.7Zm0,-15.1H587v15.1H571.8V535.6Zm0,-15.2H587v15.2H571.8V520.4Zm0,-15.1H587v15.1H571.8V505.3Zm0,-15.2H587v15.2H571.8V490.1Zm0,-15.1H587v15.1H571.8V475Zm0,-15.2H587V475H571.8V459.8Zm0,-15.1H587v15.1H571.8V444.7Zm0,-15.2H587v15.2H571.8V429.5ZM556.7,550.7h15.1v15.2H556.7V550.7Zm0,-15.1h15.1v15.1H556.7V535.6Zm0,-15.2h15.1v15.2H556.7V520.4Zm0,-15.1h15.1v15.1H556.7V505.3Zm0,-15.2h15.1v15.2H556.7V490.1Zm0,-15.1h15.1v15.1H556.7V475Zm0,-15.2h15.1V475H556.7V459.8Zm0,-15.1h15.1v15.1H556.7V444.7Zm0,-15.2h15.1v15.2H556.7V429.5ZM541.5,550.7h15.2v15.2H541.5V550.7Zm0,-15.1h15.2v15.1H541.5V535.6Zm0,-15.2h15.2v15.2H541.5V520.4Zm0,-15.1h15.2v15.1H541.5V505.3Zm0,-15.2h15.2v15.2H541.5V490.1Zm0,-15.1h15.2v15.1H541.5V475Zm0,-15.2h15.2V475H541.5V459.8Zm0,-15.1h15.2v15.1H541.5V444.7Zm0,-15.2h15.2v15.2H541.5V429.5ZM526.4,550.7h15.1v15.2H526.4V550.7Zm0,-15.1h15.1v15.1H526.4V535.6Zm0,-15.2h15.1v15.2H526.4V520.4Zm0,-15.1h15.1v15.1H526.4V505.3Zm0,-15.2h15.1v15.2H526.4V490.1Zm0,-15.1h15.1v15.1H526.4V475Zm0,-15.2h15.1V475H526.4V459.8Zm0,-15.1h15.1v15.1H526.4V444.7Zm0,-15.2h15.1v15.2H526.4V429.5ZM511.2,550.7h15.2v15.2H511.2V550.7Zm0,-15.1h15.2v15.1H511.2V535.6Zm0,-15.2h15.2v15.2H511.2V520.4Zm0,-15.1h15.2v15.1H511.2V505.3Zm0,-15.2h15.2v15.2H511.2V490.1Zm0,-15.1h15.2v15.1H511.2V475Zm0,-15.2h15.2V475H511.2V459.8Zm0,-15.1h15.2v15.1H511.2V444.7Zm0,-15.2h15.2v15.2H511.2V429.5ZM496.1,550.7h15.1v15.2H496.1V550.7Zm0,-15.1h15.1v15.1H496.1V535.6Zm0,-15.2h15.1v15.2H496.1V520.4Zm0,-15.1h15.1v15.1H496.1V505.3Zm0,-15.2h15.1v15.2H496.1V490.1Zm0,-15.1h15.1v15.1H496.1V475Zm0,-15.2h15.1V475H496.1V459.8Zm0,-15.1h15.1v15.1H496.1V444.7Zm0,-15.2h15.1v15.2H496.1V429.5ZM480.9,550.7h15.2v15.2H480.9V550.7Zm0,-15.1h15.2v15.1H480.9V535.6Zm0,-15.2h15.2v15.2H480.9V520.4Zm0,-15.1h15.2v15.1H480.9V505.3Zm0,-15.2h15.2v15.2H480.9V490.1Zm0,-15.1h15.2v15.1H480.9V475Zm0,-15.2h15.2V475H480.9V459.8Zm0,-15.1h15.2v15.1H480.9V444.7Zm0,-15.2h15.2v15.2H480.9V429.5ZM465.8,550.7h15.1v15.2H465.8V550.7Zm0,-15.1h15.1v15.1H465.8V535.6Zm0,-15.2h15.1v15.2H465.8V520.4Zm0,-15.1h15.1v15.1H465.8V505.3Zm0,-15.2h15.1v15.2H465.8V490.1Zm0,-15.1h15.1v15.1H465.8V475Zm0,-15.2h15.1V475H465.8V459.8Zm0,-15.1h15.1v15.1H465.8V444.7Zm0,-15.2h15.1v15.2H465.8V429.5ZM450.6,550.7h15.2v15.2H450.6V550.7Zm0,-15.1h15.2v15.1H450.6V535.6Zm0,-15.2h15.2v15.2H450.6V520.4Zm0,-15.1h15.2v15.1H450.6V505.3Zm0,-15.2h15.2v15.2H450.6V490.1Zm0,-15.1h15.2v15.1H450.6V475Zm0,-15.2h15.2V475H450.6V459.8Zm0,-15.1h15.2v15.1H450.6V444.7Zm0,-15.2h15.2v15.2H450.6V429.5ZM435.5,550.7h15.1v15.2H435.5V550.7Zm0,-15.1h15.1v15.1H435.5V535.6Zm0,-15.2h15.1v15.2H435.5V520.4Zm0,-15.1h15.1v15.1H435.5V505.3Zm0,-15.2h15.1v15.2H435.5V490.1Zm0,-15.1h15.1v15.1H435.5V475Zm0,-15.2h15.1V475H435.5V459.8Zm0,-15.1h15.1v15.1H435.5V444.7Zm0,-15.2h15.1v15.2H435.5V429.5ZM420.3,550.7h15.2v15.2H420.3V550.7Zm0,-15.1h15.2v15.1H420.3V535.6Zm0,-15.2h15.2v15.2H420.3V520.4Zm0,-15.1h15.2v15.1H420.3V505.3Zm0,-15.2h15.2v15.2H420.3V490.1Zm0,-15.1h15.2v15.1H420.3V475Zm0,-15.2h15.2V475H420.3V459.8Zm0,-15.1h15.2v15.1H420.3V444.7Zm0,-15.2h15.2v15.2H420.3V429.5ZM405.2,550.7h15.1v15.2H405.2V550.7Zm0,-15.1h15.1v15.1H405.2V535.6Zm0,-15.2h15.1v15.2H405.2V520.4Zm0,-15.1h15.1v15.1H405.2V505.3Zm0,-15.2h15.1v15.2H405.2V490.1Zm0,-15.1h15.1v15.1H405.2V475Zm0,-15.2h15.1V475H405.2V459.8Zm0,-15.1h15.1v15.1H405.2V444.7Zm0,-15.2h15.1v15.2H405.2V429.5ZM390,550.7h15.2v15.2H390V550.7Zm0,-15.1h15.2v15.1H390V535.6Zm0,-15.2h15.2v15.2H390V520.4Zm0,-15.1h15.2v15.1H390V505.3Zm0,-15.2h15.2v15.2H390V490.1ZM390,475h15.2v15.1H390V475Zm0,-15.2h15.2V475H390V459.8Zm0,-15.1h15.2v15.1H390V444.7Zm0,-15.2h15.2v15.2H390V429.5ZM374.9,550.7H390v15.2H374.9V550.7Zm0,-15.1H390v15.1H374.9V535.6Zm0,-15.2H390v15.2H374.9V520.4Zm0,-15.1H390v15.1H374.9V505.3Zm0,-15.2H390v15.2H374.9V490.1Zm0,-15.1H390v15.1H374.9V475Zm0,-15.2H390V475H374.9V459.8Zm0,-15.1H390v15.1H374.9V444.7Zm0,-15.2H390v15.2H374.9V429.5ZM359.7,550.7h15.2v15.2H359.7V550.7Zm0,-15.1h15.2v15.1H359.7V535.6Zm0,-15.2h15.2v15.2H359.7V520.4Zm0,-15.1h15.2v15.1H359.7V505.3Zm0,-15.2h15.2v15.2H359.7V490.1Zm0,-15.1h15.2v15.1H359.7V475Zm0,-15.2h15.2V475H359.7V459.8Zm0,-15.1h15.2v15.1H359.7V444.7Zm0,-15.2h15.2v15.2H359.7V429.5ZM344.6,550.7h15.1v15.2H344.6V550.7Zm0,-15.1h15.1v15.1H344.6V535.6Zm0,-15.2h15.1v15.2H344.6V520.4Zm0,-15.1h15.1v15.1H344.6V505.3Zm0,-15.2h15.1v15.2H344.6V490.1Zm0,-15.1h15.1v15.1H344.6V475Zm0,-15.2h15.1V475H344.6V459.8Zm0,-15.1h15.1v15.1H344.6V444.7Zm0,-15.2h15.1v15.2H344.6V429.5ZM329.4,550.7h15.2v15.2H329.4V550.7Zm0,-15.1h15.2v15.1H329.4V535.6Zm0,-15.2h15.2v15.2H329.4V520.4Zm0,-15.1h15.2v15.1H329.4V505.3Zm0,-15.2h15.2v15.2H329.4V490.1Zm0,-15.1h15.2v15.1H329.4V475Zm0,-15.2h15.2V475H329.4V459.8Zm0,-15.1h15.2v15.1H329.4V444.7Zm0,-15.2h15.2v15.2H329.4V429.5Zm333.3,30.3h15.2V475H662.7V459.8Zm0,15.2h15.2v15.1H662.7V475Zm0,15.1h15.2v15.2H662.7V490.1Zm0,15.2h15.2v15.1H662.7V505.3Zm0,15.1h15.2v15.2H662.7V520.4Zm0,15.2h15.2v15.1H662.7V535.6Zm0,15.1h15.2v15.2H662.7V550.7ZM677.9,429.5H693v15.2H677.9V429.5Zm0,15.2H693v15.1H677.9V444.7Zm0,15.1H693V475H677.9V459.8Zm0,15.2H693v15.1H677.9V475Zm0,15.1H693v15.2H677.9V490.1Zm0,15.2H693v15.1H677.9V505.3Zm0,15.1H693v15.2H677.9V520.4Zm0,15.2H693v15.1H677.9V535.6Zm0,15.1H693v15.2H677.9V550.7ZM693,429.5h15.2v15.2H693V429.5Zm0,15.2h15.2v15.1H693V444.7Zm0,15.1h15.2V475H693V459.8Zm0,15.2h15.2v15.1H693V475Zm0,15.1h15.2v15.2H693V490.1Zm0,15.2h15.2v15.1H693V505.3Zm0,15.1h15.2v15.2H693V520.4Zm0,15.2h15.2v15.1H693V535.6Zm0,15.1h15.2v15.2H693V550.7ZM708.2,429.5h15.1v15.2H708.2V429.5Zm0,15.2h15.1v15.1H708.2V444.7Zm0,15.1h15.1V475H708.2V459.8Zm0,15.2h15.1v15.1H708.2V475Zm0,15.1h15.1v15.2H708.2V490.1Zm0,15.2h15.1v15.1H708.2V505.3Zm0,15.1h15.1v15.2H708.2V520.4Zm0,15.2h15.1v15.1H708.2V535.6Zm0,15.1h15.1v15.2H708.2V550.7Z" class="g8_92"/>
<path d="M390.1,444.4h45.7l15.5,76.2H359l31.1,-76.2Zm91.5,0h45.6V550.7L481.6,490V444.4Zm90.3,.6h75.7L601.4,551.2l-45.6,-.5L571.9,445Zm105.9,30l45.6,-30V551.2L677.8,520.1V475Z" class="g9_92"/>
</g>
<path d="M186.3,1067.9h80l-14.5,-44.2l-29.3,-.1Z" class="ge_92"/>
<path d="M222.5,1023.6l29.3,.1l14.5,44.2h-80l36.2,-44.3Z" class="gm_92"/>
<path d="M222.5,1058.8c6.5,.3,9.5,3.4,9.1,9.1" class="gn_92"/>
<path fill-rule="evenodd" d="M226.7,1062.5c.5,.2,.6,.8,.4,1.2c-.2,.5,-.8,.7,-1.2,.5c-.5,-.3,-.7,-.8,-.5,-1.3c.3,-.5,.8,-.6,1.3,-.4Z" class="g2_92"/>
<path d="M222.4,1023.8v43.9" class="gm_92"/>
<path fill-rule="evenodd" d="M232.6,1072.9c-.4,0,-.8,.1,-1.2,.5c-.7,.5,-1.2,1.3,-1.7,2.2c-.4,1,-.7,1.9,-.7,2.8c0,.4,.1,.7,.3,.9c.2,.3,.5,.4,.7,.4c.7,0,1.4,-.5,2.1,-1.5c1.1,-1.2,1.6,-2.6,1.6,-3.9c0,-.5,-.1,-.9,-.3,-1.1c-.2,-.2,-.5,-.3,-.8,-.3m3.2,-.5l-1.8,6.1l-.2,.8q0,.1,0,.2c0,.1,0,.2,.1,.2c0,.1,.1,.1,.2,.1c0,0,.1,0,.3,-.1c.2,-.2,.5,-.6,.9,-1.1l.3,.2c-.4,.6,-.8,1.1,-1.3,1.4c-.4,.3,-.8,.5,-1.2,.5c-.2,0,-.4,-.1,-.6,-.2c-.1,-.1,-.2,-.3,-.2,-.5c0,-.3,.1,-.7,.2,-1.2l.2,-.7c-.8,1.1,-1.5,1.8,-2.1,2.2c-.5,.3,-1,.4,-1.4,.4c-.4,0,-.8,-.2,-1.1,-.5c-.4,-.4,-.5,-.9,-.5,-1.5c0,-1,.3,-2,.8,-3c.6,-1.1,1.3,-1.9,2.2,-2.6c.7,-.5,1.3,-.7,2,-.7c.3,0,.6,.1,.9,.3c.2,.2,.4,.5,.5,.9l.3,-1Z" class="g2_92"/>
<path fill-rule="evenodd" d="M231.3,1036.7l-2.5,8.7c1.1,-1.7,1.9,-2.7,2.5,-3.3c.6,-.5,1.2,-.8,1.8,-.8c.3,0,.5,.1,.7,.3c.2,.2,.3,.5,.3,.8c0,.4,-.1,.9,-.3,1.4l-1.1,3.8c-.1,.4,-.2,.7,-.2,.7c0,.1,0,.2,.1,.2q.1,.1,.2,.1q.1,0,.2,-.1c.4,-.3,.7,-.6,1.1,-1.1l.2,.2c-.2,.3,-.5,.6,-.8,1c-.4,.4,-.7,.7,-.9,.8c-.3,.2,-.5,.2,-.7,.2c-.3,0,-.4,0,-.6,-.2c-.1,-.1,-.2,-.3,-.2,-.5c0,-.3,.1,-.8,.3,-1.5l1.1,-3.6c.1,-.4,.2,-.8,.2,-1c0,-.1,-.1,-.2,-.2,-.3c0,-.1,-.1,-.1,-.3,-.1c-.1,0,-.3,0,-.5,.2c-.4,.2,-.9,.7,-1.4,1.4c-.2,.2,-.7,.9,-1.5,2.2c-.2,.4,-.4,.9,-.6,1.4l-.6,1.8h-1.3l2.9,-10.2l.3,-1.1c0,-.2,0,-.3,-.1,-.4c-.2,-.2,-.3,-.2,-.5,-.2c-.1,0,-.3,0,-.5,0l-.2,.1v-.4Z" class="g2_92"/>
<path clip-path="url(#c7_92)" fill-rule="evenodd" d="M233,1019.5c.6,.3,1.2,.5,1.6,.5c.5,0,1.1,-.2,1.7,-.6c.5,-.4,1,-1,1.4,-1.9c.4,-.9,.6,-1.9,.6,-2.8c0,-.5,-.1,-1,-.4,-1.3c-.2,-.3,-.6,-.4,-.9,-.4c-.6,0,-1.1,.2,-1.7,.6c-.5,.5,-.9,1.1,-1.1,1.9Zm3.5,-12l-1.8,6.2c.6,-.6,1.1,-1,1.5,-1.3c.5,-.2,.9,-.3,1.4,-.3c.6,0,1.2,.2,1.6,.7c.4,.4,.6,1,.6,1.7c0,1,-.3,1.9,-.8,2.9c-.6,1,-1.2,1.7,-2.1,2.2c-.8,.6,-1.6,.8,-2.4,.8c-.9,0,-1.9,-.3,-2.8,-1l2.7,-9.4c.2,-.7,.3,-1.1,.3,-1.2c0,-.2,0,-.3,-.1,-.4c-.1,-.1,-.4,-.1,-.6,-.1c-.1,0,-.3,0,-.6,0v-.3Z" class="g2_92"/>
<path d="M630.4,1013.6h53" class="gc_92"/>
<path d="M184.8,385.4h651V295.6h-651v89.8Z" class="g1_92"/>
<path d="M135.8,333.2h39.7V295.8H135.8v37.4Z" class="gk_92"/>
<path d="M234.9,904.5h42" class="gc_92"/>
<path d="M600.6,912.8h80" class="go_92"/>
<path d="M649.9,867.3l30.2,45.3" class="gp_92"/>
<path d="M616.6,867.2h33.3m-33.1,45.9V867.4" class="go_92"/>
<path d="M624.7,912.7c.3,-8,-7.9,-7.5,-7.9,-7.5m3.3,4.9c-.2,0,-.3,-.1,-.3,-.3c0,-.1,.1,-.2,.3,-.2c.1,0,.2,.1,.2,.2c0,.2,-.1,.3,-.2,.3Z" class="gq_92"/>
<path d="M600.9,912.6l15.8,-45.5" class="gp_92"/>
<path d="M422.2,904.5h81.2" class="gc_92"/>
</svg>