<?xml version="1.0" encoding="UTF-8" standalone="no"?>
<!DOCTYPE svg PUBLIC "-//W3C//DTD SVG 1.1//EN"
"http://www.w3.org/Graphics/SVG/1.1/DTD/svg11.dtd">
<svg viewBox="0 0 909 1147" version="1.1" xmlns="http://www.w3.org/2000/svg" xmlns:xlink="http://www.w3.org/1999/xlink">
<defs>
<clipPath id="c0_61"><path d="M185.1,637.3V507.5H304.3V637.3Z"/></clipPath>
<clipPath id="c1_61"><path d="M654.8,341.3V229.8H830.5V341.3Z"/></clipPath>
<style type="text/css"><![CDATA[
.g0_61{
fill: #B6D774;
}
.g1_61{
fill: none;
stroke: #000;
stroke-width: 0.763;
stroke-miterlimit: 2;
}
.g2_61{
fill: #000;
}
.g3_61{
fill: none;
stroke: #000;
stroke-width: 0.78;
stroke-miterlimit: 2;
}
.g4_61{
fill: none;
stroke: #0EA5DF;
stroke-width: 3.055;
}
.g5_61{
fill: #FFF1E0;
}
.g6_61{
fill: #2E3092;
}
.g7_61{
fill: #FFF;
}
.g8_61{
fill: none;
stroke: #2E3092;
stroke-width: 0.763;
stroke-miterlimit: 2;
}
.g9_61{
fill: #E8F1FA;
}
.ga_61{
fill: none;
stroke: #0EA5DF;
stroke-width: 0.763;
}
.gb_61{
fill: #0C4B7F;
}
.gc_61{
fill: none;
stroke: #000;
stroke-width: 0.77;
stroke-miterlimit: 2;
}
]]></style>
</defs>
<path d="M835.8,1131h73.6v-51.5H835.8V1131Z" class="g0_61"/>
<path d="M200.9,321.8H308.5m-44,-76.2l44,76.2m-107.6,0L264.6,246m-53,62.9c4.5,3,6.7,7.4,6.4,13.3m54.4,-62.9c-6.2,3.8,-12.7,3.9,-19.7,.3m41.2,61.9c0,-5.4,2.5,-9.6,7.5,-12.6" class="g1_61"/>
<path fill-rule="evenodd" d="M226.1,306.3l-.6,1.3h-3l-.7,1.3c1.3,.2,2.4,.7,3.1,1.5c.7,.7,1,1.5,1,2.4c0,.5,-.1,1,-.3,1.5c-.2,.4,-.5,.8,-.8,1.1c-.3,.4,-.7,.6,-1.1,.8c-.6,.3,-1.2,.4,-1.8,.4c-.6,0,-1,-.1,-1.3,-.3c-.3,-.2,-.4,-.4,-.4,-.7c0,-.1,0,-.2,.2,-.3c.1,-.2,.2,-.2,.4,-.2c.1,0,.2,0,.3,.1c.1,0,.3,.1,.5,.3c.4,.2,.8,.4,1.2,.4c.5,0,1.1,-.3,1.5,-.7c.4,-.5,.7,-1,.7,-1.6c0,-.6,-.2,-1.2,-.6,-1.7c-.4,-.6,-1,-1,-1.7,-1.3c-.5,-.2,-1.2,-.3,-2.2,-.3l2,-4Z" class="g2_61"/>
<path fill-rule="evenodd" d="M227.7,311.4c0,-1.1,.1,-2.1,.5,-2.9c.3,-.9,.8,-1.5,1.4,-1.9c.4,-.3,.9,-.5,1.3,-.5c.8,0,1.5,.4,2.1,1.2c.8,1,1.2,2.3,1.2,4c0,1.2,-.2,2.2,-.5,3c-.4,.8,-.8,1.4,-1.3,1.8c-.5,.3,-1,.5,-1.5,.5c-1,0,-1.8,-.6,-2.4,-1.7c-.6,-1,-.8,-2.1,-.8,-3.5m1.4,.2c0,1.4,.2,2.6,.5,3.4c.3,.8,.7,1.1,1.3,1.1c.3,0,.5,-.1,.8,-.3c.3,-.3,.5,-.7,.7,-1.2c.2,-.9,.3,-2.1,.3,-3.6c0,-1.2,-.1,-2.2,-.3,-2.9c-.2,-.6,-.4,-1,-.7,-1.2c-.2,-.2,-.5,-.3,-.8,-.3c-.3,0,-.6,.2,-.9,.5c-.3,.4,-.6,1,-.7,1.9c-.1,.9,-.2,1.8,-.2,2.6Z" class="g2_61"/>
<path fill-rule="evenodd" d="M237.8,306.1c.6,0,1.1,.2,1.6,.7c.4,.4,.7,1,.7,1.6c0,.6,-.3,1.2,-.7,1.6c-.5,.5,-1,.7,-1.6,.7c-.7,0,-1.2,-.2,-1.7,-.7c-.4,-.4,-.6,-1,-.6,-1.6c0,-.6,.2,-1.2,.6,-1.6c.5,-.5,1,-.7,1.7,-.7m0,.6c-.5,0,-.9,.2,-1.2,.5c-.3,.3,-.5,.7,-.5,1.2c0,.4,.2,.8,.5,1.2c.3,.3,.7,.5,1.2,.5c.4,0,.8,-.2,1.1,-.5c.4,-.4,.5,-.8,.5,-1.2c0,-.5,-.1,-.9,-.5,-1.2c-.3,-.3,-.7,-.5,-1.1,-.5Z" class="g2_61"/>
<path fill-rule="evenodd" d="M280.5,306.1v.3c-.6,.1,-1.2,.2,-1.6,.4c-.4,.2,-.8,.5,-1.2,.9c-.4,.4,-.8,.8,-1,1.3c-.3,.5,-.5,1.1,-.7,1.8c.7,-.5,1.4,-.7,2.2,-.7c.6,0,1.2,.2,1.8,.8c.5,.5,.7,1.3,.7,2.1c0,.9,-.2,1.7,-.8,2.3c-.6,.9,-1.4,1.3,-2.4,1.3c-.7,0,-1.3,-.2,-1.8,-.7c-.9,-.9,-1.4,-2,-1.4,-3.4c0,-.9,.2,-1.8,.6,-2.6c.3,-.8,.8,-1.6,1.5,-2.2c.7,-.6,1.3,-1,2,-1.3c.6,-.2,1.1,-.3,1.7,-.3Zm-4.6,5.2c-.1,.7,-.2,1.2,-.2,1.7c0,.4,.1,1,.3,1.5c.2,.6,.4,1,.8,1.3c.2,.3,.6,.4,.9,.4c.4,0,.8,-.2,1.2,-.6c.3,-.4,.5,-1,.5,-1.8c0,-.8,-.2,-1.5,-.5,-2.2c-.4,-.6,-.8,-.9,-1.5,-.9c-.1,0,-.4,0,-.6,.1c-.2,.1,-.5,.3,-.9,.5Z" class="g2_61"/>
<path fill-rule="evenodd" d="M281.9,311.4c0,-1.1,.1,-2.1,.5,-2.9c.3,-.9,.8,-1.5,1.4,-1.9c.4,-.3,.9,-.5,1.4,-.5c.7,0,1.4,.4,2,1.2c.8,1,1.2,2.3,1.2,4c0,1.2,-.2,2.2,-.5,3c-.3,.8,-.8,1.4,-1.3,1.8c-.5,.3,-1,.5,-1.5,.5c-1,0,-1.8,-.6,-2.4,-1.7c-.6,-1,-.8,-2.1,-.8,-3.5m1.4,.2c0,1.4,.2,2.6,.5,3.4c.3,.8,.7,1.1,1.3,1.1c.3,0,.5,-.1,.8,-.3c.3,-.3,.5,-.7,.7,-1.2c.2,-.9,.3,-2.1,.3,-3.6c0,-1.2,-.1,-2.2,-.3,-2.9c-.2,-.6,-.4,-1,-.7,-1.2c-.2,-.2,-.5,-.3,-.8,-.3c-.3,0,-.6,.2,-.9,.5c-.3,.4,-.6,1,-.7,1.9c-.1,.9,-.2,1.8,-.2,2.6Z" class="g2_61"/>
<path fill-rule="evenodd" d="M292,306.1c.6,0,1.1,.2,1.6,.7c.4,.4,.7,1,.7,1.6c0,.6,-.3,1.2,-.7,1.6c-.5,.5,-1,.7,-1.6,.7c-.7,0,-1.2,-.2,-1.7,-.7c-.4,-.4,-.6,-1,-.6,-1.6c0,-.6,.2,-1.2,.6,-1.6c.5,-.5,1,-.7,1.7,-.7m0,.6c-.5,0,-.9,.2,-1.2,.5c-.3,.3,-.5,.7,-.5,1.2c0,.4,.2,.8,.5,1.2c.3,.3,.7,.5,1.2,.5c.4,0,.8,-.2,1.1,-.5c.4,-.4,.5,-.8,.5,-1.2c0,-.5,-.1,-.9,-.5,-1.2c-.3,-.3,-.7,-.5,-1.1,-.5Z" class="g2_61"/>
<path fill-rule="evenodd" d="M253.2,266.6h5.4v.3l-3.3,10h-.9l3.1,-9.1h-2.8c-.6,0,-1,.1,-1.2,.2c-.4,.3,-.8,.6,-1,1.1l-.3,-.1Z" class="g2_61"/>
<path fill-rule="evenodd" d="M259.9,271.7c0,-1.1,.1,-2.1,.5,-2.9c.3,-.9,.8,-1.5,1.4,-1.9c.4,-.3,.9,-.5,1.4,-.5c.7,0,1.4,.4,2.1,1.2c.7,1,1.1,2.3,1.1,4c0,1.2,-.2,2.1,-.5,3c-.3,.8,-.8,1.4,-1.3,1.8c-.5,.3,-1,.5,-1.5,.5c-1,0,-1.8,-.6,-2.4,-1.7c-.6,-1,-.8,-2.1,-.8,-3.5m1.4,.2c0,1.4,.2,2.5,.5,3.4c.3,.8,.8,1.1,1.3,1.1c.3,0,.6,-.1,.8,-.3c.3,-.3,.6,-.7,.7,-1.2c.2,-.9,.3,-2.1,.3,-3.7c0,-1.1,-.1,-2.1,-.3,-2.8c-.2,-.6,-.4,-1,-.7,-1.3c-.2,-.1,-.5,-.2,-.7,-.2c-.4,0,-.7,.2,-.9,.5c-.4,.4,-.6,1,-.8,1.9c-.1,.9,-.2,1.8,-.2,2.6Z" class="g2_61"/>
<path fill-rule="evenodd" d="M270,266.4c.6,0,1.2,.2,1.6,.7c.5,.4,.7,1,.7,1.6c0,.6,-.2,1.2,-.7,1.6c-.4,.5,-1,.7,-1.6,.7c-.7,0,-1.2,-.2,-1.6,-.7c-.5,-.4,-.7,-1,-.7,-1.6c0,-.6,.2,-1.2,.7,-1.6c.4,-.5,.9,-.7,1.6,-.7m0,.6c-.5,0,-.9,.2,-1.2,.5c-.3,.3,-.5,.7,-.5,1.2c0,.4,.2,.8,.5,1.2c.3,.3,.7,.4,1.2,.4c.4,0,.8,-.1,1.2,-.4c.3,-.4,.4,-.8,.4,-1.2c0,-.5,-.1,-.9,-.4,-1.2c-.4,-.3,-.8,-.5,-1.2,-.5Z" class="g2_61"/>
<path fill-rule="evenodd" d="M197.4,324.4l-.9,10.1c0,.5,-.1,.8,-.1,.9c0,.3,.1,.5,.2,.6c.1,.2,.2,.3,.4,.4c.2,.1,.5,.1,1,.1l-.1,.3h-4.8l.1,-.3h.2c.4,0,.7,-.1,1,-.3c.2,-.1,.3,-.3,.4,-.5c0,-.2,.1,-.6,.2,-1.3l.1,-1.6h-3.5l-1.2,1.7c-.3,.4,-.4,.7,-.5,.8c-.1,.2,-.1,.3,-.1,.5c0,.2,0,.3,.2,.5c.2,.1,.4,.2,.8,.2l-.1,.3h-3.6l.1,-.3c.4,0,.8,-.2,1.2,-.4c.3,-.3,.8,-.9,1.5,-1.8l7.2,-9.9Zm-1.7,3l-3.6,4.8h3.1Z" class="g2_61"/>
<path fill-rule="evenodd" d="M309.6,324.3l.2,-.3h4.3c.7,0,1.4,.1,2,.3c.5,.2,.9,.6,1.2,1c.3,.4,.5,.8,.5,1.3c0,.7,-.3,1.3,-.8,1.8c-.5,.6,-1.3,1,-2.5,1.3c.8,.3,1.3,.6,1.7,1.1c.3,.4,.5,.9,.5,1.5c0,.6,-.2,1.2,-.5,1.7c-.3,.6,-.7,1,-1.2,1.3c-.5,.3,-1.1,.5,-1.7,.7c-.5,.1,-1.3,.1,-2.3,.1h-4.5l.1,-.3c.5,0,.8,-.1,1,-.2c.2,-.1,.4,-.2,.5,-.4c.1,-.2,.3,-.7,.6,-1.5l2.1,-7.4c.2,-.6,.3,-1,.3,-1.3c0,-.2,-.1,-.4,-.2,-.5c-.2,-.1,-.5,-.2,-1,-.2c-.1,0,-.2,0,-.3,0m1.9,5c.3,.1,.6,.1,.8,.1c1.2,0,2.2,-.3,2.8,-.8c.6,-.6,.9,-1.3,.9,-2.1c0,-.6,-.2,-1.1,-.6,-1.4c-.3,-.4,-.9,-.5,-1.7,-.5c-.3,0,-.5,0,-.9,.1Zm-1.8,6c.6,.1,1.1,.1,1.5,.1c.9,0,1.8,-.2,2.5,-.8c.7,-.6,1.1,-1.3,1.1,-2.3c0,-.7,-.3,-1.3,-.7,-1.7c-.4,-.4,-1.2,-.6,-2.2,-.6c-.1,0,-.4,0,-.7,0Z" class="g2_61"/>
<path fill-rule="evenodd" d="M281.4,232.8l-.9,4h-.3l-.1,-1c0,-.4,-.1,-.7,-.2,-1c-.1,-.3,-.2,-.5,-.5,-.7c-.2,-.2,-.4,-.4,-.8,-.5c-.3,-.1,-.7,-.2,-1.1,-.2c-1,0,-2,.3,-2.8,.9c-1,.8,-1.8,1.8,-2.4,3.2c-.4,1.1,-.7,2.2,-.7,3.4c0,1.2,.4,2.1,1,2.8c.7,.7,1.6,1.1,2.7,1.1c.9,0,1.6,-.2,2.2,-.6c.7,-.4,1.3,-.9,1.8,-1.7h.5c-.7,1,-1.4,1.8,-2.2,2.3c-.8,.5,-1.8,.7,-2.9,.7c-1,0,-1.9,-.2,-2.6,-.6c-.8,-.4,-1.4,-1,-1.8,-1.7c-.4,-.8,-.6,-1.6,-.6,-2.5c0,-1.3,.4,-2.6,1.1,-3.8c.7,-1.3,1.7,-2.3,2.9,-3c1.3,-.7,2.5,-1.1,3.8,-1.1c.6,0,1.2,.2,1.9,.5c.4,.1,.6,.1,.7,.1c.2,0,.3,0,.4,-.1c.1,0,.3,-.2,.6,-.5Z" class="g2_61"/>
<path d="M241,523.8l35.9,86.3H204.3L241,523.8Z" class="g3_61"/>
<path fill-rule="evenodd" d="M193.9,609.7l-3.6,4.9h3.1Zm1.8,-3.1l-.9,10.4c-.1,.4,-.1,.8,-.1,.9c0,.3,0,.4,.1,.6c.1,.1,.3,.3,.5,.4c.2,0,.5,.1,1,.1l-.1,.3h-4.9l.1,-.3h.2c.4,0,.7,-.1,1,-.3c.2,-.1,.3,-.3,.4,-.5c.1,-.2,.1,-.7,.2,-1.4l.1,-1.6h-3.5l-1.3,1.8c-.3,.3,-.4,.6,-.5,.8c-.1,.2,-.1,.3,-.1,.5c0,.1,.1,.3,.2,.5c.2,.1,.4,.2,.8,.2l-.1,.3h-3.7l.1,-.3c.5,0,.9,-.2,1.2,-.5c.4,-.2,.9,-.9,1.6,-1.8l7.4,-10.1Z" class="g2_61"/>
<path fill-rule="evenodd" d="M286.4,616.7c.7,.1,1.2,.1,1.5,.1c1,0,1.8,-.3,2.6,-.8c.7,-.6,1.1,-1.4,1.1,-2.4c0,-.7,-.3,-1.3,-.7,-1.7c-.5,-.5,-1.2,-.7,-2.2,-.7c-.2,0,-.4,0,-.7,.1Zm1.8,-6.1c.4,0,.7,0,.9,0c1.2,0,2.2,-.3,2.8,-.8c.6,-.6,.9,-1.3,.9,-2.1c0,-.6,-.2,-1.1,-.5,-1.5c-.4,-.3,-1,-.5,-1.9,-.5c-.2,0,-.5,0,-.8,.1Zm-1.9,-5.2l.2,-.3h4.4c.7,0,1.4,.1,2,.3c.6,.3,1,.6,1.3,1c.3,.4,.4,.9,.4,1.3c0,.7,-.2,1.4,-.7,2c-.6,.5,-1.4,1,-2.6,1.2c.8,.3,1.3,.7,1.7,1.1c.3,.5,.5,1,.5,1.6c0,.6,-.1,1.2,-.5,1.7c-.3,.6,-.7,1,-1.2,1.4c-.5,.3,-1.1,.5,-1.8,.6c-.5,.1,-1.3,.2,-2.3,.2h-4.6l.1,-.3c.5,-.1,.9,-.1,1,-.2c.3,-.1,.4,-.2,.5,-.4c.2,-.2,.4,-.8,.6,-1.6l2.3,-7.5c.1,-.6,.2,-1.1,.2,-1.3c0,-.3,0,-.4,-.2,-.6c-.2,-.1,-.5,-.2,-1,-.2c-.1,0,-.2,0,-.3,0Z" class="g2_61"/>
<path clip-path="url(#c0_61)" fill-rule="evenodd" d="M252.7,507.5l-.9,4h-.4v-1c0,-.4,-.1,-.7,-.2,-1c-.1,-.3,-.3,-.5,-.5,-.7c-.2,-.3,-.5,-.4,-.9,-.5c-.3,-.2,-.7,-.2,-1.1,-.2c-1.1,0,-2,.3,-2.8,.9c-1.1,.7,-1.9,1.8,-2.5,3.2c-.5,1.2,-.7,2.3,-.7,3.5c0,1.2,.3,2.2,1,2.9c.7,.7,1.6,1.1,2.8,1.1c.8,0,1.6,-.2,2.2,-.6c.7,-.4,1.3,-1,1.9,-1.8h.4c-.7,1.1,-1.4,1.9,-2.2,2.4c-.8,.5,-1.8,.8,-3,.8c-1,0,-1.9,-.3,-2.7,-.7c-.7,-.4,-1.3,-1,-1.7,-1.8c-.4,-.7,-.7,-1.6,-.7,-2.5c0,-1.3,.4,-2.6,1.1,-3.9c.8,-1.3,1.8,-2.3,3,-3c1.3,-.8,2.6,-1.1,3.9,-1.1c.6,0,1.2,.1,2,.4c.3,.1,.6,.2,.7,.2c.2,0,.3,0,.4,-.1c.1,-.1,.3,-.2,.5,-.5Z" class="g2_61"/>
<path fill-rule="evenodd" d="M210.8,571c.6,.4,1.1,.6,1.6,.6c.5,0,1.1,-.2,1.6,-.6c.6,-.4,1.1,-1.1,1.5,-2c.5,-1,.7,-1.9,.7,-2.9c0,-.5,-.2,-1,-.4,-1.3c-.3,-.3,-.6,-.5,-1,-.5c-.6,0,-1.1,.3,-1.7,.7c-.5,.5,-.9,1.1,-1.1,1.9Zm3.5,-12.3l-1.8,6.4c.6,-.6,1.1,-1.1,1.5,-1.3c.5,-.2,.9,-.3,1.4,-.3c.7,0,1.2,.2,1.7,.6c.4,.5,.6,1.1,.6,1.9c0,.9,-.3,1.9,-.8,2.9c-.6,1,-1.3,1.7,-2.2,2.3c-.8,.5,-1.6,.8,-2.5,.8c-.9,0,-1.8,-.4,-2.8,-1.1l2.8,-9.5c.2,-.8,.3,-1.2,.3,-1.3c0,-.2,-.1,-.3,-.1,-.4c-.2,-.1,-.4,-.2,-.7,-.2c-.1,0,-.3,.1,-.6,.1v-.3Z" class="g2_61"/>
<path fill-rule="evenodd" d="M271.7,564c-.4,0,-.8,.1,-1.2,.5c-.7,.5,-1.2,1.3,-1.7,2.3c-.5,1,-.7,1.9,-.7,2.8c0,.4,.1,.7,.3,1c.2,.2,.4,.3,.7,.3c.7,0,1.4,-.5,2.2,-1.5c1,-1.3,1.5,-2.6,1.5,-4c0,-.5,-.1,-.9,-.3,-1.1c-.2,-.2,-.4,-.3,-.8,-.3m3.3,-.5l-1.8,6.2l-.2,.8c0,.1,0,.2,0,.2c0,.1,0,.2,0,.3c.1,0,.2,.1,.2,.1c.1,0,.2,-.1,.3,-.2c.3,-.2,.6,-.5,1,-1.1l.3,.2c-.4,.7,-.8,1.1,-1.3,1.5c-.4,.3,-.9,.5,-1.2,.5c-.3,0,-.5,-.1,-.6,-.2c-.2,-.1,-.2,-.3,-.2,-.6c0,-.3,0,-.7,.2,-1.2l.2,-.7c-.8,1.1,-1.6,1.8,-2.2,2.2c-.5,.3,-1,.5,-1.5,.5c-.4,0,-.8,-.2,-1.1,-.6c-.3,-.3,-.5,-.9,-.5,-1.5c0,-1,.3,-2,.9,-3.1c.6,-1,1.3,-1.9,2.2,-2.6c.7,-.5,1.4,-.7,2,-.7c.4,0,.7,.1,.9,.3c.3,.2,.5,.5,.6,.9l.3,-1Z" class="g2_61"/>
<path clip-path="url(#c0_61)" fill-rule="evenodd" d="M297.4,571c.6,.4,1.1,.6,1.6,.6c.5,0,1.1,-.2,1.6,-.6c.6,-.4,1.1,-1.1,1.5,-2c.5,-1,.7,-1.9,.7,-2.9c0,-.5,-.2,-1,-.4,-1.3c-.3,-.3,-.6,-.5,-1,-.5c-.6,0,-1.1,.3,-1.7,.7c-.5,.5,-.9,1.1,-1.1,1.9Zm3.5,-12.3l-1.8,6.4c.6,-.6,1.1,-1.1,1.5,-1.3c.5,-.2,.9,-.3,1.4,-.3c.7,0,1.2,.2,1.7,.6c.4,.5,.6,1.1,.6,1.9c0,.9,-.3,1.9,-.8,2.9c-.6,1,-1.3,1.7,-2.2,2.3c-.8,.5,-1.6,.8,-2.5,.8c-.9,0,-1.8,-.4,-2.8,-1.1l2.8,-9.5c.2,-.8,.3,-1.2,.3,-1.3c0,-.2,-.1,-.3,-.1,-.4c-.2,-.1,-.4,-.2,-.7,-.2c-.1,0,-.3,.1,-.6,.1v-.3Z" class="g2_61"/>
<path fill-rule="evenodd" d="M280.6,566.7h9.9v.7h-9.9v-.7Zm0,-3h9.9v.7h-9.9v-.7Z" class="g2_61"/>
<path fill-rule="evenodd" d="M246.2,623.6c-.6,.8,-1.2,1.3,-1.9,1.7c-.6,.4,-1.3,.5,-2,.5c-.9,0,-1.6,-.2,-2.1,-.7c-.5,-.5,-.7,-1.1,-.7,-2c0,-.9,.3,-1.8,.8,-2.7c.5,-.9,1.2,-1.7,2.1,-2.2c.9,-.6,1.7,-.9,2.6,-.9c.6,0,1.1,.2,1.5,.4c.3,.3,.5,.7,.5,1.1c0,.3,-.1,.7,-.4,.9c-.1,.2,-.4,.3,-.6,.3c-.2,0,-.4,0,-.5,-.1c-.1,-.2,-.2,-.3,-.2,-.5c0,-.1,.1,-.2,.1,-.3c0,-.1,.1,-.2,.3,-.4c.1,-.1,.2,-.2,.2,-.3c.1,0,.1,-.1,.1,-.2c0,-.1,-.1,-.2,-.2,-.3c-.2,-.1,-.4,-.2,-.7,-.2c-.6,0,-1.2,.3,-1.8,.7c-.6,.4,-1.1,1,-1.5,1.8c-.5,.9,-.8,1.8,-.8,2.8c0,.6,.2,1.1,.6,1.5c.3,.3,.8,.5,1.4,.5c.5,0,.9,-.1,1.4,-.3c.5,-.3,1,-.7,1.6,-1.3Z" class="g2_61"/>
<path d="M443.8,321.4H550.2M443.7,246.8l106.7,74.6M444,321.8V246.7m.6,60.9c6.6,2,10.8,6.6,12.6,13.7m71.9,.6c.1,-5.5,1.3,-9.7,3.9,-12.7M460.5,258c-5.4,5.3,-10.8,8.1,-16.1,8.4" class="g1_61"/>
<path fill-rule="evenodd" d="M454.4,267.7l-.6,1.3h-3l-.7,1.3c1.4,.2,2.4,.7,3.2,1.5c.6,.7,1,1.5,1,2.4c0,.5,-.1,1,-.4,1.4c-.2,.5,-.4,.9,-.8,1.2c-.3,.3,-.7,.6,-1.1,.8c-.5,.2,-1.1,.4,-1.7,.4c-.6,0,-1.1,-.1,-1.4,-.3c-.2,-.2,-.4,-.5,-.4,-.7c0,-.1,.1,-.3,.2,-.4c.1,-.1,.3,-.1,.4,-.1c.2,0,.3,0,.4,0c.1,.1,.2,.2,.5,.3c.3,.3,.7,.4,1.1,.4c.6,0,1.1,-.2,1.5,-.6c.5,-.5,.7,-1,.7,-1.7c0,-.6,-.2,-1.1,-.6,-1.7c-.4,-.5,-.9,-.9,-1.6,-1.2c-.6,-.2,-1.3,-.3,-2.2,-.4l1.9,-3.9Z" class="g2_61"/>
<path fill-rule="evenodd" d="M462.1,267.7l-.6,1.3h-3.1l-.6,1.3c1.3,.2,2.3,.7,3.1,1.5c.7,.7,1,1.5,1,2.4c0,.5,-.1,1,-.3,1.4c-.2,.5,-.5,.9,-.8,1.2c-.4,.3,-.7,.6,-1.1,.8c-.6,.2,-1.2,.4,-1.8,.4c-.6,0,-1,-.1,-1.3,-.3c-.3,-.2,-.4,-.5,-.4,-.7c0,-.1,0,-.3,.1,-.4c.2,-.1,.3,-.1,.5,-.1c.1,0,.2,0,.3,0c.1,.1,.3,.2,.5,.3c.4,.3,.8,.4,1.1,.4c.6,0,1.1,-.2,1.6,-.6c.4,-.5,.6,-1,.6,-1.7c0,-.6,-.2,-1.1,-.6,-1.7c-.3,-.5,-.9,-.9,-1.6,-1.2c-.5,-.2,-1.3,-.3,-2.2,-.4l1.9,-3.9Z" class="g2_61"/>
<path fill-rule="evenodd" d="M466.1,267.5c.6,0,1.2,.2,1.6,.6c.5,.5,.7,1,.7,1.7c0,.6,-.2,1.1,-.7,1.6c-.4,.4,-1,.7,-1.6,.7c-.6,0,-1.2,-.3,-1.6,-.7c-.5,-.5,-.7,-1,-.7,-1.6c0,-.7,.2,-1.2,.7,-1.7c.4,-.4,1,-.6,1.6,-.6m0,.6c-.5,0,-.9,.2,-1.2,.5c-.3,.3,-.5,.7,-.5,1.2c0,.4,.2,.8,.5,1.1c.3,.4,.7,.5,1.2,.5c.5,0,.8,-.1,1.2,-.5c.3,-.3,.5,-.7,.5,-1.1c0,-.5,-.2,-.9,-.5,-1.2c-.3,-.3,-.7,-.5,-1.2,-.5Z" class="g2_61"/>
<path fill-rule="evenodd" d="M506.4,310c.2,-.6,.6,-1.2,1,-1.5c.5,-.4,1,-.6,1.7,-.6c.8,0,1.4,.3,1.9,.8c.3,.4,.5,.8,.5,1.3c0,.7,-.5,1.5,-1.4,2.2c.6,.3,1.1,.6,1.4,1.1c.3,.4,.5,1,.5,1.6c0,.9,-.3,1.6,-.9,2.3c-.7,.8,-1.8,1.2,-3.1,1.2c-.7,0,-1.2,-.1,-1.4,-.2c-.3,-.2,-.4,-.4,-.4,-.6c0,-.1,.1,-.3,.2,-.4c.1,-.1,.2,-.1,.4,-.1c.1,0,.2,0,.4,0c.1,0,.3,.1,.6,.3c.2,.2,.5,.2,.6,.3c.2,0,.4,.1,.6,.1c.5,0,.9,-.2,1.3,-.6c.4,-.4,.5,-.9,.5,-1.4c0,-.4,0,-.8,-.2,-1.2c-.1,-.3,-.3,-.5,-.4,-.6c-.3,-.2,-.5,-.4,-.9,-.6c-.4,-.1,-.8,-.2,-1.2,-.2h-.2V313c.4,-.1,.8,-.2,1.2,-.4c.4,-.3,.7,-.6,.8,-.9c.2,-.3,.3,-.7,.3,-1.1c0,-.5,-.1,-.9,-.5,-1.2c-.3,-.3,-.7,-.5,-1.2,-.5c-.7,0,-1.4,.4,-1.9,1.3Z" class="g2_61"/>
<path fill-rule="evenodd" d="M519.9,308.1l-.6,1.3h-3.1l-.6,1.3c1.3,.2,2.3,.7,3.1,1.5c.7,.7,1,1.5,1,2.4c0,.5,-.1,1,-.3,1.5c-.3,.4,-.5,.8,-.9,1.1c-.3,.3,-.6,.6,-1.1,.8c-.5,.3,-1.1,.4,-1.7,.4c-.6,0,-1.1,-.1,-1.3,-.3c-.3,-.2,-.5,-.4,-.5,-.7c0,-.1,.1,-.2,.2,-.4c.1,-.1,.3,-.1,.5,-.1c.1,0,.2,0,.3,0c.1,.1,.3,.2,.5,.3c.4,.3,.7,.4,1.1,.4c.6,0,1.1,-.2,1.6,-.6c.4,-.5,.6,-1,.6,-1.6c0,-.6,-.2,-1.2,-.6,-1.7c-.4,-.6,-.9,-1,-1.6,-1.3c-.5,-.2,-1.3,-.3,-2.2,-.4l1.9,-3.9Z" class="g2_61"/>
<path fill-rule="evenodd" d="M523.9,307.9c.6,0,1.2,.2,1.6,.7c.5,.4,.7,.9,.7,1.6c0,.6,-.2,1.2,-.7,1.6c-.4,.4,-1,.7,-1.6,.7c-.7,0,-1.2,-.3,-1.6,-.7c-.5,-.4,-.7,-1,-.7,-1.6c0,-.7,.2,-1.2,.7,-1.6c.4,-.5,.9,-.7,1.6,-.7m0,.6c-.5,0,-.9,.2,-1.2,.5c-.3,.3,-.5,.7,-.5,1.2c0,.4,.2,.8,.5,1.2c.3,.3,.7,.4,1.2,.4c.4,0,.8,-.1,1.2,-.4c.3,-.4,.4,-.8,.4,-1.2c0,-.5,-.1,-.9,-.4,-1.2c-.4,-.3,-.8,-.5,-1.2,-.5Z" class="g2_61"/>
<path fill-rule="evenodd" d="M448.8,315.7c.7,0,1.3,.6,1.3,1.3c0,.7,-.6,1.2,-1.3,1.2c-.7,0,-1.2,-.5,-1.2,-1.2c0,-.7,.5,-1.3,1.2,-1.3Z" class="g2_61"/>
<path fill-rule="evenodd" d="M435.4,324.7l1.1,9.8l7,-9.8h3v.3c-.7,.1,-1,.1,-1.2,.1c-.2,.1,-.3,.3,-.5,.5c-.2,.2,-.3,.7,-.5,1.4l-2.3,7.7c-.1,.4,-.2,.8,-.2,1c0,.2,.1,.4,.3,.5c.2,.2,.6,.3,1,.3h.3l-.1,.3h-5.1l.1,-.3h.2c.4,0,.8,-.1,1,-.2c.2,-.1,.4,-.3,.5,-.5c.2,-.3,.4,-.9,.6,-1.8l2,-7l-7,9.8h-.4L434.1,327l-2.2,7.5c-.2,.6,-.3,1,-.3,1.3c0,.2,.1,.3,.3,.5c.1,.1,.5,.2,1.1,.2l-.1,.3h-4l.1,-.3h.3c.6,0,1,-.2,1.3,-.5c.2,-.2,.4,-.6,.6,-1.3l2.6,-9.1c-.2,-.2,-.4,-.3,-.6,-.4c-.1,-.1,-.5,-.1,-1,-.2l.1,-.3Z" class="g2_61"/>
<path fill-rule="evenodd" d="M558,321.8l3.8,9.5l2,-7.1c.2,-.5,.3,-1,.3,-1.3c0,-.2,-.1,-.4,-.3,-.5c-.1,-.2,-.4,-.2,-.8,-.2c-.1,0,-.2,0,-.2,0v-.4h4l-.2,.4c-.4,0,-.7,0,-.9,.1c-.2,.1,-.4,.3,-.6,.5c-.2,.2,-.4,.7,-.6,1.4l-2.8,10h-.3L557.3,324l-2.1,7.6c-.2,.5,-.3,1,-.3,1.3c0,.2,.1,.4,.2,.5c.2,.1,.5,.2,1.1,.2l-.1,.4h-3.8l.1,-.4c.5,0,.8,0,1,-.1c.2,-.1,.4,-.2,.5,-.4c.2,-.3,.4,-.8,.6,-1.5l2.4,-8.5c-.2,-.3,-.5,-.6,-.8,-.7c-.2,-.1,-.6,-.2,-1.2,-.2l.1,-.4Z" class="g2_61"/>
<path fill-rule="evenodd" d="M442.2,236.2l3,4.7c.6,.8,1,1.3,1.4,1.5c.3,.3,.8,.4,1.3,.4l-.1,.3h-5.1l.1,-.3c.4,-.1,.7,-.2,.8,-.3c.2,-.2,.3,-.3,.3,-.5c0,-.2,0,-.4,-.1,-.6c-.1,-.1,-.2,-.4,-.5,-.8l-2.5,-3.9l-1.2,4c-.2,.7,-.3,1.1,-.3,1.3c0,.2,.1,.4,.3,.5c.1,.2,.6,.2,1.2,.3l-.1,.3h-4.8l.1,-.3c.5,0,.8,-.1,.9,-.1c.3,-.2,.4,-.3,.6,-.5c.1,-.2,.3,-.7,.5,-1.5l2.2,-7.3c.1,-.6,.2,-1,.2,-1.4c0,-.2,-.1,-.4,-.2,-.5c-.2,-.1,-.5,-.2,-.9,-.2h-.2l.1,-.3h4.6l-.1,.3c-.4,0,-.7,0,-.9,.1c-.2,.2,-.4,.3,-.5,.5c-.1,.2,-.3,.7,-.5,1.5l-1,3.1l4.3,-3.3c.6,-.4,1,-.7,1.2,-1c.1,-.1,.1,-.3,.1,-.4c0,-.1,0,-.2,-.2,-.3c-.1,-.1,-.2,-.2,-.5,-.2l.1,-.3h3.9l-.1,.3c-.4,.1,-.7,.2,-1,.3c-.3,.1,-.6,.3,-.9,.5c-.1,0,-.7,.5,-1.8,1.3Z" class="g2_61"/>
<path d="M74.8,200.7H837" class="g4_61"/>
<path d="M184.8,181.4h651V65h-651V181.4Z" class="g5_61"/>
<path fill-rule="evenodd" d="M222.3,112.1h-2.4c-.8,-1.1,-1.4,-2.2,-2.1,-3.4c-.1,-.2,-.2,-.4,-.3,-.5c-.2,-.2,-.3,-.2,-.5,-.2c-.1,0,-.2,0,-.4,0v2.2c0,.6,.1,.9,.1,1.1c.1,.2,.2,.3,.4,.4c.2,0,.5,.1,.9,.1v.3h-4.1v-.3c.5,0,.9,-.1,1,-.3c.2,-.2,.3,-.6,.3,-1.3v-4.4c0,-.6,-.1,-1,-.1,-1.1c-.1,-.1,-.2,-.2,-.3,-.3c-.2,-.1,-.5,-.2,-.9,-.2v-.3H218v.3c-.5,0,-.8,.1,-.9,.2c-.1,0,-.2,.1,-.3,.2c-.1,.1,-.2,.5,-.2,1.2v1.6c.2,.1,.3,.1,.3,.1c.4,0,.7,-.1,1,-.4c.4,-.2,.6,-.6,.9,-1.3c.2,-.6,.4,-1,.6,-1.2c.1,-.3,.3,-.4,.6,-.6c.3,-.1,.6,-.2,.9,-.2c.3,0,.5,.1,.7,.2c.2,.2,.3,.4,.3,.6c0,.3,-.1,.4,-.2,.6c-.1,.1,-.3,.2,-.6,.2c-.1,0,-.3,0,-.5,-.1c-.2,-.1,-.4,-.1,-.5,-.1c-.3,0,-.5,.2,-.7,.7c-.2,.5,-.4,.9,-.5,1c0,.2,-.2,.4,-.5,.6c.2,.1,.4,.2,.6,.5c.2,.2,.6,.8,1.2,1.8c.5,.9,.8,1.4,1.1,1.6c.2,.2,.6,.4,1,.4Z" class="g6_61"/>
<path fill-rule="evenodd" d="M227.4,110.9c-.9,.7,-1.4,1,-1.6,1.1c-.4,.2,-.7,.3,-1.1,.3c-.5,0,-1,-.2,-1.4,-.6c-.3,-.4,-.5,-.9,-.5,-1.5c0,-.4,.1,-.8,.3,-1.1c.2,-.4,.6,-.8,1.2,-1.1c.6,-.4,1.6,-.8,3.1,-1.3v-.4c0,-.8,-.2,-1.3,-.4,-1.6c-.3,-.3,-.7,-.5,-1.2,-.5c-.3,0,-.6,.1,-.9,.3c-.2,.2,-.3,.4,-.3,.7v.5c0,.3,-.1,.5,-.2,.7c-.1,.1,-.3,.2,-.5,.2c-.3,0,-.5,-.1,-.6,-.2c-.1,-.2,-.2,-.4,-.2,-.7c0,-.5,.3,-1,.8,-1.4c.5,-.4,1.2,-.6,2.2,-.6c.7,0,1.3,.1,1.8,.3c.3,.2,.6,.5,.8,.9c.1,.3,.1,.8,.1,1.6v2.8c0,.7,0,1.2,.1,1.4c0,.2,.1,.3,.1,.3c.1,.1,.2,.1,.3,.1q.1,0,.2,0c.1,-.1,.4,-.3,.7,-.7v.5c-.6,.9,-1.3,1.4,-1.9,1.4c-.3,0,-.5,-.1,-.7,-.3c-.2,-.2,-.2,-.6,-.2,-1.1m0,-.6v-3.1c-1,.4,-1.5,.6,-1.8,.8c-.5,.2,-.8,.5,-1,.8c-.2,.3,-.3,.6,-.3,.9c0,.5,.1,.8,.4,1.1c.2,.3,.5,.4,.9,.4c.4,0,1,-.3,1.8,-.9Z" class="g6_61"/>
<path fill-rule="evenodd" d="M230.2,103.9h7.1l.4,2.2h-.4c-.1,-.4,-.2,-.8,-.4,-1c-.1,-.3,-.3,-.4,-.5,-.5c-.3,-.1,-.6,-.1,-1.1,-.1h-.8v5.7c0,.6,.1,1,.2,1.1c0,.2,.1,.3,.3,.4c.2,0,.6,.1,1.2,.1v.3h-4.5v-.3c.6,0,.9,-.1,1.1,-.3c.2,-.2,.3,-.6,.3,-1.3v-5.7h-.8c-.5,0,-.8,0,-1,.1c-.2,0,-.4,.2,-.6,.4c-.1,.3,-.3,.6,-.4,1.1h-.4Z" class="g6_61"/>
<path fill-rule="evenodd" d="M239.8,107c0,1.2,.2,2.2,.8,2.9c.6,.6,1.3,1,2.1,1c.6,0,1.1,-.2,1.4,-.5c.4,-.2,.8,-.8,1,-1.5l.3,.2c-.1,.8,-.5,1.6,-1.1,2.2c-.6,.7,-1.3,1.1,-2.2,1.1c-1,0,-1.9,-.4,-2.6,-1.2c-.7,-.8,-1,-1.8,-1,-3.1c0,-1.4,.3,-2.5,1.1,-3.3c.7,-.8,1.6,-1.1,2.7,-1.1c.9,0,1.6,.3,2.2,.9c.6,.6,.9,1.4,.9,2.4Zm0,-.5h3.8c-.1,-.6,-.1,-.9,-.2,-1.1c-.2,-.4,-.4,-.6,-.7,-.8c-.3,-.2,-.6,-.3,-.9,-.3c-.5,0,-1,.2,-1.4,.6c-.3,.3,-.6,.9,-.6,1.6Z" class="g6_61"/>
<path fill-rule="evenodd" d="M246.4,103.9h7.1l.3,2.2h-.4c0,-.4,-.2,-.8,-.3,-1c-.2,-.3,-.4,-.4,-.6,-.5c-.2,-.1,-.6,-.1,-1.1,-.1h-.7v5.7c0,.6,0,1,.1,1.1c.1,.2,.2,.3,.4,.4c.1,0,.5,.1,1.1,.1v.3h-4.4v-.3c.5,0,.9,-.1,1.1,-.3c.1,-.2,.2,-.6,.2,-1.3v-5.7h-.7c-.5,0,-.9,0,-1.1,.1c-.2,0,-.3,.2,-.5,.4c-.2,.3,-.3,.6,-.4,1.1h-.4Z" class="g6_61"/>
<path fill-rule="evenodd" d="M343.4,101.4H341c-.8,-1.1,-1.5,-2.2,-2.1,-3.4c-.1,-.2,-.2,-.4,-.4,-.6c-.1,-.1,-.2,-.2,-.4,-.2c-.1,0,-.2,.1,-.4,.1v2.2c0,.6,.1,.9,.1,1.1c.1,.2,.2,.3,.4,.3c.2,.1,.5,.2,.9,.2v.3H335v-.3c.5,0,.9,-.1,1,-.3c.2,-.2,.2,-.7,.2,-1.3V95.1c0,-.6,0,-1,-.1,-1.1c0,-.1,-.1,-.2,-.3,-.3c-.1,-.1,-.4,-.2,-.8,-.2v-.3h4.1v.3c-.5,0,-.8,.1,-.9,.1c-.1,.1,-.2,.2,-.3,.3c-.1,.1,-.2,.5,-.2,1.2v1.6c.2,0,.3,0,.3,0c.4,0,.7,-.1,1,-.3c.3,-.2,.6,-.6,.9,-1.3c.2,-.6,.4,-1,.6,-1.3c.1,-.2,.3,-.4,.6,-.5c.3,-.1,.5,-.2,.8,-.2c.4,0,.6,.1,.8,.2c.2,.2,.3,.4,.3,.6c0,.2,-.1,.4,-.2,.6c-.1,.1,-.3,.2,-.6,.2c-.1,0,-.3,-.1,-.5,-.1c-.2,-.1,-.4,-.2,-.5,-.2c-.3,0,-.5,.3,-.7,.7c-.2,.6,-.4,.9,-.5,1.1c-.1,.2,-.3,.4,-.5,.6c.2,.1,.4,.2,.6,.4c.2,.3,.6,.9,1.2,1.9c.5,.9,.8,1.4,1.1,1.6c.2,.2,.5,.3,1,.4Z" class="g6_61"/>
<path fill-rule="evenodd" d="M348.4,100.2c-.8,.7,-1.3,1,-1.6,1.1c-.3,.2,-.6,.3,-1,.3c-.5,0,-1,-.2,-1.4,-.6c-.3,-.4,-.5,-.9,-.5,-1.6c0,-.4,.1,-.7,.2,-1c.3,-.4,.7,-.8,1.3,-1.1c.6,-.4,1.6,-.8,3,-1.3v-.4c0,-.8,-.1,-1.3,-.4,-1.7c-.2,-.3,-.6,-.4,-1.1,-.4c-.4,0,-.7,.1,-.9,.3c-.2,.2,-.3,.4,-.3,.7V95c0,.3,-.1,.5,-.2,.6c-.2,.2,-.3,.3,-.6,.3c-.2,0,-.4,-.1,-.5,-.3c-.1,-.1,-.2,-.3,-.2,-.6c0,-.5,.2,-1,.8,-1.4c.5,-.4,1.2,-.7,2.2,-.7c.7,0,1.3,.2,1.8,.4c.3,.2,.6,.5,.8,.9c.1,.2,.1,.8,.1,1.6v2.7c0,.8,0,1.3,.1,1.5c0,.2,0,.3,.1,.3c.1,.1,.2,.1,.2,.1c.1,0,.2,0,.3,0c.1,-.1,.4,-.3,.7,-.7v.5c-.7,.9,-1.3,1.3,-1.9,1.3c-.3,0,-.5,-.1,-.7,-.3c-.2,-.2,-.3,-.5,-.3,-1m0,-.6V96.5c-.9,.4,-1.4,.6,-1.7,.8c-.5,.2,-.8,.5,-1,.8c-.2,.3,-.3,.6,-.3,.9c0,.5,.1,.8,.4,1.1c.2,.3,.5,.4,.8,.4c.5,0,1.1,-.3,1.8,-.9Z" class="g6_61"/>
<path fill-rule="evenodd" d="M351.3,93.2h7.1l.4,2.2h-.4c-.1,-.4,-.2,-.8,-.4,-1c-.2,-.3,-.3,-.4,-.6,-.5c-.2,-.1,-.5,-.1,-1.1,-.1h-.7v5.7c0,.6,.1,1,.1,1.1c.1,.2,.2,.3,.4,.3c.2,.1,.5,.1,1.1,.2v.3h-4.4v-.3c.6,-.1,.9,-.2,1.1,-.3c.2,-.2,.2,-.6,.2,-1.3V93.8h-.7c-.5,0,-.9,0,-1,.1c-.2,0,-.4,.2,-.6,.4c-.1,.2,-.3,.6,-.4,1.1H351Z" class="g6_61"/>
<path fill-rule="evenodd" d="M360.8,96.3c0,1.2,.3,2.1,.9,2.8c.6,.7,1.3,1.1,2.1,1.1c.6,0,1,-.2,1.4,-.5c.4,-.3,.8,-.8,1,-1.5l.3,.2c-.1,.8,-.5,1.6,-1.1,2.2c-.6,.7,-1.3,1,-2.2,1c-1,0,-1.9,-.3,-2.6,-1.1c-.7,-.8,-1,-1.8,-1,-3.1c0,-1.4,.3,-2.5,1,-3.3c.8,-.8,1.7,-1.2,2.8,-1.2c.9,0,1.6,.3,2.2,.9c.6,.7,.9,1.5,.9,2.5Zm0,-.5h3.8c0,-.6,-.1,-.9,-.2,-1.2c-.1,-.3,-.3,-.5,-.6,-.7c-.3,-.2,-.6,-.3,-.9,-.3c-.5,0,-1,.2,-1.4,.5c-.4,.4,-.6,1,-.7,1.7Z" class="g6_61"/>
<path fill-rule="evenodd" d="M367.5,93.2h7.1l.3,2.2h-.4c-.1,-.4,-.2,-.8,-.3,-1c-.2,-.3,-.4,-.4,-.6,-.5c-.2,-.1,-.6,-.1,-1.1,-.1h-.7v5.7c0,.6,0,1,.1,1.1c.1,.2,.2,.3,.3,.3c.2,.1,.6,.1,1.2,.2v.3h-4.5v-.3c.6,-.1,1,-.2,1.1,-.3c.2,-.2,.3,-.6,.3,-1.3V93.8h-.7c-.6,0,-.9,0,-1.1,.1c-.2,0,-.4,.2,-.5,.4c-.2,.2,-.3,.6,-.5,1.1h-.4Z" class="g6_61"/>
<path fill-rule="evenodd" d="M244.9,163.3l3.8,-.7l.1,.3c-.2,.1,-.4,.1,-.5,.2c-.1,.1,-.1,.2,-.1,.4c0,.1,.2,.3,.4,.6c.1,0,.3,.2,.4,.4l.8,.8l.5,-1.1c.3,-.6,.4,-1,.4,-1.2c0,-.1,-.1,-.2,-.2,-.3c-.1,0,-.3,-.1,-.5,0l-.1,-.3l2.7,-.5l.1,.3c-.3,.1,-.5,.2,-.7,.4c-.3,.2,-.6,.7,-.9,1.5l-.9,1.7l2.6,2.5c.6,.6,1,1,1.3,1.1c.2,.1,.5,.1,.8,.1l.1,.3l-3.8,.7l-.1,-.3c.3,-.1,.5,-.2,.6,-.3c.1,-.1,.1,-.3,.1,-.4c0,-.1,-.3,-.4,-.7,-.9l-1.5,-1.5l-1,1.9c-.3,.7,-.5,1,-.4,1.1c0,.1,.1,.3,.2,.3c.2,.1,.4,.2,.7,.1v.3l-2.6,.5l-.1,-.3c.2,-.1,.4,-.2,.5,-.3c.2,-.2,.5,-.7,.9,-1.5l1.3,-2.6l-1.9,-1.9c-.6,-.6,-1,-.9,-1.3,-1c-.2,-.1,-.5,-.2,-.9,-.1Z" class="g6_61"/>
<path fill-rule="evenodd" d="M257.8,166.6l2.8,-4.6c-.1,-.5,-.3,-.8,-.5,-.9c-.2,-.2,-.5,-.2,-.8,-.2l-.1,-.3l3.7,-.7l.1,.4c-.4,0,-.6,.1,-.8,.2c-.1,.1,-.2,.2,-.2,.4c-.1,.1,0,.5,.1,1.1l.8,4.3c.1,.6,.2,1,.3,1.1c0,.1,.2,.2,.3,.3c.2,0,.5,0,.9,0v.3l-3.9,.7v-.3c.5,-.1,.8,-.3,.9,-.5c.1,-.2,.1,-.6,0,-1.3l-.7,-3.8l-2.7,4.7c.1,.5,.2,.8,.4,1c.1,.1,.4,.2,.9,.1v.3l-3.7,.7l-.1,-.3c.6,-.1,.9,-.3,1,-.5c.1,-.2,.1,-.6,0,-1.3l-.8,-4.3c-.1,-.6,-.2,-1,-.3,-1.1c-.1,-.1,-.2,-.2,-.4,-.2c-.1,-.1,-.4,-.1,-.8,0l-.1,-.4l3.9,-.7l.1,.4c-.4,0,-.7,.1,-.8,.2c-.1,.1,-.2,.2,-.3,.4c0,.1,0,.5,.1,1.1Z" class="g6_61"/>
<path fill-rule="evenodd" d="M270,159.2l-3.5,.6l1.1,5.6c.1,.6,.2,1,.3,1.1c0,.1,.2,.2,.3,.3c.2,0,.5,0,.9,-.1v.4l-3.9,.7v-.3c.5,-.1,.8,-.3,.9,-.5c.1,-.2,.1,-.7,0,-1.3l-.8,-4.3c-.1,-.6,-.2,-1,-.3,-1.1c-.1,-.1,-.2,-.2,-.3,-.3c-.2,0,-.5,0,-.9,.1l-.1,-.4l8.9,-1.6l.1,.3c-.4,.1,-.7,.2,-.8,.3c-.1,.1,-.2,.2,-.3,.3c0,.2,0,.6,.1,1.2l.8,4.3c.1,.6,.2,1,.3,1.1c.1,.1,.2,.2,.4,.2c.1,.1,.4,.1,.8,0l.1,.4l-3.9,.7l-.1,-.4c.5,0,.8,-.2,.9,-.4c.2,-.2,.2,-.7,0,-1.3Z" class="g6_61"/>
<path fill-rule="evenodd" d="M277.4,156.9c1.3,-.2,2.3,.1,3.2,.9c.8,.6,1.3,1.5,1.5,2.5c.1,.7,.1,1.5,-.1,2.3c-.2,.8,-.6,1.4,-1.2,1.9c-.5,.5,-1.1,.8,-1.9,1c-1.2,.2,-2.2,-.1,-3.1,-1c-.8,-.7,-1.3,-1.5,-1.5,-2.5c-.1,-.8,0,-1.5,.2,-2.3c.2,-.8,.6,-1.5,1.1,-1.9c.6,-.5,1.2,-.8,1.8,-.9m-.1,.6c-.3,.1,-.6,.2,-.9,.5c-.3,.2,-.5,.6,-.6,1.1c-.1,.5,-.1,1.1,0,1.8c.3,1.2,.7,2.2,1.3,2.9c.6,.8,1.3,1.1,2.1,1c.6,-.1,1,-.5,1.3,-1c.2,-.5,.3,-1.4,.1,-2.5c-.3,-1.4,-.8,-2.5,-1.6,-3.2c-.5,-.5,-1.1,-.7,-1.7,-.6Z" class="g6_61"/>
<path fill-rule="evenodd" d="M282.2,156.2l7,-1.3l.7,2.2h-.4c-.1,-.4,-.3,-.7,-.5,-.9c-.2,-.2,-.4,-.4,-.7,-.4c-.2,0,-.6,0,-1.1,.1l-.7,.1l1.1,5.6c.1,.6,.2,1,.3,1.1c.1,.2,.2,.3,.4,.3c.2,0,.5,0,1.1,-.1l.1,.3l-4.4,.8v-.3c.5,-.1,.9,-.3,1,-.5c.1,-.2,.1,-.6,0,-1.3l-1,-5.6l-.8,.1c-.5,.1,-.8,.2,-1,.3c-.1,.1,-.3,.3,-.4,.5c-.1,.3,-.2,.7,-.2,1.2l-.4,.1Z" class="g6_61"/>
<path fill-rule="evenodd" d="M292.1,157.5c.2,1.2,.7,2.1,1.4,2.7c.7,.5,1.5,.7,2.2,.6c.6,-.1,1,-.3,1.3,-.7c.4,-.3,.6,-.9,.8,-1.7l.3,.2c0,.8,-.2,1.6,-.7,2.4c-.5,.7,-1.2,1.2,-2.1,1.4c-.9,.1,-1.8,-.1,-2.7,-.7c-.8,-.6,-1.3,-1.6,-1.5,-2.9c-.3,-1.3,-.1,-2.5,.4,-3.4c.6,-.9,1.4,-1.4,2.5,-1.6c.9,-.2,1.7,0,2.4,.5c.7,.4,1.1,1.2,1.3,2.2ZM292,157l3.7,-.7c-.1,-.5,-.2,-.9,-.3,-1c-.2,-.4,-.5,-.6,-.8,-.7c-.4,-.1,-.7,-.2,-1,-.1c-.5,.1,-.9,.3,-1.2,.8c-.3,.4,-.4,1,-.4,1.7Z" class="g6_61"/>
<path fill-rule="evenodd" d="M301.4,156.3l3.5,-.6l-.4,-1.7c-.1,-.5,-.1,-.8,-.2,-1c-.1,-.1,-.2,-.3,-.4,-.3c-.2,-.1,-.5,-.1,-.9,0v-.4l3.9,-.7v.3c-.3,.1,-.6,.2,-.7,.3c-.2,.1,-.3,.3,-.3,.4c0,.2,0,.6,.1,1.1l.8,4.3c.1,.5,.2,.9,.2,1c.1,.2,.2,.3,.4,.3c.2,.1,.5,.1,.9,0v.4l-3.9,.7v-.3c.5,-.1,.8,-.3,.9,-.5c.1,-.2,.1,-.6,0,-1.3l-.3,-2l-3.5,.6l.3,2c.1,.5,.2,.9,.3,1c.1,.2,.2,.3,.4,.4c.2,0,.5,0,.8,0l.1,.3l-3.9,.7l-.1,-.3c.6,-.1,.9,-.3,1,-.5c.1,-.2,.1,-.7,0,-1.3l-.8,-4.3c-.1,-.5,-.2,-.8,-.3,-1c0,-.2,-.2,-.3,-.3,-.3c-.2,-.1,-.5,-.1,-.9,0l-.1,-.4l3.9,-.7l.1,.4c-.4,0,-.6,.1,-.8,.2c-.1,.1,-.2,.3,-.3,.4c0,.2,0,.6,.2,1.1Z" class="g6_61"/>
<path fill-rule="evenodd" d="M307.4,151.5l3.7,-.7l.1,.3H311c-.3,.1,-.5,.2,-.6,.3c-.1,.2,-.1,.3,-.1,.5c.1,.2,.2,.5,.5,.9l2.7,3.7l1,-4.8c0,-.3,0,-.5,0,-.7c0,-.1,-.1,-.2,-.1,-.3c-.1,0,-.1,-.1,-.3,-.1c-.1,0,-.2,0,-.5,.1l-.1,-.4l2.7,-.5v.4c-.2,0,-.3,.1,-.4,.2c-.2,.1,-.3,.3,-.4,.5c0,.1,-.1,.3,-.1,.7l-1.8,8.7c-.2,.8,-.5,1.5,-1,2c-.4,.5,-.9,.7,-1.3,.8c-.4,.1,-.7,0,-.9,-.1c-.3,-.2,-.5,-.4,-.5,-.6c0,-.3,0,-.5,.1,-.7c.2,-.2,.4,-.3,.7,-.3c.1,-.1,.4,0,.8,0c.2,.1,.4,.1,.4,.1c.2,-.1,.4,-.2,.6,-.4c.1,-.2,.3,-.6,.4,-1.2l.3,-1.5l-4,-5.5c-.1,-.2,-.3,-.4,-.5,-.6c-.2,-.2,-.4,-.3,-.5,-.4c-.1,-.1,-.4,-.1,-.7,-.1Z" class="g6_61"/>
<path fill-rule="evenodd" d="M317.5,152.2l-.5,-2.6h.4c.1,.1,.2,.1,.4,.1c.1,-.1,.3,-.2,.6,-.3c.5,-.3,1,-.4,1.3,-.5c.8,-.1,1.5,-.1,2,.2c.6,.2,1,.7,1.1,1.3c.2,.9,-.4,1.7,-1.7,2.3c1.6,.1,2.6,.7,2.8,1.8c.1,.7,0,1.3,-.5,1.8c-.4,.6,-1.1,1,-2.1,1.1c-.6,.2,-1.2,.2,-1.8,0c-.5,-.1,-1.1,-.4,-1.8,-.9l.2,-.2c1.1,.5,2.1,.7,3,.6c.5,-.1,.8,-.4,1.1,-.7c.2,-.4,.3,-.9,.2,-1.4c-.2,-1.2,-1.1,-1.7,-2.6,-1.5l-.1,-.5c.7,-.1,1.2,-.4,1.5,-.8c.2,-.5,.3,-.9,.2,-1.4c-.1,-.3,-.3,-.6,-.6,-.9c-.3,-.2,-.7,-.3,-1.1,-.2c-1.1,.2,-1.6,1.1,-1.7,2.6Z" class="g6_61"/>
<path fill-rule="evenodd" d="M329.8,154.4c-.7,.8,-1.2,1.3,-1.4,1.4c-.3,.2,-.6,.3,-.9,.4c-.6,.1,-1.1,0,-1.5,-.3c-.5,-.3,-.7,-.8,-.8,-1.4c-.1,-.4,-.1,-.8,0,-1.1c.2,-.4,.6,-.9,1.1,-1.4c.5,-.4,1.4,-1,2.7,-1.8v-.3c-.2,-.8,-.4,-1.3,-.7,-1.6c-.3,-.2,-.7,-.3,-1.2,-.2c-.4,0,-.7,.2,-.8,.4c-.2,.3,-.3,.5,-.3,.8l.2,.5c0,.3,0,.5,-.1,.6c-.2,.2,-.3,.3,-.5,.4c-.3,0,-.4,0,-.6,-.2c-.2,-.1,-.3,-.3,-.3,-.6c-.1,-.5,0,-1,.5,-1.5c.4,-.5,1.1,-.8,2,-1c.8,-.2,1.4,-.1,1.9,0c.3,.1,.7,.4,.9,.7c.1,.3,.3,.8,.4,1.6l.5,2.7c.2,.8,.3,1.2,.3,1.4c.1,.2,.2,.3,.3,.3c0,.1,.1,.1,.2,.1c.1,-.1,.2,-.1,.2,-.1c.1,-.1,.3,-.4,.6,-.8l.1,.5c-.5,1,-1,1.5,-1.6,1.6c-.3,.1,-.6,0,-.8,-.1c-.2,-.2,-.3,-.5,-.4,-1m-.1,-.6l-.6,-3.1c-.8,.6,-1.3,.9,-1.6,1.1c-.4,.4,-.7,.7,-.8,1c-.2,.3,-.2,.7,-.1,1c0,.4,.2,.7,.5,1c.3,.2,.7,.3,1,.2c.4,-.1,1,-.5,1.6,-1.2Z" class="g6_61"/>
<path fill-rule="evenodd" d="M208,162L358,135.3L302,74.7Z" class="g7_61"/>
<path d="M208,162L358,135.3L302,74.7L208,162ZM289,87c8,5.8,16.8,6.4,26.4,1.9" class="g8_61"/>
<path fill-rule="evenodd" d="M303.2,84.4c.7,0,1.3,.6,1.3,1.3c0,.7,-.6,1.3,-1.3,1.3c-.7,0,-1.3,-.6,-1.3,-1.3c0,-.7,.6,-1.3,1.3,-1.3Z" class="g6_61"/>
<path d="M303.2,84.4c.7,0,1.3,.6,1.3,1.3c0,.7,-.6,1.3,-1.3,1.3c-.7,0,-1.3,-.6,-1.3,-1.3c0,-.7,.6,-1.3,1.3,-1.3Z" class="g8_61"/>
<path d="M74.8,430H837" class="g4_61"/>
<path d="M185.1,1076.1H835.8V768.6H185.1v307.5Z" class="g9_61"/>
<path d="M73.6,764.8H835.8" class="g4_61"/>
<path d="M311.7,982.4h86.6m-86.6,0l43.3,-75m43.1,75l-43.3,-75" class="g1_61"/>
<path fill-rule="evenodd" d="M358.3,965H347.6l5.6,-12.4Zm-2.1,-.7l-3.6,-8.7l-3.9,8.7Z" class="g2_61"/>
<path fill-rule="evenodd" d="M367.1,968.1l-.6,1.6h-4.8v-.2c1.4,-1.3,2.4,-2.3,3,-3.2c.6,-.8,.8,-1.5,.8,-2.2c0,-.5,-.1,-.9,-.4,-1.2c-.3,-.4,-.7,-.5,-1.2,-.5c-.4,0,-.7,.1,-1,.3c-.3,.2,-.6,.6,-.7,1h-.3c.1,-.7,.4,-1.3,.8,-1.7c.4,-.4,.9,-.6,1.6,-.6c.6,0,1.2,.3,1.6,.7c.4,.4,.7,.9,.7,1.5c0,.4,-.1,.8,-.3,1.2c-.3,.6,-.8,1.3,-1.5,2c-.9,1.1,-1.6,1.8,-1.8,2h2.1c.4,0,.7,0,.9,0c.2,-.1,.3,-.1,.5,-.2c.1,-.1,.2,-.3,.3,-.5Z" class="g2_61"/>
<path d="M409.2,1062.6h86.6m-86.4,-.7V975.3m.1,.4l86.2,86.9" class="g1_61"/>
<path fill-rule="evenodd" d="M437.4,1041.2H426.7l5.6,-12.4Zm-2.1,-.8l-3.5,-8.6l-4,8.6Z" class="g2_61"/>
<path fill-rule="evenodd" d="M441.2,1039.3c.2,-.5,.5,-.9,.9,-1.2c.3,-.3,.8,-.5,1.3,-.5c.6,0,1.1,.2,1.5,.7c.2,.3,.4,.6,.4,1c0,.6,-.4,1.2,-1.1,1.8c.5,.2,.8,.5,1.1,.8c.2,.4,.4,.8,.4,1.3c0,.7,-.3,1.3,-.7,1.8c-.6,.7,-1.4,1,-2.5,1c-.6,0,-.9,0,-1.1,-.2c-.2,-.1,-.3,-.3,-.3,-.4c0,-.1,0,-.2,.1,-.3c.1,-.1,.2,-.2,.3,-.2c.1,0,.2,.1,.3,.1c.1,0,.3,.1,.5,.2c.2,.1,.4,.2,.5,.2c.1,.1,.3,.1,.5,.1c.4,0,.7,-.2,1,-.5c.3,-.3,.5,-.7,.5,-1.1c0,-.3,-.1,-.6,-.2,-.9c-.1,-.2,-.2,-.4,-.4,-.5c-.1,-.2,-.4,-.3,-.7,-.4c-.3,-.2,-.6,-.2,-.9,-.2h-.2v-.2c.3,-.1,.7,-.2,1,-.4c.3,-.1,.5,-.4,.7,-.6c.1,-.3,.2,-.6,.2,-.9c0,-.4,-.2,-.7,-.4,-1c-.3,-.2,-.6,-.4,-1,-.4c-.6,0,-1.1,.4,-1.5,1Z" class="g2_61"/>
<path d="M199.3,1063.3H351.1m-151.6,-.1l93,-90.7m0,.1l58.4,91.2" class="g1_61"/>
<path fill-rule="evenodd" d="M278.5,1039.2H267.8l5.6,-12.4Zm-2.1,-.8l-3.6,-8.6l-3.9,8.6Z" class="g2_61"/>
<path fill-rule="evenodd" d="M283.1,1036.6l1.9,-1h.2v6.8c0,.5,0,.8,.1,.9c0,.1,.1,.2,.2,.2c.1,.1,.4,.1,.8,.1v.3h-3.1v-.3c.4,0,.6,0,.7,-.1c.2,0,.2,-.1,.3,-.2c0,-.1,0,-.4,0,-.9v-4.3c0,-.6,0,-1,0,-1.2c0,-.1,-.1,-.2,-.2,-.2c0,-.1,-.1,-.1,-.2,-.1c-.2,0,-.4,0,-.6,.2Z" class="g2_61"/>
<path d="M550,979H827.7V862H550V979Zm52.9,-.1V861.6m56.3,117.3V861.6m56.3,117.3V861.6m56.3,117.3V861.6m-222.2,22H828.1M549.6,907.4H828.1M549.6,931.3H828.1M549.6,955.1H828.1" class="ga_61"/>
<path d="M135.8,102.6h39.7V65.2H135.8v37.4Z" class="gb_61"/>
<path d="M696,253.5c-1.9,3.1,-4,5,-6.4,5.7M732.9,311c7.2,-2.6,18.1,1.9,19.5,9.1m40.8,-.1c0,-4.1,.9,-7.3,2.8,-9.5M741.1,321L673.6,240.6m.3,-.4l139.5,80.5m-72.6,-.1H813" class="gc_61"/>
<path fill-rule="evenodd" d="M770.9,311.3c.3,-.7,.7,-1.2,1.1,-1.6c.5,-.4,1,-.5,1.7,-.5c.8,0,1.4,.2,1.9,.8c.3,.3,.5,.8,.5,1.2c0,.8,-.5,1.5,-1.4,2.3c.6,.3,1.1,.6,1.4,1.1c.3,.4,.5,1,.5,1.6c0,.9,-.3,1.6,-.9,2.3c-.7,.8,-1.8,1.2,-3.2,1.2c-.7,0,-1.1,0,-1.4,-.2c-.2,-.2,-.3,-.4,-.3,-.6c0,-.1,0,-.2,.1,-.3c.2,-.2,.3,-.2,.5,-.2c.1,0,.2,0,.3,.1c.1,0,.3,.1,.6,.2c.3,.2,.5,.3,.6,.3c.2,.1,.4,.1,.6,.1c.6,0,1,-.2,1.4,-.6c.4,-.4,.5,-.9,.5,-1.4c0,-.4,0,-.8,-.2,-1.2c-.1,-.2,-.3,-.5,-.4,-.6c-.3,-.2,-.6,-.4,-.9,-.5c-.4,-.2,-.8,-.3,-1.2,-.3h-.2v-.2c.4,-.1,.8,-.2,1.2,-.5c.4,-.2,.7,-.5,.8,-.8c.2,-.3,.3,-.7,.3,-1.1c0,-.5,-.2,-.9,-.5,-1.2c-.3,-.4,-.7,-.5,-1.2,-.5c-.8,0,-1.4,.4,-1.9,1.2Z" class="g2_61"/>
<path fill-rule="evenodd" d="M779.9,314.7c0,1.4,.1,2.6,.5,3.5c.3,.7,.7,1.1,1.3,1.1c.2,0,.5,-.1,.8,-.4c.3,-.2,.5,-.6,.7,-1.2c.2,-.9,.3,-2.1,.3,-3.7c0,-1.1,-.1,-2.1,-.3,-2.9c-.2,-.6,-.5,-1,-.7,-1.2c-.2,-.2,-.5,-.2,-.8,-.2c-.3,0,-.6,.1,-.9,.4c-.4,.4,-.6,1.1,-.7,2c-.2,.9,-.2,1.7,-.2,2.6m-1.5,-.2c0,-1.1,.2,-2.1,.5,-3c.4,-.8,.8,-1.4,1.4,-1.9c.5,-.3,.9,-.4,1.4,-.4c.8,0,1.5,.4,2.1,1.2c.8,.9,1.2,2.3,1.2,4c0,1.2,-.2,2.2,-.5,3c-.4,.8,-.8,1.4,-1.3,1.8c-.6,.4,-1.1,.5,-1.6,.5c-.9,0,-1.7,-.5,-2.4,-1.7c-.5,-.9,-.8,-2.1,-.8,-3.5Z" class="g2_61"/>
<path fill-rule="evenodd" d="M788.6,309.8c-.5,0,-.9,.1,-1.2,.5c-.3,.3,-.5,.7,-.5,1.1c0,.5,.2,.9,.5,1.2c.3,.4,.7,.5,1.2,.5c.4,0,.8,-.1,1.2,-.5c.3,-.3,.5,-.7,.5,-1.2c0,-.4,-.2,-.8,-.5,-1.1c-.4,-.4,-.7,-.5,-1.2,-.5m0,-.7c.6,0,1.2,.3,1.6,.7c.5,.5,.7,1,.7,1.7c0,.6,-.2,1.1,-.7,1.6c-.4,.4,-1,.7,-1.6,.7c-.7,0,-1.2,-.3,-1.6,-.7c-.5,-.5,-.7,-1,-.7,-1.6c0,-.7,.2,-1.2,.6,-1.7c.5,-.4,1,-.7,1.7,-.7Z" class="g2_61"/>
<path fill-rule="evenodd" d="M715.7,280.1L715,282h-6v-.2c1.7,-1.6,3,-3,3.7,-4c.7,-1,1.1,-1.9,1.1,-2.8c0,-.6,-.2,-1.2,-.6,-1.6c-.4,-.4,-.9,-.6,-1.4,-.6c-.5,0,-1,.1,-1.4,.4c-.4,.3,-.7,.7,-.9,1.3h-.2c.1,-.9,.4,-1.6,.9,-2.1c.5,-.5,1.2,-.8,2,-.8c.8,0,1.5,.3,2,.8c.6,.6,.9,1.2,.9,1.9c0,.5,-.2,1,-.4,1.6c-.4,.8,-1,1.6,-1.8,2.5c-1.2,1.4,-2,2.2,-2.3,2.5h2.6c.6,0,.9,0,1.2,-.1c.2,0,.4,-.1,.6,-.2c.1,-.1,.3,-.3,.4,-.5Z" class="g2_61"/>
<path fill-rule="evenodd" d="M718.4,277.2c0,1.4,.1,2.5,.5,3.4c.3,.8,.7,1.2,1.3,1.2c.2,0,.5,-.2,.8,-.4c.3,-.3,.5,-.7,.7,-1.2c.2,-.9,.3,-2.1,.3,-3.7c0,-1.1,-.1,-2.1,-.3,-2.9c-.2,-.6,-.5,-1,-.7,-1.2c-.3,-.2,-.5,-.3,-.8,-.3c-.3,0,-.6,.2,-.9,.5c-.4,.4,-.6,1.1,-.7,2c-.2,.8,-.2,1.7,-.2,2.6m-1.5,-.2c0,-1.2,.2,-2.2,.5,-3c.4,-.8,.8,-1.5,1.4,-1.9c.5,-.3,.9,-.5,1.4,-.5c.8,0,1.5,.4,2.1,1.2c.8,1,1.2,2.4,1.2,4c0,1.2,-.2,2.2,-.5,3.1c-.4,.8,-.8,1.4,-1.3,1.8c-.6,.3,-1.1,.5,-1.6,.5c-.9,0,-1.7,-.5,-2.4,-1.7c-.5,-1,-.8,-2.1,-.8,-3.5Z" class="g2_61"/>
<path fill-rule="evenodd" d="M727.1,272.3c-.5,0,-.9,.1,-1.2,.4c-.3,.4,-.5,.8,-.5,1.2c0,.5,.2,.9,.5,1.2c.3,.3,.7,.5,1.2,.5c.4,0,.8,-.2,1.2,-.5c.3,-.3,.5,-.7,.5,-1.2c0,-.4,-.2,-.8,-.5,-1.2c-.4,-.3,-.7,-.4,-1.2,-.4m0,-.7c.6,0,1.2,.2,1.6,.7c.5,.4,.7,1,.7,1.6c0,.7,-.2,1.2,-.7,1.7c-.4,.4,-1,.6,-1.6,.6c-.7,0,-1.2,-.2,-1.6,-.6c-.5,-.5,-.7,-1,-.7,-1.7c0,-.6,.2,-1.2,.6,-1.6c.5,-.5,1,-.7,1.7,-.7Z" class="g2_61"/>
<path fill-rule="evenodd" d="M735.7,299.5l2.5,-1.2h.2v8.6c0,.6,0,1,.1,1.1c0,.2,.1,.3,.3,.3c.1,.1,.4,.2,.9,.2v.2h-3.8v-.2c.5,0,.8,-.1,.9,-.2c.1,0,.2,-.1,.3,-.3c.1,-.1,.1,-.4,.1,-1.1v-5.5c0,-.7,0,-1.2,-.1,-1.4c0,-.2,-.1,-.3,-.2,-.3c-.1,-.1,-.2,-.2,-.3,-.2c-.2,0,-.5,.1,-.8,.3Z" class="g2_61"/>
<path fill-rule="evenodd" d="M742.4,300.5c.3,-.7,.6,-1.2,1.1,-1.6c.4,-.4,1,-.6,1.6,-.6c.9,0,1.5,.3,1.9,.8c.3,.4,.5,.8,.5,1.3c0,.7,-.5,1.5,-1.4,2.3c.6,.2,1.1,.6,1.4,1.1c.4,.4,.5,.9,.5,1.6c0,.8,-.3,1.6,-.8,2.3c-.8,.8,-1.8,1.2,-3.2,1.2c-.7,0,-1.2,-.1,-1.4,-.2c-.3,-.2,-.4,-.4,-.4,-.6c0,-.1,.1,-.3,.2,-.4c.1,-.1,.3,-.1,.4,-.1c.1,0,.3,0,.4,0c.1,.1,.3,.1,.6,.3c.3,.2,.5,.3,.6,.3c.2,0,.4,.1,.6,.1c.5,0,1,-.2,1.3,-.6c.4,-.4,.6,-.9,.6,-1.4c0,-.4,-.1,-.8,-.3,-1.2c-.1,-.3,-.2,-.5,-.4,-.6c-.2,-.2,-.5,-.4,-.9,-.6c-.4,-.1,-.7,-.2,-1.1,-.2h-.3v-.2c.4,-.1,.8,-.2,1.2,-.5c.4,-.2,.7,-.5,.9,-.8c.2,-.4,.3,-.7,.3,-1.1c0,-.5,-.2,-.9,-.5,-1.3c-.3,-.3,-.7,-.4,-1.2,-.4c-.8,0,-1.5,.4,-2,1.2Z" class="g2_61"/>
<path fill-rule="evenodd" d="M751.3,303.9c0,1.4,.2,2.5,.5,3.4c.3,.8,.8,1.2,1.3,1.2c.3,0,.6,-.2,.9,-.4c.3,-.3,.5,-.7,.6,-1.2c.3,-.9,.4,-2.1,.4,-3.7c0,-1.1,-.1,-2.1,-.4,-2.9c-.2,-.6,-.4,-1,-.7,-1.2c-.2,-.2,-.4,-.3,-.7,-.3c-.4,0,-.7,.2,-.9,.5c-.4,.4,-.6,1.1,-.8,2c-.1,.8,-.2,1.7,-.2,2.6m-1.4,-.2c0,-1.2,.1,-2.2,.5,-3c.3,-.8,.8,-1.5,1.4,-1.9c.4,-.3,.9,-.5,1.4,-.5c.8,0,1.5,.4,2.1,1.2c.8,1,1.1,2.4,1.1,4c0,1.2,-.1,2.2,-.5,3.1c-.3,.8,-.7,1.4,-1.3,1.8c-.5,.3,-1,.5,-1.5,.5c-1,0,-1.8,-.6,-2.4,-1.7c-.6,-1,-.8,-2.1,-.8,-3.5Z" class="g2_61"/>
<path fill-rule="evenodd" d="M760,298.9c-.4,0,-.8,.2,-1.1,.5c-.4,.4,-.5,.8,-.5,1.2c0,.5,.1,.9,.5,1.2c.3,.3,.7,.5,1.1,.5c.5,0,.9,-.2,1.2,-.5c.4,-.3,.5,-.7,.5,-1.2c0,-.4,-.1,-.8,-.5,-1.2c-.3,-.3,-.7,-.5,-1.2,-.5m0,-.6c.7,0,1.2,.2,1.7,.7c.4,.4,.7,1,.7,1.6c0,.7,-.3,1.2,-.7,1.7c-.5,.4,-1,.6,-1.7,.6c-.6,0,-1.1,-.2,-1.6,-.6c-.4,-.5,-.7,-1,-.7,-1.7c0,-.6,.3,-1.2,.7,-1.6c.5,-.5,1,-.7,1.6,-.7Z" class="g2_61"/>
<path clip-path="url(#c1_61)" fill-rule="evenodd" d="M661.2,230.4l-1.4,4.9H661c.8,0,1.4,-.2,1.7,-.4c.4,-.3,.7,-.7,1,-1.4h.3l-1.2,4.4h-.4c.1,-.3,.2,-.7,.2,-.9c0,-.3,-.1,-.5,-.2,-.6c-.1,-.2,-.2,-.3,-.4,-.4c-.2,-.1,-.6,-.1,-1.2,-.1h-1.2l-1.1,4c-.2,.4,-.2,.7,-.2,.9c0,.2,.1,.3,.2,.5c.1,0,.4,.1,.8,.1h1.1c1.1,0,2.1,-.2,2.8,-.6c.7,-.5,1.3,-1.2,1.9,-2.2h.3l-1.1,3.4h-9.5l.1,-.3c.5,0,.8,-.1,1,-.2c.2,-.1,.4,-.2,.5,-.4c.2,-.2,.4,-.7,.6,-1.5l2.1,-7.4c.2,-.6,.3,-1.1,.3,-1.4c0,-.2,-.1,-.4,-.3,-.5c-.1,-.1,-.4,-.2,-.9,-.2H658l.1,-.3h8.8l-.7,2.9h-.4c.1,-.3,.1,-.5,.1,-.7c0,-.3,-.1,-.6,-.2,-.8c-.3,-.3,-.6,-.5,-.9,-.6c-.3,-.1,-1,-.2,-2,-.2Z" class="g2_61"/>
<path fill-rule="evenodd" d="M826,310.9c-.6,0,-1.2,.1,-1.7,.4c-.6,.3,-1.2,.8,-1.7,1.5c-.6,.7,-1.1,1.5,-1.6,2.6c-.5,1.4,-.8,2.7,-.8,3.9c0,.8,.2,1.6,.7,2.2c.4,.7,1.1,1,2,1c.5,0,1.1,-.1,1.6,-.4c.5,-.3,1.1,-.7,1.6,-1.4c.8,-.8,1.4,-1.9,1.9,-3.1c.4,-1.3,.7,-2.5,.7,-3.6c0,-.8,-.2,-1.5,-.7,-2.2c-.4,-.6,-1.1,-.9,-2,-.9m-3.4,12.2l-2.3,1.9c.4,-.1,.7,-.1,1,-.1c.3,0,.6,0,.9,0c.2,.1,.8,.2,1.6,.4c.9,.2,1.6,.3,2.2,.3c.7,0,1.2,-.2,1.7,-.4c.5,-.2,.9,-.6,1.4,-1.2l.3,.2c-.6,.9,-1.4,1.5,-2.2,1.9c-.9,.4,-1.8,.6,-2.7,.6c-.5,0,-1.2,-.1,-2.2,-.3c-1.3,-.3,-2.3,-.5,-2.9,-.5c-.2,0,-.4,.1,-.5,.1c-.1,0,-.3,.1,-.6,.2l-.2,-.2l3.7,-3c-1.1,-.1,-2,-.6,-2.6,-1.5c-.6,-.8,-.9,-1.7,-.9,-2.7c0,-1.3,.4,-2.7,1.2,-4.1c.8,-1.4,1.8,-2.5,3.1,-3.2c1.2,-.8,2.4,-1.2,3.6,-1.2c.9,0,1.7,.2,2.3,.5c.7,.4,1.1,.9,1.5,1.6c.3,.7,.5,1.4,.5,2.1c0,1.4,-.4,2.8,-1.2,4.2c-.8,1.5,-1.8,2.5,-2.9,3.3c-1.2,.7,-2.4,1.1,-3.8,1.1Z" class="g2_61"/>
</svg>