<?xml version="1.0" encoding="UTF-8" standalone="no"?>
<!DOCTYPE svg PUBLIC "-//W3C//DTD SVG 1.1//EN"
"http://www.w3.org/Graphics/SVG/1.1/DTD/svg11.dtd">
<svg viewBox="0 0 909 1147" version="1.1" xmlns="http://www.w3.org/2000/svg" xmlns:xlink="http://www.w3.org/1999/xlink">
<defs>
<clipPath id="c0_139"><path d="M573.8,961.4V736.8H798.4V961.4Z"/></clipPath>
<style type="text/css"><![CDATA[
.g0_139{
fill: #DCE5C9;
}
.g1_139{
fill: none;
stroke: #0EA5DF;
stroke-width: 0.763;
stroke-miterlimit: 10;
}
.g2_139{
fill: #FCD3C1;
}
.g3_139{
fill: none;
stroke: #000;
stroke-width: 0.763;
stroke-miterlimit: 2;
}
.g4_139{
fill: #FFFCD5;
}
.g5_139{
fill: #C7EAFB;
}
.g6_139{
fill: #E3F2E7;
}
.g7_139{
fill: none;
stroke: #000;
stroke-width: 0.33;
stroke-miterlimit: 2;
}
.g8_139{
fill: #000;
}
.g9_139{
fill: #E0DEEF;
}
]]></style>
</defs>
<path d="M835.8,1131h73.6v-51.5H835.8V1131Z" class="g0_139"/>
<path d="M215.4,993.2H373.2m-157.4,24.5V993.6m157.4,-.4H477.8m-104.6,24.5V993.6m104.3,24.1V993.6m-262.1,24.5H373.2m-157.4,24.6v-24.2m157.4,-.4H477.8m-104.6,24.6v-24.2m104.3,24.2v-24.2M215.4,1043H373.2m-157.4,24.6v-24.2m157.4,-.4H477.8m-104.6,24.6v-24.2m104.3,24.2v-24.2M215.4,1068H373.2m0,0H477.8" class="g1_139"/>
<path fill-rule="evenodd" d="M686.1,737.4c61.6,0,111.7,49.9,111.7,111.6c0,61.6,-50.1,111.6,-111.7,111.6c-61.6,0,-111.6,-50,-111.6,-111.6c0,-61.7,50,-111.6,111.6,-111.6Z" class="g2_139"/>
<path d="M686.1,737.4c61.6,0,111.7,49.9,111.7,111.6c0,61.6,-50.1,111.6,-111.7,111.6c-61.6,0,-111.6,-50,-111.6,-111.6c0,-61.7,50,-111.6,111.6,-111.6Z" class="g3_139"/>
<path fill-rule="evenodd" d="M685.7,849.1H797.3c0,61.8,-50,111.7,-111.6,111.7Z" class="g4_139"/>
<path d="M685.7,849.1H797.3c0,61.8,-50,111.7,-111.6,111.7V849.1Z" class="g3_139"/>
<g clip-path="url(#c0_139)">
<path fill-rule="evenodd" d="M686.3,848.7V960.2c-11.8,0,-23.5,-1.7,-34.6,-5.3C593.1,935.8,561,872.8,580,814.2Z" class="g5_139"/>
<path d="M686.3,848.7V960.2c-11.8,0,-23.5,-1.7,-34.6,-5.3C593.1,935.8,561,872.8,580,814.2l106.3,34.5Z" class="g3_139"/>
</g>
<path fill-rule="evenodd" d="M686.1,849l65.6,-90.3c28.9,20.9,46.1,54.6,46.1,90.3Z" class="g6_139"/>
<path d="M686.1,849l65.6,-90.3c28.9,20.9,46.1,54.6,46.1,90.3H686.1Z" class="g7_139"/>
<path fill-rule="evenodd" d="M731.1,817.8l1.8,.4c-.4,1.5,-1,2.6,-2,3.3c-1,.8,-2.1,1.1,-3.4,1.1c-1.4,0,-2.7,-.3,-3.5,-.8c-.9,-.6,-1.6,-1.5,-2,-2.6c-.5,-1.1,-.7,-2.2,-.7,-3.5c0,-1.3,.2,-2.5,.8,-3.5c.4,-1,1.2,-1.8,2.2,-2.3c1,-.6,2,-.8,3.2,-.8c1.3,0,2.4,.3,3.3,1c.9,.7,1.5,1.5,1.9,2.7l-1.8,.5c-.2,-1,-.7,-1.7,-1.3,-2.1c-.6,-.4,-1.3,-.7,-2.2,-.7c-1,0,-1.8,.3,-2.4,.8c-.8,.4,-1.3,1.1,-1.5,1.9c-.3,.9,-.4,1.6,-.4,2.5c0,1.1,.1,2.1,.4,3c.4,.7,.9,1.4,1.6,1.8c.6,.5,1.4,.6,2.2,.6c1,0,1.8,-.2,2.5,-.8c.7,-.5,1.1,-1.4,1.3,-2.5Z" class="g8_139"/>
<path fill-rule="evenodd" d="M734.9,826V812.8h1.4v1.4c.3,-.6,.8,-.9,1.2,-1.1c.3,-.3,.9,-.4,1.5,-.4c.8,0,1.6,.1,2.1,.6c.7,.4,1.1,1,1.5,1.7c.3,.8,.5,1.7,.5,2.6c0,1,-.2,1.8,-.5,2.6c-.4,.8,-.9,1.3,-1.6,1.8c-.6,.4,-1.3,.6,-2.1,.6c-.5,0,-1,-.1,-1.4,-.3c-.4,-.2,-.8,-.5,-1.1,-.9V826Zm1.4,-8.3c0,1.2,.2,2.2,.8,2.7c.4,.6,1.1,.9,1.7,.9c.7,0,1.3,-.3,1.9,-.9c.4,-.6,.8,-1.5,.8,-2.8c0,-1.2,-.4,-2.1,-.8,-2.8c-.6,-.5,-1.1,-.9,-1.8,-.9c-.7,0,-1.3,.4,-1.8,1c-.6,.7,-.8,1.6,-.8,2.8Z" class="g8_139"/>
<path fill-rule="evenodd" d="M751.5,819.3l1.7,.3c-.3,.9,-.7,1.7,-1.5,2.3c-.7,.4,-1.6,.7,-2.7,.7c-1.4,0,-2.5,-.4,-3.4,-1.3c-.7,-.9,-1.2,-2.1,-1.2,-3.6c0,-1.6,.5,-2.8,1.3,-3.6c.8,-.9,1.9,-1.4,3.2,-1.4c1.2,0,2.3,.4,3.1,1.2c.8,.9,1.2,2.1,1.2,3.8v.3h-7.1c.1,1.1,.4,1.9,1,2.4c.4,.6,1.1,.9,1.9,.9c.6,0,1.1,-.2,1.5,-.4c.4,-.4,.7,-.9,1,-1.6m-5.3,-2.6h5.4c-.1,-.8,-.4,-1.3,-.7,-1.8c-.5,-.6,-1.2,-.8,-2,-.8c-.7,0,-1.4,.2,-1.8,.6c-.6,.6,-.8,1.2,-.9,2Z" class="g8_139"/>
<path fill-rule="evenodd" d="M756.1,812.8h6.6v8.3h1v4h-1.3v-2.7h-7.5v2.7h-1.3v-4h.8c1.1,-1.5,1.7,-4.3,1.7,-8.3m1.3,1.5c-.1,3.1,-.5,5.3,-1.4,6.8h5v-6.8Z" class="g8_139"/>
<path fill-rule="evenodd" d="M772,819.3l1.7,.3c-.3,.9,-.8,1.7,-1.4,2.3c-.8,.4,-1.7,.7,-2.8,.7c-1.4,0,-2.5,-.4,-3.3,-1.3c-.9,-.9,-1.2,-2.1,-1.2,-3.6c0,-1.6,.3,-2.8,1.2,-3.6c.8,-.9,1.9,-1.4,3.2,-1.4c1.3,0,2.3,.4,3.1,1.2c.9,.9,1.2,2.1,1.2,3.8v.3h-7.1c0,1.1,.4,1.9,.9,2.4c.6,.6,1.2,.9,2,.9c.6,0,1.1,-.2,1.5,-.4c.4,-.4,.7,-.9,1,-1.6m-5.2,-2.6H772c-.1,-.8,-.3,-1.3,-.6,-1.8c-.5,-.6,-1.1,-.8,-2,-.8c-.8,0,-1.3,.2,-1.9,.6c-.4,.6,-.7,1.2,-.7,2Z" class="g8_139"/>
<path fill-rule="evenodd" d="M775.7,812.8h1.6v4h4.5v-4h1.6v9.6h-1.6v-4.2h-4.5v4.2h-1.6Z" class="g8_139"/>
<path fill-rule="evenodd" d="M741,842.9h-1.6V832.6c-.5,.4,-.9,.7,-1.6,1.1c-.6,.4,-1.2,.7,-1.6,.8V833c.9,-.5,1.6,-.9,2.3,-1.6c.6,-.5,1.2,-1.2,1.4,-1.7H741Z" class="g8_139"/>
<path fill-rule="evenodd" d="M745.1,839.5l1.6,-.1c.3,.7,.5,1.4,.9,1.7c.6,.5,1.1,.7,1.7,.7c.7,0,1.4,-.4,1.9,-.9c.6,-.6,.9,-1.3,.9,-2.3c0,-.9,-.3,-1.7,-.7,-2.2c-.6,-.6,-1.3,-.8,-2.1,-.8c-.6,0,-1,.1,-1.5,.3c-.3,.3,-.6,.6,-1,.9l-1.4,-.1l1.2,-6.8h6.6v1.5h-5.3l-.7,3.6c.9,-.6,1.6,-.8,2.5,-.8c1.1,0,2.1,.4,2.9,1.2c.8,.8,1.2,1.8,1.2,3.1c0,1.1,-.4,2.2,-1,3.1c-.9,.9,-2,1.5,-3.5,1.5c-1.1,0,-2.1,-.3,-2.9,-1c-.8,-.7,-1.2,-1.5,-1.3,-2.6Z" class="g8_139"/>
<path fill-rule="evenodd" d="M755.6,832.9c0,-.9,.3,-1.7,.7,-2.3c.4,-.7,1.1,-1,2.1,-1c.8,0,1.4,.2,2,.8c.5,.6,.9,1.5,.9,2.6c0,1.1,-.4,2,-.9,2.6c-.6,.6,-1.2,.9,-2,.9c-.8,0,-1.5,-.3,-2,-.9c-.5,-.6,-.8,-1.5,-.8,-2.7m2.8,-2.2c-.4,0,-.8,.1,-1,.5c-.3,.3,-.4,.9,-.4,1.9c0,.9,.1,1.4,.4,1.7c.2,.4,.6,.6,1,.6c.4,0,.8,-.2,1,-.6c.3,-.3,.4,-.9,.4,-1.8c0,-.9,-.1,-1.5,-.4,-1.8c-.2,-.4,-.6,-.5,-1,-.5m0,12.6l7.1,-13.7h1.4l-7.2,13.7Zm5.7,-3.5c0,-.9,.2,-1.8,.7,-2.4c.4,-.7,1.2,-1,2.1,-1c.7,0,1.4,.3,1.9,.9c.6,.6,.9,1.5,.9,2.6c0,1.1,-.3,2,-.9,2.5c-.5,.7,-1.2,.9,-1.9,.9c-.8,0,-1.5,-.2,-2,-.9c-.6,-.5,-.8,-1.4,-.8,-2.6m2.8,-2.2c-.4,0,-.8,.1,-1,.4c-.2,.4,-.5,1,-.5,2c0,.8,.3,1.4,.5,1.8c.3,.3,.6,.4,1,.4c.4,0,.7,-.1,1,-.4c.3,-.4,.4,-1,.4,-2c0,-.8,-.1,-1.4,-.4,-1.8c-.3,-.3,-.6,-.4,-1,-.4Z" class="g8_139"/>
<path fill-rule="evenodd" d="M612.2,875.7V862.5h2.6l3.1,9.3c.4,.9,.6,1.5,.7,2c.1,-.6,.3,-1.2,.6,-2.2l3.2,-9.1h2.3v13.2h-1.6v-11l-3.9,11h-1.5l-3.8,-11.3v11.3Z" class="g8_139"/>
<path fill-rule="evenodd" d="M627.4,866.1h1.5V870h4.5v-3.9h1.7v9.6h-1.7v-4.3h-4.5v4.3h-1.5Z" class="g8_139"/>
<path fill-rule="evenodd" d="M636.8,870.9c0,-1.7,.6,-3.1,1.6,-3.9c.8,-.7,1.7,-1.1,3,-1.1c1.3,0,2.3,.4,3.1,1.3c.8,.9,1.3,2.1,1.3,3.5c0,1.2,-.2,2.2,-.6,3c-.3,.6,-.9,1.2,-1.5,1.5c-.8,.5,-1.6,.7,-2.3,.7c-1.4,0,-2.5,-.5,-3.3,-1.3c-.8,-.9,-1.3,-2.1,-1.3,-3.7m1.7,0c0,1.2,.3,2.1,.9,2.7c.4,.6,1.1,1,2,1c.7,0,1.4,-.4,1.9,-1c.6,-.6,.8,-1.6,.8,-2.8c0,-1.2,-.2,-2.1,-.8,-2.6c-.5,-.7,-1.2,-1,-1.9,-1c-.9,0,-1.6,.3,-2,1c-.6,.5,-.9,1.4,-.9,2.7Z" class="g8_139"/>
<path fill-rule="evenodd" d="M647.6,866.1h5.5v1.3h-3.8v8.3h-1.7Z" class="g8_139"/>
<path fill-rule="evenodd" d="M653.3,870.9c0,-1.7,.5,-3.1,1.5,-3.9c.9,-.7,1.8,-1.1,3.1,-1.1c1.2,0,2.3,.4,3.1,1.3c.8,.9,1.3,2.1,1.3,3.5c0,1.2,-.3,2.2,-.6,3c-.3,.6,-.9,1.2,-1.6,1.5c-.7,.5,-1.5,.7,-2.2,.7c-1.5,0,-2.5,-.5,-3.3,-1.3c-.8,-.9,-1.3,-2.1,-1.3,-3.7m1.7,0c0,1.2,.3,2.1,.8,2.7c.5,.6,1.2,1,2.1,1c.7,0,1.4,-.4,1.9,-1c.6,-.6,.8,-1.6,.8,-2.8c0,-1.2,-.2,-2.1,-.8,-2.6c-.5,-.7,-1.2,-1,-1.9,-1c-.9,0,-1.6,.3,-2.1,1c-.5,.5,-.8,1.4,-.8,2.7Z" class="g8_139"/>
<path fill-rule="evenodd" d="M613.2,886.7h6.6v8.1h1v4h-1.3v-2.7H612v2.7h-1.3v-4h.8c1.1,-1.5,1.7,-4.3,1.7,-8.1m1.3,1.3c-.1,3.1,-.6,5.3,-1.4,6.8h5V888Z" class="g8_139"/>
<path fill-rule="evenodd" d="M622,891.4c0,-1.8,.4,-3.1,1.4,-4c.9,-.6,1.9,-1,3,-1c1.3,0,2.4,.4,3.3,1.2c.8,.9,1.2,2.1,1.2,3.6c0,1.3,-.2,2.2,-.5,2.9c-.4,.7,-.9,1.2,-1.7,1.7c-.7,.3,-1.4,.5,-2.3,.5c-1.3,0,-2.3,-.4,-3.2,-1.3c-.8,-.9,-1.2,-2.1,-1.2,-3.6m1.6,0c0,1.2,.3,2.1,.8,2.7c.6,.6,1.2,.9,2,.9c.9,0,1.5,-.3,2.1,-.9c.4,-.6,.8,-1.5,.8,-2.8c0,-1.1,-.4,-2.1,-.8,-2.7c-.6,-.6,-1.2,-.8,-2.1,-.8c-.8,0,-1.4,.2,-2,.8c-.5,.6,-.8,1.6,-.8,2.8Z" class="g8_139"/>
<path fill-rule="evenodd" d="M639.7,882.7h1.4c0,.7,-.2,1.1,-.4,1.3c-.2,.2,-.4,.5,-.8,.5c-.3,.1,-1,.1,-2.1,.1c-1.3,0,-2.2,.2,-2.6,.4c-.6,.2,-.9,.7,-1.1,1.2c-.2,.6,-.3,1.3,-.3,2.2c.4,-.6,.8,-1.1,1.4,-1.3c.5,-.3,1.1,-.4,1.9,-.4c1.2,0,2.2,.3,3,1.2c.8,.8,1.3,2.1,1.3,3.5c0,1.1,-.3,2,-.7,2.7c-.3,.7,-.9,1.2,-1.4,1.7c-.6,.3,-1.4,.5,-2.3,.5c-1.1,0,-2,-.2,-2.7,-.7c-.6,-.6,-1.1,-1.2,-1.4,-2c-.3,-.9,-.5,-2.2,-.5,-4.2c0,-2.5,.4,-4.3,1.3,-5.2c.8,-.7,2.2,-1.2,3.9,-1.2c1.1,0,1.7,-.1,1.9,-.1c.1,0,.2,-.1,.2,-.2m0,8.6c0,-1,-.2,-1.8,-.8,-2.4c-.4,-.6,-1.1,-.9,-1.9,-.9c-.9,0,-1.6,.3,-2,1c-.6,.6,-.8,1.5,-.8,2.6c0,1.1,.2,2,.8,2.5c.5,.6,1.2,.9,2,.9c.7,0,1.4,-.3,1.9,-1c.5,-.6,.8,-1.5,.8,-2.7Z" class="g8_139"/>
<path fill-rule="evenodd" d="M641.8,886.7h4.3v3.6h2.1c1.4,0,2.4,.3,3.1,.9c.6,.5,.9,1.2,.9,2.1c0,.8,-.3,1.5,-.8,2c-.7,.6,-1.7,.8,-2.9,.8h-4.1V888h-2.6Zm4.3,8.1h1.6c1.1,0,1.8,-.1,2.2,-.3c.5,-.4,.7,-.7,.7,-1.2c0,-.6,-.2,-.9,-.6,-1.3c-.3,-.2,-1.1,-.4,-2,-.4h-1.9Z" class="g8_139"/>
<path fill-rule="evenodd" d="M654.1,899.7v-13h1.6v1.2c.3,-.6,.6,-.9,1.1,-1.1c.4,-.3,.9,-.4,1.6,-.4c.8,0,1.4,.1,2.1,.6c.7,.4,1.1,1,1.4,1.7c.4,.8,.5,1.7,.5,2.6c0,1,-.1,1.8,-.6,2.6c-.3,.8,-.8,1.3,-1.4,1.8c-.7,.4,-1.4,.6,-2.1,.6c-.6,0,-1.1,-.1,-1.5,-.3c-.4,-.2,-.8,-.5,-1,-.9v4.6Zm1.4,-8.3c0,1.2,.4,2.2,.8,2.7c.6,.6,1.1,.9,1.9,.9c.6,0,1.3,-.3,1.7,-.9c.6,-.6,.8,-1.5,.8,-2.8c0,-1.2,-.2,-2.1,-.8,-2.8c-.4,-.5,-.9,-.9,-1.7,-.9c-.7,0,-1.3,.4,-1.8,1c-.5,.7,-.9,1.6,-.9,2.8Z" class="g8_139"/>
<path d="M609.4,789c0,-2.2,.5,-3.9,1.7,-5.1c1.2,-1.2,2.7,-1.9,4.5,-1.9c1.3,0,2.4,.3,3.3,.9c1,.6,1.7,1.4,2.2,2.4c.6,1.1,.8,2.2,.8,3.5c0,1.4,-.3,2.6,-.8,3.6c-.5,1.1,-1.3,1.9,-2.3,2.4c-1,.5,-2,.8,-3.2,.8c-1.2,0,-2.3,-.3,-3.3,-.9c-.9,-.6,-1.7,-1.4,-2.2,-2.4c-.5,-1.1,-.7,-2.2,-.7,-3.3m1.8,0c0,1.6,.4,2.9,1.2,3.8c.9,.9,1.9,1.3,3.2,1.3c1.3,0,2.4,-.4,3.3,-1.4c.8,-.9,1.2,-2.2,1.2,-3.9c0,-1,-.2,-2,-.5,-2.8c-.4,-.8,-.9,-1.4,-1.6,-1.8c-.7,-.5,-1.5,-.7,-2.3,-.7c-1.3,0,-2.3,.4,-3.2,1.3c-.9,.8,-1.3,2.3,-1.3,4.2Z" class="g8_139"/>
<path d="M623.1,785.9h7.7v1.3h-3.1v8.2h-1.6v-8.2h-3Z" class="g8_139"/>
<path d="M632.7,785.9h7.5v9.5h-1.6v-8.2h-4.3V792c0,1.1,0,1.8,-.1,2.1c0,.4,-.2,.7,-.6,1c-.3,.2,-.7,.4,-1.4,.4c-.3,0,-.8,-.1,-1.3,-.1V794h.8c.3,0,.5,0,.7,-.1c.1,0,.2,-.1,.3,-.3c0,-.1,0,-.6,0,-1.5Z" class="g8_139"/>
<path d="M642.6,785.9h1.6v7.2l4.5,-7.2h1.8v9.5h-1.7v-7.2l-4.4,7.2h-1.8Z" class="g8_139"/>
<path d="M652.3,785.9h1.6v1.8c0,.8,0,1.3,.1,1.7c.1,.3,.4,.6,.7,.9c.4,.2,.8,.4,1.3,.4c.6,0,1.4,-.2,2.4,-.5v-4.3H660v9.5h-1.6v-3.8c-1,.3,-1.9,.4,-2.8,.4c-.7,0,-1.3,-.2,-1.9,-.5c-.5,-.4,-.9,-.8,-1.1,-1.4c-.2,-.5,-.3,-1.1,-.3,-1.7Z" class="g8_139"/>
<path d="M668.9,792.3l1.7,.2c-.3,1,-.7,1.8,-1.5,2.3c-.7,.5,-1.6,.8,-2.7,.8c-1.4,0,-2.5,-.4,-3.3,-1.3c-.8,-.8,-1.2,-2,-1.2,-3.6c0,-1.6,.4,-2.8,1.2,-3.7c.9,-.9,1.9,-1.3,3.2,-1.3c1.3,0,2.3,.4,3.1,1.3c.9,.8,1.3,2,1.3,3.6c0,.1,0,.3,-.1,.4h-7c0,1.1,.3,1.9,.8,2.4c.6,.6,1.2,.9,2,.9c.6,0,1.1,-.2,1.5,-.5c.5,-.3,.8,-.8,1,-1.5m-5.3,-2.6H669c-.1,-.8,-.3,-1.4,-.7,-1.8c-.5,-.6,-1.1,-.9,-1.9,-.9c-.8,0,-1.4,.2,-1.9,.7c-.5,.5,-.8,1.2,-.9,2Z" class="g8_139"/>
<path d="M672.6,785.9h1.6v3.9h4.5v-3.9h1.6v9.5h-1.6v-4.2h-4.5v4.2h-1.6Z" class="g8_139"/>
<path d="M635.9,814.3v1.6h-8.7c0,-.4,.1,-.8,.2,-1.1c.2,-.6,.6,-1.2,1.1,-1.8c.5,-.6,1.2,-1.2,2.1,-2c1.4,-1.2,2.4,-2.1,2.9,-2.8c.5,-.6,.7,-1.3,.7,-1.9c0,-.6,-.2,-1.2,-.7,-1.6c-.4,-.5,-1,-.7,-1.8,-.7c-.7,0,-1.4,.3,-1.8,.7c-.5,.5,-.7,1.1,-.7,2l-1.7,-.2c.1,-1.2,.6,-2.2,1.3,-2.8c.7,-.7,1.7,-1,3,-1c1.2,0,2.2,.3,3,1c.7,.7,1.1,1.6,1.1,2.6c0,.6,-.1,1.1,-.3,1.6c-.3,.5,-.6,1,-1.1,1.6c-.5,.5,-1.3,1.3,-2.5,2.3c-1,.8,-1.6,1.4,-1.9,1.7c-.2,.2,-.5,.5,-.6,.8Z" class="g8_139"/>
<path d="M648.1,805.9c0,-.9,.3,-1.7,.7,-2.4c.5,-.6,1.2,-1,2.1,-1c.8,0,1.5,.3,2,.9c.6,.6,.8,1.5,.8,2.6c0,1.1,-.2,2,-.8,2.6c-.5,.6,-1.2,.9,-2,.9c-.8,0,-1.5,-.3,-2,-.9c-.5,-.6,-.8,-1.5,-.8,-2.7m2.8,-2.3c-.4,0,-.7,.2,-1,.6c-.2,.3,-.4,.9,-.4,1.9c0,.8,.2,1.4,.4,1.7c.3,.4,.6,.6,1,.6c.4,0,.8,-.2,1,-.6c.3,-.3,.4,-.9,.4,-1.9c0,-.8,-.1,-1.4,-.4,-1.8c-.2,-.3,-.6,-.5,-1,-.5m0,12.8l7.2,-13.9h1.3l-7.1,13.9Zm5.7,-3.6c0,-1,.2,-1.8,.7,-2.4c.5,-.7,1.2,-1,2.1,-1c.8,0,1.5,.3,2,.9c.6,.6,.8,1.4,.8,2.6c0,1.1,-.2,2,-.8,2.6c-.5,.6,-1.2,.9,-2,.9c-.8,0,-1.5,-.3,-2,-.9c-.5,-.6,-.8,-1.5,-.8,-2.7m2.8,-2.3c-.4,0,-.7,.2,-1,.5c-.3,.4,-.4,1,-.4,2c0,.8,.1,1.4,.4,1.7c.3,.4,.6,.5,1,.5c.4,0,.8,-.1,1,-.5c.3,-.3,.4,-1,.4,-1.9c0,-.8,-.1,-1.4,-.4,-1.8c-.2,-.3,-.6,-.5,-1,-.5Z" class="g8_139"/>
<path d="M637.6,809.4c0,-1.6,.2,-2.8,.5,-3.7c.3,-1,.8,-1.7,1.4,-2.2c.7,-.6,1.4,-.8,2.4,-.8c.7,0,1.3,.1,1.9,.4c.5,.3,.9,.7,1.3,1.2c.3,.6,.6,1.2,.8,2c.2,.8,.3,1.8,.3,3.1c0,1.5,-.2,2.8,-.5,3.7c-.3,1,-.8,1.7,-1.4,2.2c-.6,.5,-1.4,.8,-2.4,.8c-1.3,0,-2.3,-.5,-3,-1.4c-.8,-1.1,-1.3,-2.8,-1.3,-5.3m1.7,0c0,2.2,.2,3.6,.7,4.3c.5,.7,1.2,1.1,1.9,1.1c.7,0,1.4,-.4,1.9,-1.1c.5,-.7,.7,-2.2,.7,-4.3c0,-2.2,-.2,-3.6,-.7,-4.3c-.5,-.7,-1.2,-1.1,-1.9,-1.1c-.8,0,-1.4,.3,-1.8,1c-.5,.8,-.8,2.2,-.8,4.4Z" class="g8_139"/>
<path fill-rule="evenodd" d="M686.1,849.3l-.2,-111.5c18.7,0,37.2,4.7,53.7,13.7Z" class="g9_139"/>
<path d="M686.1,849.3l-.2,-111.5c18.7,0,37.2,4.7,53.7,13.7l-53.5,97.8Z" class="g3_139"/>
<path d="M697.6,759.3l1.8,.4c-.4,1.5,-1,2.5,-2,3.3c-.9,.7,-2.1,1.1,-3.5,1.1c-1.4,0,-2.5,-.3,-3.4,-.9c-.9,-.5,-1.6,-1.4,-2,-2.5c-.5,-1,-.7,-2.2,-.7,-3.5c0,-1.3,.2,-2.5,.8,-3.5c.5,-1.1,1.2,-1.8,2.2,-2.4c1,-.5,2,-.8,3.2,-.8c1.3,0,2.4,.4,3.3,1c.9,.7,1.5,1.7,1.9,2.9l-1.7,.4c-.4,-1,-.8,-1.7,-1.4,-2.1c-.6,-.5,-1.3,-.7,-2.2,-.7c-1,0,-1.8,.3,-2.5,.8c-.7,.4,-1.1,1.1,-1.4,1.9c-.3,.8,-.4,1.7,-.4,2.5c0,1.1,.1,2.1,.5,2.9c.3,.9,.8,1.5,1.5,1.9c.7,.4,1.4,.6,2.2,.6c1,0,1.8,-.3,2.5,-.8c.7,-.6,1.1,-1.4,1.3,-2.5Z" class="g8_139"/>
<path d="M702.1,754.4h7.5v9.5H708v-8.2h-4.3v4.8c0,1.1,0,1.8,-.1,2.1c-.1,.4,-.3,.7,-.6,1c-.3,.2,-.8,.4,-1.4,.4c-.4,0,-.8,-.1,-1.3,-.1v-1.4h.7c.4,0,.6,0,.7,-.1c.2,0,.3,-.1,.3,-.3c.1,-.1,.1,-.6,.1,-1.5Z" class="g8_139"/>
<path d="M718.2,762.7c-.6,.5,-1.2,.9,-1.7,1.1c-.6,.2,-1.2,.3,-1.8,.3c-1,0,-1.8,-.3,-2.4,-.8c-.5,-.5,-.8,-1.1,-.8,-1.9c0,-.5,.1,-.9,.3,-1.3c.2,-.4,.5,-.7,.8,-.9c.4,-.3,.7,-.4,1.2,-.5c.3,-.1,.8,-.2,1.4,-.3c1.3,-.1,2.3,-.3,2.9,-.5c0,-.3,0,-.4,0,-.5c0,-.6,-.2,-1.1,-.5,-1.4c-.4,-.3,-1,-.5,-1.8,-.5c-.8,0,-1.3,.1,-1.7,.4c-.3,.3,-.6,.7,-.8,1.4l-1.6,-.2c.2,-.7,.4,-1.2,.8,-1.6c.3,-.5,.8,-.8,1.4,-1c.6,-.2,1.3,-.3,2.1,-.3c.8,0,1.5,.1,2,.3c.5,.1,.9,.4,1.1,.7c.3,.3,.4,.6,.5,1.1c.1,.2,.1,.7,.1,1.5v2.1c0,1.5,0,2.5,.1,2.8c.1,.4,.2,.8,.4,1.2h-1.7c-.1,-.3,-.2,-.7,-.3,-1.2m-.1,-3.6c-.6,.3,-1.5,.5,-2.6,.6c-.7,.1,-1.2,.2,-1.5,.3c-.2,.2,-.4,.3,-.6,.6c-.1,.2,-.2,.5,-.2,.7c0,.5,.2,.8,.5,1.1c.3,.3,.8,.4,1.4,.4c.6,0,1.2,-.1,1.7,-.4c.4,-.2,.8,-.6,1,-1.1c.2,-.3,.3,-.9,.3,-1.6Z" class="g8_139"/>
<path d="M729.2,750.5h1.4c-.1,.6,-.2,1.1,-.4,1.3c-.2,.3,-.5,.4,-.9,.5c-.3,.1,-1,.1,-2,.1c-1.3,0,-2.2,.1,-2.7,.4c-.5,.2,-.8,.6,-1,1.2c-.3,.6,-.4,1.3,-.4,2.2c.4,-.6,.9,-1.1,1.4,-1.4c.6,-.3,1.2,-.4,1.9,-.4c1.2,0,2.2,.4,3.1,1.3c.8,.8,1.2,2,1.2,3.4c0,1.2,-.2,2.1,-.6,2.8c-.5,.7,-.9,1.2,-1.5,1.6c-.6,.4,-1.3,.6,-2.3,.6c-1.1,0,-2,-.3,-2.6,-.8c-.7,-.5,-1.1,-1.1,-1.5,-2c-.3,-.8,-.5,-2.2,-.5,-4.2c0,-2.5,.4,-4.2,1.3,-5c.8,-.9,2.2,-1.3,3.9,-1.3c1.1,0,1.7,-.1,1.9,-.1c.1,0,.2,-.1,.3,-.2m-.1,8.6c0,-1,-.2,-1.8,-.7,-2.4c-.5,-.7,-1.1,-1,-2,-1c-.9,0,-1.6,.4,-2,1c-.5,.7,-.8,1.6,-.8,2.7c0,1.1,.3,1.9,.8,2.5c.6,.6,1.2,.9,2,.9c.8,0,1.4,-.3,1.9,-1c.5,-.7,.8,-1.6,.8,-2.7Z" class="g8_139"/>
<path d="M699.2,777.3c-.7,-.3,-1.2,-.6,-1.5,-1.1c-.3,-.4,-.5,-1,-.5,-1.6c0,-1,.4,-1.8,1,-2.4c.7,-.7,1.6,-1,2.8,-1c1.1,0,2,.3,2.7,1c.7,.7,1.1,1.5,1.1,2.4c0,.6,-.2,1.2,-.5,1.6c-.3,.5,-.8,.8,-1.4,1.1c.8,.2,1.4,.6,1.8,1.2c.4,.6,.6,1.3,.6,2.1c0,1.1,-.4,2.1,-1.2,2.8c-.8,.8,-1.8,1.2,-3.1,1.2c-1.3,0,-2.3,-.4,-3.1,-1.2c-.8,-.7,-1.2,-1.7,-1.2,-2.8c0,-.9,.2,-1.6,.6,-2.2c.5,-.5,1.1,-.9,1.9,-1.1m-.3,-2.8c0,.6,.2,1.1,.6,1.5c.4,.4,.9,.6,1.5,.6c.6,0,1.1,-.2,1.5,-.6c.4,-.3,.6,-.8,.6,-1.4c0,-.6,-.2,-1.1,-.6,-1.5c-.4,-.4,-.9,-.6,-1.5,-.6c-.6,0,-1.1,.2,-1.5,.6c-.4,.4,-.6,.9,-.6,1.4m-.6,6.1c0,.4,.1,.9,.4,1.3c.2,.4,.5,.8,.9,1c.5,.3,.9,.4,1.4,.4c.8,0,1.4,-.3,1.9,-.8c.5,-.5,.8,-1.1,.8,-1.9c0,-.7,-.3,-1.4,-.8,-1.9c-.5,-.5,-1.2,-.8,-1.9,-.8c-.8,0,-1.4,.3,-1.9,.8c-.5,.5,-.8,1.1,-.8,1.9Z" class="g8_139"/>
<path d="M707.2,774.4c0,-.9,.2,-1.7,.7,-2.4c.5,-.7,1.2,-1,2.1,-1c.8,0,1.5,.3,2,.9c.5,.6,.8,1.5,.8,2.6c0,1.1,-.3,2,-.8,2.6c-.6,.6,-1.2,.9,-2,.9c-.8,0,-1.5,-.3,-2,-.9c-.5,-.6,-.8,-1.5,-.8,-2.7m2.8,-2.3c-.4,0,-.7,.2,-1,.6c-.3,.3,-.4,.9,-.4,1.9c0,.8,.1,1.4,.4,1.7c.3,.4,.6,.5,1,.5c.4,0,.7,-.1,1,-.5c.3,-.3,.4,-.9,.4,-1.9c0,-.8,-.1,-1.4,-.4,-1.8c-.3,-.3,-.6,-.5,-1,-.5m0,12.8L717.2,771h1.3l-7.2,13.9Zm5.7,-3.6c0,-1,.2,-1.8,.7,-2.4c.5,-.7,1.1,-1,2.1,-1c.8,0,1.5,.3,2,.9c.5,.6,.8,1.4,.8,2.6c0,1.1,-.3,2,-.8,2.6c-.6,.6,-1.2,.9,-2,.9c-.8,0,-1.5,-.3,-2,-.9c-.6,-.6,-.8,-1.5,-.8,-2.7m2.8,-2.3c-.4,0,-.7,.2,-1,.5c-.3,.4,-.4,1,-.4,2c0,.8,.1,1.4,.4,1.7c.3,.4,.6,.5,1,.5c.4,0,.7,-.1,1,-.5c.3,-.3,.4,-1,.4,-1.9c0,-.8,-.1,-1.4,-.4,-1.8c-.3,-.3,-.6,-.5,-1,-.5Z" class="g8_139"/>
<path fill-rule="evenodd" d="M685.7,848.7l54.2,-97.5c35.5,19.8,57.5,57.3,57.3,98Z" class="g6_139"/>
<path d="M685.7,848.7l54.2,-97.5c35.5,19.8,57.5,57.3,57.3,98l-111.5,-.5Z" class="g3_139"/>
<path d="M730,811.3l1.7,.4c-.3,1.4,-1,2.5,-1.9,3.3c-1,.7,-2.1,1.1,-3.5,1.1c-1.4,0,-2.6,-.3,-3.5,-.9c-.8,-.5,-1.5,-1.4,-2,-2.5c-.4,-1.1,-.7,-2.2,-.7,-3.5c0,-1.4,.3,-2.6,.8,-3.6c.5,-1,1.3,-1.8,2.2,-2.3c1,-.5,2.1,-.8,3.2,-.8c1.3,0,2.4,.4,3.3,1c.9,.7,1.5,1.6,1.9,2.8l-1.7,.4c-.3,-.9,-.8,-1.6,-1.3,-2c-.6,-.5,-1.3,-.7,-2.2,-.7c-1,0,-1.9,.2,-2.5,.7c-.7,.5,-1.2,1.2,-1.5,2c-.2,.8,-.4,1.6,-.4,2.5c0,1.1,.2,2.1,.5,2.9c.3,.9,.8,1.5,1.5,1.9c.7,.4,1.4,.6,2.3,.6c.9,0,1.7,-.3,2.4,-.8c.7,-.6,1.1,-1.4,1.4,-2.5Z" class="g8_139"/>
<path d="M733.7,819.5V806.4h1.4v1.2c.4,-.5,.8,-.8,1.2,-1.1c.4,-.2,1,-.4,1.6,-.4c.8,0,1.5,.3,2.1,.7c.7,.4,1.1,1,1.4,1.7c.4,.8,.5,1.6,.5,2.5c0,1,-.2,1.9,-.5,2.7c-.4,.8,-.9,1.3,-1.5,1.8c-.7,.4,-1.4,.6,-2.1,.6c-.6,0,-1.1,-.1,-1.5,-.4c-.4,-.2,-.8,-.5,-1,-.8v4.6Zm1.4,-8.3c0,1.2,.3,2.1,.8,2.7c.5,.6,1.1,.9,1.8,.9c.7,0,1.3,-.3,1.8,-1c.5,-.6,.8,-1.5,.8,-2.8c0,-1.2,-.3,-2.1,-.8,-2.7c-.5,-.6,-1.1,-.9,-1.8,-.9c-.7,0,-1.3,.3,-1.8,1c-.5,.6,-.8,1.5,-.8,2.8Z" class="g8_139"/>
<path d="M750.4,812.8l1.6,.2c-.2,1,-.7,1.7,-1.4,2.3c-.7,.5,-1.7,.8,-2.8,.8c-1.3,0,-2.4,-.4,-3.3,-1.3c-.8,-.9,-1.2,-2.1,-1.2,-3.6c0,-1.6,.4,-2.8,1.3,-3.7c.8,-.9,1.8,-1.4,3.2,-1.4c1.2,0,2.3,.5,3.1,1.3c.8,.9,1.2,2.1,1.2,3.7c0,.1,0,.2,0,.4H745c0,1.1,.3,1.9,.9,2.4c.5,.6,1.2,.9,2,.9c.5,0,1,-.2,1.5,-.5c.4,-.3,.7,-.8,1,-1.5m-5.3,-2.6h5.3c-.1,-.8,-.3,-1.4,-.6,-1.8c-.5,-.6,-1.2,-.9,-2,-.9c-.8,0,-1.4,.2,-1.9,.7c-.5,.5,-.8,1.2,-.8,2Z" class="g8_139"/>
<path d="M754.9,806.4h6.6v8.1h1.1v4.1h-1.4v-2.7h-7.4v2.7h-1.4v-4.1h.9c1.1,-1.5,1.7,-4.2,1.6,-8.1m1.4,1.3c-.2,3.1,-.6,5.4,-1.5,6.8h5.1v-6.8Z" class="g8_139"/>
<path d="M770.9,812.8l1.6,.2c-.2,1,-.7,1.7,-1.4,2.3c-.8,.5,-1.7,.8,-2.8,.8c-1.4,0,-2.5,-.4,-3.3,-1.3c-.8,-.9,-1.2,-2.1,-1.2,-3.6c0,-1.6,.4,-2.8,1.2,-3.7c.9,-.9,1.9,-1.4,3.2,-1.4c1.3,0,2.4,.5,3.2,1.3c.8,.9,1.2,2.1,1.2,3.7c0,.1,0,.2,0,.4h-7.1c0,1.1,.3,1.9,.9,2.4c.5,.6,1.2,.9,1.9,.9c.6,0,1.1,-.2,1.6,-.5c.4,-.3,.7,-.8,1,-1.5m-5.3,-2.6h5.3c-.1,-.8,-.3,-1.4,-.6,-1.8c-.6,-.6,-1.2,-.9,-2,-.9c-.8,0,-1.4,.2,-1.9,.7c-.5,.5,-.8,1.2,-.8,2Z" class="g8_139"/>
<path d="M774.5,806.4h1.7v3.9h4.4v-3.9h1.6v9.5h-1.6v-4.2h-4.4v4.2h-1.7Z" class="g8_139"/>
<path d="M739.8,836.3h-1.6V826.1c-.4,.4,-.9,.7,-1.5,1.1c-.7,.4,-1.2,.6,-1.7,.8v-1.5c.9,-.5,1.7,-1,2.3,-1.6c.7,-.6,1.2,-1.2,1.5,-1.7h1Z" class="g8_139"/>
<path d="M744.1,824.9v-1.5h8.4v1.3c-.8,.8,-1.6,2,-2.4,3.5c-.9,1.5,-1.5,3,-1.9,4.5c-.4,1.1,-.6,2.3,-.7,3.6h-1.6c0,-1,.2,-2.2,.6,-3.7c.4,-1.5,.9,-2.9,1.7,-4.2c.7,-1.4,1.5,-2.5,2.3,-3.5Z" class="g8_139"/>
<path d="M754.4,826.4c0,-1,.3,-1.8,.8,-2.4c.4,-.7,1.1,-1,2,-1c.8,0,1.5,.3,2,.9c.6,.6,.9,1.4,.9,2.6c0,1.1,-.3,1.9,-.9,2.5c-.5,.6,-1.2,.9,-2,.9c-.8,0,-1.4,-.3,-2,-.8c-.5,-.6,-.8,-1.5,-.8,-2.7m2.8,-2.3c-.4,0,-.7,.2,-1,.5c-.2,.4,-.3,1,-.3,1.9c0,.9,.1,1.5,.4,1.8c.2,.4,.6,.5,.9,.5c.5,0,.8,-.1,1.1,-.5c.2,-.3,.4,-1,.4,-1.9c0,-.8,-.2,-1.4,-.5,-1.8c-.2,-.3,-.6,-.5,-1,-.5m.1,12.7L764.4,823h1.3l-7.1,13.8Zm5.6,-3.5c0,-1,.3,-1.8,.7,-2.4c.5,-.7,1.2,-1,2.1,-1c.8,0,1.5,.3,2,.9c.6,.6,.9,1.4,.9,2.6c0,1.1,-.3,1.9,-.9,2.5c-.5,.6,-1.2,.9,-2,.9c-.8,0,-1.4,-.3,-2,-.9c-.5,-.6,-.8,-1.4,-.8,-2.6m2.8,-2.3c-.4,0,-.7,.2,-1,.5c-.2,.4,-.4,1,-.4,1.9c0,.9,.2,1.5,.4,1.8c.3,.3,.6,.5,1,.5c.4,0,.8,-.2,1,-.5c.3,-.3,.4,-1,.4,-1.9c0,-.8,-.1,-1.4,-.4,-1.8c-.2,-.3,-.6,-.5,-1,-.5Z" class="g8_139"/>
<path d="M705.7,862.8h8v11.6h1.2V879h-1.6v-3.1h-8.7V879h-1.5v-4.6h1c1.1,-1.6,1.6,-4.8,1.6,-9.7Zm6.2,1.6h-4.5v.6c0,1.1,-.1,2.7,-.3,4.6c-.2,1.9,-.6,3.5,-1.2,4.8h6Z" class="g8_139"/>
<path d="M716.3,871.2c0,-1.8,.5,-3.1,1.5,-3.9c.8,-.7,1.8,-1.1,3,-1.1c1.3,0,2.3,.4,3.2,1.3c.8,.8,1.2,2,1.2,3.5c0,1.3,-.2,2.2,-.5,2.9c-.4,.7,-.9,1.3,-1.6,1.7c-.7,.3,-1.5,.5,-2.3,.5c-1.4,0,-2.4,-.4,-3.3,-1.2c-.8,-.9,-1.2,-2.1,-1.2,-3.7m1.7,0c0,1.2,.2,2.1,.8,2.7c.5,.6,1.2,.9,2,.9c.8,0,1.4,-.3,2,-.9c.5,-.6,.8,-1.5,.8,-2.8c0,-1.2,-.3,-2,-.8,-2.7c-.6,-.6,-1.2,-.9,-2,-.9c-.8,0,-1.5,.3,-2,.9c-.6,.6,-.8,1.6,-.8,2.8Z" class="g8_139"/>
<path d="M734.1,862.5h1.4c-.1,.6,-.2,1.1,-.4,1.3c-.3,.3,-.5,.5,-.9,.5c-.3,.1,-1,.1,-2,.1c-1.3,0,-2.2,.2,-2.7,.4c-.5,.3,-.8,.7,-1.1,1.2c-.2,.6,-.3,1.3,-.3,2.2c.4,-.6,.9,-1,1.4,-1.3c.6,-.3,1.2,-.5,1.8,-.5c1.3,0,2.3,.4,3.1,1.3c.9,.9,1.3,2,1.3,3.5c0,1.1,-.2,2,-.6,2.7c-.5,.7,-.9,1.3,-1.5,1.7c-.6,.3,-1.3,.5,-2.3,.5c-1.1,0,-2,-.2,-2.7,-.7c-.6,-.5,-1.1,-1.2,-1.4,-2c-.3,-.8,-.5,-2.2,-.5,-4.2c0,-2.5,.4,-4.2,1.3,-5.1c.8,-.9,2.1,-1.3,3.9,-1.3c1.1,0,1.7,0,1.9,-.1c.1,0,.2,-.1,.3,-.2m-.1,8.6c0,-1,-.2,-1.8,-.7,-2.4c-.5,-.6,-1.1,-.9,-2,-.9c-.9,0,-1.6,.3,-2.1,1c-.4,.6,-.7,1.5,-.7,2.6c0,1.1,.3,2,.8,2.6c.6,.6,1.2,.8,2,.8c.8,0,1.4,-.3,1.9,-1c.5,-.6,.8,-1.5,.8,-2.7Z" class="g8_139"/>
<path d="M736.1,866.4h4.3v3.7h2c1.5,0,2.6,.3,3.2,.9c.7,.5,1,1.2,1,2.1c0,.8,-.3,1.5,-1,2c-.6,.6,-1.5,.8,-2.8,.8h-4v-8.1h-2.7Zm4.3,8.2h1.7c1,0,1.7,-.1,2.2,-.4c.4,-.2,.6,-.6,.6,-1.1c0,-.5,-.2,-.9,-.5,-1.2c-.4,-.3,-1.1,-.4,-2.1,-.4h-1.9Z" class="g8_139"/>
<path d="M748.5,879.6V866.4h1.4v1.3c.4,-.5,.8,-.9,1.2,-1.1c.4,-.3,1,-.4,1.6,-.4c.8,0,1.5,.2,2.1,.6c.6,.4,1.1,1,1.4,1.8c.3,.8,.5,1.6,.5,2.5c0,1,-.2,1.9,-.5,2.6c-.4,.8,-.9,1.4,-1.5,1.8c-.7,.4,-1.4,.6,-2.1,.6c-.6,0,-1.1,-.1,-1.5,-.3c-.4,-.2,-.8,-.5,-1,-.9v4.7Zm1.4,-8.4c0,1.2,.3,2.2,.8,2.7c.5,.6,1.1,.9,1.8,.9c.7,0,1.3,-.3,1.8,-.9c.5,-.6,.8,-1.5,.8,-2.8c0,-1.2,-.3,-2.1,-.8,-2.7c-.5,-.6,-1.1,-.9,-1.8,-.9c-.7,0,-1.3,.3,-1.8,.9c-.5,.7,-.8,1.6,-.8,2.8Z" class="g8_139"/>
<path d="M721.1,894.9v1.5h-8.6c0,-.4,0,-.8,.2,-1.1c.2,-.6,.5,-1.2,1,-1.8c.5,-.5,1.2,-1.2,2.1,-1.9c1.5,-1.2,2.4,-2.1,2.9,-2.8c.5,-.7,.8,-1.4,.8,-2c0,-.6,-.3,-1.1,-.7,-1.6c-.5,-.4,-1.1,-.6,-1.8,-.6c-.8,0,-1.4,.2,-1.9,.7c-.4,.4,-.7,1.1,-.7,1.9l-1.6,-.2c.1,-1.2,.5,-2.2,1.3,-2.8c.7,-.6,1.7,-1,2.9,-1c1.3,0,2.3,.4,3,1.1c.8,.7,1.1,1.5,1.1,2.6c0,.5,-.1,1,-.3,1.5c-.2,.5,-.6,1.1,-1.1,1.6c-.5,.6,-1.3,1.4,-2.5,2.3c-.9,.8,-1.5,1.4,-1.8,1.7c-.3,.3,-.5,.6,-.7,.9Z" class="g8_139"/>
<path d="M722.9,893l1.7,-.2c.1,.9,.4,1.5,.8,1.9c.5,.4,1,.6,1.7,.6c.8,0,1.4,-.3,2,-.9c.5,-.6,.8,-1.3,.8,-2.3c0,-.9,-.3,-1.6,-.8,-2.2c-.5,-.5,-1.2,-.8,-2,-.8c-.6,0,-1,.1,-1.4,.4c-.5,.2,-.8,.5,-1,.9l-1.5,-.2l1.2,-6.7H731V885h-5.3l-.7,3.5c.8,-.5,1.6,-.8,2.5,-.8c1.1,0,2.1,.4,2.9,1.2c.8,.8,1.2,1.8,1.2,3.1c0,1.1,-.4,2.2,-1.1,3c-.8,1.1,-2,1.6,-3.4,1.6c-1.2,0,-2.2,-.3,-2.9,-1c-.8,-.6,-1.2,-1.5,-1.3,-2.6Z" class="g8_139"/>
<path d="M733.4,886.4c0,-.9,.2,-1.7,.7,-2.4c.4,-.6,1.1,-.9,2,-.9c.9,0,1.5,.3,2.1,.8c.5,.6,.8,1.5,.8,2.6c0,1.1,-.3,2,-.8,2.6c-.6,.6,-1.3,.9,-2.1,.9c-.7,0,-1.4,-.3,-1.9,-.9c-.6,-.6,-.8,-1.5,-.8,-2.7m2.8,-2.2c-.4,0,-.8,.1,-1,.5c-.3,.3,-.4,1,-.4,1.9c0,.8,.1,1.4,.4,1.8c.2,.3,.6,.5,1,.5c.4,0,.7,-.2,1,-.5c.2,-.4,.4,-1,.4,-1.9c0,-.9,-.2,-1.5,-.4,-1.8c-.3,-.4,-.6,-.5,-1,-.5m0,12.7l7.2,-13.8h1.3l-7.2,13.8Zm5.7,-3.6c0,-.9,.2,-1.7,.7,-2.4c.4,-.6,1.1,-.9,2,-.9c.8,0,1.5,.2,2.1,.8c.5,.6,.8,1.5,.8,2.6c0,1.1,-.3,2,-.8,2.6c-.6,.6,-1.3,.9,-2.1,.9c-.8,0,-1.4,-.3,-2,-.9c-.5,-.6,-.7,-1.5,-.7,-2.7m2.8,-2.2c-.4,0,-.8,.1,-1,.5c-.3,.3,-.4,1,-.4,1.9c0,.8,.1,1.4,.4,1.8c.2,.3,.6,.5,1,.5c.4,0,.7,-.2,1,-.5c.2,-.4,.4,-1,.4,-1.9c0,-.9,-.2,-1.5,-.4,-1.8c-.3,-.4,-.6,-.5,-1,-.5Z" class="g8_139"/>
</svg>