<?xml version="1.0" encoding="UTF-8" standalone="no"?>
<!DOCTYPE svg PUBLIC "-//W3C//DTD SVG 1.1//EN"
"http://www.w3.org/Graphics/SVG/1.1/DTD/svg11.dtd">
<svg viewBox="0 0 909 1147" version="1.1" xmlns="http://www.w3.org/2000/svg" xmlns:xlink="http://www.w3.org/1999/xlink">
<defs>
<clipPath id="c0_65"><path d="M141.8,476.6v-18H172v18Z"/></clipPath>
<style type="text/css"><![CDATA[
.g0_65{
fill: #B6D774;
}
.g1_65{
fill: none;
stroke: #6DCFF6;
stroke-width: 0.734;
stroke-miterlimit: 2;
}
.g2_65{
fill: none;
stroke: #000;
stroke-width: 1.028;
stroke-miterlimit: 2;
}
.g3_65{
fill: #000;
}
.g4_65{
fill: none;
stroke: #000;
stroke-width: 0.734;
stroke-miterlimit: 2;
}
.g5_65{
fill: #FFF1E0;
}
.g6_65{
fill: none;
stroke: #0EA5DF;
stroke-width: 3.055;
}
.g7_65{
fill: #E8F1FA;
}
.g8_65{
fill: #0C4B7F;
}
.g9_65{
fill: #0EA5DF;
}
.ga_65{
fill: #FFF;
}
.gb_65{
fill: none;
stroke: #D82C20;
stroke-width: 1.527;
}
]]></style>
</defs>
<path d="M835.8,1131h73.6v-51.5H835.8V1131Z" class="g0_65"/>
<path d="M486.7,425.5h15v15h-15v-15Zm0,-15h15v15h-15v-15Zm0,-15h15v15h-15v-15Zm0,-15h15v15h-15v-15Zm0,-15h15v15h-15v-15Zm0,-15h15v15h-15v-15Zm-15,75h15v15h-15v-15Zm0,-15h15v15h-15v-15Zm0,-15h15v15h-15v-15Zm0,-15h15v15h-15v-15Zm0,-15h15v15h-15v-15Zm0,-15h15v15h-15v-15Zm-15,75h15v15h-15v-15Zm0,-15h15v15h-15v-15Zm0,-15h15v15h-15v-15Zm0,-15h15v15h-15v-15Zm0,-15h15v15h-15v-15Zm0,-15h15v15h-15v-15Zm-15,75h15v15h-15v-15Zm0,-15h15v15h-15v-15Zm0,-15h15v15h-15v-15Zm0,-15h15v15h-15v-15Zm0,-15h15v15h-15v-15Zm0,-15h15v15h-15v-15Zm-15,75h15v15h-15v-15Zm0,-15h15v15h-15v-15Zm0,-15h15v15h-15v-15Zm0,-15h15v15h-15v-15Zm0,-15h15v15h-15v-15Zm0,-15h15v15h-15v-15Zm-15,75h15v15h-15v-15Zm0,-15h15v15h-15v-15Zm0,-15h15v15h-15v-15Zm0,-15h15v15h-15v-15Zm0,-15h15v15h-15v-15Zm0,-15h15v15h-15v-15Zm-15,75h15v15h-15v-15Zm0,-15h15v15h-15v-15Zm0,-15h15v15h-15v-15Zm0,-15h15v15h-15v-15Zm0,-15h15v15h-15v-15Zm0,-15h15v15h-15v-15Zm-15,75h15v15h-15v-15Zm0,-15h15v15h-15v-15Zm0,-15h15v15h-15v-15Zm0,-15h15v15h-15v-15Zm0,-15h15v15h-15v-15Zm0,-15h15v15h-15v-15Zm-15,75h15v15h-15v-15Zm0,-15h15v15h-15v-15Zm0,-15h15v15h-15v-15Zm0,-15h15v15h-15v-15Zm0,-15h15v15h-15v-15Zm0,-15h15v15h-15v-15Zm-15,75h15v15h-15v-15Zm0,-15h15v15h-15v-15Zm0,-15h15v15h-15v-15Zm0,-15h15v15h-15v-15Zm0,-15h15v15h-15v-15Zm0,-15h15v15h-15v-15Z" class="g1_65"/>
<path d="M382.3,426.3h90.1" class="g2_65"/>
<path fill-rule="evenodd" d="M481.8,432.4c.6,.1,1.1,.2,1.4,.2c.9,0,1.7,-.3,2.4,-.9c.7,-.5,1,-1.2,1,-2.1c0,-.8,-.2,-1.3,-.6,-1.7c-.4,-.4,-1.1,-.6,-2.1,-.6c-.2,0,-.4,0,-.6,0Zm1.7,-5.7c.3,0,.6,0,.8,0c1.2,0,2,-.3,2.6,-.8c.6,-.5,.9,-1.1,.9,-1.9c0,-.6,-.2,-1.1,-.5,-1.4c-.4,-.3,-1,-.5,-1.7,-.5c-.2,0,-.5,0,-.8,.1Zm-1.8,-4.9l.1,-.3H486c.7,0,1.3,.1,1.9,.3c.5,.3,.9,.6,1.2,1c.3,.3,.4,.8,.4,1.2c0,.7,-.2,1.3,-.7,1.8c-.5,.6,-1.3,1,-2.4,1.2c.7,.3,1.2,.6,1.6,1.1c.3,.4,.5,.9,.5,1.4c0,.6,-.2,1.1,-.5,1.7c-.3,.5,-.7,.9,-1.1,1.2c-.5,.3,-1.1,.5,-1.7,.6c-.5,.1,-1.2,.2,-2.2,.2h-4.3l.1,-.3c.5,0,.8,-.1,.9,-.2c.2,-.1,.4,-.2,.5,-.3c.1,-.3,.3,-.8,.6,-1.5l2.1,-7.1c.1,-.6,.2,-1,.2,-1.3c0,-.2,-.1,-.3,-.2,-.5c-.2,-.1,-.5,-.2,-.9,-.2c-.1,0,-.2,0,-.3,0Z" class="g3_65"/>
<path fill-rule="evenodd" d="M372.6,425.5l-3.4,4.6h3Zm1.7,-2.9l-.9,9.7c0,.5,0,.8,0,.9c0,.2,0,.4,.1,.5c.1,.2,.3,.3,.4,.4c.2,.1,.6,.1,1,.1l-.1,.4h-4.6l.1,-.4h.2c.4,0,.7,0,.9,-.2c.2,-.1,.3,-.3,.4,-.6c.1,-.1,.1,-.5,.2,-1.2l.1,-1.5h-3.3l-1.2,1.6c-.3,.4,-.5,.6,-.5,.8c-.1,.2,-.1,.3,-.1,.4c0,.2,0,.4,.2,.5c.1,.1,.4,.2,.7,.2l-.1,.4h-3.4l.1,-.4c.4,0,.8,-.1,1.1,-.4c.3,-.3,.8,-.8,1.5,-1.7l6.9,-9.5Z" class="g3_65"/>
<path fill-rule="evenodd" d="M372.3,359.1l-2.6,8.7c-.1,.7,-.2,1.1,-.2,1.2c0,.1,0,.2,0,.3c.1,.1,.2,.1,.3,.2c.1,0,.4,0,.7,0c.9,0,1.8,-.1,2.5,-.2c.8,-.2,1.4,-.5,1.9,-.9c.7,-.5,1.3,-1.2,1.7,-2.2c.4,-.9,.6,-2,.6,-3.2c0,-1.3,-.3,-2.3,-.9,-3c-.7,-.6,-1.6,-1,-2.8,-1c-.4,0,-.7,0,-1.2,.1m-3.1,-.4l.1,-.3H373c1.6,0,2.8,.2,3.6,.6c.7,.3,1.3,.9,1.8,1.7c.4,.7,.7,1.6,.7,2.5c0,.7,-.2,1.5,-.4,2.2c-.3,.7,-.6,1.3,-.9,1.7c-.3,.5,-.9,.9,-1.5,1.5c-.7,.5,-1.5,.9,-2.3,1.1c-.8,.3,-1.8,.4,-3,.4h-4.9l.1,-.3c.5,0,.8,-.1,.9,-.1c.3,-.1,.4,-.3,.5,-.4c.2,-.3,.4,-.8,.6,-1.5l2.1,-7.1c.1,-.5,.2,-1,.2,-1.3c0,-.2,-.1,-.4,-.2,-.5c-.2,-.1,-.5,-.2,-.9,-.2Z" class="g3_65"/>
<path d="M381.8,426V365.4" class="g2_65"/>
<path d="M381.6,409.5c10.2,2.4,15.6,8.3,16.1,17.6" class="g4_65"/>
<path fill-rule="evenodd" d="M387.3,419c.5,0,.9,.4,.9,.8c0,.5,-.4,.9,-.9,.9c-.4,0,-.8,-.4,-.8,-.9c0,-.4,.4,-.8,.8,-.8Z" class="g3_65"/>
<path d="M387.3,419c.5,0,.9,.4,.9,.8c0,.5,-.4,.9,-.9,.9c-.4,0,-.8,-.4,-.8,-.9c0,-.4,.4,-.8,.8,-.8Z" class="g2_65"/>
<path d="M184.8,201.4h651V65h-651V201.4Z" class="g5_65"/>
<path d="M74.6,270.4H836.8" class="g6_65"/>
<path d="M185.8,539.3h651V448.5h-651v90.8Z" class="g5_65"/>
<path d="M74.6,548H836.8M74.6,717H836.8" class="g6_65"/>
<path d="M186.1,1078.3H836.8V907.2H186.1v171.1Z" class="g7_65"/>
<path d="M74.6,906.6H836.8" class="g6_65"/>
<path d="M135.8,102.6h39.7V65.2H135.8v37.4Z" class="g8_65"/>
<path d="M136.8,486h39.7V448.5H136.8V486Z" class="g9_65"/>
<path clip-path="url(#c0_65)" d="M157.1,471.1c-2.1,.1,-3.8,-1.6,-3.7,-3.6c.1,-1.7,1.5,-3.1,3.2,-3.2c2.1,-.1,3.8,1.5,3.7,3.6c-.1,1.7,-1.5,3.1,-3.2,3.2m.2,2.9c-3.9,.3,-7,-2.9,-6.8,-6.7c.2,-3.2,2.8,-5.7,5.9,-5.9c3.9,-.3,7,2.9,6.8,6.7c-.2,3.2,-2.8,5.7,-5.9,5.9m-.4,-15.3c-5.8,0,-11,3.2,-14.9,8.3c-.3,.4,-.3,1,0,1.4c3.9,5.1,9.1,8.3,14.9,8.3c5.7,0,11,-3.2,14.8,-8.3c.3,-.4,.3,-1,0,-1.4c-3.8,-5.1,-9.1,-8.3,-14.8,-8.3Z" class="ga_65"/>
<path d="M320.5,425.5h15v15h-15v-15Zm0,-15h15v15h-15v-15Zm0,-15h15v15h-15v-15Zm0,-15h15v15h-15v-15Zm0,-15h15v15h-15v-15Zm0,-15h15v15h-15v-15Zm-15,75h15v15h-15v-15Zm0,-15h15v15h-15v-15Zm0,-15h15v15h-15v-15Zm0,-15h15v15h-15v-15Zm0,-15h15v15h-15v-15Zm0,-15h15v15h-15v-15Zm-15,75h15v15h-15v-15Zm0,-15h15v15h-15v-15Zm0,-15h15v15h-15v-15Zm0,-15h15v15h-15v-15Zm0,-15h15v15h-15v-15Zm0,-15h15v15h-15v-15Zm-15,75h15v15h-15v-15Zm0,-15h15v15h-15v-15Zm0,-15h15v15h-15v-15Zm0,-15h15v15h-15v-15Zm0,-15h15v15h-15v-15Zm0,-15h15v15h-15v-15Zm-15,75h15v15h-15v-15Zm0,-15h15v15h-15v-15Zm0,-15h15v15h-15v-15Zm0,-15h15v15h-15v-15Zm0,-15h15v15h-15v-15Zm0,-15h15v15h-15v-15Zm-15,75h15v15h-15v-15Zm0,-15h15v15h-15v-15Zm0,-15h15v15h-15v-15Zm0,-15h15v15h-15v-15Zm0,-15h15v15h-15v-15Zm0,-15h15v15h-15v-15Zm-15,75h15v15h-15v-15Zm0,-15h15v15h-15v-15Zm0,-15h15v15h-15v-15Zm0,-15h15v15h-15v-15Zm0,-15h15v15h-15v-15Zm0,-15h15v15h-15v-15Zm-15,75h15v15h-15v-15Zm0,-15h15v15h-15v-15Zm0,-15h15v15h-15v-15Zm0,-15h15v15h-15v-15Zm0,-15h15v15h-15v-15Zm0,-15h15v15h-15v-15Zm-15,75h15v15h-15v-15Zm0,-15h15v15h-15v-15Zm0,-15h15v15h-15v-15Zm0,-15h15v15h-15v-15Zm0,-15h15v15h-15v-15Zm0,-15h15v15h-15v-15Zm-15,75h15v15h-15v-15Zm0,-15h15v15h-15v-15Zm0,-15h15v15h-15v-15Zm0,-15h15v15h-15v-15Zm0,-15h15v15h-15v-15Zm0,-15h15v15h-15v-15Z" class="g1_65"/>
<path d="M216.1,426.3h90.1" class="g2_65"/>
<path fill-rule="evenodd" d="M209.6,423.7l-3.4,4.6h2.9Zm1.7,-2.9l-.9,9.8c-.1,.4,-.1,.7,-.1,.9c0,.2,.1,.4,.2,.5c.1,.1,.2,.3,.4,.3c.2,.1,.5,.2,.9,.2l-.1,.3h-4.6l.1,-.3h.2c.4,0,.7,-.1,1,-.3c.1,-.1,.2,-.3,.3,-.5c.1,-.2,.2,-.6,.2,-1.3l.2,-1.5h-3.4l-1.2,1.7c-.2,.3,-.4,.6,-.5,.7c-.1,.2,-.1,.3,-.1,.5c0,.2,.1,.3,.2,.5c.2,.1,.4,.2,.8,.2l-.1,.3h-3.5l.1,-.3c.5,0,.8,-.2,1.2,-.5c.3,-.2,.8,-.8,1.4,-1.7l7,-9.5Z" class="g3_65"/>
<path fill-rule="evenodd" d="M312.7,431.7c.6,.1,1.1,.1,1.5,.1c.9,0,1.7,-.2,2.3,-.8c.7,-.5,1.1,-1.2,1.1,-2.2c0,-.7,-.2,-1.2,-.7,-1.6c-.4,-.4,-1.1,-.6,-2,-.6c-.2,0,-.4,0,-.7,0Zm1.7,-5.7c.4,0,.6,0,.8,0c1.2,0,2.1,-.3,2.7,-.8c.6,-.5,.9,-1.2,.9,-2c0,-.5,-.2,-1,-.6,-1.3c-.3,-.4,-.9,-.5,-1.7,-.5c-.2,0,-.5,0,-.8,.1Zm-1.7,-4.9l.1,-.3h4.1c.7,0,1.4,.1,1.9,.3c.6,.2,1,.5,1.2,.9c.3,.4,.5,.8,.5,1.3c0,.6,-.3,1.3,-.8,1.8c-.5,.5,-1.2,.9,-2.3,1.2c.7,.3,1.2,.6,1.5,1c.4,.5,.5,1,.5,1.5c0,.6,-.1,1.1,-.4,1.7c-.3,.5,-.7,.9,-1.2,1.2c-.5,.3,-1,.5,-1.7,.6c-.4,.1,-1.2,.2,-2.2,.2h-4.3l.2,-.3c.4,-.1,.7,-.1,.9,-.2c.2,-.1,.4,-.2,.5,-.4c.1,-.2,.3,-.7,.5,-1.5l2.1,-7c.2,-.6,.3,-1.1,.3,-1.3c0,-.2,-.1,-.4,-.3,-.5c-.1,-.1,-.4,-.2,-.9,-.2c-.1,0,-.2,0,-.2,0Z" class="g3_65"/>
<path d="M654.6,425.5h15v15h-15v-15Zm0,-15h15v15h-15v-15Zm0,-15h15v15h-15v-15Zm0,-15h15v15h-15v-15Zm0,-15h15v15h-15v-15Zm0,-15h15v15h-15v-15Zm-15,75h15v15h-15v-15Zm0,-15h15v15h-15v-15Zm0,-15h15v15h-15v-15Zm0,-15h15v15h-15v-15Zm0,-15h15v15h-15v-15Zm0,-15h15v15h-15v-15Zm-15,75h15v15h-15v-15Zm0,-15h15v15h-15v-15Zm0,-15h15v15h-15v-15Zm0,-15h15v15h-15v-15Zm0,-15h15v15h-15v-15Zm0,-15h15v15h-15v-15Zm-15,75h15v15h-15v-15Zm0,-15h15v15h-15v-15Zm0,-15h15v15h-15v-15Zm0,-15h15v15h-15v-15Zm0,-15h15v15h-15v-15Zm0,-15h15v15h-15v-15Zm-15.1,75h15.1v15H594.5v-15Zm0,-15h15.1v15H594.5v-15Zm0,-15h15.1v15H594.5v-15Zm0,-15h15.1v15H594.5v-15Zm0,-15h15.1v15H594.5v-15Zm0,-15h15.1v15H594.5v-15Zm-15,75h15v15h-15v-15Zm0,-15h15v15h-15v-15Zm0,-15h15v15h-15v-15Zm0,-15h15v15h-15v-15Zm0,-15h15v15h-15v-15Zm0,-15h15v15h-15v-15Zm-15,75h15v15h-15v-15Zm0,-15h15v15h-15v-15Zm0,-15h15v15h-15v-15Zm0,-15h15v15h-15v-15Zm0,-15h15v15h-15v-15Zm0,-15h15v15h-15v-15Zm-15,75h15v15h-15v-15Zm0,-15h15v15h-15v-15Zm0,-15h15v15h-15v-15Zm0,-15h15v15h-15v-15Zm0,-15h15v15h-15v-15Zm0,-15h15v15h-15v-15Zm-15,75h15v15h-15v-15Zm0,-15h15v15h-15v-15Zm0,-15h15v15h-15v-15Zm0,-15h15v15h-15v-15Zm0,-15h15v15h-15v-15Zm0,-15h15v15h-15v-15Zm-15,75h15v15h-15v-15Zm0,-15h15v15h-15v-15Zm0,-15h15v15h-15v-15Zm0,-15h15v15h-15v-15Zm0,-15h15v15h-15v-15Zm0,-15h15v15h-15v-15Z" class="g1_65"/>
<path d="M550.1,426.3h90.1" class="g2_65"/>
<path fill-rule="evenodd" d="M644.7,432.4c.6,.1,1.1,.1,1.5,.1c.9,0,1.6,-.2,2.3,-.8c.7,-.5,1.1,-1.2,1.1,-2.2c0,-.7,-.2,-1.2,-.7,-1.6c-.4,-.4,-1.1,-.6,-2,-.6c-.2,0,-.4,0,-.7,0Zm1.7,-5.7c.4,0,.6,0,.8,0c1.2,0,2.1,-.3,2.7,-.8c.6,-.5,.8,-1.2,.8,-2c0,-.5,-.1,-1,-.5,-1.3c-.3,-.4,-.9,-.5,-1.7,-.5c-.2,0,-.5,0,-.8,.1Zm-1.8,-4.9l.2,-.3h4.1c.7,0,1.4,.1,1.9,.3c.6,.2,1,.5,1.2,.9c.3,.4,.5,.8,.5,1.3c0,.6,-.3,1.3,-.8,1.8c-.5,.5,-1.3,.9,-2.3,1.2c.7,.3,1.2,.6,1.5,1c.3,.5,.5,1,.5,1.5c0,.6,-.1,1.1,-.4,1.7c-.3,.5,-.7,.9,-1.2,1.2c-.5,.3,-1,.5,-1.7,.6c-.5,.1,-1.2,.2,-2.2,.2h-4.3l.1,-.3c.5,-.1,.8,-.1,1,-.2c.2,-.1,.4,-.2,.5,-.4c.1,-.2,.3,-.7,.5,-1.5l2.1,-7c.2,-.6,.3,-1.1,.3,-1.3c0,-.2,-.1,-.4,-.3,-.5c-.1,-.1,-.4,-.2,-.9,-.2c-.1,0,-.2,0,-.3,0Z" class="g3_65"/>
<path fill-rule="evenodd" d="M540.3,360.1l-2.5,8.7c-.2,.7,-.3,1.1,-.3,1.3c0,0,0,.1,.1,.2c.1,.1,.1,.2,.2,.2c.2,0,.4,.1,.8,.1c.9,0,1.7,-.1,2.5,-.3c.8,-.2,1.4,-.5,1.9,-.8c.7,-.6,1.2,-1.3,1.7,-2.2c.4,-1,.6,-2,.6,-3.2c0,-1.4,-.3,-2.4,-1,-3.1c-.6,-.6,-1.6,-.9,-2.8,-.9c-.3,0,-.7,0,-1.2,0m-3,-.3l.1,-.3h3.7c1.6,0,2.8,.1,3.5,.5c.8,.4,1.4,.9,1.8,1.7c.5,.8,.7,1.6,.7,2.5c0,.8,-.1,1.5,-.4,2.2c-.2,.8,-.5,1.3,-.9,1.8c-.3,.4,-.8,.9,-1.5,1.4c-.7,.5,-1.4,.9,-2.2,1.2c-.8,.2,-1.8,.3,-3,.3h-4.9l.1,-.3c.4,0,.7,0,.9,-.1c.2,-.1,.4,-.2,.5,-.4c.2,-.2,.3,-.7,.6,-1.5l2,-7c.2,-.6,.3,-1,.3,-1.3c0,-.3,-.1,-.4,-.3,-.5c-.1,-.2,-.4,-.2,-.8,-.2Z" class="g3_65"/>
<path fill-rule="evenodd" d="M655.3,361l-.8,3.8h-.3l-.1,-.9c0,-.4,-.1,-.7,-.2,-1c-.1,-.2,-.2,-.5,-.4,-.7c-.2,-.2,-.5,-.3,-.8,-.4c-.3,-.1,-.7,-.2,-1.1,-.2c-1,0,-1.9,.3,-2.7,.8c-.9,.8,-1.7,1.8,-2.3,3.1c-.4,1.1,-.7,2.2,-.7,3.3c0,1.1,.4,2,1,2.7c.7,.6,1.5,1,2.6,1c.8,0,1.5,-.2,2.1,-.5c.7,-.4,1.2,-1,1.8,-1.7h.4c-.7,1,-1.4,1.8,-2.1,2.2c-.8,.5,-1.7,.7,-2.8,.7c-.9,0,-1.8,-.2,-2.5,-.6c-.8,-.4,-1.3,-.9,-1.7,-1.6c-.4,-.8,-.6,-1.5,-.6,-2.4c0,-1.3,.4,-2.5,1,-3.7c.7,-1.2,1.7,-2.2,2.9,-2.8c1.1,-.7,2.3,-1.1,3.6,-1.1c.5,0,1.2,.2,1.9,.4c.3,.1,.5,.2,.6,.2c.2,0,.3,0,.4,-.1c.1,0,.3,-.2,.5,-.5Z" class="g3_65"/>
<path fill-rule="evenodd" d="M542.9,423.4l-3.3,4.6h2.9Zm1.8,-2.9l-.9,9.7c-.1,.5,-.1,.7,-.1,.9c0,.2,0,.4,.1,.5c.1,.2,.3,.3,.5,.4c.2,.1,.5,.1,.9,.1l-.1,.3h-4.6l.1,-.3h.2c.4,0,.7,-.1,.9,-.2c.2,-.1,.3,-.3,.4,-.6c.1,-.2,.1,-.6,.2,-1.2l.1,-1.5h-3.3l-1.2,1.6c-.3,.4,-.4,.6,-.5,.8c-.1,.1,-.1,.3,-.1,.4c0,.2,.1,.4,.2,.5c.2,.1,.4,.2,.8,.2l-.1,.3h-3.5l.1,-.3c.4,0,.8,-.1,1.1,-.4c.3,-.3,.8,-.9,1.5,-1.7l7,-9.5Z" class="g3_65"/>
<path d="M565.9,365.3c-1.4,10.3,-6.7,16.3,-15.9,17.7" class="g4_65"/>
<path fill-rule="evenodd" d="M557,371.9c0,.5,-.3,.9,-.8,.9c-.4,.1,-.8,-.3,-.9,-.7c0,-.5,.3,-.9,.8,-.9c.4,-.1,.8,.2,.9,.7Z" class="g3_65"/>
<path d="M557,371.9c0,.5,-.3,.9,-.8,.9c-.4,.1,-.8,-.3,-.9,-.7c0,-.5,.3,-.9,.8,-.9c.4,-.1,.8,.2,.9,.7Zm-6.9,54.4V366h89.6" class="g2_65"/>
<path d="M820.5,425.5h15v15h-15v-15Zm0,-15h15v15h-15v-15Zm0,-15h15v15h-15v-15Zm0,-15h15v15h-15v-15Zm0,-15h15v15h-15v-15Zm0,-15h15v15h-15v-15Zm-15,75h15v15h-15v-15Zm0,-15h15v15h-15v-15Zm0,-15h15v15h-15v-15Zm0,-15h15v15h-15v-15Zm0,-15h15v15h-15v-15Zm0,-15h15v15h-15v-15Zm-15,75h15v15h-15v-15Zm0,-15h15v15h-15v-15Zm0,-15h15v15h-15v-15Zm0,-15h15v15h-15v-15Zm0,-15h15v15h-15v-15Zm0,-15h15v15h-15v-15Zm-15,75h15v15h-15v-15Zm0,-15h15v15h-15v-15Zm0,-15h15v15h-15v-15Zm0,-15h15v15h-15v-15Zm0,-15h15v15h-15v-15Zm0,-15h15v15h-15v-15Zm-15.1,75h15.1v15H760.4v-15Zm0,-15h15.1v15H760.4v-15Zm0,-15h15.1v15H760.4v-15Zm0,-15h15.1v15H760.4v-15Zm0,-15h15.1v15H760.4v-15Zm0,-15h15.1v15H760.4v-15Zm-15,75h15v15h-15v-15Zm0,-15h15v15h-15v-15Zm0,-15h15v15h-15v-15Zm0,-15h15v15h-15v-15Zm0,-15h15v15h-15v-15Zm0,-15h15v15h-15v-15Zm-15,75h15v15h-15v-15Zm0,-15h15v15h-15v-15Zm0,-15h15v15h-15v-15Zm0,-15h15v15h-15v-15Zm0,-15h15v15h-15v-15Zm0,-15h15v15h-15v-15Zm-15,75h15v15h-15v-15Zm0,-15h15v15h-15v-15Zm0,-15h15v15h-15v-15Zm0,-15h15v15h-15v-15Zm0,-15h15v15h-15v-15Zm0,-15h15v15h-15v-15Zm-15,75h15v15h-15v-15Zm0,-15h15v15h-15v-15Zm0,-15h15v15h-15v-15Zm0,-15h15v15h-15v-15Zm0,-15h15v15h-15v-15Zm0,-15h15v15h-15v-15Zm-15,75h15v15h-15v-15Zm0,-15h15v15h-15v-15Zm0,-15h15v15h-15v-15Zm0,-15h15v15h-15v-15Zm0,-15h15v15h-15v-15Zm0,-15h15v15h-15v-15Z" class="g1_65"/>
<path d="M716,426.3h90.1" class="g2_65"/>
<path fill-rule="evenodd" d="M811.2,431.7c.7,.1,1.2,.1,1.5,.1c.9,0,1.7,-.3,2.4,-.8c.7,-.5,1,-1.3,1,-2.2c0,-.7,-.2,-1.3,-.6,-1.7c-.4,-.4,-1.1,-.6,-2.1,-.6c-.2,0,-.4,.1,-.7,.1Zm1.7,-5.8c.4,0,.7,0,.9,0c1.1,0,2,-.2,2.6,-.7c.6,-.6,.9,-1.2,.9,-2c0,-.6,-.2,-1,-.5,-1.4c-.4,-.3,-1,-.5,-1.7,-.5c-.3,0,-.5,.1,-.8,.1Zm-1.7,-4.8l.1,-.3h4.2c.7,0,1.3,.1,1.9,.3c.5,.2,.9,.5,1.2,.9c.3,.4,.4,.8,.4,1.2c0,.7,-.2,1.3,-.7,1.9c-.5,.5,-1.3,.9,-2.4,1.2c.7,.2,1.2,.6,1.6,1c.3,.4,.5,.9,.5,1.4c0,.6,-.2,1.2,-.5,1.7c-.3,.5,-.7,1,-1.1,1.2c-.5,.3,-1.1,.6,-1.7,.7c-.5,.1,-1.2,.1,-2.2,.1h-4.3l.1,-.3c.4,0,.7,0,.9,-.1c.2,-.1,.4,-.2,.5,-.4c.1,-.2,.3,-.7,.5,-1.5l2.1,-7.1c.2,-.6,.3,-1,.3,-1.2c0,-.2,-.1,-.4,-.2,-.5c-.2,-.2,-.5,-.2,-.9,-.2c-.1,0,-.2,0,-.3,0Z" class="g3_65"/>
<path fill-rule="evenodd" d="M706.4,361.5l-2.5,8.7c-.2,.7,-.3,1.1,-.3,1.3c0,0,0,.1,.1,.2c.1,.1,.1,.2,.2,.2c.2,0,.4,.1,.8,.1c.9,0,1.7,-.1,2.5,-.3c.8,-.2,1.4,-.5,1.9,-.8c.7,-.6,1.2,-1.3,1.7,-2.2c.4,-1,.6,-2,.6,-3.2c0,-1.4,-.3,-2.4,-1,-3.1c-.6,-.6,-1.6,-.9,-2.8,-.9c-.3,0,-.7,0,-1.2,0m-3,-.3l.1,-.4h3.7c1.6,0,2.8,.2,3.5,.6c.8,.4,1.4,.9,1.8,1.7c.5,.8,.7,1.6,.7,2.5c0,.8,-.1,1.5,-.4,2.2c-.2,.8,-.5,1.3,-.9,1.8c-.3,.4,-.8,.9,-1.5,1.4c-.7,.5,-1.4,.9,-2.2,1.2c-.8,.2,-1.8,.3,-3,.3h-4.9l.1,-.3c.4,0,.7,0,.9,-.1c.2,-.1,.4,-.2,.5,-.4c.2,-.2,.3,-.7,.6,-1.5l2,-7c.2,-.6,.3,-1,.3,-1.3c0,-.3,-.1,-.4,-.3,-.6c-.1,-.1,-.4,-.1,-.8,-.1Z" class="g3_65"/>
<path fill-rule="evenodd" d="M820.7,362l-.9,3.8h-.3v-1c0,-.3,-.1,-.6,-.2,-.9c-.1,-.3,-.3,-.5,-.5,-.7c-.2,-.2,-.4,-.4,-.8,-.5c-.3,-.1,-.6,-.1,-1,-.1c-1,0,-1.9,.2,-2.7,.8c-1,.7,-1.8,1.7,-2.3,3c-.5,1.1,-.7,2.2,-.7,3.3c0,1.2,.3,2.1,1,2.7c.7,.7,1.5,1.1,2.6,1.1c.8,0,1.5,-.2,2.1,-.6c.6,-.3,1.2,-.9,1.7,-1.6h.4c-.6,1,-1.3,1.7,-2.1,2.2c-.7,.5,-1.7,.7,-2.7,.7c-1,0,-1.8,-.2,-2.6,-.6c-.7,-.4,-1.3,-1,-1.6,-1.7c-.4,-.7,-.6,-1.5,-.6,-2.3c0,-1.3,.3,-2.5,1,-3.7c.7,-1.2,1.6,-2.2,2.8,-2.9c1.2,-.7,2.4,-1,3.6,-1c.6,0,1.2,.1,1.9,.4c.3,.1,.6,.2,.7,.2c.1,0,.3,-.1,.4,-.1c.1,-.1,.2,-.2,.5,-.5Z" class="g3_65"/>
<path fill-rule="evenodd" d="M710.2,423.4l-3.4,4.6h2.9Zm1.7,-2.9l-.9,9.7c-.1,.5,-.1,.8,-.1,.9c0,.3,.1,.4,.1,.6c.2,.1,.3,.2,.5,.3c.2,.1,.5,.2,.9,.2l-.1,.3h-4.6l.1,-.3h.2c.4,0,.7,-.1,.9,-.3c.2,-.1,.3,-.3,.4,-.5c.1,-.2,.2,-.6,.2,-1.3l.1,-1.5h-3.3l-1.2,1.6c-.3,.4,-.4,.7,-.5,.8c-.1,.2,-.1,.3,-.1,.5c0,.1,.1,.3,.2,.4c.2,.2,.4,.2,.8,.3l-.1,.3h-3.5l.1,-.3c.4,-.1,.8,-.2,1.1,-.5c.4,-.2,.9,-.8,1.5,-1.7l7,-9.5Z" class="g3_65"/>
<path d="M805.4,381.9C795.1,380,789.5,374.4,788.6,365.1" class="g4_65"/>
<path fill-rule="evenodd" d="M799.3,372.7c-.5,0,-.9,-.3,-.9,-.8c0,-.5,.4,-.8,.8,-.9c.5,0,.8,.4,.9,.8c0,.5,-.4,.9,-.8,.9Z" class="g3_65"/>
<path d="M799.3,372.7c-.5,0,-.9,-.3,-.9,-.8c0,-.5,.4,-.8,.8,-.9c.5,0,.8,.4,.9,.8c0,.5,-.4,.9,-.8,.9Zm-83.5,53.6V366h89.5v60.3" class="g2_65"/>
<path d="M704.4,150.9h52.2V98.7H704.4v52.2Z" class="gb_65"/>
<path d="M73.6,211.6H835.8" class="g6_65"/>
</svg>