<?xml version="1.0" encoding="UTF-8" standalone="no"?>
<!DOCTYPE svg PUBLIC "-//W3C//DTD SVG 1.1//EN"
"http://www.w3.org/Graphics/SVG/1.1/DTD/svg11.dtd">
<svg viewBox="0 0 909 1147" version="1.1" xmlns="http://www.w3.org/2000/svg" xmlns:xlink="http://www.w3.org/1999/xlink">
<defs>
<style type="text/css"><![CDATA[
.g0_144{
fill: #DCE5C9;
}
.g1_144{
fill: none;
stroke: #000;
stroke-width: 0.763;
}
.g2_144{
fill: #FFF;
}
.g3_144{
fill: none;
stroke: #000;
stroke-width: 0.763;
stroke-linejoin: round;
}
.g4_144{
fill: #FFF;
stroke: #000;
stroke-width: 0.763;
stroke-linejoin: round;
}
.g5_144{
fill: none;
stroke: #000;
stroke-width: 0.763;
stroke-miterlimit: 2;
}
.g6_144{
fill: none;
stroke: #000;
stroke-width: 0.763;
stroke-miterlimit: 2;
stroke-dasharray: 4,3;
}
.g7_144{
fill: #000;
}
.g8_144{
fill: none;
stroke: #000;
stroke-width: 1.069;
stroke-miterlimit: 2;
}
.g9_144{
fill: none;
stroke: #939598;
stroke-width: 0.763;
stroke-miterlimit: 2;
}
.ga_144{
fill: #C7EAFB;
stroke: #000;
stroke-width: 0.763;
stroke-miterlimit: 2;
}
.gb_144{
fill: #D5DFBD;
}
]]></style>
</defs>
<path d="M0,1131H73.8v-51.5H0V1131Z" class="g0_144"/>
<path d="M275.2,228.1h11.4m118.3,0h11.4M253.4,265.9h21.2m42.7,0h21.1m44,0h21.1m43.3,0h21.1m-67.5,46.8h21.2m15.3,0h21.2m20.8,0H500M253.4,359.5h11.4m52.5,0h21.1m44,0h21.1m43.3,0h21.1M448.4,630.3h21.2m-6,113.6h11.3M598,939.5h11.4m22.3,0h11.4m21.7,0h11.4m16.7,0h11.4" class="g1_144"/>
<path fill-rule="evenodd" d="M763.1,333.3h28.3l-15.6,11.5H747.5Z" class="g2_144"/>
<path d="M763.1,333.3h28.3l-15.6,11.5H747.5l15.6,-11.5Z" class="g3_144"/>
<path fill-rule="evenodd" d="M791.9,333.3h28.3l-15.5,11.5H776.4Z" class="g2_144"/>
<path d="M791.9,333.3h28.3l-15.5,11.5H776.4l15.5,-11.5Z" class="g3_144"/>
<path fill-rule="evenodd" d="M791.4,333.3h28.4l-15.6,11.5H775.8Z" class="g2_144"/>
<path d="M791.4,333.3h28.4l-15.6,11.5H775.8l15.6,-11.5Z" class="g3_144"/>
<path fill-rule="evenodd" d="M775.8,345.1h28.3l-15.5,11.5H760.2Z" class="g2_144"/>
<path d="M775.8,345.1h28.3l-15.5,11.5H760.2l15.6,-11.5Z" class="g3_144"/>
<path fill-rule="evenodd" d="M804.7,345.1H833l-15.6,11.5H789Z" class="g2_144"/>
<path d="M804.7,345.1H833l-15.6,11.5H789l15.7,-11.5Z" class="g3_144"/>
<path fill-rule="evenodd" d="M760.4,356.7h28.4l-15.6,11.6H744.8Z" class="g2_144"/>
<path d="M760.4,356.7h28.4l-15.6,11.6H744.8l15.6,-11.6Z" class="g3_144"/>
<path fill-rule="evenodd" d="M789.3,356.7h28.3l-15.5,11.6H773.7Z" class="g2_144"/>
<path d="M789.3,356.7h28.3l-15.5,11.6H773.7l15.6,-11.6Z" class="g3_144"/>
<path fill-rule="evenodd" d="M760,328l15.5,-11.8v28.3L760,356.4Z" class="g2_144"/>
<path d="M760,328l15.5,-11.8v28.3L760,356.4V328Z" class="g3_144"/>
<path fill-rule="evenodd" d="M788.8,328l15.5,-11.8v28.3l-15.5,11.9Z" class="g2_144"/>
<path d="M788.8,328l15.5,-11.8v28.3l-15.5,11.9V328Z" class="g3_144"/>
<path fill-rule="evenodd" d="M744.6,339.6L760,327.8v28.3L744.6,368Z" class="g2_144"/>
<path d="M744.6,339.6L760,327.8v28.3L744.6,368V339.6Z" class="g3_144"/>
<path fill-rule="evenodd" d="M773.5,339.6l15.4,-11.8v28.3L773.5,368Z" class="g2_144"/>
<path d="M773.5,339.6l15.4,-11.8v28.3L773.5,368V339.6Z" class="g3_144"/>
<path fill-rule="evenodd" d="M775.6,316.2H804v28.3H775.6V316.2Z" class="g4_144"/>
<path fill-rule="evenodd" d="M804.5,316.2h28.3v28.3H804.5V316.2Z" class="g4_144"/>
<path fill-rule="evenodd" d="M760,328h28.4v28.4H760V328Z" class="g4_144"/>
<path fill-rule="evenodd" d="M788.8,328h28.4v28.4H788.8V328Z" class="g4_144"/>
<path fill-rule="evenodd" d="M788.4,328l15.4,-11.8v28.3l-15.4,11.9Z" class="g2_144"/>
<path d="M788.4,328l15.4,-11.8v28.3l-15.4,11.9V328Z" class="g3_144"/>
<path fill-rule="evenodd" d="M817.2,328l15.4,-11.8v28.3l-15.4,11.9Z" class="g2_144"/>
<path d="M817.2,328l15.4,-11.8v28.3l-15.4,11.9V328Z" class="g3_144"/>
<path fill-rule="evenodd" d="M775.5,316.1h28.4l-15.5,11.5H760Z" class="g2_144"/>
<path d="M775.5,316.1h28.4l-15.5,11.5H760l15.5,-11.5Z" class="g3_144"/>
<path fill-rule="evenodd" d="M804.4,316.1h28.4l-15.6,11.5H788.8Z" class="g2_144"/>
<path d="M804.4,316.1h28.4l-15.6,11.5H788.8l15.6,-11.5Z" class="g3_144"/>
<path fill-rule="evenodd" d="M744.6,339.6h28.3V368H744.6V339.6Z" class="g4_144"/>
<path fill-rule="evenodd" d="M773.5,339.6h28.3V368H773.5V339.6Z" class="g4_144"/>
<path fill-rule="evenodd" d="M801.8,339.6l15.5,-11.8v28.3L801.8,368Z" class="g2_144"/>
<path d="M801.8,339.6l15.5,-11.8v28.3L801.8,368V339.6Z" class="g3_144"/>
<path fill-rule="evenodd" d="M760.2,327.7h28.3l-15.6,11.5H744.6Z" class="g2_144"/>
<path d="M760.2,327.7h28.3l-15.6,11.5H744.6l15.6,-11.5Z" class="g3_144"/>
<path fill-rule="evenodd" d="M789,327.7h28.3l-15.5,11.5H773.5Z" class="g2_144"/>
<path d="M789,327.7h28.3l-15.5,11.5H773.5L789,327.7Z" class="g3_144"/>
<path d="M743.6,282.9l31.7,-23.7m25.6,23.7l31.7,-23.7m-31,80.3h-57v-57h57v57Z" class="g5_144"/>
<path d="M775.4,315.9v-57" class="g6_144"/>
<path d="M775.4,258.9h57v57" class="g5_144"/>
<path d="M691.2,761.5l-4.8,8.7v-8.7h-1v10.9h1.1l4.8,-8.6v8.6h1.1V761.5Z" class="g7_144"/>
<path d="M699.5,764.5l-1.8,6.4l-1.8,-6.4h-1.7v7.9h1.1v-6.6l1.8,6.6h1l1.9,-6.3v6.3h1.1v-7.9Z" class="g7_144"/>
<path d="M707.2,769.9l1.2,.2c-.2,.8,-.6,1.4,-1.1,1.9c-.4,.4,-1.1,.6,-1.8,.6c-.9,0,-1.7,-.3,-2.2,-1c-.6,-.7,-.9,-1.7,-.9,-3.1c0,-1.3,.3,-2.4,.9,-3.1c.6,-.7,1.3,-1.1,2.2,-1.1c.8,0,1.5,.4,2.1,1.1c.5,.7,.8,1.7,.8,3.1v.3h-4.8c0,.9,.2,1.6,.6,2c.3,.5,.8,.7,1.3,.7c.8,0,1.4,-.5,1.7,-1.6m-3.6,-2.2h3.6c0,-.7,-.1,-1.2,-.4,-1.5c-.3,-.5,-.8,-.8,-1.3,-.8c-.5,0,-1,.2,-1.3,.7c-.4,.4,-.5,.9,-.6,1.6Z" class="g7_144"/>
<path d="M709.8,764.5h1.1v3.3h3v-3.3H715v7.9h-1.1v-3.5h-3v3.5h-1.1Z" class="g7_144"/>
<path d="M720.9,771.5c-.4,.3,-.7,.6,-1.1,.8c-.4,.2,-.8,.3,-1.3,.3c-.7,0,-1.2,-.2,-1.6,-.6c-.4,-.4,-.6,-1,-.6,-1.6c0,-.5,.1,-.9,.3,-1.3c.2,-.3,.4,-.6,.8,-.8c.3,-.2,.8,-.3,1.5,-.4c.8,-.2,1.5,-.3,1.9,-.5v-.3c0,-.6,-.1,-1,-.3,-1.2c-.2,-.3,-.7,-.5,-1.2,-.5c-.5,0,-.9,.2,-1.2,.4c-.2,.2,-.4,.6,-.5,1.2l-1.1,-.2c.1,-.9,.5,-1.5,.9,-1.9c.5,-.4,1.2,-.6,2,-.6c.7,0,1.3,.2,1.6,.4c.4,.3,.7,.6,.8,1c.1,.3,.1,.9,.1,1.6v1.8c0,1.3,.1,2.1,.1,2.4c.1,.3,.1,.6,.3,.9h-1.2c-.1,-.2,-.2,-.6,-.2,-.9m-.1,-3c-.4,.2,-1,.3,-1.8,.5c-.4,.1,-.8,.1,-.9,.2c-.2,.1,-.4,.3,-.5,.5c-.1,.2,-.1,.4,-.1,.6c0,.4,.1,.7,.3,.9c.3,.3,.6,.4,1,.4c.4,0,.7,-.1,1.1,-.3c.3,-.2,.5,-.5,.7,-.9c.1,-.3,.2,-.8,.2,-1.4Z" class="g7_144"/>
<path d="M567.3,686.7v-5.8h1.3v4.7h3.3v-2.2c0,-.8,.1,-1.4,.3,-1.9c.2,-.4,.5,-.8,1,-1.1c.5,-.3,1.1,-.4,1.8,-.4c.7,0,1.2,.1,1.8,.4c.5,.2,.9,.6,1.1,1c.2,.4,.3,1,.3,1.8v3.5Zm9.7,-1.1v-2.4c0,-.6,-.2,-1.1,-.5,-1.4c-.3,-.4,-.7,-.5,-1.4,-.5c-.5,0,-.9,.1,-1.2,.2c-.3,.2,-.5,.5,-.6,.8c-.1,.3,-.1,.9,-.1,1.7v1.6Z" class="g7_144"/>
<path d="M581.2,678.7H570.3v-1h1c-.4,-.2,-.7,-.5,-.9,-.8c-.2,-.3,-.3,-.7,-.3,-1c0,-.6,.2,-1,.5,-1.4c.3,-.4,.7,-.8,1.3,-1c.7,-.3,1.4,-.4,2.3,-.4c1.3,0,2.4,.3,3.1,.8c.7,.6,1.1,1.3,1.1,2c0,.4,-.1,.7,-.3,1c-.2,.3,-.4,.5,-.7,.7h3.8Zm-6.9,-1c1,0,1.8,-.1,2.3,-.5c.4,-.3,.7,-.7,.7,-1.2c0,-.5,-.3,-.9,-.8,-1.3c-.5,-.3,-1.3,-.5,-2.3,-.5c-1,0,-1.8,.2,-2.3,.5c-.5,.4,-.7,.8,-.7,1.3c0,.4,.2,.8,.8,1.2c.5,.4,1.3,.5,2.3,.5Z" class="g7_144"/>
<path d="M574.2,672.2c-1.3,0,-2.4,-.3,-3.1,-.9c-.7,-.6,-1,-1.3,-1,-2.2c0,-.8,.3,-1.6,1,-2.1c.7,-.6,1.7,-.9,3.1,-.9c1.4,0,2.4,.3,3.1,.8c.7,.6,1.1,1.3,1.1,2.2c0,.9,-.4,1.6,-1.1,2.2c-.7,.6,-1.7,.9,-3.1,.9m0,-1.2c1.1,0,1.8,-.1,2.3,-.5c.5,-.4,.8,-.8,.8,-1.4c0,-.5,-.3,-1,-.8,-1.3c-.5,-.4,-1.2,-.6,-2.3,-.6c-1,0,-1.7,.2,-2.2,.6c-.5,.3,-.8,.8,-.8,1.4c0,.5,.3,.9,.8,1.3c.5,.4,1.2,.5,2.2,.5Z" class="g7_144"/>
<path d="M570.3,664.8v-1.1h6l-6,-3.1v-1.2h7.9v1.1h-6l6,3.1v1.2Zm-3,-3.7v-.8c.6,.1,1.1,.3,1.4,.6c.4,.3,.5,.8,.5,1.3c0,.4,-.1,.9,-.5,1.2c-.3,.3,-.8,.5,-1.4,.6v-.8c.7,-.1,1,-.5,1,-1c0,-.3,-.1,-.6,-.2,-.8c-.2,-.1,-.5,-.2,-.8,-.3Z" class="g7_144"/>
<path d="M570.3,654.9v-5.3h1.1v2.1h6.8v1.1h-6.8v2.1Z" class="g7_144"/>
<path d="M574.2,649c-1.3,0,-2.4,-.3,-3.1,-.8c-.7,-.6,-1,-1.3,-1,-2.2c0,-.9,.3,-1.6,1,-2.2c.7,-.6,1.7,-.9,3.1,-.9c1.4,0,2.4,.3,3.1,.9c.7,.6,1.1,1.3,1.1,2.2c0,.8,-.4,1.6,-1.1,2.2c-.7,.5,-1.7,.8,-3.1,.8m0,-1.1c1.1,0,1.8,-.2,2.3,-.6c.5,-.3,.8,-.8,.8,-1.4c0,-.5,-.3,-.9,-.8,-1.3c-.5,-.4,-1.2,-.5,-2.3,-.5c-1,0,-1.7,.1,-2.2,.5c-.5,.4,-.8,.9,-.8,1.4c0,.5,.3,1,.8,1.3c.5,.4,1.2,.6,2.2,.6Z" class="g7_144"/>
<path d="M570.3,642v-1.1h1.5c.6,0,1.1,0,1.4,-.1c.3,0,.6,-.2,.8,-.4c.2,-.3,.3,-.6,.3,-.9c0,-.4,-.2,-1,-.4,-1.6h-3.6v-1.1h7.9v1.1H575c.3,.6,.4,1.3,.4,1.9c0,.6,-.3,1.1,-.8,1.6c-.5,.4,-1.2,.6,-2.2,.6Z" class="g7_144"/>
<path d="M570.3,635.1V634h3.4c0,-.3,-.1,-.6,-.2,-.7c-.2,-.2,-.7,-.4,-1.5,-.7c-.6,-.2,-1,-.3,-1.2,-.5c-.2,-.1,-.4,-.3,-.4,-.4c-.1,-.2,-.1,-.5,-.1,-.9v-.2h1.1v.3c0,.3,0,.4,.1,.5c.1,.1,.3,.2,.5,.3c.8,.2,1.3,.4,1.5,.6c.3,.1,.5,.3,.6,.6c.2,-.4,.7,-.9,1.6,-1.3l2.5,-1.3v1.3l-2.5,1.1c-.4,.3,-.8,.5,-.9,.7c-.2,.1,-.3,.4,-.3,.6h3.7v1.1Z" class="g7_144"/>
<path d="M570.3,629.6v-1.1h6l-6,-3v-1.2h7.9v1.1h-6l6,3v1.2Z" class="g7_144"/>
<path d="M617.6,566.4V756.3M611,751.6H804.4" class="g8_144"/>
<path d="M611,734.3H804.5M611,717H804.5M611,699.7H804.5M611,682.3H804.5M611,665H804.5M611,647.7H804.5M611,630.4H804.5M611,613H804.5M611,595.7H804.5M611,578.4H804.5" class="g9_144"/>
<path d="M597.3,751.6c0,-1.3,.1,-2.3,.4,-3.1c.2,-.8,.6,-1.4,1.2,-1.8c.5,-.4,1.2,-.7,1.9,-.7c.6,0,1.1,.2,1.6,.4c.4,.2,.8,.6,1.1,1c.3,.5,.5,1,.7,1.7c.1,.6,.2,1.5,.2,2.5c0,1.3,-.1,2.4,-.4,3.1c-.2,.8,-.6,1.4,-1.2,1.9c-.5,.4,-1.2,.6,-2,.6c-1,0,-1.8,-.4,-2.4,-1.1c-.8,-.9,-1.1,-2.4,-1.1,-4.5m1.4,0c0,1.8,.2,3,.6,3.6c.4,.6,.9,.9,1.5,.9c.7,0,1.2,-.3,1.6,-.9c.4,-.6,.6,-1.8,.6,-3.6c0,-1.8,-.2,-3,-.6,-3.6c-.4,-.5,-.9,-.8,-1.6,-.8c-.6,0,-1.1,.2,-1.4,.7c-.5,.7,-.7,1.9,-.7,3.7Z" class="g7_144"/>
<path d="M593.8,739.7h-1.3v-8.5c-.3,.3,-.7,.6,-1.3,.9c-.5,.3,-1,.5,-1.4,.7v-1.3c.8,-.4,1.4,-.8,2,-1.3c.5,-.5,.9,-1,1.2,-1.5h.8Z" class="g7_144"/>
<path d="M597.3,734.3c0,-1.3,.1,-2.3,.4,-3.1c.2,-.8,.6,-1.4,1.2,-1.8c.5,-.5,1.2,-.7,1.9,-.7c.6,0,1.1,.1,1.6,.4c.4,.2,.8,.6,1.1,1c.3,.4,.5,1,.7,1.6c.1,.7,.2,1.5,.2,2.6c0,1.3,-.1,2.3,-.4,3.1c-.2,.8,-.6,1.4,-1.2,1.8c-.5,.5,-1.2,.7,-2,.7c-1,0,-1.8,-.4,-2.4,-1.1c-.8,-.9,-1.1,-2.4,-1.1,-4.5m1.4,0c0,1.8,.2,3,.6,3.6c.4,.6,.9,.9,1.5,.9c.7,0,1.2,-.3,1.6,-.9c.4,-.6,.6,-1.8,.6,-3.6c0,-1.8,-.2,-3,-.6,-3.6c-.4,-.6,-.9,-.9,-1.6,-.9c-.6,0,-1.1,.3,-1.4,.8c-.5,.7,-.7,1.9,-.7,3.7Z" class="g7_144"/>
<path d="M595.8,721.1v1.3h-7.2c0,-.3,.1,-.6,.2,-.9c.2,-.5,.4,-1,.9,-1.5c.4,-.5,.9,-1,1.7,-1.7c1.2,-.9,2,-1.7,2.4,-2.3c.4,-.5,.6,-1.1,.6,-1.6c0,-.5,-.1,-1,-.5,-1.3c-.4,-.4,-.9,-.6,-1.5,-.6c-.7,0,-1.2,.2,-1.6,.6c-.4,.4,-.5,.9,-.6,1.6l-1.3,-.1c.1,-1.1,.4,-1.8,1,-2.4c.6,-.5,1.5,-.8,2.5,-.8c1.1,0,1.9,.3,2.5,.9c.6,.6,.9,1.3,.9,2.1c0,.5,-.1,.9,-.2,1.3c-.2,.5,-.5,.9,-.9,1.4c-.4,.4,-1.1,1.1,-2.1,1.9c-.8,.7,-1.3,1.1,-1.6,1.4c-.2,.2,-.4,.4,-.5,.7Z" class="g7_144"/>
<path d="M597.3,717c0,-1.3,.1,-2.3,.4,-3.1c.2,-.8,.6,-1.4,1.2,-1.9c.5,-.4,1.2,-.6,1.9,-.6c.6,0,1.1,.1,1.6,.4c.4,.2,.8,.5,1.1,1c.3,.4,.5,1,.7,1.6c.1,.6,.2,1.5,.2,2.6c0,1.3,-.1,2.3,-.4,3.1c-.2,.8,-.6,1.4,-1.2,1.8c-.5,.5,-1.2,.7,-2,.7c-1,0,-1.8,-.4,-2.4,-1.2c-.8,-.9,-1.1,-2.4,-1.1,-4.4m1.4,0c0,1.8,.2,3,.6,3.6c.4,.6,.9,.9,1.5,.9c.7,0,1.2,-.3,1.6,-.9c.4,-.6,.6,-1.8,.6,-3.6c0,-1.8,-.2,-3,-.6,-3.6c-.4,-.6,-.9,-.9,-1.6,-.9c-.6,0,-1.1,.3,-1.4,.8c-.5,.7,-.7,1.9,-.7,3.7Z" class="g7_144"/>
<path d="M588.8,702.2l1.3,-.2c.2,.8,.5,1.3,.8,1.6c.4,.4,.8,.5,1.4,.5c.6,0,1.1,-.2,1.6,-.6c.4,-.5,.6,-1,.6,-1.6c0,-.7,-.2,-1.2,-.6,-1.6c-.4,-.4,-.9,-.6,-1.5,-.6c-.3,0,-.6,.1,-1,.2l.2,-1.2c.1,0,.2,0,.2,0c.6,0,1.1,-.1,1.6,-.4c.4,-.3,.6,-.8,.6,-1.4c0,-.5,-.1,-.9,-.5,-1.2c-.3,-.4,-.7,-.5,-1.3,-.5c-.5,0,-.9,.2,-1.3,.5c-.3,.3,-.5,.8,-.6,1.5l-1.4,-.3c.2,-.9,.6,-1.6,1.1,-2.1c.6,-.5,1.4,-.7,2.2,-.7c.6,0,1.2,.1,1.7,.4c.5,.2,.9,.6,1.1,1c.3,.5,.4,.9,.4,1.4c0,.5,-.1,.9,-.4,1.3c-.2,.4,-.6,.7,-1.1,.9c.7,.2,1.2,.5,1.5,1c.4,.4,.6,1,.6,1.7c0,1,-.4,1.8,-1.1,2.5c-.7,.6,-1.6,1,-2.6,1c-1,0,-1.8,-.3,-2.4,-.9c-.7,-.6,-1,-1.3,-1.1,-2.2Z" class="g7_144"/>
<path d="M597.3,699.7c0,-1.3,.1,-2.4,.4,-3.2c.2,-.7,.6,-1.4,1.2,-1.8c.5,-.4,1.2,-.6,1.9,-.6c.6,0,1.1,.1,1.6,.3c.4,.3,.8,.6,1.1,1.1c.3,.4,.5,.9,.7,1.6c.1,.6,.2,1.5,.2,2.6c0,1.3,-.1,2.3,-.4,3.1c-.2,.8,-.6,1.4,-1.2,1.8c-.5,.4,-1.2,.6,-2,.6c-1,0,-1.8,-.3,-2.4,-1.1c-.8,-.9,-1.1,-2.4,-1.1,-4.4m1.4,0c0,1.8,.2,3,.6,3.6c.4,.5,.9,.8,1.5,.8c.7,0,1.2,-.3,1.6,-.9c.4,-.5,.6,-1.7,.6,-3.5c0,-1.8,-.2,-3,-.6,-3.6c-.4,-.6,-.9,-.9,-1.6,-.9c-.6,0,-1.1,.3,-1.4,.8c-.5,.6,-.7,1.9,-.7,3.7Z" class="g7_144"/>
<path d="M593.1,687.7v-2.6h-4.8v-1.2l5,-7.1h1.1v7.1h1.5v1.2h-1.5v2.6Zm0,-3.8V679l-3.4,4.9Z" class="g7_144"/>
<path d="M597.3,682.3c0,-1.2,.1,-2.3,.4,-3.1c.2,-.8,.6,-1.4,1.2,-1.8c.5,-.4,1.2,-.6,1.9,-.6c.6,0,1.1,.1,1.6,.3c.4,.2,.8,.6,1.1,1c.3,.5,.5,1,.7,1.7c.1,.6,.2,1.5,.2,2.5c0,1.3,-.1,2.4,-.4,3.2c-.2,.7,-.6,1.3,-1.2,1.8c-.5,.4,-1.2,.6,-2,.6c-1,0,-1.8,-.4,-2.4,-1.1c-.8,-.9,-1.1,-2.4,-1.1,-4.5m1.4,0c0,1.8,.2,3,.6,3.6c.4,.6,.9,.9,1.5,.9c.7,0,1.2,-.3,1.6,-.9c.4,-.6,.6,-1.8,.6,-3.6c0,-1.8,-.2,-3,-.6,-3.5c-.4,-.6,-.9,-.9,-1.6,-.9c-.6,0,-1.1,.2,-1.4,.8c-.5,.6,-.7,1.9,-.7,3.6Z" class="g7_144"/>
<path d="M588.8,667.6l1.4,-.2c.1,.7,.3,1.2,.7,1.6c.4,.3,.9,.5,1.4,.5c.6,0,1.2,-.2,1.6,-.7c.5,-.5,.7,-1.2,.7,-2c0,-.7,-.2,-1.3,-.6,-1.8c-.5,-.4,-1,-.6,-1.7,-.6c-.5,0,-.8,0,-1.2,.2c-.3,.2,-.6,.5,-.8,.8l-1.3,-.2l1.1,-5.6h5.4v1.3h-4.3l-.6,3c.6,-.5,1.3,-.7,2,-.7c1,0,1.8,.3,2.5,1c.6,.6,.9,1.5,.9,2.5c0,1,-.3,1.9,-.8,2.6c-.7,.9,-1.7,1.3,-2.9,1.3c-1,0,-1.8,-.3,-2.4,-.8c-.7,-.6,-1,-1.3,-1.1,-2.2Z" class="g7_144"/>
<path d="M597.3,665c0,-1.3,.1,-2.3,.4,-3.1c.2,-.8,.6,-1.4,1.2,-1.8c.5,-.5,1.2,-.7,1.9,-.7c.6,0,1.1,.2,1.6,.4c.4,.2,.8,.6,1.1,1c.3,.5,.5,1,.7,1.6c.1,.7,.2,1.5,.2,2.6c0,1.3,-.1,2.3,-.4,3.1c-.2,.8,-.6,1.4,-1.2,1.9c-.5,.4,-1.2,.6,-2,.6c-1,0,-1.8,-.4,-2.4,-1.1c-.8,-.9,-1.1,-2.4,-1.1,-4.5m1.4,0c0,1.8,.2,3,.6,3.6c.4,.6,.9,.9,1.5,.9c.7,0,1.2,-.3,1.6,-.9c.4,-.6,.6,-1.8,.6,-3.6c0,-1.8,-.2,-3,-.6,-3.6c-.4,-.6,-.9,-.9,-1.6,-.9c-.6,0,-1.1,.3,-1.4,.8c-.5,.7,-.7,1.9,-.7,3.7Z" class="g7_144"/>
<path d="M595.8,644.8l-1.4,.1c-.1,-.5,-.3,-.9,-.5,-1.1c-.4,-.4,-.8,-.6,-1.3,-.6c-.5,0,-.8,.1,-1.2,.4c-.4,.3,-.7,.7,-1,1.3c-.2,.6,-.3,1.5,-.3,2.6c.3,-.5,.7,-.9,1.1,-1.1c.5,-.3,1,-.4,1.5,-.4c.9,0,1.7,.3,2.3,1c.6,.6,.9,1.5,.9,2.5c0,.7,-.1,1.4,-.4,2c-.3,.5,-.7,1,-1.2,1.3c-.5,.3,-1.1,.5,-1.8,.5c-1.1,0,-2,-.4,-2.7,-1.3c-.7,-.8,-1.1,-2.1,-1.1,-4c0,-2.1,.4,-3.7,1.2,-4.6c.7,-.9,1.6,-1.3,2.8,-1.3c.8,0,1.5,.3,2.1,.7c.5,.5,.8,1.2,1,2m-5.5,4.7c0,.5,.1,1,.3,1.4c.2,.4,.4,.7,.8,.9c.3,.3,.7,.4,1.1,.4c.6,0,1.1,-.3,1.5,-.7c.4,-.5,.6,-1.1,.6,-1.9c0,-.7,-.2,-1.3,-.6,-1.8c-.4,-.4,-.9,-.6,-1.6,-.6c-.6,0,-1.1,.2,-1.5,.6c-.4,.5,-.6,1,-.6,1.7Z" class="g7_144"/>
<path d="M597.3,647.7c0,-1.3,.1,-2.3,.4,-3.1c.2,-.8,.6,-1.4,1.2,-1.8c.5,-.5,1.2,-.7,1.9,-.7c.6,0,1.1,.1,1.6,.4c.4,.2,.8,.5,1.1,1c.3,.4,.5,1,.7,1.6c.1,.7,.2,1.5,.2,2.6c0,1.3,-.1,2.3,-.4,3.1c-.2,.8,-.6,1.4,-1.2,1.8c-.5,.5,-1.2,.7,-2,.7c-1,0,-1.8,-.4,-2.4,-1.2c-.8,-.9,-1.1,-2.3,-1.1,-4.4m1.4,0c0,1.8,.2,3,.6,3.6c.4,.6,.9,.9,1.5,.9c.7,0,1.2,-.3,1.6,-.9c.4,-.6,.6,-1.8,.6,-3.6c0,-1.8,-.2,-3,-.6,-3.6c-.4,-.6,-.9,-.9,-1.6,-.9c-.6,0,-1.1,.3,-1.4,.8c-.5,.7,-.7,1.9,-.7,3.7Z" class="g7_144"/>
<path d="M588.9,626.3V625H596v1c-.7,.8,-1.4,1.7,-2.1,3c-.7,1.2,-1.2,2.5,-1.6,3.8c-.3,.9,-.4,1.9,-.5,3h-1.4c0,-.9,.2,-1.9,.5,-3.1c.3,-1.3,.8,-2.4,1.4,-3.6c.6,-1.1,1.2,-2.1,1.9,-2.8Z" class="g7_144"/>
<path d="M597.3,630.4c0,-1.3,.1,-2.4,.4,-3.1c.2,-.8,.6,-1.4,1.2,-1.9c.5,-.4,1.2,-.6,1.9,-.6c.6,0,1.1,.1,1.6,.3c.4,.3,.8,.6,1.1,1.1c.3,.4,.5,1,.7,1.6c.1,.6,.2,1.5,.2,2.6c0,1.3,-.1,2.3,-.4,3.1c-.2,.8,-.6,1.4,-1.2,1.8c-.5,.4,-1.2,.7,-2,.7c-1,0,-1.8,-.4,-2.4,-1.2c-.8,-.9,-1.1,-2.4,-1.1,-4.4m1.4,0c0,1.8,.2,3,.6,3.6c.4,.6,.9,.9,1.5,.9c.7,0,1.2,-.3,1.6,-.9c.4,-.6,.6,-1.8,.6,-3.6c0,-1.8,-.2,-3,-.6,-3.6c-.4,-.6,-.9,-.9,-1.6,-.9c-.6,0,-1.1,.3,-1.4,.8c-.5,.6,-.7,1.9,-.7,3.7Z" class="g7_144"/>
<path d="M590.9,612.5c-.6,-.2,-1,-.5,-1.3,-.9c-.3,-.3,-.4,-.8,-.4,-1.3c0,-.8,.3,-1.5,.9,-2c.5,-.6,1.3,-.8,2.3,-.8c.9,0,1.7,.2,2.3,.8c.5,.6,.8,1.2,.8,2c0,.5,-.1,1,-.4,1.3c-.2,.4,-.6,.7,-1.2,.9c.7,.2,1.2,.6,1.6,1.1c.3,.5,.5,1,.5,1.7c0,1,-.4,1.7,-1,2.4c-.7,.6,-1.5,.9,-2.6,.9c-1.1,0,-2,-.3,-2.6,-.9c-.7,-.7,-1,-1.5,-1,-2.4c0,-.7,.2,-1.3,.5,-1.8c.4,-.5,.9,-.8,1.6,-1m-.3,-2.3c0,.6,.2,1,.5,1.3c.3,.3,.7,.5,1.3,.5c.5,0,.9,-.2,1.3,-.5c.3,-.3,.4,-.7,.4,-1.2c0,-.5,-.1,-.9,-.5,-1.2c-.3,-.4,-.7,-.5,-1.2,-.5c-.5,0,-1,.1,-1.3,.5c-.3,.3,-.5,.7,-.5,1.1m-.4,5.1c0,.4,0,.7,.2,1.1c.2,.4,.5,.6,.8,.8c.4,.2,.8,.3,1.2,.3c.6,0,1.2,-.2,1.6,-.6c.4,-.4,.6,-.9,.6,-1.6c0,-.6,-.2,-1.1,-.6,-1.6c-.5,-.4,-1,-.6,-1.7,-.6c-.6,0,-1.1,.2,-1.5,.6c-.4,.4,-.6,1,-.6,1.6Z" class="g7_144"/>
<path d="M597.3,613.1c0,-1.3,.1,-2.4,.4,-3.2c.2,-.8,.6,-1.4,1.2,-1.8c.5,-.4,1.2,-.6,1.9,-.6c.6,0,1.1,.1,1.6,.3c.4,.3,.8,.6,1.1,1c.3,.5,.5,1,.7,1.7c.1,.6,.2,1.5,.2,2.6c0,1.2,-.1,2.3,-.4,3.1c-.2,.7,-.6,1.4,-1.2,1.8c-.5,.4,-1.2,.6,-2,.6c-1,0,-1.8,-.3,-2.4,-1.1c-.8,-.9,-1.1,-2.4,-1.1,-4.4m1.4,0c0,1.7,.2,2.9,.6,3.5c.4,.6,.9,.9,1.5,.9c.7,0,1.2,-.3,1.6,-.9c.4,-.6,.6,-1.8,.6,-3.5c0,-1.8,-.2,-3,-.6,-3.6c-.4,-.6,-.9,-.9,-1.6,-.9c-.6,0,-1.1,.2,-1.4,.8c-.5,.6,-.7,1.9,-.7,3.7Z" class="g7_144"/>
<path d="M589,598.6l1.3,-.1c.1,.6,.3,1,.6,1.3c.3,.3,.7,.4,1.2,.4c.4,0,.8,-.1,1.1,-.3c.3,-.2,.5,-.4,.7,-.7c.2,-.3,.4,-.8,.5,-1.3c.2,-.5,.2,-1.1,.2,-1.7c0,0,0,-.1,0,-.2c-.2,.4,-.6,.8,-1.1,1c-.4,.3,-.9,.4,-1.5,.4c-.9,0,-1.6,-.3,-2.3,-1c-.6,-.6,-.9,-1.5,-.9,-2.6c0,-1.1,.3,-2,1,-2.6c.6,-.7,1.4,-1.1,2.4,-1.1c.7,0,1.4,.2,2,.6c.6,.4,1,.9,1.3,1.7c.3,.7,.5,1.7,.5,3c0,1.4,-.2,2.5,-.5,3.4c-.3,.8,-.7,1.4,-1.3,1.9c-.6,.4,-1.3,.6,-2.1,.6c-.9,0,-1.6,-.2,-2.1,-.7c-.6,-.5,-.9,-1.1,-1,-2m5.5,-4.8c0,-.8,-.2,-1.4,-.6,-1.9c-.4,-.4,-.9,-.6,-1.5,-.6c-.6,0,-1.1,.2,-1.6,.7c-.4,.5,-.6,1.1,-.6,1.9c0,.7,.2,1.2,.6,1.7c.4,.4,.9,.6,1.6,.6c.6,0,1.1,-.2,1.5,-.6c.4,-.5,.6,-1.1,.6,-1.8Z" class="g7_144"/>
<path d="M597.3,595.7c0,-1.3,.1,-2.3,.4,-3.1c.2,-.8,.6,-1.4,1.2,-1.8c.5,-.4,1.2,-.7,1.9,-.7c.6,0,1.1,.2,1.6,.4c.4,.2,.8,.6,1.1,1c.3,.5,.5,1,.7,1.6c.1,.7,.2,1.5,.2,2.6c0,1.3,-.1,2.3,-.4,3.1c-.2,.8,-.6,1.4,-1.2,1.9c-.5,.4,-1.2,.6,-2,.6c-1,0,-1.8,-.4,-2.4,-1.1c-.8,-.9,-1.1,-2.4,-1.1,-4.5m1.4,0c0,1.8,.2,3,.6,3.6c.4,.6,.9,.9,1.5,.9c.7,0,1.2,-.3,1.6,-.9c.4,-.6,.6,-1.8,.6,-3.6c0,-1.8,-.2,-3,-.6,-3.6c-.4,-.6,-.9,-.8,-1.6,-.8c-.6,0,-1.1,.2,-1.4,.7c-.5,.7,-.7,1.9,-.7,3.7Z" class="g7_144"/>
<path d="M585.3,583.8H584v-8.6c-.3,.4,-.7,.7,-1.3,1c-.5,.3,-1,.5,-1.4,.7v-1.3c.8,-.4,1.4,-.8,2,-1.3c.5,-.5,.9,-1,1.2,-1.5h.8Z" class="g7_144"/>
<path d="M597.3,578.4c0,-1.3,.1,-2.3,.4,-3.1c.2,-.8,.6,-1.4,1.2,-1.8c.5,-.5,1.2,-.7,1.9,-.7c.6,0,1.1,.1,1.6,.4c.4,.2,.8,.6,1.1,1c.3,.4,.5,1,.7,1.6c.1,.7,.2,1.5,.2,2.6c0,1.3,-.1,2.3,-.4,3.1c-.2,.8,-.6,1.4,-1.2,1.8c-.5,.5,-1.2,.7,-2,.7c-1,0,-1.8,-.4,-2.4,-1.1c-.8,-1,-1.1,-2.4,-1.1,-4.5m1.4,0c0,1.8,.2,3,.6,3.6c.4,.6,.9,.9,1.5,.9c.7,0,1.2,-.3,1.6,-.9c.4,-.6,.6,-1.8,.6,-3.6c0,-1.8,-.2,-3,-.6,-3.6c-.4,-.6,-.9,-.9,-1.6,-.9c-.6,0,-1.1,.3,-1.4,.8c-.5,.7,-.7,1.9,-.7,3.7Z" class="g7_144"/>
<path d="M588.8,578.4c0,-1.3,.1,-2.3,.4,-3.1c.3,-.8,.6,-1.4,1.2,-1.8c.5,-.5,1.2,-.7,2,-.7c.5,0,1.1,.1,1.5,.4c.4,.2,.8,.6,1.1,1c.3,.4,.5,1,.7,1.6c.1,.7,.2,1.5,.2,2.6c0,1.3,-.1,2.3,-.4,3.1c-.2,.8,-.6,1.4,-1.2,1.8c-.5,.5,-1.1,.7,-1.9,.7c-1.1,0,-1.9,-.4,-2.5,-1.1c-.8,-1,-1.1,-2.4,-1.1,-4.5m1.4,0c0,1.8,.2,3,.6,3.6c.4,.6,.9,.9,1.6,.9c.6,0,1.1,-.3,1.5,-.9c.4,-.6,.6,-1.8,.6,-3.6c0,-1.8,-.2,-3,-.6,-3.6c-.4,-.6,-.9,-.9,-1.6,-.9c-.6,0,-1.1,.3,-1.4,.8c-.5,.7,-.7,1.9,-.7,3.7Z" class="g7_144"/>
<path fill-rule="evenodd" d="M630.5,647.5h17.3V751H630.5V647.5Z" class="ga_144"/>
<path fill-rule="evenodd" d="M673.8,613.2h17.3V751H673.8V613.2Z" class="ga_144"/>
<path fill-rule="evenodd" d="M717.1,664.6h17.3V751H717.1V664.6Z" class="ga_144"/>
<path fill-rule="evenodd" d="M760.4,596.1h17.3V751H760.4V596.1Z" class="ga_144"/>
<path d="M0,138.7H120.2V0H0V138.7Z" class="gb_144"/>
</svg>