<?xml version="1.0" encoding="UTF-8" standalone="no"?>
<!DOCTYPE svg PUBLIC "-//W3C//DTD SVG 1.1//EN"
"http://www.w3.org/Graphics/SVG/1.1/DTD/svg11.dtd">
<svg viewBox="0 0 909 1147" version="1.1" xmlns="http://www.w3.org/2000/svg" xmlns:xlink="http://www.w3.org/1999/xlink">
<defs>
<clipPath id="c0_29"><path d="M139.3,445.8v-18h30.2v18Z"/></clipPath>
<style type="text/css"><![CDATA[
.g0_29{
fill: #FAAF82;
}
.g1_29{
fill: none;
stroke: #000;
stroke-width: 0.763;
}
.g2_29{
fill: none;
stroke: #0EA5DF;
stroke-width: 3.055;
}
.g3_29{
fill: #FFF1E0;
}
.g4_29{
fill: #E8F1FA;
}
.g5_29{
fill: #0EA5DF;
}
.g6_29{
fill: #FFF;
}
.g7_29{
fill: #D6E4F5;
}
.g8_29{
fill: none;
stroke: #0EA5DF;
stroke-width: 0.763;
stroke-miterlimit: 2;
}
]]></style>
</defs>
<path d="M835.8,1129.8h73.6v-51.5H835.8v51.5Z" class="g0_29"/>
<path d="M204.8,208.6h17.3m318.5,0h11.9M214.4,135.4h53.8m115.8,0h53.8m111.2,0h53.8m117.2,0h53.8" class="g1_29"/>
<path d="M73.6,66.5H835.8M73.6,168.3H835.8" class="g2_29"/>
<path d="M186.3,581.1h648V417.7h-648V581.1Z" class="g3_29"/>
<path d="M73.6,594.8H835.8" class="g2_29"/>
<path d="M539.4,873.2H568m141,0h28.6" class="g1_29"/>
<path d="M184.7,1077.3H835.9v-181H184.7v181Z" class="g4_29"/>
<path d="M73.6,898.6H836.9" class="g2_29"/>
<path d="M247.6,950.4h28.6m10.9,0h28.7m10.9,0h28.6m10.9,0h28.6m-146,37.9h17.3m15.1,0h17.3m15,0h17.4m15,0h17.3m-115.1,37.8h28.6m10.9,0h28.7m10.9,0h11.9M655.2,946.8h11.9m44.5,0h11.9m-87,105.3h12m44.5,0h11.9m44.5,0h11.9" class="g1_29"/>
<path d="M134.3,455.1H174V417.7H134.3v37.4Z" class="g5_29"/>
<path clip-path="url(#c0_29)" d="M154.6,440.2c-2.1,.2,-3.8,-1.5,-3.7,-3.6c.1,-1.7,1.5,-3.1,3.2,-3.2c2.1,-.1,3.8,1.6,3.7,3.6c-.1,1.7,-1.5,3.1,-3.2,3.2m.2,2.9c-3.9,.3,-7,-2.9,-6.8,-6.7c.2,-3.2,2.8,-5.7,5.9,-5.9c3.9,-.3,7,2.9,6.8,6.7c-.2,3.2,-2.8,5.7,-5.9,5.9m-.4,-15.3c-5.8,0,-11,3.2,-14.9,8.3c-.3,.4,-.3,1,0,1.4c3.9,5.2,9.1,8.3,14.9,8.3c5.7,0,11,-3.1,14.8,-8.3c.3,-.4,.3,-1,0,-1.4c-3.8,-5.1,-9.1,-8.3,-14.8,-8.3Z" class="g6_29"/>
<path d="M297.1,264h17.3m20.5,0h45.5m21,0H430M297.1,341.2h17.3m26.7,0h17.3M632.1,264H644m21,0h56.5m21.8,0h56.6M648.1,300.3h28.6m-30.8,21.3H679m20.1,0h28.6m-95.6,46.5H644m27.1,0H683m83.6,0h28.6" class="g1_29"/>
<path fill-rule="evenodd" d="M246.5,634.6c24,0,43.4,19.4,43.4,43.3c0,23.9,-19.4,43.3,-43.4,43.3c-23.9,0,-43.3,-19.4,-43.3,-43.3c0,-23.9,19.4,-43.3,43.3,-43.3Z" class="g7_29"/>
<path d="M246.5,634.6c24,0,43.4,19.4,43.4,43.3c0,23.9,-19.4,43.3,-43.4,43.3c-23.9,0,-43.3,-19.4,-43.3,-43.3c0,-23.9,19.4,-43.3,43.3,-43.3Z" class="g8_29"/>
<path fill-rule="evenodd" d="M246.5,677.9H203.2c0,-23.9,19.4,-43.3,43.3,-43.3c24,0,43.4,19.4,43.4,43.3Z" class="g6_29"/>
<path d="M246.5,677.9H203.2c0,-23.9,19.4,-43.3,43.3,-43.3c24,0,43.4,19.4,43.4,43.3H246.5Z" class="g8_29"/>
<path fill-rule="evenodd" d="M416.7,677.9v43.3c-23.9,0,-43.3,-19.4,-43.3,-43.3c0,-23.9,19.4,-43.3,43.3,-43.3Z" class="g7_29"/>
<path d="M416.7,677.9v43.3c-23.9,0,-43.3,-19.4,-43.3,-43.3c0,-23.9,19.4,-43.3,43.3,-43.3v43.3Z" class="g8_29"/>
<path fill-rule="evenodd" d="M416.7,677.9H373.4c0,-23.9,19.4,-43.3,43.3,-43.3c24,0,43.4,19.4,43.4,43.3Z" class="g6_29"/>
<path d="M416.7,677.9H373.4c0,-23.9,19.4,-43.3,43.3,-43.3c24,0,43.4,19.4,43.4,43.3H416.7Zm0,0v43.3c24,0,43.4,-19.4,43.4,-43.3c0,-23.9,-19.4,-43.3,-43.4,-43.3v43.3Z" class="g8_29"/>
<path fill-rule="evenodd" d="M593.9,677.9l30.6,30.6c-8.1,8.2,-19.2,12.7,-30.6,12.7c-24,0,-43.4,-19.4,-43.4,-43.3Z" class="g7_29"/>
<path d="M593.9,677.9l30.6,30.6c-8.1,8.2,-19.2,12.7,-30.6,12.7c-24,0,-43.4,-19.4,-43.4,-43.3h43.4Zm0,-43.3c23.9,0,43.3,19.4,43.3,43.3c0,23.9,-19.4,43.3,-43.3,43.3c-24,0,-43.4,-19.4,-43.4,-43.3c0,-23.9,19.4,-43.3,43.4,-43.3Zm-43.4,43.3h86.7m-74,30.6l61.3,-61.2m-30.6,73.9V634.6m30.6,73.9L563.2,647.3" class="g8_29"/>
<path fill-rule="evenodd" d="M751.2,677.9l30.6,-30.6c8.2,8.1,12.7,19.1,12.7,30.6c0,23.9,-19.4,43.3,-43.3,43.3c-23.9,0,-43.3,-19.4,-43.3,-43.3Z" class="g7_29"/>
<path d="M751.2,677.9l30.6,-30.6c8.2,8.1,12.7,19.1,12.7,30.6c0,23.9,-19.4,43.3,-43.3,43.3c-23.9,0,-43.3,-19.4,-43.3,-43.3h43.3Zm0,-43.3c23.9,0,43.3,19.4,43.3,43.3c0,23.9,-19.4,43.3,-43.3,43.3c-23.9,0,-43.3,-19.4,-43.3,-43.3c0,-23.9,19.4,-43.3,43.3,-43.3Zm-43.3,43.3h86.6m-73.9,30.6l61.2,-61.2m-30.6,73.9V634.6m30.6,73.9L720.6,647.3" class="g8_29"/>
<path d="M202.4,816.8h45.4m17.3,0h28.6m78.6,0h45.5m17.3,0h28.6m72.1,0h56.6m23.2,-21.2h28.6m-30.9,21.2h33.2m60.4,0h56.5m23.2,-21.2h28.7m-30.9,21.2h33.1M204.2,762h11.9M375,761.4h11.9m152.4,-1h11.9m156.5,.5h12" class="g1_29"/>
</svg>