<?xml version="1.0" encoding="UTF-8" standalone="no"?>
<!DOCTYPE svg PUBLIC "-//W3C//DTD SVG 1.1//EN"
"http://www.w3.org/Graphics/SVG/1.1/DTD/svg11.dtd">
<svg viewBox="0 0 909 1147" version="1.1" xmlns="http://www.w3.org/2000/svg" xmlns:xlink="http://www.w3.org/1999/xlink">
<defs>
<style type="text/css"><![CDATA[
.g0_124{
fill: #E7A9A1;
}
.g1_124{
fill: none;
stroke: #0EA5DF;
stroke-width: 3.055;
}
.g2_124{
fill: none;
stroke: #2E3092;
stroke-width: 0.763;
}
.g3_124{
fill: none;
stroke: #8ED8F8;
stroke-width: 0.763;
stroke-miterlimit: 2;
}
.g4_124{
fill: #000;
}
.g5_124{
fill: none;
stroke: #000;
stroke-width: 0.763;
stroke-miterlimit: 2;
}
.g6_124{
fill: none;
stroke: #000;
stroke-width: 1.069;
stroke-miterlimit: 2;
}
.g7_124{
fill: none;
stroke: #000;
stroke-width: 1.986;
stroke-miterlimit: 2;
}
.g8_124{
fill: none;
stroke: #000;
stroke-width: 0.763;
stroke-miterlimit: 2;
stroke-dasharray: 4,3;
}
.g9_124{
fill: #E5C0B0;
}
.ga_124{
fill: #FEE7DC;
}
.gb_124{
fill: #FCD3C1;
}
.gc_124{
fill: none;
stroke: #000;
stroke-width: 0.941;
stroke-miterlimit: 2;
}
.gd_124{
fill: none;
stroke: #000;
stroke-width: 0.763;
}
]]></style>
</defs>
<path d="M0,1131H72.3v-51.5H0V1131Z" class="g0_124"/>
<path d="M73.4,992.1H835.6" class="g1_124"/>
<path d="M348.2,764.8c4.5,0,8.3,-3.7,8.3,-8.3c0,-4.5,-3.8,-8.2,-8.3,-8.2c-4.6,0,-8.3,3.7,-8.3,8.2c0,4.6,3.7,8.3,8.3,8.3ZM321.8,879.2c4.6,0,8.3,-3.7,8.3,-8.3c0,-4.6,-3.7,-8.3,-8.3,-8.3c-4.5,0,-8.2,3.7,-8.2,8.3c0,4.6,3.7,8.3,8.2,8.3Zm82.6,0c4.6,0,8.3,-3.7,8.3,-8.3c0,-4.6,-3.7,-8.3,-8.3,-8.3c-4.6,0,-8.3,3.7,-8.3,8.3c0,4.6,3.7,8.3,8.3,8.3Zm-27.9,26.3c4.5,0,8.2,-3.7,8.2,-8.3c0,-4.5,-3.7,-8.2,-8.2,-8.2c-4.6,0,-8.3,3.7,-8.3,8.2c0,4.6,3.7,8.3,8.3,8.3Zm34.9,0c4.6,0,8.3,-3.7,8.3,-8.3c0,-4.5,-3.7,-8.2,-8.3,-8.2c-4.6,0,-8.3,3.7,-8.3,8.2c0,4.6,3.7,8.3,8.3,8.3Z" class="g2_124"/>
<path d="M226.5,520.9V287.1m0,0H577.2m-350.7,13H577.2M226.5,313H577.2M226.5,326H577.2M226.5,339H577.2M226.5,352H577.2M226.5,365H577.2M226.5,378H577.2M226.5,391H577.2M226.5,404H577.2M226.5,417H577.2M226.5,430H577.2M226.5,443H577.2M226.5,456H577.2M226.5,469H577.2M226.5,481.9H577.2m-350.7,13H577.2m-350.7,13H577.2m-350.7,13H577.2m-337.7,0V287.1m13,233.8V287.1m13,233.8V287.1m13,233.8V287.1m13,233.8V287.1m13,233.8V287.1m13,233.8V287.1m13,233.8V287.1m13,233.8V287.1m13,233.8V287.1m13,233.8V287.1m12.9,233.8V287.1m13,233.8V287.1m13,233.8V287.1m13,233.8V287.1m13,233.8V287.1m13,233.8V287.1m13,233.8V287.1m13,233.8V287.1m13,233.8V287.1m13,233.8V287.1m13,233.8V287.1m13,233.8V287.1m13,233.8V287.1m12.9,233.8V287.1m13,233.8V287.1m13,233.8V287.1" class="g3_124"/>
<path fill-rule="evenodd" d="M274.2,455.1c-.9,-.8,-1.4,-1.4,-1.7,-1.8c-.2,-.4,-.4,-.9,-.4,-1.4c0,-.7,.3,-1.3,.9,-1.8c.5,-.5,1.3,-.8,2.2,-.8c.9,0,1.6,.2,2.2,.7c.5,.5,.8,1.1,.8,1.7c0,.4,-.2,.8,-.5,1.3c-.3,.4,-.9,.9,-1.8,1.5c1,.7,1.6,1.3,1.9,1.8c.4,.5,.6,1.1,.6,1.7c0,.8,-.3,1.5,-.9,2c-.6,.6,-1.3,.9,-2.3,.9c-1.1,0,-1.9,-.4,-2.5,-1c-.5,-.6,-.7,-1.2,-.7,-1.8c0,-.5,.2,-1,.5,-1.4c.3,-.5,.9,-1.1,1.7,-1.6m1.3,-.9c.7,-.6,1.1,-1.1,1.3,-1.4c.1,-.4,.2,-.8,.2,-1.2c0,-.6,-.1,-1,-.5,-1.3c-.3,-.4,-.7,-.5,-1.3,-.5c-.5,0,-1,.1,-1.4,.5c-.3,.3,-.5,.7,-.5,1.1c0,.3,.1,.6,.2,.8c.2,.3,.4,.6,.7,.9Zm-.9,1.2c-.5,.3,-.8,.8,-1,1.2c-.2,.5,-.3,1,-.3,1.5c0,.7,.2,1.3,.5,1.7c.4,.4,.9,.6,1.5,.6c.6,0,1.1,-.2,1.4,-.5c.4,-.3,.6,-.7,.6,-1.2c0,-.4,-.1,-.8,-.3,-1.1c-.4,-.5,-1.2,-1.3,-2.4,-2.2Z" class="g4_124"/>
<path fill-rule="evenodd" d="M445.7,455.1c-.8,-.8,-1.4,-1.4,-1.7,-1.8c-.2,-.4,-.4,-.9,-.4,-1.4c0,-.7,.3,-1.3,.9,-1.8c.5,-.5,1.3,-.8,2.2,-.8c.9,0,1.6,.2,2.2,.7c.5,.5,.8,1.1,.8,1.7c0,.4,-.1,.8,-.4,1.3c-.3,.4,-1,.9,-1.9,1.5c1,.7,1.6,1.3,1.9,1.8c.4,.5,.6,1.1,.6,1.7c0,.8,-.3,1.5,-.9,2c-.5,.6,-1.3,.9,-2.3,.9c-1.1,0,-1.9,-.4,-2.5,-1c-.4,-.6,-.7,-1.2,-.7,-1.8c0,-.5,.2,-1,.5,-1.4c.4,-.5,.9,-1.1,1.7,-1.6m1.3,-.9c.7,-.6,1.1,-1.1,1.3,-1.4c.1,-.4,.2,-.8,.2,-1.2c0,-.6,-.1,-1,-.5,-1.3c-.3,-.4,-.7,-.5,-1.3,-.5c-.5,0,-1,.1,-1.3,.5c-.4,.3,-.6,.7,-.6,1.1c0,.3,.1,.6,.3,.8c.1,.3,.3,.6,.6,.9Zm-.9,1.2c-.4,.3,-.8,.8,-1,1.2c-.2,.5,-.3,1,-.3,1.5c0,.7,.2,1.3,.6,1.7c.3,.4,.8,.6,1.4,.6c.6,0,1.1,-.2,1.5,-.5c.3,-.3,.5,-.7,.5,-1.2c0,-.4,-.1,-.8,-.3,-1.1c-.4,-.5,-1.2,-1.3,-2.4,-2.2Z" class="g4_124"/>
<path fill-rule="evenodd" d="M342.9,400.7v.3c-.7,0,-1.3,.2,-1.7,.4c-.5,.2,-1,.5,-1.4,1c-.4,.4,-.8,.9,-1.1,1.5c-.3,.5,-.5,1.2,-.7,1.9c.7,-.5,1.5,-.8,2.3,-.8c.8,0,1.5,.3,2,.9c.6,.6,.8,1.4,.8,2.4c0,.9,-.2,1.8,-.8,2.5c-.7,1,-1.6,1.4,-2.7,1.4c-.7,0,-1.4,-.2,-1.9,-.7c-1.1,-1,-1.6,-2.3,-1.6,-3.8c0,-1,.2,-2,.6,-2.9c.4,-.9,1,-1.7,1.7,-2.4c.8,-.7,1.5,-1.1,2.2,-1.4c.6,-.2,1.3,-.3,1.9,-.3Zm-5.1,5.7c-.1,.7,-.1,1.3,-.1,1.8c0,.5,.1,1.1,.3,1.7c.2,.6,.4,1.1,.8,1.5c.3,.2,.6,.4,1,.4c.5,0,1,-.3,1.3,-.7c.4,-.5,.6,-1.1,.6,-1.9c0,-1,-.2,-1.8,-.6,-2.5c-.3,-.6,-.9,-1,-1.6,-1c-.2,0,-.4,.1,-.6,.1c-.3,.1,-.6,.3,-1.1,.6Z" class="g4_124"/>
<path fill-rule="evenodd" d="M364,449.4l-.6,1.4H360l-.7,1.5c1.4,.2,2.6,.8,3.4,1.6c.7,.8,1.1,1.6,1.1,2.6c0,.6,-.1,1.2,-.3,1.7c-.3,.5,-.6,.9,-.9,1.2c-.4,.4,-.8,.7,-1.3,.9c-.6,.3,-1.2,.4,-1.9,.4c-.7,0,-1.1,-.1,-1.4,-.3c-.3,-.2,-.5,-.5,-.5,-.8c0,-.1,.1,-.2,.2,-.4c.1,-.1,.3,-.1,.5,-.1c.1,0,.2,0,.3,0c.1,.1,.3,.2,.6,.4c.4,.2,.8,.4,1.2,.4c.7,0,1.2,-.3,1.7,-.7c.5,-.5,.7,-1.1,.7,-1.8c0,-.7,-.2,-1.3,-.6,-1.9c-.4,-.6,-1,-1,-1.8,-1.3c-.6,-.3,-1.4,-.4,-2.4,-.5l2.1,-4.3Z" class="g4_124"/>
<path fill-rule="evenodd" d="M510.1,471.7l-.6,1.3h-3.4l-.7,1.5c1.5,.3,2.6,.8,3.5,1.7c.7,.7,1,1.6,1,2.6c0,.6,-.1,1.1,-.3,1.6c-.2,.5,-.5,.9,-.9,1.3c-.4,.3,-.8,.6,-1.2,.8c-.6,.3,-1.3,.5,-2,.5c-.6,0,-1.1,-.1,-1.4,-.4c-.3,-.2,-.5,-.4,-.5,-.7c0,-.2,.1,-.3,.2,-.4c.1,-.1,.3,-.2,.5,-.2c.1,0,.3,0,.4,.1c.1,0,.3,.1,.5,.3c.4,.3,.8,.4,1.3,.4c.6,0,1.2,-.2,1.7,-.7c.4,-.5,.7,-1.1,.7,-1.8c0,-.6,-.2,-1.3,-.7,-1.8c-.4,-.6,-1,-1.1,-1.8,-1.4c-.6,-.2,-1.4,-.4,-2.4,-.4l2.1,-4.3Z" class="g4_124"/>
<path fill-rule="evenodd" d="M532.4,449.4l-.6,1.4h-3.4l-.7,1.5c1.5,.2,2.6,.8,3.5,1.6c.7,.8,1.1,1.6,1.1,2.6c0,.6,-.2,1.2,-.4,1.7c-.2,.5,-.5,.9,-.9,1.2c-.4,.4,-.8,.7,-1.2,.9c-.6,.3,-1.3,.4,-1.9,.4c-.7,0,-1.2,-.1,-1.5,-.3c-.3,-.2,-.5,-.5,-.5,-.8c0,-.1,.1,-.2,.2,-.4c.2,-.1,.3,-.1,.5,-.1c.1,0,.3,0,.4,0c.1,.1,.3,.2,.5,.4c.4,.2,.8,.4,1.3,.4c.6,0,1.2,-.3,1.7,-.7c.4,-.5,.7,-1.1,.7,-1.8c0,-.7,-.2,-1.3,-.7,-1.9c-.4,-.6,-1,-1,-1.8,-1.3c-.5,-.3,-1.4,-.4,-2.4,-.5l2.1,-4.3Z" class="g4_124"/>
<path fill-rule="evenodd" d="M389.4,471.7l-.7,1.3h-3.3l-.7,1.5c1.4,.3,2.6,.8,3.4,1.7c.7,.7,1.1,1.6,1.1,2.6c0,.6,-.1,1.1,-.4,1.6c-.2,.5,-.5,.9,-.9,1.3c-.3,.3,-.7,.6,-1.2,.8c-.6,.3,-1.2,.5,-1.9,.5c-.7,0,-1.2,-.1,-1.5,-.4c-.3,-.2,-.4,-.4,-.4,-.7c0,-.2,0,-.3,.2,-.4c.1,-.1,.3,-.2,.4,-.2c.2,0,.3,0,.4,.1c.1,0,.3,.1,.6,.3c.4,.3,.8,.4,1.2,.4c.7,0,1.2,-.2,1.7,-.7c.5,-.5,.7,-1.1,.7,-1.8c0,-.6,-.2,-1.3,-.6,-1.8c-.5,-.6,-1,-1.1,-1.8,-1.4c-.6,-.2,-1.4,-.4,-2.4,-.4l2.1,-4.3Z" class="g4_124"/>
<path fill-rule="evenodd" d="M564.3,345.1l1.9,-.9h.2v6.5c0,.4,0,.7,.1,.8c0,.1,.1,.2,.2,.3c.1,0,.3,.1,.7,.1v.2h-2.9v-.2c.3,0,.6,-.1,.7,-.1c.1,-.1,.2,-.2,.2,-.3c0,-.1,.1,-.3,.1,-.8v-4.2c0,-.5,-.1,-.9,-.1,-1c0,-.2,-.1,-.2,-.1,-.3c-.1,-.1,-.2,-.1,-.3,-.1c-.1,0,-.3,.1,-.6,.2Z" class="g4_124"/>
<path fill-rule="evenodd" d="M229.9,353.5l-.5,1.5h-4.6v-.2c1.4,-1.2,2.3,-2.2,2.8,-3c.6,-.8,.9,-1.5,.9,-2.1c0,-.5,-.2,-.9,-.5,-1.2c-.3,-.3,-.6,-.5,-1.1,-.5c-.3,0,-.7,.1,-1,.3c-.3,.3,-.5,.6,-.7,1H225c.1,-.7,.4,-1.2,.8,-1.6c.4,-.4,.8,-.6,1.4,-.6c.7,0,1.2,.2,1.6,.6c.4,.4,.6,.9,.6,1.5c0,.3,-.1,.7,-.2,1.1c-.3,.6,-.8,1.3,-1.4,2c-.9,1,-1.5,1.6,-1.8,1.8h2c.4,0,.7,0,.9,0c.2,0,.3,-.1,.4,-.2c.2,-.1,.3,-.2,.4,-.4Z" class="g4_124"/>
<path fill-rule="evenodd" d="M515.8,510.9v.8h-1v2h-1v-2h-3.2V511l3.5,-5.2h.7v5.1Zm-2,0V507l-2.7,3.9Z" class="g4_124"/>
<path fill-rule="evenodd" d="M510.7,298.3c.2,-.5,.5,-.9,.8,-1.2c.3,-.3,.8,-.4,1.3,-.4c.6,0,1.1,.2,1.4,.6c.2,.3,.4,.6,.4,1c0,.5,-.4,1.1,-1.1,1.7c.5,.2,.8,.5,1.1,.8c.2,.3,.3,.7,.3,1.2c0,.7,-.2,1.3,-.6,1.8c-.5,.6,-1.4,.9,-2.4,.9c-.5,0,-.9,-.1,-1.1,-.2c-.2,-.1,-.2,-.3,-.2,-.4c0,-.1,0,-.2,.1,-.3c.1,-.1,.2,-.1,.3,-.1c.1,0,.2,0,.3,0c.1,0,.2,.1,.4,.2c.3,.2,.4,.2,.5,.2c.2,.1,.3,.1,.5,.1c.3,0,.7,-.1,1,-.4c.3,-.3,.4,-.7,.4,-1.1c0,-.3,-.1,-.6,-.2,-.9c-.1,-.2,-.2,-.4,-.3,-.5c-.2,-.1,-.4,-.3,-.7,-.4c-.3,-.1,-.6,-.2,-.9,-.2h-.1v-.1c.3,-.1,.6,-.2,.9,-.4c.3,-.1,.5,-.3,.6,-.6c.1,-.2,.2,-.5,.2,-.8c0,-.4,-.1,-.7,-.4,-1c-.2,-.2,-.5,-.3,-.9,-.3c-.6,0,-1,.3,-1.4,.9Z" class="g4_124"/>
<path d="M565.2,340.2c4.3,0,7.8,3.5,7.8,7.8c0,4.3,-3.5,7.8,-7.8,7.8c-4.3,0,-7.8,-3.5,-7.8,-7.8c0,-4.3,3.5,-7.8,7.8,-7.8Zm-337.9,3c4.3,0,7.8,3.5,7.8,7.7c0,4.3,-3.5,7.8,-7.8,7.8c-4.3,0,-7.7,-3.5,-7.7,-7.8c0,-4.2,3.4,-7.7,7.7,-7.7ZM513.2,501.9c4.2,0,7.7,3.5,7.7,7.8c0,4.2,-3.5,7.7,-7.7,7.7c-4.3,0,-7.8,-3.5,-7.8,-7.7c0,-4.3,3.5,-7.8,7.8,-7.8Zm-.9,-209.2c4.3,0,7.8,3.5,7.8,7.8c0,4.3,-3.5,7.8,-7.8,7.8c-4.3,0,-7.8,-3.5,-7.8,-7.8c0,-4.3,3.5,-7.8,7.8,-7.8Z" class="g5_124"/>
<path d="M226.2,442.6V364.5H395.9V300.6H499.5v64.6h65.2v77.4H499.5v65.3H395.2V443.3l-169,-.7Z" class="g6_124"/>
<path d="M330.5,365.2v78.2m169.1,-.1H395.8V364.7H500l-.4,78.6Z" class="g7_124"/>
<path d="M500.5,311h-106m159,133.6V363.7m-53,133.1h-106" class="g8_124"/>
<path d="M394.5,311V288.8h106V311m53,52.7h22.2v80.9H553.5m-159,52.2V519h106V496.8" class="g5_124"/>
<path d="M640.3,787.5v69.1l50.9,-28.1l.3,-69.3Z" class="g9_124"/>
<path d="M598.2,758.7l-49.8,29.2h91.4L690,758.7Z" class="ga_124"/>
<path d="M548.4,787.9v69.2h91.4l.4,-69.2Z" class="gb_124"/>
<path d="M691.5,758.7v68.7m-51,29.5L691,827.7M548.5,787.9l50.6,-29.2H691m-50.5,29.2L691,758.7m-51.2,98.4H548.4V787.9h91.8l-.4,69.2Z" class="gc_124"/>
<path d="M0,138.7H120.2V0H0V138.7Z" class="g0_124"/>
<path d="M784.9,582.5c5.7,0,10.4,-4.7,10.4,-10.5c0,-5.8,-4.7,-10.4,-10.4,-10.4c-5.8,0,-10.5,4.6,-10.5,10.4c0,5.8,4.7,10.5,10.5,10.5Zm40.1,0c5.8,0,10.4,-4.7,10.4,-10.5c0,-5.8,-4.6,-10.4,-10.4,-10.4c-5.8,0,-10.4,4.6,-10.4,10.4c0,5.8,4.6,10.5,10.4,10.5Z" class="gd_124"/>
</svg>