<?xml version="1.0" encoding="UTF-8" standalone="no"?>
<!DOCTYPE svg PUBLIC "-//W3C//DTD SVG 1.1//EN"
"http://www.w3.org/Graphics/SVG/1.1/DTD/svg11.dtd">
<svg viewBox="0 0 909 1147" version="1.1" xmlns="http://www.w3.org/2000/svg" xmlns:xlink="http://www.w3.org/1999/xlink">
<defs>
<clipPath id="c0_72"><path d="M408.1,824.2V733.9H602.5v90.3Z"/></clipPath>
<clipPath id="c1_72"><path d="M140.8,485.1v-18H171v18Z"/></clipPath>
<style type="text/css"><![CDATA[
.g0_72{
fill: #B6D774;
}
.g1_72{
fill: none;
stroke: #000;
stroke-width: 0.763;
}
.g2_72{
fill: none;
stroke: #000;
stroke-width: 0.763;
stroke-miterlimit: 2;
}
.g3_72{
fill: #000;
}
.g4_72{
fill: none;
stroke: #000;
stroke-width: 0.152;
stroke-miterlimit: 2;
}
.g5_72{
fill: #FFF;
}
.g6_72{
fill: #E6E7E8;
}
.g7_72{
fill: #939598;
}
.g8_72{
fill: #FCD3C1;
}
.g9_72{
fill: none;
stroke: #000;
stroke-width: 0.773;
stroke-miterlimit: 2;
}
.ga_72{
fill: none;
stroke: #000;
stroke-width: 0.773;
stroke-miterlimit: 2;
stroke-dasharray: 4,3;
}
.gb_72{
fill: none;
stroke: #000;
stroke-width: 1.558;
stroke-miterlimit: 2;
}
.gc_72{
fill: none;
stroke: #FFF;
stroke-width: 0.152;
stroke-miterlimit: 2;
}
.gd_72{
fill: none;
stroke: #0EA5DF;
stroke-width: 3.055;
}
.ge_72{
fill: #FFF1E0;
}
.gf_72{
fill: #0EA5DF;
}
]]></style>
</defs>
<path d="M0,1131H73.8v-51.5H0V1131Z" class="g0_72"/>
<path d="M464.7,352.6H476m-11.3,37.8H476" class="g1_72"/>
<path d="M284.3,267.5l43,113H198.1l86.2,-113Zm0,.2V380.2m.6,-8.9c8.2,.8,9.2,4,9.8,9.2" class="g2_72"/>
<path fill-rule="evenodd" d="M288.8,375.8c.6,.2,.8,.8,.6,1.3c-.2,.6,-.8,.9,-1.3,.7c-.6,-.2,-.8,-.8,-.6,-1.4c.2,-.5,.8,-.8,1.3,-.6Z" class="g3_72"/>
<path d="M288.8,375.8c.6,.2,.8,.8,.6,1.3c-.2,.6,-.8,.9,-1.3,.7c-.6,-.2,-.8,-.8,-.6,-1.4c.2,-.5,.8,-.8,1.3,-.6Z" class="g4_72"/>
<path fill-rule="evenodd" d="M195.8,376.2l-.9,10.1c-.1,.5,-.1,.8,-.1,1c0,.2,0,.4,.1,.5c.1,.2,.3,.3,.5,.4c.2,.1,.5,.1,1,.1l-.1,.3h-4.8l.1,-.3h.2c.4,0,.7,-.1,.9,-.2c.2,-.2,.3,-.3,.4,-.6c.1,-.2,.2,-.6,.2,-1.3l.2,-1.6H190l-1.2,1.7c-.3,.4,-.5,.7,-.6,.8c0,.2,-.1,.3,-.1,.5c0,.2,.1,.3,.3,.5c.1,.1,.4,.2,.7,.2l-.1,.3h-3.6l.1,-.3c.5,0,.9,-.2,1.2,-.4c.3,-.3,.8,-.9,1.5,-1.8l7.3,-9.9Zm-1.8,3l-3.5,4.8h3Z" class="g3_72"/>
<path d="M195.8,376.2l-.9,10.1c-.1,.5,-.1,.8,-.1,1c0,.2,0,.4,.1,.5c.1,.2,.3,.3,.5,.4c.2,.1,.5,.1,1,.1l-.1,.3h-4.8l.1,-.3h.2c.4,0,.7,-.1,.9,-.2c.2,-.2,.3,-.3,.4,-.6c.1,-.2,.2,-.6,.2,-1.3l.2,-1.6H190l-1.2,1.7c-.3,.4,-.5,.7,-.6,.8c0,.2,-.1,.3,-.1,.5c0,.2,.1,.3,.3,.5c.1,.1,.4,.2,.7,.2l-.1,.3h-3.6l.1,-.3c.5,0,.9,-.2,1.2,-.4c.3,-.3,.8,-.9,1.5,-1.8l7.3,-9.9h.3Zm-1.8,3l-3.5,4.8h3l.5,-4.8Z" class="g4_72"/>
<path fill-rule="evenodd" d="M331.4,376.1l.2,-.3h4.3c.7,0,1.4,.1,1.9,.3c.6,.3,1,.6,1.3,1c.3,.4,.4,.8,.4,1.3c0,.7,-.2,1.3,-.7,1.9c-.5,.5,-1.3,.9,-2.5,1.2c.8,.3,1.3,.6,1.6,1.1c.4,.5,.6,.9,.6,1.5c0,.6,-.2,1.2,-.5,1.7c-.3,.6,-.7,1,-1.2,1.3c-.5,.3,-1.1,.5,-1.8,.7c-.4,.1,-1.2,.1,-2.2,.1h-4.5l.1,-.3c.5,0,.8,-.1,1,-.1c.2,-.1,.4,-.3,.5,-.4c.1,-.3,.3,-.8,.6,-1.6l2.1,-7.4c.2,-.6,.3,-1,.3,-1.3c0,-.2,-.1,-.4,-.2,-.5c-.2,-.1,-.5,-.2,-1,-.2c-.1,0,-.2,0,-.3,0m1.9,5.1c.3,0,.6,0,.8,0c1.2,0,2.2,-.3,2.8,-.8c.6,-.6,.9,-1.3,.9,-2.1c0,-.6,-.2,-1.1,-.6,-1.4c-.4,-.3,-.9,-.5,-1.8,-.5c-.2,0,-.4,0,-.8,.1Zm-1.8,5.9c.6,.1,1.1,.2,1.5,.2c.9,0,1.8,-.3,2.5,-.9c.7,-.5,1.1,-1.3,1.1,-2.3c0,-.7,-.3,-1.3,-.7,-1.7c-.5,-.4,-1.2,-.6,-2.2,-.6c-.2,0,-.4,0,-.7,0Z" class="g3_72"/>
<path d="M331.4,376.1l.2,-.3h4.3c.7,0,1.4,.1,1.9,.3c.6,.3,1,.6,1.3,1c.3,.4,.4,.8,.4,1.3c0,.7,-.2,1.3,-.7,1.9c-.5,.5,-1.3,.9,-2.5,1.2c.8,.3,1.3,.6,1.6,1.1c.4,.5,.6,.9,.6,1.5c0,.6,-.2,1.2,-.5,1.7c-.3,.6,-.7,1,-1.2,1.3c-.5,.3,-1.1,.5,-1.8,.7c-.4,.1,-1.2,.1,-2.2,.1h-4.5l.1,-.3c.5,0,.8,-.1,1,-.1c.2,-.1,.4,-.3,.5,-.4c.1,-.3,.3,-.8,.6,-1.6l2.1,-7.4c.2,-.6,.3,-1,.3,-1.3c0,-.2,-.1,-.4,-.2,-.5c-.2,-.1,-.5,-.2,-1,-.2c-.1,0,-.2,0,-.3,0Zm1.9,5.1c.3,0,.6,0,.8,0c1.2,0,2.2,-.3,2.8,-.8c.6,-.6,.9,-1.3,.9,-2.1c0,-.6,-.2,-1.1,-.6,-1.4c-.4,-.3,-.9,-.5,-1.8,-.5c-.2,0,-.4,0,-.8,.1l-1.3,4.7Zm-1.8,5.9c.6,.1,1.1,.2,1.5,.2c.9,0,1.8,-.3,2.5,-.9c.7,-.5,1.1,-1.3,1.1,-2.3c0,-.7,-.3,-1.3,-.7,-1.7c-.5,-.4,-1.2,-.6,-2.2,-.6c-.2,0,-.4,0,-.7,0l-1.5,5.3Z" class="g4_72"/>
<path fill-rule="evenodd" d="M299.8,255.3l-.9,3.9h-.3l-.1,-.9c0,-.4,-.1,-.7,-.2,-1c-.1,-.3,-.2,-.5,-.5,-.7c-.2,-.2,-.4,-.4,-.8,-.5c-.3,-.1,-.7,-.2,-1.1,-.2c-1,0,-2,.3,-2.8,.9c-1,.7,-1.8,1.8,-2.4,3.2c-.4,1.1,-.7,2.2,-.7,3.4c0,1.1,.4,2.1,1,2.8c.7,.7,1.6,1,2.7,1c.9,0,1.6,-.2,2.2,-.5c.7,-.4,1.3,-1,1.8,-1.7h.5c-.7,1,-1.4,1.8,-2.2,2.3c-.8,.5,-1.8,.7,-2.9,.7c-1,0,-1.9,-.2,-2.6,-.6c-.8,-.4,-1.4,-1,-1.8,-1.8c-.4,-.7,-.6,-1.5,-.6,-2.4c0,-1.3,.4,-2.6,1.1,-3.9c.7,-1.2,1.7,-2.2,2.9,-2.9c1.3,-.7,2.5,-1.1,3.8,-1.1c.6,0,1.2,.2,2,.4c.3,.2,.5,.2,.6,.2c.2,0,.3,0,.4,-.1c.1,0,.3,-.2,.6,-.5Z" class="g3_72"/>
<path d="M299.8,255.3l-.9,3.9h-.3l-.1,-.9c0,-.4,-.1,-.7,-.2,-1c-.1,-.3,-.2,-.5,-.5,-.7c-.2,-.2,-.4,-.4,-.8,-.5c-.3,-.1,-.7,-.2,-1.1,-.2c-1,0,-2,.3,-2.8,.9c-1,.7,-1.8,1.8,-2.4,3.2c-.4,1.1,-.7,2.2,-.7,3.4c0,1.1,.4,2.1,1,2.8c.7,.7,1.6,1,2.7,1c.9,0,1.6,-.2,2.2,-.5c.7,-.4,1.3,-1,1.8,-1.7h.5c-.7,1,-1.4,1.8,-2.2,2.3c-.8,.5,-1.8,.7,-2.9,.7c-1,0,-1.9,-.2,-2.6,-.6c-.8,-.4,-1.4,-1,-1.8,-1.8c-.4,-.7,-.6,-1.5,-.6,-2.4c0,-1.3,.4,-2.6,1.1,-3.9c.7,-1.2,1.7,-2.2,2.9,-2.9c1.3,-.7,2.5,-1.1,3.8,-1.1c.6,0,1.2,.2,2,.4c.3,.2,.5,.2,.6,.2c.2,0,.3,0,.4,-.1c.1,0,.3,-.2,.6,-.5h.3Z" class="g4_72"/>
<path fill-rule="evenodd" d="M290.9,385.5l-.9,4h-.4v-1c0,-.4,-.1,-.7,-.2,-1c-.1,-.3,-.3,-.5,-.5,-.7c-.2,-.2,-.5,-.4,-.8,-.5c-.3,-.1,-.7,-.2,-1.1,-.2c-1.1,0,-2,.3,-2.8,.9c-1,.7,-1.8,1.8,-2.4,3.2c-.5,1.1,-.7,2.2,-.7,3.4c0,1.1,.3,2.1,1,2.8c.7,.7,1.6,1,2.7,1c.8,0,1.6,-.1,2.2,-.5c.7,-.4,1.3,-1,1.8,-1.7h.4c-.6,1,-1.3,1.8,-2.1,2.3c-.8,.5,-1.8,.7,-2.9,.7c-1,0,-1.9,-.2,-2.6,-.6c-.8,-.4,-1.4,-1,-1.8,-1.8c-.4,-.7,-.6,-1.5,-.6,-2.4c0,-1.3,.4,-2.6,1.1,-3.8c.7,-1.3,1.7,-2.3,2.9,-3c1.2,-.7,2.5,-1.1,3.7,-1.1c.6,0,1.3,.2,2,.4c.4,.2,.6,.2,.7,.2c.2,0,.3,0,.4,-.1c.1,0,.3,-.2,.5,-.5Z" class="g3_72"/>
<path d="M290.9,385.5l-.9,4h-.4v-1c0,-.4,-.1,-.7,-.2,-1c-.1,-.3,-.3,-.5,-.5,-.7c-.2,-.2,-.5,-.4,-.8,-.5c-.3,-.1,-.7,-.2,-1.1,-.2c-1.1,0,-2,.3,-2.8,.9c-1,.7,-1.8,1.8,-2.4,3.2c-.5,1.1,-.7,2.2,-.7,3.4c0,1.1,.3,2.1,1,2.8c.7,.7,1.6,1,2.7,1c.8,0,1.6,-.1,2.2,-.5c.7,-.4,1.3,-1,1.8,-1.7h.4c-.6,1,-1.3,1.8,-2.1,2.3c-.8,.5,-1.8,.7,-2.9,.7c-1,0,-1.9,-.2,-2.6,-.6c-.8,-.4,-1.4,-1,-1.8,-1.8c-.4,-.7,-.6,-1.5,-.6,-2.4c0,-1.3,.4,-2.6,1.1,-3.8c.7,-1.3,1.7,-2.3,2.9,-3c1.2,-.7,2.5,-1.1,3.7,-1.1c.6,0,1.3,.2,2,.4c.4,.2,.6,.2,.7,.2c.2,0,.3,0,.4,-.1c.1,0,.3,-.2,.5,-.5h.4Z" class="g4_72"/>
<path fill-rule="evenodd" d="M290.7,400.7l.8,-.4h.1v2.6c0,.2,0,.3,0,.3q0,.1,.1,.1c0,0,.1,.1,.2,.1h-1.1c.1,0,.2,-.1,.3,-.1l.1,-.1c0,0,0,-.1,0,-.3v-1.6c0,-.3,0,-.4,0,-.5c0,0,-.1,0,-.1,-.1c0,0,-.1,0,-.1,0q-.1,0,-.2,.1Z" class="g3_72"/>
<path d="M290.7,400.7l.8,-.4h.1v2.6c0,.2,0,.3,0,.3q0,.1,.1,.1c0,0,.1,.1,.2,.1h-1.1c.1,0,.2,-.1,.3,-.1l.1,-.1c0,0,0,-.1,0,-.3v-1.6c0,-.3,0,-.4,0,-.5c0,0,-.1,0,-.1,-.1c0,0,-.1,0,-.1,0q-.1,0,-.2,.1l-.1,-.1Z" class="g4_72"/>
<path fill-rule="evenodd" d="M252,351.7l1,-4.5h.3c0,.4,0,.8,0,1.1c0,.8,.2,1.5,.7,2c.6,.5,1.2,.8,2.1,.8c.8,0,1.4,-.3,1.8,-.8c.4,-.4,.6,-1,.6,-1.6c0,-.4,-.1,-.8,-.3,-1.1c-.3,-.5,-1,-1.4,-2.3,-2.6c-.5,-.6,-.9,-1.1,-1.1,-1.4c-.3,-.5,-.4,-1,-.4,-1.5c0,-.8,.3,-1.6,.9,-2.2c.7,-.6,1.5,-.9,2.5,-.9c.3,0,.6,.1,.9,.1c.2,.1,.6,.2,1,.4c.4,.1,.6,.2,.6,.2c.1,0,.2,0,.3,0c.2,0,.3,0,.4,-.1c.2,-.1,.3,-.3,.5,-.6h.3l-.9,4h-.3c0,-.3,0,-.6,0,-.8c0,-.7,-.2,-1.3,-.7,-1.8c-.5,-.5,-1.1,-.7,-1.9,-.7c-.6,0,-1.1,.2,-1.5,.6c-.4,.3,-.6,.8,-.6,1.2c0,.4,.1,.8,.4,1.2c.2,.4,.8,1,1.7,1.9c.9,.8,1.5,1.5,1.7,2c.3,.5,.4,1,.4,1.5c0,.6,-.1,1.2,-.5,1.8c-.3,.6,-.8,1,-1.4,1.3c-.6,.4,-1.2,.5,-2,.5c-.3,0,-.6,0,-1,-.1c-.3,-.1,-.8,-.2,-1.4,-.5c-.3,-.1,-.5,-.1,-.6,-.1c-.4,0,-.7,.2,-.9,.7Z" class="g3_72"/>
<path d="M252,351.7l1,-4.5h.3c0,.4,0,.8,0,1.1c0,.8,.2,1.5,.7,2c.6,.5,1.2,.8,2.1,.8c.8,0,1.4,-.3,1.8,-.8c.4,-.4,.6,-1,.6,-1.6c0,-.4,-.1,-.8,-.3,-1.1c-.3,-.5,-1,-1.4,-2.3,-2.6c-.5,-.6,-.9,-1.1,-1.1,-1.4c-.3,-.5,-.4,-1,-.4,-1.5c0,-.8,.3,-1.6,.9,-2.2c.7,-.6,1.5,-.9,2.5,-.9c.3,0,.6,.1,.9,.1c.2,.1,.6,.2,1,.4c.4,.1,.6,.2,.6,.2c.1,0,.2,0,.3,0c.2,0,.3,0,.4,-.1c.2,-.1,.3,-.3,.5,-.6h.3l-.9,4h-.3c0,-.3,0,-.6,0,-.8c0,-.7,-.2,-1.3,-.7,-1.8c-.5,-.5,-1.1,-.7,-1.9,-.7c-.6,0,-1.1,.2,-1.5,.6c-.4,.3,-.6,.8,-.6,1.2c0,.4,.1,.8,.4,1.2c.2,.4,.8,1,1.7,1.9c.9,.8,1.5,1.5,1.7,2c.3,.5,.4,1,.4,1.5c0,.6,-.1,1.2,-.5,1.8c-.3,.6,-.8,1,-1.4,1.3c-.6,.4,-1.2,.5,-2,.5c-.3,0,-.6,0,-1,-.1c-.3,-.1,-.8,-.2,-1.4,-.5c-.3,-.1,-.5,-.1,-.6,-.1c-.4,0,-.7,.2,-.9,.7H252Z" class="g4_72"/>
<path fill-rule="evenodd" d="M261.6,354.2l.7,-.4h.1v2.6c0,.2,0,.3,0,.3c0,.1,.1,.1,.1,.1q.1,0,.3,.1h-1.2c.2,-.1,.3,-.1,.3,-.1q.1,0,.1,-.1c0,0,0,-.1,0,-.3v-1.6c0,-.3,0,-.4,0,-.5v-.1q-.1,0,-.1,0c-.1,0,-.2,0,-.3,.1Z" class="g3_72"/>
<path d="M261.6,354.2l.7,-.4h.1v2.6c0,.2,0,.3,0,.3c0,.1,.1,.1,.1,.1q.1,0,.3,.1h-1.2c.2,-.1,.3,-.1,.3,-.1q.1,0,.1,-.1c0,0,0,-.1,0,-.3v-1.6c0,-.3,0,-.4,0,-.5v-.1q-.1,0,-.1,0c-.1,0,-.2,0,-.3,.1v-.1Z" class="g4_72"/>
<path fill-rule="evenodd" d="M295.3,351.7l1,-4.5h.3c0,.4,0,.8,0,1.1c0,.8,.2,1.5,.7,2c.6,.5,1.3,.8,2.1,.8c.8,0,1.4,-.3,1.8,-.8c.4,-.4,.6,-1,.6,-1.6c0,-.4,-.1,-.8,-.3,-1.1c-.3,-.5,-1,-1.4,-2.2,-2.6c-.6,-.6,-1,-1.1,-1.2,-1.4c-.3,-.5,-.4,-1,-.4,-1.5c0,-.8,.3,-1.6,1,-2.2c.6,-.6,1.4,-.9,2.4,-.9c.3,0,.6,.1,.9,.1c.2,.1,.6,.2,1.1,.4c.3,.1,.5,.2,.5,.2c.1,0,.2,0,.3,0c.2,0,.3,0,.4,-.1c.2,-.1,.3,-.3,.5,-.6h.3l-.9,4h-.3c0,-.3,0,-.6,0,-.8c0,-.7,-.2,-1.3,-.7,-1.8c-.5,-.5,-1.1,-.7,-1.9,-.7c-.6,0,-1.1,.2,-1.5,.6c-.4,.3,-.6,.8,-.6,1.2c0,.4,.2,.8,.4,1.2c.2,.4,.8,1,1.7,1.9c.9,.8,1.5,1.5,1.7,2c.3,.5,.4,1,.4,1.5c0,.6,-.1,1.2,-.4,1.8c-.4,.6,-.8,1,-1.5,1.3c-.6,.4,-1.2,.5,-1.9,.5c-.4,0,-.7,0,-1,-.1c-.4,-.1,-.9,-.2,-1.5,-.5c-.3,-.1,-.5,-.1,-.6,-.1c-.4,0,-.6,.2,-.8,.7Z" class="g3_72"/>
<path d="M295.3,351.7l1,-4.5h.3c0,.4,0,.8,0,1.1c0,.8,.2,1.5,.7,2c.6,.5,1.3,.8,2.1,.8c.8,0,1.4,-.3,1.8,-.8c.4,-.4,.6,-1,.6,-1.6c0,-.4,-.1,-.8,-.3,-1.1c-.3,-.5,-1,-1.4,-2.2,-2.6c-.6,-.6,-1,-1.1,-1.2,-1.4c-.3,-.5,-.4,-1,-.4,-1.5c0,-.8,.3,-1.6,1,-2.2c.6,-.6,1.4,-.9,2.4,-.9c.3,0,.6,.1,.9,.1c.2,.1,.6,.2,1.1,.4c.3,.1,.5,.2,.5,.2c.1,0,.2,0,.3,0c.2,0,.3,0,.4,-.1c.2,-.1,.3,-.3,.5,-.6h.3l-.9,4h-.3c0,-.3,0,-.6,0,-.8c0,-.7,-.2,-1.3,-.7,-1.8c-.5,-.5,-1.1,-.7,-1.9,-.7c-.6,0,-1.1,.2,-1.5,.6c-.4,.3,-.6,.8,-.6,1.2c0,.4,.2,.8,.4,1.2c.2,.4,.8,1,1.7,1.9c.9,.8,1.5,1.5,1.7,2c.3,.5,.4,1,.4,1.5c0,.6,-.1,1.2,-.4,1.8c-.4,.6,-.8,1,-1.5,1.3c-.6,.4,-1.2,.5,-1.9,.5c-.4,0,-.7,0,-1,-.1c-.4,-.1,-.9,-.2,-1.5,-.5c-.3,-.1,-.5,-.1,-.6,-.1c-.4,0,-.6,.2,-.8,.7h-.4Z" class="g4_72"/>
<path fill-rule="evenodd" d="M306.5,356.4l-.3,.5h-1.7c.5,-.5,.9,-.9,1.1,-1.2c.2,-.3,.3,-.6,.3,-.9c0,-.2,-.1,-.3,-.2,-.4c-.1,-.2,-.2,-.2,-.4,-.2c-.2,0,-.3,0,-.4,.1c-.1,.1,-.2,.2,-.3,.4h-.1c.1,-.3,.2,-.5,.3,-.6c.2,-.2,.4,-.3,.6,-.3c.3,0,.5,.1,.6,.3c.2,.1,.3,.3,.3,.5c0,.2,-.1,.3,-.1,.5c-.1,.2,-.3,.5,-.6,.8c-.3,.4,-.6,.6,-.7,.7h.8c.2,0,.3,0,.4,0c0,0,.1,-.1,.1,-.1c.1,0,.1,-.1,.2,-.1Z" class="g3_72"/>
<path d="M306.5,356.4l-.3,.5h-1.7c.5,-.5,.9,-.9,1.1,-1.2c.2,-.3,.3,-.6,.3,-.9c0,-.2,-.1,-.3,-.2,-.4c-.1,-.2,-.2,-.2,-.4,-.2c-.2,0,-.3,0,-.4,.1c-.1,.1,-.2,.2,-.3,.4h-.1c.1,-.3,.2,-.5,.3,-.6c.2,-.2,.4,-.3,.6,-.3c.3,0,.5,.1,.6,.3c.2,.1,.3,.3,.3,.5c0,.2,-.1,.3,-.1,.5c-.1,.2,-.3,.5,-.6,.8c-.3,.4,-.6,.6,-.7,.7h.8c.2,0,.3,0,.4,0c0,0,.1,-.1,.1,-.1c.1,0,.1,-.1,.2,-.1h.1Z" class="g4_72"/>
<path fill-rule="evenodd" d="M239.7,385.1l-.7,1.5h-3.6l-.8,1.6c1.6,.3,2.8,.9,3.7,1.8c.8,.8,1.2,1.8,1.2,2.9c0,.6,-.1,1.2,-.4,1.7c-.2,.6,-.6,1,-.9,1.4c-.4,.4,-.9,.7,-1.4,.9c-.6,.4,-1.4,.5,-2.1,.5c-.7,0,-1.2,-.1,-1.6,-.3c-.3,-.3,-.5,-.6,-.5,-.9c0,-.1,.1,-.3,.2,-.4c.2,-.1,.4,-.2,.6,-.2c.1,0,.3,0,.4,.1c.1,0,.3,.2,.6,.4c.4,.3,.9,.4,1.3,.4c.7,0,1.3,-.2,1.9,-.8c.5,-.5,.8,-1.1,.8,-1.9c0,-.7,-.3,-1.4,-.7,-2.1c-.5,-.6,-1.2,-1.1,-2,-1.4c-.7,-.3,-1.5,-.5,-2.7,-.5l2.4,-4.7Z" class="g3_72"/>
<path d="M239.7,385.1l-.7,1.5h-3.6l-.8,1.6c1.6,.3,2.8,.9,3.7,1.8c.8,.8,1.2,1.8,1.2,2.9c0,.6,-.1,1.2,-.4,1.7c-.2,.6,-.6,1,-.9,1.4c-.4,.4,-.9,.7,-1.4,.9c-.6,.4,-1.4,.5,-2.1,.5c-.7,0,-1.2,-.1,-1.6,-.3c-.3,-.3,-.5,-.6,-.5,-.9c0,-.1,.1,-.3,.2,-.4c.2,-.1,.4,-.2,.6,-.2c.1,0,.3,0,.4,.1c.1,0,.3,.2,.6,.4c.4,.3,.9,.4,1.3,.4c.7,0,1.3,-.2,1.9,-.8c.5,-.5,.8,-1.1,.8,-1.9c0,-.7,-.3,-1.4,-.7,-2.1c-.5,-.6,-1.2,-1.1,-2,-1.4c-.7,-.3,-1.5,-.5,-2.7,-.5l2.4,-4.7h4.3Z" class="g4_72"/>
<path fill-rule="evenodd" d="M305,386.3c.3,-.8,.8,-1.4,1.3,-1.9c.5,-.4,1.2,-.6,2,-.6c.9,0,1.7,.3,2.2,.9c.4,.5,.6,1,.6,1.5c0,.9,-.6,1.8,-1.7,2.8c.8,.3,1.3,.7,1.7,1.2c.4,.6,.6,1.2,.6,1.9c0,1.1,-.3,2,-1,2.8c-.9,1,-2.1,1.5,-3.8,1.5c-.8,0,-1.4,-.1,-1.7,-.3c-.3,-.2,-.4,-.5,-.4,-.7c0,-.2,.1,-.3,.2,-.4c.1,-.2,.3,-.2,.5,-.2c.1,0,.3,0,.5,0c.1,.1,.3,.2,.6,.4c.4,.1,.7,.3,.8,.3c.2,.1,.4,.1,.7,.1c.6,0,1.1,-.2,1.6,-.7c.4,-.5,.7,-1,.7,-1.7c0,-.5,-.1,-.9,-.4,-1.4c-.1,-.3,-.3,-.6,-.5,-.7c-.2,-.3,-.6,-.5,-1,-.7c-.5,-.2,-.9,-.3,-1.4,-.3h-.3v-.2c.5,-.1,1,-.3,1.4,-.6c.5,-.2,.9,-.6,1.1,-1c.2,-.4,.3,-.8,.3,-1.3c0,-.6,-.2,-1.1,-.6,-1.5c-.4,-.3,-.8,-.5,-1.4,-.5c-.9,0,-1.7,.5,-2.3,1.5Z" class="g3_72"/>
<path d="M305,386.3c.3,-.8,.8,-1.4,1.3,-1.9c.5,-.4,1.2,-.6,2,-.6c.9,0,1.7,.3,2.2,.9c.4,.5,.6,1,.6,1.5c0,.9,-.6,1.8,-1.7,2.8c.8,.3,1.3,.7,1.7,1.2c.4,.6,.6,1.2,.6,1.9c0,1.1,-.3,2,-1,2.8c-.9,1,-2.1,1.5,-3.8,1.5c-.8,0,-1.4,-.1,-1.7,-.3c-.3,-.2,-.4,-.5,-.4,-.7c0,-.2,.1,-.3,.2,-.4c.1,-.2,.3,-.2,.5,-.2c.1,0,.3,0,.5,0c.1,.1,.3,.2,.6,.4c.4,.1,.7,.3,.8,.3c.2,.1,.4,.1,.7,.1c.6,0,1.1,-.2,1.6,-.7c.4,-.5,.7,-1,.7,-1.7c0,-.5,-.1,-.9,-.4,-1.4c-.1,-.3,-.3,-.6,-.5,-.7c-.2,-.3,-.6,-.5,-1,-.7c-.5,-.2,-.9,-.3,-1.4,-.3h-.3v-.2c.5,-.1,1,-.3,1.4,-.6c.5,-.2,.9,-.6,1.1,-1c.2,-.4,.3,-.8,.3,-1.3c0,-.6,-.2,-1.1,-.6,-1.5c-.4,-.3,-.8,-.5,-1.4,-.5c-.9,0,-1.7,.5,-2.3,1.5l-.3,-.2Z" class="g4_72"/>
<path fill-rule="evenodd" d="M279.3,322.6v1.3h-1.6v3.2h-1.5v-3.2h-5.1v-1.1l5.6,-8.1h1v7.9Zm-3.1,0v-6l-4.2,6Z" class="g3_72"/>
<path d="M279.3,322.6v1.3h-1.6v3.2h-1.5v-3.2h-5.1v-1.1l5.6,-8.1h1v7.9h1.6Zm-3.1,0v-6l-4.2,6h4.2Z" class="g4_72"/>
<path fill-rule="evenodd" d="M240.1,357.3h28.8V336.9H240.1v20.4Z" class="g5_72"/>
<path fill-rule="evenodd" d="M286.4,358.2h21V337.8h-21v20.4Z" class="g5_72"/>
<path fill-rule="evenodd" d="M269.1,404.5h28.8V384.1H269.1v20.4Z" class="g5_72"/>
<path fill-rule="evenodd" d="M244.8,751.6l9.3,6.6c-4,4.2,-9.1,5.8,-15.5,2Z" class="g6_72"/>
<path d="M244.8,751.6l9.3,6.6c-4,4.2,-9.1,5.8,-15.5,2l6.2,-8.6Zm-.3,-.4L331.8,812m-130.1,.4l130.2,-.3M244.8,751l-42.9,61.6" class="g2_72"/>
<path fill-rule="evenodd" d="M246.7,759.2c.6,.3,1.3,.1,1.7,-.5c.3,-.6,.1,-1.4,-.5,-1.7c-.6,-.4,-1.4,-.2,-1.7,.4c-.3,.6,-.1,1.4,.5,1.8Z" class="g3_72"/>
<path d="M246.7,759.2c.6,.3,1.3,.1,1.7,-.5c.3,-.6,.1,-1.4,-.5,-1.7c-.6,-.4,-1.4,-.2,-1.7,.4c-.3,.6,-.1,1.4,.5,1.8Z" class="g4_72"/>
<path fill-rule="evenodd" d="M196.6,808.5l-.9,10.1c-.1,.5,-.1,.8,-.1,1c0,.2,0,.4,.1,.5c.2,.2,.3,.3,.5,.4c.2,.1,.5,.1,1,.1l-.1,.4h-4.8l.1,-.4h.2c.4,0,.7,-.1,1,-.2c.1,-.1,.3,-.3,.4,-.6c0,-.2,.1,-.6,.1,-1.3l.2,-1.5h-3.5l-1.2,1.6c-.3,.4,-.5,.7,-.5,.8c-.1,.2,-.2,.4,-.2,.5c0,.2,.1,.4,.3,.5c.1,.1,.4,.2,.7,.2v.4h-3.6l.1,-.4c.4,0,.8,-.1,1.1,-.4c.4,-.3,.9,-.9,1.5,-1.8l7.3,-9.9Zm-1.8,3l-3.5,4.8h3.1Z" class="g3_72"/>
<path d="M196.6,808.5l-.9,10.1c-.1,.5,-.1,.8,-.1,1c0,.2,0,.4,.1,.5c.2,.2,.3,.3,.5,.4c.2,.1,.5,.1,1,.1l-.1,.4h-4.8l.1,-.4h.2c.4,0,.7,-.1,1,-.2c.1,-.1,.3,-.3,.4,-.6c0,-.2,.1,-.6,.1,-1.3l.2,-1.5h-3.5l-1.2,1.6c-.3,.4,-.5,.7,-.5,.8c-.1,.2,-.2,.4,-.2,.5c0,.2,.1,.4,.3,.5c.1,.1,.4,.2,.7,.2v.4h-3.6l.1,-.4c.4,0,.8,-.1,1.1,-.4c.4,-.3,.9,-.9,1.5,-1.8l7.3,-9.9h.3Zm-1.8,3l-3.5,4.8h3.1l.4,-4.8Z" class="g4_72"/>
<path fill-rule="evenodd" d="M336.7,810.6l.1,-.4h4.4c.7,0,1.4,.2,1.9,.4c.6,.2,1,.5,1.3,.9c.3,.4,.4,.9,.4,1.3c0,.7,-.2,1.4,-.7,1.9c-.5,.6,-1.4,1,-2.5,1.3c.7,.2,1.3,.6,1.6,1.1c.4,.4,.6,.9,.6,1.5c0,.6,-.2,1.1,-.5,1.7c-.3,.5,-.7,1,-1.2,1.3c-.5,.3,-1.1,.5,-1.8,.6c-.5,.1,-1.2,.2,-2.3,.2h-4.4l.1,-.3c.5,-.1,.8,-.1,1,-.2c.2,-.1,.4,-.2,.5,-.4c.1,-.2,.3,-.7,.5,-1.5l2.2,-7.4c.2,-.6,.3,-1,.3,-1.3c0,-.2,-.1,-.4,-.3,-.5c-.1,-.1,-.4,-.2,-.9,-.2c-.1,0,-.2,0,-.3,0m1.8,5c.4,0,.7,0,.9,0c1.2,0,2.1,-.2,2.8,-.8c.6,-.5,.9,-1.2,.9,-2c0,-.6,-.2,-1.1,-.6,-1.4c-.4,-.4,-1,-.6,-1.8,-.6c-.2,0,-.5,.1,-.8,.2Zm-1.7,6c.6,.1,1.1,.1,1.5,.1c.9,0,1.7,-.3,2.5,-.8c.7,-.6,1,-1.3,1,-2.3c0,-.7,-.2,-1.3,-.6,-1.7c-.5,-.4,-1.2,-.6,-2.2,-.6c-.2,0,-.4,0,-.7,0Z" class="g3_72"/>
<path d="M336.7,810.6l.1,-.4h4.4c.7,0,1.4,.2,1.9,.4c.6,.2,1,.5,1.3,.9c.3,.4,.4,.9,.4,1.3c0,.7,-.2,1.4,-.7,1.9c-.5,.6,-1.4,1,-2.5,1.3c.7,.2,1.3,.6,1.6,1.1c.4,.4,.6,.9,.6,1.5c0,.6,-.2,1.1,-.5,1.7c-.3,.5,-.7,1,-1.2,1.3c-.5,.3,-1.1,.5,-1.8,.6c-.5,.1,-1.2,.2,-2.3,.2h-4.4l.1,-.3c.5,-.1,.8,-.1,1,-.2c.2,-.1,.4,-.2,.5,-.4c.1,-.2,.3,-.7,.5,-1.5l2.2,-7.4c.2,-.6,.3,-1,.3,-1.3c0,-.2,-.1,-.4,-.3,-.5c-.1,-.1,-.4,-.2,-.9,-.2c-.1,0,-.2,0,-.3,0Zm1.8,5c.4,0,.7,0,.9,0c1.2,0,2.1,-.2,2.8,-.8c.6,-.5,.9,-1.2,.9,-2c0,-.6,-.2,-1.1,-.6,-1.4c-.4,-.4,-1,-.6,-1.8,-.6c-.2,0,-.5,.1,-.8,.2l-1.4,4.6Zm-1.7,6c.6,.1,1.1,.1,1.5,.1c.9,0,1.7,-.3,2.5,-.8c.7,-.6,1,-1.3,1,-2.3c0,-.7,-.2,-1.3,-.6,-1.7c-.5,-.4,-1.2,-.6,-2.2,-.6c-.2,0,-.4,0,-.7,0l-1.5,5.3Z" class="g4_72"/>
<path fill-rule="evenodd" d="M242.6,738.4l-.9,4h-.3v-1c0,-.4,-.1,-.7,-.2,-1c-.1,-.3,-.3,-.5,-.5,-.7c-.2,-.2,-.5,-.4,-.8,-.5c-.3,-.1,-.7,-.2,-1.1,-.2c-1.1,0,-2,.3,-2.8,.9c-1,.8,-1.8,1.8,-2.4,3.2c-.5,1.1,-.7,2.2,-.7,3.4c0,1.2,.3,2.1,1,2.8c.7,.7,1.6,1,2.7,1c.8,0,1.5,-.1,2.2,-.5c.6,-.4,1.2,-1,1.8,-1.7h.4c-.6,1,-1.4,1.8,-2.2,2.3c-.8,.5,-1.7,.7,-2.8,.7c-1,0,-1.9,-.2,-2.7,-.6c-.7,-.4,-1.3,-1,-1.7,-1.8c-.4,-.7,-.6,-1.5,-.6,-2.4c0,-1.3,.3,-2.6,1,-3.8c.8,-1.3,1.7,-2.3,3,-3c1.2,-.7,2.5,-1.1,3.7,-1.1c.6,0,1.3,.2,2,.4c.3,.2,.6,.2,.7,.2c.1,0,.3,0,.4,-.1c.1,0,.3,-.2,.5,-.5Z" class="g3_72"/>
<path d="M242.6,738.4l-.9,4h-.3v-1c0,-.4,-.1,-.7,-.2,-1c-.1,-.3,-.3,-.5,-.5,-.7c-.2,-.2,-.5,-.4,-.8,-.5c-.3,-.1,-.7,-.2,-1.1,-.2c-1.1,0,-2,.3,-2.8,.9c-1,.8,-1.8,1.8,-2.4,3.2c-.5,1.1,-.7,2.2,-.7,3.4c0,1.2,.3,2.1,1,2.8c.7,.7,1.6,1,2.7,1c.8,0,1.5,-.1,2.2,-.5c.6,-.4,1.2,-1,1.8,-1.7h.4c-.6,1,-1.4,1.8,-2.2,2.3c-.8,.5,-1.7,.7,-2.8,.7c-1,0,-1.9,-.2,-2.7,-.6c-.7,-.4,-1.3,-1,-1.7,-1.8c-.4,-.7,-.6,-1.5,-.6,-2.4c0,-1.3,.3,-2.6,1,-3.8c.8,-1.3,1.7,-2.3,3,-3c1.2,-.7,2.5,-1.1,3.7,-1.1c.6,0,1.3,.2,2,.4c.3,.2,.6,.2,.7,.2c.1,0,.3,0,.4,-.1c.1,0,.3,-.2,.5,-.5h.3Z" class="g4_72"/>
<path fill-rule="evenodd" d="M251.1,817.5l-.9,3.9h-.4v-1c0,-.3,-.1,-.6,-.2,-.9c-.1,-.3,-.3,-.6,-.5,-.8c-.2,-.2,-.5,-.3,-.8,-.4c-.3,-.2,-.7,-.2,-1.1,-.2c-1.1,0,-2,.3,-2.8,.9c-1,.7,-1.8,1.8,-2.4,3.1c-.5,1.1,-.7,2.3,-.7,3.4c0,1.2,.3,2.1,1,2.8c.7,.7,1.6,1.1,2.7,1.1c.8,0,1.6,-.2,2.2,-.6c.7,-.3,1.3,-.9,1.8,-1.7h.4c-.6,1.1,-1.4,1.8,-2.1,2.3c-.8,.5,-1.8,.8,-2.9,.8c-1,0,-1.9,-.2,-2.7,-.6c-.7,-.5,-1.3,-1,-1.7,-1.8c-.4,-.7,-.6,-1.6,-.6,-2.4c0,-1.3,.4,-2.6,1.1,-3.9c.7,-1.2,1.6,-2.2,2.9,-2.9c1.2,-.8,2.5,-1.1,3.7,-1.1c.6,0,1.3,.1,2,.4c.3,.1,.6,.2,.7,.2c.2,0,.3,0,.4,-.1c.1,-.1,.3,-.2,.5,-.5Z" class="g3_72"/>
<path d="M251.1,817.5l-.9,3.9h-.4v-1c0,-.3,-.1,-.6,-.2,-.9c-.1,-.3,-.3,-.6,-.5,-.8c-.2,-.2,-.5,-.3,-.8,-.4c-.3,-.2,-.7,-.2,-1.1,-.2c-1.1,0,-2,.3,-2.8,.9c-1,.7,-1.8,1.8,-2.4,3.1c-.5,1.1,-.7,2.3,-.7,3.4c0,1.2,.3,2.1,1,2.8c.7,.7,1.6,1.1,2.7,1.1c.8,0,1.6,-.2,2.2,-.6c.7,-.3,1.3,-.9,1.8,-1.7h.4c-.6,1.1,-1.4,1.8,-2.1,2.3c-.8,.5,-1.8,.8,-2.9,.8c-1,0,-1.9,-.2,-2.7,-.6c-.7,-.5,-1.3,-1,-1.7,-1.8c-.4,-.7,-.6,-1.6,-.6,-2.4c0,-1.3,.4,-2.6,1.1,-3.9c.7,-1.2,1.6,-2.2,2.9,-2.9c1.2,-.8,2.5,-1.1,3.7,-1.1c.6,0,1.3,.1,2,.4c.3,.1,.6,.2,.7,.2c.2,0,.3,0,.4,-.1c.1,-.1,.3,-.2,.5,-.5h.4Z" class="g4_72"/>
<path fill-rule="evenodd" d="M250.9,832.7l.8,-.4v2.6c0,.1,0,.2,.1,.3c0,0,0,.1,.1,.1c0,0,.1,0,.2,0v.1H251v-.1c.1,0,.2,0,.3,0c0,0,0,-.1,0,-.1c.1,0,.1,-.2,.1,-.3v-1.7c0,-.2,0,-.3,0,-.4c-.1,0,-.1,-.1,-.1,-.1c0,0,-.1,0,-.1,0q-.1,0,-.2,0Z" class="g3_72"/>
<path d="M250.9,832.7l.8,-.4v2.6c0,.1,0,.2,.1,.3c0,0,0,.1,.1,.1c0,0,.1,0,.2,0v.1H251v-.1c.1,0,.2,0,.3,0c0,0,0,-.1,0,-.1c.1,0,.1,-.2,.1,-.3v-1.7c0,-.2,0,-.3,0,-.4c-.1,0,-.1,-.1,-.1,-.1c0,0,-.1,0,-.1,0q-.1,0,-.2,0h-.1Z" class="g4_72"/>
<path d="M244.4,751.3v60.8" class="g2_72"/>
<path fill-rule="evenodd" d="M255.5,780.4l-2.5,8.7c1.1,-1.6,1.9,-2.7,2.6,-3.2c.6,-.6,1.1,-.8,1.7,-.8c.3,0,.5,.1,.7,.2c.2,.2,.3,.5,.3,.8c0,.4,-.1,.9,-.2,1.5l-1.1,3.7c-.2,.5,-.2,.7,-.2,.8q0,.1,0,.2c.1,0,.1,.1,.2,.1c.1,0,.2,-.1,.3,-.2c.3,-.2,.7,-.6,1,-1.1l.3,.2c-.2,.3,-.5,.7,-.9,1.1c-.3,.3,-.7,.6,-.9,.8c-.3,.1,-.5,.2,-.7,.2c-.2,0,-.4,-.1,-.5,-.2c-.2,-.2,-.3,-.4,-.3,-.6c0,-.2,.1,-.7,.4,-1.5l1,-3.5c.1,-.5,.2,-.8,.2,-1.1c0,-.1,-.1,-.2,-.1,-.3c-.1,0,-.2,-.1,-.3,-.1c-.2,0,-.4,.1,-.6,.2c-.4,.3,-.9,.7,-1.4,1.4c-.2,.2,-.6,.9,-1.5,2.2c-.2,.5,-.4,.9,-.6,1.4l-.5,1.9h-1.4l3,-10.3l.3,-1.1c0,-.2,-.1,-.3,-.2,-.4c-.1,-.1,-.3,-.2,-.5,-.2c-.1,0,-.3,0,-.5,.1h-.2v-.4Z" class="g3_72"/>
<path d="M255.5,780.4l-2.5,8.7c1.1,-1.6,1.9,-2.7,2.6,-3.2c.6,-.6,1.1,-.8,1.7,-.8c.3,0,.5,.1,.7,.2c.2,.2,.3,.5,.3,.8c0,.4,-.1,.9,-.2,1.5l-1.1,3.7c-.2,.5,-.2,.7,-.2,.8q0,.1,0,.2c.1,0,.1,.1,.2,.1c.1,0,.2,-.1,.3,-.2c.3,-.2,.7,-.6,1,-1.1l.3,.2c-.2,.3,-.5,.7,-.9,1.1c-.3,.3,-.7,.6,-.9,.8c-.3,.1,-.5,.2,-.7,.2c-.2,0,-.4,-.1,-.5,-.2c-.2,-.2,-.3,-.4,-.3,-.6c0,-.2,.1,-.7,.4,-1.5l1,-3.5c.1,-.5,.2,-.8,.2,-1.1c0,-.1,-.1,-.2,-.1,-.3c-.1,0,-.2,-.1,-.3,-.1c-.2,0,-.4,.1,-.6,.2c-.4,.3,-.9,.7,-1.4,1.4c-.2,.2,-.6,.9,-1.5,2.2c-.2,.5,-.4,.9,-.6,1.4l-.5,1.9h-1.4l3,-10.3l.3,-1.1c0,-.2,-.1,-.3,-.2,-.4c-.1,-.1,-.3,-.2,-.5,-.2c-.1,0,-.3,0,-.5,.1h-.2v-.4l3.1,-.5Z" class="g4_72"/>
<path fill-rule="evenodd" d="M261.1,798.2c-.2,.2,-.3,.3,-.5,.4c-.1,.1,-.3,.1,-.5,.1c-.2,0,-.4,-.1,-.5,-.2c-.1,-.1,-.2,-.3,-.2,-.5c0,-.2,.1,-.4,.2,-.6c.2,-.2,.3,-.4,.5,-.6c.3,-.1,.5,-.2,.7,-.2c.1,0,.3,.1,.3,.1c.1,.1,.2,.2,.2,.3c0,.1,-.1,.2,-.1,.2q-.1,.1,-.2,.1c0,0,-.1,0,-.1,-.1v-.1q0,-.1,.1,-.1q0,-.1,0,-.1q0,-.1,0,-.1q-.1,-.1,-.2,-.1c-.1,0,-.3,.1,-.4,.2c-.2,.1,-.3,.2,-.4,.4c-.1,.3,-.2,.5,-.2,.7c0,.2,.1,.3,.1,.4c.1,.1,.3,.1,.4,.1c.1,0,.2,0,.3,-.1c.2,0,.3,-.1,.4,-.3Z" class="g3_72"/>
<path d="M261.1,798.2c-.2,.2,-.3,.3,-.5,.4c-.1,.1,-.3,.1,-.5,.1c-.2,0,-.4,-.1,-.5,-.2c-.1,-.1,-.2,-.3,-.2,-.5c0,-.2,.1,-.4,.2,-.6c.2,-.2,.3,-.4,.5,-.6c.3,-.1,.5,-.2,.7,-.2c.1,0,.3,.1,.3,.1c.1,.1,.2,.2,.2,.3c0,.1,-.1,.2,-.1,.2q-.1,.1,-.2,.1c0,0,-.1,0,-.1,-.1v-.1q0,-.1,.1,-.1q0,-.1,0,-.1q0,-.1,0,-.1q-.1,-.1,-.2,-.1c-.1,0,-.3,.1,-.4,.2c-.2,.1,-.3,.2,-.4,.4c-.1,.3,-.2,.5,-.2,.7c0,.2,.1,.3,.1,.4c.1,.1,.3,.1,.4,.1c.1,0,.2,0,.3,-.1c.2,0,.3,-.1,.4,-.3l.1,.1Z" class="g4_72"/>
<path fill-rule="evenodd" d="M288.7,827c-.6,.7,-1.2,1.3,-1.9,1.6c-.6,.4,-1.3,.5,-2,.5c-.8,0,-1.5,-.2,-2,-.7c-.4,-.5,-.7,-1.1,-.7,-1.9c0,-.9,.3,-1.8,.8,-2.7c.5,-.9,1.2,-1.6,2.1,-2.1c.8,-.6,1.7,-.9,2.5,-.9c.6,0,1.1,.2,1.4,.4c.4,.3,.5,.6,.5,1c0,.4,-.1,.7,-.3,1c-.2,.2,-.4,.3,-.6,.3c-.2,0,-.4,-.1,-.5,-.2c-.1,-.1,-.2,-.3,-.2,-.4c0,-.2,.1,-.3,.1,-.4c0,-.1,.1,-.2,.3,-.3c.1,-.1,.2,-.2,.2,-.3q.1,-.1,.1,-.2c0,-.1,-.1,-.2,-.2,-.3c-.2,-.1,-.4,-.2,-.7,-.2c-.6,0,-1.2,.2,-1.8,.6c-.5,.5,-1,1,-1.4,1.8c-.5,.9,-.8,1.8,-.8,2.8c0,.6,.2,1,.6,1.4c.3,.4,.8,.5,1.4,.5c.4,0,.9,-.1,1.3,-.3c.5,-.2,1,-.7,1.5,-1.3Z" class="g3_72"/>
<path d="M288.7,827c-.6,.7,-1.2,1.3,-1.9,1.6c-.6,.4,-1.3,.5,-2,.5c-.8,0,-1.5,-.2,-2,-.7c-.4,-.5,-.7,-1.1,-.7,-1.9c0,-.9,.3,-1.8,.8,-2.7c.5,-.9,1.2,-1.6,2.1,-2.1c.8,-.6,1.7,-.9,2.5,-.9c.6,0,1.1,.2,1.4,.4c.4,.3,.5,.6,.5,1c0,.4,-.1,.7,-.3,1c-.2,.2,-.4,.3,-.6,.3c-.2,0,-.4,-.1,-.5,-.2c-.1,-.1,-.2,-.3,-.2,-.4c0,-.2,.1,-.3,.1,-.4c0,-.1,.1,-.2,.3,-.3c.1,-.1,.2,-.2,.2,-.3q.1,-.1,.1,-.2c0,-.1,-.1,-.2,-.2,-.3c-.2,-.1,-.4,-.2,-.7,-.2c-.6,0,-1.2,.2,-1.8,.6c-.5,.5,-1,1,-1.4,1.8c-.5,.9,-.8,1.8,-.8,2.8c0,.6,.2,1,.6,1.4c.3,.4,.8,.5,1.4,.5c.4,0,.9,-.1,1.3,-.3c.5,-.2,1,-.7,1.5,-1.3l.3,.3Z" class="g4_72"/>
<path fill-rule="evenodd" d="M231.1,837.5h28.8V813.6H231.1v23.9Z" class="g5_72"/>
<path fill-rule="evenodd" d="M246.7,802.5h25.6V778.3H246.7v24.2Z" class="g5_72"/>
<path d="M423.8,811.2l54,-61.6m109.4,61.1L423.6,811M587,810.6L477.3,749.8" class="g2_72"/>
<path fill-rule="evenodd" d="M416.7,810.1l-3.5,4.8h3Zm1.8,-2.9l-.9,10.1c-.1,.4,-.1,.7,-.1,.9c0,.2,0,.4,.1,.5c.1,.2,.3,.3,.5,.4c.2,.1,.5,.1,1,.1l-.1,.4h-4.8l.1,-.4h.2c.4,0,.7,0,.9,-.2c.2,-.1,.3,-.3,.4,-.6c.1,-.2,.2,-.6,.2,-1.3l.2,-1.5h-3.5l-1.2,1.7c-.3,.3,-.5,.6,-.6,.8c0,.1,-.1,.3,-.1,.4c0,.2,.1,.4,.3,.5c.1,.2,.4,.2,.7,.2l-.1,.4h-3.6l.1,-.4c.5,0,.9,-.1,1.2,-.4c.3,-.3,.8,-.9,1.5,-1.8l7.3,-9.8Z" class="g3_72"/>
<path d="M416.7,810.1l-3.5,4.8h3l.5,-4.8Zm1.8,-2.9l-.9,10.1c-.1,.4,-.1,.7,-.1,.9c0,.2,0,.4,.1,.5c.1,.2,.3,.3,.5,.4c.2,.1,.5,.1,1,.1l-.1,.4h-4.8l.1,-.4h.2c.4,0,.7,0,.9,-.2c.2,-.1,.3,-.3,.4,-.6c.1,-.2,.2,-.6,.2,-1.3l.2,-1.5h-3.5l-1.2,1.7c-.3,.3,-.5,.6,-.6,.8c0,.1,-.1,.3,-.1,.4c0,.2,.1,.4,.3,.5c.1,.2,.4,.2,.7,.2l-.1,.4h-3.6l.1,-.4c.5,0,.9,-.1,1.2,-.4c.3,-.3,.8,-.9,1.5,-1.8l7.3,-9.8h.3Z" class="g4_72"/>
<g clip-path="url(#c0_72)">
<path fill-rule="evenodd" d="M594.4,819.5c.7,.1,1.2,.1,1.5,.1c1,0,1.8,-.3,2.5,-.8c.7,-.6,1.1,-1.3,1.1,-2.3c0,-.7,-.2,-1.3,-.7,-1.7c-.4,-.4,-1.1,-.6,-2.1,-.6c-.2,0,-.5,0,-.7,0Zm1.8,-6c.4,0,.7,0,.8,0c1.3,0,2.2,-.2,2.8,-.8c.6,-.5,.9,-1.2,.9,-2c0,-.6,-.2,-1.1,-.5,-1.4c-.4,-.4,-1,-.5,-1.8,-.5c-.2,0,-.5,0,-.8,.1Zm-1.8,-5l.1,-.3h4.3c.8,0,1.4,.1,2,.3c.5,.2,1,.5,1.3,.9c.2,.4,.4,.9,.4,1.3c0,.7,-.3,1.4,-.8,1.9c-.5,.6,-1.3,1,-2.4,1.3c.7,.2,1.2,.6,1.6,1.1c.3,.4,.5,.9,.5,1.5c0,.6,-.2,1.1,-.5,1.7c-.3,.5,-.7,1,-1.2,1.3c-.4,.3,-1,.5,-1.7,.6c-.5,.1,-1.3,.2,-2.3,.2h-4.5l.2,-.3c.4,-.1,.7,-.1,.9,-.2c.2,-.1,.4,-.2,.5,-.4c.2,-.2,.3,-.7,.6,-1.5l2.2,-7.4c.1,-.6,.2,-1,.2,-1.3c0,-.2,0,-.4,-.2,-.5c-.2,-.1,-.5,-.2,-.9,-.2c-.1,0,-.2,0,-.3,0Z" class="g3_72"/>
<path d="M594.4,819.5c.7,.1,1.2,.1,1.5,.1c1,0,1.8,-.3,2.5,-.8c.7,-.6,1.1,-1.3,1.1,-2.3c0,-.7,-.2,-1.3,-.7,-1.7c-.4,-.4,-1.1,-.6,-2.1,-.6c-.2,0,-.5,0,-.7,0l-1.6,5.3Zm1.8,-6c.4,0,.7,0,.8,0c1.3,0,2.2,-.2,2.8,-.8c.6,-.5,.9,-1.2,.9,-2c0,-.6,-.2,-1.1,-.5,-1.4c-.4,-.4,-1,-.5,-1.8,-.5c-.2,0,-.5,0,-.8,.1l-1.4,4.6Zm-1.8,-5l.1,-.3h4.3c.8,0,1.4,.1,2,.3c.5,.2,1,.5,1.3,.9c.2,.4,.4,.9,.4,1.3c0,.7,-.3,1.4,-.8,1.9c-.5,.6,-1.3,1,-2.4,1.3c.7,.2,1.2,.6,1.6,1.1c.3,.4,.5,.9,.5,1.5c0,.6,-.2,1.1,-.5,1.7c-.3,.5,-.7,1,-1.2,1.3c-.4,.3,-1,.5,-1.7,.6c-.5,.1,-1.3,.2,-2.3,.2h-4.5l.2,-.3c.4,-.1,.7,-.1,.9,-.2c.2,-.1,.4,-.2,.5,-.4c.2,-.2,.3,-.7,.6,-1.5l2.2,-7.4c.1,-.6,.2,-1,.2,-1.3c0,-.2,0,-.4,-.2,-.5c-.2,-.1,-.5,-.2,-.9,-.2c-.1,0,-.2,0,-.3,0Z" class="g4_72"/>
<path fill-rule="evenodd" d="M491.1,733.9l-.9,4h-.3v-1c-.1,-.4,-.1,-.7,-.3,-1c-.1,-.3,-.2,-.5,-.4,-.7c-.3,-.2,-.5,-.4,-.9,-.5c-.3,-.1,-.6,-.2,-1,-.2c-1.1,0,-2,.3,-2.8,.9c-1.1,.8,-1.9,1.8,-2.4,3.2c-.5,1.1,-.8,2.2,-.8,3.4c0,1.2,.4,2.1,1.1,2.8c.7,.7,1.5,1.1,2.6,1.1c.9,0,1.6,-.2,2.3,-.6c.6,-.4,1.2,-.9,1.8,-1.7h.4c-.7,1,-1.4,1.8,-2.2,2.3c-.8,.5,-1.8,.7,-2.9,.7c-1,0,-1.8,-.2,-2.6,-.6c-.8,-.4,-1.4,-1,-1.7,-1.7c-.5,-.8,-.7,-1.6,-.7,-2.5c0,-1.3,.4,-2.6,1.1,-3.8c.7,-1.3,1.7,-2.3,2.9,-3c1.3,-.7,2.5,-1.1,3.8,-1.1c.6,0,1.2,.2,2,.5c.3,.1,.5,.1,.7,.1c.1,0,.2,0,.3,0c.2,-.1,.3,-.3,.6,-.6Z" class="g3_72"/>
<path d="M491.1,733.9l-.9,4h-.3v-1c-.1,-.4,-.1,-.7,-.3,-1c-.1,-.3,-.2,-.5,-.4,-.7c-.3,-.2,-.5,-.4,-.9,-.5c-.3,-.1,-.6,-.2,-1,-.2c-1.1,0,-2,.3,-2.8,.9c-1.1,.8,-1.9,1.8,-2.4,3.2c-.5,1.1,-.8,2.2,-.8,3.4c0,1.2,.4,2.1,1.1,2.8c.7,.7,1.5,1.1,2.6,1.1c.9,0,1.6,-.2,2.3,-.6c.6,-.4,1.2,-.9,1.8,-1.7h.4c-.7,1,-1.4,1.8,-2.2,2.3c-.8,.5,-1.8,.7,-2.9,.7c-1,0,-1.8,-.2,-2.6,-.6c-.8,-.4,-1.4,-1,-1.7,-1.7c-.5,-.8,-.7,-1.6,-.7,-2.5c0,-1.3,.4,-2.6,1.1,-3.8c.7,-1.3,1.7,-2.3,2.9,-3c1.3,-.7,2.5,-1.1,3.8,-1.1c.6,0,1.2,.2,2,.5c.3,.1,.5,.1,.7,.1c.1,0,.2,0,.3,0c.2,-.1,.3,-.3,.6,-.6h.3Z" class="g4_72"/>
</g>
<path fill-rule="evenodd" d="M502.7,822c-.6,.8,-1.2,1.3,-1.9,1.7c-.6,.3,-1.3,.5,-2,.5c-.8,0,-1.5,-.3,-2,-.7c-.4,-.5,-.7,-1.2,-.7,-2c0,-.9,.3,-1.8,.8,-2.7c.5,-.8,1.2,-1.6,2.1,-2.1c.8,-.6,1.7,-.8,2.5,-.8c.7,0,1.1,.1,1.5,.4c.3,.2,.4,.6,.4,1c0,.3,-.1,.7,-.3,.9c-.2,.2,-.4,.3,-.6,.3c-.2,0,-.4,0,-.5,-.2c-.1,-.1,-.2,-.2,-.2,-.4c0,-.1,.1,-.2,.1,-.3c.1,-.1,.1,-.2,.3,-.4c.1,-.1,.2,-.2,.2,-.3c.1,0,.1,-.1,.1,-.1c0,-.2,-.1,-.3,-.2,-.4c-.2,-.1,-.4,-.1,-.7,-.1c-.6,0,-1.2,.2,-1.8,.6c-.5,.4,-1,1,-1.4,1.7c-.5,1,-.8,1.9,-.8,2.8c0,.6,.2,1.1,.6,1.4c.3,.4,.8,.6,1.4,.6c.4,0,.9,-.1,1.3,-.4c.5,-.2,1,-.6,1.6,-1.2Z" class="g3_72"/>
<path d="M502.7,822c-.6,.8,-1.2,1.3,-1.9,1.7c-.6,.3,-1.3,.5,-2,.5c-.8,0,-1.5,-.3,-2,-.7c-.4,-.5,-.7,-1.2,-.7,-2c0,-.9,.3,-1.8,.8,-2.7c.5,-.8,1.2,-1.6,2.1,-2.1c.8,-.6,1.7,-.8,2.5,-.8c.7,0,1.1,.1,1.5,.4c.3,.2,.4,.6,.4,1c0,.3,-.1,.7,-.3,.9c-.2,.2,-.4,.3,-.6,.3c-.2,0,-.4,0,-.5,-.2c-.1,-.1,-.2,-.2,-.2,-.4c0,-.1,.1,-.2,.1,-.3c.1,-.1,.1,-.2,.3,-.4c.1,-.1,.2,-.2,.2,-.3c.1,0,.1,-.1,.1,-.1c0,-.2,-.1,-.3,-.2,-.4c-.2,-.1,-.4,-.1,-.7,-.1c-.6,0,-1.2,.2,-1.8,.6c-.5,.4,-1,1,-1.4,1.7c-.5,1,-.8,1.9,-.8,2.8c0,.6,.2,1.1,.6,1.4c.3,.4,.8,.6,1.4,.6c.4,0,.9,-.1,1.3,-.4c.5,-.2,1,-.6,1.6,-1.2l.2,.2Z" class="g4_72"/>
<path fill-rule="evenodd" d="M413.9,736.9h5.9l.3,1.8h-.3c-.1,-.4,-.2,-.6,-.3,-.8c-.2,-.2,-.3,-.4,-.5,-.4c-.2,-.1,-.5,-.1,-.9,-.1h-.6v4.7c0,.5,0,.8,.1,1c0,.1,.1,.2,.3,.2c.1,.1,.4,.1,.9,.1v.3h-3.7v-.3c.5,0,.8,-.1,.9,-.2c.2,-.1,.2,-.5,.2,-1.1v-4.7h-.6c-.4,0,-.7,0,-.9,0c-.1,.1,-.3,.2,-.4,.4c-.1,.2,-.3,.5,-.4,.9h-.3Z" class="g3_72"/>
<path d="M413.9,736.9h5.9l.3,1.8h-.3c-.1,-.4,-.2,-.6,-.3,-.8c-.2,-.2,-.3,-.4,-.5,-.4c-.2,-.1,-.5,-.1,-.9,-.1h-.6v4.7c0,.5,0,.8,.1,1c0,.1,.1,.2,.3,.2c.1,.1,.4,.1,.9,.1v.3h-3.7v-.3c.5,0,.8,-.1,.9,-.2c.2,-.1,.2,-.5,.2,-1.1v-4.7h-.6c-.4,0,-.7,0,-.9,0c-.1,.1,-.3,.2,-.4,.4c-.1,.2,-.3,.5,-.4,.9h-.3l.3,-1.8Z" class="g4_72"/>
<path fill-rule="evenodd" d="M423.7,743.1c.3,.1,.6,.1,.8,.1c.6,0,1,-.1,1.3,-.4c.3,-.3,.4,-.6,.4,-1c0,-.4,-.2,-.7,-.4,-1c-.3,-.3,-.8,-.5,-1.3,-.5c-.2,0,-.4,.1,-.8,.1Zm-3.1,-6.2H425v.3c-.5,0,-.8,0,-.9,0c-.1,.1,-.2,.2,-.3,.3c0,0,-.1,.4,-.1,1v1.4h.7c.8,0,1.4,0,1.8,.2c.5,.1,.8,.3,1.1,.6c.2,.3,.3,.7,.3,1.1c0,.6,-.2,1,-.7,1.4c-.5,.3,-1.2,.5,-2.3,.5h-3.2v-.3c.5,0,.7,0,.9,-.2c.1,-.1,.2,-.5,.2,-1.1v-4.7c-.6,0,-1,0,-1.3,.2c-.3,.2,-.5,.6,-.6,1.1h-.3Z" class="g3_72"/>
<path d="M423.7,743.1c.3,.1,.6,.1,.8,.1c.6,0,1,-.1,1.3,-.4c.3,-.3,.4,-.6,.4,-1c0,-.4,-.2,-.7,-.4,-1c-.3,-.3,-.8,-.5,-1.3,-.5c-.2,0,-.4,.1,-.8,.1v2.7Zm-3.1,-6.2H425v.3c-.5,0,-.8,0,-.9,0c-.1,.1,-.2,.2,-.3,.3c0,0,-.1,.4,-.1,1v1.4h.7c.8,0,1.4,0,1.8,.2c.5,.1,.8,.3,1.1,.6c.2,.3,.3,.7,.3,1.1c0,.6,-.2,1,-.7,1.4c-.5,.3,-1.2,.5,-2.3,.5h-3.2v-.3c.5,0,.7,0,.9,-.2c.1,-.1,.2,-.5,.2,-1.1v-4.7c-.6,0,-1,0,-1.3,.2c-.3,.2,-.5,.6,-.6,1.1h-.3l.3,-1.8Z" class="g4_72"/>
<path fill-rule="evenodd" d="M433.7,737.4h-3v4.7c0,.5,0,.8,.1,.9c0,.2,.1,.2,.2,.3c.2,.1,.4,.1,.7,.1v.3h-3.3v-.3c.5,0,.8,0,.9,-.2c.1,-.2,.2,-.5,.2,-1.1v-3.6c0,-.6,-.1,-.9,-.1,-1c-.1,-.1,-.2,-.2,-.3,-.2c-.1,-.1,-.3,-.1,-.7,-.1v-.3h7.5v.3c-.3,0,-.5,0,-.7,.1c-.1,0,-.2,.1,-.2,.2c-.1,.1,-.1,.4,-.1,1v3.6c0,.5,0,.8,.1,.9c0,.2,.1,.2,.2,.3c.1,.1,.4,.1,.7,.1v.3h-3.3v-.3c.4,0,.7,0,.8,-.2c.2,-.1,.3,-.5,.3,-1.1Z" class="g3_72"/>
<path d="M433.7,737.4h-3v4.7c0,.5,0,.8,.1,.9c0,.2,.1,.2,.2,.3c.2,.1,.4,.1,.7,.1v.3h-3.3v-.3c.5,0,.8,0,.9,-.2c.1,-.2,.2,-.5,.2,-1.1v-3.6c0,-.6,-.1,-.9,-.1,-1c-.1,-.1,-.2,-.2,-.3,-.2c-.1,-.1,-.3,-.1,-.7,-.1v-.3h7.5v.3c-.3,0,-.5,0,-.7,.1c-.1,0,-.2,.1,-.2,.2c-.1,.1,-.1,.4,-.1,1v3.6c0,.5,0,.8,.1,.9c0,.2,.1,.2,.2,.3c.1,.1,.4,.1,.7,.1v.3h-3.3v-.3c.4,0,.7,0,.8,-.2c.2,-.1,.3,-.5,.3,-1.1v-4.7Z" class="g4_72"/>
<path fill-rule="evenodd" d="M447.4,743.1c.3,.1,.6,.1,.8,.1c.6,0,1,-.1,1.3,-.4c.3,-.3,.4,-.6,.4,-1c0,-.4,-.1,-.7,-.4,-1c-.3,-.3,-.8,-.5,-1.3,-.5c-.2,0,-.4,.1,-.8,.1Zm-3.1,-6.2h4.4v.3c-.5,0,-.8,0,-.9,0c-.1,.1,-.2,.2,-.2,.3c-.1,0,-.2,.4,-.2,1v1.4h.7c.8,0,1.4,0,1.9,.2c.4,.1,.7,.3,1,.6c.2,.3,.3,.7,.3,1.1c0,.6,-.2,1,-.7,1.4c-.4,.3,-1.2,.5,-2.3,.5h-3.1v-.3c.4,0,.6,0,.8,-.2c.1,-.1,.2,-.5,.2,-1.1v-4.7c-.6,0,-1,0,-1.3,.2c-.2,.2,-.4,.6,-.6,1.1H444Z" class="g3_72"/>
<path d="M447.4,743.1c.3,.1,.6,.1,.8,.1c.6,0,1,-.1,1.3,-.4c.3,-.3,.4,-.6,.4,-1c0,-.4,-.1,-.7,-.4,-1c-.3,-.3,-.8,-.5,-1.3,-.5c-.2,0,-.4,.1,-.8,.1v2.7Zm-3.1,-6.2h4.4v.3c-.5,0,-.8,0,-.9,0c-.1,.1,-.2,.2,-.2,.3c-.1,0,-.2,.4,-.2,1v1.4h.7c.8,0,1.4,0,1.9,.2c.4,.1,.7,.3,1,.6c.2,.3,.3,.7,.3,1.1c0,.6,-.2,1,-.7,1.4c-.4,.3,-1.2,.5,-2.3,.5h-3.1v-.3c.4,0,.6,0,.8,-.2c.1,-.1,.2,-.5,.2,-1.1v-4.7c-.6,0,-1,0,-1.3,.2c-.2,.2,-.4,.6,-.6,1.1H444l.3,-1.8Z" class="g4_72"/>
<path fill-rule="evenodd" d="M457.7,736.9l.3,1.8h-.4c-.1,-.6,-.3,-1,-.5,-1.1c-.2,-.2,-.6,-.2,-1.2,-.2h-1.5v4.7c0,.5,0,.8,.1,.9c.1,.1,.1,.2,.3,.3c.1,.1,.3,.1,.7,.1v.3H452v-.3c.5,0,.8,-.1,1,-.2c.1,-.1,.2,-.5,.2,-1.1v-3.6c0,-.5,0,-.8,-.1,-.9c-.1,-.2,-.1,-.3,-.3,-.3c-.1,-.1,-.4,-.1,-.8,-.1v-.3Z" class="g3_72"/>
<path d="M457.7,736.9l.3,1.8h-.4c-.1,-.6,-.3,-1,-.5,-1.1c-.2,-.2,-.6,-.2,-1.2,-.2h-1.5v4.7c0,.5,0,.8,.1,.9c.1,.1,.1,.2,.3,.3c.1,.1,.3,.1,.7,.1v.3H452v-.3c.5,0,.8,-.1,1,-.2c.1,-.1,.2,-.5,.2,-1.1v-3.6c0,-.5,0,-.8,-.1,-.9c-.1,-.2,-.1,-.3,-.3,-.3c-.1,-.1,-.4,-.1,-.8,-.1v-.3h5.7Z" class="g4_72"/>
<path fill-rule="evenodd" d="M461.6,743.1c.3,.1,.5,.1,.8,.1c.6,0,1,-.1,1.3,-.4c.2,-.3,.4,-.6,.4,-1c0,-.4,-.2,-.7,-.5,-1c-.3,-.3,-.7,-.5,-1.2,-.5c-.2,0,-.4,.1,-.8,.1Zm-3.1,-6.2h4.4v.3c-.5,0,-.8,0,-.9,0c-.1,.1,-.2,.2,-.3,.3c-.1,0,-.1,.4,-.1,1v1.4h.6c.9,0,1.5,0,1.9,.2c.5,.1,.8,.3,1.1,.6c.2,.3,.3,.7,.3,1.1c0,.6,-.2,1,-.7,1.4c-.5,.3,-1.2,.5,-2.3,.5h-3.2v-.3c.4,0,.7,0,.9,-.2c.1,-.1,.2,-.5,.2,-1.1v-4.7c-.6,0,-1.1,0,-1.3,.2c-.3,.2,-.5,.6,-.6,1.1h-.3Z" class="g3_72"/>
<path d="M461.6,743.1c.3,.1,.5,.1,.8,.1c.6,0,1,-.1,1.3,-.4c.2,-.3,.4,-.6,.4,-1c0,-.4,-.2,-.7,-.5,-1c-.3,-.3,-.7,-.5,-1.2,-.5c-.2,0,-.4,.1,-.8,.1v2.7Zm-3.1,-6.2h4.4v.3c-.5,0,-.8,0,-.9,0c-.1,.1,-.2,.2,-.3,.3c-.1,0,-.1,.4,-.1,1v1.4h.6c.9,0,1.5,0,1.9,.2c.5,.1,.8,.3,1.1,.6c.2,.3,.3,.7,.3,1.1c0,.6,-.2,1,-.7,1.4c-.5,.3,-1.2,.5,-2.3,.5h-3.2v-.3c.4,0,.7,0,.9,-.2c.1,-.1,.2,-.5,.2,-1.1v-4.7c-.6,0,-1.1,0,-1.3,.2c-.3,.2,-.5,.6,-.6,1.1h-.3l.3,-1.8Z" class="g4_72"/>
<path fill-rule="evenodd" d="M467.1,736.9h6.2v.3c-.4,0,-.6,0,-.7,.1c-.1,0,-.2,.1,-.3,.2c0,.1,-.1,.4,-.1,1v3.6c0,.5,.1,.8,.1,.9c.1,.1,.1,.2,.3,.3c.1,.1,.3,.1,.7,.1v.3h-3.6v-.3c.4,0,.7,0,.8,0c.2,-.1,.3,-.2,.4,-.3c0,-.2,.1,-.5,.1,-1v-4.7h-2.3v2.8c0,1.1,0,1.9,-.1,2.3c-.1,.5,-.3,.8,-.6,1c-.3,.2,-.6,.3,-1,.3c-.6,0,-.9,-.2,-.9,-.8c0,-.1,0,-.3,.1,-.4c.1,-.1,.2,-.2,.4,-.2c.2,0,.3,.1,.5,.2c.2,.2,.3,.3,.4,.3c.3,0,.4,-.2,.5,-.5c.1,-.4,.2,-1.1,.2,-2v-1.5c0,-.8,-.1,-1.3,-.2,-1.4c-.1,-.2,-.4,-.3,-.9,-.3Z" class="g3_72"/>
<path d="M467.1,736.9h6.2v.3c-.4,0,-.6,0,-.7,.1c-.1,0,-.2,.1,-.3,.2c0,.1,-.1,.4,-.1,1v3.6c0,.5,.1,.8,.1,.9c.1,.1,.1,.2,.3,.3c.1,.1,.3,.1,.7,.1v.3h-3.6v-.3c.4,0,.7,0,.8,0c.2,-.1,.3,-.2,.4,-.3c0,-.2,.1,-.5,.1,-1v-4.7h-2.3v2.8c0,1.1,0,1.9,-.1,2.3c-.1,.5,-.3,.8,-.6,1c-.3,.2,-.6,.3,-1,.3c-.6,0,-.9,-.2,-.9,-.8c0,-.1,0,-.3,.1,-.4c.1,-.1,.2,-.2,.4,-.2c.2,0,.3,.1,.5,.2c.2,.2,.3,.3,.4,.3c.3,0,.4,-.2,.5,-.5c.1,-.4,.2,-1.1,.2,-2v-1.5c0,-.8,-.1,-1.3,-.2,-1.4c-.1,-.2,-.4,-.3,-.9,-.3v-.3Z" class="g4_72"/>
<path fill-rule="evenodd" d="M477.7,749.9L488,756c-4,4.2,-10.7,5.7,-17.1,1.8Z" class="g7_72"/>
<path d="M477.7,749.9L488,756c-4,4.2,-10.7,5.7,-17.1,1.8l6.8,-7.9Zm-2,6l-11.8,-8.6m13.8,3v60.8" class="g2_72"/>
<path fill-rule="evenodd" d="M193.8,1036.6l-3.6,4.9h3.1Zm1.8,-3l-.9,10.2c-.1,.5,-.1,.8,-.1,1c0,.2,0,.4,.1,.5c.1,.2,.3,.3,.5,.4c.2,.1,.5,.1,1,.1l-.1,.4h-4.9l.1,-.4h.2c.4,0,.8,-.1,1,-.2c.2,-.1,.3,-.3,.4,-.6c.1,-.2,.1,-.6,.2,-1.3l.2,-1.6h-3.6l-1.2,1.7c-.3,.4,-.5,.7,-.5,.8c-.1,.2,-.2,.4,-.2,.5c0,.2,.1,.4,.3,.5c.1,.1,.4,.2,.8,.2l-.1,.4h-3.7l.1,-.4c.5,0,.9,-.1,1.2,-.4c.4,-.3,.9,-.9,1.5,-1.8l7.4,-10Z" class="g3_72"/>
<path d="M193.8,1036.6l-3.6,4.9h3.1l.5,-4.9Zm1.8,-3l-.9,10.2c-.1,.5,-.1,.8,-.1,1c0,.2,0,.4,.1,.5c.1,.2,.3,.3,.5,.4c.2,.1,.5,.1,1,.1l-.1,.4h-4.9l.1,-.4h.2c.4,0,.8,-.1,1,-.2c.2,-.1,.3,-.3,.4,-.6c.1,-.2,.1,-.6,.2,-1.3l.2,-1.6h-3.6l-1.2,1.7c-.3,.4,-.5,.7,-.5,.8c-.1,.2,-.2,.4,-.2,.5c0,.2,.1,.4,.3,.5c.1,.1,.4,.2,.8,.2l-.1,.4h-3.7l.1,-.4c.5,0,.9,-.1,1.2,-.4c.4,-.3,.9,-.9,1.5,-1.8l7.4,-10h.3Z" class="g4_72"/>
<path fill-rule="evenodd" d="M300.5,1046.1c.7,.1,1.2,.1,1.6,.1c.9,0,1.7,-.3,2.5,-.8c.7,-.6,1.1,-1.4,1.1,-2.3c0,-.8,-.3,-1.4,-.7,-1.8c-.5,-.4,-1.2,-.6,-2.2,-.6c-.2,0,-.4,0,-.7,0Zm1.8,-6.1c.4,.1,.7,.1,.9,.1c1.2,0,2.1,-.3,2.8,-.9c.6,-.5,.9,-1.2,.9,-2c0,-.6,-.2,-1.1,-.6,-1.5c-.4,-.3,-1,-.5,-1.8,-.5c-.2,0,-.5,.1,-.8,.1Zm-1.8,-5.1l.1,-.3H305c.7,0,1.4,.1,2,.4c.5,.2,1,.5,1.2,.9c.3,.4,.5,.9,.5,1.3c0,.7,-.3,1.4,-.8,1.9c-.5,.6,-1.3,1,-2.5,1.3c.8,.3,1.3,.6,1.7,1.1c.3,.5,.5,1,.5,1.5c0,.6,-.2,1.2,-.5,1.8c-.3,.5,-.7,1,-1.2,1.3c-.5,.3,-1.1,.5,-1.8,.6c-.5,.1,-1.2,.2,-2.3,.2h-4.5l.1,-.3c.5,-.1,.8,-.1,1,-.2c.2,-.1,.4,-.2,.5,-.4c.1,-.2,.3,-.7,.6,-1.6l2.2,-7.4c.2,-.6,.3,-1.1,.3,-1.3c0,-.2,-.1,-.4,-.3,-.6c-.2,-.1,-.5,-.1,-.9,-.1c-.1,0,-.2,0,-.3,-.1Z" class="g3_72"/>
<path d="M300.5,1046.1c.7,.1,1.2,.1,1.6,.1c.9,0,1.7,-.3,2.5,-.8c.7,-.6,1.1,-1.4,1.1,-2.3c0,-.8,-.3,-1.4,-.7,-1.8c-.5,-.4,-1.2,-.6,-2.2,-.6c-.2,0,-.4,0,-.7,0l-1.6,5.4Zm1.8,-6.1c.4,.1,.7,.1,.9,.1c1.2,0,2.1,-.3,2.8,-.9c.6,-.5,.9,-1.2,.9,-2c0,-.6,-.2,-1.1,-.6,-1.5c-.4,-.3,-1,-.5,-1.8,-.5c-.2,0,-.5,.1,-.8,.1l-1.4,4.7Zm-1.8,-5.1l.1,-.3H305c.7,0,1.4,.1,2,.4c.5,.2,1,.5,1.2,.9c.3,.4,.5,.9,.5,1.3c0,.7,-.3,1.4,-.8,1.9c-.5,.6,-1.3,1,-2.5,1.3c.8,.3,1.3,.6,1.7,1.1c.3,.5,.5,1,.5,1.5c0,.6,-.2,1.2,-.5,1.8c-.3,.5,-.7,1,-1.2,1.3c-.5,.3,-1.1,.5,-1.8,.6c-.5,.1,-1.2,.2,-2.3,.2h-4.5l.1,-.3c.5,-.1,.8,-.1,1,-.2c.2,-.1,.4,-.2,.5,-.4c.1,-.2,.3,-.7,.6,-1.6l2.2,-7.4c.2,-.6,.3,-1.1,.3,-1.3c0,-.2,-.1,-.4,-.3,-.6c-.2,-.1,-.5,-.1,-.9,-.1c-.1,0,-.2,0,-.3,-.1Z" class="g4_72"/>
<path fill-rule="evenodd" d="M380.1,913.8l-.9,4h-.3l-.1,-1c0,-.4,-.1,-.7,-.2,-1c-.1,-.3,-.2,-.5,-.5,-.7c-.2,-.3,-.5,-.4,-.8,-.5c-.3,-.2,-.7,-.2,-1.1,-.2c-1.1,0,-2,.3,-2.8,.9c-1.1,.7,-1.9,1.8,-2.5,3.2c-.4,1.1,-.7,2.3,-.7,3.4c0,1.2,.4,2.2,1.1,2.9c.7,.7,1.6,1,2.7,1c.8,0,1.6,-.2,2.2,-.5c.7,-.4,1.3,-1,1.8,-1.8h.5c-.7,1.1,-1.4,1.9,-2.2,2.4c-.9,.5,-1.8,.7,-3,.7c-1,0,-1.8,-.2,-2.6,-.6c-.8,-.4,-1.4,-1,-1.8,-1.8c-.4,-.7,-.6,-1.6,-.6,-2.4c0,-1.4,.4,-2.7,1.1,-3.9c.7,-1.3,1.7,-2.3,2.9,-3c1.3,-.8,2.6,-1.1,3.8,-1.1c.6,0,1.3,.1,2.1,.4c.3,.1,.5,.2,.7,.2c.1,0,.2,0,.3,-.1c.1,-.1,.3,-.2,.6,-.5Z" class="g3_72"/>
<path d="M380.1,913.8l-.9,4h-.3l-.1,-1c0,-.4,-.1,-.7,-.2,-1c-.1,-.3,-.2,-.5,-.5,-.7c-.2,-.3,-.5,-.4,-.8,-.5c-.3,-.2,-.7,-.2,-1.1,-.2c-1.1,0,-2,.3,-2.8,.9c-1.1,.7,-1.9,1.8,-2.5,3.2c-.4,1.1,-.7,2.3,-.7,3.4c0,1.2,.4,2.2,1.1,2.9c.7,.7,1.6,1,2.7,1c.8,0,1.6,-.2,2.2,-.5c.7,-.4,1.3,-1,1.8,-1.8h.5c-.7,1.1,-1.4,1.9,-2.2,2.4c-.9,.5,-1.8,.7,-3,.7c-1,0,-1.8,-.2,-2.6,-.6c-.8,-.4,-1.4,-1,-1.8,-1.8c-.4,-.7,-.6,-1.6,-.6,-2.4c0,-1.4,.4,-2.7,1.1,-3.9c.7,-1.3,1.7,-2.3,2.9,-3c1.3,-.8,2.6,-1.1,3.8,-1.1c.6,0,1.3,.1,2.1,.4c.3,.1,.5,.2,.7,.2c.1,0,.2,0,.3,-.1c.1,-.1,.3,-.2,.6,-.5h.3Z" class="g4_72"/>
<path fill-rule="evenodd" d="M372.3,1034.3l-.9,4h-.3v-1c-.1,-.4,-.1,-.7,-.2,-1c-.1,-.2,-.3,-.5,-.5,-.7c-.2,-.2,-.5,-.4,-.9,-.5c-.3,-.1,-.7,-.2,-1.1,-.2c-1,0,-2,.3,-2.8,.9c-1,.8,-1.8,1.8,-2.4,3.2c-.5,1.2,-.8,2.3,-.8,3.5c0,1.2,.4,2.1,1.1,2.8c.7,.7,1.6,1.1,2.7,1.1c.8,0,1.6,-.2,2.2,-.6c.7,-.4,1.3,-.9,1.9,-1.7h.4c-.7,1.1,-1.4,1.8,-2.2,2.3c-.8,.5,-1.8,.8,-2.9,.8c-1,0,-1.9,-.2,-2.7,-.7c-.8,-.4,-1.4,-1,-1.8,-1.7c-.4,-.8,-.6,-1.6,-.6,-2.5c0,-1.3,.4,-2.6,1.1,-3.9c.7,-1.3,1.7,-2.3,3,-3c1.2,-.7,2.5,-1.1,3.8,-1.1c.6,0,1.2,.2,2,.5c.3,.1,.5,.1,.7,.1c.1,0,.3,0,.4,-.1c.1,0,.3,-.2,.5,-.5Z" class="g3_72"/>
<path d="M372.3,1034.3l-.9,4h-.3v-1c-.1,-.4,-.1,-.7,-.2,-1c-.1,-.2,-.3,-.5,-.5,-.7c-.2,-.2,-.5,-.4,-.9,-.5c-.3,-.1,-.7,-.2,-1.1,-.2c-1,0,-2,.3,-2.8,.9c-1,.8,-1.8,1.8,-2.4,3.2c-.5,1.2,-.8,2.3,-.8,3.5c0,1.2,.4,2.1,1.1,2.8c.7,.7,1.6,1.1,2.7,1.1c.8,0,1.6,-.2,2.2,-.6c.7,-.4,1.3,-.9,1.9,-1.7h.4c-.7,1.1,-1.4,1.8,-2.2,2.3c-.8,.5,-1.8,.8,-2.9,.8c-1,0,-1.9,-.2,-2.7,-.7c-.8,-.4,-1.4,-1,-1.8,-1.7c-.4,-.8,-.6,-1.6,-.6,-2.5c0,-1.3,.4,-2.6,1.1,-3.9c.7,-1.3,1.7,-2.3,3,-3c1.2,-.7,2.5,-1.1,3.8,-1.1c.6,0,1.2,.2,2,.5c.3,.1,.5,.1,.7,.1c.1,0,.3,0,.4,-.1c.1,0,.3,-.2,.5,-.5h.3Z" class="g4_72"/>
<path fill-rule="evenodd" d="M372.2,1049.7l.8,-.4v2.6c0,.2,0,.3,.1,.3q0,.1,0,.1c.1,.1,.2,.1,.3,.1v.1h-1.1v-.1c.1,0,.2,0,.2,-.1q.1,0,.1,-.1c0,0,.1,-.1,.1,-.3v-1.6c0,-.3,0,-.4,-.1,-.5c0,0,0,-.1,0,-.1q-.1,0,-.1,0c-.1,0,-.2,0,-.3,.1Z" class="g3_72"/>
<path d="M372.2,1049.7l.8,-.4v2.6c0,.2,0,.3,.1,.3q0,.1,0,.1c.1,.1,.2,.1,.3,.1v.1h-1.1v-.1c.1,0,.2,0,.2,-.1q.1,0,.1,-.1c0,0,.1,-.1,.1,-.3v-1.6c0,-.3,0,-.4,-.1,-.5c0,0,0,-.1,0,-.1q-.1,0,-.1,0c-.1,0,-.2,0,-.3,.1v-.1Z" class="g4_72"/>
<path fill-rule="evenodd" d="M333.7,1011l1.1,-4.6h.3c-.1,.5,-.1,.8,-.1,1.1c0,.8,.3,1.5,.8,2c.5,.6,1.2,.8,2.1,.8c.8,0,1.4,-.2,1.8,-.7c.4,-.5,.6,-1.1,.6,-1.7c0,-.4,-.1,-.8,-.3,-1.1c-.3,-.5,-1,-1.4,-2.3,-2.7c-.6,-.6,-1,-1,-1.1,-1.3c-.3,-.5,-.4,-1,-.4,-1.6c0,-.8,.3,-1.5,.9,-2.2c.7,-.6,1.5,-.9,2.5,-.9c.3,0,.6,.1,.9,.1c.2,.1,.6,.2,1.1,.4c.3,.1,.5,.2,.5,.2c.1,0,.2,0,.3,0c.2,0,.4,0,.5,-.1c.1,-.1,.3,-.3,.4,-.6h.4l-1,4.1h-.3c0,-.4,.1,-.7,.1,-.9c0,-.7,-.3,-1.3,-.8,-1.8c-.5,-.4,-1.1,-.7,-1.9,-.7c-.6,0,-1.1,.2,-1.5,.6c-.4,.4,-.6,.8,-.6,1.3c0,.4,.1,.8,.4,1.2c.2,.4,.8,1,1.7,1.8c.9,.9,1.5,1.6,1.8,2.1c.2,.5,.4,1,.4,1.5c0,.7,-.2,1.3,-.5,1.8c-.4,.6,-.8,1.1,-1.5,1.4c-.6,.3,-1.2,.5,-2,.5c-.3,0,-.7,-.1,-1,-.1c-.3,-.1,-.8,-.3,-1.5,-.5c-.2,-.1,-.4,-.2,-.6,-.2c-.3,0,-.6,.3,-.8,.8Z" class="g3_72"/>
<path d="M333.7,1011l1.1,-4.6h.3c-.1,.5,-.1,.8,-.1,1.1c0,.8,.3,1.5,.8,2c.5,.6,1.2,.8,2.1,.8c.8,0,1.4,-.2,1.8,-.7c.4,-.5,.6,-1.1,.6,-1.7c0,-.4,-.1,-.8,-.3,-1.1c-.3,-.5,-1,-1.4,-2.3,-2.7c-.6,-.6,-1,-1,-1.1,-1.3c-.3,-.5,-.4,-1,-.4,-1.6c0,-.8,.3,-1.5,.9,-2.2c.7,-.6,1.5,-.9,2.5,-.9c.3,0,.6,.1,.9,.1c.2,.1,.6,.2,1.1,.4c.3,.1,.5,.2,.5,.2c.1,0,.2,0,.3,0c.2,0,.4,0,.5,-.1c.1,-.1,.3,-.3,.4,-.6h.4l-1,4.1h-.3c0,-.4,.1,-.7,.1,-.9c0,-.7,-.3,-1.3,-.8,-1.8c-.5,-.4,-1.1,-.7,-1.9,-.7c-.6,0,-1.1,.2,-1.5,.6c-.4,.4,-.6,.8,-.6,1.3c0,.4,.1,.8,.4,1.2c.2,.4,.8,1,1.7,1.8c.9,.9,1.5,1.6,1.8,2.1c.2,.5,.4,1,.4,1.5c0,.7,-.2,1.3,-.5,1.8c-.4,.6,-.8,1.1,-1.5,1.4c-.6,.3,-1.2,.5,-2,.5c-.3,0,-.7,-.1,-1,-.1c-.3,-.1,-.8,-.3,-1.5,-.5c-.2,-.1,-.4,-.2,-.6,-.2c-.3,0,-.6,.3,-.8,.8h-.4Z" class="g4_72"/>
<path fill-rule="evenodd" d="M345,1015.7l-.2,.6H343v-.1c.5,-.5,.9,-.9,1.1,-1.2c.2,-.3,.3,-.6,.3,-.9c0,-.2,0,-.3,-.1,-.4c-.2,-.2,-.3,-.2,-.5,-.2c-.1,0,-.3,0,-.4,.1c-.1,.1,-.2,.2,-.2,.4h-.1c0,-.3,.1,-.5,.3,-.7c.1,-.1,.3,-.2,.6,-.2c.2,0,.4,.1,.6,.3c.1,.1,.2,.3,.2,.5c0,.2,0,.3,-.1,.5c-.1,.2,-.3,.5,-.5,.8c-.4,.4,-.6,.6,-.7,.7h.8c.1,0,.2,0,.3,0q.1,0,.2,-.1c0,0,.1,-.1,.1,-.1Z" class="g3_72"/>
<path d="M345,1015.7l-.2,.6H343v-.1c.5,-.5,.9,-.9,1.1,-1.2c.2,-.3,.3,-.6,.3,-.9c0,-.2,0,-.3,-.1,-.4c-.2,-.2,-.3,-.2,-.5,-.2c-.1,0,-.3,0,-.4,.1c-.1,.1,-.2,.2,-.2,.4h-.1c0,-.3,.1,-.5,.3,-.7c.1,-.1,.3,-.2,.6,-.2c.2,0,.4,.1,.6,.3c.1,.1,.2,.3,.2,.5c0,.2,0,.3,-.1,.5c-.1,.2,-.3,.5,-.5,.8c-.4,.4,-.6,.6,-.7,.7h.8c.1,0,.2,0,.3,0q.1,0,.2,-.1c0,0,.1,-.1,.1,-.1h.1Z" class="g4_72"/>
<path fill-rule="evenodd" d="M378,974.4l-2.6,8.8c1.1,-1.7,2,-2.8,2.6,-3.3c.6,-.6,1.2,-.8,1.7,-.8c.3,0,.6,.1,.8,.3c.2,.2,.3,.4,.3,.8c0,.4,-.1,.8,-.3,1.4l-1.1,3.8c-.1,.5,-.2,.7,-.2,.8q0,.1,.1,.2c0,0,.1,.1,.1,.1c.1,0,.2,-.1,.3,-.2c.4,-.2,.7,-.6,1,-1.1l.3,.2c-.2,.3,-.5,.7,-.8,1.1c-.4,.3,-.7,.6,-1,.8c-.2,.1,-.5,.2,-.7,.2c-.2,0,-.4,-.1,-.5,-.2c-.2,-.2,-.2,-.4,-.2,-.6c0,-.2,.1,-.7,.3,-1.5l1,-3.6c.2,-.4,.2,-.8,.2,-1.1c0,-.1,0,-.2,-.1,-.3c-.1,0,-.2,-.1,-.3,-.1c-.2,0,-.4,.1,-.6,.2c-.4,.3,-.9,.8,-1.4,1.5c-.2,.1,-.6,.9,-1.5,2.2c-.2,.4,-.4,.9,-.6,1.4l-.6,1.9h-1.3l3,-10.4l.3,-1.1c0,-.2,-.1,-.3,-.2,-.4c-.2,-.2,-.3,-.2,-.5,-.2c-.1,0,-.3,0,-.5,0l-.2,.1v-.4Z" class="g3_72"/>
<path d="M378,974.4l-2.6,8.8c1.1,-1.7,2,-2.8,2.6,-3.3c.6,-.6,1.2,-.8,1.7,-.8c.3,0,.6,.1,.8,.3c.2,.2,.3,.4,.3,.8c0,.4,-.1,.8,-.3,1.4l-1.1,3.8c-.1,.5,-.2,.7,-.2,.8q0,.1,.1,.2c0,0,.1,.1,.1,.1c.1,0,.2,-.1,.3,-.2c.4,-.2,.7,-.6,1,-1.1l.3,.2c-.2,.3,-.5,.7,-.8,1.1c-.4,.3,-.7,.6,-1,.8c-.2,.1,-.5,.2,-.7,.2c-.2,0,-.4,-.1,-.5,-.2c-.2,-.2,-.2,-.4,-.2,-.6c0,-.2,.1,-.7,.3,-1.5l1,-3.6c.2,-.4,.2,-.8,.2,-1.1c0,-.1,0,-.2,-.1,-.3c-.1,0,-.2,-.1,-.3,-.1c-.2,0,-.4,.1,-.6,.2c-.4,.3,-.9,.8,-1.4,1.5c-.2,.1,-.6,.9,-1.5,2.2c-.2,.4,-.4,.9,-.6,1.4l-.6,1.9h-1.3l3,-10.4l.3,-1.1c0,-.2,-.1,-.3,-.2,-.4c-.2,-.2,-.3,-.2,-.5,-.2c-.1,0,-.3,0,-.5,0l-.2,.1v-.4l3.2,-.5Z" class="g4_72"/>
<path fill-rule="evenodd" d="M383.6,992.3c-.2,.2,-.3,.4,-.5,.4c-.2,.1,-.3,.2,-.5,.2c-.2,0,-.4,-.1,-.5,-.2c-.1,-.1,-.2,-.3,-.2,-.5c0,-.2,.1,-.4,.2,-.7c.1,-.2,.3,-.4,.5,-.5c.2,-.2,.5,-.2,.7,-.2c.1,0,.3,0,.3,.1c.1,0,.2,.1,.2,.2c0,.1,-.1,.2,-.1,.3q-.1,0,-.2,0c0,0,-.1,0,-.1,0c0,0,-.1,-.1,-.1,-.1c0,0,.1,-.1,.1,-.1v-.1q.1,0,.1,0q0,-.1,0,-.1c0,0,0,-.1,0,-.1q-.1,0,-.2,0c-.2,0,-.3,0,-.5,.1c-.1,.1,-.2,.3,-.3,.5c-.1,.2,-.2,.4,-.2,.7c0,.1,0,.3,.1,.3c.1,.1,.2,.2,.4,.2c.1,0,.2,0,.3,-.1c.1,-.1,.3,-.2,.4,-.3Z" class="g3_72"/>
<path d="M383.6,992.3c-.2,.2,-.3,.4,-.5,.4c-.2,.1,-.3,.2,-.5,.2c-.2,0,-.4,-.1,-.5,-.2c-.1,-.1,-.2,-.3,-.2,-.5c0,-.2,.1,-.4,.2,-.7c.1,-.2,.3,-.4,.5,-.5c.2,-.2,.5,-.2,.7,-.2c.1,0,.3,0,.3,.1c.1,0,.2,.1,.2,.2c0,.1,-.1,.2,-.1,.3q-.1,0,-.2,0c0,0,-.1,0,-.1,0c0,0,-.1,-.1,-.1,-.1c0,0,.1,-.1,.1,-.1v-.1q.1,0,.1,0q0,-.1,0,-.1c0,0,0,-.1,0,-.1q-.1,0,-.2,0c-.2,0,-.3,0,-.5,.1c-.1,.1,-.2,.3,-.3,.5c-.1,.2,-.2,.4,-.2,.7c0,.1,0,.3,.1,.3c.1,.1,.2,.2,.4,.2c.1,0,.2,0,.3,-.1c.1,-.1,.3,-.2,.4,-.3h.1Z" class="g4_72"/>
<path fill-rule="evenodd" d="M257.3,1042.1c-.6,.8,-1.3,1.3,-1.9,1.7c-.6,.3,-1.3,.5,-2,.5c-.9,0,-1.5,-.2,-2,-.7c-.5,-.5,-.7,-1.1,-.7,-2c0,-.9,.2,-1.8,.7,-2.7c.5,-.9,1.2,-1.6,2.1,-2.2c.9,-.5,1.7,-.8,2.6,-.8c.6,0,1.1,.1,1.5,.4c.3,.3,.4,.6,.4,1c0,.4,-.1,.7,-.3,1c-.2,.2,-.4,.3,-.6,.3c-.2,0,-.4,-.1,-.5,-.2c-.1,-.1,-.2,-.3,-.2,-.4c0,-.2,0,-.3,.1,-.4c0,-.1,.1,-.2,.3,-.3c.1,-.1,.2,-.2,.2,-.3q.1,-.1,.1,-.2c0,-.1,-.1,-.2,-.2,-.3c-.2,-.1,-.4,-.2,-.7,-.2c-.6,0,-1.2,.2,-1.8,.6c-.6,.4,-1.1,1,-1.5,1.8c-.5,.9,-.7,1.9,-.7,2.8c0,.6,.1,1.1,.5,1.5c.3,.3,.8,.5,1.4,.5c.5,0,1,-.1,1.4,-.3c.5,-.3,1,-.7,1.5,-1.3Z" class="g3_72"/>
<path d="M257.3,1042.1c-.6,.8,-1.3,1.3,-1.9,1.7c-.6,.3,-1.3,.5,-2,.5c-.9,0,-1.5,-.2,-2,-.7c-.5,-.5,-.7,-1.1,-.7,-2c0,-.9,.2,-1.8,.7,-2.7c.5,-.9,1.2,-1.6,2.1,-2.2c.9,-.5,1.7,-.8,2.6,-.8c.6,0,1.1,.1,1.5,.4c.3,.3,.4,.6,.4,1c0,.4,-.1,.7,-.3,1c-.2,.2,-.4,.3,-.6,.3c-.2,0,-.4,-.1,-.5,-.2c-.1,-.1,-.2,-.3,-.2,-.4c0,-.2,0,-.3,.1,-.4c0,-.1,.1,-.2,.3,-.3c.1,-.1,.2,-.2,.2,-.3q.1,-.1,.1,-.2c0,-.1,-.1,-.2,-.2,-.3c-.2,-.1,-.4,-.2,-.7,-.2c-.6,0,-1.2,.2,-1.8,.6c-.6,.4,-1.1,1,-1.5,1.8c-.5,.9,-.7,1.9,-.7,2.8c0,.6,.1,1.1,.5,1.5c.3,.3,.8,.5,1.4,.5c.5,0,1,-.1,1.4,-.3c.5,-.3,1,-.7,1.5,-1.3l.3,.2Z" class="g4_72"/>
<path fill-rule="evenodd" d="M364.9,926.8l-64.5,103.7H203.1Z" class="g8_72"/>
<path d="M364.9,926.8l-64.5,103.7H203.1L364.9,926.8Z" class="g9_72"/>
<path d="M364.7,1029.6V926.3m-64.6,104.4H375" class="ga_72"/>
<path fill-rule="evenodd" d="M390.9,982.6h9.8v.7h-9.8v-.7Zm0,-3h9.8v.8h-9.8v-.8Z" class="g3_72"/>
<path d="M390.9,982.6h9.8v.7h-9.8v-.7Zm0,-3h9.8v.8h-9.8v-.8Z" class="g4_72"/>
<path fill-rule="evenodd" d="M411.2,983.1V977l-4.4,6.1Zm3.1,0v1.3h-1.7v3.2h-1.4v-3.2H406v-1.2l5.7,-8.1h.9v8Z" class="g3_72"/>
<path d="M411.2,983.1V977l-4.4,6.1h4.4Zm3.1,0v1.3h-1.7v3.2h-1.4v-3.2H406v-1.2l5.7,-8.1h.9v8h1.7Z" class="g4_72"/>
<path fill-rule="evenodd" d="M341.9,1044.6l-.9,2.4h-7.2v-.3c2.1,-2,3.6,-3.6,4.5,-4.8c.8,-1.2,1.3,-2.4,1.3,-3.4c0,-.8,-.3,-1.4,-.8,-1.9c-.4,-.5,-1,-.8,-1.7,-.8c-.6,0,-1.1,.2,-1.6,.6c-.5,.3,-.8,.8,-1.1,1.5h-.3c.2,-1.1,.6,-1.9,1.2,-2.5c.6,-.6,1.4,-.9,2.3,-.9c1,0,1.8,.3,2.5,.9c.7,.7,1,1.4,1,2.3c0,.6,-.1,1.2,-.4,1.8c-.5,1,-1.2,2.1,-2.2,3.2c-1.5,1.6,-2.4,2.6,-2.8,2.9h3.2c.6,0,1.1,0,1.4,0c.2,-.1,.5,-.2,.7,-.3c.2,-.2,.4,-.4,.5,-.7Z" class="g3_72"/>
<path d="M341.9,1044.6l-.9,2.4h-7.2v-.3c2.1,-2,3.6,-3.6,4.5,-4.8c.8,-1.2,1.3,-2.4,1.3,-3.4c0,-.8,-.3,-1.4,-.8,-1.9c-.4,-.5,-1,-.8,-1.7,-.8c-.6,0,-1.1,.2,-1.6,.6c-.5,.3,-.8,.8,-1.1,1.5h-.3c.2,-1.1,.6,-1.9,1.2,-2.5c.6,-.6,1.4,-.9,2.3,-.9c1,0,1.8,.3,2.5,.9c.7,.7,1,1.4,1,2.3c0,.6,-.1,1.2,-.4,1.8c-.5,1,-1.2,2.1,-2.2,3.2c-1.5,1.6,-2.4,2.6,-2.8,2.9h3.2c.6,0,1.1,0,1.4,0c.2,-.1,.5,-.2,.7,-.3c.2,-.2,.4,-.4,.5,-.7h.4Z" class="g4_72"/>
<path fill-rule="evenodd" d="M283.2,1010.7l1,-4.5h.3c-.1,.4,-.1,.8,-.1,1.1c0,.8,.3,1.5,.8,2c.5,.5,1.2,.8,2.1,.8c.8,0,1.4,-.3,1.8,-.8c.4,-.5,.6,-1,.6,-1.7c0,-.4,-.1,-.7,-.3,-1.1c-.3,-.5,-1,-1.4,-2.2,-2.6c-.6,-.6,-1,-1.1,-1.2,-1.4c-.3,-.5,-.4,-1,-.4,-1.5c0,-.9,.3,-1.6,.9,-2.2c.7,-.6,1.5,-.9,2.5,-.9c.3,0,.7,0,1,.1c.2,0,.5,.1,1,.3c.3,.2,.5,.2,.6,.3c.1,0,.2,0,.3,0c.1,0,.3,-.1,.4,-.2c.1,0,.3,-.2,.5,-.5h.3l-.9,4h-.4c.1,-.3,.1,-.6,.1,-.8c0,-.8,-.3,-1.4,-.7,-1.8c-.5,-.5,-1.2,-.7,-2,-.7c-.6,0,-1.1,.2,-1.5,.5c-.4,.4,-.6,.8,-.6,1.3c0,.4,.2,.8,.4,1.2c.3,.4,.8,1,1.7,1.9c.9,.9,1.5,1.5,1.8,2c.3,.5,.4,1,.4,1.6c0,.6,-.2,1.2,-.5,1.8c-.3,.6,-.8,1,-1.4,1.3c-.6,.4,-1.3,.5,-2,.5c-.4,0,-.7,0,-1.1,-.1c-.3,-.1,-.8,-.2,-1.5,-.5c-.2,-.1,-.4,-.1,-.6,-.1c-.3,0,-.6,.2,-.8,.7Z" class="g3_72"/>
<path d="M283.2,1010.7l1,-4.5h.3c-.1,.4,-.1,.8,-.1,1.1c0,.8,.3,1.5,.8,2c.5,.5,1.2,.8,2.1,.8c.8,0,1.4,-.3,1.8,-.8c.4,-.5,.6,-1,.6,-1.7c0,-.4,-.1,-.7,-.3,-1.1c-.3,-.5,-1,-1.4,-2.2,-2.6c-.6,-.6,-1,-1.1,-1.2,-1.4c-.3,-.5,-.4,-1,-.4,-1.5c0,-.9,.3,-1.6,.9,-2.2c.7,-.6,1.5,-.9,2.5,-.9c.3,0,.7,0,1,.1c.2,0,.5,.1,1,.3c.3,.2,.5,.2,.6,.3c.1,0,.2,0,.3,0c.1,0,.3,-.1,.4,-.2c.1,0,.3,-.2,.5,-.5h.3l-.9,4h-.4c.1,-.3,.1,-.6,.1,-.8c0,-.8,-.3,-1.4,-.7,-1.8c-.5,-.5,-1.2,-.7,-2,-.7c-.6,0,-1.1,.2,-1.5,.5c-.4,.4,-.6,.8,-.6,1.3c0,.4,.2,.8,.4,1.2c.3,.4,.8,1,1.7,1.9c.9,.9,1.5,1.5,1.8,2c.3,.5,.4,1,.4,1.6c0,.6,-.2,1.2,-.5,1.8c-.3,.6,-.8,1,-1.4,1.3c-.6,.4,-1.3,.5,-2,.5c-.4,0,-.7,0,-1.1,-.1c-.3,-.1,-.8,-.2,-1.5,-.5c-.2,-.1,-.4,-.1,-.6,-.1c-.3,0,-.6,.2,-.8,.7h-.3Z" class="g4_72"/>
<path d="M205.2,1057.9H363.5" class="g9_72"/>
<path d="M358.5,1053.9l6.2,4l-6.2,3.9m-148.4,-7.9l-6.1,4l6.1,3.9" class="gb_72"/>
<path fill-rule="evenodd" d="M274.7,1048.4h17.8v20.7H274.7v-20.7Z" class="g5_72"/>
<path d="M274.7,1048.4h17.8v20.7H274.7v-20.7Z" class="gc_72"/>
<path fill-rule="evenodd" d="M283.1,1051.4h6.6v.3l-4.1,12.2h-1l3.6,-11.1h-3.3c-.7,0,-1.2,.1,-1.5,.3c-.5,.3,-.9,.7,-1.2,1.3l-.3,-.1Z" class="g3_72"/>
<path d="M283.1,1051.4h6.6v.3l-4.1,12.2h-1l3.6,-11.1h-3.3c-.7,0,-1.2,.1,-1.5,.3c-.5,.3,-.9,.7,-1.2,1.3l-.3,-.1l1.2,-2.9Z" class="g4_72"/>
<path fill-rule="evenodd" d="M356.7,1055.4h28.8v-21.2H356.7v21.2Z" class="g5_72"/>
<path fill-rule="evenodd" d="M326.3,1019.5h28.8V995.2H326.3v24.3Z" class="g5_72"/>
<path fill-rule="evenodd" d="M370.3,995.7h47.2v-25H370.3v25Z" class="g5_72"/>
<path d="M73.9,167.1H836.1M73.9,846H836.1" class="gd_72"/>
<path d="M660.6,759.6H672m-11.4,37.7H672" class="g1_72"/>
<path d="M0,138.7H120.6V0H0V138.7Z" class="g0_72"/>
<path d="M184.8,654.4h651V457h-651V654.4Z" class="ge_72"/>
<path d="M254.1,536.4h14.7m76.3,0h14.7M237.7,578.9h14.8m-14.8,42.6h14.8m120.4,0h14.7" class="g1_72"/>
<path d="M135.8,494.4h39.7V457H135.8v37.4Z" class="gf_72"/>
<path clip-path="url(#c1_72)" d="M156.1,479.5c-2.1,.2,-3.8,-1.5,-3.6,-3.6c.1,-1.7,1.5,-3.1,3.2,-3.2c2,-.1,3.7,1.6,3.6,3.6c-.1,1.8,-1.5,3.1,-3.2,3.2m.2,3c-3.8,.2,-7,-3,-6.8,-6.8c.2,-3.1,2.8,-5.7,6,-5.9c3.8,-.3,7,2.9,6.7,6.7c-.2,3.2,-2.8,5.8,-5.9,6m-.4,-15.4c-5.8,0,-11,3.2,-14.9,8.3c-.3,.4,-.3,1,0,1.4c3.9,5.2,9.1,8.3,14.9,8.3c5.7,0,11,-3.1,14.8,-8.3c.4,-.4,.4,-1,0,-1.4c-3.8,-5.1,-9.1,-8.3,-14.8,-8.3Z" class="g5_72"/>
<path d="M575.9,536.3h14.8m-14.8,42.5h14.8M464.6,976.3H476m-11.4,37.8H476" class="g1_72"/>
</svg>