<?xml version="1.0" encoding="UTF-8" standalone="no"?>
<!DOCTYPE svg PUBLIC "-//W3C//DTD SVG 1.1//EN"
"http://www.w3.org/Graphics/SVG/1.1/DTD/svg11.dtd">
<svg viewBox="0 0 909 1147" version="1.1" xmlns="http://www.w3.org/2000/svg" xmlns:xlink="http://www.w3.org/1999/xlink">
<defs>
<clipPath id="c0_140"><path d="M0,1147.6V0H909.4V1147.6Z"/></clipPath>
<style type="text/css"><![CDATA[
.g0_140{
fill: #DCE5C9;
}
.g1_140{
fill: none;
stroke: #0EA5DF;
stroke-width: 0.763;
stroke-miterlimit: 10;
}
.g2_140{
fill: #FFF0E3;
}
.g3_140{
fill: #D5DFBD;
}
.g4_140{
fill: none;
stroke: #ABE1FA;
stroke-width: 0.687;
stroke-miterlimit: 10;
}
.g5_140{
fill: none;
stroke: #000;
stroke-width: 0.687;
}
]]></style>
</defs>
<path d="M0,1131H73.8v-51.5H0V1131Z" class="g0_140"/>
<path d="M563,360.5h77.5M563.3,385V360.8m77.2,-.3h47.7M640.5,385V360.8m47.7,-.3h47.6M688.2,385V360.8m47.6,-.3h47.6M735.8,385V360.8m47.6,-.3h48.1M783.4,385V360.8M831.1,385V360.8M563,385.4h77.5M563.3,410V385.8m77.2,-.4h47.7M640.5,410V385.8m47.7,-.4h47.6M688.2,410V385.8m47.6,-.4h47.6M735.8,410V385.8m47.6,-.4h48.1M783.4,410V385.8M831.1,410V385.8M563,410.3h77.5m-77.2,24.6V410.7m77.2,-.4h47.7m-47.7,24.6V410.7m47.7,-.4h47.6m-47.6,24.6V410.7m47.6,-.4h47.6m-47.6,24.6V410.7m47.6,-.4h48.1m-48.1,24.6V410.7m47.7,24.2V410.7M563,435.3h77.5m-77.2,24.6V435.7m77.2,-.4h47.7m-47.7,24.6V435.7m47.7,-.4h47.6m-47.6,24.6V435.7m47.6,-.4h47.6m-47.6,24.6V435.7m47.6,-.4h48.1m-48.1,24.6V435.7m47.7,24.2V435.7M563,460.2h77.5m-77.2,24.6V460.6m77.2,-.4h47.7m-47.7,24.6V460.6m47.7,-.4h47.6m-47.6,24.6V460.6m47.6,-.4h47.6m-47.6,24.6V460.6m47.6,-.4h48.1m-48.1,24.6V460.6m47.7,24.2V460.6M563,485.2h77.5m-77.2,24.6V485.6m77.2,-.4h47.7m-47.7,24.6V485.6m47.7,-.4h47.6m-47.6,24.6V485.6m47.6,-.4h47.6m-47.6,24.6V485.6m47.6,-.4h48.1m-48.1,24.6V485.6m47.7,24.2V485.6M563,510.1h77.5m-77.2,24.6V510.5m77.2,-.4h47.7m-47.7,24.6V510.5m47.7,-.4h47.6m-47.6,24.6V510.5m47.6,-.4h47.6m-47.6,24.6V510.5m47.6,-.4h48.1m-48.1,24.6V510.5m47.7,24.2V510.5M563,535.1h77.5m-77.2,24.6V535.5m77.2,-.4h47.7m-47.7,24.6V535.5m47.7,-.4h47.6m-47.6,24.6V535.5m47.6,-.4h47.6m-47.6,24.6V535.5m47.6,-.4h48.1m-48.1,24.6V535.5m47.7,24.2V535.5M563,560h77.5m-77.2,24.6V560.4m77.2,-.4h47.7m-47.7,24.6V560.4m47.7,-.4h47.6m-47.6,24.6V560.4m47.6,-.4h47.6m-47.6,24.6V560.4m47.6,-.4h48.1m-48.1,24.6V560.4m47.7,24.2V560.4M563,585h77.5m-77.2,24.6V585.4m77.2,-.4h47.7m-47.7,24.6V585.4m47.7,-.4h47.6m-47.6,24.6V585.4m47.6,-.4h47.6m-47.6,24.6V585.4m47.6,-.4h48.1m-48.1,24.6V585.4m47.7,24.2V585.4M563,609.9h77.5m0,0h47.7m0,0h47.6m0,0h47.6m0,0h48.1" class="g1_140"/>
<path d="M0,138.7H120.2V0H0V138.7Z" class="g3_140"/>
<g clip-path="url(#c0_140)" opacity="0.5">
<path d="M276,380.3L244.4,334.5l63.2,-47.7l77.5,46.7Z" class="g2_140"/>
</g>
<path d="M228.4,271.1h16m-15.6,15.2V271.4m15.6,-.3H260m-15.6,15.2V271.4m15.6,-.3h15.6M260,286.3V271.4m15.6,-.3h15.5m-15.5,15.2V271.4m15.5,-.3h15.6m-15.6,15.2V271.4m15.6,-.3h15.6m-15.6,15.2V271.4m15.6,-.3h15.6m-15.6,15.2V271.4m15.6,-.3h15.6m-15.6,15.2V271.4m15.6,-.3h15.6m-15.6,15.2V271.4m15.6,-.3h15.6m-15.6,15.2V271.4m15.6,-.3h15.9m-15.9,15.2V271.4m15.6,14.9V271.4M228.4,286.7h16m-15.6,15.2V287m15.6,-.3H260m-15.6,15.2V287m15.6,-.3h15.6M260,301.9V287m15.6,-.3h15.5m-15.5,15.2V287m15.5,-.3h15.6m-15.6,15.2V287m15.6,-.3h15.6m-15.6,15.2V287m15.6,-.3h15.6m-15.6,15.2V287m15.6,-.3h15.6m-15.6,15.2V287m15.6,-.3h15.6m-15.6,15.2V287m15.6,-.3h15.6m-15.6,15.2V287m15.6,-.3h15.9m-15.9,15.2V287m15.6,14.9V287M228.4,302.3h16m-15.6,15.2V302.6m15.6,-.3H260m-15.6,15.2V302.6m15.6,-.3h15.6M260,317.5V302.6m15.6,-.3h15.5m-15.5,15.2V302.6m15.5,-.3h15.6m-15.6,15.2V302.6m15.6,-.3h15.6m-15.6,15.2V302.6m15.6,-.3h15.6m-15.6,15.2V302.6m15.6,-.3h15.6m-15.6,15.2V302.6m15.6,-.3h15.6m-15.6,15.2V302.6m15.6,-.3h15.6m-15.6,15.2V302.6m15.6,-.3h15.9m-15.9,15.2V302.6m15.6,14.9V302.6M228.4,317.9h16m-15.6,15.2V318.2m15.6,-.3H260m-15.6,15.2V318.2m15.6,-.3h15.6M260,333.1V318.2m15.6,-.3h15.5m-15.5,15.2V318.2m15.5,-.3h15.6m-15.6,15.2V318.2m15.6,-.3h15.6m-15.6,15.2V318.2m15.6,-.3h15.6m-15.6,15.2V318.2m15.6,-.3h15.6m-15.6,15.2V318.2m15.6,-.3h15.6m-15.6,15.2V318.2m15.6,-.3h15.6m-15.6,15.2V318.2m15.6,-.3h15.9m-15.9,15.2V318.2m15.6,14.9V318.2M228.4,333.5h16m-15.6,15.2V333.8m15.6,-.3H260m-15.6,15.2V333.8m15.6,-.3h15.6M260,348.7V333.8m15.6,-.3h15.5m-15.5,15.2V333.8m15.5,-.3h15.6m-15.6,15.2V333.8m15.6,-.3h15.6m-15.6,15.2V333.8m15.6,-.3h15.6m-15.6,15.2V333.8m15.6,-.3h15.6m-15.6,15.2V333.8m15.6,-.3h15.6m-15.6,15.2V333.8m15.6,-.3h15.6m-15.6,15.2V333.8m15.6,-.3h15.9m-15.9,15.2V333.8m15.6,14.9V333.8M228.4,349h16m-15.6,15.3V349.4m15.6,-.4H260m-15.6,15.3V349.4M260,349h15.6M260,364.3V349.4m15.6,-.4h15.5m-15.5,15.3V349.4m15.5,-.4h15.6m-15.6,15.3V349.4m15.6,-.4h15.6m-15.6,15.3V349.4m15.6,-.4h15.6m-15.6,15.3V349.4m15.6,-.4h15.6m-15.6,15.3V349.4m15.6,-.4h15.6m-15.6,15.3V349.4m15.6,-.4h15.6m-15.6,15.3V349.4m15.6,-.4h15.9m-15.9,15.3V349.4m15.6,14.9V349.4M228.4,364.6h16m-15.6,15.3V365m15.6,-.4H260m-15.6,15.3V365m15.6,-.4h15.6M260,379.9V365m15.6,-.4h15.5m-15.5,15.3V365m15.5,-.4h15.6m-15.6,15.3V365m15.6,-.4h15.6m-15.6,15.3V365m15.6,-.4h15.6m-15.6,15.3V365m15.6,-.4h15.6m-15.6,15.3V365m15.6,-.4h15.6m-15.6,15.3V365m15.6,-.4h15.6m-15.6,15.3V365m15.6,-.4h15.9m-15.9,15.3V365m15.6,14.9V365M228.4,380.2h16m-15.6,15.3V380.6m15.6,-.4H260m-15.6,15.3V380.6m15.6,-.4h15.6M260,395.5V380.6m15.6,-.4h15.5m-15.5,15.3V380.6m15.5,-.4h15.6m-15.6,15.3V380.6m15.6,-.4h15.6m-15.6,15.3V380.6m15.6,-.4h15.6m-15.6,15.3V380.6m15.6,-.4h15.6m-15.6,15.3V380.6m15.6,-.4h15.6m-15.6,15.3V380.6m15.6,-.4h15.6m-15.6,15.3V380.6m15.6,-.4h15.9m-15.9,15.3V380.6m15.6,14.9V380.6M228.4,395.8h16m0,0H260m0,0h15.6m0,0h15.5m0,0h15.6m0,0h15.6m0,0h15.6m0,0h15.6m0,0h15.6m0,0h15.6m0,0h15.9" class="g4_140"/>
<path d="M275.4,380.2l-31,-46.7l62.4,-46.3l77.9,46.3L275.4,380.2Z" class="g5_140"/>
<g clip-path="url(#c0_140)" opacity="0.5">
<path d="M244.8,473.8l-.8,-16l63.6,-31.2l76.7,31.2l-77.9,62.4Z" class="g2_140"/>
</g>
<path d="M228.4,410.9h16m-15.6,15.3V411.3m15.6,-.4H260m-15.6,15.3V411.3m15.6,-.4h15.6M260,426.2V411.3m15.6,-.4h15.5m-15.5,15.3V411.3m15.5,-.4h15.6m-15.6,15.3V411.3m15.6,-.4h15.6m-15.6,15.3V411.3m15.6,-.4h15.6m-15.6,15.3V411.3m15.6,-.4h15.6m-15.6,15.3V411.3m15.6,-.4h15.6m-15.6,15.3V411.3m15.6,-.4h15.6m-15.6,15.3V411.3m15.6,-.4h15.9m-15.9,15.3V411.3m15.6,14.9V411.3M228.4,426.5h16m-15.6,15.3V426.9m15.6,-.4H260m-15.6,15.3V426.9m15.6,-.4h15.6M260,441.8V426.9m15.6,-.4h15.5m-15.5,15.3V426.9m15.5,-.4h15.6m-15.6,15.3V426.9m15.6,-.4h15.6m-15.6,15.3V426.9m15.6,-.4h15.6m-15.6,15.3V426.9m15.6,-.4h15.6m-15.6,15.3V426.9m15.6,-.4h15.6m-15.6,15.3V426.9m15.6,-.4h15.6m-15.6,15.3V426.9m15.6,-.4h15.9m-15.9,15.3V426.9m15.6,14.9V426.9M228.4,442.1h16m-15.6,15.3v-15m15.6,-.3H260m-15.6,15.3v-15m15.6,-.3h15.6M260,457.4v-15m15.6,-.3h15.5m-15.5,15.3v-15m15.5,-.3h15.6m-15.6,15.3v-15m15.6,-.3h15.6m-15.6,15.3v-15m15.6,-.3h15.6m-15.6,15.3v-15m15.6,-.3h15.6m-15.6,15.3v-15m15.6,-.3h15.6m-15.6,15.3v-15m15.6,-.3h15.6m-15.6,15.3v-15m15.6,-.3h15.9m-15.9,15.3v-15m15.6,15v-15M228.4,457.7h16m-15.6,15.2V458m15.6,-.3H260m-15.6,15.2V458m15.6,-.3h15.6M260,472.9V458m15.6,-.3h15.5m-15.5,15.2V458m15.5,-.3h15.6m-15.6,15.2V458m15.6,-.3h15.6m-15.6,15.2V458m15.6,-.3h15.6m-15.6,15.2V458m15.6,-.3h15.6m-15.6,15.2V458m15.6,-.3h15.6m-15.6,15.2V458m15.6,-.3h15.6m-15.6,15.2V458m15.6,-.3h15.9m-15.9,15.2V458m15.6,14.9V458M228.4,473.3h16m-15.6,15.2V473.6m15.6,-.3H260m-15.6,15.2V473.6m15.6,-.3h15.6M260,488.5V473.6m15.6,-.3h15.5m-15.5,15.2V473.6m15.5,-.3h15.6m-15.6,15.2V473.6m15.6,-.3h15.6m-15.6,15.2V473.6m15.6,-.3h15.6m-15.6,15.2V473.6m15.6,-.3h15.6m-15.6,15.2V473.6m15.6,-.3h15.6m-15.6,15.2V473.6m15.6,-.3h15.6m-15.6,15.2V473.6m15.6,-.3h15.9m-15.9,15.2V473.6m15.6,14.9V473.6M228.4,488.9h16m-15.6,15.2V489.2m15.6,-.3H260m-15.6,15.2V489.2m15.6,-.3h15.6M260,504.1V489.2m15.6,-.3h15.5m-15.5,15.2V489.2m15.5,-.3h15.6m-15.6,15.2V489.2m15.6,-.3h15.6m-15.6,15.2V489.2m15.6,-.3h15.6m-15.6,15.2V489.2m15.6,-.3h15.6m-15.6,15.2V489.2m15.6,-.3h15.6m-15.6,15.2V489.2m15.6,-.3h15.6m-15.6,15.2V489.2m15.6,-.3h15.9m-15.9,15.2V489.2m15.6,14.9V489.2M228.4,504.5h16m-15.6,15.2V504.8m15.6,-.3H260m-15.6,15.2V504.8m15.6,-.3h15.6M260,519.7V504.8m15.6,-.3h15.5m-15.5,15.2V504.8m15.5,-.3h15.6m-15.6,15.2V504.8m15.6,-.3h15.6m-15.6,15.2V504.8m15.6,-.3h15.6m-15.6,15.2V504.8m15.6,-.3h15.6m-15.6,15.2V504.8m15.6,-.3h15.6m-15.6,15.2V504.8m15.6,-.3h15.6m-15.6,15.2V504.8m15.6,-.3h15.9m-15.9,15.2V504.8m15.6,14.9V504.8M228.4,520.1h16m-15.6,15.2V520.4m15.6,-.3H260m-15.6,15.2V520.4m15.6,-.3h15.6M260,535.3V520.4m15.6,-.3h15.5m-15.5,15.2V520.4m15.5,-.3h15.6m-15.6,15.2V520.4m15.6,-.3h15.6m-15.6,15.2V520.4m15.6,-.3h15.6m-15.6,15.2V520.4m15.6,-.3h15.6m-15.6,15.2V520.4m15.6,-.3h15.6m-15.6,15.2V520.4m15.6,-.3h15.6m-15.6,15.2V520.4m15.6,-.3h15.9m-15.9,15.2V520.4m15.6,14.9V520.4M228.4,535.6h16m0,0H260m0,0h15.6m0,0h15.5m0,0h15.6m0,0h15.6m0,0h15.6m0,0h15.6m0,0h15.6m0,0h15.6m0,0h15.9" class="g4_140"/>
<path d="M306.4,520.5l-62,-47.1l-.1,-15.5l63.3,-31.3l77.5,31.2l-78.7,62.7Z" class="g5_140"/>
<g clip-path="url(#c0_140)" opacity="0.5">
<path d="M244.8,610.9L244,564.5l63.6,-.7l76.9,77.9L306.4,610.5Z" class="g2_140"/>
</g>
<path d="M228.4,548.1h16m-15.6,15.2V548.4m15.6,-.3H260m-15.6,15.2V548.4m15.6,-.3h15.6M260,563.3V548.4m15.6,-.3h15.5m-15.5,15.2V548.4m15.5,-.3h15.6m-15.6,15.2V548.4m15.6,-.3h15.6m-15.6,15.2V548.4m15.6,-.3h15.6m-15.6,15.2V548.4m15.6,-.3h15.6m-15.6,15.2V548.4m15.6,-.3h15.6m-15.6,15.2V548.4m15.6,-.3h15.6m-15.6,15.2V548.4m15.6,-.3h15.9m-15.9,15.2V548.4m15.6,14.9V548.4M228.4,563.7h16m-15.6,15.2V564m15.6,-.3H260m-15.6,15.2V564m15.6,-.3h15.6M260,578.9V564m15.6,-.3h15.5m-15.5,15.2V564m15.5,-.3h15.6m-15.6,15.2V564m15.6,-.3h15.6m-15.6,15.2V564m15.6,-.3h15.6m-15.6,15.2V564m15.6,-.3h15.6m-15.6,15.2V564m15.6,-.3h15.6m-15.6,15.2V564m15.6,-.3h15.6m-15.6,15.2V564m15.6,-.3h15.9m-15.9,15.2V564m15.6,14.9V564M228.4,579.3h16m-15.6,15.2V579.6m15.6,-.3H260m-15.6,15.2V579.6m15.6,-.3h15.6M260,594.5V579.6m15.6,-.3h15.5m-15.5,15.2V579.6m15.5,-.3h15.6m-15.6,15.2V579.6m15.6,-.3h15.6m-15.6,15.2V579.6m15.6,-.3h15.6m-15.6,15.2V579.6m15.6,-.3h15.6m-15.6,15.2V579.6m15.6,-.3h15.6m-15.6,15.2V579.6m15.6,-.3h15.6m-15.6,15.2V579.6m15.6,-.3h15.9m-15.9,15.2V579.6m15.6,14.9V579.6M228.4,594.9h16m-15.6,15.2V595.2m15.6,-.3H260m-15.6,15.2V595.2m15.6,-.3h15.6M260,610.1V595.2m15.6,-.3h15.5m-15.5,15.2V595.2m15.5,-.3h15.6m-15.6,15.2V595.2m15.6,-.3h15.6m-15.6,15.2V595.2m15.6,-.3h15.6m-15.6,15.2V595.2m15.6,-.3h15.6m-15.6,15.2V595.2m15.6,-.3h15.6m-15.6,15.2V595.2m15.6,-.3h15.6m-15.6,15.2V595.2m15.6,-.3h15.9m-15.9,15.2V595.2m15.6,14.9V595.2M228.4,610.5h16m-15.6,15.2V610.8m15.6,-.3H260m-15.6,15.2V610.8m15.6,-.3h15.6M260,625.7V610.8m15.6,-.3h15.5m-15.5,15.2V610.8m15.5,-.3h15.6m-15.6,15.2V610.8m15.6,-.3h15.6m-15.6,15.2V610.8m15.6,-.3h15.6m-15.6,15.2V610.8m15.6,-.3h15.6m-15.6,15.2V610.8m15.6,-.3h15.6m-15.6,15.2V610.8m15.6,-.3h15.6m-15.6,15.2V610.8m15.6,-.3h15.9m-15.9,15.2V610.8m15.6,14.9V610.8M228.4,626h16m-15.6,15.3V626.4m15.6,-.4H260m-15.6,15.3V626.4M260,626h15.6M260,641.3V626.4m15.6,-.4h15.5m-15.5,15.3V626.4m15.5,-.4h15.6m-15.6,15.3V626.4m15.6,-.4h15.6m-15.6,15.3V626.4m15.6,-.4h15.6m-15.6,15.3V626.4m15.6,-.4h15.6m-15.6,15.3V626.4m15.6,-.4h15.6m-15.6,15.3V626.4m15.6,-.4h15.6m-15.6,15.3V626.4m15.6,-.4h15.9m-15.9,15.3V626.4m15.6,14.9V626.4M228.4,641.6h16m-15.6,15.3V642m15.6,-.4H260m-15.6,15.3V642m15.6,-.4h15.6M260,656.9V642m15.6,-.4h15.5m-15.5,15.3V642m15.5,-.4h15.6m-15.6,15.3V642m15.6,-.4h15.6m-15.6,15.3V642m15.6,-.4h15.6m-15.6,15.3V642m15.6,-.4h15.6m-15.6,15.3V642m15.6,-.4h15.6m-15.6,15.3V642m15.6,-.4h15.6m-15.6,15.3V642m15.6,-.4h15.9m-15.9,15.3V642m15.6,14.9V642M228.4,657.2h16m0,0H260m0,0h15.6m0,0h15.5m0,0h15.6m0,0h15.6m0,0h15.6m0,0h15.6m0,0h15.6m0,0h15.6m0,0h15.9" class="g4_140"/>
<path d="M307.4,610.5l-63,.1l-.2,-46.5l63.4,-.3l77.3,78.3L307.4,610.5Z" class="g5_140"/>
<g clip-path="url(#c0_140)" opacity="0.5">
<path d="M244.8,750.4L244,688.1l47.4,31.3l15.2,-15.7l.6,-16.2h46.5l-.1,16l31.7,62.1L307,765.4l-15.6,15.9Z" class="g2_140"/>
</g>
<path d="M228.4,672h16m-15.6,15.3V672.4m15.6,-.4H260m-15.6,15.3V672.4M260,672h15.6M260,687.3V672.4m15.6,-.4h15.5m-15.5,15.3V672.4m15.5,-.4h15.6m-15.6,15.3V672.4m15.6,-.4h15.6m-15.6,15.3V672.4m15.6,-.4h15.6m-15.6,15.3V672.4m15.6,-.4h15.6m-15.6,15.3V672.4m15.6,-.4h15.6m-15.6,15.3V672.4m15.6,-.4h15.6m-15.6,15.3V672.4m15.6,-.4h15.9m-15.9,15.3V672.4m15.6,14.9V672.4M228.4,687.6h16m-15.6,15.3V688m15.6,-.4H260m-15.6,15.3V688m15.6,-.4h15.6M260,702.9V688m15.6,-.4h15.5m-15.5,15.3V688m15.5,-.4h15.6m-15.6,15.3V688m15.6,-.4h15.6m-15.6,15.3V688m15.6,-.4h15.6m-15.6,15.3V688m15.6,-.4h15.6m-15.6,15.3V688m15.6,-.4h15.6m-15.6,15.3V688m15.6,-.4h15.6m-15.6,15.3V688m15.6,-.4h15.9m-15.9,15.3V688m15.6,14.9V688M228.4,703.2h16m-15.6,15.3V703.6m15.6,-.4H260m-15.6,15.3V703.6m15.6,-.4h15.6M260,718.5V703.6m15.6,-.4h15.5m-15.5,15.3V703.6m15.5,-.4h15.6m-15.6,15.3V703.6m15.6,-.4h15.6m-15.6,15.3V703.6m15.6,-.4h15.6m-15.6,15.3V703.6m15.6,-.4h15.6m-15.6,15.3V703.6m15.6,-.4h15.6m-15.6,15.3V703.6m15.6,-.4h15.6m-15.6,15.3V703.6m15.6,-.4h15.9m-15.9,15.3V703.6m15.6,14.9V703.6M228.4,718.8h16m-15.6,15.3V719.2m15.6,-.4H260m-15.6,15.3V719.2m15.6,-.4h15.6M260,734.1V719.2m15.6,-.4h15.5m-15.5,15.3V719.2m15.5,-.4h15.6m-15.6,15.3V719.2m15.6,-.4h15.6m-15.6,15.3V719.2m15.6,-.4h15.6m-15.6,15.3V719.2m15.6,-.4h15.6m-15.6,15.3V719.2m15.6,-.4h15.6m-15.6,15.3V719.2m15.6,-.4h15.6m-15.6,15.3V719.2m15.6,-.4h15.9m-15.9,15.3V719.2m15.6,14.9V719.2M228.4,734.4h16m-15.6,15.2V734.7m15.6,-.3H260m-15.6,15.2V734.7m15.6,-.3h15.6M260,749.6V734.7m15.6,-.3h15.5m-15.5,15.2V734.7m15.5,-.3h15.6m-15.6,15.2V734.7m15.6,-.3h15.6m-15.6,15.2V734.7m15.6,-.3h15.6m-15.6,15.2V734.7m15.6,-.3h15.6m-15.6,15.2V734.7m15.6,-.3h15.6m-15.6,15.2V734.7m15.6,-.3h15.6m-15.6,15.2V734.7m15.6,-.3h15.9m-15.9,15.2V734.7m15.6,14.9V734.7M228.4,750h16m-15.6,15.2V750.3m15.6,-.3H260m-15.6,15.2V750.3M260,750h15.6M260,765.2V750.3m15.6,-.3h15.5m-15.5,15.2V750.3m15.5,-.3h15.6m-15.6,15.2V750.3m15.6,-.3h15.6m-15.6,15.2V750.3m15.6,-.3h15.6m-15.6,15.2V750.3m15.6,-.3h15.6m-15.6,15.2V750.3m15.6,-.3h15.6m-15.6,15.2V750.3m15.6,-.3h15.6m-15.6,15.2V750.3m15.6,-.3h15.9m-15.9,15.2V750.3m15.6,14.9V750.3M228.4,765.6h16m-15.6,15.2V765.9m15.6,-.3H260m-15.6,15.2V765.9m15.6,-.3h15.6M260,780.8V765.9m15.6,-.3h15.5m-15.5,15.2V765.9m15.5,-.3h15.6m-15.6,15.2V765.9m15.6,-.3h15.6m-15.6,15.2V765.9m15.6,-.3h15.6m-15.6,15.2V765.9m15.6,-.3h15.6m-15.6,15.2V765.9m15.6,-.3h15.6m-15.6,15.2V765.9m15.6,-.3h15.6m-15.6,15.2V765.9m15.6,-.3h15.9m-15.9,15.2V765.9m15.6,14.9V765.9M228.4,781.2h16m-15.6,15.2V781.5m15.6,-.3H260m-15.6,15.2V781.5m15.6,-.3h15.6M260,796.4V781.5m15.6,-.3h15.5m-15.5,15.2V781.5m15.5,-.3h15.6m-15.6,15.2V781.5m15.6,-.3h15.6m-15.6,15.2V781.5m15.6,-.3h15.6m-15.6,15.2V781.5m15.6,-.3h15.6m-15.6,15.2V781.5m15.6,-.3h15.6m-15.6,15.2V781.5m15.6,-.3h15.6m-15.6,15.2V781.5m15.6,-.3h15.9m-15.9,15.2V781.5m15.6,14.9V781.5M228.4,796.8h16m0,0H260m0,0h15.6m0,0h15.5m0,0h15.6m0,0h15.6m0,0h15.6m0,0h15.6m0,0h15.6m0,0h15.6m0,0h15.9" class="g4_140"/>
<path d="M291.2,781.7L244.4,750.2l-.1,-62.6l47.1,31.5l15.2,-15.4l.2,-16.2h46.9l-.1,15.7l31.1,62.4H306.6l-15.4,16.1Z" class="g5_140"/>
<g clip-path="url(#c0_140)">
<g opacity="0.5">
<path d="M244.3,856l125,.4l15.1,-30.9L244.5,840.9Z" class="g2_140"/>
</g>
<g opacity="0.5">
<path d="M290.5,918.8h47.6l1.4,5.9L293,929.8Z" class="g2_140"/>
</g>
<g opacity="0.5">
<path d="M295.2,929.9L275.7,856.4l-31.2,.4v77.4Z" class="g2_140"/>
</g>
<g opacity="0.5">
<path d="M335.9,925.1L384.4,824.6l.4,94.6Z" class="g2_140"/>
</g>
</g>
<path d="M228.4,809.2h16m-15.6,15.2V809.5m15.6,-.3H260m-15.6,15.2V809.5m15.6,-.3h15.6M260,824.4V809.5m15.6,-.3h15.5m-15.5,15.2V809.5m15.5,-.3h15.6m-15.6,15.2V809.5m15.6,-.3h15.6m-15.6,15.2V809.5m15.6,-.3h15.6m-15.6,15.2V809.5m15.6,-.3h15.6m-15.6,15.2V809.5m15.6,-.3h15.6m-15.6,15.2V809.5m15.6,-.3h15.6m-15.6,15.2V809.5m15.6,-.3h15.9m-15.9,15.2V809.5m15.6,14.9V809.5M228.4,824.8h16M228.8,840V825.1m15.6,-.3H260M244.4,840V825.1m15.6,-.3h15.6M260,840V825.1m15.6,-.3h15.5M275.6,840V825.1m15.5,-.3h15.6M291.1,840V825.1m15.6,-.3h15.6M306.7,840V825.1m15.6,-.3h15.6M322.3,840V825.1m15.6,-.3h15.6M337.9,840V825.1m15.6,-.3h15.6M353.5,840V825.1m15.6,-.3h15.6M369.1,840V825.1m15.6,-.3h15.9M384.7,840V825.1M400.3,840V825.1M228.4,840.4h16m-15.6,15.2V840.7m15.6,-.3H260m-15.6,15.2V840.7m15.6,-.3h15.6M260,855.6V840.7m15.6,-.3h15.5m-15.5,15.2V840.7m15.5,-.3h15.6m-15.6,15.2V840.7m15.6,-.3h15.6m-15.6,15.2V840.7m15.6,-.3h15.6m-15.6,15.2V840.7m15.6,-.3h15.6m-15.6,15.2V840.7m15.6,-.3h15.6m-15.6,15.2V840.7m15.6,-.3h15.6m-15.6,15.2V840.7m15.6,-.3h15.9m-15.9,15.2V840.7m15.6,14.9V840.7M228.4,856h16m-15.6,15.2V856.3m15.6,-.3H260m-15.6,15.2V856.3M260,856h15.6M260,871.2V856.3m15.6,-.3h15.5m-15.5,15.2V856.3m15.5,-.3h15.6m-15.6,15.2V856.3m15.6,-.3h15.6m-15.6,15.2V856.3m15.6,-.3h15.6m-15.6,15.2V856.3m15.6,-.3h15.6m-15.6,15.2V856.3m15.6,-.3h15.6m-15.6,15.2V856.3m15.6,-.3h15.6m-15.6,15.2V856.3m15.6,-.3h15.9m-15.9,15.2V856.3m15.6,14.9V856.3M228.4,871.6h16m-15.6,15.2V871.9m15.6,-.3H260m-15.6,15.2V871.9m15.6,-.3h15.6M260,886.8V871.9m15.6,-.3h15.5m-15.5,15.2V871.9m15.5,-.3h15.6m-15.6,15.2V871.9m15.6,-.3h15.6m-15.6,15.2V871.9m15.6,-.3h15.6m-15.6,15.2V871.9m15.6,-.3h15.6m-15.6,15.2V871.9m15.6,-.3h15.6m-15.6,15.2V871.9m15.6,-.3h15.6m-15.6,15.2V871.9m15.6,-.3h15.9m-15.9,15.2V871.9m15.6,14.9V871.9M228.4,887.2h16m-15.6,15.2V887.5m15.6,-.3H260m-15.6,15.2V887.5m15.6,-.3h15.6M260,902.4V887.5m15.6,-.3h15.5m-15.5,15.2V887.5m15.5,-.3h15.6m-15.6,15.2V887.5m15.6,-.3h15.6m-15.6,15.2V887.5m15.6,-.3h15.6m-15.6,15.2V887.5m15.6,-.3h15.6m-15.6,15.2V887.5m15.6,-.3h15.6m-15.6,15.2V887.5m15.6,-.3h15.6m-15.6,15.2V887.5m15.6,-.3h15.9m-15.9,15.2V887.5m15.6,14.9V887.5M228.4,902.7h16M228.8,918V903.1m15.6,-.4H260M244.4,918V903.1m15.6,-.4h15.6M260,918V903.1m15.6,-.4h15.5M275.6,918V903.1m15.5,-.4h15.6M291.1,918V903.1m15.6,-.4h15.6M306.7,918V903.1m15.6,-.4h15.6M322.3,918V903.1m15.6,-.4h15.6M337.9,918V903.1m15.6,-.4h15.6M353.5,918V903.1m15.6,-.4h15.6M369.1,918V903.1m15.6,-.4h15.9M384.7,918V903.1M400.3,918V903.1M228.4,918.3h16m-15.6,15.3V918.7m15.6,-.4H260m-15.6,15.3V918.7m15.6,-.4h15.6M260,933.6V918.7m15.6,-.4h15.5m-15.5,15.3V918.7m15.5,-.4h15.6m-15.6,15.3V918.7m15.6,-.4h15.6m-15.6,15.3V918.7m15.6,-.4h15.6m-15.6,15.3V918.7m15.6,-.4h15.6m-15.6,15.3V918.7m15.6,-.4h15.6m-15.6,15.3V918.7m15.6,-.4h15.6m-15.6,15.3V918.7m15.6,-.4h15.9m-15.9,15.3V918.7m15.6,14.9V918.7M228.4,933.9h16m-15.6,15.3V934.3m15.6,-.4H260m-15.6,15.3V934.3m15.6,-.4h15.6M260,949.2V934.3m15.6,-.4h15.5m-15.5,15.3V934.3m15.5,-.4h15.6m-15.6,15.3V934.3m15.6,-.4h15.6m-15.6,15.3V934.3m15.6,-.4h15.6m-15.6,15.3V934.3m15.6,-.4h15.6m-15.6,15.3V934.3m15.6,-.4h15.6m-15.6,15.3V934.3m15.6,-.4h15.6m-15.6,15.3V934.3m15.6,-.4h15.9m-15.9,15.3V934.3m15.6,14.9V934.3M228.4,949.5h16m0,0H260m0,0h15.6m0,0h15.5m0,0h15.6m0,0h15.6m0,0h15.6m0,0h15.6m0,0h15.6m0,0h15.6m0,0h15.9" class="g4_140"/>
<path d="M244.5,934.6L384.8,919.2V824.8L244.4,840.6l.1,94Zm46.8,-15.8l46.8,-.4L369.3,856H275.7l15.6,62.8Z" class="g5_140"/>
<g clip-path="url(#c0_140)" opacity="0.5">
<path d="M244,1039.9l31.6,-46.4l78.3,-15.9l30.6,77.7Z" class="g2_140"/>
</g>
<path d="M228.4,961.7h16M228.8,977V962.1m15.6,-.4H260M244.4,977V962.1m15.6,-.4h15.6M260,977V962.1m15.6,-.4h15.5M275.6,977V962.1m15.5,-.4h15.6M291.1,977V962.1m15.6,-.4h15.6M306.7,977V962.1m15.6,-.4h15.6M322.3,977V962.1m15.6,-.4h15.6M337.9,977V962.1m15.6,-.4h15.6M353.5,977V962.1m15.6,-.4h15.6M369.1,977V962.1m15.6,-.4h15.9M384.7,977V962.1M400.3,977V962.1M228.4,977.3h16m-15.6,15.3V977.7m15.6,-.4H260m-15.6,15.3V977.7m15.6,-.4h15.6M260,992.6V977.7m15.6,-.4h15.5m-15.5,15.3V977.7m15.5,-.4h15.6m-15.6,15.3V977.7m15.6,-.4h15.6m-15.6,15.3V977.7m15.6,-.4h15.6m-15.6,15.3V977.7m15.6,-.4h15.6m-15.6,15.3V977.7m15.6,-.4h15.6m-15.6,15.3V977.7m15.6,-.4h15.6m-15.6,15.3V977.7m15.6,-.4h15.9m-15.9,15.3V977.7m15.6,14.9V977.7M228.4,992.9h16m-15.6,15.3V993.3m15.6,-.4H260m-15.6,15.3V993.3m15.6,-.4h15.6M260,1008.2V993.3m15.6,-.4h15.5m-15.5,15.3V993.3m15.5,-.4h15.6m-15.6,15.3V993.3m15.6,-.4h15.6m-15.6,15.3V993.3m15.6,-.4h15.6m-15.6,15.3V993.3m15.6,-.4h15.6m-15.6,15.3V993.3m15.6,-.4h15.6m-15.6,15.3V993.3m15.6,-.4h15.6m-15.6,15.3V993.3m15.6,-.4h15.9m-15.9,15.3V993.3m15.6,14.9V993.3m-171.9,15.2h16m-15.6,15.3v-14.9m15.6,-.4H260m-15.6,15.3v-14.9m15.6,-.4h15.6M260,1023.8v-14.9m15.6,-.4h15.5m-15.5,15.3v-14.9m15.5,-.4h15.6m-15.6,15.3v-14.9m15.6,-.4h15.6m-15.6,15.3v-14.9m15.6,-.4h15.6m-15.6,15.3v-14.9m15.6,-.4h15.6m-15.6,15.3v-14.9m15.6,-.4h15.6m-15.6,15.3v-14.9m15.6,-.4h15.6m-15.6,15.3v-14.9m15.6,-.4h15.9m-15.9,15.3v-14.9m15.6,14.9v-14.9m-171.9,15.2h16m-15.6,15.2v-14.9m15.6,-.3H260m-15.6,15.2v-14.9m15.6,-.3h15.6M260,1039.3v-14.9m15.6,-.3h15.5m-15.5,15.2v-14.9m15.5,-.3h15.6m-15.6,15.2v-14.9m15.6,-.3h15.6m-15.6,15.2v-14.9m15.6,-.3h15.6m-15.6,15.2v-14.9m15.6,-.3h15.6m-15.6,15.2v-14.9m15.6,-.3h15.6m-15.6,15.2v-14.9m15.6,-.3h15.6m-15.6,15.2v-14.9m15.6,-.3h15.9m-15.9,15.2v-14.9m15.6,14.9v-14.9m-171.9,15.3h16m-15.6,15.2V1040m15.6,-.3H260m-15.6,15.2V1040m15.6,-.3h15.6M260,1054.9V1040m15.6,-.3h15.5m-15.5,15.2V1040m15.5,-.3h15.6m-15.6,15.2V1040m15.6,-.3h15.6m-15.6,15.2V1040m15.6,-.3h15.6m-15.6,15.2V1040m15.6,-.3h15.6m-15.6,15.2V1040m15.6,-.3h15.6m-15.6,15.2V1040m15.6,-.3h15.6m-15.6,15.2V1040m15.6,-.3h15.9m-15.9,15.2V1040m15.6,14.9V1040m-171.9,15.3h16m-15.6,15.2v-14.9m15.6,-.3H260m-15.6,15.2v-14.9m15.6,-.3h15.6M260,1070.5v-14.9m15.6,-.3h15.5m-15.5,15.2v-14.9m15.5,-.3h15.6m-15.6,15.2v-14.9m15.6,-.3h15.6m-15.6,15.2v-14.9m15.6,-.3h15.6m-15.6,15.2v-14.9m15.6,-.3h15.6m-15.6,15.2v-14.9m15.6,-.3h15.6m-15.6,15.2v-14.9m15.6,-.3h15.6m-15.6,15.2v-14.9m15.6,-.3h15.9m-15.9,15.2v-14.9m15.6,14.9v-14.9m-171.9,15.3h16m0,0H260m0,0h15.6m0,0h15.5m0,0h15.6m0,0h15.6m0,0h15.6m0,0h15.6m0,0h15.6m0,0h15.6m0,0h15.9" class="g4_140"/>
<path d="M244,1039.9l31.6,-47.1l78,-15.2l31.3,78.1L244,1039.9Z" class="g5_140"/>
</svg>