<?xml version="1.0" encoding="UTF-8" standalone="no"?>
<!DOCTYPE svg PUBLIC "-//W3C//DTD SVG 1.1//EN"
"http://www.w3.org/Graphics/SVG/1.1/DTD/svg11.dtd">
<svg viewBox="0 0 909 1147" version="1.1" xmlns="http://www.w3.org/2000/svg" xmlns:xlink="http://www.w3.org/1999/xlink">
<defs>
<style type="text/css"><![CDATA[
.g0_47{
fill: #FAAF82;
}
.g1_47{
fill: none;
stroke: #000;
stroke-width: 0.763;
}
.g2_47{
fill: none;
stroke: #D82C20;
stroke-width: 0.763;
}
.g3_47{
fill: none;
stroke: #D82C20;
stroke-width: 0.895;
stroke-miterlimit: 10;
}
.g4_47{
fill: none;
stroke: #ED1D24;
stroke-width: 0.895;
stroke-miterlimit: 10;
}
.g5_47{
fill: none;
stroke: #0EA5DF;
stroke-width: 0.763;
}
.g6_47{
fill: #D82C20;
}
]]></style>
</defs>
<path d="M835.8,1129.8h73.6v-51.5H835.8v51.5Z" class="g0_47"/>
<path d="M593.6,887.9h26.2m75.1,0h11.4M563.2,969.1h26.2m135.1,0h26.1m-196.9,81.2h26.1m145.3,0h26.2" class="g1_47"/>
<path d="M246.6,155.3c43.4,11.2,85.8,0,85.8,0" class="g2_47"/>
<path d="M238.9,155h18.4m65,0h18.4" class="g3_47"/>
<path d="M255.6,210.1c44.4,11.2,87.7,0,87.7,0" class="g2_47"/>
<path d="M238.9,210h27.5m65.1,0H359" class="g4_47"/>
<path d="M226.6,118.6c0,0,-18.3,0,-18.3,18.3V237.2c0,0,0,18.4,18.3,18.4H358.1c0,0,18.3,0,18.3,-18.4V136.9c0,0,0,-18.3,-18.3,-18.3H226.6Z" class="g5_47"/>
<path d="M567.7,160h16.5m-14.8,37.2h24.7M576.8,233h26.9" class="g1_47"/>
<path d="M561.7,118.6c0,0,-18.3,0,-18.3,18.3V237.2c0,0,0,18.4,18.3,18.4H693.2c0,0,18.3,0,18.3,-18.4V136.9c0,0,0,-18.3,-18.3,-18.3H561.7Z" class="g5_47"/>
<path d="M562.8,401c4.8,7.2,9.9,2.9,10.3,1.2" class="g2_47"/>
<path d="M574.8,395.2l-5.7,8.5c0,0,4,-1.5,6.8,1.7l-1.1,-10.2Z" class="g6_47"/>
<path d="M610.5,401c4.8,7.2,9.8,2.9,10.2,1.2" class="g2_47"/>
<path d="M622.4,395.2l-5.7,8.5c0,0,4,-1.5,6.9,1.7l-1.2,-10.2Z" class="g6_47"/>
<path d="M562.8,442.7c8,7.5,16.3,3,17,1.2" class="g2_47"/>
<path d="M582.4,437.2l-6.7,7.7c0,0,4.1,-1,6.5,2.6l.2,-10.3Z" class="g6_47"/>
<path d="M619.7,442.7c8,7.5,16.4,3,17.1,1.2" class="g2_47"/>
<path d="M639.4,437.2l-6.8,7.7c0,0,4.2,-1,6.6,2.6l.2,-10.3Z" class="g6_47"/>
<path d="M243.6,386.6c21.7,11.3,42.9,0,42.9,0m40,0c12.6,11.3,24.9,0,24.9,0m-105,50.3c23.7,11.2,46.8,0,46.8,0m44.4,0c18.1,11.2,35.7,0,35.7,0" class="g2_47"/>
<path d="M236.8,386.1h18.3m27.5,0h9.2M238.1,437h18.3m27.5,0h18.3" class="g4_47"/>
<path d="M228.8,357.7c0,0,-18.4,0,-18.4,18.3v75.2c0,0,0,18.3,18.4,18.3H380.6c0,0,18.3,0,18.3,-18.3V376c0,0,0,-18.3,-18.3,-18.3H228.8Zm333.4,0c0,0,-18.3,0,-18.3,18.3v75.2c0,0,0,18.3,18.3,18.3H714c0,0,18.4,0,18.4,-18.3V376c0,0,0,-18.3,-18.4,-18.3H562.2Z" class="g5_47"/>
<path d="M607.3,814.6h26.2m-435.2,11h26.2" class="g1_47"/>
<path d="M562.2,788.6c0,0,-18.3,0,-18.3,18.3v16.3c0,0,0,18.3,18.3,18.3h77.4c0,0,18.3,0,18.3,-18.3V806.9c0,0,0,-18.3,-18.3,-18.3H562.2Zm0,73.6c0,0,-18.3,0,-18.3,18.3v18.9c0,0,0,18.3,18.3,18.3H815.7c0,0,18.3,0,18.3,-18.3V880.5c0,0,0,-18.3,-18.3,-18.3H562.2Zm0,77.9c0,0,-18.3,0,-18.3,18.4v18.8c0,0,0,18.4,18.3,18.4H815.7c0,0,18.3,0,18.3,-18.4V958.5c0,0,0,-18.4,-18.3,-18.4H562.2Zm0,85.2c0,0,-18.3,0,-18.3,18.3v18.9c0,0,0,18.3,18.3,18.3H815.7c0,0,18.3,0,18.3,-18.3v-18.9c0,0,0,-18.3,-18.3,-18.3H562.2Z" class="g5_47"/>
<path d="M268.1,557.6h17.3m257,0h11.4m-244.6,81h26.1m39.5,.1h11.4m21.5,-.1H425m-134.1,65h38.2m20.1,0h26.1m21,0h17.3M567.3,611.4h11.4m23.1,54.2h19.4M610,709.3h19.5M601.3,621.8h19.5" class="g1_47"/>
<path d="M228.8,586.1c0,0,-18.4,0,-18.4,18.3V718.6c0,0,0,18.3,18.4,18.3H429.5c0,0,18.3,0,18.3,-18.3V604.4c0,0,0,-18.3,-18.3,-18.3H228.8Zm331.3,0c0,0,-18.4,0,-18.4,18.3V718.6c0,0,0,18.3,18.4,18.3H715.3c0,0,18.4,0,18.4,-18.3V604.4c0,0,0,-18.3,-18.4,-18.3H560.1Z" class="g5_47"/>
</svg>