<?xml version="1.0" encoding="UTF-8" standalone="no"?>
<!DOCTYPE svg PUBLIC "-//W3C//DTD SVG 1.1//EN"
"http://www.w3.org/Graphics/SVG/1.1/DTD/svg11.dtd">
<svg viewBox="0 0 909 1147" version="1.1" xmlns="http://www.w3.org/2000/svg" xmlns:xlink="http://www.w3.org/1999/xlink">
<defs>
<clipPath id="c0_13"><path d="M141.4,453.5v-18h30.2v18Z"/></clipPath>
<style type="text/css"><![CDATA[
.g0_13{
fill: #FAAF82;
}
.g1_13{
fill: none;
stroke: #0EA5DF;
stroke-width: 3.055;
}
.g2_13{
fill: #E8F1FA;
}
.g3_13{
fill: #FFF1E0;
}
.g4_13{
fill: #0EA5DF;
}
.g5_13{
fill: #FFF;
}
.g6_13{
fill: none;
stroke: #0EA5DF;
stroke-width: 0.763;
}
]]></style>
</defs>
<path d="M835.8,1129.8h73.6v-51.5H835.8v51.5Z" class="g0_13"/>
<path d="M73.6,267H835.8M73.6,66.5H835.8" class="g1_13"/>
<path d="M184.2,1081.1H835.3v-324H184.2v324Z" class="g2_13"/>
<path d="M73.1,758H836.4" class="g1_13"/>
<path d="M185.4,539.5h651V425.4h-651V539.5Z" class="g3_13"/>
<path d="M136.4,462.9h39.7V425.4H136.4v37.5Z" class="g4_13"/>
<path clip-path="url(#c0_13)" d="M156.7,448c-2.1,.1,-3.8,-1.6,-3.7,-3.6c.1,-1.7,1.5,-3.1,3.2,-3.2c2.1,-.2,3.8,1.5,3.7,3.6c-.1,1.7,-1.5,3.1,-3.2,3.2m.2,2.9c-3.9,.3,-7,-2.9,-6.8,-6.7c.2,-3.2,2.8,-5.8,5.9,-6c3.9,-.2,7,3,6.8,6.8c-.2,3.2,-2.8,5.7,-5.9,5.9m-.4,-15.3c-5.8,0,-11,3.1,-14.9,8.3c-.3,.4,-.3,1,0,1.4c3.9,5.1,9.1,8.3,14.9,8.3c5.7,0,11,-3.2,14.8,-8.3c.3,-.4,.3,-1,0,-1.4c-3.8,-5.2,-9.1,-8.3,-14.8,-8.3Z" class="g5_13"/>
<path d="M586.5,462.2c0,0,-16.8,0,-16.8,16.8v3.4c0,0,0,16.8,16.8,16.8H771.2c0,0,16.8,0,16.8,-16.8V479c0,0,0,-16.8,-16.8,-16.8H586.5Z" class="g6_13"/>
<path d="M73.6,558H835.8" class="g1_13"/>
</svg>