<?xml version="1.0" encoding="UTF-8" standalone="no"?>
<!DOCTYPE svg PUBLIC "-//W3C//DTD SVG 1.1//EN"
"http://www.w3.org/Graphics/SVG/1.1/DTD/svg11.dtd">
<svg viewBox="0 0 909 1147" version="1.1" xmlns="http://www.w3.org/2000/svg" xmlns:xlink="http://www.w3.org/1999/xlink">
<defs>
<clipPath id="c0_143"><path d="M0,1147.6V0H909.4V1147.6Z"/></clipPath>
<clipPath id="c1_143"><path d="M530.2,856.6V684.4H835.8V856.6Z"/></clipPath>
<style type="text/css"><![CDATA[
.g0_143{
fill: #DCE5C9;
}
.g1_143{
fill: none;
stroke: #000;
stroke-width: 0.763;
}
.g2_143{
fill: none;
stroke: #0EA5DF;
stroke-width: 3.055;
}
.g3_143{
fill: none;
stroke: #00AEEF;
stroke-width: 0.763;
stroke-miterlimit: 10;
}
.g4_143{
fill: #47A5AE;
}
.g5_143{
fill: none;
stroke: #000;
stroke-width: 0.802;
}
.g6_143{
fill: none;
stroke: #2E3092;
stroke-width: 0.763;
}
.g7_143{
fill: none;
stroke: #000;
stroke-width: 0.733;
stroke-linejoin: round;
}
.g8_143{
fill: #FFF;
}
.g9_143{
fill: #D1D3D4;
}
.ga_143{
fill: #FFF;
stroke: #000;
stroke-width: 0.733;
stroke-linejoin: round;
}
.gb_143{
fill: none;
stroke: #BCBEC0;
stroke-width: 0.763;
stroke-linejoin: round;
}
.gc_143{
fill: none;
stroke: #000;
stroke-width: 0.763;
stroke-linejoin: round;
}
.gd_143{
fill: #000;
}
.ge_143{
fill: #F58345;
}
]]></style>
</defs>
<path d="M835.8,1131h73.6v-51.5H835.8V1131Z" class="g0_143"/>
<path d="M317.3,203.6h11.4" class="g1_143"/>
<path d="M73.6,159.2H835.8" class="g2_143"/>
<path d="M631.1,417.5h13.4m-13,12.6V417.9m13,-.4h13m-13,12.6V417.9m13,-.4h13m-13,12.6V417.9m13,-.4h13m-13,12.6V417.9m13,-.4h13m-13,12.6V417.9m13,-.4h13m-13,12.6V417.9m13,-.4h13m-13,12.6V417.9m13,-.4h13m-13,12.6V417.9m13,-.4h13m-13,12.6V417.9m13,-.4h13m-13,12.6V417.9m13,-.4h12.9m-12.9,12.6V417.9m12.9,-.4h13m-13,12.6V417.9m13,-.4h13m-13,12.6V417.9m13,-.4h13.4m-13.4,12.6V417.9m13,12.2V417.9M631.1,430.5h13.4m-13,12.6V430.9m13,-.4h13m-13,12.6V430.9m13,-.4h13m-13,12.6V430.9m13,-.4h13m-13,12.6V430.9m13,-.4h13m-13,12.6V430.9m13,-.4h13m-13,12.6V430.9m13,-.4h13m-13,12.6V430.9m13,-.4h13m-13,12.6V430.9m13,-.4h13m-13,12.6V430.9m13,-.4h13m-13,12.6V430.9m13,-.4h12.9m-12.9,12.6V430.9m12.9,-.4h13m-13,12.6V430.9m13,-.4h13m-13,12.6V430.9m13,-.4h13.4m-13.4,12.6V430.9m13,12.2V430.9M631.1,443.5h13.4m-13,12.6V443.9m13,-.4h13m-13,12.6V443.9m13,-.4h13m-13,12.6V443.9m13,-.4h13m-13,12.6V443.9m13,-.4h13m-13,12.6V443.9m13,-.4h13m-13,12.6V443.9m13,-.4h13m-13,12.6V443.9m13,-.4h13m-13,12.6V443.9m13,-.4h13m-13,12.6V443.9m13,-.4h13m-13,12.6V443.9m13,-.4h12.9m-12.9,12.6V443.9m12.9,-.4h13m-13,12.6V443.9m13,-.4h13m-13,12.6V443.9m13,-.4h13.4m-13.4,12.6V443.9m13,12.2V443.9M631.1,456.5h13.4m-13,12.6V456.9m13,-.4h13m-13,12.6V456.9m13,-.4h13m-13,12.6V456.9m13,-.4h13m-13,12.6V456.9m13,-.4h13m-13,12.6V456.9m13,-.4h13m-13,12.6V456.9m13,-.4h13m-13,12.6V456.9m13,-.4h13m-13,12.6V456.9m13,-.4h13m-13,12.6V456.9m13,-.4h13m-13,12.6V456.9m13,-.4h12.9m-12.9,12.6V456.9m12.9,-.4h13m-13,12.6V456.9m13,-.4h13m-13,12.6V456.9m13,-.4h13.4m-13.4,12.6V456.9m13,12.2V456.9M631.1,469.5h13.4m-13,12.6V469.9m13,-.4h13m-13,12.6V469.9m13,-.4h13m-13,12.6V469.9m13,-.4h13m-13,12.6V469.9m13,-.4h13m-13,12.6V469.9m13,-.4h13m-13,12.6V469.9m13,-.4h13m-13,12.6V469.9m13,-.4h13m-13,12.6V469.9m13,-.4h13m-13,12.6V469.9m13,-.4h13m-13,12.6V469.9m13,-.4h12.9m-12.9,12.6V469.9m12.9,-.4h13m-13,12.6V469.9m13,-.4h13m-13,12.6V469.9m13,-.4h13.4m-13.4,12.6V469.9m13,12.2V469.9M631.1,482.5h13.4m-13,12.6V482.8m13,-.3h13m-13,12.6V482.8m13,-.3h13m-13,12.6V482.8m13,-.3h13m-13,12.6V482.8m13,-.3h13m-13,12.6V482.8m13,-.3h13m-13,12.6V482.8m13,-.3h13m-13,12.6V482.8m13,-.3h13m-13,12.6V482.8m13,-.3h13m-13,12.6V482.8m13,-.3h13m-13,12.6V482.8m13,-.3h12.9m-12.9,12.6V482.8m12.9,-.3h13m-13,12.6V482.8m13,-.3h13m-13,12.6V482.8m13,-.3h13.4m-13.4,12.6V482.8m13,12.3V482.8M631.1,495.5h13.4m-13,12.6V495.8m13,-.3h13m-13,12.6V495.8m13,-.3h13m-13,12.6V495.8m13,-.3h13m-13,12.6V495.8m13,-.3h13m-13,12.6V495.8m13,-.3h13m-13,12.6V495.8m13,-.3h13m-13,12.6V495.8m13,-.3h13m-13,12.6V495.8m13,-.3h13m-13,12.6V495.8m13,-.3h13m-13,12.6V495.8m13,-.3h12.9m-12.9,12.6V495.8m12.9,-.3h13m-13,12.6V495.8m13,-.3h13m-13,12.6V495.8m13,-.3h13.4m-13.4,12.6V495.8m13,12.3V495.8M631.1,508.4h13.4m-13,12.7V508.8m13,-.4h13m-13,12.7V508.8m13,-.4h13m-13,12.7V508.8m13,-.4h13m-13,12.7V508.8m13,-.4h13m-13,12.7V508.8m13,-.4h13m-13,12.7V508.8m13,-.4h13m-13,12.7V508.8m13,-.4h13m-13,12.7V508.8m13,-.4h13m-13,12.7V508.8m13,-.4h13m-13,12.7V508.8m13,-.4h12.9m-12.9,12.7V508.8m12.9,-.4h13m-13,12.7V508.8m13,-.4h13m-13,12.7V508.8m13,-.4h13.4m-13.4,12.7V508.8m13,12.3V508.8M631.1,521.4h13.4m-13,12.6V521.8m13,-.4h13m-13,12.6V521.8m13,-.4h13m-13,12.6V521.8m13,-.4h13m-13,12.6V521.8m13,-.4h13m-13,12.6V521.8m13,-.4h13m-13,12.6V521.8m13,-.4h13m-13,12.6V521.8m13,-.4h13m-13,12.6V521.8m13,-.4h13m-13,12.6V521.8m13,-.4h13m-13,12.6V521.8m13,-.4h12.9M761.5,534V521.8m12.9,-.4h13m-13,12.6V521.8m13,-.4h13m-13,12.6V521.8m13,-.4h13.4M800.4,534V521.8m13,12.2V521.8M631.1,534.4h13.4m-13,12.6V534.8m13,-.4h13m-13,12.6V534.8m13,-.4h13m-13,12.6V534.8m13,-.4h13m-13,12.6V534.8m13,-.4h13m-13,12.6V534.8m13,-.4h13m-13,12.6V534.8m13,-.4h13m-13,12.6V534.8m13,-.4h13m-13,12.6V534.8m13,-.4h13m-13,12.6V534.8m13,-.4h13m-13,12.6V534.8m13,-.4h12.9M761.5,547V534.8m12.9,-.4h13m-13,12.6V534.8m13,-.4h13m-13,12.6V534.8m13,-.4h13.4M800.4,547V534.8m13,12.2V534.8M631.1,547.4h13.4m-13,12.6V547.8m13,-.4h13m-13,12.6V547.8m13,-.4h13m-13,12.6V547.8m13,-.4h13m-13,12.6V547.8m13,-.4h13m-13,12.6V547.8m13,-.4h13m-13,12.6V547.8m13,-.4h13m-13,12.6V547.8m13,-.4h13m-13,12.6V547.8m13,-.4h13m-13,12.6V547.8m13,-.4h13m-13,12.6V547.8m13,-.4h12.9M761.5,560V547.8m12.9,-.4h13m-13,12.6V547.8m13,-.4h13m-13,12.6V547.8m13,-.4h13.4M800.4,560V547.8m13,12.2V547.8M631.1,560.4h13.4m-13,12.6V560.8m13,-.4h13m-13,12.6V560.8m13,-.4h13m-13,12.6V560.8m13,-.4h13m-13,12.6V560.8m13,-.4h13m-13,12.6V560.8m13,-.4h13m-13,12.6V560.8m13,-.4h13m-13,12.6V560.8m13,-.4h13m-13,12.6V560.8m13,-.4h13m-13,12.6V560.8m13,-.4h13m-13,12.6V560.8m13,-.4h12.9M761.5,573V560.8m12.9,-.4h13m-13,12.6V560.8m13,-.4h13m-13,12.6V560.8m13,-.4h13.4M800.4,573V560.8m13,12.2V560.8M631.1,573.4h13.4m-13,12.6V573.8m13,-.4h13m-13,12.6V573.8m13,-.4h13m-13,12.6V573.8m13,-.4h13m-13,12.6V573.8m13,-.4h13m-13,12.6V573.8m13,-.4h13m-13,12.6V573.8m13,-.4h13m-13,12.6V573.8m13,-.4h13m-13,12.6V573.8m13,-.4h13m-13,12.6V573.8m13,-.4h13m-13,12.6V573.8m13,-.4h12.9M761.5,586V573.8m12.9,-.4h13m-13,12.6V573.8m13,-.4h13m-13,12.6V573.8m13,-.4h13.4M800.4,586V573.8m13,12.2V573.8M631.1,586.4h13.4m-13,12.6V586.8m13,-.4h13m-13,12.6V586.8m13,-.4h13m-13,12.6V586.8m13,-.4h13m-13,12.6V586.8m13,-.4h13m-13,12.6V586.8m13,-.4h13m-13,12.6V586.8m13,-.4h13m-13,12.6V586.8m13,-.4h13m-13,12.6V586.8m13,-.4h13m-13,12.6V586.8m13,-.4h13m-13,12.6V586.8m13,-.4h12.9M761.5,599V586.8m12.9,-.4h13m-13,12.6V586.8m13,-.4h13m-13,12.6V586.8m13,-.4h13.4M800.4,599V586.8m13,12.2V586.8M631.1,599.4h13.4m0,0h13m0,0h13m0,0h13m0,0h13m0,0h13m0,0h13m0,0h13m0,0h13m0,0h13m0,0h12.9m0,0h13m0,0h13m0,0h13.4" class="g3_143"/>
<path d="M645,586.1H799.7V431.4H645V586.1Z" class="g5_143"/>
<g clip-path="url(#c0_143)" opacity="0.5">
<path d="M799.6,470.2L671,586.1H774.2Z" class="g4_143"/>
<path d="M799.6,470.2L671,586.1H774.2L799.6,470.2Z" class="g5_143"/>
</g>
<path d="M268.1,602.5H331m-62.9,37.8h34.8" class="g1_143"/>
<path d="M73.9,405.8H836.2" class="g6_143"/>
<path d="M73.9,407.3H836.2" class="g2_143"/>
<path d="M776.9,969.2h29.7v29.7H776.9V969.2Z" class="g7_143"/>
<path fill-rule="evenodd" d="M805.7,969.5h29.7l-16.6,14.4H789.2Z" class="g8_143"/>
<path d="M805.7,969.5h29.7l-16.6,14.4H789.2l16.5,-14.4Z" class="g7_143"/>
<path fill-rule="evenodd" d="M818.8,983.9l16.5,-14v29.6l-16.5,14.1Z" class="g9_143"/>
<path d="M818.8,983.9l16.5,-14v29.6l-16.5,14.1V983.9Zm-41.7,14.6h29.6l-16.5,14.4H760.5l16.6,-14.4Z" class="g7_143"/>
<path fill-rule="evenodd" d="M760.2,953.5h29.6v29.7H760.2V953.5Z" class="ga_143"/>
<path d="M776.7,939.1l-16.5,14.4h29.6l16.6,-14.4Z" class="g8_143"/>
<path d="M776.7,939.1h29.7l-16.6,14.4H760.2l16.5,-14.4Z" class="g7_143"/>
<path d="M789.8,953.5v29.7l16.5,-14.1V939.5Z" class="g9_143"/>
<path d="M789.8,953.5l16.5,-14v29.6l-16.5,14.1V953.5Z" class="g7_143"/>
<path fill-rule="evenodd" d="M789.2,983.9h29.6v29.7H789.2V983.9Z" class="ga_143"/>
<path d="M743.4,1027.2H773V997.5H743.4v29.7Z" class="g8_143"/>
<path d="M743.4,997.5h29.7v29.7H743.4V997.5Z" class="g7_143"/>
<path d="M759.9,983.2l-16.5,14.3H773l16.6,-14.3Z" class="g8_143"/>
<path d="M759.9,983.1h29.7l-16.5,14.4H743.4l16.5,-14.4Z" class="g7_143"/>
<path d="M773,997.5v29.7l16.6,-14V983.5Z" class="g9_143"/>
<path d="M773.1,997.5l16.5,-14v29.7l-16.5,14V997.5Z" class="g7_143"/>
<path d="M73.6,921.9H835.8" class="g6_143"/>
<path d="M73.6,923.5H835.8M73.6,670.8H835.8" class="g2_143"/>
<path d="M450.4,555.5h26.3M218.2,334.4h11.3m57,0h11.4m253.5,0h11.4" class="g1_143"/>
<path d="M593,707.6H821.8M593,729.3H821.8M593,750.9H821.8M593,772.6H821.8m-29,42.2V706.1m-52,108.7V706.1m-52,108.7V706.1M636.9,814.8V706.1M593,794.2H821.8" class="gb_143"/>
<path d="M593,689.8V815.9" class="gc_143"/>
<path fill-rule="evenodd" d="M593,684.4l4.6,10.8c-3.1,-1.6,-6.2,-1.6,-9.3,0Z" class="gd_143"/>
<path d="M830.4,815.2H593.6" class="gc_143"/>
<path fill-rule="evenodd" d="M835.8,815.2L825,819.8c1.6,-3.1,1.6,-6.2,0,-9.2Z" class="gd_143"/>
<path d="M561.2,819.3l-.8,2.1h-6.5v-.3c1.9,-1.7,3.3,-3.2,4,-4.3c.8,-1.1,1.2,-2.1,1.2,-3.1c0,-.7,-.2,-1.2,-.6,-1.7c-.5,-.4,-1,-.7,-1.6,-.7c-.5,0,-1,.2,-1.4,.5c-.5,.3,-.8,.8,-1,1.4h-.3c.1,-1,.5,-1.8,1,-2.3c.6,-.6,1.3,-.8,2.2,-.8c.9,0,1.6,.3,2.2,.8c.6,.6,.9,1.3,.9,2.1c0,.6,-.1,1.1,-.4,1.7c-.4,.9,-1,1.8,-1.9,2.8c-1.4,1.5,-2.2,2.4,-2.6,2.7h2.9c.6,0,1,0,1.3,-.1c.2,0,.4,-.1,.6,-.2c.2,-.2,.4,-.4,.5,-.6Z" class="gd_143"/>
<path d="M564.1,816.1c0,1.6,.2,2.8,.6,3.8c.3,.8,.8,1.2,1.4,1.2c.3,0,.6,-.1,.9,-.4c.3,-.3,.6,-.7,.7,-1.3c.3,-1,.4,-2.3,.4,-4c0,-1.3,-.1,-2.3,-.4,-3.2c-.2,-.6,-.4,-1.1,-.8,-1.3c-.2,-.2,-.5,-.3,-.8,-.3c-.3,0,-.7,.2,-1,.5c-.4,.5,-.6,1.2,-.8,2.2c-.1,.9,-.2,1.9,-.2,2.8m-1.6,-.2c0,-1.2,.2,-2.3,.6,-3.3c.4,-.9,.9,-1.6,1.5,-2c.5,-.4,1,-.5,1.5,-.5c.9,0,1.7,.4,2.3,1.3c.9,1.1,1.3,2.5,1.3,4.4c0,1.2,-.2,2.3,-.5,3.2c-.4,.9,-.9,1.6,-1.5,2c-.5,.4,-1.1,.6,-1.6,.6c-1.1,0,-2,-.6,-2.7,-1.9c-.6,-1,-.9,-2.3,-.9,-3.8Z" class="gd_143"/>
<path d="M572.5,816.1c0,1.6,.2,2.8,.6,3.8c.3,.8,.8,1.2,1.4,1.2c.3,0,.6,-.1,.9,-.4c.3,-.3,.6,-.7,.7,-1.3c.3,-1,.4,-2.3,.4,-4c0,-1.3,-.1,-2.3,-.4,-3.2c-.2,-.6,-.4,-1.1,-.8,-1.3c-.2,-.2,-.4,-.3,-.8,-.3c-.3,0,-.7,.2,-1,.5c-.4,.5,-.6,1.2,-.8,2.2c-.1,.9,-.2,1.9,-.2,2.8m-1.6,-.2c0,-1.2,.2,-2.3,.6,-3.3c.4,-.9,.9,-1.6,1.5,-2c.5,-.4,1,-.5,1.5,-.5c.9,0,1.7,.4,2.3,1.3c.9,1.1,1.3,2.5,1.3,4.4c0,1.2,-.2,2.3,-.5,3.2c-.4,.9,-.9,1.6,-1.5,2c-.5,.4,-1.1,.6,-1.6,.6c-1.1,0,-2,-.6,-2.7,-1.9c-.6,-1,-.9,-2.3,-.9,-3.8Z" class="gd_143"/>
<path d="M580.9,816.1c0,1.6,.2,2.8,.6,3.8c.3,.8,.8,1.2,1.4,1.2c.3,0,.6,-.1,.9,-.4c.3,-.3,.6,-.7,.7,-1.3c.3,-1,.4,-2.3,.4,-4c0,-1.3,-.1,-2.3,-.4,-3.2c-.2,-.6,-.4,-1.1,-.8,-1.3c-.2,-.2,-.4,-.3,-.8,-.3c-.3,0,-.7,.2,-1,.5c-.3,.5,-.6,1.2,-.8,2.2c-.1,.9,-.2,1.9,-.2,2.8m-1.6,-.2c0,-1.2,.2,-2.3,.6,-3.3c.4,-.9,.9,-1.6,1.5,-2c.5,-.4,1,-.5,1.5,-.5c.9,0,1.7,.4,2.3,1.3c.9,1.1,1.3,2.5,1.3,4.4c0,1.2,-.2,2.3,-.5,3.2c-.4,.9,-.9,1.6,-1.5,2c-.5,.4,-1.1,.6,-1.6,.6c-1.1,0,-2,-.6,-2.7,-1.9c-.6,-1,-.9,-2.3,-.9,-3.8Z" class="gd_143"/>
<path d="M561.2,797.4l-.8,2.2h-6.6v-.3c2,-1.8,3.3,-3.2,4.1,-4.4c.8,-1.1,1.2,-2.1,1.2,-3c0,-.7,-.2,-1.3,-.7,-1.8c-.4,-.4,-.9,-.6,-1.5,-.6c-.6,0,-1.1,.1,-1.5,.4c-.4,.4,-.7,.8,-.9,1.4h-.4c.2,-1,.5,-1.7,1.1,-2.3c.6,-.5,1.3,-.8,2.1,-.8c.9,0,1.7,.3,2.3,.9c.6,.5,.9,1.2,.9,2c0,.6,-.1,1.1,-.4,1.7c-.4,.9,-1.1,1.8,-2,2.8c-1.3,1.5,-2.2,2.4,-2.5,2.7h2.9c.6,0,1,0,1.2,0c.3,-.1,.5,-.2,.7,-.3c.2,-.2,.3,-.3,.5,-.6Z" class="gd_143"/>
<path d="M569.6,797.4l-.8,2.2h-6.6v-.3c2,-1.8,3.3,-3.2,4.1,-4.4c.8,-1.1,1.2,-2.1,1.2,-3c0,-.7,-.2,-1.3,-.7,-1.8c-.4,-.4,-.9,-.6,-1.5,-.6c-.6,0,-1,.1,-1.5,.4c-.4,.4,-.7,.8,-.9,1.4h-.4c.2,-1,.5,-1.7,1.1,-2.3c.6,-.5,1.3,-.8,2.1,-.8c.9,0,1.7,.3,2.3,.9c.6,.5,.9,1.2,.9,2c0,.6,-.1,1.1,-.4,1.7c-.4,.9,-1.1,1.8,-2,2.8c-1.3,1.5,-2.2,2.4,-2.5,2.7h2.9c.6,0,1,0,1.2,0c.3,-.1,.5,-.2,.7,-.3c.2,-.2,.3,-.3,.5,-.6Z" class="gd_143"/>
<path d="M572.5,794.3c0,1.5,.2,2.7,.6,3.7c.3,.8,.7,1.2,1.3,1.2c.3,0,.6,-.1,1,-.4c.3,-.2,.5,-.7,.7,-1.3c.2,-.9,.4,-2.3,.4,-4c0,-1.2,-.2,-2.3,-.4,-3.2c-.2,-.6,-.5,-1,-.8,-1.3c-.2,-.2,-.5,-.3,-.8,-.3c-.4,0,-.7,.2,-1,.5c-.4,.5,-.7,1.2,-.8,2.2c-.1,1,-.2,1.9,-.2,2.9m-1.6,-.2c0,-1.3,.2,-2.4,.6,-3.3c.3,-.9,.8,-1.6,1.5,-2.1c.5,-.3,1,-.5,1.5,-.5c.9,0,1.6,.4,2.3,1.3c.8,1.1,1.3,2.5,1.3,4.4c0,1.3,-.2,2.4,-.6,3.3c-.4,.9,-.8,1.5,-1.4,1.9c-.6,.4,-1.1,.7,-1.7,.7c-1,0,-1.9,-.7,-2.6,-1.9c-.6,-1.1,-.9,-2.4,-.9,-3.8Z" class="gd_143"/>
<path d="M580.9,794.3c0,1.5,.2,2.7,.6,3.7c.3,.8,.7,1.2,1.3,1.2c.3,0,.7,-.1,1,-.4c.3,-.2,.5,-.7,.7,-1.3c.2,-.9,.4,-2.3,.4,-4c0,-1.2,-.2,-2.3,-.4,-3.2c-.2,-.6,-.5,-1,-.8,-1.3c-.2,-.2,-.5,-.3,-.8,-.3c-.4,0,-.7,.2,-1,.5c-.4,.5,-.7,1.2,-.8,2.2c-.1,1,-.2,1.9,-.2,2.9m-1.6,-.2c0,-1.3,.2,-2.4,.6,-3.3c.3,-.9,.8,-1.6,1.5,-2.1c.5,-.3,1,-.5,1.5,-.5c.9,0,1.6,.4,2.3,1.3c.9,1.1,1.3,2.5,1.3,4.4c0,1.3,-.2,2.4,-.6,3.3c-.4,.9,-.8,1.5,-1.4,1.9c-.6,.4,-1.1,.7,-1.7,.7c-1,0,-1.9,-.7,-2.6,-1.9c-.6,-1.1,-.9,-2.4,-.9,-3.8Z" class="gd_143"/>
<path d="M561.2,775.8l-.8,2.1h-6.6v-.3c2,-1.8,3.3,-3.2,4.1,-4.3c.8,-1.1,1.2,-2.2,1.2,-3.1c0,-.7,-.2,-1.3,-.7,-1.7c-.4,-.5,-.9,-.7,-1.5,-.7c-.6,0,-1.1,.2,-1.5,.5c-.4,.3,-.7,.8,-.9,1.4h-.4c.2,-1,.5,-1.8,1.1,-2.3c.6,-.6,1.3,-.9,2.1,-.9c.9,0,1.7,.3,2.3,.9c.6,.6,.9,1.3,.9,2.1c0,.5,-.1,1.1,-.4,1.7c-.4,.8,-1.1,1.8,-2,2.8c-1.3,1.5,-2.2,2.4,-2.5,2.7h2.9c.6,0,1,-.1,1.2,-.1c.3,0,.5,-.1,.7,-.3c.2,-.1,.3,-.3,.5,-.5Z" class="gd_143"/>
<path d="M566.8,773.8v-5.5l-3.9,5.5Zm2.9,0V775h-1.5v2.9h-1.4V775h-4.7v-1.1l5.2,-7.4h.9v7.3Z" class="gd_143"/>
<path d="M572.5,772.6c0,1.5,.2,2.8,.6,3.8c.3,.8,.7,1.2,1.3,1.2c.3,0,.6,-.2,1,-.4c.3,-.3,.5,-.7,.7,-1.3c.2,-1,.4,-2.3,.4,-4c0,-1.3,-.2,-2.4,-.4,-3.2c-.2,-.6,-.5,-1.1,-.8,-1.3c-.2,-.2,-.5,-.3,-.8,-.3c-.4,0,-.7,.2,-1,.5c-.4,.4,-.7,1.2,-.8,2.1c-.1,1,-.2,2,-.2,2.9m-1.6,-.2c0,-1.3,.2,-2.4,.6,-3.3c.3,-.9,.8,-1.6,1.5,-2c.5,-.4,1,-.6,1.5,-.6c.9,0,1.6,.5,2.3,1.4c.8,1,1.3,2.5,1.3,4.3c0,1.3,-.2,2.4,-.6,3.3c-.4,.9,-.8,1.6,-1.4,2c-.6,.4,-1.1,.6,-1.7,.6c-1,0,-1.9,-.6,-2.6,-1.9c-.6,-1,-.9,-2.3,-.9,-3.8Z" class="gd_143"/>
<path d="M580.9,772.6c0,1.5,.2,2.8,.6,3.8c.3,.8,.7,1.2,1.3,1.2c.3,0,.7,-.2,1,-.4c.3,-.3,.5,-.7,.7,-1.3c.2,-1,.4,-2.3,.4,-4c0,-1.3,-.2,-2.4,-.4,-3.2c-.2,-.6,-.5,-1.1,-.8,-1.3c-.2,-.2,-.5,-.3,-.8,-.3c-.4,0,-.7,.2,-1,.5c-.4,.4,-.7,1.2,-.8,2.1c-.1,1,-.2,2,-.2,2.9m-1.6,-.2c0,-1.3,.2,-2.4,.6,-3.3c.3,-.9,.8,-1.6,1.5,-2c.5,-.4,1,-.6,1.5,-.6c.9,0,1.6,.5,2.3,1.4c.9,1,1.3,2.5,1.3,4.3c0,1.3,-.2,2.4,-.6,3.3c-.4,.9,-.8,1.6,-1.4,2c-.6,.4,-1.1,.6,-1.7,.6c-1,0,-1.9,-.6,-2.6,-1.9c-.6,-1,-.9,-2.3,-.9,-3.8Z" class="gd_143"/>
<path d="M561.2,754.1l-.8,2.1h-6.6v-.3c2,-1.7,3.3,-3.2,4.1,-4.3c.8,-1.1,1.2,-2.1,1.2,-3c0,-.7,-.2,-1.3,-.7,-1.8c-.4,-.4,-.9,-.7,-1.5,-.7c-.6,0,-1.1,.2,-1.5,.5c-.4,.3,-.7,.8,-.9,1.4h-.4c.2,-1,.5,-1.8,1.1,-2.3c.6,-.5,1.3,-.8,2.1,-.8c.9,0,1.7,.3,2.3,.9c.6,.5,.9,1.2,.9,2c0,.6,-.1,1.1,-.4,1.7c-.4,.9,-1.1,1.8,-2,2.8c-1.3,1.5,-2.2,2.4,-2.5,2.7h2.9c.6,0,1,0,1.2,-.1c.3,0,.5,-.1,.7,-.2c.2,-.2,.3,-.3,.5,-.6Z" class="gd_143"/>
<path d="M564.3,750.6c-.1,.8,-.2,1.4,-.2,1.8c0,.5,.1,1.1,.3,1.7c.2,.7,.5,1.1,.9,1.5c.3,.3,.6,.4,1,.4c.5,0,.9,-.2,1.3,-.7c.4,-.4,.6,-1.1,.6,-1.9c0,-.9,-.2,-1.8,-.6,-2.4c-.4,-.7,-.9,-1.1,-1.6,-1.1c-.2,0,-.4,.1,-.6,.2c-.3,.1,-.6,.2,-1.1,.5m5.1,-5.7v.3c-.7,.1,-1.3,.2,-1.8,.4c-.4,.2,-.9,.6,-1.3,1c-.5,.5,-.8,1,-1.1,1.5c-.3,.5,-.6,1.2,-.8,1.9c.8,-.5,1.6,-.8,2.4,-.8c.8,0,1.4,.3,2,.9c.5,.7,.8,1.4,.8,2.4c0,.9,-.3,1.8,-.8,2.5c-.7,1,-1.6,1.4,-2.7,1.4c-.8,0,-1.4,-.2,-2,-.7c-1,-1,-1.5,-2.3,-1.5,-3.8c0,-1,.2,-2,.6,-2.9c.4,-.9,1,-1.7,1.7,-2.3c.7,-.7,1.5,-1.2,2.1,-1.4c.7,-.3,1.3,-.4,1.9,-.4Z" class="gd_143"/>
<path d="M572.5,751c0,1.5,.2,2.7,.6,3.7c.3,.8,.7,1.2,1.3,1.2c.3,0,.6,-.1,1,-.4c.3,-.2,.5,-.7,.7,-1.3c.2,-.9,.4,-2.3,.4,-4c0,-1.3,-.2,-2.3,-.4,-3.2c-.2,-.6,-.5,-1,-.8,-1.3c-.2,-.2,-.5,-.3,-.8,-.3c-.4,0,-.7,.2,-1,.5c-.4,.5,-.7,1.2,-.8,2.2c-.1,1,-.2,1.9,-.2,2.9m-1.6,-.2c0,-1.3,.2,-2.4,.6,-3.3c.3,-.9,.8,-1.6,1.5,-2.1c.5,-.3,1,-.5,1.5,-.5c.9,0,1.6,.4,2.3,1.3c.8,1.1,1.3,2.5,1.3,4.4c0,1.3,-.2,2.4,-.6,3.3c-.4,.9,-.8,1.5,-1.4,1.9c-.6,.4,-1.1,.6,-1.7,.6c-1,0,-1.9,-.6,-2.6,-1.8c-.6,-1.1,-.9,-2.4,-.9,-3.8Z" class="gd_143"/>
<path d="M580.9,751c0,1.5,.2,2.7,.6,3.7c.3,.8,.7,1.2,1.3,1.2c.3,0,.7,-.1,1,-.4c.3,-.2,.5,-.7,.7,-1.3c.2,-.9,.4,-2.3,.4,-4c0,-1.3,-.2,-2.3,-.4,-3.2c-.2,-.6,-.5,-1,-.8,-1.3c-.2,-.2,-.5,-.3,-.8,-.3c-.4,0,-.7,.2,-1,.5c-.4,.5,-.7,1.2,-.8,2.2c-.1,1,-.2,1.9,-.2,2.9m-1.6,-.2c0,-1.3,.2,-2.4,.6,-3.3c.3,-.9,.8,-1.6,1.5,-2.1c.5,-.3,1,-.5,1.5,-.5c.9,0,1.6,.4,2.3,1.3c.9,1.1,1.3,2.5,1.3,4.4c0,1.3,-.2,2.4,-.6,3.3c-.4,.9,-.8,1.5,-1.4,1.9c-.6,.4,-1.1,.6,-1.7,.6c-1,0,-1.9,-.6,-2.6,-1.8c-.6,-1.1,-.9,-2.4,-.9,-3.8Z" class="gd_143"/>
<path d="M561.2,732.5l-.8,2.1h-6.6v-.3c2,-1.8,3.3,-3.2,4.1,-4.3c.8,-1.1,1.2,-2.2,1.2,-3.1c0,-.7,-.2,-1.3,-.7,-1.7c-.4,-.5,-.9,-.7,-1.5,-.7c-.6,0,-1.1,.2,-1.5,.5c-.4,.3,-.7,.8,-.9,1.4h-.4c.2,-1,.5,-1.8,1.1,-2.3c.6,-.6,1.3,-.9,2.1,-.9c.9,0,1.7,.3,2.3,.9c.6,.6,.9,1.3,.9,2.1c0,.5,-.1,1.1,-.4,1.7c-.4,.8,-1.1,1.8,-2,2.8c-1.3,1.5,-2.2,2.4,-2.5,2.7h2.9c.6,0,1,-.1,1.2,-.1c.3,-.1,.5,-.1,.7,-.3c.2,-.1,.3,-.3,.5,-.5Z" class="gd_143"/>
<path d="M565.5,729.3c-.5,.4,-.8,.8,-1,1.3c-.2,.4,-.4,.9,-.4,1.4c0,.7,.2,1.3,.6,1.7c.4,.4,.9,.6,1.5,.6c.6,0,1.1,-.1,1.4,-.5c.4,-.3,.5,-.7,.5,-1.2c0,-.4,-.1,-.7,-.3,-1c-.4,-.6,-1.1,-1.4,-2.3,-2.3m.9,-1.2c.6,-.6,1.1,-1,1.2,-1.4c.2,-.3,.3,-.7,.3,-1.1c0,-.6,-.2,-1.1,-.5,-1.4c-.3,-.3,-.8,-.5,-1.3,-.5c-.6,0,-1,.2,-1.4,.5c-.3,.3,-.5,.7,-.5,1.1c0,.3,.1,.6,.2,.9c.2,.3,.4,.5,.6,.8Zm-1.3,.9c-.9,-.7,-1.5,-1.3,-1.7,-1.7c-.3,-.5,-.4,-.9,-.4,-1.4c0,-.7,.3,-1.4,.8,-1.9c.6,-.5,1.3,-.8,2.3,-.8c.9,0,1.6,.3,2.1,.8c.6,.5,.9,1,.9,1.6c0,.4,-.2,.9,-.5,1.3c-.3,.4,-.9,.9,-1.8,1.5c.9,.8,1.6,1.4,1.9,1.8c.4,.5,.6,1.1,.6,1.8c0,.7,-.3,1.4,-.9,2c-.6,.5,-1.4,.8,-2.3,.8c-1.1,0,-1.9,-.3,-2.5,-1c-.5,-.5,-.7,-1.1,-.7,-1.7c0,-.5,.1,-1,.5,-1.5c.3,-.5,.9,-1,1.7,-1.6Z" class="gd_143"/>
<path d="M572.5,729.3c0,1.5,.2,2.8,.6,3.8c.3,.8,.7,1.2,1.3,1.2c.3,0,.6,-.2,1,-.4c.3,-.3,.5,-.7,.7,-1.4c.2,-.9,.4,-2.2,.4,-3.9c0,-1.3,-.2,-2.4,-.4,-3.2c-.2,-.6,-.5,-1.1,-.8,-1.4c-.2,-.1,-.5,-.2,-.8,-.2c-.4,0,-.7,.1,-1,.5c-.4,.4,-.7,1.1,-.8,2.1c-.1,1,-.2,2,-.2,2.9m-1.6,-.2c0,-1.3,.2,-2.4,.6,-3.3c.3,-.9,.8,-1.6,1.5,-2c.5,-.4,1,-.6,1.5,-.6c.9,0,1.6,.5,2.3,1.3c.8,1.1,1.3,2.6,1.3,4.4c0,1.3,-.2,2.4,-.6,3.3c-.4,.9,-.8,1.6,-1.4,2c-.6,.4,-1.1,.6,-1.7,.6c-1,0,-1.9,-.6,-2.6,-1.9c-.6,-1,-.9,-2.3,-.9,-3.8Z" class="gd_143"/>
<path d="M580.9,729.3c0,1.5,.2,2.8,.6,3.8c.3,.8,.7,1.2,1.3,1.2c.3,0,.7,-.2,1,-.4c.3,-.3,.5,-.7,.7,-1.4c.2,-.9,.4,-2.2,.4,-3.9c0,-1.3,-.2,-2.4,-.4,-3.2c-.2,-.6,-.5,-1.1,-.8,-1.4c-.2,-.1,-.5,-.2,-.8,-.2c-.4,0,-.7,.1,-1,.5c-.4,.4,-.7,1.1,-.8,2.1c-.1,1,-.2,2,-.2,2.9m-1.6,-.2c0,-1.3,.2,-2.4,.6,-3.3c.3,-.9,.8,-1.6,1.5,-2c.5,-.4,1,-.6,1.5,-.6c.9,0,1.6,.5,2.3,1.3c.9,1.1,1.3,2.6,1.3,4.4c0,1.3,-.2,2.4,-.6,3.3c-.4,.9,-.8,1.6,-1.4,2c-.6,.4,-1.1,.6,-1.7,.6c-1,0,-1.9,-.6,-2.6,-1.9c-.6,-1,-.9,-2.3,-.9,-3.8Z" class="gd_143"/>
<path d="M554.3,703.9c.3,-.7,.7,-1.3,1.2,-1.7c.5,-.4,1.1,-.6,1.8,-.6c.9,0,1.6,.3,2.1,.9c.3,.4,.5,.8,.5,1.3c0,.9,-.5,1.7,-1.5,2.6c.7,.2,1.2,.6,1.5,1.1c.4,.5,.6,1.1,.6,1.8c0,.9,-.3,1.8,-.9,2.5c-.8,.9,-2,1.3,-3.5,1.3c-.8,0,-1.3,-.1,-1.5,-.2c-.3,-.2,-.5,-.4,-.5,-.6c0,-.2,.1,-.3,.2,-.5c.2,-.1,.3,-.1,.5,-.1c.1,0,.3,0,.4,0c.1,.1,.3,.2,.7,.3c.3,.2,.5,.3,.6,.3c.2,.1,.5,.1,.7,.1c.5,0,1,-.2,1.4,-.6c.5,-.5,.7,-1,.7,-1.6c0,-.4,-.1,-.8,-.3,-1.2c-.2,-.3,-.3,-.6,-.5,-.7c-.2,-.2,-.6,-.4,-1,-.6c-.4,-.2,-.8,-.3,-1.2,-.3H556v-.2c.4,-.1,.9,-.2,1.3,-.5c.5,-.3,.8,-.6,1,-.9c.2,-.4,.3,-.8,.3,-1.2c0,-.6,-.2,-1,-.6,-1.4c-.3,-.3,-.8,-.5,-1.3,-.5c-.8,0,-1.5,.5,-2.1,1.4Z" class="gd_143"/>
<path d="M564.1,707.6c0,1.6,.2,2.8,.5,3.8c.4,.8,.8,1.2,1.4,1.2c.3,0,.6,-.1,1,-.4c.3,-.2,.5,-.7,.7,-1.3c.2,-.9,.4,-2.3,.4,-4c0,-1.3,-.2,-2.3,-.4,-3.2c-.2,-.6,-.5,-1,-.8,-1.3c-.2,-.2,-.5,-.3,-.8,-.3c-.4,0,-.7,.2,-1,.5c-.4,.5,-.7,1.2,-.8,2.2c-.1,.9,-.2,1.9,-.2,2.8m-1.6,-.2c0,-1.2,.2,-2.3,.5,-3.2c.4,-1,.9,-1.6,1.6,-2.1c.5,-.3,1,-.5,1.5,-.5c.9,0,1.6,.4,2.3,1.3c.8,1.1,1.3,2.5,1.3,4.4c0,1.3,-.2,2.4,-.6,3.3c-.4,.9,-.8,1.5,-1.4,1.9c-.6,.4,-1.1,.6,-1.7,.6c-1,0,-1.9,-.6,-2.6,-1.8c-.6,-1.1,-.9,-2.4,-.9,-3.9Z" class="gd_143"/>
<path d="M572.5,707.6c0,1.6,.2,2.8,.6,3.8c.3,.8,.7,1.2,1.3,1.2c.3,0,.6,-.1,1,-.4c.3,-.2,.5,-.7,.7,-1.3c.2,-.9,.4,-2.3,.4,-4c0,-1.3,-.2,-2.3,-.4,-3.2c-.2,-.6,-.5,-1,-.8,-1.3c-.2,-.2,-.5,-.3,-.8,-.3c-.4,0,-.7,.2,-1,.5c-.4,.5,-.7,1.2,-.8,2.2c-.1,.9,-.2,1.9,-.2,2.8m-1.6,-.2c0,-1.2,.2,-2.3,.6,-3.2c.3,-1,.8,-1.6,1.5,-2.1c.5,-.3,1,-.5,1.5,-.5c.9,0,1.6,.4,2.3,1.3c.8,1.1,1.3,2.5,1.3,4.4c0,1.3,-.2,2.4,-.6,3.3c-.4,.9,-.8,1.5,-1.4,1.9c-.6,.4,-1.1,.6,-1.7,.6c-1,0,-1.9,-.6,-2.6,-1.8c-.6,-1.1,-.9,-2.4,-.9,-3.9Z" class="gd_143"/>
<path d="M580.9,707.6c0,1.6,.2,2.8,.6,3.8c.3,.8,.7,1.2,1.3,1.2c.3,0,.7,-.1,1,-.4c.3,-.2,.5,-.7,.7,-1.3c.2,-.9,.4,-2.3,.4,-4c0,-1.3,-.2,-2.3,-.4,-3.2c-.2,-.6,-.5,-1,-.8,-1.3c-.2,-.2,-.5,-.3,-.8,-.3c-.4,0,-.7,.2,-1,.5c-.4,.5,-.7,1.2,-.8,2.2c-.1,.9,-.2,1.9,-.2,2.8m-1.6,-.2c0,-1.2,.2,-2.3,.6,-3.2c.3,-1,.8,-1.6,1.5,-2.1c.5,-.3,1,-.5,1.5,-.5c.9,0,1.6,.4,2.3,1.3c.9,1.1,1.3,2.5,1.3,4.4c0,1.3,-.2,2.4,-.6,3.3c-.4,.9,-.8,1.5,-1.4,1.9c-.6,.4,-1.1,.6,-1.7,.6c-1,0,-1.9,-.6,-2.6,-1.8c-.6,-1.1,-.9,-2.4,-.9,-3.9Z" class="gd_143"/>
<path d="M639.8,836.1v.3h-4.3v-.3h.3c.4,0,.7,-.1,.9,-.4c.2,-.1,.2,-.5,.2,-1.1v-6.5c0,-.5,0,-.9,-.1,-1.1c0,-.1,-.1,-.2,-.3,-.3c-.2,-.1,-.4,-.2,-.7,-.2h-.3v-.2h4.3v.2h-.4c-.4,0,-.7,.2,-.9,.4c-.1,.2,-.2,.6,-.2,1.2v6.5c0,.5,.1,.8,.1,1c.1,.1,.2,.2,.4,.3c.2,.2,.4,.2,.6,.2Z" class="gd_143"/>
<path d="M689.2,836.1v.3h-4.3v-.3h.4c.4,0,.7,-.1,.9,-.4c.1,-.1,.1,-.5,.1,-1.1v-6.5c0,-.5,0,-.9,-.1,-1.1c0,-.1,-.1,-.2,-.3,-.3c-.2,-.1,-.4,-.2,-.6,-.2h-.4v-.2h4.3v.2h-.3c-.5,0,-.8,.2,-.9,.4c-.2,.2,-.2,.6,-.2,1.2v6.5c0,.5,0,.8,.1,1c0,.1,.1,.2,.3,.3c.2,.2,.4,.2,.7,.2Z" class="gd_143"/>
<path d="M694.3,836.1v.3H690v-.3h.3c.5,0,.8,-.1,.9,-.4c.2,-.1,.2,-.5,.2,-1.1v-6.5c0,-.5,0,-.9,-.1,-1.1c0,-.1,-.1,-.2,-.3,-.3c-.2,-.1,-.4,-.2,-.7,-.2H690v-.2h4.3v.2h-.4c-.4,0,-.7,.2,-.9,.4c-.1,.2,-.1,.6,-.1,1.2v6.5c0,.5,0,.8,.1,1c0,.1,.1,.2,.3,.3c.2,.2,.4,.2,.6,.2Z" class="gd_143"/>
<path d="M738.7,836.1v.3h-4.4v-.3h.4c.4,0,.7,-.1,.9,-.4c.1,-.1,.2,-.5,.2,-1.1v-6.5c0,-.5,-.1,-.9,-.1,-1.1c-.1,-.1,-.2,-.2,-.3,-.3c-.3,-.1,-.5,-.2,-.7,-.2h-.4v-.2h4.4v.2h-.4c-.4,0,-.7,.2,-.9,.4c-.1,.2,-.2,.6,-.2,1.2v6.5c0,.5,0,.8,.1,1c0,.1,.1,.2,.3,.3c.2,.2,.4,.2,.7,.2Z" class="gd_143"/>
<path d="M743.7,836.1v.3h-4.3v-.3h.4c.4,0,.7,-.1,.9,-.4c.1,-.1,.2,-.5,.2,-1.1v-6.5c0,-.5,-.1,-.9,-.1,-1.1c-.1,-.1,-.2,-.2,-.3,-.3c-.3,-.1,-.5,-.2,-.7,-.2h-.4v-.2h4.3v.2h-.3c-.4,0,-.7,.2,-.9,.4c-.2,.2,-.2,.6,-.2,1.2v6.5c0,.5,0,.8,.1,1c0,.1,.1,.2,.3,.3c.2,.2,.4,.2,.7,.2Z" class="gd_143"/>
<path d="M748.8,836.1v.3h-4.3v-.3h.4c.4,0,.7,-.1,.9,-.4c.1,-.1,.1,-.5,.1,-1.1v-6.5c0,-.5,0,-.9,-.1,-1.1c0,-.1,-.1,-.2,-.3,-.3c-.2,-.1,-.4,-.2,-.6,-.2h-.4v-.2h4.3v.2h-.3c-.5,0,-.8,.2,-.9,.4c-.2,.2,-.2,.6,-.2,1.2v6.5c0,.5,0,.8,.1,1c0,.1,.1,.2,.3,.3c.2,.2,.4,.2,.7,.2Z" class="gd_143"/>
<path d="M790.3,836.1v.3H786v-.3h.4c.4,0,.7,-.1,.9,-.4c.1,-.1,.1,-.5,.1,-1.1v-6.5c0,-.5,0,-.9,-.1,-1.1c0,-.1,-.1,-.2,-.3,-.3c-.2,-.1,-.4,-.2,-.6,-.2H786v-.2h4.3v.2H790c-.4,0,-.7,.2,-.9,.4c-.2,.2,-.2,.6,-.2,1.2v6.5c0,.5,0,.8,.1,1c0,.1,.1,.2,.3,.3c.2,.2,.4,.2,.7,.2Z" class="gd_143"/>
<path d="M801.5,826.3v.3c-.3,0,-.6,.1,-.8,.3c-.2,.2,-.5,.6,-.7,1.1l-3.5,8.6h-.3l-3.8,-8.7c-.2,-.4,-.3,-.7,-.4,-.8c-.1,-.2,-.2,-.3,-.4,-.4c-.2,-.1,-.5,-.1,-.8,-.1v-.3H795v.3c-.5,0,-.8,.1,-.9,.2c-.2,.1,-.3,.2,-.3,.4c0,.3,.2,.7,.4,1.2l2.6,5.9l2.4,-5.8c.2,-.6,.3,-1,.3,-1.2c0,-.2,-.1,-.3,-.2,-.5c-.2,-.1,-.4,-.2,-.7,-.2q-.1,0,-.2,0v-.3Z" class="gd_143"/>
<path fill-rule="evenodd" d="M629.2,793.9l7.2,-7.2l7.2,7.2l-7.2,7.2Z" class="ge_143"/>
<path fill-rule="evenodd" d="M681.1,751.5l7.3,-7.2l7.2,7.2l-7.2,7.2Z" class="ge_143"/>
<path fill-rule="evenodd" d="M733.1,729.8l7.2,-7.2l7.3,7.2l-7.3,7.2Z" class="ge_143"/>
<path fill-rule="evenodd" d="M785.1,772.3l7.2,-7.2l7.2,7.2l-7.2,7.2Z" class="ge_143"/>
<path d="M539.1,748.3L535.3,745c-.4,0,-.7,.1,-.9,.2c-.1,.2,-.2,.4,-.2,.8h-.3v-3.5h.3c0,.4,0,.6,.1,.8c.1,.1,.1,.2,.3,.2c.1,.1,.4,.2,1,.2h4c.6,0,.9,-.1,1.1,-.1c.1,-.1,.2,-.2,.2,-.3c.1,-.1,.2,-.4,.2,-.8h.3v3.6h-.3c0,-.4,-.1,-.7,-.3,-.9c-.1,-.1,-.5,-.2,-1.2,-.2h-3.5l3.7,3.3c.5,-.1,.8,-.1,1,-.2c.2,-.2,.3,-.4,.3,-.8h.3v3.5h-.3c0,-.5,-.1,-.8,-.3,-1c-.2,-.1,-.6,-.2,-1.2,-.2h-4c-.6,0,-.9,0,-1,.1c-.1,.1,-.2,.2,-.3,.3c-.1,.1,-.1,.4,-.1,.8h-.3v-3.7h.3c0,.4,0,.6,.1,.8c.1,.1,.1,.2,.3,.3c.1,0,.4,.1,1,.1Zm-8.2,1c-.2,0,-.4,0,-.5,-.1c-.1,-.1,-.2,-.3,-.2,-.4c0,-.4,.4,-.7,1,-1c.4,-.2,.7,-.3,.7,-.5c.1,-.3,.2,-.5,.2,-.7c0,-.3,-.1,-.6,-.2,-.7c-.2,-.2,-.4,-.4,-.8,-.5c-.6,-.3,-.9,-.5,-.9,-.9c0,-.1,.1,-.3,.2,-.4c.1,-.1,.3,-.2,.4,-.2c.5,0,.8,.3,1.2,.9c.4,.5,.6,1.1,.6,1.8c0,.9,-.2,1.6,-.5,2.1c-.4,.4,-.8,.6,-1.2,.6m3.3,6.3c0,.3,.1,.6,.2,.9c.2,.3,.5,.5,.9,.7c.5,.2,1,.2,1.7,.2c1.1,0,2,-.2,2.8,-.6c.8,-.4,1.2,-1,1.2,-1.7c0,-.6,-.2,-1,-.6,-1.3c-.5,-.4,-1.2,-.6,-2.3,-.6c-1.3,0,-2.4,.3,-3.1,.9c-.6,.4,-.8,.9,-.8,1.5m-.6,-.3c0,-1.1,.5,-2,1.3,-2.7c.8,-.6,1.6,-.9,2.6,-.9c.7,0,1.3,.2,2,.5c.7,.3,1.2,.8,1.6,1.3c.3,.6,.5,1.2,.5,1.9c0,1.2,-.4,2.1,-1.3,2.7c-.8,.6,-1.7,.9,-2.6,.9c-.7,0,-1.4,-.2,-2.1,-.5c-.6,-.4,-1.1,-.8,-1.5,-1.4c-.3,-.6,-.5,-1.1,-.5,-1.8m2.3,10h2.8c.6,0,1,0,1.2,0c.3,-.1,.6,-.3,.9,-.6c.2,-.3,.3,-.7,.3,-1.1c0,-.6,-.2,-1,-.6,-1.4c-.6,-.4,-1.4,-.6,-2.4,-.6c-1.1,0,-2,.2,-2.6,.7c-.5,.4,-.7,.8,-.7,1.3c0,.2,.1,.5,.2,.7c.1,.2,.4,.6,.9,1m-1.3,2.7l-.9,-2.4v-.3h1.7c-.6,-.4,-1.1,-.8,-1.4,-1.1c-.2,-.4,-.4,-.8,-.4,-1.3c0,-.7,.3,-1.4,.9,-1.9c.8,-.6,1.7,-.9,2.9,-.9c1.2,0,2.3,.4,3.2,1.1c.7,.6,1,1.4,1,2.3c0,.4,0,.8,-.2,1.1c0,.2,-.2,.5,-.5,.7h2.3c.5,0,.9,0,1,-.1c.2,0,.3,-.1,.3,-.3c.1,-.2,.2,-.4,.2,-.8h.3V768h-.3v-.2c0,-.3,-.1,-.6,-.2,-.8c-.1,-.1,-.2,-.2,-.3,-.2c-.1,-.1,-.5,-.1,-1,-.1h-7.1c-.5,0,-.8,0,-.9,.1c-.2,0,-.3,.1,-.3,.2c-.1,.1,-.1,.2,-.1,.4c0,.1,0,.2,.1,.5Zm6.1,6.1c.1,-.5,.1,-.9,.1,-1.1c0,-.7,-.2,-1.3,-.6,-1.8c-.5,-.6,-1.1,-.9,-1.9,-.9c-.8,0,-1.4,.3,-1.8,.9c-.4,.6,-.6,1.3,-.6,2.2c0,.2,0,.5,0,.7Zm-10.4,-4.8l2.4,-.1v.3c-.8,.2,-1.3,.4,-1.5,.8c-.2,.4,-.3,1,-.3,1.9v1.9h4.4v-.4c0,-1.4,.1,-2.4,.2,-3c.2,-.7,.5,-1.2,1,-1.6c.5,-.4,1.1,-.6,1.8,-.6c.8,0,1.5,.3,2.1,.9c.7,.6,1,1.7,1,3.2v4.7h-.3c0,-.7,-.2,-1.1,-.4,-1.3c-.1,-.2,-.6,-.3,-1.3,-.3h-7.1c-.6,0,-1,0,-1.2,.1c-.2,.1,-.3,.2,-.4,.4c-.1,.2,-.1,.5,-.1,1h-.3Z" class="gd_143"/>
<path d="M681,843.2l.1,2.4h-.2c-.1,-.5,-.2,-.8,-.3,-.9c-.1,-.3,-.3,-.5,-.6,-.7c-.2,-.1,-.6,-.2,-1,-.2h-1.4v7.8c0,.6,0,1,.2,1.1c.2,.2,.5,.3,.9,.3h.3v.3h-4.3V853h.4c.4,0,.7,-.1,.9,-.4c.1,-.1,.1,-.5,.1,-1v-7.8h-1.2c-.4,0,-.8,.1,-1,.1c-.2,.1,-.5,.3,-.6,.6c-.2,.2,-.3,.6,-.4,1.1h-.2l.1,-2.4Z" class="gd_143"/>
<path clip-path="url(#c1_143)" d="M683.9,848.3v2.6c0,.5,0,.9,.1,1.1c0,.3,.2,.5,.5,.7c.2,.3,.6,.4,1,.4c.5,0,.9,-.2,1.2,-.6c.4,-.5,.6,-1.2,.6,-2.2c0,-1,-.2,-1.8,-.7,-2.4c-.3,-.4,-.7,-.5,-1.1,-.5c-.3,0,-.5,0,-.7,.1c-.2,.1,-.5,.4,-.9,.8m-2.4,-1.1l2.1,-.9h.3v1.6c.3,-.6,.7,-1,1.1,-1.3c.3,-.2,.7,-.3,1.1,-.3c.7,0,1.2,.2,1.7,.8c.6,.6,.8,1.5,.8,2.5c0,1.2,-.3,2.2,-1,3c-.5,.6,-1.2,.9,-2.1,.9c-.3,0,-.7,0,-.9,-.1c-.2,-.1,-.5,-.3,-.7,-.5V855c0,.5,0,.8,.1,.9c0,.1,.1,.2,.3,.3c.1,.1,.4,.1,.7,.1v.3h-3.5v-.3h.2c.2,0,.5,0,.7,-.2c0,0,.1,-.1,.2,-.2c0,-.1,.1,-.5,.1,-1v-6.4c0,-.5,-.1,-.7,-.1,-.9c0,-.1,-.1,-.2,-.2,-.2c-.1,-.1,-.2,-.1,-.4,-.1c-.1,0,-.2,0,-.4,.1Z" class="gd_143"/>
<path d="M691.8,851.2l2.9,-3.4c0,-.4,-.1,-.7,-.2,-.8c-.1,-.2,-.4,-.2,-.7,-.2v-.3H697v.3c-.3,0,-.6,0,-.7,.1c-.1,0,-.2,.1,-.3,.2c0,.1,0,.4,0,1v3.6c0,.5,0,.8,0,.9c.1,.1,.2,.2,.3,.3c.1,.1,.3,.1,.7,.1v.3h-3.3V853c.4,0,.7,0,.8,-.2c.2,-.1,.2,-.5,.2,-1.1v-3.2l-2.9,3.4c0,.4,0,.7,.1,.9c.2,.1,.4,.2,.8,.2v.3h-3.2V853c.4,0,.7,0,.9,-.2c.1,-.2,.1,-.5,.1,-1.1v-3.6c0,-.6,0,-.9,0,-1c-.1,-.1,-.2,-.2,-.3,-.2c-.1,-.1,-.3,-.1,-.7,-.1v-.3h3.3v.3c-.3,0,-.6,0,-.7,.1c-.1,0,-.2,.1,-.2,.2c-.1,.1,-.1,.4,-.1,1Z" class="gd_143"/>
<path d="M702.2,851.5l2.2,-5h2.3v.3c-.4,0,-.6,0,-.7,.1c-.1,0,-.2,.1,-.3,.2c0,.1,-.1,.4,-.1,1v3.6c0,.5,.1,.8,.1,.9c0,.2,.1,.3,.3,.3c.1,.1,.4,.1,.7,.1v.3h-3.3V853c.4,0,.6,0,.8,-.2c.1,-.1,.2,-.5,.2,-1.1v-4.1l-2.4,5.7h-.3l-2.4,-5.7v4.1c0,.5,0,.8,0,.9c.1,.2,.2,.3,.3,.3c.2,.1,.4,.1,.7,.1v.3h-2.6V853c.4,0,.7,0,.8,-.2c.2,-.2,.2,-.5,.2,-1.1v-3.6c0,-.6,0,-.9,-.1,-1c0,-.1,-.1,-.2,-.2,-.2c-.1,-.1,-.4,-.1,-.7,-.1v-.3h2.4Z" class="gd_143"/>
<path d="M708.6,848.6h3.2c0,-.4,-.1,-.7,-.2,-.9c-.1,-.3,-.3,-.5,-.5,-.7c-.3,-.1,-.5,-.2,-.8,-.2c-.4,0,-.8,.2,-1.1,.5c-.3,.3,-.5,.7,-.6,1.3m0,.4c0,1.1,.3,1.9,.8,2.4c.5,.6,1.1,.9,1.7,.9c.5,0,.9,-.1,1.2,-.4c.3,-.2,.6,-.6,.8,-1.2l.3,.1c-.2,.7,-.5,1.3,-1,1.9c-.5,.5,-1.1,.8,-1.8,.8c-.9,0,-1.6,-.3,-2.2,-.9c-.5,-.7,-.8,-1.5,-.8,-2.6c0,-1.2,.3,-2.1,.9,-2.8c.6,-.6,1.3,-.9,2.2,-.9c.8,0,1.4,.2,1.9,.7c.5,.5,.8,1.2,.8,2Z" class="gd_143"/>
<path d="M720.4,850.7c-.1,.9,-.5,1.6,-1,2.1c-.6,.5,-1.2,.7,-1.8,.7c-.8,0,-1.5,-.3,-2.1,-1c-.5,-.6,-.8,-1.5,-.8,-2.6c0,-1.1,.3,-2,.9,-2.6c.7,-.7,1.5,-1,2.3,-1c.7,0,1.3,.1,1.7,.5c.4,.4,.7,.7,.7,1.1c0,.2,-.1,.4,-.2,.5c-.2,.1,-.3,.1,-.5,.1c-.3,0,-.6,0,-.7,-.2c-.1,-.1,-.1,-.3,-.2,-.6c0,-.3,-.1,-.6,-.3,-.7c-.2,-.2,-.4,-.2,-.7,-.2c-.5,0,-.9,.2,-1.2,.5c-.4,.5,-.6,1.2,-.6,2c0,.8,.2,1.5,.6,2.1c.4,.6,.9,1,1.6,1c.5,0,.9,-.2,1.3,-.5c.3,-.3,.6,-.7,.8,-1.3Z" class="gd_143"/>
<path d="M722.8,848.6h3.1c0,-.4,-.1,-.7,-.1,-.9c-.2,-.3,-.3,-.5,-.6,-.7c-.2,-.1,-.5,-.2,-.8,-.2c-.4,0,-.7,.2,-1.1,.5c-.3,.3,-.5,.7,-.5,1.3m0,.4c0,1.1,.2,1.9,.7,2.4c.5,.6,1.1,.9,1.7,.9c.5,0,.9,-.1,1.2,-.4c.3,-.2,.6,-.6,.8,-1.2l.3,.1c-.1,.7,-.4,1.3,-.9,1.9c-.5,.5,-1.2,.8,-1.9,.8c-.8,0,-1.5,-.3,-2.1,-.9c-.6,-.7,-.9,-1.5,-.9,-2.6c0,-1.2,.3,-2.1,.9,-2.8c.6,-.6,1.3,-.9,2.3,-.9c.7,0,1.3,.2,1.8,.7c.5,.5,.8,1.2,.8,2Z" class="gd_143"/>
<path d="M732.6,849.5v-1.4c0,-.5,0,-.8,-.1,-.9c0,-.2,-.1,-.3,-.3,-.3c-.1,-.1,-.3,-.1,-.6,-.1v-.3h3.3v.3c-.4,0,-.6,0,-.7,.1c-.1,0,-.2,.1,-.3,.2c0,.1,-.1,.4,-.1,1v3.6c0,.5,.1,.8,.1,.9c.1,.2,.2,.3,.3,.3c.2,.1,.4,.1,.7,.1v.3h-3.5V853c.4,0,.7,0,.8,0c.1,-.1,.2,-.2,.3,-.3c.1,-.2,.1,-.5,.1,-1V850c-.7,.4,-1.5,.6,-2.3,.6c-.5,0,-.8,-.1,-1,-.2c-.3,-.1,-.4,-.2,-.5,-.4c-.1,-.1,-.1,-.3,-.1,-.7v-1.2c0,-.5,0,-.8,-.1,-.9c0,-.1,-.1,-.2,-.2,-.3c-.2,-.1,-.4,-.1,-.6,-.1v-.3H731v.3c-.4,0,-.6,0,-.7,.1c-.1,0,-.2,.1,-.3,.2c0,.1,-.1,.4,-.1,1v.8c0,.3,.1,.6,.1,.7c.1,.1,.2,.2,.3,.3c.2,0,.4,.1,.8,.1c.5,0,1,-.2,1.5,-.5Z" class="gd_143"/>
<path d="M737.8,851.2l3,-3.4c0,-.4,-.1,-.7,-.2,-.8c-.2,-.2,-.4,-.2,-.7,-.2v-.3H743v.3c-.3,0,-.5,0,-.6,.1c-.1,0,-.2,.1,-.3,.2c-.1,.1,-.1,.4,-.1,1v3.6c0,.5,0,.8,.1,.9c0,.1,.1,.2,.3,.3c.1,.1,.3,.1,.6,.1v.3h-3.3V853c.5,0,.7,0,.9,-.2c.1,-.1,.2,-.5,.2,-1.1v-3.2l-3,3.4c0,.4,.1,.7,.2,.9c.1,.1,.4,.2,.7,.2v.3h-3.1V853c.4,0,.7,0,.8,-.2c.1,-.2,.2,-.5,.2,-1.1v-3.6c0,-.6,0,-.9,-.1,-1c0,-.1,-.1,-.2,-.2,-.2c-.2,-.1,-.4,-.1,-.7,-.1v-.3h3.3v.3c-.4,0,-.6,0,-.7,.1c-.1,0,-.2,.1,-.3,.2c0,.1,-.1,.4,-.1,1Z" class="gd_143"/>
<path d="M745,848.6h3.2c0,-.4,-.1,-.7,-.2,-.9c-.1,-.3,-.3,-.5,-.5,-.7c-.3,-.1,-.5,-.2,-.8,-.2c-.4,0,-.8,.2,-1.1,.5c-.3,.3,-.5,.7,-.6,1.3m0,.4c0,1.1,.3,1.9,.8,2.4c.5,.6,1,.9,1.7,.9c.5,0,.8,-.1,1.2,-.4c.3,-.2,.6,-.6,.8,-1.2l.2,.1c-.1,.7,-.4,1.3,-.9,1.9c-.5,.5,-1.1,.8,-1.9,.8c-.8,0,-1.5,-.3,-2.1,-.9c-.6,-.7,-.8,-1.5,-.8,-2.6c0,-1.2,.3,-2.1,.9,-2.8c.6,-.6,1.3,-.9,2.2,-.9c.8,0,1.4,.2,1.9,.7c.5,.5,.7,1.2,.7,2Z" class="gd_143"/>
</svg>