<?xml version="1.0" encoding="UTF-8" standalone="no"?>
<!DOCTYPE svg PUBLIC "-//W3C//DTD SVG 1.1//EN"
"http://www.w3.org/Graphics/SVG/1.1/DTD/svg11.dtd">
<svg viewBox="0 0 909 1147" version="1.1" xmlns="http://www.w3.org/2000/svg" xmlns:xlink="http://www.w3.org/1999/xlink">
<defs>
<style type="text/css"><![CDATA[
.g0_147{
fill: #E7A9A1;
}
.g1_147{
fill: none;
stroke: #0EA5DF;
stroke-width: 0.763;
stroke-miterlimit: 10;
}
.g2_147{
fill: none;
stroke: #000;
stroke-width: 0.763;
stroke-miterlimit: 10;
}
.g3_147{
fill: #FCD3C1;
}
]]></style>
</defs>
<path d="M835.8,1131h73.6v-51.5H835.8V1131Z" class="g0_147"/>
<path d="M73.6,281H155M74,300.5V281.4m81,-.4h39m-39,19.5V281.4m39,-.4h39m-39,19.5V281.4m39,-.4h39m-39,19.5V281.4m39,-.4h39.3M272,300.5V281.4m38.9,19.1V281.4M73.6,300.9H155m-81,21V301.2m81,-.3h39m-39,21V301.2m39,-.3h39m-39,21V301.2m39,-.3h39m-39,21V301.2m39,-.3h39.3m-39.3,21V301.2m38.9,20.7V301.2m-237.3,21H155m0,0h39m0,0h39m0,0h39m0,0h39.3M73.6,345H155M74,364.5V345.4m81,-.4h39m-39,19.5V345.4m39,-.4h39m-39,19.5V345.4m39,-.4h39m-39,19.5V345.4m39,-.4h39.3M272,364.5V345.4m38.9,19.1V345.4M73.6,364.9H155m-81,21V365.3m81,-.4h39m-39,21V365.3m39,-.4h39m-39,21V365.3m39,-.4h39m-39,21V365.3m39,-.4h39.3m-39.3,21V365.3m38.9,20.6V365.3m-237.3,21H155m0,0h39m0,0h39m0,0h39m0,0h39.3" class="g1_147"/>
<path d="M103.9,734.4h24.3m-23.9,22.5V734.8m23.9,-.4h22.1m-22.1,22.5V734.8m21.7,22.1V734.8m-46,22.4h24.3m-23.9,22.5V757.6m23.9,-.4h22.1m-22.1,22.5V757.6m21.7,22.1V757.6m-46,22.5h24.3m0,0h22.1" class="g2_147"/>
<path d="M74,883.1h82.7v17.3H74V883.1Zm82.7,0h81.2v17.3H156.7V883.1Zm81.2,0h77.2v17.3H237.9V883.1ZM74,1021.7H315.1V1039H74v-17.3Z" class="g3_147"/>
<path d="M73.6,883.1h83.1M74,900V883.5m82.7,-.4h81.2M156.7,900V883.5m81.2,-.4h77.6M237.9,900V883.5M315.1,900V883.5M73.6,900.4h83.1M74,917.4V900.8m82.7,-.4h81.2m-81.2,17V900.8m81.2,-.4h77.6m-77.6,17V900.8m77.2,16.6V900.8M73.6,917.7h83.1M74,934.7V918.1m82.7,-.4h81.2m-81.2,17V918.1m81.2,-.4h77.6m-77.6,17V918.1m77.2,16.6V918.1m-241.5,17h83.1M74,952V935.5m82.7,-.4h81.2M156.7,952V935.5m81.2,-.4h77.6M237.9,952V935.5M315.1,952V935.5M73.6,952.4h83.1M74,969.3V952.8m82.7,-.4h81.2m-81.2,16.9V952.8m81.2,-.4h77.6m-77.6,16.9V952.8m77.2,16.5V952.8M73.6,969.7h83.1M74,986.7V970.1m82.7,-.4h81.2m-81.2,17V970.1m81.2,-.4h77.6m-77.6,17V970.1m77.2,16.6V970.1M73.6,987h83.1M74,1004V987.4m82.7,-.4h81.2m-81.2,17V987.4m81.2,-.4h77.6m-77.6,17V987.4m77.2,16.6V987.4m-241.5,17h83.1M74,1021.3v-16.6m82.7,-.3h81.2m-81.2,16.9v-16.6m81.2,-.3h77.6m-77.6,16.9v-16.6m77.2,16.6v-16.6m-241.5,17h83.1M74,1038.6v-16.5m82.7,-.4h81.2m0,0h77.6m-.4,16.9v-16.5M73.6,1039h83.1M74,1056v-16.6m82.7,-.4h81.2m-81.2,17v-16.6m81.2,-.4h77.6m-77.6,17v-16.6m77.2,16.6v-16.6M73.6,1056.3h83.1m-82.7,17v-16.6m82.7,-.4h81.2m-81.2,17v-16.6m81.2,-.4h77.6m-77.6,17v-16.6m77.2,16.6v-16.6m-241.5,17h83.1m0,0h81.2m0,0h77.6" class="g2_147"/>
<path d="M334.2,223.4H575.3v17.3H334.2V223.4Zm0,69.3H575.3V310H334.2V292.7Z" class="g3_147"/>
<path d="M333.8,223.4h83m-82.6,17V223.8m82.6,-.4H498m0,0h77.6m-.3,17V223.8M333.8,240.7h83m-82.6,17V241.1m82.6,-.4H498m-81.2,17V241.1m81.2,-.4h77.6m-77.6,17V241.1m77.3,16.6V241.1m-241.5,17h83M334.2,275V258.4m82.6,-.3H498M416.8,275V258.4m81.2,-.3h77.6M498,275V258.4M575.3,275V258.4m-241.5,17h83m-82.6,16.9V275.8m82.6,-.4H498m-81.2,16.9V275.8m81.2,-.4h77.6M498,292.3V275.8m77.3,16.5V275.8M333.8,292.7h83m-82.6,16.9V293.1m82.6,-.4H498m0,0h77.6m-.3,16.9V293.1M333.8,310h83m-82.6,32.4v-32m82.6,-.4H498m0,0h77.6M498,342.4v-32m77.3,32v-32M333.8,342.8h83m0,0H498m0,0h77.6" class="g2_147"/>
<path d="M334.2,366.2H419v17.3H334.2V366.2Zm84.8,0h70.7v17.3H419V366.2Zm70.7,0h77.6v17.3H489.7V366.2ZM334.2,504.8H567.3v17.3H334.2V504.8Zm0,52H567.3v17.3H334.2V556.8Zm0,71.2H567.3v17.3H334.2V628Z" class="g3_147"/>
<path d="M333.8,366.2H419m-84.8,17V366.6m84.8,-.4h70.7m-70.7,17V366.6m70.7,-.4h78m-78,17V366.6m77.6,16.6V366.6M333.8,383.5H419m-84.8,17V383.9m84.8,-.4h70.7m-70.7,17V383.9m70.7,-.4h78m-78,17V383.9m77.6,16.6V383.9m-233.5,17H419m-84.8,16.9V401.2m84.8,-.3h70.7M419,417.8V401.2m70.7,-.3h78m-78,16.9V401.2m77.6,16.6V401.2m-233.5,17H419m-84.8,16.9V418.6m84.8,-.4h70.7M419,435.1V418.6m70.7,-.4h78m-78,16.9V418.6m77.6,16.5V418.6M333.8,435.5H419m-84.8,16.9V435.9m84.8,-.4h70.7M419,452.4V435.9m70.7,-.4h78m-78,16.9V435.9m77.6,16.5V435.9M333.8,452.8H419m-84.8,17V453.2m84.8,-.4h70.7m-70.7,17V453.2m70.7,-.4h78m-78,17V453.2m77.6,16.6V453.2M333.8,470.1H419m-84.8,17V470.5m84.8,-.4h70.7m-70.7,17V470.5m70.7,-.4h78m-78,17V470.5m77.6,16.6V470.5m-233.5,17H419m-84.8,16.9V487.9m84.8,-.4h70.7M419,504.4V487.9m70.7,-.4h78m-78,16.9V487.9m77.6,16.5V487.9M333.8,504.8H419m-84.8,16.9V505.2m84.8,-.4h70.7m0,0h78m-.4,16.9V505.2M333.8,522.1H419m-84.8,17V522.5m84.8,-.4h70.7m-70.7,17V522.5m70.7,-.4h78m-78,17V522.5m77.6,16.6V522.5M333.8,539.4H419m-84.8,17V539.8m84.8,-.4h70.7m-70.7,17V539.8m70.7,-.4h78m-78,17V539.8m77.6,16.6V539.8m-233.5,17H419m-84.8,16.9V557.1m84.8,-.3h70.7m0,0h78m-.4,16.9V557.1m-233.5,17H419m-84.8,18.8V574.5m84.8,-.4h70.7M419,592.9V574.5m70.7,-.4h78m-78,18.8V574.5m77.6,18.4V574.5M333.8,593.3H419m-84.8,16.9V593.7m84.8,-.4h70.7M419,610.2V593.7m70.7,-.4h78m-78,16.9V593.7m77.6,16.5V593.7M333.8,610.6H419m-84.8,17V611m84.8,-.4h70.7m-70.7,17V611m70.7,-.4h78m-78,17V611m77.6,16.6V611M333.8,628H419m-84.8,16.9V628.3M419,628h70.7m0,0h78m-.4,16.9V628.3m-233.5,17H419M334.2,680V645.7m84.8,-.4h70.7m0,0h78m-78,34.7V645.7M567.3,680V645.7M333.8,680.4H419m0,0h70.7m0,0h78M106.5,87H327.4M106.9,112.6V87.4M327.4,87h82.3m-82.3,25.6V87.4M409.7,87H492m-82.3,25.6V87.4M492,87h82.3M492,112.6V87.4M574.3,87h82.2m-82.2,25.6V87.4M656.5,87h82.3m-82.3,25.6V87.4M738.8,87h82.7m-82.7,25.6V87.4m82.3,25.2V87.4M106.5,113H327.4M106.9,138.6V113.4M327.4,113h82.3m-82.3,25.6V113.4m82.3,-.4H492m-82.3,25.6V113.4M492,113h82.3M492,138.6V113.4m82.3,-.4h82.2m-82.2,25.6V113.4m82.2,-.4h82.3m-82.3,25.6V113.4m82.3,-.4h82.7m-82.7,25.6V113.4m82.3,25.2V113.4M106.5,139H327.4M106.9,164.6V139.3M327.4,139h82.3m-82.3,25.6V139.3m82.3,-.3H492m-82.3,25.6V139.3M492,139h82.3M492,164.6V139.3m82.3,-.3h82.2m-82.2,25.6V139.3m82.2,-.3h82.3m-82.3,25.6V139.3m82.3,-.3h82.7m-82.7,25.6V139.3m82.3,25.3V139.3M106.5,164.9H327.4M106.9,190.6V165.3m220.5,-.4h82.3m-82.3,25.7V165.3m82.3,-.4H492m-82.3,25.7V165.3m82.3,-.4h82.3M492,190.6V165.3m82.3,-.4h82.2m-82.2,25.7V165.3m82.2,-.4h82.3m-82.3,25.7V165.3m82.3,-.4h82.7m-82.7,25.7V165.3m82.3,25.3V165.3M106.5,190.9H327.4M106.9,216.5V191.3m220.5,-.4h82.3m-82.3,25.6V191.3m82.3,-.4H492m-82.3,25.6V191.3m82.3,-.4h82.3M492,216.5V191.3m82.3,-.4h82.2m-82.2,25.6V191.3m82.2,-.4h82.3m-82.3,25.6V191.3m82.3,-.4h82.7m-82.7,25.6V191.3m82.3,25.2V191.3M106.5,216.9H327.4m0,0h82.3m0,0H492m0,0h82.3m0,0h82.2m0,0h82.3m0,0h82.7" class="g2_147"/>
</svg>