<?xml version="1.0" encoding="UTF-8" standalone="no"?>
<!DOCTYPE svg PUBLIC "-//W3C//DTD SVG 1.1//EN"
"http://www.w3.org/Graphics/SVG/1.1/DTD/svg11.dtd">
<svg viewBox="0 0 909 1147" version="1.1" xmlns="http://www.w3.org/2000/svg" xmlns:xlink="http://www.w3.org/1999/xlink">
<defs>
<clipPath id="c0_21"><path d="M284.7,953.4V931.8h21.7v21.6Z"/></clipPath>
<style type="text/css"><![CDATA[
.g0_21{
fill: #FAAF82;
}
.g1_21{
fill: #E8F1FA;
}
.g2_21{
fill: none;
stroke: #0EA5DF;
stroke-width: 3.055;
}
.g3_21{
fill: #FFF1E0;
}
.g4_21{
fill: #0EA5DF;
}
.g5_21{
fill: none;
stroke: #0EA5DF;
stroke-width: 0.763;
stroke-miterlimit: 10;
}
.g6_21{
fill: none;
stroke: #000;
stroke-width: 0.763;
stroke-miterlimit: 2;
}
.g7_21{
fill: none;
stroke: #000;
stroke-width: 0.458;
stroke-miterlimit: 2;
}
.g8_21{
fill: none;
stroke: #000;
stroke-width: 1.54;
stroke-miterlimit: 2;
}
.g9_21{
fill: none;
stroke: #000;
stroke-width: 1.069;
stroke-miterlimit: 2;
}
.ga_21{
fill: #000;
}
]]></style>
</defs>
<path d="M835.8,1129.8h73.6v-51.5H835.8v51.5Z" class="g0_21"/>
<image clip-path="url(#c0_21)" preserveAspectRatio="none" x="285" y="932" width="21" height="21" xlink:href="img/p1.jpg"/>
<path d="M183.7,1078.3H834.8V668H183.7v410.3Z" class="g1_21"/>
<path d="M72.5,668.9H835.8" class="g2_21"/>
<path d="M184.1,436.1h648v-107h-648v107Z" class="g3_21"/>
<path d="M132.1,366.6h39.6V329.1H132.1v37.5Z" class="g4_21"/>
<path d="M73.6,446.6H835.9" class="g2_21"/>
<path d="M282,141.3h59.3m-58.9,43V141.7m58.9,-.4h68.4m-68.4,43V141.7m68.4,-.4h91.2m-91.2,43V141.7m90.8,42.6V141.7m-284.2,43h66.1m-65.7,21V185.1m65.7,-.4h58.9m-58.9,21V185.1m58.9,-.4h68.4m-68.4,21V185.1m68.4,-.4h91.2m-91.2,21V185.1m90.8,20.6V185.1m-284.2,21h66.1m-65.7,24.2V206.5m65.7,-.4h58.9m-58.9,24.2V206.5m58.9,-.4h68.4m-68.4,24.2V206.5m68.4,-.4h91.2m-91.2,24.2V206.5m90.8,23.8V206.5M216.3,230.6h66.1m0,0h58.9m0,0h68.4m0,0h91.2" class="g5_21"/>
<path d="M235.9,250.7h89.7m0,0h158" class="g6_21"/>
<path d="M246,258.5H483.7" class="g7_21"/>
<path d="M235.9,258.5h16.9" class="g6_21"/>
<path d="M247.9,254.6l6.1,3.9l-6.1,4" class="g8_21"/>
<path d="M307.4,258.5h16.8" class="g6_21"/>
<path d="M319.4,254.6l6,3.9l-6,4" class="g8_21"/>
<path d="M483.6,258.5H466.7" class="g6_21"/>
<path d="M471.6,262.5l-6.1,-4l6.1,-3.9" class="g8_21"/>
<path d="M345.4,258.5H328.5" class="g6_21"/>
<path d="M333.4,262.5l-6.1,-4l6.1,-3.9" class="g8_21"/>
<path d="M236,250.5v8.1m247.6,-.2v-7.1m-158,0v7.2" class="g9_21"/>
<path fill-rule="evenodd" d="M236.1,249.4c.7,0,1.2,.5,1.2,1.2c0,.7,-.5,1.2,-1.2,1.2c-.7,0,-1.2,-.5,-1.2,-1.2c0,-.7,.5,-1.2,1.2,-1.2Z" class="ga_21"/>
<path d="M236.1,249.4c.7,0,1.2,.5,1.2,1.2c0,.7,-.5,1.2,-1.2,1.2c-.7,0,-1.2,-.5,-1.2,-1.2c0,-.7,.5,-1.2,1.2,-1.2Z" class="g9_21"/>
<path fill-rule="evenodd" d="M483.3,249.4c.6,0,1.2,.5,1.2,1.2c0,.7,-.6,1.2,-1.2,1.2c-.7,0,-1.3,-.5,-1.3,-1.2c0,-.7,.6,-1.2,1.3,-1.2Z" class="ga_21"/>
<path d="M483.3,249.4c.6,0,1.2,.5,1.2,1.2c0,.7,-.6,1.2,-1.2,1.2c-.7,0,-1.3,-.5,-1.3,-1.2c0,-.7,.6,-1.2,1.3,-1.2Z" class="g9_21"/>
<path d="M74.5,476.2H181.9V446.1H74.5v30.1Z" class="g4_21"/>
</svg>
