<?xml version="1.0" encoding="UTF-8" standalone="no"?>
<!DOCTYPE svg PUBLIC "-//W3C//DTD SVG 1.1//EN"
"http://www.w3.org/Graphics/SVG/1.1/DTD/svg11.dtd">
<svg viewBox="0 0 909 1147" version="1.1" xmlns="http://www.w3.org/2000/svg" xmlns:xlink="http://www.w3.org/1999/xlink">
<defs>
<clipPath id="c0_93"><path d="M126.7,958.8c-.3,0,-.7,0,-.9,-.1q-.1,0,-.2,0c-4,-1.2,-7.6,-3.3,-10.9,-5.3c-.6,-.2,-1.2,-.4,-1.7,-.6l-.2,-.3c0,-.1,-.1,-.2,-.1,-.3h-.6l-.3,-.6h-.6c-.1,-.2,-.2,-.4,-.3,-.6c-.6,-.2,-1.2,-.4,-1.8,-.6c-.1,-.2,-.2,-.4,-.3,-.6c-.4,-.1,-.8,-.2,-1.2,-.3c0,-.1,-.1,-.2,-.1,-.3l-.2,-.3h-.5l-.3,-.6h-.6c-.1,-.1,-.1,-.2,-.2,-.3l-.1,-.3c-.4,0,-.8,-.1,-1.2,-.2v-.3c-.3,-.1,-.6,-.2,-.9,-.3c-.1,-.2,-.2,-.4,-.3,-.6h-.6l-.3,-.6c-.6,-.5,-1.2,-1,-1.7,-1.5v-.6c-.3,-.2,-.6,-.4,-.9,-.6c-.4,-.5,0,-.6,-.6,-1.2c0,-.3,0,-.7,0,-1c0,-2.3,.2,-3.8,.9,-5.4v-.9c.2,-.1,.4,-.2,.6,-.3c.1,-.5,.3,-.9,.4,-1.4l.4,-1.3c.2,-.1,.4,-.2,.6,-.3v-.9c.2,-.1,.4,-.2,.6,-.3v-.6h.3v-.5h.3v-.6h.3v-.6h.3v-.6c.2,-.1,.4,-.2,.6,-.3c.1,-.4,.2,-.8,.3,-1.2c.2,-.1,.4,-.2,.6,-.3v-.9c.2,-.1,.4,-.2,.6,-.3v-.6h.3V923h.3v-.6h.3v-.6h.3c0,-.3,.1,-.6,.2,-.9c.2,-.1,.4,-.2,.6,-.3c.2,-.6,.4,-1.2,.6,-1.8c.2,-.1,.4,-.2,.6,-.3c.2,-.6,.4,-1.2,.6,-1.7c.2,-.1,.4,-.2,.6,-.3c.1,-.4,.2,-.8,.3,-1.2h.3c.1,-.3,.2,-.6,.3,-.9c.2,-.1,.4,-.2,.6,-.3c.1,-.4,.2,-.8,.3,-1.2h.3c.1,-.3,.2,-.6,.3,-.9c.2,-.1,.4,-.2,.5,-.3c.1,-.4,.2,-.8,.3,-1.1c.2,-.1,.4,-.2,.6,-.3c.2,-.6,.4,-1.2,.6,-1.8c.2,-.1,.4,-.2,.6,-.3c.1,-.4,.2,-.8,.3,-1.2c.2,-.1,.4,-.2,.6,-.3c.2,-.6,.4,-1.2,.6,-1.8h.3v-.5h.3c.2,-.6,.4,-1.2,.6,-1.8h.3c.1,-.6,.2,-1.2,.3,-1.8h.3v-.6h.3c.1,-.7,.2,-1.4,.2,-2h.3c.1,-.7,.2,-1.4,.3,-2.1h.3c.2,-.6,.4,-1.2,.6,-1.8h.3c.1,-.4,.2,-.8,.3,-1.2c.2,-.1,.4,-.2,.6,-.3c.2,-.5,.4,-1.1,.6,-1.7c.2,-.1,.4,-.2,.6,-.3v-.6h.3v-.6c.2,-.1,.4,-.2,.6,-.3v-.6c1.3,-1.7,2.7,-3.3,4.1,-5c1,-.7,2.5,-.9,3.3,-1.8h.1c0,0,.1,0,.2,0c2.6,0,5,.7,7,1.5c.7,.2,1.2,.4,1.8,.6c.7,.1,1.4,.2,2.1,.3v.3c.7,.1,1.3,.2,2,.3v.3h.6v.3c1,.2,2,.4,3,.6v.3h.6v.2h.9v.3c.3,.1,.7,.2,1.1,.3v.3h.9v.3h.6v.3h.9v.3c.6,.2,1.2,.4,1.8,.6v.3h.6v.3c.5,.2,1.1,.4,1.7,.6l.3,.6h.6c.3,.4,.6,.8,.9,1.2c.3,.1,.6,.2,.9,.3v.5c.3,.2,.6,.4,.9,.6v.6c.2,.1,.4,.2,.6,.3c.5,1.7,.9,3.4,1.4,5v3h.3c-.1,1.9,-.2,3.7,-.3,5.6h-.3v.9c-.9,1.3,-1.9,2.5,-2.9,3.8h-.6c-.2,.3,-.4,.6,-.6,.9c-.2,.1,-.4,.2,-.6,.3v.6c-.3,.2,-.6,.4,-.9,.6v.6c-.2,.1,-.4,.2,-.6,.3c-.2,.6,-.4,1.2,-.5,1.7c-.2,.1,-.4,.2,-.6,.3v.6c-.2,.1,-.4,.2,-.6,.3v.6h-.3v.9c-.2,.1,-.4,.2,-.6,.3c-.2,.6,-.4,1.2,-.6,1.8c-.2,.1,-.4,.2,-.6,.3c-.1,.4,-.2,.7,-.3,1.1h-.3v.6h-.3v.6c-.2,.1,-.4,.2,-.6,.3v.6H151v.6h-.3v.6h-.3v.6c-.2,.1,-.4,.2,-.5,.3c-.2,.6,-.4,1.2,-.6,1.7c-.2,.1,-.4,.2,-.6,.3v.6h-.3v.6h-.3v.6h-.3v.6h-.3v.6h-.3c-.1,.4,-.2,.8,-.3,1.2c-.2,.1,-.4,.2,-.6,.3c-.2,.6,-.4,1.1,-.6,1.7c-.2,.1,-.4,.2,-.6,.3c-.2,.6,-.4,1.2,-.6,1.8h-.3c-.1,.3,-.2,.6,-.3,.9c-.1,.1,-.3,.2,-.5,.3v.6h-.3v.6h-.3v.6h-.3v.5h-.3v.6c-.2,.1,-.4,.2,-.6,.3c-.1,.4,-.2,.8,-.3,1.2c-.2,.1,-.4,.2,-.6,.3c-.2,.6,-.4,1.2,-.6,1.8c-.2,.1,-.4,.2,-.6,.3v.6h-.3v.6h-.3v.5h-.3v.6h-.3v.6H138c-.1,.3,-.2,.6,-.2,.9c-.2,.1,-.4,.2,-.6,.3v.6h-.3c-.1,.3,-.2,.6,-.3,.9c-.2,.1,-.4,.2,-.6,.3v.6c-.2,.1,-.4,.2,-.6,.3l-.3,.8h-.3c-.1,.4,-.2,.8,-.3,1.2c-.5,.4,-1,.8,-1.5,1.2c-.3,.4,-.6,.8,-.9,1.2c0,0,-.1,.1,-.2,.1c-.7,.4,-2.3,.9,-3.8,1.1c-.1,0,-.2,0,-.3,0c-.3,.1,-.5,.1,-.8,.1c-.1,0,-.2,0,-.3,0Z"/></clipPath>
<clipPath id="c1_93"><path d="M142.4,486V468h30.2v18Z"/></clipPath>
<style type="text/css"><![CDATA[
.g0_93{
fill: #B6D774;
}
.g1_93{
fill: none;
stroke: #8ED8F8;
stroke-width: 0.763;
stroke-miterlimit: 2;
}
.g2_93{
fill: #000;
}
.g3_93{
fill: none;
stroke: #000;
stroke-width: 1.069;
stroke-miterlimit: 2;
}
.g4_93{
fill: none;
stroke: #0EA5DF;
stroke-width: 3.055;
}
.g5_93{
fill: #FFF1E0;
}
.g6_93{
fill: #E8F1FA;
}
.g7_93{
fill: #0EA5DF;
}
.g8_93{
fill: #FFF;
}
.g9_93{
fill: none;
stroke: #000;
stroke-width: 0.763;
}
.ga_93{
fill: none;
stroke: #000;
stroke-width: 1.069;
}
]]></style>
</defs>
<path d="M835.8,1131h73.6v-51.5H835.8V1131Z" class="g0_93"/>
<path d="M186.5,345.9H368.3m-181.8,13H368.3m-181.8,13H368.3m-181.8,13H368.3m-181.8,13H368.3m-181.8,13H368.3m-181.8,13H368.3m-181.8,13H368.3m-181.8,-91v91m13,-91v91m13,-91v91m13,-91v91m13,-91v91m13,-91v91m13,-91v91m13,-91v91m12.9,-91v91m13,-91v91m13,-91v91m13,-91v91m13,-91v91m13,-91v91m13,-91v91" class="g1_93"/>
<path fill-rule="evenodd" d="M275.1,414.1l-1.7,6l-.2,.9c0,0,0,.1,0,.1c0,.1,0,.2,.1,.3c0,.1,.1,.1,.1,.1c.1,0,.2,-.1,.3,-.2c.3,-.1,.6,-.5,1,-1l.3,.2c-.4,.6,-.9,1.1,-1.3,1.4c-.4,.3,-.8,.5,-1.2,.5c-.3,0,-.5,-.1,-.6,-.2c-.1,-.1,-.2,-.3,-.2,-.6c0,-.3,.1,-.6,.2,-1.1l.2,-.7c-.8,1,-1.5,1.7,-2.1,2.1c-.5,.3,-1,.5,-1.4,.5c-.5,0,-.8,-.2,-1.2,-.6c-.3,-.3,-.4,-.8,-.4,-1.5c0,-.9,.3,-1.9,.8,-3c.6,-1,1.3,-1.8,2.2,-2.5c.7,-.5,1.3,-.7,1.9,-.7c.4,0,.7,.1,.9,.3c.3,.1,.5,.5,.6,.9l.3,-1Zm-3.1,.4c-.4,0,-.8,.2,-1.3,.6c-.6,.5,-1.1,1.2,-1.6,2.2c-.5,1,-.7,1.9,-.7,2.7c0,.4,.1,.8,.3,1c.2,.2,.4,.3,.7,.3c.7,0,1.4,-.4,2.1,-1.4c1,-1.3,1.6,-2.6,1.6,-3.9c0,-.5,-.1,-.9,-.3,-1.1c-.2,-.3,-.5,-.4,-.8,-.4Z" class="g2_93"/>
<path fill-rule="evenodd" d="M259.2,353.4l-1.8,6.2c.6,-.6,1.1,-1.1,1.5,-1.3c.5,-.2,.9,-.3,1.4,-.3c.6,0,1.2,.2,1.6,.6c.4,.5,.6,1.1,.6,1.8c0,1,-.3,1.9,-.8,2.9c-.6,.9,-1.2,1.7,-2.1,2.2c-.8,.5,-1.6,.8,-2.4,.8c-.9,0,-1.8,-.3,-2.8,-1l2.7,-9.4c.2,-.7,.3,-1.1,.3,-1.2c0,-.2,0,-.3,-.1,-.4c-.1,-.1,-.3,-.2,-.6,-.2c-.1,0,-.3,.1,-.6,.1v-.3Zm-3.5,12c.6,.3,1.2,.5,1.6,.5c.5,0,1.1,-.2,1.7,-.6c.5,-.4,1,-1,1.4,-1.9c.4,-.9,.6,-1.9,.6,-2.8c0,-.5,-.1,-1,-.4,-1.3c-.2,-.3,-.6,-.5,-.9,-.5c-.6,0,-1.1,.3,-1.7,.7c-.5,.5,-.9,1.1,-1.1,1.9Z" class="g2_93"/>
<path fill-rule="evenodd" d="M207.6,383l-3.1,10.6c-.2,.5,-.3,.9,-.3,1.1c0,.1,.1,.1,.1,.2q.1,0,.2,0c0,0,.1,0,.2,-.1c.2,-.1,.6,-.5,1.1,-1l.3,.1c-.5,.6,-.9,1.1,-1.3,1.5c-.5,.4,-.9,.5,-1.3,.5c-.2,0,-.3,0,-.5,-.2c-.1,-.1,-.2,-.3,-.2,-.6c0,-.3,.1,-.8,.3,-1.3l.4,-1.2c-.9,1.4,-1.7,2.3,-2.4,2.8c-.5,.4,-1,.5,-1.4,.5c-.5,0,-.9,-.2,-1.2,-.6c-.3,-.4,-.5,-.9,-.5,-1.6c0,-.9,.3,-1.8,.8,-2.8c.6,-1.1,1.4,-1.9,2.3,-2.5c.7,-.5,1.4,-.8,2,-.8c.3,0,.6,.1,.8,.2c.3,.2,.5,.4,.7,.7l.9,-3.1c.1,-.3,.1,-.4,.2,-.6c0,-.2,.1,-.4,.1,-.6c0,-.1,-.1,-.2,-.2,-.3c-.1,-.1,-.2,-.1,-.4,-.1c-.2,0,-.4,0,-.7,0v-.3Zm-3.4,6.4c0,-.4,-.1,-.7,-.3,-1c-.2,-.2,-.5,-.3,-.8,-.3c-.8,0,-1.6,.6,-2.4,1.8c-.8,1.3,-1.2,2.5,-1.2,3.6c0,.5,.1,.8,.3,1c.2,.3,.4,.4,.7,.4c.6,0,1.4,-.7,2.3,-2c1,-1.4,1.4,-2.5,1.4,-3.5Z" class="g2_93"/>
<path fill-rule="evenodd" d="M331.5,388.7c-.7,.7,-1.3,1.3,-1.9,1.6c-.6,.4,-1.3,.5,-2,.5c-.9,0,-1.5,-.2,-2,-.7c-.5,-.5,-.7,-1.1,-.7,-1.9c0,-.9,.2,-1.8,.8,-2.7c.5,-.9,1.2,-1.6,2,-2.2c.9,-.5,1.7,-.8,2.6,-.8c.6,0,1.1,.1,1.4,.4c.3,.3,.5,.6,.5,1c0,.4,-.1,.7,-.3,1c-.2,.2,-.4,.3,-.7,.3c-.1,0,-.3,-.1,-.4,-.2c-.1,-.1,-.2,-.3,-.2,-.5c0,-.1,0,-.2,.1,-.3c0,-.1,.1,-.2,.2,-.3c.2,-.1,.3,-.2,.3,-.3q0,-.1,0,-.2c0,-.1,0,-.2,-.1,-.3c-.2,-.1,-.4,-.2,-.8,-.2c-.6,0,-1.1,.2,-1.7,.6c-.6,.4,-1.1,1,-1.5,1.8c-.5,.9,-.7,1.8,-.7,2.7c0,.7,.2,1.1,.5,1.5c.4,.3,.8,.5,1.4,.5c.5,0,.9,-.1,1.4,-.3c.4,-.2,1,-.7,1.5,-1.3Z" class="g2_93"/>
<path d="M290,371.8H212.7v38.7H342.9L290,371.8Z" class="g3_93"/>
<path d="M187.2,152.9H369.1m-181.9,13H369.1m-181.9,13H369.1m-181.9,13H369.1m-181.9,13H369.1M187.2,217.8H369.1m-181.9,13H369.1m-181.9,13H369.1M187.3,152.9v90.9m12.9,-90.9v90.9m13,-90.9v90.9m13,-90.9v90.9m13,-90.9v90.9m13,-90.9v90.9m13,-90.9v90.9m13,-90.9v90.9m13,-90.9v90.9m13,-90.9v90.9m13,-90.9v90.9m13,-90.9v90.9m13,-90.9v90.9m12.9,-90.9v90.9m13,-90.9v90.9" class="g1_93"/>
<path fill-rule="evenodd" d="M275.9,234.2l-1.8,6.1l-.2,.8c0,.1,0,.2,0,.2c0,.1,0,.2,.1,.3q.1,0,.2,0c.1,0,.2,0,.3,-.1c.2,-.2,.5,-.5,.9,-1.1l.3,.2c-.4,.7,-.8,1.1,-1.2,1.5c-.5,.3,-.9,.4,-1.3,.4c-.2,0,-.4,0,-.5,-.1c-.2,-.2,-.2,-.4,-.2,-.6c0,-.3,0,-.7,.2,-1.2l.2,-.6c-.8,1,-1.5,1.7,-2.2,2.1c-.5,.3,-.9,.4,-1.4,.4c-.4,0,-.8,-.1,-1.1,-.5c-.3,-.4,-.5,-.9,-.5,-1.5c0,-.9,.3,-1.9,.9,-3c.5,-1,1.3,-1.9,2.1,-2.5c.7,-.5,1.4,-.8,2,-.8c.3,0,.6,.1,.9,.3c.2,.2,.4,.5,.5,1l.4,-1.1Zm-3.2,.5c-.4,0,-.8,.2,-1.2,.5c-.6,.5,-1.2,1.3,-1.6,2.3c-.5,1,-.8,1.9,-.8,2.7c0,.4,.1,.7,.3,1c.2,.2,.5,.3,.7,.3c.7,0,1.4,-.5,2.2,-1.4c1,-1.3,1.5,-2.6,1.5,-4c0,-.5,-.1,-.8,-.3,-1.1c-.2,-.2,-.5,-.3,-.8,-.3Z" class="g2_93"/>
<path fill-rule="evenodd" d="M276.1,160.8l-1.8,6.2c.6,-.6,1.1,-1,1.5,-1.2c.5,-.3,.9,-.4,1.4,-.4c.6,0,1.2,.3,1.6,.7c.4,.4,.6,1,.6,1.8c0,.9,-.3,1.9,-.8,2.8c-.6,1,-1.2,1.7,-2.1,2.3c-.8,.5,-1.6,.8,-2.4,.8c-.9,0,-1.9,-.4,-2.8,-1.1l2.7,-9.3c.2,-.7,.3,-1.2,.3,-1.3c0,-.2,0,-.3,-.1,-.3c-.1,-.2,-.4,-.2,-.6,-.2c-.1,0,-.3,0,-.6,.1v-.4Zm-3.5,12c.6,.4,1.2,.5,1.6,.5c.5,0,1.1,-.2,1.6,-.5c.6,-.4,1.1,-1.1,1.5,-2c.4,-.9,.6,-1.8,.6,-2.8c0,-.5,-.1,-.9,-.4,-1.2c-.2,-.4,-.6,-.5,-.9,-.5c-.6,0,-1.1,.2,-1.7,.7c-.5,.4,-.9,1,-1.1,1.8Z" class="g2_93"/>
<path fill-rule="evenodd" d="M238,196.8l-2.5,8.7c1.1,-1.6,1.9,-2.7,2.5,-3.3c.7,-.5,1.2,-.8,1.8,-.8c.3,0,.5,.1,.7,.3c.2,.2,.3,.5,.3,.8c0,.4,-.1,.9,-.3,1.4l-1,3.8c-.2,.5,-.3,.7,-.3,.7c0,.1,.1,.2,.1,.3q.1,0,.2,0c.1,0,.2,0,.3,-.1c.3,-.2,.6,-.6,1,-1.1l.3,.2c-.2,.3,-.5,.7,-.9,1c-.4,.4,-.7,.7,-.9,.8c-.3,.2,-.5,.2,-.7,.2c-.2,0,-.4,0,-.6,-.2c-.1,-.1,-.2,-.3,-.2,-.5c0,-.3,.1,-.8,.3,-1.5l1.1,-3.6c.1,-.4,.2,-.8,.2,-1c0,-.1,-.1,-.2,-.1,-.3c-.1,-.1,-.2,-.1,-.3,-.1c-.2,0,-.4,.1,-.6,.2c-.4,.2,-.9,.7,-1.4,1.4c-.2,.2,-.6,.9,-1.5,2.2c-.2,.4,-.4,.9,-.6,1.4l-.5,1.8H233l3,-10.2l.3,-1.1c0,-.2,-.1,-.3,-.2,-.4c-.2,-.2,-.3,-.2,-.5,-.2c-.1,0,-.3,0,-.5,0l-.2,.1v-.4Z" class="g2_93"/>
<path fill-rule="evenodd" d="M351.3,197.6c-.6,.7,-1.2,1.3,-1.9,1.6c-.6,.4,-1.3,.5,-2,.5c-.8,0,-1.5,-.2,-2,-.7c-.4,-.5,-.7,-1.1,-.7,-1.9c0,-.9,.3,-1.8,.8,-2.7c.5,-.9,1.2,-1.6,2,-2.1c.9,-.6,1.8,-.9,2.6,-.9c.6,0,1.1,.2,1.4,.4c.4,.3,.5,.6,.5,1c0,.4,-.1,.7,-.3,1c-.2,.2,-.4,.3,-.6,.3c-.2,0,-.4,-.1,-.5,-.2c-.1,-.1,-.2,-.3,-.2,-.4c0,-.2,0,-.3,.1,-.4c0,-.1,.1,-.2,.3,-.3c.1,-.1,.2,-.2,.2,-.3c0,-.1,.1,-.1,.1,-.2c0,-.1,-.1,-.2,-.2,-.3c-.2,-.1,-.4,-.2,-.7,-.2c-.6,0,-1.2,.2,-1.8,.6c-.5,.5,-1,1,-1.4,1.8c-.5,.9,-.8,1.8,-.8,2.8c0,.6,.2,1,.5,1.4c.4,.4,.9,.5,1.5,.5c.4,0,.9,-.1,1.3,-.3c.5,-.2,1,-.7,1.5,-1.3Z" class="g2_93"/>
<path fill-rule="evenodd" d="M205,195.4c-.6,.7,-1.3,1.3,-1.9,1.6c-.6,.4,-1.3,.6,-2,.6c-.9,0,-1.5,-.3,-2,-.8c-.5,-.4,-.7,-1.1,-.7,-1.9c0,-.9,.3,-1.8,.8,-2.7c.5,-.9,1.2,-1.6,2,-2.1c.9,-.6,1.7,-.9,2.6,-.9c.6,0,1.1,.2,1.4,.5c.3,.2,.5,.6,.5,1c0,.3,-.1,.6,-.3,.9c-.2,.2,-.4,.3,-.7,.3c-.1,0,-.3,-.1,-.4,-.2c-.1,-.1,-.2,-.2,-.2,-.4c0,-.1,0,-.2,.1,-.3c0,-.1,.1,-.2,.2,-.4c.2,-.1,.3,-.2,.3,-.3c0,0,0,-.1,0,-.2c0,-.1,0,-.2,-.1,-.3c-.2,-.1,-.4,-.2,-.8,-.2c-.5,0,-1.1,.3,-1.7,.7c-.6,.4,-1.1,1,-1.5,1.7c-.5,.9,-.7,1.9,-.7,2.8c0,.6,.2,1.1,.5,1.4c.4,.4,.8,.6,1.4,.6c.5,0,.9,-.2,1.4,-.4c.4,-.2,1,-.6,1.5,-1.2Z" class="g2_93"/>
<path d="M317.2,179h-91L188,230.6H356.4L317.2,179Zm-90.5,0v50.9" class="g3_93"/>
<image clip-path="url(#c0_93)" preserveAspectRatio="none" x="97" y="879" width="69" height="82" xlink:href="img/p1.jpg"/>
<path d="M73.6,261.1H835.8" class="g4_93"/>
<path d="M186.3,506.3H837.4V457.9H186.3v48.4Z" class="g5_93"/>
<path d="M73.6,66.5H835.8" class="g4_93"/>
<path d="M185.1,1078.3H835.8V697.2H185.1v381.1Z" class="g6_93"/>
<path d="M73.6,695.7H835.8" class="g4_93"/>
<path d="M137.4,495.4h39.7V457.9H137.4v37.5Z" class="g7_93"/>
<path clip-path="url(#c1_93)" d="M157.7,480.5c-2.1,.1,-3.8,-1.6,-3.7,-3.7c.1,-1.7,1.5,-3.1,3.2,-3.2c2.1,-.1,3.8,1.6,3.7,3.7c-.1,1.7,-1.5,3.1,-3.2,3.2m.2,2.9c-3.9,.2,-7,-2.9,-6.8,-6.8c.2,-3.1,2.8,-5.7,5.9,-5.9c3.9,-.2,7,2.9,6.8,6.8c-.2,3.1,-2.8,5.7,-5.9,5.9m-.5,-15.3c-5.7,0,-11,3.1,-14.8,8.2c-.3,.5,-.3,1,0,1.5c3.8,5.1,9.1,8.2,14.8,8.2c5.8,0,11,-3.1,14.9,-8.2c.3,-.5,.3,-1,0,-1.5c-3.9,-5.1,-9.1,-8.2,-14.9,-8.2Z" class="g8_93"/>
<path d="M682.3,342.1h37.2m-37.2,37.8h47.1M682.3,151h37.3m-37.3,37.8h47.1" class="g9_93"/>
<path d="M73.6,514.8H835.8" class="g4_93"/>
<path d="M682.3,586.9h37.2m-37.2,37.8h56" class="g9_93"/>
<path d="M201.2,669.9h90.5M260.5,605.1l30.4,64.6M200.7,605.1h59.8m-59.6,65.2V605.4" class="ga_93"/>
<path d="M212.2,669.7C212.6,658.4,200.9,659,200.9,659m4.7,7c-.2,0,-.4,-.1,-.4,-.3c0,-.2,.2,-.4,.4,-.4c.2,0,.4,.2,.4,.4c0,.2,-.2,.3,-.4,.3Z" class="g9_93"/>
</svg>
