<?xml version="1.0" encoding="UTF-8" standalone="no"?>
<!DOCTYPE svg PUBLIC "-//W3C//DTD SVG 1.1//EN"
"http://www.w3.org/Graphics/SVG/1.1/DTD/svg11.dtd">
<svg viewBox="0 0 909 1147" version="1.1" xmlns="http://www.w3.org/2000/svg" xmlns:xlink="http://www.w3.org/1999/xlink">
<defs>
<clipPath id="c0_80"><path d="M451,962.5v-79h68.6v79Z"/></clipPath>
<clipPath id="c1_80"><path d="M140.8,469.8v-18H171v18Z"/></clipPath>
<clipPath id="c2_80"><path d="M296.6,949.9V890.8H404v59.1Z"/></clipPath>
<clipPath id="c3_80"><path d="M188,952.8v-58h64.9v58Z"/></clipPath>
<clipPath id="c4_80"><path d="M585.1,973.3v-79h55.4v79Z"/></clipPath>
<clipPath id="c5_80"><path d="M708,964.2V892.6h64.6v71.6Z"/></clipPath>
<clipPath id="c6_80"><path d="M708,964.2V892.6h69.3v71.6Z"/></clipPath>
<style type="text/css"><![CDATA[
.g0_80{
fill: #B6D774;
}
.g1_80{
fill: none;
stroke: #2E3092;
stroke-width: 0.763;
}
.g2_80{
fill: none;
stroke: #000;
stroke-width: 0.611;
stroke-miterlimit: 2;
}
.g3_80{
fill: #464343;
}
.g4_80{
fill: none;
stroke: #464343;
stroke-width: 0.762;
stroke-miterlimit: 2;
}
.g5_80{
fill: #FFFCD5;
}
.g6_80{
fill: none;
stroke: #8ED8F8;
stroke-width: 0.763;
stroke-miterlimit: 2;
}
.g7_80{
fill: #000;
}
.g8_80{
fill: none;
stroke: #000;
stroke-width: 0.763;
stroke-miterlimit: 2;
stroke-dasharray: 4,3;
}
.g9_80{
fill: none;
stroke: #000;
stroke-width: 1.069;
stroke-miterlimit: 2;
}
.ga_80{
fill: none;
stroke: #000;
stroke-width: 0.763;
stroke-miterlimit: 2;
}
.gb_80{
fill: #FFF1E0;
}
.gc_80{
fill: none;
stroke: #0EA5DF;
stroke-width: 3.055;
}
.gd_80{
fill: #0C4B7F;
}
.ge_80{
fill: #0EA5DF;
}
.gf_80{
fill: #FFF;
}
.gg_80{
fill: none;
stroke: #000;
stroke-width: 0.763;
}
.gh_80{
fill: none;
stroke: #D82C20;
stroke-width: 1.527;
}
.gi_80{
fill: none;
stroke: #0EA5DF;
stroke-width: 1.527;
}
]]></style>
</defs>
<path d="M0,1131H73.8v-51.5H0V1131Z" class="g0_80"/>
<path d="M337.1,1025c4.5,0,8.2,-3.7,8.2,-8.3c0,-4.6,-3.7,-8.3,-8.2,-8.3c-4.6,0,-8.3,3.7,-8.3,8.3c0,4.6,3.7,8.3,8.3,8.3Zm35.7,0c4.6,0,8.3,-3.7,8.3,-8.3c0,-4.6,-3.7,-8.3,-8.3,-8.3c-4.6,0,-8.3,3.7,-8.3,8.3c0,4.6,3.7,8.3,8.3,8.3Zm-23,26.3c4.6,0,8.3,-3.7,8.3,-8.3c0,-4.5,-3.7,-8.3,-8.3,-8.3c-4.5,0,-8.2,3.8,-8.2,8.3c0,4.6,3.7,8.3,8.2,8.3Zm118,0c4.6,0,8.3,-3.7,8.3,-8.3c0,-4.5,-3.7,-8.3,-8.3,-8.3c-4.5,0,-8.2,3.8,-8.2,8.3c0,4.6,3.7,8.3,8.2,8.3Zm-137.6,26.3c4.6,0,8.3,-3.7,8.3,-8.2c0,-4.6,-3.7,-8.3,-8.3,-8.3c-4.5,0,-8.2,3.7,-8.2,8.3c0,4.5,3.7,8.2,8.2,8.2Z" class="g1_80"/>
<path clip-path="url(#c0_80)" d="M451.4,957.7h63L509,900l-45.2,14l-12.4,43.7Zm73.9,-.3h77.9l23.1,-45.1m0,0H548.4l-23.1,45.1m108,-.4h44.2l11,-43.5m0,0H644.2L633.3,957m69.9,-73.2h40.4v73.6H703.2V883.8Zm57.5,12.9h60.7v60.7H760.7V896.7Zm-228,36.8l8.1,1.8m69.9,0l8.1,1.7M580.7,909.1l-.7,8.5M575.8,954l-.7,8.5m86.5,-9.2l-.7,8.5m1,-52.3l-.7,8.5m-26.1,18l8.5,.7m34.9,1l8.5,.8M583.5,909.1l-.7,8.5M578.6,954l-.7,8.5m86.5,-9.2l-.7,8.5m1.1,-52.3l-.7,8.5m-29,15.2l8.5,.7m34.9,1l8.5,.7m24.9,-51.5c-.2,5.9,-3,8.7,-8.5,8.5" class="g2_80"/>
<path fill-rule="evenodd" d="M355.7,624.3l-.8,3.3h-.2l-.1,-.8v-.5l-.1,-.1V626l-.1,-.2l-.1,-.2l-.1,-.1l-.1,-.1l-.2,-.2l-.2,-.1l-.1,-.1h-.2l-.2,-.1h-.3l-.2,-.1H352l-.2,.1h-.3l-.1,.1h-.2l-.1,.1h-.2l-.1,.1h-.1l-.2,.1l-.1,.1l-.1,.1h-.2l-.1,.2l-.2,.1l-.1,.1l-.2,.2l-.1,.1l-.1,.1l-.2,.2l-.1,.2l-.1,.1l-.1,.2l-.1,.2l-.2,.2l-.1,.2l-.1,.2l-.1,.2v.2l-.2,.3l-.1,.4l-.1,.3l-.1,.4l-.1,.3v2l.1,.1v.2l.1,.1v.2l.1,.1l.1,.1v.2l.1,.1l.1,.1l.1,.1l.1,.1l.1,.1l.1,.1l.1,.1l.2,.1l.1,.1l.1,.1h.2l.1,.1h.1l.2,.1h.1l.2,.1h1.1l.3,-.1h.2l.2,-.1l.3,-.1h.2l.2,-.2l.2,-.1l.2,-.1l.2,-.2l.1,-.1l.2,-.2l.2,-.2l.2,-.2l.2,-.3h.3l-.2,.3l-.2,.3l-.2,.3l-.2,.3l-.3,.2l-.2,.2l-.3,.2l-.2,.1l-.1,.1l-.1,.1l-.2,.1H352l-.2,.1h-.1l-.1,.1h-.3l-.2,.1h-.6l-.4,.1l-.3,-.1h-.6l-.2,-.1h-.3l-.3,-.1l-.2,-.1l-.3,-.2l-.2,-.1l-.2,-.1l-.2,-.2l-.2,-.2l-.2,-.2l-.1,-.2l-.2,-.2l-.1,-.2l-.1,-.2l-.1,-.3l-.1,-.2l-.1,-.3v-.2l-.1,-.3V630l.1,-.2v-.2l.1,-.2v-.2l.1,-.2v-.2l.1,-.1l.1,-.2l.1,-.3l.1,-.1l.1,-.2l.1,-.2l.1,-.2l.1,-.2l.1,-.2l.1,-.2l.2,-.1l.1,-.2l.2,-.2l.1,-.1l.2,-.2l.1,-.1l.2,-.2l.2,-.1l.1,-.1l.2,-.2l.2,-.1l.2,-.1l.2,-.1l.2,-.1l.2,-.1l.2,-.1l.2,-.1h.2l.2,-.1l.1,-.1h.2l.2,-.1h.6l.2,-.1h.8l.2,.1h.2l.2,.1h.2l.2,.1l.3,.1h.1l.2,.1h.5l.1,-.1l.1,-.1l.1,-.1l.2,-.2Z" class="g3_80"/>
<path fill-rule="evenodd" d="M215.9,624.1l.1,-.3h3.2l.5,.1h.9l.3,.1h.4l.3,.1l.2,.1h.1l.2,.1h.1l.2,.1l.3,.2l.2,.1l.2,.2l.2,.2l.2,.2l.1,.2l.2,.3l.1,.2l.1,.3l.1,.3l.1,.2l.1,.3v.6l.1,.3v.2l-.1,.2v.5l-.1,.3v.2l-.1,.2l-.1,.3l-.1,.2l-.1,.2v.2l-.1,.2l-.1,.2l-.1,.2l-.1,.1l-.1,.2l-.2,.1l-.1,.1l-.1,.2l-.2,.2l-.2,.1l-.1,.2l-.2,.1l-.3,.2l-.2,.2l-.2,.1l-.2,.2l-.3,.1l-.2,.1l-.3,.1l-.2,.1l-.3,.1l-.2,.1h-.3l-.3,.1h-.3l-.4,.1h-5.3l.1,-.3h.6l.2,-.1h.1l.1,-.1h.1v-.1h.1v-.1l.1,-.1V633l.1,-.1v-.2l.2,-.3l.1,-.5l1.8,-6l.1,-.4v-.4l.1,-.2v-.3l-.1,-.1v-.1l-.1,-.1l-.1,-.1h-.2l-.1,-.1H216Zm2.6,.3l-2.2,7.5l-.1,.4l-.1,.3v.6h.1v.1l.1,.1h2.1l.2,-.1h.3l.2,-.1l.3,-.1h.2l.2,-.1l.3,-.1l.2,-.1l.1,-.1l.2,-.1l.2,-.1l.2,-.2l.2,-.2l.2,-.2l.2,-.2l.2,-.3l.1,-.2l.2,-.3l.1,-.3l.2,-.3l.1,-.3l.1,-.4v-.3l.1,-.4v-.3l.1,-.4v-.8l-.1,-.2v-.6l-.1,-.1v-.2l-.1,-.2V626l-.1,-.2l-.1,-.1l-.1,-.1l-.1,-.1l-.1,-.2v-.1l-.2,-.1l-.1,-.1l-.1,-.1l-.1,-.1h-.2l-.1,-.1l-.1,-.1h-.2l-.1,-.1h-.4l-.1,-.1h-1.5Z" class="g3_80"/>
<path d="M194.6,667.5l-6,8.2l-.4,.5l-.4,.4l-.1,.2l-.2,.1l-.1,.2l-.1,.1h-.1l-.1,.1l-.1,.1h-.2l-.1,.1h-.4l-.1,.3h3l.1,-.3h-.4v-.1h-.2v-.1h-.1v-.1h-.1v-.5l.1,-.2v-.1l.1,-.1l.1,-.2l.2,-.2l1,-1.4h2.9l-.1,1.3v.4l-.1,.3v.2l-.1,.2v.1l-.1,.1v.1h-.1v.1h-.1l-.1,.1H192v.1h-.6l-.1,.3h3.9l.1,-.3h-.7v-.1h-.2l-.1,-.1l-.1,-.1l-.1,-.1V677l-.1,-.1v-.8l.1,-.2l.7,-8.4Zm-1.2,2.5l-.4,3.9h-2.6Z" class="g3_80"/>
<path d="M320.5,668.8h-3.6l-.1,.2h.4l.1,.1h.4l.1,.1l.1,.1h.1v.8l-.1,.3l-.1,.3l-1.8,6.1l-.1,.5l-.2,.4v.1l-.1,.1v.1l-.1,.1v.1h-.1v.1h-.1l-.1,.1l-.1,.1h-.3l-.2,.1h-.3l-.1,.2h5.3l.1,-.1h.4l.2,-.1h.2l.2,-.1l.2,-.1l.2,-.1h.1l.2,-.1l.1,-.1l.2,-.1l.1,-.2l.1,-.1l.1,-.1l.2,-.2l.1,-.1l.1,-.2v-.2l.1,-.2l.1,-.1l.1,-.2v-1.2l-.1,-.2v-.1l-.1,-.2l-.1,-.1l-.1,-.2l-.1,-.1l-.1,-.1l-.2,-.2l-.1,-.1l-.2,-.1l-.2,-.1l-.2,-.1l-.2,-.1l.3,-.1l.3,-.1l.3,-.1l.3,-.1l.1,-.1h.1l.1,-.1l.2,-.1l.1,-.1l.1,-.1l.1,-.1l.2,-.2l.1,-.2l.1,-.2l.1,-.2l.1,-.2v-1.1l-.1,-.2v-.1l-.1,-.1l-.1,-.2l-.1,-.1l-.1,-.1l-.1,-.1l-.1,-.1l-.2,-.1l-.1,-.1l-.2,-.1l-.2,-.1h-.2l-.1,-.1h-.2l-.2,-.1h-.7Zm-2.2,4.4l1.2,-3.8l.2,-.1h1.1l.2,.1h.2l.2,.1l.1,.1l.1,.1l.1,.1l.1,.1l.1,.2l.1,.1v.2l.1,.1v.8l-.1,.1v.2l-.1,.1v.1l-.1,.1v.1l-.1,.1v.1l-.1,.1l-.1,.1l-.1,.1l-.1,.1h-.1l-.1,.1l-.1,.1l-.1,.1h-.1l-.2,.1h-.1l-.1,.1h-.3l-.2,.1h-1.4Zm-.4,5.1h-.3l-.4,-.1h-.3l1.2,-4.4h1.5l.2,.1h.1l.1,.1h.2l.1,.1l.1,.1l.1,.1l.1,.1l.1,.2l.1,.1l.1,.2l.1,.2v.2l.1,.2v.3l-.1,.2v.4l-.1,.1v.2l-.1,.1v.1l-.1,.1l-.1,.1v.1l-.1,.1l-.1,.1l-.1,.1l-.1,.1l-.1,.1l-.2,.1h-.1l-.1,.1l-.1,.1h-.1l-.2,.1h-.1l-.1,.1h-.3l-.1,.1h-.6Z" class="g3_80"/>
<path d="M233.5,629.8h107L307.1,670h-107l33.4,-40.2Zm-32.9,40.3L340.1,630.2m-106.7,-.4l73.8,40.3" class="g4_80"/>
<path fill-rule="evenodd" d="M606,226.1H736.6l-42.8,65.3H563.2Z" class="g5_80"/>
<path d="M736.6,334.9h21.6v21.7H736.6V334.9Zm0,-21.6h21.6v21.6H736.6V313.3Zm0,-21.7h21.6v21.7H736.6V291.6Zm0,-21.6h21.6v21.6H736.6V270Zm0,-21.7h21.6V270H736.6V248.3Zm0,-21.6h21.6v21.6H736.6V226.7Zm0,-21.7h21.6v21.7H736.6V205Zm0,-21.6h21.6V205H736.6V183.4ZM714.9,334.9h21.7v21.7H714.9V334.9Zm0,-21.6h21.7v21.6H714.9V313.3Zm0,-21.7h21.7v21.7H714.9V291.6Zm0,-21.6h21.7v21.6H714.9V270Zm0,-21.7h21.7V270H714.9V248.3Zm0,-21.6h21.7v21.6H714.9V226.7Zm0,-21.7h21.7v21.7H714.9V205Zm0,-21.6h21.7V205H714.9V183.4ZM693.3,334.9h21.6v21.7H693.3V334.9Zm0,-21.6h21.6v21.6H693.3V313.3Zm0,-21.7h21.6v21.7H693.3V291.6Zm0,-21.6h21.6v21.6H693.3V270Zm0,-21.7h21.6V270H693.3V248.3Zm0,-21.6h21.6v21.6H693.3V226.7Zm0,-21.7h21.6v21.7H693.3V205Zm0,-21.6h21.6V205H693.3V183.4ZM671.6,334.9h21.7v21.7H671.6V334.9Zm0,-21.6h21.7v21.6H671.6V313.3Zm0,-21.7h21.7v21.7H671.6V291.6Zm0,-21.6h21.7v21.6H671.6V270Zm0,-21.7h21.7V270H671.6V248.3Zm0,-21.6h21.7v21.6H671.6V226.7Zm0,-21.7h21.7v21.7H671.6V205Zm0,-21.6h21.7V205H671.6V183.4ZM649.9,334.9h21.7v21.7H649.9V334.9Zm0,-21.6h21.7v21.6H649.9V313.3Zm0,-21.7h21.7v21.7H649.9V291.6Zm0,-21.6h21.7v21.6H649.9V270Zm0,-21.7h21.7V270H649.9V248.3Zm0,-21.6h21.7v21.6H649.9V226.7Zm0,-21.7h21.7v21.7H649.9V205Zm0,-21.6h21.7V205H649.9V183.4ZM628.3,334.9h21.6v21.7H628.3V334.9Zm0,-21.6h21.6v21.6H628.3V313.3Zm0,-21.7h21.6v21.7H628.3V291.6Zm0,-21.6h21.6v21.6H628.3V270Zm0,-21.7h21.6V270H628.3V248.3Zm0,-21.6h21.6v21.6H628.3V226.7Zm0,-21.7h21.6v21.7H628.3V205Zm0,-21.6h21.6V205H628.3V183.4ZM606.6,334.9h21.7v21.7H606.6V334.9Zm0,-21.6h21.7v21.6H606.6V313.3Zm0,-21.7h21.7v21.7H606.6V291.6Zm0,-21.6h21.7v21.6H606.6V270Zm0,-21.7h21.7V270H606.6V248.3Zm0,-21.6h21.7v21.6H606.6V226.7Zm0,-21.7h21.7v21.7H606.6V205Zm0,-21.6h21.7V205H606.6V183.4ZM585,334.9h21.6v21.7H585V334.9Zm0,-21.6h21.6v21.6H585V313.3Zm0,-21.7h21.6v21.7H585V291.6ZM585,270h21.6v21.6H585V270Zm0,-21.7h21.6V270H585V248.3Zm0,-21.6h21.6v21.6H585V226.7ZM585,205h21.6v21.7H585V205Zm0,-21.6h21.6V205H585V183.4ZM563.3,334.9H585v21.7H563.3V334.9Zm0,-21.6H585v21.6H563.3V313.3Zm0,-21.7H585v21.7H563.3V291.6Zm0,-21.6H585v21.6H563.3V270Zm0,-21.7H585V270H563.3V248.3Zm0,-21.6H585v21.6H563.3V226.7Zm0,-21.7H585v21.7H563.3V205Zm0,-21.6H585V205H563.3V183.4ZM541.7,334.9h21.6v21.7H541.7V334.9Zm0,-21.6h21.6v21.6H541.7V313.3Zm0,-21.7h21.6v21.7H541.7V291.6Zm0,-21.6h21.6v21.6H541.7V270Zm0,-21.7h21.6V270H541.7V248.3Zm0,-21.6h21.6v21.6H541.7V226.7Zm0,-21.7h21.6v21.7H541.7V205Zm0,-21.6h21.6V205H541.7V183.4ZM520,334.9h21.7v21.7H520V334.9Zm0,-21.6h21.7v21.6H520V313.3Zm0,-21.7h21.7v21.7H520V291.6ZM520,270h21.7v21.6H520V270Zm0,-21.7h21.7V270H520V248.3Zm0,-21.6h21.7v21.6H520V226.7ZM520,205h21.7v21.7H520V205Zm0,-21.6h21.7V205H520V183.4Z" class="g6_80"/>
<path fill-rule="evenodd" d="M750.6,223.4l-.9,3.9h-.3v-1c-.1,-.4,-.1,-.7,-.2,-.9c-.1,-.3,-.3,-.6,-.5,-.8c-.2,-.2,-.5,-.3,-.8,-.5c-.4,-.1,-.7,-.1,-1.1,-.1c-1.1,0,-2,.3,-2.8,.8c-1,.8,-1.8,1.8,-2.4,3.2c-.5,1.1,-.7,2.3,-.7,3.4c0,1.2,.3,2.1,1,2.8c.7,.7,1.6,1.1,2.7,1.1c.8,0,1.5,-.2,2.2,-.6c.6,-.3,1.2,-.9,1.8,-1.7h.4c-.6,1.1,-1.4,1.8,-2.2,2.3c-.8,.5,-1.7,.8,-2.9,.8c-.9,0,-1.8,-.3,-2.6,-.7c-.7,-.4,-1.3,-1,-1.7,-1.7c-.4,-.8,-.6,-1.6,-.6,-2.4c0,-1.4,.3,-2.7,1,-3.9c.7,-1.3,1.7,-2.2,3,-3c1.2,-.7,2.4,-1,3.7,-1c.6,0,1.3,.1,2,.4c.3,.1,.5,.2,.7,.2c.1,0,.3,-.1,.4,-.1c.1,-.1,.3,-.3,.5,-.5Z" class="g7_80"/>
<path fill-rule="evenodd" d="M601.5,211.9l-2.6,9.1c-.2,.7,-.3,1.1,-.3,1.2c0,.1,0,.2,.1,.3c0,.1,.1,.2,.2,.2c.2,.1,.4,.1,.8,.1c.9,0,1.8,-.1,2.6,-.3c.8,-.2,1.4,-.5,2,-.9c.7,-.5,1.3,-1.3,1.7,-2.3c.4,-.9,.7,-2,.7,-3.3c0,-1.4,-.4,-2.4,-1,-3.1c-.7,-.7,-1.7,-1,-3,-1c-.3,0,-.7,0,-1.2,0m-3.2,-.3l.1,-.4h3.9c1.7,0,2.9,.2,3.7,.6c.7,.4,1.4,1,1.8,1.8c.5,.8,.8,1.6,.8,2.6c0,.8,-.2,1.5,-.4,2.3c-.3,.7,-.6,1.3,-1,1.8c-.3,.4,-.8,.9,-1.6,1.5c-.7,.5,-1.4,.9,-2.3,1.2c-.8,.2,-1.8,.4,-3.1,.4h-5.1l.1,-.4c.5,0,.8,0,1,-.1c.2,-.1,.4,-.2,.5,-.4c.2,-.3,.4,-.8,.6,-1.5l2.1,-7.4c.2,-.5,.3,-1,.3,-1.3c0,-.2,-.1,-.4,-.3,-.6c-.1,-.1,-.4,-.1,-.9,-.1Z" class="g7_80"/>
<path fill-rule="evenodd" d="M694.9,305.6c.7,.1,1.2,.1,1.5,.1c1,0,1.8,-.2,2.5,-.8c.7,-.6,1.1,-1.3,1.1,-2.3c0,-.7,-.2,-1.3,-.7,-1.7c-.4,-.4,-1.1,-.6,-2.1,-.6c-.2,0,-.4,0,-.7,0Zm1.8,-6c.4,.1,.7,.1,.8,.1c1.3,0,2.2,-.3,2.8,-.8c.6,-.6,.9,-1.3,.9,-2.1c0,-.6,-.2,-1.1,-.5,-1.4c-.4,-.4,-1,-.5,-1.8,-.5c-.2,0,-.5,0,-.8,.1Zm-1.8,-5l.1,-.3h4.3c.8,0,1.4,.1,2,.3c.6,.2,1,.6,1.3,1c.2,.4,.4,.8,.4,1.3c0,.7,-.3,1.3,-.8,1.8c-.5,.6,-1.3,1,-2.4,1.3c.7,.3,1.2,.6,1.6,1.1c.3,.4,.5,.9,.5,1.5c0,.6,-.2,1.2,-.5,1.7c-.3,.6,-.7,1,-1.2,1.3c-.4,.3,-1,.5,-1.7,.7c-.5,.1,-1.3,.1,-2.3,.1h-4.5l.2,-.3c.4,0,.7,-.1,.9,-.2c.2,-.1,.4,-.2,.5,-.4c.2,-.2,.4,-.7,.6,-1.5l2.2,-7.4c.2,-.6,.2,-1,.2,-1.3c0,-.2,0,-.4,-.2,-.5c-.2,-.1,-.5,-.2,-.9,-.2c-.1,0,-.2,0,-.3,0Z" class="g7_80"/>
<path d="M687.5,291.4h57.3M552.8,307l13.5,-20.2m39.6,-59.4l13.5,-20.2m115.1,21l13.6,-20.3M563.4,226.7h57.3" class="g8_80"/>
<path d="M563.2,291.4H693.6" class="g9_80"/>
<path d="M541.4,291.4h27.5" class="g8_80"/>
<path d="M693.3,291.4l42.5,-65.3M563.7,290.9l43,-64.6H735.5" class="g9_80"/>
<path d="M651.4,351.2L563.2,291.7m86.7,64.4l45,-66.7" class="g8_80"/>
<path d="M657.2,344.9c-6.4,-3.6,-8.8,-1.8,-12,1.7m55.7,-67.4c-6.4,-3.7,-8.9,-1.9,-12,1.6" class="ga_80"/>
<path fill-rule="evenodd" d="M651.4,345.9c-.5,-.1,-1.1,.2,-1.2,.7c-.1,.5,.1,1,.7,1.1c.5,.2,1,-.1,1.1,-.6c.2,-.5,-.1,-1.1,-.6,-1.2Z" class="g7_80"/>
<path fill-rule="evenodd" d="M695,280.2c-.5,-.2,-1,.1,-1.1,.6c-.2,.5,.1,1,.6,1.2c.5,.1,1,-.2,1.2,-.7c.1,-.5,-.2,-1,-.7,-1.1Z" class="g7_80"/>
<path fill-rule="evenodd" d="M715.3,285.5l1.9,-.9h.2v6.8c0,.4,0,.7,.1,.8c0,.1,.1,.2,.2,.3c.1,0,.4,.1,.8,.1v.2h-3.1v-.2c.4,0,.6,0,.7,-.1q.2,-.1,.3,-.2c0,-.1,0,-.4,0,-.9V287c0,-.6,0,-.9,0,-1.1c0,-.1,-.1,-.2,-.2,-.3c0,-.1,-.1,-.1,-.2,-.1c-.2,0,-.4,.1,-.6,.2Z" class="g7_80"/>
<path fill-rule="evenodd" d="M706.9,277.8l-2.6,9.1c-.2,.7,-.3,1.1,-.3,1.3c0,.1,.1,.2,.1,.3c.1,0,.2,.1,.3,.1c.1,.1,.4,.1,.7,.1c1,0,1.8,-.1,2.6,-.3c.8,-.2,1.5,-.5,2,-.8c.7,-.6,1.3,-1.4,1.8,-2.3c.4,-1,.6,-2.1,.6,-3.4c0,-1.4,-.3,-2.4,-1,-3.1c-.7,-.7,-1.6,-1,-2.9,-1c-.3,0,-.8,0,-1.3,0m-3.1,-.3l.1,-.3h3.9c1.6,0,2.8,.1,3.6,.5c.8,.4,1.4,1,1.9,1.8c.5,.8,.7,1.7,.7,2.6c0,.8,-.1,1.6,-.4,2.3c-.3,.8,-.6,1.4,-.9,1.8c-.4,.5,-.9,1,-1.6,1.5c-.7,.5,-1.5,.9,-2.3,1.2c-.8,.3,-1.9,.4,-3.1,.4h-5.2l.2,-.3c.4,0,.7,-.1,.9,-.2c.2,-.1,.4,-.2,.5,-.4c.2,-.2,.4,-.7,.6,-1.5l2.2,-7.3c.1,-.6,.2,-1.1,.2,-1.4c0,-.2,-.1,-.4,-.2,-.5c-.2,-.1,-.5,-.2,-.9,-.2Z" class="g7_80"/>
<path fill-rule="evenodd" d="M560,280.5l-3.5,4.8h3Zm1.8,-3l-.9,10.1c-.1,.5,-.1,.8,-.1,.9c0,.3,0,.5,.1,.6c.1,.2,.3,.3,.5,.4c.2,0,.5,.1,1,.1l-.1,.3h-4.8l.1,-.3h.2c.4,0,.7,-.1,.9,-.3c.2,-.1,.3,-.3,.4,-.5c.1,-.2,.2,-.6,.2,-1.3l.2,-1.6H556l-1.2,1.7c-.3,.4,-.5,.7,-.6,.8c0,.2,-.1,.3,-.1,.5c0,.2,.1,.3,.3,.5c.1,.1,.4,.2,.7,.2l-.1,.3h-3.6l.1,-.3c.5,0,.9,-.2,1.2,-.5c.3,-.2,.8,-.8,1.5,-1.7l7.3,-9.9Z" class="g7_80"/>
<path fill-rule="evenodd" d="M663.7,341.7l-3.5,4.8h3Zm1.8,-2.9l-1,10c0,.5,0,.8,0,1c0,.2,0,.4,.1,.5c.1,.2,.3,.3,.5,.4c.2,.1,.5,.1,.9,.1l-.1,.4h-4.7l.1,-.4h.2c.4,0,.7,0,.9,-.2c.2,-.1,.3,-.3,.4,-.6c.1,-.2,.1,-.6,.2,-1.3l.1,-1.5h-3.4l-1.3,1.6c-.2,.4,-.4,.7,-.5,.9c-.1,.1,-.1,.3,-.1,.4c0,.2,.1,.4,.2,.5c.2,.1,.5,.2,.8,.2l-.1,.4h-3.6l.1,-.4c.5,0,.8,-.1,1.2,-.4c.3,-.3,.8,-.9,1.5,-1.8l7.2,-9.8Z" class="g7_80"/>
<path fill-rule="evenodd" d="M667.9,348.1l1.9,-.9h.2V354c0,.5,0,.8,.1,.9c0,.1,.1,.2,.2,.2c.1,.1,.4,.1,.7,.1v.2h-3v-.2c.4,0,.6,0,.7,-.1c.1,0,.2,-.1,.3,-.2c0,-.1,0,-.4,0,-.9v-4.4c0,-.5,0,-.9,0,-1.1c-.1,-.1,-.1,-.2,-.2,-.3c-.1,0,-.1,-.1,-.2,-.1c-.2,0,-.4,.1,-.7,.2Z" class="g7_80"/>
<path d="M695.9,286.2L606.6,226" class="g8_80"/>
<path d="M184.8,604.9H835.9V516.1H184.8v88.8Z" class="gb_80"/>
<path d="M184.8,854.1H835.9V755.3H184.8v98.8Z" class="gb_80"/>
<path d="M75.3,865H837.5" class="gc_80"/>
<path d="M347.3,998.6c4.6,0,8.3,-3.7,8.3,-8.3c0,-4.6,-3.7,-8.3,-8.3,-8.3c-4.6,0,-8.3,3.7,-8.3,8.3c0,4.6,3.7,8.3,8.3,8.3Zm26.5,0c4.6,0,8.3,-3.7,8.3,-8.3c0,-4.6,-3.7,-8.3,-8.3,-8.3c-4.6,0,-8.3,3.7,-8.3,8.3c0,4.6,3.7,8.3,8.3,8.3Zm26.5,0c4.6,0,8.3,-3.7,8.3,-8.3c0,-4.6,-3.7,-8.3,-8.3,-8.3c-4.6,0,-8.3,3.7,-8.3,8.3c0,4.6,3.7,8.3,8.3,8.3Zm26.5,0c4.5,0,8.2,-3.7,8.2,-8.3c0,-4.6,-3.7,-8.3,-8.2,-8.3c-4.6,0,-8.3,3.7,-8.3,8.3c0,4.6,3.7,8.3,8.3,8.3Z" class="g1_80"/>
<path d="M0,138.7H120.6V0H0V138.7Z" class="g0_80"/>
<path d="M135.9,553.8h39.6V516.3H135.9v37.5Z" class="gd_80"/>
<path d="M135.9,793h39.6V755.6H135.9V793Z" class="gd_80"/>
<path d="M73.8,166.9H836" class="gc_80"/>
<path d="M184.8,507.4h651V441.7h-651v65.7Z" class="gb_80"/>
<path d="M135.8,479.2h39.7V441.7H135.8v37.5Z" class="ge_80"/>
<path clip-path="url(#c1_80)" d="M156.1,464.3c-2.1,.1,-3.8,-1.6,-3.6,-3.6c.1,-1.7,1.5,-3.1,3.2,-3.2c2,-.2,3.7,1.5,3.6,3.6c-.1,1.7,-1.5,3.1,-3.2,3.2m.2,2.9c-3.8,.3,-7,-2.9,-6.8,-6.7c.2,-3.2,2.8,-5.8,6,-6c3.8,-.2,7,3,6.7,6.8c-.2,3.2,-2.8,5.7,-5.9,5.9m-.4,-15.3c-5.8,0,-11,3.1,-14.9,8.3c-.3,.4,-.3,1,0,1.4c3.9,5.1,9.1,8.3,14.9,8.3c5.7,0,11,-3.2,14.8,-8.3c.4,-.4,.4,-1,0,-1.4c-3.8,-5.2,-9.1,-8.3,-14.8,-8.3Z" class="gf_80"/>
<path d="M73.8,699.5H836" class="gc_80"/>
<path d="M349.9,936.1c4.6,0,8.3,-3.7,8.3,-8.2c0,-4.6,-3.7,-8.3,-8.3,-8.3c-4.6,0,-8.3,3.7,-8.3,8.3c0,4.5,3.7,8.2,8.3,8.2Zm-130.8,0c4.6,0,8.3,-3.7,8.3,-8.2c0,-4.6,-3.7,-8.3,-8.3,-8.3c-4.5,0,-8.2,3.7,-8.2,8.3c0,4.5,3.7,8.2,8.2,8.2Zm261.6,0c4.6,0,8.3,-3.7,8.3,-8.2c0,-4.6,-3.7,-8.3,-8.3,-8.3c-4.6,0,-8.3,3.7,-8.3,8.3c0,4.5,3.7,8.2,8.3,8.2Zm132.1,0c4.6,0,8.3,-3.7,8.3,-8.2c0,-4.6,-3.7,-8.3,-8.3,-8.3c-4.6,0,-8.3,3.7,-8.3,8.3c0,4.5,3.7,8.2,8.3,8.2Zm129.9,0c4.5,0,8.2,-3.7,8.2,-8.2c0,-4.6,-3.7,-8.3,-8.2,-8.3c-4.6,0,-8.3,3.7,-8.3,8.3c0,4.5,3.7,8.2,8.3,8.2Z" class="g1_80"/>
<path d="M677.8,585.7h84.3l17.5,-48.3H695.4l-17.6,48.3Z" class="gg_80"/>
<path clip-path="url(#c2_80)" d="M225.7,945.1h63l-5.4,-57.6l-45.2,14l-12.4,43.6Zm73.9,-.3h77.9l23.1,-45m0,0H322.7l-23.1,45m107.9,-.4h44.3l11,-43.4m0,0H418.5l-11,43.4m70,-73.2h40.4v73.6H477.5V871.2ZM535,884.1h60.7v60.7H535V884.1ZM307,920.9l8.1,1.8m69.9,0l8.1,1.8M355,896.6l-.7,8.5M350,941.4l-.7,8.5m86.6,-9.2l-.7,8.5m1,-52.3l-.7,8.5m-26.1,18l8.5,.7m34.9,1.1l8.5,.7M357.8,896.6l-.7,8.5m-4.2,36.3l-.7,8.5m86.5,-9.2l-.7,8.5m1,-52.3l-.7,8.5m-28.9,15.2l8.5,.7m34.9,1.1l8.5,.7m24.9,-51.5c-.2,5.8,-3,8.7,-8.5,8.5" class="g2_80"/>
<path clip-path="url(#c3_80)" d="M10.5,947.9h63L68.1,890.3l-45.3,14L10.5,947.9Zm73.9,-.3h77.9l23.1,-45m0,0H107.5l-23.1,45m107.9,-.3h44.3l10.9,-43.5m0,0H203.3l-11,43.5m70,-73.3h40.3v73.6H262.3V874Zm57.5,13h60.7v60.6H319.8V887Zm-228,36.8l8.1,1.7m69.9,0l8.1,1.8M139.8,899.4l-.7,8.5m-4.3,36.4l-.7,8.4m86.5,-9.1l-.7,8.4M221,899.8l-.7,8.4m-26.1,18.1l8.4,.7m35,1l8.5,.7M142.6,899.4l-.7,8.5m-4.2,36.4l-.7,8.4m86.5,-9.1l-.7,8.4m1,-52.2l-.7,8.4m-28.9,15.2l8.4,.7m35,1.1l8.5,.7M271,874.4c-.2,5.9,-3,8.7,-8.5,8.5" class="g2_80"/>
<path clip-path="url(#c4_80)" d="M340.1,968.5h63l-5.4,-57.6l-45.3,14l-12.3,43.6Zm73.9,-.3h77.9l23.1,-45m0,0H437.1l-23.1,45m107.9,-.4h44.3l10.9,-43.4m0,0H532.9l-11,43.4m70,-73.2h40.3v73.6H591.9V894.6Zm57.5,12.9H710v60.7H649.4V907.5Zm-228,36.8l8.1,1.8m69.9,0l8.1,1.8M469.4,920l-.7,8.4m-4.3,36.4l-.7,8.5m86.5,-9.2l-.7,8.5m1.1,-52.3l-.7,8.5m-26.1,18l8.4,.7m35,1.1l8.5,.7M472.2,920l-.7,8.4m-4.3,36.4l-.7,8.5m86.6,-9.2l-.7,8.5m1,-52.3l-.7,8.5M523.8,944l8.4,.7m35,1l8.5,.8M600.6,895c-.2,5.8,-3,8.6,-8.5,8.5" class="g2_80"/>
<path fill-rule="evenodd" d="M595.7,898.3c.2,0,.4,.2,.4,.4c0,.2,-.2,.4,-.4,.4c-.2,0,-.4,-.2,-.4,-.4c0,-.2,.2,-.4,.4,-.4Z" class="g7_80"/>
<path d="M595.7,898.3c.2,0,.4,.2,.4,.4c0,.2,-.2,.4,-.4,.4c-.2,0,-.4,-.2,-.4,-.4c0,-.2,.2,-.4,.4,-.4Zm4.9,69.8c-.2,-5.9,-3,-8.7,-8.5,-8.5" class="g2_80"/>
<path fill-rule="evenodd" d="M595.7,964.7c.2,0,.4,-.1,.4,-.4c0,-.2,-.2,-.3,-.4,-.3c-.2,0,-.4,.1,-.4,.3c0,.3,.2,.4,.4,.4Z" class="g7_80"/>
<path clip-path="url(#c4_80)" d="M595.7,964.7c.2,0,.4,-.1,.4,-.4c0,-.2,-.2,-.3,-.4,-.3c-.2,0,-.4,.1,-.4,.3c0,.3,.2,.4,.4,.4Zm62.3,3.6c-.2,-5.9,-3,-8.7,-8.5,-8.5m3.6,-48.7c.2,0,.4,.1,.4,.4c0,.2,-.2,.3,-.4,.3c-.2,0,-.4,-.1,-.4,-.3c0,-.3,.2,-.4,.4,-.4ZM623.5,895c.2,5.8,3.1,8.6,8.6,8.5" class="g2_80"/>
<path fill-rule="evenodd" d="M628.5,898.3c-.3,0,-.4,.2,-.4,.4c0,.2,.1,.4,.4,.4c.2,0,.3,-.2,.3,-.4c0,-.2,-.1,-.4,-.3,-.4Z" class="g7_80"/>
<path d="M628.5,898.3c-.3,0,-.4,.2,-.4,.4c0,.2,.1,.4,.4,.4c.2,0,.3,-.2,.3,-.4c0,-.2,-.1,-.4,-.3,-.4Zm-5,69.8c.2,-5.9,3.1,-8.7,8.6,-8.5" class="g2_80"/>
<path fill-rule="evenodd" d="M628.5,964.7c-.3,0,-.4,-.1,-.4,-.4c0,-.2,.1,-.3,.4,-.3c.2,0,.3,.1,.3,.3c0,.3,-.1,.4,-.3,.4Z" class="g7_80"/>
<path clip-path="url(#c4_80)" d="M628.5,964.7c-.3,0,-.4,-.1,-.4,-.4c0,-.2,.1,-.3,.4,-.3c.2,0,.3,.1,.3,.3c0,.3,-.1,.4,-.3,.4Zm73.1,3.6c.1,-5.9,3,-8.7,8.5,-8.5" class="g2_80"/>
<path clip-path="url(#c5_80)" d="M402.3,959.4h63l-5.4,-57.6l-45.2,14l-12.4,43.6Zm73.9,-.3h78l23,-45m0,0H499.3l-23.1,45m108,-.4h44.2l11,-43.4m0,0H595.2l-11,43.4m70,-73.2h40.3v73.6H654.2V885.5Zm57.4,12.9h60.7v60.7H711.6V898.4Zm-228,36.8l8.1,1.8m70,0l8.1,1.8M531.6,910.9l-.7,8.5m-4.2,36.3l-.7,8.5M612.5,955l-.7,8.5m1.1,-52.3l-.7,8.5m-26.2,18l8.5,.7m35,1.1l8.4,.7M534.5,910.9l-.7,8.5m-4.3,36.3l-.7,8.5M615.3,955l-.7,8.5m1.1,-52.3l-.7,8.5m-29,15.2l8.5,.7m35,1.1l8.4,.7m25,-51.5c-.2,5.8,-3.1,8.7,-8.5,8.5" class="g2_80"/>
<path clip-path="url(#c6_80)" d="M657.9,955.6c.3,0,.4,-.1,.4,-.4c0,-.2,-.1,-.3,-.4,-.3c-.2,0,-.3,.1,-.3,.3c0,.3,.1,.4,.3,.4Zm62.4,3.6c-.2,-5.9,-3,-8.7,-8.5,-8.5" class="g2_80"/>
<path fill-rule="evenodd" d="M715.4,955.9c.2,0,.4,-.2,.4,-.4c0,-.2,-.2,-.4,-.4,-.4c-.2,0,-.4,.2,-.4,.4c0,.2,.2,.4,.4,.4Z" class="g7_80"/>
<path d="M715.4,955.9c.2,0,.4,-.2,.4,-.4c0,-.2,-.2,-.4,-.4,-.4c-.2,0,-.4,.2,-.4,.4c0,.2,.2,.4,.4,.4Zm4.9,-57.3c-.2,5.9,-3,8.7,-8.5,8.5" class="g2_80"/>
<path fill-rule="evenodd" d="M715.4,902c.2,0,.4,.2,.4,.4c0,.2,-.2,.3,-.4,.3c-.2,0,-.4,-.1,-.4,-.3c0,-.2,.2,-.4,.4,-.4Z" class="g7_80"/>
<path clip-path="url(#c5_80)" d="M715.4,902c.2,0,.4,.2,.4,.4c0,.2,-.2,.3,-.4,.3c-.2,0,-.4,-.1,-.4,-.3c0,-.2,.2,-.4,.4,-.4ZM685.8,885.9c.2,5.8,3,8.7,8.5,8.5m-3.6,61.2c-.2,0,-.3,-.1,-.3,-.4c0,-.2,.1,-.3,.3,-.3c.2,0,.4,.1,.4,.3c0,.3,-.2,.4,-.4,.4Zm73.1,3.6c.2,-5.9,3.1,-8.7,8.5,-8.5" class="g2_80"/>
<path fill-rule="evenodd" d="M768.7,955.9c-.2,0,-.3,-.2,-.3,-.4c0,-.2,.1,-.4,.3,-.4c.2,0,.4,.2,.4,.4c0,.2,-.2,.4,-.4,.4Z" class="g7_80"/>
<path d="M768.7,955.9c-.2,0,-.3,-.2,-.3,-.4c0,-.2,.1,-.4,.3,-.4c.2,0,.4,.2,.4,.4c0,.2,-.2,.4,-.4,.4Zm-4.9,-57.3c.2,5.9,3.1,8.7,8.5,8.5" class="g2_80"/>
<path fill-rule="evenodd" d="M768.7,902c-.2,0,-.3,.2,-.3,.4c0,.2,.1,.3,.3,.3c.2,0,.4,-.1,.4,-.3c0,-.2,-.2,-.4,-.4,-.4Z" class="g7_80"/>
<path d="M768.7,902c-.2,0,-.3,.2,-.3,.4c0,.2,.1,.3,.3,.3c.2,0,.4,-.1,.4,-.3c0,-.2,-.2,-.4,-.4,-.4Z" class="g2_80"/>
<path d="M699.3,779.9h96.6M668.3,833.7h96.5" class="gh_80"/>
<path d="M700.1,779.5l-31.2,54.1M795.6,779.5l-31.3,54.1" class="gi_80"/>
</svg>