<?xml version="1.0" encoding="UTF-8" standalone="no"?>
<!DOCTYPE svg PUBLIC "-//W3C//DTD SVG 1.1//EN"
"http://www.w3.org/Graphics/SVG/1.1/DTD/svg11.dtd">
<svg viewBox="0 0 909 1147" version="1.1" xmlns="http://www.w3.org/2000/svg" xmlns:xlink="http://www.w3.org/1999/xlink">
<defs>
<style type="text/css"><![CDATA[
.g0_132{
fill: #E7A9A1;
}
.g1_132{
fill: #000;
}
.g2_132{
fill: none;
stroke: #000;
stroke-width: 0.855;
stroke-miterlimit: 2;
}
.g3_132{
fill: none;
stroke: #000;
stroke-width: 0.855;
stroke-miterlimit: 2;
stroke-dasharray: 5,3;
}
.g4_132{
fill: none;
stroke: #000;
stroke-width: 0.736;
stroke-linejoin: round;
}
.g5_132{
fill: #D1D3D4;
}
.g6_132{
fill: #FFF;
}
.g7_132{
fill: #FFF;
stroke: #000;
stroke-width: 0.736;
stroke-linejoin: round;
}
]]></style>
</defs>
<path d="M0,1131H72.3v-51.5H0V1131Z" class="g0_132"/>
<path fill-rule="evenodd" d="M418.7,611.4l-1.3,4.5l-.2,.5c0,.1,0,.2,0,.2q0,.1,.1,.2c0,0,.1,0,.1,0q.1,0,.2,-.1c.2,-.1,.4,-.4,.7,-.8l.2,.2c-.3,.5,-.6,.8,-.9,1c-.3,.3,-.6,.4,-.9,.4c-.2,0,-.3,0,-.4,-.1c-.1,-.1,-.1,-.3,-.1,-.5c0,-.2,0,-.4,.1,-.8l.1,-.5c-.5,.8,-1.1,1.3,-1.5,1.6c-.4,.2,-.7,.3,-1.1,.3c-.3,0,-.6,-.1,-.8,-.4c-.2,-.3,-.3,-.6,-.3,-1.1c0,-.7,.2,-1.4,.6,-2.2c.4,-.8,.9,-1.4,1.6,-1.8c.5,-.4,1,-.6,1.4,-.6c.3,0,.5,.1,.7,.2c.2,.2,.3,.4,.4,.7l.2,-.7Zm-2.4,.3c-.3,0,-.6,.2,-.9,.4c-.4,.4,-.8,1,-1.2,1.7c-.3,.7,-.5,1.4,-.5,2c0,.3,.1,.5,.2,.7c.2,.2,.4,.2,.6,.2c.4,0,.9,-.3,1.5,-1c.8,-1,1.1,-1.9,1.1,-2.9c0,-.4,0,-.6,-.2,-.8c-.1,-.2,-.3,-.3,-.6,-.3Z" class="g1_132"/>
<path fill-rule="evenodd" d="M470.5,583.6c-.4,.5,-.9,.9,-1.3,1.2c-.5,.2,-1,.3,-1.5,.3c-.6,0,-1.1,-.1,-1.5,-.5c-.3,-.3,-.5,-.8,-.5,-1.4c0,-.7,.2,-1.3,.6,-2c.4,-.6,.9,-1.1,1.5,-1.5c.6,-.4,1.2,-.6,1.9,-.6c.4,0,.8,.1,1,.2c.3,.2,.4,.5,.4,.8c0,.3,-.1,.5,-.3,.7c-.1,.1,-.2,.2,-.4,.2c-.2,0,-.3,0,-.4,-.1c-.1,-.1,-.1,-.2,-.1,-.4c0,0,0,-.1,.1,-.2c0,-.1,.1,-.1,.2,-.2c.1,-.1,.1,-.2,.1,-.3q.1,0,.1,-.1c0,-.1,-.1,-.2,-.1,-.2c-.2,-.1,-.4,-.2,-.6,-.2c-.4,0,-.8,.2,-1.3,.5c-.4,.3,-.7,.7,-1,1.3c-.4,.7,-.6,1.3,-.6,2c0,.5,.2,.8,.4,1.1c.3,.2,.6,.4,1,.4c.4,0,.7,-.1,1,-.3c.4,-.2,.7,-.5,1.2,-.9Z" class="g1_132"/>
<path fill-rule="evenodd" d="M477.1,601.6l-1.3,4.5c.4,-.4,.8,-.7,1.1,-.9c.3,-.2,.7,-.3,1,-.3c.5,0,.9,.2,1.2,.5c.3,.3,.4,.8,.4,1.3c0,.7,-.2,1.4,-.6,2.1c-.4,.7,-.9,1.3,-1.5,1.7c-.6,.3,-1.2,.5,-1.8,.5c-.6,0,-1.3,-.2,-2,-.7l2,-6.9c.1,-.5,.2,-.8,.2,-.9c0,-.1,0,-.2,-.1,-.3c-.1,0,-.2,-.1,-.4,-.1c-.1,0,-.3,0,-.5,.1v-.3Zm-2.5,8.8c.4,.2,.8,.3,1.1,.3c.4,0,.8,-.1,1.2,-.4c.4,-.3,.8,-.7,1.1,-1.4c.3,-.7,.5,-1.4,.5,-2c0,-.4,-.1,-.8,-.3,-1c-.2,-.2,-.5,-.3,-.7,-.3c-.5,0,-.9,.1,-1.2,.5c-.4,.3,-.7,.7,-.9,1.3Z" class="g1_132"/>
<path d="M374,567.6h87V606H374V567.6Zm.1,-.2l19.1,-13.2M461,567.7l19,-13.3m-19.1,51.7L480,592.9" class="g2_132"/>
<path d="M373.9,606.1L393,592.9" class="g3_132"/>
<path d="M480,554.3v38.4" class="g2_132"/>
<path d="M393,554.3v38.4h86.3" class="g3_132"/>
<path d="M393,554.3h87" class="g2_132"/>
<path d="M679.1,383h29.8v29.8H679.1V383Zm16.7,-14.4h29.8L708.9,383H679.1l16.7,-14.4Z" class="g4_132"/>
<path fill-rule="evenodd" d="M708.9,383l16.6,-14.1v29.8l-16.6,14.1Z" class="g5_132"/>
<path d="M708.9,383l16.6,-14.1v29.8l-16.6,14.1V383Z" class="g4_132"/>
<path fill-rule="evenodd" d="M708.1,383.3h29.8l-16.7,14.5H691.4Z" class="g6_132"/>
<path d="M708.1,383.3h29.8l-16.7,14.5H691.4l16.7,-14.5Z" class="g4_132"/>
<path fill-rule="evenodd" d="M721.2,397.8l16.6,-14.1v29.8l-16.6,14.1Z" class="g5_132"/>
<path d="M721.2,397.8l16.6,-14.1v29.8l-16.6,14.1V397.8Zm-88.8,0h29.8v29.8H632.4V397.8ZM649,383.3h29.9l-16.7,14.5H632.4L649,383.3Zm13.2,14.5l16.6,-14.1v29.8l-16.6,14.1V397.8Zm.4,29.1h29.8v29.8H662.6V426.9Zm16.6,-14.4h29.9l-16.7,14.4H662.6l16.6,-14.4Z" class="g4_132"/>
<path fill-rule="evenodd" d="M692.4,426.9L709,412.8v29.8l-16.6,14.1Z" class="g5_132"/>
<path d="M692.4,426.9L709,412.8v29.8l-16.6,14.1V426.9Z" class="g4_132"/>
<path fill-rule="evenodd" d="M662.3,367.2h29.8V397H662.3V367.2Z" class="g7_132"/>
<path d="M678.9,352.7l-16.6,14.5h29.8l16.6,-14.5Z" class="g6_132"/>
<path d="M678.9,352.7h29.8l-16.6,14.5H662.3l16.6,-14.5Z" class="g4_132"/>
<path d="M692.1,367.2V397l16.6,-14.1V353.1Z" class="g5_132"/>
<path d="M692.1,367.2l16.6,-14.1v29.8L692.1,397V367.2Z" class="g4_132"/>
<path fill-rule="evenodd" d="M691.4,397.8h29.8v29.8H691.4V397.8Z" class="g7_132"/>
<path fill-rule="evenodd" d="M645.4,411.5h29.8v29.8H645.4V411.5Z" class="g7_132"/>
<path fill-rule="evenodd" d="M662,397h29.9l-16.7,14.5H645.4Z" class="g6_132"/>
<path d="M662,397h29.9l-16.7,14.5H645.4L662,397Z" class="g4_132"/>
<path fill-rule="evenodd" d="M675.2,411.5l16.6,-14.1v29.8l-16.6,14.1Z" class="g5_132"/>
<path d="M675.2,411.5l16.6,-14.1v29.8l-16.6,14.1V411.5Z" class="g4_132"/>
</svg>