<?xml version="1.0" encoding="UTF-8" standalone="no"?>
<!DOCTYPE svg PUBLIC "-//W3C//DTD SVG 1.1//EN"
"http://www.w3.org/Graphics/SVG/1.1/DTD/svg11.dtd">
<svg viewBox="0 0 909 1147" version="1.1" xmlns="http://www.w3.org/2000/svg" xmlns:xlink="http://www.w3.org/1999/xlink">
<defs>
<clipPath id="c0_57"><path d="M140.8,266.3v-18H171v18Z"/></clipPath>
<clipPath id="c1_57"><path d="M185.1,610.6V584.2H533.9v26.4Z"/></clipPath>
<style type="text/css"><![CDATA[
.g0_57{
fill: #B6D774;
}
.g1_57{
fill: none;
stroke: #2E3092;
stroke-width: 0.763;
}
.g2_57{
fill: none;
stroke: #000;
stroke-width: 1.069;
stroke-miterlimit: 2;
}
.g3_57{
fill: none;
stroke: #000;
stroke-width: 1.54;
stroke-miterlimit: 2;
}
.g4_57{
fill: #000;
}
.g5_57{
fill: none;
stroke: #000;
stroke-width: 1.527;
stroke-miterlimit: 2;
}
.g6_57{
fill: none;
stroke: #000;
stroke-width: 0.763;
stroke-miterlimit: 2;
}
.g7_57{
fill: #E8F1FA;
}
.g8_57{
fill: none;
stroke: #0EA5DF;
stroke-width: 3.055;
}
.g9_57{
fill: #FFF1E0;
}
.ga_57{
fill: #0EA5DF;
}
.gb_57{
fill: #FFF;
}
]]></style>
</defs>
<path d="M835.8,1131h73.6v-51.5H835.8V1131Z" class="g0_57"/>
<path d="M73.6,64.2H835.8" class="g1_57"/>
<path d="M204.7,185.3h455" class="g2_57"/>
<path d="M204.7,181.2v8.1" class="g3_57"/>
<path fill-rule="evenodd" d="M665.2,185.3l-10.8,-4.7c1.5,3.1,1.5,6.2,0,9.3Z" class="g4_57"/>
<path d="M312.8,180.8v7.9M204.6,180.8v7.9" class="g5_57"/>
<path d="M248.3,180.8v7.9m43.3,-7.9v7.9m43.3,-7.9v7.9m43.3,-7.9v7.9m43.3,-7.9v7.9" class="g6_57"/>
<path d="M464.9,180.8v7.9" class="g5_57"/>
<path d="M508.2,180.8v7.9m43.3,-7.9v7.9m43.3,-7.9v7.9M464.4,180.8v7.9" class="g6_57"/>
<path d="M572.7,180.8v7.9" class="g5_57"/>
<path fill-rule="evenodd" d="M317,163.5l-.9,10.1c-.1,.4,-.1,.7,-.1,.9c0,.2,0,.4,.1,.5c.2,.2,.3,.3,.5,.4c.2,.1,.5,.2,1,.2l-.1,.3h-4.8l.1,-.3h.2c.4,0,.7,-.1,1,-.3c.1,-.1,.3,-.3,.4,-.6c0,-.1,.1,-.6,.1,-1.3l.2,-1.5h-3.5l-1.2,1.7c-.3,.3,-.5,.6,-.5,.8c-.1,.1,-.2,.3,-.2,.4c0,.2,.1,.4,.3,.5c.1,.2,.4,.2,.7,.3l-.1,.3h-3.5l.1,-.3c.4,-.1,.8,-.2,1.1,-.5c.4,-.3,.9,-.9,1.5,-1.8l7.3,-9.8Zm-1.8,3l-3.5,4.7h3.1Z" class="g4_57"/>
<path fill-rule="evenodd" d="M194.8,170.5c.8,0,1.5,.2,2.2,.5c.6,.4,1.1,.9,1.4,1.6c.4,.6,.5,1.4,.5,2.1c0,1.3,-.3,2.7,-1.1,4.1c-.7,1.4,-1.7,2.5,-3,3.3c-1.2,.7,-2.4,1.1,-3.7,1.1c-1,0,-1.8,-.2,-2.4,-.6c-.6,-.4,-1.1,-1,-1.4,-1.7c-.3,-.7,-.4,-1.3,-.4,-2c0,-1.1,.2,-2.2,.8,-3.3c.5,-1.1,1.2,-2,1.9,-2.8c.8,-.7,1.6,-1.3,2.5,-1.7c.8,-.4,1.7,-.6,2.7,-.6m-.3,.6c-.6,0,-1.2,.1,-1.7,.4c-.6,.3,-1.2,.8,-1.7,1.5c-.6,.6,-1.1,1.5,-1.6,2.6c-.5,1.3,-.8,2.6,-.8,3.8c0,.8,.2,1.6,.7,2.2c.4,.7,1.1,1,2,1c.5,0,1.1,-.1,1.6,-.4c.5,-.3,1,-.7,1.6,-1.4c.7,-.8,1.3,-1.8,1.8,-3.1c.5,-1.3,.7,-2.4,.7,-3.5c0,-.9,-.2,-1.6,-.6,-2.2c-.5,-.6,-1.1,-.9,-2,-.9Z" class="g4_57"/>
<path fill-rule="evenodd" d="M463.9,164.1l.2,-.4h4.3c.7,0,1.4,.2,1.9,.4c.6,.2,1,.5,1.3,.9c.3,.4,.4,.9,.4,1.3c0,.7,-.2,1.4,-.7,1.9c-.5,.6,-1.3,1,-2.5,1.3c.8,.2,1.3,.6,1.6,1.1c.4,.4,.6,.9,.6,1.5c0,.6,-.2,1.1,-.5,1.7c-.3,.5,-.7,1,-1.2,1.3c-.5,.3,-1.1,.5,-1.8,.6c-.5,.1,-1.2,.2,-2.3,.2h-4.4l.1,-.3c.5,-.1,.8,-.1,1,-.2c.2,-.1,.4,-.2,.5,-.4c.1,-.2,.3,-.7,.5,-1.5l2.2,-7.4c.2,-.6,.3,-1,.3,-1.3c0,-.2,-.1,-.4,-.2,-.5c-.2,-.1,-.5,-.2,-1,-.2c-.1,0,-.2,0,-.3,0m1.8,5c.4,0,.7,0,.9,0c1.2,0,2.1,-.2,2.8,-.8c.6,-.5,.9,-1.2,.9,-2c0,-.6,-.2,-1.1,-.6,-1.4c-.4,-.4,-1,-.6,-1.8,-.6c-.2,0,-.5,.1,-.8,.2Zm-1.7,6c.6,.1,1.1,.1,1.5,.1c.9,0,1.7,-.3,2.5,-.8c.7,-.6,1,-1.3,1,-2.3c0,-.7,-.2,-1.3,-.6,-1.7c-.5,-.4,-1.2,-.6,-2.2,-.6c-.2,0,-.4,0,-.7,0Z" class="g4_57"/>
<path fill-rule="evenodd" d="M580.9,163.5l-.9,3.9h-.3v-1c0,-.3,-.1,-.7,-.2,-.9c-.1,-.3,-.3,-.6,-.5,-.8c-.2,-.2,-.5,-.3,-.8,-.5c-.4,-.1,-.7,-.1,-1.1,-.1c-1.1,0,-2,.3,-2.8,.8c-1,.8,-1.8,1.8,-2.4,3.2c-.5,1.1,-.7,2.3,-.7,3.4c0,1.2,.3,2.1,1,2.8c.7,.7,1.6,1.1,2.7,1.1c.8,0,1.5,-.2,2.2,-.6c.6,-.3,1.2,-.9,1.8,-1.7h.4c-.6,1.1,-1.4,1.8,-2.2,2.3c-.8,.5,-1.7,.8,-2.8,.8c-1,0,-1.9,-.2,-2.7,-.7c-.7,-.4,-1.3,-1,-1.7,-1.7c-.4,-.8,-.6,-1.6,-.6,-2.4c0,-1.4,.3,-2.6,1,-3.9c.8,-1.3,1.7,-2.2,3,-3c1.2,-.7,2.5,-1,3.7,-1c.6,0,1.3,.1,2,.4c.3,.1,.6,.2,.7,.2c.1,0,.3,-.1,.4,-.1c.1,-.1,.3,-.2,.5,-.5Z" class="g4_57"/>
<path d="M185.1,1078.3H835.8V838.9H185.1v239.4Z" class="g7_57"/>
<path d="M73.6,839.8H835.8" class="g8_57"/>
<path d="M185.1,815.9H835.8V628.8H185.1V815.9Z" class="g9_57"/>
<path d="M73.6,65.7H835.8" class="g8_57"/>
<path d="M185.1,534H835.8V376.1H185.1V534Z" class="g9_57"/>
<path d="M135.8,413.6h39.7V376.1H135.8v37.5Z" class="ga_57"/>
<path d="M135.8,666.3h39.7V628.8H135.8v37.5Z" class="ga_57"/>
<path d="M184.8,305.3h651V238.2h-651v67.1Z" class="g9_57"/>
<path d="M135.8,275.7h39.7V238.2H135.8v37.5Z" class="ga_57"/>
<path clip-path="url(#c0_57)" d="M156.1,260.7c-2.1,.2,-3.8,-1.5,-3.6,-3.6c.1,-1.7,1.5,-3.1,3.2,-3.2c2,-.1,3.7,1.6,3.6,3.7c-.1,1.7,-1.5,3,-3.2,3.1m.2,3c-3.8,.2,-7,-2.9,-6.8,-6.8c.2,-3.1,2.8,-5.7,6,-5.9c3.8,-.2,7,2.9,6.7,6.8c-.2,3.1,-2.8,5.7,-5.9,5.9m-.4,-15.4c-5.8,0,-11,3.2,-14.9,8.3c-.3,.4,-.3,1,0,1.5c3.9,5.1,9.1,8.2,14.9,8.2c5.7,0,11,-3.1,14.8,-8.2c.4,-.5,.4,-1.1,0,-1.5c-3.8,-5.1,-9.1,-8.3,-14.8,-8.3Z" class="gb_57"/>
<path d="M73.6,546.8H835.8M73.6,318.5H835.8" class="g8_57"/>
<path d="M203.4,606H528.3" class="g2_57"/>
<path d="M203.4,602v8" class="g3_57"/>
<path clip-path="url(#c1_57)" fill-rule="evenodd" d="M533.9,606l-11.1,-4.6c1.6,3.1,1.6,6.1,0,9.2Z" class="g4_57"/>
<path d="M203.3,601.5v7.9m111.1,-7.9v7.9" class="g5_57"/>
<path d="M426,601.5v7.9m-44.5,-7.9v7.9m-44.4,-7.9v7.9m-44.5,-7.9v7.9m-44.4,-7.9v7.9" class="g6_57"/>
<path d="M470.4,601.5v7.9" class="g5_57"/>
<path d="M470,601.5v7.9" class="g6_57"/>
<path fill-rule="evenodd" d="M316.9,587.2l-3.6,4.8h3.1Zm1.8,-3l-1,10.1c0,.5,0,.8,0,.9c0,.3,0,.5,.1,.6c.1,.2,.3,.3,.5,.4c.2,.1,.5,.1,1,.1l-.1,.3h-4.9l.1,-.3h.2c.4,0,.7,-.1,1,-.3c.1,-.1,.3,-.3,.4,-.5c0,-.2,.1,-.6,.2,-1.3l.1,-1.6h-3.6l-1.2,1.7c-.3,.4,-.5,.7,-.6,.8c0,.2,-.1,.3,-.1,.5c0,.2,.1,.3,.3,.5c.1,.1,.4,.2,.8,.2l-.1,.3h-3.7l.1,-.3c.4,0,.8,-.2,1.2,-.4c.3,-.3,.8,-.9,1.5,-1.8l7.5,-9.9Z" class="g4_57"/>
<path fill-rule="evenodd" d="M193,591.8c-.6,0,-1.2,.2,-1.8,.5c-.6,.2,-1.2,.7,-1.8,1.4c-.5,.7,-1.1,1.6,-1.5,2.6c-.6,1.4,-.9,2.6,-.9,3.8c0,.9,.3,1.6,.7,2.3c.4,.6,1.1,1,2.1,1c.5,0,1.1,-.2,1.6,-.4c.5,-.3,1.1,-.8,1.7,-1.4c.7,-.8,1.3,-1.9,1.8,-3.2c.5,-1.2,.8,-2.4,.8,-3.5c0,-.8,-.3,-1.5,-.7,-2.2c-.5,-.6,-1.1,-.9,-2,-.9m.3,-.6c.8,0,1.5,.2,2.2,.6c.6,.3,1.1,.8,1.5,1.5c.3,.7,.5,1.4,.5,2.1c0,1.3,-.4,2.7,-1.1,4.1c-.8,1.5,-1.8,2.6,-3.1,3.3c-1.2,.8,-2.5,1.1,-3.9,1.1c-.9,0,-1.7,-.2,-2.4,-.6c-.6,-.4,-1.1,-1,-1.4,-1.6c-.3,-.7,-.5,-1.4,-.5,-2c0,-1.1,.3,-2.3,.9,-3.4c.5,-1.1,1.2,-2,2,-2.8c.8,-.7,1.6,-1.3,2.5,-1.7c.8,-.4,1.8,-.6,2.8,-.6Z" class="g4_57"/>
<path fill-rule="evenodd" d="M469.5,595.8c.7,.1,1.2,.2,1.6,.2c.9,0,1.8,-.3,2.5,-.9c.8,-.5,1.1,-1.3,1.1,-2.3c0,-.7,-.2,-1.3,-.6,-1.7c-.5,-.4,-1.2,-.6,-2.3,-.6c-.2,0,-.4,0,-.7,0Zm1.8,-5.9c.4,0,.7,0,.9,0c1.3,0,2.2,-.3,2.9,-.8c.6,-.6,.9,-1.2,.9,-2.1c0,-.6,-.2,-1.1,-.6,-1.4c-.4,-.3,-1,-.5,-1.8,-.5c-.2,0,-.5,0,-.8,.1Zm-1.8,-5.1l.1,-.3h4.5c.7,0,1.4,.1,2,.3c.5,.3,1,.6,1.3,1c.3,.4,.4,.8,.4,1.3c0,.7,-.3,1.3,-.8,1.9c-.5,.5,-1.3,.9,-2.5,1.2c.8,.3,1.3,.6,1.7,1.1c.3,.5,.5,1,.5,1.5c0,.6,-.2,1.2,-.5,1.7c-.3,.6,-.7,1,-1.2,1.3c-.5,.3,-1.1,.5,-1.8,.7c-.5,.1,-1.3,.1,-2.4,.1h-4.5l.1,-.3c.5,0,.8,-.1,1,-.1c.2,-.1,.4,-.3,.5,-.4c.1,-.3,.3,-.8,.6,-1.6l2.2,-7.3c.2,-.7,.3,-1.1,.3,-1.4c0,-.2,-.1,-.3,-.3,-.5c-.1,-.1,-.5,-.2,-.9,-.2c-.1,0,-.2,0,-.3,0Z" class="g4_57"/>
</svg>