<?xml version="1.0" encoding="UTF-8" standalone="no"?>
<!DOCTYPE svg PUBLIC "-//W3C//DTD SVG 1.1//EN"
"http://www.w3.org/Graphics/SVG/1.1/DTD/svg11.dtd">
<svg viewBox="0 0 909 1147" version="1.1" xmlns="http://www.w3.org/2000/svg" xmlns:xlink="http://www.w3.org/1999/xlink">
<defs>
<clipPath id="c0_84"><path d="M188.5,648.4V478.8H400.9V648.4Z"/></clipPath>
<clipPath id="c1_84"><path d="M186.3,821.7V653.6H398.7V821.7Z"/></clipPath>
<style type="text/css"><![CDATA[
.g0_84{
fill: #B6D774;
}
.g1_84{
fill: none;
stroke: #000;
stroke-width: 1.073;
stroke-miterlimit: 2;
}
.g2_84{
fill: #000;
}
.g3_84{
fill: none;
stroke: #000;
stroke-width: 0.766;
stroke-miterlimit: 2;
}
.g4_84{
fill: none;
stroke: #000;
stroke-width: 1.073;
stroke-miterlimit: 2;
stroke-dasharray: 6,4;
}
.g5_84{
fill: none;
stroke: #00A651;
stroke-width: 1.073;
stroke-miterlimit: 2;
}
.g6_84{
fill: none;
stroke: #000;
stroke-width: 1.077;
stroke-miterlimit: 2;
}
.g7_84{
fill: none;
stroke: #000;
stroke-width: 0.769;
stroke-miterlimit: 2;
}
.g8_84{
fill: none;
stroke: #000;
stroke-width: 1.077;
stroke-miterlimit: 2;
stroke-dasharray: 6,4;
}
.g9_84{
fill: none;
stroke: #00A651;
stroke-width: 1.077;
stroke-miterlimit: 2;
}
.ga_84{
fill: #FCD3C1;
}
.gb_84{
fill: none;
stroke: #000;
stroke-width: 1.069;
stroke-miterlimit: 2;
}
.gc_84{
fill: none;
stroke: #000;
stroke-width: 1.069;
stroke-miterlimit: 2;
stroke-dasharray: 6,4;
}
.gd_84{
fill: none;
stroke: #ED1D24;
stroke-width: 1.069;
stroke-miterlimit: 2;
}
.ge_84{
fill: none;
stroke: #000;
stroke-width: 0.763;
stroke-miterlimit: 2;
}
.gf_84{
fill: #FFF1E0;
}
.gg_84{
fill: #0C4B7F;
}
]]></style>
</defs>
<path d="M0,1131H73.8v-51.5H0V1131Z" class="g0_84"/>
<path d="M254.4,562.5H382.9l-48.3,65.9H206.2l48.2,-65.9Z" class="g1_84"/>
<path fill-rule="evenodd" d="M343.5,509.5l-2.5,8.8c1.1,-1.7,1.9,-2.8,2.5,-3.3c.6,-.6,1.2,-.8,1.8,-.8c.3,0,.5,.1,.7,.3c.2,.2,.3,.4,.3,.8c0,.4,-.1,.8,-.3,1.4l-1.1,3.8c-.1,.5,-.2,.7,-.2,.8q0,.1,.1,.2c.1,0,.1,.1,.2,.1c.1,0,.1,-.1,.2,-.1c.4,-.3,.7,-.7,1.1,-1.2l.2,.2c-.2,.3,-.4,.7,-.8,1.1c-.4,.4,-.7,.6,-.9,.8c-.3,.1,-.5,.2,-.7,.2c-.3,0,-.4,-.1,-.6,-.2c-.1,-.2,-.2,-.3,-.2,-.6c0,-.2,.1,-.7,.3,-1.5l1.1,-3.6c.1,-.4,.1,-.8,.1,-1.1c0,-.1,0,-.2,-.1,-.2c0,-.1,-.1,-.2,-.3,-.2c-.1,0,-.3,.1,-.5,.2c-.5,.3,-.9,.8,-1.5,1.5c-.1,.1,-.6,.9,-1.4,2.2c-.2,.5,-.5,.9,-.6,1.4l-.6,1.9h-1.3L341.4,512l.3,-1.1c0,-.2,0,-.3,-.2,-.5c-.1,-.1,-.2,-.1,-.4,-.1c-.1,0,-.3,0,-.5,0l-.2,.1V510Z" class="g2_84"/>
<path fill-rule="evenodd" d="M303.6,586.9l-2.5,8.8c1.1,-1.7,2,-2.8,2.6,-3.3c.6,-.6,1.2,-.8,1.7,-.8c.3,0,.6,.1,.7,.3c.2,.2,.3,.4,.3,.8c0,.4,0,.8,-.2,1.4l-1.1,3.8c-.2,.5,-.2,.7,-.2,.8q0,.1,.1,.2c0,0,.1,.1,.1,.1c.1,0,.2,-.1,.3,-.2c.3,-.2,.7,-.6,1,-1.1l.3,.2c-.2,.3,-.5,.7,-.9,1.1c-.3,.4,-.6,.6,-.9,.8c-.3,.1,-.5,.2,-.7,.2c-.2,0,-.4,-.1,-.5,-.2c-.2,-.2,-.2,-.3,-.2,-.6c0,-.2,.1,-.7,.3,-1.5l1,-3.6c.1,-.4,.2,-.8,.2,-1.1c0,-.1,0,-.2,-.1,-.3c-.1,0,-.2,-.1,-.3,-.1c-.2,0,-.4,.1,-.6,.2c-.4,.3,-.9,.8,-1.4,1.5c-.1,.1,-.6,.9,-1.4,2.2c-.3,.4,-.5,.9,-.7,1.4l-.5,1.9h-1.4l3,-10.4l.3,-1.1c0,-.2,-.1,-.3,-.2,-.5c-.1,-.1,-.3,-.1,-.5,-.1c-.1,0,-.3,0,-.5,0h-.2v-.3Z" class="g2_84"/>
<path fill-rule="evenodd" d="M352.3,517.3l-1.2,4.2c.4,-.4,.8,-.7,1,-.8c.3,-.2,.6,-.2,.9,-.2c.5,0,.8,.1,1.1,.4c.3,.3,.4,.7,.4,1.2c0,.7,-.1,1.3,-.5,1.9c-.4,.7,-.8,1.2,-1.4,1.6c-.5,.3,-1.1,.5,-1.6,.5c-.6,0,-1.3,-.2,-1.9,-.7l1.8,-6.3c.2,-.5,.2,-.8,.2,-.9c0,-.1,0,-.2,-.1,-.2c0,-.1,-.2,-.1,-.4,-.1c0,0,-.2,0,-.3,0v-.2Zm-2.3,8.2c.4,.2,.8,.3,1.1,.3c.3,0,.7,-.1,1.1,-.4c.3,-.2,.7,-.7,.9,-1.3c.3,-.6,.5,-1.2,.5,-1.9c0,-.3,-.1,-.6,-.3,-.8c-.2,-.3,-.4,-.4,-.7,-.4c-.3,0,-.7,.2,-1.1,.5c-.3,.3,-.6,.7,-.7,1.2Z" class="g2_84"/>
<path fill-rule="evenodd" d="M312.5,594.7l-1.2,4.2c.4,-.4,.7,-.7,1,-.8c.3,-.2,.6,-.2,.9,-.2c.4,0,.8,.1,1.1,.4c.3,.3,.4,.7,.4,1.2c0,.6,-.2,1.3,-.6,1.9c-.3,.7,-.8,1.2,-1.3,1.5c-.6,.4,-1.1,.6,-1.7,.6c-.6,0,-1.2,-.2,-1.8,-.7l1.8,-6.3c.1,-.5,.2,-.8,.2,-.9c0,-.1,0,-.2,-.1,-.2c-.1,-.1,-.2,-.1,-.4,-.1c-.1,0,-.2,0,-.4,0v-.2Zm-2.3,8.2c.4,.2,.7,.3,1,.3c.4,0,.7,-.1,1.1,-.4c.4,-.3,.7,-.7,1,-1.3c.3,-.6,.4,-1.2,.4,-1.9c0,-.4,-.1,-.6,-.3,-.9c-.1,-.2,-.4,-.3,-.6,-.3c-.4,0,-.7,.2,-1.1,.5c-.4,.3,-.6,.7,-.8,1.2Z" class="g2_84"/>
<path d="M245.9,575.8c6,3.3,9.7,1.6,12.5,-3.9M295,508.8c5.6,4,9.5,2.6,12.8,-2.6" class="g3_84"/>
<path fill-rule="evenodd" d="M251.8,573.4c.6,0,1,-.5,1,-1c0,-.5,-.4,-1,-1,-1c-.5,0,-.9,.5,-.9,1c0,.5,.4,1,.9,1Z" class="g2_84"/>
<path fill-rule="evenodd" d="M301.1,507c.5,0,1,-.3,1,-.9c.1,-.5,-.3,-1,-.8,-1c-.5,-.1,-1,.3,-1,.8c-.1,.6,.3,1,.8,1.1Z" class="g2_84"/>
<path fill-rule="evenodd" d="M292,483.8l-1,4h-.3v-1c0,-.4,-.1,-.7,-.2,-1c-.1,-.3,-.3,-.5,-.5,-.8c-.2,-.2,-.5,-.3,-.8,-.4c-.4,-.2,-.7,-.2,-1.1,-.2c-1.1,0,-2,.3,-2.8,.9c-1.1,.7,-1.9,1.8,-2.4,3.2c-.5,1.1,-.8,2.3,-.8,3.4c0,1.2,.4,2.2,1.1,2.9c.7,.7,1.6,1.1,2.7,1.1c.8,0,1.5,-.2,2.2,-.6c.6,-.4,1.2,-1,1.8,-1.7h.4c-.6,1,-1.4,1.8,-2.2,2.3c-.8,.5,-1.7,.7,-2.9,.7c-1,0,-1.8,-.2,-2.6,-.6c-.8,-.4,-1.4,-1,-1.8,-1.8c-.4,-.7,-.6,-1.5,-.6,-2.4c0,-1.4,.4,-2.7,1.1,-3.9c.7,-1.3,1.7,-2.3,2.9,-3c1.3,-.8,2.5,-1.1,3.8,-1.1c.6,0,1.3,.1,2,.4c.3,.1,.6,.2,.7,.2c.1,0,.3,-.1,.4,-.1c.1,-.1,.3,-.2,.5,-.5Z" class="g2_84"/>
<path fill-rule="evenodd" d="M247,542l.1,-.3H251c1.6,0,2.9,.2,3.7,.6c.7,.4,1.4,1,1.9,1.8c.4,.8,.7,1.7,.7,2.6c0,.8,-.2,1.6,-.4,2.4c-.3,.7,-.6,1.3,-1,1.8c-.3,.5,-.8,1,-1.6,1.5c-.7,.6,-1.4,1,-2.3,1.2c-.8,.3,-1.8,.4,-3.1,.4h-5.1l.1,-.3c.4,0,.8,-.1,.9,-.1c.3,-.1,.4,-.3,.6,-.5c.1,-.2,.3,-.7,.5,-1.5l2.2,-7.4c.2,-.6,.2,-1.1,.2,-1.4c0,-.3,0,-.4,-.2,-.6c-.1,-.1,-.5,-.2,-.9,-.2Zm3.2,.4l-2.7,9.2c-.2,.7,-.3,1.1,-.3,1.3c0,.1,.1,.2,.1,.3c.1,.1,.2,.1,.3,.1c.2,.1,.4,.1,.8,.1c.9,0,1.8,-.1,2.6,-.3c.8,-.2,1.4,-.5,2,-.8c.7,-.6,1.3,-1.4,1.7,-2.4c.4,-1,.7,-2.1,.7,-3.3c0,-1.5,-.4,-2.5,-1,-3.2c-.7,-.7,-1.7,-1,-3,-1c-.3,0,-.7,0,-1.2,0Z" class="g2_84"/>
<path fill-rule="evenodd" d="M199.3,628.1l-.9,10.2c-.1,.5,-.1,.8,-.1,1c0,.2,.1,.4,.2,.5c.1,.2,.2,.3,.4,.4c.2,.1,.5,.1,1,.1l-.1,.4H195l.1,-.4h.2c.4,0,.7,-.1,1,-.2c.1,-.1,.3,-.3,.4,-.6c0,-.2,.1,-.6,.2,-1.3l.1,-1.6h-3.5l-1.2,1.7c-.3,.4,-.5,.7,-.6,.8c0,.2,-.1,.4,-.1,.5c0,.2,.1,.4,.3,.5c.1,.1,.4,.2,.7,.2l-.1,.4h-3.6l.1,-.4c.5,0,.9,-.1,1.2,-.4c.3,-.3,.9,-.9,1.5,-1.8l7.3,-10Zm-1.8,3L194,636h3.1Z" class="g2_84"/>
<path fill-rule="evenodd" d="M335.3,633.5l.1,-.4h4.4c.7,0,1.3,.2,1.9,.4c.6,.2,1,.5,1.3,.9c.3,.5,.4,.9,.4,1.4c0,.7,-.2,1.3,-.7,1.9c-.5,.5,-1.4,1,-2.5,1.2c.7,.3,1.3,.7,1.6,1.1c.4,.5,.5,1,.5,1.6c0,.6,-.1,1.2,-.4,1.7c-.3,.6,-.7,1,-1.2,1.3c-.5,.3,-1.1,.5,-1.8,.7c-.5,.1,-1.3,.1,-2.3,.1h-4.5l.2,-.3c.4,0,.7,0,.9,-.1c.2,-.1,.4,-.3,.5,-.4c.2,-.3,.4,-.8,.6,-1.6l2.2,-7.5c.2,-.6,.3,-1,.3,-1.3c0,-.2,-.1,-.4,-.3,-.5c-.2,-.2,-.5,-.2,-.9,-.2c-.1,0,-.2,0,-.3,0m1.8,5.1c.4,0,.7,0,.9,0c1.2,0,2.1,-.3,2.7,-.8c.6,-.6,.9,-1.3,.9,-2.1c0,-.6,-.1,-1.1,-.5,-1.4c-.4,-.4,-1,-.6,-1.8,-.6c-.2,0,-.5,.1,-.8,.2Zm-1.8,6c.7,.1,1.2,.2,1.6,.2c.9,0,1.7,-.3,2.4,-.9c.8,-.5,1.1,-1.3,1.1,-2.3c0,-.7,-.2,-1.3,-.6,-1.7c-.5,-.5,-1.2,-.7,-2.2,-.7c-.2,0,-.4,0,-.7,.1Z" class="g2_84"/>
<path fill-rule="evenodd" d="M226.4,556l.1,-.3h4.4c.7,0,1.3,.1,1.9,.3c.6,.3,1,.6,1.3,1c.3,.4,.4,.9,.4,1.3c0,.7,-.2,1.4,-.7,1.9c-.5,.6,-1.4,1,-2.5,1.3c.7,.3,1.3,.6,1.6,1.1c.4,.5,.5,1,.5,1.5c0,.6,-.1,1.2,-.4,1.8c-.3,.5,-.7,1,-1.2,1.3c-.5,.3,-1.1,.5,-1.8,.7c-.5,.1,-1.3,.1,-2.3,.1h-4.5l.1,-.3c.5,0,.8,-.1,1,-.2c.2,-.1,.4,-.2,.5,-.4c.2,-.2,.3,-.7,.6,-1.6l2.2,-7.4c.2,-.6,.2,-1.1,.2,-1.3c0,-.3,0,-.4,-.2,-.6c-.2,-.1,-.5,-.2,-.9,-.2c-.1,0,-.2,0,-.3,0m1.8,5.1c.4,.1,.7,.1,.8,.1c1.3,0,2.2,-.3,2.8,-.9c.6,-.5,.9,-1.2,.9,-2c0,-.6,-.1,-1.1,-.5,-1.5c-.4,-.3,-1,-.5,-1.8,-.5c-.2,0,-.5,0,-.8,.1Zm-1.8,6.1c.7,.1,1.2,.1,1.5,.1c1,0,1.8,-.3,2.5,-.8c.8,-.6,1.1,-1.4,1.1,-2.3c0,-.8,-.2,-1.4,-.7,-1.8c-.4,-.4,-1.1,-.6,-2.1,-.6c-.2,0,-.4,0,-.7,0Z" class="g2_84"/>
<path clip-path="url(#c0_84)" fill-rule="evenodd" d="M401.6,552.5l-.9,4h-.4v-1c0,-.4,-.1,-.7,-.2,-1c-.1,-.3,-.3,-.5,-.5,-.7c-.2,-.2,-.5,-.4,-.8,-.5c-.3,-.1,-.7,-.2,-1.1,-.2c-1.1,0,-2,.3,-2.8,.9c-1,.7,-1.9,1.8,-2.4,3.2c-.5,1.1,-.8,2.3,-.8,3.4c0,1.2,.4,2.2,1.1,2.9c.7,.7,1.6,1.1,2.7,1.1c.8,0,1.5,-.2,2.2,-.6c.6,-.4,1.2,-.9,1.8,-1.7h.4c-.6,1,-1.4,1.8,-2.2,2.3c-.8,.5,-1.7,.8,-2.9,.8c-.9,0,-1.8,-.2,-2.6,-.7c-.8,-.4,-1.3,-1,-1.7,-1.7c-.4,-.8,-.6,-1.6,-.6,-2.5c0,-1.3,.3,-2.7,1,-3.9c.7,-1.3,1.7,-2.3,3,-3c1.2,-.7,2.5,-1.1,3.7,-1.1c.6,0,1.3,.1,2,.4c.3,.1,.6,.2,.7,.2c.2,0,.3,0,.4,-.1c.1,-.1,.3,-.2,.5,-.5Z" class="g2_84"/>
<path fill-rule="evenodd" d="M297.4,498.3l-.5,1.6h-4.8v-.2c1.4,-1.3,2.4,-2.4,2.9,-3.2c.6,-.8,.9,-1.6,.9,-2.2c0,-.6,-.2,-1,-.5,-1.3c-.3,-.4,-.7,-.5,-1.1,-.5c-.4,0,-.8,.1,-1.1,.3c-.3,.3,-.5,.6,-.7,1.1h-.2c.1,-.8,.4,-1.4,.8,-1.8c.4,-.3,.9,-.6,1.5,-.6c.7,0,1.2,.3,1.7,.7c.4,.4,.6,.9,.6,1.5c0,.4,-.1,.8,-.3,1.3c-.3,.6,-.7,1.3,-1.4,2c-1,1.1,-1.6,1.8,-1.9,2h2.2c.4,0,.7,0,.9,0c.1,-.1,.3,-.1,.4,-.2c.2,-.1,.3,-.3,.4,-.5Z" class="g2_84"/>
<path fill-rule="evenodd" d="M242.1,570l-.6,1.6h-4.8v-.3c1.4,-1.3,2.4,-2.3,3,-3.1c.6,-.9,.9,-1.6,.9,-2.3c0,-.5,-.2,-.9,-.5,-1.3c-.3,-.3,-.7,-.5,-1.2,-.5c-.4,0,-.7,.1,-1,.4c-.3,.2,-.6,.6,-.7,1h-.3c.1,-.7,.4,-1.3,.8,-1.7c.4,-.4,.9,-.6,1.6,-.6c.6,0,1.2,.2,1.6,.6c.5,.5,.7,1,.7,1.5c0,.5,-.1,.9,-.3,1.3c-.3,.6,-.8,1.3,-1.4,2.1c-1,1.1,-1.7,1.7,-1.9,2h2.1c.4,0,.7,-.1,.9,-.1c.2,0,.3,-.1,.5,-.2c.1,-.1,.2,-.2,.4,-.4Z" class="g2_84"/>
<path fill-rule="evenodd" d="M217,588.2l-1.8,6.2c.6,-.6,1.1,-1,1.5,-1.2c.5,-.2,.9,-.3,1.4,-.3c.6,0,1.2,.2,1.6,.6c.4,.5,.6,1.1,.6,1.8c0,1,-.3,2,-.8,2.9c-.6,1,-1.2,1.7,-2.1,2.3c-.8,.5,-1.6,.8,-2.4,.8c-.9,0,-1.9,-.4,-2.8,-1l2.7,-9.5c.2,-.8,.3,-1.2,.3,-1.3c0,-.2,0,-.3,-.1,-.4c-.2,-.1,-.4,-.1,-.6,-.1c-.2,0,-.4,0,-.6,0v-.3Zm-3.5,12.2c.6,.3,1.1,.5,1.6,.5c.5,0,1.1,-.2,1.6,-.6c.6,-.4,1.1,-1.1,1.5,-2c.4,-.9,.6,-1.9,.6,-2.8c0,-.6,-.1,-1,-.4,-1.3c-.2,-.3,-.6,-.5,-.9,-.5c-.6,0,-1.1,.2,-1.7,.7c-.5,.4,-.9,1.1,-1.1,1.9Z" class="g2_84"/>
<path fill-rule="evenodd" d="M371,594.3l-1.8,6.3c.6,-.6,1.1,-1,1.5,-1.3c.5,-.2,.9,-.3,1.4,-.3c.6,0,1.2,.2,1.6,.7c.4,.4,.6,1,.6,1.8c0,.9,-.3,1.9,-.8,2.9c-.6,.9,-1.3,1.7,-2.1,2.2c-.8,.6,-1.6,.8,-2.5,.8c-.9,0,-1.8,-.3,-2.7,-1l2.7,-9.5c.2,-.7,.3,-1.2,.3,-1.3c0,-.1,0,-.3,-.1,-.3c-.2,-.2,-.4,-.2,-.6,-.2c-.2,0,-.4,0,-.6,.1v-.4Zm-3.5,12.2c.6,.3,1.1,.5,1.6,.5c.5,0,1.1,-.2,1.6,-.6c.6,-.4,1.1,-1,1.5,-2c.4,-.9,.6,-1.8,.6,-2.8c0,-.5,-.1,-1,-.4,-1.3c-.2,-.3,-.6,-.4,-.9,-.4c-.6,0,-1.1,.2,-1.7,.6c-.5,.5,-.9,1.1,-1.1,1.9Z" class="g2_84"/>
<path d="M252.4,565.8l50.7,-68.7" class="g4_84"/>
<path d="M382.7,562L300.2,499.7m34.4,128.6L252.1,566.1" class="g5_84"/>
<path d="M252.4,674.2H381.2l-48.3,65.4H204l48.4,-65.4Z" class="g6_84"/>
<path fill-rule="evenodd" d="M302.3,689l-2.5,8.8c1.1,-1.7,1.9,-2.8,2.5,-3.3c.6,-.6,1.2,-.8,1.8,-.8c.3,0,.5,.1,.7,.3c.2,.2,.3,.4,.3,.8c0,.4,-.1,.8,-.3,1.4l-1.1,3.8c-.1,.4,-.2,.7,-.2,.7c0,.1,.1,.2,.1,.2q.1,.1,.2,.1c.1,0,.2,0,.3,-.1c.3,-.3,.6,-.6,1,-1.1l.3,.2c-.2,.3,-.5,.6,-.9,1c-.4,.4,-.7,.7,-.9,.8c-.3,.2,-.5,.2,-.7,.2c-.3,0,-.4,0,-.6,-.2c-.1,-.1,-.2,-.3,-.2,-.5c0,-.3,.1,-.8,.3,-1.5l1.1,-3.6c.1,-.5,.2,-.8,.2,-1.1c0,-.1,-.1,-.2,-.2,-.3c0,0,-.1,-.1,-.2,-.1c-.2,0,-.4,.1,-.6,.2c-.5,.3,-.9,.8,-1.5,1.4c-.1,.2,-.6,1,-1.4,2.3c-.3,.4,-.5,.9,-.6,1.4l-.6,1.8h-1.4l3,-10.3l.3,-1.1c0,-.2,0,-.3,-.2,-.4c-.1,-.1,-.3,-.2,-.4,-.2c-.1,0,-.3,0,-.5,.1h-.2v-.4Z" class="g2_84"/>
<path fill-rule="evenodd" d="M257.4,757.6l-2.5,8.8c1.1,-1.7,1.9,-2.8,2.6,-3.3c.6,-.6,1.2,-.8,1.7,-.8c.3,0,.5,.1,.7,.3c.2,.2,.3,.4,.3,.8c0,.3,-.1,.8,-.2,1.4l-1.1,3.8c-.2,.4,-.2,.7,-.2,.7c0,.1,0,.2,0,.2c.1,.1,.2,.1,.2,.1c.1,0,.2,0,.3,-.1c.3,-.3,.7,-.6,1,-1.1l.3,.2c-.2,.3,-.5,.6,-.9,1c-.3,.4,-.6,.7,-.9,.8c-.3,.2,-.5,.2,-.7,.2c-.2,0,-.4,0,-.5,-.2c-.2,-.1,-.3,-.3,-.3,-.5c0,-.3,.1,-.8,.4,-1.5l1,-3.6c.1,-.5,.2,-.8,.2,-1.1c0,-.1,0,-.2,-.1,-.3c-.1,0,-.2,-.1,-.3,-.1c-.2,0,-.4,.1,-.6,.2c-.4,.3,-.9,.8,-1.4,1.4c-.2,.2,-.6,1,-1.5,2.3c-.2,.4,-.4,.9,-.6,1.4l-.6,1.8h-1.3l3,-10.3l.3,-1.1c0,-.2,-.1,-.3,-.2,-.4c-.2,-.1,-.3,-.2,-.5,-.2c-.1,0,-.3,0,-.5,0l-.2,.1v-.4Z" class="g2_84"/>
<path fill-rule="evenodd" d="M311.2,696.8L310,701c.4,-.4,.7,-.7,1,-.8c.3,-.2,.6,-.3,.9,-.3c.4,0,.8,.2,1.1,.5c.2,.3,.4,.7,.4,1.2c0,.6,-.2,1.2,-.6,1.9c-.3,.6,-.8,1.1,-1.4,1.5c-.5,.3,-1.1,.5,-1.6,.5c-.6,0,-1.2,-.2,-1.9,-.7l1.9,-6.3c.1,-.4,.2,-.7,.2,-.8c0,-.1,-.1,-.2,-.1,-.2c-.1,-.1,-.3,-.2,-.4,-.2c-.1,0,-.2,.1,-.4,.1v-.2Zm-2.4,8.1c.4,.2,.8,.3,1.1,.3c.3,0,.7,-.1,1.1,-.4c.4,-.2,.7,-.7,1,-1.3c.3,-.6,.4,-1.2,.4,-1.8c0,-.4,-.1,-.7,-.3,-.9c-.2,-.2,-.4,-.3,-.6,-.3c-.4,0,-.8,.1,-1.1,.4c-.4,.3,-.6,.8,-.8,1.3Z" class="g2_84"/>
<path fill-rule="evenodd" d="M266.3,765.4l-1.2,4.2c.4,-.4,.7,-.7,1,-.9c.3,-.1,.6,-.2,.9,-.2c.5,0,.8,.2,1.1,.5c.3,.3,.4,.6,.4,1.2c0,.6,-.2,1.2,-.5,1.9c-.4,.6,-.9,1.1,-1.4,1.5c-.6,.3,-1.1,.5,-1.7,.5c-.6,0,-1.2,-.2,-1.8,-.7l1.8,-6.3c.1,-.5,.2,-.7,.2,-.8c0,-.1,0,-.2,-.1,-.3c-.1,0,-.2,-.1,-.4,-.1c-.1,0,-.2,.1,-.4,.1v-.2Zm-2.3,8.1c.4,.2,.7,.3,1,.3c.4,0,.7,-.1,1.1,-.4c.4,-.2,.7,-.7,1,-1.3c.3,-.6,.4,-1.2,.4,-1.8c0,-.4,-.1,-.7,-.2,-.9c-.2,-.2,-.4,-.3,-.7,-.3c-.4,0,-.7,.1,-1.1,.4c-.3,.3,-.6,.8,-.7,1.3Z" class="g2_84"/>
<path d="M341.6,726.3c-6,-3.3,-9.8,-1.6,-12.5,3.8m-36.8,62.7c-5.6,-3.9,-9.5,-2.5,-12.8,2.6" class="g7_84"/>
<path fill-rule="evenodd" d="M335.7,728.7c-.6,0,-1,.4,-1,1c0,.5,.4,.9,.9,.9c.6,0,1,-.4,1,-.9c0,-.5,-.4,-1,-.9,-1Z" class="g2_84"/>
<path fill-rule="evenodd" d="M286.2,794.6c-.5,0,-1,.4,-1,.9c-.1,.5,.3,1,.8,1c.5,.1,1,-.3,1.1,-.8c0,-.5,-.4,-1,-.9,-1.1Z" class="g2_84"/>
<path fill-rule="evenodd" d="M346.2,729.7l.1,-.3h3.9c1.6,0,2.8,.2,3.6,.5c.8,.4,1.5,1,1.9,1.8c.5,.8,.8,1.7,.8,2.7c0,.7,-.2,1.5,-.5,2.3c-.2,.7,-.5,1.3,-.9,1.8c-.3,.4,-.9,.9,-1.6,1.5c-.7,.5,-1.5,.9,-2.3,1.2c-.8,.3,-1.9,.4,-3.1,.4h-5.2l.1,-.3c.5,0,.8,-.1,1,-.2c.2,-.1,.4,-.2,.5,-.4c.2,-.2,.4,-.7,.6,-1.5l2.2,-7.4c.1,-.6,.2,-1,.2,-1.4c0,-.2,-.1,-.4,-.2,-.5c-.2,-.1,-.5,-.2,-.9,-.2Zm3.2,.3l-2.7,9.2c-.2,.7,-.3,1.1,-.3,1.3c0,.1,0,.2,.1,.3c.1,0,.2,.1,.3,.1c.1,.1,.4,.1,.7,.1c1,0,1.8,-.1,2.6,-.3c.9,-.2,1.5,-.5,2,-.8c.8,-.6,1.4,-1.4,1.8,-2.4c.4,-.9,.6,-2.1,.6,-3.3c0,-1.4,-.3,-2.5,-1,-3.2c-.6,-.6,-1.6,-1,-2.9,-1c-.3,0,-.7,0,-1.2,0Z" class="g2_84"/>
<path fill-rule="evenodd" d="M240.8,658.9l.1,-.4h4c1.6,0,2.8,.2,3.6,.6c.8,.4,1.5,1,1.9,1.8c.5,.8,.7,1.7,.7,2.6c0,.8,-.1,1.6,-.4,2.3c-.2,.8,-.5,1.4,-.9,1.9c-.3,.4,-.9,.9,-1.6,1.5c-.7,.5,-1.5,.9,-2.3,1.2c-.8,.2,-1.9,.4,-3.1,.4h-5.2l.1,-.4c.5,0,.8,0,1,-.1c.2,-.1,.4,-.2,.5,-.4c.2,-.3,.4,-.8,.6,-1.5l2.1,-7.4c.2,-.6,.3,-1.1,.3,-1.4c0,-.2,-.1,-.4,-.2,-.5c-.2,-.2,-.5,-.2,-1,-.2Zm3.2,.3l-2.6,9.2c-.2,.6,-.3,1.1,-.3,1.2c0,.1,0,.2,.1,.3c.1,.1,.1,.2,.2,.2c.2,0,.5,.1,.8,.1c.9,0,1.8,-.1,2.6,-.3c.8,-.2,1.5,-.5,2,-.9c.8,-.5,1.3,-1.3,1.8,-2.3c.4,-1,.6,-2.1,.6,-3.3c0,-1.5,-.3,-2.5,-1,-3.2c-.6,-.7,-1.6,-1,-2.9,-1c-.3,0,-.8,0,-1.3,0Z" class="g2_84"/>
<path fill-rule="evenodd" d="M197.1,739.6l-1,10.1c0,.5,0,.8,0,1c0,.2,0,.4,.1,.5c.1,.2,.3,.3,.5,.4c.2,.1,.5,.1,.9,.1v.4h-4.9l.1,-.4h.2c.4,0,.8,0,1,-.2c.2,-.1,.3,-.3,.4,-.6c.1,-.2,.1,-.6,.2,-1.3l.1,-1.5h-3.5l-1.2,1.6c-.3,.4,-.5,.7,-.5,.9c-.1,.1,-.1,.3,-.1,.4c0,.2,0,.4,.2,.5c.1,.2,.4,.2,.8,.2l-.1,.4h-3.6l.1,-.4c.4,0,.8,-.1,1.1,-.4c.4,-.3,.9,-.9,1.5,-1.8l7.3,-9.9Zm-1.8,3l-3.6,4.8h3.1Z" class="g2_84"/>
<path fill-rule="evenodd" d="M334.7,745.7l.2,-.3h4.3c.7,0,1.4,.1,2,.3c.5,.3,1,.6,1.3,1c.3,.4,.4,.8,.4,1.3c0,.7,-.3,1.3,-.8,1.9c-.5,.6,-1.3,1,-2.5,1.3c.8,.2,1.3,.6,1.7,1.1c.3,.4,.5,.9,.5,1.5c0,.6,-.2,1.2,-.5,1.7c-.3,.6,-.7,1,-1.2,1.3c-.5,.3,-1.1,.5,-1.7,.7c-.5,.1,-1.3,.1,-2.4,.1h-4.4l.1,-.3c.5,0,.8,-.1,.9,-.1c.3,-.1,.5,-.3,.6,-.4c.1,-.3,.3,-.8,.5,-1.6l2.2,-7.4c.2,-.6,.3,-1.1,.3,-1.3c0,-.3,-.1,-.4,-.2,-.6c-.2,-.1,-.5,-.2,-1,-.2c-.1,0,-.2,0,-.3,0m1.9,5.1c.3,0,.6,0,.8,0c1.3,0,2.2,-.2,2.8,-.8c.6,-.5,.9,-1.2,.9,-2c0,-.6,-.2,-1.1,-.6,-1.5c-.3,-.3,-.9,-.5,-1.7,-.5c-.3,0,-.5,0,-.9,.1Zm-1.8,6c.6,.1,1.1,.2,1.5,.2c.9,0,1.8,-.3,2.5,-.9c.7,-.5,1.1,-1.3,1.1,-2.3c0,-.7,-.2,-1.3,-.7,-1.7c-.4,-.4,-1.2,-.6,-2.2,-.6c-.2,0,-.4,0,-.7,0Z" class="g2_84"/>
<path fill-rule="evenodd" d="M293.9,803.9l-.9,10.2c-.1,.5,-.1,.8,-.1,.9c0,.3,0,.4,.1,.6c.1,.1,.3,.3,.5,.4c.2,0,.5,.1,1,.1l-.1,.3h-4.8l.1,-.3h.2c.4,0,.7,-.1,.9,-.3c.2,-.1,.3,-.3,.4,-.5c.1,-.2,.2,-.7,.2,-1.4l.2,-1.5h-3.5l-1.3,1.7c-.3,.4,-.4,.6,-.5,.8c-.1,.2,-.1,.3,-.1,.5c0,.2,.1,.3,.2,.5c.2,.1,.4,.2,.8,.2l-.1,.3h-3.6l.1,-.3c.4,0,.8,-.2,1.2,-.5c.3,-.2,.8,-.8,1.5,-1.8l7.3,-9.9Zm-1.8,3l-3.5,4.8h3Z" class="g2_84"/>
<path clip-path="url(#c1_84)" fill-rule="evenodd" d="M399.3,660.4l-.9,4h-.3v-1c-.1,-.4,-.1,-.7,-.2,-1c-.2,-.3,-.3,-.5,-.5,-.7c-.2,-.2,-.5,-.4,-.9,-.5c-.3,-.1,-.6,-.2,-1.1,-.2c-1,0,-2,.3,-2.8,.9c-1,.8,-1.8,1.8,-2.4,3.2c-.5,1.1,-.7,2.3,-.7,3.4c0,1.2,.3,2.2,1,2.9c.7,.7,1.6,1,2.7,1c.9,0,1.6,-.2,2.3,-.5c.6,-.4,1.2,-1,1.8,-1.8h.4c-.7,1.1,-1.4,1.9,-2.2,2.4c-.8,.5,-1.8,.7,-2.9,.7c-1,0,-1.9,-.2,-2.7,-.6c-.7,-.4,-1.3,-1,-1.7,-1.8c-.4,-.7,-.6,-1.6,-.6,-2.4c0,-1.4,.3,-2.7,1.1,-3.9c.7,-1.3,1.7,-2.3,2.9,-3c1.3,-.7,2.5,-1.1,3.8,-1.1c.6,0,1.2,.2,2,.4c.3,.2,.5,.2,.7,.2c.1,0,.3,0,.4,-.1c.1,0,.2,-.2,.5,-.5Z" class="g2_84"/>
<path fill-rule="evenodd" d="M361.9,743.6l-.5,1.5h-4.8v-.2c1.4,-1.3,2.4,-2.3,2.9,-3.1c.6,-.9,.9,-1.6,.9,-2.3c0,-.5,-.2,-.9,-.5,-1.3c-.3,-.3,-.7,-.5,-1.1,-.5c-.4,0,-.8,.2,-1.1,.4c-.3,.2,-.5,.6,-.7,1h-.2c.1,-.7,.3,-1.3,.8,-1.7c.4,-.4,.9,-.6,1.5,-.6c.7,0,1.2,.2,1.7,.7c.4,.4,.6,.9,.6,1.5c0,.4,-.1,.8,-.3,1.2c-.2,.6,-.7,1.3,-1.4,2.1c-1,1,-1.6,1.7,-1.9,1.9H360c.4,0,.7,0,.9,0c.1,0,.3,-.1,.4,-.2c.2,-.1,.3,-.3,.4,-.4Z" class="g2_84"/>
<path fill-rule="evenodd" d="M302.9,818.4l-.6,1.6h-4.8v-.3c1.4,-1.3,2.4,-2.3,3,-3.1c.6,-.8,.8,-1.6,.8,-2.3c0,-.5,-.1,-.9,-.4,-1.2c-.4,-.4,-.7,-.5,-1.2,-.5c-.4,0,-.7,.1,-1.1,.3c-.3,.2,-.5,.6,-.7,1h-.2c.1,-.7,.4,-1.3,.8,-1.7c.4,-.4,.9,-.6,1.5,-.6c.7,0,1.3,.2,1.7,.7c.4,.4,.7,.9,.7,1.5c0,.4,-.1,.8,-.3,1.2c-.3,.7,-.8,1.3,-1.5,2.1c-1,1.1,-1.6,1.7,-1.8,1.9h2.1c.4,0,.7,0,.9,0c.2,0,.3,-.1,.5,-.2c.1,-.1,.2,-.2,.3,-.4Z" class="g2_84"/>
<path fill-rule="evenodd" d="M218.2,692.5l-1.8,6.2c.6,-.6,1.1,-1,1.5,-1.2c.5,-.3,.9,-.4,1.4,-.4c.6,0,1.2,.2,1.6,.7c.4,.4,.6,1,.6,1.8c0,.9,-.2,1.9,-.8,2.9c-.6,.9,-1.2,1.7,-2.1,2.2c-.8,.5,-1.6,.8,-2.5,.8c-.9,0,-1.8,-.3,-2.7,-1l2.7,-9.5c.2,-.7,.3,-1.1,.3,-1.2c0,-.2,0,-.3,-.1,-.4c-.2,-.1,-.4,-.1,-.6,-.1c-.2,0,-.4,0,-.6,0V693Zm-3.5,12.1c.6,.3,1.1,.5,1.6,.5c.5,0,1.1,-.2,1.6,-.6c.6,-.4,1.1,-1,1.5,-2c.4,-.9,.6,-1.8,.6,-2.7c0,-.6,-.1,-1,-.4,-1.3c-.2,-.4,-.6,-.5,-.9,-.5c-.6,0,-1.1,.2,-1.7,.7c-.5,.4,-.9,1,-1.1,1.8Z" class="g2_84"/>
<path fill-rule="evenodd" d="M374.1,699.9l-1.8,6.3c.6,-.6,1.1,-1.1,1.5,-1.3c.4,-.2,.9,-.3,1.4,-.3c.6,0,1.2,.2,1.6,.6c.4,.5,.6,1.1,.6,1.8c0,1,-.3,2,-.8,2.9c-.6,1,-1.3,1.7,-2.1,2.3c-.8,.5,-1.7,.8,-2.5,.8c-.9,0,-1.8,-.4,-2.8,-1.1l2.8,-9.4c.2,-.7,.3,-1.2,.3,-1.3c0,-.1,-.1,-.3,-.1,-.3c-.2,-.1,-.4,-.2,-.7,-.2c-.1,0,-.3,0,-.5,.1v-.4ZM370.6,712c.6,.4,1.1,.5,1.6,.5c.5,0,1.1,-.2,1.6,-.5c.6,-.4,1.1,-1.1,1.5,-2c.4,-.9,.6,-1.9,.6,-2.8c0,-.5,-.1,-1,-.4,-1.3c-.3,-.3,-.6,-.5,-1,-.5c-.5,0,-1.1,.3,-1.6,.7c-.5,.5,-.9,1.1,-1.1,1.9Z" class="g2_84"/>
<path d="M335,736.3l-50.8,68.1" class="g8_84"/>
<path d="M204.3,740l82.8,61.9M252.6,674.2L335.4,736" class="g9_84"/>
<path fill-rule="evenodd" d="M312.4,291.2H249.6V199.8Zm-18.3,-8.7H259.7V232.9Z" class="ga_84"/>
<path d="M249.5,226.7H377.4l-48,65h-128l48.1,-65Z" class="gb_84"/>
<path d="M328.7,291.6h66.7" class="gc_84"/>
<path d="M249.7,226.2v65.7M378.1,226.2v65.7" class="gd_84"/>
<path fill-rule="evenodd" d="M259.7,252.4l-2.6,8.7c1.1,-1.6,2,-2.7,2.6,-3.2c.6,-.6,1.2,-.8,1.7,-.8c.3,0,.6,.1,.7,.3c.2,.2,.3,.4,.3,.8c0,.3,0,.8,-.2,1.4l-1.1,3.7c-.1,.5,-.2,.7,-.2,.8q0,.1,.1,.2c0,0,.1,.1,.1,.1c.1,0,.2,-.1,.3,-.1c.3,-.3,.7,-.7,1,-1.1l.3,.1c-.2,.4,-.5,.7,-.8,1.1c-.4,.4,-.7,.6,-1,.8c-.2,.1,-.5,.2,-.7,.2c-.2,0,-.4,-.1,-.5,-.2c-.2,-.2,-.2,-.3,-.2,-.6c0,-.2,.1,-.7,.3,-1.4l1,-3.6c.1,-.5,.2,-.8,.2,-1.1c0,-.1,0,-.2,-.1,-.3c-.1,0,-.2,-.1,-.3,-.1c-.2,0,-.4,.1,-.6,.2c-.4,.3,-.9,.7,-1.4,1.4c-.1,.2,-.6,1,-1.4,2.3c-.3,.4,-.5,.8,-.6,1.3l-.6,1.9h-1.4l3,-10.3l.3,-1.1c0,-.1,-.1,-.3,-.2,-.4c-.1,-.1,-.3,-.2,-.5,-.2c-.1,0,-.2,0,-.4,.1h-.2V253Z" class="g2_84"/>
<path fill-rule="evenodd" d="M391.5,250.4l-2.6,8.7c1.1,-1.6,2,-2.7,2.6,-3.2c.6,-.6,1.2,-.8,1.7,-.8c.3,0,.6,0,.7,.2c.2,.2,.3,.5,.3,.8c0,.4,0,.9,-.2,1.5l-1.1,3.7c-.1,.5,-.2,.7,-.2,.8q0,.1,.1,.2c0,0,.1,.1,.1,.1c.1,0,.2,-.1,.3,-.2c.3,-.2,.7,-.6,1,-1.1l.3,.2c-.2,.3,-.5,.7,-.9,1.1c-.3,.3,-.6,.6,-.9,.7c-.2,.2,-.5,.3,-.7,.3c-.2,0,-.4,-.1,-.5,-.2c-.2,-.2,-.2,-.4,-.2,-.6c0,-.2,.1,-.7,.3,-1.5l1,-3.5c.1,-.5,.2,-.8,.2,-1.1c0,-.1,0,-.2,-.1,-.3c-.1,0,-.2,-.1,-.3,-.1c-.2,0,-.4,.1,-.6,.2c-.4,.3,-.9,.7,-1.4,1.4c-.1,.2,-.6,.9,-1.4,2.2c-.3,.5,-.5,.9,-.6,1.4l-.6,1.9h-1.4l3,-10.3l.3,-1.1c0,-.2,-.1,-.3,-.2,-.4c-.1,-.1,-.3,-.2,-.5,-.2c-.1,0,-.2,0,-.4,.1h-.2v-.4Z" class="g2_84"/>
<path fill-rule="evenodd" d="M270.7,263.3l-1.2,4l-.1,.6c0,0,0,.1,0,.1q0,.1,0,.2c0,0,.1,0,.1,0c.1,0,.2,0,.2,-.1c.2,-.1,.4,-.3,.7,-.7l.2,.2c-.3,.4,-.6,.7,-.9,.9c-.3,.2,-.5,.3,-.8,.3c-.2,0,-.3,0,-.4,-.1c-.1,-.1,-.1,-.2,-.1,-.4c0,-.2,0,-.4,.1,-.7l.2,-.5c-.6,.7,-1,1.2,-1.5,1.4c-.3,.2,-.6,.3,-.9,.3c-.3,0,-.6,-.1,-.8,-.3c-.2,-.3,-.3,-.6,-.3,-1c0,-.7,.2,-1.3,.6,-2c.4,-.7,.9,-1.3,1.4,-1.7c.5,-.3,.9,-.5,1.3,-.5c.3,0,.5,0,.6,.2c.2,.1,.3,.3,.4,.6l.2,-.7Zm-2.2,.3c-.2,0,-.5,.1,-.8,.4c-.4,.3,-.7,.8,-1.1,1.5c-.3,.6,-.4,1.2,-.4,1.8c0,.2,0,.4,.2,.6c.1,.2,.3,.2,.4,.2c.5,0,.9,-.3,1.5,-.9c.6,-.9,1,-1.7,1,-2.6c0,-.4,-.1,-.6,-.2,-.8c-.1,-.1,-.3,-.2,-.6,-.2Z" class="g2_84"/>
<path fill-rule="evenodd" d="M402.5,261.3l-1.2,4l-.1,.6v.1q0,.1,0,.2c0,0,.1,0,.1,0c.1,0,.2,0,.2,-.1c.2,-.1,.4,-.3,.7,-.7l.2,.1c-.3,.5,-.6,.8,-.9,1c-.3,.2,-.5,.3,-.8,.3c-.2,0,-.3,0,-.4,-.1c-.1,-.1,-.1,-.2,-.1,-.4c0,-.2,0,-.4,.1,-.8l.2,-.4c-.6,.7,-1.1,1.1,-1.5,1.4c-.3,.2,-.6,.3,-.9,.3c-.3,0,-.6,-.1,-.8,-.4c-.2,-.2,-.3,-.5,-.3,-.9c0,-.7,.2,-1.3,.6,-2c.4,-.7,.9,-1.3,1.4,-1.7c.5,-.4,.9,-.5,1.3,-.5c.3,0,.5,0,.6,.2c.2,.1,.3,.3,.4,.6l.2,-.7Zm-2.2,.3c-.2,0,-.5,.1,-.8,.3c-.4,.4,-.7,.9,-1.1,1.5c-.3,.7,-.4,1.3,-.4,1.8c0,.3,0,.5,.2,.7c.1,.1,.3,.2,.4,.2c.5,0,.9,-.3,1.5,-.9c.6,-.9,1,-1.8,1,-2.7c0,-.3,-.1,-.5,-.2,-.7c-.2,-.1,-.3,-.2,-.6,-.2Z" class="g2_84"/>
<path d="M259.9,291.4c-.8,-6.8,-4.4,-8.8,-10.4,-7.9m138.7,7.9c-.8,-6.8,-4.4,-8.8,-10.4,-7.9" class="ge_84"/>
<path fill-rule="evenodd" d="M254.5,288c-.3,-.4,-.9,-.5,-1.3,-.2c-.4,.3,-.5,.9,-.2,1.3c.3,.4,.9,.5,1.3,.2c.4,-.3,.5,-.9,.2,-1.3Z" class="g2_84"/>
<path fill-rule="evenodd" d="M382.8,288c-.3,-.4,-.9,-.5,-1.3,-.2c-.4,.3,-.5,.9,-.2,1.3c.3,.4,.9,.5,1.3,.2c.4,-.3,.5,-.9,.2,-1.3Z" class="g2_84"/>
<path fill-rule="evenodd" d="M247,296.7l.1,-.4H251c1.6,0,2.8,.2,3.6,.6c.8,.4,1.5,1,1.9,1.8c.5,.8,.7,1.6,.7,2.6c0,.8,-.1,1.5,-.4,2.3c-.2,.7,-.6,1.3,-.9,1.8c-.3,.4,-.9,.9,-1.6,1.5c-.7,.5,-1.5,.9,-2.3,1.2c-.8,.2,-1.9,.4,-3.1,.4h-5.1l.1,-.4c.5,0,.8,0,.9,-.1c.3,-.1,.4,-.2,.6,-.4c.1,-.3,.3,-.8,.5,-1.5l2.2,-7.4c.2,-.5,.2,-1,.2,-1.3c0,-.3,0,-.4,-.2,-.6c-.1,-.1,-.5,-.1,-.9,-.1Zm3.2,.3l-2.7,9.1c-.2,.7,-.3,1.1,-.3,1.2c0,.1,.1,.2,.1,.3c.1,.1,.2,.2,.3,.2c.2,0,.4,.1,.7,.1c1,0,1.9,-.1,2.7,-.3c.8,-.2,1.4,-.5,1.9,-.9c.8,-.5,1.3,-1.3,1.8,-2.3c.4,-.9,.6,-2.1,.6,-3.3c0,-1.4,-.3,-2.4,-1,-3.1c-.6,-.7,-1.6,-1,-2.9,-1c-.3,0,-.7,0,-1.2,0Z" class="g2_84"/>
<path fill-rule="evenodd" d="M235.6,216.1l.1,-.4h3.8c1.7,0,2.9,.2,3.7,.6c.8,.4,1.4,1,1.9,1.8c.5,.8,.7,1.6,.7,2.6c0,.8,-.1,1.5,-.4,2.3c-.3,.7,-.6,1.3,-.9,1.8c-.4,.4,-.9,.9,-1.6,1.5c-.7,.5,-1.5,.9,-2.3,1.2c-.9,.2,-1.9,.4,-3.1,.4h-5.2l.1,-.4c.5,0,.8,0,1,-.1c.2,-.1,.4,-.2,.5,-.4c.2,-.2,.4,-.8,.6,-1.5l2.1,-7.4c.2,-.5,.3,-1,.3,-1.3c0,-.2,-.1,-.4,-.2,-.5c-.2,-.2,-.5,-.2,-.9,-.2Zm3.1,.3l-2.6,9.1c-.2,.7,-.3,1.1,-.3,1.3c0,0,0,.1,.1,.2c.1,.1,.2,.2,.3,.2c.1,.1,.4,.1,.7,.1c.9,0,1.8,-.1,2.6,-.3c.8,-.2,1.5,-.5,2,-.9c.7,-.5,1.3,-1.3,1.7,-2.3c.5,-.9,.7,-2,.7,-3.3c0,-1.4,-.3,-2.4,-1,-3.1c-.7,-.7,-1.7,-1,-2.9,-1c-.4,0,-.8,0,-1.3,0Z" class="g2_84"/>
<path fill-rule="evenodd" d="M194.9,294.7l-.9,10.1c0,.5,-.1,.8,-.1,.9c0,.3,.1,.4,.2,.6c.1,.1,.2,.3,.4,.4c.2,0,.5,.1,1,.1l-.1,.3h-4.8l.1,-.3h.2c.4,0,.7,-.1,1,-.3c.2,-.1,.3,-.3,.4,-.5c0,-.2,.1,-.7,.2,-1.3l.1,-1.6h-3.5l-1.2,1.7c-.3,.4,-.5,.6,-.5,.8c-.1,.2,-.1,.3,-.1,.5c0,.2,0,.3,.2,.5c.2,.1,.4,.2,.8,.2l-.1,.3h-3.6l.1,-.3c.4,0,.8,-.2,1.2,-.5c.3,-.2,.8,-.8,1.5,-1.7l7.2,-9.9Zm-1.7,3l-3.6,4.8h3.1Z" class="g2_84"/>
<path fill-rule="evenodd" d="M327,297.3l.1,-.3h4.4c.7,0,1.3,.1,1.9,.3c.6,.3,1,.6,1.3,1c.3,.4,.4,.8,.4,1.3c0,.7,-.2,1.3,-.7,1.9c-.5,.5,-1.4,.9,-2.5,1.2c.7,.3,1.3,.6,1.6,1.1c.4,.5,.5,1,.5,1.5c0,.6,-.1,1.2,-.4,1.7c-.3,.6,-.7,1,-1.2,1.3c-.5,.3,-1.1,.5,-1.8,.7c-.5,.1,-1.2,.1,-2.3,.1h-4.4l.1,-.3c.5,0,.8,-.1,.9,-.1c.3,-.1,.5,-.3,.6,-.4c.1,-.3,.3,-.8,.5,-1.6l2.2,-7.3c.2,-.7,.3,-1.1,.3,-1.4c0,-.2,-.1,-.3,-.3,-.5c-.1,-.1,-.4,-.2,-.9,-.2c-.1,0,-.2,0,-.3,0m1.8,5.1c.4,0,.7,0,.9,0c1.2,0,2.1,-.3,2.7,-.8c.7,-.6,1,-1.2,1,-2.1c0,-.6,-.2,-1.1,-.6,-1.4c-.4,-.3,-1,-.5,-1.8,-.5c-.2,0,-.5,0,-.8,.1Zm-1.7,5.9c.6,.1,1.1,.2,1.5,.2c.9,0,1.7,-.3,2.5,-.9c.7,-.5,1,-1.3,1,-2.3c0,-.7,-.2,-1.3,-.6,-1.7c-.5,-.4,-1.2,-.6,-2.2,-.6c-.2,0,-.4,0,-.7,0Z" class="g2_84"/>
<path fill-rule="evenodd" d="M386.3,297.4l-.9,3.9h-.3v-1c-.1,-.3,-.1,-.6,-.3,-.9c-.1,-.3,-.2,-.5,-.4,-.8c-.2,-.2,-.5,-.3,-.9,-.4c-.3,-.2,-.6,-.2,-1,-.2c-1.1,0,-2,.3,-2.8,.9c-1.1,.7,-1.9,1.8,-2.4,3.1c-.5,1.1,-.8,2.3,-.8,3.4c0,1.2,.4,2.1,1.1,2.9c.7,.7,1.5,1,2.6,1c.9,0,1.6,-.2,2.3,-.6c.6,-.3,1.2,-.9,1.8,-1.7h.4c-.7,1.1,-1.4,1.8,-2.2,2.3c-.8,.5,-1.8,.8,-2.9,.8c-1,0,-1.8,-.2,-2.6,-.6c-.8,-.5,-1.3,-1,-1.7,-1.8c-.4,-.7,-.6,-1.6,-.6,-2.4c0,-1.3,.3,-2.6,1,-3.9c.7,-1.2,1.7,-2.2,2.9,-2.9c1.3,-.8,2.5,-1.1,3.8,-1.1c.6,0,1.2,.1,2,.4c.3,.1,.5,.2,.7,.2c.1,0,.2,0,.4,-.1c.1,-.1,.2,-.2,.5,-.5Z" class="g2_84"/>
<path fill-rule="evenodd" d="M394.4,213.4l-.9,4h-.3l-.1,-1c0,-.4,-.1,-.7,-.2,-1c-.1,-.3,-.2,-.5,-.5,-.7c-.2,-.2,-.4,-.4,-.8,-.5c-.3,-.1,-.7,-.2,-1.1,-.2c-1,0,-2,.3,-2.8,.9c-1,.8,-1.8,1.8,-2.4,3.2c-.4,1.1,-.7,2.2,-.7,3.4c0,1.2,.4,2.1,1,2.8c.7,.7,1.6,1.1,2.7,1.1c.9,0,1.6,-.2,2.2,-.6c.7,-.4,1.3,-.9,1.8,-1.7h.5c-.7,1,-1.4,1.8,-2.2,2.3c-.8,.5,-1.8,.7,-2.9,.7c-1,0,-1.9,-.2,-2.6,-.6c-.8,-.4,-1.4,-1,-1.8,-1.7c-.4,-.8,-.6,-1.6,-.6,-2.5c0,-1.3,.4,-2.6,1.1,-3.8c.7,-1.3,1.7,-2.3,2.9,-3c1.3,-.7,2.5,-1.1,3.8,-1.1c.6,0,1.2,.2,2,.5c.3,.1,.5,.1,.6,.1c.2,0,.3,0,.4,-.1c.1,0,.3,-.2,.6,-.5Z" class="g2_84"/>
<path fill-rule="evenodd" d="M259.7,304.7l2,-1h.2v6.8c0,.5,0,.8,0,.9c.1,.1,.1,.2,.2,.3c.2,0,.4,0,.8,.1v.2h-3.1v-.2c.4,-.1,.7,-.1,.8,-.1c.1,-.1,.2,-.2,.2,-.3c0,-.1,.1,-.4,.1,-.9v-4.3c0,-.6,0,-1,-.1,-1.2c0,-.1,-.1,-.2,-.1,-.2c-.1,-.1,-.2,-.1,-.3,-.1c-.2,0,-.4,0,-.6,.2Z" class="g2_84"/>
<path fill-rule="evenodd" d="M388.8,306l2,-.9h.2v6.8c0,.4,0,.7,0,.8c.1,.1,.1,.2,.3,.3c.1,.1,.3,.1,.7,.1v.2h-3.1v-.2c.4,0,.7,0,.8,-.1c.1,-.1,.2,-.1,.2,-.2c.1,-.1,.1,-.4,.1,-.9v-4.4c0,-.6,0,-.9,-.1,-1.1c0,-.1,-.1,-.2,-.1,-.3c-.1,-.1,-.2,-.1,-.3,-.1c-.1,0,-.4,.1,-.6,.2Z" class="g2_84"/>
<path fill-rule="evenodd" d="M320.7,214.1l-1.7,6.1l-.2,.8q0,.1,0,.2c0,.1,0,.2,0,.2c.1,.1,.2,.1,.2,.1c.1,0,.2,0,.3,-.1c.3,-.2,.6,-.5,1,-1.1l.3,.2c-.4,.6,-.9,1.1,-1.3,1.4c-.4,.4,-.8,.5,-1.2,.5c-.3,0,-.5,0,-.6,-.2c-.1,-.1,-.2,-.3,-.2,-.5c0,-.3,.1,-.7,.2,-1.2l.2,-.6c-.8,1,-1.5,1.7,-2.2,2.1c-.4,.3,-.9,.4,-1.3,.4c-.5,0,-.9,-.2,-1.2,-.5c-.3,-.4,-.4,-.9,-.4,-1.5c0,-.9,.2,-2,.8,-3c.6,-1.1,1.3,-1.9,2.2,-2.5c.7,-.5,1.3,-.8,1.9,-.8c.4,0,.7,.1,.9,.3c.3,.2,.5,.5,.6,.9l.3,-1Zm-3.2,.5c-.3,0,-.7,.2,-1.2,.5c-.6,.5,-1.1,1.3,-1.6,2.3c-.5,1,-.7,1.9,-.7,2.7c0,.4,.1,.7,.3,.9c.2,.3,.4,.4,.7,.4c.6,0,1.3,-.5,2.1,-1.4c1,-1.3,1.5,-2.6,1.5,-4c0,-.5,-.1,-.9,-.3,-1.1c-.2,-.2,-.4,-.3,-.8,-.3Z" class="g2_84"/>
<path fill-rule="evenodd" d="M292.8,301.3l-1.7,6.1l-.2,.8c0,0,0,.1,0,.2q0,.1,.1,.2c0,.1,.1,.1,.1,.1c.1,0,.2,-.1,.3,-.1c.3,-.2,.6,-.6,1,-1.1l.3,.2c-.4,.6,-.9,1.1,-1.3,1.4c-.4,.3,-.8,.5,-1.2,.5c-.3,0,-.4,-.1,-.6,-.2c-.1,-.1,-.2,-.3,-.2,-.6c0,-.2,.1,-.6,.2,-1.1l.2,-.7c-.8,1,-1.5,1.8,-2.1,2.2c-.5,.3,-1,.4,-1.4,.4c-.5,0,-.8,-.2,-1.2,-.5c-.3,-.4,-.4,-.9,-.4,-1.5c0,-1,.3,-2,.8,-3c.6,-1.1,1.3,-1.9,2.2,-2.6c.7,-.5,1.3,-.7,1.9,-.7c.4,0,.7,.1,.9,.3c.3,.2,.5,.5,.6,.9l.3,-1Zm-3.1,.4c-.4,0,-.8,.2,-1.3,.6c-.6,.5,-1.1,1.2,-1.6,2.2c-.5,1,-.7,1.9,-.7,2.7c0,.5,.1,.8,.3,1c.2,.2,.4,.4,.7,.4c.7,0,1.4,-.5,2.1,-1.5c1,-1.3,1.6,-2.6,1.6,-3.9c0,-.5,-.1,-.9,-.3,-1.1c-.2,-.2,-.5,-.4,-.8,-.4Z" class="g2_84"/>
<path d="M255.2,376.8H383.1l-48,65h-128l48.1,-65Z" class="gb_84"/>
<path d="M256.5,376.6H189.8" class="gc_84"/>
<path d="M335.6,441.9V376.3M207.2,441.9V376.3" class="gd_84"/>
<path fill-rule="evenodd" d="M190.9,399.7l-2.5,8.7c1.1,-1.6,1.9,-2.7,2.5,-3.3c.6,-.5,1.2,-.8,1.8,-.8c.3,0,.5,.1,.7,.3c.2,.2,.3,.5,.3,.8c0,.4,-.1,.9,-.3,1.5l-1.1,3.7c-.1,.5,-.2,.7,-.2,.8c0,0,.1,.1,.1,.2q.1,0,.2,0q.1,0,.2,-.1c.4,-.2,.7,-.6,1.1,-1.1l.2,.2c-.2,.3,-.5,.7,-.8,1c-.4,.4,-.7,.7,-.9,.8c-.3,.2,-.5,.2,-.7,.2c-.3,0,-.4,0,-.6,-.2c-.1,-.1,-.2,-.3,-.2,-.5c0,-.3,.1,-.8,.3,-1.5l1.1,-3.5c.1,-.5,.2,-.9,.2,-1.1c0,-.1,-.1,-.2,-.2,-.3c0,-.1,-.1,-.1,-.3,-.1c-.1,0,-.3,.1,-.5,.2c-.4,.2,-.9,.7,-1.4,1.4c-.2,.2,-.7,.9,-1.5,2.2c-.2,.4,-.4,.9,-.6,1.4l-.6,1.8h-1.3l2.9,-10.2l.3,-1.1c0,-.2,0,-.3,-.1,-.4c-.2,-.1,-.3,-.2,-.5,-.2c-.1,0,-.3,0,-.5,0l-.2,.1v-.4Z" class="g2_84"/>
<path fill-rule="evenodd" d="M322.9,401.1l-2.5,8.6c1.1,-1.6,1.9,-2.7,2.5,-3.2c.7,-.5,1.2,-.8,1.8,-.8c.3,0,.5,.1,.7,.3c.2,.2,.3,.4,.3,.8c0,.4,-.1,.8,-.3,1.4l-1,3.7c-.2,.5,-.3,.8,-.3,.8c0,.1,.1,.1,.1,.2q.1,.1,.2,.1c.1,0,.2,-.1,.3,-.1c.3,-.3,.6,-.7,1,-1.1l.3,.1c-.2,.4,-.5,.7,-.9,1.1c-.4,.4,-.7,.6,-.9,.8c-.3,.1,-.5,.2,-.7,.2c-.2,0,-.4,-.1,-.6,-.2c-.1,-.2,-.2,-.3,-.2,-.6c0,-.2,.1,-.7,.3,-1.4l1.1,-3.6c.1,-.5,.2,-.8,.2,-1.1c0,-.1,-.1,-.2,-.1,-.2c-.1,-.1,-.2,-.2,-.3,-.2c-.2,0,-.4,.1,-.6,.2c-.4,.3,-.9,.8,-1.4,1.4c-.2,.2,-.6,1,-1.5,2.3c-.2,.4,-.4,.9,-.6,1.3l-.5,1.9h-1.4l3,-10.3l.3,-1.1c0,-.1,-.1,-.3,-.2,-.4c-.2,-.1,-.3,-.2,-.5,-.2c-.1,0,-.3,.1,-.5,.1h-.2v-.3Z" class="g2_84"/>
<path fill-rule="evenodd" d="M201.9,410.6l-1.2,4l-.1,.5q0,.1,0,.2c0,0,0,.1,.1,.1q0,.1,.1,.1c0,0,.1,0,.2,-.1c.1,-.1,.3,-.4,.6,-.7l.2,.1c-.3,.4,-.6,.8,-.8,1c-.3,.2,-.6,.3,-.9,.3c-.1,0,-.3,0,-.3,-.1c-.1,-.1,-.2,-.2,-.2,-.4c0,-.2,.1,-.5,.2,-.8l.1,-.4c-.5,.7,-1,1.1,-1.4,1.4c-.4,.2,-.7,.3,-1,.3c-.3,0,-.5,-.1,-.7,-.4c-.2,-.2,-.3,-.5,-.3,-1c0,-.6,.2,-1.3,.5,-2c.4,-.7,.9,-1.2,1.5,-1.6c.4,-.4,.9,-.5,1.3,-.5c.2,0,.4,0,.6,.1c.1,.2,.3,.4,.3,.7l.3,-.7Zm-2.1,.3c-.3,0,-.5,.1,-.8,.3c-.4,.4,-.8,.9,-1.1,1.5c-.3,.7,-.5,1.3,-.5,1.8c0,.3,.1,.5,.2,.7c.2,.1,.3,.2,.5,.2c.4,0,.9,-.3,1.4,-1c.7,-.8,1,-1.7,1,-2.6c0,-.3,0,-.6,-.2,-.7c-.1,-.2,-.3,-.2,-.5,-.2Z" class="g2_84"/>
<path fill-rule="evenodd" d="M333.9,411.9l-1.1,4l-.2,.6c0,0,0,.1,0,.1q0,.1,.1,.2h.1c0,0,.1,0,.2,-.1c.2,-.1,.4,-.3,.6,-.7l.2,.2c-.3,.4,-.5,.7,-.8,.9c-.3,.2,-.6,.3,-.8,.3c-.2,0,-.3,0,-.4,-.1c-.1,-.1,-.1,-.2,-.1,-.4c0,-.2,0,-.4,.1,-.7l.1,-.5c-.5,.7,-1,1.2,-1.4,1.4c-.3,.2,-.6,.3,-1,.3c-.2,0,-.5,-.1,-.7,-.3c-.2,-.3,-.3,-.6,-.3,-1c0,-.6,.2,-1.3,.6,-2c.3,-.7,.8,-1.3,1.4,-1.7c.5,-.3,.9,-.5,1.3,-.5c.2,0,.4,.1,.6,.2c.2,.1,.3,.3,.4,.6l.2,-.7Zm-2.1,.3c-.2,0,-.5,.1,-.8,.4c-.4,.3,-.8,.8,-1.1,1.5c-.3,.6,-.5,1.2,-.5,1.8c0,.2,.1,.5,.2,.6c.2,.2,.3,.2,.5,.2c.4,0,.9,-.3,1.4,-.9c.7,-.9,1,-1.7,1,-2.6c0,-.4,0,-.6,-.2,-.8c-.1,-.1,-.3,-.2,-.5,-.2Z" class="g2_84"/>
<path d="M325.3,376.8c.8,6.8,4.4,8.8,10.4,7.8M197,376.8c.8,6.8,4.4,8.8,10.4,7.8" class="ge_84"/>
<path fill-rule="evenodd" d="M330.7,380.2c.3,.4,.9,.5,1.3,.2c.5,-.3,.5,-.9,.2,-1.3c-.3,-.5,-.8,-.6,-1.3,-.3c-.4,.3,-.5,.9,-.2,1.4Z" class="g2_84"/>
<path fill-rule="evenodd" d="M202.4,380.2c.3,.4,.9,.5,1.3,.2c.5,-.3,.6,-.9,.3,-1.3c-.3,-.5,-.9,-.6,-1.4,-.3c-.4,.3,-.5,.9,-.2,1.4Z" class="g2_84"/>
<path fill-rule="evenodd" d="M213.5,358.8l-.9,10.1c-.1,.4,-.1,.7,-.1,.9c0,.2,0,.4,.1,.5c.1,.2,.3,.3,.5,.4c.2,.1,.5,.1,1,.1l-.1,.4h-4.8l.1,-.4h.2c.4,0,.7,0,.9,-.2c.2,-.1,.3,-.3,.4,-.6c.1,-.2,.2,-.6,.2,-1.3l.2,-1.5h-3.5l-1.2,1.7c-.3,.3,-.5,.6,-.6,.8c0,.1,-.1,.3,-.1,.4c0,.2,.1,.4,.3,.5c.1,.2,.4,.2,.7,.2l-.1,.4h-3.6l.1,-.4c.5,0,.9,-.1,1.2,-.4c.3,-.3,.8,-.9,1.5,-1.8l7.3,-9.8Zm-1.8,2.9l-3.5,4.8h3Z" class="g2_84"/>
<path fill-rule="evenodd" d="M256.7,360.6l.1,-.3h3.8c1.7,0,2.9,.2,3.7,.6c.8,.3,1.4,.9,1.9,1.7c.5,.9,.7,1.7,.7,2.6c0,.8,-.1,1.6,-.4,2.4c-.3,.7,-.6,1.3,-.9,1.8c-.4,.4,-.9,.9,-1.6,1.5c-.7,.5,-1.5,.9,-2.3,1.2c-.9,.2,-1.9,.3,-3.1,.3h-5.2l.1,-.3c.5,0,.8,0,1,-.1c.2,-.1,.4,-.3,.5,-.4c.2,-.3,.4,-.8,.6,-1.5l2.1,-7.4c.2,-.6,.3,-1,.3,-1.3c0,-.3,-.1,-.5,-.2,-.6c-.2,-.1,-.5,-.2,-.9,-.2Zm3.1,.4l-2.6,9.1c-.2,.6,-.3,1.1,-.3,1.2c0,.1,0,.2,.1,.3q.1,.1,.3,.2c.1,0,.4,.1,.7,.1c.9,0,1.8,-.1,2.6,-.3c.8,-.2,1.5,-.5,2,-.9c.7,-.5,1.3,-1.3,1.7,-2.3c.5,-1,.7,-2.1,.7,-3.3c0,-1.4,-.3,-2.5,-1,-3.1c-.7,-.7,-1.7,-1.1,-2.9,-1.1c-.4,0,-.8,.1,-1.3,.1Z" class="g2_84"/>
<path fill-rule="evenodd" d="M201.9,444l-.9,10.1c-.1,.4,-.1,.8,-.1,.9c0,.2,0,.4,.1,.6c.1,.1,.3,.3,.5,.3c.2,.1,.5,.2,1,.2l-.1,.3h-4.8l.1,-.3h.2c.4,0,.7,-.1,.9,-.3c.2,-.1,.4,-.3,.4,-.6c.1,-.1,.2,-.6,.2,-1.3l.2,-1.5h-3.5l-1.2,1.7c-.3,.4,-.5,.6,-.6,.8c0,.1,-.1,.3,-.1,.4c0,.2,.1,.4,.3,.5c.1,.2,.4,.3,.7,.3l-.1,.3h-3.6l.1,-.3c.5,-.1,.9,-.2,1.2,-.5c.4,-.3,.9,-.8,1.5,-1.8l7.3,-9.8Zm-1.8,3l-3.5,4.7h3Z" class="g2_84"/>
<path fill-rule="evenodd" d="M341.4,443.9l.1,-.3h4.3c.8,0,1.4,.1,2,.3c.6,.2,1,.6,1.3,1c.3,.4,.4,.8,.4,1.3c0,.7,-.3,1.3,-.8,1.9c-.5,.5,-1.3,.9,-2.4,1.2c.7,.3,1.2,.6,1.6,1.1c.3,.4,.5,.9,.5,1.5c0,.6,-.1,1.2,-.5,1.7c-.3,.6,-.7,1,-1.1,1.3c-.5,.3,-1.1,.5,-1.8,.7c-.5,.1,-1.3,.1,-2.3,.1h-4.4l.1,-.3c.4,0,.7,-.1,.9,-.1c.3,-.1,.4,-.3,.5,-.4c.2,-.3,.4,-.8,.6,-1.6l2.2,-7.4c.2,-.6,.3,-1,.3,-1.3c0,-.2,-.1,-.4,-.3,-.5c-.2,-.1,-.5,-.2,-.9,-.2c-.1,0,-.2,0,-.3,0m1.8,5.1c.4,0,.7,0,.8,0c1.3,0,2.2,-.3,2.8,-.8c.6,-.6,.9,-1.3,.9,-2.1c0,-.6,-.2,-1.1,-.5,-1.4c-.4,-.3,-1,-.5,-1.8,-.5c-.2,0,-.5,0,-.8,.1Zm-1.8,5.9c.7,.1,1.2,.2,1.5,.2c1,0,1.8,-.3,2.5,-.9c.7,-.5,1.1,-1.3,1.1,-2.3c0,-.7,-.2,-1.3,-.7,-1.7c-.4,-.4,-1.1,-.6,-2.1,-.6c-.2,0,-.4,0,-.7,0Z" class="g2_84"/>
<path fill-rule="evenodd" d="M337,357.2l.2,-.3h4.3c.7,0,1.4,.1,2,.3c.5,.2,.9,.5,1.2,1c.3,.4,.5,.8,.5,1.2c0,.7,-.3,1.4,-.8,1.9c-.5,.6,-1.3,1,-2.5,1.3c.8,.3,1.3,.6,1.7,1.1c.3,.4,.5,.9,.5,1.5c0,.6,-.2,1.2,-.5,1.7c-.3,.5,-.7,1,-1.2,1.3c-.5,.3,-1.1,.5,-1.7,.7c-.5,.1,-1.3,.1,-2.3,.1h-4.5l.1,-.3c.5,0,.8,-.1,1,-.2c.2,-.1,.4,-.2,.5,-.4c.1,-.2,.3,-.7,.6,-1.5l2.1,-7.4c.2,-.6,.3,-1,.3,-1.3c0,-.2,-.1,-.4,-.2,-.5c-.2,-.1,-.5,-.2,-1,-.2c-.1,0,-.2,0,-.3,0m1.9,5c.4,0,.6,.1,.8,.1c1.2,0,2.2,-.3,2.8,-.9c.6,-.5,.9,-1.2,.9,-2c0,-.6,-.2,-1.1,-.6,-1.4c-.3,-.4,-.9,-.5,-1.7,-.5c-.3,0,-.5,0,-.9,.1Zm-1.8,6c.6,.1,1.1,.1,1.5,.1c.9,0,1.8,-.2,2.5,-.8c.7,-.6,1.1,-1.3,1.1,-2.3c0,-.7,-.3,-1.3,-.7,-1.7c-.4,-.4,-1.2,-.6,-2.2,-.6c-.1,0,-.4,0,-.7,0Z" class="g2_84"/>
<path fill-rule="evenodd" d="M402,364.1l-.9,3.9h-.3v-1c-.1,-.3,-.1,-.7,-.2,-.9c-.1,-.3,-.3,-.6,-.5,-.8c-.2,-.2,-.5,-.3,-.8,-.5c-.4,-.1,-.7,-.1,-1.1,-.1c-1.1,0,-2,.3,-2.8,.8c-1,.8,-1.8,1.8,-2.4,3.2c-.5,1.1,-.7,2.3,-.7,3.4c0,1.2,.3,2.1,1,2.8c.7,.7,1.6,1.1,2.7,1.1c.8,0,1.5,-.2,2.2,-.6c.6,-.3,1.2,-.9,1.8,-1.7h.4c-.7,1.1,-1.4,1.8,-2.2,2.3c-.8,.5,-1.7,.8,-2.9,.8c-.9,0,-1.8,-.2,-2.6,-.7c-.8,-.4,-1.3,-1,-1.7,-1.7c-.4,-.8,-.6,-1.6,-.6,-2.4c0,-1.4,.3,-2.7,1,-3.9c.7,-1.3,1.7,-2.2,3,-3c1.2,-.7,2.4,-1,3.7,-1c.6,0,1.3,.1,2,.4c.3,.1,.5,.2,.7,.2c.1,0,.3,-.1,.4,-.1c.1,-.1,.2,-.3,.5,-.5Z" class="g2_84"/>
<path fill-rule="evenodd" d="M218.2,367.4l2,-1h.2v6.9c0,.4,0,.7,0,.8c.1,.1,.2,.2,.3,.3c.1,0,.3,.1,.7,.1v.2h-3v-.2c.3,0,.6,-.1,.7,-.1c.1,-.1,.2,-.2,.2,-.3c.1,-.1,.1,-.4,.1,-.8v-4.4c0,-.6,0,-1,-.1,-1.1c0,-.2,0,-.3,-.1,-.3c-.1,-.1,-.2,-.1,-.3,-.1c-.1,0,-.3,0,-.6,.2Z" class="g2_84"/>
<path fill-rule="evenodd" d="M348.5,365.2l2,-.9h.2v6.8c0,.4,0,.7,0,.8c.1,.1,.2,.2,.3,.3c.1,.1,.3,.1,.7,.1v.2h-3v-.2c.3,0,.6,0,.7,-.1c.1,-.1,.2,-.1,.2,-.2c.1,-.1,.1,-.4,.1,-.9v-4.4c0,-.6,0,-.9,-.1,-1.1c0,-.1,0,-.2,-.1,-.3c-.1,0,-.2,-.1,-.3,-.1c-.1,0,-.3,.1,-.6,.2Z" class="g2_84"/>
<path fill-rule="evenodd" d="M303.8,362.7l-1.8,6.1l-.2,.8c0,.1,0,.2,0,.2c0,.1,0,.2,.1,.3c0,0,.1,0,.2,0c0,0,.1,0,.3,-.1c.2,-.2,.5,-.5,.9,-1.1l.3,.2c-.4,.7,-.8,1.1,-1.3,1.5c-.4,.3,-.8,.4,-1.2,.4c-.2,0,-.4,0,-.6,-.2c-.1,-.1,-.1,-.3,-.1,-.5c0,-.3,0,-.7,.2,-1.2l.1,-.6c-.7,1,-1.5,1.7,-2.1,2.1c-.5,.3,-1,.4,-1.4,.4c-.4,0,-.8,-.1,-1.1,-.5c-.4,-.4,-.5,-.9,-.5,-1.5c0,-.9,.3,-1.9,.8,-3c.6,-1,1.3,-1.9,2.2,-2.5c.7,-.5,1.4,-.8,2,-.8c.3,0,.6,.1,.9,.3c.2,.2,.4,.5,.5,1l.3,-1.1Zm-3.2,.5c-.4,0,-.8,.2,-1.2,.5c-.6,.5,-1.2,1.3,-1.7,2.3c-.4,1,-.7,1.9,-.7,2.7c0,.4,.1,.7,.3,.9c.2,.3,.5,.4,.7,.4c.7,0,1.4,-.5,2.1,-1.4c1.1,-1.3,1.6,-2.6,1.6,-4c0,-.5,-.1,-.8,-.3,-1.1c-.2,-.2,-.5,-.3,-.8,-.3Z" class="g2_84"/>
<path fill-rule="evenodd" d="M279.5,450.6l-1.8,6l-.2,.9c0,0,0,.1,0,.1c0,.1,0,.2,.1,.3c0,.1,.1,.1,.2,.1c0,0,.2,-.1,.3,-.2c.2,-.1,.5,-.5,.9,-1l.3,.2c-.4,.6,-.8,1.1,-1.3,1.4c-.4,.3,-.8,.5,-1.2,.5c-.2,0,-.4,-.1,-.5,-.2c-.2,-.1,-.2,-.3,-.2,-.6c0,-.3,0,-.6,.2,-1.1l.1,-.7c-.7,1,-1.5,1.7,-2.1,2.1c-.5,.3,-.9,.5,-1.4,.5c-.4,0,-.8,-.2,-1.1,-.6c-.3,-.3,-.5,-.8,-.5,-1.5c0,-.9,.3,-1.9,.9,-3c.5,-1,1.2,-1.8,2.1,-2.5c.7,-.5,1.4,-.7,2,-.7c.3,0,.6,.1,.9,.3c.2,.1,.4,.5,.5,.9l.4,-1Zm-3.2,.4c-.4,0,-.8,.2,-1.2,.6c-.6,.5,-1.2,1.2,-1.7,2.2c-.4,1,-.7,1.9,-.7,2.7c0,.4,.1,.8,.3,1c.2,.2,.5,.3,.7,.3c.7,0,1.4,-.4,2.2,-1.4c1,-1.3,1.5,-2.6,1.5,-3.9c0,-.5,-.1,-.9,-.3,-1.1c-.2,-.3,-.5,-.4,-.8,-.4Z" class="g2_84"/>
<path d="M186.3,1078.3H837.4V847.4H186.3v230.9Z" class="gf_84"/>
<path d="M0,138.7H120.6V0H0V138.7Z" class="g0_84"/>
<path d="M137.4,885h39.7V847.6H137.4V885Z" class="gg_84"/>
</svg>