<?xml version="1.0" encoding="UTF-8" standalone="no"?>
<!DOCTYPE svg PUBLIC "-//W3C//DTD SVG 1.1//EN"
"http://www.w3.org/Graphics/SVG/1.1/DTD/svg11.dtd">
<svg viewBox="0 0 909 1147" version="1.1" xmlns="http://www.w3.org/2000/svg" xmlns:xlink="http://www.w3.org/1999/xlink">
<defs>
<clipPath id="c0_98"><path d="M519.6,264.2V192.3H681.5v71.9Z"/></clipPath>
<style type="text/css"><![CDATA[
.g0_98{
fill: #B6D774;
}
.g1_98{
fill: none;
stroke: #000;
stroke-width: 0.763;
}
.g2_98{
fill: #0EA5DF;
}
.g3_98{
fill: #D82C20;
}
.g4_98{
fill: #00A651;
}
.g5_98{
fill: none;
stroke: #000;
stroke-width: 0.763;
stroke-linejoin: round;
}
.g6_98{
fill: #000;
}
.g7_98{
fill: none;
stroke: #000;
stroke-width: 1.069;
stroke-linejoin: round;
}
.g8_98{
fill: none;
stroke: #D82C20;
stroke-width: 1.069;
stroke-linejoin: round;
}
.g9_98{
fill: none;
stroke: #00A651;
stroke-width: 1.069;
stroke-linejoin: round;
}
.ga_98{
fill: none;
stroke: #0EA5DF;
stroke-width: 1.069;
stroke-linejoin: round;
}
.gb_98{
fill: none;
stroke: #ED1D24;
stroke-width: 1.069;
stroke-linejoin: round;
}
.gc_98{
fill: none;
stroke: #0095DA;
stroke-width: 1.069;
stroke-linejoin: round;
}
.gd_98{
fill: #0095DA;
}
.ge_98{
fill: none;
stroke: #D82C20;
stroke-width: 1.069;
}
.gf_98{
fill: none;
stroke: #0EA5DF;
stroke-width: 1.069;
}
.gg_98{
fill: none;
stroke: #000;
stroke-width: 1.069;
}
.gh_98{
fill: none;
stroke: #000;
stroke-width: 0.381;
}
.gi_98{
fill: none;
stroke: #000;
stroke-width: 0.537;
}
.gj_98{
fill: none;
stroke: #D82C20;
stroke-width: 0.763;
}
.gk_98{
fill: none;
stroke: #0EA5DF;
stroke-width: 0.763;
}
]]></style>
</defs>
<path d="M0,1131H73.8v-51.5H0V1131Z" class="g0_98"/>
<path d="M214.6,359.8H226m72.9,0h11.3m72.9,0h11.4m-181,548.8h38.1" class="g1_98"/>
<path d="M0,138.7H120.6V0H0V138.7Z" class="g0_98"/>
<path d="M252.2,273l-2.3,7.9c1,-1.5,1.8,-2.5,2.4,-3c.5,-.4,1,-.7,1.6,-.7c.2,0,.4,.1,.6,.3c.2,.2,.3,.4,.3,.7c0,.4,-.1,.8,-.3,1.3l-1,3.5c-.1,.4,-.1,.6,-.1,.6c0,.1,0,.2,0,.2q.1,.1,.2,.1q.1,0,.2,-.1c.3,-.2,.7,-.6,1,-1l.2,.2c-.2,.2,-.4,.6,-.8,.9c-.3,.4,-.6,.6,-.8,.7c-.3,.2,-.5,.2,-.7,.2c-.2,0,-.3,0,-.5,-.2c-.1,-.1,-.1,-.3,-.1,-.5c0,-.2,0,-.6,.2,-1.3l1,-3.3c.1,-.4,.2,-.7,.2,-1c0,-.1,-.1,-.2,-.1,-.2c-.1,-.1,-.2,-.1,-.3,-.1c-.2,0,-.3,0,-.5,.2c-.4,.2,-.8,.6,-1.3,1.2c-.2,.2,-.6,.9,-1.3,2.1c-.3,.4,-.5,.8,-.6,1.3l-.5,1.6h-1.3l2.7,-9.4l.3,-1c0,-.1,0,-.2,-.2,-.4c-.1,-.1,-.2,-.1,-.4,-.1c-.1,0,-.2,0,-.4,0l-.2,.1v-.4Z" class="g2_98"/>
<path d="M283.2,235.3l-2.3,7.9c.9,-1.5,1.7,-2.5,2.3,-3c.5,-.4,1.1,-.7,1.6,-.7c.2,0,.5,.1,.6,.3c.2,.2,.3,.4,.3,.7c0,.4,-.1,.8,-.2,1.3l-1,3.5c-.2,.4,-.2,.6,-.2,.6c0,.1,0,.2,.1,.2c0,.1,.1,.1,.1,.1c.1,0,.2,0,.3,-.1c.3,-.2,.6,-.6,.9,-1l.2,.2c-.1,.2,-.4,.6,-.7,.9c-.4,.4,-.7,.6,-.9,.7c-.2,.2,-.4,.2,-.6,.2c-.2,0,-.4,0,-.5,-.2c-.1,-.1,-.2,-.3,-.2,-.5c0,-.2,.1,-.6,.3,-1.3l.9,-3.3c.1,-.4,.2,-.7,.2,-1q0,-.1,-.1,-.2c-.1,-.1,-.2,-.1,-.3,-.1c-.1,0,-.3,0,-.5,.2c-.4,.2,-.8,.6,-1.3,1.2c-.1,.2,-.6,.9,-1.3,2.1c-.2,.4,-.4,.8,-.6,1.3l-.5,1.6h-1.2l2.7,-9.4l.3,-1c0,-.1,-.1,-.2,-.2,-.3c-.1,-.2,-.3,-.2,-.5,-.2c-.1,0,-.2,0,-.4,0l-.2,.1v-.4Z" class="g3_98"/>
<path d="M252.2,243.9l-2.3,8c1,-1.5,1.7,-2.5,2.3,-3c.6,-.5,1.1,-.7,1.6,-.7c.3,0,.5,.1,.7,.3c.1,.1,.2,.4,.2,.7c0,.3,-.1,.8,-.2,1.3l-1,3.4c-.1,.4,-.2,.7,-.2,.7c0,.1,0,.2,.1,.2c0,.1,.1,.1,.1,.1c.1,0,.2,-.1,.3,-.1c.3,-.3,.6,-.6,.9,-1l.3,.1c-.2,.3,-.5,.6,-.8,1c-.3,.3,-.6,.6,-.9,.7c-.2,.1,-.4,.2,-.6,.2c-.2,0,-.4,-.1,-.5,-.2c-.1,-.1,-.2,-.3,-.2,-.5c0,-.2,.1,-.7,.3,-1.3l.9,-3.3c.2,-.4,.2,-.7,.2,-1c0,-.1,0,-.2,-.1,-.2q-.1,-.1,-.3,-.1c-.1,0,-.3,0,-.5,.1c-.4,.3,-.8,.7,-1.3,1.3c-.1,.2,-.5,.9,-1.3,2.1c-.2,.4,-.4,.8,-.6,1.2l-.5,1.7h-1.2l2.7,-9.4l.3,-1c0,-.1,-.1,-.3,-.2,-.4c-.1,-.1,-.3,-.1,-.4,-.1c-.1,0,-.3,0,-.5,0h-.2v-.3Z" class="g4_98"/>
<path d="M262.2,282.1l-1,3.6l-.1,.5v.1c0,0,0,.1,0,.1c.1,0,.1,.1,.1,.1c.1,0,.1,-.1,.2,-.1c.1,-.1,.3,-.3,.6,-.6l.1,.1c-.2,.3,-.5,.6,-.7,.8c-.3,.2,-.5,.3,-.7,.3c-.2,0,-.3,0,-.4,-.1c0,-.1,-.1,-.2,-.1,-.3c0,-.2,.1,-.4,.1,-.7l.2,-.4c-.5,.6,-.9,1,-1.3,1.2c-.3,.2,-.5,.3,-.8,.3c-.3,0,-.5,-.1,-.7,-.3c-.2,-.2,-.2,-.5,-.2,-.9c0,-.6,.1,-1.1,.5,-1.7c.3,-.7,.7,-1.2,1.2,-1.5c.4,-.3,.8,-.5,1.2,-.5c.2,0,.3,.1,.5,.2c.1,.1,.2,.3,.3,.6l.2,-.6Zm-1.8,.3c-.3,0,-.5,.1,-.7,.3c-.4,.3,-.7,.8,-1,1.3c-.3,.6,-.4,1.1,-.4,1.6c0,.3,.1,.4,.2,.6c.1,.1,.2,.2,.4,.2c.4,0,.8,-.3,1.2,-.9c.6,-.7,.9,-1.5,.9,-2.2c0,-.3,-.1,-.6,-.2,-.7c-.1,-.1,-.2,-.2,-.4,-.2Z" class="g2_98"/>
<path d="M292.3,248c-.4,.5,-.8,.8,-1.1,1c-.4,.2,-.8,.3,-1.2,.3c-.5,0,-.9,-.1,-1.2,-.4c-.2,-.3,-.4,-.7,-.4,-1.2c0,-.5,.2,-1,.5,-1.5c.3,-.5,.7,-1,1.2,-1.3c.5,-.3,1,-.5,1.5,-.5c.3,0,.6,.1,.8,.3c.2,.1,.3,.3,.3,.6c0,.2,-.1,.4,-.2,.5c-.1,.1,-.2,.2,-.4,.2c-.1,0,-.2,0,-.2,-.1c-.1,-.1,-.1,-.2,-.1,-.3c0,0,0,-.1,0,-.2c0,0,.1,-.1,.2,-.2c0,0,.1,-.1,.1,-.1q0,-.1,0,-.1c0,-.1,0,-.2,-.1,-.2c-.1,-.1,-.2,-.1,-.4,-.1c-.3,0,-.7,.1,-1,.3c-.3,.3,-.6,.6,-.9,1.1c-.3,.5,-.4,1,-.4,1.6c0,.3,.1,.6,.3,.8c.2,.2,.5,.3,.8,.3c.3,0,.6,0,.8,-.2c.3,-.1,.6,-.4,.9,-.7Z" class="g3_98"/>
<path d="M260.2,250.4l-1,3.6c.3,-.3,.6,-.6,.9,-.7c.2,-.1,.5,-.2,.8,-.2c.4,0,.7,.1,.9,.4c.3,.3,.4,.6,.4,1c0,.6,-.2,1.2,-.5,1.7c-.3,.6,-.7,1,-1.2,1.3c-.5,.3,-1,.5,-1.4,.5c-.6,0,-1.1,-.2,-1.7,-.6l1.6,-5.5c.1,-.4,.2,-.7,.2,-.7c0,-.1,0,-.2,-.1,-.2c-.1,-.1,-.2,-.1,-.3,-.1c-.1,0,-.2,0,-.4,0v-.2Zm-2,7c.4,.2,.7,.3,.9,.3c.3,0,.7,-.1,1,-.3c.3,-.2,.6,-.6,.9,-1.2c.2,-.5,.3,-1,.3,-1.6c0,-.3,-.1,-.5,-.2,-.7c-.2,-.2,-.4,-.3,-.6,-.3c-.3,0,-.6,.1,-.9,.4c-.3,.3,-.6,.6,-.7,1.1Z" class="g4_98"/>
<path d="M287.7,288.5c-.5,-6.2,-5.1,-10.4,-11.6,-9.7M256.3,241.5c4,-4.8,3.8,-11,-1.2,-15.2m30.6,30.6c2.6,5.7,8.4,8,14.3,5.1" class="g5_98"/>
<path fill-rule="evenodd" d="M281,284.6c-.2,-.1,-.3,-.3,-.2,-.4c0,-.1,.3,-.2,.4,-.1c.2,.1,.3,.3,.3,.5c-.1,.1,-.3,.1,-.5,0Z" class="g6_98"/>
<path d="M281,284.6c-.2,-.1,-.3,-.3,-.2,-.4c0,-.1,.3,-.2,.4,-.1c.2,.1,.3,.3,.3,.5c-.1,.1,-.3,.1,-.5,0Z" class="g7_98"/>
<path fill-rule="evenodd" d="M254.4,233.9c-.1,-.2,0,-.4,.1,-.4c.2,-.1,.3,0,.4,.2c.1,.2,0,.4,-.2,.5c-.1,0,-.3,-.1,-.3,-.3Z" class="g6_98"/>
<path d="M254.4,233.9c-.1,-.2,0,-.4,.1,-.4c.2,-.1,.3,0,.4,.2c.1,.2,0,.4,-.2,.5c-.1,0,-.3,-.1,-.3,-.3Z" class="g7_98"/>
<path fill-rule="evenodd" d="M293.3,258.2c.3,.1,.4,.2,.4,.4c0,.1,-.2,.2,-.4,.2c-.2,0,-.4,-.2,-.4,-.3c.1,-.2,.2,-.3,.4,-.3Z" class="g6_98"/>
<path d="M293.3,258.2c.3,.1,.4,.2,.4,.4c0,.1,-.2,.2,-.4,.2c-.2,0,-.4,-.2,-.4,-.3c.1,-.2,.2,-.3,.4,-.3Z" class="g7_98"/>
<path d="M199.2,289.1h112" class="g8_98"/>
<path d="M200.2,289.1l77.6,-89.7M310,288.7L247,234.2" class="g9_98"/>
<path d="M277.3,200.4l33.5,88.7M200.5,289l96.7,-36.4" class="ga_98"/>
<path d="M306.1,235.7l-1.6,5.6l-.2,.7q0,.1,0,.2c0,.1,0,.2,.1,.2c0,.1,.1,.1,.1,.1c.1,0,.2,0,.3,-.1c.2,-.2,.5,-.5,.9,-1l.2,.2c-.3,.5,-.7,1,-1.1,1.3c-.4,.3,-.8,.4,-1.1,.4c-.3,0,-.5,0,-.6,-.2c-.1,-.1,-.1,-.2,-.1,-.5c0,-.2,0,-.6,.1,-1l.2,-.6c-.7,.9,-1.4,1.5,-2,1.9c-.4,.3,-.8,.4,-1.2,.4c-.4,0,-.8,-.1,-1.1,-.5c-.3,-.3,-.4,-.8,-.4,-1.3c0,-.9,.2,-1.8,.8,-2.8c.5,-1,1.2,-1.7,2,-2.3c.6,-.5,1.2,-.7,1.7,-.7c.4,0,.7,.1,.9,.3c.2,.1,.4,.4,.5,.8l.3,-.9Zm-2.9,.4c-.4,0,-.8,.2,-1.2,.5c-.5,.5,-1,1.2,-1.4,2.1c-.5,.9,-.7,1.7,-.7,2.5c0,.3,.1,.6,.3,.8c.2,.3,.4,.4,.6,.4c.6,0,1.3,-.5,2,-1.3c.9,-1.2,1.4,-2.4,1.4,-3.7c0,-.4,-.1,-.8,-.3,-1c-.2,-.2,-.4,-.3,-.7,-.3Z" class="g2_98"/>
<path d="M263.7,299.1c-.6,.7,-1.1,1.2,-1.7,1.5c-.6,.3,-1.2,.5,-1.8,.5c-.8,0,-1.4,-.2,-1.9,-.7c-.4,-.4,-.6,-1,-.6,-1.7c0,-.9,.2,-1.7,.7,-2.5c.5,-.8,1.1,-1.5,1.9,-2c.8,-.5,1.5,-.7,2.3,-.7c.6,0,1,.1,1.3,.4c.3,.2,.5,.5,.5,.9c0,.3,-.1,.6,-.3,.8c-.2,.2,-.4,.3,-.6,.3c-.2,0,-.3,0,-.4,-.2c-.1,-.1,-.2,-.2,-.2,-.4c0,-.1,0,-.2,.1,-.2c0,-.1,.1,-.2,.2,-.4c.2,-.1,.2,-.2,.3,-.2q0,-.1,0,-.2c0,-.1,0,-.2,-.2,-.3c-.1,-.1,-.3,-.2,-.6,-.2c-.6,0,-1.1,.2,-1.6,.6c-.5,.4,-1,.9,-1.4,1.6c-.4,.9,-.6,1.7,-.6,2.5c0,.6,.1,1,.4,1.4c.4,.3,.8,.5,1.3,.5c.5,0,.9,-.1,1.3,-.4c.4,-.2,.9,-.5,1.4,-1.1Z" class="g3_98"/>
<path d="M229.4,233.6l-1.6,5.7c.5,-.6,1,-1,1.4,-1.2c.3,-.2,.8,-.3,1.2,-.3c.6,0,1.1,.2,1.5,.6c.3,.4,.5,1,.5,1.7c0,.8,-.2,1.7,-.7,2.6c-.5,.9,-1.2,1.5,-1.9,2c-.8,.5,-1.5,.8,-2.3,.8c-.8,0,-1.6,-.3,-2.5,-1l2.5,-8.6c.2,-.6,.3,-1,.3,-1.1c0,-.2,-.1,-.3,-.2,-.3c-.1,-.1,-.3,-.2,-.5,-.2c-.1,0,-.3,0,-.5,.1v-.3Zm-3.2,11c.6,.3,1,.5,1.5,.5c.4,0,.9,-.2,1.5,-.6c.5,-.3,.9,-.9,1.3,-1.7c.4,-.9,.6,-1.7,.6,-2.6c0,-.5,-.1,-.9,-.4,-1.2c-.2,-.2,-.5,-.4,-.9,-.4c-.5,0,-1,.2,-1.5,.6c-.5,.4,-.8,1,-1,1.7Z" class="g4_98"/>
<path d="M276.6,200.7v88.5" class="g8_98"/>
<path d="M634,200.9l-99.3,57.3" class="gb_98"/>
<path d="M667,258.2L634,200.9" class="g9_98"/>
<path d="M534.7,258.2H667" class="g7_98"/>
<path d="M633.7,201.2v57" class="gc_98"/>
<path clip-path="url(#c0_98)" d="M527.5,255.6l-3.2,4.4h2.8Zm1.6,-2.7l-.8,9.2c-.1,.5,-.1,.7,-.1,.9c0,.2,0,.4,.1,.5c.1,.1,.3,.2,.5,.3c.1,.1,.4,.1,.9,.1l-.1,.3h-4.4l.1,-.3h.2c.3,0,.6,0,.8,-.2c.2,-.1,.3,-.3,.4,-.5c.1,-.2,.1,-.6,.2,-1.2l.1,-1.4h-3.2l-1.1,1.5c-.3,.4,-.4,.6,-.5,.8c-.1,.1,-.1,.3,-.1,.4c0,.2,.1,.3,.2,.4c.2,.2,.4,.2,.7,.2l-.1,.3h-3.3l.1,-.3c.4,0,.8,-.1,1.1,-.4c.3,-.2,.8,-.8,1.4,-1.6l6.6,-9Z" class="g6_98"/>
<path d="M674.1,263.1c.6,.1,1.1,.2,1.4,.2c.9,0,1.6,-.3,2.3,-.8c.6,-.5,1,-1.2,1,-2.1c0,-.7,-.2,-1.2,-.7,-1.6c-.4,-.4,-1,-.5,-1.9,-.5c-.2,0,-.4,0,-.7,0Zm1.6,-5.4c.4,0,.6,0,.8,0c1.1,0,2,-.3,2.5,-.8c.6,-.5,.9,-1.1,.9,-1.8c0,-.6,-.2,-1,-.5,-1.3c-.4,-.4,-.9,-.5,-1.7,-.5c-.2,0,-.4,0,-.7,.1ZM674.1,253l.1,-.3h4c.6,0,1.2,.1,1.7,.4c.6,.2,1,.4,1.2,.8c.3,.4,.4,.8,.4,1.2c0,.6,-.2,1.2,-.7,1.7c-.5,.6,-1.2,.9,-2.3,1.2c.7,.2,1.2,.6,1.5,1c.4,.4,.5,.9,.5,1.4c0,.5,-.1,1,-.4,1.5c-.3,.5,-.7,.9,-1.1,1.2c-.5,.3,-1,.5,-1.6,.6c-.5,.1,-1.2,.2,-2.1,.2h-4.1l.1,-.3c.4,0,.7,-.1,.9,-.2c.2,-.1,.3,-.2,.4,-.3c.2,-.2,.3,-.7,.6,-1.5l2,-6.7c.1,-.6,.2,-1,.2,-1.2c0,-.2,-.1,-.4,-.2,-.5c-.2,-.1,-.4,-.1,-.9,-.1c-.1,0,-.1,-.1,-.2,-.1Z" class="g6_98"/>
<path clip-path="url(#c0_98)" d="M652,192.3l-.8,3.6h-.3V195c-.1,-.3,-.1,-.6,-.2,-.9c-.1,-.3,-.3,-.5,-.5,-.7c-.2,-.2,-.4,-.3,-.7,-.4c-.3,-.1,-.7,-.2,-1,-.2c-1,0,-1.9,.3,-2.6,.8c-.9,.7,-1.7,1.7,-2.2,2.9c-.4,1.1,-.6,2.1,-.6,3.2c0,1,.3,1.9,.9,2.5c.6,.7,1.4,1,2.5,1c.7,0,1.4,-.2,2,-.5c.6,-.3,1.1,-.9,1.6,-1.6h.4c-.6,1,-1.2,1.7,-2,2.1c-.7,.5,-1.6,.7,-2.6,.7c-.9,0,-1.7,-.2,-2.4,-.6c-.7,-.3,-1.3,-.9,-1.6,-1.6c-.4,-.6,-.6,-1.4,-.6,-2.2c0,-1.2,.3,-2.4,1,-3.5c.6,-1.2,1.5,-2.1,2.7,-2.7c1.1,-.7,2.3,-1,3.4,-1c.6,0,1.2,.1,1.8,.4c.3,.1,.5,.1,.7,.1c.1,0,.2,0,.3,0c.1,-.1,.3,-.3,.5,-.5Z" class="g6_98"/>
<path d="M619.9,230.8l-2.3,8c1,-1.5,1.8,-2.5,2.4,-3c.5,-.5,1.1,-.8,1.6,-.8c.2,0,.4,.1,.6,.3c.2,.2,.3,.4,.3,.7c0,.4,-.1,.8,-.2,1.3l-1,3.5c-.2,.4,-.2,.6,-.2,.7c0,0,0,.1,0,.2q.1,0,.2,0q.1,0,.2,-.1c.3,-.2,.7,-.5,1,-1l.2,.2c-.2,.3,-.4,.6,-.8,.9c-.3,.4,-.6,.6,-.8,.8c-.2,.1,-.5,.2,-.6,.2c-.2,0,-.4,-.1,-.5,-.2c-.2,-.2,-.2,-.3,-.2,-.5c0,-.3,.1,-.7,.3,-1.4l.9,-3.3c.1,-.4,.2,-.7,.2,-.9c0,-.1,-.1,-.2,-.1,-.3c-.1,-.1,-.2,-.1,-.3,-.1c-.1,0,-.3,.1,-.5,.2c-.4,.2,-.8,.6,-1.3,1.3c-.2,.1,-.6,.8,-1.3,2c-.3,.4,-.5,.8,-.6,1.3l-.5,1.7h-1.3l2.7,-9.4l.3,-1c0,-.2,0,-.3,-.1,-.4c-.2,-.1,-.3,-.2,-.5,-.2c-.1,0,-.2,0,-.4,.1h-.2v-.3Z" class="gd_98"/>
<path d="M629,243.6c-.3,.4,-.7,.7,-1.1,.9c-.3,.2,-.7,.3,-1.1,.3c-.5,0,-.9,-.1,-1.2,-.4c-.3,-.3,-.4,-.7,-.4,-1.1c0,-.6,.2,-1.1,.5,-1.6c.3,-.5,.7,-.9,1.2,-1.3c.5,-.3,1,-.4,1.4,-.4c.4,0,.7,0,.9,.2c.2,.2,.3,.4,.3,.6c0,.2,-.1,.4,-.2,.5c-.1,.2,-.2,.2,-.4,.2c-.1,0,-.2,0,-.3,-.1c0,-.1,-.1,-.1,-.1,-.2c0,-.1,0,-.2,.1,-.2c0,-.1,.1,-.2,.1,-.2c.1,-.1,.2,-.2,.2,-.2c0,0,0,-.1,0,-.1q0,-.1,-.1,-.2c-.1,-.1,-.2,-.1,-.4,-.1c-.4,0,-.7,.1,-1,.4c-.4,.2,-.7,.5,-.9,1c-.3,.5,-.4,1.1,-.4,1.6c0,.3,.1,.6,.3,.8c.2,.2,.5,.3,.8,.3c.3,0,.5,0,.8,-.2c.3,-.1,.6,-.3,.9,-.7Z" class="gd_98"/>
<path d="M645.1,257.8c-.5,-6.2,-5.1,-10.4,-11.6,-9.8m-9.3,-41.5c3.3,5.3,9.3,7,14.8,3.4" class="g5_98"/>
<path fill-rule="evenodd" d="M630.3,206.5c.2,0,.4,.1,.4,.3c0,.2,-.2,.3,-.4,.3c-.2,0,-.4,-.1,-.4,-.3c0,-.2,.2,-.3,.4,-.3Z" class="g6_98"/>
<path d="M630.3,206.5c.2,0,.4,.1,.4,.3c0,.2,-.2,.3,-.4,.3c-.2,0,-.4,-.1,-.4,-.3c0,-.2,.2,-.3,.4,-.3Z" class="g7_98"/>
<path fill-rule="evenodd" d="M638.4,253.9c-.2,-.1,-.3,-.3,-.2,-.4c0,-.2,.2,-.2,.4,-.1c.2,.1,.3,.3,.2,.4c0,.2,-.2,.2,-.4,.1Z" class="g6_98"/>
<path d="M638.4,253.9c-.2,-.1,-.3,-.3,-.2,-.4c0,-.2,.2,-.2,.4,-.1c.2,.1,.3,.3,.2,.4c0,.2,-.2,.2,-.4,.1Z" class="g7_98"/>
<path d="M549.1,359.8h11.4m67.5,0h11.4" class="g1_98"/>
<path d="M534.5,443.3h54.9m-54.9,54h54.9M534.9,442.9v54.3m54,-54.3v54.3" class="ge_98"/>
<path d="M214.9,496.6c.3,-11.4,-11.3,-10.7,-11.3,-10.7m4.6,7c-.2,0,-.4,-.2,-.4,-.4c0,-.2,.2,-.3,.4,-.3c.2,0,.4,.1,.4,.3c0,.2,-.2,.4,-.4,.4ZM577.5,497c-.3,-11.3,11.3,-10.7,11.3,-10.7m-264.3,7.1c.2,0,.4,-.2,.4,-.4c0,-.2,-.2,-.4,-.4,-.4c-.2,0,-.4,.2,-.4,.4c0,.2,.2,.4,.4,.4ZM214.9,443.3c.3,11.3,-11.3,10.6,-11.3,10.6m4.6,-7c-.2,0,-.4,.2,-.4,.4c0,.2,.2,.4,.4,.4c.2,0,.4,-.2,.4,-.4c0,-.2,-.2,-.4,-.4,-.4Zm109.6,-4.1c-.4,11.4,11.3,10.7,11.3,10.7m-4.6,-7c.2,0,.4,.2,.4,.4c0,.2,-.2,.4,-.4,.4c-.2,0,-.4,-.2,-.4,-.4c0,-.2,.2,-.4,.4,-.4Z" class="g1_98"/>
<path d="M203.3,443.4H329.8M203.3,497.2H329.8" class="ge_98"/>
<path d="M203.8,443v54.1M329.2,443v54.1" class="gf_98"/>
<path d="M546,496.6c.4,-11.4,-11.3,-10.7,-11.3,-10.7m4.7,7c-.2,0,-.4,-.2,-.4,-.4c0,-.2,.2,-.3,.4,-.3c.2,0,.4,.1,.4,.3c0,.2,-.2,.4,-.4,.4ZM317.8,497c-.4,-11.3,11.3,-10.7,11.3,-10.7m255.1,7.1c.2,0,.4,-.2,.4,-.4c0,-.2,-.2,-.4,-.4,-.4c-.2,0,-.4,.2,-.4,.4c0,.2,.2,.4,.4,.4ZM546,443.3c.4,11.3,-11.3,10.6,-11.3,10.6m4.7,-7c-.2,0,-.4,.2,-.4,.4c0,.2,.2,.4,.4,.4c.2,0,.4,-.2,.4,-.4c0,-.2,-.2,-.4,-.4,-.4Zm38.1,-4.1c-.3,11.4,11.3,10.7,11.3,10.7m-4.6,-7c.2,0,.4,.2,.4,.4c0,.2,-.2,.4,-.4,.4c-.2,0,-.4,-.2,-.4,-.4c0,-.2,.2,-.4,.4,-.4Z" class="g1_98"/>
<path d="M533.7,667h54.5" class="ge_98"/>
<path d="M533.8,667.2l26,-47.9m54.4,.2H559.7" class="gg_98"/>
<path d="M560.1,619.6v47.2m28.1,.6l26,-47.9m-12.7,22.9L559.7,619.7" class="ge_98"/>
<path d="M553.6,666.8c-.2,-6.5,6.4,-6.1,6.4,-6.1" class="gh_98"/>
<path d="M557.6,664.9c.2,0,.3,-.2,.3,-.4c0,-.2,-.1,-.4,-.3,-.4c-.3,0,-.4,.2,-.4,.4c0,.2,.1,.4,.4,.4Z" class="g1_98"/>
<path d="M596.1,639.1c2.9,-5.7,8.5,-2.2,8.5,-2.2" class="gh_98"/>
<path d="M600.4,639.3c.2,0,.4,-.2,.4,-.4c0,-.2,-.2,-.4,-.4,-.4c-.2,0,-.4,.2,-.4,.4c0,.2,.2,.4,.4,.4Z" class="g1_98"/>
<path d="M202.2,667H305.1m18.6,-47.5H221.1m-.6,.1v47.2" class="ge_98"/>
<path d="M304.7,666.6l18.6,-47.1M310,654.6L221.2,619.7" class="gf_98"/>
<path d="M214.1,666.8c-.2,-6.5,6.4,-6.1,6.4,-6.1" class="gh_98"/>
<path d="M218,664.9c.3,0,.4,-.2,.4,-.4c0,-.2,-.1,-.4,-.4,-.4c-.2,0,-.3,.2,-.3,.4c0,.2,.1,.4,.3,.4Z" class="g1_98"/>
<path d="M302.9,651c2.9,-5.7,8.5,-2.2,8.5,-2.2" class="gh_98"/>
<path d="M307.2,651.2c.2,0,.4,-.2,.4,-.4c0,-.2,-.2,-.4,-.4,-.4c-.2,0,-.4,.2,-.4,.4c0,.2,.2,.4,.4,.4Z" class="g1_98"/>
<path d="M202.1,667.2l18.7,-47.6" class="gf_98"/>
<path d="M201.6,848.6h80" class="ge_98"/>
<path d="M250.9,803l30.2,45.3" class="gg_98"/>
<path d="M217.6,803h33.3m-33.1,45.8V803.1" class="ge_98"/>
<path d="M225.7,848.4c.3,-8,-7.9,-7.5,-7.9,-7.5m3.3,4.9c-.2,0,-.3,-.1,-.3,-.3c0,-.1,.1,-.2,.3,-.2c.1,0,.2,.1,.2,.2c0,.2,-.1,.3,-.2,.3Z" class="gi_98"/>
<path d="M201.9,848.4l15.8,-45.6m322.5,33.7H654.4m-115.7,0l89.1,33.3m.2,-.4l26.8,-33.8M539.2,836l46.4,-49.8m.1,0L654.4,836" class="gg_98"/>
<path d="M585.7,785.8v50.7" class="ge_98"/>
<path d="M628,869V836" class="gf_98"/>
<path d="M579.9,835.8c-.3,-6.4,6.3,-6.1,6.3,-6.1" class="gh_98"/>
<path d="M583.8,833.9c.2,0,.4,-.2,.4,-.4c0,-.2,-.2,-.4,-.4,-.4c-.2,0,-.4,.2,-.4,.4c0,.2,.2,.4,.4,.4Z" class="g1_98"/>
<path d="M634.2,836.7c.3,6.4,-6.3,6,-6.3,6" class="gh_98"/>
<path d="M630.3,838.6c-.2,0,-.4,.2,-.4,.4c0,.2,.2,.3,.4,.3c.2,0,.4,-.1,.4,-.3c0,-.2,-.2,-.4,-.4,-.4ZM185.5,1035.3h51.2v-22.5H185.5v22.5Zm73.6,0h51.2v-22.5H259.1v22.5Zm73.7,0H384v-22.5H332.8v22.5Zm73.6,0h51.2v-22.5H406.4v22.5Z" class="g1_98"/>
<path d="M210.8,1011.3c16.3,-18,46.7,-13.1,59,-4.3" class="gj_98"/>
<path d="M275.6,1011.3l-5.7,-8.5c0,0,-.1,4.2,-4.1,5.7l9.8,2.8Z" class="g3_98"/>
<path d="M284.4,1011.3c16.3,-18,46.8,-13.1,59,-4.3" class="gj_98"/>
<path d="M349.3,1011.3l-5.8,-8.5c0,0,-.1,4.2,-4.1,5.7l9.9,2.8Z" class="g3_98"/>
<path d="M358,1011.3c16.3,-18,46.8,-13.1,59,-4.3" class="gj_98"/>
<path d="M422.9,1011.3l-5.8,-8.5c0,0,-.1,4.2,-4.1,5.7l9.9,2.8Z" class="g3_98"/>
<path d="M422.6,1038.6c-16.3,17.9,-46.8,13.1,-59,4.2" class="gk_98"/>
<path d="M357.7,1038.6l5.8,8.5c0,0,.1,-4.3,4.1,-5.7l-9.9,-2.8Z" class="g2_98"/>
<path d="M349,1038.6c-16.4,17.9,-46.8,13.1,-59.1,4.2" class="gk_98"/>
<path d="M284.1,1038.6l5.8,8.5c0,0,.1,-4.3,4.1,-5.7l-9.9,-2.8Z" class="g2_98"/>
<path d="M275.4,1038.6c-16.4,17.9,-46.8,13.1,-59.1,4.2" class="gk_98"/>
<path d="M210.5,1038.6l5.7,8.5c0,0,.1,-4.3,4.2,-5.7l-9.9,-2.8Z" class="g2_98"/>
<path d="M520,1035.3h51.2v-22.5H520v22.5Zm73.6,0h51.3v-22.5H593.6v22.5Zm73.7,0h51.2v-22.5H667.3v22.5Zm73.6,0h51.2v-22.5H740.9v22.5Z" class="g1_98"/>
<path d="M545.3,1011.3c16.3,-18,46.8,-13.1,59,-4.3" class="gj_98"/>
<path d="M610.2,1011.3l-5.8,-8.5c0,0,-.1,4.2,-4.1,5.7l9.9,2.8Z" class="g3_98"/>
<path d="M618.9,1011.3c16.3,-18,46.8,-13.1,59,-4.3" class="gj_98"/>
<path d="M683.8,1011.3l-5.8,-8.5c0,0,-.1,4.2,-4.1,5.7l9.9,2.8Z" class="g3_98"/>
<path d="M692.5,1011.3c16.4,-18,46.8,-13.1,59.1,-4.3" class="gj_98"/>
<path d="M757.4,1011.3l-5.8,-8.5c0,0,0,4.2,-4.1,5.7l9.9,2.8Z" class="g3_98"/>
<path d="M757.1,1038.6c-16.3,17.9,-46.8,13.1,-59,4.2" class="gk_98"/>
<path d="M692.2,1038.6l5.8,8.5c0,0,.1,-4.3,4.1,-5.7l-9.9,-2.8Z" class="g2_98"/>
<path d="M683.5,1038.6c-16.3,17.9,-46.8,13.1,-59,4.2" class="gk_98"/>
<path d="M618.6,1038.6l5.8,8.5c0,0,.1,-4.3,4.1,-5.7l-9.9,-2.8Z" class="g2_98"/>
<path d="M609.9,1038.6c-16.4,17.9,-46.8,13.1,-59.1,4.2" class="gk_98"/>
<path d="M545,1038.6l5.8,8.5c0,0,0,-4.3,4.1,-5.7l-9.9,-2.8Z" class="g2_98"/>
</svg>