<?xml version="1.0" encoding="UTF-8" standalone="no"?>
<!DOCTYPE svg PUBLIC "-//W3C//DTD SVG 1.1//EN"
"http://www.w3.org/Graphics/SVG/1.1/DTD/svg11.dtd">
<svg viewBox="0 0 909 1147" version="1.1" xmlns="http://www.w3.org/2000/svg" xmlns:xlink="http://www.w3.org/1999/xlink">
<defs>
<clipPath id="c0_44"><path d="M538.2,1047.7V853.9H807.7v193.8Z"/></clipPath>
<style type="text/css"><![CDATA[
.g0_44{
fill: #FAAF82;
}
.g1_44{
fill: none;
stroke: #0EA5DF;
stroke-width: 3.055;
}
.g2_44{
fill: none;
stroke: #0EA5DF;
stroke-width: 0.763;
stroke-miterlimit: 10;
}
.g3_44{
fill: #000;
}
.g4_44{
fill: none;
stroke: #000;
stroke-width: 0.967;
stroke-miterlimit: 2;
}
.g5_44{
fill: none;
stroke: #939598;
stroke-width: 0.69;
stroke-miterlimit: 2;
}
.g6_44{
fill: #C7EAFB;
stroke: #000;
stroke-width: 0.69;
stroke-miterlimit: 2;
}
]]></style>
</defs>
<path d="M0,1131H73.8v-51.5H0V1131Z" class="g0_44"/>
<path d="M0,141.1H120.6V0H0V141.1Z" class="g0_44"/>
<path d="M74.5,167H836.7" class="g1_44"/>
<path d="M186.2,218h26.4m-26,24.6V218.4m26,-.4h52m0,0h25.9m-25.9,24.6V218.4m25.9,-.4h52m0,0h26m-26,24.6V218.4m26,-.4h52m0,0h25.9m-25.9,24.6V218.4m25.9,-.4h52m0,0h26m-26,24.6V218.4m26,-.4h52m0,0h26m-26,24.6V218.4m26,-.4h51.9m0,0h26m-26,24.6V218.4m26,-.4h52.4m-.4,24.6V218.4M186.2,242.9h26.4m-26,24.6V243.3m26,-.4h52m0,0h25.9m-25.9,24.6V243.3m25.9,-.4h52m0,0h26m-26,24.6V243.3m26,-.4h52m0,0h25.9m-25.9,24.6V243.3m25.9,-.4h52m0,0h26m-26,24.6V243.3m26,-.4h52m0,0h26m-26,24.6V243.3m26,-.4h51.9m0,0h26m-26,24.6V243.3m26,-.4h52.4m-.4,24.6V243.3M186.2,267.9h26.4m-26,24.5V268.3m26,-.4h52m0,0h25.9m-25.9,24.5V268.3m25.9,-.4h52m0,0h26m-26,24.5V268.3m26,-.4h52m0,0h25.9m-25.9,24.5V268.3m25.9,-.4h52m0,0h26m-26,24.5V268.3m26,-.4h52m0,0h26m-26,24.5V268.3m26,-.4h51.9m0,0h26m-26,24.5V268.3m26,-.4h52.4m-.4,24.5V268.3M186.2,292.8h26.4m-26,24.6V293.2m26,-.4h52m0,0h25.9m-25.9,24.6V293.2m25.9,-.4h52m0,0h26m-26,24.6V293.2m26,-.4h52m0,0h25.9m-25.9,24.6V293.2m25.9,-.4h52m0,0h26m-26,24.6V293.2m26,-.4h52m0,0h26m-26,24.6V293.2m26,-.4h51.9m0,0h26m-26,24.6V293.2m26,-.4h52.4m-.4,24.6V293.2M186.2,317.7h26.4m-26,24.6V318.1m26,-.4h52m0,0h25.9m-25.9,24.6V318.1m25.9,-.4h52m0,0h26m-26,24.6V318.1m26,-.4h52m0,0h25.9m-25.9,24.6V318.1m25.9,-.4h52m0,0h26m-26,24.6V318.1m26,-.4h52m0,0h26m-26,24.6V318.1m26,-.4h51.9m0,0h26m-26,24.6V318.1m26,-.4h52.4m-.4,24.6V318.1M186.2,342.7h26.4m-26,24.5V343.1m26,-.4h52m0,0h25.9m-25.9,24.5V343.1m25.9,-.4h52m0,0h26m-26,24.5V343.1m26,-.4h52m0,0h25.9m-25.9,24.5V343.1m25.9,-.4h52m0,0h26m-26,24.5V343.1m26,-.4h52m0,0h26m-26,24.5V343.1m26,-.4h51.9m0,0h26m-26,24.5V343.1m26,-.4h52.4m-.4,24.5V343.1M186.2,367.6h26.4m0,0h52m0,0h25.9m0,0h52m0,0h26m0,0h52m0,0h25.9m0,0h52m0,0h26m0,0h52m0,0h26m0,0h51.9m0,0h26m0,0h52.4M185.6,500H308.3M186,547.8V500.4M308.3,500h42.4m-42.4,47.8V500.4m42.4,-.4H394m-43.3,47.8V500.4M394,500h43.3M394,547.8V500.4m43.3,-.4h43.3m-43.3,47.8V500.4m43.3,-.4h43.3m-43.3,47.8V500.4m43.3,-.4h43.3m-43.3,47.8V500.4m43.3,-.4h43.7m-43.7,47.8V500.4m43.4,47.4V500.4m-425,47.7H308.3M186,572.7V548.5m122.3,-.4h42.4m-42.4,24.6V548.5m42.4,-.4H394m-43.3,24.6V548.5m43.3,-.4h43.3M394,572.7V548.5m43.3,-.4h43.3m-43.3,24.6V548.5m43.3,-.4h43.3m-43.3,24.6V548.5m43.3,-.4h43.3m-43.3,24.6V548.5m43.3,-.4h43.7m-43.7,24.6V548.5m43.4,24.2V548.5m-425,24.6H308.3m0,0h42.4m0,0H394m0,0h43.3m0,0h43.3m0,0h43.3m0,0h43.3m0,0h43.7" class="g2_44"/>
<path d="M71.5,838.1H833.7" class="g1_44"/>
<path d="M649.6,1044.3h2c.5,0,.8,0,1,-.1c.3,-.1,.6,-.3,.7,-.6c.2,-.3,.2,-.6,.2,-1c0,-.4,0,-.7,-.2,-.9c-.1,-.3,-.3,-.5,-.6,-.6c-.3,-.1,-.7,-.2,-1.2,-.2h-1.9Zm0,-4.6h1.8c.4,0,.7,0,.9,-.1c.3,-.1,.5,-.2,.7,-.4c.1,-.3,.2,-.6,.2,-.9c0,-.4,-.1,-.7,-.2,-.9c-.1,-.3,-.3,-.4,-.5,-.5c-.3,-.1,-.7,-.2,-1.3,-.2h-1.6Zm-1.1,5.8v-9.9h3.1c.6,0,1.1,.1,1.4,.3c.4,.2,.7,.5,.9,.9c.3,.4,.4,.8,.4,1.3c0,.5,-.1,.9,-.3,1.2c-.2,.4,-.5,.7,-.9,.9c.5,.2,.9,.5,1.2,.9c.2,.4,.4,.9,.4,1.5c0,.6,-.2,1.1,-.4,1.6c-.3,.4,-.6,.8,-1,1c-.4,.2,-1,.3,-1.7,.3Z" class="g3_44"/>
<path d="M656,1038.3h1v5.5l2.8,-5.5h1v7.2h-1V1040l-2.7,5.5H656Z" class="g3_44"/>
<path d="M664,1039.3c-.1,2.3,-.4,4.1,-.9,5.2h3.1v-5.2Zm-.9,-1h4.1v6.2h.7v3H667v-2h-4.6v2h-.8v-3h.5c.7,-1.2,1,-3.2,1,-6.2Z" class="g3_44"/>
<path d="M675.9,1042.8l1,.2c-.1,.9,-.4,1.5,-.8,2c-.5,.4,-1,.6,-1.7,.6c-.7,0,-1.4,-.3,-1.9,-.9c-.5,-.6,-.7,-1.6,-.7,-2.8c0,-1.3,.2,-2.2,.7,-2.8c.5,-.6,1.2,-1,2,-1c.6,0,1.1,.2,1.5,.6c.4,.4,.7,1,.8,1.7l-1,.2c0,-.5,-.2,-.9,-.4,-1.1c-.3,-.2,-.6,-.4,-.9,-.4c-.5,0,-.9,.3,-1.2,.7c-.3,.4,-.5,1.1,-.5,2.1c0,.9,.2,1.6,.5,2.1c.3,.4,.7,.6,1.2,.6c.3,0,.7,-.1,.9,-.4c.3,-.3,.5,-.7,.5,-1.4Z" class="g3_44"/>
<path d="M678.3,1038.3h4.6v7.2h-1v-6.2h-2.6v3.6c0,.8,-.1,1.3,-.1,1.6c-.1,.3,-.2,.5,-.4,.7c-.2,.2,-.5,.3,-.9,.3c-.2,0,-.5,0,-.7,0v-1c.4,0,.7,-.1,.8,-.1c.1,0,.1,-.1,.2,-.2c0,-.1,.1,-.5,.1,-1.2Z" class="g3_44"/>
<path d="M688.1,1041.9c-.4,.2,-.9,.3,-1.6,.4c-.4,.1,-.7,.2,-.9,.3c-.2,.1,-.3,.2,-.4,.4c-.1,.1,-.1,.3,-.1,.6c0,.3,.1,.6,.3,.8c.2,.2,.5,.3,.9,.3c.3,0,.7,-.1,.9,-.3c.3,-.2,.6,-.4,.7,-.7c.1,-.3,.2,-.8,.2,-1.4Zm.1,2.7c-.3,.3,-.7,.6,-1,.8c-.4,.1,-.8,.2,-1.2,.2c-.6,0,-1.1,-.1,-1.4,-.5c-.4,-.4,-.6,-.9,-.6,-1.5c0,-.4,.1,-.8,.3,-1.1c.1,-.3,.4,-.6,.7,-.8c.3,-.1,.7,-.3,1.3,-.4c.8,-.1,1.4,-.2,1.8,-.4v-.3c0,-.5,-.1,-.8,-.2,-1c-.3,-.3,-.7,-.4,-1.2,-.4c-.4,0,-.8,0,-1,.2c-.3,.2,-.4,.6,-.5,1.1l-1,-.1c.1,-.8,.4,-1.4,.8,-1.7c.5,-.4,1.1,-.6,1.9,-.6c.6,0,1.1,.2,1.4,.4c.4,.2,.6,.5,.7,.9c.1,.3,.1,.8,.1,1.5v1.6c0,1.1,0,1.8,.1,2.1c0,.3,.1,.6,.2,.9h-1c-.1,-.3,-.2,-.6,-.2,-.9Z" class="g3_44"/>
<path d="M692.3,1039.3c-.1,2.3,-.4,4.1,-.9,5.2h3.2v-5.2Zm-.8,-1h4.1v6.2h.6v3h-.8v-2h-4.6v2h-.9v-3h.6c.6,-1.2,1,-3.2,1,-6.2Z" class="g3_44"/>
<path d="M697.9,1041.9c0,.9,.2,1.6,.5,2.1c.4,.4,.8,.6,1.3,.6c.4,0,.9,-.2,1.2,-.6c.3,-.5,.5,-1.2,.5,-2.1c0,-.9,-.2,-1.6,-.5,-2.1c-.4,-.4,-.8,-.6,-1.3,-.6c-.4,0,-.8,.2,-1.2,.6c-.3,.5,-.5,1.2,-.5,2.1m-1,0c0,-1.2,.3,-2.2,.8,-2.8c.5,-.6,1.2,-1,2,-1c.7,0,1.4,.4,1.9,1c.5,.6,.8,1.5,.8,2.7c0,1.3,-.2,2.3,-.8,2.9c-.5,.6,-1.1,.9,-1.9,.9c-.8,0,-1.5,-.3,-2,-.9c-.5,-.6,-.8,-1.6,-.8,-2.8Z" class="g3_44"/>
<path d="M704.1,1038.3h4.6v7.2h-1v-6.2h-2.6v3.6c0,.8,0,1.3,-.1,1.6c0,.3,-.2,.5,-.4,.7c-.2,.2,-.5,.3,-.8,.3c-.3,0,-.5,0,-.8,0v-1c.4,0,.7,-.1,.8,-.1c.1,0,.2,-.1,.2,-.2c.1,-.1,.1,-.5,.1,-1.2Z" class="g3_44"/>
<path d="M710.9,1041.2h3.3c0,-.6,-.2,-1.1,-.4,-1.4c-.3,-.4,-.7,-.7,-1.2,-.7c-.5,0,-.8,.2,-1.1,.6c-.4,.4,-.5,.9,-.6,1.5m3.3,2l1,.1c-.1,.8,-.4,1.4,-.9,1.8c-.4,.3,-1,.5,-1.7,.5c-.8,0,-1.5,-.3,-2,-.9c-.5,-.6,-.8,-1.6,-.8,-2.7c0,-1.3,.3,-2.2,.8,-2.9c.5,-.6,1.2,-1,2,-1c.8,0,1.4,.4,1.9,1c.5,.6,.8,1.6,.8,2.8v.3h-4.4c0,.8,.2,1.4,.5,1.8c.4,.4,.8,.6,1.2,.6c.8,0,1.3,-.5,1.6,-1.4Z" class="g3_44"/>
<path d="M718.1,1039.3c-.1,2.3,-.3,4.1,-.9,5.2h3.2v-5.2Zm-.8,-1h4.1v6.2h.6v3h-.8v-2h-4.6v2h-.8v-3h.5c.7,-1.2,1,-3.2,1,-6.2Z" class="g3_44"/>
<path d="M585.5,859.8v148.1" class="g4_44"/>
<path fill-rule="evenodd" d="M585.5,854.9l4.2,9.8c-2.8,-1.4,-5.6,-1.4,-8.4,0Z" class="g3_44"/>
<path d="M579.5,1003.7H802.8" class="g4_44"/>
<path fill-rule="evenodd" d="M807.7,1003.7l-9.8,-4.2c1.4,2.8,1.4,5.5,0,8.3Z" class="g3_44"/>
<path d="M579.5,878.3H795.6M579.5,893.9H795.6M579.5,909.6H795.6M579.5,925.3H795.6M579.5,941H795.6M579.5,956.6H795.6M579.5,972.3H795.6M579.5,988H795.6" class="g5_44"/>
<path d="M773,1001.8v3.7m-47,-3.7v3.7m-47,-3.7v3.7m-47,-3.7v3.7" class="g4_44"/>
<path d="M594.4,1007.3h1.1v8.7h2.7v-8.7h1v8.7h2.7v-8.7H603v9.9h-8.6Z" class="g3_44"/>
<path d="M605.3,1013.6c0,1,.1,1.6,.5,2.1c.3,.4,.7,.7,1.2,.7c.5,0,.9,-.3,1.2,-.7c.4,-.5,.5,-1.2,.5,-2.1c0,-.9,-.1,-1.6,-.5,-2c-.3,-.5,-.7,-.7,-1.2,-.7c-.5,0,-.9,.2,-1.2,.7c-.4,.4,-.5,1.1,-.5,2m-1,0c0,-1.2,.2,-2.1,.7,-2.8c.6,-.6,1.2,-.9,2,-.9c.8,0,1.5,.3,2,.9c.5,.7,.8,1.6,.8,2.8c0,1.2,-.3,2.2,-.8,2.8c-.5,.7,-1.2,1,-2,1c-.8,0,-1.4,-.3,-2,-1c-.5,-.6,-.7,-1.5,-.7,-2.8Z" class="g3_44"/>
<path d="M610.9,1010h1v3.1c.4,0,.6,0,.7,-.2c.1,-.1,.3,-.6,.6,-1.3c.2,-.6,.3,-.9,.5,-1.1c.1,-.2,.2,-.3,.4,-.4c.1,0,.4,-.1,.8,-.1h.1v1h-.3c-.2,0,-.3,.1,-.4,.2c-.1,0,-.2,.2,-.2,.4c-.3,.7,-.4,1.2,-.6,1.4c-.1,.2,-.3,.4,-.6,.5c.4,.2,.8,.7,1.3,1.5l1.1,2.2h-1.1l-1.1,-2.2c-.2,-.5,-.4,-.8,-.6,-.9c-.1,-.1,-.3,-.2,-.6,-.2v3.3h-1Z" class="g3_44"/>
<path d="M616.5,1013.6c0,1,.2,1.6,.5,2.1c.4,.4,.8,.7,1.3,.7c.5,0,.9,-.3,1.2,-.7c.3,-.5,.5,-1.2,.5,-2.1c0,-.9,-.2,-1.6,-.5,-2c-.3,-.5,-.8,-.7,-1.3,-.7c-.4,0,-.8,.2,-1.2,.7c-.3,.4,-.5,1.1,-.5,2m-1,0c0,-1.2,.3,-2.1,.8,-2.8c.5,-.6,1.2,-.9,2,-.9c.8,0,1.4,.3,1.9,.9c.6,.7,.8,1.6,.8,2.8c0,1.2,-.2,2.2,-.8,2.8c-.5,.7,-1.1,1,-1.9,1c-.8,0,-1.5,-.3,-2,-1c-.5,-.6,-.8,-1.5,-.8,-2.8Z" class="g3_44"/>
<path d="M621.8,1013h3.1v1.2h-3.1V1013Z" class="g3_44"/>
<path d="M594.7,1022.6h4.6v7.1h-1v-6.1h-2.6v3.5c0,.9,0,1.4,-.1,1.7c0,.3,-.2,.5,-.4,.7c-.2,.2,-.5,.3,-.8,.3c-.3,0,-.5,0,-.8,-.1v-1c.4,0,.7,0,.8,0c.1,-.1,.2,-.1,.2,-.2c.1,-.1,.1,-.5,.1,-1.2Z" class="g3_44"/>
<path d="M604.5,1026.1c-.3,.2,-.9,.4,-1.6,.5c-.4,.1,-.7,.2,-.9,.2c-.1,.1,-.3,.3,-.4,.4c0,.2,-.1,.4,-.1,.6c0,.4,.1,.6,.3,.8c.2,.2,.5,.3,.9,.3c.4,0,.7,-.1,1,-.2c.3,-.2,.5,-.5,.6,-.8c.2,-.3,.2,-.7,.2,-1.3Zm.1,2.7c-.3,.4,-.7,.7,-1,.8c-.4,.2,-.8,.3,-1.1,.3c-.7,0,-1.1,-.2,-1.5,-.6c-.4,-.3,-.5,-.8,-.5,-1.4c0,-.5,0,-.8,.2,-1.1c.2,-.4,.4,-.6,.7,-.8c.3,-.2,.8,-.3,1.4,-.4c.8,-.1,1.4,-.3,1.7,-.4v-.3c0,-.5,0,-.9,-.2,-1.1c-.3,-.2,-.6,-.4,-1.2,-.4c-.4,0,-.8,.1,-1,.3c-.2,.2,-.4,.5,-.5,1.1l-1,-.2c.2,-.8,.4,-1.3,.9,-1.7c.4,-.3,1,-.5,1.8,-.5c.6,0,1.1,.1,1.4,.3c.4,.3,.6,.6,.7,.9c.1,.4,.1,.9,.1,1.5v1.6c0,1.2,.1,1.9,.1,2.2c.1,.3,.1,.6,.3,.8h-1.1c-.1,-.2,-.1,-.5,-.2,-.9Z" class="g3_44"/>
<path d="M608.7,1023.6c0,2.3,-.3,4,-.9,5.1H611v-5.1Zm-.8,-1H612v6.1h.6v3.1h-.8v-2.1h-4.6v2.1h-.8v-3.1h.5c.7,-1.1,1,-3.2,1,-6.1Z" class="g3_44"/>
<path d="M614.3,1026.1c0,1,.2,1.7,.6,2.1c.3,.5,.7,.7,1.2,.7c.5,0,.9,-.2,1.2,-.7c.3,-.4,.5,-1.1,.5,-2.1c0,-.9,-.2,-1.6,-.5,-2c-.3,-.5,-.7,-.7,-1.2,-.7c-.5,0,-.9,.2,-1.3,.7c-.3,.4,-.5,1.1,-.5,2m-1,0c0,-1.2,.3,-2.1,.8,-2.8c.5,-.6,1.2,-.9,2,-.9c.8,0,1.4,.3,1.9,.9c.6,.7,.8,1.6,.8,2.8c0,1.3,-.2,2.2,-.7,2.8c-.6,.7,-1.2,1,-2,1c-.8,0,-1.5,-.3,-2,-1c-.5,-.6,-.8,-1.5,-.8,-2.8Z" class="g3_44"/>
<path d="M621,1028.7h1.3c.6,0,1,-.1,1.2,-.2c.2,-.2,.3,-.5,.3,-.8c0,-.4,-.1,-.7,-.3,-.9c-.2,-.1,-.7,-.2,-1.3,-.2H621Zm0,-3.1h1.1c.4,0,.7,0,.9,-.1c.1,-.1,.3,-.2,.4,-.3c.1,-.2,.2,-.4,.2,-.6c0,-.4,-.1,-.7,-.4,-.8c-.2,-.2,-.6,-.2,-1.1,-.2H621Zm-1,-3h2.3c.5,0,.9,0,1.2,.1c.3,.1,.5,.3,.8,.6c.2,.3,.3,.7,.3,1.2c0,.7,-.2,1.2,-.7,1.5c.6,.3,.9,.9,.9,1.7c0,.6,-.1,1.1,-.4,1.4c-.4,.4,-.9,.6,-1.7,.6H620Z" class="g3_44"/>
<path d="M644.6,1013.7l1.1,.4c-.3,1.1,-.7,1.9,-1.3,2.5c-.6,.5,-1.3,.8,-2.2,.8c-.7,0,-1.4,-.2,-1.9,-.6c-.5,-.3,-1,-.9,-1.3,-1.7c-.3,-.8,-.5,-1.8,-.5,-2.9c0,-1.1,.2,-2,.5,-2.8c.3,-.7,.8,-1.3,1.4,-1.7c.6,-.4,1.2,-.6,1.9,-.6c.8,0,1.5,.3,2,.8c.6,.5,1,1.2,1.2,2.1l-1,.3c-.4,-1.3,-1.1,-2,-2.2,-2c-.5,0,-1,.1,-1.4,.4c-.4,.3,-.7,.7,-.9,1.3c-.3,.6,-.4,1.3,-.4,2.2c0,1.3,.2,2.4,.7,3c.5,.7,1.1,1.1,1.9,1.1c.6,0,1.1,-.2,1.5,-.7c.5,-.4,.7,-1,.9,-1.9Z" class="g3_44"/>
<path d="M646.9,1010h1.6l1.5,5.8l1.7,-5.8h1.5v7.2h-1v-5.8l-1.8,5.8h-.9l-1.6,-6v6h-1Z" class="g3_44"/>
<path d="M655.4,1012.9h3.3c-.1,-.6,-.2,-1,-.4,-1.4c-.3,-.4,-.7,-.6,-1.2,-.6c-.5,0,-.9,.2,-1.2,.5c-.3,.4,-.5,.9,-.5,1.5m3.3,2l1,.2c-.2,.7,-.5,1.3,-.9,1.7c-.5,.4,-1,.6,-1.7,.6c-.8,0,-1.5,-.3,-2,-1c-.5,-.6,-.8,-1.5,-.8,-2.7c0,-1.3,.3,-2.2,.8,-2.8c.5,-.7,1.2,-1,2,-1c.7,0,1.4,.3,1.9,.9c.5,.7,.7,1.6,.7,2.8v.3h-4.4c.1,.8,.3,1.4,.6,1.9c.3,.4,.7,.6,1.2,.6c.8,0,1.3,-.5,1.6,-1.5Z" class="g3_44"/>
<path d="M660.4,1010h4.8v1h-1.9v6.2h-1V1011h-1.9Z" class="g3_44"/>
<path d="M669.9,1013.6c-.4,.2,-.9,.3,-1.6,.5c-.4,0,-.7,.1,-.9,.2c-.2,.1,-.3,.2,-.4,.4c-.1,.2,-.1,.4,-.1,.6c0,.3,.1,.6,.3,.8c.2,.2,.5,.3,.9,.3c.3,0,.7,-.1,.9,-.3c.3,-.1,.5,-.4,.7,-.7c.1,-.3,.2,-.8,.2,-1.3Zm.1,2.7c-.3,.4,-.7,.6,-1,.8c-.4,.2,-.8,.3,-1.2,.3c-.6,0,-1.1,-.2,-1.4,-.6c-.4,-.3,-.6,-.8,-.6,-1.5c0,-.4,.1,-.8,.3,-1.1c.1,-.3,.4,-.5,.7,-.7c.3,-.2,.7,-.3,1.3,-.4c.8,-.1,1.4,-.3,1.8,-.4v-.3c0,-.5,-.1,-.9,-.2,-1.1c-.3,-.3,-.7,-.4,-1.2,-.4c-.5,0,-.8,.1,-1,.3c-.3,.2,-.4,.5,-.5,1.1l-1,-.2c.1,-.8,.4,-1.3,.8,-1.7c.5,-.3,1.1,-.5,1.9,-.5c.6,0,1.1,.1,1.4,.3c.4,.3,.6,.5,.7,.9c.1,.3,.1,.8,.1,1.5v1.6c0,1.1,0,1.9,.1,2.1c0,.3,.1,.6,.2,.9h-1c-.1,-.2,-.2,-.5,-.2,-.9Z" class="g3_44"/>
<path d="M672.1,1013h3v1.2h-3V1013Z" class="g3_44"/>
<path d="M648.2,1022.6h1v2.9h2.7v-2.9h1v7.1h-1v-3.1h-2.7v3.1h-1Z" class="g3_44"/>
<path d="M655.1,1026.1c0,1,.1,1.7,.5,2.1c.3,.5,.7,.7,1.2,.7c.5,0,.9,-.2,1.2,-.7c.4,-.4,.5,-1.1,.5,-2.1c0,-.9,-.1,-1.6,-.5,-2c-.3,-.5,-.7,-.7,-1.2,-.7c-.5,0,-.9,.2,-1.2,.7c-.4,.4,-.5,1.1,-.5,2m-1,0c0,-1.2,.2,-2.1,.7,-2.8c.6,-.6,1.2,-.9,2,-.9c.8,0,1.4,.3,2,.9c.5,.7,.8,1.6,.8,2.8c0,1.3,-.3,2.2,-.8,2.8c-.5,.7,-1.2,1,-2,1c-.8,0,-1.4,-.3,-2,-1c-.5,-.6,-.7,-1.5,-.7,-2.8Z" class="g3_44"/>
<path d="M661.7,1028.7h1.4c.5,0,.9,-.1,1.1,-.2c.2,-.2,.3,-.5,.3,-.8c0,-.4,-.1,-.7,-.3,-.9c-.2,-.1,-.6,-.2,-1.2,-.2h-1.3Zm0,-3.1h1.1c.4,0,.7,0,.9,-.1c.1,-.1,.3,-.2,.4,-.3c.1,-.2,.2,-.4,.2,-.6c0,-.4,-.1,-.7,-.3,-.8c-.3,-.2,-.6,-.2,-1.2,-.2h-1.1Zm-1,-3H663c.6,0,1,0,1.2,.1c.3,.1,.6,.3,.8,.6c.2,.3,.3,.7,.3,1.2c0,.7,-.2,1.2,-.7,1.5c.7,.3,1,.9,1,1.7c0,.6,-.2,1.1,-.5,1.4c-.3,.4,-.9,.6,-1.7,.6h-2.7Z" class="g3_44"/>
<path d="M688,1017.2h-1.1v-9.9h6.4v9.9h-1.1v-8.7H688Z" class="g3_44"/>
<path d="M695.4,1010h4.7v7.2h-1V1011h-2.7v3.6c0,.8,0,1.4,0,1.7c-.1,.2,-.2,.5,-.4,.7c-.2,.2,-.5,.3,-.9,.3c-.2,0,-.5,-.1,-.8,-.1v-1c.5,0,.8,0,.9,-.1c0,0,.1,-.1,.2,-.2c0,-.1,0,-.5,0,-1.1Z" class="g3_44"/>
<path d="M702.2,1013.6c0,1,.1,1.6,.5,2.1c.3,.4,.7,.7,1.2,.7c.5,0,.9,-.3,1.2,-.7c.4,-.5,.6,-1.2,.6,-2.1c0,-.9,-.2,-1.6,-.6,-2c-.3,-.5,-.7,-.7,-1.2,-.7c-.5,0,-.9,.2,-1.2,.7c-.4,.4,-.5,1.1,-.5,2m-1,0c0,-1.2,.2,-2.1,.7,-2.8c.6,-.6,1.2,-.9,2,-.9c.8,0,1.5,.3,2,.9c.5,.7,.8,1.6,.8,2.8c0,1.2,-.3,2.2,-.8,2.8c-.5,.7,-1.2,1,-2,1c-.8,0,-1.4,-.3,-2,-1c-.5,-.6,-.7,-1.5,-.7,-2.8Z" class="g3_44"/>
<path d="M709.5,1011c-.1,2.4,-.4,4.1,-.9,5.2h3.1V1011Zm-.9,-1h4.1v6.2h.7v3h-.8v-2h-4.7v2h-.8v-3h.5c.7,-1.1,1.1,-3.2,1,-6.2Z" class="g3_44"/>
<path d="M715.1,1013.6c0,1,.2,1.6,.5,2.1c.3,.4,.8,.7,1.3,.7c.4,0,.8,-.3,1.2,-.7c.3,-.5,.5,-1.2,.5,-2.1c0,-.9,-.2,-1.6,-.5,-2c-.4,-.5,-.8,-.7,-1.3,-.7c-.5,0,-.9,.2,-1.2,.7c-.3,.4,-.5,1.1,-.5,2m-1,0c0,-1.2,.2,-2.1,.8,-2.8c.5,-.6,1.1,-.9,1.9,-.9c.8,0,1.5,.3,2,.9c.5,.7,.8,1.6,.8,2.8c0,1.2,-.3,2.2,-.8,2.8c-.5,.7,-1.2,1,-2,1c-.8,0,-1.4,-.3,-1.9,-1c-.6,-.6,-.8,-1.5,-.8,-2.8Z" class="g3_44"/>
<path d="M721.8,1016.2h1.3c.5,0,.9,-.1,1.1,-.2c.3,-.2,.4,-.5,.4,-.9c0,-.3,-.1,-.6,-.4,-.8c-.2,-.2,-.6,-.2,-1.2,-.2h-1.2Zm0,-3.1h1c.4,0,.7,-.1,.9,-.1c.2,-.1,.3,-.2,.4,-.3c.2,-.2,.2,-.4,.2,-.7c0,-.3,-.1,-.6,-.3,-.7c-.2,-.2,-.6,-.3,-1.1,-.3h-1.1Zm-1,-3.1h2.3c.5,0,.9,.1,1.2,.2c.2,.1,.5,.3,.7,.6c.2,.3,.3,.7,.3,1.1c0,.7,-.2,1.2,-.7,1.6c.7,.3,1,.8,1,1.7c0,.6,-.2,1,-.5,1.4c-.3,.4,-.9,.6,-1.7,.6h-2.6Z" class="g3_44"/>
<path d="M734.7,1012.4c0,1.2,.3,2.2,.8,2.9c.6,.6,1.2,1,2,1c.8,0,1.4,-.4,2,-1.1c.5,-.6,.8,-1.6,.8,-3c0,-.8,-.2,-1.6,-.4,-2.2c-.3,-.6,-.6,-1,-1,-1.3c-.4,-.3,-.9,-.4,-1.4,-.4c-.8,0,-1.5,.3,-2,1c-.5,.7,-.8,1.7,-.8,3.1m-1.1,0c0,-1.7,.4,-3,1.1,-3.9c.8,-.9,1.7,-1.4,2.8,-1.4c.7,0,1.4,.2,2,.6c.5,.4,1,1,1.4,1.8c.3,.8,.5,1.7,.5,2.8c0,1.4,-.4,2.6,-1,3.6c-.8,1,-1.7,1.5,-2.9,1.5c-1.2,0,-2.2,-.5,-2.9,-1.6c-.7,-.9,-1,-2.1,-1,-3.4Z" class="g3_44"/>
<path d="M743.5,1013.7c0,.9,.1,1.6,.5,2c.3,.5,.6,.7,1.1,.7c.4,0,.8,-.3,1.1,-.7c.3,-.5,.5,-1.2,.5,-2.1c0,-1,-.2,-1.6,-.5,-2.1c-.3,-.4,-.7,-.7,-1.1,-.7c-.4,0,-.8,.3,-1.1,.8c-.3,.4,-.5,1.1,-.5,2.1m-.9,6.3v-10h.9v1c.2,-.4,.5,-.7,.7,-.9c.3,-.1,.6,-.2,1,-.2c.5,0,.9,.1,1.2,.4c.4,.3,.7,.7,1,1.2c.2,.6,.3,1.3,.3,2.1c0,1.2,-.3,2.1,-.8,2.8c-.5,.6,-1.1,1,-1.8,1c-.3,0,-.6,-.1,-.8,-.3c-.3,-.1,-.5,-.3,-.7,-.6v3.5Z" class="g3_44"/>
<path d="M749.6,1012.9h3.3c0,-.6,-.2,-1,-.4,-1.4c-.3,-.4,-.7,-.6,-1.2,-.6c-.4,0,-.8,.2,-1.1,.5c-.4,.4,-.5,.9,-.6,1.5m3.3,2l1,.2c-.1,.7,-.4,1.3,-.9,1.7c-.4,.4,-1,.6,-1.7,.6c-.8,0,-1.5,-.3,-2,-1c-.5,-.6,-.7,-1.5,-.7,-2.7c0,-1.3,.2,-2.2,.7,-2.8c.6,-.7,1.2,-1,2,-1c.8,0,1.4,.3,1.9,.9c.5,.7,.8,1.6,.8,2.8v.3h-4.4c0,.8,.2,1.4,.5,1.9c.4,.4,.8,.6,1.3,.6c.7,0,1.2,-.5,1.5,-1.5Z" class="g3_44"/>
<path d="M754.5,1017.2l2.2,-3.7l-2,-3.5H756l.9,1.7c.1,.3,.3,.6,.4,.8c.1,-.3,.3,-.5,.4,-.8l1,-1.7h1.2l-2,3.4l2.1,3.8h-1.2l-1.2,-2.2l-.3,-.6l-1.5,2.8Z" class="g3_44"/>
<path d="M761.5,1013.6c0,1,.2,1.6,.5,2.1c.4,.4,.8,.7,1.3,.7c.4,0,.8,-.3,1.2,-.7c.3,-.5,.5,-1.2,.5,-2.1c0,-.9,-.2,-1.6,-.5,-2c-.4,-.5,-.8,-.7,-1.3,-.7c-.4,0,-.9,.2,-1.2,.7c-.3,.4,-.5,1.1,-.5,2m-1,0c0,-1.2,.3,-2.1,.8,-2.8c.5,-.6,1.2,-.9,2,-.9c.7,0,1.4,.3,1.9,.9c.5,.7,.8,1.6,.8,2.8c0,1.2,-.3,2.2,-.8,2.8c-.5,.7,-1.2,1,-1.9,1c-.8,0,-1.5,-.3,-2,-1c-.5,-.6,-.8,-1.5,-.8,-2.8Z" class="g3_44"/>
<path d="M768.2,1016.2h1.3c.6,0,1,-.1,1.2,-.2c.2,-.2,.3,-.5,.3,-.9c0,-.3,-.1,-.6,-.4,-.8c-.2,-.2,-.6,-.2,-1.2,-.2h-1.2Zm0,-3.1h1c.5,0,.8,-.1,.9,-.1c.2,-.1,.3,-.2,.5,-.3c.1,-.2,.1,-.4,.1,-.7c0,-.3,-.1,-.6,-.3,-.7c-.2,-.2,-.6,-.3,-1.1,-.3h-1.1Zm-1,-3.1h2.3c.5,0,.9,.1,1.2,.2c.3,.1,.5,.3,.7,.6c.2,.3,.4,.7,.4,1.1c0,.7,-.3,1.2,-.7,1.6c.6,.3,.9,.8,.9,1.7c0,.6,-.1,1,-.5,1.4c-.3,.4,-.9,.6,-1.7,.6h-2.6Z" class="g3_44"/>
<path clip-path="url(#c0_44)" d="M540.9,906.9v-1h5.5l-5.5,-2.7v-1.1h7.2v1h-5.5l5.5,2.8v1Zm0,6.5v-1h6.2v-2.7h-6.2v-1h6.2V908h3.7v.8h-2.7v4.6Zm0,6.4v-1h5.5L540.9,916v-1.1h7.2v1h-5.5l5.5,2.8v1.1Zm0,6.2v-1h3v-2.7h-3v-1h7.2v1h-3.2V925h3.2v1Zm2.9,5.6v-3.3c-.6,.1,-1.1,.2,-1.4,.4c-.4,.3,-.7,.7,-.7,1.2c0,.5,.2,.9,.6,1.2c.4,.3,.9,.5,1.5,.5m2,-3.3l.1,-1c.8,.2,1.4,.5,1.8,.9c.3,.5,.5,1,.5,1.7c0,.8,-.3,1.5,-.9,2c-.6,.5,-1.6,.8,-2.7,.8c-1.3,0,-2.2,-.3,-2.9,-.8c-.6,-.5,-1,-1.2,-1,-2c0,-.7,.4,-1.4,1,-1.9c.6,-.5,1.6,-.7,2.8,-.7h.3v4.4c.8,-.1,1.4,-.3,1.8,-.6c.4,-.3,.6,-.7,.6,-1.2c0,-.8,-.5,-1.3,-1.4,-1.6m-4.9,10.3v-1h1.4c.6,0,1,0,1.3,-.1c.2,0,.5,-.2,.6,-.4c.2,-.2,.3,-.5,.3,-.8c0,-.4,-.1,-.9,-.3,-1.5h-3.3v-1h7.2v1h-2.9c.2,.6,.3,1.2,.3,1.7c0,.6,-.2,1.1,-.7,1.5c-.4,.4,-1.1,.6,-2,.6Zm9.9,5.4l-1.1,.1c.1,-.3,.1,-.4,.1,-.6c0,-.2,0,-.4,-.1,-.5c-.1,-.2,-.2,-.3,-.4,-.4c-.1,0,-.5,-.1,-1.2,-.4l-7.2,2.3v-1.1l4.2,-1.2c.5,-.2,1,-.3,1.6,-.5c-.5,-.1,-1.1,-.2,-1.6,-.4l-4.2,-1.2v-1l7.3,2.2c.9,.3,1.6,.5,1.9,.7c.3,.2,.5,.4,.7,.6c.1,.2,.2,.4,.2,.7c0,.2,-.1,.4,-.2,.7m-12.6,6v-.7c.6,.1,1,.3,1.3,.6c.3,.3,.4,.6,.4,1.1c0,.4,-.1,.8,-.4,1.1c-.3,.3,-.7,.5,-1.3,.5v-.7c.6,-.1,.9,-.4,.9,-.9c0,-.3,-.1,-.5,-.2,-.7c-.2,-.1,-.4,-.2,-.7,-.3m2.7,3.4v-1h5.5l-5.5,-2.8v-1.1h7.2v1h-5.5l5.5,2.8v1.1Zm3.6,5.6c.9,0,1.6,-.1,2.1,-.5c.4,-.3,.6,-.7,.6,-1.2c0,-.5,-.2,-.9,-.6,-1.2c-.5,-.4,-1.2,-.5,-2.1,-.5c-.9,0,-1.6,.1,-2.1,.5c-.4,.3,-.7,.7,-.7,1.2c0,.5,.3,.9,.7,1.2c.5,.4,1.2,.5,2.1,.5m0,1.1c-1.2,0,-2.2,-.3,-2.8,-.8c-.6,-.5,-1,-1.2,-1,-2c0,-.8,.4,-1.4,1,-2c.6,-.5,1.5,-.8,2.7,-.8c1.3,0,2.3,.3,2.9,.8c.6,.5,.9,1.2,.9,2c0,.8,-.3,1.4,-.9,2c-.6,.5,-1.6,.8,-2.8,.8m0,5c1,0,1.6,-.2,2.1,-.5c.4,-.3,.6,-.7,.6,-1.1c0,-.4,-.2,-.8,-.6,-1.1c-.5,-.3,-1.2,-.5,-2.2,-.5c-.9,0,-1.6,.2,-2,.5c-.5,.3,-.7,.7,-.7,1.1c0,.4,.2,.8,.7,1.1c.5,.3,1.2,.5,2.1,.5m6.3,.9h-9.9v-.9h.9c-.4,-.2,-.6,-.5,-.8,-.8c-.2,-.2,-.3,-.6,-.3,-.9c0,-.5,.2,-.9,.5,-1.3c.2,-.3,.6,-.6,1.2,-.9c.6,-.2,1.2,-.3,2,-.3c1.2,0,2.2,.2,2.8,.8c.7,.5,1,1.1,1,1.8c0,.3,0,.5,-.2,.8c-.2,.3,-.4,.5,-.7,.7h3.5Zm-3.8,6.2V970c0,-.5,-.2,-1,-.4,-1.3c-.3,-.3,-.7,-.4,-1.4,-.4c-.4,0,-.7,.1,-1,.2c-.3,.2,-.5,.4,-.5,.7c-.1,.3,-.2,.8,-.2,1.5v1.5Zm-8.8,1V968h1.1v4.2h3.1v-2c0,-.7,.1,-1.3,.2,-1.7c.2,-.4,.5,-.7,1,-1c.4,-.3,1,-.4,1.6,-.4c.6,0,1.1,.1,1.6,.4c.4,.2,.8,.5,1,.9c.2,.4,.3,.9,.3,1.7v3.1Z" class="g3_44"/>
<path d="M568.3,1003.7c0,1.6,.2,2.7,.6,3.2c.4,.5,.9,.8,1.4,.8c.6,0,1,-.3,1.4,-.8c.4,-.5,.6,-1.6,.6,-3.2c0,-1.7,-.2,-2.7,-.6,-3.3c-.4,-.5,-.8,-.8,-1.4,-.8c-.6,0,-1,.3,-1.3,.7c-.5,.6,-.7,1.7,-.7,3.4m-1.2,0c0,-1.2,.1,-2.1,.3,-2.9c.3,-.7,.6,-1.2,1.1,-1.6c.5,-.4,1.1,-.6,1.8,-.6c.5,0,1,.1,1.4,.3c.4,.2,.7,.6,1,1c.3,.4,.5,.8,.6,1.4c.2,.6,.2,1.4,.2,2.4c0,1.1,-.1,2.1,-.3,2.8c-.3,.7,-.6,1.2,-1.1,1.6c-.5,.4,-1.1,.6,-1.8,.6c-.9,0,-1.7,-.3,-2.2,-1c-.7,-.8,-1,-2.2,-1,-4Z" class="g3_44"/>
<path d="M564,992.9h-1.2v-7.8c-.3,.3,-.7,.6,-1.2,.9c-.5,.2,-.9,.5,-1.3,.6v-1.2c.7,-.3,1.3,-.7,1.8,-1.1c.5,-.5,.9,-.9,1.1,-1.4h.8Z" class="g3_44"/>
<path d="M567.1,990.3l1.3,-.1c.1,.6,.3,1.1,.6,1.4c.4,.3,.8,.4,1.3,.4c.6,0,1,-.2,1.5,-.6c.4,-.5,.6,-1,.6,-1.8c0,-.7,-.2,-1.2,-.6,-1.6c-.4,-.4,-.9,-.6,-1.6,-.6c-.3,0,-.7,.1,-1,.3c-.3,.1,-.6,.4,-.8,.6l-1.1,-.1l1,-5.1h4.9v1.2h-4l-.5,2.6c.6,-.4,1.2,-.6,1.9,-.6c.8,0,1.6,.3,2.2,.9c.6,.6,.9,1.4,.9,2.3c0,.9,-.3,1.7,-.8,2.3c-.7,.8,-1.5,1.2,-2.6,1.2c-.9,0,-1.7,-.2,-2.2,-.7c-.6,-.5,-.9,-1.2,-1,-2Z" class="g3_44"/>
<path d="M559.4,974.6l1.2,-.2c.2,.7,.4,1.2,.7,1.5c.4,.3,.8,.5,1.3,.5c.5,0,1,-.2,1.4,-.6c.4,-.4,.6,-.9,.6,-1.5c0,-.6,-.2,-1,-.5,-1.4c-.4,-.3,-.9,-.5,-1.4,-.5c-.3,0,-.6,0,-.9,.1l.1,-1.1c.1,.1,.2,.1,.2,.1c.6,0,1,-.2,1.4,-.4c.4,-.3,.7,-.7,.7,-1.3c0,-.4,-.2,-.8,-.5,-1.1c-.3,-.3,-.7,-.4,-1.2,-.4c-.4,0,-.8,.1,-1.1,.4c-.4,.3,-.6,.8,-.7,1.3l-1.2,-.2c.2,-.8,.5,-1.4,1,-1.9c.6,-.4,1.2,-.6,2,-.6c.5,0,1,.1,1.5,.3c.5,.2,.8,.6,1,1c.3,.4,.4,.8,.4,1.2c0,.5,-.1,.8,-.3,1.2c-.3,.4,-.6,.6,-1.1,.8c.6,.2,1.1,.5,1.4,.9c.3,.4,.5,.9,.5,1.6c0,.8,-.3,1.6,-1,2.2c-.6,.6,-1.4,.9,-2.3,.9c-.9,0,-1.6,-.3,-2.2,-.8c-.6,-.5,-.9,-1.2,-1,-2Z" class="g3_44"/>
<path d="M568.3,972.3c0,1.6,.2,2.7,.6,3.3c.4,.5,.9,.8,1.4,.8c.6,0,1,-.3,1.4,-.8c.4,-.6,.6,-1.7,.6,-3.3c0,-1.6,-.2,-2.7,-.6,-3.2c-.4,-.6,-.8,-.8,-1.4,-.8c-.6,0,-1,.2,-1.3,.7c-.5,.6,-.7,1.7,-.7,3.3m-1.2,0c0,-1.2,.1,-2.1,.3,-2.8c.3,-.7,.6,-1.3,1.1,-1.7c.5,-.3,1.1,-.5,1.8,-.5c.5,0,1,.1,1.4,.3c.4,.2,.7,.5,1,.9c.3,.4,.5,.9,.6,1.5c.2,.6,.2,1.3,.2,2.3c0,1.2,-.1,2.1,-.3,2.8c-.3,.7,-.6,1.3,-1.1,1.7c-.5,.4,-1.1,.6,-1.8,.6c-.9,0,-1.7,-.4,-2.2,-1.1c-.7,-.8,-1,-2.1,-1,-4Z" class="g3_44"/>
<path d="M563.3,958v-4.4l-3.1,4.4Zm0,3.5v-2.3H559V958l4.5,-6.4h1V958h1.3v1.2h-1.3v2.3Z" class="g3_44"/>
<path d="M567.1,958.9l1.3,-.1c.1,.6,.3,1.1,.6,1.4c.4,.3,.8,.5,1.3,.5c.6,0,1,-.2,1.5,-.7c.4,-.4,.6,-1,.6,-1.7c0,-.7,-.2,-1.3,-.6,-1.7c-.4,-.4,-.9,-.6,-1.6,-.6c-.3,0,-.7,.1,-1,.3c-.3,.2,-.6,.4,-.8,.7l-1.1,-.2l1,-5h4.9v1.1h-4l-.5,2.7c.6,-.4,1.2,-.6,1.9,-.6c.8,0,1.6,.3,2.2,.9c.6,.6,.9,1.3,.9,2.3c0,.9,-.3,1.6,-.8,2.3c-.7,.8,-1.5,1.2,-2.6,1.2c-.9,0,-1.7,-.3,-2.2,-.8c-.6,-.5,-.9,-1.1,-1,-2Z" class="g3_44"/>
<path d="M560.7,942.6c0,.5,.1,.9,.3,1.2c.2,.4,.4,.7,.8,.9c.3,.2,.6,.3,1,.3c.5,0,.9,-.2,1.3,-.6c.4,-.4,.5,-1,.5,-1.7c0,-.7,-.1,-1.2,-.5,-1.6c-.4,-.4,-.8,-.6,-1.4,-.6c-.5,0,-1,.2,-1.4,.6c-.4,.4,-.6,.9,-.6,1.5m5,-4.2l-1.2,.1c-.1,-.5,-.3,-.9,-.5,-1.1c-.3,-.3,-.7,-.5,-1.2,-.5c-.4,0,-.7,.1,-1,.3c-.4,.3,-.7,.7,-.9,1.3c-.2,.5,-.3,1.3,-.3,2.2c.2,-.4,.6,-.7,1,-.9c.4,-.3,.9,-.4,1.4,-.4c.8,0,1.5,.3,2,.9c.6,.6,.9,1.4,.9,2.3c0,.7,-.2,1.2,-.4,1.8c-.3,.5,-.7,.9,-1.1,1.2c-.5,.3,-1,.4,-1.6,.4c-1,0,-1.9,-.4,-2.5,-1.1c-.6,-.7,-1,-2,-1,-3.7c0,-1.9,.4,-3.3,1.1,-4.2c.6,-.7,1.5,-1.1,2.5,-1.1c.8,0,1.4,.2,1.9,.7c.5,.4,.8,1,.9,1.8Z" class="g3_44"/>
<path d="M568.3,941c0,1.6,.2,2.7,.6,3.2c.4,.6,.9,.8,1.4,.8c.6,0,1,-.3,1.4,-.8c.4,-.5,.6,-1.6,.6,-3.2c0,-1.7,-.2,-2.7,-.6,-3.3c-.4,-.5,-.8,-.8,-1.4,-.8c-.6,0,-1,.3,-1.3,.7c-.5,.6,-.7,1.7,-.7,3.4m-1.2,0c0,-1.2,.1,-2.1,.3,-2.9c.3,-.7,.6,-1.2,1.1,-1.6c.5,-.4,1.1,-.6,1.8,-.6c.5,0,1,.1,1.4,.3c.4,.2,.7,.6,1,1c.3,.4,.5,.9,.6,1.4c.2,.6,.2,1.4,.2,2.4c0,1.1,-.1,2.1,-.3,2.8c-.3,.7,-.6,1.2,-1.1,1.6c-.5,.4,-1.1,.6,-1.8,.6c-.9,0,-1.7,-.3,-2.2,-1c-.7,-.8,-1,-2.2,-1,-4Z" class="g3_44"/>
<path d="M559.5,921.6v-1.2h6.4v1c-.6,.6,-1.3,1.5,-1.9,2.6c-.6,1.1,-1.1,2.3,-1.4,3.5c-.3,.8,-.4,1.7,-.5,2.7h-1.2c0,-.8,.1,-1.7,.4,-2.8c.3,-1.1,.7,-2.2,1.3,-3.2c.5,-1.1,1.1,-1.9,1.7,-2.6Z" class="g3_44"/>
<path d="M567.1,927.6l1.3,-.1c.1,.6,.3,1.1,.6,1.4c.4,.3,.8,.4,1.3,.4c.6,0,1,-.2,1.5,-.6c.4,-.5,.6,-1,.6,-1.8c0,-.7,-.2,-1.2,-.6,-1.6c-.4,-.4,-.9,-.6,-1.6,-.6c-.3,0,-.7,.1,-1,.3c-.3,.1,-.6,.4,-.8,.6l-1.1,-.1l1,-5.1h4.9v1.2h-4l-.5,2.6c.6,-.4,1.2,-.6,1.9,-.6c.8,0,1.6,.3,2.2,.9c.6,.6,.9,1.4,.9,2.3c0,.9,-.3,1.7,-.8,2.3c-.7,.8,-1.5,1.2,-2.6,1.2c-.9,0,-1.7,-.2,-2.2,-.7c-.6,-.5,-.9,-1.2,-1,-2Z" class="g3_44"/>
<path d="M564.6,907.8c0,-.7,-.2,-1.2,-.6,-1.6c-.4,-.4,-.8,-.6,-1.3,-.6c-.6,0,-1,.2,-1.4,.6c-.5,.5,-.7,1,-.7,1.7c0,.7,.2,1.2,.6,1.6c.4,.4,.9,.6,1.4,.6c.6,0,1.1,-.2,1.4,-.6c.4,-.4,.6,-1,.6,-1.7m-5,4.4l1.2,-.1c0,.6,.2,1,.5,1.2c.3,.2,.7,.4,1.1,.4c.4,0,.7,-.1,1,-.3c.3,-.2,.5,-.4,.7,-.7c.1,-.3,.3,-.6,.4,-1.1c.1,-.5,.2,-1,.2,-1.5c0,-.1,0,-.2,0,-.3c-.3,.4,-.6,.7,-1,1c-.4,.2,-.9,.3,-1.4,.3c-.8,0,-1.5,-.3,-2,-.8c-.6,-.6,-.9,-1.4,-.9,-2.4c0,-1,.3,-1.8,.9,-2.4c.6,-.6,1.3,-.9,2.2,-.9c.7,0,1.2,.1,1.8,.5c.5,.3,.9,.8,1.2,1.5c.3,.6,.4,1.5,.4,2.8c0,1.2,-.1,2.2,-.4,3c-.3,.7,-.7,1.3,-1.2,1.7c-.6,.4,-1.2,.6,-1.9,.6c-.8,0,-1.4,-.2,-1.9,-.7c-.5,-.4,-.8,-1,-.9,-1.8Z" class="g3_44"/>
<path d="M568.3,909.6c0,1.6,.2,2.7,.6,3.3c.4,.5,.9,.8,1.4,.8c.6,0,1,-.3,1.4,-.8c.4,-.6,.6,-1.7,.6,-3.3c0,-1.6,-.2,-2.7,-.6,-3.2c-.4,-.6,-.8,-.8,-1.4,-.8c-.6,0,-1,.2,-1.3,.7c-.5,.6,-.7,1.7,-.7,3.3m-1.2,0c0,-1.1,.1,-2.1,.3,-2.8c.3,-.7,.6,-1.3,1.1,-1.7c.5,-.3,1.1,-.5,1.8,-.5c.5,0,1,.1,1.4,.3c.4,.2,.7,.5,1,.9c.3,.4,.5,.9,.6,1.5c.2,.6,.2,1.3,.2,2.3c0,1.2,-.1,2.1,-.3,2.8c-.3,.7,-.6,1.3,-1.1,1.7c-.5,.4,-1.1,.6,-1.8,.6c-.9,0,-1.7,-.4,-2.2,-1.1c-.7,-.8,-1,-2.1,-1,-4Z" class="g3_44"/>
<path d="M556.3,898.8h-1.2v-7.7c-.3,.3,-.7,.5,-1.2,.8c-.5,.3,-.9,.5,-1.3,.6v-1.1c.7,-.3,1.3,-.7,1.8,-1.2c.5,-.4,.9,-.9,1.1,-1.3h.8Z" class="g3_44"/>
<path d="M560.6,893.9c0,1.7,.2,2.8,.6,3.3c.4,.5,.9,.8,1.4,.8c.6,0,1.1,-.3,1.4,-.8c.4,-.6,.6,-1.6,.6,-3.3c0,-1.6,-.2,-2.7,-.6,-3.2c-.3,-.5,-.8,-.8,-1.4,-.8c-.5,0,-1,.2,-1.3,.7c-.4,.6,-.7,1.7,-.7,3.3m-1.2,0c0,-1.1,.1,-2.1,.4,-2.8c.2,-.7,.6,-1.2,1,-1.6c.5,-.4,1.1,-.6,1.8,-.6c.6,0,1,.1,1.4,.3c.4,.2,.8,.5,1,.9c.3,.4,.5,.9,.6,1.5c.2,.6,.3,1.4,.3,2.3c0,1.2,-.2,2.1,-.4,2.9c-.2,.7,-.6,1.2,-1.1,1.6c-.4,.4,-1,.6,-1.8,.6c-.9,0,-1.7,-.3,-2.2,-1c-.7,-.9,-1,-2.2,-1,-4.1Z" class="g3_44"/>
<path d="M567.1,896.2l1.3,-.1c.1,.6,.3,1.1,.6,1.4c.4,.3,.8,.5,1.3,.5c.6,0,1,-.2,1.5,-.7c.4,-.4,.6,-1,.6,-1.7c0,-.7,-.2,-1.3,-.6,-1.7c-.4,-.4,-.9,-.6,-1.6,-.6c-.3,0,-.7,.1,-1,.3c-.3,.2,-.6,.4,-.8,.7l-1.1,-.2l1,-5h4.9v1.1h-4l-.5,2.7c.6,-.4,1.2,-.6,1.9,-.6c.8,0,1.6,.3,2.2,.9c.6,.6,.9,1.3,.9,2.3c0,.9,-.3,1.6,-.8,2.3c-.7,.8,-1.5,1.2,-2.6,1.2c-.9,0,-1.7,-.3,-2.2,-.8c-.6,-.5,-.9,-1.1,-1,-2Z" class="g3_44"/>
<path d="M556.3,883.2h-1.2v-7.8c-.3,.3,-.7,.6,-1.2,.8c-.5,.3,-.9,.5,-1.3,.7v-1.2c.7,-.3,1.3,-.7,1.8,-1.2c.5,-.4,.9,-.9,1.1,-1.3h.8Z" class="g3_44"/>
<path d="M565.8,882v1.2h-6.6c0,-.3,.1,-.6,.2,-.9c.2,-.4,.4,-.9,.8,-1.3c.4,-.4,.9,-.9,1.6,-1.5c1.1,-.9,1.8,-1.6,2.2,-2.1c.3,-.5,.5,-1,.5,-1.5c0,-.4,-.1,-.9,-.5,-1.2c-.3,-.3,-.8,-.5,-1.3,-.5c-.6,0,-1.1,.2,-1.4,.5c-.4,.4,-.6,.9,-.6,1.5l-1.2,-.1c.1,-1,.4,-1.7,.9,-2.2c.6,-.4,1.3,-.7,2.3,-.7c.9,0,1.7,.3,2.2,.8c.6,.5,.9,1.2,.9,2c0,.4,-.1,.7,-.3,1.1c-.1,.4,-.4,.8,-.8,1.2c-.4,.5,-1,1,-1.9,1.8c-.7,.6,-1.1,1,-1.4,1.2c-.2,.2,-.3,.5,-.5,.7Z" class="g3_44"/>
<path d="M568.3,878.3c0,1.6,.2,2.7,.6,3.2c.4,.6,.9,.8,1.4,.8c.6,0,1,-.2,1.4,-.8c.4,-.5,.6,-1.6,.6,-3.2c0,-1.7,-.2,-2.7,-.6,-3.3c-.4,-.5,-.8,-.8,-1.4,-.8c-.6,0,-1,.3,-1.3,.7c-.5,.6,-.7,1.7,-.7,3.4m-1.2,0c0,-1.2,.1,-2.1,.3,-2.9c.3,-.7,.6,-1.2,1.1,-1.6c.5,-.4,1.1,-.6,1.8,-.6c.5,0,1,.1,1.4,.3c.4,.3,.7,.6,1,1c.3,.4,.5,.9,.6,1.4c.2,.6,.2,1.4,.2,2.4c0,1.1,-.1,2.1,-.3,2.8c-.3,.7,-.6,1.2,-1.1,1.6c-.5,.4,-1.1,.6,-1.8,.6c-.9,0,-1.7,-.3,-2.2,-1c-.7,-.8,-1,-2.2,-1,-4Z" class="g3_44"/>
<path d="M577.8,1010.3c-.6,0,-1.1,.1,-1.6,.4c-.5,.2,-1,.7,-1.6,1.3c-.5,.6,-.9,1.4,-1.3,2.4c-.5,1.2,-.8,2.3,-.8,3.4c0,.7,.2,1.4,.6,2c.4,.6,1,.9,1.8,.9c.5,0,1,-.1,1.5,-.4c.5,-.2,.9,-.6,1.5,-1.2c.6,-.7,1.1,-1.7,1.6,-2.8c.4,-1.2,.6,-2.3,.6,-3.3c0,-.7,-.2,-1.3,-.6,-1.9c-.4,-.6,-.9,-.8,-1.7,-.8m.2,-.6c.8,0,1.4,.2,2,.5c.5,.3,1,.8,1.3,1.4c.3,.6,.5,1.3,.5,1.9c0,1.2,-.4,2.4,-1.1,3.7c-.6,1.3,-1.5,2.3,-2.6,3c-1.1,.7,-2.3,1,-3.4,1c-.9,0,-1.6,-.2,-2.2,-.5c-.5,-.4,-1,-.9,-1.2,-1.5c-.3,-.6,-.4,-1.2,-.4,-1.8c0,-1,.2,-2.1,.7,-3.1c.5,-1,1.1,-1.8,1.8,-2.5c.7,-.6,1.4,-1.2,2.2,-1.5c.7,-.4,1.6,-.6,2.4,-.6Z" class="g3_44"/>
<path d="M798.9,1013.6c.3,.3,.5,.6,.6,.9c.1,.2,.3,.7,.5,1.5l.7,-1.1c.2,-.2,.4,-.5,.7,-.7c.3,-.2,.5,-.4,.7,-.5c.1,0,.3,-.1,.4,-.1c.3,0,.4,.1,.6,.2c.1,.2,.2,.3,.2,.5c0,.2,0,.3,-.1,.4c-.2,.1,-.4,.2,-.5,.2c-.2,0,-.3,0,-.4,-.1c-.3,-.1,-.4,-.1,-.5,-.1c-.2,0,-.3,.1,-.5,.2c-.3,.3,-.7,.9,-1.2,1.7l.7,2.7c.1,.5,.2,.7,.2,.8c.1,.1,.2,.1,.3,.1c.1,0,.2,0,.3,-.2c.3,-.2,.6,-.5,.8,-.9l.3,.1c-.3,.7,-.8,1.2,-1.3,1.6c-.3,.2,-.5,.4,-.8,.4c-.3,0,-.5,-.2,-.7,-.5c-.1,-.3,-.3,-1.2,-.7,-2.8c-.8,1.5,-1.5,2.4,-2,2.9c-.3,.2,-.7,.4,-1,.4c-.2,0,-.4,-.1,-.6,-.3c-.1,-.1,-.1,-.2,-.1,-.4c0,-.2,0,-.4,.1,-.5c.2,-.1,.3,-.2,.5,-.2c.1,0,.3,.1,.5,.3c.2,.1,.3,.2,.3,.2c.1,0,.2,-.1,.3,-.2c.3,-.2,.6,-.6,1,-1.3c.5,-.7,.8,-1.2,.9,-1.5c-.3,-1.3,-.5,-2,-.6,-2c-.1,-.4,-.2,-.6,-.4,-.8c-.2,-.1,-.5,-.2,-.9,-.2c-.1,0,-.3,0,-.4,0v-.3Z" class="g3_44"/>
<path clip-path="url(#c0_44)" d="M571,853.9c.1,.3,.3,.6,.3,.8c.1,.3,.2,.9,.2,1.7l.4,3.9c.3,-.3,.8,-1,1.4,-1.8c.3,-.4,.7,-1,1.1,-1.7c.3,-.4,.4,-.7,.5,-.9c0,-.1,0,-.2,0,-.3c0,0,0,-.1,0,-.1c0,0,-.1,-.1,-.3,-.1c-.2,-.1,-.3,-.2,-.4,-.3c-.1,-.2,-.2,-.3,-.2,-.5c0,-.2,.1,-.4,.2,-.5c.2,-.2,.3,-.2,.5,-.2c.3,0,.5,.1,.6,.3c.2,.2,.3,.4,.3,.8c0,.4,-.2,.9,-.5,1.4c-.2,.6,-.8,1.4,-1.6,2.6c-.9,1.1,-1.9,2.3,-3.1,3.7c-.8,.9,-1.4,1.5,-1.8,1.7c-.4,.3,-.7,.4,-1,.4c-.2,0,-.3,-.1,-.4,-.2c-.2,-.1,-.2,-.3,-.2,-.5c0,-.2,.1,-.4,.2,-.5c.2,-.2,.4,-.3,.6,-.3c.1,0,.2,0,.3,.1c0,0,.1,.1,.1,.2c.1,.1,.1,.2,.2,.3h.1l.1,-.1c.3,-.2,.7,-.4,1.1,-.8c.5,-.6,.9,-1,1.1,-1.3l-.4,-5.2c-.1,-.8,-.2,-1.3,-.4,-1.5c-.1,-.2,-.4,-.3,-.7,-.3c-.2,0,-.4,0,-.6,.1l-.1,-.3Z" class="g3_44"/>
<path fill-rule="evenodd" d="M597.6,956.7h22.9v46.4H597.6V956.7Z" class="g6_44"/>
<path fill-rule="evenodd" d="M644.6,894h22.9v109.1H644.6V894Z" class="g6_44"/>
<path fill-rule="evenodd" d="M691.6,909.7h22.9v93.4H691.6V909.7Z" class="g6_44"/>
<path fill-rule="evenodd" d="M738.6,941.2h22.9v61.9H738.6V941.2Z" class="g6_44"/>
</svg>