<?xml version="1.0" encoding="UTF-8" standalone="no"?>
<!DOCTYPE svg PUBLIC "-//W3C//DTD SVG 1.1//EN"
"http://www.w3.org/Graphics/SVG/1.1/DTD/svg11.dtd">
<svg viewBox="0 0 909 1147" version="1.1" xmlns="http://www.w3.org/2000/svg" xmlns:xlink="http://www.w3.org/1999/xlink">
<defs>
<style type="text/css"><![CDATA[
.g0_38{
fill: #FAAF82;
}
.g1_38{
fill: none;
stroke: #0EA5DF;
stroke-width: 3.055;
}
.g2_38{
fill: none;
stroke: #0EA5DF;
stroke-width: 0.763;
stroke-miterlimit: 10;
}
.g3_38{
fill: none;
stroke: #000;
stroke-width: 0.763;
}
]]></style>
</defs>
<path d="M0,1131H73.8v-51.5H0V1131Z" class="g0_38"/>
<path d="M0,141.1H120.6V0H0V141.1Z" class="g0_38"/>
<path d="M71.5,166.1H833.7" class="g1_38"/>
<path d="M630.8,179h97.6m-97.2,65.7V179.4m97.2,-.4H835M728.4,244.7V179.4m106.2,65.3V179.4M630.8,245.1h97.6m-97.2,25.6V245.5m97.2,-.4H835M728.4,270.7V245.5m106.2,25.2V245.5M630.8,271.1h97.6M631.2,297V271.5m97.2,-.4H835M728.4,297V271.5M834.6,297V271.5M630.8,297.4h97.6M631.2,323V297.7m97.2,-.3H835M728.4,323V297.7M834.6,323V297.7M630.8,323.3h97.6m-97.2,25.6V323.7m97.2,-.4H835M728.4,348.9V323.7m106.2,25.2V323.7M630.8,349.3h97.6m0,0H835" class="g2_38"/>
<path d="M438.3,486.7h28.6M737.7,557h17.4m-102,42.2h17.3" class="g3_38"/>
<path d="M631.2,682.5H737.7M631.6,730.6V682.9m106.1,-.4h99.6m-99.6,48.1V682.9m99.2,47.7V682.9m-205.7,48H737.7M631.6,756.5V731.3m106.1,-.4h99.6m-99.6,25.6V731.3m99.2,25.2V731.3M631.2,756.9H737.7M631.6,782.5V757.3m106.1,-.4h99.6m-99.6,25.6V757.3m99.2,25.2V757.3M631.2,782.9H737.7M631.6,808.5V783.3m106.1,-.4h99.6m-99.6,25.6V783.3m99.2,25.2V783.3M631.2,808.9H737.7M631.6,834.5V809.3m106.1,-.4h99.6m-99.6,25.6V809.3m99.2,25.2V809.3M631.2,834.9H737.7M631.6,860.5V835.3m106.1,-.4h99.6m-99.6,25.6V835.3m99.2,25.2V835.3M631.2,860.9H737.7M631.6,886.5V861.2m106.1,-.3h99.6m-99.6,25.6V861.2m99.2,25.3V861.2M631.2,886.8H737.7M631.6,912.4V887.2m106.1,-.4h99.6m-99.6,25.6V887.2m99.2,25.2V887.2M631.2,912.8H737.7m0,0h99.6" class="g2_38"/>
<path d="M73,670.7H835.2" class="g1_38"/>
</svg>