<?xml version="1.0" encoding="UTF-8" standalone="no"?>
<!DOCTYPE svg PUBLIC "-//W3C//DTD SVG 1.1//EN"
"http://www.w3.org/Graphics/SVG/1.1/DTD/svg11.dtd">
<svg viewBox="0 0 909 1147" version="1.1" xmlns="http://www.w3.org/2000/svg" xmlns:xlink="http://www.w3.org/1999/xlink">
<defs>
<clipPath id="c0_97"><path d="M206.5,1058.4V827.8H501.3v230.6Z"/></clipPath>
<style type="text/css"><![CDATA[
.g0_97{
fill: #B6D774;
}
.g1_97{
fill: none;
stroke: #0EA5DF;
stroke-width: 3.055;
}
.g2_97{
fill: #F1E5DF;
}
.g3_97{
fill: #E7EFC1;
}
.g4_97{
fill: none;
stroke: #000;
stroke-width: 1.069;
stroke-miterlimit: 10;
}
.g5_97{
fill: none;
stroke: #000;
stroke-width: 0.763;
stroke-dasharray: 3,2;
}
.g6_97{
fill: #E8F1FA;
}
.g7_97{
fill: none;
stroke: #000;
stroke-width: 1.073;
stroke-miterlimit: 2;
}
.g8_97{
fill: #000;
}
]]></style>
</defs>
<path d="M835.8,1131h73.6v-51.5H835.8V1131Z" class="g0_97"/>
<path d="M73.6,66.5H835.8" class="g1_97"/>
<path d="M212.9,257.5h26v26h-26v-26Zm0,26h26v17.3h-26V283.5Zm181.9,0h26v17.3h-26V283.5ZM212.9,300.8h26v17.3h-26V300.8Zm181.9,0h26v17.3h-26V300.8ZM212.9,318.1h26v17.4h-26V318.1Zm181.9,0h26v17.4h-26V318.1ZM212.9,335.5h26v17.3h-26V335.5Zm181.9,0h26v17.3h-26V335.5ZM212.9,352.8h26v26h-26v-26Zm26,0h17.3v26H238.9v-26Zm17.3,0h17.3v26H256.2v-26Zm17.3,0h17.3v26H273.5v-26Zm17.3,0h17.4v26H290.8v-26Zm17.4,0h17.3v26H308.2v-26Zm17.3,0h17.3v26H325.5v-26Zm17.3,0h17.3v26H342.8v-26Zm17.3,0h17.4v26H360.1v-26Zm17.4,0h17.3v26H377.5v-26Zm17.3,0h26v26h-26v-26Z" class="g2_97"/>
<path d="M238.9,257.5h17.3v26H238.9v-26Zm17.3,0h17.3v26H256.2v-26Zm17.3,0h17.3v26H273.5v-26Zm17.3,0h17.4v26H290.8v-26Zm17.4,0h17.3v26H308.2v-26Zm17.3,0h17.3v26H325.5v-26Zm17.3,0h17.3v26H342.8v-26Zm17.3,0h17.4v26H360.1v-26Zm17.4,0h17.3v26H377.5v-26Zm17.3,0h26v26h-26v-26Z" class="g2_97"/>
<path d="M238.9,283.5h17.3v17.3H238.9V283.5Zm17.3,0h17.3v17.3H256.2V283.5Zm17.3,0h17.3v17.3H273.5V283.5Zm17.3,0h17.4v17.3H290.8V283.5Zm17.4,0h17.3v17.3H308.2V283.5Zm17.3,0h17.3v17.3H325.5V283.5Zm17.3,0h17.3v17.3H342.8V283.5Zm17.3,0h17.4v17.3H360.1V283.5Zm17.4,0h17.3v17.3H377.5V283.5ZM238.9,300.8h17.3v17.3H238.9V300.8Zm17.3,0h17.3v17.3H256.2V300.8Zm17.3,0h17.3v17.3H273.5V300.8Zm17.3,0h17.4v17.3H290.8V300.8Zm17.4,0h17.3v17.3H308.2V300.8Zm17.3,0h17.3v17.3H325.5V300.8Zm17.3,0h17.3v17.3H342.8V300.8Zm17.3,0h17.4v17.3H360.1V300.8Zm17.4,0h17.3v17.3H377.5V300.8ZM238.9,318.1h17.3v17.4H238.9V318.1Zm17.3,0h17.3v17.4H256.2V318.1Zm17.3,0h17.3v17.4H273.5V318.1Zm17.3,0h17.4v17.4H290.8V318.1Zm17.4,0h17.3v17.4H308.2V318.1Zm17.3,0h17.3v17.4H325.5V318.1Zm17.3,0h17.3v17.4H342.8V318.1Zm17.3,0h17.4v17.4H360.1V318.1Zm17.4,0h17.3v17.4H377.5V318.1ZM238.9,335.5h17.3v17.3H238.9V335.5Zm17.3,0h17.3v17.3H256.2V335.5Zm17.3,0h17.3v17.3H273.5V335.5Zm17.3,0h17.4v17.3H290.8V335.5Zm17.4,0h17.3v17.3H308.2V335.5Zm17.3,0h17.3v17.3H325.5V335.5Zm17.3,0h17.3v17.3H342.8V335.5Zm17.3,0h17.4v17.3H360.1V335.5Zm17.4,0h17.3v17.3H377.5V335.5Z" class="g3_97"/>
<path d="M238.3,283.5h17.9m-17.3,17.3V284m17.3,-.5h17.3m0,0h17.3m0,0h17.4m0,0h17.3m0,0h17.3m0,0h17.3m0,0h17.4m0,0h17.8m-.5,17.3V284M238.9,318.1V300.8m155.9,17.3V300.8M238.9,335.5V318.1m155.9,17.4V318.1M238.9,352.2V335.5m155.9,16.7V335.5M238.3,352.8h17.9m0,0h17.3m0,0h17.3m0,0h17.4m0,0h17.3m0,0h17.3m0,0h17.3m0,0h17.4m0,0h17.8M238.9,257.5h17.3m0,0h17.3m0,0h17.3m0,0h17.4m0,0h17.3m0,0h17.3m0,0h17.3m0,0h17.4m0,0h17.3m0,0h26.5m-.5,26V258m-208.4,-.5h26.5m-26,26V258m0,42.8V283.5m0,34.6V300.8m0,34.7V318.1m0,34.7V335.5m0,42.7V352.8m-.5,26h26.5m181.9,-.6V352.8m-181.9,26h17.3m0,0h17.3m0,0h17.3m0,0h17.4m0,0h17.3m0,0h17.3m0,0h17.3m0,0h17.4m0,0h17.3m0,0h26.5m-.5,-78V283.5m0,34.6V300.8m0,34.7V318.1m0,34.7V335.5" class="g4_97"/>
<path d="M394.6,283.2h26m-26,69.7h26M213.2,283.2h26m-26,69.7h26M239,283.8v-26m156,26v-26M239,378.7v-26m156,26v-26" class="g5_97"/>
<path d="M185.1,1078.3H835.8V753.5H185.1v324.8Z" class="g6_97"/>
<path d="M73.6,753.1H835.8" class="g1_97"/>
<path d="M412.6,1000.2h49.3M347.7,984h64.9v66.9M347,884.6H461.9M347,854.1v196.8M233.6,853.5H461.2v196.7H233.6V853.5Z" class="g7_97"/>
<path fill-rule="evenodd" d="M276.2,837.8c.3,-.7,.7,-1.2,1.1,-1.6c.5,-.4,1,-.5,1.7,-.5c.8,0,1.4,.2,1.8,.8c.4,.3,.5,.8,.5,1.2c0,.8,-.4,1.5,-1.3,2.3c.6,.3,1,.6,1.4,1.1c.3,.4,.4,1,.4,1.6c0,.8,-.2,1.6,-.8,2.3c-.7,.8,-1.8,1.2,-3.2,1.2c-.6,0,-1.1,-.1,-1.4,-.2c-.2,-.2,-.3,-.4,-.3,-.6c0,-.1,0,-.3,.1,-.4c.2,-.1,.3,-.1,.5,-.1c.1,0,.2,0,.4,0c0,0,.2,.1,.5,.3c.3,.2,.5,.2,.7,.3c.1,0,.3,.1,.5,.1c.6,0,1,-.2,1.4,-.6c.3,-.4,.5,-.9,.5,-1.4c0,-.4,-.1,-.8,-.2,-1.2c-.2,-.3,-.3,-.5,-.5,-.6c-.2,-.2,-.5,-.4,-.8,-.6c-.4,-.1,-.8,-.2,-1.2,-.2h-.2v-.2c.4,-.1,.8,-.2,1.2,-.5c.4,-.2,.7,-.5,.8,-.8c.2,-.3,.3,-.7,.3,-1.1c0,-.5,-.2,-.9,-.5,-1.2c-.3,-.4,-.7,-.5,-1.2,-.5c-.8,0,-1.4,.4,-1.9,1.2Z" class="g8_97"/>
<path fill-rule="evenodd" d="M283.9,848.6v-.3c.6,-.2,1,-.5,1.2,-.8c.3,-.4,.5,-.8,.5,-1.2c0,-.1,-.1,-.1,-.1,-.2c0,-.1,-.1,-.1,-.1,-.1c-.1,0,-.2,.1,-.4,.2c-.1,0,-.2,0,-.3,0c-.2,0,-.4,0,-.5,-.2c-.2,-.1,-.3,-.3,-.3,-.6c0,-.2,.1,-.4,.3,-.6c.2,-.2,.4,-.3,.7,-.3c.3,0,.6,.2,.9,.5c.2,.3,.4,.6,.4,1.1c0,.5,-.2,1,-.6,1.4c-.3,.5,-.9,.8,-1.7,1.1Z" class="g8_97"/>
<path fill-rule="evenodd" d="M293.6,835.9l-.6,1.2h-3l-.7,1.4c1.3,.2,2.4,.7,3.1,1.5c.7,.7,1,1.5,1,2.4c0,.5,-.1,1,-.3,1.5c-.2,.4,-.5,.8,-.8,1.1c-.3,.3,-.7,.6,-1.1,.8c-.6,.3,-1.2,.4,-1.8,.4c-.6,0,-1,-.1,-1.3,-.3c-.3,-.2,-.4,-.4,-.4,-.7c0,-.1,0,-.2,.2,-.4c.1,-.1,.2,-.1,.4,-.1c.1,0,.2,0,.3,0c.1,.1,.3,.2,.5,.3c.4,.3,.8,.4,1.2,.4c.5,0,1.1,-.2,1.5,-.6c.4,-.5,.7,-1,.7,-1.6c0,-.7,-.2,-1.2,-.6,-1.8c-.4,-.5,-1,-.9,-1.7,-1.2c-.5,-.2,-1.2,-.3,-2.2,-.4l2,-3.9Z" class="g8_97"/>
<path clip-path="url(#c0_97)" fill-rule="evenodd" d="M208.1,945.7c-.1,.7,-.1,1.2,-.1,1.7c0,.4,.1,.9,.2,1.5c.2,.6,.5,1,.8,1.4c.3,.2,.6,.3,1,.3c.4,0,.8,-.2,1.1,-.6c.4,-.4,.5,-1,.5,-1.8c0,-.8,-.1,-1.6,-.5,-2.2c-.3,-.6,-.8,-.9,-1.4,-.9c-.2,0,-.4,0,-.6,.1c-.3,.1,-.6,.3,-1,.5m4.7,-5.2v.2c-.7,.1,-1.2,.2,-1.7,.4c-.4,.2,-.8,.5,-1.2,.9c-.4,.4,-.7,.9,-1,1.4c-.3,.5,-.5,1.1,-.7,1.8c.7,-.5,1.5,-.8,2.2,-.8c.7,0,1.3,.3,1.8,.9c.5,.5,.8,1.2,.8,2.1c0,.9,-.3,1.6,-.8,2.3c-.6,.9,-1.4,1.3,-2.5,1.3c-.7,0,-1.2,-.2,-1.7,-.7c-1,-.9,-1.5,-2,-1.5,-3.4c0,-1,.2,-1.8,.6,-2.6c.4,-.9,.9,-1.6,1.6,-2.2c.6,-.7,1.3,-1.1,1.9,-1.3c.6,-.2,1.2,-.3,1.7,-.3Z" class="g8_97"/>
<path fill-rule="evenodd" d="M375.7,993.3c0,1.4,.2,2.6,.5,3.5c.3,.7,.7,1.1,1.3,1.1c.3,0,.6,-.1,.8,-.4c.3,-.2,.6,-.6,.7,-1.2c.2,-.9,.3,-2.1,.3,-3.6c0,-1.2,-.1,-2.2,-.3,-2.9c-.2,-.6,-.4,-1,-.7,-1.3c-.2,-.1,-.5,-.2,-.8,-.2c-.3,0,-.6,.2,-.9,.5c-.3,.4,-.6,1,-.7,1.9c-.1,.9,-.2,1.8,-.2,2.6m-1.5,-.1c0,-1.2,.2,-2.2,.6,-3c.3,-.9,.8,-1.5,1.4,-1.9c.4,-.3,.9,-.5,1.4,-.5c.7,0,1.4,.4,2.1,1.2c.7,1,1.1,2.3,1.1,4c0,1.2,-.2,2.2,-.5,3c-.3,.8,-.8,1.4,-1.3,1.8c-.5,.4,-1,.6,-1.5,.6c-1,0,-1.8,-.6,-2.4,-1.8c-.6,-.9,-.9,-2.1,-.9,-3.4Z" class="g8_97"/>
<path fill-rule="evenodd" d="M382.2,1000.7v-.3c.5,-.2,.9,-.4,1.2,-.8c.3,-.3,.4,-.7,.4,-1.1c0,-.1,0,-.2,-.1,-.3h-.1c0,0,-.1,0,-.3,.1c-.1,.1,-.2,.1,-.3,.1c-.3,0,-.5,-.1,-.6,-.2c-.1,-.2,-.2,-.4,-.2,-.6c0,-.3,.1,-.5,.3,-.7c.1,-.1,.4,-.2,.6,-.2c.4,0,.7,.1,.9,.4c.3,.3,.4,.7,.4,1.2c0,.5,-.2,.9,-.5,1.4c-.4,.4,-.9,.8,-1.7,1Z" class="g8_97"/>
<path fill-rule="evenodd" d="M391.9,988l-.6,1.3h-3.1l-.7,1.4c1.4,.1,2.4,.6,3.2,1.4c.7,.7,1,1.5,1,2.4c0,.6,-.1,1.1,-.3,1.5c-.3,.5,-.5,.9,-.9,1.2c-.3,.3,-.7,.6,-1.1,.7c-.5,.3,-1.1,.5,-1.7,.5c-.6,0,-1.1,-.1,-1.4,-.4c-.2,-.2,-.4,-.4,-.4,-.6c0,-.2,.1,-.3,.2,-.4c.1,-.1,.3,-.2,.4,-.2c.2,0,.3,0,.4,.1c.1,0,.2,.1,.5,.3c.3,.3,.7,.4,1.1,.4c.6,0,1.1,-.2,1.5,-.7c.5,-.4,.7,-1,.7,-1.6c0,-.6,-.2,-1.2,-.6,-1.7c-.4,-.5,-.9,-1,-1.6,-1.2c-.6,-.3,-1.3,-.4,-2.2,-.4l1.9,-4Z" class="g8_97"/>
<path fill-rule="evenodd" d="M392.4,837.8c.3,-.7,.7,-1.2,1.1,-1.6c.4,-.4,1,-.5,1.6,-.5c.9,0,1.5,.2,1.9,.8c.3,.3,.5,.8,.5,1.2c0,.8,-.5,1.5,-1.4,2.3c.6,.3,1.1,.6,1.4,1.1c.4,.4,.5,1,.5,1.6c0,.8,-.3,1.6,-.8,2.3c-.8,.8,-1.8,1.2,-3.2,1.2c-.7,0,-1.1,-.1,-1.4,-.2c-.2,-.2,-.4,-.4,-.4,-.6c0,-.1,.1,-.3,.2,-.4c.1,-.1,.3,-.1,.4,-.1c.2,0,.3,0,.4,0c.1,0,.3,.1,.6,.3c.3,.2,.5,.2,.6,.3c.2,0,.4,.1,.6,.1c.5,0,1,-.2,1.3,-.6c.4,-.4,.6,-.9,.6,-1.4c0,-.4,-.1,-.8,-.3,-1.2c-.1,-.3,-.2,-.5,-.4,-.6c-.2,-.2,-.5,-.4,-.9,-.6c-.3,-.1,-.7,-.2,-1.1,-.2h-.3v-.2c.4,-.1,.8,-.2,1.2,-.5c.4,-.2,.7,-.5,.9,-.8c.2,-.3,.3,-.7,.3,-1.1c0,-.5,-.2,-.9,-.5,-1.2c-.3,-.4,-.7,-.5,-1.2,-.5c-.8,0,-1.4,.4,-2,1.2Z" class="g8_97"/>
<path fill-rule="evenodd" d="M400.1,848.6v-.3c.5,-.2,.9,-.5,1.2,-.8c.3,-.4,.4,-.8,.4,-1.2q0,-.1,0,-.2q-.1,-.1,-.1,-.1c-.1,0,-.2,.1,-.4,.2c-.1,0,-.2,0,-.3,0c-.2,0,-.4,0,-.6,-.2c-.1,-.1,-.2,-.3,-.2,-.6c0,-.2,.1,-.4,.3,-.6c.2,-.2,.4,-.3,.7,-.3c.3,0,.6,.2,.9,.5c.2,.3,.3,.6,.3,1.1c0,.5,-.1,1,-.5,1.4c-.4,.5,-.9,.8,-1.7,1.1Z" class="g8_97"/>
<path fill-rule="evenodd" d="M409.8,835.9l-.6,1.2h-3.1l-.6,1.4c1.3,.2,2.3,.7,3.1,1.5c.7,.7,1,1.5,1,2.4c0,.5,-.1,1,-.3,1.5c-.2,.4,-.5,.8,-.8,1.1c-.4,.3,-.7,.6,-1.1,.8c-.6,.3,-1.2,.4,-1.8,.4c-.6,0,-1.1,-.1,-1.3,-.3c-.3,-.2,-.4,-.4,-.4,-.7c0,-.1,0,-.2,.1,-.4c.1,-.1,.3,-.1,.5,-.1c.1,0,.2,0,.3,0c.1,.1,.3,.2,.5,.3c.4,.3,.7,.4,1.1,.4c.6,0,1.1,-.2,1.6,-.6c.4,-.5,.6,-1,.6,-1.6c0,-.7,-.2,-1.2,-.6,-1.8c-.4,-.5,-.9,-.9,-1.6,-1.2c-.5,-.2,-1.3,-.3,-2.2,-.4l1.9,-3.9Z" class="g8_97"/>
<path fill-rule="evenodd" d="M422.5,987l2.4,-1.2h.3v8.6c0,.5,0,.9,0,1c.1,.2,.2,.3,.3,.3c.2,.1,.5,.2,1,.2v.3h-3.9v-.3c.5,0,.8,-.1,1,-.2c.1,0,.2,-.1,.3,-.2c0,-.2,0,-.5,0,-1.1v-5.5c0,-.8,0,-1.2,0,-1.5c-.1,-.1,-.1,-.2,-.2,-.3c-.1,-.1,-.2,-.1,-.4,-.1c-.1,0,-.4,.1,-.7,.2Z" class="g8_97"/>
<path fill-rule="evenodd" d="M429.2,998.7v-.3c.5,-.2,.9,-.5,1.1,-.8c.3,-.4,.5,-.8,.5,-1.2c0,0,-.1,-.1,-.1,-.2c0,0,-.1,-.1,-.1,-.1c-.1,0,-.2,.1,-.4,.2c-.1,0,-.1,.1,-.2,.1c-.3,0,-.5,-.1,-.6,-.3c-.2,-.1,-.2,-.3,-.2,-.6c0,-.2,0,-.4,.2,-.6c.2,-.2,.4,-.2,.7,-.2c.3,0,.6,.1,.9,.4c.3,.3,.4,.7,.4,1.1c0,.5,-.2,1,-.6,1.5c-.3,.4,-.9,.7,-1.6,1Z" class="g8_97"/>
<path fill-rule="evenodd" d="M438.8,986l-.6,1.3h-3l-.7,1.3c1.3,.2,2.4,.7,3.2,1.5c.6,.7,1,1.5,1,2.4c0,.5,-.2,1,-.4,1.5c-.2,.4,-.5,.8,-.8,1.1c-.3,.4,-.7,.6,-1.1,.8c-.6,.3,-1.2,.4,-1.8,.4c-.6,0,-1,-.1,-1.3,-.3c-.3,-.2,-.4,-.4,-.4,-.7c0,-.1,.1,-.2,.2,-.3c.1,-.1,.2,-.2,.4,-.2c.1,0,.2,0,.3,.1c.1,0,.3,.1,.5,.3c.4,.2,.8,.4,1.2,.4c.6,0,1.1,-.3,1.5,-.7c.5,-.5,.7,-1,.7,-1.6c0,-.6,-.2,-1.2,-.6,-1.7c-.4,-.6,-.9,-1,-1.6,-1.3c-.6,-.2,-1.3,-.3,-2.3,-.4l2,-3.9Z" class="g8_97"/>
<path fill-rule="evenodd" d="M467,1019.4l2.5,-1.2h.3v8.6c0,.6,0,.9,0,1.1c.1,.1,.2,.2,.3,.3c.2,.1,.5,.1,.9,.1v.3h-3.8v-.3c.5,0,.8,0,.9,-.1c.2,-.1,.3,-.2,.3,-.3c.1,-.1,.1,-.5,.1,-1.1v-5.5c0,-.7,0,-1.2,-.1,-1.4c0,-.2,-.1,-.3,-.2,-.3c0,-.1,-.2,-.2,-.3,-.2c-.2,0,-.4,.1,-.8,.3Z" class="g8_97"/>
<path fill-rule="evenodd" d="M473.7,1031.2v-.4c.5,-.1,.9,-.4,1.2,-.8c.3,-.3,.4,-.7,.4,-1.1c0,-.1,0,-.2,0,-.2q-.1,-.1,-.1,-.1c-.1,0,-.2,.1,-.4,.1c-.1,.1,-.2,.1,-.3,.1c-.2,0,-.4,-.1,-.6,-.2c-.1,-.1,-.2,-.3,-.2,-.6c0,-.2,.1,-.5,.3,-.6c.2,-.2,.4,-.3,.7,-.3c.3,0,.6,.2,.9,.4c.2,.3,.4,.7,.4,1.2c0,.5,-.2,1,-.6,1.4c-.3,.5,-.9,.8,-1.7,1.1Z" class="g8_97"/>
<path fill-rule="evenodd" d="M483.4,1018.4l-.6,1.3h-3l-.7,1.4c1.3,.2,2.4,.7,3.1,1.5c.7,.6,1,1.4,1,2.4c0,.5,-.1,1,-.3,1.4c-.2,.5,-.5,.9,-.8,1.2c-.3,.3,-.7,.6,-1.1,.8c-.6,.3,-1.2,.4,-1.8,.4c-.6,0,-1,-.1,-1.3,-.3c-.3,-.2,-.4,-.5,-.4,-.7c0,-.2,0,-.3,.1,-.4c.2,-.1,.3,-.1,.5,-.1c.1,0,.2,0,.3,0c.1,.1,.3,.2,.5,.3c.4,.3,.8,.4,1.2,.4c.5,0,1.1,-.2,1.5,-.7c.4,-.4,.7,-.9,.7,-1.6c0,-.6,-.2,-1.2,-.6,-1.7c-.4,-.5,-1,-.9,-1.7,-1.2c-.5,-.2,-1.3,-.4,-2.2,-.4l2,-4Z" class="g8_97"/>
<path fill-rule="evenodd" d="M385.9,870.6c-.5,0,-.9,.2,-1.2,.6c-.3,.4,-.5,1.1,-.5,2c0,1.2,.2,2.1,.7,2.7c.4,.6,.9,.9,1.5,.9c.5,0,.9,-.2,1.2,-.6c.3,-.5,.4,-1.1,.4,-2.1c0,-1,-.2,-1.8,-.6,-2.5c-.3,-.7,-.8,-1,-1.5,-1m-2.6,1.6c.6,-1.4,1.5,-2.1,2.9,-2.1c.9,0,1.7,.3,2.3,1c.6,.8,.9,1.6,.9,2.5c0,.9,-.3,1.8,-.9,2.6c-.6,.8,-1.4,1.1,-2.5,1.1c-1,0,-1.9,-.4,-2.4,-1.3c-.6,-.9,-.9,-2,-.9,-3.2c0,-1,.2,-1.9,.5,-2.8c.3,-.9,.6,-1.5,.9,-1.9c.3,-.4,.7,-.8,1.1,-.9c.4,-.2,1.2,-.3,2.2,-.4c.8,0,1.2,0,1.4,0c.2,-.1,.3,-.2,.5,-.3h.3c-.2,.5,-.4,.8,-.6,1c-.3,.2,-.5,.4,-.8,.5c-.3,0,-.8,.1,-1.4,.1c-.8,0,-1.3,.1,-1.6,.2c-.3,0,-.6,.3,-.9,.6c-.3,.4,-.5,.9,-.7,1.4c-.2,.6,-.3,1.2,-.3,1.9Z" class="g8_97"/>
<path fill-rule="evenodd" d="M394.3,875.7V873c-.7,.3,-1.2,.6,-1.4,.7c-.4,.2,-.7,.4,-.9,.7c-.1,.2,-.2,.5,-.2,.8c0,.3,.1,.6,.3,.9c.2,.2,.5,.3,.7,.3c.4,0,.9,-.2,1.5,-.7m0,.4c-.7,.6,-1.1,.9,-1.3,1c-.3,.1,-.6,.2,-.9,.2c-.4,0,-.8,-.2,-1.1,-.5c-.3,-.3,-.5,-.8,-.5,-1.3c0,-.3,.1,-.6,.2,-.9c.2,-.3,.6,-.6,1.1,-.9c.5,-.3,1.3,-.7,2.5,-1.1v-.3c0,-.7,-.1,-1.1,-.3,-1.4c-.2,-.2,-.5,-.4,-.9,-.4c-.4,0,-.6,.1,-.8,.3c-.2,.2,-.3,.3,-.3,.6v.4c0,.2,0,.4,-.1,.5c-.2,.2,-.3,.2,-.5,.2c-.2,0,-.3,0,-.5,-.2c-.1,-.1,-.1,-.3,-.1,-.5c0,-.4,.2,-.8,.6,-1.2c.5,-.4,1.1,-.5,1.9,-.5c.6,0,1.1,.1,1.5,.3c.3,.1,.5,.4,.6,.7c.1,.2,.2,.7,.2,1.3v2.4c0,.6,0,1,0,1.2c0,.1,.1,.2,.1,.3q.1,0,.2,0c.1,0,.2,0,.2,0c.1,-.1,.3,-.3,.6,-.6v.4c-.5,.8,-1.1,1.2,-1.6,1.2c-.2,0,-.4,-.1,-.5,-.3c-.2,-.2,-.3,-.4,-.3,-.9Z" class="g8_97"/>
<path fill-rule="evenodd" d="M398.1,870.3h6.1v.3c-.3,0,-.5,0,-.7,.1c-.1,0,-.2,.1,-.2,.2c-.1,.1,-.1,.4,-.1,1v3.6c0,.6,0,.9,.1,1c0,.1,.1,.2,.2,.2c.1,.1,.4,.2,.7,.2v.2h-3.5v-.2c.4,0,.6,-.1,.8,-.1c.1,0,.2,-.1,.3,-.3c.1,-.1,.1,-.5,.1,-1v-4.7h-2.2v2.9c0,1,-.1,1.8,-.2,2.3c-.1,.4,-.3,.7,-.6,.9c-.3,.2,-.6,.4,-.9,.4c-.7,0,-1,-.3,-1,-.8c0,-.2,0,-.4,.1,-.5c.1,-.1,.3,-.2,.4,-.2c.2,0,.4,.1,.5,.3c.2,.2,.4,.2,.5,.2c.2,0,.4,-.1,.5,-.5c.1,-.4,.1,-1.1,.1,-2v-1.5c0,-.8,0,-1.3,-.2,-1.4c-.1,-.2,-.3,-.3,-.8,-.3Z" class="g8_97"/>
<path fill-rule="evenodd" d="M411.9,877.1h-2c-.6,-.9,-1.2,-1.8,-1.7,-2.8c-.1,-.2,-.2,-.4,-.3,-.5c-.1,-.1,-.3,-.1,-.4,-.1c-.1,0,-.2,0,-.3,0v1.8c0,.5,0,.8,.1,1c0,.1,.1,.2,.3,.3c.1,0,.4,.1,.7,.1v.2h-3.4v-.2c.4,0,.7,-.1,.9,-.3c.1,-.1,.1,-.5,.1,-1.1v-3.6c0,-.6,0,-.9,0,-1c-.1,-.1,-.2,-.2,-.3,-.2c-.1,-.1,-.3,-.1,-.7,-.1v-.3h3.4v.3c-.4,0,-.6,0,-.7,0c-.1,.1,-.2,.2,-.3,.3c-.1,.1,-.1,.4,-.1,1v1.3c.1,0,.2,0,.2,0c.3,0,.6,0,.9,-.2c.2,-.2,.5,-.6,.7,-1.1c.2,-.5,.3,-.9,.5,-1.1c.1,-.2,.3,-.3,.5,-.4c.2,-.2,.5,-.2,.7,-.2c.3,0,.5,.1,.7,.2c.1,.1,.2,.3,.2,.5c0,.2,-.1,.3,-.2,.4c-.1,.2,-.3,.2,-.5,.2c-.1,0,-.2,0,-.4,-.1c-.2,0,-.3,-.1,-.5,-.1c-.2,0,-.4,.2,-.5,.6c-.2,.5,-.3,.8,-.4,.9c-.1,.1,-.2,.3,-.5,.5c.2,.1,.4,.2,.6,.4c.1,.2,.5,.7,1,1.5c.4,.7,.7,1.2,.9,1.4c.2,.2,.4,.2,.8,.3Z" class="g8_97"/>
<path fill-rule="evenodd" d="M414.8,870.6c-.2,0,-.5,0,-.8,.2c-.2,.1,-.5,.4,-.6,.8c-.2,.4,-.3,.9,-.3,1.5c0,1,.2,1.9,.6,2.6c.4,.8,.9,1.1,1.6,1.1c.5,0,.9,-.2,1.2,-.6c.3,-.4,.5,-1.1,.5,-2c0,-1.3,-.3,-2.2,-.8,-2.9c-.4,-.5,-.8,-.7,-1.4,-.7m.3,-.5c1,0,1.8,.4,2.5,1.2c.5,.6,.8,1.4,.8,2.3c0,.6,-.2,1.2,-.5,1.8c-.3,.7,-.7,1.1,-1.2,1.5c-.5,.3,-1.1,.4,-1.7,.4c-1.1,0,-1.9,-.4,-2.5,-1.2c-.5,-.7,-.8,-1.5,-.8,-2.3c0,-.7,.2,-1.3,.5,-1.9c.3,-.6,.7,-1.1,1.2,-1.4c.5,-.3,1.1,-.4,1.7,-.4Z" class="g8_97"/>
<path fill-rule="evenodd" d="M421.5,873.3h3v-1.4c0,-.5,0,-.7,-.1,-.9c0,-.1,-.1,-.2,-.2,-.3c-.2,-.1,-.4,-.1,-.8,-.1v-.3h3.3v.3c-.3,0,-.5,0,-.6,.1c-.2,0,-.3,.1,-.3,.3c-.1,.1,-.1,.4,-.1,.9v3.6c0,.5,0,.7,.1,.9c0,.1,.1,.2,.2,.3c.2,.1,.4,.2,.7,.2v.2h-3.3v-.2c.4,0,.7,-.1,.9,-.3c.1,-.1,.2,-.5,.2,-1.1v-1.7h-3v1.7c0,.5,0,.7,.1,.9c0,.1,.1,.2,.2,.3c.2,.1,.4,.2,.8,.2v.2h-3.4v-.2c.5,0,.8,-.1,.9,-.3c.1,-.1,.2,-.5,.2,-1.1v-3.6c0,-.5,0,-.7,-.1,-.9c0,-.1,-.1,-.2,-.3,-.3c-.1,-.1,-.3,-.1,-.7,-.1v-.3h3.4v.3c-.4,0,-.6,0,-.7,.1c-.2,0,-.3,.1,-.3,.3c-.1,.1,-.1,.4,-.1,.9Z" class="g8_97"/>
<path fill-rule="evenodd" d="M393.1,939.3h-2c-.7,-.9,-1.2,-1.8,-1.8,-2.8c-.1,-.2,-.2,-.3,-.3,-.5c-.1,-.1,-.2,-.1,-.4,-.1c0,0,-.1,0,-.3,0v1.8c0,.5,.1,.8,.1,1c.1,.1,.2,.2,.3,.3c.2,0,.4,.1,.8,.1v.2h-3.4v-.2c.4,0,.7,-.1,.8,-.3c.1,-.1,.2,-.5,.2,-1.1v-3.6c0,-.5,0,-.9,-.1,-1c0,-.1,-.1,-.1,-.2,-.2c-.2,-.1,-.4,-.1,-.7,-.1v-.3h3.4v.3c-.4,0,-.7,0,-.8,.1c-.1,0,-.2,.1,-.2,.2c-.1,.1,-.2,.4,-.2,1v1.3q.2,.1,.3,.1c.3,0,.6,-.1,.8,-.3c.3,-.2,.5,-.5,.7,-1.1c.2,-.5,.4,-.9,.5,-1.1c.2,-.2,.3,-.3,.6,-.4c.2,-.1,.4,-.2,.7,-.2c.2,0,.5,.1,.6,.2c.2,.1,.3,.3,.3,.5c0,.2,-.1,.3,-.2,.4c-.1,.2,-.3,.2,-.5,.2c-.1,0,-.2,0,-.4,-.1c-.2,0,-.4,-.1,-.5,-.1c-.2,0,-.4,.2,-.6,.6c-.1,.5,-.3,.8,-.3,.9c-.1,.1,-.3,.3,-.5,.5c.2,.1,.3,.2,.5,.4c.2,.2,.5,.7,1,1.6c.4,.7,.7,1.1,.9,1.3c.2,.2,.5,.3,.9,.3Z" class="g8_97"/>
<path fill-rule="evenodd" d="M393,932.5h3.2v.3h-.1c-.2,0,-.4,0,-.5,.1c-.1,.1,-.2,.2,-.2,.4c0,.2,.1,.4,.3,.8l1.6,3.4l1.6,-3.8c0,-.2,.1,-.4,.1,-.6c0,0,0,-.1,-.1,-.2c0,0,-.1,-.1,-.2,-.1c0,0,-.2,0,-.4,0v-.3h2.2v.3c-.2,0,-.3,0,-.4,.1c-.1,0,-.2,.2,-.3,.3c-.1,.1,-.2,.3,-.3,.6l-2.8,6.8c-.2,.7,-.6,1.2,-1,1.6c-.5,.3,-.9,.5,-1.3,.5c-.3,0,-.5,-.1,-.7,-.3c-.2,-.2,-.3,-.4,-.3,-.6c0,-.2,.1,-.4,.2,-.5c.1,-.1,.3,-.2,.6,-.2c.1,0,.4,.1,.6,.2c.2,.1,.4,.1,.4,.1c.2,0,.3,-.1,.5,-.2c.2,-.2,.4,-.5,.5,-.9l.5,-1.2l-2.4,-5.2c-.1,-.2,-.2,-.4,-.4,-.6c-.1,-.2,-.2,-.3,-.3,-.3c-.1,-.1,-.3,-.2,-.6,-.2Z" class="g8_97"/>
<path fill-rule="evenodd" d="M400.8,932.5H404v.3c-.2,0,-.3,0,-.4,.1c-.1,0,-.1,.1,-.1,.2c0,.2,.1,.3,.3,.6c0,.1,.1,.2,.2,.4l.5,.7l.5,-.7c.4,-.5,.6,-.8,.6,-1c0,-.1,-.1,-.2,-.1,-.2c-.1,-.1,-.3,-.1,-.5,-.1v-.3h2.4v.3c-.3,0,-.5,0,-.7,.2c-.2,.1,-.5,.5,-1,1.1l-.9,1.2l1.7,2.5c.4,.6,.7,.9,.9,1.1c.2,.1,.4,.2,.7,.2v.2h-3.2v-.2c.2,0,.4,-.1,.5,-.2c.1,0,.1,-.1,.1,-.2c0,-.2,-.1,-.5,-.5,-.9l-1,-1.5l-1.1,1.5c-.3,.4,-.5,.7,-.5,.8c0,.1,.1,.2,.2,.3c.1,.1,.3,.2,.5,.2v.2h-2.2v-.2c.1,0,.3,-.1,.4,-.2c.2,-.2,.5,-.5,1,-1.1l1.4,-1.9L402.4,934c-.3,-.6,-.6,-.9,-.8,-1c-.2,-.2,-.5,-.2,-.8,-.2Z" class="g8_97"/>
<path fill-rule="evenodd" d="M410.9,935.5h3v-1.4c0,-.4,-.1,-.7,-.1,-.9c0,-.1,-.1,-.2,-.2,-.3c-.2,-.1,-.4,-.1,-.8,-.1v-.3h3.3v.3c-.3,0,-.5,0,-.6,.1c-.2,0,-.3,.1,-.3,.3c-.1,.1,-.1,.4,-.1,.9v3.6c0,.5,0,.8,.1,.9c0,.1,.1,.2,.2,.3c.2,.1,.4,.2,.7,.2v.2h-3.3v-.2c.4,0,.7,-.1,.9,-.3c.1,-.1,.2,-.5,.2,-1.1V936h-3v1.7c0,.5,0,.8,.1,.9c0,.1,.1,.2,.2,.3c.2,.1,.4,.2,.7,.2v.2h-3.3v-.2c.5,0,.8,-.1,.9,-.3c.1,-.1,.2,-.5,.2,-1.1v-3.6c0,-.4,-.1,-.7,-.1,-.9c0,-.1,-.1,-.2,-.3,-.3c-.1,-.1,-.3,-.1,-.7,-.1v-.3h3.3v.3c-.3,0,-.5,0,-.6,.1c-.2,0,-.3,.1,-.3,.3c-.1,.1,-.1,.4,-.1,.9Z" class="g8_97"/>
<path fill-rule="evenodd" d="M420.9,933.1c-.2,-.1,-.4,-.1,-.5,-.1c-.5,0,-.9,.1,-1.2,.3c-.2,.3,-.3,.6,-.3,.9c0,.5,.1,.8,.5,1.1c.3,.3,.8,.5,1.3,.5q.1,0,.2,-.1Zm2.3,-.6v.3c-.3,0,-.5,0,-.7,.1c-.1,.1,-.2,.2,-.3,.3c0,.1,0,.4,0,.9v3.6c0,.5,0,.8,0,.9c.1,.1,.1,.2,.3,.3c.2,.1,.4,.2,.7,.2v.2h-3.3v-.2c.4,0,.7,-.1,.8,-.3c.1,-.1,.2,-.5,.2,-1.1v-1.5l-.3,.1c0,0,-.1,-.1,-.2,-.1l-2.2,3.1h-1.7v-.2c.2,0,.4,-.1,.5,-.1c.1,-.1,.3,-.3,.5,-.7l1.6,-2.3c-1.1,-.4,-1.7,-1,-1.7,-1.8c0,-.5,.2,-.9,.6,-1.2c.5,-.3,1.2,-.5,2.1,-.5Z" class="g8_97"/>
<path fill-rule="evenodd" d="M360.7,1025.9h-2.1c-.6,-.9,-1.2,-1.9,-1.7,-2.8c-.1,-.2,-.2,-.4,-.3,-.5c-.1,-.1,-.2,-.2,-.4,-.2c-.1,0,-.2,0,-.3,.1v1.8c0,.5,0,.8,.1,.9c.1,.2,.2,.3,.3,.3c.2,.1,.4,.1,.8,.1v.3h-3.5v-.3c.5,0,.8,-.1,.9,-.2c.1,-.2,.2,-.5,.2,-1.1v-3.7c0,-.5,0,-.8,-.1,-.9c-.1,-.1,-.1,-.2,-.3,-.3c-.1,0,-.3,-.1,-.7,-.1v-.3h3.5v.3c-.4,0,-.7,0,-.8,.1c-.1,.1,-.2,.1,-.3,.2c0,.1,-.1,.5,-.1,1v1.4c.1,0,.2,0,.2,0c.4,0,.6,-.1,.9,-.2c.3,-.2,.5,-.6,.7,-1.1c.2,-.6,.4,-.9,.5,-1.1c.1,-.2,.3,-.4,.5,-.5c.3,-.1,.5,-.1,.8,-.1c.2,0,.4,0,.6,.1c.2,.2,.2,.3,.2,.6c0,.1,0,.3,-.1,.4c-.2,.1,-.3,.2,-.5,.2c-.1,0,-.3,0,-.4,-.1c-.2,-.1,-.4,-.1,-.5,-.1c-.2,0,-.4,.2,-.6,.6c-.1,.4,-.3,.7,-.4,.9c0,.1,-.2,.3,-.4,.5c.1,0,.3,.1,.5,.3c.2,.2,.5,.7,1,1.6c.4,.7,.7,1.1,.9,1.3c.2,.2,.5,.3,.9,.3Z" class="g8_97"/>
<path fill-rule="evenodd" d="M363.6,1019.3c-.3,0,-.6,.1,-.8,.3c-.3,.1,-.5,.4,-.7,.8c-.1,.4,-.2,.9,-.2,1.5c0,1,.2,1.9,.6,2.6c.4,.7,.9,1.1,1.5,1.1c.5,0,.9,-.2,1.2,-.6c.4,-.4,.5,-1.1,.5,-2.1c0,-1.2,-.3,-2.2,-.8,-2.9c-.3,-.4,-.8,-.7,-1.3,-.7m.2,-.5c1,0,1.9,.4,2.5,1.2c.5,.7,.8,1.5,.8,2.3c0,.7,-.1,1.3,-.4,1.9c-.3,.6,-.7,1.1,-1.3,1.4c-.5,.4,-1,.5,-1.7,.5c-1,0,-1.8,-.4,-2.4,-1.2c-.6,-.7,-.8,-1.5,-.8,-2.4c0,-.6,.1,-1.2,.5,-1.8c.3,-.7,.7,-1.1,1.2,-1.4c.5,-.3,1,-.5,1.6,-.5Z" class="g8_97"/>
<path fill-rule="evenodd" d="M370,1020.9v2.6c0,.5,0,.9,.1,1.1c.1,.3,.2,.5,.5,.7c.3,.2,.6,.4,1,.4c.5,0,.9,-.2,1.2,-.6c.4,-.5,.6,-1.2,.6,-2.2c0,-1,-.2,-1.8,-.6,-2.4c-.4,-.4,-.7,-.6,-1.2,-.6c-.2,0,-.5,.1,-.7,.2c-.2,.1,-.5,.4,-.9,.8m-2.4,-1.2l2.1,-.8h.3v1.6c.4,-.6,.7,-1.1,1.1,-1.3c.3,-.2,.7,-.4,1.1,-.4c.7,0,1.3,.3,1.7,.8c.6,.7,.9,1.6,.9,2.6c0,1.2,-.4,2.2,-1,3c-.6,.6,-1.3,.9,-2.2,.9c-.3,0,-.6,0,-.9,-.1c-.2,-.1,-.4,-.3,-.7,-.5v2.1c0,.5,0,.8,.1,.9c.1,.1,.2,.2,.3,.3c.1,.1,.4,.1,.8,.1v.3h-3.6v-.3h.2c.2,0,.5,0,.7,-.2c.1,0,.1,-.1,.2,-.2c0,-.1,.1,-.4,.1,-.9v-6.5c0,-.5,0,-.8,-.1,-.9c0,-.1,-.1,-.2,-.2,-.3c-.1,0,-.2,0,-.3,0c-.2,0,-.3,0,-.5,.1Z" class="g8_97"/>
<path fill-rule="evenodd" d="M377.9,1023.8l3,-3.4c0,-.4,-.1,-.7,-.2,-.8c-.2,-.2,-.4,-.3,-.7,-.3v-.3h3.2v.3c-.4,0,-.6,.1,-.7,.1c-.1,.1,-.2,.2,-.3,.3c0,.1,-.1,.4,-.1,.9v3.7c0,.5,0,.8,.1,.9c.1,.1,.1,.2,.3,.3c.1,.1,.3,.1,.7,.1v.3h-3.4v-.3c.5,0,.7,-.1,.9,-.2c.1,-.2,.2,-.5,.2,-1.1v-3.2l-3,3.4c0,.4,.1,.7,.2,.9c.1,.1,.3,.2,.7,.2v.3h-3.2v-.3c.5,0,.8,-.1,.9,-.2c.1,-.2,.2,-.5,.2,-1.1v-3.7c0,-.5,0,-.8,-.1,-.9c-.1,-.1,-.1,-.2,-.3,-.3c-.1,0,-.3,-.1,-.7,-.1v-.3H379v.3c-.4,0,-.6,.1,-.7,.1c-.1,.1,-.2,.2,-.3,.3c0,.1,-.1,.4,-.1,.9Z" class="g8_97"/>
<path fill-rule="evenodd" d="M386.6,1019.5v.4c0,2.5,-.5,4.3,-1.4,5.5h2.6c.4,0,.7,0,.8,-.1c.1,-.1,.1,-.4,.1,-.9v-4.9Zm-1.7,-.5H391v.3c-.4,0,-.6,.1,-.7,.1c-.1,.1,-.2,.2,-.3,.3c0,.1,-.1,.4,-.1,.9v3.4c0,.8,.1,1.2,.2,1.4c.1,.1,.4,.2,.9,.2v2.2h-.3c0,-.4,-.1,-.8,-.3,-1.1c-.2,-.3,-.5,-.5,-.8,-.6c-.3,-.1,-.8,-.2,-1.4,-.2h-1.8c-.5,0,-1,.1,-1.3,.1c-.3,.1,-.5,.4,-.7,.7c-.3,.3,-.4,.6,-.4,1.1h-.3v-2.2c.4,0,.8,-.2,1.1,-.5c.4,-.3,.6,-.9,.9,-1.8c.3,-.9,.4,-1.8,.4,-2.7c0,-.8,-.4,-1.3,-1.2,-1.3Z" class="g8_97"/>
<path fill-rule="evenodd" d="M394.9,1019.3c-.3,0,-.5,.1,-.8,.3c-.3,.1,-.5,.4,-.6,.8c-.2,.4,-.3,.9,-.3,1.5c0,1,.2,1.9,.6,2.6c.4,.7,.9,1.1,1.6,1.1c.5,0,.9,-.2,1.2,-.6c.3,-.4,.4,-1.1,.4,-2.1c0,-1.2,-.2,-2.2,-.7,-2.9c-.4,-.4,-.8,-.7,-1.4,-.7m.2,-.5c1.1,0,1.9,.4,2.5,1.2c.6,.7,.8,1.5,.8,2.3c0,.7,-.1,1.3,-.4,1.9c-.3,.6,-.7,1.1,-1.2,1.4c-.5,.4,-1.1,.5,-1.7,.5c-1.1,0,-1.9,-.4,-2.5,-1.2c-.5,-.7,-.8,-1.5,-.8,-2.4c0,-.6,.2,-1.2,.5,-1.8c.3,-.7,.7,-1.1,1.2,-1.4c.5,-.3,1.1,-.5,1.6,-.5Z" class="g8_97"/>
<path fill-rule="evenodd" d="M401.4,1020.9v2.6c0,.5,0,.9,0,1.1c.1,.3,.3,.5,.5,.7c.3,.2,.6,.4,1.1,.4c.5,0,.9,-.2,1.2,-.6c.4,-.5,.6,-1.2,.6,-2.2c0,-1,-.2,-1.8,-.7,-2.4c-.3,-.4,-.7,-.6,-1.1,-.6c-.3,0,-.5,.1,-.8,.2c-.1,.1,-.4,.4,-.8,.8m-2.4,-1.2l2.1,-.8h.3v1.6c.3,-.6,.7,-1.1,1,-1.3c.4,-.2,.8,-.4,1.1,-.4c.7,0,1.3,.3,1.8,.8c.5,.7,.8,1.6,.8,2.6c0,1.2,-.3,2.2,-1,3c-.6,.6,-1.3,.9,-2.1,.9c-.4,0,-.7,0,-1,-.1c-.2,-.1,-.4,-.3,-.6,-.5v2.1c0,.5,0,.8,0,.9c.1,.1,.2,.2,.3,.3c.2,.1,.4,.1,.8,.1v.3h-3.6v-.3h.2c.3,0,.5,0,.7,-.2c.1,0,.2,-.1,.2,-.2c.1,-.1,.1,-.4,.1,-.9v-6.5c0,-.5,0,-.8,0,-.9c-.1,-.1,-.2,-.2,-.2,-.3c-.1,0,-.2,0,-.4,0c-.1,0,-.3,0,-.5,.1Z" class="g8_97"/>
<path fill-rule="evenodd" d="M425.3,1028.1c-.5,0,-.9,.2,-1.2,.7c-.4,.4,-.5,1,-.5,1.9c0,1.2,.2,2.1,.6,2.8c.5,.6,.9,.9,1.5,.9c.5,0,.9,-.2,1.2,-.7c.3,-.4,.5,-1.1,.5,-2c0,-1.1,-.2,-1.9,-.6,-2.6c-.4,-.6,-.9,-1,-1.5,-1m-2.7,1.7c.6,-1.5,1.6,-2.2,2.9,-2.2c1,0,1.8,.4,2.4,1.1c.6,.7,.9,1.5,.9,2.4c0,1,-.3,1.9,-.9,2.6c-.6,.8,-1.5,1.2,-2.5,1.2c-1.1,0,-1.9,-.4,-2.5,-1.3c-.5,-.9,-.8,-2,-.8,-3.3c0,-1,.1,-1.9,.4,-2.7c.3,-.9,.6,-1.5,.9,-2c.4,-.4,.7,-.7,1.2,-.9c.4,-.2,1.1,-.3,2.2,-.3c.7,0,1.2,0,1.4,-.1c.1,0,.3,-.1,.4,-.3h.3c-.2,.5,-.4,.9,-.6,1.1c-.2,.2,-.5,.3,-.7,.4c-.3,.1,-.8,.1,-1.5,.1c-.7,.1,-1.3,.1,-1.5,.2c-.3,.1,-.6,.3,-.9,.7c-.3,.3,-.6,.8,-.8,1.4c-.1,.6,-.2,1.2,-.3,1.9Z" class="g8_97"/>
<path fill-rule="evenodd" d="M433.7,1033.2v-2.6c-.8,.3,-1.3,.5,-1.5,.6c-.4,.3,-.7,.5,-.8,.7c-.2,.3,-.3,.5,-.3,.8c0,.4,.1,.7,.3,.9c.3,.2,.5,.4,.8,.4c.4,0,.9,-.3,1.5,-.8m0,.5c-.7,.5,-1.2,.9,-1.3,.9c-.3,.2,-.6,.2,-.9,.2c-.5,0,-.9,-.1,-1.2,-.5c-.3,-.3,-.4,-.7,-.4,-1.2c0,-.4,0,-.7,.2,-.9c.2,-.3,.5,-.7,1.1,-1c.5,-.3,1.3,-.6,2.5,-1.1v-.2c0,-.7,-.1,-1.2,-.3,-1.4c-.3,-.3,-.6,-.4,-1,-.4c-.3,0,-.6,.1,-.7,.2c-.2,.2,-.3,.4,-.3,.6v.5c0,.2,-.1,.4,-.2,.5c-.1,.1,-.3,.2,-.4,.2c-.2,0,-.4,-.1,-.5,-.2c-.1,-.1,-.2,-.3,-.2,-.6c0,-.4,.2,-.8,.7,-1.1c.4,-.4,1,-.6,1.8,-.6c.6,0,1.1,.1,1.5,.3c.3,.2,.5,.4,.7,.8c.1,.2,.1,.6,.1,1.3v2.3c0,.7,0,1.1,.1,1.2c0,.2,0,.3,.1,.3c0,.1,.1,.1,.2,.1q.1,0,.2,-.1c.1,0,.3,-.2,.6,-.5v.4c-.6,.8,-1.1,1.1,-1.6,1.1c-.3,0,-.5,-.1,-.6,-.2c-.1,-.2,-.2,-.5,-.2,-.9Z" class="g8_97"/>
<path fill-rule="evenodd" d="M438.7,1030.9h3v-1.5c0,-.4,0,-.7,0,-.8c-.1,-.1,-.2,-.3,-.3,-.3c-.1,-.1,-.4,-.2,-.7,-.2v-.3H444v.3c-.3,0,-.6,0,-.7,.1c-.1,.1,-.2,.2,-.3,.3c0,.2,-.1,.5,-.1,.9v3.7c0,.4,.1,.7,.1,.8c0,.2,.1,.3,.3,.4c.1,.1,.4,.1,.7,.1v.3h-3.3v-.3c.4,0,.7,-.1,.8,-.2c.1,-.2,.2,-.5,.2,-1.1v-1.7h-3v1.7c0,.4,.1,.7,.1,.8c0,.2,.1,.3,.3,.4c.1,.1,.4,.1,.7,.1v.3h-3.3v-.3c.4,0,.7,-.1,.8,-.2c.1,-.2,.2,-.6,.2,-1.1v-3.7c0,-.4,0,-.7,-.1,-.8c0,-.2,-.1,-.3,-.2,-.4c-.2,0,-.4,-.1,-.7,-.1v-.3h3.3v.3c-.3,0,-.6,0,-.7,.1c-.1,.1,-.2,.2,-.3,.3c0,.2,-.1,.5,-.1,.9Z" class="g8_97"/>
<path fill-rule="evenodd" d="M448.8,1028.4c-.2,-.1,-.4,-.1,-.6,-.1c-.5,0,-.9,.1,-1.1,.4c-.3,.2,-.4,.5,-.4,.9c0,.4,.2,.8,.5,1.1c.4,.3,.8,.4,1.4,.4c0,0,.1,0,.2,0Zm2.2,-.6v.3c-.3,0,-.5,.1,-.7,.1c-.1,.1,-.2,.2,-.2,.4c-.1,.1,-.1,.4,-.1,.8v3.7c0,.4,0,.7,.1,.8c0,.2,.1,.3,.2,.4c.2,.1,.4,.1,.7,.1v.3h-3.3v-.3c.4,0,.7,-.1,.8,-.2c.2,-.2,.3,-.5,.3,-1.1v-1.5h-.4c0,0,-.1,0,-.2,0l-2.2,3.1h-1.7v-.3c.3,0,.4,0,.5,-.1c.1,-.1,.3,-.3,.6,-.6l1.6,-2.3c-1.2,-.4,-1.7,-1,-1.7,-1.8c0,-.5,.2,-.9,.6,-1.3c.4,-.3,1.1,-.5,2.1,-.5Z" class="g8_97"/>
<path fill-rule="evenodd" d="M281.8,956.3c-.2,1,-.6,1.6,-1.1,2.1c-.6,.5,-1.2,.8,-1.8,.8c-.8,0,-1.5,-.4,-2.1,-1c-.5,-.7,-.8,-1.6,-.8,-2.7c0,-1,.3,-1.9,.9,-2.6c.7,-.7,1.4,-1,2.3,-1c.7,0,1.3,.2,1.7,.5c.4,.4,.7,.8,.7,1.1c0,.2,-.1,.4,-.2,.5c-.1,.1,-.3,.2,-.5,.2c-.3,0,-.6,-.1,-.7,-.3c-.1,-.1,-.1,-.3,-.2,-.6c0,-.3,-.1,-.5,-.3,-.7c-.2,-.1,-.4,-.2,-.7,-.2c-.5,0,-.9,.2,-1.2,.5c-.4,.5,-.6,1.2,-.6,2c0,.8,.2,1.5,.6,2.2c.4,.6,.9,.9,1.6,.9c.5,0,.9,-.2,1.3,-.5c.3,-.2,.6,-.7,.8,-1.3Z" class="g8_97"/>
<path fill-rule="evenodd" d="M282.6,952.1h6l.3,1.9h-.4c0,-.4,-.1,-.7,-.3,-.9c-.1,-.2,-.3,-.4,-.5,-.4c-.1,-.1,-.4,-.1,-.9,-.1h-.6v4.7c0,.6,.1,.9,.1,1c.1,.2,.2,.2,.3,.3c.2,0,.5,.1,1,.1v.3h-3.8v-.3c.5,0,.8,-.1,1,-.3c.1,-.1,.2,-.5,.2,-1.1v-4.7h-.6c-.5,0,-.8,0,-.9,.1c-.2,0,-.3,.1,-.5,.3c-.1,.2,-.2,.5,-.3,1h-.4Z" class="g8_97"/>
<path fill-rule="evenodd" d="M293.5,957.5v-2.6c-.7,.3,-1.2,.5,-1.5,.6c-.4,.2,-.6,.5,-.8,.7c-.2,.2,-.3,.5,-.3,.8c0,.3,.2,.6,.4,.9c.2,.2,.4,.3,.7,.3c.4,0,.9,-.2,1.5,-.7m0,.5c-.7,.5,-1.1,.8,-1.3,.9c-.3,.1,-.6,.2,-.9,.2c-.5,0,-.8,-.2,-1.2,-.5c-.3,-.3,-.4,-.7,-.4,-1.3c0,-.3,.1,-.6,.2,-.8c.2,-.4,.6,-.7,1.1,-1c.5,-.3,1.3,-.7,2.5,-1.1v-.3c0,-.6,-.1,-1.1,-.3,-1.4c-.2,-.2,-.6,-.4,-1,-.4c-.3,0,-.5,.1,-.7,.3c-.2,.2,-.3,.4,-.3,.6v.4c0,.3,0,.4,-.2,.6c-.1,.1,-.2,.1,-.4,.1c-.2,0,-.4,0,-.5,-.2c-.1,-.1,-.2,-.3,-.2,-.5c0,-.4,.3,-.8,.7,-1.2c.4,-.3,1.1,-.5,1.9,-.5c.6,0,1.1,.1,1.5,.3c.2,.2,.5,.4,.6,.7c.1,.2,.1,.7,.1,1.3v2.4c0,.6,.1,1,.1,1.2c0,.1,0,.2,.1,.3q.1,0,.2,0q.1,0,.2,0c.1,-.1,.3,-.3,.6,-.6v.5c-.5,.7,-1.1,1.1,-1.6,1.1c-.2,0,-.4,-.1,-.6,-.3c-.1,-.1,-.2,-.4,-.2,-.8Z" class="g8_97"/>
<path fill-rule="evenodd" d="M300.4,952.7c-.2,-.1,-.4,-.1,-.6,-.1c-.5,0,-.9,.1,-1.1,.4c-.3,.2,-.4,.5,-.4,.8c0,.5,.2,.8,.6,1.1c.3,.3,.8,.5,1.3,.5c0,0,.1,0,.2,0Zm2.3,-.6v.3c-.4,0,-.6,0,-.7,.1c-.2,.1,-.3,.2,-.3,.3c-.1,.2,-.1,.4,-.1,.9v3.6c0,.5,0,.8,.1,.9c0,.1,.1,.3,.3,.3c.1,.1,.3,.2,.7,.2v.3h-3.4v-.3c.5,0,.7,-.1,.9,-.3c.1,-.1,.2,-.5,.2,-1.1v-1.4h-.3c-.1,0,-.2,0,-.3,0l-2.2,3.1h-1.7v-.3c.3,0,.5,-.1,.6,-.1c.1,-.1,.2,-.3,.5,-.7l1.6,-2.3c-1.1,-.3,-1.7,-1,-1.7,-1.8c0,-.4,.2,-.9,.6,-1.2c.4,-.3,1.1,-.5,2.1,-.5Z" class="g8_97"/>
<path fill-rule="evenodd" d="M468.6,865.5l2.4,-1.2h.3v8.6c0,.6,0,.9,.1,1.1c0,.1,.1,.2,.3,.3c.1,.1,.4,.1,.9,.1v.3h-3.9v-.3c.5,0,.8,0,1,-.1c.1,-.1,.2,-.2,.3,-.3c0,-.1,0,-.5,0,-1.1v-5.5c0,-.7,0,-1.2,0,-1.4c-.1,-.1,-.1,-.3,-.2,-.3c-.1,-.1,-.2,-.2,-.3,-.2c-.2,0,-.5,.1,-.8,.3Z" class="g8_97"/>
</svg>