<?xml version="1.0" encoding="UTF-8" standalone="no"?>
<!DOCTYPE svg PUBLIC "-//W3C//DTD SVG 1.1//EN"
"http://www.w3.org/Graphics/SVG/1.1/DTD/svg11.dtd">
<svg viewBox="0 0 909 1147" version="1.1" xmlns="http://www.w3.org/2000/svg" xmlns:xlink="http://www.w3.org/1999/xlink">
<defs>
<clipPath id="c0_87"><path d="M140.8,425.1v-18H171v18Z"/></clipPath>
<clipPath id="c1_87"><path d="M185.1,258.5V116.9H824.4V258.5Z"/></clipPath>
<clipPath id="c2_87"><path d="M656.4,458.5V423.1h66.4v35.4Z"/></clipPath>
<clipPath id="c3_87"><path d="M656.5,458.5l66.3,-24.4v24.4Z"/></clipPath>
<style type="text/css"><![CDATA[
.g0_87{
fill: #B6D774;
}
.g1_87{
fill: #E8F1FA;
}
.g2_87{
fill: none;
stroke: #0EA5DF;
stroke-width: 3.055;
}
.g3_87{
fill: #FFF1E0;
}
.g4_87{
fill: none;
stroke: #2E3092;
stroke-width: 0.763;
}
.g5_87{
fill: none;
stroke: #000;
stroke-width: 0.763;
}
.g6_87{
fill: #0EA5DF;
}
.g7_87{
fill: #FFF;
}
.g8_87{
fill: #FAD5E6;
}
.g9_87{
fill: #C7EAFB;
}
.ga_87{
fill: none;
stroke: #00AEEF;
stroke-width: 0.33;
stroke-miterlimit: 2;
}
.gb_87{
fill: #FFFAC2;
}
.gc_87{
fill: #E7EFC1;
}
.gd_87{
fill: none;
stroke: #00AEEF;
stroke-width: 0.763;
stroke-miterlimit: 2;
}
.ge_87{
fill: none;
stroke: #000;
stroke-width: 1.069;
stroke-miterlimit: 2;
}
.gf_87{
fill: none;
stroke: #000;
stroke-width: 0.763;
stroke-miterlimit: 2;
}
.gg_87{
fill: none;
stroke: #000;
stroke-width: 1.54;
stroke-miterlimit: 2;
}
.gh_87{
fill: #000;
}
.gi_87{
fill: #CCE2F5;
}
.gj_87{
fill: none;
stroke: #464343;
stroke-width: 1.072;
stroke-miterlimit: 2;
}
.gk_87{
fill: #464343;
}
.gl_87{
fill: #FAE6DC;
}
.gm_87{
fill: none;
stroke: #584F4B;
stroke-width: 1.072;
stroke-miterlimit: 2;
}
.gn_87{
fill: #D3D7E1;
}
]]></style>
</defs>
<path d="M835.8,1131h73.6v-51.5H835.8V1131Z" class="g0_87"/>
<path d="M185.1,1078.3H835.8V546.2H185.1v532.1Z" class="g1_87"/>
<path d="M73.6,65H835.8" class="g2_87"/>
<path d="M184.8,513.2h651V397h-651V513.2Z" class="g3_87"/>
<path d="M341.8,474.2c4.6,0,8.3,-3.7,8.3,-8.3c0,-4.5,-3.7,-8.2,-8.3,-8.2c-4.6,0,-8.3,3.7,-8.3,8.2c0,4.6,3.7,8.3,8.3,8.3Zm37.8,0c4.6,0,8.3,-3.7,8.3,-8.3c0,-4.5,-3.7,-8.2,-8.3,-8.2c-4.5,0,-8.3,3.7,-8.3,8.2c0,4.6,3.8,8.3,8.3,8.3Z" class="g4_87"/>
<path d="M750.9,1058.6h11.4" class="g5_87"/>
<path d="M135.8,434.5h39.7V397H135.8v37.5Z" class="g6_87"/>
<path clip-path="url(#c0_87)" d="M156.1,419.5c-2.1,.2,-3.8,-1.5,-3.6,-3.6c.1,-1.7,1.5,-3.1,3.2,-3.2c2,-.1,3.7,1.6,3.6,3.6c-.1,1.8,-1.5,3.1,-3.2,3.2m.2,3c-3.8,.2,-7,-2.9,-6.8,-6.8c.2,-3.1,2.8,-5.7,6,-5.9c3.8,-.2,7,2.9,6.7,6.7c-.2,3.2,-2.8,5.8,-5.9,6m-.4,-15.4c-5.8,0,-11,3.2,-14.9,8.3c-.3,.4,-.3,1,0,1.4c3.9,5.2,9.1,8.3,14.9,8.3c5.7,0,11,-3.1,14.8,-8.3c.4,-.4,.4,-1,0,-1.4c-3.8,-5.1,-9.1,-8.3,-14.8,-8.3Z" class="g7_87"/>
<path d="M73.6,542.9H835.8" class="g2_87"/>
<path d="M365.9,150.1c4.6,0,8.3,-3.7,8.3,-8.3c0,-4.5,-3.7,-8.2,-8.3,-8.2c-4.5,0,-8.2,3.7,-8.2,8.2c0,4.6,3.7,8.3,8.2,8.3Zm-166.7,0c4.6,0,8.3,-3.7,8.3,-8.3c0,-4.5,-3.7,-8.2,-8.3,-8.2c-4.6,0,-8.3,3.7,-8.3,8.2c0,4.6,3.7,8.3,8.3,8.3Zm311.8,0c4.6,0,8.3,-3.7,8.3,-8.3c0,-4.5,-3.7,-8.2,-8.3,-8.2c-4.6,0,-8.3,3.7,-8.3,8.2c0,4.6,3.7,8.3,8.3,8.3Zm128.8,0c4.6,0,8.3,-3.7,8.3,-8.3c0,-4.5,-3.7,-8.2,-8.3,-8.2c-4.6,0,-8.3,3.7,-8.3,8.2c0,4.6,3.7,8.3,8.3,8.3ZM256.7,314.5c4.5,0,8.2,-3.7,8.2,-8.3c0,-4.6,-3.7,-8.3,-8.2,-8.3c-4.6,0,-8.3,3.7,-8.3,8.3c0,4.6,3.7,8.3,8.3,8.3Z" class="g4_87"/>
<path fill-rule="evenodd" d="M220.5,136.5h86.4V240.1H220.5V136.5Z" class="g8_87"/>
<path fill-rule="evenodd" d="M741,172.3l35.5,-34.8v69.4L741,241.7Z" class="g9_87"/>
<path d="M741,172.3l35.5,-34.8v69.4L741,241.7V172.3Z" class="ga_87"/>
<path fill-rule="evenodd" d="M670.9,137.8H775.3l-35.2,34.5H635.7Z" class="g9_87"/>
<path fill-rule="evenodd" d="M635.8,171.5H740.7v70.8H635.8V171.5Z" class="g9_87"/>
<path fill-rule="evenodd" d="M394,136.5l87.7,.4l-53,103.8l-87.8,.5Z" class="gb_87"/>
<path fill-rule="evenodd" d="M550.5,136.3h50.9l-34.2,34.5H516.3Z" class="gc_87"/>
<path fill-rule="evenodd" d="M550.6,204.7h50.9l-34.2,34.5H516.4Z" class="gc_87"/>
<path fill-rule="evenodd" d="M567.4,171.8H516.5c-.2,0,-.2,.1,0,.3l34,33.8c.2,.2,.5,.4,.7,.4h50.9c.2,0,.2,-.2,0,-.4l-34,-33.8c-.2,-.2,-.5,-.3,-.7,-.3Z" class="gc_87"/>
<path d="M185.5,119.1h17.4v17.4H185.5V119.1Zm0,17.4h17.4v17.4H185.5V136.5Zm0,17.4h17.4v17.3H185.5V153.9Zm0,17.3h17.4v17.4H185.5V171.2Zm0,17.4h17.4V206H185.5V188.6Zm0,17.4h17.4v17.3H185.5V206Zm0,17.3h17.4v17.4H185.5V223.3Zm0,17.4h17.4v17.4H185.5V240.7ZM202.9,119.1h17.4v17.4H202.9V119.1Zm0,17.4h17.4v17.4H202.9V136.5Zm0,17.4h17.4v17.3H202.9V153.9Zm0,17.3h17.4v17.4H202.9V171.2Zm0,17.4h17.4V206H202.9V188.6Zm0,17.4h17.4v17.3H202.9V206Zm0,17.3h17.4v17.4H202.9V223.3Zm0,17.4h17.4v17.4H202.9V240.7ZM220.3,119.1h17.3v17.4H220.3V119.1Zm0,17.4h17.3v17.4H220.3V136.5Zm0,17.4h17.3v17.3H220.3V153.9Zm0,17.3h17.3v17.4H220.3V171.2Zm0,17.4h17.3V206H220.3V188.6Zm0,17.4h17.3v17.3H220.3V206Zm0,17.3h17.3v17.4H220.3V223.3Zm0,17.4h17.3v17.4H220.3V240.7ZM237.6,119.1H255v17.4H237.6V119.1Zm0,17.4H255v17.4H237.6V136.5Zm0,17.4H255v17.3H237.6V153.9Zm0,17.3H255v17.4H237.6V171.2Zm0,17.4H255V206H237.6V188.6Zm0,17.4H255v17.3H237.6V206Zm0,17.3H255v17.4H237.6V223.3Zm0,17.4H255v17.4H237.6V240.7ZM255,119.1h17.4v17.4H255V119.1Zm0,17.4h17.4v17.4H255V136.5Zm0,17.4h17.4v17.3H255V153.9Zm0,17.3h17.4v17.4H255V171.2Zm0,17.4h17.4V206H255V188.6Zm0,17.4h17.4v17.3H255V206Zm0,17.3h17.4v17.4H255V223.3Zm0,17.4h17.4v17.4H255V240.7ZM272.4,119.1h17.4v17.4H272.4V119.1Zm0,17.4h17.4v17.4H272.4V136.5Zm0,17.4h17.4v17.3H272.4V153.9Zm0,17.3h17.4v17.4H272.4V171.2Zm0,17.4h17.4V206H272.4V188.6Zm0,17.4h17.4v17.3H272.4V206Zm0,17.3h17.4v17.4H272.4V223.3Zm0,17.4h17.4v17.4H272.4V240.7ZM289.7,119.1h17.4v17.4H289.7V119.1Zm0,17.4h17.4v17.4H289.7V136.5Zm0,17.4h17.4v17.3H289.7V153.9Zm0,17.3h17.4v17.4H289.7V171.2Zm0,17.4h17.4V206H289.7V188.6Zm0,17.4h17.4v17.3H289.7V206Zm0,17.3h17.4v17.4H289.7V223.3Zm0,17.4h17.4v17.4H289.7V240.7ZM307.1,119.1h17.4v17.4H307.1V119.1Zm0,17.4h17.4v17.4H307.1V136.5Zm0,17.4h17.4v17.3H307.1V153.9Zm0,17.3h17.4v17.4H307.1V171.2Zm0,17.4h17.4V206H307.1V188.6Zm0,17.4h17.4v17.3H307.1V206Zm0,17.3h17.4v17.4H307.1V223.3Zm0,17.4h17.4v17.4H307.1V240.7ZM324.5,119.1h17.4v17.4H324.5V119.1Zm0,17.4h17.4v17.4H324.5V136.5Zm0,17.4h17.4v17.3H324.5V153.9Zm0,17.3h17.4v17.4H324.5V171.2Zm0,17.4h17.4V206H324.5V188.6Zm0,17.4h17.4v17.3H324.5V206Zm0,17.3h17.4v17.4H324.5V223.3Zm0,17.4h17.4v17.4H324.5V240.7ZM341.9,119.1h17.3v17.4H341.9V119.1Zm0,17.4h17.3v17.4H341.9V136.5Zm0,17.4h17.3v17.3H341.9V153.9Zm0,17.3h17.3v17.4H341.9V171.2Zm0,17.4h17.3V206H341.9V188.6Zm0,17.4h17.3v17.3H341.9V206Zm0,17.3h17.3v17.4H341.9V223.3Zm0,17.4h17.3v17.4H341.9V240.7ZM359.2,119.1h17.4v17.4H359.2V119.1Zm0,17.4h17.4v17.4H359.2V136.5Zm0,17.4h17.4v17.3H359.2V153.9Zm0,17.3h17.4v17.4H359.2V171.2Zm0,17.4h17.4V206H359.2V188.6Zm0,17.4h17.4v17.3H359.2V206Zm0,17.3h17.4v17.4H359.2V223.3Zm0,17.4h17.4v17.4H359.2V240.7ZM376.6,119.1H394v17.4H376.6V119.1Zm0,17.4H394v17.4H376.6V136.5Zm0,17.4H394v17.3H376.6V153.9Zm0,17.3H394v17.4H376.6V171.2Zm0,17.4H394V206H376.6V188.6Zm0,17.4H394v17.3H376.6V206Zm0,17.3H394v17.4H376.6V223.3Zm0,17.4H394v17.4H376.6V240.7ZM394,119.1h17.4v17.4H394V119.1Zm0,17.4h17.4v17.4H394V136.5Zm0,17.4h17.4v17.3H394V153.9Zm0,17.3h17.4v17.4H394V171.2Zm0,17.4h17.4V206H394V188.6Zm0,17.4h17.4v17.3H394V206Zm0,17.3h17.4v17.4H394V223.3Zm0,17.4h17.4v17.4H394V240.7ZM411.4,119.1h17.3v17.4H411.4V119.1Zm0,17.4h17.3v17.4H411.4V136.5Zm0,17.4h17.3v17.3H411.4V153.9Zm0,17.3h17.3v17.4H411.4V171.2Zm0,17.4h17.3V206H411.4V188.6Zm0,17.4h17.3v17.3H411.4V206Zm0,17.3h17.3v17.4H411.4V223.3Zm0,17.4h17.3v17.4H411.4V240.7ZM428.7,119.1h17.4v17.4H428.7V119.1Zm0,17.4h17.4v17.4H428.7V136.5Zm0,17.4h17.4v17.3H428.7V153.9Zm0,17.3h17.4v17.4H428.7V171.2Zm0,17.4h17.4V206H428.7V188.6Zm0,17.4h17.4v17.3H428.7V206Zm0,17.3h17.4v17.4H428.7V223.3Zm0,17.4h17.4v17.4H428.7V240.7ZM446.1,119.1h17.4v17.4H446.1V119.1Zm0,17.4h17.4v17.4H446.1V136.5Zm0,17.4h17.4v17.3H446.1V153.9Zm0,17.3h17.4v17.4H446.1V171.2Zm0,17.4h17.4V206H446.1V188.6Zm0,17.4h17.4v17.3H446.1V206Zm0,17.3h17.4v17.4H446.1V223.3Zm0,17.4h17.4v17.4H446.1V240.7ZM463.5,119.1h17.4v17.4H463.5V119.1Zm0,17.4h17.4v17.4H463.5V136.5Zm0,17.4h17.4v17.3H463.5V153.9Zm0,17.3h17.4v17.4H463.5V171.2Zm0,17.4h17.4V206H463.5V188.6Zm0,17.4h17.4v17.3H463.5V206Zm0,17.3h17.4v17.4H463.5V223.3Zm0,17.4h17.4v17.4H463.5V240.7ZM480.9,119.1h17.3v17.4H480.9V119.1Zm0,17.4h17.3v17.4H480.9V136.5Zm0,17.4h17.3v17.3H480.9V153.9Zm0,17.3h17.3v17.4H480.9V171.2Zm0,17.4h17.3V206H480.9V188.6Zm0,17.4h17.3v17.3H480.9V206Zm0,17.3h17.3v17.4H480.9V223.3Zm0,17.4h17.3v17.4H480.9V240.7ZM498.2,119.1h17.4v17.4H498.2V119.1Zm0,17.4h17.4v17.4H498.2V136.5Zm0,17.4h17.4v17.3H498.2V153.9Zm0,17.3h17.4v17.4H498.2V171.2Zm0,17.4h17.4V206H498.2V188.6Zm0,17.4h17.4v17.3H498.2V206Zm0,17.3h17.4v17.4H498.2V223.3Zm0,17.4h17.4v17.4H498.2V240.7ZM515.6,119.1H533v17.4H515.6V119.1Zm0,17.4H533v17.4H515.6V136.5Zm0,17.4H533v17.3H515.6V153.9Zm0,17.3H533v17.4H515.6V171.2Zm0,17.4H533V206H515.6V188.6Zm0,17.4H533v17.3H515.6V206Zm0,17.3H533v17.4H515.6V223.3Zm0,17.4H533v17.4H515.6V240.7ZM533,119.1h17.3v17.4H533V119.1Zm0,17.4h17.3v17.4H533V136.5Zm0,17.4h17.3v17.3H533V153.9Zm0,17.3h17.3v17.4H533V171.2Zm0,17.4h17.3V206H533V188.6Zm0,17.4h17.3v17.3H533V206Zm0,17.3h17.3v17.4H533V223.3Zm0,17.4h17.3v17.4H533V240.7ZM550.3,119.1h17.4v17.4H550.3V119.1Zm0,17.4h17.4v17.4H550.3V136.5Zm0,17.4h17.4v17.3H550.3V153.9Zm0,17.3h17.4v17.4H550.3V171.2Zm0,17.4h17.4V206H550.3V188.6Zm0,17.4h17.4v17.3H550.3V206Zm0,17.3h17.4v17.4H550.3V223.3Zm0,17.4h17.4v17.4H550.3V240.7ZM567.7,119.1h17.4v17.4H567.7V119.1Zm0,17.4h17.4v17.4H567.7V136.5Zm0,17.4h17.4v17.3H567.7V153.9Zm0,17.3h17.4v17.4H567.7V171.2Zm0,17.4h17.4V206H567.7V188.6Zm0,17.4h17.4v17.3H567.7V206Zm0,17.3h17.4v17.4H567.7V223.3Zm0,17.4h17.4v17.4H567.7V240.7ZM585.1,119.1h17.4v17.4H585.1V119.1Zm0,17.4h17.4v17.4H585.1V136.5Zm0,17.4h17.4v17.3H585.1V153.9Zm0,17.3h17.4v17.4H585.1V171.2Zm0,17.4h17.4V206H585.1V188.6Zm0,17.4h17.4v17.3H585.1V206Zm0,17.3h17.4v17.4H585.1V223.3Zm0,17.4h17.4v17.4H585.1V240.7ZM602.5,119.1h17.3v17.4H602.5V119.1Zm0,17.4h17.3v17.4H602.5V136.5Zm0,17.4h17.3v17.3H602.5V153.9Zm0,17.3h17.3v17.4H602.5V171.2Zm0,17.4h17.3V206H602.5V188.6Zm0,17.4h17.3v17.3H602.5V206Zm0,17.3h17.3v17.4H602.5V223.3Zm0,17.4h17.3v17.4H602.5V240.7ZM619.8,119.1h17.4v17.4H619.8V119.1Zm0,17.4h17.4v17.4H619.8V136.5Zm0,17.4h17.4v17.3H619.8V153.9Zm0,17.3h17.4v17.4H619.8V171.2Zm0,17.4h17.4V206H619.8V188.6Zm0,17.4h17.4v17.3H619.8V206Zm0,17.3h17.4v17.4H619.8V223.3Zm0,17.4h17.4v17.4H619.8V240.7ZM637.1,119.1h17.4v17.4H637.1V119.1Zm0,17.4h17.4v17.4H637.1V136.5Zm0,17.4h17.4v17.3H637.1V153.9Zm0,17.3h17.4v17.4H637.1V171.2Zm0,17.4h17.4V206H637.1V188.6Zm0,17.4h17.4v17.3H637.1V206Zm0,17.3h17.4v17.4H637.1V223.3Zm0,17.4h17.4v17.4H637.1V240.7ZM654.5,119.1h17.3v17.4H654.5V119.1Zm0,17.4h17.3v17.4H654.5V136.5Zm0,17.4h17.3v17.3H654.5V153.9Zm0,17.3h17.3v17.4H654.5V171.2Zm0,17.4h17.3V206H654.5V188.6Zm0,17.4h17.3v17.3H654.5V206Zm0,17.3h17.3v17.4H654.5V223.3Zm0,17.4h17.3v17.4H654.5V240.7ZM671.8,119.1h17.4v17.4H671.8V119.1Zm0,17.4h17.4v17.4H671.8V136.5Zm0,17.4h17.4v17.3H671.8V153.9Zm0,17.3h17.4v17.4H671.8V171.2Zm0,17.4h17.4V206H671.8V188.6Zm0,17.4h17.4v17.3H671.8V206Zm0,17.3h17.4v17.4H671.8V223.3Zm0,17.4h17.4v17.4H671.8V240.7ZM689.2,119.1h17.4v17.4H689.2V119.1Zm0,17.4h17.4v17.4H689.2V136.5Zm0,17.4h17.4v17.3H689.2V153.9Zm0,17.3h17.4v17.4H689.2V171.2Zm0,17.4h17.4V206H689.2V188.6Zm0,17.4h17.4v17.3H689.2V206Zm0,17.3h17.4v17.4H689.2V223.3Zm0,17.4h17.4v17.4H689.2V240.7ZM706.6,119.1H724v17.4H706.6V119.1Zm0,17.4H724v17.4H706.6V136.5Zm0,17.4H724v17.3H706.6V153.9Zm0,17.3H724v17.4H706.6V171.2Zm0,17.4H724V206H706.6V188.6Zm0,17.4H724v17.3H706.6V206Zm0,17.3H724v17.4H706.6V223.3Zm0,17.4H724v17.4H706.6V240.7ZM724,119.1h17.3v17.4H724V119.1Zm0,17.4h17.3v17.4H724V136.5Zm0,17.4h17.3v17.3H724V153.9Zm0,17.3h17.3v17.4H724V171.2Zm0,17.4h17.3V206H724V188.6Zm0,17.4h17.3v17.3H724V206Zm0,17.3h17.3v17.4H724V223.3Zm0,17.4h17.3v17.4H724V240.7ZM741.3,119.1h17.4v17.4H741.3V119.1Zm0,17.4h17.4v17.4H741.3V136.5Zm0,17.4h17.4v17.3H741.3V153.9Zm0,17.3h17.4v17.4H741.3V171.2Zm0,17.4h17.4V206H741.3V188.6Zm0,17.4h17.4v17.3H741.3V206Zm0,17.3h17.4v17.4H741.3V223.3Zm0,17.4h17.4v17.4H741.3V240.7ZM758.7,119.1h17.4v17.4H758.7V119.1Zm0,17.4h17.4v17.4H758.7V136.5Zm0,17.4h17.4v17.3H758.7V153.9Zm0,17.3h17.4v17.4H758.7V171.2Zm0,17.4h17.4V206H758.7V188.6Zm0,17.4h17.4v17.3H758.7V206Zm0,17.3h17.4v17.4H758.7V223.3Zm0,17.4h17.4v17.4H758.7V240.7ZM776.1,119.1h17.4v17.4H776.1V119.1Zm0,17.4h17.4v17.4H776.1V136.5Zm0,17.4h17.4v17.3H776.1V153.9Zm0,17.3h17.4v17.4H776.1V171.2Zm0,17.4h17.4V206H776.1V188.6Zm0,17.4h17.4v17.3H776.1V206Zm0,17.3h17.4v17.4H776.1V223.3Zm0,17.4h17.4v17.4H776.1V240.7ZM793.5,119.1h17.3v17.4H793.5V119.1Zm0,17.4h17.3v17.4H793.5V136.5Zm0,17.4h17.3v17.3H793.5V153.9Zm0,17.3h17.3v17.4H793.5V171.2Zm0,17.4h17.3V206H793.5V188.6Zm0,17.4h17.3v17.3H793.5V206Zm0,17.3h17.3v17.4H793.5V223.3Zm0,17.4h17.3v17.4H793.5V240.7Z" class="gd_87"/>
<path d="M220.2,136.5h86.9V240.1H220.2V136.5Zm173.8,.2h86.9L428.5,240.2H341.7L394,136.7Zm156.6,.1h52.3l-35.6,34.5H515l35.6,-34.5Zm.4,68.6h52.3l-35.6,34.5H515.4L551,205.4Zm-.5,.3h52.3L567.2,171.3H514.9l35.6,34.4ZM673.2,137.3H777.8l-35.1,34.1H638.1l35.1,-34.1ZM637.2,242h104V171.4h-104V242Z" class="ge_87"/>
<path d="M794.3,136.8h17.8" class="gf_87"/>
<path d="M812.1,132.8v8m-17.8,-8v8" class="gg_87"/>
<path clip-path="url(#c1_87)" fill-rule="evenodd" d="M781.4,118.2l2.5,-1.3h.3v8.8c0,.6,0,1,0,1.1c.1,.2,.2,.3,.3,.4c.2,0,.5,.1,1,.1v.3h-3.9v-.3c.5,0,.8,-.1,.9,-.1c.2,-.1,.3,-.2,.3,-.3c.1,-.2,.1,-.5,.1,-1.2v-5.6c0,-.8,0,-1.2,-.1,-1.5c0,-.1,-.1,-.2,-.2,-.3c-.1,-.1,-.2,-.1,-.3,-.1c-.2,0,-.5,0,-.8,.2Z" class="gh_87"/>
<path fill-rule="evenodd" d="M796.4,125.7l2.2,-5.2H801v.3c-.4,0,-.6,.1,-.7,.1c-.1,.1,-.2,.2,-.3,.3c-.1,.1,-.1,.4,-.1,1v3.7c0,.5,0,.8,.1,1c0,.1,.1,.2,.3,.3c.1,.1,.4,.1,.7,.1v.3h-3.4v-.3c.4,0,.7,-.1,.8,-.2c.2,-.2,.2,-.6,.2,-1.2v-4.2l-2.5,5.9h-.2l-2.6,-5.9v4.2c0,.5,.1,.8,.1,1c.1,.1,.2,.2,.3,.3c.2,.1,.4,.1,.7,.1v.3h-2.7v-.3c.5,0,.8,-.1,.9,-.3c.1,-.1,.2,-.5,.2,-1.1v-3.7c0,-.6,-.1,-.9,-.1,-1c-.1,-.1,-.2,-.2,-.3,-.3c-.1,0,-.3,-.1,-.7,-.1v-.3h2.5Z" class="gh_87"/>
<path fill-rule="evenodd" d="M803.3,126.1c.2,0,.4,.1,.6,.2c.2,.2,.3,.4,.3,.6c0,.3,-.1,.5,-.3,.7c-.2,.1,-.4,.2,-.6,.2c-.2,0,-.4,-.1,-.6,-.2c-.2,-.2,-.3,-.4,-.3,-.7c0,-.2,.1,-.4,.3,-.6c.2,-.1,.4,-.2,.6,-.2Z" class="gh_87"/>
<path fill-rule="evenodd" d="M808.5,122.7h3.2c0,-.4,0,-.7,-.1,-.9c-.1,-.3,-.3,-.5,-.6,-.7c-.3,-.2,-.5,-.2,-.8,-.2c-.4,0,-.8,.1,-1.1,.5c-.4,.3,-.6,.8,-.6,1.3m0,.5c0,1,.2,1.9,.7,2.5c.6,.5,1.2,.8,1.8,.8c.5,0,.9,-.1,1.3,-.3c.3,-.3,.6,-.7,.8,-1.3l.2,.1c-.1,.7,-.4,1.4,-.9,1.9c-.5,.6,-1.2,.9,-1.9,.9c-.9,0,-1.6,-.3,-2.2,-1c-.6,-.6,-.9,-1.5,-.9,-2.7c0,-1.2,.3,-2.1,.9,-2.8c.6,-.6,1.4,-1,2.3,-1c.8,0,1.5,.3,2,.8c.5,.5,.7,1.2,.7,2.1Z" class="gh_87"/>
<path fill-rule="evenodd" d="M816.7,121v.5c0,2.5,-.4,4.4,-1.3,5.6H818c.5,0,.7,-.1,.8,-.1c.1,-.1,.1,-.4,.1,-.9V121Zm-1.7,-.5h6.3v.3c-.4,0,-.6,.1,-.7,.1c-.1,.1,-.2,.2,-.3,.3c-.1,.1,-.1,.4,-.1,1v3.5c0,.7,.1,1.2,.2,1.3c.1,.2,.4,.3,.9,.3v2.2H821c0,-.4,-.2,-.7,-.3,-1.1c-.2,-.3,-.5,-.5,-.8,-.6c-.4,-.2,-.8,-.2,-1.5,-.2h-1.8c-.6,0,-1,0,-1.3,.1c-.4,.1,-.6,.3,-.8,.7c-.3,.3,-.4,.7,-.4,1.1h-.3v-2.2c.4,0,.8,-.2,1.1,-.5c.4,-.3,.7,-.9,.9,-1.9c.3,-.9,.4,-1.8,.4,-2.7c0,-.9,-.4,-1.4,-1.2,-1.4Z" class="gh_87"/>
<path clip-path="url(#c1_87)" fill-rule="evenodd" d="M823.6,126.1c.2,0,.4,.1,.6,.2c.2,.2,.2,.4,.2,.6c0,.3,0,.5,-.2,.7c-.2,.1,-.4,.2,-.6,.2c-.3,0,-.5,-.1,-.6,-.2c-.2,-.2,-.3,-.4,-.3,-.7c0,-.2,.1,-.4,.3,-.6c.1,-.1,.3,-.2,.6,-.2Z" class="gh_87"/>
<path d="M776.4,207.3l-35.1,34.6V173l35.1,-34.6v68.9Z" class="ge_87"/>
<path d="M413.7,314.5c4.5,0,8.2,-3.7,8.2,-8.3c0,-4.6,-3.7,-8.3,-8.2,-8.3c-4.6,0,-8.3,3.7,-8.3,8.3c0,4.6,3.7,8.3,8.3,8.3Zm177.5,0c4.5,0,8.3,-3.7,8.3,-8.3c0,-4.6,-3.8,-8.3,-8.3,-8.3c-4.6,0,-8.3,3.7,-8.3,8.3c0,4.6,3.7,8.3,8.3,8.3Zm161.3,0c4.6,0,8.3,-3.7,8.3,-8.3c0,-4.6,-3.7,-8.3,-8.3,-8.3c-4.6,0,-8.3,3.7,-8.3,8.3c0,4.6,3.7,8.3,8.3,8.3Z" class="g4_87"/>
<path d="M753,423l-96.5,35.5h66.2L819.3,423Z" class="gi_87"/>
<path d="M753,423h66.3l-96.6,35.5H656.5L753,423Zm-121.7,0H822.2M631.4,458.5H822.3m-165.8,0h66.2V423H656.5v35.5Z" class="gj_87"/>
<path d="M818.1,426.8h.7V423h-.7v3.8Z" class="gk_87"/>
<path d="M818.1,432.9h.7v-3.8h-.7v3.8Z" class="gk_87"/>
<path d="M818.1,439h.7v-3.8h-.7V439Z" class="gk_87"/>
<path d="M818.1,445.1h.7v-3.7h-.7v3.7Z" class="gk_87"/>
<path d="M818.1,451.3h.7v-3.9h-.7v3.9Z" class="gk_87"/>
<path d="M818.1,457.4h.7v-3.8h-.7v3.8Z" class="gk_87"/>
<path fill-rule="evenodd" d="M644.9,437l-2.1,7.2l.4,-.5l.3,-.5l.3,-.3l.2,-.4l.4,-.4l.2,-.2l.2,-.2l.2,-.2l.1,-.1l.3,-.3l.2,-.1h.1l.2,-.1l.2,-.1h.6l.1,.1h.1l.1,.1l.1,.1l.1,.1v1l-.1,.4v.3l-1,3.1v.3l-.1,.1v.5h.3l.2,-.2l.2,-.1l.1,-.2l.2,-.2l.2,-.3l.2,.1l-.1,.2l-.1,.2l-.2,.2l-.2,.3l-.2,.2l-.3,.2l-.2,.1l-.1,.1l-.2,.1h-.1l-.1,.1h-.5v-.1H645v-.1h-.1v-.1l-.1,-.1v-.4l.1,-.3v-.3l.1,-.4l.9,-3l.1,-.2v-.4l.1,-.1v-.3H646v-.1h-.1v-.1h-.4l-.1,.1h-.2l-.1,.1l-.1,.1l-.2,.1l-.1,.2l-.1,.2l-.2,.1l-.1,.2l-.3,.2v.1l-.1,.1l-.1,.1l-.1,.3l-.2,.3l-.1,.2l-.2,.4l-.3,.4l-.2,.2l-.1,.3l-.1,.4l-.1,.2l-.5,1.5h-1.2l2.6,-8.5l.2,-.9v-.2l-.1,-.1v-.1h-.1l-.1,-.1h-.7l-.1,.1v-.3Z" class="gk_87"/>
<path fill-rule="evenodd" d="M810.1,437l-2.1,7.2l.4,-.5l.3,-.5l.2,-.3l.4,-.4l.2,-.4l.2,-.2l.2,-.2l.2,-.2l.3,-.1l.2,-.3l.1,-.1h.2l.2,-.1l.1,-.1h.7v.1h.2v.1h.1v.1h.1v.3l.1,.1v.4l-.1,.3v.4l-.1,.3l-.9,3.1l-.1,.3v.1l-.1,.1v.2h.1v.2h.4v-.2l.2,-.1l.2,-.2l.2,-.2l.2,-.3l.3,.1l-.1,.2l-.3,.2l-.2,.2l-.2,.3l-.2,.2l-.1,.2l-.3,.1l-.2,.1l-.1,.1h-.1l-.2,.1h-.3l-.2,-.1l-.1,-.1l-.1,-.1v-.2l-.1,-.1l.1,-.2v-.3l.1,-.3l.1,-.4l.9,-3v-.2l.1,-.4v-.5h-.1l-.1,-.1h-.3l-.1,.1h-.1l-.3,.1l-.1,.1l-.1,.1l-.1,.2l-.2,.2l-.1,.1l-.2,.2l-.1,.2l-.2,.1v.1l-.1,.1l-.2,.3l-.1,.3l-.2,.2l-.2,.4l-.3,.4l-.1,.2l-.2,.3l-.1,.4l-.1,.2l-.4,1.5H806l2.4,-8.5l.3,-.9v-.2h-.1v-.1l-.1,-.1h-.1v-.1h-.7l-.2,.1v-.3Z" class="gk_87"/>
<path d="M687.4,465.2l-.4,.8v-.1l-.1,-.1v-.2l-.1,-.2h-.1v-.1l-.1,-.1h-.1v-.1h-.2l-.1,-.1h-.7l-.2,.1l-.2,.1h-.3l-.2,.1l-.2,.1l-.1,.3l-.3,.2l-.3,.2l-.2,.2l-.3,.2l-.2,.4l-.1,.2l-.3,.3l-.2,.4l-.1,.3l-.2,.3l-.1,.3l-.1,.4v.2l-.1,.3v1.2l.1,.1v.2l.1,.2v.1l.1,.1l.1,.1l.1,.1h.1l.1,.1h.1l.2,.1h.7l.1,-.1h.1l.3,-.1l.1,-.1h.1l.2,-.2l.2,-.1l.2,-.2l.3,-.3l.2,-.2l.2,-.2l.2,-.3l.4,-.3l-.3,.6l-.1,.2v1.1h.1v.1h.1l.2,.1h.5l.1,-.1h.2l.1,-.1l.2,-.1l.2,-.1l.1,-.1l.1,-.1l.1,-.1l.2,-.1l.1,-.3l.1,-.1l.2,-.2l.1,-.1l-.3,-.2l-.2,.3l-.2,.2l-.1,.1l-.1,.1v.2h-.1l-.1,.1h-.4v-.5l.1,-.6l1.5,-5.1Zm-4.3,5.4l-.1,-.1v-.4l-.1,-.1l.1,-.3v-.5l.1,-.2l.1,-.4l.1,-.3l.1,-.2l.1,-.3l.1,-.4l.3,-.3l.1,-.2l.2,-.2l.1,-.3l.2,-.2l.1,-.2l.2,-.1l.2,-.1l.2,-.1l.1,-.1h.1l.1,-.2h.8l.1,.2l.1,.1l.1,.1v.1l.1,.1v.2l.1,.1v.7l-.1,.2v.4l-.1,.3l-.1,.2v.2l-.1,.1l-.1,.2l-.1,.3l-.1,.2l-.2,.2l-.1,.2l-.2,.1l-.1,.2l-.2,.4l-.2,.2l-.1,.1l-.2,.1l-.1,.1h-.1l-.1,.1l-.1,.1h-.2l-.1,.2h-.6l-.1,-.2h-.1l-.1,-.1v-.1h-.1Z" class="gk_87"/>
<path d="M658.3,461.4l-6,8.2l-.5,.6l-.3,.4l-.1,.1l-.1,.1l-.2,.3l-.1,.1h-.1l-.2,.1h-.1l-.1,.1h-.1l-.1,.1h-.2l-.1,.2h2.9l.2,-.2h-.4l-.1,-.1h-.2v-.1h-.1v-.2h-.1v-.4l.1,-.1v-.2l.1,-.1l.1,-.2l.2,-.3l1,-1.4h3l-.2,1.3v.7l-.1,.2v.2l-.2,.1v.2l-.1,.1l-.1,.1h-.1v.1h-.2l-.1,.1H655v.2h4l.1,-.2h-.5l-.3,-.1h-.1l-.1,-.1H658l-.1,-.1v-.1l-.1,-.2v-1.1l.8,-8.4Zm-1.2,2.5l-.4,4h-2.5Z" class="gk_87"/>
<path d="M724,461.7h-4.2l-.1,.2h.7l.1,.1h.1l.1,.1h.1v.3h.1v.3l-.1,.2v.3l-.1,.4l-1.9,6.1l-.1,.5l-.1,.4l-.1,.2l-.1,.3l-.1,.1h-.1l-.1,.1l-.1,.1h-.2l-.2,.1h-.4l-.1,.2h5.3l.1,-.1h.4l.2,-.1h.1l.3,-.1l.2,-.1h.1l.2,-.1l.1,-.1l.2,-.2l.1,-.1l.2,-.1l.1,-.1l.1,-.1l.1,-.2l.1,-.1l.1,-.1l.1,-.3l.1,-.2v-.1l.1,-.2v-.2l.1,-.1v-.8l-.1,-.1v-.2l-.1,-.1v-.2l-.1,-.2l-.1,-.1l-.1,-.1l-.1,-.1l-.2,-.2l-.1,-.1l-.3,-.1l-.1,-.2H724l-.2,-.1l.3,-.1l.3,-.1l.3,-.1l.3,-.1l.2,-.1l.2,-.2h.1l.2,-.1v-.2l.1,-.1l.2,-.1l.1,-.2l.1,-.2l.1,-.1v-.2l.1,-.3v-.8l-.1,-.2v-.1l-.1,-.1v-.2l-.1,-.1l-.1,-.1l-.1,-.1l-.1,-.1l-.1,-.1l-.3,-.2h-.1l-.1,-.1l-.2,-.1h-.2l-.1,-.1h-.3l-.2,-.1Zm-1.6,.6h.2l.1,-.2h.8l.2,.2h.2l.2,.1h.1l.1,.1l.1,.1l.2,.1l.1,.1l.1,.1l.1,.2v.3l.1,.2v.4l-.1,.2v.3l-.1,.1v.1l-.1,.1v.1l-.1,.1v.1l-.3,.2l-.1,.1l-.1,.2l-.1,.1h-.1l-.1,.1h-.1l-.1,.1h-.3l-.1,.1h-.3l-.1,.1h-1.7Zm-2.7,8.8l1.3,-4.4h1.1l.4,.1h.2l.2,.1l.1,.1l.2,.1l.1,.1l.2,.1l.2,.1v.2l.1,.2l.1,.2v1.3l-.1,.1v.1l-.1,.2v.1l-.1,.2l-.1,.1v.1l-.2,.1h-.1l-.1,.1l-.1,.1l-.2,.1l-.2,.2l-.2,.1l-.4,.2h-.2l-.2,.1H720Z" class="gk_87"/>
<path fill-rule="evenodd" d="M728.2,409.2l-.8,3.3h-.3v-1.3l-.1,-.1v-.2l-.1,-.2l-.1,-.1l-.2,-.2l-.1,-.2l-.1,-.1l-.2,-.1l-.1,-.1h-.2l-.2,-.1h-.5l-.2,-.1l-.3,.1H724l-.2,.1h-.1l-.1,.1h-.1l-.3,.1h-.1l-.1,.1l-.1,.1h-.2l-.1,.1l-.1,.2l-.3,.1l-.1,.2l-.1,.1l-.2,.1l-.1,.1l-.1,.2l-.1,.1l-.1,.3l-.1,.1l-.2,.2l-.1,.2l-.1,.2l-.1,.1l-.1,.3l-.1,.2l-.1,.3l-.1,.3l-.1,.5l-.1,.3l-.2,.3v2l.2,.1v.1l.1,.3v.1l.1,.1v.2l.1,.1l.1,.1l.1,.1l.1,.1l.1,.2l.1,.1l.1,.1l.2,.1l.1,.1h.1l.1,.1l.1,.1h.1l.2,.1h.2l.3,.1h1.4l.2,-.1h.2l.3,-.1l.2,-.1l.2,-.1l.1,-.1l.2,-.1l.2,-.2l.3,-.2l.1,-.2l.2,-.2l.2,-.2l.1,-.2h.4l-.3,.3l-.1,.3l-.2,.2l-.3,.3l-.2,.2l-.3,.2l-.2,.2l-.2,.1l-.2,.3l-.4,.1l-.2,.1l-.3,.1h-.3l-.4,.1H722l-.3,-.1h-.3l-.3,-.1l-.2,-.1l-.3,-.1l-.2,-.2l-.2,-.1l-.3,-.1l-.2,-.2l-.1,-.1l-.2,-.2l-.2,-.2l-.1,-.3l-.2,-.2l-.1,-.2l-.1,-.2l-.1,-.4v-.2l-.1,-.2v-.2l-.1,-.3v-.5l.1,-.2v-.7l.1,-.1v-.4l.1,-.2l.1,-.3v-.2l.1,-.1l.2,-.2l.1,-.2v-.2l.1,-.3l.2,-.1l.1,-.2l.1,-.2l.1,-.1l.1,-.2l.1,-.2l.3,-.2l.1,-.1l.1,-.2l.2,-.1l.1,-.1l.2,-.2l.3,-.2l.1,-.1l.2,-.1l.2,-.1l.1,-.1l.2,-.1l.3,-.1l.2,-.1h.1l.2,-.1l.2,-.1h.2l.2,-.2h.4l.2,-.1h1.3l.3,.1h.2l.2,.2h.2l.2,.1l.3,.1h.6l.1,-.1l.1,-.1l.1,-.2l.2,-.1Z" class="gk_87"/>
<path fill-rule="evenodd" d="M654,409.8l.2,-.3h4.1l.5,.1h.3l.3,.1h.4l.3,.1l.2,.1l.3,.1l.3,.2l.2,.1l.2,.3l.1,.2l.2,.1l.1,.3l.3,.2l.1,.3l.1,.2l.1,.3l.1,.2v.4l.1,.2v1.3l-.1,.2v.3l-.1,.3v.2l-.1,.2l-.1,.2l-.1,.2v.3l-.1,.2l-.2,.1l-.1,.2l-.1,.1l-.1,.2l-.1,.2l-.1,.1l-.1,.2l-.2,.1l-.1,.1l-.3,.2l-.2,.1l-.2,.3l-.2,.1l-.2,.2l-.3,.1l-.2,.1l-.2,.1l-.3,.1l-.3,.1l-.2,.1l-.3,.2h-.2l-.4,.1H657l-.3,.1h-5.4l.1,-.4h.7l.1,-.1h.2l.1,-.1l.1,-.1v-.1h.1v-.1l.1,-.2v-.1l.1,-.4l.3,-.4l1.7,-6.2l.1,-.3v-.3l.1,-.2v-.5H655v-.2h-.1l-.1,-.1h-.6Zm2.7,.2l-2.2,7.6l-.1,.3l-.1,.4v.6h.1l.1,.1h.3l.1,.1h.6l.2,-.1h.9l.2,-.1h.2l.3,-.1h.3l.2,-.1l.2,-.1h.2l.2,-.1l.3,-.1l.1,-.1l.2,-.2l.2,-.2l.2,-.2l.1,-.2l.3,-.2l.2,-.3l.1,-.2l.2,-.3l.1,-.3l.1,-.3l.1,-.3l.2,-.3l.1,-.3v-.8l.1,-.3V413l-.1,-.1v-.6l-.1,-.2v-.2l-.2,-.1v-.1l-.1,-.3l-.1,-.1v-.1l-.1,-.1l-.1,-.1l-.1,-.1l-.1,-.1l-.1,-.1l-.1,-.1l-.1,-.2h-.2l-.1,-.1l-.2,-.1h-.1l-.2,-.1h-.3l-.2,-.1h-1.5Z" class="gk_87"/>
<path fill-rule="evenodd" d="M753.5,409.5l3.2,7.9l1.6,-6l.1,-.3l.1,-.3v-.7l-.1,-.1v-.1h-.1l-.1,-.1h-.8l.2,-.3h3.1v.3H760l-.2,.1l-.2,.1l-.1,.1l-.1,.1l-.1,.1v.1l-.1,.2v.2l-.1,.3l-.1,.3l-2.4,8.4h-.3l-3.4,-8.6l-1.7,6.4l-.1,.3l-.1,.2v.8l.1,.1v.1h.2v.1h.6v.4h-3.1l.1,-.4h.6l.1,-.1h.1l.2,-.1l.1,-.1l.1,-.1l.1,-.1v-.1l.1,-.1v-.1l.1,-.4l.1,-.4l2.1,-7l-.1,-.2l-.1,-.1v-.1l-.1,-.1h-.1V410h-.1l-.2,-.1h-.2l-.1,-.1H751v-.3Z" class="gk_87"/>
<path fill-rule="evenodd" d="M817,409.5l.8,8.1l6,-8.1h2.4v.3h-1l-.1,.1l-.1,.1l-.1,.1l-.1,.1v.1l-.1,.1v.2l-.2,.1l-.1,.3l-.1,.3l-1.8,6.4v.3l-.2,.3v.6h.2v.1h.1v.1h.1l.1,.1h.9l-.1,.4h-4.3l.1,-.4h.9l.1,-.1l.1,-.1l.1,-.1l.1,-.1l.1,-.1l.1,-.2l.1,-.4l.1,-.4l.3,-.4l1.6,-6l-5.9,8.3h-.3l-.9,-8.3l-1.8,6.3l-.1,.3l-.1,.4v.6l.1,.1l.1,.1h.1l.1,.1h.7v.4h-3.4l.1,-.4h.9l.1,-.1h.1l.1,-.1l.1,-.1v-.1l.1,-.1v-.1l.1,-.1l.1,-.4l.1,-.4l2.2,-7.5l-.1,-.1l-.1,-.1l-.1,-.1h-.1l-.1,-.1h-.8l.1,-.3Z" class="gk_87"/>
<path d="M656.4,458.5h66.4V423.1H656.4v35.4Z" class="gl_87"/>
<path clip-path="url(#c2_87)" d="M753,423h66.3l-96.6,35.5H656.5L753,423Zm-121.7,0H822.2M631.4,458.5H822.3m-165.8,0h66.2V423H656.5v35.5Z" class="gm_87"/>
<path d="M656.5,458.5h66.3V434.1Z" class="gn_87"/>
<path clip-path="url(#c3_87)" d="M753,423h66.3l-96.6,35.5H656.5L753,423ZM631.4,458.5H822.3m-165.8,0h66.2V423H656.5v35.5Z" class="gm_87"/>
</svg>