<?xml version="1.0" encoding="UTF-8" standalone="no"?>
<!DOCTYPE svg PUBLIC "-//W3C//DTD SVG 1.1//EN"
"http://www.w3.org/Graphics/SVG/1.1/DTD/svg11.dtd">
<svg viewBox="0 0 909 1147" version="1.1" xmlns="http://www.w3.org/2000/svg" xmlns:xlink="http://www.w3.org/1999/xlink">
<defs>
<style type="text/css"><![CDATA[
.g0_100{
fill: #B6D774;
}
.g1_100{
fill: #FFFAC2;
}
.g2_100{
fill: none;
stroke: #ABE1FA;
stroke-width: 0.763;
stroke-miterlimit: 10;
}
.g3_100{
fill: none;
stroke: #000;
stroke-width: 1.069;
}
.g4_100{
fill: none;
stroke: #D82C20;
stroke-width: 1.069;
}
.g5_100{
fill: none;
stroke: #0EA5DF;
stroke-width: 3.055;
}
.g6_100{
fill: none;
stroke: #000;
stroke-width: 0.763;
}
.g7_100{
fill: #E7EFC1;
}
.g8_100{
fill: #0EA5DF;
}
]]></style>
</defs>
<path d="M0,1131H73.8v-51.5H0V1131Z" class="g0_100"/>
<path d="M558,215.3l52.2,51.9l69.3,-.1l51.6,-86.5L644.8,163.4Z" class="g1_100"/>
<path d="M564.5,451.9l52.2,52l69.3,-.1l51.6,-86.5L651.3,400.1Z" class="g1_100"/>
<path d="M546.7,382.4h17.8m-17.4,16.9V382.7m17.4,-.3h17.3m-17.3,16.9V382.7m17.3,-.3h17.3m-17.3,16.9V382.7m17.3,-.3h17.3m-17.3,16.9V382.7m17.3,-.3h17.3m-17.3,16.9V382.7m17.3,-.3h17.4m-17.4,16.9V382.7m17.4,-.3h17.3m-17.3,16.9V382.7m17.3,-.3h17.3m-17.3,16.9V382.7m17.3,-.3H703m-17.3,16.9V382.7m17.3,-.3h17.4M703,399.3V382.7m17.4,-.3h17.3m-17.3,16.9V382.7m17.3,-.3h17.7m-17.7,16.9V382.7M755,399.3V382.7m-208.3,17h17.8m-17.4,16.9V400.1m17.4,-.4h17.3m-17.3,16.9V400.1m17.3,-.4h17.3m-17.3,16.9V400.1m17.3,-.4h17.3m-17.3,16.9V400.1m17.3,-.4h17.3m-17.3,16.9V400.1m17.3,-.4h17.4m-17.4,16.9V400.1m17.4,-.4h17.3m-17.3,16.9V400.1m17.3,-.4h17.3m-17.3,16.9V400.1m17.3,-.4H703m-17.3,16.9V400.1m17.3,-.4h17.4M703,416.6V400.1m17.4,-.4h17.3m-17.3,16.9V400.1m17.3,-.4h17.7m-17.7,16.9V400.1M755,416.6V400.1M546.7,417h17.8m-17.4,16.9V417.4m17.4,-.4h17.3m-17.3,16.9V417.4m17.3,-.4h17.3m-17.3,16.9V417.4m17.3,-.4h17.3m-17.3,16.9V417.4m17.3,-.4h17.3m-17.3,16.9V417.4m17.3,-.4h17.4m-17.4,16.9V417.4m17.4,-.4h17.3m-17.3,16.9V417.4m17.3,-.4h17.3m-17.3,16.9V417.4m17.3,-.4H703m-17.3,16.9V417.4M703,417h17.4M703,433.9V417.4m17.4,-.4h17.3m-17.3,16.9V417.4m17.3,-.4h17.7m-17.7,16.9V417.4M755,433.9V417.4M546.7,434.3h17.8m-17.4,17V434.7m17.4,-.4h17.3m-17.3,17V434.7m17.3,-.4h17.3m-17.3,17V434.7m17.3,-.4h17.3m-17.3,17V434.7m17.3,-.4h17.3m-17.3,17V434.7m17.3,-.4h17.4m-17.4,17V434.7m17.4,-.4h17.3m-17.3,17V434.7m17.3,-.4h17.3m-17.3,17V434.7m17.3,-.4H703m-17.3,17V434.7m17.3,-.4h17.4m-17.4,17V434.7m17.4,-.4h17.3m-17.3,17V434.7m17.3,-.4h17.7m-17.7,17V434.7M755,451.3V434.7M546.7,451.6h17.8m-17.4,17V452m17.4,-.4h17.3m-17.3,17V452m17.3,-.4h17.3m-17.3,17V452m17.3,-.4h17.3m-17.3,17V452m17.3,-.4h17.3m-17.3,17V452m17.3,-.4h17.4m-17.4,17V452m17.4,-.4h17.3m-17.3,17V452m17.3,-.4h17.3m-17.3,17V452m17.3,-.4H703m-17.3,17V452m17.3,-.4h17.4m-17.4,17V452m17.4,-.4h17.3m-17.3,17V452m17.3,-.4h17.7m-17.7,17V452M755,468.6V452M546.7,469h17.8m-17.4,16.9V469.3m17.4,-.3h17.3m-17.3,16.9V469.3m17.3,-.3h17.3m-17.3,16.9V469.3m17.3,-.3h17.3m-17.3,16.9V469.3m17.3,-.3h17.3m-17.3,16.9V469.3m17.3,-.3h17.4m-17.4,16.9V469.3m17.4,-.3h17.3m-17.3,16.9V469.3m17.3,-.3h17.3m-17.3,16.9V469.3m17.3,-.3H703m-17.3,16.9V469.3M703,469h17.4M703,485.9V469.3m17.4,-.3h17.3m-17.3,16.9V469.3m17.3,-.3h17.7m-17.7,16.9V469.3M755,485.9V469.3m-208.3,17h17.8m-17.4,16.9V486.7m17.4,-.4h17.3m-17.3,16.9V486.7m17.3,-.4h17.3m-17.3,16.9V486.7m17.3,-.4h17.3m-17.3,16.9V486.7m17.3,-.4h17.3m-17.3,16.9V486.7m17.3,-.4h17.4m-17.4,16.9V486.7m17.4,-.4h17.3m-17.3,16.9V486.7m17.3,-.4h17.3m-17.3,16.9V486.7m17.3,-.4H703m-17.3,16.9V486.7m17.3,-.4h17.4M703,503.2V486.7m17.4,-.4h17.3m-17.3,16.9V486.7m17.3,-.4h17.7m-17.7,16.9V486.7M755,503.2V486.7M546.7,503.6h17.8m-17.4,17V504m17.4,-.4h17.3m-17.3,17V504m17.3,-.4h17.3m-17.3,17V504m17.3,-.4h17.3m-17.3,17V504m17.3,-.4h17.3m-17.3,17V504m17.3,-.4h17.4m-17.4,17V504m17.4,-.4h17.3m-17.3,17V504m17.3,-.4h17.3m-17.3,17V504m17.3,-.4H703m-17.3,17V504m17.3,-.4h17.4m-17.4,17V504m17.4,-.4h17.3m-17.3,17V504m17.3,-.4h17.7m-17.7,17V504M755,520.6V504M546.7,520.9h17.8m0,0h17.3m0,0h17.3m0,0h17.3m0,0h17.3m0,0h17.4m0,0h17.3m0,0h17.3m0,0H703m0,0h17.4m0,0h17.3m0,0h17.7" class="g2_100"/>
<path d="M564.5,451.9l52.2,52l69.3,-.1l51.6,-86.5L651.3,400.1l-86.8,51.8Z" class="g3_100"/>
<path d="M564.3,400.2H737.6V503.7H564.1V400.2" class="g4_100"/>
<path d="M73.6,66.5H835.8" class="g5_100"/>
<path d="M551.9,145.7h17.7m-17.4,16.9V146.1m17.4,-.4h17.3m-17.3,16.9V146.1m17.3,-.4h17.3m-17.3,16.9V146.1m17.3,-.4h17.3m-17.3,16.9V146.1m17.3,-.4h17.3m-17.3,16.9V146.1m17.3,-.4h17.4m-17.4,16.9V146.1m17.4,-.4h17.3m-17.3,16.9V146.1m17.3,-.4h17.3m-17.3,16.9V146.1m17.3,-.4h17.3m-17.3,16.9V146.1m17.3,-.4h17.4m-17.4,16.9V146.1m17.4,-.4h17.3m-17.3,16.9V146.1m17.3,-.4h17.7m-17.7,16.9V146.1m17.3,16.5V146.1M551.9,163h17.7m-17.4,17V163.4m17.4,-.4h17.3m-17.3,17V163.4m17.3,-.4h17.3m-17.3,17V163.4m17.3,-.4h17.3m-17.3,17V163.4m17.3,-.4h17.3m-17.3,17V163.4m17.3,-.4h17.4m-17.4,17V163.4m17.4,-.4h17.3m-17.3,17V163.4m17.3,-.4h17.3m-17.3,17V163.4m17.3,-.4h17.3m-17.3,17V163.4m17.3,-.4h17.4m-17.4,17V163.4m17.4,-.4h17.3m-17.3,17V163.4m17.3,-.4h17.7m-17.7,17V163.4M760.1,180V163.4m-208.2,17h17.7m-17.4,16.9V180.7m17.4,-.3h17.3m-17.3,16.9V180.7m17.3,-.3h17.3m-17.3,16.9V180.7m17.3,-.3h17.3m-17.3,16.9V180.7m17.3,-.3h17.3m-17.3,16.9V180.7m17.3,-.3h17.4m-17.4,16.9V180.7m17.4,-.3h17.3m-17.3,16.9V180.7m17.3,-.3h17.3m-17.3,16.9V180.7m17.3,-.3h17.3m-17.3,16.9V180.7m17.3,-.3h17.4m-17.4,16.9V180.7m17.4,-.3h17.3m-17.3,16.9V180.7m17.3,-.3h17.7m-17.7,16.9V180.7m17.3,16.6V180.7m-208.2,17h17.7m-17.4,16.9V198.1m17.4,-.4h17.3m-17.3,16.9V198.1m17.3,-.4h17.3m-17.3,16.9V198.1m17.3,-.4h17.3m-17.3,16.9V198.1m17.3,-.4h17.3m-17.3,16.9V198.1m17.3,-.4h17.4m-17.4,16.9V198.1m17.4,-.4h17.3m-17.3,16.9V198.1m17.3,-.4h17.3m-17.3,16.9V198.1m17.3,-.4h17.3m-17.3,16.9V198.1m17.3,-.4h17.4m-17.4,16.9V198.1m17.4,-.4h17.3m-17.3,16.9V198.1m17.3,-.4h17.7m-17.7,16.9V198.1m17.3,16.5V198.1M551.9,215h17.7m-17.4,16.9V215.4m17.4,-.4h17.3m-17.3,16.9V215.4m17.3,-.4h17.3m-17.3,16.9V215.4m17.3,-.4h17.3m-17.3,16.9V215.4m17.3,-.4h17.3m-17.3,16.9V215.4m17.3,-.4h17.4m-17.4,16.9V215.4m17.4,-.4h17.3m-17.3,16.9V215.4m17.3,-.4h17.3m-17.3,16.9V215.4m17.3,-.4h17.3m-17.3,16.9V215.4m17.3,-.4h17.4m-17.4,16.9V215.4m17.4,-.4h17.3m-17.3,16.9V215.4m17.3,-.4h17.7m-17.7,16.9V215.4m17.3,16.5V215.4M551.9,232.3h17.7m-17.4,17V232.7m17.4,-.4h17.3m-17.3,17V232.7m17.3,-.4h17.3m-17.3,17V232.7m17.3,-.4h17.3m-17.3,17V232.7m17.3,-.4h17.3m-17.3,17V232.7m17.3,-.4h17.4m-17.4,17V232.7m17.4,-.4h17.3m-17.3,17V232.7m17.3,-.4h17.3m-17.3,17V232.7m17.3,-.4h17.3m-17.3,17V232.7m17.3,-.4h17.4m-17.4,17V232.7m17.4,-.4h17.3m-17.3,17V232.7m17.3,-.4h17.7m-17.7,17V232.7m17.3,16.6V232.7M551.9,249.6h17.7m-17.4,17V250m17.4,-.4h17.3m-17.3,17V250m17.3,-.4h17.3m-17.3,17V250m17.3,-.4h17.3m-17.3,17V250m17.3,-.4h17.3m-17.3,17V250m17.3,-.4h17.4m-17.4,17V250m17.4,-.4h17.3m-17.3,17V250m17.3,-.4h17.3m-17.3,17V250m17.3,-.4h17.3m-17.3,17V250m17.3,-.4h17.4m-17.4,17V250m17.4,-.4h17.3m-17.3,17V250m17.3,-.4h17.7m-17.7,17V250m17.3,16.6V250M551.9,267h17.7m-17.4,16.9V267.3m17.4,-.3h17.3m-17.3,16.9V267.3m17.3,-.3h17.3m-17.3,16.9V267.3m17.3,-.3h17.3m-17.3,16.9V267.3m17.3,-.3h17.3m-17.3,16.9V267.3m17.3,-.3h17.4m-17.4,16.9V267.3m17.4,-.3h17.3m-17.3,16.9V267.3m17.3,-.3h17.3m-17.3,16.9V267.3m17.3,-.3h17.3m-17.3,16.9V267.3m17.3,-.3h17.4m-17.4,16.9V267.3m17.4,-.3h17.3m-17.3,16.9V267.3m17.3,-.3h17.7m-17.7,16.9V267.3m17.3,16.6V267.3m-208.2,17h17.7m0,0h17.3m0,0h17.3m0,0h17.3m0,0h17.3m0,0h17.4m0,0h17.3m0,0h17.3m0,0h17.3m0,0h17.4m0,0h17.3m0,0h17.7" class="g2_100"/>
<path d="M558,215.3l52.2,51.9l69.3,-.1l51.6,-86.5L644.8,163.4L558,215.3Z" class="g3_100"/>
<path d="M623.1,636h67.4m22,0h37.3M623.1,695.8h67.4m22,0h37.3M623.1,755.6h67.4m22,0h37.3M623.1,815.4h37.3" class="g6_100"/>
<path d="M279.3,268.1L227.4,162.8l155.9,69.8Z" class="g7_100"/>
<path d="M210,145.7h17.7m-17.3,16.9V146.1m17.3,-.4h17.4m-17.4,16.9V146.1m17.4,-.4h17.3m-17.3,16.9V146.1m17.3,-.4h17.3m-17.3,16.9V146.1m17.3,-.4H297m-17.3,16.9V146.1m17.3,-.4h17.4M297,162.6V146.1m17.4,-.4h17.3m-17.3,16.9V146.1m17.3,-.4H349m-17.3,16.9V146.1m17.3,-.4h17.3M349,162.6V146.1m17.3,-.4h17.3m-17.3,16.9V146.1m17.3,-.4h17.7m-17.7,16.9V146.1M401,162.6V146.1M210,163h17.7m-17.3,17V163.4m17.3,-.4h17.4m-17.4,17V163.4m17.4,-.4h17.3m-17.3,17V163.4m17.3,-.4h17.3m-17.3,17V163.4m17.3,-.4H297m-17.3,17V163.4M297,163h17.4M297,180V163.4m17.4,-.4h17.3m-17.3,17V163.4m17.3,-.4H349m-17.3,17V163.4M349,163h17.3M349,180V163.4m17.3,-.4h17.3m-17.3,17V163.4m17.3,-.4h17.7m-17.7,17V163.4M401,180V163.4m-191,17h17.7m-17.3,16.9V180.7m17.3,-.3h17.4m-17.4,16.9V180.7m17.4,-.3h17.3m-17.3,16.9V180.7m17.3,-.3h17.3m-17.3,16.9V180.7m17.3,-.3H297m-17.3,16.9V180.7m17.3,-.3h17.4M297,197.3V180.7m17.4,-.3h17.3m-17.3,16.9V180.7m17.3,-.3H349m-17.3,16.9V180.7m17.3,-.3h17.3M349,197.3V180.7m17.3,-.3h17.3m-17.3,16.9V180.7m17.3,-.3h17.7m-17.7,16.9V180.7M401,197.3V180.7m-191,17h17.7m-17.3,16.9V198.1m17.3,-.4h17.4m-17.4,16.9V198.1m17.4,-.4h17.3m-17.3,16.9V198.1m17.3,-.4h17.3m-17.3,16.9V198.1m17.3,-.4H297m-17.3,16.9V198.1m17.3,-.4h17.4M297,214.6V198.1m17.4,-.4h17.3m-17.3,16.9V198.1m17.3,-.4H349m-17.3,16.9V198.1m17.3,-.4h17.3M349,214.6V198.1m17.3,-.4h17.3m-17.3,16.9V198.1m17.3,-.4h17.7m-17.7,16.9V198.1M401,214.6V198.1M210,215h17.7m-17.3,16.9V215.4m17.3,-.4h17.4m-17.4,16.9V215.4m17.4,-.4h17.3m-17.3,16.9V215.4m17.3,-.4h17.3m-17.3,16.9V215.4m17.3,-.4H297m-17.3,16.9V215.4M297,215h17.4M297,231.9V215.4m17.4,-.4h17.3m-17.3,16.9V215.4m17.3,-.4H349m-17.3,16.9V215.4M349,215h17.3M349,231.9V215.4m17.3,-.4h17.3m-17.3,16.9V215.4m17.3,-.4h17.7m-17.7,16.9V215.4M401,231.9V215.4M210,232.3h17.7m-17.3,17V232.7m17.3,-.4h17.4m-17.4,17V232.7m17.4,-.4h17.3m-17.3,17V232.7m17.3,-.4h17.3m-17.3,17V232.7m17.3,-.4H297m-17.3,17V232.7m17.3,-.4h17.4m-17.4,17V232.7m17.4,-.4h17.3m-17.3,17V232.7m17.3,-.4H349m-17.3,17V232.7m17.3,-.4h17.3m-17.3,17V232.7m17.3,-.4h17.3m-17.3,17V232.7m17.3,-.4h17.7m-17.7,17V232.7M401,249.3V232.7M210,249.6h17.7m-17.3,17V250m17.3,-.4h17.4m-17.4,17V250m17.4,-.4h17.3m-17.3,17V250m17.3,-.4h17.3m-17.3,17V250m17.3,-.4H297m-17.3,17V250m17.3,-.4h17.4m-17.4,17V250m17.4,-.4h17.3m-17.3,17V250m17.3,-.4H349m-17.3,17V250m17.3,-.4h17.3m-17.3,17V250m17.3,-.4h17.3m-17.3,17V250m17.3,-.4h17.7m-17.7,17V250M401,266.6V250M210,267h17.7m-17.3,16.9V267.3m17.3,-.3h17.4m-17.4,16.9V267.3m17.4,-.3h17.3m-17.3,16.9V267.3m17.3,-.3h17.3m-17.3,16.9V267.3m17.3,-.3H297m-17.3,16.9V267.3M297,267h17.4M297,283.9V267.3m17.4,-.3h17.3m-17.3,16.9V267.3m17.3,-.3H349m-17.3,16.9V267.3M349,267h17.3M349,283.9V267.3m17.3,-.3h17.3m-17.3,16.9V267.3m17.3,-.3h17.7m-17.7,16.9V267.3M401,283.9V267.3m-191,17h17.7m0,0h17.4m0,0h17.3m0,0h17.3m0,0H297m0,0h17.4m0,0h17.3m0,0H349m0,0h17.3m0,0h17.3m0,0h17.7" class="g2_100"/>
<path d="M279.7,267L227.4,162.8l155.9,69.8L279.7,267Z" class="g3_100"/>
<path d="M287.3,636h67.4m22,0H414M287.3,695.8h67.4m22,0H414M287.3,755.6h67.4m22,0H414" class="g6_100"/>
<path d="M279.3,504.7L227.4,399.5l155.9,69.7Z" class="g7_100"/>
<path d="M210,382.4h17.7m-17.3,16.9V382.7m17.3,-.3h17.4m-17.4,16.9V382.7m17.4,-.3h17.3m-17.3,16.9V382.7m17.3,-.3h17.3m-17.3,16.9V382.7m17.3,-.3H297m-17.3,16.9V382.7m17.3,-.3h17.4M297,399.3V382.7m17.4,-.3h17.3m-17.3,16.9V382.7m17.3,-.3H349m-17.3,16.9V382.7m17.3,-.3h17.3M349,399.3V382.7m17.3,-.3h17.3m-17.3,16.9V382.7m17.3,-.3h17.7m-17.7,16.9V382.7M401,399.3V382.7m-191,17h17.7m-17.3,16.9V400.1m17.3,-.4h17.4m-17.4,16.9V400.1m17.4,-.4h17.3m-17.3,16.9V400.1m17.3,-.4h17.3m-17.3,16.9V400.1m17.3,-.4H297m-17.3,16.9V400.1m17.3,-.4h17.4M297,416.6V400.1m17.4,-.4h17.3m-17.3,16.9V400.1m17.3,-.4H349m-17.3,16.9V400.1m17.3,-.4h17.3M349,416.6V400.1m17.3,-.4h17.3m-17.3,16.9V400.1m17.3,-.4h17.7m-17.7,16.9V400.1M401,416.6V400.1M210,417h17.7m-17.3,16.9V417.4m17.3,-.4h17.4m-17.4,16.9V417.4m17.4,-.4h17.3m-17.3,16.9V417.4m17.3,-.4h17.3m-17.3,16.9V417.4m17.3,-.4H297m-17.3,16.9V417.4M297,417h17.4M297,433.9V417.4m17.4,-.4h17.3m-17.3,16.9V417.4m17.3,-.4H349m-17.3,16.9V417.4M349,417h17.3M349,433.9V417.4m17.3,-.4h17.3m-17.3,16.9V417.4m17.3,-.4h17.7m-17.7,16.9V417.4M401,433.9V417.4M210,434.3h17.7m-17.3,17V434.7m17.3,-.4h17.4m-17.4,17V434.7m17.4,-.4h17.3m-17.3,17V434.7m17.3,-.4h17.3m-17.3,17V434.7m17.3,-.4H297m-17.3,17V434.7m17.3,-.4h17.4m-17.4,17V434.7m17.4,-.4h17.3m-17.3,17V434.7m17.3,-.4H349m-17.3,17V434.7m17.3,-.4h17.3m-17.3,17V434.7m17.3,-.4h17.3m-17.3,17V434.7m17.3,-.4h17.7m-17.7,17V434.7M401,451.3V434.7M210,451.6h17.7m-17.3,17V452m17.3,-.4h17.4m-17.4,17V452m17.4,-.4h17.3m-17.3,17V452m17.3,-.4h17.3m-17.3,17V452m17.3,-.4H297m-17.3,17V452m17.3,-.4h17.4m-17.4,17V452m17.4,-.4h17.3m-17.3,17V452m17.3,-.4H349m-17.3,17V452m17.3,-.4h17.3m-17.3,17V452m17.3,-.4h17.3m-17.3,17V452m17.3,-.4h17.7m-17.7,17V452M401,468.6V452M210,469h17.7m-17.3,16.9V469.3m17.3,-.3h17.4m-17.4,16.9V469.3m17.4,-.3h17.3m-17.3,16.9V469.3m17.3,-.3h17.3m-17.3,16.9V469.3m17.3,-.3H297m-17.3,16.9V469.3M297,469h17.4M297,485.9V469.3m17.4,-.3h17.3m-17.3,16.9V469.3m17.3,-.3H349m-17.3,16.9V469.3M349,469h17.3M349,485.9V469.3m17.3,-.3h17.3m-17.3,16.9V469.3m17.3,-.3h17.7m-17.7,16.9V469.3M401,485.9V469.3m-191,17h17.7m-17.3,16.9V486.7m17.3,-.4h17.4m-17.4,16.9V486.7m17.4,-.4h17.3m-17.3,16.9V486.7m17.3,-.4h17.3m-17.3,16.9V486.7m17.3,-.4H297m-17.3,16.9V486.7m17.3,-.4h17.4M297,503.2V486.7m17.4,-.4h17.3m-17.3,16.9V486.7m17.3,-.4H349m-17.3,16.9V486.7m17.3,-.4h17.3M349,503.2V486.7m17.3,-.4h17.3m-17.3,16.9V486.7m17.3,-.4h17.7m-17.7,16.9V486.7M401,503.2V486.7M210,503.6h17.7m-17.3,17V504m17.3,-.4h17.4m-17.4,17V504m17.4,-.4h17.3m-17.3,17V504m17.3,-.4h17.3m-17.3,17V504m17.3,-.4H297m-17.3,17V504m17.3,-.4h17.4m-17.4,17V504m17.4,-.4h17.3m-17.3,17V504m17.3,-.4H349m-17.3,17V504m17.3,-.4h17.3m-17.3,17V504m17.3,-.4h17.3m-17.3,17V504m17.3,-.4h17.7m-17.7,17V504M401,520.6V504M210,520.9h17.7m0,0h17.4m0,0h17.3m0,0h17.3m0,0H297m0,0h17.4m0,0h17.3m0,0H349m0,0h17.3m0,0h17.3m0,0h17.7" class="g2_100"/>
<path d="M279.7,503.8L228.4,400.4l154.1,68.4l-102.8,35Z" class="g3_100"/>
<path d="M227.7,399.4H383.2V503.6H227.5V399.4" class="g4_100"/>
<path d="M73.6,95.1H181V65H73.6V95.1Z" class="g8_100"/>
</svg>