<?xml version="1.0" encoding="UTF-8" standalone="no"?>
<!DOCTYPE svg PUBLIC "-//W3C//DTD SVG 1.1//EN"
"http://www.w3.org/Graphics/SVG/1.1/DTD/svg11.dtd">
<svg viewBox="0 0 909 1147" version="1.1" xmlns="http://www.w3.org/2000/svg" xmlns:xlink="http://www.w3.org/1999/xlink">
<defs>
<clipPath id="c0_117"><path d="M140.8,214.5v-18H171v18Z"/></clipPath>
<style type="text/css"><![CDATA[
.g0_117{
fill: #E7A9A1;
}
.g1_117{
fill: #0EA5DF;
}
.g2_117{
fill: #FFF;
}
.g3_117{
fill: #FFF1E0;
}
.g4_117{
fill: none;
stroke: #000;
stroke-width: 0.33;
stroke-miterlimit: 2;
}
.g5_117{
fill: #000;
}
.g6_117{
fill: none;
stroke: #000;
stroke-width: 1.069;
stroke-miterlimit: 2;
}
.g7_117{
fill: none;
stroke: #000;
stroke-width: 1.069;
stroke-miterlimit: 2;
stroke-dasharray: 6,4;
}
.g8_117{
fill: none;
stroke: #0EA5DF;
stroke-width: 3.055;
}
.g9_117{
fill: #E8F1FA;
}
.ga_117{
fill: #C7EAFB;
}
.gb_117{
fill: none;
stroke: #000;
stroke-width: 1.527;
stroke-miterlimit: 2;
}
.gc_117{
fill: #E1F4FD;
}
.gd_117{
fill: #ABE1FA;
}
.ge_117{
fill: #0C4B7F;
}
.gf_117{
fill: none;
stroke: #000;
stroke-width: 0.763;
}
]]></style>
</defs>
<path d="M835.8,1131h73.6v-51.5H835.8V1131Z" class="g0_117"/>
<path d="M135.8,223.9h39.7V186.4H135.8v37.5Z" class="g1_117"/>
<path clip-path="url(#c0_117)" d="M156.1,208.9c-2.1,.2,-3.8,-1.5,-3.6,-3.6c.1,-1.7,1.5,-3.1,3.2,-3.2c2,-.1,3.7,1.6,3.6,3.7c-.1,1.7,-1.5,3,-3.2,3.1m.2,3c-3.8,.2,-7,-2.9,-6.8,-6.8c.2,-3.1,2.8,-5.7,6,-5.9c3.8,-.2,7,2.9,6.7,6.8c-.2,3.1,-2.8,5.7,-5.9,5.9m-.4,-15.4c-5.8,0,-11,3.2,-14.9,8.3c-.3,.4,-.3,1,0,1.5c3.9,5.1,9.1,8.2,14.9,8.2c5.7,0,11,-3.1,14.8,-8.2c.4,-.5,.4,-1.1,0,-1.5c-3.8,-5.1,-9.1,-8.3,-14.8,-8.3Z" class="g2_117"/>
<path d="M184.8,300.3h651V186.4h-651V300.3Z" class="g3_117"/>
<path d="M187.6,787l-.6,36.8h82.3l18,-12.7V774.7l-81.9,-.3Z" class="g2_117"/>
<path d="M187.6,787l17.8,-12.6l81.9,.3v36.4l-18,12.7H187l.6,-36.8Z" class="g4_117"/>
<path fill-rule="evenodd" d="M233.1,829l-1.6,5.5l-.2,.8c0,0,0,.1,0,.2c0,0,0,.1,.1,.2c0,0,.1,.1,.1,.1c.1,0,.2,-.1,.3,-.2c.2,-.1,.5,-.5,.9,-1l.3,.2c-.4,.6,-.8,1,-1.2,1.3c-.4,.3,-.8,.5,-1.1,.5c-.3,0,-.4,-.1,-.6,-.2c-.1,-.1,-.1,-.3,-.1,-.5c0,-.3,0,-.6,.2,-1.1l.1,-.6c-.7,1,-1.3,1.6,-2,2c-.4,.3,-.8,.4,-1.2,.4c-.4,0,-.8,-.2,-1.1,-.5c-.2,-.3,-.4,-.8,-.4,-1.4c0,-.8,.3,-1.8,.8,-2.7c.5,-1,1.2,-1.8,2,-2.3c.6,-.5,1.2,-.7,1.8,-.7c.3,0,.6,.1,.8,.2c.2,.2,.4,.5,.5,.9l.3,-.9Zm-2.9,.4c-.4,0,-.7,.2,-1.1,.5c-.6,.5,-1.1,1.1,-1.5,2.1c-.5,.9,-.7,1.7,-.7,2.4c0,.4,.1,.7,.3,.9c.2,.2,.4,.3,.6,.3c.6,0,1.3,-.4,2,-1.3c.9,-1.2,1.4,-2.4,1.4,-3.6c0,-.5,-.1,-.8,-.3,-1c-.2,-.2,-.4,-.3,-.7,-.3Z" class="g5_117"/>
<path fill-rule="evenodd" d="M299.1,791.4c-.6,.7,-1.2,1.2,-1.7,1.5c-.6,.3,-1.2,.5,-1.9,.5c-.8,0,-1.4,-.3,-1.8,-.7c-.4,-.4,-.7,-1,-.7,-1.8c0,-.8,.3,-1.6,.7,-2.4c.5,-.8,1.1,-1.5,1.9,-2c.8,-.5,1.6,-.8,2.4,-.8c.6,0,1,.2,1.3,.4c.3,.3,.4,.6,.4,.9c0,.4,-.1,.7,-.3,.9c-.1,.2,-.3,.3,-.5,.3c-.2,0,-.4,-.1,-.5,-.2c-.1,-.1,-.1,-.2,-.1,-.4c0,-.1,0,-.2,0,-.3c.1,-.1,.2,-.2,.3,-.3c.1,-.1,.2,-.2,.2,-.3c0,0,.1,-.1,.1,-.1c0,-.2,-.1,-.3,-.2,-.3c-.2,-.1,-.4,-.2,-.7,-.2c-.5,0,-1,.2,-1.6,.6c-.5,.4,-.9,.9,-1.3,1.6c-.5,.8,-.7,1.7,-.7,2.5c0,.6,.2,1,.5,1.3c.3,.4,.7,.5,1.3,.5c.4,0,.8,-.1,1.2,-.3c.5,-.2,.9,-.6,1.4,-1.1Z" class="g5_117"/>
<path fill-rule="evenodd" d="M288.2,819.7l-1.6,5.6c.5,-.5,1,-.9,1.4,-1.1c.4,-.2,.8,-.3,1.2,-.3c.6,0,1.1,.2,1.5,.6c.4,.4,.6,1,.6,1.6c0,.9,-.3,1.8,-.8,2.7c-.5,.8,-1.1,1.5,-1.9,2c-.7,.5,-1.5,.7,-2.2,.7c-.9,0,-1.7,-.3,-2.6,-.9l2.5,-8.6c.2,-.6,.3,-1,.3,-1.1c0,-.2,0,-.3,-.1,-.4c-.2,-.1,-.3,-.1,-.6,-.1c-.1,0,-.3,0,-.5,.1v-.4Zm-3.1,11c.5,.3,1,.5,1.4,.5c.5,0,1,-.2,1.5,-.6c.5,-.3,1,-.9,1.3,-1.8c.4,-.8,.6,-1.6,.6,-2.5c0,-.5,-.1,-.9,-.4,-1.2c-.2,-.3,-.5,-.4,-.8,-.4c-.6,0,-1.1,.2,-1.5,.6c-.5,.4,-.9,1,-1.1,1.7Z" class="g5_117"/>
<path d="M187,787.2h82.5v36.5H187V787.2Z" class="g6_117"/>
<path d="M287.6,811.1H205.1V774.6" class="g7_117"/>
<path d="M205.1,774.6h82.5v36.5M187.1,787l18.1,-12.5m64.3,12.8l18.2,-12.6" class="g6_117"/>
<path d="M187,823.5L205.1,811" class="g7_117"/>
<path d="M269.5,823.8l18.1,-12.6" class="g6_117"/>
<path d="M73.6,689H835.8" class="g8_117"/>
<path d="M183.7,1039.1H834.8V845.8H183.7v193.3Z" class="g9_117"/>
<path d="M72.5,846.7H835.8" class="g8_117"/>
<path d="M520.4,121.9h96.1V65.7H520.4v56.2Z" class="ga_117"/>
<path d="M520.4,65.7h96.1v56.2H520.4V65.7Z" class="gb_117"/>
<path d="M672,121.9h96.2V65.7H672v56.2Z" class="ga_117"/>
<path d="M672,65.7h96.2v56.2H672V65.7Z" class="gb_117"/>
<path d="M768.2,121.9h55.4V65.7H768.2v56.2Z" class="gc_117"/>
<path d="M768.2,65.7h55.4v56.2H768.2V65.7Z" class="gb_117"/>
<path d="M616.5,121.9h55.4V65.7H616.5v56.2Z" class="gc_117"/>
<path d="M616.5,65.7h55.4v56.2H616.5V65.7Z" class="gb_117"/>
<path d="M672.2,498.7h96.1V454.4H672.2v44.3Z" class="gd_117"/>
<path d="M672.2,454.4h96.1v44.3H672.2V454.4Z" class="gb_117"/>
<path d="M520.4,454.2H774.9V398.1H520.4v56.1Z" class="ga_117"/>
<path d="M520.4,398.1H774.9v56.1H520.4V398.1Z" class="gb_117"/>
<path d="M768.2,454.2h55.4V398.1H768.2v56.1Z" class="gc_117"/>
<path d="M768.2,398.1h55.4v56.1H768.2V398.1Z" class="gb_117"/>
<path fill-rule="evenodd" d="M616.5,398.1h55.4v56.1H616.5V398.1Z" class="gc_117"/>
<path d="M616.5,398.1h55.4v56.1H616.5V398.1Z" class="gb_117"/>
<path fill-rule="evenodd" d="M671.8,353.7H768v44.4H671.8V353.7Z" class="gd_117"/>
<path d="M671.8,353.7H768v44.4H671.8V353.7Z" class="gb_117"/>
<path d="M135.8,570.9h39.7V533.5H135.8v37.4Z" class="ge_117"/>
<path d="M184.8,676.8h651V533.2h-651V676.8Z" class="g3_117"/>
<path d="M73.6,1047.9H290.2" class="gf_117"/>
</svg>