<?xml version="1.0" encoding="UTF-8" standalone="no"?>
<!DOCTYPE svg PUBLIC "-//W3C//DTD SVG 1.1//EN"
"http://www.w3.org/Graphics/SVG/1.1/DTD/svg11.dtd">
<svg viewBox="0 0 909 1147" version="1.1" xmlns="http://www.w3.org/2000/svg" xmlns:xlink="http://www.w3.org/1999/xlink">
<defs>
<clipPath id="c0_79"><path d="M408.1,531.7V349.9H568.8V531.7Z"/></clipPath>
<clipPath id="c1_79"><path d="M185.1,531.7V349.9H349.9V531.7Z"/></clipPath>
<clipPath id="c2_79"><path d="M631.1,531.7V349.9H801.3V531.7Z"/></clipPath>
<style type="text/css"><![CDATA[
.g0_79{
fill: #B6D774;
}
.g1_79{
fill: none;
stroke: #8ED8F8;
stroke-width: 0.766;
stroke-miterlimit: 2;
}
.g2_79{
fill: none;
stroke: #000;
stroke-width: 1.072;
stroke-miterlimit: 2;
}
.g3_79{
fill: none;
stroke: #000;
stroke-width: 1.072;
stroke-miterlimit: 2;
stroke-dasharray: 6,4;
}
.g4_79{
fill: #000;
}
.g5_79{
fill: #FFF1E0;
}
.g6_79{
fill: none;
stroke: #0EA5DF;
stroke-width: 3.055;
}
.g7_79{
fill: #E8F1FA;
}
.g8_79{
fill: #FFF;
}
.g9_79{
fill: none;
stroke: #5CADCE;
stroke-width: 0.754;
stroke-miterlimit: 2;
}
.ga_79{
fill: #FFF;
stroke: #5CADCE;
stroke-width: 0.754;
stroke-miterlimit: 2;
}
.gb_79{
fill: none;
stroke: #000;
stroke-width: 1.616;
stroke-miterlimit: 2;
}
.gc_79{
fill: none;
stroke: #5CADCE;
stroke-width: 0.748;
stroke-miterlimit: 2;
}
.gd_79{
fill: #FFF;
stroke: #5CADCE;
stroke-width: 0.748;
stroke-miterlimit: 2;
}
.ge_79{
fill: none;
stroke: #000;
stroke-width: 1.604;
stroke-miterlimit: 2;
}
.gf_79{
fill: none;
stroke: #5CADCE;
stroke-width: 0.562;
stroke-miterlimit: 2;
}
.gg_79{
fill: #FFF;
stroke: #5CADCE;
stroke-width: 0.562;
stroke-miterlimit: 2;
}
.gh_79{
fill: none;
stroke: #000;
stroke-width: 0.152;
stroke-miterlimit: 2;
}
.gi_79{
fill: none;
stroke: #000;
stroke-width: 1.205;
stroke-miterlimit: 2;
}
.gj_79{
fill: none;
stroke: #5CADCE;
stroke-width: 0.565;
stroke-miterlimit: 2;
}
.gk_79{
fill: #FFF;
stroke: #5CADCE;
stroke-width: 0.565;
stroke-miterlimit: 2;
}
.gl_79{
fill: none;
stroke: #000;
stroke-width: 1.211;
stroke-miterlimit: 2;
}
.gm_79{
fill: #0C4B7F;
}
.gn_79{
fill: none;
stroke: #5CADCE;
stroke-width: 0.74;
stroke-miterlimit: 2;
}
.go_79{
fill: #FFF;
stroke: #5CADCE;
stroke-width: 0.74;
stroke-miterlimit: 2;
}
.gp_79{
fill: none;
stroke: #000;
stroke-width: 1.588;
stroke-miterlimit: 2;
}
.gq_79{
fill: #0EA5DF;
}
]]></style>
</defs>
<path d="M835.8,1131h73.6v-51.5H835.8V1131Z" class="g0_79"/>
<g clip-path="url(#c0_79)">
<path d="M291.3,361.7V532.2M260.9,361.7V532.2M321.7,361.7V532.2M352.1,361.7V532.2M382.6,361.7V532.2M413,361.7V532.2M443.4,361.7V532.2M473.8,361.7V532.2M504.2,361.7V532.2M534.6,361.7V532.2M565,361.7V532.2M595.4,361.7V532.2M625.8,361.7V532.2M656.3,361.7V532.2M686.7,361.7V532.2M717.1,361.7V532.2M246.2,372.2H733.8M246.2,402.8H733.8M246.2,433.4H733.8M246.2,464H733.8M246.2,494.6H733.8M246.2,525.2H733.8" class="g1_79"/>
<path d="M274.8,372.2H398.2m29.3,31.1H539.4m56.2,117.3V366.8M274.8,464.5H398.2m29.3,30.3H539.4m147.1,25.8V366.8" class="g2_79"/>
<path d="M291.7,372.2v91.7M443.6,404.1v90.2M596.5,463.9h89.6M352.6,372.2v91.7M504.4,404.1v90.2m92.1,-91.7h89.6" class="g3_79"/>
</g>
<path fill-rule="evenodd" d="M429.5,408.3l-1.7,6.1l-.2,.9c0,0,0,.1,0,.2c0,0,0,.1,.1,.2c0,.1,.1,.1,.1,.1c.1,0,.2,-.1,.3,-.2c.3,-.1,.6,-.5,1,-1l.3,.2c-.4,.6,-.9,1.1,-1.3,1.4c-.4,.3,-.8,.5,-1.2,.5c-.3,0,-.5,-.1,-.6,-.2c-.1,-.1,-.2,-.3,-.2,-.6c0,-.3,.1,-.6,.2,-1.1l.2,-.7c-.8,1,-1.5,1.7,-2.2,2.2c-.4,.3,-.9,.4,-1.3,.4c-.5,0,-.9,-.2,-1.2,-.5c-.3,-.4,-.4,-.9,-.4,-1.6c0,-.9,.2,-1.9,.8,-3c.6,-1,1.3,-1.9,2.2,-2.5c.7,-.5,1.3,-.8,1.9,-.8c.4,0,.7,.1,.9,.3c.3,.2,.5,.5,.6,1l.3,-1.1Zm-3.2,.5c-.3,0,-.7,.2,-1.2,.5c-.6,.5,-1.1,1.3,-1.6,2.3c-.5,1,-.7,1.9,-.7,2.7c0,.4,.1,.8,.3,1c.2,.2,.4,.4,.7,.4c.6,0,1.4,-.5,2.1,-1.5c1,-1.3,1.6,-2.6,1.6,-4c0,-.5,-.1,-.9,-.3,-1.1c-.2,-.2,-.5,-.3,-.9,-.3Z" class="g4_79"/>
<path fill-rule="evenodd" d="M425.1,479.7l-1.7,6.3c.5,-.6,1,-1,1.5,-1.2c.4,-.3,.8,-.4,1.3,-.4c.7,0,1.2,.2,1.6,.7c.4,.4,.7,1,.7,1.8c0,.9,-.3,1.9,-.9,2.9c-.5,.9,-1.2,1.7,-2,2.2c-.9,.5,-1.7,.8,-2.5,.8c-.9,0,-1.8,-.3,-2.8,-1l2.7,-9.5c.3,-.7,.4,-1.1,.4,-1.3c0,-.1,-.1,-.2,-.2,-.3c-.1,-.1,-.3,-.2,-.6,-.2c-.1,0,-.3,.1,-.6,.1v-.3Zm-3.4,12.2c.6,.3,1.1,.5,1.5,.5c.6,0,1.1,-.2,1.7,-.6c.5,-.4,1,-1,1.4,-2c.5,-.9,.7,-1.8,.7,-2.7c0,-.6,-.2,-1,-.4,-1.4c-.3,-.3,-.6,-.4,-1,-.4c-.6,0,-1.1,.2,-1.6,.7c-.6,.4,-.9,1,-1.2,1.8Z" class="g4_79"/>
<path fill-rule="evenodd" d="M451.9,445.5c.3,-.7,.7,-1.2,1.1,-1.6c.5,-.4,1,-.6,1.7,-.6c.8,0,1.4,.3,1.8,.8c.4,.4,.5,.9,.5,1.3c0,.8,-.4,1.5,-1.4,2.3c.7,.3,1.1,.6,1.5,1.1c.3,.4,.4,1,.4,1.6c0,.9,-.2,1.6,-.8,2.3c-.7,.8,-1.8,1.2,-3.2,1.2c-.7,0,-1.1,0,-1.4,-.2c-.2,-.2,-.3,-.4,-.3,-.6c0,-.1,0,-.2,.1,-.3c.2,-.2,.3,-.2,.5,-.2c.1,0,.2,0,.3,0c.1,.1,.3,.2,.6,.3c.3,.2,.5,.3,.6,.3c.2,.1,.4,.1,.6,.1c.5,0,1,-.2,1.4,-.6c.3,-.4,.5,-.9,.5,-1.4c0,-.4,-.1,-.8,-.2,-1.2c-.2,-.3,-.3,-.5,-.5,-.6c-.2,-.2,-.5,-.4,-.8,-.6c-.4,-.1,-.8,-.2,-1.2,-.2h-.2v-.2c.4,-.1,.8,-.2,1.2,-.5c.4,-.2,.6,-.5,.8,-.8c.2,-.3,.3,-.7,.3,-1.1c0,-.5,-.2,-.9,-.5,-1.3c-.3,-.3,-.7,-.4,-1.2,-.4c-.8,0,-1.4,.4,-1.9,1.2Z" class="g4_79"/>
<path fill-rule="evenodd" d="M467.5,452l2.2,-5.1H472v.3c-.3,0,-.6,0,-.7,.1c-.1,0,-.2,.1,-.2,.2c-.1,.1,-.1,.4,-.1,1v3.6c0,.5,0,.8,0,1c.1,.1,.2,.2,.3,.3c.2,.1,.4,.1,.7,.1v.3h-3.3v-.3c.4,0,.7,-.1,.8,-.2c.1,-.2,.2,-.6,.2,-1.2V448l-2.4,5.8H467L464.6,448v4.1c0,.5,0,.8,0,1c.1,.1,.2,.2,.3,.3c.2,.1,.4,.1,.7,.1v.3H463v-.3c.4,0,.7,-.1,.8,-.3c.2,-.1,.2,-.5,.2,-1.1v-3.6c0,-.6,0,-.9,-.1,-1c0,-.1,-.1,-.2,-.2,-.2c-.1,-.1,-.4,-.1,-.7,-.1v-.3h2.4Z" class="g4_79"/>
<path fill-rule="evenodd" d="M474.2,452.3c.3,0,.5,.1,.6,.2c.2,.2,.3,.4,.3,.6c0,.3,-.1,.5,-.3,.6c-.1,.2,-.3,.3,-.6,.3c-.2,0,-.4,-.1,-.5,-.3c-.2,-.1,-.3,-.3,-.3,-.6c0,-.2,.1,-.4,.3,-.6c.1,-.1,.3,-.2,.5,-.2Z" class="g4_79"/>
<path fill-rule="evenodd" d="M481.6,449.5c0,1,.3,1.8,.8,2.4c.5,.6,1.1,.8,1.7,.8c.5,0,.9,-.1,1.2,-.3c.3,-.3,.6,-.7,.8,-1.3l.3,.1c-.1,.7,-.4,1.4,-.9,1.9c-.6,.6,-1.2,.9,-1.9,.9c-.9,0,-1.6,-.3,-2.2,-1c-.5,-.6,-.8,-1.5,-.8,-2.6c0,-1.2,.3,-2.1,.9,-2.8c.6,-.6,1.3,-.9,2.2,-.9c.8,0,1.4,.2,1.9,.7c.5,.5,.8,1.2,.8,2.1Zm0,-.5h3.2c0,-.4,-.1,-.7,-.2,-.9c-.1,-.3,-.3,-.5,-.5,-.7c-.3,-.1,-.5,-.2,-.8,-.2c-.4,0,-.8,.1,-1.1,.5c-.3,.3,-.5,.8,-.6,1.3Z" class="g4_79"/>
<path fill-rule="evenodd" d="M488,446.9h6.1v.3c-.4,0,-.6,0,-.7,.1c-.1,0,-.2,.1,-.3,.2c0,.1,-.1,.4,-.1,1v3.4c0,.7,.1,1.2,.2,1.3c.1,.2,.4,.3,.9,.3v2.2h-.3c0,-.4,-.1,-.8,-.3,-1.1c-.2,-.3,-.5,-.5,-.8,-.6c-.3,-.2,-.8,-.2,-1.4,-.2h-1.8c-.5,0,-1,0,-1.3,.1c-.3,.1,-.5,.3,-.8,.6c-.2,.3,-.3,.7,-.3,1.2h-.3v-2.2c.4,0,.8,-.2,1.1,-.5c.3,-.3,.6,-.9,.9,-1.8c.2,-.9,.4,-1.8,.4,-2.7c0,-.9,-.4,-1.3,-1.2,-1.3Zm1.7,.5v.4c0,2.4,-.5,4.3,-1.4,5.5h2.6c.4,0,.7,-.1,.8,-.1c0,-.1,.1,-.4,.1,-.9v-4.9Z" class="g4_79"/>
<path fill-rule="evenodd" d="M496.3,452.3c.2,0,.4,.1,.6,.2c.2,.2,.2,.4,.2,.6c0,.3,0,.5,-.2,.6c-.2,.2,-.4,.3,-.6,.3c-.2,0,-.4,-.1,-.6,-.3c-.1,-.1,-.2,-.3,-.2,-.6c0,-.2,.1,-.4,.2,-.6c.2,-.1,.4,-.2,.6,-.2Z" class="g4_79"/>
<path fill-rule="evenodd" d="M514.9,445.5c.3,-.7,.6,-1.2,1.1,-1.6c.4,-.4,1,-.6,1.6,-.6c.8,0,1.4,.3,1.9,.8c.3,.4,.5,.9,.5,1.3c0,.8,-.5,1.5,-1.4,2.3c.6,.3,1.1,.6,1.4,1.1c.3,.4,.5,1,.5,1.6c0,.9,-.3,1.6,-.9,2.3c-.7,.8,-1.7,1.2,-3.1,1.2c-.7,0,-1.2,0,-1.4,-.2c-.3,-.2,-.4,-.4,-.4,-.6c0,-.1,.1,-.2,.2,-.3c.1,-.2,.2,-.2,.4,-.2c.1,0,.3,0,.4,0c.1,.1,.3,.2,.6,.3c.3,.2,.5,.3,.6,.3c.2,.1,.4,.1,.6,.1c.5,0,.9,-.2,1.3,-.6c.4,-.4,.6,-.9,.6,-1.4c0,-.4,-.1,-.8,-.3,-1.2c-.1,-.3,-.3,-.5,-.4,-.6c-.2,-.2,-.5,-.4,-.9,-.6c-.4,-.1,-.8,-.2,-1.1,-.2h-.3v-.2c.4,-.1,.8,-.2,1.2,-.5c.4,-.2,.7,-.5,.9,-.8c.1,-.3,.2,-.7,.2,-1.1c0,-.5,-.1,-.9,-.4,-1.3c-.4,-.3,-.8,-.4,-1.2,-.4c-.8,0,-1.5,.4,-2,1.2Z" class="g4_79"/>
<path fill-rule="evenodd" d="M530.5,452l2.1,-5.1h2.3v.3c-.3,0,-.5,0,-.6,.1c-.1,0,-.2,.1,-.3,.2c-.1,.1,-.1,.4,-.1,1v3.6c0,.5,0,.8,.1,1c0,.1,.1,.2,.3,.3c.1,.1,.3,.1,.6,.1v.3h-3.3v-.3c.4,0,.7,-.1,.9,-.2c.1,-.2,.2,-.6,.2,-1.2V448l-2.5,5.8H530L527.5,448v4.1c0,.5,0,.8,.1,1c0,.1,.1,.2,.3,.3c.1,.1,.3,.1,.6,.1v.3h-2.6v-.3c.5,0,.8,-.1,.9,-.3c.1,-.1,.2,-.5,.2,-1.1v-3.6c0,-.6,-.1,-.9,-.1,-1c-.1,-.1,-.2,-.2,-.3,-.2c-.1,-.1,-.3,-.1,-.7,-.1v-.3h2.4Z" class="g4_79"/>
<path fill-rule="evenodd" d="M537.2,452.3c.2,0,.4,.1,.6,.2c.1,.2,.2,.4,.2,.6c0,.3,-.1,.5,-.2,.6c-.2,.2,-.4,.3,-.6,.3c-.2,0,-.4,-.1,-.6,-.3c-.2,-.1,-.2,-.3,-.2,-.6c0,-.2,0,-.4,.2,-.6c.2,-.1,.4,-.2,.6,-.2Z" class="g4_79"/>
<path fill-rule="evenodd" d="M544.6,449.5c0,1,.2,1.8,.7,2.4c.5,.6,1.1,.8,1.8,.8c.4,0,.8,-.1,1.1,-.3c.4,-.3,.7,-.7,.9,-1.3l.2,.1c-.1,.7,-.4,1.4,-.9,1.9c-.5,.6,-1.1,.9,-1.9,.9c-.8,0,-1.5,-.3,-2.1,-1c-.6,-.6,-.9,-1.5,-.9,-2.6c0,-1.2,.3,-2.1,.9,-2.8c.6,-.6,1.4,-.9,2.3,-.9c.7,0,1.4,.2,1.9,.7c.5,.5,.7,1.2,.7,2.1Zm0,-.5h3.1c0,-.4,0,-.7,-.1,-.9c-.1,-.3,-.3,-.5,-.6,-.7c-.2,-.1,-.5,-.2,-.7,-.2c-.5,0,-.8,.1,-1.2,.5c-.3,.3,-.5,.8,-.5,1.3Z" class="g4_79"/>
<path fill-rule="evenodd" d="M551,446.9h6v.3c-.3,0,-.6,0,-.7,.1c-.1,0,-.2,.1,-.2,.2c-.1,.1,-.1,.4,-.1,1v3.4c0,.7,0,1.2,.1,1.3c.2,.2,.5,.3,.9,.3v2.2h-.3c0,-.4,-.1,-.8,-.3,-1.1c-.2,-.3,-.4,-.5,-.7,-.6c-.4,-.2,-.8,-.2,-1.5,-.2h-1.7c-.6,0,-1,0,-1.3,.1c-.3,.1,-.6,.3,-.8,.6c-.2,.3,-.3,.7,-.4,1.2h-.3v-2.2c.4,0,.8,-.2,1.2,-.5c.3,-.3,.6,-.9,.8,-1.8c.3,-.9,.4,-1.8,.4,-2.7c0,-.9,-.4,-1.3,-1.1,-1.3Zm1.6,.5v.4c0,2.4,-.4,4.3,-1.3,5.5h2.5c.5,0,.7,-.1,.8,-.1c.1,-.1,.1,-.4,.1,-.9v-4.9Z" class="g4_79"/>
<path fill-rule="evenodd" d="M559.3,452.3c.2,0,.4,.1,.5,.2c.2,.2,.3,.4,.3,.6c0,.3,-.1,.5,-.3,.6c-.1,.2,-.3,.3,-.5,.3c-.3,0,-.5,-.1,-.6,-.3c-.2,-.1,-.3,-.3,-.3,-.6c0,-.2,.1,-.4,.3,-.6c.1,-.1,.3,-.2,.6,-.2Z" class="g4_79"/>
<path fill-rule="evenodd" d="M454.8,385.3l-1,10.2c0,.5,0,.8,0,.9c0,.3,0,.5,.1,.6c.1,.2,.3,.3,.5,.4c.2,.1,.5,.1,.9,.1l-.1,.3h-4.7l.1,-.3h.2c.3,0,.7,-.1,.9,-.2c.2,-.2,.3,-.3,.4,-.6c.1,-.2,.1,-.6,.2,-1.3l.1,-1.6H449l-1.3,1.7c-.3,.4,-.4,.7,-.5,.8c-.1,.2,-.1,.3,-.1,.5c0,.2,.1,.3,.2,.5c.2,.1,.4,.2,.8,.2l-.1,.3h-3.6l.1,-.3c.4,0,.8,-.2,1.2,-.4c.3,-.3,.8,-.9,1.5,-1.8l7.2,-10Zm-1.8,3l-3.5,4.8h3Z" class="g4_79"/>
<path fill-rule="evenodd" d="M448,500.1l.1,-.3h4.4c.7,0,1.4,.1,1.9,.3c.6,.2,1,.6,1.3,1c.3,.4,.4,.8,.4,1.3c0,.7,-.2,1.3,-.7,1.9c-.5,.5,-1.3,1,-2.5,1.2c.7,.3,1.3,.7,1.6,1.1c.4,.5,.6,1,.6,1.5c0,.7,-.2,1.2,-.5,1.8c-.3,.5,-.7,1,-1.2,1.3c-.5,.3,-1.1,.5,-1.8,.7c-.5,.1,-1.2,.1,-2.3,.1h-4.4l.1,-.3c.5,0,.8,-.1,.9,-.2c.3,-.1,.4,-.2,.5,-.4c.2,-.2,.4,-.7,.6,-1.5l2.2,-7.5c.2,-.6,.3,-1,.3,-1.3c0,-.2,-.1,-.4,-.3,-.5c-.1,-.1,-.4,-.2,-.9,-.2c-.1,0,-.2,0,-.3,0m1.8,5.1c.4,0,.7,0,.9,0c1.2,0,2.1,-.3,2.8,-.8c.6,-.6,.9,-1.2,.9,-2.1c0,-.6,-.2,-1.1,-.6,-1.4c-.4,-.4,-1,-.5,-1.8,-.5c-.2,0,-.5,0,-.8,.1Zm-1.7,6c.6,.1,1.1,.1,1.5,.1c.9,0,1.7,-.2,2.5,-.8c.7,-.6,1,-1.3,1,-2.3c0,-.7,-.2,-1.3,-.6,-1.7c-.5,-.5,-1.2,-.7,-2.2,-.7c-.2,0,-.4,0,-.7,.1Z" class="g4_79"/>
<path fill-rule="evenodd" d="M502.1,501.5l.1,-.3h4.3c.8,0,1.4,.1,2,.3c.6,.2,1,.6,1.3,1c.3,.4,.4,.8,.4,1.3c0,.7,-.2,1.3,-.8,1.9c-.5,.6,-1.3,1,-2.4,1.2c.7,.3,1.2,.7,1.6,1.2c.3,.4,.5,.9,.5,1.5c0,.6,-.1,1.2,-.4,1.7c-.4,.6,-.8,1,-1.2,1.3c-.5,.3,-1.1,.5,-1.8,.7c-.5,.1,-1.3,.1,-2.3,.1h-4.5l.1,-.3c.5,0,.8,-.1,1,-.1c.2,-.1,.4,-.3,.5,-.4c.2,-.3,.3,-.8,.6,-1.6l2.2,-7.4c.1,-.7,.2,-1.1,.2,-1.4c0,-.2,0,-.4,-.2,-.5c-.2,-.1,-.5,-.2,-.9,-.2c-.1,0,-.2,0,-.3,0m1.8,5.1c.4,0,.7,0,.8,0c1.3,0,2.2,-.3,2.8,-.8c.6,-.5,.9,-1.2,.9,-2.1c0,-.6,-.2,-1.1,-.5,-1.4c-.4,-.3,-1,-.5,-1.8,-.5c-.2,0,-.5,0,-.8,.1Zm-1.8,6c.7,.1,1.2,.2,1.5,.2c1,0,1.8,-.3,2.5,-.9c.7,-.6,1.1,-1.3,1.1,-2.3c0,-.7,-.2,-1.3,-.7,-1.7c-.4,-.4,-1.1,-.7,-2.1,-.7c-.2,0,-.4,.1,-.7,.1Z" class="g4_79"/>
<path fill-rule="evenodd" d="M513.6,509.6l1.9,-1h.2v6.9c0,.5,.1,.8,.1,.9c0,.1,.1,.2,.2,.3c.2,0,.4,.1,.8,.1v.2h-3.1v-.2c.4,0,.6,-.1,.8,-.1c.1,-.1,.1,-.2,.2,-.3c0,-.1,.1,-.4,.1,-.9v-4.4c0,-.6,-.1,-.9,-.1,-1.1c0,-.1,-.1,-.2,-.2,-.3c0,-.1,-.1,-.1,-.2,-.1c-.2,0,-.4,.1,-.6,.2Z" class="g4_79"/>
<path fill-rule="evenodd" d="M510.3,384.5l-1,10.2c0,.5,0,.8,0,.9c0,.3,0,.4,.1,.6c.1,.1,.3,.3,.5,.4c.2,0,.5,.1,1,.1l-.1,.3H506l.1,-.3h.2c.4,0,.7,-.1,.9,-.3c.2,-.1,.3,-.3,.4,-.5c.1,-.2,.1,-.7,.2,-1.4L508,393h-3.5l-1.3,1.7c-.3,.4,-.4,.6,-.5,.8c-.1,.2,-.1,.3,-.1,.5c0,.2,.1,.3,.2,.5c.2,.1,.4,.2,.8,.2l-.1,.3h-3.6l.1,-.3c.4,0,.8,-.2,1.2,-.5c.3,-.2,.8,-.8,1.5,-1.8l7.3,-9.9Zm-1.8,3l-3.5,4.8h3Z" class="g4_79"/>
<path fill-rule="evenodd" d="M515,393.2l2,-1h.2v6.9c0,.5,0,.8,0,.9c.1,.1,.2,.2,.3,.2c.1,.1,.3,.1,.7,.1v.3h-3v-.3c.3,0,.6,0,.7,-.1c.1,0,.2,-.1,.2,-.2c.1,-.1,.1,-.4,.1,-.9v-4.4c0,-.6,0,-1,-.1,-1.1q0,-.2,-.1,-.3c-.1,-.1,-.2,-.1,-.3,-.1c-.1,0,-.3,.1,-.6,.2Z" class="g4_79"/>
<path d="M184.8,153h651V63.4h-651V153Z" class="g5_79"/>
<path d="M73.6,296.1H835.8" class="g6_79"/>
<g clip-path="url(#c1_79)">
<path d="M231.4,361.7V532.2M201,361.7V532.2M261.8,361.7V532.2M292.2,361.7V532.2M322.6,361.7V532.2M353,361.7V532.2M383.4,361.7V532.2M413.8,361.7V532.2M444.2,361.7V532.2M474.7,361.7V532.2M505.1,361.7V532.2M535.5,361.7V532.2M565.9,361.7V532.2M596.3,361.7V532.2M626.7,361.7V532.2M657.1,361.7V532.2M186.3,372.2H673.9M186.3,402.8H673.9M186.3,433.4H673.9M186.3,464H673.9M186.3,494.6H673.9M186.3,525.2H673.9" class="g1_79"/>
<path d="M214.8,372.2H338.3m29.3,31.1H479.5m56.2,117.3V366.8M214.8,464.5H338.3m29.3,30.3H479.5m147.1,25.8V366.8" class="g2_79"/>
<path d="M231.8,372.2v91.7M383.7,404.1v90.2M536.6,463.9h89.5M292.6,372.2v91.7M444.5,404.1v90.2m92.1,-91.7h89.5" class="g3_79"/>
</g>
<path fill-rule="evenodd" d="M219.6,360.9l-1.8,6.2l-.2,.8q0,.1,0,.2c0,.1,0,.2,.1,.2q.1,.1,.2,.1c.1,0,.2,0,.3,-.1c.2,-.2,.5,-.6,.9,-1.1l.3,.2c-.4,.6,-.8,1.1,-1.2,1.4c-.5,.4,-.9,.5,-1.3,.5c-.2,0,-.4,0,-.5,-.2c-.2,-.1,-.2,-.3,-.2,-.5c0,-.3,0,-.7,.2,-1.2l.2,-.7c-.8,1.1,-1.6,1.8,-2.2,2.2c-.5,.3,-.9,.4,-1.4,.4c-.4,0,-.8,-.2,-1.1,-.5c-.4,-.4,-.5,-.9,-.5,-1.5c0,-1,.3,-2,.8,-3.1c.6,-1,1.3,-1.9,2.2,-2.5c.7,-.5,1.4,-.8,2,-.8c.3,0,.6,.1,.9,.3c.2,.2,.4,.5,.5,1l.4,-1.1Zm-3.2,.5c-.4,0,-.8,.2,-1.2,.5c-.6,.5,-1.2,1.3,-1.7,2.3c-.4,1,-.7,1.9,-.7,2.7c0,.5,.1,.8,.3,1c.2,.3,.5,.4,.7,.4c.7,0,1.4,-.5,2.2,-1.5c1,-1.3,1.5,-2.6,1.5,-3.9c0,-.6,-.1,-.9,-.3,-1.2c-.2,-.2,-.5,-.3,-.8,-.3Z" class="g4_79"/>
<path fill-rule="evenodd" d="M214.4,446.3l-1.8,6.3c.6,-.6,1.1,-1,1.5,-1.2c.5,-.3,.9,-.4,1.4,-.4c.6,0,1.2,.2,1.6,.7c.4,.4,.6,1,.6,1.8c0,.9,-.2,1.9,-.8,2.9c-.6,.9,-1.2,1.7,-2.1,2.2c-.8,.6,-1.6,.8,-2.4,.8c-.9,0,-1.9,-.3,-2.8,-1l2.7,-9.5c.2,-.7,.3,-1.1,.3,-1.2c0,-.2,0,-.3,-.1,-.4c-.2,-.1,-.4,-.2,-.6,-.2c-.2,0,-.3,.1,-.6,.1v-.3Zm-3.5,12.2c.6,.3,1.2,.5,1.6,.5c.5,0,1.1,-.2,1.6,-.6c.6,-.4,1.1,-1,1.5,-2c.4,-.9,.6,-1.8,.6,-2.7c0,-.6,-.1,-1,-.4,-1.4c-.2,-.3,-.6,-.4,-.9,-.4c-.6,0,-1.1,.2,-1.7,.7c-.5,.4,-.9,1,-1.1,1.8Z" class="g4_79"/>
<path fill-rule="evenodd" d="M238,412.1c.3,-.7,.6,-1.2,1.1,-1.6c.4,-.4,1,-.6,1.6,-.6c.8,0,1.5,.3,1.9,.8c.3,.4,.5,.9,.5,1.3c0,.8,-.5,1.5,-1.4,2.3c.6,.3,1.1,.6,1.4,1.1c.3,.4,.5,1,.5,1.6c0,.9,-.3,1.6,-.9,2.3c-.7,.8,-1.7,1.2,-3.1,1.2c-.7,0,-1.2,0,-1.4,-.2c-.3,-.2,-.4,-.4,-.4,-.6c0,-.1,.1,-.2,.2,-.3c.1,-.2,.2,-.2,.4,-.2c.1,0,.3,0,.4,.1c.1,0,.3,.1,.6,.2c.3,.2,.5,.3,.6,.3c.2,.1,.4,.1,.6,.1c.5,0,.9,-.2,1.3,-.6c.4,-.4,.6,-.9,.6,-1.4c0,-.4,-.1,-.8,-.3,-1.2c-.1,-.3,-.3,-.5,-.4,-.6c-.2,-.2,-.5,-.4,-.9,-.6c-.4,-.1,-.8,-.2,-1.1,-.2h-.3v-.2c.4,-.1,.8,-.2,1.2,-.5c.4,-.2,.7,-.5,.9,-.8c.1,-.3,.2,-.7,.2,-1.1c0,-.5,-.1,-.9,-.4,-1.3c-.4,-.3,-.8,-.4,-1.2,-.4c-.8,0,-1.5,.4,-2,1.2Z" class="g4_79"/>
<path fill-rule="evenodd" d="M253.6,418.6l2.1,-5.1H258v.3c-.3,0,-.5,0,-.6,.1c-.1,0,-.2,.1,-.3,.2c-.1,.1,-.1,.4,-.1,1v3.6c0,.5,0,.8,.1,1c0,.1,.1,.2,.3,.3c.1,.1,.3,.1,.6,.1v.3h-3.3v-.3c.4,0,.7,-.1,.9,-.2c.1,-.2,.2,-.6,.2,-1.2v-4.1l-2.5,5.8h-.2l-2.5,-5.8v4.1c0,.5,0,.8,.1,1c0,.1,.1,.2,.3,.3c.1,.1,.3,.1,.7,.1v.3H249v-.3c.5,0,.8,-.1,.9,-.3c.1,-.1,.2,-.5,.2,-1.1v-3.6c0,-.6,-.1,-.9,-.1,-1c-.1,-.1,-.2,-.2,-.3,-.2c-.1,-.1,-.3,-.1,-.7,-.1v-.3h2.4Z" class="g4_79"/>
<path fill-rule="evenodd" d="M260.3,418.9c.2,0,.4,.1,.6,.3c.2,.1,.2,.3,.2,.5c0,.3,-.1,.5,-.2,.6c-.2,.2,-.4,.3,-.6,.3c-.2,0,-.4,-.1,-.6,-.3c-.1,-.1,-.2,-.3,-.2,-.6c0,-.2,.1,-.4,.2,-.6c.2,-.1,.4,-.2,.6,-.2Z" class="g4_79"/>
<path fill-rule="evenodd" d="M267.7,416.1c0,1,.2,1.8,.7,2.4c.5,.6,1.1,.8,1.8,.8c.4,0,.8,-.1,1.2,-.3c.3,-.3,.6,-.7,.8,-1.3l.2,.2c-.1,.6,-.4,1.3,-.9,1.8c-.5,.6,-1.1,.9,-1.9,.9c-.8,0,-1.5,-.3,-2.1,-1c-.6,-.6,-.9,-1.5,-.9,-2.6c0,-1.2,.3,-2.1,.9,-2.8c.6,-.6,1.4,-.9,2.3,-.9c.8,0,1.4,.2,1.9,.7c.5,.5,.7,1.2,.7,2.1Zm0,-.5h3.2c-.1,-.4,-.1,-.7,-.2,-.9c-.1,-.3,-.3,-.5,-.6,-.7c-.2,-.1,-.5,-.2,-.7,-.2c-.5,0,-.8,.2,-1.1,.5c-.4,.3,-.6,.8,-.6,1.3Z" class="g4_79"/>
<path fill-rule="evenodd" d="M274.1,413.5h6v.3c-.3,0,-.6,0,-.7,.1c-.1,0,-.2,.1,-.2,.2c-.1,.1,-.1,.4,-.1,1v3.4c0,.7,0,1.2,.2,1.3c.1,.2,.4,.3,.8,.3v2.2h-.3c0,-.4,-.1,-.8,-.3,-1.1c-.2,-.3,-.4,-.5,-.7,-.6c-.4,-.2,-.8,-.2,-1.5,-.2h-1.7c-.6,0,-1,0,-1.3,.1c-.3,.1,-.6,.3,-.8,.6c-.2,.3,-.3,.7,-.4,1.2h-.3v-2.2c.5,0,.8,-.2,1.2,-.5c.3,-.3,.6,-.9,.8,-1.8c.3,-.9,.4,-1.8,.4,-2.7c0,-.9,-.4,-1.3,-1.1,-1.3Zm1.6,.5v.4c0,2.4,-.4,4.3,-1.3,5.5h2.5c.5,0,.8,-.1,.8,-.1c.1,-.1,.1,-.4,.1,-.9V414Z" class="g4_79"/>
<path fill-rule="evenodd" d="M282.4,418.9c.2,0,.4,.1,.6,.3c.1,.1,.2,.3,.2,.5c0,.3,-.1,.5,-.2,.6c-.2,.2,-.4,.3,-.6,.3c-.3,0,-.5,-.1,-.6,-.3c-.2,-.1,-.3,-.3,-.3,-.6c0,-.2,.1,-.4,.3,-.6c.1,-.1,.3,-.2,.6,-.2Z" class="g4_79"/>
<path fill-rule="evenodd" d="M300.9,412.1c.3,-.7,.7,-1.2,1.1,-1.6c.5,-.4,1,-.6,1.7,-.6c.8,0,1.4,.3,1.8,.8c.4,.4,.5,.9,.5,1.3c0,.8,-.4,1.5,-1.4,2.3c.7,.3,1.1,.6,1.5,1.1c.3,.4,.4,1,.4,1.6c0,.9,-.2,1.6,-.8,2.3c-.7,.8,-1.8,1.2,-3.2,1.2c-.7,0,-1.1,0,-1.4,-.2c-.2,-.2,-.3,-.4,-.3,-.6c0,-.1,0,-.2,.1,-.3c.2,-.2,.3,-.2,.5,-.2c.1,0,.2,0,.3,.1c.1,0,.3,.1,.6,.2c.3,.2,.5,.3,.6,.3c.2,.1,.4,.1,.6,.1c.5,0,1,-.2,1.4,-.6c.3,-.4,.5,-.9,.5,-1.4c0,-.4,-.1,-.8,-.2,-1.2c-.2,-.3,-.3,-.5,-.5,-.6c-.2,-.2,-.5,-.4,-.8,-.6c-.4,-.1,-.8,-.2,-1.2,-.2h-.2v-.2c.4,-.1,.8,-.2,1.2,-.5c.4,-.2,.6,-.5,.8,-.8c.2,-.3,.3,-.7,.3,-1.1c0,-.5,-.2,-.9,-.5,-1.3c-.3,-.3,-.7,-.4,-1.2,-.4c-.8,0,-1.4,.4,-1.9,1.2Z" class="g4_79"/>
<path fill-rule="evenodd" d="M316.5,418.6l2.2,-5.1H321v.3c-.3,0,-.6,0,-.7,.1c-.1,0,-.2,.1,-.2,.2c-.1,.1,-.1,.4,-.1,1v3.6c0,.5,0,.8,0,1c.1,.1,.2,.2,.3,.3c.2,.1,.4,.1,.7,.1v.3h-3.3v-.3c.4,0,.7,-.1,.8,-.2c.1,-.2,.2,-.6,.2,-1.2v-4.1l-2.4,5.8H316l-2.4,-5.8v4.1c0,.5,0,.8,0,1c.1,.1,.2,.2,.3,.3c.2,.1,.4,.1,.7,.1v.3H312v-.3c.4,0,.7,-.1,.8,-.3c.2,-.1,.2,-.5,.2,-1.1v-3.6c0,-.6,0,-.9,-.1,-1c0,-.1,-.1,-.2,-.2,-.2c-.1,-.1,-.4,-.1,-.7,-.1v-.3h2.4Z" class="g4_79"/>
<path fill-rule="evenodd" d="M323.2,418.9c.3,0,.5,.1,.6,.3c.2,.1,.3,.3,.3,.5c0,.3,-.1,.5,-.3,.6c-.1,.2,-.3,.3,-.6,.3c-.2,0,-.4,-.1,-.5,-.3c-.2,-.1,-.3,-.3,-.3,-.6c0,-.2,.1,-.4,.3,-.6c.1,-.1,.3,-.2,.5,-.2Z" class="g4_79"/>
<path fill-rule="evenodd" d="M330.6,416.1c0,1,.3,1.8,.8,2.4c.5,.6,1.1,.8,1.7,.8c.5,0,.9,-.1,1.2,-.3c.3,-.3,.6,-.7,.8,-1.3l.3,.2c-.1,.6,-.4,1.3,-.9,1.8c-.6,.6,-1.2,.9,-1.9,.9c-.9,0,-1.6,-.3,-2.2,-1c-.5,-.6,-.8,-1.5,-.8,-2.6c0,-1.2,.3,-2.1,.9,-2.8c.6,-.6,1.3,-.9,2.2,-.9c.8,0,1.4,.2,1.9,.7c.5,.5,.8,1.2,.8,2.1Zm0,-.5h3.2c0,-.4,-.1,-.7,-.2,-.9c-.1,-.3,-.3,-.5,-.5,-.7c-.3,-.1,-.5,-.2,-.8,-.2c-.4,0,-.8,.2,-1.1,.5c-.3,.3,-.5,.8,-.6,1.3Z" class="g4_79"/>
<path fill-rule="evenodd" d="M337,413.5h6.1v.3c-.4,0,-.6,0,-.7,.1c-.1,0,-.2,.1,-.3,.2c-.1,.1,-.1,.4,-.1,1v3.4c0,.7,.1,1.2,.2,1.3c.1,.2,.4,.3,.9,.3v2.2h-.3c0,-.4,-.1,-.8,-.3,-1.1c-.2,-.3,-.5,-.5,-.8,-.6c-.3,-.2,-.8,-.2,-1.4,-.2h-1.8c-.5,0,-1,0,-1.3,.1c-.3,.1,-.5,.3,-.8,.6c-.2,.3,-.3,.7,-.3,1.2h-.3v-2.2c.4,0,.8,-.2,1.1,-.5c.3,-.3,.6,-.9,.9,-1.8c.2,-.9,.4,-1.8,.4,-2.7c0,-.9,-.4,-1.3,-1.2,-1.3Zm1.7,.5v.4c0,2.4,-.5,4.3,-1.4,5.5h2.6c.4,0,.7,-.1,.8,-.1c0,-.1,.1,-.4,.1,-.9V414Z" class="g4_79"/>
<path fill-rule="evenodd" d="M345.3,418.9c.2,0,.4,.1,.6,.3c.2,.1,.2,.3,.2,.5c0,.3,0,.5,-.2,.6c-.2,.2,-.4,.3,-.6,.3c-.2,0,-.4,-.1,-.6,-.3c-.1,-.1,-.2,-.3,-.2,-.6c0,-.2,.1,-.4,.2,-.6c.2,-.1,.4,-.2,.6,-.2Z" class="g4_79"/>
<path fill-rule="evenodd" d="M245.1,354.2l-.9,10.2c-.1,.5,-.1,.8,-.1,1c0,.2,.1,.4,.2,.5c.1,.2,.2,.3,.4,.4c.2,.1,.5,.1,1,.1l-.1,.4h-4.8l.1,-.4h.2c.4,0,.7,0,1,-.2c.1,-.1,.3,-.3,.4,-.6c0,-.2,.1,-.6,.2,-1.3l.1,-1.6h-3.5l-1.2,1.7c-.3,.4,-.5,.7,-.5,.9c-.1,.1,-.2,.3,-.2,.4c0,.2,.1,.4,.3,.5c.1,.2,.4,.2,.8,.2l-.1,.4h-3.6v-.4c.5,0,.9,-.1,1.2,-.4c.4,-.3,.9,-.9,1.5,-1.8l7.3,-10Zm-1.8,3l-3.5,4.9h3.1Z" class="g4_79"/>
<path fill-rule="evenodd" d="M238.4,469.8l.1,-.3h4.3c.8,0,1.4,.1,2,.3c.6,.2,1,.6,1.3,1c.3,.4,.4,.8,.4,1.3c0,.7,-.2,1.3,-.8,1.9c-.5,.6,-1.3,1,-2.4,1.2c.7,.3,1.3,.7,1.6,1.1c.3,.5,.5,1,.5,1.6c0,.6,-.1,1.1,-.4,1.7c-.4,.6,-.8,1,-1.2,1.3c-.5,.3,-1.1,.5,-1.8,.7c-.5,.1,-1.3,.1,-2.3,.1h-4.5l.1,-.3c.5,0,.8,-.1,1,-.1c.2,-.1,.4,-.3,.5,-.4c.2,-.3,.3,-.8,.6,-1.6l2.2,-7.4c.2,-.7,.2,-1.1,.2,-1.4c0,-.2,0,-.4,-.2,-.5c-.2,-.1,-.5,-.2,-.9,-.2c-.1,0,-.2,0,-.3,0m1.8,5.1c.4,0,.7,0,.8,0c1.3,0,2.2,-.3,2.8,-.8c.6,-.6,.9,-1.2,.9,-2.1c0,-.6,-.2,-1.1,-.5,-1.4c-.4,-.4,-1,-.5,-1.8,-.5c-.2,0,-.5,0,-.8,.1Zm-1.8,6c.7,.1,1.2,.2,1.5,.2c1,0,1.8,-.3,2.5,-.9c.7,-.6,1.1,-1.3,1.1,-2.3c0,-.7,-.2,-1.3,-.7,-1.7c-.4,-.4,-1.1,-.7,-2.1,-.7c-.2,0,-.4,.1,-.7,.1Z" class="g4_79"/>
<path fill-rule="evenodd" d="M291.7,468.9l.1,-.3h4.3c.8,0,1.4,.1,2,.3c.6,.2,1,.5,1.3,1c.3,.4,.4,.8,.4,1.3c0,.7,-.3,1.3,-.8,1.9c-.5,.5,-1.3,1,-2.4,1.2c.7,.3,1.2,.7,1.6,1.1c.3,.5,.5,1,.5,1.5c0,.6,-.1,1.2,-.5,1.8c-.3,.5,-.7,1,-1.2,1.3c-.4,.3,-1,.5,-1.7,.7c-.5,.1,-1.3,.1,-2.3,.1h-4.5l.1,-.3c.5,0,.8,-.1,1,-.2c.2,-.1,.4,-.2,.5,-.4c.1,-.2,.3,-.7,.6,-1.5l2.2,-7.5c.1,-.6,.2,-1,.2,-1.3c0,-.2,-.1,-.4,-.2,-.5c-.2,-.1,-.5,-.2,-1,-.2c-.1,0,-.2,0,-.2,0m1.8,5.1c.4,0,.7,0,.8,0c1.3,0,2.2,-.3,2.8,-.8c.6,-.6,.9,-1.3,.9,-2.1c0,-.6,-.2,-1.1,-.5,-1.4c-.4,-.4,-1,-.5,-1.8,-.5c-.2,0,-.5,0,-.8,.1Zm-1.8,6c.7,.1,1.2,.1,1.5,.1c1,0,1.8,-.2,2.5,-.8c.7,-.6,1.1,-1.3,1.1,-2.3c0,-.8,-.2,-1.3,-.7,-1.8c-.4,-.4,-1.1,-.6,-2.1,-.6c-.2,0,-.5,0,-.7,.1Z" class="g4_79"/>
<path fill-rule="evenodd" d="M303.2,477l1.9,-1h.2v6.9c0,.5,.1,.8,.1,.9c0,.1,.1,.2,.2,.2c.1,.1,.4,.1,.8,.1v.3h-3.1v-.3c.4,0,.6,0,.7,-.1c.2,0,.2,-.1,.3,-.2c0,-.1,0,-.4,0,-.9v-4.4c0,-.6,0,-1,0,-1.1c0,-.2,-.1,-.3,-.2,-.3c0,-.1,-.1,-.1,-.2,-.1c-.2,0,-.4,.1,-.6,.2Z" class="g4_79"/>
<path fill-rule="evenodd" d="M299.9,354.2l-1,10.2c0,.5,0,.8,0,.9c0,.3,0,.5,.1,.6c.1,.2,.3,.3,.5,.4c.2,.1,.5,.1,.9,.1l-.1,.3h-4.8l.1,-.3h.3c.3,0,.7,-.1,.9,-.3c.2,-.1,.3,-.3,.4,-.5c.1,-.2,.1,-.7,.2,-1.3l.1,-1.6h-3.4l-1.3,1.7c-.3,.4,-.4,.6,-.5,.8c-.1,.2,-.1,.3,-.1,.5c0,.2,.1,.3,.2,.5c.2,.1,.4,.2,.8,.2l-.1,.3h-3.6l.1,-.3c.4,0,.8,-.2,1.2,-.4c.3,-.3,.8,-.9,1.5,-1.8l7.2,-10Zm-1.8,3l-3.6,4.8h3.1Z" class="g4_79"/>
<path fill-rule="evenodd" d="M304.6,362.9l2,-1h.2v6.9c0,.5,0,.8,0,.9c.1,.1,.2,.2,.3,.3c.1,0,.3,.1,.7,.1v.2h-3v-.2c.3,0,.6,-.1,.7,-.1c.1,-.1,.2,-.2,.2,-.3c.1,-.1,.1,-.4,.1,-.9v-4.4c0,-.6,0,-.9,-.1,-1.1c0,-.1,0,-.2,-.1,-.3c-.1,-.1,-.2,-.1,-.3,-.1c-.1,0,-.3,.1,-.6,.2Z" class="g4_79"/>
<g clip-path="url(#c2_79)">
<path d="M360.2,361.7V532.2M329.8,361.7V532.2M390.6,361.7V532.2M421,361.7V532.2M451.4,361.7V532.2M481.8,361.7V532.2M512.2,361.7V532.2M542.6,361.7V532.2M573,361.7V532.2M603.4,361.7V532.2M633.9,361.7V532.2M664.3,361.7V532.2M694.7,361.7V532.2M725.1,361.7V532.2M755.5,361.7V532.2M785.9,361.7V532.2M315.1,372.2H802.7M315.1,402.8H802.7M315.1,433.4H802.7M315.1,464H802.7M315.1,494.6H802.7M315.1,525.2H802.7" class="g1_79"/>
<path d="M343.6,372.2H467.1m29.3,31.1H608.3m56.2,117.3V366.8M343.6,464.5H467.1m29.3,30.3H608.3m147.1,25.8V366.8" class="g2_79"/>
<path d="M360.6,372.2v91.7M512.5,404.1v90.2M665.3,463.9h89.6M421.4,372.2v91.7M573.3,404.1v90.2m92,-91.7h89.6" class="g3_79"/>
</g>
<path fill-rule="evenodd" d="M677.7,506.9l-1.7,6.2l-.2,.8q-.1,.1,-.1,.2c0,.1,.1,.2,.1,.2q.1,.1,.2,.1c.1,0,.2,0,.3,-.1c.2,-.2,.5,-.6,.9,-1.1l.3,.2c-.4,.6,-.8,1.1,-1.2,1.5c-.5,.3,-.9,.4,-1.2,.4c-.3,0,-.5,0,-.6,-.2c-.2,-.1,-.2,-.3,-.2,-.5c0,-.3,.1,-.7,.2,-1.2l.2,-.7c-.8,1.1,-1.5,1.8,-2.2,2.2c-.5,.3,-.9,.4,-1.4,.4c-.4,0,-.8,-.1,-1.1,-.5c-.3,-.4,-.5,-.9,-.5,-1.5c0,-1,.3,-2,.9,-3c.5,-1.1,1.3,-2,2.1,-2.6c.7,-.5,1.4,-.8,2,-.8c.4,0,.7,.1,.9,.3c.2,.2,.4,.5,.6,1l.3,-1Zm-3.2,.5c-.4,0,-.8,.2,-1.2,.6c-.6,.5,-1.2,1.2,-1.6,2.2c-.5,1,-.8,2,-.8,2.8c0,.4,.1,.7,.3,.9c.3,.3,.5,.4,.8,.4c.6,0,1.3,-.5,2.1,-1.5c1,-1.3,1.5,-2.6,1.5,-3.9c0,-.5,-.1,-.9,-.3,-1.1c-.2,-.3,-.5,-.4,-.8,-.4Z" class="g4_79"/>
<path fill-rule="evenodd" d="M766.6,505.4l-1.7,6.2c.6,-.6,1.1,-1,1.5,-1.2c.4,-.2,.9,-.3,1.3,-.3c.7,0,1.2,.2,1.6,.6c.5,.5,.7,1,.7,1.8c0,1,-.3,1.9,-.9,2.9c-.5,1,-1.2,1.7,-2,2.2c-.9,.6,-1.7,.8,-2.5,.8c-.9,0,-1.8,-.3,-2.8,-1l2.8,-9.4c.2,-.8,.3,-1.2,.3,-1.3c0,-.2,-.1,-.3,-.2,-.4c-.1,-.1,-.3,-.1,-.6,-.1c-.1,0,-.3,0,-.6,0v-.3Zm-3.4,12.1c.6,.4,1.1,.5,1.6,.5c.5,0,1,-.2,1.6,-.6c.6,-.3,1.1,-1,1.5,-1.9c.4,-.9,.6,-1.9,.6,-2.8c0,-.6,-.1,-1,-.4,-1.3c-.3,-.3,-.6,-.5,-1,-.5c-.5,0,-1.1,.2,-1.6,.7c-.6,.4,-.9,1.1,-1.2,1.9Z" class="g4_79"/>
<path fill-rule="evenodd" d="M687.5,389.6c.3,-.7,.7,-1.2,1.1,-1.6c.5,-.4,1,-.6,1.7,-.6c.8,0,1.4,.3,1.9,.8c.3,.4,.5,.8,.5,1.3c0,.7,-.5,1.5,-1.4,2.3c.6,.2,1.1,.6,1.4,1c.3,.5,.5,1,.5,1.7c0,.8,-.3,1.6,-.9,2.3c-.7,.8,-1.8,1.2,-3.1,1.2c-.7,0,-1.2,-.1,-1.4,-.2c-.3,-.2,-.4,-.4,-.4,-.6c0,-.1,0,-.3,.2,-.4c.1,-.1,.2,-.1,.4,-.1c.1,0,.2,0,.4,0c.1,.1,.2,.1,.5,.3c.3,.2,.6,.3,.7,.3c.1,0,.3,.1,.6,.1c.5,0,.9,-.2,1.3,-.6c.4,-.4,.5,-.9,.5,-1.4c0,-.4,0,-.8,-.2,-1.2c-.1,-.3,-.3,-.5,-.4,-.6c-.3,-.2,-.5,-.4,-.9,-.6c-.4,-.1,-.8,-.2,-1.2,-.2h-.2v-.3c.4,0,.8,-.1,1.2,-.4c.4,-.2,.7,-.5,.8,-.8c.2,-.4,.3,-.7,.3,-1.1c0,-.5,-.1,-1,-.5,-1.3c-.3,-.3,-.7,-.5,-1.2,-.5c-.7,0,-1.4,.5,-1.9,1.3Z" class="g4_79"/>
<path fill-rule="evenodd" d="M703.2,396l2.1,-5.1h2.3v.3c-.3,0,-.5,.1,-.7,.1c-.1,.1,-.2,.2,-.2,.3c-.1,.1,-.1,.4,-.1,1v3.6c0,.5,0,.8,.1,.9c0,.2,.1,.3,.2,.4c.2,0,.4,.1,.7,.1v.2h-3.3v-.2c.4,0,.7,-.1,.8,-.3c.2,-.1,.2,-.5,.2,-1.1v-4.1l-2.4,5.7h-.2l-2.5,-5.7v4.1c0,.5,0,.8,.1,.9c0,.2,.1,.3,.2,.4c.2,0,.4,.1,.7,.1v.2h-2.6v-.2c.4,0,.7,-.1,.9,-.3c.1,-.1,.1,-.5,.1,-1.1v-3.6c0,-.6,0,-.9,0,-1c-.1,-.1,-.2,-.2,-.3,-.3c-.1,0,-.3,-.1,-.7,-.1v-.3H701Z" class="g4_79"/>
<path fill-rule="evenodd" d="M709.9,396.4c.2,0,.4,.1,.6,.2c.1,.2,.2,.4,.2,.6c0,.2,-.1,.4,-.2,.6c-.2,.2,-.4,.3,-.6,.3c-.3,0,-.5,-.1,-.6,-.3c-.2,-.2,-.3,-.4,-.3,-.6c0,-.2,.1,-.4,.3,-.6c.1,-.1,.3,-.2,.6,-.2Z" class="g4_79"/>
<path fill-rule="evenodd" d="M717.3,393.5c-.1,1.1,.2,1.9,.7,2.5c.5,.5,1.1,.8,1.8,.8c.4,0,.8,-.1,1.1,-.3c.4,-.3,.6,-.7,.9,-1.3l.2,.1c-.1,.7,-.4,1.3,-.9,1.9c-.5,.6,-1.2,.9,-1.9,.9c-.8,0,-1.5,-.4,-2.1,-1c-.6,-.7,-.9,-1.5,-.9,-2.6c0,-1.2,.3,-2.1,.9,-2.8c.6,-.6,1.3,-1,2.3,-1c.7,0,1.4,.3,1.8,.8c.5,.5,.8,1.2,.8,2Zm0,-.4h3.1c0,-.4,-.1,-.8,-.1,-.9c-.2,-.3,-.3,-.5,-.6,-.7c-.2,-.2,-.5,-.2,-.8,-.2c-.4,0,-.7,.1,-1.1,.5c-.3,.3,-.5,.7,-.5,1.3Z" class="g4_79"/>
<path fill-rule="evenodd" d="M723.6,390.9h6.1v.3c-.4,0,-.6,.1,-.7,.1c-.1,.1,-.2,.2,-.3,.3c0,.1,-.1,.4,-.1,1V396c0,.7,.1,1.1,.2,1.3c.1,.2,.4,.2,.9,.3v2.2h-.3c0,-.5,-.1,-.8,-.3,-1.1c-.2,-.3,-.4,-.5,-.8,-.7c-.3,-.1,-.8,-.2,-1.4,-.2h-1.8c-.5,0,-.9,.1,-1.3,.2c-.3,.1,-.5,.3,-.7,.6c-.2,.3,-.4,.7,-.4,1.2h-.3v-2.2c.4,-.1,.8,-.2,1.1,-.5c.4,-.3,.7,-.9,.9,-1.9c.3,-.9,.4,-1.8,.4,-2.6c0,-.9,-.4,-1.3,-1.2,-1.4Zm1.7,.5v.4c0,2.5,-.5,4.3,-1.3,5.6h2.5c.5,0,.7,-.1,.8,-.2c.1,0,.1,-.3,.1,-.8v-5Z" class="g4_79"/>
<path fill-rule="evenodd" d="M731.9,396.4c.3,0,.5,.1,.6,.2c.2,.2,.3,.4,.3,.6c0,.2,-.1,.4,-.3,.6c-.1,.2,-.3,.3,-.6,.3c-.2,0,-.4,-.1,-.6,-.3c-.1,-.2,-.2,-.4,-.2,-.6c0,-.2,.1,-.4,.2,-.6c.2,-.1,.4,-.2,.6,-.2Z" class="g4_79"/>
<path fill-rule="evenodd" d="M687.5,450.2c.3,-.7,.7,-1.3,1.1,-1.6c.5,-.4,1,-.6,1.7,-.6c.8,0,1.4,.3,1.9,.8c.3,.4,.5,.8,.5,1.3c0,.7,-.5,1.5,-1.4,2.3c.6,.2,1.1,.6,1.4,1c.3,.5,.5,1,.5,1.6c0,.9,-.3,1.7,-.9,2.3c-.7,.9,-1.8,1.3,-3.1,1.3c-.7,0,-1.2,-.1,-1.4,-.2c-.3,-.2,-.4,-.4,-.4,-.6c0,-.1,0,-.3,.2,-.4c.1,-.1,.2,-.1,.4,-.1c.1,0,.2,0,.4,0c.1,0,.2,.1,.5,.3c.3,.1,.6,.2,.7,.3c.1,0,.3,0,.6,0c.5,0,.9,-.1,1.3,-.5c.4,-.4,.5,-.9,.5,-1.5c0,-.3,0,-.7,-.2,-1.1c-.1,-.3,-.3,-.5,-.4,-.7c-.3,-.2,-.5,-.3,-.9,-.5c-.4,-.2,-.8,-.2,-1.2,-.2h-.2v-.3c.4,0,.8,-.2,1.2,-.4c.4,-.2,.7,-.5,.8,-.9c.2,-.3,.3,-.6,.3,-1c0,-.6,-.1,-1,-.5,-1.3c-.3,-.3,-.7,-.5,-1.2,-.5c-.7,0,-1.4,.4,-1.9,1.3Z" class="g4_79"/>
<path fill-rule="evenodd" d="M703.2,456.6l2.1,-5.1h2.3v.3c-.3,0,-.5,0,-.7,.1c-.1,.1,-.2,.2,-.2,.3c-.1,.1,-.1,.4,-.1,.9v3.7c0,.5,0,.8,.1,.9c0,.2,.1,.3,.2,.3c.2,.1,.4,.1,.7,.1v.3h-3.3v-.3c.4,0,.7,0,.8,-.2c.2,-.1,.2,-.5,.2,-1.1v-4.1l-2.4,5.7h-.2l-2.5,-5.7v4.1c0,.5,0,.8,.1,.9c0,.2,.1,.3,.2,.3c.2,.1,.4,.1,.7,.1v.3h-2.6v-.3c.4,0,.7,0,.9,-.2c.1,-.2,.1,-.5,.1,-1.1v-3.7c0,-.5,0,-.8,0,-.9c-.1,-.1,-.2,-.2,-.3,-.3c-.1,0,-.3,-.1,-.7,-.1v-.3H701Z" class="g4_79"/>
<path fill-rule="evenodd" d="M709.9,457c.2,0,.4,0,.6,.2c.1,.2,.2,.4,.2,.6c0,.2,-.1,.4,-.2,.6c-.2,.2,-.4,.2,-.6,.2c-.3,0,-.5,0,-.6,-.2c-.2,-.2,-.3,-.4,-.3,-.6c0,-.2,.1,-.4,.3,-.6c.1,-.2,.3,-.2,.6,-.2Z" class="g4_79"/>
<path fill-rule="evenodd" d="M717.3,454.1c-.1,1,.2,1.9,.7,2.4c.5,.6,1.1,.9,1.8,.9c.4,0,.8,-.1,1.1,-.4c.4,-.2,.6,-.6,.9,-1.2l.2,.1c-.1,.7,-.4,1.3,-.9,1.9c-.5,.6,-1.2,.8,-1.9,.8c-.8,0,-1.5,-.3,-2.1,-.9c-.6,-.7,-.9,-1.5,-.9,-2.6c0,-1.2,.3,-2.1,.9,-2.8c.6,-.7,1.3,-1,2.3,-1c.7,0,1.4,.3,1.8,.8c.5,.5,.8,1.2,.8,2Zm0,-.4h3.1c0,-.5,-.1,-.8,-.1,-.9c-.2,-.3,-.3,-.5,-.6,-.7c-.2,-.2,-.5,-.3,-.8,-.3c-.4,0,-.7,.2,-1.1,.5c-.3,.4,-.5,.8,-.5,1.4Z" class="g4_79"/>
<path fill-rule="evenodd" d="M723.6,451.5h6.1v.3c-.4,0,-.6,0,-.7,.1c-.1,.1,-.2,.2,-.3,.3c0,.1,-.1,.4,-.1,.9v3.5c0,.7,.1,1.1,.2,1.3c.1,.1,.4,.2,.9,.2v2.2h-.3c0,-.4,-.1,-.7,-.3,-1c-.2,-.3,-.4,-.6,-.8,-.7c-.3,-.1,-.8,-.2,-1.4,-.2h-1.8c-.5,0,-.9,.1,-1.3,.2c-.3,.1,-.5,.3,-.7,.6c-.2,.3,-.4,.7,-.4,1.1h-.3v-2.2c.4,0,.8,-.1,1.1,-.4c.4,-.4,.7,-1,.9,-1.9c.3,-.9,.4,-1.8,.4,-2.7c0,-.8,-.4,-1.3,-1.2,-1.3Zm1.7,.5v.4c0,2.5,-.5,4.3,-1.3,5.5h2.5c.5,0,.7,0,.8,-.1c.1,-.1,.1,-.3,.1,-.8v-5Z" class="g4_79"/>
<path fill-rule="evenodd" d="M731.9,457c.3,0,.5,0,.6,.2c.2,.2,.3,.4,.3,.6c0,.2,-.1,.4,-.3,.6c-.1,.2,-.3,.2,-.6,.2c-.2,0,-.4,0,-.6,-.2c-.1,-.2,-.2,-.4,-.2,-.6c0,-.2,.1,-.4,.2,-.6c.2,-.2,.4,-.2,.6,-.2Z" class="g4_79"/>
<path fill-rule="evenodd" d="M655.5,395.4l-.9,10.2c0,.5,-.1,.8,-.1,.9c0,.3,.1,.5,.2,.6c.1,.2,.2,.3,.4,.4c.2,.1,.6,.1,1,.1l-.1,.3h-4.8l.1,-.3h.2c.4,0,.7,-.1,1,-.2c.2,-.2,.3,-.4,.4,-.6c.1,-.2,.1,-.6,.2,-1.3l.1,-1.6h-3.5l-1.2,1.7c-.3,.4,-.5,.7,-.5,.8c-.1,.2,-.1,.3,-.1,.5c0,.2,0,.3,.2,.5c.1,.1,.4,.2,.8,.2l-.1,.3h-3.6l.1,-.3c.4,0,.8,-.2,1.1,-.4c.4,-.3,.9,-.9,1.5,-1.8l7.3,-10Zm-1.7,3l-3.6,4.8h3.1Z" class="g4_79"/>
<path fill-rule="evenodd" d="M765.3,395.2l.1,-.3h4.4c.7,0,1.3,.1,1.9,.3c.6,.3,1,.6,1.3,1c.3,.4,.4,.9,.4,1.3c0,.7,-.2,1.4,-.7,1.9c-.5,.6,-1.4,1,-2.5,1.3c.7,.3,1.3,.6,1.6,1.1c.4,.4,.5,.9,.5,1.5c0,.6,-.1,1.2,-.4,1.7c-.3,.6,-.7,1,-1.2,1.3c-.5,.3,-1.1,.6,-1.8,.7c-.5,.1,-1.3,.2,-2.3,.2h-4.5l.2,-.4c.4,0,.7,0,.9,-.1c.3,-.1,.4,-.2,.5,-.4c.2,-.2,.4,-.8,.6,-1.6l2.2,-7.4c.2,-.6,.3,-1.1,.3,-1.3c0,-.3,-.1,-.4,-.3,-.6c-.2,-.1,-.5,-.2,-.9,-.2c-.1,0,-.2,0,-.3,0m1.8,5.1c.4,0,.7,0,.9,0c1.2,0,2.1,-.2,2.7,-.8c.6,-.5,.9,-1.2,.9,-2c0,-.6,-.1,-1.1,-.5,-1.5c-.4,-.3,-1,-.5,-1.8,-.5c-.2,0,-.5,0,-.8,.1Zm-1.8,6.1c.7,.1,1.2,.1,1.6,.1c.9,0,1.7,-.3,2.4,-.9c.8,-.5,1.1,-1.3,1.1,-2.3c0,-.7,-.2,-1.3,-.6,-1.7c-.5,-.4,-1.2,-.6,-2.2,-.6c-.2,0,-.4,0,-.7,0Z" class="g4_79"/>
<path fill-rule="evenodd" d="M762.3,459.6l.1,-.4h4.3c.8,0,1.4,.1,2,.4c.5,.2,1,.5,1.3,.9c.2,.4,.4,.9,.4,1.3c0,.7,-.3,1.4,-.8,1.9c-.5,.6,-1.3,1,-2.4,1.3c.7,.3,1.2,.7,1.6,1.1c.3,.5,.5,1,.5,1.5c0,.6,-.2,1.2,-.5,1.8c-.3,.5,-.7,1,-1.2,1.3c-.5,.3,-1,.5,-1.7,.6c-.5,.1,-1.3,.2,-2.3,.2h-4.5l.1,-.3c.5,-.1,.8,-.1,1,-.2c.2,-.1,.4,-.2,.5,-.4c.1,-.2,.3,-.7,.6,-1.6l2.1,-7.4c.2,-.6,.3,-1,.3,-1.3c0,-.2,-.1,-.4,-.2,-.5c-.2,-.2,-.5,-.2,-1,-.2c-.1,0,-.2,0,-.2,0m1.8,5.1c.4,0,.6,0,.8,0c1.3,0,2.2,-.3,2.8,-.8c.6,-.6,.9,-1.3,.9,-2.1c0,-.6,-.2,-1.1,-.5,-1.4c-.4,-.4,-1,-.6,-1.8,-.6c-.2,0,-.5,.1,-.9,.1Zm-1.8,6c.7,.1,1.2,.1,1.5,.1c1,0,1.8,-.3,2.5,-.8c.7,-.6,1.1,-1.4,1.1,-2.3c0,-.8,-.2,-1.4,-.7,-1.8c-.4,-.4,-1.1,-.6,-2.1,-.6c-.2,0,-.5,0,-.7,0Z" class="g4_79"/>
<path fill-rule="evenodd" d="M773.8,467.7l1.9,-1h.2v6.9c0,.5,0,.7,.1,.9c0,.1,.1,.2,.2,.2c.1,.1,.4,.1,.8,.1v.2h-3.1v-.2c.4,0,.6,0,.7,-.1c.2,0,.2,-.1,.3,-.2c0,-.1,0,-.4,0,-.9v-4.4c0,-.6,0,-1,0,-1.2c0,-.1,-.1,-.2,-.2,-.2c0,-.1,-.1,-.1,-.2,-.1c-.2,0,-.4,0,-.7,.2Z" class="g4_79"/>
<path fill-rule="evenodd" d="M651.6,457.5l-.9,10.2c0,.5,-.1,.8,-.1,.9c0,.3,.1,.5,.2,.6c.1,.2,.2,.3,.4,.4c.2,.1,.6,.1,1,.1l-.1,.3h-4.8l.1,-.3h.2c.4,0,.7,-.1,1,-.3c.2,-.1,.3,-.3,.4,-.5c0,-.2,.1,-.7,.2,-1.3l.1,-1.6h-3.5l-1.2,1.7c-.3,.4,-.5,.6,-.5,.8c-.1,.2,-.1,.3,-.1,.5c0,.2,0,.3,.2,.5c.1,.1,.4,.2,.8,.2l-.1,.3h-3.6l.1,-.3c.4,0,.8,-.2,1.1,-.4c.4,-.3,.9,-.9,1.5,-1.8l7.3,-10Zm-1.7,3l-3.6,4.8h3.1Z" class="g4_79"/>
<path fill-rule="evenodd" d="M656.4,466.2l2,-1h.2v6.9c0,.5,0,.8,0,.9c.1,.1,.1,.2,.2,.3c.2,0,.4,.1,.8,.1v.2h-3.1v-.2c.4,0,.7,-.1,.8,-.1c.1,-.1,.2,-.2,.2,-.3c0,-.1,.1,-.4,.1,-.9v-4.4c0,-.6,-.1,-.9,-.1,-1.1c0,-.1,-.1,-.2,-.1,-.3c-.1,-.1,-.2,-.1,-.3,-.1c-.2,0,-.4,.1,-.6,.2Z" class="g4_79"/>
<path d="M186.1,1078.3H836.8V643.2H186.1v435.1Z" class="g7_79"/>
<path d="M74.6,642.9H836.8" class="g6_79"/>
<path d="M232.1,736.1h14.2V721.9H232.1v14.2Z" class="g8_79"/>
<path d="M232.1,721.9h14.2v14.2H232.1V721.9Z" class="g9_79"/>
<path d="M232.1,750.4h14.2V736.1H232.1v14.3Z" class="g8_79"/>
<path d="M232.1,736.1h14.2v14.3H232.1V736.1Z" class="g9_79"/>
<path d="M232.1,764.6h14.2V750.4H232.1v14.2Z" class="g8_79"/>
<path d="M232.1,750.4h14.2v14.2H232.1V750.4Z" class="g9_79"/>
<path d="M232.1,778.9h14.2V764.6H232.1v14.3Z" class="g8_79"/>
<path d="M232.1,764.6h14.2v14.3H232.1V764.6Z" class="g9_79"/>
<path d="M232.1,793.1h14.2V778.9H232.1v14.2Z" class="g8_79"/>
<path d="M232.1,778.9h14.2v14.2H232.1V778.9Z" class="g9_79"/>
<path d="M232.1,807.3h14.2V793.1H232.1v14.2Z" class="g8_79"/>
<path d="M232.1,793.1h14.2v14.2H232.1V793.1Z" class="g9_79"/>
<path d="M246.3,736.1h14.3V721.9H246.3v14.2Z" class="g8_79"/>
<path d="M246.3,721.9h14.3v14.2H246.3V721.9Z" class="g9_79"/>
<path fill-rule="evenodd" d="M246.3,736.1h14.3v14.3H246.3V736.1Z" class="ga_79"/>
<path fill-rule="evenodd" d="M246.3,750.4h14.3v14.2H246.3V750.4Z" class="ga_79"/>
<path fill-rule="evenodd" d="M246.3,764.6h14.3v14.3H246.3V764.6Z" class="ga_79"/>
<path fill-rule="evenodd" d="M246.3,778.9h14.3v14.2H246.3V778.9Z" class="ga_79"/>
<path d="M246.3,807.3h14.3V793.1H246.3v14.2Z" class="g8_79"/>
<path d="M246.3,793.1h14.3v14.2H246.3V793.1Z" class="g9_79"/>
<path d="M260.6,736.1h14.2V721.9H260.6v14.2Z" class="g8_79"/>
<path d="M260.6,721.9h14.2v14.2H260.6V721.9Z" class="g9_79"/>
<path fill-rule="evenodd" d="M260.6,736.1h14.2v14.3H260.6V736.1Z" class="ga_79"/>
<path fill-rule="evenodd" d="M260.6,750.4h14.2v14.2H260.6V750.4Z" class="ga_79"/>
<path fill-rule="evenodd" d="M260.6,764.6h14.2v14.3H260.6V764.6Z" class="ga_79"/>
<path fill-rule="evenodd" d="M260.6,778.9h14.2v14.2H260.6V778.9Z" class="ga_79"/>
<path d="M260.6,807.3h14.2V793.1H260.6v14.2Z" class="g8_79"/>
<path d="M260.6,793.1h14.2v14.2H260.6V793.1Z" class="g9_79"/>
<path d="M274.8,736.1h14.3V721.9H274.8v14.2Z" class="g8_79"/>
<path d="M274.8,721.9h14.3v14.2H274.8V721.9Z" class="g9_79"/>
<path fill-rule="evenodd" d="M274.8,736.1h14.3v14.3H274.8V736.1Z" class="ga_79"/>
<path fill-rule="evenodd" d="M274.8,750.4h14.3v14.2H274.8V750.4Z" class="ga_79"/>
<path fill-rule="evenodd" d="M274.8,764.6h14.3v14.3H274.8V764.6Z" class="ga_79"/>
<path fill-rule="evenodd" d="M274.8,778.9h14.3v14.2H274.8V778.9Z" class="ga_79"/>
<path d="M274.8,807.3h14.3V793.1H274.8v14.2Z" class="g8_79"/>
<path d="M274.8,793.1h14.3v14.2H274.8V793.1Z" class="g9_79"/>
<path d="M289.1,736.1h14.2V721.9H289.1v14.2Z" class="g8_79"/>
<path d="M289.1,721.9h14.2v14.2H289.1V721.9Z" class="g9_79"/>
<path fill-rule="evenodd" d="M289.1,736.1h14.2v14.3H289.1V736.1Z" class="ga_79"/>
<path fill-rule="evenodd" d="M289.1,750.4h14.2v14.2H289.1V750.4Z" class="ga_79"/>
<path fill-rule="evenodd" d="M289.1,764.6h14.2v14.3H289.1V764.6Z" class="ga_79"/>
<path fill-rule="evenodd" d="M289.1,778.9h14.2v14.2H289.1V778.9Z" class="ga_79"/>
<path d="M289.1,807.3h14.2V793.1H289.1v14.2Z" class="g8_79"/>
<path d="M289.1,793.1h14.2v14.2H289.1V793.1Z" class="g9_79"/>
<path d="M303.3,736.1h14.3V721.9H303.3v14.2Z" class="g8_79"/>
<path d="M303.3,721.9h14.3v14.2H303.3V721.9Z" class="g9_79"/>
<path fill-rule="evenodd" d="M303.3,736.1h14.3v14.3H303.3V736.1Z" class="ga_79"/>
<path fill-rule="evenodd" d="M303.3,750.4h14.3v14.2H303.3V750.4Z" class="ga_79"/>
<path fill-rule="evenodd" d="M303.3,764.6h14.3v14.3H303.3V764.6Z" class="ga_79"/>
<path fill-rule="evenodd" d="M303.3,778.9h14.3v14.2H303.3V778.9Z" class="ga_79"/>
<path d="M303.3,807.3h14.3V793.1H303.3v14.2Z" class="g8_79"/>
<path d="M303.3,793.1h14.3v14.2H303.3V793.1Z" class="g9_79"/>
<path d="M317.6,736.1h14.2V721.9H317.6v14.2Z" class="g8_79"/>
<path d="M317.6,721.9h14.2v14.2H317.6V721.9Z" class="g9_79"/>
<path d="M317.6,750.4h14.2V736.1H317.6v14.3Z" class="g8_79"/>
<path d="M317.6,736.1h14.2v14.3H317.6V736.1Z" class="g9_79"/>
<path d="M317.6,764.6h14.2V750.4H317.6v14.2Z" class="g8_79"/>
<path d="M317.6,750.4h14.2v14.2H317.6V750.4Z" class="g9_79"/>
<path d="M317.6,778.9h14.2V764.6H317.6v14.3Z" class="g8_79"/>
<path d="M317.6,764.6h14.2v14.3H317.6V764.6Z" class="g9_79"/>
<path d="M317.6,793.1h14.2V778.9H317.6v14.2Z" class="g8_79"/>
<path d="M317.6,778.9h14.2v14.2H317.6V778.9Z" class="g9_79"/>
<path d="M317.6,807.3h14.2V793.1H317.6v14.2Z" class="g8_79"/>
<path d="M317.6,793.1h14.2v14.2H317.6V793.1Z" class="g9_79"/>
<path d="M238.9,793.2h77.9M240,742.5l77.5,26.9" class="gb_79"/>
<path d="M350.5,737.8h14.2V723.6H350.5v14.2Z" class="g8_79"/>
<path d="M350.5,723.6h14.2v14.2H350.5V723.6Z" class="gc_79"/>
<path d="M350.5,751.9h14.2V737.8H350.5v14.1Z" class="g8_79"/>
<path d="M350.5,737.8h14.2v14.1H350.5V737.8Z" class="gc_79"/>
<path d="M350.5,766h14.2V751.9H350.5V766Z" class="g8_79"/>
<path d="M350.5,751.9h14.2V766H350.5V751.9Z" class="gc_79"/>
<path d="M350.5,780.2h14.2V766H350.5v14.2Z" class="g8_79"/>
<path d="M350.5,766h14.2v14.2H350.5V766Z" class="gc_79"/>
<path d="M350.5,794.3h14.2V780.2H350.5v14.1Z" class="g8_79"/>
<path d="M350.5,780.2h14.2v14.1H350.5V780.2Z" class="gc_79"/>
<path d="M350.5,808.5h14.2V794.3H350.5v14.2Z" class="g8_79"/>
<path d="M350.5,794.3h14.2v14.2H350.5V794.3Z" class="gc_79"/>
<path d="M364.7,737.8h14.1V723.6H364.7v14.2Z" class="g8_79"/>
<path d="M364.7,723.6h14.1v14.2H364.7V723.6Z" class="gc_79"/>
<path fill-rule="evenodd" d="M364.7,737.8h14.1v14.1H364.7V737.8Z" class="gd_79"/>
<path fill-rule="evenodd" d="M364.7,751.9h14.1V766H364.7V751.9Z" class="gd_79"/>
<path fill-rule="evenodd" d="M364.7,766h14.1v14.2H364.7V766Z" class="gd_79"/>
<path fill-rule="evenodd" d="M364.7,780.2h14.1v14.1H364.7V780.2Z" class="gd_79"/>
<path fill-rule="evenodd" d="M364.7,794.3h14.1v14.2H364.7V794.3Z" class="gd_79"/>
<path d="M378.8,737.8h14.1V723.6H378.8v14.2Z" class="g8_79"/>
<path d="M378.8,723.6h14.1v14.2H378.8V723.6Z" class="gc_79"/>
<path fill-rule="evenodd" d="M378.8,737.8h14.1v14.1H378.8V737.8Z" class="gd_79"/>
<path fill-rule="evenodd" d="M378.8,751.9h14.1V766H378.8V751.9Z" class="gd_79"/>
<path fill-rule="evenodd" d="M378.8,766h14.1v14.2H378.8V766Z" class="gd_79"/>
<path fill-rule="evenodd" d="M378.8,780.2h14.1v14.1H378.8V780.2Z" class="gd_79"/>
<path fill-rule="evenodd" d="M378.8,794.3h14.1v14.2H378.8V794.3Z" class="gd_79"/>
<path d="M392.9,737.8h14.2V723.6H392.9v14.2Z" class="g8_79"/>
<path d="M392.9,723.6h14.2v14.2H392.9V723.6Z" class="gc_79"/>
<path fill-rule="evenodd" d="M392.9,737.8h14.2v14.1H392.9V737.8Z" class="gd_79"/>
<path fill-rule="evenodd" d="M392.9,751.9h14.2V766H392.9V751.9Z" class="gd_79"/>
<path fill-rule="evenodd" d="M392.9,766h14.2v14.2H392.9V766Z" class="gd_79"/>
<path fill-rule="evenodd" d="M392.9,780.2h14.2v14.1H392.9V780.2Z" class="gd_79"/>
<path fill-rule="evenodd" d="M392.9,794.3h14.2v14.2H392.9V794.3Z" class="gd_79"/>
<path d="M407.1,737.8h14.1V723.6H407.1v14.2Z" class="g8_79"/>
<path d="M407.1,723.6h14.1v14.2H407.1V723.6Z" class="gc_79"/>
<path fill-rule="evenodd" d="M407.1,737.8h14.1v14.1H407.1V737.8Z" class="gd_79"/>
<path fill-rule="evenodd" d="M407.1,751.9h14.1V766H407.1V751.9Z" class="gd_79"/>
<path fill-rule="evenodd" d="M407.1,766h14.1v14.2H407.1V766Z" class="gd_79"/>
<path fill-rule="evenodd" d="M407.1,780.2h14.1v14.1H407.1V780.2Z" class="gd_79"/>
<path fill-rule="evenodd" d="M407.1,794.3h14.1v14.2H407.1V794.3Z" class="gd_79"/>
<path d="M421.2,737.8h14.2V723.6H421.2v14.2Z" class="g8_79"/>
<path d="M421.2,723.6h14.2v14.2H421.2V723.6Z" class="gc_79"/>
<path fill-rule="evenodd" d="M421.2,737.8h14.2v14.1H421.2V737.8Z" class="gd_79"/>
<path fill-rule="evenodd" d="M421.2,751.9h14.2V766H421.2V751.9Z" class="gd_79"/>
<path fill-rule="evenodd" d="M421.2,766h14.2v14.2H421.2V766Z" class="gd_79"/>
<path fill-rule="evenodd" d="M421.2,780.2h14.2v14.1H421.2V780.2Z" class="gd_79"/>
<path fill-rule="evenodd" d="M421.2,794.3h14.2v14.2H421.2V794.3Z" class="gd_79"/>
<path d="M435.4,737.8h14.1V723.6H435.4v14.2Z" class="g8_79"/>
<path d="M435.4,723.6h14.1v14.2H435.4V723.6Z" class="gc_79"/>
<path d="M435.4,751.9h14.1V737.8H435.4v14.1Z" class="g8_79"/>
<path d="M435.4,737.8h14.1v14.1H435.4V737.8Z" class="gc_79"/>
<path d="M435.4,766h14.1V751.9H435.4V766Z" class="g8_79"/>
<path d="M435.4,751.9h14.1V766H435.4V751.9Z" class="gc_79"/>
<path d="M435.4,780.2h14.1V766H435.4v14.2Z" class="g8_79"/>
<path d="M435.4,766h14.1v14.2H435.4V766Z" class="gc_79"/>
<path d="M435.4,794.3h14.1V780.2H435.4v14.1Z" class="g8_79"/>
<path d="M435.4,780.2h14.1v14.1H435.4V780.2Z" class="gc_79"/>
<path d="M435.4,808.5h14.1V794.3H435.4v14.2Z" class="g8_79"/>
<path d="M435.4,794.3h14.1v14.2H435.4V794.3Z" class="gc_79"/>
<path d="M357.3,794.4h77.3M357.9,752.3l77.4,-.4" class="ge_79"/>
<path d="M232.1,851.6h14.1V837.5H232.1v14.1Z" class="g8_79"/>
<path d="M232.1,837.5h14.1v14.1H232.1V837.5Z" class="gc_79"/>
<path d="M232.1,865.8h14.1V851.6H232.1v14.2Z" class="g8_79"/>
<path d="M232.1,851.6h14.1v14.2H232.1V851.6Z" class="gc_79"/>
<path d="M232.1,879.9h14.1V865.8H232.1v14.1Z" class="g8_79"/>
<path d="M232.1,865.8h14.1v14.1H232.1V865.8Z" class="gc_79"/>
<path d="M232.1,894.1h14.1V879.9H232.1v14.2Z" class="g8_79"/>
<path d="M232.1,879.9h14.1v14.2H232.1V879.9Z" class="gc_79"/>
<path d="M232.1,908.2h14.1V894.1H232.1v14.1Z" class="g8_79"/>
<path d="M232.1,894.1h14.1v14.1H232.1V894.1Z" class="gc_79"/>
<path d="M232.1,922.3h14.1V908.2H232.1v14.1Z" class="g8_79"/>
<path d="M232.1,908.2h14.1v14.1H232.1V908.2Z" class="gc_79"/>
<path fill-rule="evenodd" d="M246.2,837.5h14.2v14.1H246.2V837.5Z" class="gd_79"/>
<path fill-rule="evenodd" d="M246.2,851.6h14.2v14.2H246.2V851.6Z" class="gd_79"/>
<path fill-rule="evenodd" d="M246.2,865.8h14.2v14.1H246.2V865.8Z" class="gd_79"/>
<path fill-rule="evenodd" d="M246.2,879.9h14.2v14.2H246.2V879.9Z" class="gd_79"/>
<path fill-rule="evenodd" d="M246.2,894.1h14.2v14.1H246.2V894.1Z" class="gd_79"/>
<path d="M246.2,922.3h14.2V908.2H246.2v14.1Z" class="g8_79"/>
<path d="M246.2,908.2h14.2v14.1H246.2V908.2Z" class="gc_79"/>
<path fill-rule="evenodd" d="M260.4,837.5h14.1v14.1H260.4V837.5Z" class="gd_79"/>
<path fill-rule="evenodd" d="M260.4,851.6h14.1v14.2H260.4V851.6Z" class="gd_79"/>
<path fill-rule="evenodd" d="M260.4,865.8h14.1v14.1H260.4V865.8Z" class="gd_79"/>
<path fill-rule="evenodd" d="M260.4,879.9h14.1v14.2H260.4V879.9Z" class="gd_79"/>
<path fill-rule="evenodd" d="M260.4,894.1h14.1v14.1H260.4V894.1Z" class="gd_79"/>
<path d="M260.4,922.3h14.1V908.2H260.4v14.1Z" class="g8_79"/>
<path d="M260.4,908.2h14.1v14.1H260.4V908.2Z" class="gc_79"/>
<path fill-rule="evenodd" d="M274.5,837.5h14.2v14.1H274.5V837.5Z" class="gd_79"/>
<path fill-rule="evenodd" d="M274.5,851.6h14.2v14.2H274.5V851.6Z" class="gd_79"/>
<path fill-rule="evenodd" d="M274.5,865.8h14.2v14.1H274.5V865.8Z" class="gd_79"/>
<path fill-rule="evenodd" d="M274.5,879.9h14.2v14.2H274.5V879.9Z" class="gd_79"/>
<path fill-rule="evenodd" d="M274.5,894.1h14.2v14.1H274.5V894.1Z" class="gd_79"/>
<path d="M274.5,922.3h14.2V908.2H274.5v14.1Z" class="g8_79"/>
<path d="M274.5,908.2h14.2v14.1H274.5V908.2Z" class="gc_79"/>
<path fill-rule="evenodd" d="M288.7,837.5h14.1v14.1H288.7V837.5Z" class="gd_79"/>
<path fill-rule="evenodd" d="M288.7,851.6h14.1v14.2H288.7V851.6Z" class="gd_79"/>
<path fill-rule="evenodd" d="M288.7,865.8h14.1v14.1H288.7V865.8Z" class="gd_79"/>
<path fill-rule="evenodd" d="M288.7,879.9h14.1v14.2H288.7V879.9Z" class="gd_79"/>
<path fill-rule="evenodd" d="M288.7,894.1h14.1v14.1H288.7V894.1Z" class="gd_79"/>
<path d="M288.7,922.3h14.1V908.2H288.7v14.1Z" class="g8_79"/>
<path d="M288.7,908.2h14.1v14.1H288.7V908.2Z" class="gc_79"/>
<path d="M302.8,851.6h14.1V837.5H302.8v14.1Z" class="g8_79"/>
<path d="M302.8,837.5h14.1v14.1H302.8V837.5Z" class="gc_79"/>
<path d="M302.8,865.8h14.1V851.6H302.8v14.2Z" class="g8_79"/>
<path d="M302.8,851.6h14.1v14.2H302.8V851.6Z" class="gc_79"/>
<path d="M302.8,879.9h14.1V865.8H302.8v14.1Z" class="g8_79"/>
<path d="M302.8,865.8h14.1v14.1H302.8V865.8Z" class="gc_79"/>
<path d="M302.8,894.1h14.1V879.9H302.8v14.2Z" class="g8_79"/>
<path d="M302.8,879.9h14.1v14.2H302.8V879.9Z" class="gc_79"/>
<path d="M302.8,908.2h14.1V894.1H302.8v14.1Z" class="g8_79"/>
<path d="M302.8,894.1h14.1v14.1H302.8V894.1Z" class="gc_79"/>
<path d="M302.8,922.3h14.1V908.2H302.8v14.1Z" class="g8_79"/>
<path d="M302.8,908.2h14.1v14.1H302.8V908.2Z" class="gc_79"/>
<path d="M246.3,848.7v64.5m56,-65.2v64.5" class="ge_79"/>
<path d="M550.3,733h10.6V722.4H550.3V733Z" class="g8_79"/>
<path d="M550.3,722.4h10.6V733H550.3V722.4Z" class="gf_79"/>
<path d="M550.3,743.7h10.6V733H550.3v10.7Z" class="g8_79"/>
<path d="M550.3,733h10.6v10.7H550.3V733Z" class="gf_79"/>
<path d="M550.3,754.3h10.6V743.7H550.3v10.6Z" class="g8_79"/>
<path d="M550.3,743.7h10.6v10.6H550.3V743.7Z" class="gf_79"/>
<path d="M550.3,764.9h10.6V754.3H550.3v10.6Z" class="g8_79"/>
<path d="M550.3,754.3h10.6v10.6H550.3V754.3Z" class="gf_79"/>
<path d="M550.3,775.5h10.6V764.9H550.3v10.6Z" class="g8_79"/>
<path d="M550.3,764.9h10.6v10.6H550.3V764.9Z" class="gf_79"/>
<path d="M550.3,786.2h10.6V775.5H550.3v10.7Z" class="g8_79"/>
<path d="M550.3,775.5h10.6v10.7H550.3V775.5Z" class="gf_79"/>
<path d="M550.3,796.8h10.6V786.2H550.3v10.6Z" class="g8_79"/>
<path d="M550.3,786.2h10.6v10.6H550.3V786.2Z" class="gf_79"/>
<path d="M550.3,807.4h10.6V796.8H550.3v10.6Z" class="g8_79"/>
<path d="M550.3,796.8h10.6v10.6H550.3V796.8Z" class="gf_79"/>
<path d="M560.9,733h10.6V722.4H560.9V733Z" class="g8_79"/>
<path d="M560.9,722.4h10.6V733H560.9V722.4Z" class="gf_79"/>
<path fill-rule="evenodd" d="M560.9,733h10.6v10.7H560.9V733Z" class="gg_79"/>
<path fill-rule="evenodd" d="M560.9,743.7h10.6v10.6H560.9V743.7Z" class="gg_79"/>
<path fill-rule="evenodd" d="M560.9,754.3h10.6v10.6H560.9V754.3Z" class="gg_79"/>
<path fill-rule="evenodd" d="M560.9,764.9h10.6v10.6H560.9V764.9Z" class="gg_79"/>
<path fill-rule="evenodd" d="M560.9,775.5h10.6v10.7H560.9V775.5Z" class="gg_79"/>
<path fill-rule="evenodd" d="M560.9,786.2h10.6v10.6H560.9V786.2Z" class="gg_79"/>
<path d="M560.9,807.4h10.6V796.8H560.9v10.6Z" class="g8_79"/>
<path d="M560.9,796.8h10.6v10.6H560.9V796.8Z" class="gf_79"/>
<path d="M571.5,733h10.7V722.4H571.5V733Z" class="g8_79"/>
<path d="M571.5,722.4h10.7V733H571.5V722.4Z" class="gf_79"/>
<path fill-rule="evenodd" d="M571.5,733h10.7v10.7H571.5V733Z" class="gg_79"/>
<path fill-rule="evenodd" d="M571.5,743.7h10.7v10.6H571.5V743.7Z" class="gg_79"/>
<path fill-rule="evenodd" d="M571.5,754.3h10.7v10.6H571.5V754.3Z" class="gg_79"/>
<path fill-rule="evenodd" d="M571.5,764.9h10.7v10.6H571.5V764.9Z" class="gg_79"/>
<path fill-rule="evenodd" d="M571.5,775.5h10.7v10.7H571.5V775.5Z" class="gg_79"/>
<path fill-rule="evenodd" d="M571.5,786.2h10.7v10.6H571.5V786.2Z" class="gg_79"/>
<path d="M571.5,807.4h10.7V796.8H571.5v10.6Z" class="g8_79"/>
<path d="M571.5,796.8h10.7v10.6H571.5V796.8Z" class="gf_79"/>
<path d="M582.2,733h10.6V722.4H582.2V733Z" class="g8_79"/>
<path d="M582.2,722.4h10.6V733H582.2V722.4Z" class="gf_79"/>
<path fill-rule="evenodd" d="M582.2,733h10.6v10.7H582.2V733Z" class="gg_79"/>
<path fill-rule="evenodd" d="M582.2,743.7h10.6v10.6H582.2V743.7Z" class="gg_79"/>
<path fill-rule="evenodd" d="M582.2,754.3h10.6v10.6H582.2V754.3Z" class="gg_79"/>
<path fill-rule="evenodd" d="M582.2,764.9h10.6v10.6H582.2V764.9Z" class="gg_79"/>
<path fill-rule="evenodd" d="M582.2,775.5h10.6v10.7H582.2V775.5Z" class="gg_79"/>
<path fill-rule="evenodd" d="M582.2,786.2h10.6v10.6H582.2V786.2Z" class="gg_79"/>
<path d="M582.2,807.4h10.6V796.8H582.2v10.6Z" class="g8_79"/>
<path d="M582.2,796.8h10.6v10.6H582.2V796.8Z" class="gf_79"/>
<path d="M592.8,733h10.6V722.4H592.8V733Z" class="g8_79"/>
<path d="M592.8,722.4h10.6V733H592.8V722.4Z" class="gf_79"/>
<path fill-rule="evenodd" d="M592.8,733h10.6v10.7H592.8V733Z" class="gg_79"/>
<path fill-rule="evenodd" d="M592.8,743.7h10.6v10.6H592.8V743.7Z" class="gg_79"/>
<path fill-rule="evenodd" d="M592.8,754.3h10.6v10.6H592.8V754.3Z" class="gg_79"/>
<path fill-rule="evenodd" d="M592.8,764.9h10.6v10.6H592.8V764.9Z" class="gg_79"/>
<path fill-rule="evenodd" d="M592.8,775.5h10.6v10.7H592.8V775.5Z" class="gg_79"/>
<path fill-rule="evenodd" d="M592.8,786.2h10.6v10.6H592.8V786.2Z" class="gg_79"/>
<path d="M592.8,807.4h10.6V796.8H592.8v10.6Z" class="g8_79"/>
<path d="M592.8,796.8h10.6v10.6H592.8V796.8Z" class="gf_79"/>
<path d="M603.4,733H614V722.4H603.4V733Z" class="g8_79"/>
<path d="M603.4,722.4H614V733H603.4V722.4Z" class="gf_79"/>
<path fill-rule="evenodd" d="M603.4,733H614v10.7H603.4V733Z" class="gg_79"/>
<path fill-rule="evenodd" d="M603.4,743.7H614v10.6H603.4V743.7Z" class="gg_79"/>
<path fill-rule="evenodd" d="M603.4,754.3H614v10.6H603.4V754.3Z" class="gg_79"/>
<path fill-rule="evenodd" d="M603.4,764.9H614v10.6H603.4V764.9Z" class="gg_79"/>
<path fill-rule="evenodd" d="M603.4,775.5H614v10.7H603.4V775.5Z" class="gg_79"/>
<path fill-rule="evenodd" d="M603.4,786.2H614v10.6H603.4V786.2Z" class="gg_79"/>
<path d="M603.4,807.4H614V796.8H603.4v10.6Z" class="g8_79"/>
<path d="M603.4,796.8H614v10.6H603.4V796.8Z" class="gf_79"/>
<path d="M614,733h10.7V722.4H614V733Z" class="g8_79"/>
<path d="M614,722.4h10.7V733H614V722.4Z" class="gf_79"/>
<path fill-rule="evenodd" d="M614,733h10.7v10.7H614V733Z" class="gg_79"/>
<path fill-rule="evenodd" d="M614,743.7h10.7v10.6H614V743.7Z" class="gg_79"/>
<path fill-rule="evenodd" d="M614,754.3h10.7v10.6H614V754.3Z" class="gg_79"/>
<path fill-rule="evenodd" d="M614,764.9h10.7v10.6H614V764.9Z" class="gg_79"/>
<path fill-rule="evenodd" d="M614,775.5h10.7v10.7H614V775.5Z" class="gg_79"/>
<path fill-rule="evenodd" d="M614,786.2h10.7v10.6H614V786.2Z" class="gg_79"/>
<path d="M614,807.4h10.7V796.8H614v10.6Z" class="g8_79"/>
<path d="M614,796.8h10.7v10.6H614V796.8Z" class="gf_79"/>
<path d="M624.7,733h10.6V722.4H624.7V733Z" class="g8_79"/>
<path d="M624.7,722.4h10.6V733H624.7V722.4Z" class="gf_79"/>
<path fill-rule="evenodd" d="M624.7,733h10.6v10.7H624.7V733Z" class="gg_79"/>
<path fill-rule="evenodd" d="M624.7,743.7h10.6v10.6H624.7V743.7Z" class="gg_79"/>
<path fill-rule="evenodd" d="M624.7,754.3h10.6v10.6H624.7V754.3Z" class="gg_79"/>
<path fill-rule="evenodd" d="M624.7,764.9h10.6v10.6H624.7V764.9Z" class="gg_79"/>
<path fill-rule="evenodd" d="M624.7,775.5h10.6v10.7H624.7V775.5Z" class="gg_79"/>
<path fill-rule="evenodd" d="M624.7,786.2h10.6v10.6H624.7V786.2Z" class="gg_79"/>
<path d="M624.7,807.4h10.6V796.8H624.7v10.6Z" class="g8_79"/>
<path d="M624.7,796.8h10.6v10.6H624.7V796.8Z" class="gf_79"/>
<path d="M635.3,733h10.6V722.4H635.3V733Z" class="g8_79"/>
<path d="M635.3,722.4h10.6V733H635.3V722.4Z" class="gf_79"/>
<path fill-rule="evenodd" d="M635.3,733h10.6v10.7H635.3V733Z" class="gg_79"/>
<path fill-rule="evenodd" d="M635.3,743.7h10.6v10.6H635.3V743.7Z" class="gg_79"/>
<path fill-rule="evenodd" d="M635.3,754.3h10.6v10.6H635.3V754.3Z" class="gg_79"/>
<path fill-rule="evenodd" d="M635.3,764.9h10.6v10.6H635.3V764.9Z" class="gg_79"/>
<path fill-rule="evenodd" d="M635.3,775.5h10.6v10.7H635.3V775.5Z" class="gg_79"/>
<path fill-rule="evenodd" d="M635.3,786.2h10.6v10.6H635.3V786.2Z" class="gg_79"/>
<path d="M635.3,807.4h10.6V796.8H635.3v10.6Z" class="g8_79"/>
<path d="M635.3,796.8h10.6v10.6H635.3V796.8Z" class="gf_79"/>
<path d="M645.9,733h10.7V722.4H645.9V733Z" class="g8_79"/>
<path d="M645.9,722.4h10.7V733H645.9V722.4Z" class="gf_79"/>
<path fill-rule="evenodd" d="M645.9,733h10.7v10.7H645.9V733Z" class="gg_79"/>
<path fill-rule="evenodd" d="M645.9,743.7h10.7v10.6H645.9V743.7Z" class="gg_79"/>
<path fill-rule="evenodd" d="M645.9,754.3h10.7v10.6H645.9V754.3Z" class="gg_79"/>
<path fill-rule="evenodd" d="M645.9,764.9h10.7v10.6H645.9V764.9Z" class="gg_79"/>
<path fill-rule="evenodd" d="M645.9,775.5h10.7v10.7H645.9V775.5Z" class="gg_79"/>
<path fill-rule="evenodd" d="M645.9,786.2h10.7v10.6H645.9V786.2Z" class="gg_79"/>
<path d="M645.9,807.4h10.7V796.8H645.9v10.6Z" class="g8_79"/>
<path d="M645.9,796.8h10.7v10.6H645.9V796.8Z" class="gf_79"/>
<path d="M656.6,733h10.6V722.4H656.6V733Z" class="g8_79"/>
<path d="M656.6,722.4h10.6V733H656.6V722.4Z" class="gf_79"/>
<path d="M656.6,743.7h10.6V733H656.6v10.7Z" class="g8_79"/>
<path d="M656.6,733h10.6v10.7H656.6V733Z" class="gf_79"/>
<path d="M656.6,754.3h10.6V743.7H656.6v10.6Z" class="g8_79"/>
<path d="M656.6,743.7h10.6v10.6H656.6V743.7Z" class="gf_79"/>
<path d="M656.6,764.9h10.6V754.3H656.6v10.6Z" class="g8_79"/>
<path d="M656.6,754.3h10.6v10.6H656.6V754.3Z" class="gf_79"/>
<path d="M656.6,775.5h10.6V764.9H656.6v10.6Z" class="g8_79"/>
<path d="M656.6,764.9h10.6v10.6H656.6V764.9Z" class="gf_79"/>
<path d="M656.6,786.2h10.6V775.5H656.6v10.7Z" class="g8_79"/>
<path d="M656.6,775.5h10.6v10.7H656.6V775.5Z" class="gf_79"/>
<path d="M656.6,796.8h10.6V786.2H656.6v10.6Z" class="g8_79"/>
<path d="M656.6,786.2h10.6v10.6H656.6V786.2Z" class="gf_79"/>
<path d="M656.6,807.4h10.6V796.8H656.6v10.6Z" class="g8_79"/>
<path d="M656.6,796.8h10.6v10.6H656.6V796.8Z" class="gf_79"/>
<path fill-rule="evenodd" d="M641.8,746.6c-.2,0,-.5,.2,-.8,.4c-.4,.4,-.8,.9,-1.2,1.6c-.3,.7,-.5,1.3,-.5,1.9c0,.3,.1,.5,.3,.7c.1,.1,.3,.2,.4,.2c.5,0,1,-.3,1.5,-1c.7,-.9,1.1,-1.8,1.1,-2.7c0,-.4,-.1,-.7,-.2,-.8c-.1,-.2,-.3,-.3,-.6,-.3m2.3,-.3l-1.3,4.3l-.1,.5q0,.1,0,.2c0,0,0,.1,.1,.2h.1c0,0,.1,0,.2,-.1c.2,-.1,.4,-.4,.6,-.7l.3,.1c-.3,.4,-.6,.8,-.9,1c-.3,.2,-.6,.3,-.9,.3c-.2,0,-.3,0,-.4,-.1c-.1,-.1,-.1,-.2,-.1,-.4c0,-.2,0,-.5,.1,-.8l.1,-.5c-.5,.8,-1,1.3,-1.5,1.5c-.3,.2,-.6,.3,-.9,.3c-.3,0,-.6,-.1,-.8,-.3c-.3,-.3,-.4,-.6,-.4,-1.1c0,-.6,.2,-1.3,.6,-2.1c.4,-.7,.9,-1.3,1.6,-1.8c.4,-.3,.9,-.5,1.3,-.5c.3,0,.5,.1,.7,.2c.1,.1,.3,.4,.3,.7l.3,-.7Z" class="g4_79"/>
<path d="M641.8,746.6c-.2,0,-.5,.2,-.8,.4c-.4,.4,-.8,.9,-1.2,1.6c-.3,.7,-.5,1.3,-.5,1.9c0,.3,.1,.5,.3,.7c.1,.1,.3,.2,.4,.2c.5,0,1,-.3,1.5,-1c.7,-.9,1.1,-1.8,1.1,-2.7c0,-.4,-.1,-.7,-.2,-.8c-.1,-.2,-.3,-.3,-.6,-.3Zm2.3,-.3l-1.3,4.3l-.1,.5q0,.1,0,.2c0,0,0,.1,.1,.2h.1c0,0,.1,0,.2,-.1c.2,-.1,.4,-.4,.6,-.7l.3,.1c-.3,.4,-.6,.8,-.9,1c-.3,.2,-.6,.3,-.9,.3c-.2,0,-.3,0,-.4,-.1c-.1,-.1,-.1,-.2,-.1,-.4c0,-.2,0,-.5,.1,-.8l.1,-.5c-.5,.8,-1,1.3,-1.5,1.5c-.3,.2,-.6,.3,-.9,.3c-.3,0,-.6,-.1,-.8,-.3c-.3,-.3,-.4,-.6,-.4,-1.1c0,-.6,.2,-1.3,.6,-2.1c.4,-.7,.9,-1.3,1.6,-1.8c.4,-.3,.9,-.5,1.3,-.5c.3,0,.5,.1,.7,.2c.1,.1,.3,.4,.3,.7l.3,-.7l1,-.2Z" class="gh_79"/>
<path fill-rule="evenodd" d="M638.8,798.9c.4,.2,.8,.3,1.1,.3c.3,0,.7,-.1,1.1,-.4c.4,-.3,.8,-.7,1,-1.4c.3,-.6,.5,-1.3,.5,-1.9c0,-.4,-.1,-.7,-.3,-.9c-.2,-.2,-.4,-.3,-.7,-.3c-.4,0,-.7,.1,-1.1,.4c-.4,.3,-.7,.8,-.8,1.3Zm2.4,-8.5l-1.2,4.4c.4,-.5,.7,-.7,1,-.9c.3,-.2,.6,-.2,.9,-.2c.5,0,.9,.1,1.2,.4c.3,.3,.4,.7,.4,1.3c0,.6,-.2,1.3,-.6,2c-.3,.7,-.8,1.2,-1.4,1.5c-.6,.4,-1.2,.6,-1.7,.6c-.7,0,-1.3,-.2,-2,-.7l1.9,-6.6c.2,-.5,.3,-.8,.3,-.9c0,-.1,-.1,-.2,-.1,-.2c-.1,-.1,-.3,-.1,-.5,-.1c-.1,0,-.2,0,-.4,0v-.2Z" class="g4_79"/>
<path d="M638.8,798.9c.4,.2,.8,.3,1.1,.3c.3,0,.7,-.1,1.1,-.4c.4,-.3,.8,-.7,1,-1.4c.3,-.6,.5,-1.3,.5,-1.9c0,-.4,-.1,-.7,-.3,-.9c-.2,-.2,-.4,-.3,-.7,-.3c-.4,0,-.7,.1,-1.1,.4c-.4,.3,-.7,.8,-.8,1.3l-.8,2.9Zm2.4,-8.5l-1.2,4.4c.4,-.5,.7,-.7,1,-.9c.3,-.2,.6,-.2,.9,-.2c.5,0,.9,.1,1.2,.4c.3,.3,.4,.7,.4,1.3c0,.6,-.2,1.3,-.6,2c-.3,.7,-.8,1.2,-1.4,1.5c-.6,.4,-1.2,.6,-1.7,.6c-.7,0,-1.3,-.2,-2,-.7l1.9,-6.6c.2,-.5,.3,-.8,.3,-.9c0,-.1,-.1,-.2,-.1,-.2c-.1,-.1,-.3,-.1,-.5,-.1c-.1,0,-.2,0,-.4,0v-.2l2.2,-.4Z" class="gh_79"/>
<path d="M570.7,786.2h74.5m-74,-42.5h74.6" class="gi_79"/>
<path d="M688.9,733.1h10.6V722.4H688.9v10.7Z" class="g8_79"/>
<path d="M688.9,722.4h10.6v10.7H688.9V722.4Z" class="gj_79"/>
<path d="M688.9,743.8h10.6V733.1H688.9v10.7Z" class="g8_79"/>
<path d="M688.9,733.1h10.6v10.7H688.9V733.1Z" class="gj_79"/>
<path d="M688.9,754.4h10.6V743.8H688.9v10.6Z" class="g8_79"/>
<path d="M688.9,743.8h10.6v10.6H688.9V743.8Z" class="gj_79"/>
<path d="M688.9,765.1h10.6V754.4H688.9v10.7Z" class="g8_79"/>
<path d="M688.9,754.4h10.6v10.7H688.9V754.4Z" class="gj_79"/>
<path d="M688.9,775.8h10.6V765.1H688.9v10.7Z" class="g8_79"/>
<path d="M688.9,765.1h10.6v10.7H688.9V765.1Z" class="gj_79"/>
<path d="M688.9,786.5h10.6V775.8H688.9v10.7Z" class="g8_79"/>
<path d="M688.9,775.8h10.6v10.7H688.9V775.8Z" class="gj_79"/>
<path d="M688.9,797.2h10.6V786.5H688.9v10.7Z" class="g8_79"/>
<path d="M688.9,786.5h10.6v10.7H688.9V786.5Z" class="gj_79"/>
<path d="M688.9,807.8h10.6V797.2H688.9v10.6Z" class="g8_79"/>
<path d="M688.9,797.2h10.6v10.6H688.9V797.2Z" class="gj_79"/>
<path d="M699.5,733.1h10.7V722.4H699.5v10.7Z" class="g8_79"/>
<path d="M699.5,722.4h10.7v10.7H699.5V722.4Z" class="gj_79"/>
<path fill-rule="evenodd" d="M699.5,733.1h10.7v10.7H699.5V733.1Z" class="gk_79"/>
<path fill-rule="evenodd" d="M699.5,743.8h10.7v10.6H699.5V743.8Z" class="gk_79"/>
<path fill-rule="evenodd" d="M699.5,754.4h10.7v10.7H699.5V754.4Z" class="gk_79"/>
<path fill-rule="evenodd" d="M699.5,765.1h10.7v10.7H699.5V765.1Z" class="gk_79"/>
<path fill-rule="evenodd" d="M699.5,775.8h10.7v10.7H699.5V775.8Z" class="gk_79"/>
<path fill-rule="evenodd" d="M699.5,786.5h10.7v10.7H699.5V786.5Z" class="gk_79"/>
<path fill-rule="evenodd" d="M699.5,797.2h10.7v10.6H699.5V797.2Z" class="g8_79"/>
<path d="M699.5,797.2h10.7v10.6H699.5V797.2Z" class="gj_79"/>
<path d="M710.2,733.1h10.7V722.4H710.2v10.7Z" class="g8_79"/>
<path d="M710.2,722.4h10.7v10.7H710.2V722.4Z" class="gj_79"/>
<path fill-rule="evenodd" d="M710.2,733.1h10.7v10.7H710.2V733.1Z" class="gk_79"/>
<path fill-rule="evenodd" d="M710.2,743.8h10.7v10.6H710.2V743.8Z" class="gk_79"/>
<path fill-rule="evenodd" d="M710.2,754.4h10.7v10.7H710.2V754.4Z" class="gk_79"/>
<path fill-rule="evenodd" d="M710.2,765.1h10.7v10.7H710.2V765.1Z" class="gk_79"/>
<path fill-rule="evenodd" d="M710.2,775.8h10.7v10.7H710.2V775.8Z" class="gk_79"/>
<path fill-rule="evenodd" d="M710.2,786.5h10.7v10.7H710.2V786.5Z" class="gk_79"/>
<path fill-rule="evenodd" d="M710.2,797.2h10.7v10.6H710.2V797.2Z" class="g8_79"/>
<path d="M710.2,797.2h10.7v10.6H710.2V797.2Z" class="gj_79"/>
<path d="M720.9,733.1h10.7V722.4H720.9v10.7Z" class="g8_79"/>
<path d="M720.9,722.4h10.7v10.7H720.9V722.4Z" class="gj_79"/>
<path fill-rule="evenodd" d="M720.9,733.1h10.7v10.7H720.9V733.1Z" class="gk_79"/>
<path fill-rule="evenodd" d="M720.9,743.8h10.7v10.6H720.9V743.8Z" class="gk_79"/>
<path fill-rule="evenodd" d="M720.9,754.4h10.7v10.7H720.9V754.4Z" class="gk_79"/>
<path fill-rule="evenodd" d="M720.9,765.1h10.7v10.7H720.9V765.1Z" class="gk_79"/>
<path fill-rule="evenodd" d="M720.9,775.8h10.7v10.7H720.9V775.8Z" class="gk_79"/>
<path fill-rule="evenodd" d="M720.9,786.5h10.7v10.7H720.9V786.5Z" class="gk_79"/>
<path fill-rule="evenodd" d="M720.9,797.2h10.7v10.6H720.9V797.2Z" class="g8_79"/>
<path d="M720.9,797.2h10.7v10.6H720.9V797.2Z" class="gj_79"/>
<path d="M731.6,733.1h10.7V722.4H731.6v10.7Z" class="g8_79"/>
<path d="M731.6,722.4h10.7v10.7H731.6V722.4Z" class="gj_79"/>
<path fill-rule="evenodd" d="M731.6,733.1h10.7v10.7H731.6V733.1Z" class="gk_79"/>
<path fill-rule="evenodd" d="M731.6,743.8h10.7v10.6H731.6V743.8Z" class="gk_79"/>
<path fill-rule="evenodd" d="M731.6,754.4h10.7v10.7H731.6V754.4Z" class="gk_79"/>
<path fill-rule="evenodd" d="M731.6,765.1h10.7v10.7H731.6V765.1Z" class="gk_79"/>
<path fill-rule="evenodd" d="M731.6,775.8h10.7v10.7H731.6V775.8Z" class="gk_79"/>
<path fill-rule="evenodd" d="M731.6,786.5h10.7v10.7H731.6V786.5Z" class="gk_79"/>
<path fill-rule="evenodd" d="M731.6,797.2h10.7v10.6H731.6V797.2Z" class="g8_79"/>
<path d="M731.6,797.2h10.7v10.6H731.6V797.2Z" class="gj_79"/>
<path d="M742.3,733.1h10.6V722.4H742.3v10.7Z" class="g8_79"/>
<path d="M742.3,722.4h10.6v10.7H742.3V722.4Z" class="gj_79"/>
<path fill-rule="evenodd" d="M742.3,733.1h10.6v10.7H742.3V733.1Z" class="gk_79"/>
<path fill-rule="evenodd" d="M742.3,743.8h10.6v10.6H742.3V743.8Z" class="gk_79"/>
<path fill-rule="evenodd" d="M742.3,754.4h10.6v10.7H742.3V754.4Z" class="gk_79"/>
<path fill-rule="evenodd" d="M742.3,765.1h10.6v10.7H742.3V765.1Z" class="gk_79"/>
<path fill-rule="evenodd" d="M742.3,775.8h10.6v10.7H742.3V775.8Z" class="gk_79"/>
<path fill-rule="evenodd" d="M742.3,786.5h10.6v10.7H742.3V786.5Z" class="gk_79"/>
<path fill-rule="evenodd" d="M742.3,797.2h10.6v10.6H742.3V797.2Z" class="g8_79"/>
<path d="M742.3,797.2h10.6v10.6H742.3V797.2Z" class="gj_79"/>
<path d="M752.9,733.1h10.7V722.4H752.9v10.7Z" class="g8_79"/>
<path d="M752.9,722.4h10.7v10.7H752.9V722.4Z" class="gj_79"/>
<path fill-rule="evenodd" d="M752.9,733.1h10.7v10.7H752.9V733.1Z" class="gk_79"/>
<path fill-rule="evenodd" d="M752.9,743.8h10.7v10.6H752.9V743.8Z" class="gk_79"/>
<path fill-rule="evenodd" d="M752.9,754.4h10.7v10.7H752.9V754.4Z" class="gk_79"/>
<path fill-rule="evenodd" d="M752.9,765.1h10.7v10.7H752.9V765.1Z" class="gk_79"/>
<path fill-rule="evenodd" d="M752.9,775.8h10.7v10.7H752.9V775.8Z" class="gk_79"/>
<path fill-rule="evenodd" d="M752.9,786.5h10.7v10.7H752.9V786.5Z" class="gk_79"/>
<path fill-rule="evenodd" d="M752.9,797.2h10.7v10.6H752.9V797.2Z" class="g8_79"/>
<path d="M752.9,797.2h10.7v10.6H752.9V797.2Z" class="gj_79"/>
<path d="M763.6,733.1h10.7V722.4H763.6v10.7Z" class="g8_79"/>
<path d="M763.6,722.4h10.7v10.7H763.6V722.4Z" class="gj_79"/>
<path fill-rule="evenodd" d="M763.6,733.1h10.7v10.7H763.6V733.1Z" class="gk_79"/>
<path fill-rule="evenodd" d="M763.6,743.8h10.7v10.6H763.6V743.8Z" class="gk_79"/>
<path fill-rule="evenodd" d="M763.6,754.4h10.7v10.7H763.6V754.4Z" class="gk_79"/>
<path fill-rule="evenodd" d="M763.6,765.1h10.7v10.7H763.6V765.1Z" class="gk_79"/>
<path fill-rule="evenodd" d="M763.6,775.8h10.7v10.7H763.6V775.8Z" class="gk_79"/>
<path fill-rule="evenodd" d="M763.6,786.5h10.7v10.7H763.6V786.5Z" class="gk_79"/>
<path fill-rule="evenodd" d="M763.6,797.2h10.7v10.6H763.6V797.2Z" class="g8_79"/>
<path d="M763.6,797.2h10.7v10.6H763.6V797.2Z" class="gj_79"/>
<path d="M774.3,733.1H785V722.4H774.3v10.7Z" class="g8_79"/>
<path d="M774.3,722.4H785v10.7H774.3V722.4Z" class="gj_79"/>
<path fill-rule="evenodd" d="M774.3,733.1H785v10.7H774.3V733.1Z" class="gk_79"/>
<path fill-rule="evenodd" d="M774.3,743.8H785v10.6H774.3V743.8Z" class="gk_79"/>
<path fill-rule="evenodd" d="M774.3,754.4H785v10.7H774.3V754.4Z" class="gk_79"/>
<path fill-rule="evenodd" d="M774.3,765.1H785v10.7H774.3V765.1Z" class="gk_79"/>
<path fill-rule="evenodd" d="M774.3,775.8H785v10.7H774.3V775.8Z" class="gk_79"/>
<path fill-rule="evenodd" d="M774.3,786.5H785v10.7H774.3V786.5Z" class="gk_79"/>
<path fill-rule="evenodd" d="M774.3,797.2H785v10.6H774.3V797.2Z" class="g8_79"/>
<path d="M774.3,797.2H785v10.6H774.3V797.2Z" class="gj_79"/>
<path d="M785,733.1h10.6V722.4H785v10.7Z" class="g8_79"/>
<path d="M785,722.4h10.6v10.7H785V722.4Z" class="gj_79"/>
<path fill-rule="evenodd" d="M785,733.1h10.6v10.7H785V733.1Z" class="gk_79"/>
<path fill-rule="evenodd" d="M785,743.8h10.6v10.6H785V743.8Z" class="gk_79"/>
<path fill-rule="evenodd" d="M785,754.4h10.6v10.7H785V754.4Z" class="gk_79"/>
<path fill-rule="evenodd" d="M785,765.1h10.6v10.7H785V765.1Z" class="gk_79"/>
<path fill-rule="evenodd" d="M785,775.8h10.6v10.7H785V775.8Z" class="gk_79"/>
<path fill-rule="evenodd" d="M785,786.5h10.6v10.7H785V786.5Z" class="gk_79"/>
<path d="M785,807.8h10.6V797.2H785v10.6Z" class="g8_79"/>
<path d="M785,797.2h10.6v10.6H785V797.2Z" class="gj_79"/>
<path d="M795.6,733.1h10.7V722.4H795.6v10.7Z" class="g8_79"/>
<path d="M795.6,722.4h10.7v10.7H795.6V722.4Z" class="gj_79"/>
<path d="M795.6,743.8h10.7V733.1H795.6v10.7Z" class="g8_79"/>
<path d="M795.6,733.1h10.7v10.7H795.6V733.1Z" class="gj_79"/>
<path d="M795.6,754.4h10.7V743.8H795.6v10.6Z" class="g8_79"/>
<path d="M795.6,743.8h10.7v10.6H795.6V743.8Z" class="gj_79"/>
<path d="M795.6,765.1h10.7V754.4H795.6v10.7Z" class="g8_79"/>
<path d="M795.6,754.4h10.7v10.7H795.6V754.4Z" class="gj_79"/>
<path d="M795.6,775.8h10.7V765.1H795.6v10.7Z" class="g8_79"/>
<path d="M795.6,765.1h10.7v10.7H795.6V765.1Z" class="gj_79"/>
<path d="M795.6,786.5h10.7V775.8H795.6v10.7Z" class="g8_79"/>
<path d="M795.6,775.8h10.7v10.7H795.6V775.8Z" class="gj_79"/>
<path d="M795.6,797.2h10.7V786.5H795.6v10.7Z" class="g8_79"/>
<path d="M795.6,786.5h10.7v10.7H795.6V786.5Z" class="gj_79"/>
<path d="M795.6,807.8h10.7V797.2H795.6v10.6Z" class="g8_79"/>
<path d="M795.6,797.2h10.7v10.6H795.6V797.2Z" class="gj_79"/>
<path fill-rule="evenodd" d="M727.9,803.3c-.4,.5,-.8,.9,-1.3,1.2c-.4,.2,-.9,.3,-1.4,.3c-.6,0,-1.1,-.1,-1.4,-.5c-.3,-.3,-.5,-.7,-.5,-1.3c0,-.7,.2,-1.3,.6,-1.9c.3,-.6,.8,-1.1,1.4,-1.5c.6,-.4,1.2,-.6,1.8,-.6c.4,0,.8,.1,1,.3c.2,.2,.4,.4,.4,.7c0,.2,-.1,.5,-.3,.6c-.1,.2,-.2,.3,-.4,.3c-.1,0,-.3,-.1,-.3,-.2c-.1,0,-.2,-.2,-.2,-.3q0,-.1,.1,-.2c0,-.1,.1,-.1,.2,-.2c.1,-.1,.1,-.2,.2,-.2q0,-.1,0,-.2c0,-.1,-.1,-.1,-.1,-.2c-.2,-.1,-.3,-.1,-.6,-.1c-.4,0,-.8,.1,-1.2,.4c-.4,.3,-.7,.7,-1,1.2c-.4,.7,-.5,1.3,-.5,2c0,.4,.1,.8,.3,1c.3,.3,.6,.4,1,.4c.4,0,.7,-.1,1,-.3c.3,-.1,.7,-.4,1.1,-.8Z" class="g4_79"/>
<path d="M727.9,803.3c-.4,.5,-.8,.9,-1.3,1.2c-.4,.2,-.9,.3,-1.4,.3c-.6,0,-1.1,-.1,-1.4,-.5c-.3,-.3,-.5,-.7,-.5,-1.3c0,-.7,.2,-1.3,.6,-1.9c.3,-.6,.8,-1.1,1.4,-1.5c.6,-.4,1.2,-.6,1.8,-.6c.4,0,.8,.1,1,.3c.2,.2,.4,.4,.4,.7c0,.2,-.1,.5,-.3,.6c-.1,.2,-.2,.3,-.4,.3c-.1,0,-.3,-.1,-.3,-.2c-.1,0,-.2,-.2,-.2,-.3q0,-.1,.1,-.2c0,-.1,.1,-.1,.2,-.2c.1,-.1,.1,-.2,.2,-.2q0,-.1,0,-.2c0,-.1,-.1,-.1,-.1,-.2c-.2,-.1,-.3,-.1,-.6,-.1c-.4,0,-.8,.1,-1.2,.4c-.4,.3,-.7,.7,-1,1.2c-.4,.7,-.5,1.3,-.5,2c0,.4,.1,.8,.3,1c.3,.3,.6,.4,1,.4c.4,0,.7,-.1,1,-.3c.3,-.1,.7,-.4,1.1,-.8l.1,.1Z" class="gh_79"/>
<path fill-rule="evenodd" d="M760,800.2c0,-.3,-.1,-.5,-.3,-.6c-.1,-.2,-.3,-.3,-.6,-.3c-.5,0,-1.1,.4,-1.6,1.3c-.6,.9,-.9,1.7,-.9,2.5c0,.3,.1,.6,.2,.8c.2,.1,.3,.2,.5,.2c.5,0,1,-.5,1.7,-1.4c.6,-1,1,-1.8,1,-2.5m2.3,-4.5l-2.2,7.5c-.1,.4,-.2,.6,-.2,.8c0,0,.1,0,.1,.1c0,0,.1,0,.1,0q.1,0,.2,0c.1,-.1,.4,-.4,.7,-.8l.2,.1c-.3,.5,-.6,.8,-.9,1.1c-.3,.2,-.6,.3,-.8,.3c-.2,0,-.3,0,-.4,-.1c-.1,-.1,-.1,-.2,-.1,-.4c0,-.3,0,-.6,.2,-1l.2,-.8c-.6,1,-1.2,1.6,-1.7,2c-.3,.2,-.6,.3,-1,.3c-.3,0,-.6,-.1,-.8,-.4c-.2,-.3,-.4,-.6,-.4,-1.1c0,-.7,.2,-1.3,.6,-2c.4,-.8,1,-1.3,1.6,-1.8c.5,-.3,1,-.5,1.5,-.5c.2,0,.4,0,.5,.1c.2,.1,.4,.3,.5,.5l.6,-2.2c.1,-.2,.1,-.3,.2,-.4c0,-.1,0,-.3,0,-.4c0,-.1,0,-.2,-.1,-.2c0,-.1,-.2,-.1,-.3,-.1c-.1,0,-.3,0,-.5,0v-.2Z" class="g4_79"/>
<path d="M760,800.2c0,-.3,-.1,-.5,-.3,-.6c-.1,-.2,-.3,-.3,-.6,-.3c-.5,0,-1.1,.4,-1.6,1.3c-.6,.9,-.9,1.7,-.9,2.5c0,.3,.1,.6,.2,.8c.2,.1,.3,.2,.5,.2c.5,0,1,-.5,1.7,-1.4c.6,-1,1,-1.8,1,-2.5Zm2.3,-4.5l-2.2,7.5c-.1,.4,-.2,.6,-.2,.8c0,0,.1,0,.1,.1c0,0,.1,0,.1,0q.1,0,.2,0c.1,-.1,.4,-.4,.7,-.8l.2,.1c-.3,.5,-.6,.8,-.9,1.1c-.3,.2,-.6,.3,-.8,.3c-.2,0,-.3,0,-.4,-.1c-.1,-.1,-.1,-.2,-.1,-.4c0,-.3,0,-.6,.2,-1l.2,-.8c-.6,1,-1.2,1.6,-1.7,2c-.3,.2,-.6,.3,-1,.3c-.3,0,-.6,-.1,-.8,-.4c-.2,-.3,-.4,-.6,-.4,-1.1c0,-.7,.2,-1.3,.6,-2c.4,-.8,1,-1.3,1.6,-1.8c.5,-.3,1,-.5,1.5,-.5c.2,0,.4,0,.5,.1c.2,.1,.4,.3,.5,.5l.6,-2.2c.1,-.2,.1,-.3,.2,-.4c0,-.1,0,-.3,0,-.4c0,-.1,0,-.2,-.1,-.2c0,-.1,-.2,-.1,-.3,-.1c-.1,0,-.3,0,-.5,0v-.2l2.2,-.4Z" class="gh_79"/>
<path d="M752.9,797.1V732.9M720.8,797V732.7" class="gl_79"/>
<path d="M550.3,852.6h10.6V842H550.3v10.6Z" class="g8_79"/>
<path d="M550.3,842h10.6v10.6H550.3V842Z" class="gf_79"/>
<path d="M550.3,863.2h10.6V852.6H550.3v10.6Z" class="g8_79"/>
<path d="M550.3,852.6h10.6v10.6H550.3V852.6Z" class="gf_79"/>
<path d="M550.3,873.9h10.6V863.2H550.3v10.7Z" class="g8_79"/>
<path d="M550.3,863.2h10.6v10.7H550.3V863.2Z" class="gf_79"/>
<path d="M550.3,884.5h10.6V873.9H550.3v10.6Z" class="g8_79"/>
<path d="M550.3,873.9h10.6v10.6H550.3V873.9Z" class="gf_79"/>
<path d="M550.3,895.1h10.6V884.5H550.3v10.6Z" class="g8_79"/>
<path d="M550.3,884.5h10.6v10.6H550.3V884.5Z" class="gf_79"/>
<path d="M550.3,905.8h10.6V895.1H550.3v10.7Z" class="g8_79"/>
<path d="M550.3,895.1h10.6v10.7H550.3V895.1Z" class="gf_79"/>
<path d="M550.3,916.4h10.6V905.8H550.3v10.6Z" class="g8_79"/>
<path d="M550.3,905.8h10.6v10.6H550.3V905.8Z" class="gf_79"/>
<path d="M550.3,927h10.6V916.4H550.3V927Z" class="g8_79"/>
<path d="M550.3,916.4h10.6V927H550.3V916.4Z" class="gf_79"/>
<path d="M560.9,852.6h10.6V842H560.9v10.6Z" class="g8_79"/>
<path d="M560.9,842h10.6v10.6H560.9V842Z" class="gf_79"/>
<path fill-rule="evenodd" d="M560.9,852.6h10.6v10.6H560.9V852.6Z" class="gg_79"/>
<path fill-rule="evenodd" d="M560.9,863.2h10.6v10.7H560.9V863.2Z" class="gg_79"/>
<path fill-rule="evenodd" d="M560.9,873.9h10.6v10.6H560.9V873.9Z" class="gg_79"/>
<path fill-rule="evenodd" d="M560.9,884.5h10.6v10.6H560.9V884.5Z" class="gg_79"/>
<path fill-rule="evenodd" d="M560.9,895.1h10.6v10.7H560.9V895.1Z" class="gg_79"/>
<path fill-rule="evenodd" d="M560.9,905.8h10.6v10.6H560.9V905.8Z" class="gg_79"/>
<path fill-rule="evenodd" d="M560.9,916.4h10.6V927H560.9V916.4Z" class="g8_79"/>
<path d="M560.9,916.4h10.6V927H560.9V916.4Z" class="gf_79"/>
<path d="M571.5,852.6h10.7V842H571.5v10.6Z" class="g8_79"/>
<path d="M571.5,842h10.7v10.6H571.5V842Z" class="gf_79"/>
<path fill-rule="evenodd" d="M571.5,852.6h10.7v10.6H571.5V852.6Z" class="gg_79"/>
<path fill-rule="evenodd" d="M571.5,863.2h10.7v10.7H571.5V863.2Z" class="gg_79"/>
<path fill-rule="evenodd" d="M571.5,873.9h10.7v10.6H571.5V873.9Z" class="gg_79"/>
<path fill-rule="evenodd" d="M571.5,884.5h10.7v10.6H571.5V884.5Z" class="gg_79"/>
<path fill-rule="evenodd" d="M571.5,895.1h10.7v10.7H571.5V895.1Z" class="gg_79"/>
<path fill-rule="evenodd" d="M571.5,905.8h10.7v10.6H571.5V905.8Z" class="gg_79"/>
<path fill-rule="evenodd" d="M571.5,916.4h10.7V927H571.5V916.4Z" class="g8_79"/>
<path d="M571.5,916.4h10.7V927H571.5V916.4Z" class="gf_79"/>
<path d="M582.2,852.6h10.6V842H582.2v10.6Z" class="g8_79"/>
<path d="M582.2,842h10.6v10.6H582.2V842Z" class="gf_79"/>
<path fill-rule="evenodd" d="M582.2,852.6h10.6v10.6H582.2V852.6Z" class="gg_79"/>
<path fill-rule="evenodd" d="M582.2,863.2h10.6v10.7H582.2V863.2Z" class="gg_79"/>
<path fill-rule="evenodd" d="M582.2,873.9h10.6v10.6H582.2V873.9Z" class="gg_79"/>
<path fill-rule="evenodd" d="M582.2,884.5h10.6v10.6H582.2V884.5Z" class="gg_79"/>
<path fill-rule="evenodd" d="M582.2,895.1h10.6v10.7H582.2V895.1Z" class="gg_79"/>
<path fill-rule="evenodd" d="M582.2,905.8h10.6v10.6H582.2V905.8Z" class="gg_79"/>
<path fill-rule="evenodd" d="M582.2,916.4h10.6V927H582.2V916.4Z" class="g8_79"/>
<path d="M582.2,916.4h10.6V927H582.2V916.4Z" class="gf_79"/>
<path d="M592.8,852.6h10.6V842H592.8v10.6Z" class="g8_79"/>
<path d="M592.8,842h10.6v10.6H592.8V842Z" class="gf_79"/>
<path fill-rule="evenodd" d="M592.8,852.6h10.6v10.6H592.8V852.6Z" class="gg_79"/>
<path fill-rule="evenodd" d="M592.8,863.2h10.6v10.7H592.8V863.2Z" class="gg_79"/>
<path fill-rule="evenodd" d="M592.8,873.9h10.6v10.6H592.8V873.9Z" class="gg_79"/>
<path fill-rule="evenodd" d="M592.8,884.5h10.6v10.6H592.8V884.5Z" class="gg_79"/>
<path fill-rule="evenodd" d="M592.8,895.1h10.6v10.7H592.8V895.1Z" class="gg_79"/>
<path fill-rule="evenodd" d="M592.8,905.8h10.6v10.6H592.8V905.8Z" class="gg_79"/>
<path fill-rule="evenodd" d="M592.8,916.4h10.6V927H592.8V916.4Z" class="g8_79"/>
<path d="M592.8,916.4h10.6V927H592.8V916.4Z" class="gf_79"/>
<path d="M603.4,852.6H614V842H603.4v10.6Z" class="g8_79"/>
<path d="M603.4,842H614v10.6H603.4V842Z" class="gf_79"/>
<path fill-rule="evenodd" d="M603.4,852.6H614v10.6H603.4V852.6Z" class="gg_79"/>
<path fill-rule="evenodd" d="M603.4,863.2H614v10.7H603.4V863.2Z" class="gg_79"/>
<path fill-rule="evenodd" d="M603.4,873.9H614v10.6H603.4V873.9Z" class="gg_79"/>
<path fill-rule="evenodd" d="M603.4,884.5H614v10.6H603.4V884.5Z" class="gg_79"/>
<path fill-rule="evenodd" d="M603.4,895.1H614v10.7H603.4V895.1Z" class="gg_79"/>
<path fill-rule="evenodd" d="M603.4,905.8H614v10.6H603.4V905.8Z" class="gg_79"/>
<path fill-rule="evenodd" d="M603.4,916.4H614V927H603.4V916.4Z" class="g8_79"/>
<path d="M603.4,916.4H614V927H603.4V916.4Z" class="gf_79"/>
<path d="M614,852.6h10.7V842H614v10.6Z" class="g8_79"/>
<path d="M614,842h10.7v10.6H614V842Z" class="gf_79"/>
<path fill-rule="evenodd" d="M614,852.6h10.7v10.6H614V852.6Z" class="gg_79"/>
<path fill-rule="evenodd" d="M614,863.2h10.7v10.7H614V863.2Z" class="gg_79"/>
<path fill-rule="evenodd" d="M614,873.9h10.7v10.6H614V873.9Z" class="gg_79"/>
<path fill-rule="evenodd" d="M614,884.5h10.7v10.6H614V884.5Z" class="gg_79"/>
<path fill-rule="evenodd" d="M614,895.1h10.7v10.7H614V895.1Z" class="gg_79"/>
<path fill-rule="evenodd" d="M614,905.8h10.7v10.6H614V905.8Z" class="gg_79"/>
<path fill-rule="evenodd" d="M614,916.4h10.7V927H614V916.4Z" class="g8_79"/>
<path d="M614,916.4h10.7V927H614V916.4Z" class="gf_79"/>
<path d="M624.7,852.6h10.6V842H624.7v10.6Z" class="g8_79"/>
<path d="M624.7,842h10.6v10.6H624.7V842Z" class="gf_79"/>
<path fill-rule="evenodd" d="M624.7,852.6h10.6v10.6H624.7V852.6Z" class="gg_79"/>
<path fill-rule="evenodd" d="M624.7,863.2h10.6v10.7H624.7V863.2Z" class="gg_79"/>
<path fill-rule="evenodd" d="M624.7,873.9h10.6v10.6H624.7V873.9Z" class="gg_79"/>
<path fill-rule="evenodd" d="M624.7,884.5h10.6v10.6H624.7V884.5Z" class="gg_79"/>
<path fill-rule="evenodd" d="M624.7,895.1h10.6v10.7H624.7V895.1Z" class="gg_79"/>
<path fill-rule="evenodd" d="M624.7,905.8h10.6v10.6H624.7V905.8Z" class="gg_79"/>
<path fill-rule="evenodd" d="M624.7,916.4h10.6V927H624.7V916.4Z" class="g8_79"/>
<path d="M624.7,916.4h10.6V927H624.7V916.4Z" class="gf_79"/>
<path d="M635.3,852.6h10.6V842H635.3v10.6Z" class="g8_79"/>
<path d="M635.3,842h10.6v10.6H635.3V842Z" class="gf_79"/>
<path fill-rule="evenodd" d="M635.3,852.6h10.6v10.6H635.3V852.6Z" class="gg_79"/>
<path fill-rule="evenodd" d="M635.3,863.2h10.6v10.7H635.3V863.2Z" class="gg_79"/>
<path fill-rule="evenodd" d="M635.3,873.9h10.6v10.6H635.3V873.9Z" class="gg_79"/>
<path fill-rule="evenodd" d="M635.3,884.5h10.6v10.6H635.3V884.5Z" class="gg_79"/>
<path fill-rule="evenodd" d="M635.3,895.1h10.6v10.7H635.3V895.1Z" class="gg_79"/>
<path fill-rule="evenodd" d="M635.3,905.8h10.6v10.6H635.3V905.8Z" class="gg_79"/>
<path fill-rule="evenodd" d="M635.3,916.4h10.6V927H635.3V916.4Z" class="g8_79"/>
<path d="M635.3,916.4h10.6V927H635.3V916.4Z" class="gf_79"/>
<path d="M645.9,852.6h10.7V842H645.9v10.6Z" class="g8_79"/>
<path d="M645.9,842h10.7v10.6H645.9V842Z" class="gf_79"/>
<path fill-rule="evenodd" d="M645.9,852.6h10.7v10.6H645.9V852.6Z" class="gg_79"/>
<path fill-rule="evenodd" d="M645.9,863.2h10.7v10.7H645.9V863.2Z" class="gg_79"/>
<path fill-rule="evenodd" d="M645.9,873.9h10.7v10.6H645.9V873.9Z" class="gg_79"/>
<path fill-rule="evenodd" d="M645.9,884.5h10.7v10.6H645.9V884.5Z" class="gg_79"/>
<path fill-rule="evenodd" d="M645.9,895.1h10.7v10.7H645.9V895.1Z" class="gg_79"/>
<path fill-rule="evenodd" d="M645.9,905.8h10.7v10.6H645.9V905.8Z" class="gg_79"/>
<path d="M645.9,927h10.7V916.4H645.9V927Z" class="g8_79"/>
<path d="M645.9,916.4h10.7V927H645.9V916.4Z" class="gf_79"/>
<path d="M656.6,852.6h10.6V842H656.6v10.6Z" class="g8_79"/>
<path d="M656.6,842h10.6v10.6H656.6V842Z" class="gf_79"/>
<path d="M656.6,863.2h10.6V852.6H656.6v10.6Z" class="g8_79"/>
<path d="M656.6,852.6h10.6v10.6H656.6V852.6Z" class="gf_79"/>
<path d="M656.6,873.9h10.6V863.2H656.6v10.7Z" class="g8_79"/>
<path d="M656.6,863.2h10.6v10.7H656.6V863.2Z" class="gf_79"/>
<path d="M656.6,884.5h10.6V873.9H656.6v10.6Z" class="g8_79"/>
<path d="M656.6,873.9h10.6v10.6H656.6V873.9Z" class="gf_79"/>
<path d="M656.6,895.1h10.6V884.5H656.6v10.6Z" class="g8_79"/>
<path d="M656.6,884.5h10.6v10.6H656.6V884.5Z" class="gf_79"/>
<path d="M656.6,905.8h10.6V895.1H656.6v10.7Z" class="g8_79"/>
<path d="M656.6,895.1h10.6v10.7H656.6V895.1Z" class="gf_79"/>
<path d="M656.6,916.4h10.6V905.8H656.6v10.6Z" class="g8_79"/>
<path d="M656.6,905.8h10.6v10.6H656.6V905.8Z" class="gf_79"/>
<path d="M656.6,927h10.6V916.4H656.6V927Z" class="g8_79"/>
<path d="M656.6,916.4h10.6V927H656.6V916.4Z" class="gf_79"/>
<path fill-rule="evenodd" d="M650.2,877.6l-.8,2.8c.4,-.7,.7,-1.2,.9,-1.5c.4,-.5,.8,-.9,1.2,-1.1c.2,-.2,.5,-.2,.7,-.2c.2,0,.4,0,.5,.2c.2,.1,.2,.3,.2,.5c0,.2,0,.5,-.1,.8l-.5,1.6c.7,-1.3,1.4,-2.2,2,-2.7c.3,-.3,.7,-.4,1,-.4c.2,0,.3,0,.5,.2c.1,.1,.1,.3,.1,.6c0,.2,0,.5,-.1,.7l-.7,2.5c-.1,.5,-.2,.8,-.2,.9c0,0,0,.1,.1,.1q0,.1,.1,.1c0,0,.1,-.1,.2,-.1c.2,-.2,.5,-.5,.7,-.8l.2,.2c-.1,.1,-.3,.4,-.6,.6c-.2,.3,-.5,.5,-.7,.6c-.2,.1,-.3,.2,-.5,.2c-.1,0,-.3,-.1,-.4,-.2c-.1,-.1,-.1,-.2,-.1,-.3c0,-.2,.1,-.6,.3,-1.2l.5,-2c.2,-.5,.2,-.8,.2,-.8c0,-.1,.1,-.2,.1,-.3c0,-.1,-.1,-.1,-.1,-.2q-.1,-.1,-.2,-.1c-.2,0,-.3,.1,-.5,.3c-.6,.5,-1.2,1.3,-1.7,2.2c-.3,.7,-.6,1.5,-.9,2.4h-.9l1,-3.7c.2,-.5,.2,-.7,.2,-.9c0,-.1,0,-.2,-.1,-.2c0,-.1,-.1,-.1,-.1,-.1c-.2,0,-.3,0,-.5,.1c-.2,.2,-.5,.6,-.9,1.1c-.4,.5,-.7,1,-1,1.5c-.1,.3,-.3,1,-.7,2.2h-.9l1.1,-4l.2,-.5c0,-.1,0,-.2,0,-.2c0,-.1,0,-.2,-.1,-.3c-.1,0,-.2,-.1,-.3,-.1c-.1,0,-.2,0,-.5,.1V878Z" class="g4_79"/>
<path d="M650.2,877.6l-.8,2.8c.4,-.7,.7,-1.2,.9,-1.5c.4,-.5,.8,-.9,1.2,-1.1c.2,-.2,.5,-.2,.7,-.2c.2,0,.4,0,.5,.2c.2,.1,.2,.3,.2,.5c0,.2,0,.5,-.1,.8l-.5,1.6c.7,-1.3,1.4,-2.2,2,-2.7c.3,-.3,.7,-.4,1,-.4c.2,0,.3,0,.5,.2c.1,.1,.1,.3,.1,.6c0,.2,0,.5,-.1,.7l-.7,2.5c-.1,.5,-.2,.8,-.2,.9c0,0,0,.1,.1,.1q0,.1,.1,.1c0,0,.1,-.1,.2,-.1c.2,-.2,.5,-.5,.7,-.8l.2,.2c-.1,.1,-.3,.4,-.6,.6c-.2,.3,-.5,.5,-.7,.6c-.2,.1,-.3,.2,-.5,.2c-.1,0,-.3,-.1,-.4,-.2c-.1,-.1,-.1,-.2,-.1,-.3c0,-.2,.1,-.6,.3,-1.2l.5,-2c.2,-.5,.2,-.8,.2,-.8c0,-.1,.1,-.2,.1,-.3c0,-.1,-.1,-.1,-.1,-.2q-.1,-.1,-.2,-.1c-.2,0,-.3,.1,-.5,.3c-.6,.5,-1.2,1.3,-1.7,2.2c-.3,.7,-.6,1.5,-.9,2.4h-.9l1,-3.7c.2,-.5,.2,-.7,.2,-.9c0,-.1,0,-.2,-.1,-.2c0,-.1,-.1,-.1,-.1,-.1c-.2,0,-.3,0,-.5,.1c-.2,.2,-.5,.6,-.9,1.1c-.4,.5,-.7,1,-1,1.5c-.1,.3,-.3,1,-.7,2.2h-.9l1.1,-4l.2,-.5c0,-.1,0,-.2,0,-.2c0,-.1,0,-.2,-.1,-.3c-.1,0,-.2,-.1,-.3,-.1c-.1,0,-.2,0,-.5,.1V878l2.1,-.4Z" class="gh_79"/>
<path fill-rule="evenodd" d="M650.5,899l-.9,2.9c.8,-1.2,1.4,-2,1.8,-2.3c.5,-.4,.9,-.6,1.3,-.6c.2,0,.3,.1,.5,.2c.1,.2,.2,.3,.2,.6c0,.2,-.1,.6,-.2,1l-.8,2.6c-.1,.3,-.1,.5,-.1,.6c0,0,0,.1,0,.1q.1,.1,.1,.1c.1,0,.2,0,.2,-.1c.3,-.2,.5,-.4,.8,-.8l.2,.1c-.4,.6,-.8,1,-1.2,1.2c-.2,.2,-.4,.3,-.6,.3c-.2,0,-.3,-.1,-.4,-.2c-.1,-.1,-.1,-.2,-.1,-.4c0,-.2,.1,-.5,.2,-1l.7,-2.5c.1,-.3,.2,-.6,.2,-.8c0,0,-.1,-.1,-.1,-.2q-.1,0,-.2,0c-.1,0,-.3,0,-.4,.1c-.3,.2,-.7,.5,-1,.9c-.3,.5,-.7,1,-1.1,1.7c-.2,.4,-.3,.7,-.5,1.2l-.3,1h-.9l1.1,-3.9c.2,-.5,.2,-.8,.2,-.9c0,-.1,0,-.2,-.1,-.2c0,-.1,-.1,-.1,-.2,-.1c-.1,0,-.2,0,-.3,0h-.3v-.2Z" class="g4_79"/>
<path d="M650.5,899l-.9,2.9c.8,-1.2,1.4,-2,1.8,-2.3c.5,-.4,.9,-.6,1.3,-.6c.2,0,.3,.1,.5,.2c.1,.2,.2,.3,.2,.6c0,.2,-.1,.6,-.2,1l-.8,2.6c-.1,.3,-.1,.5,-.1,.6c0,0,0,.1,0,.1q.1,.1,.1,.1c.1,0,.2,0,.2,-.1c.3,-.2,.5,-.4,.8,-.8l.2,.1c-.4,.6,-.8,1,-1.2,1.2c-.2,.2,-.4,.3,-.6,.3c-.2,0,-.3,-.1,-.4,-.2c-.1,-.1,-.1,-.2,-.1,-.4c0,-.2,.1,-.5,.2,-1l.7,-2.5c.1,-.3,.2,-.6,.2,-.8c0,0,-.1,-.1,-.1,-.2q-.1,0,-.2,0c-.1,0,-.3,0,-.4,.1c-.3,.2,-.7,.5,-1,.9c-.3,.5,-.7,1,-1.1,1.7c-.2,.4,-.3,.7,-.5,1.2l-.3,1h-.9l1.1,-3.9c.2,-.5,.2,-.8,.2,-.9c0,-.1,0,-.2,-.1,-.2c0,-.1,-.1,-.1,-.2,-.1c-.1,0,-.2,0,-.3,0h-.3v-.2l2.2,-.4Z" class="gh_79"/>
<path d="M561.5,895.4h94.2M561.3,874h94.3" class="gi_79"/>
<path d="M690.9,852.6h10.7V842H690.9v10.6Z" class="g8_79"/>
<path d="M690.9,842h10.7v10.6H690.9V842Z" class="gf_79"/>
<path d="M690.9,863.2h10.7V852.6H690.9v10.6Z" class="g8_79"/>
<path d="M690.9,852.6h10.7v10.6H690.9V852.6Z" class="gf_79"/>
<path d="M690.9,873.9h10.7V863.2H690.9v10.7Z" class="g8_79"/>
<path d="M690.9,863.2h10.7v10.7H690.9V863.2Z" class="gf_79"/>
<path d="M690.9,884.5h10.7V873.9H690.9v10.6Z" class="g8_79"/>
<path d="M690.9,873.9h10.7v10.6H690.9V873.9Z" class="gf_79"/>
<path d="M690.9,895.1h10.7V884.5H690.9v10.6Z" class="g8_79"/>
<path d="M690.9,884.5h10.7v10.6H690.9V884.5Z" class="gf_79"/>
<path d="M690.9,905.8h10.7V895.1H690.9v10.7Z" class="g8_79"/>
<path d="M690.9,895.1h10.7v10.7H690.9V895.1Z" class="gf_79"/>
<path d="M690.9,916.4h10.7V905.8H690.9v10.6Z" class="g8_79"/>
<path d="M690.9,905.8h10.7v10.6H690.9V905.8Z" class="gf_79"/>
<path d="M690.9,927h10.7V916.4H690.9V927Z" class="g8_79"/>
<path d="M690.9,916.4h10.7V927H690.9V916.4Z" class="gf_79"/>
<path d="M701.6,852.6h10.6V842H701.6v10.6Z" class="g8_79"/>
<path d="M701.6,842h10.6v10.6H701.6V842Z" class="gf_79"/>
<path fill-rule="evenodd" d="M701.6,852.6h10.6v10.6H701.6V852.6Z" class="gg_79"/>
<path fill-rule="evenodd" d="M701.6,863.2h10.6v10.7H701.6V863.2Z" class="gg_79"/>
<path fill-rule="evenodd" d="M701.6,873.9h10.6v10.6H701.6V873.9Z" class="gg_79"/>
<path fill-rule="evenodd" d="M701.6,884.5h10.6v10.6H701.6V884.5Z" class="gg_79"/>
<path fill-rule="evenodd" d="M701.6,895.1h10.6v10.7H701.6V895.1Z" class="gg_79"/>
<path fill-rule="evenodd" d="M701.6,905.8h10.6v10.6H701.6V905.8Z" class="gg_79"/>
<path fill-rule="evenodd" d="M701.6,916.4h10.6V927H701.6V916.4Z" class="g8_79"/>
<path d="M701.6,916.4h10.6V927H701.6V916.4Z" class="gf_79"/>
<path d="M712.2,852.6h10.6V842H712.2v10.6Z" class="g8_79"/>
<path d="M712.2,842h10.6v10.6H712.2V842Z" class="gf_79"/>
<path fill-rule="evenodd" d="M712.2,852.6h10.6v10.6H712.2V852.6Z" class="gg_79"/>
<path fill-rule="evenodd" d="M712.2,863.2h10.6v10.7H712.2V863.2Z" class="gg_79"/>
<path fill-rule="evenodd" d="M712.2,873.9h10.6v10.6H712.2V873.9Z" class="gg_79"/>
<path fill-rule="evenodd" d="M712.2,884.5h10.6v10.6H712.2V884.5Z" class="gg_79"/>
<path fill-rule="evenodd" d="M712.2,895.1h10.6v10.7H712.2V895.1Z" class="gg_79"/>
<path fill-rule="evenodd" d="M712.2,905.8h10.6v10.6H712.2V905.8Z" class="gg_79"/>
<path fill-rule="evenodd" d="M712.2,916.4h10.6V927H712.2V916.4Z" class="g8_79"/>
<path d="M712.2,916.4h10.6V927H712.2V916.4Z" class="gf_79"/>
<path d="M722.8,852.6h10.7V842H722.8v10.6Z" class="g8_79"/>
<path d="M722.8,842h10.7v10.6H722.8V842Z" class="gf_79"/>
<path fill-rule="evenodd" d="M722.8,852.6h10.7v10.6H722.8V852.6Z" class="gg_79"/>
<path fill-rule="evenodd" d="M722.8,863.2h10.7v10.7H722.8V863.2Z" class="gg_79"/>
<path fill-rule="evenodd" d="M722.8,873.9h10.7v10.6H722.8V873.9Z" class="gg_79"/>
<path fill-rule="evenodd" d="M722.8,884.5h10.7v10.6H722.8V884.5Z" class="gg_79"/>
<path fill-rule="evenodd" d="M722.8,895.1h10.7v10.7H722.8V895.1Z" class="gg_79"/>
<path fill-rule="evenodd" d="M722.8,905.8h10.7v10.6H722.8V905.8Z" class="gg_79"/>
<path fill-rule="evenodd" d="M722.8,916.4h10.7V927H722.8V916.4Z" class="g8_79"/>
<path d="M722.8,916.4h10.7V927H722.8V916.4Z" class="gf_79"/>
<path d="M733.5,852.6h10.6V842H733.5v10.6Z" class="g8_79"/>
<path d="M733.5,842h10.6v10.6H733.5V842Z" class="gf_79"/>
<path fill-rule="evenodd" d="M733.5,852.6h10.6v10.6H733.5V852.6Z" class="gg_79"/>
<path fill-rule="evenodd" d="M733.5,863.2h10.6v10.7H733.5V863.2Z" class="gg_79"/>
<path fill-rule="evenodd" d="M733.5,873.9h10.6v10.6H733.5V873.9Z" class="gg_79"/>
<path fill-rule="evenodd" d="M733.5,884.5h10.6v10.6H733.5V884.5Z" class="gg_79"/>
<path fill-rule="evenodd" d="M733.5,895.1h10.6v10.7H733.5V895.1Z" class="gg_79"/>
<path fill-rule="evenodd" d="M733.5,905.8h10.6v10.6H733.5V905.8Z" class="gg_79"/>
<path fill-rule="evenodd" d="M733.5,916.4h10.6V927H733.5V916.4Z" class="g8_79"/>
<path d="M733.5,916.4h10.6V927H733.5V916.4Z" class="gf_79"/>
<path d="M744.1,852.6h10.6V842H744.1v10.6Z" class="g8_79"/>
<path d="M744.1,842h10.6v10.6H744.1V842Z" class="gf_79"/>
<path fill-rule="evenodd" d="M744.1,852.6h10.6v10.6H744.1V852.6Z" class="gg_79"/>
<path fill-rule="evenodd" d="M744.1,863.2h10.6v10.7H744.1V863.2Z" class="gg_79"/>
<path fill-rule="evenodd" d="M744.1,873.9h10.6v10.6H744.1V873.9Z" class="gg_79"/>
<path fill-rule="evenodd" d="M744.1,884.5h10.6v10.6H744.1V884.5Z" class="gg_79"/>
<path fill-rule="evenodd" d="M744.1,895.1h10.6v10.7H744.1V895.1Z" class="gg_79"/>
<path fill-rule="evenodd" d="M744.1,905.8h10.6v10.6H744.1V905.8Z" class="gg_79"/>
<path fill-rule="evenodd" d="M744.1,916.4h10.6V927H744.1V916.4Z" class="g8_79"/>
<path d="M744.1,916.4h10.6V927H744.1V916.4Z" class="gf_79"/>
<path d="M754.7,852.6h10.6V842H754.7v10.6Z" class="g8_79"/>
<path d="M754.7,842h10.6v10.6H754.7V842Z" class="gf_79"/>
<path fill-rule="evenodd" d="M754.7,852.6h10.6v10.6H754.7V852.6Z" class="gg_79"/>
<path fill-rule="evenodd" d="M754.7,863.2h10.6v10.7H754.7V863.2Z" class="gg_79"/>
<path fill-rule="evenodd" d="M754.7,873.9h10.6v10.6H754.7V873.9Z" class="gg_79"/>
<path fill-rule="evenodd" d="M754.7,884.5h10.6v10.6H754.7V884.5Z" class="gg_79"/>
<path fill-rule="evenodd" d="M754.7,895.1h10.6v10.7H754.7V895.1Z" class="gg_79"/>
<path fill-rule="evenodd" d="M754.7,905.8h10.6v10.6H754.7V905.8Z" class="gg_79"/>
<path fill-rule="evenodd" d="M754.7,916.4h10.6V927H754.7V916.4Z" class="g8_79"/>
<path d="M754.7,916.4h10.6V927H754.7V916.4Z" class="gf_79"/>
<path d="M765.3,852.6H776V842H765.3v10.6Z" class="g8_79"/>
<path d="M765.3,842H776v10.6H765.3V842Z" class="gf_79"/>
<path fill-rule="evenodd" d="M765.3,852.6H776v10.6H765.3V852.6Z" class="gg_79"/>
<path fill-rule="evenodd" d="M765.3,863.2H776v10.7H765.3V863.2Z" class="gg_79"/>
<path fill-rule="evenodd" d="M765.3,873.9H776v10.6H765.3V873.9Z" class="gg_79"/>
<path fill-rule="evenodd" d="M765.3,884.5H776v10.6H765.3V884.5Z" class="gg_79"/>
<path fill-rule="evenodd" d="M765.3,895.1H776v10.7H765.3V895.1Z" class="gg_79"/>
<path fill-rule="evenodd" d="M765.3,905.8H776v10.6H765.3V905.8Z" class="gg_79"/>
<path fill-rule="evenodd" d="M765.3,916.4H776V927H765.3V916.4Z" class="g8_79"/>
<path d="M765.3,916.4H776V927H765.3V916.4Z" class="gf_79"/>
<path d="M776,852.6h10.6V842H776v10.6Z" class="g8_79"/>
<path d="M776,842h10.6v10.6H776V842Z" class="gf_79"/>
<path fill-rule="evenodd" d="M776,852.6h10.6v10.6H776V852.6Z" class="gg_79"/>
<path fill-rule="evenodd" d="M776,863.2h10.6v10.7H776V863.2Z" class="gg_79"/>
<path fill-rule="evenodd" d="M776,873.9h10.6v10.6H776V873.9Z" class="gg_79"/>
<path fill-rule="evenodd" d="M776,884.5h10.6v10.6H776V884.5Z" class="gg_79"/>
<path fill-rule="evenodd" d="M776,895.1h10.6v10.7H776V895.1Z" class="gg_79"/>
<path fill-rule="evenodd" d="M776,905.8h10.6v10.6H776V905.8Z" class="gg_79"/>
<path fill-rule="evenodd" d="M776,916.4h10.6V927H776V916.4Z" class="g8_79"/>
<path d="M776,916.4h10.6V927H776V916.4Z" class="gf_79"/>
<path d="M786.6,852.6h10.6V842H786.6v10.6Z" class="g8_79"/>
<path d="M786.6,842h10.6v10.6H786.6V842Z" class="gf_79"/>
<path fill-rule="evenodd" d="M786.6,852.6h10.6v10.6H786.6V852.6Z" class="gg_79"/>
<path fill-rule="evenodd" d="M786.6,863.2h10.6v10.7H786.6V863.2Z" class="gg_79"/>
<path fill-rule="evenodd" d="M786.6,873.9h10.6v10.6H786.6V873.9Z" class="gg_79"/>
<path fill-rule="evenodd" d="M786.6,884.5h10.6v10.6H786.6V884.5Z" class="gg_79"/>
<path fill-rule="evenodd" d="M786.6,895.1h10.6v10.7H786.6V895.1Z" class="gg_79"/>
<path fill-rule="evenodd" d="M786.6,905.8h10.6v10.6H786.6V905.8Z" class="gg_79"/>
<path d="M786.6,927h10.6V916.4H786.6V927Z" class="g8_79"/>
<path d="M786.6,916.4h10.6V927H786.6V916.4Z" class="gf_79"/>
<path d="M797.2,852.6h10.6V842H797.2v10.6Z" class="g8_79"/>
<path d="M797.2,842h10.6v10.6H797.2V842Z" class="gf_79"/>
<path d="M797.2,863.2h10.6V852.6H797.2v10.6Z" class="g8_79"/>
<path d="M797.2,852.6h10.6v10.6H797.2V852.6Z" class="gf_79"/>
<path d="M797.2,873.9h10.6V863.2H797.2v10.7Z" class="g8_79"/>
<path d="M797.2,863.2h10.6v10.7H797.2V863.2Z" class="gf_79"/>
<path d="M797.2,884.5h10.6V873.9H797.2v10.6Z" class="g8_79"/>
<path d="M797.2,873.9h10.6v10.6H797.2V873.9Z" class="gf_79"/>
<path d="M797.2,895.1h10.6V884.5H797.2v10.6Z" class="g8_79"/>
<path d="M797.2,884.5h10.6v10.6H797.2V884.5Z" class="gf_79"/>
<path d="M797.2,905.8h10.6V895.1H797.2v10.7Z" class="g8_79"/>
<path d="M797.2,895.1h10.6v10.7H797.2V895.1Z" class="gf_79"/>
<path d="M797.2,916.4h10.6V905.8H797.2v10.6Z" class="g8_79"/>
<path d="M797.2,905.8h10.6v10.6H797.2V905.8Z" class="gf_79"/>
<path d="M797.2,927h10.6V916.4H797.2V927Z" class="g8_79"/>
<path d="M797.2,916.4h10.6V927H797.2V916.4Z" class="gf_79"/>
<path fill-rule="evenodd" d="M718.4,912.7c.2,.3,.6,.5,1,.5c.2,0,.4,-.1,.7,-.2c.2,-.1,.4,-.3,.6,-.6c.2,-.2,.4,-.5,.6,-.8c.2,-.3,.3,-.7,.5,-1.1c.1,-.4,.2,-.8,.2,-1.2c0,-.4,-.1,-.6,-.3,-.8c-.1,-.2,-.3,-.3,-.5,-.3c-.4,0,-.9,.3,-1.3,.8c-.5,.5,-.8,1.1,-1,1.8Zm1.4,-5l-.4,1.4c.4,-.5,.8,-.9,1.2,-1.1c.4,-.2,.7,-.3,1.1,-.3c.4,0,.7,.1,1,.4c.2,.3,.4,.7,.4,1.2c0,.9,-.4,1.8,-1.2,2.8c-.7,.9,-1.6,1.4,-2.6,1.4c-.2,0,-.4,0,-.5,-.1c-.2,0,-.4,-.1,-.6,-.2l-.4,1.6c-.1,.3,-.2,.5,-.2,.6c0,.1,0,.2,.1,.3c0,0,.1,.1,.2,.1c.1,.1,.3,.1,.7,.1l-.1,.2h-2.9v-.2c.4,0,.7,-.1,.8,-.2c.1,-.1,.3,-.5,.4,-1l1.6,-5.5c.1,-.3,.2,-.6,.2,-.6c0,-.2,-.1,-.2,-.1,-.3c-.1,-.1,-.2,-.1,-.3,-.1c-.1,0,-.3,0,-.5,0V908Z" class="g4_79"/>
<path d="M718.4,912.7c.2,.3,.6,.5,1,.5c.2,0,.4,-.1,.7,-.2c.2,-.1,.4,-.3,.6,-.6c.2,-.2,.4,-.5,.6,-.8c.2,-.3,.3,-.7,.5,-1.1c.1,-.4,.2,-.8,.2,-1.2c0,-.4,-.1,-.6,-.3,-.8c-.1,-.2,-.3,-.3,-.5,-.3c-.4,0,-.9,.3,-1.3,.8c-.5,.5,-.8,1.1,-1,1.8l-.5,1.9Zm1.4,-5l-.4,1.4c.4,-.5,.8,-.9,1.2,-1.1c.4,-.2,.7,-.3,1.1,-.3c.4,0,.7,.1,1,.4c.2,.3,.4,.7,.4,1.2c0,.9,-.4,1.8,-1.2,2.8c-.7,.9,-1.6,1.4,-2.6,1.4c-.2,0,-.4,0,-.5,-.1c-.2,0,-.4,-.1,-.6,-.2l-.4,1.6c-.1,.3,-.2,.5,-.2,.6c0,.1,0,.2,.1,.3c0,0,.1,.1,.2,.1c.1,.1,.3,.1,.7,.1l-.1,.2h-2.9v-.2c.4,0,.7,-.1,.8,-.2c.1,-.1,.3,-.5,.4,-1l1.6,-5.5c.1,-.3,.2,-.6,.2,-.6c0,-.2,-.1,-.2,-.1,-.3c-.1,-.1,-.2,-.1,-.3,-.1c-.1,0,-.3,0,-.5,0V908l2.1,-.3Z" class="gh_79"/>
<path fill-rule="evenodd" d="M774.5,908.9c0,-.3,0,-.5,-.2,-.7c-.2,-.1,-.4,-.2,-.6,-.2c-.5,0,-1.1,.4,-1.6,1.3c-.6,.9,-.9,1.7,-.9,2.5c0,.3,.1,.5,.2,.7c.2,.2,.3,.2,.5,.2c.3,0,.6,-.1,.9,-.4c.5,-.4,.9,-1,1.2,-1.6c.4,-.7,.5,-1.3,.5,-1.8m1.5,-1.2l-2.1,7.1c-.1,.3,-.1,.5,-.1,.6c0,.1,0,.2,0,.2c.1,.1,.2,.2,.2,.2c.2,.1,.3,.1,.6,.1l-.1,.2h-3v-.2c.5,-.1,.7,-.1,.8,-.1c.2,-.1,.3,-.2,.4,-.3c.1,-.2,.2,-.5,.3,-.9l.9,-3.1c-.5,.8,-1.1,1.3,-1.5,1.7c-.4,.2,-.7,.3,-1,.3c-.4,0,-.7,-.2,-.9,-.5c-.2,-.3,-.3,-.7,-.3,-1.1c0,-.6,.1,-1.3,.5,-2c.4,-.7,.9,-1.3,1.6,-1.7c.5,-.3,.9,-.5,1.3,-.5c.3,0,.6,0,.8,.2c.1,.1,.3,.4,.4,.7l.2,-.7Z" class="g4_79"/>
<path d="M774.5,908.9c0,-.3,0,-.5,-.2,-.7c-.2,-.1,-.4,-.2,-.6,-.2c-.5,0,-1.1,.4,-1.6,1.3c-.6,.9,-.9,1.7,-.9,2.5c0,.3,.1,.5,.2,.7c.2,.2,.3,.2,.5,.2c.3,0,.6,-.1,.9,-.4c.5,-.4,.9,-1,1.2,-1.6c.4,-.7,.5,-1.3,.5,-1.8Zm1.5,-1.2l-2.1,7.1c-.1,.3,-.1,.5,-.1,.6c0,.1,0,.2,0,.2c.1,.1,.2,.2,.2,.2c.2,.1,.3,.1,.6,.1l-.1,.2h-3v-.2c.5,-.1,.7,-.1,.8,-.1c.2,-.1,.3,-.2,.4,-.3c.1,-.2,.2,-.5,.3,-.9l.9,-3.1c-.5,.8,-1.1,1.3,-1.5,1.7c-.4,.2,-.7,.3,-1,.3c-.4,0,-.7,-.2,-.9,-.5c-.2,-.3,-.3,-.7,-.3,-1.1c0,-.6,.1,-1.3,.5,-2c.4,-.7,.9,-1.3,1.6,-1.7c.5,-.3,.9,-.5,1.3,-.5c.3,0,.6,0,.8,.2c.1,.1,.3,.4,.4,.7l.2,-.7l1,-.2Z" class="gh_79"/>
<path d="M765.2,912.2v-60m-53.1,60.5v-60" class="gi_79"/>
<path d="M135.8,101.1h39.7V63.6H135.8v37.5Z" class="gm_79"/>
<path d="M350.5,851.5h14v-14h-14v14Z" class="g8_79"/>
<path d="M350.5,837.5h14v14h-14v-14Z" class="gn_79"/>
<path d="M350.5,865.5h14v-14h-14v14Z" class="g8_79"/>
<path d="M350.5,851.5h14v14h-14v-14Z" class="gn_79"/>
<path d="M350.5,879.5h14v-14h-14v14Z" class="g8_79"/>
<path d="M350.5,865.5h14v14h-14v-14Z" class="gn_79"/>
<path d="M350.5,893.5h14v-14h-14v14Z" class="g8_79"/>
<path d="M350.5,879.5h14v14h-14v-14Z" class="gn_79"/>
<path d="M350.5,907.6h14V893.5h-14v14.1Z" class="g8_79"/>
<path d="M350.5,893.5h14v14.1h-14V893.5Z" class="gn_79"/>
<path d="M350.5,921.6h14v-14h-14v14Z" class="g8_79"/>
<path d="M350.5,907.6h14v14h-14v-14Z" class="gn_79"/>
<path d="M364.5,851.5h14v-14h-14v14Z" class="g8_79"/>
<path d="M364.5,837.5h14v14h-14v-14Z" class="gn_79"/>
<path fill-rule="evenodd" d="M364.5,851.5h14v14h-14v-14Z" class="go_79"/>
<path fill-rule="evenodd" d="M364.5,865.5h14v14h-14v-14Z" class="go_79"/>
<path fill-rule="evenodd" d="M364.5,879.5h14v14h-14v-14Z" class="go_79"/>
<path fill-rule="evenodd" d="M364.5,893.5h14v14.1h-14V893.5Z" class="go_79"/>
<path d="M364.5,921.6h14v-14h-14v14Z" class="g8_79"/>
<path d="M364.5,907.6h14v14h-14v-14Z" class="gn_79"/>
<path d="M378.5,851.5h14v-14h-14v14Z" class="g8_79"/>
<path d="M378.5,837.5h14v14h-14v-14Z" class="gn_79"/>
<path fill-rule="evenodd" d="M378.5,851.5h14v14h-14v-14Z" class="go_79"/>
<path fill-rule="evenodd" d="M378.5,865.5h14v14h-14v-14Z" class="go_79"/>
<path fill-rule="evenodd" d="M378.5,879.5h14v14h-14v-14Z" class="go_79"/>
<path fill-rule="evenodd" d="M378.5,893.5h14v14.1h-14V893.5Z" class="go_79"/>
<path d="M378.5,921.6h14v-14h-14v14Z" class="g8_79"/>
<path d="M378.5,907.6h14v14h-14v-14Z" class="gn_79"/>
<path d="M392.5,851.5h14.1v-14H392.5v14Z" class="g8_79"/>
<path d="M392.5,837.5h14.1v14H392.5v-14Z" class="gn_79"/>
<path fill-rule="evenodd" d="M392.5,851.5h14.1v14H392.5v-14Z" class="go_79"/>
<path fill-rule="evenodd" d="M392.5,865.5h14.1v14H392.5v-14Z" class="go_79"/>
<path fill-rule="evenodd" d="M392.5,879.5h14.1v14H392.5v-14Z" class="go_79"/>
<path fill-rule="evenodd" d="M392.5,893.5h14.1v14.1H392.5V893.5Z" class="go_79"/>
<path d="M392.5,921.6h14.1v-14H392.5v14Z" class="g8_79"/>
<path d="M392.5,907.6h14.1v14H392.5v-14Z" class="gn_79"/>
<path d="M406.6,851.5h14v-14h-14v14Z" class="g8_79"/>
<path d="M406.6,837.5h14v14h-14v-14Z" class="gn_79"/>
<path fill-rule="evenodd" d="M406.6,851.5h14v14h-14v-14Z" class="go_79"/>
<path fill-rule="evenodd" d="M406.6,865.5h14v14h-14v-14Z" class="go_79"/>
<path fill-rule="evenodd" d="M406.6,879.5h14v14h-14v-14Z" class="go_79"/>
<path fill-rule="evenodd" d="M406.6,893.5h14v14.1h-14V893.5Z" class="go_79"/>
<path d="M406.6,921.6h14v-14h-14v14Z" class="g8_79"/>
<path d="M406.6,907.6h14v14h-14v-14Z" class="gn_79"/>
<path d="M420.6,851.5h14v-14h-14v14Z" class="g8_79"/>
<path d="M420.6,837.5h14v14h-14v-14Z" class="gn_79"/>
<path d="M420.6,865.5h14v-14h-14v14Z" class="g8_79"/>
<path d="M420.6,851.5h14v14h-14v-14Z" class="gn_79"/>
<path d="M420.6,879.5h14v-14h-14v14Z" class="g8_79"/>
<path d="M420.6,865.5h14v14h-14v-14Z" class="gn_79"/>
<path d="M420.6,893.5h14v-14h-14v14Z" class="g8_79"/>
<path d="M420.6,879.5h14v14h-14v-14Z" class="gn_79"/>
<path d="M420.6,907.6h14V893.5h-14v14.1Z" class="g8_79"/>
<path d="M420.6,893.5h14v14.1h-14V893.5Z" class="gn_79"/>
<path d="M420.6,921.6h14v-14h-14v14Z" class="g8_79"/>
<path d="M420.6,907.6h14v14h-14v-14Z" class="gn_79"/>
<path d="M364.6,848.6v63.9m27.2,-63l28.3,62.3" class="gp_79"/>
<path d="M184.8,273.9h651V206.8h-651v67.1Z" class="g5_79"/>
<path d="M135.8,244.5h39.7V207H135.8v37.5Z" class="gq_79"/>
</svg>