<?xml version="1.0" encoding="UTF-8" standalone="no"?>
<!DOCTYPE svg PUBLIC "-//W3C//DTD SVG 1.1//EN"
"http://www.w3.org/Graphics/SVG/1.1/DTD/svg11.dtd">
<svg viewBox="0 0 909 1147" version="1.1" xmlns="http://www.w3.org/2000/svg" xmlns:xlink="http://www.w3.org/1999/xlink">
<defs>
<clipPath id="c0_113"><path d="M187.9,175.1V125.3h94v49.8Z"/></clipPath>
<clipPath id="c1_113"><path d="M303.7,179.9V120.4H372v59.5Z"/></clipPath>
<clipPath id="c2_113"><path d="M751.6,172.2V96.6h63.5v75.6Z"/></clipPath>
<clipPath id="c3_113"><path d="M514.9,169.5V125.8H609v43.7Z"/></clipPath>
<clipPath id="c4_113"><path d="M412.3,171.3V117.2h83.2v54.1Z"/></clipPath>
<clipPath id="c5_113"><path d="M626.4,168.3V124.8h93.4v43.5Z"/></clipPath>
<clipPath id="c6_113"><path d="M184.9,481.3V350.5H389.7V481.3Z"/></clipPath>
<style type="text/css"><![CDATA[
.g0_113{
fill: #E7A9A1;
}
.g1_113{
fill: none;
stroke: #0EA5DF;
stroke-width: 3.055;
}
.g2_113{
fill: #E8F1FA;
}
.g3_113{
fill: none;
stroke: #000;
stroke-width: 1.222;
stroke-miterlimit: 2;
}
.g4_113{
fill: none;
stroke: #000;
stroke-width: 1.222;
stroke-miterlimit: 2;
stroke-dasharray: 7,4;
}
.g5_113{
fill: #000;
}
.g6_113{
fill: none;
stroke: #2E3092;
stroke-width: 0.763;
}
.g7_113{
fill: #C7EAFB;
}
.g8_113{
fill: #E0DEEF;
}
.g9_113{
fill: #E1F4FD;
}
.ga_113{
fill: none;
stroke: #000;
stroke-width: 1.02;
stroke-miterlimit: 2;
}
.gb_113{
fill: none;
stroke: #EC008C;
stroke-width: 1.459;
stroke-miterlimit: 2;
}
.gc_113{
fill: none;
stroke: #000;
stroke-width: 1.02;
stroke-miterlimit: 2;
stroke-dasharray: 6,4;
}
.gd_113{
fill: none;
stroke: #000;
stroke-width: 0.988;
stroke-linejoin: round;
}
.ge_113{
fill: none;
stroke: #000;
stroke-width: 0.988;
stroke-linejoin: round;
stroke-dasharray: 5,1;
}
.gf_113{
fill: #FFF1E0;
}
.gg_113{
fill: #0EA5DF;
}
.gh_113{
fill: #FFF;
}
.gi_113{
fill: none;
stroke: #000;
stroke-width: 1.527;
stroke-miterlimit: 2;
}
.gj_113{
fill: none;
stroke: #000;
stroke-width: 1.069;
stroke-miterlimit: 2;
}
.gk_113{
fill: none;
stroke: #000;
stroke-width: 1.069;
stroke-miterlimit: 2;
stroke-dasharray: 6,4;
}
]]></style>
</defs>
<path d="M835.8,1131h73.6v-51.5H835.8V1131Z" class="g0_113"/>
<image clip-path="url(#c0_113)" preserveAspectRatio="none" x="182" y="78" width="453" height="211" xlink:href="img/p1.jpg"/>
<image clip-path="url(#c1_113)" preserveAspectRatio="none" x="255" y="24" width="425" height="198" xlink:href="img/p2.jpg"/>
<image clip-path="url(#c2_113)" preserveAspectRatio="none" x="676" y="94" width="272" height="126" xlink:href="img/p3.jpg"/>
<image clip-path="url(#c3_113)" preserveAspectRatio="none" x="399" y="45" width="289" height="136" xlink:href="img/p4.jpg"/>
<image clip-path="url(#c4_113)" preserveAspectRatio="none" x="132" y="27" width="368" height="174" xlink:href="img/p5.jpg"/>
<image clip-path="url(#c5_113)" preserveAspectRatio="none" x="408" y="70" width="392" height="185" xlink:href="img/p6.jpg"/>
<path d="M73.6,66.5H835.8" class="g1_113"/>
<path d="M184.2,1079.5H835.3V884.3H184.2v195.2Z" class="g2_113"/>
<path d="M73.1,885.2H836.4" class="g1_113"/>
<path d="M567.8,897.7h23v53.6h-23V897.7Z" class="g3_113"/>
<path d="M602.3,945.1h-23V891.5" class="g4_113"/>
<path d="M579.3,891.5h23v53.6M567.7,897.5l11.6,-6.2" class="g3_113"/>
<path d="M567.8,951.1l11.6,-6.2" class="g4_113"/>
<path d="M590.6,897.8l11.6,-6.2m-11.5,59.8l11.6,-6.2" class="g3_113"/>
<path fill-rule="evenodd" d="M576.2,957c.2,-.5,.5,-.9,.8,-1.2c.4,-.3,.8,-.5,1.4,-.5c.6,0,1.1,.2,1.4,.7c.3,.3,.4,.6,.4,1c0,.6,-.3,1.2,-1.1,1.8c.5,.2,.9,.5,1.2,.8c.2,.4,.3,.8,.3,1.3c0,.7,-.2,1.3,-.6,1.8c-.6,.7,-1.5,1,-2.6,1c-.5,0,-.9,0,-1.1,-.2c-.2,-.1,-.3,-.2,-.3,-.4c0,-.1,.1,-.2,.2,-.3c.1,-.1,.2,-.1,.3,-.1c.1,0,.2,0,.3,0c.1,0,.2,.1,.5,.2c.2,.2,.4,.2,.5,.3c.1,0,.3,0,.4,0c.4,0,.8,-.1,1.1,-.5c.3,-.3,.5,-.6,.5,-1.1c0,-.3,-.1,-.6,-.3,-.9c-.1,-.2,-.2,-.4,-.3,-.5c-.2,-.2,-.4,-.3,-.7,-.4c-.3,-.2,-.6,-.2,-.9,-.2h-.2v-.2c.3,0,.6,-.2,.9,-.3c.4,-.2,.6,-.5,.7,-.7c.2,-.3,.2,-.6,.2,-.9c0,-.4,-.1,-.7,-.3,-1c-.3,-.2,-.6,-.4,-1,-.4c-.6,0,-1.1,.4,-1.5,1Z" class="g5_113"/>
<path fill-rule="evenodd" d="M597.5,952.7c.3,-.5,.6,-1,.9,-1.2c.4,-.3,.8,-.5,1.3,-.5c.7,0,1.2,.2,1.5,.6c.3,.4,.4,.7,.4,1c0,.6,-.4,1.2,-1.1,1.9c.5,.2,.9,.4,1.1,.8c.3,.4,.4,.8,.4,1.3c0,.7,-.2,1.3,-.7,1.8c-.5,.7,-1.4,1,-2.5,1c-.5,0,-.9,-.1,-1.1,-.2c-.2,-.1,-.3,-.3,-.3,-.4c0,-.1,.1,-.2,.2,-.3c0,-.1,.2,-.2,.3,-.2c.1,0,.2,.1,.3,.1c.1,0,.2,.1,.5,.2c.2,.1,.4,.2,.5,.2c.1,.1,.3,.1,.4,.1c.4,0,.8,-.2,1.1,-.5c.3,-.3,.4,-.7,.4,-1.1c0,-.3,0,-.6,-.2,-.9c-.1,-.2,-.2,-.4,-.3,-.5c-.2,-.2,-.4,-.3,-.7,-.5c-.3,-.1,-.6,-.2,-.9,-.2h-.2v-.1c.3,-.1,.6,-.2,.9,-.4c.3,-.2,.6,-.4,.7,-.6c.2,-.3,.2,-.6,.2,-.9c0,-.4,-.1,-.7,-.4,-1c-.2,-.3,-.5,-.4,-.9,-.4c-.6,0,-1.2,.3,-1.6,1Z" class="g5_113"/>
<path fill-rule="evenodd" d="M607.3,910.9h4.4v.2l-2.7,8h-.7l2.4,-7.3h-2.2c-.5,0,-.8,.1,-1,.2c-.3,.2,-.6,.5,-.8,.8h-.2Z" class="g5_113"/>
<path d="M640.4,920.1H669v28.7H640.4V920.1Z" class="g3_113"/>
<path d="M713.8,937.9H685.1V909.2" class="g4_113"/>
<path d="M685.1,909.2h28.7v28.7m-73.6,-18l45.1,-10.6" class="g3_113"/>
<path d="M640.1,948.7l45.2,-10.6" class="g4_113"/>
<path d="M669,919.9l45.1,-10.6m-45.2,39.4L714,938.1" class="g3_113"/>
<path fill-rule="evenodd" d="M634.1,934.2v.9H633v2.1h-1v-2.1h-3.4v-.8l3.8,-5.4h.6v5.3Zm-2.1,0v-4l-2.8,4Z" class="g5_113"/>
<path fill-rule="evenodd" d="M655.6,960v.9h-1.1V963h-1v-2.1h-3.4v-.8l3.8,-5.4h.6V960Zm-2.1,0v-4l-2.8,4Z" class="g5_113"/>
<path fill-rule="evenodd" d="M689.9,950.3l2,-1h.2v6.8c0,.5,0,.8,0,.9c.1,.1,.2,.2,.3,.2c.1,.1,.3,.1,.7,.1v.3h-3v-.3c.3,0,.6,0,.7,-.1c.1,0,.2,-.1,.2,-.2c.1,-.1,.1,-.4,.1,-.9v-4.3c0,-.6,0,-1,-.1,-1.2c0,-.1,0,-.2,-.1,-.2c-.1,-.1,-.2,-.1,-.3,-.1c-.1,0,-.3,0,-.6,.1Z" class="g5_113"/>
<path fill-rule="evenodd" d="M695,953.6c0,-1,.2,-1.8,.4,-2.4c.3,-.7,.7,-1.2,1.2,-1.5c.3,-.3,.7,-.4,1.1,-.4c.6,0,1.1,.3,1.6,.9c.7,.8,1,1.9,1,3.2c0,1,-.2,1.8,-.4,2.4c-.3,.7,-.7,1.2,-1.1,1.5c-.4,.3,-.8,.4,-1.2,.4c-.8,0,-1.4,-.5,-1.9,-1.4c-.5,-.7,-.7,-1.7,-.7,-2.7m1.2,.1c0,1.1,.1,2,.4,2.7c.2,.6,.6,.9,1,.9c.2,0,.5,-.1,.7,-.3c.2,-.2,.4,-.5,.5,-.9c.2,-.7,.3,-1.7,.3,-2.9c0,-.9,-.1,-1.7,-.3,-2.3c-.1,-.5,-.3,-.8,-.5,-1c-.2,-.1,-.4,-.2,-.6,-.2c-.3,0,-.5,.1,-.8,.4c-.2,.3,-.4,.8,-.5,1.5c-.1,.7,-.2,1.4,-.2,2.1Z" class="g5_113"/>
<path d="M744,911.3h45.3v40.6H744V911.3Z" class="g3_113"/>
<path d="M804.5,941.3H759.2V900.7" class="g4_113"/>
<path d="M759.2,900.7h45.3v40.6M744.2,911l15.3,-10.4" class="g3_113"/>
<path d="M744,951.8l15.3,-10.6" class="g4_113"/>
<path d="M789.2,911l15.3,-10.4M789.3,952l15.4,-10.7" class="g3_113"/>
<path fill-rule="evenodd" d="M766.6,958.8l2.2,-1.1h.2v7.5c0,.5,.1,.8,.1,1c0,.1,.1,.2,.3,.2c.1,.1,.4,.1,.8,.2v.2h-3.4v-.2c.4,-.1,.7,-.1,.8,-.2c.1,0,.2,-.1,.3,-.2c0,-.1,0,-.4,0,-1v-4.8c0,-.6,0,-1,0,-1.2c0,-.2,-.1,-.3,-.2,-.3c-.1,-.1,-.2,-.1,-.3,-.1c-.1,0,-.4,0,-.7,.2Z" class="g5_113"/>
<path fill-rule="evenodd" d="M772.3,962.4c0,-1,.1,-1.9,.4,-2.6c.3,-.8,.8,-1.3,1.3,-1.7c.4,-.2,.8,-.4,1.2,-.4c.7,0,1.3,.4,1.8,1.1c.7,.8,1,2,1,3.5c0,1,-.1,1.9,-.4,2.6c-.3,.7,-.7,1.2,-1.1,1.6c-.5,.3,-1,.5,-1.4,.5c-.8,0,-1.5,-.5,-2.1,-1.6c-.5,-.8,-.7,-1.8,-.7,-3m1.3,.2c0,1.2,.1,2.2,.4,3c.3,.6,.6,.9,1.1,.9c.3,0,.5,-.1,.8,-.3c.2,-.2,.4,-.5,.5,-1c.3,-.8,.4,-1.9,.4,-3.2c0,-1,-.2,-1.9,-.4,-2.6c-.1,-.5,-.3,-.8,-.6,-1c-.2,-.2,-.4,-.3,-.6,-.3c-.3,0,-.6,.2,-.8,.4c-.3,.4,-.5,1,-.7,1.8c-.1,.7,-.1,1.5,-.1,2.3Z" class="g5_113"/>
<path fill-rule="evenodd" d="M803.1,953.6c-.7,-.6,-1.1,-1.1,-1.3,-1.4c-.2,-.4,-.3,-.7,-.3,-1.1c0,-.6,.2,-1.1,.7,-1.5c.4,-.4,1,-.6,1.7,-.6c.7,0,1.3,.2,1.8,.6c.4,.4,.6,.8,.6,1.3c0,.3,-.1,.7,-.3,1c-.3,.4,-.8,.8,-1.5,1.2c.8,.6,1.3,1.1,1.5,1.4c.4,.5,.5,1,.5,1.4c0,.7,-.2,1.2,-.7,1.7c-.5,.4,-1.1,.6,-1.9,.6c-.8,0,-1.5,-.2,-2,-.8c-.3,-.4,-.5,-.9,-.5,-1.4c0,-.4,.1,-.8,.4,-1.1c.2,-.4,.7,-.9,1.3,-1.3m1.1,-.7c.5,-.5,.8,-.9,1,-1.1c.1,-.3,.2,-.6,.2,-1c0,-.4,-.1,-.8,-.4,-1.1c-.3,-.2,-.6,-.3,-1.1,-.3c-.4,0,-.8,.1,-1,.3c-.3,.3,-.5,.6,-.5,.9c0,.3,.1,.5,.2,.7c.1,.3,.3,.5,.5,.7Zm-.7,.9c-.4,.3,-.7,.7,-.8,1c-.2,.4,-.3,.8,-.3,1.2c0,.6,.1,1,.5,1.4c.3,.3,.7,.5,1.1,.5c.5,0,.9,-.2,1.2,-.4c.3,-.3,.4,-.6,.4,-1c0,-.3,-.1,-.6,-.3,-.9c-.3,-.4,-.9,-1,-1.8,-1.8Z" class="g5_113"/>
<path fill-rule="evenodd" d="M810.7,924.4v-.2c.5,0,1.1,-.2,1.5,-.4c.5,-.3,1,-.7,1.5,-1.4c.4,-.6,.7,-1.3,.9,-2.1c-.7,.5,-1.3,.7,-1.8,.7c-.7,0,-1.2,-.3,-1.7,-.7c-.4,-.5,-.6,-1.2,-.6,-2c0,-.8,.2,-1.4,.6,-2.1c.6,-.7,1.3,-1.1,2.2,-1.1c.7,0,1.3,.3,1.8,.9c.7,.8,1,1.7,1,2.8c0,1,-.3,1.9,-.7,2.8c-.5,.8,-1.2,1.5,-2.1,2.1c-.7,.5,-1.4,.7,-2.3,.7Zm4,-4.6c.1,-.5,.1,-1,.1,-1.3c0,-.5,0,-.9,-.2,-1.4c-.1,-.5,-.3,-.9,-.6,-1.1c-.3,-.3,-.6,-.4,-.9,-.4c-.4,0,-.7,.1,-1,.5c-.3,.3,-.5,.9,-.5,1.5c0,1,.2,1.7,.6,2.2c.3,.4,.7,.6,1.1,.6c.2,0,.4,-.1,.7,-.2c.3,-.1,.5,-.2,.7,-.4Z" class="g5_113"/>
<path d="M291.7,246.8c4.6,0,8.3,-3.7,8.3,-8.3c0,-4.5,-3.7,-8.2,-8.3,-8.2c-4.6,0,-8.3,3.7,-8.3,8.2c0,4.6,3.7,8.3,8.3,8.3Zm26.5,0c4.6,0,8.3,-3.7,8.3,-8.3c0,-4.5,-3.7,-8.2,-8.3,-8.2c-4.6,0,-8.3,3.7,-8.3,8.2c0,4.6,3.7,8.3,8.3,8.3Zm26.5,0c4.6,0,8.3,-3.7,8.3,-8.3c0,-4.5,-3.7,-8.2,-8.3,-8.2c-4.6,0,-8.3,3.7,-8.3,8.2c0,4.6,3.7,8.3,8.3,8.3Zm-86,22c4.6,0,8.3,-3.7,8.3,-8.3c0,-4.5,-3.7,-8.2,-8.3,-8.2c-4.6,0,-8.3,3.7,-8.3,8.2c0,4.6,3.7,8.3,8.3,8.3Zm83.9,-71.1c4.5,0,8.2,-3.7,8.2,-8.3c0,-4.6,-3.7,-8.3,-8.2,-8.3c-4.6,0,-8.3,3.7,-8.3,8.3c0,4.6,3.7,8.3,8.3,8.3Zm-110.6,0c4.6,0,8.3,-3.7,8.3,-8.3c0,-4.6,-3.7,-8.3,-8.3,-8.3c-4.6,0,-8.3,3.7,-8.3,8.3c0,4.6,3.7,8.3,8.3,8.3Zm221.1,0c4.6,0,8.3,-3.7,8.3,-8.3c0,-4.6,-3.7,-8.3,-8.3,-8.3c-4.6,0,-8.3,3.7,-8.3,8.3c0,4.6,3.7,8.3,8.3,8.3Zm110.5,0c4.6,0,8.3,-3.7,8.3,-8.3c0,-4.6,-3.7,-8.3,-8.3,-8.3c-4.5,0,-8.2,3.7,-8.2,8.3c0,4.6,3.7,8.3,8.2,8.3Zm110.6,0c4.6,0,8.3,-3.7,8.3,-8.3c0,-4.6,-3.7,-8.3,-8.3,-8.3c-4.6,0,-8.3,3.7,-8.3,8.3c0,4.6,3.7,8.3,8.3,8.3Zm110.5,0c4.6,0,8.3,-3.7,8.3,-8.3c0,-4.6,-3.7,-8.3,-8.3,-8.3c-4.5,0,-8.3,3.7,-8.3,8.3c0,4.6,3.8,8.3,8.3,8.3Z" class="g6_113"/>
<path fill-rule="evenodd" d="M237.3,440.8H369l-29.5,25.3H207.9Z" class="g7_113"/>
<path fill-rule="evenodd" d="M340,393.6l27.6,-23.9v72.5L340,466.1Z" class="g8_113"/>
<path fill-rule="evenodd" d="M237.3,368.3H369l-29.5,25.3H207.9Z" class="g9_113"/>
<path clip-path="url(#c6_113)" fill-rule="evenodd" d="M193.1,393.1l-3.4,4.6h2.9Zm1.6,-2.8l-.8,9.6c-.1,.5,-.1,.8,-.1,.9c0,.3,0,.4,.1,.6c.1,.1,.3,.2,.5,.3c.2,.1,.5,.1,.9,.1l-.1,.4h-4.6l.1,-.4h.2c.4,0,.7,0,.9,-.2c.2,-.1,.3,-.3,.4,-.5c.1,-.2,.1,-.6,.2,-1.3l.1,-1.5h-3.3l-1.2,1.6c-.2,.4,-.4,.7,-.5,.8c0,.2,-.1,.3,-.1,.5c0,.1,.1,.3,.3,.4c.1,.2,.4,.2,.7,.2l-.1,.4h-3.4l.1,-.4c.4,0,.8,-.1,1.1,-.4c.3,-.2,.8,-.8,1.4,-1.7l6.9,-9.4Z" class="g5_113"/>
<path fill-rule="evenodd" d="M234.7,351.2l-2.5,8.7c-.2,.6,-.3,1,-.3,1.2c0,0,0,.1,.1,.2c0,.1,.1,.2,.2,.2c.2,0,.4,.1,.7,.1c.9,0,1.8,-.1,2.5,-.3c.8,-.2,1.4,-.5,1.9,-.8c.7,-.6,1.3,-1.3,1.7,-2.2c.4,-1,.6,-2,.6,-3.2c0,-1.3,-.3,-2.3,-1,-3c-.6,-.6,-1.5,-1,-2.8,-1c-.3,0,-.7,0,-1.1,.1m-3.1,-.4l.1,-.3h3.7c1.6,0,2.8,.2,3.5,.6c.8,.3,1.4,.9,1.8,1.7c.5,.7,.7,1.6,.7,2.5c0,.7,-.1,1.4,-.4,2.2c-.2,.7,-.5,1.2,-.9,1.7c-.3,.4,-.8,.9,-1.5,1.4c-.7,.5,-1.4,.9,-2.2,1.2c-.8,.2,-1.8,.3,-2.9,.3h-5l.2,-.3c.4,0,.7,0,.9,-.1c.2,-.1,.4,-.2,.5,-.4c.1,-.2,.3,-.7,.5,-1.4l2.1,-7.1c.1,-.5,.2,-.9,.2,-1.3c0,-.2,-.1,-.4,-.2,-.5c-.2,-.1,-.4,-.2,-.9,-.2Z" class="g5_113"/>
<path fill-rule="evenodd" d="M385.4,358.2l-.8,3.8h-.3l-.1,-1c0,-.3,-.1,-.6,-.2,-.9c-.1,-.3,-.2,-.5,-.4,-.7c-.2,-.2,-.5,-.3,-.8,-.4c-.3,-.2,-.7,-.2,-1,-.2c-1.1,0,-2,.3,-2.7,.8c-1,.7,-1.8,1.7,-2.3,3c-.5,1.1,-.7,2.2,-.7,3.3c0,1.1,.3,2,1,2.7c.6,.7,1.5,1,2.5,1c.8,0,1.5,-.2,2.2,-.5c.6,-.4,1.2,-.9,1.7,-1.7h.4c-.6,1,-1.3,1.8,-2.1,2.2c-.8,.5,-1.7,.7,-2.7,.7c-1,0,-1.8,-.2,-2.6,-.6c-.7,-.4,-1.2,-.9,-1.6,-1.6c-.4,-.8,-.6,-1.5,-.6,-2.3c0,-1.3,.3,-2.5,1,-3.7c.7,-1.2,1.6,-2.2,2.8,-2.9c1.2,-.6,2.4,-1,3.6,-1c.5,0,1.2,.1,1.9,.4c.3,.1,.5,.2,.6,.2c.2,0,.3,0,.4,-.1c.1,-.1,.3,-.2,.5,-.5Z" class="g5_113"/>
<path fill-rule="evenodd" d="M227.3,430.3l-2.5,8.7c-.2,.6,-.3,1,-.3,1.2c0,.1,0,.2,.1,.2c0,.1,.1,.2,.2,.2c.2,.1,.4,.1,.7,.1c.9,0,1.8,-.1,2.5,-.3c.8,-.2,1.4,-.4,1.9,-.8c.7,-.5,1.3,-1.3,1.7,-2.2c.4,-.9,.6,-2,.6,-3.2c0,-1.3,-.3,-2.3,-1,-3c-.6,-.6,-1.5,-.9,-2.8,-.9c-.3,0,-.6,0,-1.1,0m-3.1,-.3l.1,-.4H228c1.6,0,2.8,.2,3.5,.6c.8,.3,1.4,.9,1.8,1.7c.5,.8,.7,1.6,.7,2.5c0,.7,-.1,1.5,-.4,2.2c-.2,.7,-.5,1.3,-.9,1.7c-.3,.4,-.8,.9,-1.5,1.4c-.6,.5,-1.4,.9,-2.2,1.2c-.8,.2,-1.8,.3,-2.9,.3h-4.9l.1,-.3c.4,0,.7,0,.9,-.1c.2,-.1,.4,-.2,.5,-.4c.1,-.2,.3,-.7,.5,-1.4l2.1,-7c.1,-.6,.2,-1,.2,-1.3c0,-.3,-.1,-.4,-.2,-.6c-.1,-.1,-.4,-.1,-.9,-.1Z" class="g5_113"/>
<path fill-rule="evenodd" d="M198.5,463.5l-3.4,4.5H198Zm1.7,-2.9l-.9,9.7c-.1,.4,-.1,.7,-.1,.8c0,.3,.1,.5,.2,.6c.1,.1,.2,.3,.4,.3c.2,.1,.5,.2,.9,.2l-.1,.3h-4.5l.1,-.3h.2c.3,0,.6,-.1,.9,-.3c.1,-.1,.3,-.3,.4,-.5c0,-.2,.1,-.6,.1,-1.3l.2,-1.4h-3.3l-1.2,1.6c-.3,.3,-.5,.6,-.5,.7c-.1,.2,-.1,.3,-.1,.5c0,.2,0,.3,.2,.4c.1,.2,.4,.2,.7,.3l-.1,.3h-3.4l.1,-.3c.4,-.1,.8,-.2,1.1,-.5c.3,-.2,.8,-.8,1.5,-1.7l6.9,-9.4Z" class="g5_113"/>
<path fill-rule="evenodd" d="M345.2,477.3c.7,.1,1.1,.2,1.5,.2c.9,0,1.7,-.3,2.4,-.8c.6,-.6,1,-1.3,1,-2.2c0,-.7,-.2,-1.3,-.6,-1.7c-.5,-.4,-1.2,-.6,-2.1,-.6c-.2,0,-.4,.1,-.7,.1Zm1.7,-5.7c.4,0,.7,0,.8,0c1.2,0,2.1,-.2,2.7,-.7c.6,-.5,.8,-1.2,.8,-2c0,-.6,-.1,-1,-.5,-1.3c-.3,-.4,-.9,-.5,-1.7,-.5c-.2,0,-.4,0,-.8,.1Zm-1.7,-4.8l.1,-.3h4.2c.6,0,1.3,.1,1.8,.3c.6,.2,1,.5,1.2,.9c.3,.4,.4,.8,.4,1.3c0,.6,-.2,1.2,-.7,1.8c-.5,.5,-1.2,.9,-2.3,1.2c.7,.2,1.2,.6,1.5,1c.3,.4,.5,.9,.5,1.4c0,.6,-.1,1.2,-.4,1.7c-.3,.5,-.7,.9,-1.2,1.2c-.4,.3,-1,.5,-1.7,.6c-.4,.1,-1.2,.2,-2.1,.2h-4.3l.1,-.3c.5,0,.8,-.1,.9,-.2c.2,-.1,.4,-.2,.5,-.3c.1,-.3,.3,-.7,.6,-1.5l2,-7c.2,-.6,.3,-1.1,.3,-1.3c0,-.2,-.1,-.4,-.2,-.5c-.2,-.1,-.5,-.2,-.9,-.2c-.1,0,-.2,0,-.3,0Z" class="g5_113"/>
<path fill-rule="evenodd" d="M345.4,402.9c.6,.1,1.1,.1,1.4,.1c.9,0,1.7,-.3,2.4,-.8c.7,-.5,1,-1.3,1,-2.2c0,-.7,-.2,-1.2,-.6,-1.6c-.4,-.4,-1.1,-.6,-2.1,-.6c-.1,0,-.4,0,-.6,0Zm1.7,-5.7c.3,0,.6,0,.8,0c1.2,0,2,-.3,2.6,-.8c.6,-.5,.9,-1.1,.9,-1.9c0,-.6,-.2,-1.1,-.5,-1.4c-.4,-.3,-1,-.5,-1.7,-.5c-.2,0,-.5,.1,-.8,.1Zm-1.8,-4.8l.2,-.4h4.1c.7,0,1.3,.2,1.9,.4c.5,.2,.9,.5,1.2,.9c.3,.4,.4,.8,.4,1.2c0,.7,-.3,1.3,-.7,1.8c-.5,.6,-1.3,1,-2.4,1.2c.7,.3,1.2,.6,1.6,1.1c.3,.4,.5,.9,.5,1.4c0,.6,-.2,1.1,-.5,1.6c-.3,.6,-.7,1,-1.1,1.3c-.5,.2,-1.1,.5,-1.7,.6c-.5,.1,-1.2,.1,-2.2,.1h-4.3l.2,-.3c.4,0,.7,0,.9,-.1c.2,-.1,.4,-.2,.5,-.4c.1,-.2,.3,-.7,.5,-1.5l2.1,-7c.2,-.6,.2,-1,.2,-1.2c0,-.3,0,-.4,-.2,-.5c-.1,-.2,-.4,-.2,-.9,-.2c-.1,0,-.2,0,-.3,0Z" class="g5_113"/>
<path fill-rule="evenodd" d="M385.2,434.7l-.9,3.8H384v-1c0,-.3,-.1,-.6,-.2,-.9c-.1,-.3,-.3,-.5,-.5,-.7c-.2,-.2,-.4,-.3,-.7,-.4c-.3,-.2,-.7,-.2,-1.1,-.2c-1,0,-1.9,.3,-2.7,.8c-.9,.7,-1.7,1.7,-2.2,3c-.5,1.1,-.7,2.2,-.7,3.3c0,1.1,.3,2,1,2.7c.6,.7,1.5,1,2.5,1c.8,0,1.5,-.2,2.1,-.5c.6,-.4,1.2,-.9,1.8,-1.7h.4c-.7,1,-1.4,1.8,-2.1,2.2c-.8,.5,-1.7,.7,-2.8,.7c-.9,0,-1.8,-.2,-2.5,-.6c-.7,-.4,-1.3,-.9,-1.7,-1.6c-.3,-.8,-.5,-1.5,-.5,-2.3c0,-1.3,.3,-2.5,1,-3.7c.7,-1.2,1.6,-2.2,2.8,-2.9c1.2,-.6,2.4,-1,3.6,-1c.5,0,1.2,.1,1.9,.4c.3,.1,.5,.2,.6,.2c.2,0,.3,0,.4,-.1c.1,-.1,.3,-.2,.5,-.5Z" class="g5_113"/>
<path fill-rule="evenodd" d="M199.3,398.5l1.9,-.9h.1v6.6c0,.4,.1,.7,.1,.8c0,.1,.1,.1,.2,.2c.1,.1,.4,.1,.7,.1v.2h-2.9v-.2c.4,0,.6,0,.7,-.1c.1,0,.2,-.1,.2,-.2c.1,-.1,.1,-.4,.1,-.8V400c0,-.6,0,-.9,-.1,-1.1c0,-.1,0,-.2,-.1,-.3c-.1,0,-.2,-.1,-.3,-.1c-.1,0,-.3,.1,-.5,.2Z" class="g5_113"/>
<path fill-rule="evenodd" d="M242.6,358.5l1.9,-.9h.2v6.5c0,.4,0,.7,0,.8c.1,.1,.1,.2,.3,.3c.1,0,.3,.1,.7,.1v.2h-3v-.2c.4,0,.6,-.1,.8,-.1c.1,-.1,.1,-.2,.2,-.2c0,-.1,0,-.4,0,-.9v-4.2c0,-.5,0,-.9,0,-1c0,-.2,-.1,-.2,-.2,-.3c0,-.1,-.1,-.1,-.2,-.1c-.2,0,-.4,.1,-.6,.2Z" class="g5_113"/>
<path fill-rule="evenodd" d="M386.7,366.5l1.8,-1h.2v6.6c0,.4,0,.7,.1,.8c0,.1,.1,.2,.2,.2c.1,.1,.4,.1,.7,.1v.2h-2.9v-.2c.4,0,.6,0,.7,-.1c.1,0,.2,-.1,.2,-.2c.1,-.1,.1,-.4,.1,-.8v-4.2c0,-.6,0,-.9,-.1,-1.1c0,-.1,0,-.2,-.1,-.3c-.1,0,-.2,0,-.3,0c-.1,0,-.3,0,-.6,.1Z" class="g5_113"/>
<path fill-rule="evenodd" d="M356.3,400l1.9,-.9h.2v6.5c0,.5,0,.7,0,.8q.1,.2,.2,.3c.2,0,.4,.1,.7,.1v.2h-2.9v-.2c.4,0,.6,-.1,.7,-.1c.1,-.1,.2,-.1,.3,-.2c0,-.1,0,-.4,0,-.9v-4.1c0,-.6,0,-1,0,-1.1c-.1,-.1,-.1,-.2,-.2,-.3c-.1,0,-.1,-.1,-.2,-.1c-.2,0,-.4,.1,-.6,.2Z" class="g5_113"/>
<path clip-path="url(#c6_113)" fill-rule="evenodd" d="M271.2,475.5c0,-.5,-.1,-.8,-.2,-1c-.1,-.1,-.2,-.2,-.4,-.2c-.1,0,-.3,.1,-.5,.3c-.3,.3,-.7,1,-1.1,1.9c-.4,1,-.6,1.9,-.6,2.6c0,.3,0,.5,.1,.6c.1,.1,.2,.2,.3,.2c.3,0,.5,-.1,.7,-.4c.4,-.4,.7,-.9,1,-1.4c.5,-1,.7,-1.9,.7,-2.6m2.5,-1.5l-1.5,5.2l-.2,.6q0,.1,0,.2c0,0,0,.1,.1,.1c0,.1,.1,.1,.1,.1c.1,0,.3,-.1,.5,-.2c0,-.1,.2,-.3,.5,-.8l.3,.2c-.4,.7,-.8,1.2,-1.2,1.5c-.4,.3,-.9,.4,-1.3,.4c-.3,0,-.6,0,-.7,-.2c-.2,-.1,-.3,-.3,-.3,-.6c0,-.2,.1,-.6,.3,-1.1l.2,-.6c-.6,1,-1.2,1.7,-1.8,2.2c-.3,.2,-.6,.3,-1,.3c-.5,0,-.8,-.2,-1,-.6c-.3,-.3,-.4,-.8,-.4,-1.3c0,-.7,.3,-1.6,.7,-2.5c.5,-1,1,-1.7,1.8,-2.3c.6,-.5,1.1,-.7,1.7,-.7c.3,0,.5,0,.7,.2c.2,.2,.3,.5,.4,.9l.3,-.9Z" class="g5_113"/>
<path fill-rule="evenodd" d="M333.2,426.7l.2,.2c-.5,.6,-1,1,-1.5,1.3c-.6,.4,-1.3,.6,-2,.6c-.5,0,-.9,-.1,-1.3,-.3c-.3,-.2,-.6,-.5,-.8,-.9c-.1,-.3,-.2,-.7,-.2,-1.1c0,-.9,.2,-1.7,.7,-2.5c.4,-.9,1.1,-1.5,1.8,-2c.8,-.5,1.5,-.7,2.3,-.7c.6,0,1,.1,1.3,.4c.3,.2,.4,.6,.4,.9c0,.4,-.1,.7,-.3,.9c-.2,.3,-.5,.4,-.7,.4c-.3,0,-.5,-.1,-.6,-.2c-.2,-.2,-.3,-.4,-.3,-.6c0,-.3,.2,-.5,.4,-.7c.2,-.2,.3,-.3,.3,-.4c0,-.1,0,-.2,-.1,-.2c-.1,-.1,-.2,-.2,-.4,-.2c-.4,0,-.8,.2,-1.2,.6c-.5,.4,-.9,1,-1.2,1.8c-.3,.7,-.4,1.4,-.4,2c0,.5,.1,.9,.4,1.2c.3,.3,.6,.5,1,.5c.3,0,.7,-.1,1.1,-.3c.4,-.1,.7,-.4,1.1,-.7Z" class="g5_113"/>
<path fill-rule="evenodd" d="M361.4,464.6c.2,.2,.4,.2,.6,.2c.3,0,.5,0,.7,-.1c.3,-.2,.6,-.5,.9,-1c.4,-.5,.7,-1,.9,-1.7c.2,-.6,.3,-1.3,.3,-1.9c0,-.4,-.1,-.7,-.3,-.9c-.1,-.2,-.3,-.3,-.5,-.3c-.4,0,-.7,.2,-1,.6c-.2,.2,-.4,.7,-.6,1.4Zm3,-10.4l-1.4,4.7c.4,-.4,.8,-.7,1,-.9c.3,-.1,.6,-.2,.9,-.2c.7,0,1.1,.2,1.4,.7c.4,.4,.5,1,.5,1.5c0,1.5,-.5,2.7,-1.5,3.8c-.9,1,-2,1.5,-3.1,1.5c-.9,0,-1.8,-.3,-2.8,-.8l2.4,-8.3c.2,-.4,.2,-.7,.2,-.8c0,-.1,0,-.2,-.1,-.3c-.2,-.1,-.4,-.1,-.7,-.1l.1,-.3l2.6,-.5Z" class="g5_113"/>
<path d="M208,466.3V393.5H339.4" class="ga_113"/>
<path d="M339.4,393.5v72.8H208" class="gb_113"/>
<path d="M339.4,393.7l28.8,-25.1m-160,24.6L237,368.1" class="ga_113"/>
<path d="M339.3,466.5l28.8,-25" class="gb_113"/>
<path d="M207.9,466.5l28.8,-25" class="gc_113"/>
<path d="M368.1,368.4v72.8" class="ga_113"/>
<path d="M236.8,368.4v72.8H367.1" class="gc_113"/>
<path d="M236.8,368.4H368.1" class="ga_113"/>
<path d="M73.6,721.7H835.8" class="g1_113"/>
<path d="M305.4,825.3h33.7v33.6H305.4V825.3ZM186.2,837h62.3v21.9H186.2V837Z" class="gd_113"/>
<path d="M263.8,846.7H201.5V824.8" class="ge_113"/>
<path d="M201.5,825.2h62.3v22" class="gd_113"/>
<path d="M353.7,846.9H320V813.3" class="ge_113"/>
<path d="M320,813.3h33.7v33.6M305.6,825.1l14.8,-11.7M186.5,836.9l14.8,-11.7" class="gd_113"/>
<path d="M305.6,858.6l14.8,-11.7M187,858.4l14.7,-11.7" class="ge_113"/>
<path d="M339.1,825.1l14.8,-11.7M248.9,837l14.8,-11.7m75.4,33.3l14.8,-11.7m-105,11.9l14.7,-11.7" class="gd_113"/>
<path d="M184.8,698.9h651V609.6h-651v89.3Z" class="gf_113"/>
<path d="M135.8,647.1h39.7V609.6H135.8v37.5Z" class="gg_113"/>
<path fill-rule="evenodd" d="M675.4,632.4l19.1,-17.2h48.9v51.2l-17.8,17.7H676.3Z" class="gh_113"/>
<path d="M725.5,632.8v50.4H675.6" class="gi_113"/>
<path d="M675.6,683.2V632.8h49.9" class="gj_113"/>
<path d="M743.8,665.8H693.9V615.4" class="gk_113"/>
<path d="M693.9,615.4h49.9v50.4M675.7,632.6l18.2,-17m31.7,17.5l18.2,-17.5" class="gj_113"/>
<path d="M675.6,683l18.1,-16.9" class="gk_113"/>
<path d="M725.4,683.4L743.5,666" class="gi_113"/>
<path fill-rule="evenodd" d="M703,686.6l-1.6,5.6l-.2,.7c0,.1,0,.2,0,.2c0,.1,0,.2,.1,.2c0,.1,.1,.1,.1,.1c.1,0,.2,0,.3,-.1c.2,-.2,.5,-.5,.8,-1l.3,.2c-.3,.6,-.7,1,-1.1,1.3c-.4,.3,-.8,.4,-1.1,.4c-.3,0,-.5,0,-.6,-.1c-.1,-.2,-.2,-.3,-.2,-.5c0,-.3,.1,-.7,.2,-1.1l.2,-.6c-.7,.9,-1.4,1.6,-2,1.9c-.4,.3,-.8,.4,-1.2,.4c-.4,0,-.8,-.1,-1.1,-.5c-.3,-.3,-.4,-.7,-.4,-1.3c0,-.9,.2,-1.8,.8,-2.8c.5,-.9,1.2,-1.7,2,-2.3c.6,-.5,1.2,-.7,1.7,-.7c.4,0,.7,.1,.9,.3c.2,.2,.4,.4,.5,.9l.3,-1Zm-2.9,.4c-.4,0,-.8,.2,-1.2,.5c-.5,.5,-1,1.2,-1.5,2.1c-.4,.9,-.6,1.7,-.6,2.5c0,.4,.1,.6,.3,.9c.2,.2,.4,.3,.6,.3c.6,0,1.3,-.5,2,-1.3c.9,-1.2,1.4,-2.4,1.4,-3.6c0,-.5,-.1,-.8,-.3,-1c-.2,-.3,-.4,-.4,-.7,-.4Z" class="g5_113"/>
<path fill-rule="evenodd" d="M744.1,675.6l-1.6,5.5l-.2,.8q0,.1,0,.2c0,0,0,.1,.1,.2c0,0,.1,.1,.1,.1c.1,0,.2,-.1,.3,-.2c.2,-.1,.5,-.5,.9,-1l.3,.2c-.4,.6,-.8,1,-1.2,1.3c-.4,.3,-.8,.5,-1.1,.5c-.3,0,-.4,-.1,-.6,-.2c-.1,-.1,-.1,-.3,-.1,-.5c0,-.3,0,-.6,.2,-1.1l.1,-.6c-.7,1,-1.4,1.6,-2,2c-.4,.3,-.8,.4,-1.2,.4c-.4,0,-.8,-.2,-1.1,-.5c-.2,-.3,-.4,-.8,-.4,-1.4c0,-.8,.3,-1.8,.8,-2.7c.5,-1,1.2,-1.8,2,-2.3c.6,-.5,1.2,-.7,1.8,-.7c.3,0,.6,.1,.8,.2c.2,.2,.4,.5,.5,.9l.3,-.9Zm-2.9,.4c-.4,0,-.7,.2,-1.1,.5c-.6,.5,-1.1,1.1,-1.5,2.1c-.5,.9,-.7,1.7,-.7,2.4c0,.4,.1,.7,.3,.9c.2,.2,.4,.3,.6,.3c.6,0,1.3,-.4,2,-1.3c.9,-1.2,1.4,-2.4,1.4,-3.6c0,-.4,-.1,-.8,-.3,-1c-.2,-.2,-.4,-.3,-.7,-.3Z" class="g5_113"/>
<path fill-rule="evenodd" d="M735.7,645.4l-1.6,5.6l-.2,.7c0,.1,0,.2,0,.2c0,.1,0,.2,0,.3q.1,0,.2,0c.1,0,.2,0,.3,-.1c.2,-.2,.5,-.5,.8,-1l.3,.2c-.4,.6,-.8,1,-1.1,1.3c-.4,.3,-.8,.5,-1.2,.5c-.2,0,-.4,-.1,-.5,-.2c-.1,-.1,-.2,-.3,-.2,-.5c0,-.3,.1,-.7,.2,-1.1l.2,-.6c-.7,.9,-1.4,1.6,-2,2c-.4,.2,-.8,.4,-1.3,.4c-.4,0,-.7,-.2,-1,-.5c-.3,-.4,-.4,-.8,-.4,-1.4c0,-.9,.2,-1.8,.8,-2.8c.5,-.9,1.1,-1.7,1.9,-2.3c.7,-.4,1.3,-.7,1.8,-.7c.4,0,.6,.1,.9,.3c.2,.2,.3,.5,.5,.9l.3,-1Zm-3,.5c-.3,0,-.7,.1,-1.1,.5c-.5,.4,-1,1.1,-1.5,2c-.4,.9,-.6,1.8,-.6,2.5c0,.4,.1,.7,.3,.9c.1,.2,.4,.3,.6,.3c.6,0,1.2,-.4,1.9,-1.3c1,-1.2,1.5,-2.4,1.5,-3.6c0,-.5,-.1,-.8,-.3,-1c-.2,-.2,-.4,-.3,-.8,-.3Z" class="g5_113"/>
</svg>
