<?xml version="1.0" encoding="UTF-8" standalone="no"?>
<!DOCTYPE svg PUBLIC "-//W3C//DTD SVG 1.1//EN"
"http://www.w3.org/Graphics/SVG/1.1/DTD/svg11.dtd">
<svg viewBox="0 0 909 1147" version="1.1" xmlns="http://www.w3.org/2000/svg" xmlns:xlink="http://www.w3.org/1999/xlink">
<defs>
<clipPath id="c0_69"><path d="M142.2,91.5v-18h30.2v18Z"/></clipPath>
<style type="text/css"><![CDATA[
.g0_69{
fill: #B6D774;
}
.g1_69{
fill: #FFF1E0;
}
.g2_69{
fill: none;
stroke: #0EA5DF;
stroke-width: 3.055;
}
.g3_69{
fill: #E8F1FA;
}
.g4_69{
fill: #0EA5DF;
}
.g5_69{
fill: #FFF;
}
]]></style>
</defs>
<path d="M835.8,1131h73.6v-51.5H835.8V1131Z" class="g0_69"/>
<path d="M186.2,182.5h651V63.4h-651V182.5Z" class="g1_69"/>
<path d="M186.2,408.2h651V307.8h-651V408.2Z" class="g1_69"/>
<path d="M75,425.5H837.2" class="g2_69"/>
<path d="M186.1,1077.3H836.8V687.8H186.1v389.5Z" class="g3_69"/>
<path d="M74.6,684.1H836.8" class="g2_69"/>
<path d="M137.2,100.9h39.7V63.4H137.2v37.5Z" class="g4_69"/>
<path clip-path="url(#c0_69)" d="M157.5,86c-2.1,.1,-3.8,-1.6,-3.6,-3.6c.1,-1.7,1.5,-3.1,3.2,-3.2c2,-.2,3.7,1.5,3.6,3.6c-.1,1.7,-1.5,3.1,-3.2,3.2m.2,2.9c-3.8,.3,-7,-2.9,-6.8,-6.7c.2,-3.2,2.8,-5.8,6,-6c3.8,-.2,7,3,6.7,6.8c-.2,3.2,-2.7,5.7,-5.9,5.9m-.4,-15.3c-5.8,0,-11,3.1,-14.9,8.3c-.3,.4,-.3,1,0,1.4c3.9,5.1,9.1,8.3,14.9,8.3c5.7,0,11,-3.2,14.8,-8.3c.4,-.4,.4,-1,0,-1.4C168.3,76.7,163,73.6,157.3,73.6Z" class="g5_69"/>
<path d="M137.2,345.2h39.7V307.8H137.2v37.4Z" class="g4_69"/>
</svg>