<?xml version="1.0" encoding="UTF-8" standalone="no"?>
<!DOCTYPE svg PUBLIC "-//W3C//DTD SVG 1.1//EN"
"http://www.w3.org/Graphics/SVG/1.1/DTD/svg11.dtd">
<svg viewBox="0 0 909 1147" version="1.1" xmlns="http://www.w3.org/2000/svg" xmlns:xlink="http://www.w3.org/1999/xlink">
<defs>
<clipPath id="c0_40"><path d="M138.7,968.9v-18H169v18Z"/></clipPath>
<style type="text/css"><![CDATA[
.g0_40{
fill: #FAAF82;
}
.g1_40{
fill: none;
stroke: #0EA5DF;
stroke-width: 3.055;
}
.g2_40{
fill: none;
stroke: #9CCCEE;
stroke-width: 0.763;
stroke-linejoin: round;
}
.g3_40{
fill: none;
stroke: #000;
stroke-width: 0.763;
stroke-linejoin: round;
}
.g4_40{
fill: #000;
}
.g5_40{
fill: #0EA5DF;
}
.g6_40{
fill: #FFF1E0;
}
.g7_40{
fill: #FFF;
}
]]></style>
</defs>
<path d="M0,1131H73.8v-51.5H0V1131Z" class="g0_40"/>
<path d="M73.6,166.9H835.8" class="g1_40"/>
<path d="M0,141.1H120.6V0H0V141.1Z" class="g0_40"/>
<path d="M227.5,437.1H742.9M227.5,415.5H742.9M227.5,393.8H742.9M227.5,372.2H742.9M227.5,350.5H742.9M227.5,328.9H742.9M227.5,307.2H742.9M227.5,285.5H742.9M227.5,263.9H742.9M227.5,242.2H742.9" class="g2_40"/>
<path d="M227.5,225V458.8" class="g3_40"/>
<path fill-rule="evenodd" d="M227.5,219.5l4.6,10.8c-3.1,-1.5,-6.2,-1.5,-9.2,0Z" class="g4_40"/>
<path d="M750.6,458.1H228.1" class="g3_40"/>
<path fill-rule="evenodd" d="M756.1,458.1l-10.8,4.6c1.5,-3.1,1.5,-6.2,0,-9.2Z" class="g4_40"/>
<path d="M213.8,458.6c0,-1.3,.2,-2.3,.6,-3.3c.4,-.9,.9,-1.6,1.5,-2c.5,-.4,1,-.5,1.5,-.5c.9,0,1.7,.4,2.3,1.3c.9,1,1.3,2.5,1.3,4.3c0,1.3,-.2,2.4,-.6,3.3c-.3,.9,-.8,1.6,-1.4,2c-.6,.4,-1.1,.6,-1.6,.6c-1.1,0,-2,-.6,-2.7,-1.9c-.6,-1,-.9,-2.3,-.9,-3.8m1.6,.2c0,1.5,.2,2.8,.6,3.8c.3,.8,.8,1.2,1.4,1.2c.3,0,.6,-.1,.9,-.4c.3,-.3,.6,-.7,.7,-1.3c.3,-1,.4,-2.3,.4,-4c0,-1.3,-.1,-2.3,-.4,-3.2c-.2,-.6,-.4,-1.1,-.8,-1.3c-.2,-.2,-.5,-.3,-.8,-.3c-.3,0,-.7,.2,-1,.5c-.4,.4,-.6,1.2,-.8,2.1c-.1,1,-.2,2,-.2,2.9Z" class="g4_40"/>
<path d="M220.7,431.1v.3c-.7,.1,-1.3,.2,-1.7,.4c-.5,.3,-.9,.6,-1.4,1c-.4,.5,-.8,1,-1.1,1.5c-.3,.5,-.5,1.2,-.7,1.9c.8,-.5,1.5,-.8,2.3,-.8c.8,0,1.5,.3,2,1c.6,.6,.9,1.4,.9,2.3c0,.9,-.3,1.8,-.9,2.6c-.7,.9,-1.6,1.4,-2.7,1.4c-.7,0,-1.4,-.3,-1.9,-.8c-1.1,-1,-1.6,-2.2,-1.6,-3.8c0,-1,.2,-2,.6,-2.8c.4,-.9,1,-1.7,1.7,-2.4c.8,-.7,1.5,-1.2,2.2,-1.4c.6,-.3,1.3,-.4,1.9,-.4Zm-5.1,5.7c-.1,.8,-.1,1.4,-.1,1.8c0,.6,.1,1.1,.3,1.7c.2,.7,.5,1.1,.8,1.5c.3,.3,.7,.4,1.1,.4c.4,0,.9,-.2,1.2,-.7c.4,-.4,.6,-1.1,.6,-1.9c0,-.9,-.2,-1.7,-.6,-2.4c-.3,-.7,-.9,-1.1,-1.5,-1.1c-.3,0,-.5,.1,-.7,.2c-.3,.1,-.6,.3,-1.1,.5Z" class="g4_40"/>
<path d="M206.8,410.8l2.7,-1.4h.2v9.4c0,.7,.1,1.1,.1,1.2c.1,.2,.2,.3,.3,.4c.2,0,.5,.1,1.1,.1v.3H207v-.3c.5,0,.8,-.1,1,-.1c.1,-.1,.2,-.2,.3,-.4c.1,-.1,.1,-.5,.1,-1.2v-6c0,-.8,0,-1.3,-.1,-1.5c0,-.2,-.1,-.3,-.2,-.4c-.1,-.1,-.2,-.1,-.4,-.1c-.2,0,-.4,.1,-.8,.2Z" class="g4_40"/>
<path d="M220.9,418.7l-.8,2.1h-6.5v-.3c1.9,-1.8,3.3,-3.2,4,-4.3c.8,-1.1,1.2,-2.2,1.2,-3.1c0,-.7,-.2,-1.3,-.6,-1.7c-.5,-.5,-1,-.7,-1.6,-.7c-.5,0,-1,.2,-1.5,.5c-.4,.3,-.7,.8,-.9,1.4h-.3c.1,-1,.5,-1.8,1,-2.3c.6,-.6,1.3,-.9,2.2,-.9c.9,0,1.6,.3,2.2,.9c.6,.6,.9,1.3,.9,2.1c0,.5,-.1,1.1,-.4,1.7c-.4,.8,-1,1.8,-1.9,2.8c-1.4,1.5,-2.3,2.4,-2.6,2.7h2.9c.6,0,1,-.1,1.3,-.1c.2,0,.4,-.1,.6,-.3c.2,-.1,.4,-.3,.5,-.5Z" class="g4_40"/>
<path d="M206.8,389.1l2.7,-1.3h.2v9.4c0,.6,.1,1,.1,1.2c.1,.1,.2,.2,.3,.3c.2,.1,.5,.1,1.1,.1v.3H207v-.3c.5,0,.8,0,1,-.1c.1,-.1,.2,-.2,.3,-.3c.1,-.1,.1,-.5,.1,-1.2v-6c0,-.8,0,-1.3,-.1,-1.6c0,-.2,-.1,-.3,-.2,-.4c-.1,0,-.2,-.1,-.4,-.1c-.2,0,-.4,.1,-.8,.3Z" class="g4_40"/>
<path d="M216.4,393.5c-.9,-.7,-1.4,-1.3,-1.7,-1.7c-.2,-.4,-.4,-.9,-.4,-1.4c0,-.7,.3,-1.3,.9,-1.8c.5,-.5,1.3,-.8,2.2,-.8c.9,0,1.6,.2,2.2,.7c.5,.5,.8,1.1,.8,1.7c0,.4,-.2,.8,-.5,1.3c-.2,.4,-.9,.9,-1.8,1.5c1,.7,1.6,1.3,1.9,1.7c.4,.6,.6,1.2,.6,1.8c0,.8,-.3,1.5,-.9,2c-.6,.6,-1.3,.8,-2.3,.8c-1.1,0,-1.9,-.3,-2.5,-.9c-.4,-.6,-.7,-1.2,-.7,-1.8c0,-.5,.2,-1,.5,-1.4c.3,-.5,.9,-1.1,1.7,-1.7m1.3,-.8c.7,-.6,1.1,-1.1,1.3,-1.4c.1,-.4,.2,-.8,.2,-1.2c0,-.6,-.1,-1,-.5,-1.3c-.3,-.4,-.7,-.5,-1.3,-.5c-.5,0,-1,.1,-1.3,.5c-.4,.3,-.6,.7,-.6,1.1c0,.3,.1,.6,.2,.8c.2,.3,.4,.6,.7,.9Zm-.9,1.2c-.4,.3,-.8,.8,-1,1.2c-.2,.5,-.3,.9,-.3,1.5c0,.7,.2,1.2,.6,1.7c.3,.4,.8,.6,1.4,.6c.6,0,1.1,-.2,1.4,-.5c.4,-.3,.6,-.7,.6,-1.2c0,-.4,-.1,-.8,-.3,-1.1c-.4,-.5,-1.2,-1.3,-2.4,-2.2Z" class="g4_40"/>
<path d="M212.5,375.4l-.8,2.1h-6.5v-.3c1.9,-1.8,3.3,-3.2,4,-4.3c.8,-1.1,1.2,-2.2,1.2,-3.1c0,-.7,-.2,-1.3,-.6,-1.7c-.5,-.5,-1,-.7,-1.6,-.7c-.5,0,-1,.2,-1.5,.5c-.4,.3,-.7,.8,-.9,1.4h-.3c.1,-1,.5,-1.8,1,-2.3c.6,-.6,1.3,-.9,2.2,-.9c.9,0,1.6,.3,2.2,.9c.6,.6,.9,1.3,.9,2.1c0,.5,-.1,1.1,-.4,1.7c-.4,.8,-1,1.8,-1.9,2.8c-1.4,1.5,-2.3,2.4,-2.6,2.7h2.9c.6,0,1,-.1,1.3,-.1c.2,-.1,.4,-.1,.6,-.3c.2,-.1,.4,-.3,.5,-.5Z" class="g4_40"/>
<path d="M221,373.4v1.2h-1.5v2.9h-1.3v-2.9h-4.7v-1.1l5.1,-7.4h.9v7.3Zm-2.8,0v-5.5l-3.9,5.5Z" class="g4_40"/>
<path d="M205.7,346.8c.3,-.7,.7,-1.3,1.2,-1.7c.4,-.4,1,-.6,1.8,-.6c.9,0,1.5,.3,2,.9c.4,.4,.6,.8,.6,1.3c0,.9,-.6,1.7,-1.6,2.6c.7,.2,1.2,.6,1.6,1.1c.3,.5,.5,1.1,.5,1.8c0,.9,-.3,1.8,-.9,2.5c-.8,.9,-2,1.3,-3.5,1.3c-.7,0,-1.2,-.1,-1.5,-.2c-.3,-.2,-.4,-.4,-.4,-.6c0,-.2,0,-.3,.2,-.5c.1,-.1,.3,-.1,.4,-.1c.2,0,.3,0,.5,0c0,.1,.3,.2,.6,.3c.3,.2,.5,.3,.7,.3c.2,.1,.4,.1,.6,.1c.6,0,1.1,-.2,1.5,-.6c.4,-.5,.6,-1,.6,-1.6c0,-.4,-.1,-.8,-.3,-1.2c-.1,-.3,-.3,-.6,-.5,-.7c-.2,-.2,-.5,-.4,-.9,-.6c-.4,-.2,-.9,-.3,-1.3,-.3h-.2v-.2c.4,-.1,.8,-.2,1.3,-.5c.4,-.2,.7,-.6,.9,-.9c.2,-.4,.3,-.8,.3,-1.2c0,-.6,-.2,-1,-.5,-1.4c-.4,-.3,-.8,-.5,-1.4,-.5c-.8,0,-1.5,.5,-2.1,1.4Z" class="g4_40"/>
<path d="M213.8,350.3c0,-1.2,.2,-2.3,.6,-3.2c.4,-.9,.9,-1.6,1.5,-2.1c.5,-.3,1,-.5,1.5,-.5c.9,0,1.7,.4,2.3,1.3c.9,1.1,1.3,2.5,1.3,4.4c0,1.3,-.2,2.4,-.6,3.3c-.3,.9,-.8,1.5,-1.4,1.9c-.6,.4,-1.1,.6,-1.6,.6c-1.1,0,-2,-.6,-2.7,-1.8c-.6,-1.1,-.9,-2.4,-.9,-3.9m1.6,.2c0,1.6,.2,2.8,.6,3.8c.3,.8,.8,1.2,1.4,1.2c.3,0,.6,-.1,.9,-.4c.3,-.2,.6,-.7,.7,-1.3c.3,-.9,.4,-2.3,.4,-4c0,-1.3,-.1,-2.3,-.4,-3.2c-.2,-.6,-.4,-1,-.8,-1.3c-.2,-.2,-.5,-.3,-.8,-.3c-.3,0,-.7,.2,-1,.5c-.4,.5,-.6,1.2,-.8,2.2c-.1,.9,-.2,1.9,-.2,2.8Z" class="g4_40"/>
<path d="M205.7,325.2c.3,-.8,.7,-1.3,1.2,-1.8c.4,-.4,1,-.6,1.8,-.6c.9,0,1.5,.3,2,.9c.4,.4,.6,.9,.6,1.4c0,.8,-.6,1.6,-1.6,2.5c.7,.3,1.2,.7,1.6,1.1c.3,.5,.5,1.1,.5,1.8c0,1,-.3,1.8,-.9,2.5c-.8,.9,-2,1.4,-3.5,1.4c-.7,0,-1.2,-.1,-1.5,-.3c-.3,-.2,-.4,-.4,-.4,-.6c0,-.2,0,-.3,.2,-.4c.1,-.1,.3,-.2,.4,-.2c.2,0,.3,0,.5,.1c0,0,.3,.1,.6,.3c.3,.1,.5,.2,.7,.3c.2,0,.4,.1,.6,.1c.6,0,1.1,-.2,1.5,-.7c.4,-.4,.6,-.9,.6,-1.5c0,-.4,-.1,-.9,-.3,-1.3c-.1,-.3,-.3,-.5,-.5,-.7c-.2,-.2,-.5,-.4,-.9,-.6c-.4,-.1,-.9,-.2,-1.3,-.2h-.2v-.3c.4,0,.8,-.2,1.3,-.4c.4,-.3,.7,-.6,.9,-1c.2,-.3,.3,-.7,.3,-1.2c0,-.5,-.2,-1,-.5,-1.3c-.4,-.4,-.8,-.6,-1.4,-.6c-.8,0,-1.5,.5,-2.1,1.4Z" class="g4_40"/>
<path d="M220.7,322.8v.3c-.7,.1,-1.3,.2,-1.7,.5c-.5,.2,-.9,.5,-1.4,1c-.4,.4,-.8,.9,-1.1,1.4c-.3,.6,-.5,1.2,-.7,2c.8,-.6,1.5,-.8,2.3,-.8c.8,0,1.5,.3,2,.9c.6,.6,.9,1.4,.9,2.3c0,1,-.3,1.8,-.9,2.6c-.7,.9,-1.6,1.4,-2.7,1.4c-.7,0,-1.4,-.3,-1.9,-.8c-1.1,-.9,-1.6,-2.2,-1.6,-3.8c0,-1,.2,-1.9,.6,-2.8c.4,-.9,1,-1.7,1.7,-2.4c.8,-.7,1.5,-1.2,2.2,-1.4c.6,-.2,1.3,-.4,1.9,-.4Zm-5.1,5.8c-.1,.7,-.1,1.3,-.1,1.8c0,.5,.1,1.1,.3,1.7c.2,.6,.5,1.1,.8,1.4c.3,.3,.7,.4,1.1,.4c.4,0,.9,-.2,1.2,-.6c.4,-.5,.6,-1.1,.6,-2c0,-.9,-.2,-1.7,-.6,-2.4c-.3,-.7,-.9,-1,-1.5,-1c-.3,0,-.5,0,-.7,.1c-.3,.1,-.6,.3,-1.1,.6Z" class="g4_40"/>
<path d="M212.6,308.4v1.2h-1.5v2.9h-1.3v-2.9h-4.7v-1.1l5.1,-7.3h.9v7.2Zm-2.8,0v-5.5l-3.9,5.5Z" class="g4_40"/>
<path d="M220.9,310.4l-.8,2.1h-6.5v-.3c1.9,-1.7,3.3,-3.2,4,-4.3c.8,-1.1,1.2,-2.1,1.2,-3c0,-.7,-.2,-1.3,-.6,-1.8c-.5,-.4,-1,-.7,-1.6,-.7c-.5,0,-1,.2,-1.5,.5c-.4,.3,-.7,.8,-.9,1.4h-.3c.1,-1,.5,-1.8,1,-2.3c.6,-.6,1.3,-.8,2.2,-.8c.9,0,1.6,.3,2.2,.8c.6,.6,.9,1.3,.9,2.1c0,.6,-.1,1.1,-.4,1.7c-.4,.9,-1,1.8,-1.9,2.8c-1.4,1.5,-2.3,2.4,-2.6,2.7h2.9c.6,0,1,0,1.3,-.1c.2,0,.4,-.1,.6,-.2c.2,-.2,.4,-.4,.5,-.6Z" class="g4_40"/>
<path d="M212.6,286.8v1.1h-1.5v3h-1.3v-3h-4.7v-1l5.1,-7.4h.9v7.3Zm-2.8,0v-5.5l-3.9,5.5Z" class="g4_40"/>
<path d="M216.4,285.3c-.9,-.7,-1.4,-1.3,-1.7,-1.8c-.2,-.4,-.4,-.9,-.4,-1.3c0,-.7,.3,-1.4,.9,-1.9c.5,-.5,1.3,-.8,2.2,-.8c.9,0,1.6,.3,2.2,.8c.5,.4,.8,1,.8,1.6c0,.4,-.2,.9,-.5,1.3c-.2,.4,-.9,.9,-1.8,1.5c1,.8,1.6,1.3,1.9,1.8c.4,.5,.6,1.1,.6,1.7c0,.8,-.3,1.5,-.9,2c-.6,.6,-1.3,.9,-2.3,.9c-1.1,0,-1.9,-.4,-2.5,-1c-.4,-.5,-.7,-1.1,-.7,-1.8c0,-.4,.2,-.9,.5,-1.4c.3,-.5,.9,-1,1.7,-1.6m1.3,-.9c.7,-.6,1.1,-1.1,1.3,-1.4c.1,-.3,.2,-.7,.2,-1.2c0,-.5,-.1,-1,-.5,-1.3c-.3,-.3,-.7,-.5,-1.3,-.5c-.5,0,-1,.2,-1.3,.5c-.4,.3,-.6,.7,-.6,1.1c0,.3,.1,.6,.2,.9c.2,.3,.4,.5,.7,.8Zm-.9,1.2c-.4,.4,-.8,.8,-1,1.2c-.2,.5,-.3,1,-.3,1.5c0,.7,.2,1.3,.6,1.7c.3,.4,.8,.6,1.4,.6c.6,0,1.1,-.1,1.4,-.5c.4,-.3,.6,-.7,.6,-1.2c0,-.4,-.1,-.7,-.3,-1c-.4,-.6,-1.2,-1.4,-2.4,-2.3Z" class="g4_40"/>
<path d="M212.1,258.1l-.6,1.4h-3.4l-.7,1.5c1.4,.2,2.6,.7,3.4,1.6c.7,.7,1.1,1.6,1.1,2.6c0,.6,-.1,1.2,-.3,1.7c-.3,.5,-.6,.9,-.9,1.2c-.4,.4,-.8,.7,-1.3,.9c-.6,.3,-1.2,.4,-1.9,.4c-.7,0,-1.1,-.1,-1.4,-.3c-.3,-.2,-.5,-.5,-.5,-.8c0,-.1,.1,-.3,.2,-.4c.1,-.1,.3,-.1,.5,-.1c.1,0,.2,0,.3,0c.1,.1,.3,.2,.6,.4c.4,.2,.8,.4,1.2,.4c.7,0,1.2,-.3,1.7,-.7c.5,-.5,.7,-1.1,.7,-1.8c0,-.7,-.2,-1.3,-.6,-1.9c-.4,-.6,-1,-1,-1.8,-1.3c-.6,-.3,-1.4,-.4,-2.4,-.5l2.1,-4.3Z" class="g4_40"/>
<path d="M221,265.1v1.2h-1.5v2.9h-1.3v-2.9h-4.7v-1.1l5.1,-7.3h.9v7.2Zm-2.8,0v-5.5l-3.9,5.5Z" class="g4_40"/>
<path d="M212.3,236.2v.3c-.7,.1,-1.3,.2,-1.7,.5c-.5,.2,-.9,.5,-1.4,.9c-.4,.5,-.8,1,-1.1,1.5c-.3,.6,-.5,1.2,-.7,2c.8,-.6,1.5,-.9,2.3,-.9c.8,0,1.5,.4,2,1c.6,.6,.9,1.4,.9,2.3c0,1,-.3,1.8,-.9,2.6c-.7,.9,-1.6,1.4,-2.7,1.4c-.7,0,-1.4,-.3,-1.9,-.8c-1.1,-1,-1.6,-2.2,-1.6,-3.8c0,-1,.2,-1.9,.6,-2.8c.4,-.9,1,-1.7,1.7,-2.4c.8,-.7,1.5,-1.2,2.2,-1.4c.6,-.3,1.3,-.4,1.9,-.4Zm-5.1,5.8c-.1,.7,-.1,1.3,-.1,1.8c0,.5,.1,1,.3,1.7c.2,.6,.5,1.1,.8,1.4c.3,.3,.7,.4,1.1,.4c.4,0,.9,-.2,1.2,-.7c.4,-.4,.6,-1,.6,-1.9c0,-.9,-.2,-1.7,-.6,-2.4c-.3,-.7,-.9,-1,-1.6,-1c-.2,0,-.4,0,-.6,.1c-.3,.1,-.6,.3,-1.1,.6Z" class="g4_40"/>
<path d="M213.8,242.1c0,-1.3,.2,-2.4,.6,-3.3c.4,-.9,.9,-1.6,1.5,-2c.5,-.4,1,-.6,1.5,-.6c.9,0,1.7,.5,2.3,1.3c.9,1.1,1.3,2.6,1.3,4.4c0,1.3,-.2,2.4,-.6,3.3c-.3,.9,-.8,1.6,-1.4,2c-.6,.4,-1.1,.6,-1.6,.6c-1.1,0,-2,-.7,-2.7,-1.9c-.6,-1.1,-.9,-2.3,-.9,-3.8m1.6,.2c0,1.5,.2,2.8,.6,3.7c.3,.8,.8,1.3,1.4,1.3c.3,0,.6,-.2,.9,-.4c.3,-.3,.6,-.8,.7,-1.4c.3,-.9,.4,-2.2,.4,-4c0,-1.2,-.1,-2.3,-.4,-3.1c-.2,-.7,-.4,-1.1,-.8,-1.4c-.2,-.1,-.5,-.2,-.8,-.2c-.3,0,-.7,.1,-1,.5c-.4,.4,-.6,1.1,-.8,2.1c-.1,1,-.2,1.9,-.2,2.9Z" class="g4_40"/>
<path fill-rule="evenodd" d="M263,285.6h33V458H263V285.6Z" class="g5_40"/>
<path fill-rule="evenodd" d="M345.5,328.8h33V458h-33V328.8Z" class="g5_40"/>
<path fill-rule="evenodd" d="M428,307h33V458H428V307Z" class="g5_40"/>
<path fill-rule="evenodd" d="M510.6,264.3h33V458h-33V264.3Z" class="g5_40"/>
<path fill-rule="evenodd" d="M593.1,372.6h33V458h-33V372.6Z" class="g5_40"/>
<path fill-rule="evenodd" d="M675.6,329.1h33V458h-33V329.1Z" class="g5_40"/>
<path d="M447,502.1c.8,.2,1.4,.4,1.7,.8c.6,.5,.8,1.1,.8,1.8c0,.6,-.1,1.1,-.5,1.6c-.3,.5,-.8,.9,-1.4,1.1c-.6,.3,-1.6,.4,-2.8,.4h-5.3v-.3h.5c.4,0,.7,-.2,1,-.5c.1,-.2,.1,-.6,.1,-1.2v-7.2c0,-.7,0,-1.1,-.2,-1.3c-.2,-.2,-.5,-.3,-.9,-.3h-.5v-.4h4.8c.9,0,1.7,.1,2.2,.2c.8,.2,1.4,.6,1.9,1.1c.4,.5,.6,1.1,.6,1.7c0,.6,-.1,1.1,-.5,1.5c-.3,.5,-.8,.8,-1.5,1m-4.3,-.4c.2,0,.4,0,.7,0c.3,.1,.6,.1,.9,.1c.8,0,1.4,-.1,1.8,-.3c.4,-.2,.7,-.4,.9,-.8c.2,-.3,.3,-.7,.3,-1.1c0,-.7,-.3,-1.3,-.8,-1.7c-.5,-.5,-1.3,-.7,-2.3,-.7c-.6,0,-1,.1,-1.5,.2Zm0,5.3c.7,.1,1.3,.2,1.9,.2c1,0,1.7,-.2,2.3,-.7c.5,-.4,.7,-1,.7,-1.6c0,-.5,-.1,-.9,-.3,-1.3c-.2,-.4,-.6,-.7,-1.2,-.9c-.5,-.3,-1.1,-.4,-1.9,-.4c-.4,0,-.7,0,-.9,0c-.2,.1,-.4,.1,-.6,.1Z" class="g4_40"/>
<path d="M453.3,505.5l3.3,-3.8c0,-.4,-.1,-.7,-.3,-.9c-.1,-.1,-.4,-.2,-.7,-.2v-.3h3.5v.3c-.4,0,-.6,0,-.8,.1c-.1,.1,-.2,.1,-.3,.3c0,.1,-.1,.4,-.1,1v4c0,.6,.1,.9,.1,1c.1,.2,.2,.3,.3,.3c.1,.1,.4,.2,.8,.2v.3h-3.7v-.3c.5,0,.8,-.1,1,-.3c.1,-.1,.2,-.5,.2,-1.2v-3.5l-3.3,3.7c0,.5,.1,.8,.2,1c.2,.2,.4,.3,.8,.3v.3h-3.5v-.3c.5,0,.8,-.1,1,-.3c.1,-.2,.2,-.6,.2,-1.2v-4c0,-.6,-.1,-.9,-.1,-1c-.1,-.1,-.2,-.2,-.3,-.3c-.1,-.1,-.4,-.1,-.8,-.1v-.3h3.7v.3c-.4,0,-.6,0,-.8,.1c-.1,.1,-.2,.1,-.3,.3c0,.1,-.1,.4,-.1,1Z" class="g4_40"/>
<path d="M461,500.3h6.6v.3c-.3,0,-.6,0,-.7,.1c-.1,.1,-.2,.1,-.3,.3c-.1,.1,-.1,.4,-.1,1v3.7c0,.8,.1,1.3,.2,1.5c.1,.2,.4,.3,.9,.3v2.4h-.3c0,-.5,-.1,-.9,-.3,-1.2c-.2,-.3,-.5,-.6,-.8,-.7c-.4,-.2,-.9,-.2,-1.6,-.2h-2c-.6,0,-1,0,-1.4,.1c-.3,.1,-.6,.4,-.8,.7c-.2,.3,-.4,.8,-.4,1.3h-.3v-2.4c.4,0,.8,-.2,1.2,-.6c.4,-.3,.7,-1,1,-2c.2,-.9,.4,-1.9,.4,-2.9c0,-.9,-.4,-1.4,-1.3,-1.4Zm1.8,.5v.4c0,2.7,-.5,4.7,-1.4,6h2.8c.5,0,.7,0,.8,-.1c.1,-.1,.1,-.4,.1,-.9v-5.4Z" class="g4_40"/>
<path d="M472.3,500.3h3.5v.3h-.2c-.2,0,-.4,0,-.5,.1c-.1,.1,-.2,.3,-.2,.4c0,.2,.1,.5,.3,.9l1.8,3.8l1.7,-4.2c.1,-.2,.1,-.4,.1,-.6c0,-.1,0,-.2,0,-.2q-.1,-.1,-.2,-.2c-.1,0,-.3,0,-.5,0v-.3h2.4v.3c-.2,0,-.3,0,-.5,.1c-.1,.1,-.2,.2,-.3,.4c-.1,0,-.2,.2,-.3,.6l-3.1,7.5c-.3,.7,-.6,1.3,-1.1,1.6c-.5,.4,-1,.6,-1.4,.6c-.3,0,-.6,-.1,-.8,-.3c-.2,-.2,-.3,-.4,-.3,-.6c0,-.2,.1,-.4,.2,-.6c.2,-.1,.4,-.2,.6,-.2c.2,0,.5,.1,.8,.2c.2,.1,.3,.1,.4,.1c.2,0,.3,-.1,.5,-.2c.2,-.2,.4,-.5,.6,-1l.5,-1.3l-2.7,-5.7c0,-.2,-.2,-.4,-.3,-.6c-.2,-.2,-.3,-.3,-.4,-.4c-.1,-.1,-.3,-.2,-.6,-.2Z" class="g4_40"/>
<path d="M486.2,503.6V502c0,-.5,0,-.8,-.1,-1c0,-.1,-.1,-.2,-.3,-.3c-.2,-.1,-.4,-.1,-.7,-.1v-.3h3.6v.3c-.4,0,-.6,0,-.7,.1c-.2,.1,-.3,.1,-.3,.3c-.1,.1,-.1,.4,-.1,1v4c0,.5,0,.9,0,1c.1,.2,.2,.3,.4,.4c.1,0,.4,.1,.7,.1v.3h-3.8v-.3c.4,0,.7,-.1,.8,-.1c.2,-.1,.3,-.2,.4,-.3c.1,-.2,.1,-.6,.1,-1.1v-1.8c-.8,.4,-1.7,.6,-2.6,.6c-.4,0,-.8,-.1,-1.1,-.2c-.3,-.1,-.4,-.3,-.5,-.4c-.1,-.2,-.1,-.4,-.1,-.8V502c0,-.5,0,-.8,-.1,-.9c0,-.2,-.1,-.3,-.3,-.4c-.1,-.1,-.3,-.1,-.6,-.1v-.3h3.5v.3c-.4,0,-.6,0,-.7,.1c-.2,.1,-.3,.1,-.3,.3c-.1,.1,-.1,.4,-.1,1v.9c0,.4,0,.7,0,.8c.1,.1,.2,.2,.4,.3c.2,.1,.5,.1,.8,.1c.6,0,1.2,-.1,1.7,-.5Z" class="g4_40"/>
<path d="M490.9,503.1c-.1,1.1,.2,2,.8,2.6c.5,.6,1.2,1,1.9,1c.5,0,.9,-.2,1.3,-.4c.3,-.3,.6,-.8,.9,-1.4l.2,.1c-.1,.8,-.4,1.5,-1,2.1c-.5,.6,-1.2,.9,-2,.9c-.9,0,-1.7,-.3,-2.3,-1c-.7,-.8,-1,-1.7,-1,-2.9c0,-1.3,.3,-2.3,1,-3c.6,-.7,1.5,-1.1,2.5,-1.1c.8,0,1.5,.3,2,.9c.6,.5,.8,1.3,.8,2.2Zm0,-.5h3.4c0,-.5,-.1,-.8,-.1,-1c-.2,-.3,-.4,-.6,-.7,-.7c-.2,-.2,-.5,-.3,-.8,-.3c-.5,0,-.9,.2,-1.2,.5c-.4,.4,-.6,.9,-.6,1.5Z" class="g4_40"/>
<path d="M497.8,502.4c.6,-1.6,1.6,-2.4,3.1,-2.4c1.1,0,1.9,.4,2.6,1.2c.7,.8,1,1.7,1,2.7c0,1,-.3,2,-1,2.8c-.7,.9,-1.6,1.3,-2.7,1.3c-1.2,0,-2.1,-.5,-2.7,-1.5c-.6,-.9,-.9,-2.1,-.9,-3.5c0,-1.1,.1,-2.1,.4,-3c.4,-1,.7,-1.7,1,-2.1c.4,-.5,.8,-.8,1.3,-1.1c.4,-.2,1.2,-.3,2.4,-.3c.8,0,1.3,0,1.5,-.1c.2,0,.4,-.1,.5,-.3h.3c-.2,.5,-.4,.9,-.6,1.2c-.3,.2,-.6,.3,-.9,.4c-.2,.1,-.8,.1,-1.5,.2c-.9,0,-1.4,.1,-1.7,.2c-.4,.1,-.7,.3,-1,.7c-.4,.4,-.6,.9,-.8,1.5c-.2,.7,-.3,1.4,-.3,2.1m2.9,-1.8c-.6,0,-1,.2,-1.4,.7c-.3,.4,-.5,1.1,-.5,2.1c0,1.3,.2,2.3,.7,3c.5,.7,1,1,1.6,1c.6,0,1,-.2,1.4,-.7c.3,-.5,.5,-1.2,.5,-2.3c0,-1.1,-.3,-2,-.7,-2.7c-.4,-.7,-1,-1.1,-1.6,-1.1Z" class="g4_40"/>
<path d="M507.9,503.6h3.3V502c0,-.5,0,-.8,-.1,-.9c0,-.2,-.1,-.3,-.2,-.4c-.2,-.1,-.5,-.1,-.8,-.1v-.3h3.6v.3c-.3,0,-.6,0,-.8,.1c-.1,.1,-.2,.2,-.3,.3c0,.2,0,.5,0,1v4c0,.5,0,.8,0,1c.1,.1,.2,.2,.3,.3c.2,.1,.4,.2,.8,.2v.3h-3.6v-.3c.4,0,.7,-.1,.9,-.3c.1,-.1,.2,-.5,.2,-1.2v-1.9h-3.3V506c0,.5,.1,.8,.1,1c0,.1,.2,.2,.3,.3c.2,.1,.4,.2,.8,.2v.3h-3.6v-.3c.4,0,.8,-.1,.9,-.3c.1,-.2,.2,-.6,.2,-1.2v-4c0,-.5,0,-.8,-.1,-.9c0,-.2,-.1,-.3,-.3,-.4c-.1,-.1,-.4,-.1,-.7,-.1v-.3h3.6v.3c-.4,0,-.6,0,-.8,.1c-.1,.1,-.2,.2,-.3,.3c0,.2,-.1,.5,-.1,1Z" class="g4_40"/>
<path d="M516.9,505.5l3.3,-3.8c0,-.4,-.1,-.7,-.2,-.9c-.2,-.1,-.4,-.2,-.8,-.2v-.3h3.5v.3c-.4,0,-.6,0,-.8,.1c-.1,.1,-.2,.1,-.2,.3c-.1,.1,-.2,.4,-.2,1v4c0,.6,.1,.9,.1,1c.1,.2,.2,.3,.3,.3c.1,.1,.4,.2,.8,.2v.3H519v-.3c.5,0,.8,-.1,1,-.3c.1,-.1,.2,-.5,.2,-1.2v-3.5l-3.3,3.7c.1,.5,.1,.8,.2,1c.2,.2,.4,.3,.8,.3v.3h-3.5v-.3c.5,0,.8,-.1,1,-.3c.1,-.2,.2,-.6,.2,-1.2v-4c0,-.6,0,-.9,-.1,-1c-.1,-.1,-.2,-.2,-.3,-.3c-.1,-.1,-.4,-.1,-.8,-.1v-.3h3.7v.3c-.4,0,-.6,0,-.8,.1c-.1,.1,-.2,.1,-.3,.3c0,.1,-.1,.4,-.1,1Z" class="g4_40"/>
<path d="M531.1,507.8h-2.2c-.7,-1,-1.3,-2.1,-1.9,-3.1c-.1,-.2,-.2,-.4,-.3,-.5c-.1,-.2,-.3,-.2,-.5,-.2c0,0,-.1,0,-.3,0v2c0,.5,.1,.9,.1,1c.1,.2,.2,.3,.4,.4c.1,0,.4,.1,.8,.1v.3h-3.8v-.3c.5,0,.8,-.1,1,-.3c.1,-.2,.2,-.6,.2,-1.2v-4c0,-.6,-.1,-.9,-.1,-1c-.1,-.1,-.2,-.2,-.3,-.3c-.1,-.1,-.4,-.1,-.8,-.1v-.3h3.8v.3c-.5,0,-.7,0,-.8,.1c-.2,0,-.2,.1,-.3,.2c-.1,.1,-.2,.5,-.2,1.1v1.5q.2,0,.3,0c.3,0,.6,-.1,.9,-.3c.3,-.2,.6,-.6,.8,-1.2c.2,-.6,.4,-.9,.5,-1.1c.2,-.2,.4,-.4,.6,-.5c.3,-.2,.5,-.2,.8,-.2c.3,0,.5,0,.7,.2c.2,.1,.3,.3,.3,.5c0,.2,-.1,.4,-.2,.5c-.1,.2,-.3,.2,-.5,.2c-.2,0,-.3,0,-.5,-.1c-.2,-.1,-.4,-.1,-.5,-.1c-.3,0,-.5,.2,-.6,.7c-.2,.5,-.4,.8,-.4,.9c-.1,.2,-.3,.4,-.5,.6c.1,0,.3,.2,.5,.4c.2,.2,.6,.8,1.1,1.7c.5,.8,.8,1.2,1,1.4c.2,.3,.5,.4,.9,.4Z" class="g4_40"/>
<path d="M185.5,390.4l2.5,-.1v.3c-.8,.2,-1.3,.4,-1.5,.8c-.2,.4,-.3,1,-.3,1.9v1.9h4.4v-.4c0,-1.4,0,-2.4,.2,-3c.2,-.7,.5,-1.2,1,-1.6c.5,-.4,1.1,-.6,1.8,-.6c.8,0,1.5,.3,2.1,.9c.7,.6,1,1.7,1,3.2v4.7h-.3c-.1,-.7,-.2,-1.1,-.4,-1.3c-.2,-.2,-.6,-.3,-1.4,-.3h-7c-.6,0,-1,0,-1.2,.1c-.2,.1,-.3,.2,-.4,.4c-.1,.2,-.1,.5,-.1,1h-.4Zm10.5,4.8c.1,-.5,.1,-.8,.1,-1.1c0,-.7,-.2,-1.3,-.6,-1.8c-.5,-.6,-1.1,-.9,-1.9,-.9c-.8,0,-1.4,.3,-1.8,.9c-.4,.6,-.6,1.3,-.6,2.2c0,.2,0,.5,0,.7Zm-6.1,-6.1l-.9,-2.4v-.3h1.7c-.6,-.4,-1.1,-.7,-1.4,-1.1c-.2,-.4,-.4,-.8,-.4,-1.3c0,-.7,.3,-1.4,.9,-1.9c.7,-.6,1.7,-.9,2.8,-.9c1.3,0,2.4,.4,3.3,1.1c.7,.6,1,1.4,1,2.3c0,.4,-.1,.8,-.2,1.1c-.1,.2,-.2,.5,-.5,.7h2.3c.5,0,.9,0,1,-.1c.1,0,.3,-.1,.3,-.3c.1,-.1,.2,-.4,.2,-.8h.3v3.9H200v-.2c0,-.3,-.1,-.6,-.2,-.8c-.1,-.1,-.2,-.2,-.3,-.2c-.1,-.1,-.5,-.1,-1,-.1h-7.1c-.5,0,-.8,0,-1,.1c-.1,0,-.2,.1,-.2,.2c-.1,.1,-.1,.2,-.1,.4c0,.1,0,.3,.1,.5Zm1.3,-2.7H194c.6,0,1,0,1.2,0c.3,-.1,.6,-.3,.9,-.6c.2,-.3,.3,-.7,.3,-1.1c0,-.6,-.2,-1,-.6,-1.4c-.6,-.4,-1.4,-.6,-2.4,-.6c-1.1,0,-2,.2,-2.6,.7c-.5,.4,-.7,.8,-.7,1.3c0,.2,.1,.5,.2,.8c.1,.1,.4,.5,.9,.9m-2.3,-10c0,-1.1,.5,-2,1.3,-2.7c.8,-.6,1.6,-.9,2.6,-.9c.7,0,1.3,.2,2,.5c.7,.3,1.2,.8,1.6,1.3c.3,.6,.5,1.2,.5,1.9c0,1.2,-.4,2.1,-1.3,2.7c-.8,.6,-1.7,.9,-2.6,.9c-.7,0,-1.4,-.2,-2.1,-.5c-.6,-.4,-1.1,-.8,-1.5,-1.4c-.3,-.6,-.5,-1.1,-.5,-1.8m.6,.3c0,.3,.1,.6,.2,.9c.2,.3,.5,.5,.9,.7c.5,.2,1,.2,1.7,.2c1.1,0,2,-.2,2.8,-.6c.8,-.4,1.2,-1,1.2,-1.7c0,-.6,-.2,-1,-.6,-1.3c-.5,-.4,-1.2,-.6,-2.3,-.6c-1.3,0,-2.4,.3,-3.1,.9c-.6,.4,-.8,.9,-.8,1.5m-3.4,-6.3c-.1,0,-.3,0,-.4,-.1c-.1,-.1,-.2,-.3,-.2,-.4c0,-.4,.3,-.7,1,-1c.4,-.2,.6,-.3,.7,-.5c.1,-.3,.2,-.5,.2,-.6c0,-.4,-.1,-.7,-.2,-.8c-.2,-.2,-.4,-.4,-.8,-.5c-.6,-.3,-.9,-.5,-.9,-.9c0,-.1,.1,-.3,.2,-.4c.1,-.1,.3,-.2,.4,-.2c.5,0,.8,.3,1.2,.9c.4,.5,.5,1.1,.5,1.8c0,.9,-.1,1.6,-.4,2.1c-.4,.4,-.8,.6,-1.3,.6m8.3,-1l-3.8,-3.3c-.4,0,-.7,.1,-.9,.2c-.1,.2,-.2,.5,-.2,.8h-.3v-3.5h.3c0,.4,0,.6,.1,.8c.1,.1,.1,.2,.3,.2c.1,.1,.4,.2,1,.2h4c.6,0,.9,-.1,1,-.1c.2,-.1,.3,-.2,.3,-.3c.1,-.1,.2,-.4,.2,-.8h.3v3.7h-.3c0,-.5,-.1,-.8,-.3,-1c-.1,-.1,-.5,-.2,-1.2,-.2h-3.5l3.7,3.3c.5,0,.8,-.1,1,-.2c.2,-.2,.3,-.4,.3,-.8h.3v3.5h-.3c0,-.5,-.1,-.8,-.3,-1c-.2,-.1,-.6,-.2,-1.2,-.2h-4c-.6,0,-.9,0,-1,.1c-.1,.1,-.2,.2,-.3,.3c-.1,.1,-.1,.4,-.1,.8h-.3v-3.7h.3c0,.4,0,.6,.1,.8c.1,.1,.1,.2,.3,.3c.1,0,.4,.1,1,.1Zm-5.2,-10.5v-3.5h.3v.2c0,.3,0,.4,.1,.6c.1,.1,.3,.1,.4,.1c.2,0,.5,0,.9,-.2l3.8,-1.9l-4.2,-1.6c-.2,-.1,-.4,-.2,-.6,-.2c-.1,0,-.2,0,-.2,.1c-.1,0,-.1,.1,-.2,.2c0,.1,0,.2,0,.5h-.3v-2.5h.3c0,.2,0,.4,.1,.5c.1,.1,.2,.2,.4,.4c0,0,.2,.1,.6,.2l7.5,3.1c.7,.3,1.3,.7,1.6,1.2c.4,.4,.6,.9,.6,1.3c0,.4,-.1,.6,-.3,.8c-.2,.2,-.4,.4,-.6,.4c-.2,0,-.4,-.1,-.6,-.3c-.1,-.1,-.2,-.3,-.2,-.6c0,-.2,.1,-.4,.2,-.7c.1,-.2,.1,-.4,.1,-.4c0,-.2,-.1,-.4,-.2,-.6c-.2,-.2,-.5,-.4,-1,-.6l-1.3,-.5l-5.7,2.7c-.2,.1,-.4,.2,-.6,.4c-.2,.1,-.3,.2,-.4,.3c-.1,.2,-.2,.4,-.2,.6Zm3.3,-13.8h-1.6c-.5,0,-.8,0,-1,0c-.1,.1,-.2,.2,-.3,.4c-.1,.1,-.1,.4,-.1,.7h-.3v-3.6h.3c0,.3,0,.6,.1,.7c.1,.1,.1,.2,.3,.3c.1,.1,.4,.1,1,.1h4c.5,0,.9,0,1,-.1c.2,0,.3,-.1,.4,-.3c0,-.2,.1,-.4,.1,-.7h.3v3.8h-.3c0,-.5,-.1,-.8,-.1,-.9c-.1,-.1,-.2,-.2,-.3,-.3c-.2,-.1,-.6,-.1,-1.1,-.1h-1.8c.4,.8,.6,1.6,.6,2.5c0,.5,-.1,.9,-.2,1.1c-.1,.3,-.3,.5,-.4,.5c-.2,.1,-.4,.1,-.8,.1h-1.4c-.5,0,-.8,.1,-.9,.1c-.2,.1,-.3,.2,-.4,.3c-.1,.2,-.1,.4,-.1,.7h-.3v-3.6h.3c0,.4,0,.7,.1,.8c.1,.1,.1,.2,.3,.3c.1,.1,.4,.1,1,.1h.9c.4,0,.7,0,.8,-.1c.1,0,.2,-.2,.3,-.3c.1,-.2,.1,-.5,.1,-.8c0,-.6,-.1,-1.2,-.5,-1.7m-.5,-4.7c1.1,0,2,-.3,2.6,-.8c.6,-.6,1,-1.2,1,-1.9c0,-.5,-.2,-1,-.4,-1.3c-.3,-.4,-.8,-.7,-1.4,-.9l.1,-.3c.8,.1,1.5,.4,2.1,1c.6,.6,.9,1.2,.9,2.1c0,.9,-.3,1.7,-1,2.3c-.8,.6,-1.7,1,-2.9,1c-1.3,0,-2.3,-.4,-3,-1c-.7,-.7,-1.1,-1.5,-1.1,-2.5c0,-.9,.3,-1.5,.9,-2.1c.5,-.5,1.3,-.8,2.2,-.8Zm-.5,0v-3.5c-.5,0,-.8,.1,-1,.2c-.3,.1,-.6,.3,-.7,.6c-.2,.3,-.3,.6,-.3,.8c0,.5,.2,.9,.5,1.3c.4,.3,.9,.5,1.5,.6m-.2,-6.9c-1.6,-.6,-2.4,-1.7,-2.4,-3.2c0,-1,.4,-1.9,1.2,-2.6c.8,-.6,1.7,-1,2.7,-1c1,0,2,.4,2.8,1.1c.9,.6,1.3,1.5,1.3,2.7c0,1.2,-.5,2.1,-1.5,2.7c-.9,.6,-2.1,.9,-3.5,.9c-1.1,0,-2.1,-.2,-3,-.5c-1,-.3,-1.7,-.6,-2.1,-1c-.5,-.3,-.8,-.7,-1.1,-1.2c-.2,-.5,-.3,-1.3,-.3,-2.4c0,-.9,0,-1.4,-.1,-1.6c0,-.1,-.1,-.3,-.3,-.5v-.3c.5,.2,.9,.4,1.2,.7c.2,.2,.3,.5,.4,.8c.1,.3,.1,.8,.2,1.6c0,.8,.1,1.4,.2,1.7c.1,.3,.3,.6,.7,1c.4,.3,.9,.6,1.5,.8c.7,.1,1.4,.3,2.1,.3m-1.8,-2.9c0,.5,.2,1,.7,1.3c.4,.4,1.1,.6,2.1,.6c1.3,0,2.3,-.3,3,-.7c.7,-.5,1,-1.1,1,-1.7c0,-.6,-.2,-1,-.7,-1.3c-.5,-.3,-1.2,-.5,-2.2,-.5c-1.2,0,-2.1,.2,-2.8,.6c-.7,.5,-1.1,1,-1.1,1.7m3,-7.3V320h-1.6c-.5,0,-.8,.1,-.9,.1c-.2,0,-.3,.1,-.4,.3c-.1,.1,-.1,.4,-.1,.8h-.3v-3.6h.3c0,.3,0,.5,.1,.7c.1,.2,.2,.3,.3,.3c.2,.1,.5,.1,1,.1h4c.5,0,.8,0,1,-.1c.1,0,.2,-.1,.3,-.3c.1,-.1,.2,-.4,.2,-.7h.3v3.6h-.3c0,-.5,-.1,-.8,-.3,-.9c-.1,-.2,-.5,-.3,-1.2,-.3H193v3.3h1.9c.5,0,.8,0,1,-.1c.1,0,.2,-.1,.3,-.3c.1,-.1,.2,-.4,.2,-.7h.3v3.6h-.3c0,-.5,-.1,-.8,-.3,-.9c-.2,-.2,-.6,-.2,-1.2,-.2h-4c-.5,0,-.8,0,-.9,0c-.2,.1,-.3,.2,-.4,.3c-.1,.2,-.1,.4,-.1,.8h-.3v-3.6h.3c0,.3,0,.5,.1,.7c.1,.2,.2,.3,.3,.3c.2,.1,.5,.1,1,.1Zm1.9,-9l-3.8,-3.2c-.4,0,-.7,0,-.9,.2c-.1,.1,-.2,.4,-.2,.8h-.3v-3.5h.3c0,.3,0,.6,.1,.7c.1,.1,.1,.2,.3,.3c.1,.1,.4,.1,1,.1h4c.6,0,.9,0,1,-.1c.2,0,.3,-.1,.3,-.3c.1,-.1,.2,-.4,.2,-.7h.3v3.6h-.3c0,-.5,-.1,-.8,-.3,-.9c-.1,-.2,-.5,-.2,-1.2,-.2h-3.5l3.7,3.2c.5,0,.8,-.1,1,-.2c.2,-.1,.3,-.4,.3,-.8h.3v3.5h-.3c0,-.5,-.1,-.8,-.3,-.9c-.2,-.2,-.6,-.2,-1.2,-.2h-4c-.6,0,-.9,0,-1,0c-.1,.1,-.2,.2,-.3,.3c-.1,.2,-.1,.4,-.1,.8h-.3v-3.6h.3c0,.3,0,.6,.1,.7c.1,.1,.1,.2,.3,.3c.1,.1,.4,.1,1,.1Zm2,-14.7h2.4v.3c-.7,0,-1.2,.2,-1.6,.6c-.3,.4,-.5,1.1,-.5,2.2v5.1h-.3c0,-.5,-.1,-.8,-.3,-.9c-.2,-.2,-.6,-.2,-1.2,-.2h-4c-.6,0,-.9,0,-1,.1c-.1,0,-.2,.1,-.3,.2c-.1,.2,-.1,.4,-.1,.8h-.3v-3.6h.3c0,.3,0,.6,.1,.7c.1,.1,.1,.2,.3,.3c.1,.1,.4,.1,1,.1h4.3c.4,0,.7,0,.8,-.1c.1,-.1,.1,-.4,.1,-.8V303c0,-.5,0,-.8,-.1,-.8c-.1,-.1,-.4,-.1,-.9,-.1h-4.2c-.5,0,-.8,0,-1,0c-.1,.1,-.2,.2,-.3,.4c-.1,.1,-.1,.4,-.1,.7h-.3v-3.6h.3c0,.3,0,.6,.1,.7c.1,.1,.1,.2,.3,.3c.1,.1,.4,.1,1,.1h3.9c.7,0,1.1,-.1,1.3,-.2c.2,-.1,.2,-.4,.3,-.9m-2,-3.3l-3.8,-3.2c-.4,0,-.7,.1,-.9,.2c-.1,.2,-.2,.4,-.2,.8h-.3v-3.5h.3c0,.3,0,.6,.1,.7c.1,.1,.1,.2,.3,.3c.1,.1,.4,.1,1,.1h4c.6,0,.9,0,1,-.1c.2,0,.3,-.1,.3,-.3c.1,-.1,.2,-.3,.2,-.7h.3v3.6h-.3c0,-.4,-.1,-.8,-.3,-.9c-.1,-.2,-.5,-.2,-1.2,-.2h-3.5l3.7,3.2c.5,0,.8,-.1,1,-.2c.2,-.1,.3,-.4,.3,-.8h.3v3.5h-.3c0,-.5,-.1,-.8,-.3,-.9c-.2,-.2,-.6,-.2,-1.2,-.2h-4c-.6,0,-.9,0,-1,.1c-.1,0,-.2,.1,-.3,.2c-.1,.2,-.1,.4,-.1,.8h-.3v-3.6h.3c0,.3,0,.6,.1,.7c.1,.1,.1,.2,.3,.3c.1,.1,.4,.1,1,.1Z" class="g4_40"/>
<path d="M249.1,479.3l-3.9,-8.5v6.7c0,.7,0,1,.2,1.2c.2,.2,.4,.3,.8,.3h.4v.3h-3.5V479h.3c.5,0,.8,-.1,.9,-.4c.2,-.1,.2,-.5,.2,-1.1v-6.6c0,-.4,0,-.7,-.1,-.9c-.1,-.2,-.2,-.3,-.4,-.4c-.2,-.1,-.5,-.1,-.9,-.1v-.3h2.8l3.7,7.9l3.6,-7.9h2.9v.3h-.4c-.4,0,-.7,.1,-.9,.3c-.1,.2,-.1,.6,-.1,1.1v6.6c0,.7,0,1,.2,1.2c.2,.2,.4,.3,.8,.3h.4v.3h-4.3V479h.3c.5,0,.8,-.1,1,-.4c.1,-.1,.1,-.5,.1,-1.1v-6.7l-3.9,8.5Z" class="g4_40"/>
<path d="M260.8,478.3c-.7,.5,-1.2,.9,-1.4,.9c-.2,.2,-.5,.2,-.8,.2c-.5,0,-.9,-.1,-1.2,-.5c-.3,-.3,-.4,-.7,-.4,-1.2c0,-.4,0,-.7,.2,-.9c.2,-.3,.5,-.7,1,-1c.5,-.2,1.4,-.6,2.6,-1v-.3c0,-.7,-.1,-1.2,-.4,-1.4c-.2,-.3,-.5,-.4,-.9,-.4c-.3,0,-.6,.1,-.8,.3c-.1,.1,-.2,.3,-.2,.5v.5c0,.2,-.1,.4,-.2,.5c-.1,.1,-.3,.2,-.5,.2c-.1,0,-.3,-.1,-.4,-.2c-.1,-.1,-.2,-.3,-.2,-.5c0,-.5,.2,-.8,.7,-1.2c.4,-.4,1,-.5,1.8,-.5c.6,0,1.1,.1,1.5,.3c.3,.1,.5,.4,.7,.7c0,.2,.1,.6,.1,1.3v2.3c0,.7,0,1.1,0,1.2c.1,.2,.1,.3,.1,.3c.1,.1,.2,.1,.2,.1c.1,0,.2,0,.3,-.1c.1,0,.3,-.2,.6,-.5v.4c-.6,.7,-1.1,1.1,-1.6,1.1c-.3,0,-.5,-.1,-.6,-.2c-.2,-.2,-.2,-.5,-.2,-.9m0,-.5v-2.6c-.8,.3,-1.3,.5,-1.5,.6c-.4,.3,-.7,.5,-.8,.7c-.2,.3,-.3,.5,-.3,.8c0,.4,.1,.7,.3,.9c.2,.2,.5,.4,.8,.4c.3,0,.8,-.3,1.5,-.8Z" class="g4_40"/>
<path d="M263.2,472.5h5.9l.3,1.8H269c0,-.4,-.1,-.7,-.3,-.9c-.1,-.2,-.3,-.3,-.4,-.4c-.2,0,-.5,-.1,-1,-.1h-.5v4.8c0,.5,0,.8,0,1c.1,.1,.2,.2,.3,.2c.2,.1,.5,.1,1,.1v.3h-3.7V479c.5,0,.8,-.1,.9,-.2c.1,-.2,.2,-.5,.2,-1.1v-4.8h-.6c-.4,0,-.7,.1,-.9,.1c-.1,.1,-.3,.2,-.4,.4c-.2,.2,-.3,.5,-.4,.9h-.3Z" class="g4_40"/>
<path d="M271.1,475c0,1,.2,1.8,.7,2.4c.5,.6,1.1,.9,1.8,.9c.4,0,.8,-.1,1.2,-.4c.3,-.2,.6,-.7,.8,-1.3l.2,.2c-.1,.7,-.4,1.3,-.9,1.9c-.5,.5,-1.1,.8,-1.9,.8c-.8,0,-1.5,-.3,-2.1,-1c-.6,-.6,-.9,-1.5,-.9,-2.5c0,-1.2,.3,-2.1,.9,-2.8c.6,-.6,1.4,-1,2.3,-1c.8,0,1.4,.3,1.9,.8c.5,.5,.7,1.2,.7,2Zm0,-.4h3.2c-.1,-.4,-.1,-.8,-.2,-.9c-.1,-.3,-.3,-.5,-.6,-.7c-.2,-.1,-.5,-.2,-.7,-.2c-.4,0,-.8,.1,-1.1,.5c-.4,.3,-.5,.7,-.6,1.3Z" class="g4_40"/>
<path d="M281.1,477.5l2.2,-5h2.3v.2c-.4,0,-.6,.1,-.7,.1c-.1,.1,-.2,.2,-.3,.3c0,.1,0,.4,0,1v3.6c0,.5,0,.8,0,.9c.1,.1,.2,.2,.3,.3c.2,.1,.4,.1,.7,.1v.3h-3.3V479c.4,0,.7,-.1,.8,-.2c.1,-.2,.2,-.5,.2,-1.1v-4.1l-2.4,5.7h-.3l-2.4,-5.7v4.1c0,.5,0,.8,0,.9c.1,.1,.2,.2,.3,.3c.2,.1,.4,.1,.7,.1v.3h-2.6V479c.4,0,.7,-.1,.8,-.2c.2,-.2,.2,-.6,.2,-1.1v-3.6c0,-.6,0,-.9,0,-1c-.1,-.1,-.2,-.2,-.3,-.2c-.1,-.1,-.4,-.2,-.7,-.2v-.2H279Z" class="g4_40"/>
<path d="M290.2,478.3c-.7,.5,-1.2,.9,-1.4,.9c-.2,.2,-.5,.2,-.8,.2c-.5,0,-.9,-.1,-1.2,-.5c-.3,-.3,-.4,-.7,-.4,-1.2c0,-.4,0,-.7,.2,-.9c.2,-.3,.5,-.7,1,-1c.6,-.2,1.4,-.6,2.6,-1v-.3c0,-.7,-.1,-1.2,-.4,-1.4c-.2,-.3,-.5,-.4,-.9,-.4c-.3,0,-.6,.1,-.7,.3c-.2,.1,-.3,.3,-.3,.5v.5c0,.2,-.1,.4,-.2,.5c-.1,.1,-.3,.2,-.4,.2c-.2,0,-.4,-.1,-.5,-.2c-.1,-.1,-.2,-.3,-.2,-.5c0,-.5,.2,-.8,.7,-1.2c.4,-.4,1,-.5,1.8,-.5c.6,0,1.1,.1,1.5,.3c.3,.1,.5,.4,.7,.7c.1,.2,.1,.6,.1,1.3v2.3c0,.7,0,1.1,0,1.2c.1,.2,.1,.3,.2,.3c0,.1,.1,.1,.2,.1c0,0,.1,0,.2,-.1c.1,0,.3,-.2,.6,-.5v.4c-.6,.7,-1.1,1.1,-1.6,1.1c-.3,0,-.5,-.1,-.6,-.2c-.2,-.2,-.2,-.5,-.2,-.9m0,-.5v-2.6c-.8,.3,-1.3,.5,-1.5,.6c-.4,.3,-.7,.5,-.8,.7c-.2,.3,-.3,.5,-.3,.8c0,.4,.1,.7,.3,.9c.2,.2,.5,.4,.8,.4c.4,0,.9,-.3,1.5,-.8Z" class="g4_40"/>
<path d="M292.6,472.5h5.9l.3,1.8h-.4c0,-.4,-.1,-.7,-.3,-.9c-.1,-.2,-.2,-.3,-.4,-.4c-.2,0,-.5,-.1,-.9,-.1h-.6v4.8c0,.5,0,.8,.1,1c0,.1,.1,.2,.3,.2c.1,.1,.4,.1,.9,.1v.3h-3.7V479c.5,0,.8,-.1,.9,-.2c.2,-.2,.2,-.5,.2,-1.1v-4.8h-.6c-.4,0,-.7,.1,-.9,.1c-.1,.1,-.3,.2,-.4,.4c-.2,.2,-.3,.5,-.4,.9h-.3Z" class="g4_40"/>
<path d="M301.5,477.2l2.9,-3.4c0,-.4,0,-.7,-.2,-.8c-.1,-.2,-.3,-.3,-.7,-.3v-.2h3.2v.2c-.3,0,-.5,.1,-.7,.1c-.1,.1,-.2,.2,-.2,.3c-.1,.1,-.1,.4,-.1,1v3.6c0,.5,0,.8,.1,.9c0,.1,.1,.2,.2,.3c.1,.1,.4,.1,.7,.1v.3h-3.3V479c.4,0,.7,-.1,.8,-.2c.2,-.2,.2,-.5,.2,-1.1v-3.2l-2.9,3.4c0,.4,.1,.7,.2,.9c.1,.1,.3,.2,.7,.2v.3h-3.2V479c.5,0,.7,-.1,.9,-.2c.1,-.2,.2,-.6,.2,-1.1v-3.6c0,-.6,-.1,-.9,-.1,-1c-.1,-.1,-.2,-.2,-.3,-.2c-.1,-.1,-.3,-.2,-.7,-.2v-.2h3.3v.2c-.3,0,-.5,.1,-.6,.1c-.2,.1,-.2,.2,-.3,.3c-.1,.1,-.1,.4,-.1,1Z" class="g4_40"/>
<path d="M314.4,479.3h-2c-.7,-.9,-1.2,-1.9,-1.7,-2.8c-.1,-.2,-.3,-.4,-.4,-.5c0,-.1,-.2,-.2,-.3,-.2c-.1,0,-.2,0,-.3,.1v1.8c0,.5,0,.8,.1,.9c0,.2,.1,.3,.3,.3c.1,.1,.4,.1,.7,.1v.3h-3.4V479c.4,0,.7,-.1,.9,-.2c.1,-.2,.1,-.6,.1,-1.1v-3.6c0,-.6,0,-.9,0,-1c-.1,-.1,-.2,-.2,-.3,-.2c-.1,-.1,-.3,-.2,-.7,-.2v-.2h3.4v.2c-.4,0,-.7,.1,-.7,.1c-.1,.1,-.2,.2,-.3,.2c-.1,.1,-.1,.5,-.1,1.1v1.3c.1,0,.2,0,.2,0c.3,0,.6,-.1,.9,-.2c.2,-.2,.5,-.6,.7,-1.1c.2,-.6,.3,-.9,.4,-1.1c.2,-.2,.4,-.3,.6,-.4c.2,-.2,.4,-.2,.7,-.2c.3,0,.5,0,.6,.2c.2,.1,.3,.3,.3,.5c0,.2,-.1,.3,-.2,.4c-.1,.1,-.3,.2,-.5,.2c-.1,0,-.2,0,-.4,-.1c-.2,-.1,-.4,-.1,-.5,-.1c-.2,0,-.4,.2,-.5,.6c-.2,.4,-.3,.7,-.4,.9c-.1,.1,-.2,.3,-.5,.5c.2,0,.4,.2,.5,.3c.2,.2,.6,.7,1.1,1.6c.3,.7,.6,1.1,.8,1.3c.2,.2,.5,.3,.9,.3Z" class="g4_40"/>
<path d="M318.6,478.3c-.7,.5,-1.1,.9,-1.3,.9c-.3,.2,-.6,.2,-.9,.2c-.5,0,-.8,-.1,-1.1,-.5c-.4,-.3,-.5,-.7,-.5,-1.2c0,-.4,.1,-.7,.2,-.9c.2,-.3,.6,-.7,1.1,-1c.5,-.2,1.3,-.6,2.5,-1v-.3c0,-.7,-.1,-1.2,-.3,-1.4c-.2,-.3,-.6,-.4,-1,-.4c-.3,0,-.5,.1,-.7,.3c-.2,.1,-.3,.3,-.3,.5v.5c0,.2,0,.4,-.2,.5c-.1,.1,-.2,.2,-.4,.2c-.2,0,-.4,-.1,-.5,-.2c-.1,-.1,-.1,-.3,-.1,-.5c0,-.5,.2,-.8,.6,-1.2c.4,-.4,1.1,-.5,1.9,-.5c.6,0,1.1,.1,1.4,.3c.3,.1,.6,.4,.7,.7c.1,.2,.1,.6,.1,1.3v2.3c0,.7,0,1.1,.1,1.2c0,.2,0,.3,.1,.3c0,.1,.1,.1,.2,.1q.1,0,.2,-.1c.1,0,.3,-.2,.6,-.5v.4c-.6,.7,-1.1,1.1,-1.6,1.1c-.2,0,-.4,-.1,-.6,-.2c-.1,-.2,-.2,-.5,-.2,-.9m0,-.5v-2.6c-.8,.3,-1.2,.5,-1.5,.6c-.4,.3,-.6,.5,-.8,.7c-.2,.3,-.3,.5,-.3,.8c0,.4,.2,.7,.4,.9c.2,.2,.4,.4,.7,.4c.4,0,.9,-.3,1.5,-.8Z" class="g4_40"/>
<path d="M345.1,473.7l2.2,3.2c.6,.9,1,1.5,1.3,1.7c.3,.3,.7,.4,1.1,.4v.3h-4.3V479c.3,0,.5,0,.6,-.1c.1,0,.2,-.1,.3,-.2c.1,-.1,.1,-.2,.1,-.3c0,-.1,0,-.2,-.1,-.3c0,-.1,-.1,-.3,-.4,-.7l-1.7,-2.6l-2.1,2.8c-.2,.2,-.4,.4,-.4,.5c-.1,.1,-.1,.2,-.1,.3c0,.2,.1,.3,.2,.4c.2,.1,.4,.2,.8,.2v.3H339V479c.3,0,.5,-.1,.7,-.1c.3,-.2,.6,-.3,.8,-.6c.3,-.2,.6,-.5,1,-1l2.4,-3l-2,-2.9c-.6,-.8,-1,-1.3,-1.4,-1.6c-.4,-.2,-.8,-.3,-1.3,-.3v-.3h4.7v.3c-.4,0,-.7,0,-.8,.1c-.2,.2,-.3,.3,-.3,.4c0,.2,.2,.5,.4,.8l1.6,2.3l1.8,-2.2c.2,-.3,.3,-.5,.3,-.6c.1,-.1,.1,-.2,.1,-.3c0,-.1,0,-.2,-.1,-.3c-.1,-.1,-.2,-.1,-.3,-.2c-.1,0,-.3,0,-.7,0v-.3h3.6v.3c-.3,0,-.5,0,-.7,.1c-.2,.1,-.5,.3,-.7,.4c-.2,.2,-.6,.6,-1,1.1Z" class="g4_40"/>
<path d="M352.5,477.2l3,-3.4c0,-.4,-.1,-.7,-.2,-.8c-.2,-.2,-.4,-.3,-.7,-.3v-.2h3.2v.2c-.4,0,-.6,.1,-.7,.1c-.1,.1,-.2,.2,-.3,.3c0,.1,-.1,.4,-.1,1v3.6c0,.5,0,.8,.1,.9c.1,.1,.1,.2,.3,.3c.1,.1,.3,.1,.7,.1v.3h-3.3V479c.4,0,.6,-.1,.8,-.2c.1,-.2,.2,-.5,.2,-1.1v-3.2l-3,3.4c0,.4,.1,.7,.2,.9c.1,.1,.4,.2,.7,.2v.3h-3.1V479c.4,0,.7,-.1,.8,-.2c.1,-.2,.2,-.6,.2,-1.1v-3.6c0,-.6,0,-.9,-.1,-1c0,-.1,-.1,-.2,-.2,-.2c-.1,-.1,-.4,-.2,-.7,-.2v-.2h3.3v.2c-.4,0,-.6,.1,-.7,.1c-.1,.1,-.2,.2,-.3,.3c0,.1,-.1,.4,-.1,1Z" class="g4_40"/>
<path d="M363,477.5l2.1,-5h2.3v.2c-.3,0,-.5,.1,-.6,.1c-.2,.1,-.2,.2,-.3,.3c-.1,.1,-.1,.4,-.1,1v3.6c0,.5,0,.8,.1,.9c0,.1,.1,.2,.3,.3c.1,.1,.3,.1,.6,.1v.3h-3.3V479c.4,0,.7,-.1,.8,-.2c.2,-.2,.3,-.5,.3,-1.1v-4.1l-2.5,5.7h-.2L360,473.6v4.1c0,.5,0,.8,.1,.9c0,.1,.1,.2,.3,.3c.1,.1,.4,.1,.7,.1v.3h-2.7V479c.5,0,.8,-.1,.9,-.2c.1,-.2,.2,-.6,.2,-1.1v-3.6c0,-.6,0,-.9,-.1,-1c-.1,-.1,-.1,-.2,-.3,-.2c-.1,-.1,-.3,-.2,-.7,-.2v-.2h2.4Z" class="g4_40"/>
<path d="M370.4,477.2l2.9,-3.4c0,-.4,0,-.7,-.2,-.8c-.1,-.2,-.3,-.3,-.7,-.3v-.2h3.2v.2c-.3,0,-.6,.1,-.7,.1c-.1,.1,-.2,.2,-.2,.3c-.1,.1,-.1,.4,-.1,1v3.6c0,.5,0,.8,0,.9c.1,.1,.2,.2,.3,.3c.1,.1,.4,.1,.7,.1v.3h-3.3V479c.4,0,.7,-.1,.8,-.2c.2,-.2,.2,-.5,.2,-1.1v-3.2l-2.9,3.4c0,.4,0,.7,.2,.9c.1,.1,.3,.2,.7,.2v.3h-3.2V479c.5,0,.7,-.1,.9,-.2c.1,-.2,.1,-.6,.1,-1.1v-3.6c0,-.6,0,-.9,0,-1c-.1,-.1,-.2,-.2,-.3,-.2c-.1,-.1,-.3,-.2,-.7,-.2v-.2h3.3v.2c-.3,0,-.5,.1,-.7,.1c-.1,.1,-.2,.2,-.2,.3c-.1,.1,-.1,.4,-.1,1Z" class="g4_40"/>
<path d="M382.6,472.5v.2c-.3,0,-.5,.1,-.7,.2c-.1,.1,-.2,.2,-.2,.3c-.1,.1,-.1,.4,-.1,.9v3.6c0,.4,0,.7,.1,.8c0,.2,.1,.3,.2,.4c.2,.1,.4,.1,.7,.1v.3h-3.3V479c.4,0,.7,-.1,.8,-.2c.2,-.2,.3,-.5,.3,-1.1v-1.5h-.3c-.1,0,-.2,0,-.3,0l-2.2,3.1h-1.7V479c.3,0,.5,0,.6,-.1c.1,-.1,.2,-.3,.5,-.6l1.6,-2.3c-1.2,-.4,-1.7,-1,-1.7,-1.8c0,-.5,.2,-.9,.6,-1.2c.4,-.4,1.1,-.5,2.1,-.5Zm-2.2,.5c-.2,0,-.4,-.1,-.6,-.1c-.5,0,-.9,.2,-1.1,.4c-.3,.3,-.4,.6,-.4,.9c0,.4,.2,.8,.5,1.1c.4,.3,.8,.4,1.4,.4c0,0,.1,0,.2,0Z" class="g4_40"/>
<path d="M417.1,469.2v2.3h-.3c0,-.4,-.1,-.8,-.3,-1.1c-.2,-.3,-.4,-.5,-.7,-.6c-.2,0,-.6,-.1,-1.1,-.1h-2.8v7.7c0,.7,0,1.1,.2,1.3c.2,.2,.6,.3,1.2,.3v.3H409V479c.6,0,1,-.1,1.2,-.3c.1,-.2,.2,-.6,.2,-1.3V471c0,-.7,-.1,-1.1,-.2,-1.3c-.2,-.1,-.6,-.2,-1.2,-.2v-.3Z" class="g4_40"/>
<path d="M418,475c0,1,.2,1.8,.7,2.4c.5,.6,1.1,.9,1.8,.9c.4,0,.8,-.1,1.1,-.4c.4,-.2,.6,-.7,.9,-1.3l.2,.2c-.1,.7,-.4,1.3,-.9,1.9c-.5,.5,-1.1,.8,-1.9,.8c-.8,0,-1.5,-.3,-2.1,-1c-.6,-.6,-.9,-1.5,-.9,-2.5c0,-1.2,.3,-2.1,.9,-2.8c.6,-.6,1.4,-1,2.3,-1c.7,0,1.4,.3,1.9,.8c.5,.5,.7,1.2,.7,2Zm0,-.4h3.1c0,-.4,0,-.8,-.1,-.9c-.1,-.3,-.3,-.5,-.6,-.7c-.2,-.1,-.5,-.2,-.7,-.2c-.5,0,-.8,.1,-1.2,.5c-.3,.3,-.5,.7,-.5,1.3Z" class="g4_40"/>
<path d="M427,472.3c1,0,1.8,.3,2.4,1.1c.6,.7,.8,1.5,.8,2.3c0,.7,-.1,1.3,-.4,1.9c-.3,.6,-.7,1.1,-1.2,1.4c-.5,.3,-1.1,.5,-1.7,.5c-1.1,0,-1.9,-.4,-2.5,-1.2c-.5,-.7,-.8,-1.5,-.8,-2.4c0,-.6,.2,-1.2,.5,-1.8c.3,-.6,.7,-1.1,1.2,-1.4c.5,-.3,1.1,-.4,1.7,-.4m-.3,.4c-.2,0,-.5,.1,-.8,.3c-.2,.1,-.5,.4,-.6,.8c-.2,.4,-.3,.9,-.3,1.5c0,1,.2,1.9,.6,2.6c.4,.7,.9,1.1,1.6,1.1c.5,0,.9,-.2,1.2,-.6c.3,-.4,.5,-1.1,.5,-2.1c0,-1.2,-.3,-2.1,-.8,-2.8c-.4,-.5,-.8,-.8,-1.4,-.8Z" class="g4_40"/>
<path d="M436.7,472.5l.2,1.8h-.3c-.2,-.6,-.4,-1,-.6,-1.1c-.1,-.2,-.6,-.3,-1.2,-.3h-1.4v4.8c0,.5,0,.8,.1,.9c0,.1,.1,.2,.2,.3c.1,.1,.4,.1,.7,.1v.3H431V479c.5,0,.8,-.1,.9,-.2c.2,-.2,.3,-.5,.3,-1.1v-3.6c0,-.5,-.1,-.8,-.1,-1c-.1,-.1,-.2,-.2,-.3,-.3c-.2,0,-.4,-.1,-.8,-.1v-.2Z" class="g4_40"/>
<path d="M437,473.1l2.1,-.8h.3v1.6c.4,-.6,.7,-1,1.1,-1.3c.3,-.2,.7,-.3,1.1,-.3c.7,0,1.3,.2,1.7,.8c.6,.6,.9,1.5,.9,2.5c0,1.2,-.4,2.2,-1.1,3c-.5,.6,-1.2,.9,-2.1,.9c-.3,0,-.6,-.1,-.9,-.2c-.2,0,-.4,-.2,-.7,-.4V481c0,.4,0,.7,.1,.9c.1,.1,.2,.2,.3,.3c.1,0,.4,.1,.8,.1v.3H437v-.3h.2c.2,0,.5,-.1,.7,-.2c.1,0,.1,-.1,.2,-.2c0,-.2,.1,-.5,.1,-1v-6.4c0,-.5,0,-.8,-.1,-.9c0,-.1,-.1,-.2,-.2,-.2c-.1,-.1,-.2,-.1,-.3,-.1c-.2,0,-.3,0,-.5,.1Zm2.4,1.2v2.6c0,.5,0,.9,.1,1.1c0,.3,.2,.5,.5,.7c.3,.2,.6,.3,1,.3c.5,0,.9,-.1,1.2,-.5c.4,-.5,.6,-1.3,.6,-2.2c0,-1,-.2,-1.8,-.7,-2.4c-.3,-.4,-.7,-.6,-1.1,-.6c-.2,0,-.5,.1,-.7,.2c-.2,.1,-.5,.4,-.9,.8Z" class="g4_40"/>
<path d="M449,478.3c-.7,.5,-1.1,.9,-1.3,.9c-.3,.2,-.5,.2,-.9,.2c-.4,0,-.8,-.1,-1.1,-.5c-.3,-.3,-.5,-.7,-.5,-1.2c0,-.4,.1,-.7,.2,-.9c.2,-.3,.6,-.7,1.1,-1c.5,-.2,1.4,-.6,2.5,-1v-.3c0,-.7,-.1,-1.2,-.3,-1.4c-.2,-.3,-.5,-.4,-.9,-.4c-.4,0,-.6,.1,-.8,.3c-.2,.1,-.3,.3,-.3,.5v.5c0,.2,0,.4,-.1,.5c-.1,.1,-.3,.2,-.5,.2c-.2,0,-.3,-.1,-.4,-.2c-.2,-.1,-.2,-.3,-.2,-.5c0,-.5,.2,-.8,.6,-1.2c.5,-.4,1.1,-.5,1.9,-.5c.6,0,1.1,.1,1.5,.3c.3,.1,.5,.4,.6,.7c.1,.2,.2,.6,.2,1.3v2.3c0,.7,0,1.1,0,1.2c0,.2,.1,.3,.1,.3q.1,.1,.2,.1c.1,0,.2,0,.2,-.1c.1,0,.3,-.2,.6,-.5v.4c-.5,.7,-1.1,1.1,-1.6,1.1c-.2,0,-.4,-.1,-.5,-.2c-.2,-.2,-.3,-.5,-.3,-.9m0,-.5v-2.6c-.7,.3,-1.2,.5,-1.4,.6c-.4,.3,-.7,.5,-.9,.7c-.1,.3,-.2,.5,-.2,.8c0,.4,.1,.7,.3,.9c.2,.2,.5,.4,.7,.4c.4,0,.9,-.3,1.5,-.8Z" class="g4_40"/>
<path d="M454.6,469.5l2.1,-.8h.3v4.2c.4,-.4,.9,-.6,1.4,-.6c.6,0,1.2,.3,1.6,1c.5,.7,.7,1.6,.7,2.6c0,1,-.2,1.8,-.7,2.5c-.5,.7,-1,1.1,-1.7,1.1c-.5,0,-.9,-.2,-1.3,-.7V481c0,.5,0,.8,.1,.9c0,.1,.1,.2,.3,.3c.1,.1,.4,.1,.9,.1v.3h-3.7v-.3c.5,0,.9,-.1,1,-.2c.2,-.2,.2,-.5,.2,-1.1v-2.2c-.3,.5,-.8,.7,-1.3,.7c-.7,0,-1.3,-.4,-1.7,-1.1c-.5,-.7,-.7,-1.6,-.7,-2.6c0,-.9,.2,-1.7,.7,-2.5c.4,-.7,1,-1,1.7,-1c.5,0,.9,.2,1.3,.7v-1.9c0,-.6,0,-1,-.1,-1.2c-.1,-.2,-.2,-.3,-.4,-.3c-.2,0,-.4,.1,-.5,.2Zm1.2,4.1c-.2,-.6,-.6,-.8,-1,-.8c-.5,0,-.8,.2,-1,.8c-.3,.5,-.4,1.4,-.4,2.5c0,.9,.1,1.7,.4,2.1c.2,.5,.5,.8,1,.8c.3,0,.7,-.2,1,-.7Zm1.2,4.6c.1,.2,.2,.4,.5,.6c.2,.1,.4,.2,.6,.2c.4,0,.7,-.2,.9,-.7c.3,-.5,.4,-1.3,.4,-2.3c0,-2.2,-.5,-3.2,-1.3,-3.2c-.4,0,-.7,.2,-1.1,.6Z" class="g4_40"/>
<path d="M464,477.2l2.9,-3.4c0,-.4,-.1,-.7,-.2,-.8c-.1,-.2,-.4,-.3,-.7,-.3v-.2h3.2v.2c-.3,0,-.6,.1,-.7,.1c-.1,.1,-.2,.2,-.3,.3c0,.1,0,.4,0,1v3.6c0,.5,0,.8,0,.9c.1,.1,.2,.2,.3,.3c.1,.1,.3,.1,.7,.1v.3h-3.3V479c.4,0,.7,-.1,.8,-.2c.2,-.2,.2,-.5,.2,-1.1v-3.2l-2.9,3.4c0,.4,0,.7,.1,.9c.2,.1,.4,.2,.8,.2v.3h-3.2V479c.4,0,.7,-.1,.9,-.2c.1,-.2,.1,-.6,.1,-1.1v-3.6c0,-.6,0,-.9,0,-1c-.1,-.1,-.2,-.2,-.3,-.2c-.1,-.1,-.3,-.2,-.7,-.2v-.2H465v.2c-.3,0,-.6,.1,-.7,.1c-.1,.1,-.2,.2,-.2,.3c-.1,.1,-.1,.4,-.1,1Z" class="g4_40"/>
<path d="M476.2,472.5v.2c-.3,0,-.5,.1,-.7,.2c-.1,.1,-.2,.2,-.3,.3c0,.1,0,.4,0,.9v3.6c0,.4,0,.7,0,.8c.1,.2,.2,.3,.3,.4c.2,.1,.4,.1,.7,.1v.3h-3.3V479c.4,0,.7,-.1,.8,-.2c.2,-.2,.2,-.5,.2,-1.1v-1.5h-.3c0,0,-.1,0,-.2,0l-2.2,3.1h-1.7V479c.3,0,.4,0,.5,-.1c.1,-.1,.3,-.3,.6,-.6l1.6,-2.3c-1.2,-.4,-1.7,-1,-1.7,-1.8c0,-.5,.2,-.9,.6,-1.2c.4,-.4,1.1,-.5,2.1,-.5Zm-2.3,.5c-.1,0,-.3,-.1,-.5,-.1c-.5,0,-.9,.2,-1.1,.4c-.3,.3,-.4,.6,-.4,.9c0,.4,.2,.8,.5,1.1c.4,.3,.8,.4,1.4,.4c0,0,.1,0,.1,0Z" class="g4_40"/>
<path d="M509.1,470.8c0,-.6,-.1,-.9,-.3,-1.1c-.2,-.2,-.6,-.2,-1.2,-.2v-.3H512v.3c-.6,0,-1,.1,-1.2,.2c-.2,.2,-.3,.6,-.3,1.3v6.4c0,.7,.1,1.1,.3,1.3c.2,.2,.6,.3,1.2,.3v.3h-4.4V479c.6,0,1.1,-.1,1.2,-.3c.2,-.2,.3,-.6,.3,-1.3v-5.8l-4.7,6.1c0,.4,0,.7,.1,.8c0,.2,.2,.3,.3,.4c.2,.1,.6,.1,1.1,.1v.3h-4.4V479c.6,0,1,-.1,1.2,-.3c.2,-.2,.3,-.6,.3,-1.3V471c0,-.7,-.1,-1.1,-.3,-1.3c-.2,-.1,-.6,-.2,-1.2,-.2v-.3h4.4v.3c-.7,0,-1.1,.1,-1.2,.2c-.2,.2,-.3,.6,-.3,1.3v5.8Z" class="g4_40"/>
<path d="M518.5,476.7c-.1,.9,-.5,1.6,-1,2.1c-.6,.5,-1.2,.7,-1.8,.7c-.8,0,-1.5,-.3,-2.1,-1c-.5,-.6,-.8,-1.5,-.8,-2.6c0,-1.1,.3,-2,.9,-2.6c.7,-.7,1.4,-1,2.3,-1c.7,0,1.3,.1,1.7,.5c.4,.3,.6,.7,.6,1.1c0,.2,0,.3,-.1,.5c-.2,.1,-.3,.1,-.5,.1c-.3,0,-.6,-.1,-.7,-.3c-.1,-.1,-.2,-.3,-.2,-.6c0,-.2,-.1,-.5,-.3,-.6c-.2,-.2,-.4,-.2,-.7,-.2c-.5,0,-.9,.1,-1.2,.5c-.4,.5,-.6,1.1,-.6,1.9c0,.9,.2,1.6,.6,2.2c.4,.6,.9,.9,1.6,.9c.5,0,.9,-.1,1.3,-.5c.3,-.2,.6,-.6,.8,-1.2Z" class="g4_40"/>
<path d="M519.4,472.5h5.9l.3,1.8h-.3c-.1,-.4,-.2,-.7,-.3,-.9c-.2,-.2,-.3,-.3,-.5,-.4c-.2,0,-.5,-.1,-.9,-.1H523v4.8c0,.5,0,.8,.1,1c.1,.1,.2,.2,.3,.2c.1,.1,.4,.1,.9,.1v.3h-3.7V479c.5,0,.8,-.1,1,-.2c.1,-.2,.2,-.5,.2,-1.1v-4.8h-.7c-.4,0,-.7,.1,-.8,.1c-.2,.1,-.3,.2,-.5,.4c-.1,.2,-.2,.5,-.3,.9h-.4Z" class="g4_40"/>
<path d="M529.3,472.3c1.1,0,1.9,.3,2.5,1.1c.6,.7,.8,1.5,.8,2.3c0,.7,-.1,1.3,-.4,1.9c-.3,.6,-.7,1.1,-1.2,1.4c-.5,.3,-1.1,.5,-1.7,.5c-1.1,0,-1.9,-.4,-2.5,-1.2c-.5,-.7,-.8,-1.5,-.8,-2.4c0,-.6,.2,-1.2,.5,-1.8c.3,-.6,.7,-1.1,1.2,-1.4c.5,-.3,1.1,-.4,1.6,-.4m-.2,.4c-.3,0,-.5,.1,-.8,.3c-.3,.1,-.5,.4,-.6,.8c-.2,.4,-.3,.9,-.3,1.5c0,1,.2,1.9,.6,2.6c.4,.7,.9,1.1,1.6,1.1c.5,0,.9,-.2,1.2,-.6c.3,-.4,.4,-1.1,.4,-2.1c0,-1.2,-.2,-2.1,-.7,-2.8c-.4,-.5,-.8,-.8,-1.4,-.8Z" class="g4_40"/>
<path d="M533.1,473.1l2.1,-.8h.3v1.6c.4,-.6,.7,-1,1.1,-1.3c.3,-.2,.7,-.3,1.1,-.3c.7,0,1.3,.2,1.7,.8c.6,.6,.9,1.5,.9,2.5c0,1.2,-.4,2.2,-1,3c-.6,.6,-1.3,.9,-2.1,.9c-.4,0,-.7,-.1,-1,-.2c-.2,0,-.4,-.2,-.7,-.4V481c0,.4,.1,.7,.1,.9c.1,.1,.2,.2,.3,.3c.2,0,.4,.1,.8,.1v.3h-3.6v-.3h.2c.3,0,.5,-.1,.7,-.2c.1,0,.2,-.1,.2,-.2c.1,-.2,.1,-.5,.1,-1v-6.4c0,-.5,0,-.8,-.1,-.9c0,-.1,-.1,-.2,-.2,-.2c0,-.1,-.2,-.1,-.3,-.1c-.1,0,-.3,0,-.5,.1Zm2.4,1.2v2.6c0,.5,0,.9,.1,1.1c.1,.3,.2,.5,.5,.7c.3,.2,.6,.3,1,.3c.5,0,.9,-.1,1.2,-.5c.4,-.5,.6,-1.3,.6,-2.2c0,-1,-.2,-1.8,-.6,-2.4c-.4,-.4,-.7,-.6,-1.2,-.6c-.2,0,-.5,.1,-.7,.2c-.2,.1,-.5,.4,-.9,.8Z" class="g4_40"/>
<path d="M543.4,477.2l3,-3.4c-.1,-.4,-.1,-.7,-.3,-.8c-.1,-.2,-.3,-.3,-.7,-.3v-.2h3.2v.2c-.3,0,-.5,.1,-.6,.1c-.2,.1,-.2,.2,-.3,.3c-.1,.1,-.1,.4,-.1,1v3.6c0,.5,0,.8,.1,.9c0,.1,.1,.2,.2,.3c.1,.1,.4,.1,.7,.1v.3h-3.3V479c.4,0,.7,-.1,.9,-.2c.1,-.2,.2,-.5,.2,-1.1v-3.2l-3,3.4c0,.4,.1,.7,.2,.9c.1,.1,.3,.2,.7,.2v.3h-3.2V479c.5,0,.8,-.1,.9,-.2c.1,-.2,.2,-.6,.2,-1.1v-3.6c0,-.6,-.1,-.9,-.1,-1c-.1,-.1,-.1,-.2,-.3,-.2c-.1,-.1,-.3,-.2,-.7,-.2v-.2h3.3v.2c-.3,0,-.5,.1,-.6,.1c-.1,.1,-.2,.2,-.3,.3c-.1,.1,-.1,.4,-.1,1Z" class="g4_40"/>
<path d="M555.7,472.5v.2c-.4,0,-.6,.1,-.7,.2c-.2,.1,-.3,.2,-.3,.3c-.1,.1,-.1,.4,-.1,.9v3.6c0,.4,0,.7,.1,.8c0,.2,.1,.3,.3,.4c.1,.1,.3,.1,.7,.1v.3h-3.4V479c.5,0,.7,-.1,.9,-.2c.1,-.2,.2,-.5,.2,-1.1v-1.5h-.3q-.1,0,-.3,0l-2.1,3.1H549V479c.2,0,.4,0,.5,-.1c.1,-.1,.3,-.3,.5,-.6l1.6,-2.3c-1.1,-.4,-1.7,-1,-1.7,-1.8c0,-.5,.2,-.9,.6,-1.2c.4,-.4,1.1,-.5,2.1,-.5Zm-2.3,.5c-.2,0,-.4,-.1,-.6,-.1c-.5,0,-.8,.2,-1.1,.4c-.2,.3,-.4,.6,-.4,.9c0,.4,.2,.8,.6,1.1c.3,.3,.8,.4,1.3,.4q.1,0,.2,0Z" class="g4_40"/>
<path d="M592.7,479.3h-4.4V479c.6,0,1,-.1,1.2,-.2c.2,-.2,.3,-.5,.3,-.9c-1.7,0,-2.9,-.4,-3.6,-1.1c-.8,-.7,-1.2,-1.6,-1.2,-2.6c0,-.8,.3,-1.5,.7,-2.1c.4,-.5,1,-.9,1.6,-1.1c.7,-.2,1.5,-.4,2.5,-.4c0,-.4,-.1,-.6,-.2,-.8c-.1,-.1,-.2,-.2,-.4,-.3c-.1,0,-.4,0,-.9,0v-.3h4.4v.3c-.6,0,-1,.1,-1.2,.2c-.1,.2,-.2,.5,-.3,.9c1.1,0,1.9,.2,2.6,.4c.6,.2,1.1,.6,1.5,1.2c.5,.5,.7,1.2,.7,2c0,1,-.4,1.9,-1.1,2.6c-.7,.7,-1.9,1.1,-3.7,1.1c0,.4,.1,.7,.3,.9c.2,.1,.6,.2,1.2,.2Zm-1.5,-2c.8,0,1.3,-.1,1.8,-.3c.4,-.1,.8,-.5,1.1,-1c.2,-.5,.4,-1.1,.4,-1.8c0,-.7,-.2,-1.3,-.4,-1.8c-.3,-.4,-.7,-.8,-1.1,-.9c-.5,-.2,-1,-.3,-1.8,-.3Zm-1.4,0v-6.1c-.8,0,-1.4,.1,-1.8,.3c-.4,.2,-.8,.5,-1,.9c-.3,.5,-.5,1.1,-.5,1.8c0,.8,.2,1.4,.5,1.9c.4,.5,.8,.9,1.2,1c.5,.2,1,.2,1.6,.2Z" class="g4_40"/>
<path d="M599.2,477.2l2.9,-3.4c0,-.4,-.1,-.7,-.2,-.8c-.1,-.2,-.4,-.3,-.7,-.3v-.2h3.2v.2c-.4,0,-.6,.1,-.7,.1c-.1,.1,-.2,.2,-.3,.3c0,.1,-.1,.4,-.1,1v3.6c0,.5,.1,.8,.1,.9c.1,.1,.2,.2,.3,.3c.1,.1,.3,.1,.7,.1v.3h-3.3V479c.4,0,.7,-.1,.8,-.2c.1,-.2,.2,-.5,.2,-1.1v-3.2l-2.9,3.4c0,.4,0,.7,.1,.9c.1,.1,.4,.2,.7,.2v.3h-3.1V479c.4,0,.7,-.1,.8,-.2c.2,-.2,.2,-.6,.2,-1.1v-3.6c0,-.6,0,-.9,-.1,-1c0,-.1,-.1,-.2,-.2,-.2c-.1,-.1,-.4,-.2,-.7,-.2v-.2h3.3v.2c-.3,0,-.6,.1,-.7,.1c-.1,.1,-.2,.2,-.2,.3c-.1,.1,-.1,.4,-.1,1Z" class="g4_40"/>
<path d="M605.3,474.6v-2.1h.4c.1,0,.2,.1,.3,.1c0,0,.2,-.1,.5,-.1c.5,-.2,.9,-.2,1.2,-.2c.6,0,1.2,.1,1.6,.4c.5,.3,.7,.7,.7,1.2c0,.8,-.6,1.3,-1.8,1.7c1.4,.3,2.1,.9,2.1,1.9c0,.5,-.3,1,-.7,1.4c-.4,.4,-1.1,.6,-1.9,.6c-.5,0,-1,-.1,-1.4,-.3c-.5,-.2,-.9,-.5,-1.4,-1l.2,-.2c.8,.6,1.6,1,2.3,1c.4,0,.8,-.2,1,-.5c.3,-.2,.4,-.6,.4,-1.1c0,-1,-.6,-1.5,-1.9,-1.5v-.5c.6,0,1.1,-.1,1.3,-.5c.3,-.3,.4,-.6,.4,-1c0,-.3,-.1,-.6,-.3,-.8c-.2,-.3,-.5,-.4,-.9,-.4c-.9,0,-1.5,.6,-1.8,1.9Z" class="g4_40"/>
<path d="M613.4,477.2l2.9,-3.4c0,-.4,-.1,-.7,-.2,-.8c-.1,-.2,-.4,-.3,-.7,-.3v-.2h3.2v.2c-.3,0,-.6,.1,-.7,.1c-.1,.1,-.2,.2,-.3,.3c0,.1,0,.4,0,1v3.6c0,.5,0,.8,0,.9c.1,.1,.2,.2,.3,.3c.1,.1,.3,.1,.7,.1v.3h-3.3V479c.4,0,.7,-.1,.8,-.2c.2,-.2,.2,-.5,.2,-1.1v-3.2l-2.9,3.4c0,.4,0,.7,.1,.9c.2,.1,.4,.2,.8,.2v.3h-3.2V479c.4,0,.7,-.1,.9,-.2c.1,-.2,.1,-.6,.1,-1.1v-3.6c0,-.6,0,-.9,0,-1c-.1,-.1,-.2,-.2,-.3,-.2c-.1,-.1,-.3,-.2,-.7,-.2v-.2h3.3v.2c-.3,0,-.6,.1,-.7,.1c-.1,.1,-.2,.2,-.2,.3c-.1,.1,-.1,.4,-.1,1Z" class="g4_40"/>
<path d="M626.3,479.3h-2c-.7,-.9,-1.2,-1.9,-1.7,-2.8c-.2,-.2,-.3,-.4,-.4,-.5c-.1,-.1,-.2,-.2,-.4,-.2c0,0,-.1,0,-.3,.1v1.8c0,.5,.1,.8,.1,.9c.1,.2,.2,.3,.3,.3c.2,.1,.4,.1,.8,.1v.3h-3.4V479c.4,0,.7,-.1,.8,-.2c.2,-.2,.2,-.6,.2,-1.1v-3.6c0,-.6,0,-.9,-.1,-1c0,-.1,-.1,-.2,-.2,-.2c-.1,-.1,-.4,-.2,-.7,-.2v-.2h3.4v.2c-.4,0,-.7,.1,-.8,.1c-.1,.1,-.2,.2,-.2,.2c-.1,.1,-.2,.5,-.2,1.1v1.3q.2,0,.3,0c.3,0,.6,-.1,.8,-.2c.3,-.2,.5,-.6,.7,-1.1c.2,-.6,.4,-.9,.5,-1.1c.1,-.2,.3,-.3,.6,-.4c.2,-.2,.4,-.2,.7,-.2c.2,0,.4,0,.6,.2c.2,.1,.2,.3,.2,.5c0,.2,0,.3,-.1,.4c-.1,.1,-.3,.2,-.5,.2c-.1,0,-.3,0,-.4,-.1c-.2,-.1,-.4,-.1,-.5,-.1c-.2,0,-.4,.2,-.6,.6c-.1,.4,-.2,.7,-.3,.9c-.1,.1,-.3,.3,-.5,.5c.2,0,.3,.2,.5,.3c.2,.2,.5,.7,1,1.6c.4,.7,.7,1.1,.9,1.3c.2,.2,.5,.3,.9,.3Z" class="g4_40"/>
<path d="M630.5,478.3c-.7,.5,-1.2,.9,-1.3,.9c-.3,.2,-.6,.2,-.9,.2c-.5,0,-.9,-.1,-1.2,-.5c-.3,-.3,-.4,-.7,-.4,-1.2c0,-.4,0,-.7,.2,-.9c.2,-.3,.6,-.7,1.1,-1c.5,-.2,1.3,-.6,2.5,-1v-.3c0,-.7,-.1,-1.2,-.3,-1.4c-.3,-.3,-.6,-.4,-1,-.4c-.3,0,-.6,.1,-.7,.3c-.2,.1,-.3,.3,-.3,.5v.5c0,.2,-.1,.4,-.2,.5c-.1,.1,-.3,.2,-.4,.2c-.2,0,-.4,-.1,-.5,-.2c-.1,-.1,-.2,-.3,-.2,-.5c0,-.5,.2,-.8,.7,-1.2c.4,-.4,1,-.5,1.8,-.5c.6,0,1.1,.1,1.5,.3c.3,.1,.5,.4,.7,.7c.1,.2,.1,.6,.1,1.3v2.3c0,.7,0,1.1,0,1.2c.1,.2,.1,.3,.2,.3c0,.1,.1,.1,.2,.1c0,0,.1,0,.2,-.1c.1,0,.3,-.2,.6,-.5v.4c-.6,.7,-1.1,1.1,-1.6,1.1c-.3,0,-.5,-.1,-.6,-.2c-.1,-.2,-.2,-.5,-.2,-.9m0,-.5v-2.6c-.8,.3,-1.3,.5,-1.5,.6c-.4,.3,-.7,.5,-.8,.7c-.2,.3,-.3,.5,-.3,.8c0,.4,.1,.7,.3,.9c.3,.2,.5,.4,.8,.4c.4,0,.9,-.3,1.5,-.8Z" class="g4_40"/>
<path d="M662.4,469.7h-3.1v2.9c0,2.8,-.2,4.7,-.7,5.5c-.5,.9,-1.2,1.3,-2.1,1.3c-.3,0,-.6,-.1,-.8,-.3c-.2,-.1,-.3,-.4,-.3,-.6c0,-.2,.1,-.3,.2,-.5c.1,-.1,.3,-.2,.5,-.2c.1,0,.3,.1,.5,.3c.2,.1,.4,.2,.6,.2c.4,0,.8,-.4,1,-1.1c.3,-.7,.5,-2.1,.5,-4.1V471c0,-.7,-.1,-1.1,-.3,-1.3c-.2,-.1,-.6,-.2,-1.2,-.2v-.3h8.1v.3c-.6,0,-1,.1,-1.2,.2c-.1,.2,-.2,.6,-.2,1.3v6.4c0,.7,.1,1.1,.2,1.3c.2,.2,.6,.3,1.2,.3v.3H661V479c.6,0,1,-.1,1.2,-.3c.2,-.2,.2,-.6,.2,-1.3Z" class="g4_40"/>
<path d="M668.2,477.2l3,-3.4c0,-.4,-.1,-.7,-.2,-.8c-.2,-.2,-.4,-.3,-.7,-.3v-.2h3.1v.2c-.3,0,-.5,.1,-.6,.1c-.1,.1,-.2,.2,-.3,.3c-.1,.1,-.1,.4,-.1,1v3.6c0,.5,0,.8,.1,.9c0,.1,.1,.2,.3,.3c.1,.1,.3,.1,.6,.1v.3h-3.3V479c.5,0,.7,-.1,.9,-.2c.1,-.2,.2,-.5,.2,-1.1v-3.2l-3,3.4c0,.4,.1,.7,.2,.9c.1,.1,.4,.2,.7,.2v.3H666V479c.4,0,.7,-.1,.8,-.2c.1,-.2,.2,-.6,.2,-1.1v-3.6c0,-.6,0,-.9,-.1,-1c0,-.1,-.1,-.2,-.2,-.2c-.2,-.1,-.4,-.2,-.7,-.2v-.2h3.3v.2c-.4,0,-.6,.1,-.7,.1c-.1,.1,-.2,.2,-.3,.3c0,.1,-.1,.4,-.1,1Z" class="g4_40"/>
<path d="M674.2,472.5h5.9l.3,1.8H680c0,-.4,-.1,-.7,-.3,-.9c-.1,-.2,-.3,-.3,-.4,-.4c-.2,0,-.5,-.1,-1,-.1h-.6v4.8c0,.5,.1,.8,.1,1c.1,.1,.2,.2,.3,.2c.2,.1,.5,.1,1,.1v.3h-3.7V479c.5,0,.8,-.1,.9,-.2c.1,-.2,.2,-.5,.2,-1.1v-4.8h-.6c-.4,0,-.7,.1,-.9,.1c-.1,.1,-.3,.2,-.4,.4c-.2,.2,-.3,.5,-.4,.9h-.3Z" class="g4_40"/>
<path d="M682.1,475c0,1,.2,1.8,.7,2.4c.5,.6,1.1,.9,1.8,.9c.4,0,.8,-.1,1.2,-.4c.3,-.2,.6,-.7,.8,-1.3l.2,.2c-.1,.7,-.4,1.3,-.9,1.9c-.5,.5,-1.1,.8,-1.9,.8c-.8,0,-1.5,-.3,-2.1,-1c-.6,-.6,-.9,-1.5,-.9,-2.5c0,-1.2,.3,-2.1,.9,-2.8c.6,-.6,1.4,-1,2.3,-1c.8,0,1.4,.3,1.9,.8c.5,.5,.7,1.2,.7,2Zm0,-.4h3.2c-.1,-.4,-.1,-.8,-.2,-.9c-.1,-.3,-.3,-.5,-.6,-.7c-.2,-.1,-.5,-.2,-.7,-.2c-.4,0,-.8,.1,-1.1,.5c-.4,.3,-.6,.7,-.6,1.3Z" class="g4_40"/>
<path d="M687.2,473.1l2.1,-.8h.3v1.6c.4,-.6,.7,-1,1.1,-1.3c.3,-.2,.7,-.3,1.1,-.3c.7,0,1.3,.2,1.7,.8c.6,.6,.9,1.5,.9,2.5c0,1.2,-.4,2.2,-1.1,3c-.5,.6,-1.2,.9,-2.1,.9c-.3,0,-.6,-.1,-.9,-.2c-.2,0,-.4,-.2,-.7,-.4V481c0,.4,.1,.7,.1,.9c.1,.1,.2,.2,.3,.3c.1,0,.4,.1,.8,.1v.3h-3.6v-.3h.2c.3,0,.5,-.1,.7,-.2c.1,0,.2,-.1,.2,-.2c.1,-.2,.1,-.5,.1,-1v-6.4c0,-.5,0,-.8,-.1,-.9c0,-.1,-.1,-.2,-.2,-.2c-.1,-.1,-.2,-.1,-.3,-.1c-.1,0,-.3,0,-.5,.1Zm2.4,1.2v2.6c0,.5,0,.9,.1,1.1c.1,.3,.2,.5,.5,.7c.3,.2,.6,.3,1,.3c.5,0,.9,-.1,1.2,-.5c.4,-.5,.6,-1.3,.6,-2.2c0,-1,-.2,-1.8,-.6,-2.4c-.4,-.4,-.7,-.6,-1.2,-.6c-.2,0,-.5,.1,-.7,.2c-.2,.1,-.5,.4,-.9,.8Z" class="g4_40"/>
<path d="M699.2,478.3c-.7,.5,-1.1,.9,-1.3,.9c-.3,.2,-.5,.2,-.8,.2c-.5,0,-.9,-.1,-1.2,-.5c-.3,-.3,-.5,-.7,-.5,-1.2c0,-.4,.1,-.7,.3,-.9c.2,-.3,.5,-.7,1,-1c.5,-.2,1.4,-.6,2.5,-1v-.3c0,-.7,-.1,-1.2,-.3,-1.4c-.2,-.3,-.5,-.4,-.9,-.4c-.3,0,-.6,.1,-.8,.3c-.2,.1,-.3,.3,-.3,.5l.1,.5c0,.2,-.1,.4,-.2,.5c-.1,.1,-.3,.2,-.5,.2c-.2,0,-.3,-.1,-.4,-.2c-.1,-.1,-.2,-.3,-.2,-.5c0,-.5,.2,-.8,.6,-1.2c.5,-.4,1.1,-.5,1.9,-.5c.6,0,1.1,.1,1.5,.3c.3,.1,.5,.4,.6,.7c.1,.2,.2,.6,.2,1.3v2.3c0,.7,0,1.1,0,1.2c0,.2,.1,.3,.1,.3c.1,.1,.2,.1,.2,.1c.1,0,.2,0,.2,-.1c.1,0,.3,-.2,.6,-.5v.4c-.5,.7,-1,1.1,-1.6,1.1c-.2,0,-.4,-.1,-.5,-.2c-.2,-.2,-.3,-.5,-.3,-.9m0,-.5v-2.6c-.7,.3,-1.2,.5,-1.4,.6c-.4,.3,-.7,.5,-.9,.7c-.1,.3,-.2,.5,-.2,.8c0,.4,.1,.7,.3,.9c.2,.2,.5,.4,.7,.4c.4,0,.9,-.3,1.5,-.8Z" class="g4_40"/>
<path d="M701.6,472.5h6l.3,1.8h-.4c0,-.4,-.1,-.7,-.3,-.9c-.1,-.2,-.3,-.3,-.5,-.4c-.1,0,-.4,-.1,-.9,-.1h-.6v4.8c0,.5,.1,.8,.1,1c.1,.1,.2,.2,.3,.2c.2,.1,.5,.1,1,.1v.3h-3.7V479c.4,0,.7,-.1,.9,-.2c.1,-.2,.2,-.5,.2,-1.1v-4.8h-.6c-.5,0,-.7,.1,-.9,.1c-.1,.1,-.3,.2,-.4,.4c-.2,.2,-.3,.5,-.4,.9h-.3Z" class="g4_40"/>
<path d="M707.8,472.5H711v.2h-.1c-.3,0,-.4,.1,-.5,.2c-.1,.1,-.2,.2,-.2,.3c0,.2,.1,.5,.2,.8l1.7,3.5l1.5,-3.8c.1,-.2,.2,-.4,.2,-.6c0,-.1,-.1,-.1,-.1,-.2c0,0,-.1,-.1,-.2,-.1c-.1,-.1,-.2,-.1,-.4,-.1v-.2h2.2v.2c-.2,.1,-.3,.1,-.4,.2c-.1,0,-.2,.1,-.4,.3c0,.1,-.1,.2,-.2,.6l-2.8,6.8c-.3,.6,-.6,1.1,-1,1.5c-.5,.3,-.9,.5,-1.3,.5c-.3,0,-.5,-.1,-.7,-.3c-.2,-.1,-.3,-.3,-.3,-.5c0,-.3,.1,-.4,.2,-.6c.1,-.1,.3,-.1,.6,-.1c.1,0,.3,0,.6,.1c.2,.1,.4,.1,.4,.1c.2,0,.3,0,.5,-.2c.2,-.2,.3,-.5,.5,-.9l.5,-1.2l-2.4,-5.1c-.1,-.2,-.2,-.4,-.4,-.6c-.1,-.2,-.2,-.3,-.3,-.4c-.1,0,-.3,-.1,-.6,-.2Z" class="g4_40"/>
<path d="M715.4,473.1l2.1,-.8h.3v1.6c.3,-.6,.7,-1,1,-1.3c.4,-.2,.8,-.3,1.1,-.3c.7,0,1.3,.2,1.8,.8c.5,.6,.8,1.5,.8,2.5c0,1.2,-.3,2.2,-1,3c-.6,.6,-1.3,.9,-2.1,.9c-.4,0,-.7,-.1,-1,-.2c-.2,0,-.4,-.2,-.6,-.4V481c0,.4,0,.7,0,.9c.1,.1,.2,.2,.3,.3c.2,0,.4,.1,.8,.1v.3h-3.6v-.3h.2c.3,0,.5,-.1,.7,-.2c.1,0,.2,-.1,.2,-.2c.1,-.2,.1,-.5,.1,-1v-6.4c0,-.5,0,-.8,0,-.9c-.1,-.1,-.1,-.2,-.2,-.2c-.1,-.1,-.2,-.1,-.4,-.1c-.1,0,-.3,0,-.4,.1Zm2.4,1.2v2.6c0,.5,0,.9,0,1.1c.1,.3,.3,.5,.5,.7c.3,.2,.7,.3,1.1,.3c.5,0,.9,-.1,1.2,-.5c.4,-.5,.6,-1.3,.6,-2.2c0,-1,-.3,-1.8,-.7,-2.4c-.3,-.4,-.7,-.6,-1.1,-.6c-.3,0,-.5,.1,-.8,.2c-.1,.1,-.4,.4,-.8,.8Z" class="g4_40"/>
<path d="M727.4,478.3c-.7,.5,-1.2,.9,-1.3,.9c-.3,.2,-.6,.2,-.9,.2c-.5,0,-.9,-.1,-1.2,-.5c-.3,-.3,-.4,-.7,-.4,-1.2c0,-.4,0,-.7,.2,-.9c.2,-.3,.6,-.7,1.1,-1c.5,-.2,1.3,-.6,2.5,-1v-.3c0,-.7,-.1,-1.2,-.3,-1.4c-.3,-.3,-.6,-.4,-1,-.4c-.3,0,-.6,.1,-.7,.3c-.2,.1,-.3,.3,-.3,.5v.5c0,.2,-.1,.4,-.2,.5c-.1,.1,-.3,.2,-.4,.2c-.2,0,-.4,-.1,-.5,-.2c-.1,-.1,-.2,-.3,-.2,-.5c0,-.5,.3,-.8,.7,-1.2c.4,-.4,1,-.5,1.8,-.5c.6,0,1.1,.1,1.5,.3c.3,.1,.5,.4,.7,.7c.1,.2,.1,.6,.1,1.3v2.3c0,.7,0,1.1,0,1.2c.1,.2,.1,.3,.2,.3c0,.1,.1,.1,.2,.1c0,0,.1,0,.2,-.1c.1,0,.3,-.2,.6,-.5v.4c-.6,.7,-1.1,1.1,-1.6,1.1c-.3,0,-.5,-.1,-.6,-.2c-.1,-.2,-.2,-.5,-.2,-.9m0,-.5v-2.6c-.8,.3,-1.3,.5,-1.5,.6c-.4,.3,-.7,.5,-.8,.7c-.2,.3,-.3,.5,-.3,.8c0,.4,.1,.7,.3,.9c.3,.2,.5,.4,.8,.4c.4,0,.9,-.3,1.5,-.8Z" class="g4_40"/>
<path d="M185.8,1078.2h648V940.8h-648v137.4Z" class="g6_40"/>
<path d="M133.8,978.3h39.7V940.8H133.8v37.5Z" class="g5_40"/>
<path clip-path="url(#c0_40)" d="M154.1,963.3c-2.1,.2,-3.8,-1.5,-3.7,-3.6c.1,-1.7,1.5,-3.1,3.2,-3.2c2.1,-.1,3.8,1.6,3.7,3.6c-.2,1.8,-1.5,3.1,-3.2,3.2m.2,3c-3.9,.2,-7,-2.9,-6.8,-6.8c.2,-3.1,2.8,-5.7,5.9,-5.9c3.9,-.2,7,2.9,6.8,6.7c-.2,3.2,-2.8,5.8,-5.9,6m-.5,-15.4c-5.7,0,-11,3.2,-14.8,8.3c-.3,.4,-.3,1,0,1.4c3.8,5.2,9.1,8.3,14.8,8.3c5.8,0,11,-3.1,14.9,-8.3c.3,-.4,.3,-1,0,-1.4c-3.9,-5.1,-9.1,-8.3,-14.9,-8.3Z" class="g7_40"/>
</svg>